# Blender 4.5.13 LTS
# www.blender.org
o timber
v 0.000000 0.000000 -0.030000
v 0.000000 1.900000 -0.030000
v 0.025981 0.000000 -0.015000
v 0.025981 1.900000 -0.015000
v 0.025981 0.000000 0.015000
v 0.025981 1.900000 0.015000
v 0.000000 0.000000 0.030000
v 0.000000 1.900000 0.030000
v -0.025981 0.000000 0.015000
v -0.025981 1.900000 0.015000
v -0.025981 0.000000 -0.015000
v -0.025981 1.900000 -0.015000
v -0.350000 1.730000 0.020000
v -0.350000 1.770000 0.020000
v -0.350000 1.730000 -0.020000
v -0.350000 1.770000 -0.020000
v 0.350000 1.730000 0.020000
v 0.350000 1.770000 0.020000
v 0.350000 1.730000 -0.020000
v 0.350000 1.770000 -0.020000
v -0.300000 0.720000 0.040000
v -0.300000 1.720000 0.040000
v -0.300000 0.720000 0.020000
v -0.300000 1.720000 0.020000
v 0.300000 0.720000 0.040000
v 0.300000 1.720000 0.040000
v 0.300000 0.720000 0.020000
v 0.300000 1.720000 0.020000
vn 0.5000 -0.0000 -0.8660
vn 1.0000 -0.0000 -0.0000
vn 0.5000 -0.0000 0.8660
vn -0.5000 -0.0000 0.8660
vn -0.0000 1.0000 -0.0000
vn -1.0000 -0.0000 -0.0000
vn -0.5000 -0.0000 -0.8660
vn -0.0000 -1.0000 -0.0000
vn -0.0000 -0.0000 -1.0000
vn -0.0000 -0.0000 1.0000
vt 0.647604 0.000634
vt 0.661260 0.999366
vt 0.647604 0.999366
vt 0.691108 0.000634
vt 0.706878 0.999366
vt 0.691108 0.999366
vt 0.662528 0.000634
vt 0.676184 0.999366
vt 0.662528 0.999366
vt 0.676184 0.000634
vt 0.689841 0.999366
vt 0.000634 0.551204
vt 0.014290 0.527550
vt 0.027947 0.551204
vt 0.708145 0.000634
vt 0.723914 0.999366
vt 0.708145 0.999366
vt 0.633947 0.000634
vt 0.633947 0.999366
vt 0.029214 0.535434
vt 0.056528 0.535434
vt 0.042871 0.559089
vt 0.057795 0.548576
vt 0.078821 0.527550
vt 0.078821 0.548576
vt 0.747475 0.368588
vt 0.768501 0.000634
vt 0.768501 0.368588
vt 0.080088 0.548576
vt 0.101114 0.527550
vt 0.101114 0.548576
vt 0.747475 0.737809
vt 0.768501 0.369855
vt 0.768501 0.737809
vt 0.746208 0.368588
vt 0.725182 0.000634
vt 0.746208 0.000634
vt 0.746208 0.737809
vt 0.725182 0.369855
vt 0.746208 0.369855
vt 0.769768 0.000634
vt 0.780281 0.526282
vt 0.769768 0.526282
vt 0.000634 0.000634
vt 0.316023 0.526282
vt 0.000634 0.526282
vt 0.781548 0.000634
vt 0.792061 0.526282
vt 0.781548 0.526282
vt 0.317290 0.000634
vt 0.632680 0.526282
vt 0.317290 0.526282
vt 0.803841 0.316023
vt 0.793329 0.000634
vt 0.803842 0.000634
vt 0.803842 0.632680
vt 0.793329 0.317290
vt 0.803842 0.317290
vt 0.661260 0.000634
vt 0.706878 0.000634
vt 0.689841 0.000634
vt 0.014290 0.559089
vt 0.000634 0.535434
vt 0.027947 0.535434
vt 0.723914 0.000634
vt 0.029214 0.551204
vt 0.042871 0.527550
vt 0.056528 0.551204
vt 0.057795 0.527550
vt 0.747475 0.000634
vt 0.080088 0.527550
vt 0.747475 0.369855
vt 0.725182 0.368588
vt 0.725182 0.737809
vt 0.780281 0.000634
vt 0.316023 0.000634
vt 0.792061 0.000634
vt 0.632680 0.000634
vt 0.793329 0.316023
vt 0.793329 0.632680
s 0
f 2/1/1 3/2/1 1/3/1
f 4/4/2 5/5/2 3/6/2
f 6/7/3 7/8/3 5/9/3
f 8/10/4 9/11/4 7/8/4
f 2/12/5 10/13/5 6/14/5
f 10/15/6 11/16/6 9/17/6
f 12/18/7 1/3/7 11/19/7
f 3/20/8 7/21/8 11/22/8
f 14/23/6 15/24/6 13/25/6
f 16/26/9 19/27/9 15/28/9
f 20/29/2 17/30/2 19/31/2
f 18/32/10 13/33/10 17/34/10
f 19/35/8 13/36/8 15/37/8
f 16/38/5 18/39/5 20/40/5
f 22/41/6 23/42/6 21/43/6
f 24/44/9 27/45/9 23/46/9
f 28/47/2 25/48/2 27/49/2
f 26/50/10 21/51/10 25/52/10
f 27/53/8 21/54/8 23/55/8
f 24/56/5 26/57/5 28/58/5
f 2/1/1 4/59/1 3/2/1
f 4/4/2 6/60/2 5/5/2
f 6/7/3 8/10/3 7/8/3
f 8/10/4 10/61/4 9/11/4
f 6/14/5 4/62/5 2/12/5
f 2/12/5 12/63/5 10/13/5
f 10/13/5 8/64/5 6/14/5
f 10/15/6 12/65/6 11/16/6
f 12/18/7 2/1/7 1/3/7
f 11/22/8 1/66/8 3/20/8
f 3/20/8 5/67/8 7/21/8
f 7/21/8 9/68/8 11/22/8
f 14/23/6 16/69/6 15/24/6
f 16/26/9 20/70/9 19/27/9
f 20/29/2 18/71/2 17/30/2
f 18/32/10 14/72/10 13/33/10
f 19/35/8 17/73/8 13/36/8
f 16/38/5 14/74/5 18/39/5
f 22/41/6 24/75/6 23/42/6
f 24/44/9 28/76/9 27/45/9
f 28/47/2 26/77/2 25/48/2
f 26/50/10 22/78/10 21/51/10
f 27/53/8 25/79/8 21/54/8
f 24/56/5 22/80/5 26/57/5
