# Blender 4.5.13 LTS
# www.blender.org
o planks
v 0.170000 0.000000 0.000000
v 0.153165 0.000000 -0.073760
v 0.105993 0.000000 -0.132911
v 0.037829 0.000000 -0.165738
v -0.037829 0.000000 -0.165738
v -0.105993 0.000000 -0.132911
v -0.153165 0.000000 -0.073760
v -0.170000 0.000000 -0.000000
v -0.153165 0.000000 0.073760
v -0.105993 0.000000 0.132911
v -0.037829 0.000000 0.165738
v 0.037829 0.000000 0.165738
v 0.105993 0.000000 0.132911
v 0.153165 0.000000 0.073760
v 0.205000 0.120000 0.000000
v 0.184699 0.120000 -0.088946
v 0.127815 0.120000 -0.160275
v 0.045617 0.120000 -0.199860
v -0.045617 0.120000 -0.199860
v -0.127815 0.120000 -0.160275
v -0.184699 0.120000 -0.088946
v -0.205000 0.120000 -0.000000
v -0.184699 0.120000 0.088946
v -0.127815 0.120000 0.160275
v -0.045617 0.120000 0.199860
v 0.045617 0.120000 0.199860
v 0.127815 0.120000 0.160275
v 0.184699 0.120000 0.088946
v 0.215000 0.250000 0.000000
v 0.193708 0.250000 -0.093285
v 0.134050 0.250000 -0.168094
v 0.047842 0.250000 -0.209610
v -0.047842 0.250000 -0.209610
v -0.134050 0.250000 -0.168094
v -0.193708 0.250000 -0.093285
v -0.215000 0.250000 -0.000000
v -0.193708 0.250000 0.093285
v -0.134050 0.250000 0.168094
v -0.047842 0.250000 0.209610
v 0.047842 0.250000 0.209610
v 0.134050 0.250000 0.168094
v 0.193708 0.250000 0.093285
v 0.205000 0.380000 0.000000
v 0.184699 0.380000 -0.088946
v 0.127815 0.380000 -0.160275
v 0.045617 0.380000 -0.199860
v -0.045617 0.380000 -0.199860
v -0.127815 0.380000 -0.160275
v -0.184699 0.380000 -0.088946
v -0.205000 0.380000 -0.000000
v -0.184699 0.380000 0.088946
v -0.127815 0.380000 0.160275
v -0.045617 0.380000 0.199860
v 0.045617 0.380000 0.199860
v 0.127815 0.380000 0.160275
v 0.184699 0.380000 0.088946
v 0.170000 0.500000 0.000000
v 0.153165 0.500000 -0.073760
v 0.105993 0.500000 -0.132911
v 0.037829 0.500000 -0.165738
v -0.037829 0.500000 -0.165738
v -0.105993 0.500000 -0.132911
v -0.153165 0.500000 -0.073760
v -0.170000 0.500000 -0.000000
v -0.153165 0.500000 0.073760
v -0.105993 0.500000 0.132911
v -0.037829 0.500000 0.165738
v 0.037829 0.500000 0.165738
v 0.105993 0.500000 0.132911
v 0.153165 0.500000 0.073760
v 0.194800 0.040000 0.000000
v 0.175509 0.040000 -0.084521
v 0.121456 0.040000 -0.152301
v 0.043347 0.040000 -0.189916
v -0.043347 0.040000 -0.189916
v -0.121456 0.040000 -0.152301
v -0.175509 0.040000 -0.084521
v -0.194800 0.040000 -0.000000
v -0.175509 0.040000 0.084521
v -0.121456 0.040000 0.152301
v -0.043347 0.040000 0.189916
v 0.043347 0.040000 0.189916
v 0.121456 0.040000 0.152301
v 0.175509 0.040000 0.084521
v 0.206800 0.040000 0.000000
v 0.186320 0.040000 -0.089727
v 0.128938 0.040000 -0.161683
v 0.046017 0.040000 -0.201615
v -0.046017 0.040000 -0.201615
v -0.128938 0.040000 -0.161683
v -0.186320 0.040000 -0.089727
v -0.206800 0.040000 -0.000000
v -0.186320 0.040000 0.089727
v -0.128938 0.040000 0.161683
v -0.046017 0.040000 0.201615
v 0.046017 0.040000 0.201615
v 0.128938 0.040000 0.161683
v 0.186320 0.040000 0.089727
v 0.206800 0.080000 0.000000
v 0.186320 0.080000 -0.089727
v 0.128938 0.080000 -0.161683
v 0.046017 0.080000 -0.201615
v -0.046017 0.080000 -0.201615
v -0.128938 0.080000 -0.161683
v -0.186320 0.080000 -0.089727
v -0.206800 0.080000 -0.000000
v -0.186320 0.080000 0.089727
v -0.128938 0.080000 0.161683
v -0.046017 0.080000 0.201615
v 0.046017 0.080000 0.201615
v 0.128938 0.080000 0.161683
v 0.186320 0.080000 0.089727
v 0.194800 0.080000 0.000000
v 0.175509 0.080000 -0.084521
v 0.121456 0.080000 -0.152301
v 0.043347 0.080000 -0.189916
v -0.043347 0.080000 -0.189916
v -0.121456 0.080000 -0.152301
v -0.175509 0.080000 -0.084521
v -0.194800 0.080000 -0.000000
v -0.175509 0.080000 0.084521
v -0.121456 0.080000 0.152301
v -0.043347 0.080000 0.189916
v 0.043347 0.080000 0.189916
v 0.121456 0.080000 0.152301
v 0.175509 0.080000 0.084521
v 0.194800 0.420000 0.000000
v 0.175509 0.420000 -0.084521
v 0.121456 0.420000 -0.152301
v 0.043347 0.420000 -0.189916
v -0.043347 0.420000 -0.189916
v -0.121456 0.420000 -0.152301
v -0.175509 0.420000 -0.084521
v -0.194800 0.420000 -0.000000
v -0.175509 0.420000 0.084521
v -0.121456 0.420000 0.152301
v -0.043347 0.420000 0.189916
v 0.043347 0.420000 0.189916
v 0.121456 0.420000 0.152301
v 0.175509 0.420000 0.084521
v 0.206800 0.420000 0.000000
v 0.186320 0.420000 -0.089727
v 0.128938 0.420000 -0.161683
v 0.046017 0.420000 -0.201615
v -0.046017 0.420000 -0.201615
v -0.128938 0.420000 -0.161683
v -0.186320 0.420000 -0.089727
v -0.206800 0.420000 -0.000000
v -0.186320 0.420000 0.089727
v -0.128938 0.420000 0.161683
v -0.046017 0.420000 0.201615
v 0.046017 0.420000 0.201615
v 0.128938 0.420000 0.161683
v 0.186320 0.420000 0.089727
v 0.206800 0.460000 0.000000
v 0.186320 0.460000 -0.089727
v 0.128938 0.460000 -0.161683
v 0.046017 0.460000 -0.201615
v -0.046017 0.460000 -0.201615
v -0.128938 0.460000 -0.161683
v -0.186320 0.460000 -0.089727
v -0.206800 0.460000 -0.000000
v -0.186320 0.460000 0.089727
v -0.128938 0.460000 0.161683
v -0.046017 0.460000 0.201615
v 0.046017 0.460000 0.201615
v 0.128938 0.460000 0.161683
v 0.186320 0.460000 0.089727
v 0.194800 0.460000 0.000000
v 0.175509 0.460000 -0.084521
v 0.121456 0.460000 -0.152301
v 0.043347 0.460000 -0.189916
v -0.043347 0.460000 -0.189916
v -0.121456 0.460000 -0.152301
v -0.175509 0.460000 -0.084521
v -0.194800 0.460000 -0.000000
v -0.175509 0.460000 0.084521
v -0.121456 0.460000 0.152301
v -0.043347 0.460000 0.189916
v 0.043347 0.460000 0.189916
v 0.121456 0.460000 0.152301
v 0.175509 0.460000 0.084521
vn 0.9378 -0.2735 -0.2140
vn 0.7520 -0.2735 -0.5997
vn 0.4173 -0.2735 -0.8666
vn -0.0000 -0.2735 -0.9619
vn -0.4173 -0.2735 -0.8666
vn -0.7520 -0.2735 -0.5997
vn -0.9378 -0.2735 -0.2140
vn -0.9378 -0.2735 0.2140
vn -0.7520 -0.2735 0.5997
vn -0.4173 -0.2735 0.8666
vn -0.0000 -0.2735 0.9619
vn 0.4173 -0.2735 0.8666
vn 0.7520 -0.2735 0.5997
vn 0.9378 -0.2735 0.2140
vn 0.9722 -0.0748 -0.2219
vn 0.7796 -0.0748 -0.6217
vn 0.4327 -0.0748 -0.8984
vn -0.0000 -0.0748 -0.9972
vn -0.4327 -0.0748 -0.8984
vn -0.7796 -0.0748 -0.6217
vn -0.9722 -0.0748 -0.2219
vn -0.9722 -0.0748 0.2219
vn -0.7796 -0.0748 0.6217
vn -0.4327 -0.0748 0.8984
vn -0.0000 -0.0748 0.9972
vn 0.4327 -0.0748 0.8984
vn 0.7796 -0.0748 0.6217
vn 0.9722 -0.0748 0.2219
vn 0.9722 0.0748 -0.2219
vn 0.7796 0.0748 -0.6217
vn 0.4327 0.0748 -0.8984
vn -0.0000 0.0748 -0.9972
vn -0.4327 0.0748 -0.8984
vn -0.7796 0.0748 -0.6217
vn -0.9722 0.0748 -0.2219
vn -0.9722 0.0748 0.2219
vn -0.7796 0.0748 0.6217
vn -0.4327 0.0748 0.8984
vn -0.0000 0.0748 0.9972
vn 0.4327 0.0748 0.8984
vn 0.7796 0.0748 0.6217
vn 0.9722 0.0748 0.2219
vn 0.9378 0.2735 -0.2140
vn 0.7520 0.2735 -0.5997
vn 0.4173 0.2735 -0.8666
vn -0.0000 0.2735 -0.9619
vn -0.4173 0.2735 -0.8666
vn -0.7520 0.2735 -0.5997
vn -0.9378 0.2735 -0.2140
vn -0.9378 0.2735 0.2140
vn -0.7520 0.2735 0.5997
vn -0.4173 0.2735 0.8666
vn -0.0000 0.2735 0.9619
vn 0.4173 0.2735 0.8666
vn 0.7520 0.2735 0.5997
vn 0.9378 0.2735 0.2140
vn -0.0000 -1.0000 -0.0000
vn -0.0000 1.0000 -0.0000
vn 0.9749 -0.0000 -0.2225
vn 0.7818 -0.0000 -0.6235
vn 0.4339 -0.0000 -0.9010
vn -0.0000 -0.0000 -1.0000
vn -0.4339 -0.0000 -0.9010
vn -0.7818 -0.0000 -0.6235
vn -0.9749 -0.0000 -0.2225
vn -0.9749 -0.0000 0.2225
vn -0.7818 -0.0000 0.6235
vn -0.4339 -0.0000 0.9010
vn -0.0000 -0.0000 1.0000
vn 0.4339 -0.0000 0.9010
vn 0.7818 -0.0000 0.6235
vn 0.9749 -0.0000 0.2225
vt 0.610184 0.339484
vt 0.651062 0.258237
vt 0.656335 0.339484
vt 0.578246 0.339484
vt 0.595409 0.258237
vt 0.300757 0.903366
vt 0.361683 0.822119
vt 0.346908 0.903366
vt 0.244259 0.822119
vt 0.306030 0.822119
vt 0.203381 0.903366
vt 0.249532 0.903366
vt 0.163478 0.903366
vt 0.122600 0.822119
vt 0.178253 0.822119
vt 0.066103 0.903366
vt 0.117327 0.903366
vt 0.019951 0.903366
vt 0.060830 0.822119
vt 0.707559 0.679923
vt 0.768485 0.598676
vt 0.753711 0.679923
vt 0.656335 0.679923
vt 0.712832 0.598676
vt 0.595409 0.598676
vt 0.651062 0.598676
vt 0.578246 0.679923
vt 0.610184 0.679923
vt 0.753711 0.339484
vt 0.712832 0.258237
vt 0.768485 0.258237
vt 0.707559 0.339484
vt 0.649555 0.170219
vt 0.550795 0.170219
vt 0.591187 0.170219
vt 0.365904 0.734102
vt 0.307536 0.734102
vt 0.188606 0.822119
vt 0.242753 0.734102
vt 0.182475 0.734102
vt 0.124107 0.734102
vt 0.005176 0.822119
vt 0.059323 0.734102
vt 0.714339 0.510658
vt 0.772707 0.510658
vt 0.649555 0.510658
vt 0.556895 0.598676
vt 0.591187 0.510658
vt 0.772707 0.170219
vt 0.714339 0.170219
vt 0.651062 0.082202
vt 0.595409 0.082202
vt 0.361683 0.646084
vt 0.306030 0.646084
vt 0.184385 0.734102
vt 0.244259 0.646084
vt 0.178253 0.646084
vt 0.122600 0.646084
vt 0.000955 0.734102
vt 0.060830 0.646084
vt 0.768485 0.422641
vt 0.712832 0.422641
vt 0.651062 0.422641
vt 0.550795 0.510658
vt 0.595409 0.422641
vt 0.768485 0.082202
vt 0.712832 0.082202
vt 0.656335 0.000955
vt 0.556895 0.082202
vt 0.610184 0.000955
vt 0.300757 0.564837
vt 0.346908 0.564837
vt 0.188606 0.646084
vt 0.249532 0.564837
vt 0.163478 0.564837
vt 0.117327 0.564837
vt 0.005176 0.646084
vt 0.066103 0.564837
vt 0.753711 0.341394
vt 0.656335 0.341394
vt 0.707559 0.341394
vt 0.556895 0.422641
vt 0.610184 0.341394
vt 0.753711 0.000955
vt 0.707559 0.000955
vt 0.712949 0.693231
vt 0.752998 0.868696
vt 0.573021 0.868696
vt 0.886831 0.231155
vt 0.774617 0.090443
vt 0.936771 0.012354
vt 0.034344 0.058738
vt 0.076710 0.014821
vt 0.080235 0.022141
vt 0.008876 0.111622
vt 0.027992 0.053672
vt 0.008876 0.170319
vt 0.000955 0.109814
vt 0.034344 0.223203
vt 0.000955 0.172127
vt 0.076710 0.267120
vt 0.027992 0.228269
vt 0.137460 0.272861
vt 0.080235 0.259800
vt 0.194685 0.259800
vt 0.137460 0.280986
vt 0.240576 0.223203
vt 0.198211 0.267120
vt 0.266044 0.170319
vt 0.246929 0.228269
vt 0.266044 0.111622
vt 0.273965 0.172127
vt 0.240576 0.058738
vt 0.273965 0.109814
vt 0.198211 0.014821
vt 0.246929 0.053672
vt 0.137460 0.009080
vt 0.194685 0.022141
vt 0.137460 0.000955
vt 0.510867 0.739434
vt 0.483785 0.683292
vt 0.510867 0.683292
vt 0.452882 0.603689
vt 0.425800 0.564837
vt 0.452882 0.564837
vt 0.452882 0.659831
vt 0.425800 0.603689
vt 0.452882 0.722143
vt 0.425800 0.659831
vt 0.452882 0.778285
vt 0.425800 0.722143
vt 0.539860 0.620979
vt 0.512777 0.564837
vt 0.539860 0.564837
vt 0.539860 0.683292
vt 0.512777 0.620979
vt 0.539860 0.739434
vt 0.512777 0.683292
vt 0.394897 0.620979
vt 0.367815 0.564837
vt 0.394897 0.564837
vt 0.394897 0.683292
vt 0.367815 0.620979
vt 0.394897 0.739434
vt 0.367815 0.683292
vt 0.394897 0.778285
vt 0.367815 0.739434
vt 0.510867 0.620979
vt 0.483785 0.564837
vt 0.510867 0.564837
vt 0.483785 0.620979
vt 0.412380 0.280986
vt 0.469606 0.259800
vt 0.473131 0.267120
vt 0.351630 0.267120
vt 0.412380 0.272861
vt 0.309264 0.223203
vt 0.355155 0.259800
vt 0.275875 0.172127
vt 0.302912 0.228269
vt 0.275875 0.109814
vt 0.283796 0.170319
vt 0.309264 0.058738
vt 0.283796 0.111622
vt 0.351630 0.014821
vt 0.302912 0.053672
vt 0.412380 0.000955
vt 0.355155 0.022141
vt 0.473131 0.014821
vt 0.412380 0.009080
vt 0.515497 0.058738
vt 0.469606 0.022141
vt 0.548885 0.109814
vt 0.521849 0.053672
vt 0.548885 0.172127
vt 0.540964 0.111622
vt 0.515497 0.223203
vt 0.540964 0.170319
vt 0.521849 0.228269
vt 0.034344 0.340679
vt 0.076710 0.296762
vt 0.080235 0.304082
vt 0.008876 0.393563
vt 0.027992 0.335613
vt 0.008876 0.452260
vt 0.000955 0.391755
vt 0.034344 0.505144
vt 0.000955 0.454068
vt 0.076710 0.549061
vt 0.027992 0.510210
vt 0.137460 0.554802
vt 0.080235 0.541741
vt 0.194685 0.541741
vt 0.137460 0.562927
vt 0.240576 0.505144
vt 0.198211 0.549061
vt 0.266044 0.452260
vt 0.246929 0.510210
vt 0.266044 0.393563
vt 0.273965 0.454068
vt 0.240576 0.340679
vt 0.273965 0.391755
vt 0.198211 0.296762
vt 0.246929 0.335613
vt 0.137460 0.291021
vt 0.194685 0.304082
vt 0.137460 0.282896
vt 0.423889 0.739434
vt 0.396807 0.683292
vt 0.423889 0.683292
vt 0.423889 0.778285
vt 0.396807 0.739434
vt 0.801699 0.465713
vt 0.774617 0.409571
vt 0.801699 0.409571
vt 0.801699 0.528026
vt 0.774617 0.465713
vt 0.801699 0.584168
vt 0.774617 0.528026
vt 0.801699 0.289207
vt 0.774617 0.233065
vt 0.801699 0.233065
vt 0.801699 0.351519
vt 0.774617 0.289207
vt 0.801699 0.407661
vt 0.774617 0.351519
vt 0.481874 0.620979
vt 0.454792 0.564837
vt 0.481874 0.564837
vt 0.481874 0.683292
vt 0.454792 0.620979
vt 0.481874 0.739434
vt 0.454792 0.683292
vt 0.481874 0.778285
vt 0.454792 0.739434
vt 0.423889 0.620979
vt 0.396807 0.564837
vt 0.423889 0.564837
vt 0.396807 0.620979
vt 0.412380 0.562927
vt 0.469606 0.541741
vt 0.473131 0.549061
vt 0.351630 0.549061
vt 0.412380 0.554802
vt 0.309264 0.505144
vt 0.355155 0.541741
vt 0.275875 0.454068
vt 0.302912 0.510210
vt 0.275875 0.391755
vt 0.283796 0.452260
vt 0.309264 0.340679
vt 0.283796 0.393563
vt 0.351630 0.296762
vt 0.302912 0.335613
vt 0.412380 0.282896
vt 0.355155 0.304082
vt 0.473131 0.296762
vt 0.412380 0.291021
vt 0.515497 0.340679
vt 0.469606 0.304082
vt 0.548885 0.391755
vt 0.521849 0.335613
vt 0.548885 0.454068
vt 0.540964 0.393563
vt 0.515497 0.505144
vt 0.540964 0.452260
vt 0.521849 0.510210
vt 0.556895 0.258237
vt 0.578246 0.000955
vt 0.203381 0.564837
vt 0.019951 0.564837
vt 0.578246 0.341394
vt 0.550795 0.771321
vt 0.573021 0.725169
vt 0.613070 0.693231
vt 0.663009 0.681833
vt 0.752998 0.725169
vt 0.775223 0.771321
vt 0.775223 0.822545
vt 0.712949 0.900634
vt 0.663009 0.912032
vt 0.613070 0.900634
vt 0.550795 0.822545
vt 0.999045 0.090443
vt 0.999045 0.141667
vt 0.976820 0.187818
vt 0.936771 0.219756
vt 0.836891 0.219756
vt 0.796842 0.187818
vt 0.774617 0.141667
vt 0.796842 0.044291
vt 0.836891 0.012354
vt 0.886831 0.000955
vt 0.976820 0.044291
vt 0.483785 0.739434
vt 0.425800 0.778285
vt 0.512777 0.739434
vt 0.367815 0.778285
vt 0.396807 0.778285
vt 0.774617 0.584168
vt 0.774617 0.407661
vt 0.454792 0.778285
s 0
f 2/1/1 15/2/1 1/3/1
f 3/4/2 16/5/2 2/1/2
f 4/6/3 17/7/3 3/8/3
f 4/6/4 19/9/4 18/10/4
f 6/11/5 19/9/5 5/12/5
f 6/13/6 21/14/6 20/15/6
f 8/16/7 21/14/7 7/17/7
f 9/18/8 22/19/8 8/16/8
f 10/20/9 23/21/9 9/22/9
f 11/23/10 24/24/10 10/20/10
f 11/23/11 26/25/11 25/26/11
f 13/27/12 26/25/12 12/28/12
f 13/29/13 28/30/13 27/31/13
f 1/3/14 28/30/14 14/32/14
f 16/5/15 29/33/15 15/2/15
f 16/5/16 31/34/16 30/35/16
f 18/10/17 31/36/17 17/7/17
f 19/9/18 32/37/18 18/10/18
f 20/38/19 33/39/19 19/9/19
f 21/14/20 34/40/20 20/15/20
f 22/19/21 35/41/21 21/14/21
f 23/42/22 36/43/22 22/19/22
f 23/21/23 38/44/23 37/45/23
f 25/26/24 38/44/24 24/24/24
f 26/25/25 39/46/25 25/26/25
f 27/47/26 40/48/26 26/25/26
f 28/30/27 41/49/27 27/31/27
f 15/2/28 42/50/28 28/30/28
f 30/35/29 43/51/29 29/33/29
f 31/34/30 44/52/30 30/35/30
f 32/37/31 45/53/31 31/36/31
f 33/39/32 46/54/32 32/37/32
f 34/55/33 47/56/33 33/39/33
f 35/41/34 48/57/34 34/40/34
f 36/43/35 49/58/35 35/41/35
f 37/59/36 50/60/36 36/43/36
f 38/44/37 51/61/37 37/45/37
f 39/46/38 52/62/38 38/44/38
f 40/48/39 53/63/39 39/46/39
f 41/64/40 54/65/40 40/48/40
f 42/50/41 55/66/41 41/49/41
f 29/33/42 56/67/42 42/50/42
f 44/52/43 57/68/43 43/51/43
f 45/69/44 58/70/44 44/52/44
f 45/53/45 60/71/45 59/72/45
f 47/56/46 60/71/46 46/54/46
f 48/73/47 61/74/47 47/56/47
f 49/58/48 62/75/48 48/57/48
f 50/60/49 63/76/49 49/58/49
f 51/77/50 64/78/50 50/60/50
f 52/62/51 65/79/51 51/61/51
f 52/62/52 67/80/52 66/81/52
f 54/65/53 67/80/53 53/63/53
f 55/82/54 68/83/54 54/65/54
f 56/67/55 69/84/55 55/66/55
f 43/51/56 70/85/56 56/67/56
f 11/86/57 7/87/57 3/88/57
f 60/89/58 64/90/58 68/91/58
f 72/92/57 85/93/57 71/94/57
f 73/95/57 86/96/57 72/92/57
f 74/97/57 87/98/57 73/95/57
f 75/99/57 88/100/57 74/97/57
f 75/99/57 90/101/57 89/102/57
f 77/103/57 90/101/57 76/104/57
f 78/105/57 91/106/57 77/103/57
f 79/107/57 92/108/57 78/105/57
f 80/109/57 93/110/57 79/107/57
f 81/111/57 94/112/57 80/109/57
f 82/113/57 95/114/57 81/111/57
f 82/113/57 97/115/57 96/116/57
f 84/117/57 97/115/57 83/118/57
f 71/94/57 98/119/57 84/117/57
f 86/120/59 99/121/59 85/122/59
f 87/123/60 100/124/60 86/125/60
f 88/126/61 101/127/61 87/123/61
f 89/128/62 102/129/62 88/126/62
f 90/130/63 103/131/63 89/128/63
f 91/132/64 104/133/64 90/134/64
f 92/135/65 105/136/65 91/132/65
f 93/137/66 106/138/66 92/135/66
f 94/139/67 107/140/67 93/141/67
f 95/142/68 108/143/68 94/139/68
f 96/144/69 109/145/69 95/142/69
f 97/146/70 110/147/70 96/144/70
f 98/148/71 111/149/71 97/150/71
f 85/122/72 112/151/72 98/148/72
f 100/152/58 113/153/58 99/154/58
f 101/155/58 114/156/58 100/152/58
f 101/155/58 116/157/58 115/158/58
f 103/159/58 116/157/58 102/160/58
f 104/161/58 117/162/58 103/159/58
f 104/161/58 119/163/58 118/164/58
f 106/165/58 119/163/58 105/166/58
f 107/167/58 120/168/58 106/165/58
f 108/169/58 121/170/58 107/167/58
f 108/169/58 123/171/58 122/172/58
f 110/173/58 123/171/58 109/174/58
f 111/175/58 124/176/58 110/173/58
f 111/175/58 126/177/58 125/178/58
f 99/154/58 126/177/58 112/179/58
f 128/180/57 141/181/57 127/182/57
f 129/183/57 142/184/57 128/180/57
f 130/185/57 143/186/57 129/183/57
f 131/187/57 144/188/57 130/185/57
f 131/187/57 146/189/57 145/190/57
f 133/191/57 146/189/57 132/192/57
f 134/193/57 147/194/57 133/191/57
f 135/195/57 148/196/57 134/193/57
f 136/197/57 149/198/57 135/195/57
f 137/199/57 150/200/57 136/197/57
f 138/201/57 151/202/57 137/199/57
f 138/201/57 153/203/57 152/204/57
f 140/205/57 153/203/57 139/206/57
f 127/182/57 154/207/57 140/205/57
f 142/208/59 155/209/59 141/210/59
f 143/211/60 156/212/60 142/208/60
f 144/213/61 157/214/61 143/215/61
f 145/216/62 158/217/62 144/213/62
f 146/218/63 159/219/63 145/216/63
f 147/220/64 160/221/64 146/222/64
f 148/223/65 161/224/65 147/220/65
f 149/225/66 162/226/66 148/223/66
f 150/227/67 163/228/67 149/229/67
f 151/230/68 164/231/68 150/227/68
f 152/232/69 165/233/69 151/230/69
f 153/234/70 166/235/70 152/232/70
f 154/236/71 167/237/71 153/238/71
f 141/210/72 168/239/72 154/236/72
f 156/240/58 169/241/58 155/242/58
f 157/243/58 170/244/58 156/240/58
f 157/243/58 172/245/58 171/246/58
f 159/247/58 172/245/58 158/248/58
f 160/249/58 173/250/58 159/247/58
f 160/249/58 175/251/58 174/252/58
f 162/253/58 175/251/58 161/254/58
f 163/255/58 176/256/58 162/253/58
f 164/257/58 177/258/58 163/255/58
f 164/257/58 179/259/58 178/260/58
f 166/261/58 179/259/58 165/262/58
f 167/263/58 180/264/58 166/261/58
f 167/263/58 182/265/58 181/266/58
f 155/242/58 182/265/58 168/267/58
f 2/1/1 16/5/1 15/2/1
f 3/4/2 17/268/2 16/5/2
f 4/6/3 18/10/3 17/7/3
f 4/6/4 5/12/4 19/9/4
f 6/11/5 20/38/5 19/9/5
f 6/13/6 7/17/6 21/14/6
f 8/16/7 22/19/7 21/14/7
f 9/18/8 23/42/8 22/19/8
f 10/20/9 24/24/9 23/21/9
f 11/23/10 25/26/10 24/24/10
f 11/23/11 12/28/11 26/25/11
f 13/27/12 27/47/12 26/25/12
f 13/29/13 14/32/13 28/30/13
f 1/3/14 15/2/14 28/30/14
f 16/5/15 30/35/15 29/33/15
f 16/5/16 17/268/16 31/34/16
f 18/10/17 32/37/17 31/36/17
f 19/9/18 33/39/18 32/37/18
f 20/38/19 34/55/19 33/39/19
f 21/14/20 35/41/20 34/40/20
f 22/19/21 36/43/21 35/41/21
f 23/42/22 37/59/22 36/43/22
f 23/21/23 24/24/23 38/44/23
f 25/26/24 39/46/24 38/44/24
f 26/25/25 40/48/25 39/46/25
f 27/47/26 41/64/26 40/48/26
f 28/30/27 42/50/27 41/49/27
f 15/2/28 29/33/28 42/50/28
f 30/35/29 44/52/29 43/51/29
f 31/34/30 45/69/30 44/52/30
f 32/37/31 46/54/31 45/53/31
f 33/39/32 47/56/32 46/54/32
f 34/55/33 48/73/33 47/56/33
f 35/41/34 49/58/34 48/57/34
f 36/43/35 50/60/35 49/58/35
f 37/59/36 51/77/36 50/60/36
f 38/44/37 52/62/37 51/61/37
f 39/46/38 53/63/38 52/62/38
f 40/48/39 54/65/39 53/63/39
f 41/64/40 55/82/40 54/65/40
f 42/50/41 56/67/41 55/66/41
f 29/33/42 43/51/42 56/67/42
f 44/52/43 58/70/43 57/68/43
f 45/69/44 59/269/44 58/70/44
f 45/53/45 46/54/45 60/71/45
f 47/56/46 61/74/46 60/71/46
f 48/73/47 62/270/47 61/74/47
f 49/58/48 63/76/48 62/75/48
f 50/60/49 64/78/49 63/76/49
f 51/77/50 65/271/50 64/78/50
f 52/62/51 66/81/51 65/79/51
f 52/62/52 53/63/52 67/80/52
f 54/65/53 68/83/53 67/80/53
f 55/82/54 69/272/54 68/83/54
f 56/67/55 70/85/55 69/84/55
f 43/51/56 57/68/56 70/85/56
f 1/273/57 14/274/57 13/275/57
f 13/275/57 12/276/57 11/86/57
f 11/86/57 10/277/57 9/278/57
f 9/278/57 8/279/57 7/87/57
f 7/87/57 6/280/57 5/281/57
f 5/281/57 4/282/57 3/88/57
f 3/88/57 2/283/57 1/273/57
f 1/273/57 13/275/57 11/86/57
f 11/86/57 9/278/57 7/87/57
f 7/87/57 5/281/57 3/88/57
f 3/88/57 1/273/57 11/86/57
f 70/284/58 57/285/58 58/286/58
f 58/286/58 59/287/58 60/89/58
f 60/89/58 61/288/58 62/289/58
f 62/289/58 63/290/58 64/90/58
f 64/90/58 65/291/58 66/292/58
f 66/292/58 67/293/58 68/91/58
f 68/91/58 69/294/58 70/284/58
f 70/284/58 58/286/58 60/89/58
f 60/89/58 62/289/58 64/90/58
f 64/90/58 66/292/58 68/91/58
f 68/91/58 70/284/58 60/89/58
f 72/92/57 86/96/57 85/93/57
f 73/95/57 87/98/57 86/96/57
f 74/97/57 88/100/57 87/98/57
f 75/99/57 89/102/57 88/100/57
f 75/99/57 76/104/57 90/101/57
f 77/103/57 91/106/57 90/101/57
f 78/105/57 92/108/57 91/106/57
f 79/107/57 93/110/57 92/108/57
f 80/109/57 94/112/57 93/110/57
f 81/111/57 95/114/57 94/112/57
f 82/113/57 96/116/57 95/114/57
f 82/113/57 83/118/57 97/115/57
f 84/117/57 98/119/57 97/115/57
f 71/94/57 85/93/57 98/119/57
f 86/120/59 100/295/59 99/121/59
f 87/123/60 101/127/60 100/124/60
f 88/126/61 102/129/61 101/127/61
f 89/128/62 103/131/62 102/129/62
f 90/130/63 104/296/63 103/131/63
f 91/132/64 105/136/64 104/133/64
f 92/135/65 106/138/65 105/136/65
f 93/137/66 107/297/66 106/138/66
f 94/139/67 108/143/67 107/140/67
f 95/142/68 109/145/68 108/143/68
f 96/144/69 110/147/69 109/145/69
f 97/146/70 111/298/70 110/147/70
f 98/148/71 112/151/71 111/149/71
f 85/122/72 99/121/72 112/151/72
f 100/152/58 114/156/58 113/153/58
f 101/155/58 115/158/58 114/156/58
f 101/155/58 102/160/58 116/157/58
f 103/159/58 117/162/58 116/157/58
f 104/161/58 118/164/58 117/162/58
f 104/161/58 105/166/58 119/163/58
f 106/165/58 120/168/58 119/163/58
f 107/167/58 121/170/58 120/168/58
f 108/169/58 122/172/58 121/170/58
f 108/169/58 109/174/58 123/171/58
f 110/173/58 124/176/58 123/171/58
f 111/175/58 125/178/58 124/176/58
f 111/175/58 112/179/58 126/177/58
f 99/154/58 113/153/58 126/177/58
f 128/180/57 142/184/57 141/181/57
f 129/183/57 143/186/57 142/184/57
f 130/185/57 144/188/57 143/186/57
f 131/187/57 145/190/57 144/188/57
f 131/187/57 132/192/57 146/189/57
f 133/191/57 147/194/57 146/189/57
f 134/193/57 148/196/57 147/194/57
f 135/195/57 149/198/57 148/196/57
f 136/197/57 150/200/57 149/198/57
f 137/199/57 151/202/57 150/200/57
f 138/201/57 152/204/57 151/202/57
f 138/201/57 139/206/57 153/203/57
f 140/205/57 154/207/57 153/203/57
f 127/182/57 141/181/57 154/207/57
f 142/208/59 156/212/59 155/209/59
f 143/211/60 157/299/60 156/212/60
f 144/213/61 158/217/61 157/214/61
f 145/216/62 159/219/62 158/217/62
f 146/218/63 160/300/63 159/219/63
f 147/220/64 161/224/64 160/221/64
f 148/223/65 162/226/65 161/224/65
f 149/225/66 163/301/66 162/226/66
f 150/227/67 164/231/67 163/228/67
f 151/230/68 165/233/68 164/231/68
f 152/232/69 166/235/69 165/233/69
f 153/234/70 167/302/70 166/235/70
f 154/236/71 168/239/71 167/237/71
f 141/210/72 155/209/72 168/239/72
f 156/240/58 170/244/58 169/241/58
f 157/243/58 171/246/58 170/244/58
f 157/243/58 158/248/58 172/245/58
f 159/247/58 173/250/58 172/245/58
f 160/249/58 174/252/58 173/250/58
f 160/249/58 161/254/58 175/251/58
f 162/253/58 176/256/58 175/251/58
f 163/255/58 177/258/58 176/256/58
f 164/257/58 178/260/58 177/258/58
f 164/257/58 165/262/58 179/259/58
f 166/261/58 180/264/58 179/259/58
f 167/263/58 181/266/58 180/264/58
f 167/263/58 168/267/58 182/265/58
f 155/242/58 169/241/58 182/265/58
