# The Giants of Holst prop, from CC0 kits by KayKit (Kay Lousberg) and Kenney
v -0.0897 0.4390 -0.3967
vt 0.5459 0.8801
vn -0.0000 0.0000 -1.0000
v -0.0810 0.6933 -0.3643
vt 0.5469 0.9081
vn -0.0000 0.2790 -0.9603
v 0.0810 0.6933 -0.3643
vt 0.5647 0.9081
vn -0.0000 0.2791 -0.9603
v 0.0897 0.4390 -0.3967
vt 0.5656 0.8801
vn -0.0000 0.0000 -1.0000
f 1/1/1 2/2/2 3/3/3 4/4/4
v 0.2987 0.4390 -0.2760
vt 0.5886 0.8801
vn 0.8660 0.0000 -0.5000
v 0.2750 0.6933 -0.2523
vt 0.5860 0.9081
vn 0.8316 0.2790 -0.4801
v 0.3560 0.6933 -0.1120
vt 0.5950 0.9081
vn 0.8316 0.2790 -0.4801
v 0.3884 0.4390 -0.1207
vt 0.5985 0.8801
vn 0.8660 0.0000 -0.5000
f 5/5/5 6/6/6 7/7/7 8/8/8
v 0.3967 0.4390 -0.0897
vt 0.5994 0.8801
vn 1.0000 0.0000 0.0000
v 0.3643 0.6933 -0.0810
vt 0.5959 0.9081
vn 0.9603 0.2790 0.0000
v 0.3643 0.6933 0.0810
vt 0.5959 0.9081
vn 0.9603 0.2790 0.0000
v 0.3967 0.4390 0.0897
vt 0.5994 0.8801
vn 1.0000 0.0000 0.0000
f 9/9/9 10/10/10 11/11/11 12/12/12
v 0.3884 0.4390 0.1207
vt 0.5985 0.8801
vn 0.8660 0.0000 0.5000
v 0.3560 0.6933 0.1120
vt 0.5950 0.9081
vn 0.8316 0.2790 0.4801
v 0.2750 0.6933 0.2523
vt 0.5860 0.9081
vn 0.8316 0.2790 0.4801
v 0.2987 0.4390 0.2760
vt 0.5886 0.8801
vn 0.8660 0.0000 0.5000
f 13/13/13 14/14/14 15/15/15 16/16/16
v 0.2760 0.4390 0.2987
vt 0.5862 0.8801
vn 0.5000 0.0000 0.8660
v 0.2523 0.6933 0.2750
vt 0.5835 0.9081
vn 0.4801 0.2790 0.8316
v 0.1120 0.6933 0.3560
vt 0.5681 0.9081
vn 0.4801 0.2790 0.8316
v 0.1207 0.4390 0.3884
vt 0.5691 0.8801
vn 0.5000 0.0000 0.8660
f 17/17/17 18/18/18 19/19/19 20/20/20
v 0.0897 0.4390 0.3967
vt 0.5656 0.8801
vn 0.0000 0.0000 1.0000
v 0.0810 0.6933 0.3643
vt 0.5647 0.9081
vn 0.0000 0.2791 0.9603
v -0.0810 0.6933 0.3643
vt 0.5469 0.9081
vn 0.0000 0.2791 0.9603
v -0.0897 0.4390 0.3967
vt 0.5459 0.8801
vn 0.0000 0.0000 1.0000
f 21/21/21 22/22/22 23/23/23 24/24/24
v -0.1207 0.4390 0.3884
vt 0.5425 0.8801
vn -0.5000 0.0000 0.8660
v -0.1120 0.6933 0.3560
vt 0.5435 0.9081
vn -0.4801 0.2791 0.8316
v -0.2523 0.6933 0.2750
vt 0.5280 0.9081
vn -0.4801 0.2791 0.8316
v -0.2760 0.4390 0.2987
vt 0.5254 0.8801
vn -0.5000 0.0000 0.8660
f 25/25/25 26/26/26 27/27/27 28/28/28
v -0.2987 0.4390 0.2760
vt 0.5229 0.8801
vn -0.8660 0.0000 0.5000
v -0.2750 0.6933 0.2523
vt 0.5255 0.9081
vn -0.8316 0.2791 0.4801
v -0.3560 0.6933 0.1120
vt 0.5166 0.9081
vn -0.8316 0.2791 0.4801
v -0.3884 0.4390 0.1207
vt 0.5130 0.8801
vn -0.8660 0.0000 0.5000
f 29/29/29 30/30/30 31/31/31 32/32/32
v -0.3967 0.4390 0.0897
vt 0.5121 0.8801
vn -1.0000 0.0000 0.0000
v -0.3643 0.6933 0.0810
vt 0.5157 0.9081
vn -0.9603 0.2791 0.0000
v -0.3643 0.6933 -0.0810
vt 0.5157 0.9081
vn -0.9603 0.2791 0.0000
v -0.3967 0.4390 -0.0897
vt 0.5121 0.8801
vn -1.0000 0.0000 0.0000
f 33/33/33 34/34/34 35/35/35 36/36/36
v -0.3884 0.4390 -0.1207
vt 0.5130 0.8801
vn -0.8660 0.0000 -0.5000
v -0.3560 0.6933 -0.1120
vt 0.5166 0.9081
vn -0.8316 0.2791 -0.4801
v -0.2750 0.6933 -0.2523
vt 0.5255 0.9081
vn -0.8316 0.2791 -0.4801
v -0.2987 0.4390 -0.2760
vt 0.5229 0.8801
vn -0.8660 0.0000 -0.5000
f 37/37/37 38/38/38 39/39/39 40/40/40
v 0.2389 0.8780 -0.0640
vt 0.5821 0.9128
vn -0.9152 0.3199 0.2452
v 0.1749 0.8780 -0.1749
vt 0.5750 0.9128
vn -0.6309 0.1604 0.7591
v 0.1621 0.8244 -0.1621
vt 0.5736 0.9069
vn -0.6699 0.3199 0.6699
v 0.2214 0.8244 -0.0593
vt 0.5801 0.9069
vn -0.9152 0.3199 0.2452
f 41/41/41 42/42/42 43/43/43 44/44/44
v -0.2760 0.4390 -0.2987
vt 0.5254 0.8801
vn -0.5000 0.0000 -0.8660
v -0.2523 0.6933 -0.2750
vt 0.5280 0.9081
vn -0.4801 0.2791 -0.8316
v -0.1120 0.6933 -0.3560
vt 0.5435 0.9081
vn -0.4801 0.2791 -0.8316
v -0.1207 0.4390 -0.3884
vt 0.5425 0.8801
vn -0.5000 0.0000 -0.8660
f 45/45/45 46/46/46 47/47/47 48/48/48
v 0.1207 0.4390 -0.3884
vt 0.5691 0.8801
vn 0.5000 0.0000 -0.8660
v 0.1120 0.6933 -0.3560
vt 0.5681 0.9081
vn 0.4801 0.2790 -0.8316
v 0.2523 0.6933 -0.2750
vt 0.5835 0.9081
vn 0.4801 0.2790 -0.8316
v 0.2760 0.4390 -0.2987
vt 0.5862 0.8801
vn 0.5000 0.0000 -0.8660
f 49/49/49 50/50/50 51/51/51 52/52/52
v 0.0640 0.0000 0.2389
vt 0.5628 0.7849
vn -0.2452 -0.3199 -0.9152
v -0.0640 0.0000 0.2389
vt 0.5487 0.7849
vn 0.2452 -0.3199 -0.9152
v -0.0593 0.0537 0.2214
vt 0.5492 0.7908
vn 0.2452 -0.3199 -0.9152
v 0.0593 0.0537 0.2214
vt 0.5623 0.7908
vn -0.2452 -0.3199 -0.9152
f 53/53/53 54/54/54 55/55/55 56/56/56
v -0.0810 0.1848 -0.3643
vt 0.5469 0.8521
vn -0.0000 -0.2791 -0.9603
v -0.0897 0.4390 -0.3967
vt 0.5459 0.8801
vn -0.0000 0.0000 -1.0000
v 0.0897 0.4390 -0.3967
vt 0.5656 0.8801
vn -0.0000 0.0000 -1.0000
v 0.0810 0.1848 -0.3643
vt 0.5647 0.8521
vn -0.0000 -0.2791 -0.9603
f 57/57/57 58/58/58 59/59/59 60/60/60
v 0.2750 0.6933 -0.2523
vt 0.5860 0.9081
vn 0.8316 0.2790 -0.4801
v 0.2020 0.8780 -0.2020
vt 0.5780 0.9284
vn 0.7814 0.4311 -0.4512
v 0.2760 0.8780 -0.0740
vt 0.5861 0.9284
vn 0.7814 0.4311 -0.4512
v 0.3560 0.6933 -0.1120
vt 0.5950 0.9081
vn 0.8316 0.2790 -0.4801
f 61/61/61 62/62/62 63/63/63 64/64/64
v -0.2523 0.1848 -0.2750
vt 0.5280 0.8521
vn -0.4801 -0.2791 -0.8316
v -0.2760 0.4390 -0.2987
vt 0.5254 0.8801
vn -0.5000 0.0000 -0.8660
v -0.1207 0.4390 -0.3884
vt 0.5425 0.8801
vn -0.5000 0.0000 -0.8660
v -0.1120 0.1848 -0.3560
vt 0.5435 0.8521
vn -0.4801 -0.2791 -0.8316
f 65/65/65 66/66/66 67/67/67 68/68/68
v -0.2020 0.0000 -0.2020
vt 0.5335 0.8318
vn -0.4512 -0.4311 -0.7814
v -0.2523 0.1848 -0.2750
vt 0.5280 0.8521
vn -0.4801 -0.2791 -0.8316
v -0.1120 0.1848 -0.3560
vt 0.5435 0.8521
vn -0.4801 -0.2791 -0.8316
v -0.0740 0.0000 -0.2760
vt 0.5476 0.8318
vn -0.4512 -0.4311 -0.7814
f 69/69/69 70/70/70 71/71/71 72/72/72
v -0.3560 0.1848 -0.1120
vt 0.5166 0.8521
vn -0.8316 -0.2791 -0.4801
v -0.3884 0.4390 -0.1207
vt 0.5130 0.8801
vn -0.8660 0.0000 -0.5000
v -0.2987 0.4390 -0.2760
vt 0.5229 0.8801
vn -0.8660 0.0000 -0.5000
v -0.2750 0.1848 -0.2523
vt 0.5255 0.8521
vn -0.8316 -0.2791 -0.4801
f 73/73/73 74/74/74 75/75/75 76/76/76
v -0.2760 0.0000 -0.0740
vt 0.5254 0.8318
vn -0.7814 -0.4311 -0.4512
v -0.3560 0.1848 -0.1120
vt 0.5166 0.8521
vn -0.8316 -0.2791 -0.4801
v -0.2750 0.1848 -0.2523
vt 0.5255 0.8521
vn -0.8316 -0.2791 -0.4801
v -0.2020 0.0000 -0.2020
vt 0.5335 0.8318
vn -0.7814 -0.4311 -0.4512
f 77/77/77 78/78/78 79/79/79 80/80/80
v -0.3643 0.1848 0.0810
vt 0.5157 0.8521
vn -0.9603 -0.2791 0.0000
v -0.3967 0.4390 0.0897
vt 0.5121 0.8801
vn -1.0000 0.0000 0.0000
v -0.3967 0.4390 -0.0897
vt 0.5121 0.8801
vn -1.0000 0.0000 0.0000
v -0.3643 0.1848 -0.0810
vt 0.5157 0.8521
vn -0.9603 -0.2791 0.0000
f 81/81/81 82/82/82 83/83/83 84/84/84
v -0.2760 0.0000 0.0740
vt 0.5254 0.8318
vn -0.9023 -0.4311 0.0000
v -0.3643 0.1848 0.0810
vt 0.5157 0.8521
vn -0.9603 -0.2791 0.0000
v -0.3643 0.1848 -0.0810
vt 0.5157 0.8521
vn -0.9603 -0.2791 0.0000
v -0.2760 0.0000 -0.0740
vt 0.5254 0.8318
vn -0.9023 -0.4311 0.0000
f 85/85/85 86/86/86 87/87/87 88/88/88
v -0.2750 0.1848 0.2523
vt 0.5255 0.8521
vn -0.8316 -0.2791 0.4801
v -0.2987 0.4390 0.2760
vt 0.5229 0.8801
vn -0.8660 0.0000 0.5000
v -0.3884 0.4390 0.1207
vt 0.5130 0.8801
vn -0.8660 0.0000 0.5000
v -0.3560 0.1848 0.1120
vt 0.5166 0.8521
vn -0.8316 -0.2791 0.4801
f 89/89/89 90/90/90 91/91/91 92/92/92
v -0.2020 0.0000 0.2020
vt 0.5335 0.8318
vn -0.7814 -0.4311 0.4512
v -0.2750 0.1848 0.2523
vt 0.5255 0.8521
vn -0.8316 -0.2791 0.4801
v -0.3560 0.1848 0.1120
vt 0.5166 0.8521
vn -0.8316 -0.2791 0.4801
v -0.2760 0.0000 0.0740
vt 0.5254 0.8318
vn -0.7814 -0.4311 0.4512
f 93/93/93 94/94/94 95/95/95 96/96/96
v -0.1120 0.1848 0.3560
vt 0.5435 0.8521
vn -0.4801 -0.2791 0.8316
v -0.1207 0.4390 0.3884
vt 0.5425 0.8801
vn -0.5000 0.0000 0.8660
v -0.2760 0.4390 0.2987
vt 0.5254 0.8801
vn -0.5000 0.0000 0.8660
v -0.2523 0.1848 0.2750
vt 0.5280 0.8521
vn -0.4801 -0.2791 0.8316
f 97/97/97 98/98/98 99/99/99 100/100/100
v -0.0740 0.0000 0.2760
vt 0.5476 0.8318
vn -0.4512 -0.4311 0.7814
v -0.1120 0.1848 0.3560
vt 0.5435 0.8521
vn -0.4801 -0.2791 0.8316
v -0.2523 0.1848 0.2750
vt 0.5280 0.8521
vn -0.4801 -0.2791 0.8316
v -0.2020 0.0000 0.2020
vt 0.5335 0.8318
vn -0.4512 -0.4311 0.7814
f 101/101/101 102/102/102 103/103/103 104/104/104
v 0.0810 0.1848 0.3643
vt 0.5647 0.8521
vn 0.0000 -0.2791 0.9603
v 0.0897 0.4390 0.3967
vt 0.5656 0.8801
vn 0.0000 0.0000 1.0000
v -0.0897 0.4390 0.3967
vt 0.5459 0.8801
vn 0.0000 0.0000 1.0000
v -0.0810 0.1848 0.3643
vt 0.5469 0.8521
vn 0.0000 -0.2791 0.9603
f 105/105/105 106/106/106 107/107/107 108/108/108
v 0.0740 0.0000 0.2760
vt 0.5639 0.8318
vn 0.0000 -0.4311 0.9023
v 0.0810 0.1848 0.3643
vt 0.5647 0.8521
vn 0.0000 -0.2791 0.9603
v -0.0810 0.1848 0.3643
vt 0.5469 0.8521
vn 0.0000 -0.2791 0.9603
v -0.0740 0.0000 0.2760
vt 0.5476 0.8318
vn 0.0000 -0.4311 0.9023
f 109/109/109 110/110/110 111/111/111 112/112/112
v 0.2523 0.1848 0.2750
vt 0.5835 0.8521
vn 0.4801 -0.2791 0.8316
v 0.2760 0.4390 0.2987
vt 0.5862 0.8801
vn 0.5000 0.0000 0.8660
v 0.1207 0.4390 0.3884
vt 0.5691 0.8801
vn 0.5000 0.0000 0.8660
v 0.1120 0.1848 0.3560
vt 0.5681 0.8521
vn 0.4801 -0.2791 0.8316
f 113/113/113 114/114/114 115/115/115 116/116/116
v 0.2020 0.0000 0.2020
vt 0.5780 0.8318
vn 0.4512 -0.4311 0.7814
v 0.2523 0.1848 0.2750
vt 0.5835 0.8521
vn 0.4801 -0.2791 0.8316
v 0.1120 0.1848 0.3560
vt 0.5681 0.8521
vn 0.4801 -0.2791 0.8316
v 0.0740 0.0000 0.2760
vt 0.5639 0.8318
vn 0.4512 -0.4311 0.7814
f 117/117/117 118/118/118 119/119/119 120/120/120
v 0.3560 0.1848 0.1120
vt 0.5950 0.8521
vn 0.8316 -0.2791 0.4801
v 0.3884 0.4390 0.1207
vt 0.5985 0.8801
vn 0.8660 0.0000 0.5000
v 0.2987 0.4390 0.2760
vt 0.5886 0.8801
vn 0.8660 0.0000 0.5000
v 0.2750 0.1848 0.2523
vt 0.5860 0.8521
vn 0.8316 -0.2791 0.4801
f 121/121/121 122/122/122 123/123/123 124/124/124
v 0.2760 0.0000 0.0740
vt 0.5861 0.8318
vn 0.7814 -0.4311 0.4512
v 0.3560 0.1848 0.1120
vt 0.5950 0.8521
vn 0.8316 -0.2791 0.4801
v 0.2750 0.1848 0.2523
vt 0.5860 0.8521
vn 0.8316 -0.2791 0.4801
v 0.2020 0.0000 0.2020
vt 0.5780 0.8318
vn 0.7814 -0.4311 0.4512
f 125/125/125 126/126/126 127/127/127 128/128/128
v 0.3643 0.1848 -0.0810
vt 0.5959 0.8521
vn 0.9603 -0.2790 -0.0000
v 0.3967 0.4390 -0.0897
vt 0.5994 0.8801
vn 1.0000 0.0000 0.0000
v 0.3967 0.4390 0.0897
vt 0.5994 0.8801
vn 1.0000 0.0000 0.0000
v 0.3643 0.1848 0.0810
vt 0.5959 0.8521
vn 0.9603 -0.2790 -0.0000
f 129/129/129 130/130/130 131/131/131 132/132/132
v 0.2760 0.0000 -0.0740
vt 0.5861 0.8318
vn 0.9023 -0.4311 -0.0000
v 0.3643 0.1848 -0.0810
vt 0.5959 0.8521
vn 0.9603 -0.2790 -0.0000
v 0.3643 0.1848 0.0810
vt 0.5959 0.8521
vn 0.9603 -0.2790 -0.0000
v 0.2760 0.0000 0.0740
vt 0.5861 0.8318
vn 0.9023 -0.4311 -0.0000
f 133/133/133 134/134/134 135/135/135 136/136/136
v 0.2750 0.1848 -0.2523
vt 0.5860 0.8521
vn 0.8316 -0.2790 -0.4801
v 0.2987 0.4390 -0.2760
vt 0.5886 0.8801
vn 0.8660 0.0000 -0.5000
v 0.3884 0.4390 -0.1207
vt 0.5985 0.8801
vn 0.8660 0.0000 -0.5000
v 0.3560 0.1848 -0.1120
vt 0.5950 0.8521
vn 0.8316 -0.2790 -0.4801
f 137/137/137 138/138/138 139/139/139 140/140/140
v 0.2020 0.0000 -0.2020
vt 0.5780 0.8318
vn 0.7814 -0.4311 -0.4512
v 0.2750 0.1848 -0.2523
vt 0.5860 0.8521
vn 0.8316 -0.2790 -0.4801
v 0.3560 0.1848 -0.1120
vt 0.5950 0.8521
vn 0.8316 -0.2790 -0.4801
v 0.2760 0.0000 -0.0740
vt 0.5861 0.8318
vn 0.7814 -0.4311 -0.4512
f 141/141/141 142/142/142 143/143/143 144/144/144
v 0.1120 0.1848 -0.3560
vt 0.5681 0.8521
vn 0.4801 -0.2791 -0.8316
v 0.1207 0.4390 -0.3884
vt 0.5691 0.8801
vn 0.5000 0.0000 -0.8660
v 0.2760 0.4390 -0.2987
vt 0.5862 0.8801
vn 0.5000 0.0000 -0.8660
v 0.2523 0.1848 -0.2750
vt 0.5835 0.8521
vn 0.4801 -0.2791 -0.8316
f 145/145/145 146/146/146 147/147/147 148/148/148
v 0.1120 0.6933 -0.3560
vt 0.5681 0.9081
vn 0.4801 0.2790 -0.8316
v 0.0740 0.8780 -0.2760
vt 0.5639 0.9284
vn 0.4734 0.3218 -0.8200
v 0.2020 0.8780 -0.2020
vt 0.5780 0.9284
vn 0.4734 0.3218 -0.8200
v 0.2523 0.6933 -0.2750
vt 0.5835 0.9081
vn 0.4801 0.2790 -0.8316
f 149/149/149 150/150/150 151/151/151 152/152/152
v -0.0740 0.0000 -0.2760
vt 0.5476 0.8318
vn -0.0000 -0.4311 -0.9023
v -0.0810 0.1848 -0.3643
vt 0.5469 0.8521
vn -0.0000 -0.2791 -0.9603
v 0.0810 0.1848 -0.3643
vt 0.5647 0.8521
vn -0.0000 -0.2791 -0.9603
v 0.0740 0.0000 -0.2760
vt 0.5639 0.8318
vn -0.0000 -0.4311 -0.9023
f 153/153/153 154/154/154 155/155/155 156/156/156
v 0.3643 0.6933 -0.0810
vt 0.5959 0.9081
vn 0.9603 0.2790 0.0000
v 0.2760 0.8780 -0.0740
vt 0.5861 0.9284
vn 0.9023 0.4311 0.0000
v 0.2760 0.8780 0.0740
vt 0.5861 0.9284
vn 0.9023 0.4311 0.0000
v 0.3643 0.6933 0.0810
vt 0.5959 0.9081
vn 0.9603 0.2790 0.0000
f 157/157/157 158/158/158 159/159/159 160/160/160
v 0.3560 0.6933 0.1120
vt 0.5950 0.9081
vn 0.8316 0.2790 0.4801
v 0.2760 0.8780 0.0740
vt 0.5861 0.9284
vn 0.8084 0.3587 0.4667
v 0.2020 0.8780 0.2020
vt 0.5780 0.9284
vn 0.8069 0.3631 0.4659
v 0.2750 0.6933 0.2523
vt 0.5860 0.9081
vn 0.8316 0.2790 0.4801
f 161/161/161 162/162/162 163/163/163 164/164/164
v 0.2523 0.6933 0.2750
vt 0.5835 0.9081
vn 0.4801 0.2790 0.8316
v 0.2020 0.8780 0.2020
vt 0.5780 0.9284
vn 0.4512 0.4311 0.7814
v 0.0740 0.8780 0.2760
vt 0.5639 0.9284
vn 0.4512 0.4311 0.7814
v 0.1120 0.6933 0.3560
vt 0.5681 0.9081
vn 0.4801 0.2790 0.8316
f 165/165/165 166/166/166 167/167/167 168/168/168
v 0.0810 0.6933 0.3643
vt 0.5647 0.9081
vn 0.0000 0.2791 0.9603
v 0.0740 0.8780 0.2760
vt 0.5639 0.9284
vn 0.0000 0.4311 0.9023
v -0.0740 0.8780 0.2760
vt 0.5476 0.9284
vn 0.0000 0.4311 0.9023
v -0.0810 0.6933 0.3643
vt 0.5469 0.9081
vn 0.0000 0.2791 0.9603
f 169/169/169 170/170/170 171/171/171 172/172/172
v -0.1120 0.6933 0.3560
vt 0.5435 0.9081
vn -0.4801 0.2791 0.8316
v -0.0740 0.8780 0.2760
vt 0.5476 0.9284
vn -0.4512 0.4311 0.7814
v -0.2020 0.8780 0.2020
vt 0.5335 0.9284
vn -0.4512 0.4311 0.7814
v -0.2523 0.6933 0.2750
vt 0.5280 0.9081
vn -0.4801 0.2791 0.8316
f 173/173/173 174/174/174 175/175/175 176/176/176
v -0.2750 0.6933 0.2523
vt 0.5255 0.9081
vn -0.8316 0.2791 0.4801
v -0.2020 0.8780 0.2020
vt 0.5335 0.9284
vn -0.7814 0.4311 0.4512
v -0.2760 0.8780 0.0740
vt 0.5254 0.9284
vn -0.7814 0.4311 0.4512
v -0.3560 0.6933 0.1120
vt 0.5166 0.9081
vn -0.8316 0.2791 0.4801
f 177/177/177 178/178/178 179/179/179 180/180/180
v -0.3643 0.6933 0.0810
vt 0.5157 0.9081
vn -0.9603 0.2791 0.0000
v -0.2760 0.8780 0.0740
vt 0.5254 0.9284
vn -0.9023 0.4311 0.0000
v -0.2760 0.8780 -0.0740
vt 0.5254 0.9284
vn -0.9023 0.4311 0.0000
v -0.3643 0.6933 -0.0810
vt 0.5157 0.9081
vn -0.9603 0.2791 0.0000
f 181/181/181 182/182/182 183/183/183 184/184/184
v -0.3560 0.6933 -0.1120
vt 0.5166 0.9081
vn -0.8316 0.2791 -0.4801
v -0.2760 0.8780 -0.0740
vt 0.5254 0.9284
vn -0.8069 0.3631 -0.4659
v -0.2020 0.8780 -0.2020
vt 0.5335 0.9284
vn -0.8084 0.3587 -0.4667
v -0.2750 0.6933 -0.2523
vt 0.5255 0.9081
vn -0.8316 0.2791 -0.4801
f 185/185/185 186/186/186 187/187/187 188/188/188
v -0.2523 0.6933 -0.2750
vt 0.5280 0.9081
vn -0.4801 0.2791 -0.8316
v -0.2020 0.8780 -0.2020
vt 0.5335 0.9284
vn -0.4512 0.4311 -0.7814
v -0.0740 0.8780 -0.2760
vt 0.5476 0.9284
vn -0.4512 0.4311 -0.7814
v -0.1120 0.6933 -0.3560
vt 0.5435 0.9081
vn -0.4801 0.2791 -0.8316
f 189/189/189 190/190/190 191/191/191 192/192/192
v -0.0810 0.6933 -0.3643
vt 0.5469 0.9081
vn -0.0000 0.2790 -0.9603
v -0.0740 0.8780 -0.2760
vt 0.5476 0.9284
vn -0.0000 0.4311 -0.9023
v 0.0740 0.8780 -0.2760
vt 0.5639 0.9284
vn -0.0000 0.4311 -0.9023
v 0.0810 0.6933 -0.3643
vt 0.5647 0.9081
vn -0.0000 0.2791 -0.9603
f 193/193/193 194/194/194 195/195/195 196/196/196
v 0.1749 0.0000 -0.1749
vt 0.5750 0.8005
vn 0.0000 -1.0000 0.0000
v 0.0640 0.0000 -0.2389
vt 0.5628 0.8005
vn 0.0000 -1.0000 0.0000
v 0.0740 0.0000 -0.2760
vt 0.5639 0.8005
vn 0.0000 -1.0000 0.0000
v 0.2020 0.0000 -0.2020
vt 0.5780 0.8005
vn 0.0000 -1.0000 0.0000
f 197/197/197 198/198/198 199/199/199 200/200/200
v -0.2020 0.8780 -0.2020
vt 0.5335 0.9284
vn -0.8084 0.3587 -0.4667
v -0.2760 0.8780 -0.0740
vt 0.5254 0.9284
vn -0.8069 0.3631 -0.4659
v -0.2685 0.9000 -0.0740
vt 0.5262 0.9308
vn -0.8306 0.2831 -0.4796
v -0.1963 0.9000 -0.1990
vt 0.5342 0.9308
vn -0.8306 0.2831 -0.4796
f 201/201/201 202/202/202 203/203/203 204/204/204
v 0.2389 0.0000 -0.0640
vt 0.5821 0.8005
vn 0.0000 -1.0000 0.0000
v 0.1749 0.0000 -0.1749
vt 0.5750 0.8005
vn 0.0000 -1.0000 0.0000
v 0.2020 0.0000 -0.2020
vt 0.5780 0.8005
vn 0.0000 -1.0000 0.0000
v 0.2760 0.0000 -0.0740
vt 0.5861 0.8005
vn 0.0000 -1.0000 0.0000
f 205/205/205 206/206/206 207/207/207 208/208/208
v 0.1749 0.8780 -0.1749
vt 0.5750 0.9597
vn 0.0000 1.0000 0.0000
v 0.2389 0.8780 -0.0640
vt 0.5821 0.9597
vn 0.0000 1.0000 0.0000
v 0.2760 0.8780 -0.0740
vt 0.5861 0.9597
vn 0.0000 1.0000 0.0000
v 0.2020 0.8780 -0.2020
vt 0.5780 0.9597
vn 0.0000 1.0000 0.0000
f 209/209/209 210/210/210 211/211/211 212/212/212
v 0.2389 0.0000 0.0640
vt 0.5821 0.8005
vn 0.0000 -1.0000 0.0000
v 0.2389 0.0000 -0.0640
vt 0.5821 0.8005
vn 0.0000 -1.0000 0.0000
v 0.2760 0.0000 -0.0740
vt 0.5861 0.8005
vn 0.0000 -1.0000 0.0000
v 0.2760 0.0000 0.0740
vt 0.5861 0.8005
vn 0.0000 -1.0000 0.0000
f 213/213/213 214/214/214 215/215/215 216/216/216
v 0.2389 0.8780 -0.0640
vt 0.5821 0.9597
vn 0.0000 1.0000 0.0000
v 0.2389 0.8780 0.0640
vt 0.5821 0.9597
vn 0.0000 1.0000 0.0000
v 0.2760 0.8780 0.0740
vt 0.5861 0.9597
vn 0.0000 1.0000 0.0000
v 0.2760 0.8780 -0.0740
vt 0.5861 0.9597
vn 0.0000 1.0000 0.0000
f 217/217/217 218/218/218 219/219/219 220/220/220
v 0.1749 0.0000 0.1749
vt 0.5750 0.8005
vn 0.0000 -1.0000 0.0000
v 0.2389 0.0000 0.0640
vt 0.5821 0.8005
vn 0.0000 -1.0000 0.0000
v 0.2760 0.0000 0.0740
vt 0.5861 0.8005
vn 0.0000 -1.0000 0.0000
v 0.2020 0.0000 0.2020
vt 0.5780 0.8005
vn 0.0000 -1.0000 0.0000
f 221/221/221 222/222/222 223/223/223 224/224/224
v -0.2760 0.8780 -0.0740
vt 0.5254 0.9440
vn -0.2578 0.0883 0.9622
v -0.2389 0.8780 -0.0640
vt 0.5295 0.9440
vn -0.2578 0.0883 0.9622
v -0.2323 0.9000 -0.0643
vt 0.5302 0.9464
vn -0.2578 0.0883 0.9622
v -0.2685 0.9000 -0.0740
vt 0.5262 0.9464
vn -0.2578 0.0883 0.9622
f 225/225/225 226/226/226 227/227/227 228/228/228
v 0.0640 0.0000 0.2389
vt 0.5628 0.8005
vn 0.0000 -1.0000 0.0000
v 0.1749 0.0000 0.1749
vt 0.5750 0.8005
vn 0.0000 -1.0000 0.0000
v 0.2020 0.0000 0.2020
vt 0.5780 0.8005
vn 0.0000 -1.0000 0.0000
v 0.0740 0.0000 0.2760
vt 0.5639 0.8005
vn 0.0000 -1.0000 0.0000
f 229/229/229 230/230/230 231/231/231 232/232/232
v 0.1749 0.8780 0.1749
vt 0.5750 0.9597
vn 0.0000 1.0000 0.0000
v 0.0640 0.8780 0.2389
vt 0.5628 0.9597
vn 0.0000 1.0000 0.0000
v 0.0740 0.8780 0.2760
vt 0.5639 0.9597
vn 0.0000 1.0000 0.0000
v 0.2020 0.8780 0.2020
vt 0.5780 0.9597
vn 0.0000 1.0000 0.0000
f 233/233/233 234/234/234 235/235/235 236/236/236
v -0.0640 0.0000 0.2389
vt 0.5487 0.8005
vn 0.0000 -1.0000 0.0000
v 0.0640 0.0000 0.2389
vt 0.5628 0.8005
vn 0.0000 -1.0000 0.0000
v 0.0740 0.0000 0.2760
vt 0.5639 0.8005
vn 0.0000 -1.0000 0.0000
v -0.0740 0.0000 0.2760
vt 0.5476 0.8005
vn 0.0000 -1.0000 0.0000
f 237/237/237 238/238/238 239/239/239 240/240/240
v 0.0640 0.8780 0.2389
vt 0.5628 0.9597
vn 0.0000 1.0000 0.0000
v -0.0640 0.8780 0.2389
vt 0.5487 0.9597
vn 0.0000 1.0000 0.0000
v -0.0740 0.8780 0.2760
vt 0.5476 0.9597
vn 0.0000 1.0000 0.0000
v 0.0740 0.8780 0.2760
vt 0.5639 0.9597
vn 0.0000 1.0000 0.0000
f 241/241/241 242/242/242 243/243/243 244/244/244
v -0.1749 0.0000 0.1749
vt 0.5365 0.8005
vn 0.0000 -1.0000 0.0000
v -0.0640 0.0000 0.2389
vt 0.5487 0.8005
vn 0.0000 -1.0000 0.0000
v -0.0740 0.0000 0.2760
vt 0.5476 0.8005
vn 0.0000 -1.0000 0.0000
v -0.2020 0.0000 0.2020
vt 0.5335 0.8005
vn 0.0000 -1.0000 0.0000
f 245/245/245 246/246/246 247/247/247 248/248/248
v -0.0640 0.8780 0.2389
vt 0.5487 0.9597
vn 0.0000 1.0000 0.0000
v -0.1749 0.8780 0.1749
vt 0.5365 0.9597
vn 0.0000 1.0000 0.0000
v -0.2020 0.8780 0.2020
vt 0.5335 0.9597
vn 0.0000 1.0000 0.0000
v -0.0740 0.8780 0.2760
vt 0.5476 0.9597
vn 0.0000 1.0000 0.0000
f 249/249/249 250/250/250 251/251/251 252/252/252
v -0.2389 0.0000 0.0640
vt 0.5295 0.8005
vn 0.0000 -1.0000 0.0000
v -0.1749 0.0000 0.1749
vt 0.5365 0.8005
vn 0.0000 -1.0000 0.0000
v -0.2020 0.0000 0.2020
vt 0.5335 0.8005
vn 0.0000 -1.0000 0.0000
v -0.2760 0.0000 0.0740
vt 0.5254 0.8005
vn 0.0000 -1.0000 0.0000
f 253/253/253 254/254/254 255/255/255 256/256/256
v -0.1749 0.8780 0.1749
vt 0.5365 0.9597
vn 0.0000 1.0000 0.0000
v -0.2389 0.8780 0.0640
vt 0.5295 0.9597
vn 0.0000 1.0000 0.0000
v -0.2760 0.8780 0.0740
vt 0.5254 0.9597
vn 0.0000 1.0000 0.0000
v -0.2020 0.8780 0.2020
vt 0.5335 0.9597
vn 0.0000 1.0000 0.0000
f 257/257/257 258/258/258 259/259/259 260/260/260
v -0.2389 0.0000 -0.0640
vt 0.5295 0.8005
vn 0.0000 -1.0000 0.0000
v -0.2389 0.0000 0.0640
vt 0.5295 0.8005
vn 0.0000 -1.0000 0.0000
v -0.2760 0.0000 0.0740
vt 0.5254 0.8005
vn 0.0000 -1.0000 0.0000
v -0.2760 0.0000 -0.0740
vt 0.5254 0.8005
vn 0.0000 -1.0000 0.0000
f 261/261/261 262/262/262 263/263/263 264/264/264
v -0.2389 0.8780 0.0640
vt 0.5295 0.9597
vn 0.0000 1.0000 0.0000
v -0.2389 0.8780 -0.0640
vt 0.5295 0.9597
vn 0.0000 1.0000 0.0000
v -0.2760 0.8780 -0.0740
vt 0.5254 0.9597
vn 0.0000 1.0000 0.0000
v -0.2760 0.8780 0.0740
vt 0.5254 0.9597
vn 0.0000 1.0000 0.0000
f 265/265/265 266/266/266 267/267/267 268/268/268
v -0.1749 0.0000 -0.1749
vt 0.5365 0.8005
vn 0.0000 -1.0000 0.0000
v -0.2389 0.0000 -0.0640
vt 0.5295 0.8005
vn 0.0000 -1.0000 0.0000
v -0.2760 0.0000 -0.0740
vt 0.5254 0.8005
vn 0.0000 -1.0000 0.0000
v -0.2020 0.0000 -0.2020
vt 0.5335 0.8005
vn 0.0000 -1.0000 0.0000
f 269/269/269 270/270/270 271/271/271 272/272/272
v -0.2389 0.8780 -0.0640
vt 0.5295 0.9128
vn 0.9305 0.1391 0.3387
v -0.1749 0.8780 -0.1749
vt 0.5365 0.9128
vn 0.7646 0.1236 0.6325
v -0.1698 0.9000 -0.1725
vt 0.5371 0.9152
vn 0.8391 -0.2475 0.4844
v -0.2323 0.9000 -0.0643
vt 0.5302 0.9152
vn 0.8391 -0.2475 0.4844
f 273/273/273 274/274/274 275/275/275 276/276/276
v -0.0640 0.0000 -0.2389
vt 0.5487 0.8005
vn 0.0000 -1.0000 0.0000
v -0.1749 0.0000 -0.1749
vt 0.5365 0.8005
vn 0.0000 -1.0000 0.0000
v -0.2020 0.0000 -0.2020
vt 0.5335 0.8005
vn 0.0000 -1.0000 0.0000
v -0.0740 0.0000 -0.2760
vt 0.5476 0.8005
vn 0.0000 -1.0000 0.0000
f 277/277/277 278/278/278 279/279/279 280/280/280
v -0.1749 0.8780 -0.1749
vt 0.5365 0.9597
vn 0.0000 1.0000 0.0000
v -0.0640 0.8780 -0.2389
vt 0.5487 0.9597
vn 0.0000 1.0000 0.0000
v -0.0740 0.8780 -0.2760
vt 0.5476 0.9597
vn 0.0000 1.0000 0.0000
v -0.2020 0.8780 -0.2020
vt 0.5335 0.9597
vn 0.0000 1.0000 0.0000
f 281/281/281 282/282/282 283/283/283 284/284/284
v 0.0640 0.0000 -0.2389
vt 0.5628 0.8005
vn 0.0000 -1.0000 0.0000
v -0.0640 0.0000 -0.2389
vt 0.5487 0.8005
vn 0.0000 -1.0000 0.0000
v -0.0740 0.0000 -0.2760
vt 0.5476 0.8005
vn 0.0000 -1.0000 0.0000
v 0.0740 0.0000 -0.2760
vt 0.5639 0.8005
vn 0.0000 -1.0000 0.0000
f 285/285/285 286/286/286 287/287/287 288/288/288
v -0.0640 0.8780 -0.2389
vt 0.5487 0.9597
vn 0.0000 1.0000 0.0000
v 0.0640 0.8780 -0.2389
vt 0.5628 0.9597
vn 0.0000 1.0000 0.0000
v 0.0740 0.8780 -0.2760
vt 0.5639 0.9597
vn 0.0000 1.0000 0.0000
v -0.0740 0.8780 -0.2760
vt 0.5476 0.9597
vn 0.0000 1.0000 0.0000
f 289/289/289 290/290/290 291/291/291 292/292/292
v 0.1621 0.8244 0.1621
vt 0.5736 0.9381
vn 0.0000 1.0000 0.0000
v -0.1621 0.8244 0.1621
vt 0.5379 0.9381
vn 0.0000 1.0000 0.0000
v -0.0593 0.8244 0.2214
vt 0.5492 0.9225
vn 0.0000 1.0000 0.0000
v 0.0593 0.8244 0.2214
vt 0.5623 0.9225
vn 0.0000 1.0000 0.0000
f 293/293/293 294/294/294 295/295/295 296/296/296
v -0.2389 0.0000 -0.0640
vt 0.5295 0.7849
vn 0.9152 -0.3199 0.2452
v -0.1749 0.0000 -0.1749
vt 0.5365 0.7849
vn 0.6699 -0.3199 0.6699
v -0.1621 0.0537 -0.1621
vt 0.5379 0.7908
vn 0.6699 -0.3199 0.6699
v -0.2214 0.0537 -0.0593
vt 0.5314 0.7908
vn 0.9152 -0.3199 0.2452
f 297/297/297 298/298/298 299/299/299 300/300/300
v -0.0640 0.8780 0.2389
vt 0.5487 0.9128
vn 0.2452 0.3199 -0.9152
v 0.0640 0.8780 0.2389
vt 0.5628 0.9128
vn -0.2452 0.3199 -0.9152
v 0.0593 0.8244 0.2214
vt 0.5623 0.9069
vn -0.2452 0.3199 -0.9152
v -0.0593 0.8244 0.2214
vt 0.5492 0.9069
vn 0.2452 0.3199 -0.9152
f 301/301/301 302/302/302 303/303/303 304/304/304
v 0.2389 0.0000 -0.0640
vt 0.5821 0.7849
vn -0.9152 -0.3199 0.2452
v 0.2389 0.0000 0.0640
vt 0.5821 0.7849
vn -0.9152 -0.3199 -0.2452
v 0.2214 0.0537 0.0593
vt 0.5801 0.7908
vn -0.9152 -0.3199 -0.2452
v 0.2214 0.0537 -0.0593
vt 0.5801 0.7908
vn -0.9152 -0.3199 0.2452
f 305/305/305 306/306/306 307/307/307 308/308/308
v -0.1749 0.8780 -0.1749
vt 0.5365 0.9128
vn 0.7646 0.1236 0.6325
v -0.2389 0.8780 -0.0640
vt 0.5295 0.9128
vn 0.9305 0.1391 0.3387
v -0.2214 0.8244 -0.0593
vt 0.5314 0.9069
vn 0.9152 0.3199 0.2452
v -0.1621 0.8244 -0.1621
vt 0.5379 0.9069
vn 0.6699 0.3199 0.6699
f 309/309/309 310/310/310 311/311/311 312/312/312
v -0.0640 0.0000 0.2389
vt 0.5487 0.7849
vn 0.2452 -0.3199 -0.9152
v -0.1749 0.0000 0.1749
vt 0.5365 0.7849
vn 0.6699 -0.3199 -0.6699
v -0.1621 0.0537 0.1621
vt 0.5379 0.7908
vn 0.6699 -0.3199 -0.6699
v -0.0593 0.0537 0.2214
vt 0.5492 0.7908
vn 0.2452 -0.3199 -0.9152
f 313/313/313 314/314/314 315/315/315 316/316/316
v 0.2389 0.8780 0.0640
vt 0.5821 0.9128
vn -0.9301 0.1236 -0.3460
v 0.2389 0.8780 -0.0640
vt 0.5821 0.9128
vn -0.9152 0.3199 0.2452
v 0.2214 0.8244 -0.0593
vt 0.5801 0.9069
vn -0.9152 0.3199 0.2452
v 0.2214 0.8244 0.0593
vt 0.5801 0.9069
vn -0.9152 0.3199 -0.2452
f 317/317/317 318/318/318 319/319/319 320/320/320
v -0.1749 0.0000 -0.1749
vt 0.5365 0.7849
vn 0.6699 -0.3199 0.6699
v -0.0640 0.0000 -0.2389
vt 0.5487 0.7849
vn 0.2452 -0.3199 0.9152
v -0.0593 0.0537 -0.2214
vt 0.5492 0.7908
vn 0.2452 -0.3199 0.9152
v -0.1621 0.0537 -0.1621
vt 0.5379 0.7908
vn 0.6699 -0.3199 0.6699
f 321/321/321 322/322/322 323/323/323 324/324/324
v -0.1749 0.8780 0.1749
vt 0.5365 0.9128
vn 0.6699 0.3199 -0.6699
v -0.0640 0.8780 0.2389
vt 0.5487 0.9128
vn 0.2452 0.3199 -0.9152
v -0.0593 0.8244 0.2214
vt 0.5492 0.9069
vn 0.2452 0.3199 -0.9152
v -0.1621 0.8244 0.1621
vt 0.5379 0.9069
vn 0.6699 0.3199 -0.6699
f 325/325/325 326/326/326 327/327/327 328/328/328
v 0.2389 0.0000 0.0640
vt 0.5821 0.7849
vn -0.9152 -0.3199 -0.2452
v 0.1749 0.0000 0.1749
vt 0.5750 0.7849
vn -0.6699 -0.3199 -0.6699
v 0.1621 0.0537 0.1621
vt 0.5736 0.7908
vn -0.6699 -0.3199 -0.6699
v 0.2214 0.0537 0.0593
vt 0.5801 0.7908
vn -0.9152 -0.3199 -0.2452
f 329/329/329 330/330/330 331/331/331 332/332/332
v -0.0640 0.8780 -0.2389
vt 0.5487 0.9128
vn 0.2452 0.3199 0.9152
v -0.1749 0.8780 -0.1749
vt 0.5365 0.9128
vn 0.7646 0.1236 0.6325
v -0.1621 0.8244 -0.1621
vt 0.5379 0.9069
vn 0.6699 0.3199 0.6699
v -0.0593 0.8244 -0.2214
vt 0.5492 0.9069
vn 0.2452 0.3199 0.9152
f 333/333/333 334/334/334 335/335/335 336/336/336
v -0.1749 0.0000 0.1749
vt 0.5365 0.7849
vn 0.6699 -0.3199 -0.6699
v -0.2389 0.0000 0.0640
vt 0.5295 0.7849
vn 0.9152 -0.3199 -0.2452
v -0.2214 0.0537 0.0593
vt 0.5314 0.7908
vn 0.9152 -0.3199 -0.2452
v -0.1621 0.0537 0.1621
vt 0.5379 0.7908
vn 0.6699 -0.3199 -0.6699
f 337/337/337 338/338/338 339/339/339 340/340/340
v 0.1749 0.8780 0.1749
vt 0.5750 0.9128
vn -0.7586 0.1391 -0.6365
v 0.2389 0.8780 0.0640
vt 0.5821 0.9128
vn -0.9301 0.1236 -0.3460
v 0.2214 0.8244 0.0593
vt 0.5801 0.9069
vn -0.9152 0.3199 -0.2452
v 0.1621 0.8244 0.1621
vt 0.5736 0.9069
vn -0.6699 0.3199 -0.6699
f 341/341/341 342/342/342 343/343/343 344/344/344
v -0.0640 0.0000 -0.2389
vt 0.5487 0.7849
vn 0.2452 -0.3199 0.9152
v 0.0640 0.0000 -0.2389
vt 0.5628 0.7849
vn -0.2452 -0.3199 0.9152
v 0.0593 0.0537 -0.2214
vt 0.5623 0.7908
vn -0.2452 -0.3199 0.9152
v -0.0593 0.0537 -0.2214
vt 0.5492 0.7908
vn 0.2452 -0.3199 0.9152
f 345/345/345 346/346/346 347/347/347 348/348/348
v 0.0640 0.0000 -0.2389
vt 0.5628 0.7849
vn -0.2452 -0.3199 0.9152
v 0.1749 0.0000 -0.1749
vt 0.5750 0.7849
vn -0.6699 -0.3199 0.6699
v 0.1621 0.0537 -0.1621
vt 0.5736 0.7908
vn -0.6699 -0.3199 0.6699
v 0.0593 0.0537 -0.2214
vt 0.5623 0.7908
vn -0.2452 -0.3199 0.9152
f 349/349/349 350/350/350 351/351/351 352/352/352
v -0.2389 0.8780 0.0640
vt 0.5295 0.9128
vn 0.9152 0.3199 -0.2452
v -0.1749 0.8780 0.1749
vt 0.5365 0.9128
vn 0.6699 0.3199 -0.6699
v -0.1621 0.8244 0.1621
vt 0.5379 0.9069
vn 0.6699 0.3199 -0.6699
v -0.2214 0.8244 0.0593
vt 0.5314 0.9069
vn 0.9152 0.3199 -0.2452
f 353/353/353 354/354/354 355/355/355 356/356/356
v 0.1749 0.0000 0.1749
vt 0.5750 0.7849
vn -0.6699 -0.3199 -0.6699
v 0.0640 0.0000 0.2389
vt 0.5628 0.7849
vn -0.2452 -0.3199 -0.9152
v 0.0593 0.0537 0.2214
vt 0.5623 0.7908
vn -0.2452 -0.3199 -0.9152
v 0.1621 0.0537 0.1621
vt 0.5736 0.7908
vn -0.6699 -0.3199 -0.6699
f 357/357/357 358/358/358 359/359/359 360/360/360
v 0.0640 0.8780 -0.2389
vt 0.5628 0.9128
vn -0.3419 0.1604 0.9259
v -0.0640 0.8780 -0.2389
vt 0.5487 0.9128
vn 0.2452 0.3199 0.9152
v -0.0593 0.8244 -0.2214
vt 0.5492 0.9069
vn 0.2452 0.3199 0.9152
v 0.0593 0.8244 -0.2214
vt 0.5623 0.9069
vn -0.2452 0.3199 0.9152
f 361/361/361 362/362/362 363/363/363 364/364/364
v 0.1749 0.8780 -0.1749
vt 0.5750 0.9128
vn -0.6309 0.1604 0.7591
v 0.0640 0.8780 -0.2389
vt 0.5628 0.9128
vn -0.3419 0.1604 0.9259
v 0.0593 0.8244 -0.2214
vt 0.5623 0.9069
vn -0.2452 0.3199 0.9152
v 0.1621 0.8244 -0.1621
vt 0.5736 0.9069
vn -0.6699 0.3199 0.6699
f 365/365/365 366/366/366 367/367/367 368/368/368
v -0.2389 0.0000 0.0640
vt 0.5295 0.7849
vn 0.9152 -0.3199 -0.2452
v -0.2389 0.0000 -0.0640
vt 0.5295 0.7849
vn 0.9152 -0.3199 0.2452
v -0.2214 0.0537 -0.0593
vt 0.5314 0.7908
vn 0.9152 -0.3199 0.2452
v -0.2214 0.0537 0.0593
vt 0.5314 0.7908
vn 0.9152 -0.3199 -0.2452
f 369/369/369 370/370/370 371/371/371 372/372/372
v 0.0640 0.8780 0.2389
vt 0.5628 0.9128
vn -0.2452 0.3199 -0.9152
v 0.1749 0.8780 0.1749
vt 0.5750 0.9128
vn -0.7586 0.1391 -0.6365
v 0.1621 0.8244 0.1621
vt 0.5736 0.9069
vn -0.6699 0.3199 -0.6699
v 0.0593 0.8244 0.2214
vt 0.5623 0.9069
vn -0.2452 0.3199 -0.9152
f 373/373/373 374/374/374 375/375/375 376/376/376
v 0.1749 0.0000 -0.1749
vt 0.5750 0.7849
vn -0.6699 -0.3199 0.6699
v 0.2389 0.0000 -0.0640
vt 0.5821 0.7849
vn -0.9152 -0.3199 0.2452
v 0.2214 0.0537 -0.0593
vt 0.5801 0.7908
vn -0.9152 -0.3199 0.2452
v 0.1621 0.0537 -0.1621
vt 0.5736 0.7908
vn -0.6699 -0.3199 0.6699
f 377/377/377 378/378/378 379/379/379 380/380/380
v -0.2389 0.8780 -0.0640
vt 0.5295 0.9128
vn 0.9305 0.1391 0.3387
v -0.2389 0.8780 0.0640
vt 0.5295 0.9128
vn 0.9152 0.3199 -0.2452
v -0.2214 0.8244 0.0593
vt 0.5314 0.9069
vn 0.9152 0.3199 -0.2452
v -0.2214 0.8244 -0.0593
vt 0.5314 0.9069
vn 0.9152 0.3199 0.2452
f 381/381/381 382/382/382 383/383/383 384/384/384
v 0.0810 0.1848 -0.3643
vt 0.5647 0.8209
vn 0.7862 -0.1900 -0.5880
v 0.0933 0.1848 -0.3483
vt 0.5660 0.8209
vn 0.7806 -0.2142 -0.5872
v 0.0740 0.0000 -0.2760
vt 0.5639 0.8005
vn 0.7542 -0.3063 -0.5808
f 385/385/385 386/386/386 387/387/387
v 0.0933 0.1848 -0.3483
vt 0.5660 0.8834
vn -0.3824 -0.2142 -0.8988
v 0.1120 0.1848 -0.3560
vt 0.5681 0.8834
vn -0.3869 -0.1900 -0.9023
v 0.0740 0.0000 -0.2760
vt 0.5639 0.8630
vn -0.3627 -0.3063 -0.8801
f 388/388/388 389/389/389 390/390/390
v 0.1120 0.6933 -0.3560
vt 0.5681 0.9393
vn -0.3869 0.1900 -0.9023
v 0.0933 0.6933 -0.3483
vt 0.5660 0.9393
vn -0.3824 0.2142 -0.8988
v 0.0740 0.8780 -0.2760
vt 0.5639 0.9597
vn -0.3627 0.3063 -0.8801
f 391/391/391 392/392/392 393/393/393
v 0.0933 0.6933 -0.3483
vt 0.5660 0.8768
vn 0.7806 0.2142 -0.5872
v 0.0810 0.6933 -0.3643
vt 0.5647 0.8768
vn 0.7862 0.1900 -0.5880
v 0.0740 0.8780 -0.2760
vt 0.5639 0.8972
vn 0.7542 0.3063 -0.5808
f 394/394/394 395/395/395 396/396/396
v 0.2750 0.6933 -0.2523
vt 0.5860 0.9393
vn 0.1161 0.1900 -0.9749
v 0.2550 0.6933 -0.2550
vt 0.5838 0.9393
vn 0.1183 0.2142 -0.9696
v 0.2020 0.8780 -0.2020
vt 0.5780 0.9597
vn 0.1259 0.3063 -0.9436
f 397/397/397 398/398/398 399/399/399
v 0.2550 0.6933 -0.2550
vt 0.5838 0.8768
vn 0.9696 0.2142 -0.1183
v 0.2523 0.6933 -0.2750
vt 0.5835 0.8768
vn 0.9749 0.1900 -0.1161
v 0.2020 0.8780 -0.2020
vt 0.5780 0.8972
vn 0.9436 0.3063 -0.1259
f 400/400/400 401/401/401 402/402/402
v 0.2523 0.1848 -0.2750
vt 0.5835 0.8209
vn 0.9749 -0.1900 -0.1161
v 0.2550 0.1848 -0.2550
vt 0.5838 0.8209
vn 0.9696 -0.2142 -0.1183
v 0.2020 0.0000 -0.2020
vt 0.5780 0.8005
vn 0.9436 -0.3063 -0.1259
f 403/403/403 404/404/404 405/405/405
v 0.2550 0.1848 -0.2550
vt 0.5838 0.8834
vn 0.1183 -0.2142 -0.9696
v 0.2750 0.1848 -0.2523
vt 0.5860 0.8834
vn 0.1161 -0.1900 -0.9749
v 0.2020 0.0000 -0.2020
vt 0.5780 0.8630
vn 0.1259 -0.3063 -0.9436
f 406/406/406 407/407/407 408/408/408
v 0.3643 0.6933 -0.0810
vt 0.5959 0.9393
vn 0.5880 0.1900 -0.7862
v 0.3483 0.6933 -0.0933
vt 0.5941 0.9393
vn 0.5872 0.2142 -0.7806
v 0.2760 0.8780 -0.0740
vt 0.5861 0.9597
vn 0.5808 0.3063 -0.7542
f 409/409/409 410/410/410 411/411/411
v 0.3483 0.6933 -0.0933
vt 0.5941 0.8768
vn 0.8988 0.2142 0.3824
v 0.3560 0.6933 -0.1120
vt 0.5950 0.8768
vn 0.9023 0.1900 0.3869
v 0.2760 0.8780 -0.0740
vt 0.5861 0.8972
vn 0.8801 0.3063 0.3627
f 412/412/412 413/413/413 414/414/414
v 0.3560 0.1848 -0.1120
vt 0.5950 0.8209
vn 0.9023 -0.1900 0.3869
v 0.3483 0.1848 -0.0933
vt 0.5941 0.8209
vn 0.8988 -0.2142 0.3824
v 0.2760 0.0000 -0.0740
vt 0.5861 0.8005
vn 0.8801 -0.3063 0.3627
f 415/415/415 416/416/416 417/417/417
v 0.3483 0.1848 -0.0933
vt 0.5941 0.8834
vn 0.5872 -0.2142 -0.7806
v 0.3643 0.1848 -0.0810
vt 0.5959 0.8834
vn 0.5880 -0.1900 -0.7862
v 0.2760 0.0000 -0.0740
vt 0.5861 0.8630
vn 0.5808 -0.3063 -0.7542
f 418/418/418 419/419/419 420/420/420
v 0.3560 0.6933 0.1120
vt 0.5950 0.9393
vn 0.9023 0.1900 -0.3869
v 0.3483 0.6933 0.0933
vt 0.5941 0.9393
vn 0.8988 0.2142 -0.3824
v 0.2760 0.8780 0.0740
vt 0.5861 0.9597
vn 0.8801 0.3063 -0.3627
f 421/421/421 422/422/422 423/423/423
v 0.3483 0.6933 0.0933
vt 0.5941 0.8768
vn 0.5872 0.2142 0.7806
v 0.3643 0.6933 0.0810
vt 0.5959 0.8768
vn 0.5880 0.1900 0.7862
v 0.2760 0.8780 0.0740
vt 0.5861 0.8972
vn 0.5808 0.3063 0.7542
f 424/424/424 425/425/425 426/426/426
v 0.3643 0.1848 0.0810
vt 0.5959 0.8209
vn 0.5880 -0.1900 0.7862
v 0.3483 0.1848 0.0933
vt 0.5941 0.8209
vn 0.5872 -0.2142 0.7806
v 0.2760 0.0000 0.0740
vt 0.5861 0.8005
vn 0.5808 -0.3063 0.7542
f 427/427/427 428/428/428 429/429/429
v 0.3483 0.1848 0.0933
vt 0.5941 0.8834
vn 0.8988 -0.2142 -0.3824
v 0.3560 0.1848 0.1120
vt 0.5950 0.8834
vn 0.9023 -0.1900 -0.3869
v 0.2760 0.0000 0.0740
vt 0.5861 0.8630
vn 0.8801 -0.3063 -0.3627
f 430/430/430 431/431/431 432/432/432
v 0.2523 0.6933 0.2750
vt 0.5835 0.9393
vn 0.9749 0.1900 0.1161
v 0.2550 0.6933 0.2550
vt 0.5838 0.9393
vn 0.9696 0.2142 0.1183
v 0.2020 0.8780 0.2020
vt 0.5780 0.9597
vn 0.9436 0.3063 0.1259
f 433/433/433 434/434/434 435/435/435
v 0.2550 0.6933 0.2550
vt 0.5838 0.8768
vn 0.1183 0.2142 0.9696
v 0.2750 0.6933 0.2523
vt 0.5860 0.8768
vn 0.1161 0.1900 0.9749
v 0.2020 0.8780 0.2020
vt 0.5780 0.8972
vn 0.1259 0.3063 0.9436
f 436/436/436 437/437/437 438/438/438
v 0.2750 0.1848 0.2523
vt 0.5860 0.8209
vn 0.1161 -0.1900 0.9749
v 0.2550 0.1848 0.2550
vt 0.5838 0.8209
vn 0.1183 -0.2142 0.9696
v 0.2020 0.0000 0.2020
vt 0.5780 0.8005
vn 0.1259 -0.3063 0.9436
f 439/439/439 440/440/440 441/441/441
v 0.2550 0.1848 0.2550
vt 0.5838 0.8834
vn 0.9696 -0.2142 0.1183
v 0.2523 0.1848 0.2750
vt 0.5835 0.8834
vn 0.9749 -0.1900 0.1161
v 0.2020 0.0000 0.2020
vt 0.5780 0.8630
vn 0.9436 -0.3063 0.1259
f 442/442/442 443/443/443 444/444/444
v 0.0810 0.6933 0.3643
vt 0.5647 0.9393
vn 0.7862 0.1900 0.5880
v 0.0933 0.6933 0.3483
vt 0.5660 0.9393
vn 0.7806 0.2142 0.5872
v 0.0740 0.8780 0.2760
vt 0.5639 0.9597
vn 0.7542 0.3063 0.5808
f 445/445/445 446/446/446 447/447/447
v 0.0933 0.6933 0.3483
vt 0.5660 0.8768
vn -0.3824 0.2142 0.8988
v 0.1120 0.6933 0.3560
vt 0.5681 0.8768
vn -0.3869 0.1900 0.9023
v 0.0740 0.8780 0.2760
vt 0.5639 0.8972
vn -0.3627 0.3063 0.8801
f 448/448/448 449/449/449 450/450/450
v 0.1120 0.1848 0.3560
vt 0.5681 0.8209
vn -0.3869 -0.1900 0.9023
v 0.0933 0.1848 0.3483
vt 0.5660 0.8209
vn -0.3824 -0.2142 0.8988
v 0.0740 0.0000 0.2760
vt 0.5639 0.8005
vn -0.3627 -0.3063 0.8801
f 451/451/451 452/452/452 453/453/453
v 0.0933 0.1848 0.3483
vt 0.5660 0.8834
vn 0.7806 -0.2142 0.5872
v 0.0810 0.1848 0.3643
vt 0.5647 0.8834
vn 0.7862 -0.1900 0.5880
v 0.0740 0.0000 0.2760
vt 0.5639 0.8630
vn 0.7542 -0.3063 0.5808
f 454/454/454 455/455/455 456/456/456
v -0.1120 0.6933 0.3560
vt 0.5435 0.9393
vn 0.3869 0.1900 0.9023
v -0.0933 0.6933 0.3483
vt 0.5455 0.9393
vn 0.3824 0.2142 0.8988
v -0.0740 0.8780 0.2760
vt 0.5476 0.9597
vn 0.3627 0.3063 0.8801
f 457/457/457 458/458/458 459/459/459
v -0.0933 0.6933 0.3483
vt 0.5455 0.8768
vn -0.7806 0.2142 0.5872
v -0.0810 0.6933 0.3643
vt 0.5469 0.8768
vn -0.7862 0.1900 0.5880
v -0.0740 0.8780 0.2760
vt 0.5476 0.8972
vn -0.7542 0.3063 0.5808
f 460/460/460 461/461/461 462/462/462
v -0.0810 0.1848 0.3643
vt 0.5469 0.8209
vn -0.7862 -0.1900 0.5880
v -0.0933 0.1848 0.3483
vt 0.5455 0.8209
vn -0.7806 -0.2142 0.5872
v -0.0740 0.0000 0.2760
vt 0.5476 0.8005
vn -0.7542 -0.3063 0.5808
f 463/463/463 464/464/464 465/465/465
v -0.0933 0.1848 0.3483
vt 0.5455 0.8834
vn 0.3824 -0.2142 0.8988
v -0.1120 0.1848 0.3560
vt 0.5435 0.8834
vn 0.3869 -0.1900 0.9023
v -0.0740 0.0000 0.2760
vt 0.5476 0.8630
vn 0.3627 -0.3063 0.8801
f 466/466/466 467/467/467 468/468/468
v -0.2750 0.6933 0.2523
vt 0.5255 0.9393
vn -0.1161 0.1900 0.9749
v -0.2550 0.6933 0.2550
vt 0.5277 0.9393
vn -0.1183 0.2142 0.9696
v -0.2020 0.8780 0.2020
vt 0.5335 0.9597
vn -0.1259 0.3063 0.9436
f 469/469/469 470/470/470 471/471/471
v -0.2550 0.6933 0.2550
vt 0.5277 0.8768
vn -0.9696 0.2142 0.1183
v -0.2523 0.6933 0.2750
vt 0.5280 0.8768
vn -0.9749 0.1900 0.1161
v -0.2020 0.8780 0.2020
vt 0.5335 0.8972
vn -0.9436 0.3063 0.1259
f 472/472/472 473/473/473 474/474/474
v -0.2523 0.1848 0.2750
vt 0.5280 0.8209
vn -0.9749 -0.1900 0.1161
v -0.2550 0.1848 0.2550
vt 0.5277 0.8209
vn -0.9696 -0.2142 0.1183
v -0.2020 0.0000 0.2020
vt 0.5335 0.8005
vn -0.9436 -0.3063 0.1259
f 475/475/475 476/476/476 477/477/477
v -0.2550 0.1848 0.2550
vt 0.5277 0.8834
vn -0.1183 -0.2142 0.9696
v -0.2750 0.1848 0.2523
vt 0.5255 0.8834
vn -0.1161 -0.1900 0.9749
v -0.2020 0.0000 0.2020
vt 0.5335 0.8630
vn -0.1259 -0.3063 0.9436
f 478/478/478 479/479/479 480/480/480
v -0.3643 0.6933 0.0810
vt 0.5157 0.9393
vn -0.5880 0.1900 0.7862
v -0.3483 0.6933 0.0933
vt 0.5174 0.9393
vn -0.5872 0.2142 0.7806
v -0.2760 0.8780 0.0740
vt 0.5254 0.9597
vn -0.5808 0.3063 0.7542
f 481/481/481 482/482/482 483/483/483
v -0.3483 0.6933 0.0933
vt 0.5174 0.8768
vn -0.8988 0.2142 -0.3824
v -0.3560 0.6933 0.1120
vt 0.5166 0.8768
vn -0.9023 0.1900 -0.3869
v -0.2760 0.8780 0.0740
vt 0.5254 0.8972
vn -0.8801 0.3063 -0.3627
f 484/484/484 485/485/485 486/486/486
v -0.3560 0.1848 0.1120
vt 0.5166 0.8209
vn -0.9023 -0.1900 -0.3869
v -0.3483 0.1848 0.0933
vt 0.5174 0.8209
vn -0.8988 -0.2142 -0.3824
v -0.2760 0.0000 0.0740
vt 0.5254 0.8005
vn -0.8801 -0.3063 -0.3627
f 487/487/487 488/488/488 489/489/489
v -0.3483 0.1848 0.0933
vt 0.5174 0.8834
vn -0.5872 -0.2142 0.7806
v -0.3643 0.1848 0.0810
vt 0.5157 0.8834
vn -0.5880 -0.1900 0.7862
v -0.2760 0.0000 0.0740
vt 0.5254 0.8630
vn -0.5808 -0.3063 0.7542
f 490/490/490 491/491/491 492/492/492
v -0.3560 0.6933 -0.1120
vt 0.5166 0.9393
vn -0.9023 0.1900 0.3869
v -0.3483 0.6933 -0.0933
vt 0.5174 0.9393
vn -0.8988 0.2142 0.3824
v -0.2760 0.8780 -0.0740
vt 0.5254 0.9597
vn -0.8801 0.3063 0.3627
f 493/493/493 494/494/494 495/495/495
v -0.3483 0.6933 -0.0933
vt 0.5174 0.8768
vn -0.5872 0.2142 -0.7806
v -0.3643 0.6933 -0.0810
vt 0.5157 0.8768
vn -0.5880 0.1900 -0.7862
v -0.2760 0.8780 -0.0740
vt 0.5254 0.8972
vn -0.5808 0.3063 -0.7542
f 496/496/496 497/497/497 498/498/498
v -0.3643 0.1848 -0.0810
vt 0.5157 0.8209
vn -0.5880 -0.1900 -0.7862
v -0.3483 0.1848 -0.0933
vt 0.5174 0.8209
vn -0.5872 -0.2142 -0.7806
v -0.2760 0.0000 -0.0740
vt 0.5254 0.8005
vn -0.5808 -0.3063 -0.7542
f 499/499/499 500/500/500 501/501/501
v -0.3483 0.1848 -0.0933
vt 0.5174 0.8834
vn -0.8988 -0.2142 0.3824
v -0.3560 0.1848 -0.1120
vt 0.5166 0.8834
vn -0.9023 -0.1900 0.3869
v -0.2760 0.0000 -0.0740
vt 0.5254 0.8630
vn -0.8801 -0.3063 0.3627
f 502/502/502 503/503/503 504/504/504
v -0.2523 0.6933 -0.2750
vt 0.5280 0.9393
vn -0.9749 0.1900 -0.1161
v -0.2550 0.6933 -0.2550
vt 0.5277 0.9393
vn -0.9696 0.2142 -0.1183
v -0.2020 0.8780 -0.2020
vt 0.5335 0.9597
vn -0.9436 0.3063 -0.1259
f 505/505/505 506/506/506 507/507/507
v -0.2550 0.6933 -0.2550
vt 0.5277 0.8768
vn -0.1183 0.2142 -0.9696
v -0.2750 0.6933 -0.2523
vt 0.5255 0.8768
vn -0.1161 0.1900 -0.9749
v -0.2020 0.8780 -0.2020
vt 0.5335 0.8972
vn -0.1259 0.3063 -0.9436
f 508/508/508 509/509/509 510/510/510
v -0.2750 0.1848 -0.2523
vt 0.5255 0.8209
vn -0.1161 -0.1900 -0.9749
v -0.2550 0.1848 -0.2550
vt 0.5277 0.8209
vn -0.1183 -0.2142 -0.9696
v -0.2020 0.0000 -0.2020
vt 0.5335 0.8005
vn -0.1259 -0.3063 -0.9436
f 511/511/511 512/512/512 513/513/513
v -0.2550 0.1848 -0.2550
vt 0.5277 0.8834
vn -0.9696 -0.2142 -0.1183
v -0.2523 0.1848 -0.2750
vt 0.5280 0.8834
vn -0.9749 -0.1900 -0.1161
v -0.2020 0.0000 -0.2020
vt 0.5335 0.8630
vn -0.9436 -0.3063 -0.1259
f 514/514/514 515/515/515 516/516/516
v -0.0810 0.6933 -0.3643
vt 0.5469 0.9393
vn -0.7862 0.1900 -0.5880
v -0.0933 0.6933 -0.3483
vt 0.5455 0.9393
vn -0.7806 0.2142 -0.5872
v -0.0740 0.8780 -0.2760
vt 0.5476 0.9597
vn -0.7542 0.3063 -0.5808
f 517/517/517 518/518/518 519/519/519
v -0.0933 0.6933 -0.3483
vt 0.5455 0.8768
vn 0.3824 0.2142 -0.8988
v -0.1120 0.6933 -0.3560
vt 0.5435 0.8768
vn 0.3869 0.1900 -0.9023
v -0.0740 0.8780 -0.2760
vt 0.5476 0.8972
vn 0.3627 0.3063 -0.8801
f 520/520/520 521/521/521 522/522/522
v -0.1120 0.1848 -0.3560
vt 0.5435 0.8209
vn 0.3869 -0.1900 -0.9023
v -0.0933 0.1848 -0.3483
vt 0.5455 0.8209
vn 0.3824 -0.2142 -0.8988
v -0.0740 0.0000 -0.2760
vt 0.5476 0.8005
vn 0.3627 -0.3063 -0.8801
f 523/523/523 524/524/524 525/525/525
v -0.0933 0.1848 -0.3483
vt 0.5455 0.8834
vn -0.7806 -0.2142 -0.5872
v -0.0810 0.1848 -0.3643
vt 0.5469 0.8834
vn -0.7862 -0.1900 -0.5880
v -0.0740 0.0000 -0.2760
vt 0.5476 0.8630
vn -0.7542 -0.3063 -0.5808
f 526/526/526 527/527/527 528/528/528
v 0.0897 0.4390 -0.3967
vt 0.5656 0.8488
vn 0.8069 0.0000 -0.5907
v 0.0810 0.6933 -0.3643
vt 0.5647 0.8768
vn 0.7862 0.1900 -0.5880
v 0.0933 0.6933 -0.3483
vt 0.5660 0.8768
vn 0.7806 0.2142 -0.5872
v 0.1017 0.4390 -0.3795
vt 0.5670 0.8488
vn 0.8069 0.0000 -0.5907
f 529/529/529 530/530/530 531/531/531 532/532/532
v 0.1017 0.4390 -0.3795
vt 0.5670 0.9113
vn -0.4034 0.0000 -0.9150
v 0.0933 0.6933 -0.3483
vt 0.5660 0.9393
vn -0.3824 0.2142 -0.8988
v 0.1120 0.6933 -0.3560
vt 0.5681 0.9393
vn -0.3869 0.1900 -0.9023
v 0.1207 0.4390 -0.3884
vt 0.5691 0.9113
vn -0.4034 0.0000 -0.9150
f 533/533/533 534/534/534 535/535/535 536/536/536
v 0.2987 0.4390 -0.2760
vt 0.5886 0.9113
vn 0.1082 0.0000 -0.9941
v 0.2750 0.1848 -0.2523
vt 0.5860 0.8834
vn 0.1161 -0.1900 -0.9749
v 0.2550 0.1848 -0.2550
vt 0.5838 0.8834
vn 0.1183 -0.2142 -0.9696
v 0.2778 0.4390 -0.2778
vt 0.5864 0.9113
vn 0.1082 0.0000 -0.9941
f 537/537/537 538/538/538 539/539/539 540/540/540
v 0.2778 0.4390 -0.2778
vt 0.5864 0.8488
vn 0.9941 0.0000 -0.1082
v 0.2550 0.1848 -0.2550
vt 0.5838 0.8209
vn 0.9696 -0.2142 -0.1183
v 0.2523 0.1848 -0.2750
vt 0.5835 0.8209
vn 0.9749 -0.1900 -0.1161
v 0.2760 0.4390 -0.2987
vt 0.5862 0.8488
vn 0.9941 0.0000 -0.1082
f 541/541/541 542/542/542 543/543/543 544/544/544
v 0.3967 0.4390 -0.0897
vt 0.5994 0.9113
vn 0.5907 0.0000 -0.8069
v 0.3643 0.1848 -0.0810
vt 0.5959 0.8834
vn 0.5880 -0.1900 -0.7862
v 0.3483 0.1848 -0.0933
vt 0.5941 0.8834
vn 0.5872 -0.2142 -0.7806
v 0.3795 0.4390 -0.1017
vt 0.5975 0.9113
vn 0.5907 0.0000 -0.8069
f 545/545/545 546/546/546 547/547/547 548/548/548
v 0.3795 0.4390 -0.1017
vt 0.5975 0.8488
vn 0.9150 0.0000 0.4034
v 0.3483 0.1848 -0.0933
vt 0.5941 0.8209
vn 0.8988 -0.2142 0.3824
v 0.3560 0.1848 -0.1120
vt 0.5950 0.8209
vn 0.9023 -0.1900 0.3869
v 0.3884 0.4390 -0.1207
vt 0.5985 0.8488
vn 0.9150 0.0000 0.4034
f 549/549/549 550/550/550 551/551/551 552/552/552
v 0.3884 0.4390 0.1207
vt 0.5985 0.9113
vn 0.9150 0.0000 -0.4034
v 0.3560 0.1848 0.1120
vt 0.5950 0.8834
vn 0.9023 -0.1900 -0.3869
v 0.3483 0.1848 0.0933
vt 0.5941 0.8834
vn 0.8988 -0.2142 -0.3824
v 0.3795 0.4390 0.1017
vt 0.5975 0.9113
vn 0.9150 0.0000 -0.4034
f 553/553/553 554/554/554 555/555/555 556/556/556
v 0.3795 0.4390 0.1017
vt 0.5975 0.8488
vn 0.5907 0.0000 0.8069
v 0.3483 0.1848 0.0933
vt 0.5941 0.8209
vn 0.5872 -0.2142 0.7806
v 0.3643 0.1848 0.0810
vt 0.5959 0.8209
vn 0.5880 -0.1900 0.7862
v 0.3967 0.4390 0.0897
vt 0.5994 0.8488
vn 0.5907 0.0000 0.8069
f 557/557/557 558/558/558 559/559/559 560/560/560
v 0.2760 0.4390 0.2987
vt 0.5862 0.9113
vn 0.9941 -0.0000 0.1082
v 0.2523 0.1848 0.2750
vt 0.5835 0.8834
vn 0.9749 -0.1900 0.1161
v 0.2550 0.1848 0.2550
vt 0.5838 0.8834
vn 0.9696 -0.2142 0.1183
v 0.2778 0.4390 0.2778
vt 0.5864 0.9113
vn 0.9941 -0.0000 0.1082
f 561/561/561 562/562/562 563/563/563 564/564/564
v 0.2778 0.4390 0.2778
vt 0.5864 0.8488
vn 0.1082 0.0000 0.9941
v 0.2550 0.1848 0.2550
vt 0.5838 0.8209
vn 0.1183 -0.2142 0.9696
v 0.2750 0.1848 0.2523
vt 0.5860 0.8209
vn 0.1161 -0.1900 0.9749
v 0.2987 0.4390 0.2760
vt 0.5886 0.8488
vn 0.1082 0.0000 0.9941
f 565/565/565 566/566/566 567/567/567 568/568/568
v 0.0897 0.4390 0.3967
vt 0.5656 0.9113
vn 0.8069 0.0000 0.5907
v 0.0810 0.1848 0.3643
vt 0.5647 0.8834
vn 0.7862 -0.1900 0.5880
v 0.0933 0.1848 0.3483
vt 0.5660 0.8834
vn 0.7806 -0.2142 0.5872
v 0.1017 0.4390 0.3795
vt 0.5670 0.9113
vn 0.8069 0.0000 0.5907
f 569/569/569 570/570/570 571/571/571 572/572/572
v 0.1017 0.4390 0.3795
vt 0.5670 0.8488
vn -0.4034 0.0000 0.9150
v 0.0933 0.1848 0.3483
vt 0.5660 0.8209
vn -0.3824 -0.2142 0.8988
v 0.1120 0.1848 0.3560
vt 0.5681 0.8209
vn -0.3869 -0.1900 0.9023
v 0.1207 0.4390 0.3884
vt 0.5691 0.8488
vn -0.4034 0.0000 0.9150
f 573/573/573 574/574/574 575/575/575 576/576/576
v -0.1207 0.4390 0.3884
vt 0.5425 0.9113
vn 0.4034 0.0000 0.9150
v -0.1120 0.1848 0.3560
vt 0.5435 0.8834
vn 0.3869 -0.1900 0.9023
v -0.0933 0.1848 0.3483
vt 0.5455 0.8834
vn 0.3824 -0.2142 0.8988
v -0.1017 0.4390 0.3795
vt 0.5446 0.9113
vn 0.4034 0.0000 0.9150
f 577/577/577 578/578/578 579/579/579 580/580/580
v -0.1017 0.4390 0.3795
vt 0.5446 0.8488
vn -0.8069 0.0000 0.5907
v -0.0933 0.1848 0.3483
vt 0.5455 0.8209
vn -0.7806 -0.2142 0.5872
v -0.0810 0.1848 0.3643
vt 0.5469 0.8209
vn -0.7862 -0.1900 0.5880
v -0.0897 0.4390 0.3967
vt 0.5459 0.8488
vn -0.8069 0.0000 0.5907
f 581/581/581 582/582/582 583/583/583 584/584/584
v -0.2987 0.4390 0.2760
vt 0.5229 0.9113
vn -0.1082 0.0000 0.9941
v -0.2750 0.1848 0.2523
vt 0.5255 0.8834
vn -0.1161 -0.1900 0.9749
v -0.2550 0.1848 0.2550
vt 0.5277 0.8834
vn -0.1183 -0.2142 0.9696
v -0.2778 0.4390 0.2778
vt 0.5252 0.9113
vn -0.1082 0.0000 0.9941
f 585/585/585 586/586/586 587/587/587 588/588/588
v -0.2778 0.4390 0.2778
vt 0.5252 0.8488
vn -0.9941 0.0000 0.1082
v -0.2550 0.1848 0.2550
vt 0.5277 0.8209
vn -0.9696 -0.2142 0.1183
v -0.2523 0.1848 0.2750
vt 0.5280 0.8209
vn -0.9749 -0.1900 0.1161
v -0.2760 0.4390 0.2987
vt 0.5254 0.8488
vn -0.9941 0.0000 0.1082
f 589/589/589 590/590/590 591/591/591 592/592/592
v -0.3967 0.4390 0.0897
vt 0.5121 0.9113
vn -0.5907 0.0000 0.8069
v -0.3643 0.1848 0.0810
vt 0.5157 0.8834
vn -0.5880 -0.1900 0.7862
v -0.3483 0.1848 0.0933
vt 0.5174 0.8834
vn -0.5872 -0.2142 0.7806
v -0.3795 0.4390 0.1017
vt 0.5140 0.9113
vn -0.5907 0.0000 0.8069
f 593/593/593 594/594/594 595/595/595 596/596/596
v -0.3795 0.4390 0.1017
vt 0.5140 0.8488
vn -0.9150 0.0000 -0.4034
v -0.3483 0.1848 0.0933
vt 0.5174 0.8209
vn -0.8988 -0.2142 -0.3824
v -0.3560 0.1848 0.1120
vt 0.5166 0.8209
vn -0.9023 -0.1900 -0.3869
v -0.3884 0.4390 0.1207
vt 0.5130 0.8488
vn -0.9150 0.0000 -0.4034
f 597/597/597 598/598/598 599/599/599 600/600/600
v -0.3884 0.4390 -0.1207
vt 0.5130 0.9113
vn -0.9150 0.0000 0.4034
v -0.3560 0.1848 -0.1120
vt 0.5166 0.8834
vn -0.9023 -0.1900 0.3869
v -0.3483 0.1848 -0.0933
vt 0.5174 0.8834
vn -0.8988 -0.2142 0.3824
v -0.3795 0.4390 -0.1017
vt 0.5140 0.9113
vn -0.9150 0.0000 0.4034
f 601/601/601 602/602/602 603/603/603 604/604/604
v -0.3795 0.4390 -0.1017
vt 0.5140 0.8488
vn -0.5907 0.0000 -0.8069
v -0.3483 0.1848 -0.0933
vt 0.5174 0.8209
vn -0.5872 -0.2142 -0.7806
v -0.3643 0.1848 -0.0810
vt 0.5157 0.8209
vn -0.5880 -0.1900 -0.7862
v -0.3967 0.4390 -0.0897
vt 0.5121 0.8488
vn -0.5907 0.0000 -0.8069
f 605/605/605 606/606/606 607/607/607 608/608/608
v -0.2760 0.4390 -0.2987
vt 0.5254 0.9113
vn -0.9941 -0.0000 -0.1082
v -0.2523 0.1848 -0.2750
vt 0.5280 0.8834
vn -0.9749 -0.1900 -0.1161
v -0.2550 0.1848 -0.2550
vt 0.5277 0.8834
vn -0.9696 -0.2142 -0.1183
v -0.2778 0.4390 -0.2778
vt 0.5252 0.9113
vn -0.9941 -0.0000 -0.1082
f 609/609/609 610/610/610 611/611/611 612/612/612
v -0.2778 0.4390 -0.2778
vt 0.5252 0.8488
vn -0.1082 0.0000 -0.9941
v -0.2550 0.1848 -0.2550
vt 0.5277 0.8209
vn -0.1183 -0.2142 -0.9696
v -0.2750 0.1848 -0.2523
vt 0.5255 0.8209
vn -0.1161 -0.1900 -0.9749
v -0.2987 0.4390 -0.2760
vt 0.5229 0.8488
vn -0.1082 0.0000 -0.9941
f 613/613/613 614/614/614 615/615/615 616/616/616
v -0.0897 0.4390 -0.3967
vt 0.5459 0.9113
vn -0.8069 0.0000 -0.5907
v -0.0810 0.1848 -0.3643
vt 0.5469 0.8834
vn -0.7862 -0.1900 -0.5880
v -0.0933 0.1848 -0.3483
vt 0.5455 0.8834
vn -0.7806 -0.2142 -0.5872
v -0.1017 0.4390 -0.3795
vt 0.5446 0.9113
vn -0.8069 0.0000 -0.5907
f 617/617/617 618/618/618 619/619/619 620/620/620
v -0.1017 0.4390 -0.3795
vt 0.5446 0.8488
vn 0.4034 0.0000 -0.9150
v -0.0933 0.1848 -0.3483
vt 0.5455 0.8209
vn 0.3824 -0.2142 -0.8988
v -0.1120 0.1848 -0.3560
vt 0.5435 0.8209
vn 0.3869 -0.1900 -0.9023
v -0.1207 0.4390 -0.3884
vt 0.5425 0.8488
vn 0.4034 0.0000 -0.9150
f 621/621/621 622/622/622 623/623/623 624/624/624
v 0.0810 0.1848 -0.3643
vt 0.5647 0.8209
vn 0.7862 -0.1900 -0.5880
v 0.0897 0.4390 -0.3967
vt 0.5656 0.8488
vn 0.8069 0.0000 -0.5907
v 0.1017 0.4390 -0.3795
vt 0.5670 0.8488
vn 0.8069 0.0000 -0.5907
v 0.0933 0.1848 -0.3483
vt 0.5660 0.8209
vn 0.7806 -0.2142 -0.5872
f 625/625/625 626/626/626 627/627/627 628/628/628
v 0.0933 0.1848 -0.3483
vt 0.5660 0.8834
vn -0.3824 -0.2142 -0.8988
v 0.1017 0.4390 -0.3795
vt 0.5670 0.9113
vn -0.4034 0.0000 -0.9150
v 0.1207 0.4390 -0.3884
vt 0.5691 0.9113
vn -0.4034 0.0000 -0.9150
v 0.1120 0.1848 -0.3560
vt 0.5681 0.8834
vn -0.3869 -0.1900 -0.9023
f 629/629/629 630/630/630 631/631/631 632/632/632
v 0.2750 0.6933 -0.2523
vt 0.5860 0.9393
vn 0.1161 0.1900 -0.9749
v 0.2987 0.4390 -0.2760
vt 0.5886 0.9113
vn 0.1082 0.0000 -0.9941
v 0.2778 0.4390 -0.2778
vt 0.5864 0.9113
vn 0.1082 0.0000 -0.9941
v 0.2550 0.6933 -0.2550
vt 0.5838 0.9393
vn 0.1183 0.2142 -0.9696
f 633/633/633 634/634/634 635/635/635 636/636/636
v 0.2550 0.6933 -0.2550
vt 0.5838 0.8768
vn 0.9696 0.2142 -0.1183
v 0.2778 0.4390 -0.2778
vt 0.5864 0.8488
vn 0.9941 0.0000 -0.1082
v 0.2760 0.4390 -0.2987
vt 0.5862 0.8488
vn 0.9941 0.0000 -0.1082
v 0.2523 0.6933 -0.2750
vt 0.5835 0.8768
vn 0.9749 0.1900 -0.1161
f 637/637/637 638/638/638 639/639/639 640/640/640
v 0.3643 0.6933 -0.0810
vt 0.5959 0.9393
vn 0.5880 0.1900 -0.7862
v 0.3967 0.4390 -0.0897
vt 0.5994 0.9113
vn 0.5907 0.0000 -0.8069
v 0.3795 0.4390 -0.1017
vt 0.5975 0.9113
vn 0.5907 0.0000 -0.8069
v 0.3483 0.6933 -0.0933
vt 0.5941 0.9393
vn 0.5872 0.2142 -0.7806
f 641/641/641 642/642/642 643/643/643 644/644/644
v 0.3483 0.6933 -0.0933
vt 0.5941 0.8768
vn 0.8988 0.2142 0.3824
v 0.3795 0.4390 -0.1017
vt 0.5975 0.8488
vn 0.9150 0.0000 0.4034
v 0.3884 0.4390 -0.1207
vt 0.5985 0.8488
vn 0.9150 0.0000 0.4034
v 0.3560 0.6933 -0.1120
vt 0.5950 0.8768
vn 0.9023 0.1900 0.3869
f 645/645/645 646/646/646 647/647/647 648/648/648
v 0.3560 0.6933 0.1120
vt 0.5950 0.9393
vn 0.9023 0.1900 -0.3869
v 0.3884 0.4390 0.1207
vt 0.5985 0.9113
vn 0.9150 0.0000 -0.4034
v 0.3795 0.4390 0.1017
vt 0.5975 0.9113
vn 0.9150 0.0000 -0.4034
v 0.3483 0.6933 0.0933
vt 0.5941 0.9393
vn 0.8988 0.2142 -0.3824
f 649/649/649 650/650/650 651/651/651 652/652/652
v 0.3483 0.6933 0.0933
vt 0.5941 0.8768
vn 0.5872 0.2142 0.7806
v 0.3795 0.4390 0.1017
vt 0.5975 0.8488
vn 0.5907 0.0000 0.8069
v 0.3967 0.4390 0.0897
vt 0.5994 0.8488
vn 0.5907 0.0000 0.8069
v 0.3643 0.6933 0.0810
vt 0.5959 0.8768
vn 0.5880 0.1900 0.7862
f 653/653/653 654/654/654 655/655/655 656/656/656
v 0.2523 0.6933 0.2750
vt 0.5835 0.9393
vn 0.9749 0.1900 0.1161
v 0.2760 0.4390 0.2987
vt 0.5862 0.9113
vn 0.9941 -0.0000 0.1082
v 0.2778 0.4390 0.2778
vt 0.5864 0.9113
vn 0.9941 -0.0000 0.1082
v 0.2550 0.6933 0.2550
vt 0.5838 0.9393
vn 0.9696 0.2142 0.1183
f 657/657/657 658/658/658 659/659/659 660/660/660
v 0.2550 0.6933 0.2550
vt 0.5838 0.8768
vn 0.1183 0.2142 0.9696
v 0.2778 0.4390 0.2778
vt 0.5864 0.8488
vn 0.1082 0.0000 0.9941
v 0.2987 0.4390 0.2760
vt 0.5886 0.8488
vn 0.1082 0.0000 0.9941
v 0.2750 0.6933 0.2523
vt 0.5860 0.8768
vn 0.1161 0.1900 0.9749
f 661/661/661 662/662/662 663/663/663 664/664/664
v 0.0810 0.6933 0.3643
vt 0.5647 0.9393
vn 0.7862 0.1900 0.5880
v 0.0897 0.4390 0.3967
vt 0.5656 0.9113
vn 0.8069 0.0000 0.5907
v 0.1017 0.4390 0.3795
vt 0.5670 0.9113
vn 0.8069 0.0000 0.5907
v 0.0933 0.6933 0.3483
vt 0.5660 0.9393
vn 0.7806 0.2142 0.5872
f 665/665/665 666/666/666 667/667/667 668/668/668
v 0.0933 0.6933 0.3483
vt 0.5660 0.8768
vn -0.3824 0.2142 0.8988
v 0.1017 0.4390 0.3795
vt 0.5670 0.8488
vn -0.4034 0.0000 0.9150
v 0.1207 0.4390 0.3884
vt 0.5691 0.8488
vn -0.4034 0.0000 0.9150
v 0.1120 0.6933 0.3560
vt 0.5681 0.8768
vn -0.3869 0.1900 0.9023
f 669/669/669 670/670/670 671/671/671 672/672/672
v -0.1120 0.6933 0.3560
vt 0.5435 0.9393
vn 0.3869 0.1900 0.9023
v -0.1207 0.4390 0.3884
vt 0.5425 0.9113
vn 0.4034 0.0000 0.9150
v -0.1017 0.4390 0.3795
vt 0.5446 0.9113
vn 0.4034 0.0000 0.9150
v -0.0933 0.6933 0.3483
vt 0.5455 0.9393
vn 0.3824 0.2142 0.8988
f 673/673/673 674/674/674 675/675/675 676/676/676
v -0.0933 0.6933 0.3483
vt 0.5455 0.8768
vn -0.7806 0.2142 0.5872
v -0.1017 0.4390 0.3795
vt 0.5446 0.8488
vn -0.8069 0.0000 0.5907
v -0.0897 0.4390 0.3967
vt 0.5459 0.8488
vn -0.8069 0.0000 0.5907
v -0.0810 0.6933 0.3643
vt 0.5469 0.8768
vn -0.7862 0.1900 0.5880
f 677/677/677 678/678/678 679/679/679 680/680/680
v -0.2750 0.6933 0.2523
vt 0.5255 0.9393
vn -0.1161 0.1900 0.9749
v -0.2987 0.4390 0.2760
vt 0.5229 0.9113
vn -0.1082 0.0000 0.9941
v -0.2778 0.4390 0.2778
vt 0.5252 0.9113
vn -0.1082 0.0000 0.9941
v -0.2550 0.6933 0.2550
vt 0.5277 0.9393
vn -0.1183 0.2142 0.9696
f 681/681/681 682/682/682 683/683/683 684/684/684
v -0.2550 0.6933 0.2550
vt 0.5277 0.8768
vn -0.9696 0.2142 0.1183
v -0.2778 0.4390 0.2778
vt 0.5252 0.8488
vn -0.9941 0.0000 0.1082
v -0.2760 0.4390 0.2987
vt 0.5254 0.8488
vn -0.9941 0.0000 0.1082
v -0.2523 0.6933 0.2750
vt 0.5280 0.8768
vn -0.9749 0.1900 0.1161
f 685/685/685 686/686/686 687/687/687 688/688/688
v -0.3643 0.6933 0.0810
vt 0.5157 0.9393
vn -0.5880 0.1900 0.7862
v -0.3967 0.4390 0.0897
vt 0.5121 0.9113
vn -0.5907 0.0000 0.8069
v -0.3795 0.4390 0.1017
vt 0.5140 0.9113
vn -0.5907 0.0000 0.8069
v -0.3483 0.6933 0.0933
vt 0.5174 0.9393
vn -0.5872 0.2142 0.7806
f 689/689/689 690/690/690 691/691/691 692/692/692
v -0.3483 0.6933 0.0933
vt 0.5174 0.8768
vn -0.8988 0.2142 -0.3824
v -0.3795 0.4390 0.1017
vt 0.5140 0.8488
vn -0.9150 0.0000 -0.4034
v -0.3884 0.4390 0.1207
vt 0.5130 0.8488
vn -0.9150 0.0000 -0.4034
v -0.3560 0.6933 0.1120
vt 0.5166 0.8768
vn -0.9023 0.1900 -0.3869
f 693/693/693 694/694/694 695/695/695 696/696/696
v -0.3560 0.6933 -0.1120
vt 0.5166 0.9393
vn -0.9023 0.1900 0.3869
v -0.3884 0.4390 -0.1207
vt 0.5130 0.9113
vn -0.9150 0.0000 0.4034
v -0.3795 0.4390 -0.1017
vt 0.5140 0.9113
vn -0.9150 0.0000 0.4034
v -0.3483 0.6933 -0.0933
vt 0.5174 0.9393
vn -0.8988 0.2142 0.3824
f 697/697/697 698/698/698 699/699/699 700/700/700
v -0.3483 0.6933 -0.0933
vt 0.5174 0.8768
vn -0.5872 0.2142 -0.7806
v -0.3795 0.4390 -0.1017
vt 0.5140 0.8488
vn -0.5907 0.0000 -0.8069
v -0.3967 0.4390 -0.0897
vt 0.5121 0.8488
vn -0.5907 0.0000 -0.8069
v -0.3643 0.6933 -0.0810
vt 0.5157 0.8768
vn -0.5880 0.1900 -0.7862
f 701/701/701 702/702/702 703/703/703 704/704/704
v -0.2523 0.6933 -0.2750
vt 0.5280 0.9393
vn -0.9749 0.1900 -0.1161
v -0.2760 0.4390 -0.2987
vt 0.5254 0.9113
vn -0.9941 -0.0000 -0.1082
v -0.2778 0.4390 -0.2778
vt 0.5252 0.9113
vn -0.9941 -0.0000 -0.1082
v -0.2550 0.6933 -0.2550
vt 0.5277 0.9393
vn -0.9696 0.2142 -0.1183
f 705/705/705 706/706/706 707/707/707 708/708/708
v -0.2550 0.6933 -0.2550
vt 0.5277 0.8768
vn -0.1183 0.2142 -0.9696
v -0.2778 0.4390 -0.2778
vt 0.5252 0.8488
vn -0.1082 0.0000 -0.9941
v -0.2987 0.4390 -0.2760
vt 0.5229 0.8488
vn -0.1082 0.0000 -0.9941
v -0.2750 0.6933 -0.2523
vt 0.5255 0.8768
vn -0.1161 0.1900 -0.9749
f 709/709/709 710/710/710 711/711/711 712/712/712
v -0.0810 0.6933 -0.3643
vt 0.5469 0.9393
vn -0.7862 0.1900 -0.5880
v -0.0897 0.4390 -0.3967
vt 0.5459 0.9113
vn -0.8069 0.0000 -0.5907
v -0.1017 0.4390 -0.3795
vt 0.5446 0.9113
vn -0.8069 0.0000 -0.5907
v -0.0933 0.6933 -0.3483
vt 0.5455 0.9393
vn -0.7806 0.2142 -0.5872
f 713/713/713 714/714/714 715/715/715 716/716/716
v -0.0933 0.6933 -0.3483
vt 0.5455 0.8768
vn 0.3824 0.2142 -0.8988
v -0.1017 0.4390 -0.3795
vt 0.5446 0.8488
vn 0.4034 0.0000 -0.9150
v -0.1207 0.4390 -0.3884
vt 0.5425 0.8488
vn 0.4034 0.0000 -0.9150
v -0.1120 0.6933 -0.3560
vt 0.5435 0.8768
vn 0.3869 0.1900 -0.9023
f 717/717/717 718/718/718 719/719/719 720/720/720
v 0.0740 0.0000 -0.2760
vt 0.5639 0.8318
vn 0.4512 -0.4311 -0.7814
v 0.1120 0.1848 -0.3560
vt 0.5681 0.8521
vn 0.4801 -0.2791 -0.8316
v 0.2523 0.1848 -0.2750
vt 0.5835 0.8521
vn 0.4801 -0.2791 -0.8316
v 0.2020 0.0000 -0.2020
vt 0.5780 0.8318
vn 0.4512 -0.4311 -0.7814
f 721/721/721 722/722/722 723/723/723 724/724/724
v -0.1085 0.6108 -0.4050
vt 0.1679 0.9013
vn -0.2550 0.1720 -0.9515
v -0.1047 0.6944 -0.3909
vt 0.1683 0.9125
vn -0.2550 0.1720 -0.9515
v 0.1047 0.6944 -0.3909
vt 0.1873 0.9125
vn 0.2550 0.1720 -0.9515
v 0.1085 0.6108 -0.4050
vt 0.1877 0.9013
vn 0.2550 0.1720 -0.9515
f 725/725/725 726/726/726 727/727/727 728/728/728
v 0.4050 0.6108 -0.1085
vt 0.2146 0.9013
vn 0.9515 0.1720 -0.2550
v 0.3909 0.6944 -0.1047
vt 0.2133 0.9125
vn 0.9515 0.1720 -0.2550
v 0.3909 0.6944 0.1047
vt 0.2133 0.9125
vn 0.9515 0.1720 0.2550
v 0.4050 0.6108 0.1085
vt 0.2146 0.9013
vn 0.9515 0.1720 0.2550
f 729/729/729 730/730/730 731/731/731 732/732/732
v 0.4050 0.6108 0.1085
vt 0.2146 0.9013
vn 0.9515 0.1720 0.2550
v 0.3909 0.6944 0.1047
vt 0.2133 0.9125
vn 0.9515 0.1720 0.2550
v 0.2862 0.6944 0.2862
vt 0.2038 0.9125
vn 0.6966 0.1720 0.6966
v 0.2965 0.6108 0.2965
vt 0.2047 0.9013
vn 0.6966 0.1720 0.6966
f 733/733/733 734/734/734 735/735/735 736/736/736
v 0.2965 0.6108 0.2965
vt 0.2047 0.9013
vn 0.6966 0.1720 0.6966
v 0.2862 0.6944 0.2862
vt 0.2038 0.9125
vn 0.6966 0.1720 0.6966
v 0.1047 0.6944 0.3909
vt 0.1873 0.9125
vn 0.2550 0.1720 0.9515
v 0.1085 0.6108 0.4050
vt 0.1877 0.9013
vn 0.2550 0.1720 0.9515
f 737/737/737 738/738/738 739/739/739 740/740/740
v 0.1085 0.6108 0.4050
vt 0.1877 0.9013
vn 0.2550 0.1720 0.9515
v 0.1047 0.6944 0.3909
vt 0.1873 0.9125
vn 0.2550 0.1720 0.9515
v -0.1047 0.6944 0.3909
vt 0.1683 0.9125
vn -0.2550 0.1720 0.9515
v -0.1085 0.6108 0.4050
vt 0.1679 0.9013
vn -0.2550 0.1720 0.9515
f 741/741/741 742/742/742 743/743/743 744/744/744
v -0.1085 0.6108 0.4050
vt 0.1679 0.9013
vn -0.2550 0.1720 0.9515
v -0.1047 0.6944 0.3909
vt 0.1683 0.9125
vn -0.2550 0.1720 0.9515
v -0.2862 0.6944 0.2862
vt 0.1518 0.9125
vn -0.6966 0.1720 0.6966
v -0.2965 0.6108 0.2965
vt 0.1508 0.9013
vn -0.6966 0.1720 0.6966
f 745/745/745 746/746/746 747/747/747 748/748/748
v -0.2965 0.6108 0.2965
vt 0.1508 0.9013
vn -0.6966 0.1720 0.6966
v -0.2862 0.6944 0.2862
vt 0.1518 0.9125
vn -0.6966 0.1720 0.6966
v -0.3909 0.6944 0.1047
vt 0.1423 0.9125
vn -0.9515 0.1720 0.2550
v -0.4050 0.6108 0.1085
vt 0.1410 0.9013
vn -0.9515 0.1720 0.2550
f 749/749/749 750/750/750 751/751/751 752/752/752
v -0.4050 0.6108 0.1085
vt 0.1410 0.9013
vn -0.9515 0.1720 0.2550
v -0.3909 0.6944 0.1047
vt 0.1423 0.9125
vn -0.9515 0.1720 0.2550
v -0.3909 0.6944 -0.1047
vt 0.1423 0.9125
vn -0.9515 0.1720 -0.2550
v -0.4050 0.6108 -0.1085
vt 0.1410 0.9013
vn -0.9515 0.1720 -0.2550
f 753/753/753 754/754/754 755/755/755 756/756/756
v -0.4050 0.6108 -0.1085
vt 0.1410 0.9013
vn -0.9515 0.1720 -0.2550
v -0.3909 0.6944 -0.1047
vt 0.1423 0.9125
vn -0.9515 0.1720 -0.2550
v -0.2862 0.6944 -0.2862
vt 0.1518 0.9125
vn -0.6966 0.1720 -0.6966
v -0.2965 0.6108 -0.2965
vt 0.1508 0.9013
vn -0.6966 0.1720 -0.6966
f 757/757/757 758/758/758 759/759/759 760/760/760
v -0.2965 0.6108 -0.2965
vt 0.1508 0.9013
vn -0.6966 0.1720 -0.6966
v -0.2862 0.6944 -0.2862
vt 0.1518 0.9125
vn -0.6966 0.1720 -0.6966
v -0.1047 0.6944 -0.3909
vt 0.1683 0.9125
vn -0.2550 0.1720 -0.9515
v -0.1085 0.6108 -0.4050
vt 0.1679 0.9013
vn -0.2550 0.1720 -0.9515
f 761/761/761 762/762/762 763/763/763 764/764/764
v 0.2965 0.6108 -0.2965
vt 0.2047 0.9013
vn 0.6966 0.1720 -0.6966
v 0.2862 0.6944 -0.2862
vt 0.2038 0.9125
vn 0.6966 0.1720 -0.6966
v 0.3909 0.6944 -0.1047
vt 0.2133 0.9125
vn 0.9515 0.1720 -0.2550
v 0.4050 0.6108 -0.1085
vt 0.2146 0.9013
vn 0.9515 0.1720 -0.2550
f 765/765/765 766/766/766 767/767/767 768/768/768
v 0.1085 0.6108 -0.4050
vt 0.1877 0.9013
vn 0.2550 0.1720 -0.9515
v 0.1047 0.6944 -0.3909
vt 0.1873 0.9125
vn 0.2550 0.1720 -0.9515
v 0.2862 0.6944 -0.2862
vt 0.2038 0.9125
vn 0.6966 0.1720 -0.6966
v 0.2965 0.6108 -0.2965
vt 0.2047 0.9013
vn 0.6966 0.1720 -0.6966
f 769/769/769 770/770/770 771/771/771 772/772/772
v -0.1047 0.1837 -0.3909
vt 0.1683 0.8442
vn -0.2550 -0.1720 -0.9515
v -0.1085 0.2672 -0.4050
vt 0.1679 0.8554
vn -0.2550 -0.1720 -0.9515
v 0.1085 0.2672 -0.4050
vt 0.1877 0.8554
vn 0.2550 -0.1720 -0.9515
v 0.1047 0.1837 -0.3909
vt 0.1873 0.8442
vn 0.2550 -0.1720 -0.9515
f 773/773/773 774/774/774 775/775/775 776/776/776
v 0.3909 0.1837 -0.1047
vt 0.2133 0.8442
vn 0.9515 -0.1720 -0.2550
v 0.4050 0.2672 -0.1085
vt 0.2146 0.8554
vn 0.9515 -0.1720 -0.2550
v 0.4050 0.2672 0.1085
vt 0.2146 0.8554
vn 0.9515 -0.1720 0.2550
v 0.3909 0.1837 0.1047
vt 0.2133 0.8442
vn 0.9515 -0.1720 0.2550
f 777/777/777 778/778/778 779/779/779 780/780/780
v 0.3909 0.1837 0.1047
vt 0.2133 0.8442
vn 0.9515 -0.1720 0.2550
v 0.4050 0.2672 0.1085
vt 0.2146 0.8554
vn 0.9515 -0.1720 0.2550
v 0.2965 0.2672 0.2965
vt 0.2047 0.8554
vn 0.6966 -0.1720 0.6966
v 0.2862 0.1837 0.2862
vt 0.2038 0.8442
vn 0.6966 -0.1720 0.6966
f 781/781/781 782/782/782 783/783/783 784/784/784
v 0.2862 0.1837 0.2862
vt 0.2038 0.8442
vn 0.6966 -0.1720 0.6966
v 0.2965 0.2672 0.2965
vt 0.2047 0.8554
vn 0.6966 -0.1720 0.6966
v 0.1085 0.2672 0.4050
vt 0.1877 0.8554
vn 0.2550 -0.1720 0.9515
v 0.1047 0.1837 0.3909
vt 0.1873 0.8442
vn 0.2550 -0.1720 0.9515
f 785/785/785 786/786/786 787/787/787 788/788/788
v 0.1047 0.1837 0.3909
vt 0.1873 0.8442
vn 0.2550 -0.1720 0.9515
v 0.1085 0.2672 0.4050
vt 0.1877 0.8554
vn 0.2550 -0.1720 0.9515
v -0.1085 0.2672 0.4050
vt 0.1679 0.8554
vn -0.2550 -0.1720 0.9515
v -0.1047 0.1837 0.3909
vt 0.1683 0.8442
vn -0.2550 -0.1720 0.9515
f 789/789/789 790/790/790 791/791/791 792/792/792
v -0.1047 0.1837 0.3909
vt 0.1683 0.8442
vn -0.2550 -0.1720 0.9515
v -0.1085 0.2672 0.4050
vt 0.1679 0.8554
vn -0.2550 -0.1720 0.9515
v -0.2965 0.2672 0.2965
vt 0.1508 0.8554
vn -0.6966 -0.1720 0.6966
v -0.2862 0.1837 0.2862
vt 0.1518 0.8442
vn -0.6966 -0.1720 0.6966
f 793/793/793 794/794/794 795/795/795 796/796/796
v -0.2862 0.1837 0.2862
vt 0.1518 0.8442
vn -0.6966 -0.1720 0.6966
v -0.2965 0.2672 0.2965
vt 0.1508 0.8554
vn -0.6966 -0.1720 0.6966
v -0.4050 0.2672 0.1085
vt 0.1410 0.8554
vn -0.9515 -0.1720 0.2550
v -0.3909 0.1837 0.1047
vt 0.1423 0.8442
vn -0.9515 -0.1720 0.2550
f 797/797/797 798/798/798 799/799/799 800/800/800
v -0.3909 0.1837 0.1047
vt 0.1423 0.8442
vn -0.9515 -0.1720 0.2550
v -0.4050 0.2672 0.1085
vt 0.1410 0.8554
vn -0.9515 -0.1720 0.2550
v -0.4050 0.2672 -0.1085
vt 0.1410 0.8554
vn -0.9515 -0.1720 -0.2550
v -0.3909 0.1837 -0.1047
vt 0.1423 0.8442
vn -0.9515 -0.1720 -0.2550
f 801/801/801 802/802/802 803/803/803 804/804/804
v -0.3909 0.1837 -0.1047
vt 0.1423 0.8442
vn -0.9515 -0.1720 -0.2550
v -0.4050 0.2672 -0.1085
vt 0.1410 0.8554
vn -0.9515 -0.1720 -0.2550
v -0.2965 0.2672 -0.2965
vt 0.1508 0.8554
vn -0.6966 -0.1720 -0.6966
v -0.2862 0.1837 -0.2862
vt 0.1518 0.8442
vn -0.6966 -0.1720 -0.6966
f 805/805/805 806/806/806 807/807/807 808/808/808
v -0.2862 0.1837 -0.2862
vt 0.1518 0.8442
vn -0.6966 -0.1720 -0.6966
v -0.2965 0.2672 -0.2965
vt 0.1508 0.8554
vn -0.6966 -0.1720 -0.6966
v -0.1085 0.2672 -0.4050
vt 0.1679 0.8554
vn -0.2550 -0.1720 -0.9515
v -0.1047 0.1837 -0.3909
vt 0.1683 0.8442
vn -0.2550 -0.1720 -0.9515
f 809/809/809 810/810/810 811/811/811 812/812/812
v 0.2862 0.1837 -0.2862
vt 0.2038 0.8442
vn 0.6966 -0.1720 -0.6966
v 0.2965 0.2672 -0.2965
vt 0.2047 0.8554
vn 0.6966 -0.1720 -0.6966
v 0.4050 0.2672 -0.1085
vt 0.2146 0.8554
vn 0.9515 -0.1720 -0.2550
v 0.3909 0.1837 -0.1047
vt 0.2133 0.8442
vn 0.9515 -0.1720 -0.2550
f 813/813/813 814/814/814 815/815/815 816/816/816
v 0.1047 0.1837 -0.3909
vt 0.1873 0.8442
vn 0.2550 -0.1720 -0.9515
v 0.1085 0.2672 -0.4050
vt 0.1877 0.8554
vn 0.2550 -0.1720 -0.9515
v 0.2965 0.2672 -0.2965
vt 0.2047 0.8554
vn 0.6966 -0.1720 -0.6966
v 0.2862 0.1837 -0.2862
vt 0.2038 0.8442
vn 0.6966 -0.1720 -0.6966
f 817/817/817 818/818/818 819/819/819 820/820/820
v 0.1085 0.6108 -0.4050
vt 0.1877 0.8554
vn 0.1172 -0.8915 -0.4375
v 0.2965 0.6108 -0.2965
vt 0.2047 0.8554
vn 0.3203 -0.8915 -0.3203
v 0.2582 0.5833 -0.2582
vt 0.2013 0.8517
vn 0.3203 -0.8915 -0.3203
v 0.0945 0.5833 -0.3527
vt 0.1864 0.8517
vn 0.1172 -0.8915 -0.4375
f 821/821/821 822/822/822 823/823/823 824/824/824
v 0.2862 0.6944 -0.2862
vt 0.2038 0.9585
vn 0.2000 0.9592 -0.2000
v 0.1047 0.6944 -0.3909
vt 0.1873 0.9585
vn 0.0732 0.9592 -0.2732
v 0.0895 0.7118 -0.3338
vt 0.1859 0.9608
vn 0.0732 0.9592 -0.2732
v 0.2444 0.7118 -0.2444
vt 0.2000 0.9608
vn 0.2000 0.9592 -0.2000
f 825/825/825 826/826/826 827/827/827 828/828/828
v 0.2965 0.6108 -0.2965
vt 0.2047 0.8554
vn 0.3203 -0.8915 -0.3203
v 0.4050 0.6108 -0.1085
vt 0.2146 0.8554
vn 0.4375 -0.8915 -0.1172
v 0.3527 0.5833 -0.0945
vt 0.2099 0.8517
vn 0.4375 -0.8915 -0.1172
v 0.2582 0.5833 -0.2582
vt 0.2013 0.8517
vn 0.3203 -0.8915 -0.3203
f 829/829/829 830/830/830 831/831/831 832/832/832
v 0.3909 0.6944 -0.1047
vt 0.2133 0.9585
vn 0.2732 0.9592 -0.0732
v 0.2862 0.6944 -0.2862
vt 0.2038 0.9585
vn 0.2000 0.9592 -0.2000
v 0.2444 0.7118 -0.2444
vt 0.2000 0.9608
vn 0.2000 0.9592 -0.2000
v 0.3338 0.7118 -0.0894
vt 0.2081 0.9608
vn 0.2732 0.9592 -0.0732
f 833/833/833 834/834/834 835/835/835 836/836/836
v 0.4050 0.6108 -0.1085
vt 0.2146 0.8554
vn 0.4375 -0.8915 -0.1172
v 0.4050 0.6108 0.1085
vt 0.2146 0.8554
vn 0.4375 -0.8915 0.1172
v 0.3527 0.5833 0.0945
vt 0.2099 0.8517
vn 0.4375 -0.8915 0.1172
v 0.3527 0.5833 -0.0945
vt 0.2099 0.8517
vn 0.4375 -0.8915 -0.1172
f 837/837/837 838/838/838 839/839/839 840/840/840
v 0.3909 0.6944 0.1047
vt 0.2133 0.9585
vn 0.2732 0.9592 0.0732
v 0.3909 0.6944 -0.1047
vt 0.2133 0.9585
vn 0.2732 0.9592 -0.0732
v 0.3338 0.7118 -0.0894
vt 0.2081 0.9608
vn 0.2732 0.9592 -0.0732
v 0.3338 0.7118 0.0895
vt 0.2081 0.9608
vn 0.2732 0.9592 0.0732
f 841/841/841 842/842/842 843/843/843 844/844/844
v 0.4050 0.6108 0.1085
vt 0.2146 0.8554
vn 0.4375 -0.8915 0.1172
v 0.2965 0.6108 0.2965
vt 0.2047 0.8554
vn 0.3203 -0.8915 0.3203
v 0.2582 0.5833 0.2582
vt 0.2013 0.8517
vn 0.3203 -0.8915 0.3203
v 0.3527 0.5833 0.0945
vt 0.2099 0.8517
vn 0.4375 -0.8915 0.1172
f 845/845/845 846/846/846 847/847/847 848/848/848
v 0.2862 0.6944 0.2862
vt 0.2038 0.9585
vn 0.2000 0.9592 0.2000
v 0.3909 0.6944 0.1047
vt 0.2133 0.9585
vn 0.2732 0.9592 0.0732
v 0.3338 0.7118 0.0895
vt 0.2081 0.9608
vn 0.2732 0.9592 0.0732
v 0.2444 0.7118 0.2444
vt 0.2000 0.9608
vn 0.2000 0.9592 0.2000
f 849/849/849 850/850/850 851/851/851 852/852/852
v 0.2965 0.6108 0.2965
vt 0.2047 0.8554
vn 0.3203 -0.8915 0.3203
v 0.1085 0.6108 0.4050
vt 0.1877 0.8554
vn 0.1172 -0.8915 0.4375
v 0.0945 0.5833 0.3527
vt 0.1864 0.8517
vn 0.1172 -0.8915 0.4375
v 0.2582 0.5833 0.2582
vt 0.2013 0.8517
vn 0.3203 -0.8915 0.3203
f 853/853/853 854/854/854 855/855/855 856/856/856
v 0.1047 0.6944 0.3909
vt 0.1873 0.9585
vn 0.0732 0.9592 0.2732
v 0.2862 0.6944 0.2862
vt 0.2038 0.9585
vn 0.2000 0.9592 0.2000
v 0.2444 0.7118 0.2444
vt 0.2000 0.9608
vn 0.2000 0.9592 0.2000
v 0.0895 0.7118 0.3338
vt 0.1859 0.9608
vn 0.0732 0.9592 0.2732
f 857/857/857 858/858/858 859/859/859 860/860/860
v 0.1085 0.6108 0.4050
vt 0.1877 0.8554
vn 0.1172 -0.8915 0.4375
v -0.1085 0.6108 0.4050
vt 0.1679 0.8554
vn -0.1172 -0.8915 0.4375
v -0.0945 0.5833 0.3527
vt 0.1692 0.8517
vn -0.1172 -0.8915 0.4375
v 0.0945 0.5833 0.3527
vt 0.1864 0.8517
vn 0.1172 -0.8915 0.4375
f 861/861/861 862/862/862 863/863/863 864/864/864
v -0.1047 0.6944 0.3909
vt 0.1683 0.9585
vn -0.0732 0.9592 0.2732
v 0.1047 0.6944 0.3909
vt 0.1873 0.9585
vn 0.0732 0.9592 0.2732
v 0.0895 0.7118 0.3338
vt 0.1859 0.9608
vn 0.0732 0.9592 0.2732
v -0.0894 0.7118 0.3338
vt 0.1697 0.9608
vn -0.0732 0.9592 0.2732
f 865/865/865 866/866/866 867/867/867 868/868/868
v -0.1085 0.6108 0.4050
vt 0.1679 0.8554
vn -0.1172 -0.8915 0.4375
v -0.2965 0.6108 0.2965
vt 0.1508 0.8554
vn -0.3203 -0.8915 0.3203
v -0.2582 0.5833 0.2582
vt 0.1543 0.8517
vn -0.3203 -0.8915 0.3203
v -0.0945 0.5833 0.3527
vt 0.1692 0.8517
vn -0.1172 -0.8915 0.4375
f 869/869/869 870/870/870 871/871/871 872/872/872
v -0.2862 0.6944 0.2862
vt 0.1518 0.9585
vn -0.2000 0.9592 0.2000
v -0.1047 0.6944 0.3909
vt 0.1683 0.9585
vn -0.0732 0.9592 0.2732
v -0.0894 0.7118 0.3338
vt 0.1697 0.9608
vn -0.0732 0.9592 0.2732
v -0.2444 0.7118 0.2444
vt 0.1556 0.9608
vn -0.2000 0.9592 0.2000
f 873/873/873 874/874/874 875/875/875 876/876/876
v -0.2965 0.6108 0.2965
vt 0.1508 0.8554
vn -0.3203 -0.8915 0.3203
v -0.4050 0.6108 0.1085
vt 0.1410 0.8554
vn -0.4375 -0.8915 0.1172
v -0.3527 0.5833 0.0945
vt 0.1457 0.8517
vn -0.4375 -0.8915 0.1172
v -0.2582 0.5833 0.2582
vt 0.1543 0.8517
vn -0.3203 -0.8915 0.3203
f 877/877/877 878/878/878 879/879/879 880/880/880
v -0.3909 0.6944 0.1047
vt 0.1423 0.9585
vn -0.2732 0.9592 0.0732
v -0.2862 0.6944 0.2862
vt 0.1518 0.9585
vn -0.2000 0.9592 0.2000
v -0.2444 0.7118 0.2444
vt 0.1556 0.9608
vn -0.2000 0.9592 0.2000
v -0.3338 0.7118 0.0895
vt 0.1474 0.9608
vn -0.2732 0.9592 0.0732
f 881/881/881 882/882/882 883/883/883 884/884/884
v -0.4050 0.6108 0.1085
vt 0.1410 0.8554
vn -0.4375 -0.8915 0.1172
v -0.4050 0.6108 -0.1085
vt 0.1410 0.8554
vn -0.4375 -0.8915 -0.1172
v -0.3527 0.5833 -0.0945
vt 0.1457 0.8517
vn -0.4375 -0.8915 -0.1172
v -0.3527 0.5833 0.0945
vt 0.1457 0.8517
vn -0.4375 -0.8915 0.1172
f 885/885/885 886/886/886 887/887/887 888/888/888
v -0.3909 0.6944 -0.1047
vt 0.1423 0.9585
vn -0.2732 0.9592 -0.0732
v -0.3909 0.6944 0.1047
vt 0.1423 0.9585
vn -0.2732 0.9592 0.0732
v -0.3338 0.7118 0.0895
vt 0.1474 0.9608
vn -0.2732 0.9592 0.0732
v -0.3338 0.7118 -0.0894
vt 0.1474 0.9608
vn -0.2732 0.9592 -0.0732
f 889/889/889 890/890/890 891/891/891 892/892/892
v -0.4050 0.6108 -0.1085
vt 0.1410 0.8554
vn -0.4375 -0.8915 -0.1172
v -0.2965 0.6108 -0.2965
vt 0.1508 0.8554
vn -0.3203 -0.8915 -0.3203
v -0.2582 0.5833 -0.2582
vt 0.1543 0.8517
vn -0.3203 -0.8915 -0.3203
v -0.3527 0.5833 -0.0945
vt 0.1457 0.8517
vn -0.4375 -0.8915 -0.1172
f 893/893/893 894/894/894 895/895/895 896/896/896
v -0.2862 0.6944 -0.2862
vt 0.1518 0.9585
vn -0.2000 0.9592 -0.2000
v -0.3909 0.6944 -0.1047
vt 0.1423 0.9585
vn -0.2732 0.9592 -0.0732
v -0.3338 0.7118 -0.0894
vt 0.1474 0.9608
vn -0.2732 0.9592 -0.0732
v -0.2444 0.7118 -0.2444
vt 0.1556 0.9608
vn -0.2000 0.9592 -0.2000
f 897/897/897 898/898/898 899/899/899 900/900/900
v -0.2965 0.6108 -0.2965
vt 0.1508 0.8554
vn -0.3203 -0.8915 -0.3203
v -0.1085 0.6108 -0.4050
vt 0.1679 0.8554
vn -0.1172 -0.8915 -0.4375
v -0.0945 0.5833 -0.3527
vt 0.1692 0.8517
vn -0.1172 -0.8915 -0.4375
v -0.2582 0.5833 -0.2582
vt 0.1543 0.8517
vn -0.3203 -0.8915 -0.3203
f 901/901/901 902/902/902 903/903/903 904/904/904
v -0.1047 0.6944 -0.3909
vt 0.1683 0.9585
vn -0.0732 0.9592 -0.2732
v -0.2862 0.6944 -0.2862
vt 0.1518 0.9585
vn -0.2000 0.9592 -0.2000
v -0.2444 0.7118 -0.2444
vt 0.1556 0.9608
vn -0.2000 0.9592 -0.2000
v -0.0894 0.7118 -0.3338
vt 0.1697 0.9608
vn -0.0732 0.9592 -0.2732
f 905/905/905 906/906/906 907/907/907 908/908/908
v -0.1085 0.6108 -0.4050
vt 0.1679 0.8554
vn -0.1172 -0.8915 -0.4375
v 0.1085 0.6108 -0.4050
vt 0.1877 0.8554
vn 0.1172 -0.8915 -0.4375
v 0.0945 0.5833 -0.3527
vt 0.1864 0.8517
vn 0.1172 -0.8915 -0.4375
v -0.0945 0.5833 -0.3527
vt 0.1692 0.8517
vn -0.1172 -0.8915 -0.4375
f 909/909/909 910/910/910 911/911/911 912/912/912
v 0.1047 0.6944 -0.3909
vt 0.1873 0.9585
vn 0.0732 0.9592 -0.2732
v -0.1047 0.6944 -0.3909
vt 0.1683 0.9585
vn -0.0732 0.9592 -0.2732
v -0.0894 0.7118 -0.3338
vt 0.1697 0.9608
vn -0.0732 0.9592 -0.2732
v 0.0895 0.7118 -0.3338
vt 0.1859 0.9608
vn 0.0732 0.9592 -0.2732
f 913/913/913 914/914/914 915/915/915 916/916/916
v 0.1047 0.1837 -0.3909
vt 0.1873 0.7983
vn 0.0732 -0.9592 -0.2732
v 0.2862 0.1837 -0.2862
vt 0.2038 0.7983
vn 0.2000 -0.9592 -0.2000
v 0.2444 0.1663 -0.2444
vt 0.2000 0.7959
vn 0.2000 -0.9592 -0.2000
v 0.0895 0.1663 -0.3338
vt 0.1859 0.7959
vn 0.0732 -0.9592 -0.2732
f 917/917/917 918/918/918 919/919/919 920/920/920
v 0.2965 0.2672 -0.2965
vt 0.2047 0.9013
vn 0.3203 0.8915 -0.3203
v 0.1085 0.2672 -0.4050
vt 0.1877 0.9013
vn 0.1172 0.8915 -0.4375
v 0.0945 0.2947 -0.3527
vt 0.1864 0.9050
vn 0.1172 0.8915 -0.4375
v 0.2582 0.2947 -0.2582
vt 0.2013 0.9050
vn 0.3203 0.8915 -0.3203
f 921/921/921 922/922/922 923/923/923 924/924/924
v 0.2862 0.1837 -0.2862
vt 0.2038 0.7983
vn 0.2000 -0.9592 -0.2000
v 0.3909 0.1837 -0.1047
vt 0.2133 0.7983
vn 0.2732 -0.9592 -0.0732
v 0.3338 0.1663 -0.0894
vt 0.2081 0.7959
vn 0.2732 -0.9592 -0.0732
v 0.2444 0.1663 -0.2444
vt 0.2000 0.7959
vn 0.2000 -0.9592 -0.2000
f 925/925/925 926/926/926 927/927/927 928/928/928
v 0.4050 0.2672 -0.1085
vt 0.2146 0.9013
vn 0.4375 0.8915 -0.1172
v 0.2965 0.2672 -0.2965
vt 0.2047 0.9013
vn 0.3203 0.8915 -0.3203
v 0.2582 0.2947 -0.2582
vt 0.2013 0.9050
vn 0.3203 0.8915 -0.3203
v 0.3527 0.2947 -0.0945
vt 0.2099 0.9050
vn 0.4375 0.8915 -0.1172
f 929/929/929 930/930/930 931/931/931 932/932/932
v 0.3909 0.1837 -0.1047
vt 0.2133 0.7983
vn 0.2732 -0.9592 -0.0732
v 0.3909 0.1837 0.1047
vt 0.2133 0.7983
vn 0.2732 -0.9592 0.0732
v 0.3338 0.1663 0.0895
vt 0.2081 0.7959
vn 0.2732 -0.9592 0.0732
v 0.3338 0.1663 -0.0894
vt 0.2081 0.7959
vn 0.2732 -0.9592 -0.0732
f 933/933/933 934/934/934 935/935/935 936/936/936
v 0.4050 0.2672 0.1085
vt 0.2146 0.9013
vn 0.4375 0.8915 0.1172
v 0.4050 0.2672 -0.1085
vt 0.2146 0.9013
vn 0.4375 0.8915 -0.1172
v 0.3527 0.2947 -0.0945
vt 0.2099 0.9050
vn 0.4375 0.8915 -0.1172
v 0.3527 0.2947 0.0945
vt 0.2099 0.9050
vn 0.4375 0.8915 0.1172
f 937/937/937 938/938/938 939/939/939 940/940/940
v 0.3909 0.1837 0.1047
vt 0.2133 0.7983
vn 0.2732 -0.9592 0.0732
v 0.2862 0.1837 0.2862
vt 0.2038 0.7983
vn 0.2000 -0.9592 0.2000
v 0.2444 0.1663 0.2444
vt 0.2000 0.7959
vn 0.2000 -0.9592 0.2000
v 0.3338 0.1663 0.0895
vt 0.2081 0.7959
vn 0.2732 -0.9592 0.0732
f 941/941/941 942/942/942 943/943/943 944/944/944
v 0.2965 0.2672 0.2965
vt 0.2047 0.9013
vn 0.3203 0.8915 0.3203
v 0.4050 0.2672 0.1085
vt 0.2146 0.9013
vn 0.4375 0.8915 0.1172
v 0.3527 0.2947 0.0945
vt 0.2099 0.9050
vn 0.4375 0.8915 0.1172
v 0.2582 0.2947 0.2582
vt 0.2013 0.9050
vn 0.3203 0.8915 0.3203
f 945/945/945 946/946/946 947/947/947 948/948/948
v 0.2862 0.1837 0.2862
vt 0.2038 0.7983
vn 0.2000 -0.9592 0.2000
v 0.1047 0.1837 0.3909
vt 0.1873 0.7983
vn 0.0732 -0.9592 0.2732
v 0.0895 0.1663 0.3338
vt 0.1859 0.7959
vn 0.0732 -0.9592 0.2732
v 0.2444 0.1663 0.2444
vt 0.2000 0.7959
vn 0.2000 -0.9592 0.2000
f 949/949/949 950/950/950 951/951/951 952/952/952
v 0.1085 0.2672 0.4050
vt 0.1877 0.9013
vn 0.1172 0.8915 0.4375
v 0.2965 0.2672 0.2965
vt 0.2047 0.9013
vn 0.3203 0.8915 0.3203
v 0.2582 0.2947 0.2582
vt 0.2013 0.9050
vn 0.3203 0.8915 0.3203
v 0.0945 0.2947 0.3527
vt 0.1864 0.9050
vn 0.1172 0.8915 0.4375
f 953/953/953 954/954/954 955/955/955 956/956/956
v 0.1047 0.1837 0.3909
vt 0.1873 0.7983
vn 0.0732 -0.9592 0.2732
v -0.1047 0.1837 0.3909
vt 0.1683 0.7983
vn -0.0732 -0.9592 0.2732
v -0.0894 0.1663 0.3338
vt 0.1697 0.7959
vn -0.0732 -0.9592 0.2732
v 0.0895 0.1663 0.3338
vt 0.1859 0.7959
vn 0.0732 -0.9592 0.2732
f 957/957/957 958/958/958 959/959/959 960/960/960
v -0.1085 0.2672 0.4050
vt 0.1679 0.9013
vn -0.1172 0.8915 0.4375
v 0.1085 0.2672 0.4050
vt 0.1877 0.9013
vn 0.1172 0.8915 0.4375
v 0.0945 0.2947 0.3527
vt 0.1864 0.9050
vn 0.1172 0.8915 0.4375
v -0.0945 0.2947 0.3527
vt 0.1692 0.9050
vn -0.1172 0.8915 0.4375
f 961/961/961 962/962/962 963/963/963 964/964/964
v -0.1047 0.1837 0.3909
vt 0.1683 0.7983
vn -0.0732 -0.9592 0.2732
v -0.2862 0.1837 0.2862
vt 0.1518 0.7983
vn -0.2000 -0.9592 0.2000
v -0.2444 0.1663 0.2444
vt 0.1556 0.7959
vn -0.2000 -0.9592 0.2000
v -0.0894 0.1663 0.3338
vt 0.1697 0.7959
vn -0.0732 -0.9592 0.2732
f 965/965/965 966/966/966 967/967/967 968/968/968
v -0.2965 0.2672 0.2965
vt 0.1508 0.9013
vn -0.3203 0.8915 0.3203
v -0.1085 0.2672 0.4050
vt 0.1679 0.9013
vn -0.1172 0.8915 0.4375
v -0.0945 0.2947 0.3527
vt 0.1692 0.9050
vn -0.1172 0.8915 0.4375
v -0.2582 0.2947 0.2582
vt 0.1543 0.9050
vn -0.3203 0.8915 0.3203
f 969/969/969 970/970/970 971/971/971 972/972/972
v -0.2862 0.1837 0.2862
vt 0.1518 0.7983
vn -0.2000 -0.9592 0.2000
v -0.3909 0.1837 0.1047
vt 0.1423 0.7983
vn -0.2732 -0.9592 0.0732
v -0.3338 0.1663 0.0895
vt 0.1474 0.7959
vn -0.2732 -0.9592 0.0732
v -0.2444 0.1663 0.2444
vt 0.1556 0.7959
vn -0.2000 -0.9592 0.2000
f 973/973/973 974/974/974 975/975/975 976/976/976
v -0.4050 0.2672 0.1085
vt 0.1410 0.9013
vn -0.4375 0.8915 0.1172
v -0.2965 0.2672 0.2965
vt 0.1508 0.9013
vn -0.3203 0.8915 0.3203
v -0.2582 0.2947 0.2582
vt 0.1543 0.9050
vn -0.3203 0.8915 0.3203
v -0.3527 0.2947 0.0945
vt 0.1457 0.9050
vn -0.4375 0.8915 0.1172
f 977/977/977 978/978/978 979/979/979 980/980/980
v -0.3909 0.1837 0.1047
vt 0.1423 0.7983
vn -0.2732 -0.9592 0.0732
v -0.3909 0.1837 -0.1047
vt 0.1423 0.7983
vn -0.2732 -0.9592 -0.0732
v -0.3338 0.1663 -0.0894
vt 0.1474 0.7959
vn -0.2732 -0.9592 -0.0732
v -0.3338 0.1663 0.0895
vt 0.1474 0.7959
vn -0.2732 -0.9592 0.0732
f 981/981/981 982/982/982 983/983/983 984/984/984
v -0.4050 0.2672 -0.1085
vt 0.1410 0.9013
vn -0.4375 0.8915 -0.1172
v -0.4050 0.2672 0.1085
vt 0.1410 0.9013
vn -0.4375 0.8915 0.1172
v -0.3527 0.2947 0.0945
vt 0.1457 0.9050
vn -0.4375 0.8915 0.1172
v -0.3527 0.2947 -0.0945
vt 0.1457 0.9050
vn -0.4375 0.8915 -0.1172
f 985/985/985 986/986/986 987/987/987 988/988/988
v -0.3909 0.1837 -0.1047
vt 0.1423 0.7983
vn -0.2732 -0.9592 -0.0732
v -0.2862 0.1837 -0.2862
vt 0.1518 0.7983
vn -0.2000 -0.9592 -0.2000
v -0.2444 0.1663 -0.2444
vt 0.1556 0.7959
vn -0.2000 -0.9592 -0.2000
v -0.3338 0.1663 -0.0894
vt 0.1474 0.7959
vn -0.2732 -0.9592 -0.0732
f 989/989/989 990/990/990 991/991/991 992/992/992
v -0.2965 0.2672 -0.2965
vt 0.1508 0.9013
vn -0.3203 0.8915 -0.3203
v -0.4050 0.2672 -0.1085
vt 0.1410 0.9013
vn -0.4375 0.8915 -0.1172
v -0.3527 0.2947 -0.0945
vt 0.1457 0.9050
vn -0.4375 0.8915 -0.1172
v -0.2582 0.2947 -0.2582
vt 0.1543 0.9050
vn -0.3203 0.8915 -0.3203
f 993/993/993 994/994/994 995/995/995 996/996/996
v -0.2862 0.1837 -0.2862
vt 0.1518 0.7983
vn -0.2000 -0.9592 -0.2000
v -0.1047 0.1837 -0.3909
vt 0.1683 0.7983
vn -0.0732 -0.9592 -0.2732
v -0.0895 0.1663 -0.3338
vt 0.1697 0.7959
vn -0.0732 -0.9592 -0.2732
v -0.2444 0.1663 -0.2444
vt 0.1556 0.7959
vn -0.2000 -0.9592 -0.2000
f 997/997/997 998/998/998 999/999/999 1000/1000/1000
v -0.1085 0.2672 -0.4050
vt 0.1679 0.9013
vn -0.1172 0.8915 -0.4375
v -0.2965 0.2672 -0.2965
vt 0.1508 0.9013
vn -0.3203 0.8915 -0.3203
v -0.2582 0.2947 -0.2582
vt 0.1543 0.9050
vn -0.3203 0.8915 -0.3203
v -0.0945 0.2947 -0.3527
vt 0.1692 0.9050
vn -0.1172 0.8915 -0.4375
f 1001/1001/1001 1002/1002/1002 1003/1003/1003 1004/1004/1004
v -0.1047 0.1837 -0.3909
vt 0.1683 0.7983
vn -0.0732 -0.9592 -0.2732
v 0.1047 0.1837 -0.3909
vt 0.1873 0.7983
vn 0.0732 -0.9592 -0.2732
v 0.0895 0.1663 -0.3338
vt 0.1859 0.7959
vn 0.0732 -0.9592 -0.2732
v -0.0895 0.1663 -0.3338
vt 0.1697 0.7959
vn -0.0732 -0.9592 -0.2732
f 1005/1005/1005 1006/1006/1006 1007/1007/1007 1008/1008/1008
v 0.1085 0.2672 -0.4050
vt 0.1877 0.9013
vn 0.1172 0.8915 -0.4375
v -0.1085 0.2672 -0.4050
vt 0.1679 0.9013
vn -0.1172 0.8915 -0.4375
v -0.0945 0.2947 -0.3527
vt 0.1692 0.9050
vn -0.1172 0.8915 -0.4375
v 0.0945 0.2947 -0.3527
vt 0.1864 0.9050
vn 0.1172 0.8915 -0.4375
f 1009/1009/1009 1010/1010/1010 1011/1011/1011 1012/1012/1012
v 0.1621 0.8244 -0.1621
vt 0.5736 0.9225
vn 0.0000 1.0000 0.0000
v 0.0593 0.8244 -0.2214
vt 0.5623 0.9381
vn 0.0000 1.0000 0.0000
v -0.0593 0.8244 -0.2214
vt 0.5492 0.9381
vn 0.0000 1.0000 0.0000
v -0.1621 0.8244 -0.1621
vt 0.5379 0.9225
vn 0.0000 1.0000 0.0000
f 1013/1013/1013 1014/1014/1014 1015/1015/1015 1016/1016/1016
v 0.0635 0.9000 -0.2350
vt 0.5628 0.9621
vn 0.0000 1.0000 0.0000
v 0.1718 0.9000 -0.1725
vt 0.5747 0.9621
vn 0.0000 1.0000 0.0000
v 0.1983 0.9000 -0.1990
vt 0.5776 0.9621
vn 0.0000 1.0000 0.0000
v 0.0732 0.9000 -0.2713
vt 0.5638 0.9621
vn 0.0000 1.0000 0.0000
f 1017/1017/1017 1018/1018/1018 1019/1019/1019 1020/1020/1020
v 0.2343 0.9000 0.0608
vt 0.5816 0.9621
vn 0.0000 1.0000 0.0000
v 0.1718 0.9000 0.1690
vt 0.5747 0.9621
vn 0.0000 1.0000 0.0000
v 0.1983 0.9000 0.1956
vt 0.5776 0.9621
vn 0.0000 1.0000 0.0000
v 0.2705 0.9000 0.0705
vt 0.5855 0.9621
vn 0.0000 1.0000 0.0000
f 1021/1021/1021 1022/1022/1022 1023/1023/1023 1024/1024/1024
v -0.2323 0.9000 -0.0643
vt 0.5302 0.9621
vn 0.0000 1.0000 0.0000
v -0.1698 0.9000 -0.1725
vt 0.5371 0.9621
vn 0.0000 1.0000 0.0000
v -0.1963 0.9000 -0.1990
vt 0.5342 0.9621
vn 0.0000 1.0000 0.0000
v -0.2685 0.9000 -0.0740
vt 0.5262 0.9621
vn 0.0000 1.0000 0.0000
f 1025/1025/1025 1026/1026/1026 1027/1027/1027 1028/1028/1028
v 0.0740 0.8780 -0.2760
vt 0.5639 0.9440
vn -0.9657 0.0237 -0.2587
v 0.0640 0.8780 -0.2389
vt 0.5628 0.9440
vn -0.9657 0.0237 -0.2587
v 0.0635 0.9000 -0.2350
vt 0.5628 0.9464
vn -0.9657 0.0237 -0.2587
v 0.0732 0.9000 -0.2713
vt 0.5638 0.9464
vn -0.9657 0.0237 -0.2587
f 1029/1029/1029 1030/1030/1030 1031/1031/1031 1032/1032/1032
v 0.1749 0.8780 0.1749
vt 0.5750 0.9440
vn -0.7043 0.0883 0.7043
v 0.2020 0.8780 0.2020
vt 0.5780 0.9440
vn -0.7043 0.0883 0.7043
v 0.1983 0.9000 0.1956
vt 0.5776 0.9464
vn -0.7043 0.0883 0.7043
v 0.1718 0.9000 0.1690
vt 0.5747 0.9464
vn -0.7043 0.0883 0.7043
f 1033/1033/1033 1034/1034/1034 1035/1035/1035 1036/1036/1036
v 0.1749 0.8780 -0.1749
vt 0.5750 0.9440
vn 0.7069 0.0237 0.7069
v 0.2020 0.8780 -0.2020
vt 0.5780 0.9440
vn 0.7069 0.0237 0.7069
v 0.1983 0.9000 -0.1990
vt 0.5776 0.9464
vn 0.7069 0.0237 0.7069
v 0.1718 0.9000 -0.1725
vt 0.5747 0.9464
vn 0.7069 0.0237 0.7069
f 1037/1037/1037 1038/1038/1038 1039/1039/1039 1040/1040/1040
v 0.2389 0.8780 0.0640
vt 0.5821 0.9128
vn -0.9301 0.1236 -0.3460
v 0.1749 0.8780 0.1749
vt 0.5750 0.9128
vn -0.7586 0.1391 -0.6365
v 0.1718 0.9000 0.1690
vt 0.5747 0.9152
vn -0.8391 -0.2475 -0.4844
v 0.2343 0.9000 0.0608
vt 0.5816 0.9152
vn -0.8391 -0.2475 -0.4844
f 1041/1041/1041 1042/1042/1042 1043/1043/1043 1044/1044/1044
v 0.2760 0.8780 0.0740
vt 0.5861 0.9440
vn 0.2578 -0.0883 -0.9622
v 0.2389 0.8780 0.0640
vt 0.5821 0.9440
vn 0.2578 -0.0883 -0.9622
v 0.2343 0.9000 0.0608
vt 0.5816 0.9464
vn 0.2578 -0.0883 -0.9622
v 0.2705 0.9000 0.0705
vt 0.5855 0.9464
vn 0.2578 -0.0883 -0.9622
f 1045/1045/1045 1046/1046/1046 1047/1047/1047 1048/1048/1048
v 0.2020 0.8780 0.2020
vt 0.5780 0.9284
vn 0.8069 0.3631 0.4659
v 0.2760 0.8780 0.0740
vt 0.5861 0.9284
vn 0.8084 0.3587 0.4667
v 0.2705 0.9000 0.0705
vt 0.5855 0.9308
vn 0.8306 0.2831 0.4796
v 0.1983 0.9000 0.1956
vt 0.5776 0.9308
vn 0.8306 0.2831 0.4796
f 1049/1049/1049 1050/1050/1050 1051/1051/1051 1052/1052/1052
v -0.1749 0.8780 -0.1749
vt 0.5365 0.9440
vn 0.7043 -0.0883 -0.7043
v -0.2020 0.8780 -0.2020
vt 0.5335 0.9440
vn 0.7043 -0.0883 -0.7043
v -0.1963 0.9000 -0.1990
vt 0.5342 0.9464
vn 0.7043 -0.0883 -0.7043
v -0.1698 0.9000 -0.1725
vt 0.5371 0.9464
vn 0.7043 -0.0883 -0.7043
f 1053/1053/1053 1054/1054/1054 1055/1055/1055 1056/1056/1056
v 0.0640 0.8780 -0.2389
vt 0.5628 0.9128
vn -0.3419 0.1604 0.9259
v 0.1749 0.8780 -0.1749
vt 0.5750 0.9128
vn -0.6309 0.1604 0.7591
v 0.1718 0.9000 -0.1725
vt 0.5747 0.9152
vn -0.4934 -0.1615 0.8547
v 0.0635 0.9000 -0.2350
vt 0.5628 0.9152
vn -0.4934 -0.1615 0.8547
f 1057/1057/1057 1058/1058/1058 1059/1059/1059 1060/1060/1060
v 0.2020 0.8780 -0.2020
vt 0.5780 0.9284
vn 0.4734 0.3218 -0.8200
v 0.0740 0.8780 -0.2760
vt 0.5639 0.9284
vn 0.4734 0.3218 -0.8200
v 0.0732 0.9000 -0.2713
vt 0.5638 0.9308
vn 0.4900 0.1993 -0.8487
v 0.1983 0.9000 -0.1990
vt 0.5776 0.9308
vn 0.4900 0.1993 -0.8487
f 1061/1061/1061 1062/1062/1062 1063/1063/1063 1064/1064/1064
v 0.2214 0.8244 0.0593
vt 0.5801 0.9225
vn 0.0000 1.0000 0.0000
v 0.2214 0.8244 -0.0593
vt 0.5801 0.9381
vn 0.0000 1.0000 0.0000
v -0.2214 0.8244 -0.0593
vt 0.5314 0.9381
vn 0.0000 1.0000 0.0000
v -0.2214 0.8244 0.0593
vt 0.5314 0.9225
vn 0.0000 1.0000 0.0000
f 1065/1065/1065 1066/1066/1066 1067/1067/1067 1068/1068/1068
v 0.0000 0.0537 0.0000
vt 0.5610 0.8064
vn 0.0000 -1.0000 0.0000
v 0.0593 0.0537 -0.2214
vt 0.5623 0.8064
vn 0.0000 -1.0000 0.0000
v 0.1621 0.0537 -0.1621
vt 0.5736 0.8064
vn 0.0000 -1.0000 0.0000
f 1069/1069/1069 1070/1070/1070 1071/1071/1071
v 0.0000 0.0537 0.0000
vt 0.5701 0.8064
vn 0.0000 -1.0000 0.0000
v 0.1621 0.0537 -0.1621
vt 0.5736 0.8064
vn 0.0000 -1.0000 0.0000
v 0.2214 0.0537 -0.0593
vt 0.5801 0.8064
vn 0.0000 -1.0000 0.0000
f 1072/1072/1072 1073/1073/1073 1074/1074/1074
v 0.0000 0.0537 0.0000
vt 0.5754 0.8064
vn 0.0000 -1.0000 0.0000
v 0.2214 0.0537 -0.0593
vt 0.5801 0.8064
vn 0.0000 -1.0000 0.0000
v 0.2214 0.0537 0.0593
vt 0.5801 0.8064
vn 0.0000 -1.0000 0.0000
f 1075/1075/1075 1076/1076/1076 1077/1077/1077
v 0.0000 0.0537 0.0000
vt 0.5754 0.8064
vn 0.0000 -1.0000 0.0000
v 0.2214 0.0537 0.0593
vt 0.5801 0.8064
vn 0.0000 -1.0000 0.0000
v 0.1621 0.0537 0.1621
vt 0.5736 0.8064
vn 0.0000 -1.0000 0.0000
f 1078/1078/1078 1079/1079/1079 1080/1080/1080
v 0.0000 0.0537 0.0000
vt 0.5701 0.8064
vn 0.0000 -1.0000 0.0000
v 0.1621 0.0537 0.1621
vt 0.5736 0.8064
vn 0.0000 -1.0000 0.0000
v 0.0593 0.0537 0.2214
vt 0.5623 0.8064
vn 0.0000 -1.0000 0.0000
f 1081/1081/1081 1082/1082/1082 1083/1083/1083
v 0.0000 0.0537 0.0000
vt 0.5610 0.8064
vn 0.0000 -1.0000 0.0000
v 0.0593 0.0537 0.2214
vt 0.5623 0.8064
vn 0.0000 -1.0000 0.0000
v -0.0593 0.0537 0.2214
vt 0.5492 0.8064
vn 0.0000 -1.0000 0.0000
f 1084/1084/1084 1085/1085/1085 1086/1086/1086
v 0.0000 0.0537 0.0000
vt 0.5505 0.8064
vn 0.0000 -1.0000 0.0000
v -0.0593 0.0537 0.2214
vt 0.5492 0.8064
vn 0.0000 -1.0000 0.0000
v -0.1621 0.0537 0.1621
vt 0.5379 0.8064
vn 0.0000 -1.0000 0.0000
f 1087/1087/1087 1088/1088/1088 1089/1089/1089
v 0.0000 0.0537 0.0000
vt 0.5414 0.8064
vn 0.0000 -1.0000 0.0000
v -0.1621 0.0537 0.1621
vt 0.5379 0.8064
vn 0.0000 -1.0000 0.0000
v -0.2214 0.0537 0.0593
vt 0.5314 0.8064
vn 0.0000 -1.0000 0.0000
f 1090/1090/1090 1091/1091/1091 1092/1092/1092
v 0.0000 0.0537 0.0000
vt 0.5362 0.8064
vn 0.0000 -1.0000 0.0000
v -0.2214 0.0537 0.0593
vt 0.5314 0.8064
vn 0.0000 -1.0000 0.0000
v -0.2214 0.0537 -0.0593
vt 0.5314 0.8064
vn 0.0000 -1.0000 0.0000
f 1093/1093/1093 1094/1094/1094 1095/1095/1095
v 0.0000 0.0537 0.0000
vt 0.5362 0.8064
vn 0.0000 -1.0000 0.0000
v -0.2214 0.0537 -0.0593
vt 0.5314 0.8064
vn 0.0000 -1.0000 0.0000
v -0.1621 0.0537 -0.1621
vt 0.5379 0.8064
vn 0.0000 -1.0000 0.0000
f 1096/1096/1096 1097/1097/1097 1098/1098/1098
v 0.0000 0.0537 0.0000
vt 0.5414 0.8064
vn 0.0000 -1.0000 0.0000
v -0.1621 0.0537 -0.1621
vt 0.5379 0.8064
vn 0.0000 -1.0000 0.0000
v -0.0593 0.0537 -0.2214
vt 0.5492 0.8064
vn 0.0000 -1.0000 0.0000
f 1099/1099/1099 1100/1100/1100 1101/1101/1101
v 0.0000 0.0537 0.0000
vt 0.5505 0.8064
vn 0.0000 -1.0000 0.0000
v -0.0593 0.0537 -0.2214
vt 0.5492 0.8064
vn 0.0000 -1.0000 0.0000
v 0.0593 0.0537 -0.2214
vt 0.5623 0.8064
vn 0.0000 -1.0000 0.0000
f 1102/1102/1102 1103/1103/1103 1104/1104/1104
v 0.2214 0.8244 -0.0593
vt 0.5801 0.9225
vn 0.0000 1.0000 0.0000
v 0.1621 0.8244 -0.1621
vt 0.5736 0.9381
vn 0.0000 1.0000 0.0000
v -0.1621 0.8244 -0.1621
vt 0.5379 0.9381
vn 0.0000 1.0000 0.0000
v -0.2214 0.8244 -0.0593
vt 0.5314 0.9225
vn 0.0000 1.0000 0.0000
f 1105/1105/1105 1106/1106/1106 1107/1107/1107 1108/1108/1108
v 0.2214 0.8244 0.0593
vt 0.5801 0.9381
vn 0.0000 1.0000 0.0000
v -0.2214 0.8244 0.0593
vt 0.5314 0.9381
vn 0.0000 1.0000 0.0000
v -0.1621 0.8244 0.1621
vt 0.5379 0.9225
vn 0.0000 1.0000 0.0000
v 0.1621 0.8244 0.1621
vt 0.5736 0.9225
vn 0.0000 1.0000 0.0000
f 1109/1109/1109 1110/1110/1110 1111/1111/1111 1112/1112/1112
v -0.0851 0.8481 0.0244
vt 0.3120 0.8363
vn 0.0000 1.0000 0.0000
v -0.1315 0.8481 0.0394
vt 0.3068 0.8363
vn 0.0000 1.0000 0.0000
v -0.1399 0.8481 0.0652
vt 0.3068 0.8051
vn 0.0000 1.0000 0.0000
v -0.0632 0.8481 0.0403
vt 0.3120 0.8051
vn 0.0000 1.0000 0.0000
f 1113/1113/1113 1114/1114/1114 1115/1115/1115 1116/1116/1116
v -0.1187 0.8850 0.0000
vt 0.3082 0.9929
vn 0.0000 1.0000 0.0000
v -0.1339 0.8803 -0.0468
vt 0.3065 0.9412
vn -0.0289 0.9956 -0.0890
v -0.1679 0.8803 0.0000
vt 0.3027 0.9412
vn -0.0936 0.9956 0.0000
f 1117/1117/1117 1118/1118/1118 1119/1119/1119
v -0.1187 0.8850 0.0000
vt 0.3082 0.9929
vn 0.0000 1.0000 0.0000
v -0.0788 0.8803 -0.0289
vt 0.3127 0.9412
vn 0.0757 0.9956 -0.0550
v -0.1339 0.8803 -0.0468
vt 0.3065 0.9412
vn -0.0289 0.9956 -0.0890
f 1120/1120/1120 1121/1121/1121 1122/1122/1122
v -0.1187 0.8850 0.0000
vt 0.3082 0.9929
vn 0.0000 1.0000 0.0000
v -0.0788 0.8803 0.0289
vt 0.3127 0.9412
vn 0.0757 0.9956 0.0550
v -0.0788 0.8803 -0.0289
vt 0.3127 0.9412
vn 0.0757 0.9956 -0.0550
f 1123/1123/1123 1124/1124/1124 1125/1125/1125
v -0.1187 0.8850 0.0000
vt 0.3082 0.9929
vn 0.0000 1.0000 0.0000
v -0.1339 0.8803 0.0468
vt 0.3065 0.9412
vn -0.0289 0.9956 0.0890
v -0.0788 0.8803 0.0289
vt 0.3127 0.9412
vn 0.0757 0.9956 0.0550
f 1126/1126/1126 1127/1127/1127 1128/1128/1128
v -0.1187 0.8850 0.0000
vt 0.3082 0.9929
vn 0.0000 1.0000 0.0000
v -0.1679 0.8803 0.0000
vt 0.3027 0.9412
vn -0.0936 0.9956 0.0000
v -0.1339 0.8803 0.0468
vt 0.3065 0.9412
vn -0.0289 0.9956 0.0890
f 1129/1129/1129 1130/1130/1130 1131/1131/1131
v -0.1679 0.8803 0.0000
vt 0.3027 0.9062
vn -0.7940 -0.1915 -0.5769
v -0.1339 0.8803 -0.0468
vt 0.3065 0.9062
vn -0.7940 -0.1915 -0.5769
v -0.1315 0.8481 -0.0394
vt 0.3068 0.8761
vn -0.7940 -0.1915 -0.5769
v -0.1602 0.8481 0.0000
vt 0.3036 0.8761
vn -0.7940 -0.1915 -0.5769
f 1132/1132/1132 1133/1133/1133 1134/1134/1134 1135/1135/1135
v -0.1339 0.8803 0.0468
vt 0.3065 0.9062
vn -0.7940 -0.1915 0.5769
v -0.1679 0.8803 0.0000
vt 0.3027 0.9062
vn -0.7940 -0.1915 0.5769
v -0.1602 0.8481 0.0000
vt 0.3036 0.8761
vn -0.7940 -0.1915 0.5769
v -0.1315 0.8481 0.0394
vt 0.3068 0.8761
vn -0.7940 -0.1915 0.5769
f 1136/1136/1136 1137/1137/1137 1138/1138/1138 1139/1139/1139
v -0.0788 0.8803 0.0289
vt 0.3127 0.9062
vn 0.3033 -0.1915 0.9335
v -0.1339 0.8803 0.0468
vt 0.3065 0.9062
vn 0.3033 -0.1915 0.9335
v -0.1315 0.8481 0.0394
vt 0.3068 0.8761
vn 0.3033 -0.1915 0.9335
v -0.0851 0.8481 0.0244
vt 0.3120 0.8761
vn 0.3033 -0.1915 0.9335
f 1140/1140/1140 1141/1141/1141 1142/1142/1142 1143/1143/1143
v -0.0788 0.8803 -0.0289
vt 0.3127 0.9062
vn 0.9815 -0.1915 0.0000
v -0.0788 0.8803 0.0289
vt 0.3127 0.9062
vn 0.9815 -0.1915 0.0000
v -0.0851 0.8481 0.0244
vt 0.3120 0.8761
vn 0.9815 -0.1915 0.0000
v -0.0851 0.8481 -0.0244
vt 0.3120 0.8761
vn 0.9815 -0.1915 0.0000
f 1144/1144/1144 1145/1145/1145 1146/1146/1146 1147/1147/1147
v -0.1339 0.8803 -0.0468
vt 0.3065 0.9062
vn 0.3033 -0.1915 -0.9335
v -0.0788 0.8803 -0.0289
vt 0.3127 0.9062
vn 0.3033 -0.1915 -0.9335
v -0.0851 0.8481 -0.0244
vt 0.3120 0.8761
vn 0.3033 -0.1915 -0.9335
v -0.1315 0.8481 -0.0394
vt 0.3068 0.8761
vn 0.3033 -0.1915 -0.9335
f 1148/1148/1148 1149/1149/1149 1150/1150/1150 1151/1151/1151
v -0.1399 0.8481 -0.0652
vt 0.3068 0.7895
vn 0.3089 -0.0230 -0.9508
v -0.0632 0.8481 -0.0403
vt 0.3120 0.7895
vn 0.3089 -0.0230 -0.9508
v -0.0640 0.8159 -0.0397
vt 0.3112 0.7666
vn 0.3089 -0.0230 -0.9508
v -0.1396 0.8159 -0.0643
vt 0.3070 0.7666
vn 0.3089 -0.0230 -0.9508
f 1152/1152/1152 1153/1153/1153 1154/1154/1154 1155/1155/1155
v -0.0632 0.8481 -0.0403
vt 0.3120 0.7895
vn 0.9997 -0.0230 0.0000
v -0.0632 0.8481 0.0403
vt 0.3120 0.7895
vn 0.9997 -0.0230 0.0000
v -0.0640 0.8159 0.0397
vt 0.3112 0.7666
vn 0.9997 -0.0230 0.0000
v -0.0640 0.8159 -0.0397
vt 0.3112 0.7666
vn 0.9997 -0.0230 0.0000
f 1156/1156/1156 1157/1157/1157 1158/1158/1158 1159/1159/1159
v -0.0632 0.8481 0.0403
vt 0.3120 0.7895
vn 0.3089 -0.0230 0.9508
v -0.1399 0.8481 0.0652
vt 0.3068 0.7895
vn 0.3089 -0.0230 0.9508
v -0.1396 0.8159 0.0643
vt 0.3070 0.7666
vn 0.3089 -0.0230 0.9508
v -0.0640 0.8159 0.0397
vt 0.3112 0.7666
vn 0.3089 -0.0230 0.9508
f 1160/1160/1160 1161/1161/1161 1162/1162/1162 1163/1163/1163
v -0.1399 0.8481 0.0652
vt 0.3068 0.7895
vn -0.8088 -0.0230 0.5876
v -0.1872 0.8481 0.0000
vt 0.3036 0.7895
vn -0.8088 -0.0230 0.5876
v -0.1863 0.8159 0.0000
vt 0.3044 0.7666
vn -0.8088 -0.0230 0.5876
v -0.1396 0.8159 0.0643
vt 0.3070 0.7666
vn -0.8088 -0.0230 0.5876
f 1164/1164/1164 1165/1165/1165 1166/1166/1166 1167/1167/1167
v -0.1872 0.8481 0.0000
vt 0.3036 0.7895
vn -0.8088 -0.0230 -0.5876
v -0.1399 0.8481 -0.0652
vt 0.3068 0.7895
vn -0.8088 -0.0230 -0.5876
v -0.1396 0.8159 -0.0643
vt 0.3070 0.7666
vn -0.8088 -0.0230 -0.5876
v -0.1863 0.8159 0.0000
vt 0.3044 0.7666
vn -0.8088 -0.0230 -0.5876
f 1168/1168/1168 1169/1169/1169 1170/1170/1170 1171/1171/1171
v -0.0851 0.8481 -0.0244
vt 0.3120 0.8363
vn 0.0000 1.0000 0.0000
v -0.0851 0.8481 0.0244
vt 0.3120 0.8363
vn 0.0000 1.0000 0.0000
v -0.0632 0.8481 0.0403
vt 0.3120 0.8051
vn 0.0000 1.0000 0.0000
v -0.0632 0.8481 -0.0403
vt 0.3120 0.8051
vn 0.0000 1.0000 0.0000
f 1172/1172/1172 1173/1173/1173 1174/1174/1174 1175/1175/1175
v -0.1602 0.8481 0.0000
vt 0.3036 0.8363
vn 0.0000 1.0000 0.0000
v -0.1315 0.8481 -0.0394
vt 0.3068 0.8363
vn 0.0000 1.0000 0.0000
v -0.1399 0.8481 -0.0652
vt 0.3068 0.8051
vn 0.0000 1.0000 0.0000
v -0.1872 0.8481 0.0000
vt 0.3036 0.8051
vn 0.0000 1.0000 0.0000
f 1176/1176/1176 1177/1177/1177 1178/1178/1178 1179/1179/1179
v -0.1315 0.8481 -0.0394
vt 0.3068 0.8363
vn 0.0000 1.0000 0.0000
v -0.0851 0.8481 -0.0244
vt 0.3120 0.8363
vn 0.0000 1.0000 0.0000
v -0.0632 0.8481 -0.0403
vt 0.3120 0.8051
vn 0.0000 1.0000 0.0000
v -0.1399 0.8481 -0.0652
vt 0.3068 0.8051
vn 0.0000 1.0000 0.0000
f 1180/1180/1180 1181/1181/1181 1182/1182/1182 1183/1183/1183
v -0.1315 0.8481 0.0394
vt 0.3068 0.8363
vn 0.0000 1.0000 0.0000
v -0.1602 0.8481 0.0000
vt 0.3036 0.8363
vn 0.0000 1.0000 0.0000
v -0.1872 0.8481 0.0000
vt 0.3036 0.8051
vn 0.0000 1.0000 0.0000
v -0.1399 0.8481 0.0652
vt 0.3068 0.8051
vn 0.0000 1.0000 0.0000
f 1184/1184/1184 1185/1185/1185 1186/1186/1186 1187/1187/1187
