# Blender 4.5.13 LTS
# www.blender.org
o plaster_white
v 0.840000 0.000000 0.000000
v 0.823860 0.000000 -0.163876
v 0.776059 0.000000 -0.321454
v 0.698434 0.000000 -0.466679
v 0.593970 0.000000 -0.593970
v 0.466679 0.000000 -0.698434
v 0.321454 0.000000 -0.776059
v 0.163876 0.000000 -0.823860
v 0.000000 0.000000 -0.840000
v -0.163876 0.000000 -0.823860
v -0.321454 0.000000 -0.776059
v -0.466679 0.000000 -0.698434
v -0.593970 0.000000 -0.593970
v -0.698434 0.000000 -0.466679
v -0.776059 0.000000 -0.321454
v -0.823860 0.000000 -0.163876
v -0.840000 0.000000 -0.000000
v -0.823860 0.000000 0.163876
v -0.776059 0.000000 0.321454
v -0.698434 0.000000 0.466679
v -0.593970 0.000000 0.593970
v -0.466679 0.000000 0.698434
v -0.321454 0.000000 0.776059
v -0.163876 0.000000 0.823860
v -0.000000 0.000000 0.840000
v 0.163876 0.000000 0.823860
v 0.321454 0.000000 0.776059
v 0.466679 0.000000 0.698434
v 0.593970 0.000000 0.593970
v 0.698434 0.000000 0.466679
v 0.776059 0.000000 0.321454
v 0.823860 0.000000 0.163876
v 1.000000 0.000000 0.000000
v 0.980785 0.000000 -0.195090
v 0.923880 0.000000 -0.382683
v 0.831470 0.000000 -0.555570
v 0.707107 0.000000 -0.707107
v 0.555570 0.000000 -0.831470
v 0.382683 0.000000 -0.923880
v 0.195090 0.000000 -0.980785
v 0.000000 0.000000 -1.000000
v -0.195090 0.000000 -0.980785
v -0.382683 0.000000 -0.923880
v -0.555570 0.000000 -0.831470
v -0.707107 0.000000 -0.707107
v -0.831470 0.000000 -0.555570
v -0.923880 0.000000 -0.382683
v -0.980785 0.000000 -0.195090
v -1.000000 0.000000 -0.000000
v -0.980785 0.000000 0.195090
v -0.923880 0.000000 0.382683
v -0.831470 0.000000 0.555570
v -0.707107 0.000000 0.707107
v -0.555570 0.000000 0.831470
v -0.382683 0.000000 0.923880
v -0.195090 0.000000 0.980785
v -0.000000 0.000000 1.000000
v 0.195090 0.000000 0.980785
v 0.382683 0.000000 0.923880
v 0.555570 0.000000 0.831470
v 0.707107 0.000000 0.707107
v 0.831470 0.000000 0.555570
v 0.923880 0.000000 0.382683
v 0.980785 0.000000 0.195090
v 1.000000 0.070000 0.000000
v 0.980785 0.070000 -0.195090
v 0.923880 0.070000 -0.382683
v 0.831470 0.070000 -0.555570
v 0.707107 0.070000 -0.707107
v 0.555570 0.070000 -0.831470
v 0.382683 0.070000 -0.923880
v 0.195090 0.070000 -0.980785
v 0.000000 0.070000 -1.000000
v -0.195090 0.070000 -0.980785
v -0.382683 0.070000 -0.923880
v -0.555570 0.070000 -0.831470
v -0.707107 0.070000 -0.707107
v -0.831470 0.070000 -0.555570
v -0.923880 0.070000 -0.382683
v -0.980785 0.070000 -0.195090
v -1.000000 0.070000 -0.000000
v -0.980785 0.070000 0.195090
v -0.923880 0.070000 0.382683
v -0.831470 0.070000 0.555570
v -0.707107 0.070000 0.707107
v -0.555570 0.070000 0.831470
v -0.382683 0.070000 0.923880
v -0.195090 0.070000 0.980785
v -0.000000 0.070000 1.000000
v 0.195090 0.070000 0.980785
v 0.382683 0.070000 0.923880
v 0.555570 0.070000 0.831470
v 0.707107 0.070000 0.707107
v 0.831470 0.070000 0.555570
v 0.923880 0.070000 0.382683
v 0.980785 0.070000 0.195090
v 0.840000 0.070000 0.000000
v 0.823860 0.070000 -0.163876
v 0.776059 0.070000 -0.321454
v 0.698434 0.070000 -0.466679
v 0.593970 0.070000 -0.593970
v 0.466679 0.070000 -0.698434
v 0.321454 0.070000 -0.776059
v 0.163876 0.070000 -0.823860
v 0.000000 0.070000 -0.840000
v -0.163876 0.070000 -0.823860
v -0.321454 0.070000 -0.776059
v -0.466679 0.070000 -0.698434
v -0.593970 0.070000 -0.593970
v -0.698434 0.070000 -0.466679
v -0.776059 0.070000 -0.321454
v -0.823860 0.070000 -0.163876
v -0.840000 0.070000 -0.000000
v -0.823860 0.070000 0.163876
v -0.776059 0.070000 0.321454
v -0.698434 0.070000 0.466679
v -0.593970 0.070000 0.593970
v -0.466679 0.070000 0.698434
v -0.321454 0.070000 0.776059
v -0.163876 0.070000 0.823860
v -0.000000 0.070000 0.840000
v 0.163876 0.070000 0.823860
v 0.321454 0.070000 0.776059
v 0.466679 0.070000 0.698434
v 0.593970 0.070000 0.593970
v 0.698434 0.070000 0.466679
v 0.776059 0.070000 0.321454
v 0.823860 0.070000 0.163876
vn -0.0000 -1.0000 -0.0000
vn 0.9952 -0.0000 -0.0980
vn 0.9569 -0.0000 -0.2903
vn 0.8819 -0.0000 -0.4714
vn 0.7730 -0.0000 -0.6344
vn 0.6344 -0.0000 -0.7730
vn 0.4714 -0.0000 -0.8819
vn 0.2903 -0.0000 -0.9569
vn 0.0980 -0.0000 -0.9952
vn -0.0980 -0.0000 -0.9952
vn -0.2903 -0.0000 -0.9569
vn -0.4714 -0.0000 -0.8819
vn -0.6344 -0.0000 -0.7730
vn -0.7730 -0.0000 -0.6344
vn -0.8819 -0.0000 -0.4714
vn -0.9569 -0.0000 -0.2903
vn -0.9952 -0.0000 -0.0980
vn -0.9952 -0.0000 0.0980
vn -0.9569 -0.0000 0.2903
vn -0.8819 -0.0000 0.4714
vn -0.7730 -0.0000 0.6344
vn -0.6344 -0.0000 0.7730
vn -0.4714 -0.0000 0.8819
vn -0.2903 -0.0000 0.9569
vn -0.0980 -0.0000 0.9952
vn 0.0980 -0.0000 0.9952
vn 0.2903 -0.0000 0.9569
vn 0.4714 -0.0000 0.8819
vn 0.6344 -0.0000 0.7730
vn 0.7730 -0.0000 0.6344
vn 0.8819 -0.0000 0.4714
vn 0.9569 -0.0000 0.2903
vn 0.9952 -0.0000 0.0980
vn -0.0000 1.0000 -0.0000
vt 0.087139 0.116344
vt 0.090885 0.056118
vt 0.116344 0.087139
vt 0.064193 0.150684
vt 0.056118 0.090885
vt 0.048388 0.188842
vt 0.028802 0.131767
vt 0.040331 0.229349
vt 0.009986 0.177193
vt 0.040331 0.270651
vt 0.000394 0.225416
vt 0.048388 0.311158
vt 0.000394 0.274584
vt 0.064193 0.349316
vt 0.009986 0.322808
vt 0.087139 0.383656
vt 0.028802 0.368233
vt 0.116344 0.412861
vt 0.056118 0.409115
vt 0.150684 0.435807
vt 0.090885 0.443882
vt 0.188842 0.451612
vt 0.131767 0.471198
vt 0.229349 0.459669
vt 0.177193 0.490014
vt 0.270651 0.459669
vt 0.225416 0.499606
vt 0.311158 0.451612
vt 0.274584 0.499606
vt 0.349316 0.435807
vt 0.322807 0.490014
vt 0.383656 0.412861
vt 0.368233 0.471198
vt 0.412861 0.383656
vt 0.409115 0.443882
vt 0.435807 0.349316
vt 0.443882 0.409115
vt 0.451612 0.311158
vt 0.471198 0.368233
vt 0.459669 0.270651
vt 0.490014 0.322808
vt 0.459669 0.229349
vt 0.499606 0.274584
vt 0.451612 0.188842
vt 0.499606 0.225416
vt 0.435807 0.150684
vt 0.490014 0.177193
vt 0.412861 0.116344
vt 0.471198 0.131767
vt 0.383656 0.087139
vt 0.443882 0.090885
vt 0.349316 0.064193
vt 0.409115 0.056118
vt 0.311158 0.048388
vt 0.368233 0.028802
vt 0.270651 0.040331
vt 0.322808 0.009986
vt 0.229349 0.040331
vt 0.274584 0.000394
vt 0.188842 0.048388
vt 0.225416 0.000394
vt 0.150684 0.064193
vt 0.177193 0.009986
vt 0.131767 0.028802
vt 0.517951 0.388158
vt 0.500394 0.353390
vt 0.517951 0.353390
vt 0.517951 0.415474
vt 0.500394 0.388158
vt 0.517951 0.451028
vt 0.500394 0.416261
vt 0.517951 0.416261
vt 0.517951 0.491910
vt 0.500394 0.451028
vt 0.517951 0.537336
vt 0.500394 0.491910
vt 0.517951 0.585559
vt 0.500394 0.537336
vt 0.517951 0.634727
vt 0.500394 0.585559
vt 0.517951 0.682950
vt 0.500394 0.634727
vt 0.517951 0.728376
vt 0.500394 0.682950
vt 0.517951 0.769258
vt 0.500394 0.728376
vt 0.536295 0.041275
vt 0.518738 0.000394
vt 0.536295 0.000394
vt 0.536295 0.086701
vt 0.518738 0.041275
vt 0.536295 0.134924
vt 0.518738 0.086701
vt 0.536295 0.184092
vt 0.518738 0.134924
vt 0.536295 0.232316
vt 0.518738 0.184092
vt 0.536295 0.277741
vt 0.518738 0.232316
vt 0.536295 0.318623
vt 0.518738 0.277741
vt 0.536295 0.360292
vt 0.518738 0.319410
vt 0.536295 0.319410
vt 0.536295 0.405718
vt 0.518738 0.360292
vt 0.536295 0.453941
vt 0.518738 0.405718
vt 0.536295 0.503109
vt 0.518738 0.453941
vt 0.536295 0.551333
vt 0.518738 0.503109
vt 0.536295 0.596758
vt 0.518738 0.551333
vt 0.536295 0.637640
vt 0.518738 0.596758
vt 0.517951 0.035161
vt 0.500394 0.000394
vt 0.517951 0.000394
vt 0.517951 0.076043
vt 0.500394 0.035161
vt 0.517951 0.121468
vt 0.500394 0.076043
vt 0.517951 0.169691
vt 0.500394 0.121468
vt 0.517951 0.218860
vt 0.500394 0.169691
vt 0.517951 0.267083
vt 0.500394 0.218860
vt 0.517951 0.312509
vt 0.500394 0.267083
vt 0.500394 0.312509
vt 0.368233 0.971198
vt 0.383656 0.912861
vt 0.409115 0.943882
vt 0.311158 0.951612
vt 0.349316 0.935807
vt 0.274584 0.999606
vt 0.322807 0.990014
vt 0.225416 0.999606
vt 0.270651 0.959669
vt 0.177192 0.990014
vt 0.229349 0.959669
vt 0.131767 0.971198
vt 0.188842 0.951612
vt 0.090885 0.943882
vt 0.150684 0.935807
vt 0.056118 0.909115
vt 0.116344 0.912861
vt 0.028802 0.868233
vt 0.087139 0.883656
vt 0.048388 0.811158
vt 0.064193 0.849316
vt 0.000394 0.774584
vt 0.009986 0.822807
vt 0.000394 0.725416
vt 0.040331 0.770651
vt 0.009986 0.677192
vt 0.040331 0.729349
vt 0.028802 0.631767
vt 0.048388 0.688842
vt 0.056118 0.590885
vt 0.064193 0.650684
vt 0.090885 0.556118
vt 0.087139 0.616344
vt 0.131767 0.528802
vt 0.116344 0.587139
vt 0.188842 0.548388
vt 0.150684 0.564193
vt 0.225416 0.500394
vt 0.177192 0.509986
vt 0.274584 0.500394
vt 0.229349 0.540331
vt 0.322807 0.509986
vt 0.270651 0.540331
vt 0.368233 0.528802
vt 0.311158 0.548388
vt 0.409115 0.556118
vt 0.349316 0.564193
vt 0.443882 0.590885
vt 0.383656 0.587139
vt 0.471198 0.631767
vt 0.412861 0.616344
vt 0.451612 0.688842
vt 0.435807 0.650684
vt 0.499606 0.725416
vt 0.490014 0.677192
vt 0.499606 0.774584
vt 0.459669 0.729349
vt 0.490014 0.822807
vt 0.459669 0.770651
vt 0.471198 0.868233
vt 0.451612 0.811158
vt 0.443882 0.909115
vt 0.435807 0.849316
vt 0.412861 0.883656
vt 0.500394 0.415474
vt 0.500394 0.769258
vt 0.518738 0.318623
vt 0.518738 0.637640
s 0
f 2/1/1 33/2/1 1/3/1
f 3/4/1 34/5/1 2/1/1
f 4/6/1 35/7/1 3/4/1
f 5/8/1 36/9/1 4/6/1
f 6/10/1 37/11/1 5/8/1
f 7/12/1 38/13/1 6/10/1
f 8/14/1 39/15/1 7/12/1
f 9/16/1 40/17/1 8/14/1
f 10/18/1 41/19/1 9/16/1
f 11/20/1 42/21/1 10/18/1
f 12/22/1 43/23/1 11/20/1
f 13/24/1 44/25/1 12/22/1
f 14/26/1 45/27/1 13/24/1
f 15/28/1 46/29/1 14/26/1
f 16/30/1 47/31/1 15/28/1
f 17/32/1 48/33/1 16/30/1
f 18/34/1 49/35/1 17/32/1
f 19/36/1 50/37/1 18/34/1
f 20/38/1 51/39/1 19/36/1
f 21/40/1 52/41/1 20/38/1
f 22/42/1 53/43/1 21/40/1
f 23/44/1 54/45/1 22/42/1
f 24/46/1 55/47/1 23/44/1
f 25/48/1 56/49/1 24/46/1
f 26/50/1 57/51/1 25/48/1
f 27/52/1 58/53/1 26/50/1
f 28/54/1 59/55/1 27/52/1
f 29/56/1 60/57/1 28/54/1
f 30/58/1 61/59/1 29/56/1
f 31/60/1 62/61/1 30/58/1
f 32/62/1 63/63/1 31/60/1
f 1/3/1 64/64/1 32/62/1
f 34/65/2 65/66/2 33/67/2
f 35/68/3 66/69/3 34/65/3
f 36/70/4 67/71/4 35/72/4
f 37/73/5 68/74/5 36/70/5
f 38/75/6 69/76/6 37/73/6
f 39/77/7 70/78/7 38/75/7
f 40/79/8 71/80/8 39/77/8
f 41/81/9 72/82/9 40/79/9
f 42/83/10 73/84/10 41/81/10
f 43/85/11 74/86/11 42/83/11
f 44/87/12 75/88/12 43/89/12
f 45/90/13 76/91/13 44/87/13
f 46/92/14 77/93/14 45/90/14
f 47/94/15 78/95/15 46/92/15
f 48/96/16 79/97/16 47/94/16
f 49/98/17 80/99/17 48/96/17
f 50/100/18 81/101/18 49/98/18
f 51/102/19 82/103/19 50/104/19
f 52/105/20 83/106/20 51/102/20
f 53/107/21 84/108/21 52/105/21
f 54/109/22 85/110/22 53/107/22
f 55/111/23 86/112/23 54/109/23
f 56/113/24 87/114/24 55/111/24
f 57/115/25 88/116/25 56/113/25
f 58/117/26 89/118/26 57/119/26
f 59/120/27 90/121/27 58/117/27
f 60/122/28 91/123/28 59/120/28
f 61/124/29 92/125/29 60/122/29
f 62/126/30 93/127/30 61/124/30
f 63/128/31 94/129/31 62/126/31
f 64/130/32 95/131/32 63/128/32
f 33/67/33 96/132/33 64/130/33
f 66/133/34 97/134/34 65/135/34
f 66/133/34 99/136/34 98/137/34
f 68/138/34 99/136/34 67/139/34
f 69/140/34 100/141/34 68/138/34
f 70/142/34 101/143/34 69/140/34
f 71/144/34 102/145/34 70/142/34
f 72/146/34 103/147/34 71/144/34
f 73/148/34 104/149/34 72/146/34
f 74/150/34 105/151/34 73/148/34
f 74/150/34 107/152/34 106/153/34
f 76/154/34 107/152/34 75/155/34
f 77/156/34 108/157/34 76/154/34
f 78/158/34 109/159/34 77/156/34
f 79/160/34 110/161/34 78/158/34
f 80/162/34 111/163/34 79/160/34
f 81/164/34 112/165/34 80/162/34
f 82/166/34 113/167/34 81/164/34
f 82/166/34 115/168/34 114/169/34
f 84/170/34 115/168/34 83/171/34
f 85/172/34 116/173/34 84/170/34
f 86/174/34 117/175/34 85/172/34
f 87/176/34 118/177/34 86/174/34
f 88/178/34 119/179/34 87/176/34
f 89/180/34 120/181/34 88/178/34
f 90/182/34 121/183/34 89/180/34
f 90/182/34 123/184/34 122/185/34
f 92/186/34 123/184/34 91/187/34
f 93/188/34 124/189/34 92/186/34
f 94/190/34 125/191/34 93/188/34
f 95/192/34 126/193/34 94/190/34
f 96/194/34 127/195/34 95/192/34
f 65/135/34 128/196/34 96/194/34
f 17/32/1 9/16/1 1/3/1
f 112/165/34 120/181/34 128/196/34
f 2/1/1 34/5/1 33/2/1
f 3/4/1 35/7/1 34/5/1
f 4/6/1 36/9/1 35/7/1
f 5/8/1 37/11/1 36/9/1
f 6/10/1 38/13/1 37/11/1
f 7/12/1 39/15/1 38/13/1
f 8/14/1 40/17/1 39/15/1
f 9/16/1 41/19/1 40/17/1
f 10/18/1 42/21/1 41/19/1
f 11/20/1 43/23/1 42/21/1
f 12/22/1 44/25/1 43/23/1
f 13/24/1 45/27/1 44/25/1
f 14/26/1 46/29/1 45/27/1
f 15/28/1 47/31/1 46/29/1
f 16/30/1 48/33/1 47/31/1
f 17/32/1 49/35/1 48/33/1
f 18/34/1 50/37/1 49/35/1
f 19/36/1 51/39/1 50/37/1
f 20/38/1 52/41/1 51/39/1
f 21/40/1 53/43/1 52/41/1
f 22/42/1 54/45/1 53/43/1
f 23/44/1 55/47/1 54/45/1
f 24/46/1 56/49/1 55/47/1
f 25/48/1 57/51/1 56/49/1
f 26/50/1 58/53/1 57/51/1
f 27/52/1 59/55/1 58/53/1
f 28/54/1 60/57/1 59/55/1
f 29/56/1 61/59/1 60/57/1
f 30/58/1 62/61/1 61/59/1
f 31/60/1 63/63/1 62/61/1
f 32/62/1 64/64/1 63/63/1
f 1/3/1 33/2/1 64/64/1
f 34/65/2 66/69/2 65/66/2
f 35/68/3 67/197/3 66/69/3
f 36/70/4 68/74/4 67/71/4
f 37/73/5 69/76/5 68/74/5
f 38/75/6 70/78/6 69/76/6
f 39/77/7 71/80/7 70/78/7
f 40/79/8 72/82/8 71/80/8
f 41/81/9 73/84/9 72/82/9
f 42/83/10 74/86/10 73/84/10
f 43/85/11 75/198/11 74/86/11
f 44/87/12 76/91/12 75/88/12
f 45/90/13 77/93/13 76/91/13
f 46/92/14 78/95/14 77/93/14
f 47/94/15 79/97/15 78/95/15
f 48/96/16 80/99/16 79/97/16
f 49/98/17 81/101/17 80/99/17
f 50/100/18 82/199/18 81/101/18
f 51/102/19 83/106/19 82/103/19
f 52/105/20 84/108/20 83/106/20
f 53/107/21 85/110/21 84/108/21
f 54/109/22 86/112/22 85/110/22
f 55/111/23 87/114/23 86/112/23
f 56/113/24 88/116/24 87/114/24
f 57/115/25 89/200/25 88/116/25
f 58/117/26 90/121/26 89/118/26
f 59/120/27 91/123/27 90/121/27
f 60/122/28 92/125/28 91/123/28
f 61/124/29 93/127/29 92/125/29
f 62/126/30 94/129/30 93/127/30
f 63/128/31 95/131/31 94/129/31
f 64/130/32 96/132/32 95/131/32
f 33/67/33 65/66/33 96/132/33
f 66/133/34 98/137/34 97/134/34
f 66/133/34 67/139/34 99/136/34
f 68/138/34 100/141/34 99/136/34
f 69/140/34 101/143/34 100/141/34
f 70/142/34 102/145/34 101/143/34
f 71/144/34 103/147/34 102/145/34
f 72/146/34 104/149/34 103/147/34
f 73/148/34 105/151/34 104/149/34
f 74/150/34 106/153/34 105/151/34
f 74/150/34 75/155/34 107/152/34
f 76/154/34 108/157/34 107/152/34
f 77/156/34 109/159/34 108/157/34
f 78/158/34 110/161/34 109/159/34
f 79/160/34 111/163/34 110/161/34
f 80/162/34 112/165/34 111/163/34
f 81/164/34 113/167/34 112/165/34
f 82/166/34 114/169/34 113/167/34
f 82/166/34 83/171/34 115/168/34
f 84/170/34 116/173/34 115/168/34
f 85/172/34 117/175/34 116/173/34
f 86/174/34 118/177/34 117/175/34
f 87/176/34 119/179/34 118/177/34
f 88/178/34 120/181/34 119/179/34
f 89/180/34 121/183/34 120/181/34
f 90/182/34 122/185/34 121/183/34
f 90/182/34 91/187/34 123/184/34
f 92/186/34 124/189/34 123/184/34
f 93/188/34 125/191/34 124/189/34
f 94/190/34 126/193/34 125/191/34
f 95/192/34 127/195/34 126/193/34
f 96/194/34 128/196/34 127/195/34
f 65/135/34 97/134/34 128/196/34
f 1/3/1 32/62/1 31/60/1
f 31/60/1 30/58/1 29/56/1
f 29/56/1 28/54/1 27/52/1
f 27/52/1 26/50/1 25/48/1
f 25/48/1 24/46/1 23/44/1
f 23/44/1 22/42/1 21/40/1
f 21/40/1 20/38/1 19/36/1
f 19/36/1 18/34/1 17/32/1
f 17/32/1 16/30/1 15/28/1
f 15/28/1 14/26/1 13/24/1
f 13/24/1 12/22/1 11/20/1
f 11/20/1 10/18/1 9/16/1
f 9/16/1 8/14/1 7/12/1
f 7/12/1 6/10/1 5/8/1
f 5/8/1 4/6/1 3/4/1
f 3/4/1 2/1/1 1/3/1
f 1/3/1 31/60/1 29/56/1
f 29/56/1 27/52/1 25/48/1
f 25/48/1 23/44/1 21/40/1
f 21/40/1 19/36/1 17/32/1
f 17/32/1 15/28/1 13/24/1
f 13/24/1 11/20/1 9/16/1
f 9/16/1 7/12/1 5/8/1
f 5/8/1 3/4/1 1/3/1
f 1/3/1 29/56/1 25/48/1
f 25/48/1 21/40/1 17/32/1
f 17/32/1 13/24/1 9/16/1
f 9/16/1 5/8/1 1/3/1
f 1/3/1 25/48/1 17/32/1
f 128/196/34 97/134/34 98/137/34
f 98/137/34 99/136/34 100/141/34
f 100/141/34 101/143/34 102/145/34
f 102/145/34 103/147/34 104/149/34
f 104/149/34 105/151/34 106/153/34
f 106/153/34 107/152/34 108/157/34
f 108/157/34 109/159/34 110/161/34
f 110/161/34 111/163/34 112/165/34
f 112/165/34 113/167/34 114/169/34
f 114/169/34 115/168/34 116/173/34
f 116/173/34 117/175/34 118/177/34
f 118/177/34 119/179/34 120/181/34
f 120/181/34 121/183/34 122/185/34
f 122/185/34 123/184/34 124/189/34
f 124/189/34 125/191/34 126/193/34
f 126/193/34 127/195/34 128/196/34
f 128/196/34 98/137/34 100/141/34
f 100/141/34 102/145/34 104/149/34
f 104/149/34 106/153/34 108/157/34
f 108/157/34 110/161/34 112/165/34
f 112/165/34 114/169/34 116/173/34
f 116/173/34 118/177/34 120/181/34
f 120/181/34 122/185/34 124/189/34
f 124/189/34 126/193/34 128/196/34
f 128/196/34 100/141/34 104/149/34
f 104/149/34 108/157/34 112/165/34
f 112/165/34 116/173/34 120/181/34
f 120/181/34 124/189/34 128/196/34
f 128/196/34 104/149/34 112/165/34
