# Blender 4.5.13 LTS
# www.blender.org
o canvas
v -0.225000 0.000000 0.500000
v -0.225000 0.060000 0.500000
v -0.225000 0.000000 -0.500000
v -0.225000 0.060000 -0.500000
v 0.225000 0.000000 0.500000
v 0.225000 0.060000 0.500000
v 0.225000 0.000000 -0.500000
v 0.225000 0.060000 -0.500000
v -0.225000 0.090000 -0.510000
v 0.225000 0.090000 -0.510000
v -0.225000 0.026360 -0.483640
v 0.225000 0.026360 -0.483640
v -0.225000 0.000000 -0.420000
v 0.225000 0.000000 -0.420000
v -0.225000 0.026360 -0.356360
v 0.225000 0.026360 -0.356360
v -0.225000 0.090000 -0.330000
v 0.225000 0.090000 -0.330000
v -0.225000 0.153640 -0.356360
v 0.225000 0.153640 -0.356360
v -0.225000 0.180000 -0.420000
v 0.225000 0.180000 -0.420000
v -0.225000 0.153640 -0.483640
v 0.225000 0.153640 -0.483640
vn -1.0000 -0.0000 -0.0000
vn -0.0000 -0.0000 -1.0000
vn 1.0000 -0.0000 -0.0000
vn -0.0000 -0.0000 1.0000
vn -0.0000 -1.0000 -0.0000
vn -0.0000 1.0000 -0.0000
vn -0.0000 -0.3827 -0.9239
vn -0.0000 -0.9239 -0.3827
vn -0.0000 -0.9239 0.3827
vn -0.0000 -0.3827 0.9239
vn -0.0000 0.3827 0.9239
vn -0.0000 0.9239 0.3827
vn -0.0000 0.9239 -0.3827
vn -0.0000 0.3827 -0.9239
vt 0.670973 0.742030
vt 0.715449 0.000767
vt 0.715449 0.742030
vt 0.954757 0.334336
vt 0.999233 0.000767
vt 0.999233 0.334336
vt 0.716983 0.742030
vt 0.761459 0.000767
vt 0.761459 0.742030
vt 0.954757 0.669438
vt 0.999233 0.335870
vt 0.999233 0.669438
vt 0.000767 0.742030
vt 0.334336 0.000767
vt 0.334336 0.742030
vt 0.335870 0.742030
vt 0.669438 0.000767
vt 0.669438 0.742030
vt 0.906049 0.334336
vt 0.858875 0.000767
vt 0.906049 0.000767
vt 0.857341 0.334336
vt 0.810167 0.000767
vt 0.857341 0.000767
vt 0.762993 0.334336
vt 0.762993 0.000767
vt 0.858875 0.335870
vt 0.906049 0.669438
vt 0.858875 0.669438
vt 0.906049 0.335870
vt 0.953223 0.669438
vt 0.762993 0.669438
vt 0.810167 0.335870
vt 0.810167 0.669438
vt 0.248843 0.779670
vt 0.212738 0.866835
vt 0.125572 0.830730
vt 0.857341 0.669438
vt 0.953223 0.334336
vt 0.953223 0.000767
vt 0.000767 0.830730
vt 0.036872 0.743565
vt 0.124038 0.779670
vt 0.670973 0.000767
vt 0.954757 0.000767
vt 0.716983 0.000767
vt 0.954757 0.335870
vt 0.000767 0.000767
vt 0.335870 0.000767
vt 0.858875 0.334336
vt 0.810167 0.334336
vt 0.953223 0.335870
vt 0.762993 0.335870
vt 0.125572 0.779670
vt 0.161678 0.743565
vt 0.212738 0.743565
vt 0.248843 0.830730
vt 0.161678 0.866835
vt 0.857341 0.335870
vt 0.124038 0.830730
vt 0.087933 0.866835
vt 0.036872 0.866835
vt 0.000767 0.779670
vt 0.087933 0.743565
s 0
f 2/1/1 3/2/1 1/3/1
f 4/4/2 7/5/2 3/6/2
f 8/7/3 5/8/3 7/9/3
f 6/10/4 1/11/4 5/12/4
f 7/13/5 1/14/5 3/15/5
f 4/16/6 6/17/6 8/18/6
f 10/19/7 11/20/7 9/21/7
f 12/22/8 13/23/8 11/24/8
f 13/23/9 16/25/9 15/26/9
f 16/27/10 17/28/10 15/29/10
f 18/30/11 19/31/11 17/28/11
f 19/32/12 22/33/12 21/34/12
f 22/35/3 18/36/3 14/37/3
f 22/33/13 23/38/13 21/34/13
f 24/39/14 9/21/14 23/40/14
f 15/41/1 19/42/1 23/43/1
f 2/1/1 4/44/1 3/2/1
f 4/4/2 8/45/2 7/5/2
f 8/7/3 6/46/3 5/8/3
f 6/10/4 2/47/4 1/11/4
f 7/13/5 5/48/5 1/14/5
f 4/16/6 2/49/6 6/17/6
f 10/19/7 12/50/7 11/20/7
f 12/22/8 14/51/8 13/23/8
f 13/23/9 14/51/9 16/25/9
f 16/27/10 18/30/10 17/28/10
f 18/30/11 20/52/11 19/31/11
f 19/32/12 20/53/12 22/33/12
f 14/37/3 12/54/3 10/55/3
f 10/55/3 24/56/3 22/35/3
f 22/35/3 20/57/3 18/36/3
f 18/36/3 16/58/3 14/37/3
f 14/37/3 10/55/3 22/35/3
f 22/33/13 24/59/13 23/38/13
f 24/39/14 10/19/14 9/21/14
f 23/43/1 9/60/1 11/61/1
f 11/61/1 13/62/1 15/41/1
f 15/41/1 17/63/1 19/42/1
f 19/42/1 21/64/1 23/43/1
f 23/43/1 11/61/1 15/41/1
