# The Giants of Holst prop, from CC0 kits by KayKit (Kay Lousberg) and Kenney
v 0.2312 0.5687 -0.3375
vt 0.2102 0.8689
vn 0.0000 -0.9809 -0.1945
v 0.2148 0.5523 -0.2549
vt 0.2081 0.8664
vn 0.0000 -0.9809 -0.1945
v 0.0716 0.5523 -0.2549
vt 0.1902 0.8664
vn 0.0000 -0.9809 -0.1945
f 1/1/1 2/2/2 3/3/3
v 0.2312 0.0000 -0.2312
vt 0.2102 0.7821
vn 0.0000 -0.1945 0.9809
v 0.2148 0.0826 -0.2148
vt 0.2081 0.7947
vn 0.0000 -0.1945 0.9809
v 0.0716 0.0826 -0.2148
vt 0.1902 0.7947
vn 0.0000 -0.1945 0.9809
f 4/4/4 5/5/5 6/6/6
v 0.3375 0.1063 0.2312
vt 0.2235 0.8555
vn 0.1945 0.9809 0.0000
v 0.3375 0.1063 -0.2312
vt 0.2235 0.8555
vn 0.1945 0.9809 0.0000
v 0.2549 0.1227 -0.2148
vt 0.2131 0.8580
vn 0.1945 0.9809 0.0000
v 0.2549 0.1227 0.2148
vt 0.2131 0.8580
vn 0.1945 0.9809 0.0000
f 7/7/7 8/8/8 9/9/9 10/10/10
v -0.3375 0.5687 0.2312
vt 0.1390 0.8689
vn -0.1945 -0.9809 0.0000
v -0.3375 0.5687 -0.2312
vt 0.1390 0.8689
vn -0.1945 -0.9809 0.0000
v -0.2549 0.5523 -0.2148
vt 0.1493 0.8664
vn -0.1945 -0.9809 0.0000
v -0.2549 0.5523 0.2148
vt 0.1493 0.8664
vn -0.1945 -0.9809 0.0000
f 11/11/11 12/12/12 13/13/13 14/14/14
v -0.2312 0.1063 -0.3375
vt 0.1523 0.8555
vn 0.0000 0.9809 -0.1945
v -0.2148 0.1227 -0.2549
vt 0.1543 0.8580
vn 0.0000 0.9809 -0.1945
v -0.0716 0.1227 -0.2549
vt 0.1723 0.8580
vn 0.0000 0.9809 -0.1945
f 15/15/15 16/16/16 17/17/17
v 0.2312 0.1063 0.3375
vt 0.2102 0.8555
vn 0.0000 0.9809 0.1945
v 0.2148 0.1227 0.2549
vt 0.2081 0.8580
vn 0.0000 0.9809 0.1945
v 0.0716 0.1227 0.2549
vt 0.1902 0.8580
vn 0.0000 0.9809 0.1945
f 18/18/18 19/19/19 20/20/20
v -0.2312 0.6750 -0.2312
vt 0.1523 0.9042
vn 0.0000 0.1945 0.9809
v -0.2148 0.5924 -0.2148
vt 0.1543 0.8916
vn 0.0000 0.1945 0.9809
v -0.0716 0.5924 -0.2148
vt 0.1723 0.8916
vn 0.0000 0.1945 0.9809
f 21/21/21 22/22/22 23/23/23
v -0.3375 0.1063 -0.2312
vt 0.1390 0.8174
vn -0.1945 0.0000 0.9809
v -0.2549 0.1227 -0.2148
vt 0.1493 0.8199
vn -0.1945 0.0000 0.9809
v -0.2549 0.2659 -0.2148
vt 0.1493 0.8418
vn -0.1945 0.0000 0.9809
f 24/24/24 25/25/25 26/26/26
v 0.3375 0.5687 -0.2312
vt 0.2235 0.8689
vn 0.1945 -0.9809 0.0000
v 0.3375 0.5687 0.2312
vt 0.2235 0.8689
vn 0.1945 -0.9809 0.0000
v 0.2549 0.5523 0.2148
vt 0.2131 0.8664
vn 0.1945 -0.9809 0.0000
v 0.2549 0.5523 -0.2148
vt 0.2131 0.8664
vn 0.1945 -0.9809 0.0000
f 27/27/27 28/28/28 29/29/29 30/30/30
v -0.2312 0.0000 0.2312
vt 0.1523 0.7821
vn 0.9809 -0.1945 0.0000
v -0.2312 0.0000 -0.2312
vt 0.1523 0.7821
vn 0.9809 -0.1945 0.0000
v -0.2148 0.0826 -0.2148
vt 0.1543 0.7947
vn 0.9809 -0.1945 0.0000
v -0.2148 0.0826 0.2148
vt 0.1543 0.7947
vn 0.9809 -0.1945 0.0000
f 31/31/31 32/32/32 33/33/33 34/34/34
v -0.2312 0.5687 0.3375
vt 0.1523 0.8689
vn 0.0000 -0.9809 0.1945
v -0.2148 0.5523 0.2549
vt 0.1543 0.8664
vn 0.0000 -0.9809 0.1945
v -0.0716 0.5523 0.2549
vt 0.1723 0.8664
vn 0.0000 -0.9809 0.1945
f 35/35/35 36/36/36 37/37/37
v 0.2312 0.6750 0.2312
vt 0.2102 0.9042
vn -0.9809 0.1945 0.0000
v 0.2312 0.6750 -0.2312
vt 0.2102 0.9042
vn -0.9809 0.1945 0.0000
v 0.2148 0.5924 -0.2148
vt 0.2081 0.8916
vn -0.9809 0.1945 0.0000
v 0.2148 0.5924 0.2148
vt 0.2081 0.8916
vn -0.9809 0.1945 0.0000
f 38/38/38 39/39/39 40/40/40 41/41/41
v 0.3375 0.1063 0.2312
vt 0.2235 0.8174
vn 0.1945 0.0000 -0.9809
v 0.2549 0.1227 0.2148
vt 0.2131 0.8199
vn 0.1945 0.0000 -0.9809
v 0.2549 0.2659 0.2148
vt 0.2131 0.8418
vn 0.1945 0.0000 -0.9809
f 42/42/42 43/43/43 44/44/44
v 0.2312 0.0000 -0.2312
vt 0.2102 0.7821
vn -0.9809 -0.1945 0.0000
v 0.2312 0.0000 0.2312
vt 0.2102 0.7821
vn -0.9809 -0.1945 0.0000
v 0.2148 0.0826 0.2148
vt 0.2081 0.7947
vn -0.9809 -0.1945 0.0000
v 0.2148 0.0826 -0.2148
vt 0.2081 0.7947
vn -0.9809 -0.1945 0.0000
f 45/45/45 46/46/46 47/47/47 48/48/48
v -0.2312 0.6750 -0.2312
vt 0.1523 0.9042
vn 0.9809 0.1945 0.0000
v -0.2312 0.6750 0.2312
vt 0.1523 0.9042
vn 0.9809 0.1945 0.0000
v -0.2148 0.5924 0.2148
vt 0.1543 0.8916
vn 0.9809 0.1945 0.0000
v -0.2148 0.5924 -0.2148
vt 0.1543 0.8916
vn 0.9809 0.1945 0.0000
f 49/49/49 50/50/50 51/51/51 52/52/52
v -0.2312 0.0000 0.2312
vt 0.1523 0.7821
vn 0.0000 -0.1945 -0.9809
v -0.2148 0.0826 0.2148
vt 0.1543 0.7947
vn 0.0000 -0.1945 -0.9809
v -0.0716 0.0826 0.2148
vt 0.1723 0.7947
vn 0.0000 -0.1945 -0.9809
f 53/53/53 54/54/54 55/55/55
v 0.2312 0.6750 0.2312
vt 0.2102 0.9042
vn 0.0000 0.1945 -0.9809
v 0.2148 0.5924 0.2148
vt 0.2081 0.8916
vn 0.0000 0.1945 -0.9809
v 0.0716 0.5924 0.2148
vt 0.1902 0.8916
vn 0.0000 0.1945 -0.9809
f 56/56/56 57/57/57 58/58/58
v -0.3375 0.5687 0.2312
vt 0.1390 0.8880
vn -0.1945 0.0000 -0.9809
v -0.2549 0.5523 0.2148
vt 0.1493 0.8855
vn -0.1945 0.0000 -0.9809
v -0.2549 0.4091 0.2148
vt 0.1493 0.8636
vn -0.1945 0.0000 -0.9809
f 59/59/59 60/60/60 61/61/61
v -0.3375 0.1063 -0.2312
vt 0.1390 0.8555
vn -0.1945 0.9809 0.0000
v -0.3375 0.1063 0.2312
vt 0.1390 0.8555
vn -0.1945 0.9809 0.0000
v -0.2549 0.1227 0.2148
vt 0.1493 0.8580
vn -0.1945 0.9809 0.0000
v -0.2549 0.1227 -0.2148
vt 0.1493 0.8580
vn -0.1945 0.9809 0.0000
f 62/62/62 63/63/63 64/64/64 65/65/65
v 0.3375 0.5687 -0.2312
vt 0.2235 0.8880
vn 0.1945 0.0000 0.9809
v 0.2549 0.5523 -0.2148
vt 0.2131 0.8855
vn 0.1945 0.0000 0.9809
v 0.2549 0.4091 -0.2148
vt 0.2131 0.8636
vn 0.1945 0.0000 0.9809
f 66/66/66 67/67/67 68/68/68
v 0.3038 0.6750 -0.3038
vt 0.2157 0.9423
vn 0.3416 0.8756 -0.3416
v -0.3038 0.6750 -0.3038
vt 0.1468 0.9423
vn -0.3416 0.8756 -0.3416
v -0.2312 0.6750 -0.2312
vt 0.1523 0.9423
vn 0.0000 1.0000 -0.0000
v 0.2312 0.6750 -0.2312
vt 0.2102 0.9423
vn 0.0000 1.0000 -0.0000
f 69/69/69 70/70/70 71/71/71 72/72/72
v 0.3375 0.6412 -0.3038
vt 0.2235 0.9181
vn 0.8756 0.3416 -0.3416
v 0.3375 0.6412 0.3038
vt 0.2235 0.9181
vn 0.8756 0.3416 0.3416
v 0.3375 0.5687 0.2312
vt 0.2235 0.9070
vn 1.0000 0.0000 0.0000
v 0.3375 0.5687 -0.2312
vt 0.2235 0.9070
vn 1.0000 0.0000 0.0000
f 73/73/73 74/74/74 75/75/75 76/76/76
v -0.3038 0.0338 -0.3375
vt 0.1432 0.8298
vn -0.3416 -0.3416 -0.8756
v -0.3038 0.6412 -0.3375
vt 0.1432 0.9138
vn -0.3416 0.3416 -0.8756
v -0.2312 0.5687 -0.3375
vt 0.1523 0.9070
vn 0.0000 0.0000 -1.0000
v -0.2312 0.1063 -0.3375
vt 0.1523 0.8365
vn 0.0000 0.0000 -1.0000
f 77/77/77 78/78/78 79/79/79 80/80/80
v 0.3038 0.0000 -0.3038
vt 0.2193 0.8012
vn 0.3416 -0.8756 -0.3416
v 0.3038 0.0000 0.3038
vt 0.2193 0.8012
vn 0.3416 -0.8756 0.3416
v 0.2312 0.0000 0.2312
vt 0.2102 0.8012
vn 0.0000 -1.0000 0.0000
v 0.2312 0.0000 -0.2312
vt 0.2102 0.8012
vn 0.0000 -1.0000 0.0000
f 81/81/81 82/82/82 83/83/83 84/84/84
v -0.3038 0.0338 0.3375
vt 0.1468 0.8254
vn -0.3416 -0.3416 0.8756
v 0.3038 0.0338 0.3375
vt 0.2157 0.8254
vn 0.3416 -0.3416 0.8756
v 0.2312 0.1063 0.3375
vt 0.2102 0.8365
vn 0.0000 0.0000 1.0000
v -0.2312 0.1063 0.3375
vt 0.1523 0.8365
vn 0.0000 0.0000 1.0000
f 85/85/85 86/86/86 87/87/87 88/88/88
v 0.3375 0.0338 0.3038
vt 0.2235 0.8254
vn 0.8756 -0.3416 0.3416
v 0.3375 0.0338 -0.3038
vt 0.2235 0.8254
vn 0.8756 -0.3416 -0.3416
v 0.3375 0.1063 -0.2312
vt 0.2235 0.8365
vn 1.0000 0.0000 0.0000
v 0.3375 0.1063 0.2312
vt 0.2235 0.8365
vn 1.0000 0.0000 0.0000
f 89/89/89 90/90/90 91/91/91 92/92/92
v -0.3038 0.0000 -0.3038
vt 0.1468 0.8012
vn -0.3416 -0.8756 -0.3416
v 0.3038 0.0000 -0.3038
vt 0.2157 0.8012
vn 0.3416 -0.8756 -0.3416
v 0.2312 0.0000 -0.2312
vt 0.2102 0.8012
vn 0.0000 -1.0000 0.0000
v -0.2312 0.0000 -0.2312
vt 0.1523 0.8012
vn 0.0000 -1.0000 0.0000
f 93/93/93 94/94/94 95/95/95 96/96/96
v -0.3375 0.6412 -0.3038
vt 0.1390 0.9138
vn -0.8756 0.3416 -0.3416
v -0.3375 0.0338 -0.3038
vt 0.1390 0.8298
vn -0.8756 -0.3416 -0.3416
v -0.3375 0.1063 -0.2312
vt 0.1390 0.8365
vn -1.0000 -0.0000 0.0000
v -0.3375 0.5687 -0.2312
vt 0.1390 0.9070
vn -1.0000 -0.0000 0.0000
f 97/97/97 98/98/98 99/99/99 100/100/100
v -0.0716 0.5924 -0.2148
vt 0.5404 0.9198
vn 0.0000 1.0000 -0.0000
v -0.2148 0.5924 -0.2148
vt 0.5180 0.9709
vn 0.0000 1.0000 -0.0000
v -0.2148 0.5924 0.2148
vt 0.5180 0.9709
vn 0.0000 1.0000 -0.0000
v -0.0716 0.5924 0.2148
vt 0.5404 0.9198
vn 0.0000 1.0000 -0.0000
f 101/101/101 102/102/102 103/103/103 104/104/104
v 0.2549 0.4091 0.2148
vt 0.5913 0.8518
vn 1.0000 0.0000 0.0000
v 0.2549 0.4091 -0.2148
vt 0.5913 0.8518
vn 1.0000 0.0000 0.0000
v 0.2549 0.5523 -0.2148
vt 0.5913 0.9395
vn 1.0000 0.0000 0.0000
v 0.2549 0.5523 0.2148
vt 0.5913 0.9395
vn 1.0000 0.0000 0.0000
f 105/105/105 106/106/106 107/107/107 108/108/108
v 0.0716 0.0826 -0.2148
vt 0.5627 0.8259
vn 0.0000 -1.0000 0.0000
v 0.2148 0.0826 -0.2148
vt 0.5851 0.7748
vn 0.0000 -1.0000 0.0000
v 0.2148 0.0826 0.2148
vt 0.5851 0.7748
vn 0.0000 -1.0000 0.0000
v 0.0716 0.0826 0.2148
vt 0.5627 0.8259
vn 0.0000 -1.0000 0.0000
f 109/109/109 110/110/110 111/111/111 112/112/112
v -0.2549 0.4091 -0.2148
vt 0.5118 0.8518
vn -1.0000 -0.0000 0.0000
v -0.2549 0.4091 0.2148
vt 0.5118 0.8518
vn -1.0000 -0.0000 0.0000
v -0.2549 0.5523 0.2148
vt 0.5118 0.9395
vn -1.0000 -0.0000 0.0000
v -0.2549 0.5523 -0.2148
vt 0.5118 0.9395
vn -1.0000 -0.0000 0.0000
f 113/113/113 114/114/114 115/115/115 116/116/116
v -0.2148 0.0826 -0.2148
vt 0.5180 0.8259
vn 0.0000 -1.0000 0.0000
v -0.0716 0.0826 -0.2148
vt 0.5404 0.7748
vn 0.0000 -1.0000 0.0000
v -0.0716 0.0826 0.2148
vt 0.5404 0.7748
vn 0.0000 -1.0000 0.0000
v -0.2148 0.0826 0.2148
vt 0.5180 0.8259
vn 0.0000 -1.0000 0.0000
f 117/117/117 118/118/118 119/119/119 120/120/120
v -0.0716 0.0826 -0.2148
vt 0.5404 0.8259
vn 0.0000 -1.0000 0.0000
v 0.0716 0.0826 -0.2148
vt 0.5627 0.7748
vn 0.0000 -1.0000 0.0000
v 0.0716 0.0826 0.2148
vt 0.5627 0.7748
vn 0.0000 -1.0000 0.0000
v -0.0716 0.0826 0.2148
vt 0.5404 0.8259
vn 0.0000 -1.0000 0.0000
f 121/121/121 122/122/122 123/123/123 124/124/124
v 0.2148 0.5924 -0.2148
vt 0.5851 0.9198
vn 0.0000 1.0000 -0.0000
v 0.0716 0.5924 -0.2148
vt 0.5627 0.9709
vn 0.0000 1.0000 -0.0000
v 0.0716 0.5924 0.2148
vt 0.5627 0.9709
vn 0.0000 1.0000 -0.0000
v 0.2148 0.5924 0.2148
vt 0.5851 0.9198
vn 0.0000 1.0000 -0.0000
f 125/125/125 126/126/126 127/127/127 128/128/128
v 0.0716 0.5924 -0.2148
vt 0.5627 0.9198
vn 0.0000 1.0000 -0.0000
v -0.0716 0.5924 -0.2148
vt 0.5404 0.9709
vn 0.0000 1.0000 -0.0000
v -0.0716 0.5924 0.2148
vt 0.5404 0.9709
vn 0.0000 1.0000 -0.0000
v 0.0716 0.5924 0.2148
vt 0.5627 0.9198
vn 0.0000 1.0000 -0.0000
f 129/129/129 130/130/130 131/131/131 132/132/132
v 0.3038 0.6750 0.3038
vt 0.2193 0.9423
vn 0.3416 0.8756 0.3416
v 0.3038 0.6750 -0.3038
vt 0.2193 0.9423
vn 0.3416 0.8756 -0.3416
v 0.2312 0.6750 -0.2312
vt 0.2102 0.9423
vn 0.0000 1.0000 -0.0000
v 0.2312 0.6750 0.2312
vt 0.2102 0.9423
vn 0.0000 1.0000 -0.0000
f 133/133/133 134/134/134 135/135/135 136/136/136
v -0.3038 0.6412 0.3375
vt 0.1432 0.9138
vn -0.3416 0.3416 0.8756
v -0.3038 0.0338 0.3375
vt 0.1432 0.8298
vn -0.3416 -0.3416 0.8756
v -0.2312 0.1063 0.3375
vt 0.1523 0.8365
vn 0.0000 0.0000 1.0000
v -0.2312 0.5687 0.3375
vt 0.1523 0.9070
vn 0.0000 0.0000 1.0000
f 137/137/137 138/138/138 139/139/139 140/140/140
v 0.3038 0.0000 0.3038
vt 0.2157 0.8012
vn 0.3416 -0.8756 0.3416
v -0.3038 0.0000 0.3038
vt 0.1468 0.8012
vn -0.3416 -0.8756 0.3416
v -0.2312 0.0000 0.2312
vt 0.1523 0.8012
vn 0.0000 -1.0000 0.0000
v 0.2312 0.0000 0.2312
vt 0.2102 0.8012
vn 0.0000 -1.0000 0.0000
f 141/141/141 142/142/142 143/143/143 144/144/144
v -0.3038 0.0000 0.3038
vt 0.1432 0.8012
vn -0.3416 -0.8756 0.3416
v -0.3038 0.0000 -0.3038
vt 0.1432 0.8012
vn -0.3416 -0.8756 -0.3416
v -0.2312 0.0000 -0.2312
vt 0.1523 0.8012
vn 0.0000 -1.0000 0.0000
v -0.2312 0.0000 0.2312
vt 0.1523 0.8012
vn 0.0000 -1.0000 0.0000
f 145/145/145 146/146/146 147/147/147 148/148/148
v -0.3375 0.0338 -0.3038
vt 0.1390 0.8254
vn -0.8756 -0.3416 -0.3416
v -0.3375 0.0338 0.3038
vt 0.1390 0.8254
vn -0.8756 -0.3416 0.3416
v -0.3375 0.1063 0.2312
vt 0.1390 0.8365
vn -1.0000 -0.0000 0.0000
v -0.3375 0.1063 -0.2312
vt 0.1390 0.8365
vn -1.0000 -0.0000 0.0000
f 149/149/149 150/150/150 151/151/151 152/152/152
v 0.3038 0.6412 -0.3375
vt 0.2193 0.9138
vn 0.3416 0.3416 -0.8756
v 0.3038 0.0338 -0.3375
vt 0.2193 0.8298
vn 0.3416 -0.3416 -0.8756
v 0.2312 0.1063 -0.3375
vt 0.2102 0.8365
vn 0.0000 0.0000 -1.0000
v 0.2312 0.5687 -0.3375
vt 0.2102 0.9070
vn 0.0000 0.0000 -1.0000
f 153/153/153 154/154/154 155/155/155 156/156/156
v 0.3375 0.0338 -0.3038
vt 0.2235 0.8298
vn 0.8756 -0.3416 -0.3416
v 0.3375 0.6412 -0.3038
vt 0.2235 0.9138
vn 0.8756 0.3416 -0.3416
v 0.3375 0.5687 -0.2312
vt 0.2235 0.9070
vn 1.0000 0.0000 0.0000
v 0.3375 0.1063 -0.2312
vt 0.2235 0.8365
vn 1.0000 0.0000 0.0000
f 157/157/157 158/158/158 159/159/159 160/160/160
v 0.3038 0.0338 0.3375
vt 0.2193 0.8298
vn 0.3416 -0.3416 0.8756
v 0.3038 0.6412 0.3375
vt 0.2193 0.9138
vn 0.3416 0.3416 0.8756
v 0.2312 0.5687 0.3375
vt 0.2102 0.9070
vn 0.0000 0.0000 1.0000
v 0.2312 0.1063 0.3375
vt 0.2102 0.8365
vn 0.0000 0.0000 1.0000
f 161/161/161 162/162/162 163/163/163 164/164/164
v -0.2312 0.6750 0.2312
vt 0.1523 0.9042
vn 0.0000 0.1945 -0.9809
v 0.2312 0.6750 0.2312
vt 0.2102 0.9042
vn 0.0000 0.1945 -0.9809
v 0.0716 0.5924 0.2148
vt 0.1902 0.8916
vn 0.0000 0.1945 -0.9809
v -0.0716 0.5924 0.2148
vt 0.1723 0.8916
vn 0.0000 0.1945 -0.9809
f 165/165/165 166/166/166 167/167/167 168/168/168
v 0.2312 0.0000 0.2312
vt 0.2102 0.7821
vn 0.0000 -0.1945 -0.9809
v -0.2312 0.0000 0.2312
vt 0.1523 0.7821
vn 0.0000 -0.1945 -0.9809
v -0.0716 0.0826 0.2148
vt 0.1723 0.7947
vn 0.0000 -0.1945 -0.9809
v 0.0716 0.0826 0.2148
vt 0.1902 0.7947
vn 0.0000 -0.1945 -0.9809
f 169/169/169 170/170/170 171/171/171 172/172/172
v 0.2312 0.5687 0.3375
vt 0.2102 0.8689
vn 0.0000 -0.9809 0.1945
v -0.2312 0.5687 0.3375
vt 0.1523 0.8689
vn 0.0000 -0.9809 0.1945
v -0.0716 0.5523 0.2549
vt 0.1723 0.8664
vn 0.0000 -0.9809 0.1945
v 0.0716 0.5523 0.2549
vt 0.1902 0.8664
vn 0.0000 -0.9809 0.1945
f 173/173/173 174/174/174 175/175/175 176/176/176
v 0.2312 0.6750 -0.2312
vt 0.2102 0.9042
vn 0.0000 0.1945 0.9809
v -0.2312 0.6750 -0.2312
vt 0.1523 0.9042
vn 0.0000 0.1945 0.9809
v -0.0716 0.5924 -0.2148
vt 0.1723 0.8916
vn 0.0000 0.1945 0.9809
v 0.0716 0.5924 -0.2148
vt 0.1902 0.8916
vn 0.0000 0.1945 0.9809
f 177/177/177 178/178/178 179/179/179 180/180/180
v -0.2312 0.1063 0.3375
vt 0.1523 0.8555
vn 0.0000 0.9809 0.1945
v 0.2312 0.1063 0.3375
vt 0.2102 0.8555
vn 0.0000 0.9809 0.1945
v 0.0716 0.1227 0.2549
vt 0.1902 0.8580
vn 0.0000 0.9809 0.1945
v -0.0716 0.1227 0.2549
vt 0.1723 0.8580
vn 0.0000 0.9809 0.1945
f 181/181/181 182/182/182 183/183/183 184/184/184
v 0.2312 0.1063 -0.3375
vt 0.2102 0.8555
vn 0.0000 0.9809 -0.1945
v -0.2312 0.1063 -0.3375
vt 0.1523 0.8555
vn 0.0000 0.9809 -0.1945
v -0.0716 0.1227 -0.2549
vt 0.1723 0.8580
vn 0.0000 0.9809 -0.1945
v 0.0716 0.1227 -0.2549
vt 0.1902 0.8580
vn 0.0000 0.9809 -0.1945
f 185/185/185 186/186/186 187/187/187 188/188/188
v -0.2312 0.0000 -0.2312
vt 0.1523 0.7821
vn 0.0000 -0.1945 0.9809
v 0.2312 0.0000 -0.2312
vt 0.2102 0.7821
vn 0.0000 -0.1945 0.9809
v 0.0716 0.0826 -0.2148
vt 0.1902 0.7947
vn 0.0000 -0.1945 0.9809
v -0.0716 0.0826 -0.2148
vt 0.1723 0.7947
vn 0.0000 -0.1945 0.9809
f 189/189/189 190/190/190 191/191/191 192/192/192
v -0.2312 0.5687 -0.3375
vt 0.1523 0.8689
vn 0.0000 -0.9809 -0.1945
v 0.2312 0.5687 -0.3375
vt 0.2102 0.8689
vn 0.0000 -0.9809 -0.1945
v 0.0716 0.5523 -0.2549
vt 0.1902 0.8664
vn 0.0000 -0.9809 -0.1945
v -0.0716 0.5523 -0.2549
vt 0.1723 0.8664
vn 0.0000 -0.9809 -0.1945
f 193/193/193 194/194/194 195/195/195 196/196/196
v 0.2148 0.5523 0.2549
vt 0.2081 0.8664
vn 0.0000 -0.9809 0.1945
v 0.2312 0.5687 0.3375
vt 0.2102 0.8689
vn 0.0000 -0.9809 0.1945
v 0.0716 0.5523 0.2549
vt 0.1902 0.8664
vn 0.0000 -0.9809 0.1945
f 197/197/197 198/198/198 199/199/199
v -0.2148 0.1227 0.2549
vt 0.1543 0.8580
vn 0.0000 0.9809 0.1945
v -0.2312 0.1063 0.3375
vt 0.1523 0.8555
vn 0.0000 0.9809 0.1945
v -0.0716 0.1227 0.2549
vt 0.1723 0.8580
vn 0.0000 0.9809 0.1945
f 200/200/200 201/201/201 202/202/202
v 0.2148 0.0826 0.2148
vt 0.2081 0.7947
vn 0.0000 -0.1945 -0.9809
v 0.2312 0.0000 0.2312
vt 0.2102 0.7821
vn 0.0000 -0.1945 -0.9809
v 0.0716 0.0826 0.2148
vt 0.1902 0.7947
vn 0.0000 -0.1945 -0.9809
f 203/203/203 204/204/204 205/205/205
v -0.2148 0.0826 -0.2148
vt 0.1543 0.7947
vn 0.0000 -0.1945 0.9809
v -0.2312 0.0000 -0.2312
vt 0.1523 0.7821
vn 0.0000 -0.1945 0.9809
v -0.0716 0.0826 -0.2148
vt 0.1723 0.7947
vn 0.0000 -0.1945 0.9809
f 206/206/206 207/207/207 208/208/208
v 0.2148 0.1227 -0.2549
vt 0.2081 0.8580
vn 0.0000 0.9809 -0.1945
v 0.2312 0.1063 -0.3375
vt 0.2102 0.8555
vn 0.0000 0.9809 -0.1945
v 0.0716 0.1227 -0.2549
vt 0.1902 0.8580
vn 0.0000 0.9809 -0.1945
f 209/209/209 210/210/210 211/211/211
v -0.2148 0.5523 -0.2549
vt 0.1543 0.8664
vn 0.0000 -0.9809 -0.1945
v -0.2312 0.5687 -0.3375
vt 0.1523 0.8689
vn 0.0000 -0.9809 -0.1945
v -0.0716 0.5523 -0.2549
vt 0.1723 0.8664
vn 0.0000 -0.9809 -0.1945
f 212/212/212 213/213/213 214/214/214
v 0.2148 0.5924 -0.2148
vt 0.2081 0.8916
vn 0.0000 0.1945 0.9809
v 0.2312 0.6750 -0.2312
vt 0.2102 0.9042
vn 0.0000 0.1945 0.9809
v 0.0716 0.5924 -0.2148
vt 0.1902 0.8916
vn 0.0000 0.1945 0.9809
f 215/215/215 216/216/216 217/217/217
v -0.2148 0.5924 0.2148
vt 0.1543 0.8916
vn 0.0000 0.1945 -0.9809
v -0.2312 0.6750 0.2312
vt 0.1523 0.9042
vn 0.0000 0.1945 -0.9809
v -0.0716 0.5924 0.2148
vt 0.1723 0.8916
vn 0.0000 0.1945 -0.9809
f 218/218/218 219/219/219 220/220/220
v -0.0716 0.5523 0.2549
vt 0.5404 0.9021
vn 0.0000 0.0000 1.0000
v -0.0716 0.1227 0.2549
vt 0.5404 0.7925
vn 0.0000 0.0000 1.0000
v 0.0716 0.1227 0.2549
vt 0.5627 0.8436
vn 0.0000 0.0000 1.0000
v 0.0716 0.5523 0.2549
vt 0.5627 0.9533
vn 0.0000 0.0000 1.0000
f 221/221/221 222/222/222 223/223/223 224/224/224
v 0.0716 0.5523 0.2549
vt 0.5627 0.9021
vn 0.0000 0.0000 1.0000
v 0.0716 0.1227 0.2549
vt 0.5627 0.7925
vn 0.0000 0.0000 1.0000
v 0.2148 0.1227 0.2549
vt 0.5851 0.8436
vn 0.0000 0.0000 1.0000
v 0.2148 0.5523 0.2549
vt 0.5851 0.9533
vn 0.0000 0.0000 1.0000
f 225/225/225 226/226/226 227/227/227 228/228/228
v -0.0716 0.1227 -0.2549
vt 0.5404 0.8436
vn 0.0000 0.0000 -1.0000
v -0.0716 0.5523 -0.2549
vt 0.5404 0.9533
vn 0.0000 0.0000 -1.0000
v 0.0716 0.5523 -0.2549
vt 0.5627 0.9021
vn 0.0000 0.0000 -1.0000
v 0.0716 0.1227 -0.2549
vt 0.5627 0.7925
vn 0.0000 0.0000 -1.0000
f 229/229/229 230/230/230 231/231/231 232/232/232
v -0.2148 0.1227 -0.2549
vt 0.5180 0.8436
vn 0.0000 0.0000 -1.0000
v -0.2148 0.5523 -0.2549
vt 0.5180 0.9533
vn 0.0000 0.0000 -1.0000
v -0.0716 0.5523 -0.2549
vt 0.5404 0.9021
vn 0.0000 0.0000 -1.0000
v -0.0716 0.1227 -0.2549
vt 0.5404 0.7925
vn 0.0000 0.0000 -1.0000
f 233/233/233 234/234/234 235/235/235 236/236/236
v -0.2549 0.1227 -0.2148
vt 0.5118 0.8062
vn -1.0000 -0.0000 0.0000
v -0.2549 0.1227 0.2148
vt 0.5118 0.8062
vn -1.0000 -0.0000 0.0000
v -0.2549 0.2659 0.2148
vt 0.5118 0.8939
vn -1.0000 -0.0000 0.0000
v -0.2549 0.2659 -0.2148
vt 0.5118 0.8939
vn -1.0000 -0.0000 0.0000
f 237/237/237 238/238/238 239/239/239 240/240/240
v -0.2549 0.2659 -0.2148
vt 0.5118 0.8290
vn -1.0000 -0.0000 0.0000
v -0.2549 0.2659 0.2148
vt 0.5118 0.8290
vn -1.0000 -0.0000 0.0000
v -0.2549 0.4091 0.2148
vt 0.5118 0.9167
vn -1.0000 -0.0000 0.0000
v -0.2549 0.4091 -0.2148
vt 0.5118 0.9167
vn -1.0000 -0.0000 0.0000
f 241/241/241 242/242/242 243/243/243 244/244/244
v 0.2549 0.1227 0.2148
vt 0.5913 0.8062
vn 1.0000 0.0000 0.0000
v 0.2549 0.1227 -0.2148
vt 0.5913 0.8062
vn 1.0000 0.0000 0.0000
v 0.2549 0.2659 -0.2148
vt 0.5913 0.8939
vn 1.0000 0.0000 0.0000
v 0.2549 0.2659 0.2148
vt 0.5913 0.8939
vn 1.0000 0.0000 0.0000
f 245/245/245 246/246/246 247/247/247 248/248/248
v 0.2549 0.2659 0.2148
vt 0.5913 0.8290
vn 1.0000 0.0000 0.0000
v 0.2549 0.2659 -0.2148
vt 0.5913 0.8290
vn 1.0000 0.0000 0.0000
v 0.2549 0.4091 -0.2148
vt 0.5913 0.9167
vn 1.0000 0.0000 0.0000
v 0.2549 0.4091 0.2148
vt 0.5913 0.9167
vn 1.0000 0.0000 0.0000
f 249/249/249 250/250/250 251/251/251 252/252/252
v 0.0716 0.1227 -0.2549
vt 0.5627 0.8436
vn 0.0000 0.0000 -1.0000
v 0.0716 0.5523 -0.2549
vt 0.5627 0.9533
vn 0.0000 0.0000 -1.0000
v 0.2148 0.5523 -0.2549
vt 0.5851 0.9021
vn 0.0000 0.0000 -1.0000
v 0.2148 0.1227 -0.2549
vt 0.5851 0.7925
vn 0.0000 0.0000 -1.0000
f 253/253/253 254/254/254 255/255/255 256/256/256
v -0.2148 0.5523 0.2549
vt 0.5180 0.9021
vn 0.0000 0.0000 1.0000
v -0.2148 0.1227 0.2549
vt 0.5180 0.7925
vn 0.0000 0.0000 1.0000
v -0.0716 0.1227 0.2549
vt 0.5404 0.8436
vn 0.0000 0.0000 1.0000
v -0.0716 0.5523 0.2549
vt 0.5404 0.9533
vn 0.0000 0.0000 1.0000
f 257/257/257 258/258/258 259/259/259 260/260/260
v -0.3375 0.0338 0.3038
vt 0.1390 0.8298
vn -0.8756 -0.3416 0.3416
v -0.3375 0.6412 0.3038
vt 0.1390 0.9138
vn -0.8756 0.3416 0.3416
v -0.3375 0.5687 0.2312
vt 0.1390 0.9070
vn -1.0000 -0.0000 0.0000
v -0.3375 0.1063 0.2312
vt 0.1390 0.8365
vn -1.0000 -0.0000 0.0000
f 261/261/261 262/262/262 263/263/263 264/264/264
v 0.3038 0.6412 0.3375
vt 0.2157 0.9181
vn 0.3416 0.3416 0.8756
v -0.3038 0.6412 0.3375
vt 0.1468 0.9181
vn -0.3416 0.3416 0.8756
v -0.2312 0.5687 0.3375
vt 0.1523 0.9070
vn 0.0000 0.0000 1.0000
v 0.2312 0.5687 0.3375
vt 0.2102 0.9070
vn 0.0000 0.0000 1.0000
f 265/265/265 266/266/266 267/267/267 268/268/268
v -0.3038 0.6412 -0.3375
vt 0.1468 0.9181
vn -0.3416 0.3416 -0.8756
v 0.3038 0.6412 -0.3375
vt 0.2157 0.9181
vn 0.3416 0.3416 -0.8756
v 0.2312 0.5687 -0.3375
vt 0.2102 0.9070
vn 0.0000 0.0000 -1.0000
v -0.2312 0.5687 -0.3375
vt 0.1523 0.9070
vn 0.0000 0.0000 -1.0000
f 269/269/269 270/270/270 271/271/271 272/272/272
v -0.3375 0.6412 0.3038
vt 0.1390 0.9181
vn -0.8756 0.3416 0.3416
v -0.3375 0.6412 -0.3038
vt 0.1390 0.9181
vn -0.8756 0.3416 -0.3416
v -0.3375 0.5687 -0.2312
vt 0.1390 0.9070
vn -1.0000 -0.0000 0.0000
v -0.3375 0.5687 0.2312
vt 0.1390 0.9070
vn -1.0000 -0.0000 0.0000
f 273/273/273 274/274/274 275/275/275 276/276/276
v 0.3038 0.0338 -0.3375
vt 0.2157 0.8254
vn 0.3416 -0.3416 -0.8756
v -0.3038 0.0338 -0.3375
vt 0.1468 0.8254
vn -0.3416 -0.3416 -0.8756
v -0.2312 0.1063 -0.3375
vt 0.1523 0.8365
vn 0.0000 0.0000 -1.0000
v 0.2312 0.1063 -0.3375
vt 0.2102 0.8365
vn 0.0000 0.0000 -1.0000
f 277/277/277 278/278/278 279/279/279 280/280/280
v -0.3038 0.6750 -0.3038
vt 0.1432 0.9423
vn -0.3416 0.8756 -0.3416
v -0.3038 0.6750 0.3038
vt 0.1432 0.9423
vn -0.3416 0.8756 0.3416
v -0.2312 0.6750 0.2312
vt 0.1523 0.9423
vn 0.0000 1.0000 -0.0000
v -0.2312 0.6750 -0.2312
vt 0.1523 0.9423
vn 0.0000 1.0000 -0.0000
f 281/281/281 282/282/282 283/283/283 284/284/284
v 0.3375 0.6412 0.3038
vt 0.2235 0.9138
vn 0.8756 0.3416 0.3416
v 0.3375 0.0338 0.3038
vt 0.2235 0.8298
vn 0.8756 -0.3416 0.3416
v 0.3375 0.1063 0.2312
vt 0.2235 0.8365
vn 1.0000 0.0000 0.0000
v 0.3375 0.5687 0.2312
vt 0.2235 0.9070
vn 1.0000 0.0000 0.0000
f 285/285/285 286/286/286 287/287/287 288/288/288
v 0.3375 0.1063 -0.2312
vt 0.2235 0.8174
vn 0.1945 0.0000 0.9809
v 0.3375 0.5687 -0.2312
vt 0.2235 0.8880
vn 0.1945 0.0000 0.9809
v 0.2549 0.4091 -0.2148
vt 0.2131 0.8636
vn 0.1945 0.0000 0.9809
v 0.2549 0.2659 -0.2148
vt 0.2131 0.8418
vn 0.1945 0.0000 0.9809
f 289/289/289 290/290/290 291/291/291 292/292/292
v -0.2312 0.1063 -0.3375
vt 0.1523 0.8174
vn 0.9809 0.0000 -0.1945
v -0.2312 0.5687 -0.3375
vt 0.1523 0.8880
vn 0.9809 0.0000 -0.1945
v -0.2148 0.5523 -0.2549
vt 0.1543 0.8855
vn 0.9809 0.0000 -0.1945
v -0.2148 0.1227 -0.2549
vt 0.1543 0.8199
vn 0.9809 0.0000 -0.1945
f 293/293/293 294/294/294 295/295/295 296/296/296
v -0.3375 0.1063 0.2312
vt 0.1390 0.8174
vn -0.1945 0.0000 -0.9809
v -0.3375 0.5687 0.2312
vt 0.1390 0.8880
vn -0.1945 0.0000 -0.9809
v -0.2549 0.4091 0.2148
vt 0.1493 0.8636
vn -0.1945 0.0000 -0.9809
v -0.2549 0.2659 0.2148
vt 0.1493 0.8418
vn -0.1945 0.0000 -0.9809
f 297/297/297 298/298/298 299/299/299 300/300/300
v -0.2312 0.5687 0.3375
vt 0.1523 0.8880
vn 0.9809 0.0000 0.1945
v -0.2312 0.1063 0.3375
vt 0.1523 0.8174
vn 0.9809 0.0000 0.1945
v -0.2148 0.1227 0.2549
vt 0.1543 0.8199
vn 0.9809 0.0000 0.1945
v -0.2148 0.5523 0.2549
vt 0.1543 0.8855
vn 0.9809 0.0000 0.1945
f 301/301/301 302/302/302 303/303/303 304/304/304
v 0.3375 0.5687 0.2312
vt 0.2235 0.8880
vn 0.1945 0.0000 -0.9809
v 0.3375 0.1063 0.2312
vt 0.2235 0.8174
vn 0.1945 0.0000 -0.9809
v 0.2549 0.2659 0.2148
vt 0.2131 0.8418
vn 0.1945 0.0000 -0.9809
v 0.2549 0.4091 0.2148
vt 0.2131 0.8636
vn 0.1945 0.0000 -0.9809
f 305/305/305 306/306/306 307/307/307 308/308/308
v 0.2312 0.5687 -0.3375
vt 0.2102 0.8880
vn -0.9809 0.0000 -0.1945
v 0.2312 0.1063 -0.3375
vt 0.2102 0.8174
vn -0.9809 0.0000 -0.1945
v 0.2148 0.1227 -0.2549
vt 0.2081 0.8199
vn -0.9809 0.0000 -0.1945
v 0.2148 0.5523 -0.2549
vt 0.2081 0.8855
vn -0.9809 0.0000 -0.1945
f 309/309/309 310/310/310 311/311/311 312/312/312
v -0.3375 0.5687 -0.2312
vt 0.1390 0.8880
vn -0.1945 0.0000 0.9809
v -0.3375 0.1063 -0.2312
vt 0.1390 0.8174
vn -0.1945 0.0000 0.9809
v -0.2549 0.2659 -0.2148
vt 0.1493 0.8418
vn -0.1945 0.0000 0.9809
v -0.2549 0.4091 -0.2148
vt 0.1493 0.8636
vn -0.1945 0.0000 0.9809
f 313/313/313 314/314/314 315/315/315 316/316/316
v 0.2312 0.1063 0.3375
vt 0.2102 0.8174
vn -0.9809 0.0000 0.1945
v 0.2312 0.5687 0.3375
vt 0.2102 0.8880
vn -0.9809 0.0000 0.1945
v 0.2148 0.5523 0.2549
vt 0.2081 0.8855
vn -0.9809 0.0000 0.1945
v 0.2148 0.1227 0.2549
vt 0.2081 0.8199
vn -0.9809 0.0000 0.1945
f 317/317/317 318/318/318 319/319/319 320/320/320
v 0.2549 0.1227 -0.2148
vt 0.2131 0.8199
vn 0.1945 0.0000 0.9809
v 0.3375 0.1063 -0.2312
vt 0.2235 0.8174
vn 0.1945 0.0000 0.9809
v 0.2549 0.2659 -0.2148
vt 0.2131 0.8418
vn 0.1945 0.0000 0.9809
f 321/321/321 322/322/322 323/323/323
v 0.2549 0.5523 0.2148
vt 0.2131 0.8855
vn 0.1945 0.0000 -0.9809
v 0.3375 0.5687 0.2312
vt 0.2235 0.8880
vn 0.1945 0.0000 -0.9809
v 0.2549 0.4091 0.2148
vt 0.2131 0.8636
vn 0.1945 0.0000 -0.9809
f 324/324/324 325/325/325 326/326/326
v -0.2549 0.5523 -0.2148
vt 0.1493 0.8855
vn -0.1945 0.0000 0.9809
v -0.3375 0.5687 -0.2312
vt 0.1390 0.8880
vn -0.1945 0.0000 0.9809
v -0.2549 0.4091 -0.2148
vt 0.1493 0.8636
vn -0.1945 0.0000 0.9809
f 327/327/327 328/328/328 329/329/329
v -0.2549 0.1227 0.2148
vt 0.1493 0.8199
vn -0.1945 0.0000 -0.9809
v -0.3375 0.1063 0.2312
vt 0.1390 0.8174
vn -0.1945 0.0000 -0.9809
v -0.2549 0.2659 0.2148
vt 0.1493 0.8418
vn -0.1945 0.0000 -0.9809
f 330/330/330 331/331/331 332/332/332
v 0.3375 0.6412 0.3038
vt 0.2235 0.9562
vn 0.8756 0.3416 0.3416
v 0.3038 0.6750 0.3038
vt 0.2235 0.9614
vn 0.3416 0.8756 0.3416
v 0.3038 0.6412 0.3375
vt 0.2235 0.9588
vn 0.3416 0.3416 0.8756
f 333/333/333 334/334/334 335/335/335
v 0.3038 0.6750 -0.3038
vt 0.2235 0.9614
vn 0.3416 0.8756 -0.3416
v 0.3375 0.6412 -0.3038
vt 0.2235 0.9562
vn 0.8756 0.3416 -0.3416
v 0.3038 0.6412 -0.3375
vt 0.2235 0.9588
vn 0.3416 0.3416 -0.8756
f 336/336/336 337/337/337 338/338/338
v -0.3038 0.6750 -0.3038
vt 0.1390 0.9614
vn -0.3416 0.8756 -0.3416
v -0.3038 0.6412 -0.3375
vt 0.1390 0.9588
vn -0.3416 0.3416 -0.8756
v -0.3375 0.6412 -0.3038
vt 0.1390 0.9562
vn -0.8756 0.3416 -0.3416
f 339/339/339 340/340/340 341/341/341
v -0.3038 0.0338 -0.3375
vt 0.1432 0.8393
vn -0.3416 -0.3416 -0.8756
v -0.3038 0.0000 -0.3038
vt 0.1432 0.8393
vn -0.3416 -0.8756 -0.3416
v -0.3375 0.0338 -0.3038
vt 0.1390 0.8393
vn -0.8756 -0.3416 -0.3416
f 342/342/342 343/343/343 344/344/344
v 0.3375 0.0338 -0.3038
vt 0.2235 0.8635
vn 0.8756 -0.3416 -0.3416
v 0.3038 0.0000 -0.3038
vt 0.2235 0.8583
vn 0.3416 -0.8756 -0.3416
v 0.3038 0.0338 -0.3375
vt 0.2235 0.8609
vn 0.3416 -0.3416 -0.8756
f 345/345/345 346/346/346 347/347/347
v 0.3038 0.0338 0.3375
vt 0.2235 0.8635
vn 0.3416 -0.3416 0.8756
v 0.3038 0.0000 0.3038
vt 0.2235 0.8583
vn 0.3416 -0.8756 0.3416
v 0.3375 0.0338 0.3038
vt 0.2235 0.8635
vn 0.8756 -0.3416 0.3416
f 348/348/348 349/349/349 350/350/350
v -0.3038 0.0338 0.3375
vt 0.1432 0.8393
vn -0.3416 -0.3416 0.8756
v -0.3375 0.0338 0.3038
vt 0.1390 0.8393
vn -0.8756 -0.3416 0.3416
v -0.3038 0.0000 0.3038
vt 0.1432 0.8393
vn -0.3416 -0.8756 0.3416
f 351/351/351 352/352/352 353/353/353
v -0.3038 0.6412 0.3375
vt 0.1390 0.9562
vn -0.3416 0.3416 0.8756
v -0.3038 0.6750 0.3038
vt 0.1390 0.9614
vn -0.3416 0.8756 0.3416
v -0.3375 0.6412 0.3038
vt 0.1390 0.9562
vn -0.8756 0.3416 0.3416
f 354/354/354 355/355/355 356/356/356
v 0.3038 0.6412 0.3375
vt 0.2193 0.9519
vn 0.3416 0.3416 0.8756
v 0.3038 0.0338 0.3375
vt 0.2193 0.8679
vn 0.3416 -0.3416 0.8756
v 0.3375 0.0338 0.3038
vt 0.2235 0.8679
vn 0.8756 -0.3416 0.3416
v 0.3375 0.6412 0.3038
vt 0.2235 0.9519
vn 0.8756 0.3416 0.3416
f 357/357/357 358/358/358 359/359/359 360/360/360
v -0.3038 0.0000 0.3038
vt 0.1468 0.8393
vn -0.3416 -0.8756 0.3416
v 0.3038 0.0000 0.3038
vt 0.2157 0.8393
vn 0.3416 -0.8756 0.3416
v 0.3038 0.0338 0.3375
vt 0.2145 0.8393
vn 0.3416 -0.3416 0.8756
v -0.3038 0.0338 0.3375
vt 0.1479 0.8393
vn -0.3416 -0.3416 0.8756
f 361/361/361 362/362/362 363/363/363 364/364/364
v -0.3038 0.0338 0.3375
vt 0.1432 0.8679
vn -0.3416 -0.3416 0.8756
v -0.3038 0.6412 0.3375
vt 0.1432 0.9519
vn -0.3416 0.3416 0.8756
v -0.3375 0.6412 0.3038
vt 0.1390 0.9519
vn -0.8756 0.3416 0.3416
v -0.3375 0.0338 0.3038
vt 0.1390 0.8679
vn -0.8756 -0.3416 0.3416
f 365/365/365 366/366/366 367/367/367 368/368/368
v 0.3038 0.6750 0.3038
vt 0.2145 0.9614
vn 0.3416 0.8756 0.3416
v -0.3038 0.6750 0.3038
vt 0.1479 0.9614
vn -0.3416 0.8756 0.3416
v -0.3038 0.6412 0.3375
vt 0.1468 0.9562
vn -0.3416 0.3416 0.8756
v 0.3038 0.6412 0.3375
vt 0.2157 0.9562
vn 0.3416 0.3416 0.8756
f 369/369/369 370/370/370 371/371/371 372/372/372
v -0.3038 0.6750 0.3038
vt 0.1390 0.9614
vn -0.3416 0.8756 0.3416
v -0.3038 0.6750 -0.3038
vt 0.1390 0.9614
vn -0.3416 0.8756 -0.3416
v -0.3375 0.6412 -0.3038
vt 0.1390 0.9562
vn -0.8756 0.3416 -0.3416
v -0.3375 0.6412 0.3038
vt 0.1390 0.9562
vn -0.8756 0.3416 0.3416
f 373/373/373 374/374/374 375/375/375 376/376/376
v -0.3038 0.6412 -0.3375
vt 0.1432 0.9519
vn -0.3416 0.3416 -0.8756
v -0.3038 0.0338 -0.3375
vt 0.1432 0.8679
vn -0.3416 -0.3416 -0.8756
v -0.3375 0.0338 -0.3038
vt 0.1390 0.8679
vn -0.8756 -0.3416 -0.3416
v -0.3375 0.6412 -0.3038
vt 0.1390 0.9519
vn -0.8756 0.3416 -0.3416
f 377/377/377 378/378/378 379/379/379 380/380/380
v -0.3038 0.6750 -0.3038
vt 0.1468 0.9804
vn -0.3416 0.8756 -0.3416
v 0.3038 0.6750 -0.3038
vt 0.2157 0.9804
vn 0.3416 0.8756 -0.3416
v 0.3038 0.6412 -0.3375
vt 0.2145 0.9804
vn 0.3416 0.3416 -0.8756
v -0.3038 0.6412 -0.3375
vt 0.1479 0.9804
vn -0.3416 0.3416 -0.8756
f 381/381/381 382/382/382 383/383/383 384/384/384
v 0.3375 0.6412 -0.3038
vt 0.2235 0.9519
vn 0.8756 0.3416 -0.3416
v 0.3375 0.0338 -0.3038
vt 0.2235 0.8679
vn 0.8756 -0.3416 -0.3416
v 0.3038 0.0338 -0.3375
vt 0.2193 0.8679
vn 0.3416 -0.3416 -0.8756
v 0.3038 0.6412 -0.3375
vt 0.2193 0.9519
vn 0.3416 0.3416 -0.8756
f 385/385/385 386/386/386 387/387/387 388/388/388
v -0.3038 0.0000 -0.3038
vt 0.1432 0.8393
vn -0.3416 -0.8756 -0.3416
v -0.3038 0.0000 0.3038
vt 0.1432 0.8393
vn -0.3416 -0.8756 0.3416
v -0.3375 0.0338 0.3038
vt 0.1390 0.8393
vn -0.8756 -0.3416 0.3416
v -0.3375 0.0338 -0.3038
vt 0.1390 0.8393
vn -0.8756 -0.3416 -0.3416
f 389/389/389 390/390/390 391/391/391 392/392/392
v 0.3038 0.0000 0.3038
vt 0.2235 0.8583
vn 0.3416 -0.8756 0.3416
v 0.3038 0.0000 -0.3038
vt 0.2235 0.8583
vn 0.3416 -0.8756 -0.3416
v 0.3375 0.0338 -0.3038
vt 0.2235 0.8635
vn 0.8756 -0.3416 -0.3416
v 0.3375 0.0338 0.3038
vt 0.2235 0.8635
vn 0.8756 -0.3416 0.3416
f 393/393/393 394/394/394 395/395/395 396/396/396
v 0.3038 0.0000 -0.3038
vt 0.2157 0.8393
vn 0.3416 -0.8756 -0.3416
v -0.3038 0.0000 -0.3038
vt 0.1468 0.8393
vn -0.3416 -0.8756 -0.3416
v -0.3038 0.0338 -0.3375
vt 0.1479 0.8393
vn -0.3416 -0.3416 -0.8756
v 0.3038 0.0338 -0.3375
vt 0.2145 0.8393
vn 0.3416 -0.3416 -0.8756
f 397/397/397 398/398/398 399/399/399 400/400/400
v 0.3038 0.6750 -0.3038
vt 0.2235 0.9614
vn 0.3416 0.8756 -0.3416
v 0.3038 0.6750 0.3038
vt 0.2235 0.9614
vn 0.3416 0.8756 0.3416
v 0.3375 0.6412 0.3038
vt 0.2235 0.9562
vn 0.8756 0.3416 0.3416
v 0.3375 0.6412 -0.3038
vt 0.2235 0.9562
vn 0.8756 0.3416 -0.3416
f 401/401/401 402/402/402 403/403/403 404/404/404
v -0.3038 0.6750 0.3038
vt 0.1468 0.9423
vn -0.3416 0.8756 0.3416
v 0.3038 0.6750 0.3038
vt 0.2157 0.9423
vn 0.3416 0.8756 0.3416
v 0.2312 0.6750 0.2312
vt 0.2102 0.9423
vn 0.0000 1.0000 -0.0000
v -0.2312 0.6750 0.2312
vt 0.1523 0.9423
vn 0.0000 1.0000 -0.0000
f 405/405/405 406/406/406 407/407/407 408/408/408
