# Blender 4.5.13 LTS
# www.blender.org
o planks
v -1.497006 0.190000 0.745167
v -1.497006 0.250000 0.745167
v -1.502168 0.190000 0.525228
v -1.502168 0.250000 0.525228
v 1.502168 0.190000 0.674772
v 1.502168 0.250000 0.674772
v 1.497006 0.190000 0.454833
v 1.497006 0.250000 0.454833
v -1.496670 0.190000 0.508594
v -1.496670 0.250000 0.508594
v -1.502335 0.190000 0.288667
v -1.502335 0.250000 0.288667
v 1.502335 0.190000 0.431333
v 1.502335 0.250000 0.431333
v 1.496670 0.190000 0.211406
v 1.496670 0.250000 0.211406
v -1.500131 0.190000 0.228204
v -1.500131 0.250000 0.228204
v -1.499867 0.190000 0.008204
v -1.499867 0.250000 0.008204
v 1.499867 0.190000 0.231796
v 1.499867 0.250000 0.231796
v 1.500131 0.190000 0.011796
v 1.500131 0.250000 0.011796
v -1.501825 0.190000 -0.038624
v -1.501825 0.250000 -0.038624
v -1.497630 0.190000 -0.258584
v -1.497630 0.250000 -0.258584
v 1.497630 0.190000 0.018584
v 1.497630 0.250000 0.018584
v 1.501825 0.190000 -0.201376
v 1.501825 0.250000 -0.201376
v -1.503197 0.190000 -0.310018
v -1.503197 0.250000 -0.310018
v -1.494407 0.190000 -0.529842
v -1.494407 0.250000 -0.529842
v 1.494407 0.190000 -0.190158
v 1.494407 0.250000 -0.190158
v 1.503197 0.190000 -0.409982
v 1.503197 0.250000 -0.409982
v -1.498440 0.190000 -0.470472
v -1.498440 0.250000 -0.470472
v -1.501306 0.190000 -0.690453
v -1.501306 0.250000 -0.690453
v 1.501306 0.190000 -0.509547
v 1.501306 0.250000 -0.509547
v 1.498440 0.190000 -0.729528
v 1.498440 0.250000 -0.729528
v -1.500000 0.090000 0.540000
v -1.500000 0.190000 0.540000
v -1.500000 0.090000 0.460000
v -1.500000 0.190000 0.460000
v 1.500000 0.090000 0.540000
v 1.500000 0.190000 0.540000
v 1.500000 0.090000 0.460000
v 1.500000 0.190000 0.460000
v -1.500000 0.090000 -0.460000
v -1.500000 0.190000 -0.460000
v -1.500000 0.090000 -0.540000
v -1.500000 0.190000 -0.540000
v 1.500000 0.090000 -0.460000
v 1.500000 0.190000 -0.460000
v 1.500000 0.090000 -0.540000
v 1.500000 0.190000 -0.540000
vn -0.9997 -0.0000 0.0235
vn -0.0235 -0.0000 -0.9997
vn 0.9997 -0.0000 -0.0235
vn 0.0235 -0.0000 0.9997
vn -0.0000 -1.0000 -0.0000
vn -0.0000 1.0000 -0.0000
vn -0.9997 -0.0000 0.0258
vn -0.0258 -0.0000 -0.9997
vn 0.9997 -0.0000 -0.0258
vn 0.0258 -0.0000 0.9997
vn -1.0000 -0.0000 -0.0012
vn 0.0012 -0.0000 -1.0000
vn 1.0000 -0.0000 0.0012
vn -0.0012 -0.0000 1.0000
vn -0.9998 -0.0000 -0.0191
vn 0.0191 -0.0000 -0.9998
vn 0.9998 -0.0000 0.0191
vn -0.0191 -0.0000 0.9998
vn -0.9992 -0.0000 -0.0400
vn 0.0400 -0.0000 -0.9992
vn 0.9992 -0.0000 0.0400
vn -0.0400 -0.0000 0.9992
vn -0.9999 -0.0000 0.0130
vn -0.0130 -0.0000 -0.9999
vn 0.9999 -0.0000 -0.0130
vn 0.0130 -0.0000 0.9999
vn -1.0000 -0.0000 -0.0000
vn -0.0000 -0.0000 -1.0000
vn 1.0000 -0.0000 -0.0000
vn -0.0000 -0.0000 1.0000
vt 0.101824 0.723232
vt 0.115223 0.674116
vt 0.115223 0.723232
vt 0.904332 0.671158
vt 0.917731 0.001389
vt 0.917731 0.671158
vt 0.118000 0.723232
vt 0.131399 0.674116
vt 0.131399 0.723232
vt 0.920508 0.671158
vt 0.933907 0.001389
vt 0.933907 0.671158
vt 0.465772 0.001389
vt 0.416643 0.671339
vt 0.416643 0.001389
vt 0.468550 0.001389
vt 0.517679 0.671339
vt 0.468550 0.671339
vt 0.134176 0.723229
vt 0.147575 0.674116
vt 0.147575 0.723229
vt 0.936684 0.671121
vt 0.950083 0.001389
vt 0.950083 0.671121
vt 0.150352 0.723229
vt 0.163751 0.674116
vt 0.163751 0.723229
vt 0.952860 0.671121
vt 0.966259 0.001389
vt 0.966259 0.671121
vt 0.050518 0.001389
vt 0.001389 0.671339
vt 0.001389 0.001389
vt 0.053295 0.001389
vt 0.102425 0.671339
vt 0.053295 0.671339
vt 0.001389 0.723245
vt 0.014788 0.674116
vt 0.014788 0.723245
vt 0.807275 0.671338
vt 0.820674 0.001389
vt 0.820674 0.671338
vt 0.017565 0.723245
vt 0.030964 0.674116
vt 0.030964 0.723245
vt 0.823451 0.671338
vt 0.836850 0.001389
vt 0.836850 0.671338
vt 0.209016 0.001389
vt 0.258145 0.671339
vt 0.209016 0.671339
vt 0.310052 0.671339
vt 0.260922 0.001389
vt 0.310052 0.001389
vt 0.085648 0.723236
vt 0.099047 0.674116
vt 0.099047 0.723236
vt 0.888156 0.671214
vt 0.901555 0.001389
vt 0.901555 0.671214
vt 0.069471 0.723236
vt 0.082870 0.674116
vt 0.082870 0.723236
vt 0.871979 0.671214
vt 0.885378 0.001389
vt 0.885378 0.671214
vt 0.312829 0.001389
vt 0.361959 0.671339
vt 0.312829 0.671339
vt 0.413866 0.671339
vt 0.364736 0.001389
vt 0.413866 0.001389
vt 0.182704 0.723206
vt 0.196103 0.674116
vt 0.196103 0.723206
vt 0.969036 0.670797
vt 0.982435 0.001389
vt 0.982435 0.670797
vt 0.166528 0.723206
vt 0.179927 0.674116
vt 0.179927 0.723206
vt 0.985212 0.670797
vt 0.998611 0.001389
vt 0.998611 0.670797
vt 0.520456 0.001389
vt 0.569586 0.671339
vt 0.520456 0.671339
vt 0.621493 0.671339
vt 0.572363 0.001389
vt 0.621493 0.001389
vt 0.033741 0.723241
vt 0.047140 0.674116
vt 0.047140 0.723241
vt 0.839627 0.671284
vt 0.853026 0.001389
vt 0.853026 0.671284
vt 0.053295 0.723241
vt 0.066694 0.674116
vt 0.066694 0.723241
vt 0.855803 0.671284
vt 0.869202 0.001389
vt 0.869202 0.671284
vt 0.154332 0.671339
vt 0.105202 0.001389
vt 0.154332 0.001389
vt 0.157109 0.001389
vt 0.206239 0.671339
vt 0.157109 0.671339
vt 0.198880 0.674116
vt 0.216746 0.696447
vt 0.198880 0.696447
vt 0.624270 0.671339
vt 0.646602 0.001389
vt 0.646602 0.671339
vt 0.219523 0.674116
vt 0.237388 0.696447
vt 0.219523 0.696447
vt 0.649379 0.671339
vt 0.671710 0.001389
vt 0.671710 0.671339
vt 0.742570 0.671339
vt 0.724705 0.001389
vt 0.742570 0.001389
vt 0.763213 0.671339
vt 0.745348 0.001389
vt 0.763213 0.001389
vt 0.240165 0.674116
vt 0.258030 0.696447
vt 0.240165 0.696447
vt 0.674487 0.671339
vt 0.696819 0.001389
vt 0.696819 0.671339
vt 0.260922 0.674116
vt 0.278788 0.696447
vt 0.260922 0.696447
vt 0.699596 0.671339
vt 0.721928 0.001389
vt 0.721928 0.671339
vt 0.783855 0.671339
vt 0.765990 0.001389
vt 0.783855 0.001389
vt 0.804498 0.671339
vt 0.786632 0.001389
vt 0.804498 0.001389
vt 0.101824 0.674116
vt 0.904332 0.001389
vt 0.118000 0.674116
vt 0.920508 0.001389
vt 0.465772 0.671339
vt 0.517679 0.001389
vt 0.134176 0.674116
vt 0.936684 0.001389
vt 0.150352 0.674116
vt 0.952860 0.001389
vt 0.050518 0.671339
vt 0.102425 0.001389
vt 0.001389 0.674116
vt 0.807275 0.001389
vt 0.017565 0.674116
vt 0.823451 0.001389
vt 0.258145 0.001389
vt 0.260923 0.671339
vt 0.085648 0.674116
vt 0.888156 0.001389
vt 0.069471 0.674116
vt 0.871979 0.001389
vt 0.361959 0.001389
vt 0.364736 0.671339
vt 0.182704 0.674116
vt 0.969036 0.001389
vt 0.166528 0.674116
vt 0.985212 0.001389
vt 0.569586 0.001389
vt 0.572363 0.671339
vt 0.033741 0.674116
vt 0.839627 0.001389
vt 0.053295 0.674116
vt 0.855803 0.001389
vt 0.105202 0.671339
vt 0.206239 0.001389
vt 0.216746 0.674116
vt 0.624270 0.001389
vt 0.237388 0.674116
vt 0.649379 0.001389
vt 0.724705 0.671339
vt 0.745347 0.671339
vt 0.258030 0.674116
vt 0.674488 0.001389
vt 0.278788 0.674116
vt 0.699596 0.001389
vt 0.765990 0.671339
vt 0.786632 0.671339
s 0
f 2/1/1 3/2/1 1/3/1
f 4/4/2 7/5/2 3/6/2
f 8/7/3 5/8/3 7/9/3
f 6/10/4 1/11/4 5/12/4
f 3/13/5 5/14/5 1/15/5
f 4/16/6 6/17/6 8/18/6
f 10/19/7 11/20/7 9/21/7
f 12/22/8 15/23/8 11/24/8
f 16/25/9 13/26/9 15/27/9
f 14/28/10 9/29/10 13/30/10
f 11/31/5 13/32/5 9/33/5
f 12/34/6 14/35/6 16/36/6
f 18/37/11 19/38/11 17/39/11
f 20/40/12 23/41/12 19/42/12
f 24/43/13 21/44/13 23/45/13
f 22/46/14 17/47/14 21/48/14
f 23/49/5 17/50/5 19/51/5
f 20/52/6 22/53/6 24/54/6
f 26/55/15 27/56/15 25/57/15
f 28/58/16 31/59/16 27/60/16
f 32/61/17 29/62/17 31/63/17
f 30/64/18 25/65/18 29/66/18
f 31/67/5 25/68/5 27/69/5
f 28/70/6 30/71/6 32/72/6
f 34/73/19 35/74/19 33/75/19
f 36/76/20 39/77/20 35/78/20
f 40/79/21 37/80/21 39/81/21
f 38/82/22 33/83/22 37/84/22
f 39/85/5 33/86/5 35/87/5
f 36/88/6 38/89/6 40/90/6
f 42/91/23 43/92/23 41/93/23
f 44/94/24 47/95/24 43/96/24
f 48/97/25 45/98/25 47/99/25
f 46/100/26 41/101/26 45/102/26
f 47/103/5 41/104/5 43/105/5
f 44/106/6 46/107/6 48/108/6
f 50/109/27 51/110/27 49/111/27
f 52/112/28 55/113/28 51/114/28
f 56/115/29 53/116/29 55/117/29
f 54/118/30 49/119/30 53/120/30
f 55/121/5 49/122/5 51/123/5
f 52/124/6 54/125/6 56/126/6
f 58/127/27 59/128/27 57/129/27
f 60/130/28 63/131/28 59/132/28
f 64/133/29 61/134/29 63/135/29
f 62/136/30 57/137/30 61/138/30
f 63/139/5 57/140/5 59/141/5
f 60/142/6 62/143/6 64/144/6
f 2/1/1 4/145/1 3/2/1
f 4/4/2 8/146/2 7/5/2
f 8/7/3 6/147/3 5/8/3
f 6/10/4 2/148/4 1/11/4
f 3/13/5 7/149/5 5/14/5
f 4/16/6 2/150/6 6/17/6
f 10/19/7 12/151/7 11/20/7
f 12/22/8 16/152/8 15/23/8
f 16/25/9 14/153/9 13/26/9
f 14/28/10 10/154/10 9/29/10
f 11/31/5 15/155/5 13/32/5
f 12/34/6 10/156/6 14/35/6
f 18/37/11 20/157/11 19/38/11
f 20/40/12 24/158/12 23/41/12
f 24/43/13 22/159/13 21/44/13
f 22/46/14 18/160/14 17/47/14
f 23/49/5 21/161/5 17/50/5
f 20/52/6 18/162/6 22/53/6
f 26/55/15 28/163/15 27/56/15
f 28/58/16 32/164/16 31/59/16
f 32/61/17 30/165/17 29/62/17
f 30/64/18 26/166/18 25/65/18
f 31/67/5 29/167/5 25/68/5
f 28/70/6 26/168/6 30/71/6
f 34/73/19 36/169/19 35/74/19
f 36/76/20 40/170/20 39/77/20
f 40/79/21 38/171/21 37/80/21
f 38/82/22 34/172/22 33/83/22
f 39/85/5 37/173/5 33/86/5
f 36/88/6 34/174/6 38/89/6
f 42/91/23 44/175/23 43/92/23
f 44/94/24 48/176/24 47/95/24
f 48/97/25 46/177/25 45/98/25
f 46/100/26 42/178/26 41/101/26
f 47/103/5 45/179/5 41/104/5
f 44/106/6 42/180/6 46/107/6
f 50/109/27 52/181/27 51/110/27
f 52/112/28 56/182/28 55/113/28
f 56/115/29 54/183/29 53/116/29
f 54/118/30 50/184/30 49/119/30
f 55/121/5 53/185/5 49/122/5
f 52/124/6 50/186/6 54/125/6
f 58/127/27 60/187/27 59/128/27
f 60/130/28 64/188/28 63/131/28
f 64/133/29 62/189/29 61/134/29
f 62/136/30 58/190/30 57/137/30
f 63/139/5 61/191/5 57/140/5
f 60/142/6 58/192/6 62/143/6
