# Blender 4.5.13 LTS
# www.blender.org
o planks
v -0.650000 0.252239 0.478644
v -0.650000 0.309193 0.497518
v -0.650000 0.488164 -0.233282
v -0.650000 0.545118 -0.214408
v 0.650000 0.252239 0.478644
v 0.650000 0.309193 0.497518
v 0.650000 0.488164 -0.233282
v 0.650000 0.545118 -0.214408
v -0.650000 0.288719 0.543407
v -0.650000 0.526028 0.622049
v -0.650000 0.304447 0.495945
v -0.650000 0.541756 0.574587
v 0.650000 0.288719 0.543407
v 0.650000 0.526028 0.622049
v 0.650000 0.304447 0.495945
v 0.650000 0.541756 0.574587
v -0.650000 0.540372 -0.215981
v -0.650000 0.777681 -0.137340
v -0.650000 0.556101 -0.263443
v -0.650000 0.793409 -0.184801
v 0.650000 0.540372 -0.215981
v 0.650000 0.777681 -0.137340
v 0.650000 0.556101 -0.263443
v 0.650000 0.793409 -0.184801
v -0.675000 0.304447 0.495945
v -0.675000 0.541756 0.574587
v -0.675000 0.540372 -0.215981
v -0.675000 0.777681 -0.137340
v -0.625000 0.304447 0.495945
v -0.625000 0.541756 0.574587
v -0.625000 0.540372 -0.215981
v -0.625000 0.777681 -0.137340
v 0.600000 0.288442 0.385294
v 0.600000 0.335904 0.401022
v 0.600000 0.304171 0.337832
v 0.600000 0.351632 0.353560
v 1.600000 0.288442 0.385294
v 1.600000 0.335904 0.401022
v 1.600000 0.304171 0.337832
v 1.600000 0.351632 0.353560
v 0.600000 0.445725 -0.089324
v 0.600000 0.493187 -0.073596
v 0.600000 0.461454 -0.136786
v 0.600000 0.508916 -0.121058
v 1.600000 0.445725 -0.089324
v 1.600000 0.493187 -0.073596
v 1.600000 0.461454 -0.136786
v 1.600000 0.508916 -0.121058
v -0.030000 0.133723 0.518380
v -0.030000 0.190677 0.537254
v -0.030000 0.416833 -0.335932
v -0.030000 0.473787 -0.317058
v 0.030000 0.133723 0.518380
v 0.030000 0.190677 0.537254
v 0.030000 0.416833 -0.335932
v 0.030000 0.473787 -0.317058
v 0.000000 0.640000 0.470000
v 0.000000 0.640000 0.520000
v 0.122459 0.615641 0.470000
v 0.122459 0.615641 0.520000
v 0.226274 0.546274 0.470000
v 0.226274 0.546274 0.520000
v 0.295641 0.442459 0.470000
v 0.295641 0.442459 0.520000
v 0.320000 0.320000 0.470000
v 0.320000 0.320000 0.520000
v 0.295641 0.197541 0.470000
v 0.295641 0.197541 0.520000
v 0.226274 0.093726 0.470000
v 0.226274 0.093726 0.520000
v 0.122459 0.024359 0.470000
v 0.122459 0.024359 0.520000
v 0.000000 0.000000 0.470000
v 0.000000 0.000000 0.520000
v -0.122459 0.024359 0.470000
v -0.122459 0.024359 0.520000
v -0.226274 0.093726 0.470000
v -0.226274 0.093726 0.520000
v -0.295641 0.197541 0.470000
v -0.295641 0.197541 0.520000
v -0.320000 0.320000 0.470000
v -0.320000 0.320000 0.520000
v -0.295641 0.442459 0.470000
v -0.295641 0.442459 0.520000
v -0.226274 0.546274 0.470000
v -0.226274 0.546274 0.520000
v -0.122459 0.615641 0.470000
v -0.122459 0.615641 0.520000
v 0.000000 0.620000 0.470000
v 0.000000 0.620000 0.530000
v 0.114805 0.597164 0.470000
v 0.114805 0.597164 0.530000
v 0.212132 0.532132 0.470000
v 0.212132 0.532132 0.530000
v 0.277164 0.434805 0.470000
v 0.277164 0.434805 0.530000
v 0.300000 0.320000 0.470000
v 0.300000 0.320000 0.530000
v 0.277164 0.205195 0.470000
v 0.277164 0.205195 0.530000
v 0.212132 0.107868 0.470000
v 0.212132 0.107868 0.530000
v 0.114805 0.042836 0.470000
v 0.114805 0.042836 0.530000
v 0.000000 0.020000 0.470000
v 0.000000 0.020000 0.530000
v -0.114805 0.042836 0.470000
v -0.114805 0.042836 0.530000
v -0.212132 0.107868 0.470000
v -0.212132 0.107868 0.530000
v -0.277164 0.205195 0.470000
v -0.277164 0.205195 0.530000
v -0.300000 0.320000 0.470000
v -0.300000 0.320000 0.530000
v -0.277164 0.434805 0.470000
v -0.277164 0.434805 0.530000
v -0.212132 0.532132 0.470000
v -0.212132 0.532132 0.530000
v -0.114805 0.597164 0.470000
v -0.114805 0.597164 0.530000
v 0.000000 0.390000 0.470000
v 0.000000 0.390000 0.590000
v 0.049497 0.369497 0.470000
v 0.049497 0.369497 0.590000
v 0.070000 0.320000 0.470000
v 0.070000 0.320000 0.590000
v 0.049497 0.270503 0.470000
v 0.049497 0.270503 0.590000
v 0.000000 0.250000 0.470000
v 0.000000 0.250000 0.590000
v -0.049497 0.270503 0.470000
v -0.049497 0.270503 0.590000
v -0.070000 0.320000 0.470000
v -0.070000 0.320000 0.590000
v -0.049497 0.369497 0.470000
v -0.049497 0.369497 0.590000
v 0.500000 0.030000 -1.220000
v 0.500000 0.080000 -1.220000
v 0.622459 0.030000 -1.195641
v 0.622459 0.080000 -1.195641
v 0.726274 0.030000 -1.126274
v 0.726274 0.080000 -1.126274
v 0.795641 0.030000 -1.022459
v 0.795641 0.080000 -1.022459
v 0.820000 0.030000 -0.900000
v 0.820000 0.080000 -0.900000
v 0.795641 0.030000 -0.777541
v 0.795641 0.080000 -0.777541
v 0.726274 0.030000 -0.673726
v 0.726274 0.080000 -0.673726
v 0.622459 0.030000 -0.604359
v 0.622459 0.080000 -0.604359
v 0.500000 0.030000 -0.580000
v 0.500000 0.080000 -0.580000
v 0.377541 0.030000 -0.604359
v 0.377541 0.080000 -0.604359
v 0.273726 0.030000 -0.673726
v 0.273726 0.080000 -0.673726
v 0.204359 0.030000 -0.777541
v 0.204359 0.080000 -0.777541
v 0.180000 0.030000 -0.900000
v 0.180000 0.080000 -0.900000
v 0.204359 0.030000 -1.022459
v 0.204359 0.080000 -1.022459
v 0.273726 0.030000 -1.126274
v 0.273726 0.080000 -1.126274
v 0.377541 0.030000 -1.195641
v 0.377541 0.080000 -1.195641
v 0.500000 0.030000 -1.200000
v 0.500000 0.090000 -1.200000
v 0.614805 0.030000 -1.177164
v 0.614805 0.090000 -1.177164
v 0.712132 0.030000 -1.112132
v 0.712132 0.090000 -1.112132
v 0.777164 0.030000 -1.014805
v 0.777164 0.090000 -1.014805
v 0.800000 0.030000 -0.900000
v 0.800000 0.090000 -0.900000
v 0.777164 0.030000 -0.785195
v 0.777164 0.090000 -0.785195
v 0.712132 0.030000 -0.687868
v 0.712132 0.090000 -0.687868
v 0.614805 0.030000 -0.622836
v 0.614805 0.090000 -0.622836
v 0.500000 0.030000 -0.600000
v 0.500000 0.090000 -0.600000
v 0.385195 0.030000 -0.622836
v 0.385195 0.090000 -0.622836
v 0.287868 0.030000 -0.687868
v 0.287868 0.090000 -0.687868
v 0.222836 0.030000 -0.785195
v 0.222836 0.090000 -0.785195
v 0.200000 0.030000 -0.900000
v 0.200000 0.090000 -0.900000
v 0.222836 0.030000 -1.014805
v 0.222836 0.090000 -1.014805
v 0.287868 0.030000 -1.112132
v 0.287868 0.090000 -1.112132
v 0.385195 0.030000 -1.177164
v 0.385195 0.090000 -1.177164
v 0.500000 0.030000 -0.970000
v 0.500000 0.150000 -0.970000
v 0.549497 0.030000 -0.949497
v 0.549497 0.150000 -0.949497
v 0.570000 0.030000 -0.900000
v 0.570000 0.150000 -0.900000
v 0.549497 0.030000 -0.850502
v 0.549497 0.150000 -0.850502
v 0.500000 0.030000 -0.830000
v 0.500000 0.150000 -0.830000
v 0.450503 0.030000 -0.850502
v 0.450503 0.150000 -0.850502
v 0.430000 0.030000 -0.900000
v 0.430000 0.150000 -0.900000
v 0.450503 0.030000 -0.949497
v 0.450503 0.150000 -0.949497
v 0.810806 0.005000 -1.033852
v 0.810806 0.035000 -1.033852
v 0.773714 0.005000 -0.919728
v 0.773714 0.035000 -0.919728
v 0.193434 0.005000 -1.234504
v 0.193434 0.035000 -1.234504
v 0.156342 0.005000 -1.120381
v 0.156342 0.035000 -1.120381
v 0.843526 0.005000 -0.264290
v 0.843526 0.035000 -0.264290
v 0.725336 0.005000 -0.285057
v 0.725336 0.035000 -0.285057
v 0.963964 0.005000 -0.949750
v 0.963964 0.035000 -0.949750
v 0.845774 0.005000 -0.970516
v 0.845774 0.035000 -0.970516
v -0.048534 0.005000 -0.954490
v -0.048534 0.035000 -0.954490
v -0.088510 0.005000 -1.067636
v -0.088510 0.035000 -1.067636
v 0.684408 0.005000 -1.213444
v 0.684408 0.035000 -1.213444
v 0.644433 0.005000 -1.326590
v 0.644433 0.035000 -1.326590
vn -1.0000 -0.0000 -0.0000
vn -0.0000 0.3146 -0.9492
vn 1.0000 -0.0000 -0.0000
vn -0.0000 -0.3146 0.9492
vn -0.0000 -0.9492 -0.3146
vn -0.0000 0.9492 0.3146
vn 0.1951 0.9808 -0.0000
vn 0.5556 0.8315 -0.0000
vn 0.8315 0.5556 -0.0000
vn 0.9808 0.1951 -0.0000
vn 0.9808 -0.1951 -0.0000
vn 0.8315 -0.5556 -0.0000
vn 0.5556 -0.8315 -0.0000
vn 0.1951 -0.9808 -0.0000
vn -0.1951 -0.9808 -0.0000
vn -0.5556 -0.8315 -0.0000
vn -0.8315 -0.5556 -0.0000
vn -0.9808 -0.1951 -0.0000
vn -0.9808 0.1951 -0.0000
vn -0.8315 0.5556 -0.0000
vn -0.5556 0.8315 -0.0000
vn -0.1951 0.9808 -0.0000
vn -0.0000 -0.0000 1.0000
vn -0.0000 -0.0000 -1.0000
vn 0.3827 0.9239 -0.0000
vn 0.9239 0.3827 -0.0000
vn 0.9239 -0.3827 -0.0000
vn 0.3827 -0.9239 -0.0000
vn -0.3827 -0.9239 -0.0000
vn -0.9239 -0.3827 -0.0000
vn -0.9239 0.3827 -0.0000
vn -0.3827 0.9239 -0.0000
vn 0.1951 -0.0000 -0.9808
vn 0.5556 -0.0000 -0.8315
vn 0.8315 -0.0000 -0.5556
vn 0.9808 -0.0000 -0.1951
vn 0.9808 -0.0000 0.1951
vn 0.8315 -0.0000 0.5556
vn 0.5556 -0.0000 0.8315
vn 0.1951 -0.0000 0.9808
vn -0.1951 -0.0000 0.9808
vn -0.5556 -0.0000 0.8315
vn -0.8315 -0.0000 0.5556
vn -0.9808 -0.0000 0.1951
vn -0.9808 -0.0000 -0.1951
vn -0.8315 -0.0000 -0.5556
vn -0.5556 -0.0000 -0.8315
vn -0.1951 -0.0000 -0.9808
vn -0.0000 1.0000 -0.0000
vn -0.0000 -1.0000 -0.0000
vn 0.3827 -0.0000 -0.9239
vn 0.9239 -0.0000 -0.3827
vn 0.9239 -0.0000 0.3827
vn 0.3827 -0.0000 0.9239
vn -0.3827 -0.0000 0.9239
vn -0.9239 -0.0000 0.3827
vn -0.9239 -0.0000 -0.3827
vn -0.3827 -0.0000 -0.9239
vn 0.9510 -0.0000 0.3091
vn -0.3091 -0.0000 0.9510
vn -0.9510 -0.0000 -0.3091
vn 0.3091 -0.0000 -0.9510
vn -0.1731 -0.0000 0.9849
vn -0.9849 -0.0000 -0.1731
vn 0.1731 -0.0000 -0.9849
vn 0.9849 -0.0000 0.1731
vn -0.9429 -0.0000 0.3331
vn -0.3331 -0.0000 -0.9429
vn 0.9429 -0.0000 -0.3331
vn 0.3331 -0.0000 0.9429
vt 0.266591 0.898194
vt 0.286781 0.645829
vt 0.286781 0.898194
vt 0.899306 0.002095
vt 0.879492 0.439489
vt 0.879492 0.002062
vt 0.311094 0.645828
vt 0.290904 0.898194
vt 0.290904 0.645828
vt 0.881060 0.881211
vt 0.900873 0.443750
vt 0.900873 0.881177
vt 0.002062 0.002062
vt 0.249687 0.439505
vt 0.002062 0.439505
vt 0.253811 0.002062
vt 0.501436 0.439505
vt 0.253811 0.439505
vt 0.944693 0.426819
vt 0.961517 0.342695
vt 0.961517 0.426819
vt 0.788689 0.443888
vt 0.706133 0.881177
vt 0.706133 0.443750
vt 0.792813 0.856657
vt 0.809637 0.940780
vt 0.792813 0.940780
vt 0.619454 0.641822
vt 0.702010 0.204257
vt 0.702010 0.641684
vt 0.904997 0.443750
vt 0.921505 0.881193
vt 0.904997 0.881193
vt 0.903429 0.002062
vt 0.919938 0.439505
vt 0.903429 0.439505
vt 0.753465 0.969563
vt 0.770290 0.885439
vt 0.770290 0.969562
vt 0.788689 0.002200
vt 0.706133 0.439489
vt 0.706133 0.002062
vt 0.049414 0.868414
vt 0.066239 0.952537
vt 0.049414 0.952537
vt 0.792813 0.439627
vt 0.875369 0.002062
vt 0.875369 0.439489
vt 0.924061 0.002062
vt 0.940570 0.439505
vt 0.924061 0.439505
vt 0.942137 0.881193
vt 0.925629 0.443750
vt 0.942137 0.443750
vt 0.487456 0.898190
vt 0.403333 0.645823
vt 0.487456 0.645824
vt 0.315217 0.897605
vt 0.332041 0.980133
vt 0.315217 0.980161
vt 0.876936 0.443750
vt 0.792813 0.696117
vt 0.792813 0.443752
vt 0.336165 0.897577
vt 0.352989 0.980161
vt 0.336165 0.980133
vt 0.332042 0.645828
vt 0.315217 0.893454
vt 0.315217 0.645828
vt 0.352990 0.645828
vt 0.336165 0.893454
vt 0.336165 0.645828
vt 0.918494 0.949857
vt 0.935318 0.933033
vt 0.935318 0.949857
vt 0.981839 0.002089
vt 0.965328 0.338544
vt 0.965328 0.002062
vt 0.706133 0.933138
vt 0.722958 0.949962
vt 0.706133 0.949962
vt 0.946260 0.780260
vt 0.962772 0.443750
vt 0.962772 0.780233
vt 0.184064 0.645828
vt 0.200572 0.982323
vt 0.184064 0.982323
vt 0.221204 0.982323
vt 0.204696 0.645828
vt 0.221204 0.645828
vt 0.727081 0.949963
vt 0.743906 0.933138
vt 0.743906 0.949962
vt 0.179940 0.645856
vt 0.163429 0.982311
vt 0.163429 0.645828
vt 0.357113 0.939617
vt 0.373938 0.956442
vt 0.357113 0.956442
vt 0.944693 0.338572
vt 0.961204 0.002062
vt 0.961204 0.338544
vt 0.225327 0.645828
vt 0.241836 0.982323
vt 0.225327 0.982323
vt 0.245959 0.645828
vt 0.262468 0.982323
vt 0.245959 0.982323
vt 0.090490 0.948667
vt 0.110679 0.645829
vt 0.110679 0.948667
vt 0.874858 0.928720
vt 0.855045 0.948876
vt 0.855045 0.928687
vt 0.580018 0.645824
vt 0.600207 0.948662
vt 0.580018 0.948662
vt 0.855044 0.924563
vt 0.874858 0.904341
vt 0.874858 0.924530
vt 0.134992 0.645828
vt 0.114803 0.942979
vt 0.114803 0.645828
vt 0.159306 0.645828
vt 0.139116 0.942979
vt 0.139116 0.645828
vt 0.821566 0.776381
vt 0.837230 0.735174
vt 0.838258 0.776381
vt 0.820538 0.735174
vt 0.834302 0.700240
vt 0.963304 0.784384
vt 0.946317 0.819317
vt 0.946480 0.784384
vt 0.963142 0.819317
vt 0.946261 0.860524
vt 0.963085 0.860524
vt 0.946317 0.901731
vt 0.963142 0.901731
vt 0.946480 0.936664
vt 0.859073 0.700240
vt 0.845309 0.735174
vt 0.842381 0.700240
vt 0.862001 0.735174
vt 0.846337 0.776380
vt 0.863029 0.776380
vt 0.845309 0.817587
vt 0.862001 0.817587
vt 0.842381 0.852521
vt 0.967647 0.936664
vt 0.984309 0.901730
vt 0.984471 0.936664
vt 0.967485 0.901730
vt 0.984252 0.860524
vt 0.967428 0.860524
vt 0.984309 0.819317
vt 0.967485 0.819317
vt 0.984471 0.784384
vt 0.817610 0.852521
vt 0.837230 0.817587
vt 0.834302 0.852521
vt 0.820538 0.817587
vt 0.651049 0.717327
vt 0.670115 0.678695
vt 0.671079 0.717327
vt 0.650085 0.678695
vt 0.667370 0.645945
vt 0.377508 0.792731
vt 0.357167 0.825481
vt 0.357319 0.792731
vt 0.377356 0.825481
vt 0.357113 0.864112
vt 0.377303 0.864112
vt 0.357167 0.902744
vt 0.377356 0.902744
vt 0.357319 0.935494
vt 0.695233 0.645945
vt 0.677947 0.678695
vt 0.675202 0.645945
vt 0.697978 0.678695
vt 0.678911 0.717327
vt 0.698942 0.717327
vt 0.677947 0.755958
vt 0.697978 0.755958
vt 0.675202 0.788708
vt 0.667735 0.935594
vt 0.647393 0.902844
vt 0.667583 0.902844
vt 0.667529 0.864213
vt 0.647340 0.864213
vt 0.667583 0.825581
vt 0.647393 0.825581
vt 0.667735 0.792831
vt 0.584830 0.486416
vt 0.557198 0.626474
vt 0.418287 0.598912
vt 0.647340 0.788708
vt 0.670115 0.755958
vt 0.667370 0.788708
vt 0.650085 0.755958
vt 0.520514 0.157003
vt 0.548145 0.017059
vt 0.687056 0.045192
vt 0.283247 0.942378
vt 0.266591 0.903183
vt 0.283247 0.902318
vt 0.491580 0.911490
vt 0.508235 0.951916
vt 0.491580 0.951868
vt 0.508235 0.911538
vt 0.524891 0.951868
vt 0.850921 0.904341
vt 0.834265 0.945267
vt 0.834265 0.905206
vt 0.817610 0.904341
vt 0.575894 0.911490
vt 0.559238 0.951916
vt 0.559238 0.911538
vt 0.911613 0.885334
vt 0.924268 0.916022
vt 0.893715 0.928909
vt 0.542583 0.911490
vt 0.299902 0.943243
vt 0.299902 0.903183
vt 0.718789 0.928927
vt 0.706133 0.898114
vt 0.736686 0.885527
vt 0.611236 0.280127
vt 0.595581 0.321419
vt 0.594546 0.280145
vt 0.612271 0.321401
vt 0.598529 0.356549
vt 0.981113 0.752427
vt 0.997938 0.717656
vt 0.997938 0.752427
vt 0.981113 0.717656
vt 0.997938 0.676508
vt 0.981113 0.676508
vt 0.997938 0.635245
vt 0.981113 0.635245
vt 0.997938 0.600150
vt 0.796796 0.852515
vt 0.810538 0.817799
vt 0.813486 0.852533
vt 0.793848 0.817781
vt 0.809503 0.776663
vt 0.792813 0.776645
vt 0.810538 0.735389
vt 0.793848 0.735370
vt 0.813486 0.700259
vt 0.981113 0.596027
vt 0.997938 0.561257
vt 0.997938 0.596027
vt 0.981113 0.561257
vt 0.997938 0.520108
vt 0.981113 0.520108
vt 0.997938 0.478845
vt 0.981113 0.478845
vt 0.997938 0.443750
vt 0.615219 0.204257
vt 0.595581 0.239009
vt 0.598529 0.204275
vt 0.612271 0.238991
vt 0.377141 0.716956
vt 0.358084 0.755673
vt 0.357113 0.716978
vt 0.378112 0.755651
vt 0.360848 0.788607
vt 0.619454 0.935607
vt 0.639644 0.903010
vt 0.639644 0.935607
vt 0.619454 0.903010
vt 0.639644 0.864433
vt 0.619454 0.864433
vt 0.639644 0.825749
vt 0.619454 0.825749
vt 0.639644 0.792848
vt 0.623189 0.788703
vt 0.640453 0.756161
vt 0.643217 0.788725
vt 0.620425 0.756140
vt 0.639482 0.717597
vt 0.619454 0.717575
vt 0.640453 0.678902
vt 0.620425 0.678880
vt 0.643217 0.645967
vt 0.671858 0.935591
vt 0.692048 0.902994
vt 0.692048 0.935591
vt 0.671858 0.902994
vt 0.692048 0.864417
vt 0.671858 0.864417
vt 0.692048 0.825733
vt 0.671858 0.825733
vt 0.692048 0.792831
vt 0.245296 0.626408
vt 0.217656 0.486347
vt 0.356611 0.458925
vt 0.380876 0.645828
vt 0.358084 0.678413
vt 0.360848 0.645850
vt 0.378112 0.678392
vt 0.198574 0.522680
vt 0.119862 0.641586
vt 0.002062 0.562653
vt 0.457362 0.903203
vt 0.474076 0.942406
vt 0.457362 0.943259
vt 0.002062 0.916110
vt 0.018669 0.956490
vt 0.002062 0.956490
vt 0.018669 0.916110
vt 0.035372 0.956490
vt 0.403333 0.903203
vt 0.419929 0.942369
vt 0.403333 0.943259
vt 0.419929 0.902313
vt 0.436643 0.943223
vt 0.881060 0.933033
vt 0.897667 0.973412
vt 0.881060 0.973412
vt 0.032629 0.868414
vt 0.045291 0.899083
vt 0.014723 0.911987
vt 0.897667 0.933033
vt 0.914370 0.973412
vt 0.440766 0.902313
vt 0.440766 0.942369
vt 0.860839 0.869306
vt 0.848178 0.900117
vt 0.817610 0.887556
vt 0.070362 0.906901
vt 0.080457 0.868414
vt 0.080457 0.906901
vt 0.995968 0.215066
vt 0.985962 0.423946
vt 0.985962 0.215464
vt 0.395094 0.880881
vt 0.384999 0.919369
vt 0.384999 0.880881
vt 0.985962 0.210543
vt 0.995968 0.002460
vt 0.995968 0.210942
vt 0.002062 0.645828
vt 0.042152 0.864290
vt 0.002062 0.864103
vt 0.086366 0.645828
vt 0.046276 0.864290
vt 0.046276 0.646015
vt 0.615228 0.862096
vt 0.605216 0.902145
vt 0.605216 0.862307
vt 0.384999 0.876758
vt 0.395094 0.645828
vt 0.395094 0.876758
vt 0.864963 0.896482
vt 0.874974 0.856855
vt 0.874974 0.896693
vt 0.966895 0.674680
vt 0.976990 0.443750
vt 0.976990 0.674680
vt 0.505560 0.204366
vt 0.545929 0.436649
vt 0.505560 0.436758
vt 0.590423 0.436758
vt 0.550053 0.204257
vt 0.590423 0.204366
vt 0.774413 0.923418
vt 0.784508 0.885439
vt 0.784508 0.923418
vt 0.615219 0.611385
vt 0.605216 0.857973
vt 0.605216 0.611843
vt 0.928392 0.923312
vt 0.938487 0.885334
vt 0.938487 0.923312
vt 0.605216 0.606802
vt 0.615219 0.361132
vt 0.615219 0.607261
vt 0.535799 0.646023
vt 0.575894 0.907166
vt 0.535799 0.907366
vt 0.531675 0.907366
vt 0.491580 0.645823
vt 0.531675 0.646023
vt 0.266591 0.645828
vt 0.899306 0.439522
vt 0.311094 0.898194
vt 0.881060 0.443784
vt 0.249687 0.002062
vt 0.501436 0.002062
vt 0.944693 0.342695
vt 0.788689 0.881316
vt 0.809637 0.856657
vt 0.619454 0.204395
vt 0.921505 0.443750
vt 0.919938 0.002062
vt 0.753465 0.885439
vt 0.788689 0.439627
vt 0.066239 0.868414
vt 0.792813 0.002200
vt 0.940570 0.002062
vt 0.925629 0.881193
vt 0.403333 0.898189
vt 0.332041 0.897577
vt 0.876936 0.696116
vt 0.352989 0.897605
vt 0.332042 0.893454
vt 0.352990 0.893454
vt 0.918494 0.933033
vt 0.981839 0.338572
vt 0.722958 0.933138
vt 0.946260 0.443778
vt 0.200572 0.645828
vt 0.204696 0.982323
vt 0.727081 0.933138
vt 0.179940 0.982338
vt 0.373938 0.939617
vt 0.944693 0.002089
vt 0.241836 0.645828
vt 0.262468 0.645828
vt 0.090490 0.645828
vt 0.874858 0.948909
vt 0.600207 0.645823
vt 0.855044 0.904374
vt 0.134992 0.942979
vt 0.159306 0.942979
vt 0.817610 0.700240
vt 0.963304 0.936664
vt 0.859073 0.852521
vt 0.967647 0.784384
vt 0.647340 0.645945
vt 0.377508 0.935494
vt 0.695233 0.788708
vt 0.647546 0.935594
vt 0.647546 0.792831
vt 0.403333 0.562558
vt 0.403333 0.523175
vt 0.418287 0.486759
vt 0.445918 0.458854
vt 0.482020 0.443709
vt 0.521096 0.443628
vt 0.557198 0.458625
vt 0.599783 0.522771
vt 0.599783 0.562153
vt 0.584829 0.598569
vt 0.521096 0.641619
vt 0.482020 0.641700
vt 0.445918 0.626703
vt 0.702010 0.081608
vt 0.702010 0.120991
vt 0.687056 0.157345
vt 0.659425 0.185136
vt 0.623323 0.200133
vt 0.584247 0.200053
vt 0.548145 0.184907
vt 0.505560 0.120587
vt 0.505560 0.081204
vt 0.520514 0.044850
vt 0.584247 0.002062
vt 0.623323 0.002142
vt 0.659425 0.017288
vt 0.266591 0.943243
vt 0.524891 0.911490
vt 0.850921 0.944401
vt 0.817610 0.944401
vt 0.575894 0.951868
vt 0.881060 0.916234
vt 0.881060 0.898221
vt 0.893715 0.885421
vt 0.924268 0.898009
vt 0.911613 0.928822
vt 0.542583 0.951868
vt 0.749342 0.898326
vt 0.749342 0.916339
vt 0.736686 0.929014
vt 0.706133 0.916128
vt 0.718789 0.885439
vt 0.615219 0.356531
vt 0.981113 0.600150
vt 0.796796 0.700240
vt 0.981113 0.443750
vt 0.380876 0.788586
vt 0.619454 0.792848
vt 0.623189 0.645945
vt 0.671858 0.792831
vt 0.384251 0.486852
vt 0.399210 0.523277
vt 0.399210 0.562653
vt 0.384251 0.598986
vt 0.356611 0.626746
vt 0.320498 0.641705
vt 0.281409 0.641586
vt 0.217656 0.598481
vt 0.202697 0.562057
vt 0.202697 0.522680
vt 0.245296 0.458587
vt 0.281409 0.443628
vt 0.320498 0.443747
vt 0.002062 0.523276
vt 0.017020 0.486852
vt 0.044660 0.458925
vt 0.080773 0.443747
vt 0.119862 0.443628
vt 0.155975 0.458587
vt 0.183615 0.486347
vt 0.198574 0.562057
vt 0.183615 0.598481
vt 0.155975 0.626408
vt 0.080773 0.641705
vt 0.044660 0.626746
vt 0.017020 0.598986
vt 0.474076 0.902350
vt 0.035372 0.916110
vt 0.436643 0.903166
vt 0.002062 0.899325
vt 0.002062 0.881318
vt 0.014723 0.868514
vt 0.045291 0.881075
vt 0.032630 0.911887
vt 0.914370 0.933033
vt 0.817610 0.869548
vt 0.830271 0.856744
vt 0.848178 0.856644
vt 0.860839 0.887313
vt 0.830271 0.900218
vt 0.070362 0.868414
vt 0.995968 0.423547
vt 0.395094 0.919369
vt 0.985962 0.002062
vt 0.042152 0.646015
vt 0.086366 0.864103
vt 0.615228 0.901934
vt 0.384999 0.645828
vt 0.864963 0.856644
vt 0.966895 0.443750
vt 0.545929 0.204257
vt 0.550053 0.436649
vt 0.774413 0.885439
vt 0.615219 0.857514
vt 0.928392 0.885334
vt 0.605216 0.360673
vt 0.575894 0.645823
vt 0.491580 0.907167
s 0
f 2/1/1 3/2/1 1/3/1
f 4/4/2 7/5/2 3/6/2
f 8/7/3 5/8/3 7/9/3
f 6/10/4 1/11/4 5/12/4
f 7/13/5 1/14/5 3/15/5
f 4/16/6 6/17/6 8/18/6
f 9/19/1 12/20/1 11/21/1
f 12/22/2 15/23/2 11/24/2
f 16/25/3 13/26/3 15/27/3
f 14/28/4 9/29/4 13/30/4
f 15/31/5 9/32/5 11/33/5
f 12/34/6 14/35/6 16/36/6
f 17/37/1 20/38/1 19/39/1
f 20/40/2 23/41/2 19/42/2
f 24/43/3 21/44/3 23/45/3
f 22/46/4 17/47/4 21/48/4
f 23/49/5 17/50/5 19/51/5
f 20/52/6 22/53/6 24/54/6
f 25/55/1 28/56/1 27/57/1
f 28/58/2 31/59/2 27/60/2
f 32/61/3 29/62/3 31/63/3
f 30/64/4 25/65/4 29/66/4
f 31/67/5 25/68/5 27/69/5
f 28/70/6 30/71/6 32/72/6
f 33/73/1 36/74/1 35/75/1
f 36/76/2 39/77/2 35/78/2
f 40/79/3 37/80/3 39/81/3
f 38/82/4 33/83/4 37/84/4
f 39/85/5 33/86/5 35/87/5
f 36/88/6 38/89/6 40/90/6
f 41/91/1 44/92/1 43/93/1
f 44/94/2 47/95/2 43/96/2
f 48/97/3 45/98/3 47/99/3
f 46/100/4 41/101/4 45/102/4
f 47/103/5 41/104/5 43/105/5
f 44/106/6 46/107/6 48/108/6
f 50/109/1 51/110/1 49/111/1
f 52/112/2 55/113/2 51/114/2
f 55/115/3 54/116/3 53/117/3
f 54/118/4 49/119/4 53/120/4
f 55/121/5 49/122/5 51/123/5
f 52/124/6 54/125/6 56/126/6
f 58/127/7 59/128/7 57/129/7
f 60/130/8 61/131/8 59/128/8
f 62/132/9 63/133/9 61/134/9
f 64/135/10 65/136/10 63/133/10
f 66/137/11 67/138/11 65/136/11
f 68/139/12 69/140/12 67/138/12
f 70/141/13 71/142/13 69/143/13
f 72/144/14 73/145/14 71/142/14
f 74/146/15 75/147/15 73/145/15
f 76/148/16 77/149/16 75/147/16
f 78/150/17 79/151/17 77/152/17
f 80/153/18 81/154/18 79/151/18
f 82/155/19 83/156/19 81/154/19
f 84/157/20 85/158/20 83/156/20
f 86/159/21 87/160/21 85/161/21
f 88/162/22 57/129/22 87/160/22
f 90/163/7 91/164/7 89/165/7
f 92/166/8 93/167/8 91/164/8
f 94/168/9 95/169/9 93/170/9
f 96/171/10 97/172/10 95/169/10
f 98/173/11 99/174/11 97/172/11
f 100/175/12 101/176/12 99/174/12
f 102/177/13 103/178/13 101/179/13
f 104/180/14 105/181/14 103/178/14
f 106/182/15 107/183/15 105/181/15
f 108/184/16 109/185/16 107/183/16
f 109/186/17 112/187/17 111/188/17
f 112/187/18 113/189/18 111/188/18
f 114/190/19 115/191/19 113/189/19
f 116/192/20 117/193/20 115/191/20
f 110/194/23 102/195/23 94/196/23
f 118/197/21 119/198/21 117/199/21
f 120/200/22 89/165/22 119/198/22
f 103/201/24 111/202/24 119/203/24
f 122/204/25 123/205/25 121/206/25
f 124/207/26 125/208/26 123/209/26
f 126/210/27 127/211/27 125/208/27
f 127/212/28 130/213/28 129/214/28
f 130/213/29 131/215/29 129/214/29
f 131/216/30 134/217/30 133/218/30
f 134/219/23 130/220/23 126/221/23
f 134/217/31 135/222/31 133/218/31
f 136/223/32 121/206/32 135/224/32
f 127/225/24 131/226/24 135/227/24
f 138/228/33 139/229/33 137/230/33
f 140/231/34 141/232/34 139/229/34
f 142/233/35 143/234/35 141/235/35
f 144/236/36 145/237/36 143/234/36
f 146/238/37 147/239/37 145/237/37
f 148/240/38 149/241/38 147/239/38
f 150/242/39 151/243/39 149/244/39
f 152/245/40 153/246/40 151/243/40
f 154/247/41 155/248/41 153/246/41
f 156/249/42 157/250/42 155/248/42
f 158/251/43 159/252/43 157/253/43
f 160/254/44 161/255/44 159/252/44
f 162/256/45 163/257/45 161/255/45
f 164/258/46 165/259/46 163/257/46
f 166/260/47 167/261/47 165/262/47
f 168/263/48 137/230/48 167/261/48
f 170/264/33 171/265/33 169/266/33
f 172/267/34 173/268/34 171/265/34
f 174/269/35 175/270/35 173/271/35
f 176/272/36 177/273/36 175/270/36
f 178/274/37 179/275/37 177/273/37
f 180/276/38 181/277/38 179/275/38
f 182/278/39 183/279/39 181/280/39
f 184/281/40 185/282/40 183/279/40
f 186/283/41 187/284/41 185/282/41
f 188/285/42 189/286/42 187/284/42
f 190/287/43 191/288/43 189/289/43
f 192/290/44 193/291/44 191/288/44
f 194/292/45 195/293/45 193/291/45
f 196/294/46 197/295/46 195/293/46
f 190/296/49 182/297/49 174/298/49
f 198/299/47 199/300/47 197/301/47
f 200/302/48 169/266/48 199/300/48
f 183/303/50 191/304/50 199/305/50
f 202/306/51 203/307/51 201/308/51
f 204/309/52 205/310/52 203/311/52
f 206/312/53 207/313/53 205/310/53
f 208/314/54 209/315/54 207/316/54
f 210/317/55 211/318/55 209/315/55
f 212/319/56 213/320/56 211/321/56
f 214/322/49 210/323/49 206/324/49
f 214/325/57 215/326/57 213/320/57
f 216/327/58 201/308/58 215/328/58
f 207/329/50 211/330/50 215/331/50
f 218/332/59 219/333/59 217/334/59
f 220/335/60 223/336/60 219/337/60
f 224/338/61 221/339/61 223/340/61
f 222/341/62 217/342/62 221/343/62
f 223/344/50 217/345/50 219/346/50
f 224/347/49 218/348/49 222/349/49
f 226/350/63 227/351/63 225/352/63
f 228/353/64 231/354/64 227/355/64
f 232/356/65 229/357/65 231/358/65
f 230/359/66 225/360/66 229/361/66
f 231/362/50 225/363/50 227/364/50
f 228/365/49 230/366/49 232/367/49
f 234/368/67 235/369/67 233/370/67
f 236/371/68 239/372/68 235/373/68
f 240/374/69 237/375/69 239/376/69
f 238/377/70 233/378/70 237/379/70
f 239/380/50 233/381/50 235/382/50
f 236/383/49 238/384/49 240/385/49
f 2/1/1 4/386/1 3/2/1
f 4/4/2 8/387/2 7/5/2
f 8/7/3 6/388/3 5/8/3
f 6/10/4 2/389/4 1/11/4
f 7/13/5 5/390/5 1/14/5
f 4/16/6 2/391/6 6/17/6
f 9/19/1 10/392/1 12/20/1
f 12/22/2 16/393/2 15/23/2
f 16/25/3 14/394/3 13/26/3
f 14/28/4 10/395/4 9/29/4
f 15/31/5 13/396/5 9/32/5
f 12/34/6 10/397/6 14/35/6
f 17/37/1 18/398/1 20/38/1
f 20/40/2 24/399/2 23/41/2
f 24/43/3 22/400/3 21/44/3
f 22/46/4 18/401/4 17/47/4
f 23/49/5 21/402/5 17/50/5
f 20/52/6 18/403/6 22/53/6
f 25/55/1 26/404/1 28/56/1
f 28/58/2 32/405/2 31/59/2
f 32/61/3 30/406/3 29/62/3
f 30/64/4 26/407/4 25/65/4
f 31/67/5 29/408/5 25/68/5
f 28/70/6 26/409/6 30/71/6
f 33/73/1 34/410/1 36/74/1
f 36/76/2 40/411/2 39/77/2
f 40/79/3 38/412/3 37/80/3
f 38/82/4 34/413/4 33/83/4
f 39/85/5 37/414/5 33/86/5
f 36/88/6 34/415/6 38/89/6
f 41/91/1 42/416/1 44/92/1
f 44/94/2 48/417/2 47/95/2
f 48/97/3 46/418/3 45/98/3
f 46/100/4 42/419/4 41/101/4
f 47/103/5 45/420/5 41/104/5
f 44/106/6 42/421/6 46/107/6
f 50/109/1 52/422/1 51/110/1
f 52/112/2 56/423/2 55/113/2
f 55/115/3 56/424/3 54/116/3
f 54/118/4 50/425/4 49/119/4
f 55/121/5 53/426/5 49/122/5
f 52/124/6 50/427/6 54/125/6
f 58/127/7 60/130/7 59/128/7
f 60/130/8 62/428/8 61/131/8
f 62/132/9 64/135/9 63/133/9
f 64/135/10 66/137/10 65/136/10
f 66/137/11 68/139/11 67/138/11
f 68/139/12 70/429/12 69/140/12
f 70/141/13 72/144/13 71/142/13
f 72/144/14 74/146/14 73/145/14
f 74/146/15 76/148/15 75/147/15
f 76/148/16 78/430/16 77/149/16
f 78/150/17 80/153/17 79/151/17
f 80/153/18 82/155/18 81/154/18
f 82/155/19 84/157/19 83/156/19
f 84/157/20 86/431/20 85/158/20
f 86/159/21 88/162/21 87/160/21
f 88/162/22 58/127/22 57/129/22
f 90/163/7 92/166/7 91/164/7
f 92/166/8 94/432/8 93/167/8
f 94/168/9 96/171/9 95/169/9
f 96/171/10 98/173/10 97/172/10
f 98/173/11 100/175/11 99/174/11
f 100/175/12 102/433/12 101/176/12
f 102/177/13 104/180/13 103/178/13
f 104/180/14 106/182/14 105/181/14
f 106/182/15 108/184/15 107/183/15
f 108/184/16 110/434/16 109/185/16
f 109/186/17 110/435/17 112/187/17
f 112/187/18 114/190/18 113/189/18
f 114/190/19 116/192/19 115/191/19
f 116/192/20 118/436/20 117/193/20
f 94/196/23 92/437/23 90/438/23
f 90/438/23 120/439/23 118/440/23
f 118/440/23 116/441/23 114/442/23
f 114/442/23 112/443/23 110/194/23
f 110/194/23 108/444/23 106/445/23
f 106/445/23 104/446/23 102/195/23
f 102/195/23 100/447/23 98/448/23
f 98/448/23 96/449/23 94/196/23
f 94/196/23 90/438/23 118/440/23
f 118/440/23 114/442/23 110/194/23
f 110/194/23 106/445/23 102/195/23
f 102/195/23 98/448/23 94/196/23
f 94/196/23 118/440/23 110/194/23
f 118/197/21 120/200/21 119/198/21
f 120/200/22 90/163/22 89/165/22
f 119/203/24 89/450/24 91/451/24
f 91/451/24 93/452/24 95/453/24
f 95/453/24 97/454/24 99/455/24
f 99/455/24 101/456/24 103/201/24
f 103/201/24 105/457/24 107/458/24
f 107/458/24 109/459/24 111/202/24
f 111/202/24 113/460/24 115/461/24
f 115/461/24 117/462/24 119/203/24
f 119/203/24 91/451/24 95/453/24
f 95/453/24 99/455/24 103/201/24
f 103/201/24 107/458/24 111/202/24
f 111/202/24 115/461/24 119/203/24
f 119/203/24 95/453/24 103/201/24
f 122/204/25 124/463/25 123/205/25
f 124/207/26 126/210/26 125/208/26
f 126/210/27 128/464/27 127/211/27
f 127/212/28 128/465/28 130/213/28
f 130/213/29 132/466/29 131/215/29
f 131/216/30 132/467/30 134/217/30
f 126/221/23 124/468/23 122/469/23
f 122/469/23 136/470/23 134/219/23
f 134/219/23 132/471/23 130/220/23
f 130/220/23 128/472/23 126/221/23
f 126/221/23 122/469/23 134/219/23
f 134/217/31 136/473/31 135/222/31
f 136/223/32 122/204/32 121/206/32
f 135/227/24 121/474/24 123/475/24
f 123/475/24 125/476/24 127/225/24
f 127/225/24 129/477/24 131/226/24
f 131/226/24 133/478/24 135/227/24
f 135/227/24 123/475/24 127/225/24
f 138/228/33 140/231/33 139/229/33
f 140/231/34 142/479/34 141/232/34
f 142/233/35 144/236/35 143/234/35
f 144/236/36 146/238/36 145/237/36
f 146/238/37 148/240/37 147/239/37
f 148/240/38 150/480/38 149/241/38
f 150/242/39 152/245/39 151/243/39
f 152/245/40 154/247/40 153/246/40
f 154/247/41 156/249/41 155/248/41
f 156/249/42 158/481/42 157/250/42
f 158/251/43 160/254/43 159/252/43
f 160/254/44 162/256/44 161/255/44
f 162/256/45 164/258/45 163/257/45
f 164/258/46 166/482/46 165/259/46
f 166/260/47 168/263/47 167/261/47
f 168/263/48 138/228/48 137/230/48
f 170/264/33 172/267/33 171/265/33
f 172/267/34 174/483/34 173/268/34
f 174/269/35 176/272/35 175/270/35
f 176/272/36 178/274/36 177/273/36
f 178/274/37 180/276/37 179/275/37
f 180/276/38 182/484/38 181/277/38
f 182/278/39 184/281/39 183/279/39
f 184/281/40 186/283/40 185/282/40
f 186/283/41 188/285/41 187/284/41
f 188/285/42 190/485/42 189/286/42
f 190/287/43 192/290/43 191/288/43
f 192/290/44 194/292/44 193/291/44
f 194/292/45 196/294/45 195/293/45
f 196/294/46 198/486/46 197/295/46
f 174/298/49 172/487/49 170/488/49
f 170/488/49 200/489/49 198/490/49
f 198/490/49 196/491/49 194/492/49
f 194/492/49 192/493/49 190/296/49
f 190/296/49 188/494/49 186/495/49
f 186/495/49 184/496/49 182/297/49
f 182/297/49 180/497/49 178/498/49
f 178/498/49 176/499/49 174/298/49
f 174/298/49 170/488/49 198/490/49
f 198/490/49 194/492/49 190/296/49
f 190/296/49 186/495/49 182/297/49
f 182/297/49 178/498/49 174/298/49
f 174/298/49 198/490/49 190/296/49
f 198/299/47 200/302/47 199/300/47
f 200/302/48 170/264/48 169/266/48
f 199/305/50 169/500/50 171/501/50
f 171/501/50 173/502/50 175/503/50
f 175/503/50 177/504/50 179/505/50
f 179/505/50 181/506/50 183/303/50
f 183/303/50 185/507/50 187/508/50
f 187/508/50 189/509/50 191/304/50
f 191/304/50 193/510/50 195/511/50
f 195/511/50 197/512/50 199/305/50
f 199/305/50 171/501/50 175/503/50
f 175/503/50 179/505/50 183/303/50
f 183/303/50 187/508/50 191/304/50
f 191/304/50 195/511/50 199/305/50
f 199/305/50 175/503/50 183/303/50
f 202/306/51 204/513/51 203/307/51
f 204/309/52 206/312/52 205/310/52
f 206/312/53 208/514/53 207/313/53
f 208/314/54 210/317/54 209/315/54
f 210/317/55 212/515/55 211/318/55
f 212/319/56 214/325/56 213/320/56
f 206/324/49 204/516/49 202/517/49
f 202/517/49 216/518/49 214/322/49
f 214/322/49 212/519/49 210/323/49
f 210/323/49 208/520/49 206/324/49
f 206/324/49 202/517/49 214/322/49
f 214/325/57 216/521/57 215/326/57
f 216/327/58 202/306/58 201/308/58
f 215/331/50 201/522/50 203/523/50
f 203/523/50 205/524/50 207/329/50
f 207/329/50 209/525/50 211/330/50
f 211/330/50 213/526/50 215/331/50
f 215/331/50 203/523/50 207/329/50
f 218/332/59 220/527/59 219/333/59
f 220/335/60 224/528/60 223/336/60
f 224/338/61 222/529/61 221/339/61
f 222/341/62 218/530/62 217/342/62
f 223/344/50 221/531/50 217/345/50
f 224/347/49 220/532/49 218/348/49
f 226/350/63 228/533/63 227/351/63
f 228/353/64 232/534/64 231/354/64
f 232/356/65 230/535/65 229/357/65
f 230/359/66 226/536/66 225/360/66
f 231/362/50 229/537/50 225/363/50
f 228/365/49 226/538/49 230/366/49
f 234/368/67 236/539/67 235/369/67
f 236/371/68 240/540/68 239/372/68
f 240/374/69 238/541/69 237/375/69
f 238/377/70 234/542/70 233/378/70
f 239/380/50 237/543/50 233/381/50
f 236/383/49 234/544/49 238/384/49
