# Blender 4.5.13 LTS
# www.blender.org
o rock
v 0.309164 -0.041408 -0.004968
v 0.295273 0.002086 0.063709
v 0.220287 -0.013394 0.012784
v 0.273370 0.008612 -0.057554
v 0.360463 0.009259 -0.061581
v 0.371634 0.008364 0.030269
v 0.253729 0.063526 0.047126
v 0.222924 0.074040 -0.032569
v 0.304402 0.075311 -0.059334
v 0.371660 0.088000 -0.011493
v 0.326586 0.071337 0.057460
v 0.292007 0.111002 0.004333
v 0.235954 -0.032758 -0.195646
v 0.219168 0.001701 -0.126255
v 0.148668 -0.010156 -0.184798
v 0.192954 -0.009049 -0.284313
v 0.294563 0.005725 -0.250880
v 0.299348 0.006140 -0.156739
v 0.152621 0.080861 -0.123638
v 0.173114 0.067610 -0.222270
v 0.244383 0.092416 -0.283961
v 0.298074 0.082192 -0.199598
v 0.254573 0.072949 -0.131387
v 0.223696 0.112489 -0.190037
v 0.042357 -0.034935 -0.292240
v 0.071874 -0.008180 -0.373300
v 0.131922 -0.013745 -0.293692
v 0.070787 0.002666 -0.222257
v -0.019029 0.009794 -0.245241
v -0.002650 0.013851 -0.331007
v 0.106264 0.063005 -0.333677
v 0.111854 0.068545 -0.256619
v 0.031377 0.090466 -0.213889
v -0.019847 0.088435 -0.297020
v 0.033983 0.076172 -0.366351
v 0.064178 0.132984 -0.299416
v -0.150287 -0.063140 -0.255110
v -0.218419 -0.006579 -0.314040
v -0.124372 0.001894 -0.323454
v -0.066778 -0.001704 -0.252808
v -0.129703 0.002819 -0.179118
v -0.230757 -0.005188 -0.206331
v -0.172344 0.080930 -0.348635
v -0.089209 0.074016 -0.300063
v -0.072833 0.092535 -0.198641
v -0.173776 0.075352 -0.200761
v -0.226951 0.078561 -0.266280
v -0.149717 0.141466 -0.264429
v -0.273428 -0.028565 -0.097658
v -0.356005 -0.010465 -0.064102
v -0.336247 -0.017401 -0.166925
v -0.234747 -0.001298 -0.171690
v -0.183421 0.005566 -0.079342
v -0.270519 0.009950 -0.027581
v -0.372925 0.071822 -0.124106
v -0.295058 0.074700 -0.189239
v -0.210829 0.088409 -0.139542
v -0.234968 0.089585 -0.047045
v -0.335141 0.086616 -0.024626
v -0.295376 0.148900 -0.110466
v -0.280676 -0.030219 0.102448
v -0.323668 -0.005218 0.180230
v -0.366055 -0.004657 0.086468
v -0.293785 -0.010165 0.002963
v -0.196614 -0.005149 0.062559
v -0.232020 0.004838 0.154797
v -0.351181 0.076668 0.135131
v -0.342531 0.082729 0.039183
v -0.253026 0.071273 0.048921
v -0.205028 0.080800 0.117350
v -0.273961 0.073564 0.169274
v -0.283184 0.112758 0.102770
v -0.144849 -0.032896 0.253849
v -0.131357 0.000592 0.325260
v -0.212180 -0.005610 0.295780
v -0.218859 -0.007448 0.193513
v -0.123302 0.014875 0.198859
v -0.069246 0.005954 0.263440
v -0.184617 0.072578 0.338836
v -0.248742 0.081630 0.255367
v -0.174742 0.092299 0.172945
v -0.072266 0.097020 0.214836
v -0.098360 0.075583 0.309525
v -0.156055 0.125690 0.266812
v 0.081264 -0.066108 0.306498
v 0.006767 -0.002891 0.335752
v 0.010817 -0.010461 0.257503
v 0.085993 0.006560 0.233741
v 0.128459 0.025247 0.301331
v 0.081851 0.014920 0.375841
v -0.039945 0.057781 0.288345
v 0.025669 0.062272 0.224044
v 0.093391 0.079077 0.258718
v 0.099349 0.097768 0.338875
v 0.015509 0.076091 0.362034
v 0.027570 0.129210 0.286148
v 0.229116 -0.050681 0.191293
v 0.312945 -0.003544 0.209372
v 0.239098 -0.005343 0.279136
v 0.172572 0.008732 0.218053
v 0.164438 -0.006566 0.120608
v 0.274917 -0.004868 0.112346
v 0.294507 0.086081 0.264311
v 0.184355 0.085221 0.273959
v 0.155523 0.078913 0.178060
v 0.221712 0.079567 0.117530
v 0.288880 0.072265 0.166816
v 0.230552 0.136026 0.194471
v 0.000000 0.040000 -0.050000
v 0.441030 0.129401 -0.050000
v 0.008603 -0.002438 -0.025000
v 0.449633 0.086963 -0.025000
v 0.008603 -0.002438 0.025000
v 0.449633 0.086963 0.025000
v 0.000000 0.040000 0.050000
v 0.441030 0.129401 0.050000
v -0.008603 0.082438 0.025000
v 0.432427 0.171839 0.025000
v -0.008603 0.082438 -0.025000
v 0.432427 0.171839 -0.025000
v -0.043160 0.040000 0.025242
v -0.265813 0.129401 -0.355459
v -0.025923 -0.002438 0.005195
v -0.248575 0.086963 -0.375506
v 0.017237 -0.002438 -0.020047
v -0.205415 0.086963 -0.400748
v 0.043160 0.040000 -0.025242
v -0.179492 0.129401 -0.405944
v 0.025923 0.082438 -0.005195
v -0.196729 0.171839 -0.385897
v -0.017237 0.082438 0.020047
v -0.239889 0.171839 -0.360654
v 0.043579 0.040000 0.024513
v -0.172641 0.129401 0.408904
v 0.017572 -0.002438 0.019754
v -0.198648 0.086963 0.404145
v -0.026007 -0.002438 -0.004759
v -0.242227 0.086963 0.379632
v -0.043579 0.040000 -0.024513
v -0.259799 0.129401 0.359878
v -0.017572 0.082438 -0.019754
v -0.233792 0.171839 0.364637
v 0.026007 0.082438 0.004759
v -0.190213 0.171839 0.389150
v 0.000000 0.000000 -0.220000
v 0.000000 0.020000 -0.220000
v 0.129313 0.000000 -0.177984
v 0.129313 0.020000 -0.177984
v 0.209232 0.000000 -0.067984
v 0.209232 0.020000 -0.067984
v 0.209232 0.000000 0.067984
v 0.209232 0.020000 0.067984
v 0.129313 0.000000 0.177984
v 0.129313 0.020000 0.177984
v 0.000000 0.000000 0.220000
v 0.000000 0.020000 0.220000
v -0.129313 0.000000 0.177984
v -0.129313 0.020000 0.177984
v -0.209232 0.000000 0.067984
v -0.209232 0.020000 0.067984
v -0.209232 0.000000 -0.067984
v -0.209232 0.020000 -0.067984
v -0.129313 0.000000 -0.177984
v -0.129313 0.020000 -0.177984
vn -0.1667 -0.8479 0.5033
vn 0.3058 -0.7752 0.5528
vn -0.3496 -0.7861 -0.5098
vn -0.0260 -0.7331 -0.6796
vn 0.6502 -0.7549 -0.0864
vn 0.4061 -0.1017 0.9082
vn -0.5367 -0.1383 0.8324
vn -0.7111 -0.3067 -0.6326
vn -0.0461 -0.0052 -0.9989
vn 0.9906 -0.0638 -0.1211
vn -0.1553 0.1582 0.9751
vn -0.8991 0.2226 0.3769
vn -0.3115 0.1198 -0.9427
vn 0.4700 0.4252 -0.7735
vn 0.7638 0.2995 0.5717
vn -0.1720 0.7324 0.6588
vn -0.5745 0.7528 0.3214
vn -0.1798 0.8427 -0.5074
vn 0.1613 0.8739 -0.4585
vn 0.3278 0.8468 0.4189
vn -0.1825 -0.8975 0.4015
vn 0.2283 -0.8489 0.4768
vn -0.2635 -0.9561 -0.1279
vn 0.2495 -0.8985 -0.3613
vn 0.5332 -0.8456 -0.0234
vn 0.3586 -0.1114 0.9268
vn -0.5198 -0.4608 0.7193
vn -0.9102 0.0914 -0.4040
vn 0.3297 -0.1639 -0.9297
vn 0.9986 -0.0118 -0.0507
vn 0.0783 0.0329 0.9964
vn -0.9554 0.1922 -0.2243
vn -0.6799 0.3469 -0.6460
vn 0.8229 0.2899 -0.4886
vn 0.7795 0.3174 0.5401
vn 0.1052 0.8494 0.5172
vn -0.5631 0.7955 -0.2239
vn -0.5269 0.8000 -0.2870
vn 0.3616 0.9248 -0.1180
vn 0.3911 0.8453 0.3640
vn 0.2204 -0.9473 -0.2324
vn -0.4703 -0.7727 -0.4263
vn 0.2178 -0.8939 0.3918
vn -0.2001 -0.8269 0.5256
vn -0.6586 -0.7352 -0.1605
vn -0.5234 -0.1663 -0.8357
vn 0.7958 -0.0484 -0.6036
vn 0.7411 -0.1171 0.6611
vn -0.2579 -0.2057 0.9440
vn -0.9718 -0.1366 -0.1921
vn 0.4369 0.2670 -0.8589
vn 0.9577 0.2737 -0.0892
vn 0.4938 0.1399 0.8583
vn -0.8113 0.3156 0.4922
vn -0.7766 0.1041 -0.6214
vn 0.4194 0.5900 -0.6900
vn 0.8304 0.5482 -0.0997
vn 0.4734 0.7029 0.5310
vn -0.4473 0.8574 0.2547
vn -0.4246 0.7757 -0.4669
vn -0.0039 -0.7237 -0.6901
vn -0.6068 -0.7927 -0.0593
vn 0.5316 -0.7051 -0.4693
vn 0.5112 -0.7128 0.4802
vn -0.1221 -0.7329 0.6692
vn -0.9929 -0.0360 -0.1133
vn -0.0636 -0.3378 -0.9391
vn 0.7600 -0.1669 -0.6281
vn 0.7122 -0.3149 0.6274
vn -0.2671 0.1229 0.9558
vn -0.8162 0.2183 -0.5349
vn 0.5062 0.0327 -0.8618
vn 0.9675 0.1698 -0.1872
vn -0.0629 0.2501 0.9662
vn -0.6848 0.4445 0.5775
vn -0.5826 0.7260 -0.3654
vn 0.4090 0.6853 -0.6026
vn 0.6577 0.7151 -0.2368
vn -0.1357 0.7124 0.6885
vn -0.5588 0.6717 0.4864
vn -0.2036 -0.9787 0.0269
vn 0.0036 -0.8764 0.4815
vn 0.1378 -0.9506 -0.2781
vn 0.3760 -0.9159 -0.1409
vn 0.2310 -0.8567 0.4612
vn -0.3136 -0.2991 0.9012
vn -0.9376 -0.3090 -0.1593
vn -0.0089 -0.2317 -0.9727
vn 0.8744 -0.0606 -0.4815
vn 0.5101 -0.0176 0.8599
vn -0.9361 0.0602 0.3466
vn -0.6405 0.1020 -0.7612
vn 0.4778 0.1807 -0.8597
vn 0.8669 0.4471 0.2206
vn 0.2122 0.1416 0.9669
vn -0.7097 0.6843 0.1678
vn -0.5154 0.6227 -0.5887
vn 0.2746 0.7005 -0.6587
vn 0.6088 0.7792 0.1490
vn 0.1152 0.7779 0.6178
vn -0.3071 -0.9423 0.1332
vn 0.2094 -0.8913 0.4022
vn -0.2558 -0.9536 -0.1585
vn 0.1828 -0.9588 -0.2174
vn 0.3813 -0.8920 0.2429
vn 0.2710 -0.0372 0.9619
vn -0.9085 -0.0793 0.4102
vn -0.7529 -0.1447 -0.6420
vn 0.5016 0.2210 -0.8364
vn 0.9184 -0.1448 0.3682
vn -0.3668 0.3512 0.8615
vn -0.9723 0.2219 -0.0736
vn 0.1516 0.4271 -0.8914
vn 0.7118 0.4258 -0.5586
vn 0.5787 0.1859 0.7941
vn -0.1955 0.8328 0.5179
vn -0.4635 0.8860 0.0142
vn 0.1645 0.8238 -0.5425
vn 0.4098 0.8191 -0.4015
vn 0.2600 0.8472 0.4633
vn -0.0906 -0.8950 0.4368
vn 0.3989 -0.8569 0.3265
vn -0.3538 -0.9345 0.0399
vn 0.2147 -0.7774 -0.5912
vn 0.4484 -0.7543 -0.4795
vn 0.7030 -0.1641 0.6920
vn -0.2909 -0.3808 0.8777
vn -0.9309 -0.3590 0.0672
vn 0.1117 -0.2479 -0.9623
vn 0.7059 -0.3152 -0.6344
vn 0.3194 0.0579 0.9458
vn -0.7947 -0.0529 0.6048
vn -0.7421 0.1961 -0.6409
vn 0.3800 -0.0565 -0.9233
vn 0.9342 0.1915 0.3008
vn 0.1879 0.7534 0.6301
vn -0.4316 0.7993 0.4182
vn -0.3929 0.8883 -0.2378
vn 0.1007 0.9309 -0.3512
vn 0.4771 0.8196 0.3171
vn -0.6369 -0.7698 0.0415
vn -0.2445 -0.6294 0.7376
vn -0.0642 -0.7040 -0.7073
vn 0.8100 -0.4404 -0.3872
vn 0.8040 -0.3900 0.4489
vn -0.4102 -0.2468 0.8780
vn -0.7986 -0.6017 0.0169
vn -0.2011 -0.3752 -0.9049
vn 0.8288 0.1048 -0.5497
vn 0.8424 0.0610 0.5354
vn -0.7790 -0.1187 0.6157
vn -0.6811 -0.1866 -0.7080
vn 0.3866 0.2648 -0.8834
vn 0.8816 0.4410 -0.1684
vn 0.1555 0.3749 0.9139
vn -0.6761 0.6498 0.3474
vn -0.6026 0.5519 -0.5764
vn 0.2045 0.6626 -0.7205
vn 0.5272 0.8180 -0.2299
vn -0.0561 0.8221 0.5666
vn 0.3868 -0.8366 0.3879
vn 0.5120 -0.8379 -0.1892
vn -0.5481 -0.7162 0.4319
vn -0.6748 -0.7184 0.1691
vn -0.0251 -0.8582 -0.5126
vn 0.9269 0.0896 -0.3645
vn 0.6612 -0.2885 0.6925
vn -0.6699 -0.3681 0.6448
vn -0.9784 -0.1754 0.1092
vn -0.0748 0.0141 -0.9971
vn 0.9628 0.2542 -0.0916
vn 0.0859 0.1085 0.9904
vn -0.9544 -0.0659 0.2913
vn -0.6234 0.3903 -0.6775
vn 0.5695 0.4029 -0.7165
vn 0.6997 0.7007 -0.1397
vn 0.0422 0.8305 0.5554
vn -0.6187 0.7739 0.1351
vn -0.4569 0.7414 -0.4915
vn 0.4805 0.6798 -0.5541
vn 0.0993 -0.4900 -0.8660
vn 0.1987 -0.9801 -0.0000
vn 0.0993 -0.4900 0.8660
vn -0.0993 0.4900 0.8660
vn 0.9801 0.1987 -0.0000
vn -0.1987 0.9801 -0.0000
vn -0.0993 0.4900 -0.8660
vn -0.9801 -0.1987 -0.0000
vn -0.7977 -0.4900 0.3515
vn -0.1003 -0.9801 -0.1715
vn 0.6974 -0.4900 -0.5230
vn 0.7977 0.4900 -0.3515
vn -0.4948 0.1987 -0.8460
vn 0.1003 0.9801 0.1715
vn -0.6974 0.4900 0.5230
vn 0.4948 -0.1987 0.8460
vn 0.7061 -0.4900 0.5112
vn -0.0974 -0.9801 0.1732
vn -0.8035 -0.4900 -0.3380
vn -0.7061 0.4900 -0.5112
vn -0.4805 0.1987 0.8542
vn 0.0974 0.9801 -0.1732
vn 0.8035 0.4900 0.3380
vn 0.4805 -0.1987 -0.8542
vn 0.3090 -0.0000 -0.9511
vn 0.8090 -0.0000 -0.5878
vn 1.0000 -0.0000 -0.0000
vn 0.8090 -0.0000 0.5878
vn 0.3090 -0.0000 0.9511
vn -0.3090 -0.0000 0.9511
vn -0.8090 -0.0000 0.5878
vn -1.0000 -0.0000 -0.0000
vn -0.0000 1.0000 -0.0000
vn -0.8090 -0.0000 -0.5878
vn -0.3090 -0.0000 -0.9511
vn -0.0000 -1.0000 -0.0000
vt 0.770691 0.754671
vt 0.819014 0.768179
vt 0.777679 0.815362
vt 0.802831 0.713466
vt 0.735844 0.772838
vt 0.739978 0.713466
vt 0.107353 0.673424
vt 0.104514 0.618967
vt 0.151245 0.645320
vt 0.104514 0.721557
vt 0.153062 0.694311
vt 0.995239 0.965315
vt 0.943671 0.958253
vt 0.995239 0.915037
vt 0.938751 0.854918
vt 0.933607 0.910688
vt 0.890208 0.886851
vt 0.897894 0.560423
vt 0.890277 0.498013
vt 0.947004 0.524316
vt 0.943047 0.902552
vt 0.885817 0.934361
vt 0.885817 0.832619
vt 0.947004 0.571648
vt 0.803783 0.005166
vt 0.825884 0.050217
vt 0.783203 0.038923
vt 0.745268 0.002148
vt 0.745268 0.060760
vt 0.790414 0.094134
vt 0.691700 0.054890
vt 0.740972 0.043804
vt 0.723961 0.104617
vt 0.699627 0.002148
vt 0.649692 0.104617
vt 0.642457 0.031246
vt 0.544993 0.884530
vt 0.542606 0.827770
vt 0.590942 0.855238
vt 0.542606 0.928676
vt 0.603525 0.924167
vt 0.137930 0.735892
vt 0.134279 0.805642
vt 0.083207 0.776753
vt 0.432153 0.878617
vt 0.432153 0.952421
vt 0.368405 0.909641
vt 0.651912 0.915164
vt 0.643435 0.851348
vt 0.699112 0.879265
vt 0.070699 0.844458
vt 0.070699 0.730924
vt 0.703247 0.820167
vt 0.703247 0.925453
vt 0.684660 0.228421
vt 0.642457 0.172626
vt 0.687305 0.161860
vt 0.725724 0.173425
vt 0.725724 0.108913
vt 0.658007 0.119476
vt 0.695913 0.766507
vt 0.725652 0.815871
vt 0.658371 0.815871
vt 0.731548 0.757702
vt 0.643435 0.753030
vt 0.692114 0.713466
vt 0.542606 0.823474
vt 0.549476 0.776265
vt 0.585319 0.823474
vt 0.759775 0.194057
vt 0.730020 0.162716
vt 0.762383 0.131607
vt 0.809190 0.219222
vt 0.807817 0.161760
vt 0.319570 0.882785
vt 0.322738 0.930474
vt 0.270094 0.906287
vt 0.322738 0.823240
vt 0.264241 0.847024
vt 0.613809 0.774393
vt 0.944825 0.383922
vt 0.897852 0.345136
vt 0.944825 0.321009
vt 0.582110 0.730145
vt 0.633905 0.820949
vt 0.809190 0.108913
vt 0.898453 0.288766
vt 0.537820 0.932789
vt 0.476085 0.941264
vt 0.485654 0.897201
vt 0.533499 0.866263
vt 0.476085 0.849176
vt 0.046602 0.678811
vt 0.015649 0.726628
vt 0.002148 0.663227
vt 0.089553 0.726628
vt 0.045019 0.618967
vt 0.100218 0.655687
vt 0.823310 0.908061
vt 0.824233 0.834045
vt 0.881521 0.874934
vt 0.360999 0.358937
vt 0.364108 0.418515
vt 0.306051 0.393608
vt 0.364108 0.307046
vt 0.312404 0.329645
vt 0.826392 0.761515
vt 0.823310 0.713466
vt 0.886903 0.719900
vt 0.823310 0.828323
vt 0.877138 0.788622
vt 0.881521 0.933531
vt 0.950751 0.800117
vt 0.896050 0.770013
vt 0.950751 0.725844
vt 0.877116 0.832619
vt 0.476085 0.722152
vt 0.538310 0.748457
vt 0.494984 0.777347
vt 0.264241 0.360329
vt 0.891199 0.713466
vt 0.532786 0.805909
vt 0.476085 0.844880
vt 0.429370 0.473737
vt 0.423479 0.534091
vt 0.368404 0.488157
vt 0.474926 0.495046
vt 0.400283 0.425853
vt 0.472564 0.425853
vt 0.002148 0.849827
vt 0.010124 0.793407
vt 0.066403 0.832550
vt 0.827315 0.687985
vt 0.826798 0.616786
vt 0.886766 0.652254
vt 0.884502 0.497567
vt 0.825851 0.527969
vt 0.827350 0.461863
vt 0.950203 0.472822
vt 0.890277 0.493716
vt 0.891770 0.431218
vt 0.002148 0.730924
vt 0.062250 0.762928
vt 0.889905 0.585611
vt 0.889905 0.700040
vt 0.885980 0.431962
vt 0.950203 0.407304
vt 0.391243 0.538387
vt 0.463635 0.538387
vt 0.417110 0.584332
vt 0.368405 0.603917
vt 0.825851 0.407304
vt 0.473483 0.607831
vt 0.420248 0.645663
vt 0.523360 0.368470
vt 0.519032 0.307046
vt 0.576769 0.346345
vt 0.474112 0.354327
vt 0.564745 0.420947
vt 0.486895 0.420947
vt 0.882907 0.195771
vt 0.888238 0.131460
vt 0.935835 0.159673
vt 0.761585 0.469268
vt 0.757387 0.407304
vt 0.815331 0.434942
vt 0.757387 0.529607
vt 0.821554 0.500600
vt 0.895851 0.002148
vt 0.895851 0.077791
vt 0.841542 0.038914
vt 0.600513 0.932972
vt 0.600513 0.996604
vt 0.548259 0.950215
vt 0.940154 0.209577
vt 0.830180 0.098780
vt 0.542606 0.997008
vt 0.940154 0.108913
vt 0.805134 0.602177
vt 0.822502 0.657248
vt 0.777387 0.645432
vt 0.739220 0.600707
vt 0.739220 0.662386
vt 0.781881 0.700040
vt 0.403922 0.703706
vt 0.453742 0.689488
vt 0.437581 0.746173
vt 0.408862 0.649959
vt 0.368405 0.755721
vt 0.368405 0.689401
vt 0.894201 0.632517
vt 0.895742 0.585611
vt 0.943972 0.605559
vt 0.894201 0.685429
vt 0.945620 0.666336
vt 0.433434 0.781286
vt 0.427100 0.850458
vt 0.368405 0.819713
vt 0.869322 0.156714
vt 0.878611 0.221183
vt 0.813486 0.190901
vt 0.878611 0.108913
vt 0.816533 0.115491
vt 0.372749 0.874321
vt 0.368405 0.760017
vt 0.943047 0.876555
vt 0.997852 0.832619
vt 0.997852 0.898255
vt 0.398971 0.421557
vt 0.368405 0.367325
vt 0.418267 0.371519
vt 0.469816 0.408147
vt 0.469816 0.332375
vt 0.398623 0.307046
vt 0.689327 0.233058
vt 0.689327 0.286915
vt 0.642457 0.260492
vt 0.792197 0.893503
vt 0.735844 0.931444
vt 0.745267 0.877978
vt 0.636304 0.701076
vt 0.581066 0.662556
vt 0.625468 0.652669
vt 0.250670 0.810098
vt 0.181115 0.810098
vt 0.208264 0.771387
vt 0.246158 0.737745
vt 0.792933 0.839888
vt 0.305444 0.818944
vt 0.264241 0.784356
vt 0.313674 0.765910
vt 0.584848 0.613669
vt 0.159484 0.763538
vt 0.190149 0.716492
vt 0.280145 0.730319
vt 0.352672 0.791745
vt 0.636304 0.602874
vt 0.735844 0.819658
vt 0.002148 0.854124
vt 0.059264 0.879790
vt 0.009460 0.898955
vt 0.343632 0.730319
vt 0.599601 0.567001
vt 0.056080 0.939025
vt 0.002148 0.947329
vt 0.217087 0.663526
vt 0.159484 0.643137
vt 0.214106 0.600322
vt 0.179303 0.711199
vt 0.254967 0.644648
vt 0.643435 0.663230
vt 0.685010 0.640586
vt 0.678059 0.707066
vt 0.254967 0.712196
vt 0.891434 0.372773
vt 0.832065 0.403007
vt 0.839738 0.340336
vt 0.070699 0.904055
vt 0.070699 0.848754
vt 0.131617 0.862680
vt 0.671122 0.602460
vt 0.734924 0.600707
vt 0.734763 0.664908
vt 0.219930 0.892662
vt 0.159484 0.928757
vt 0.161388 0.859754
vt 0.893555 0.299981
vt 0.134298 0.938199
vt 0.734924 0.709170
vt 0.210017 0.836173
vt 0.832065 0.288766
vt 0.827769 0.375510
vt 0.757387 0.403007
vt 0.775451 0.339794
vt 0.816295 0.308194
vt 0.757387 0.291211
vt 0.159484 0.814394
vt 0.094686 0.606035
vt 0.094686 0.312408
vt 0.124803 0.307597
vt 0.124803 0.601225
vt 0.643435 0.596411
vt 0.643435 0.291653
vt 0.677455 0.291211
vt 0.677455 0.595969
vt 0.002148 0.612785
vt 0.002148 0.307046
vt 0.031653 0.308931
vt 0.031653 0.614670
vt 0.061341 0.307081
vt 0.061341 0.612820
vt 0.941995 0.265117
vt 0.912451 0.282221
vt 0.882907 0.265152
vt 0.882907 0.230978
vt 0.912451 0.213873
vt 0.941995 0.230943
vt 0.576769 0.425243
vt 0.576769 0.725651
vt 0.542606 0.725849
vt 0.542606 0.425441
vt 0.065638 0.600673
vt 0.065638 0.307046
vt 0.959333 0.018940
vt 0.959333 0.052683
vt 0.929740 0.069634
vt 0.900147 0.052842
vt 0.900147 0.019099
vt 0.929740 0.002148
vt 0.606793 0.562705
vt 0.606793 0.303299
vt 0.639139 0.297371
vt 0.639139 0.556777
vt 0.538310 0.425243
vt 0.538310 0.717780
vt 0.504135 0.717856
vt 0.504135 0.425320
vt 0.129099 0.572623
vt 0.133455 0.343175
vt 0.164986 0.352282
vt 0.160630 0.581729
vt 0.720042 0.565274
vt 0.720042 0.291211
vt 0.753091 0.295162
vt 0.753091 0.569224
vt 0.129099 0.320557
vt 0.156274 0.307046
vt 0.187805 0.316153
vt 0.192161 0.338771
vt 0.264241 0.726023
vt 0.264241 0.422816
vt 0.298417 0.422811
vt 0.298417 0.726018
vt 0.581066 0.550617
vt 0.581066 0.291211
vt 0.786974 0.242394
vt 0.786974 0.273937
vt 0.758497 0.286605
vt 0.730020 0.267729
vt 0.730020 0.236186
vt 0.758497 0.223518
vt 0.614123 0.275828
vt 0.614123 0.002148
vt 0.638161 0.013235
vt 0.638161 0.286915
vt 0.681751 0.595456
vt 0.681751 0.291211
vt 0.715745 0.291728
vt 0.715745 0.595972
vt 0.196457 0.590906
vt 0.196457 0.310750
vt 0.228302 0.315870
vt 0.228302 0.596026
vt 0.254967 0.307046
vt 0.254967 0.587202
vt 0.774161 0.592274
vt 0.757387 0.563089
vt 0.768459 0.533903
vt 0.796305 0.533903
vt 0.813079 0.563089
vt 0.802007 0.592274
vt 0.336875 0.423015
vt 0.336875 0.723524
vt 0.302713 0.723321
vt 0.302713 0.422811
vt 0.581066 0.279785
vt 0.581066 0.006106
vt 0.672249 0.929749
vt 0.701063 0.947871
vt 0.701063 0.981298
vt 0.672249 0.996603
vt 0.643435 0.978481
vt 0.643435 0.945054
vt 0.456471 0.835974
vt 0.470134 0.835846
vt 0.471034 0.928772
vt 0.457371 0.928899
vt 0.354708 0.666128
vt 0.341172 0.666109
vt 0.348791 0.590398
vt 0.362328 0.590417
vt 0.348791 0.497467
vt 0.362328 0.497485
vt 0.341172 0.422811
vt 0.354708 0.422830
vt 0.451396 0.935834
vt 0.437731 0.935795
vt 0.438509 0.844861
vt 0.452175 0.844900
vt 0.437731 0.760017
vt 0.451396 0.760056
vt 0.499839 0.668087
vt 0.486188 0.668040
vt 0.483269 0.596551
vt 0.496920 0.596598
vt 0.483269 0.503810
vt 0.496920 0.503858
vt 0.002148 0.106013
vt 0.056774 0.030859
vt 0.145161 0.002148
vt 0.233549 0.030847
vt 0.288175 0.105994
vt 0.288175 0.198885
vt 0.233548 0.274039
vt 0.145161 0.302750
vt 0.056774 0.274051
vt 0.002148 0.198904
vt 0.486188 0.425243
vt 0.499839 0.425290
vt 0.457370 0.760144
vt 0.471034 0.760017
vt 0.292471 0.105516
vt 0.346767 0.030552
vt 0.434620 0.002148
vt 0.522473 0.031154
vt 0.576769 0.106491
vt 0.576769 0.199382
vt 0.522473 0.274346
vt 0.434620 0.302750
vt 0.346767 0.273744
vt 0.292471 0.198407
s 0
f 1/1/1 2/2/1 3/3/1
f 2/2/2 1/1/2 6/4/2
f 1/1/3 3/3/3 4/5/3
f 1/1/4 4/5/4 5/6/4
f 1/1/5 5/6/5 6/4/5
f 2/7/6 6/8/6 11/9/6
f 3/10/7 2/7/7 7/11/7
f 4/12/8 3/13/8 8/14/8
f 5/15/9 4/16/9 9/17/9
f 6/18/10 5/19/10 10/20/10
f 2/7/11 11/9/11 7/11/11
f 3/13/12 7/21/12 8/14/12
f 4/16/13 8/22/13 9/17/13
f 5/15/14 9/17/14 10/23/14
f 6/18/15 10/20/15 11/24/15
f 7/25/16 11/26/16 12/27/16
f 8/28/17 7/25/17 12/27/17
f 9/29/18 8/28/18 12/27/18
f 10/30/19 9/29/19 12/27/19
f 11/26/20 10/30/20 12/27/20
f 13/31/21 14/32/21 15/33/21
f 14/32/22 13/31/22 18/34/22
f 13/31/23 15/33/23 16/35/23
f 13/31/24 16/35/24 17/36/24
f 13/31/25 17/36/25 18/34/25
f 14/37/26 18/38/26 23/39/26
f 15/40/27 14/37/27 19/41/27
f 16/42/28 15/43/28 20/44/28
f 17/45/29 16/46/29 21/47/29
f 18/48/30 17/49/30 22/50/30
f 14/37/31 23/39/31 19/41/31
f 15/43/32 19/51/32 20/44/32
f 16/42/33 20/44/33 21/52/33
f 17/49/34 21/53/34 22/50/34
f 18/48/35 22/50/35 23/54/35
f 19/55/36 23/56/36 24/57/36
f 20/58/37 19/55/37 24/57/37
f 21/59/38 20/58/38 24/57/38
f 22/60/39 21/59/39 24/57/39
f 23/56/40 22/60/40 24/57/40
f 25/61/41 26/62/41 27/63/41
f 26/62/42 25/61/42 30/64/42
f 25/61/43 27/63/43 28/65/43
f 25/61/44 28/65/44 29/66/44
f 25/67/45 29/68/45 30/69/45
f 26/70/46 30/71/46 35/72/46
f 27/73/47 26/70/47 31/74/47
f 28/75/48 27/76/48 32/77/48
f 29/78/49 28/75/49 33/79/49
f 30/69/50 29/68/50 34/80/50
f 26/70/51 35/72/51 31/74/51
f 27/81/52 31/82/52 32/83/52
f 28/75/53 32/77/53 33/79/53
f 29/68/54 33/84/54 34/80/54
f 30/69/55 34/80/55 35/85/55
f 31/74/56 35/72/56 36/86/56
f 32/83/57 31/82/57 36/87/57
f 33/88/58 32/89/58 36/90/58
f 34/91/59 33/88/59 36/90/59
f 35/92/60 34/91/60 36/90/60
f 37/93/61 38/94/61 39/95/61
f 38/94/62 37/93/62 42/96/62
f 37/93/63 39/95/63 40/97/63
f 37/93/64 40/97/64 41/98/64
f 37/93/65 41/98/65 42/96/65
f 38/99/66 42/100/66 47/101/66
f 39/102/67 38/103/67 43/104/67
f 40/105/68 39/102/68 44/106/68
f 41/107/69 40/108/69 45/109/69
f 42/110/70 41/107/70 46/111/70
f 38/99/71 47/101/71 43/112/71
f 39/102/72 43/104/72 44/106/72
f 40/113/73 44/114/73 45/115/73
f 41/107/74 45/109/74 46/111/74
f 42/100/75 46/116/75 47/101/75
f 43/117/76 47/118/76 48/119/76
f 44/106/77 43/104/77 48/120/77
f 45/115/78 44/114/78 48/121/78
f 46/122/79 45/123/79 48/119/79
f 47/118/80 46/122/80 48/119/80
f 49/124/81 50/125/81 51/126/81
f 50/125/82 49/124/82 54/127/82
f 49/124/83 51/126/83 52/128/83
f 49/124/84 52/128/84 53/129/84
f 49/124/85 53/129/85 54/127/85
f 50/130/86 54/131/86 59/132/86
f 51/133/87 50/134/87 55/135/87
f 52/136/88 51/137/88 56/138/88
f 53/139/89 52/140/89 57/141/89
f 54/131/90 53/142/90 58/143/90
f 50/134/91 59/144/91 55/135/91
f 51/133/92 55/135/92 56/145/92
f 52/136/93 56/138/93 57/146/93
f 53/139/94 57/141/94 58/147/94
f 54/131/95 58/143/95 59/132/95
f 55/148/96 59/149/96 60/150/96
f 56/151/97 55/148/97 60/150/97
f 57/146/98 56/138/98 60/152/98
f 58/153/99 57/154/99 60/150/99
f 59/149/100 58/153/100 60/150/100
f 61/155/101 62/156/101 63/157/101
f 62/156/102 61/155/102 66/158/102
f 61/155/103 63/157/103 64/159/103
f 61/155/104 64/159/104 65/160/104
f 61/155/105 65/160/105 66/158/105
f 62/161/106 66/162/106 71/163/106
f 63/164/107 62/165/107 67/166/107
f 64/167/108 63/164/108 68/168/108
f 65/169/109 64/170/109 69/171/109
f 66/172/110 65/173/110 70/174/110
f 62/161/111 71/163/111 67/175/111
f 63/164/112 67/166/112 68/168/112
f 64/170/113 68/176/113 69/171/113
f 65/173/114 69/177/114 70/174/114
f 66/162/115 70/178/115 71/163/115
f 67/179/116 71/180/116 72/181/116
f 68/182/117 67/179/117 72/181/117
f 69/183/118 68/182/118 72/181/118
f 70/184/119 69/183/119 72/181/119
f 71/180/120 70/184/120 72/181/120
f 73/185/121 74/186/121 75/187/121
f 74/186/122 73/185/122 78/188/122
f 73/185/123 75/187/123 76/189/123
f 73/185/124 76/189/124 77/190/124
f 73/185/125 77/190/125 78/188/125
f 74/191/126 78/192/126 83/193/126
f 75/194/127 74/191/127 79/195/127
f 76/196/128 75/197/128 80/198/128
f 77/199/129 76/200/129 81/201/129
f 78/202/130 77/199/130 82/203/130
f 74/191/131 83/193/131 79/195/131
f 75/197/132 79/204/132 80/198/132
f 76/196/133 80/198/133 81/205/133
f 77/199/134 81/201/134 82/203/134
f 78/206/135 82/207/135 83/208/135
f 79/209/136 83/210/136 84/211/136
f 80/212/137 79/209/137 84/211/137
f 81/213/138 80/212/138 84/211/138
f 82/214/139 81/213/139 84/211/139
f 83/210/140 82/214/140 84/211/140
f 85/215/141 86/216/141 87/217/141
f 86/218/142 85/219/142 90/220/142
f 85/221/143 87/222/143 88/223/143
f 85/224/144 88/225/144 89/226/144
f 85/224/145 89/226/145 90/227/145
f 86/218/146 90/220/146 95/228/146
f 87/229/147 86/230/147 91/231/147
f 88/223/148 87/222/148 92/232/148
f 89/226/149 88/225/149 93/233/149
f 90/227/150 89/226/150 94/234/150
f 86/230/151 95/235/151 91/231/151
f 87/229/152 91/231/152 92/236/152
f 88/223/153 92/232/153 93/237/153
f 89/226/154 93/233/154 94/234/154
f 90/220/155 94/238/155 95/228/155
f 91/239/156 95/240/156 96/241/156
f 92/236/157 91/231/157 96/242/157
f 93/237/158 92/232/158 96/243/158
f 94/244/159 93/245/159 96/241/159
f 95/240/160 94/244/160 96/241/160
f 97/246/161 98/247/161 99/248/161
f 98/247/162 97/246/162 102/249/162
f 97/246/163 99/248/163 100/250/163
f 97/251/164 100/252/164 101/253/164
f 97/246/165 101/254/165 102/249/165
f 98/255/166 102/256/166 107/257/166
f 99/258/167 98/259/167 103/260/167
f 100/252/168 99/261/168 104/262/168
f 101/253/169 100/252/169 105/263/169
f 102/264/170 101/265/170 106/266/170
f 98/255/171 107/257/171 103/267/171
f 99/258/172 103/260/172 104/268/172
f 100/252/173 104/262/173 105/263/173
f 101/253/174 105/263/174 106/269/174
f 102/264/175 106/266/175 107/270/175
f 103/267/176 107/257/176 108/271/176
f 104/272/177 103/273/177 108/274/177
f 105/275/178 104/272/178 108/274/178
f 106/276/179 105/275/179 108/274/179
f 107/270/180 106/266/180 108/277/180
f 109/278/181 110/279/181 112/280/181 111/281/181
f 111/282/182 112/283/182 114/284/182 113/285/182
f 113/286/183 114/287/183 116/288/183 115/289/183
f 115/289/184 116/288/184 118/290/184 117/291/184
f 112/292/185 110/293/185 120/294/185 118/295/185 116/296/185 114/297/185
f 117/298/186 118/299/186 120/300/186 119/301/186
f 119/302/187 120/303/187 110/279/187 109/278/187
f 109/304/188 111/305/188 113/306/188 115/307/188 117/308/188 119/309/188
f 121/310/189 122/311/189 124/312/189 123/313/189
f 123/314/190 124/315/190 126/316/190 125/317/190
f 125/318/191 126/319/191 128/320/191 127/321/191
f 127/322/192 128/323/192 130/324/192 129/325/192
f 124/326/193 122/327/193 132/328/193 130/329/193 128/320/193 126/319/193
f 129/330/194 130/331/194 132/332/194 131/333/194
f 131/334/195 132/335/195 122/311/195 121/310/195
f 121/336/196 123/337/196 125/338/196 127/339/196 129/340/196 131/341/196
f 133/342/197 134/343/197 136/344/197 135/345/197
f 135/346/198 136/347/198 138/348/198 137/349/198
f 137/350/199 138/351/199 140/352/199 139/353/199
f 139/353/200 140/352/200 142/354/200 141/355/200
f 136/356/201 134/357/201 144/358/201 142/359/201 140/360/201 138/361/201
f 141/362/202 142/363/202 144/364/202 143/365/202
f 143/366/203 144/367/203 134/343/203 133/342/203
f 133/368/204 135/369/204 137/370/204 139/371/204 141/372/204 143/373/204
f 145/374/205 146/375/205 148/376/205 147/377/205
f 147/378/206 148/379/206 150/380/206 149/381/206
f 149/381/207 150/380/207 152/382/207 151/383/207
f 151/383/208 152/382/208 154/384/208 153/385/208
f 153/386/209 154/387/209 156/388/209 155/389/209
f 155/389/210 156/388/210 158/390/210 157/391/210
f 157/392/211 158/393/211 160/394/211 159/395/211
f 159/395/212 160/394/212 162/396/212 161/397/212
f 148/398/213 146/399/213 164/400/213 162/401/213 160/402/213 158/403/213 156/404/213 154/405/213 152/406/213 150/407/213
f 161/397/214 162/396/214 164/408/214 163/409/214
f 163/410/215 164/411/215 146/375/215 145/374/215
f 145/412/216 147/413/216 149/414/216 151/415/216 153/416/216 155/417/216 157/418/216 159/419/216 161/420/216 163/421/216
