# The Giants of Holst prop, from CC0 kits by KayKit (Kay Lousberg) and Kenney
v 0.0000 0.0000 0.0764
vt 0.0645 0.0538
vn 0.0000 0.0000 1.0000
v 0.0000 0.2589 0.0764
vt 0.0645 0.1872
vn -0.1065 0.3044 0.9466
v -0.0491 0.2369 0.0585
vt 0.0827 0.1872
vn -0.6708 0.2532 0.6971
v -0.0491 0.0000 0.0585
vt 0.0827 0.0538
vn -0.6428 -0.0000 0.7660
f 1/1/1 2/2/2 3/3/3 4/4/4
v -0.0491 0.0000 0.0585
vt 0.0827 0.0538
vn -0.6428 -0.0000 0.7660
v -0.0491 0.2369 0.0585
vt 0.0827 0.1872
vn -0.6708 0.2532 0.6971
v -0.0752 0.2251 0.0133
vt 0.0924 0.1872
vn -0.9607 0.2294 0.1561
v -0.0752 0.0000 0.0133
vt 0.0924 0.0538
vn -0.9848 0.0000 0.1736
f 5/5/5 6/6/6 7/7/7 8/8/8
v -0.0752 0.0000 0.0133
vt 0.0924 0.0538
vn -0.9848 0.0000 0.1736
v -0.0752 0.2251 0.0133
vt 0.0924 0.1872
vn -0.9607 0.2294 0.1561
v -0.0662 0.2292 -0.0382
vt 0.0891 0.1872
vn -0.8603 0.2376 -0.4510
v -0.0662 0.0000 -0.0382
vt 0.0891 0.0538
vn -0.8660 0.0000 -0.5000
f 9/9/9 10/10/10 11/11/11 12/12/12
v -0.0662 0.0000 -0.0382
vt 0.0891 0.0538
vn -0.8660 0.0000 -0.5000
v -0.0662 0.2292 -0.0382
vt 0.0891 0.1872
vn -0.8603 0.2376 -0.4510
v -0.0261 0.2472 -0.0718
vt 0.0742 0.1872
vn -0.4113 0.2756 -0.8688
v -0.0261 0.0000 -0.0718
vt 0.0742 0.0538
vn -0.3420 0.0000 -0.9397
f 13/13/13 14/14/14 15/15/15 16/16/16
v -0.0261 0.0000 -0.0718
vt 0.0742 0.0538
vn -0.3420 0.0000 -0.9397
v -0.0261 0.2472 -0.0718
vt 0.0742 0.1872
vn -0.4113 0.2756 -0.8688
v 0.0261 0.2707 -0.0718
vt 0.0548 0.1872
vn 0.2140 0.3388 -0.9162
v 0.0261 0.0000 -0.0718
vt 0.0548 0.0538
vn 0.3420 -0.0000 -0.9397
f 17/17/17 18/18/18 19/19/19 20/20/20
v 0.0261 0.0000 -0.0718
vt 0.0548 0.0538
vn 0.3420 -0.0000 -0.9397
v 0.0261 0.2707 -0.0718
vt 0.0548 0.1872
vn 0.2140 0.3388 -0.9162
v 0.0662 0.2887 -0.0382
vt 0.0399 0.1872
vn 0.8906 0.0000 -0.4547
v 0.0662 0.0000 -0.0382
vt 0.0399 0.0538
vn 0.8660 0.0000 -0.5000
f 21/21/21 22/22/22 23/23/23 24/24/24
v -0.0752 0.2251 0.0133
vt 0.0924 0.2116
vn -0.9607 0.2294 0.1561
v -0.0491 0.2369 0.0585
vt 0.0827 0.2116
vn -0.6708 0.2532 0.6971
v -0.0354 0.2694 0.0422
vt 0.0776 0.2213
vn -0.6408 0.5428 0.5429
v -0.0543 0.2609 0.0096
vt 0.0846 0.2213
vn -0.8509 0.5116 0.1192
f 25/25/25 26/26/26 27/27/27 28/28/28
v 0.0662 0.0000 -0.0382
vt 0.0399 0.0538
vn 0.8660 0.0000 -0.5000
v 0.0662 0.2887 -0.0382
vt 0.0399 0.1872
vn 0.8906 0.0000 -0.4547
v 0.0752 0.2927 0.0133
vt 0.0366 0.1872
vn 0.9878 0.0000 0.1556
v 0.0752 0.0000 0.0133
vt 0.0366 0.0538
vn 0.9848 0.0000 0.1736
f 29/29/29 30/30/30 31/31/31 32/32/32
v 0.0752 0.0000 0.0133
vt 0.0366 0.0538
vn 0.9848 0.0000 0.1736
v 0.0752 0.2927 0.0133
vt 0.0366 0.1872
vn 0.9878 0.0000 0.1556
v 0.0491 0.2810 0.0585
vt 0.0463 0.1872
vn 0.5139 0.3764 0.7709
v 0.0491 0.0000 0.0585
vt 0.0463 0.0538
vn 0.6428 0.0000 0.7660
f 33/33/33 34/34/34 35/35/35 36/36/36
v 0.0000 0.2589 0.0764
vt 0.0645 0.2116
vn -0.1065 0.3044 0.9466
v 0.0491 0.2810 0.0585
vt 0.0463 0.2116
vn 0.5139 0.3764 0.7709
v 0.0354 0.3012 0.0422
vt 0.0514 0.2213
vn 0.2942 0.7137 0.6356
v 0.0000 0.2853 0.0551
vt 0.0645 0.2213
vn -0.2092 0.6150 0.7602
f 37/37/37 38/38/38 39/39/39 40/40/40
v 0.0491 0.2810 0.0585
vt 0.0463 0.2116
vn 0.5139 0.3764 0.7709
v 0.0752 0.2927 0.0133
vt 0.0366 0.2116
vn 0.5993 0.7816 0.1729
v 0.0543 0.3096 0.0096
vt 0.0444 0.2213
vn 0.6038 0.7826 0.1519
v 0.0354 0.3012 0.0422
vt 0.0514 0.2213
vn 0.2942 0.7137 0.6356
f 41/41/41 42/42/42 43/43/43 44/44/44
v 0.0752 0.2927 0.0133
vt 0.0366 0.2116
vn 0.5993 0.7816 0.1729
v 0.0662 0.2887 -0.0382
vt 0.0399 0.2116
vn 0.4575 0.7499 -0.4778
v 0.0477 0.3067 -0.0275
vt 0.0468 0.2213
vn 0.4925 0.7571 -0.4293
v 0.0543 0.3096 0.0096
vt 0.0444 0.2213
vn 0.6038 0.7826 0.1519
f 45/45/45 46/46/46 47/47/47 48/48/48
v 0.0662 0.2887 -0.0382
vt 0.0399 0.2116
vn 0.4575 0.7499 -0.4778
v 0.0261 0.2707 -0.0718
vt 0.0548 0.2116
vn 0.2140 0.3388 -0.9162
v 0.0188 0.2937 -0.0518
vt 0.0575 0.2213
vn 0.0475 0.6634 -0.7468
v 0.0477 0.3067 -0.0275
vt 0.0468 0.2213
vn 0.4925 0.7571 -0.4293
f 49/49/49 50/50/50 51/51/51 52/52/52
v 0.0261 0.2707 -0.0718
vt 0.0548 0.2116
vn 0.2140 0.3388 -0.9162
v -0.0261 0.2472 -0.0718
vt 0.0742 0.2116
vn -0.4113 0.2756 -0.8688
v -0.0188 0.2768 -0.0518
vt 0.0715 0.2213
vn -0.4458 0.5741 -0.6868
v 0.0188 0.2937 -0.0518
vt 0.0575 0.2213
vn 0.0475 0.6634 -0.7468
f 53/53/53 54/54/54 55/55/55 56/56/56
v -0.0261 0.2472 -0.0718
vt 0.0742 0.2116
vn -0.4113 0.2756 -0.8688
v -0.0662 0.2292 -0.0382
vt 0.0891 0.2116
vn -0.8603 0.2376 -0.4510
v -0.0477 0.2638 -0.0275
vt 0.0822 0.2213
vn -0.7792 0.5220 -0.3470
v -0.0188 0.2768 -0.0518
vt 0.0715 0.2213
vn -0.4458 0.5741 -0.6868
f 57/57/57 58/58/58 59/59/59 60/60/60
v -0.0491 0.2369 0.0585
vt 0.0827 0.2116
vn -0.6708 0.2532 0.6971
v 0.0000 0.2589 0.0764
vt 0.0645 0.2116
vn -0.1065 0.3044 0.9466
v 0.0000 0.2853 0.0551
vt 0.0645 0.2213
vn -0.2092 0.6150 0.7602
v -0.0354 0.2694 0.0422
vt 0.0776 0.2213
vn -0.6408 0.5428 0.5429
f 61/61/61 62/62/62 63/63/63 64/64/64
v -0.0662 0.2292 -0.0382
vt 0.0891 0.2116
vn -0.8603 0.2376 -0.4510
v -0.0752 0.2251 0.0133
vt 0.0924 0.2116
vn -0.9607 0.2294 0.1561
v -0.0543 0.2609 0.0096
vt 0.0846 0.2213
vn -0.8509 0.5116 0.1192
v -0.0477 0.2638 -0.0275
vt 0.0822 0.2213
vn -0.7792 0.5220 -0.3470
f 65/65/65 66/66/66 67/67/67 68/68/68
v 0.0000 0.2722 0.0000
vt 0.0645 0.1019
vn -0.3930 0.9195 0.0000
v -0.0354 0.2694 0.0422
vt 0.0776 0.1738
vn -0.2786 0.9452 -0.1702
v 0.0000 0.2853 0.0551
vt 0.0645 0.1738
vn -0.4035 0.8903 -0.2113
f 69/69/69 70/70/70 71/71/71
v 0.0000 0.2722 0.0000
vt 0.0645 0.1019
vn -0.3930 0.9195 0.0000
v -0.0543 0.2609 0.0096
vt 0.0846 0.1738
vn -0.2104 0.9768 -0.0389
v -0.0354 0.2694 0.0422
vt 0.0776 0.1738
vn -0.2786 0.9452 -0.1702
f 72/72/72 73/73/73 74/74/74
v 0.0000 0.2722 0.0000
vt 0.0645 0.1019
vn -0.3930 0.9195 0.0000
v -0.0477 0.2638 -0.0275
vt 0.0822 0.1738
vn -0.2340 0.9658 0.1119
v -0.0543 0.2609 0.0096
vt 0.0846 0.1738
vn -0.2104 0.9768 -0.0389
f 75/75/75 76/76/76 77/77/77
v 0.0000 0.2722 0.0000
vt 0.0645 0.1019
vn -0.3930 0.9195 0.0000
v -0.0188 0.2768 -0.0518
vt 0.0715 0.1738
vn -0.3382 0.9185 0.2048
v -0.0477 0.2638 -0.0275
vt 0.0822 0.1738
vn -0.2340 0.9658 0.1119
f 78/78/78 79/79/79 80/80/80
v 0.0000 0.2722 0.0000
vt 0.0645 0.1019
vn -0.3930 0.9195 0.0000
v 0.0188 0.2937 -0.0518
vt 0.0575 0.1738
vn -0.4645 0.8648 0.1908
v -0.0188 0.2768 -0.0518
vt 0.0715 0.1738
vn -0.3382 0.9185 0.2048
f 81/81/81 82/82/82 83/83/83
v 0.0000 0.2722 0.0000
vt 0.0645 0.1019
vn -0.3930 0.9195 0.0000
v 0.0477 0.3067 -0.0275
vt 0.0468 0.1738
vn -0.5473 0.8316 0.0940
v 0.0188 0.2937 -0.0518
vt 0.0575 0.1738
vn -0.4645 0.8648 0.1908
f 84/84/84 85/85/85 86/86/86
v 0.0000 0.2722 0.0000
vt 0.0645 0.1019
vn -0.3930 0.9195 0.0000
v 0.0543 0.3096 0.0096
vt 0.0444 0.1738
vn -0.5640 0.8251 -0.0320
v 0.0477 0.3067 -0.0275
vt 0.0468 0.1738
vn -0.5473 0.8316 0.0940
f 87/87/87 88/88/88 89/89/89
v 0.0000 0.2722 0.0000
vt 0.0645 0.1019
vn -0.3930 0.9195 0.0000
v 0.0354 0.3012 0.0422
vt 0.0514 0.1738
vn -0.5138 0.8448 -0.1492
v 0.0543 0.3096 0.0096
vt 0.0444 0.1738
vn -0.5640 0.8251 -0.0320
f 90/90/90 91/91/91 92/92/92
v 0.0000 0.2722 0.0000
vt 0.0645 0.1019
vn -0.3930 0.9195 0.0000
v 0.0000 0.2853 0.0551
vt 0.0645 0.1738
vn -0.4035 0.8903 -0.2113
v 0.0354 0.3012 0.0422
vt 0.0514 0.1738
vn -0.5138 0.8448 -0.1492
f 93/93/93 94/94/94 95/95/95
v 0.0000 0.0000 0.0000
vt 0.0645 0.0075
vn 0.0000 -1.0000 0.0000
v 0.0000 0.0000 0.0764
vt 0.0645 0.0075
vn 0.0000 -1.0000 0.0000
v -0.0491 0.0000 0.0585
vt 0.0827 0.0075
vn 0.0000 -1.0000 0.0000
f 96/96/96 97/97/97 98/98/98
v 0.0000 0.0000 0.0000
vt 0.0798 0.0075
vn 0.0000 -1.0000 0.0000
v -0.0491 0.0000 0.0585
vt 0.0827 0.0075
vn 0.0000 -1.0000 0.0000
v -0.0752 0.0000 0.0133
vt 0.0924 0.0075
vn 0.0000 -1.0000 0.0000
f 99/99/99 100/100/100 101/101/101
v 0.0000 0.0000 0.0000
vt 0.0880 0.0075
vn 0.0000 -1.0000 0.0000
v -0.0752 0.0000 0.0133
vt 0.0924 0.0075
vn 0.0000 -1.0000 0.0000
v -0.0662 0.0000 -0.0382
vt 0.0891 0.0075
vn 0.0000 -1.0000 0.0000
f 102/102/102 103/103/103 104/104/104
v 0.0000 0.0000 0.0000
vt 0.0851 0.0075
vn 0.0000 -1.0000 0.0000
v -0.0662 0.0000 -0.0382
vt 0.0891 0.0075
vn 0.0000 -1.0000 0.0000
v -0.0261 0.0000 -0.0718
vt 0.0742 0.0075
vn 0.0000 -1.0000 0.0000
f 105/105/105 106/106/106 107/107/107
v 0.0000 0.0000 0.0000
vt 0.0727 0.0075
vn 0.0000 -1.0000 0.0000
v -0.0261 0.0000 -0.0718
vt 0.0742 0.0075
vn 0.0000 -1.0000 0.0000
v 0.0261 0.0000 -0.0718
vt 0.0548 0.0075
vn 0.0000 -1.0000 0.0000
f 108/108/108 109/109/109 110/110/110
v 0.0000 0.0000 0.0000
vt 0.0563 0.0075
vn 0.0000 -1.0000 0.0000
v 0.0261 0.0000 -0.0718
vt 0.0548 0.0075
vn 0.0000 -1.0000 0.0000
v 0.0662 0.0000 -0.0382
vt 0.0399 0.0075
vn 0.0000 -1.0000 0.0000
f 111/111/111 112/112/112 113/113/113
v 0.0000 0.0000 0.0000
vt 0.0439 0.0075
vn 0.0000 -1.0000 0.0000
v 0.0662 0.0000 -0.0382
vt 0.0399 0.0075
vn 0.0000 -1.0000 0.0000
v 0.0752 0.0000 0.0133
vt 0.0366 0.0075
vn 0.0000 -1.0000 0.0000
f 114/114/114 115/115/115 116/116/116
v 0.0000 0.0000 0.0000
vt 0.0410 0.0075
vn 0.0000 -1.0000 0.0000
v 0.0752 0.0000 0.0133
vt 0.0366 0.0075
vn 0.0000 -1.0000 0.0000
v 0.0491 0.0000 0.0585
vt 0.0463 0.0075
vn 0.0000 -1.0000 0.0000
f 117/117/117 118/118/118 119/119/119
v 0.0000 0.0000 0.0000
vt 0.0492 0.0075
vn 0.0000 -1.0000 0.0000
v 0.0491 0.0000 0.0585
vt 0.0463 0.0075
vn 0.0000 -1.0000 0.0000
v 0.0000 0.0000 0.0764
vt 0.0645 0.0075
vn 0.0000 -1.0000 0.0000
f 120/120/120 121/121/121 122/122/122
v 0.0021 0.2408 0.0000
vt 0.9219 0.7675
vn -0.4776 -0.2133 0.8523
v -0.0033 0.3124 0.0149
vt 0.9219 0.8312
vn -0.4776 -0.2133 0.8523
v -0.0162 0.3115 0.0075
vt 0.9495 0.8312
vn -0.4776 -0.2133 0.8523
f 123/123/123 124/124/124 125/125/125
v 0.0021 0.2408 0.0000
vt 0.9219 0.7675
vn -0.9683 -0.2497 0.0000
v -0.0162 0.3115 0.0075
vt 0.9495 0.8312
vn -0.9683 -0.2497 0.0000
v -0.0162 0.3115 -0.0075
vt 0.9495 0.8312
vn -0.9683 -0.2497 0.0000
f 126/126/126 127/127/127 128/128/128
v 0.0021 0.2408 0.0000
vt 0.9219 0.7675
vn -0.4776 -0.2133 -0.8523
v -0.0162 0.3115 -0.0075
vt 0.9495 0.8312
vn -0.4776 -0.2133 -0.8523
v -0.0033 0.3124 -0.0149
vt 0.9219 0.8312
vn -0.4776 -0.2133 -0.8523
f 129/129/129 130/130/130 131/131/131
v 0.0021 0.2408 0.0000
vt 0.9219 0.7675
vn 0.5039 -0.1404 -0.8523
v -0.0033 0.3124 -0.0149
vt 0.9219 0.8312
vn 0.5039 -0.1404 -0.8523
v 0.0097 0.3134 -0.0075
vt 0.8943 0.8312
vn 0.5039 -0.1404 -0.8523
f 132/132/132 133/133/133 134/134/134
v 0.0097 0.3134 0.0075
vt 0.8943 0.8312
vn 0.1120 0.9880 0.1068
v 0.0097 0.3134 -0.0075
vt 0.8943 0.8312
vn 0.1120 0.9880 -0.1068
v -0.0035 0.3157 0.0000
vt 0.8943 0.8312
vn -0.0741 0.9973 0.0000
f 135/135/135 136/136/136 137/137/137
v 0.0021 0.2408 0.0000
vt 0.9219 0.7675
vn 0.9946 -0.1039 -0.0000
v 0.0097 0.3134 -0.0075
vt 0.8943 0.8312
vn 0.9946 -0.1039 -0.0000
v 0.0097 0.3134 0.0075
vt 0.8943 0.8312
vn 0.9946 -0.1039 -0.0000
f 138/138/138 139/139/139 140/140/140
v 0.0021 0.2408 0.0000
vt 0.9219 0.7675
vn 0.5039 -0.1404 0.8523
v 0.0097 0.3134 0.0075
vt 0.8943 0.8312
vn 0.5039 -0.1404 0.8523
v -0.0033 0.3124 0.0149
vt 0.9219 0.8312
vn 0.5039 -0.1404 0.8523
f 141/141/141 142/142/142 143/143/143
v 0.0097 0.3134 -0.0075
vt 0.8943 0.8312
vn 0.1120 0.9880 -0.1068
v -0.0033 0.3124 -0.0149
vt 0.9219 0.8312
vn -0.0724 0.9742 -0.2135
v -0.0035 0.3157 0.0000
vt 0.8943 0.8312
vn -0.0741 0.9973 0.0000
f 144/144/144 145/145/145 146/146/146
v -0.0033 0.3124 -0.0149
vt 0.9219 0.8312
vn -0.0724 0.9742 -0.2135
v -0.0162 0.3115 -0.0075
vt 0.9495 0.8312
vn -0.2568 0.9605 -0.1068
v -0.0035 0.3157 0.0000
vt 0.9219 0.8312
vn -0.0741 0.9973 0.0000
f 147/147/147 148/148/148 149/149/149
v -0.0162 0.3115 0.0075
vt 0.9495 0.8312
vn -0.2568 0.9605 0.1068
v -0.0033 0.3124 0.0149
vt 0.9219 0.8312
vn -0.0724 0.9742 0.2135
v -0.0035 0.3157 0.0000
vt 0.9495 0.8312
vn -0.0741 0.9973 0.0000
f 150/150/150 151/151/151 152/152/152
v -0.0033 0.3124 0.0149
vt 0.9219 0.8312
vn -0.0724 0.9742 0.2135
v 0.0097 0.3134 0.0075
vt 0.8943 0.8312
vn 0.1120 0.9880 0.1068
v -0.0035 0.3157 0.0000
vt 0.9219 0.8312
vn -0.0741 0.9973 0.0000
f 153/153/153 154/154/154 155/155/155
v -0.0162 0.3115 -0.0075
vt 0.9495 0.8312
vn -0.2568 0.9605 -0.1068
v -0.0162 0.3115 0.0075
vt 0.9495 0.8312
vn -0.2568 0.9605 0.1068
v -0.0035 0.3157 0.0000
vt 0.9495 0.8312
vn -0.0741 0.9973 0.0000
f 156/156/156 157/157/157 158/158/158
v 0.0491 0.0000 0.0585
vt 0.0463 0.0538
vn 0.6428 0.0000 0.7660
v 0.0491 0.2810 0.0585
vt 0.0463 0.1872
vn 0.5139 0.3764 0.7709
v 0.0000 0.2589 0.0764
vt 0.0645 0.1872
vn -0.1065 0.3044 0.9466
v 0.0000 0.0000 0.0764
vt 0.0645 0.0538
vn 0.0000 0.0000 1.0000
f 159/159/159 160/160/160 161/161/161 162/162/162
v 0.1353 0.0000 -0.0552
vt 0.0645 0.0538
vn 0.6471 0.0000 -0.7624
v 0.1353 0.3443 -0.0552
vt 0.0645 0.1872
vn 0.6167 0.3026 -0.7267
v 0.1503 0.3443 -0.0289
vt 0.0827 0.1872
vn 0.9396 0.3026 -0.1602
v 0.1503 0.0000 -0.0289
vt 0.0827 0.0538
vn 0.9858 0.0000 -0.1681
f 163/163/163 164/164/164 165/165/165 166/166/166
v 0.1503 0.0000 -0.0289
vt 0.0827 0.0538
vn 0.9858 0.0000 -0.1681
v 0.1503 0.3443 -0.0289
vt 0.0827 0.1872
vn 0.9396 0.3026 -0.1602
v 0.1449 0.3443 0.0008
vt 0.0924 0.1872
vn 0.8227 0.3026 0.4812
v 0.1449 0.0000 0.0008
vt 0.0924 0.0538
vn 0.8632 0.0000 0.5048
f 167/167/167 168/168/168 169/169/169 170/170/170
v 0.1449 0.0000 0.0008
vt 0.0924 0.0538
vn 0.8632 0.0000 0.5048
v 0.1449 0.3443 0.0008
vt 0.0924 0.1872
vn 0.8227 0.3026 0.4812
v 0.1217 0.3443 0.0200
vt 0.0891 0.1872
vn 0.3210 0.3026 0.8975
v 0.1217 0.0000 0.0200
vt 0.0891 0.0538
vn 0.3367 0.0000 0.9416
f 171/171/171 172/172/172 173/173/173 174/174/174
v 0.1217 0.0000 0.0200
vt 0.0891 0.0538
vn 0.3367 0.0000 0.9416
v 0.1217 0.3443 0.0200
vt 0.0891 0.1872
vn 0.3210 0.3026 0.8975
v 0.0915 0.3443 0.0199
vt 0.0742 0.1872
vn -0.3310 0.3026 0.8938
v 0.0915 0.0000 0.0199
vt 0.0742 0.0538
vn -0.3473 0.0000 0.9378
f 175/175/175 176/176/176 177/177/177 178/178/178
v 0.0915 0.0000 0.0199
vt 0.0742 0.0538
vn -0.3473 0.0000 0.9378
v 0.0915 0.3443 0.0199
vt 0.0742 0.1872
vn -0.3310 0.3026 0.8938
v 0.0684 0.3443 0.0003
vt 0.0548 0.1872
vn -0.8281 0.3026 0.4719
v 0.0684 0.0000 0.0003
vt 0.0548 0.0538
vn -0.8688 0.0000 0.4951
f 179/179/179 180/180/180 181/181/181 182/182/182
v 0.0684 0.0000 0.0003
vt 0.0548 0.0538
vn -0.8688 0.0000 0.4951
v 0.0684 0.3443 0.0003
vt 0.0548 0.1872
vn -0.8281 0.3026 0.4719
v 0.0634 0.3443 -0.0294
vt 0.0399 0.1872
vn -0.9377 0.3026 -0.1708
v 0.0634 0.0000 -0.0294
vt 0.0399 0.0538
vn -0.9838 0.0000 -0.1792
f 183/183/183 184/184/184 185/185/185 186/186/186
v 0.1449 0.3443 0.0008
vt 0.0924 0.2116
vn 0.8227 0.3026 0.4812
v 0.1503 0.3443 -0.0289
vt 0.0827 0.2116
vn 0.9396 0.3026 -0.1602
v 0.1382 0.3603 -0.0269
vt 0.0776 0.2213
vn 0.7811 0.6100 -0.1332
v 0.1343 0.3603 -0.0054
vt 0.0846 0.2213
vn 0.6840 0.6100 0.4000
f 187/187/187 188/188/188 189/189/189 190/190/190
v 0.0634 0.0000 -0.0294
vt 0.0399 0.0538
vn -0.9838 0.0000 -0.1792
v 0.0634 0.3443 -0.0294
vt 0.0399 0.1872
vn -0.9377 0.3026 -0.1708
v 0.0786 0.3443 -0.0555
vt 0.0366 0.1872
vn -0.6086 0.3026 -0.7336
v 0.0786 0.0000 -0.0555
vt 0.0366 0.0538
vn -0.6385 0.0000 -0.7696
f 191/191/191 192/192/192 193/193/193 194/194/194
v 0.0786 0.0000 -0.0555
vt 0.0366 0.0538
vn -0.6385 0.0000 -0.7696
v 0.0786 0.3443 -0.0555
vt 0.0366 0.1872
vn -0.6086 0.3026 -0.7336
v 0.1070 0.3443 -0.0657
vt 0.0463 0.1872
vn 0.0053 0.3026 -0.9531
v 0.1070 0.0000 -0.0657
vt 0.0463 0.0538
vn 0.0056 0.0000 -1.0000
f 195/195/195 196/196/196 197/197/197 198/198/198
v 0.1353 0.3443 -0.0552
vt 0.0645 0.2116
vn 0.6167 0.3026 -0.7267
v 0.1070 0.3443 -0.0657
vt 0.0463 0.2116
vn 0.0053 0.3026 -0.9531
v 0.1070 0.3603 -0.0533
vt 0.0514 0.2213
vn 0.0044 0.6100 -0.7924
v 0.1274 0.3603 -0.0458
vt 0.0645 0.2213
vn 0.5127 0.6100 -0.6041
f 199/199/199 200/200/200 201/201/201 202/202/202
v 0.1070 0.3443 -0.0657
vt 0.0463 0.2116
vn 0.0053 0.3026 -0.9531
v 0.0786 0.3443 -0.0555
vt 0.0366 0.2116
vn -0.6086 0.3026 -0.7336
v 0.0865 0.3603 -0.0460
vt 0.0444 0.2213
vn -0.5059 0.6100 -0.6099
v 0.1070 0.3603 -0.0533
vt 0.0514 0.2213
vn 0.0044 0.6100 -0.7924
f 203/203/203 204/204/204 205/205/205 206/206/206
v 0.0786 0.3443 -0.0555
vt 0.0366 0.2116
vn -0.6086 0.3026 -0.7336
v 0.0634 0.3443 -0.0294
vt 0.0399 0.2116
vn -0.9377 0.3026 -0.1708
v 0.0755 0.3603 -0.0272
vt 0.0468 0.2213
vn -0.7796 0.6100 -0.1420
v 0.0865 0.3603 -0.0460
vt 0.0444 0.2213
vn -0.5059 0.6100 -0.6099
f 207/207/207 208/208/208 209/209/209 210/210/210
v 0.0634 0.3443 -0.0294
vt 0.0399 0.2116
vn -0.9377 0.3026 -0.1708
v 0.0684 0.3443 0.0003
vt 0.0548 0.2116
vn -0.8281 0.3026 0.4719
v 0.0791 0.3603 -0.0058
vt 0.0575 0.2213
vn -0.6884 0.6100 0.3923
v 0.0755 0.3603 -0.0272
vt 0.0468 0.2213
vn -0.7796 0.6100 -0.1420
f 211/211/211 212/212/212 213/213/213 214/214/214
v 0.0684 0.3443 0.0003
vt 0.0548 0.2116
vn -0.8281 0.3026 0.4719
v 0.0915 0.3443 0.0199
vt 0.0742 0.2116
vn -0.3310 0.3026 0.8938
v 0.0957 0.3603 0.0083
vt 0.0715 0.2213
vn -0.2752 0.6100 0.7431
v 0.0791 0.3603 -0.0058
vt 0.0575 0.2213
vn -0.6884 0.6100 0.3923
f 215/215/215 216/216/216 217/217/217 218/218/218
v 0.0915 0.3443 0.0199
vt 0.0742 0.2116
vn -0.3310 0.3026 0.8938
v 0.1217 0.3443 0.0200
vt 0.0891 0.2116
vn 0.3210 0.3026 0.8975
v 0.1175 0.3603 0.0085
vt 0.0822 0.2213
vn 0.2668 0.6100 0.7461
v 0.0957 0.3603 0.0083
vt 0.0715 0.2213
vn -0.2752 0.6100 0.7431
f 219/219/219 220/220/220 221/221/221 222/222/222
v 0.1503 0.3443 -0.0289
vt 0.0827 0.2116
vn 0.9396 0.3026 -0.1602
v 0.1353 0.3443 -0.0552
vt 0.0645 0.2116
vn 0.6167 0.3026 -0.7267
v 0.1274 0.3603 -0.0458
vt 0.0645 0.2213
vn 0.5127 0.6100 -0.6041
v 0.1382 0.3603 -0.0269
vt 0.0776 0.2213
vn 0.7811 0.6100 -0.1332
f 223/223/223 224/224/224 225/225/225 226/226/226
v 0.1217 0.3443 0.0200
vt 0.0891 0.2116
vn 0.3210 0.3026 0.8975
v 0.1449 0.3443 0.0008
vt 0.0924 0.2116
vn 0.8227 0.3026 0.4812
v 0.1343 0.3603 -0.0054
vt 0.0846 0.2213
vn 0.6840 0.6100 0.4000
v 0.1175 0.3603 0.0085
vt 0.0822 0.2213
vn 0.2668 0.6100 0.7461
f 227/227/227 228/228/228 229/229/229 230/230/230
v 0.1068 0.3472 -0.0215
vt 0.0645 0.1019
vn 0.0000 1.0000 -0.0000
v 0.1382 0.3603 -0.0269
vt 0.0776 0.1738
vn -0.3745 0.9250 0.0639
v 0.1274 0.3603 -0.0458
vt 0.0645 0.1738
vn -0.2459 0.9250 0.2897
f 231/231/231 232/232/232 233/233/233
v 0.1068 0.3472 -0.0215
vt 0.0645 0.1019
vn 0.0000 1.0000 -0.0000
v 0.1343 0.3603 -0.0054
vt 0.0846 0.1738
vn -0.3280 0.9250 -0.1918
v 0.1382 0.3603 -0.0269
vt 0.0776 0.1738
vn -0.3745 0.9250 0.0639
f 234/234/234 235/235/235 236/236/236
v 0.1068 0.3472 -0.0215
vt 0.0645 0.1019
vn 0.0000 1.0000 -0.0000
v 0.1175 0.3603 0.0085
vt 0.0822 0.1738
vn -0.1279 0.9250 -0.3578
v 0.1343 0.3603 -0.0054
vt 0.0846 0.1738
vn -0.3280 0.9250 -0.1918
f 237/237/237 238/238/238 239/239/239
v 0.1068 0.3472 -0.0215
vt 0.0645 0.1019
vn 0.0000 1.0000 -0.0000
v 0.0957 0.3603 0.0083
vt 0.0715 0.1738
vn 0.1319 0.9250 -0.3563
v 0.1175 0.3603 0.0085
vt 0.0822 0.1738
vn -0.1279 0.9250 -0.3578
f 240/240/240 241/241/241 242/242/242
v 0.1068 0.3472 -0.0215
vt 0.0645 0.1019
vn 0.0000 1.0000 -0.0000
v 0.0791 0.3603 -0.0058
vt 0.0575 0.1738
vn 0.3301 0.9250 -0.1881
v 0.0957 0.3603 0.0083
vt 0.0715 0.1738
vn 0.1319 0.9250 -0.3563
f 243/243/243 244/244/244 245/245/245
v 0.1068 0.3472 -0.0215
vt 0.0645 0.1019
vn 0.0000 1.0000 -0.0000
v 0.0755 0.3603 -0.0272
vt 0.0468 0.1738
vn 0.3738 0.9250 0.0681
v 0.0791 0.3603 -0.0058
vt 0.0575 0.1738
vn 0.3301 0.9250 -0.1881
f 246/246/246 247/247/247 248/248/248
v 0.1068 0.3472 -0.0215
vt 0.0645 0.1019
vn 0.0000 1.0000 -0.0000
v 0.0865 0.3603 -0.0460
vt 0.0444 0.1738
vn 0.2426 0.9250 0.2924
v 0.0755 0.3603 -0.0272
vt 0.0468 0.1738
vn 0.3738 0.9250 0.0681
f 249/249/249 250/250/250 251/251/251
v 0.1068 0.3472 -0.0215
vt 0.0645 0.1019
vn 0.0000 1.0000 -0.0000
v 0.1070 0.3603 -0.0533
vt 0.0514 0.1738
vn -0.0021 0.9250 0.3799
v 0.0865 0.3603 -0.0460
vt 0.0444 0.1738
vn 0.2426 0.9250 0.2924
f 252/252/252 253/253/253 254/254/254
v 0.1068 0.3472 -0.0215
vt 0.0645 0.1019
vn 0.0000 1.0000 -0.0000
v 0.1274 0.3603 -0.0458
vt 0.0645 0.1738
vn -0.2459 0.9250 0.2897
v 0.1070 0.3603 -0.0533
vt 0.0514 0.1738
vn -0.0021 0.9250 0.3799
f 255/255/255 256/256/256 257/257/257
v 0.1068 0.0000 -0.0215
vt 0.0645 0.0075
vn 0.0000 -1.0000 0.0000
v 0.1353 0.0000 -0.0552
vt 0.0645 0.0075
vn 0.0000 -1.0000 0.0000
v 0.1503 0.0000 -0.0289
vt 0.0827 0.0075
vn 0.0000 -1.0000 0.0000
f 258/258/258 259/259/259 260/260/260
v 0.1068 0.0000 -0.0215
vt 0.0798 0.0075
vn 0.0000 -1.0000 0.0000
v 0.1503 0.0000 -0.0289
vt 0.0827 0.0075
vn 0.0000 -1.0000 0.0000
v 0.1449 0.0000 0.0008
vt 0.0924 0.0075
vn 0.0000 -1.0000 0.0000
f 261/261/261 262/262/262 263/263/263
v 0.1068 0.0000 -0.0215
vt 0.0880 0.0075
vn 0.0000 -1.0000 0.0000
v 0.1449 0.0000 0.0008
vt 0.0924 0.0075
vn 0.0000 -1.0000 0.0000
v 0.1217 0.0000 0.0200
vt 0.0891 0.0075
vn 0.0000 -1.0000 0.0000
f 264/264/264 265/265/265 266/266/266
v 0.1068 0.0000 -0.0215
vt 0.0851 0.0075
vn 0.0000 -1.0000 0.0000
v 0.1217 0.0000 0.0200
vt 0.0891 0.0075
vn 0.0000 -1.0000 0.0000
v 0.0915 0.0000 0.0199
vt 0.0742 0.0075
vn 0.0000 -1.0000 0.0000
f 267/267/267 268/268/268 269/269/269
v 0.1068 0.0000 -0.0215
vt 0.0727 0.0075
vn 0.0000 -1.0000 0.0000
v 0.0915 0.0000 0.0199
vt 0.0742 0.0075
vn 0.0000 -1.0000 0.0000
v 0.0684 0.0000 0.0003
vt 0.0548 0.0075
vn 0.0000 -1.0000 0.0000
f 270/270/270 271/271/271 272/272/272
v 0.1068 0.0000 -0.0215
vt 0.0563 0.0075
vn 0.0000 -1.0000 0.0000
v 0.0684 0.0000 0.0003
vt 0.0548 0.0075
vn 0.0000 -1.0000 0.0000
v 0.0634 0.0000 -0.0294
vt 0.0399 0.0075
vn 0.0000 -1.0000 0.0000
f 273/273/273 274/274/274 275/275/275
v 0.1068 0.0000 -0.0215
vt 0.0439 0.0075
vn 0.0000 -1.0000 0.0000
v 0.0634 0.0000 -0.0294
vt 0.0399 0.0075
vn 0.0000 -1.0000 0.0000
v 0.0786 0.0000 -0.0555
vt 0.0366 0.0075
vn 0.0000 -1.0000 0.0000
f 276/276/276 277/277/277 278/278/278
v 0.1068 0.0000 -0.0215
vt 0.0410 0.0075
vn 0.0000 -1.0000 0.0000
v 0.0786 0.0000 -0.0555
vt 0.0366 0.0075
vn 0.0000 -1.0000 0.0000
v 0.1070 0.0000 -0.0657
vt 0.0463 0.0075
vn 0.0000 -1.0000 0.0000
f 279/279/279 280/280/280 281/281/281
v 0.1068 0.0000 -0.0215
vt 0.0492 0.0075
vn 0.0000 -1.0000 0.0000
v 0.1070 0.0000 -0.0657
vt 0.0463 0.0075
vn 0.0000 -1.0000 0.0000
v 0.1353 0.0000 -0.0552
vt 0.0645 0.0075
vn 0.0000 -1.0000 0.0000
f 282/282/282 283/283/283 284/284/284
v 0.1068 0.3177 -0.0215
vt 0.9219 0.7675
vn 0.9267 -0.1773 -0.3314
v 0.1165 0.3896 -0.0329
vt 0.9219 0.8312
vn 0.9267 -0.1773 -0.3314
v 0.1215 0.3896 -0.0188
vt 0.9495 0.8312
vn 0.9267 -0.1773 -0.3314
f 285/285/285 286/286/286 287/287/287
v 0.1068 0.3177 -0.0215
vt 0.9219 0.7675
vn 0.7503 -0.1773 0.6368
v 0.1215 0.3896 -0.0188
vt 0.9495 0.8312
vn 0.7503 -0.1773 0.6368
v 0.1118 0.3896 -0.0074
vt 0.9495 0.8312
vn 0.7503 -0.1773 0.6368
f 288/288/288 289/289/289 290/290/290
v 0.1068 0.3177 -0.0215
vt 0.9219 0.7675
vn -0.1763 -0.1773 0.9682
v 0.1118 0.3896 -0.0074
vt 0.9495 0.8312
vn -0.1763 -0.1773 0.9682
v 0.0971 0.3896 -0.0101
vt 0.9219 0.8312
vn -0.1763 -0.1773 0.9682
f 291/291/291 292/292/292 293/293/293
v 0.1068 0.3177 -0.0215
vt 0.9219 0.7675
vn -0.9267 -0.1773 0.3314
v 0.0971 0.3896 -0.0101
vt 0.9219 0.8312
vn -0.9267 -0.1773 0.3314
v 0.0921 0.3896 -0.0242
vt 0.8943 0.8312
vn -0.9267 -0.1773 0.3314
f 294/294/294 295/295/295 296/296/296
v 0.1018 0.3896 -0.0356
vt 0.8943 0.8312
vn -0.0719 0.9769 -0.2011
v 0.0921 0.3896 -0.0242
vt 0.8943 0.8312
vn -0.2101 0.9769 -0.0383
v 0.1068 0.3928 -0.0215
vt 0.8943 0.8312
vn 0.0000 1.0000 -0.0000
f 297/297/297 298/298/298 299/299/299
v 0.1068 0.3177 -0.0215
vt 0.9219 0.7675
vn -0.7504 -0.1773 -0.6368
v 0.0921 0.3896 -0.0242
vt 0.8943 0.8312
vn -0.7504 -0.1773 -0.6368
v 0.1018 0.3896 -0.0356
vt 0.8943 0.8312
vn -0.7504 -0.1773 -0.6368
f 300/300/300 301/301/301 302/302/302
v 0.1068 0.3177 -0.0215
vt 0.9219 0.7675
vn 0.1763 -0.1773 -0.9682
v 0.1018 0.3896 -0.0356
vt 0.8943 0.8312
vn 0.1763 -0.1773 -0.9682
v 0.1165 0.3896 -0.0329
vt 0.9219 0.8312
vn 0.1763 -0.1773 -0.9682
f 303/303/303 304/304/304 305/305/305
v 0.0921 0.3896 -0.0242
vt 0.8943 0.8312
vn -0.2101 0.9769 -0.0383
v 0.0971 0.3896 -0.0101
vt 0.9219 0.8312
vn -0.1382 0.9769 0.1628
v 0.1068 0.3928 -0.0215
vt 0.8943 0.8312
vn 0.0000 1.0000 -0.0000
f 306/306/306 307/307/307 308/308/308
v 0.0971 0.3896 -0.0101
vt 0.9219 0.8312
vn -0.1382 0.9769 0.1628
v 0.1118 0.3896 -0.0074
vt 0.9495 0.8312
vn 0.0719 0.9769 0.2011
v 0.1068 0.3928 -0.0215
vt 0.9219 0.8312
vn 0.0000 1.0000 -0.0000
f 309/309/309 310/310/310 311/311/311
v 0.1215 0.3896 -0.0188
vt 0.9495 0.8312
vn 0.2101 0.9769 0.0383
v 0.1165 0.3896 -0.0329
vt 0.9219 0.8312
vn 0.1382 0.9769 -0.1628
v 0.1068 0.3928 -0.0215
vt 0.9495 0.8312
vn 0.0000 1.0000 -0.0000
f 312/312/312 313/313/313 314/314/314
v 0.1165 0.3896 -0.0329
vt 0.9219 0.8312
vn 0.1382 0.9769 -0.1628
v 0.1018 0.3896 -0.0356
vt 0.8943 0.8312
vn -0.0719 0.9769 -0.2011
v 0.1068 0.3928 -0.0215
vt 0.9219 0.8312
vn 0.0000 1.0000 -0.0000
f 315/315/315 316/316/316 317/317/317
v 0.1118 0.3896 -0.0074
vt 0.9495 0.8312
vn 0.0719 0.9769 0.2011
v 0.1215 0.3896 -0.0188
vt 0.9495 0.8312
vn 0.2101 0.9769 0.0383
v 0.1068 0.3928 -0.0215
vt 0.9495 0.8312
vn 0.0000 1.0000 -0.0000
f 318/318/318 319/319/319 320/320/320
v 0.1070 0.0000 -0.0657
vt 0.0463 0.0538
vn 0.0056 0.0000 -1.0000
v 0.1070 0.3443 -0.0657
vt 0.0463 0.1872
vn 0.0053 0.3026 -0.9531
v 0.1353 0.3443 -0.0552
vt 0.0645 0.1872
vn 0.6167 0.3026 -0.7267
v 0.1353 0.0000 -0.0552
vt 0.0645 0.0538
vn 0.6471 0.0000 -0.7624
f 321/321/321 322/322/322 323/323/323 324/324/324
v 0.1303 0.0000 0.0394
vt 0.0645 0.0538
vn 0.8895 0.0000 -0.4569
v 0.1303 0.2372 0.0394
vt 0.0645 0.1872
vn 0.8478 0.3026 -0.4355
v 0.1341 0.2372 0.0694
vt 0.0827 0.1872
vn 0.9294 0.3026 0.2113
v 0.1341 0.0000 0.0694
vt 0.0827 0.0538
vn 0.9751 0.0000 0.2217
f 325/325/325 326/326/326 327/327/327 328/328/328
v 0.1341 0.0000 0.0694
vt 0.0827 0.0538
vn 0.9751 0.0000 0.2217
v 0.1341 0.2372 0.0694
vt 0.0827 0.1872
vn 0.9294 0.3026 0.2113
v 0.1178 0.2372 0.0948
vt 0.0924 0.1872
vn 0.5761 0.3026 0.7593
v 0.1178 0.0000 0.0948
vt 0.0924 0.0538
vn 0.6045 0.0000 0.7966
f 329/329/329 330/330/330 331/331/331 332/332/332
v 0.1178 0.0000 0.0948
vt 0.0924 0.0538
vn 0.6045 0.0000 0.7966
v 0.1178 0.2372 0.0948
vt 0.0924 0.1872
vn 0.5761 0.3026 0.7593
v 0.0889 0.2372 0.1037
vt 0.0891 0.1872
vn -0.0467 0.3026 0.9520
v 0.0889 0.0000 0.1037
vt 0.0891 0.0538
vn -0.0490 0.0000 0.9988
f 333/333/333 334/334/334 335/335/335 336/336/336
v 0.0889 0.0000 0.1037
vt 0.0891 0.0538
vn -0.0490 0.0000 0.9988
v 0.0889 0.2372 0.1037
vt 0.0891 0.1872
vn -0.0467 0.3026 0.9520
v 0.0611 0.2372 0.0920
vt 0.0742 0.1872
vn -0.6477 0.3026 0.6992
v 0.0611 0.0000 0.0920
vt 0.0742 0.0538
vn -0.6796 0.0000 0.7336
f 337/337/337 338/338/338 339/339/339 340/340/340
v 0.0611 0.0000 0.0920
vt 0.0742 0.0538
vn -0.6796 0.0000 0.7336
v 0.0611 0.2372 0.0920
vt 0.0742 0.1872
vn -0.6477 0.3026 0.6992
v 0.0473 0.2372 0.0651
vt 0.0548 0.1872
vn -0.9456 0.3026 0.1193
v 0.0473 0.0000 0.0651
vt 0.0548 0.0538
vn -0.9921 0.0000 0.1252
f 341/341/341 342/342/342 343/343/343 344/344/344
v 0.0473 0.0000 0.0651
vt 0.0548 0.0538
vn -0.9921 0.0000 0.1252
v 0.0473 0.2372 0.0651
vt 0.0548 0.1872
vn -0.9456 0.3026 0.1193
v 0.0540 0.2372 0.0357
vt 0.0399 0.1872
vn -0.8011 0.3026 -0.5165
v 0.0540 0.0000 0.0357
vt 0.0399 0.0538
vn -0.8405 0.0000 -0.5419
f 345/345/345 346/346/346 347/347/347 348/348/348
v 0.1178 0.2372 0.0948
vt 0.0924 0.2116
vn 0.5761 0.3026 0.7593
v 0.1341 0.2372 0.0694
vt 0.0827 0.2116
vn 0.9294 0.3026 0.2113
v 0.1221 0.2532 0.0667
vt 0.0776 0.2213
vn 0.7727 0.6100 0.1757
v 0.1103 0.2532 0.0850
vt 0.0846 0.2213
vn 0.4790 0.6100 0.6313
f 349/349/349 350/350/350 351/351/351 352/352/352
v 0.0540 0.0000 0.0357
vt 0.0399 0.0538
vn -0.8405 0.0000 -0.5419
v 0.0540 0.2372 0.0357
vt 0.0399 0.1872
vn -0.8011 0.3026 -0.5165
v 0.0780 0.2372 0.0174
vt 0.0366 0.1872
vn -0.2817 0.3026 -0.9105
v 0.0780 0.0000 0.0174
vt 0.0366 0.0538
vn -0.2955 0.0000 -0.9553
f 353/353/353 354/354/354 355/355/355 356/356/356
v 0.0780 0.0000 0.0174
vt 0.0366 0.0538
vn -0.2955 0.0000 -0.9553
v 0.0780 0.2372 0.0174
vt 0.0366 0.1872
vn -0.2817 0.3026 -0.9105
v 0.1082 0.2372 0.0189
vt 0.0463 0.1872
vn 0.3695 0.3026 -0.8786
v 0.1082 0.0000 0.0189
vt 0.0463 0.0538
vn 0.3877 0.0000 -0.9218
f 357/357/357 358/358/358 359/359/359 360/360/360
v 0.1303 0.2372 0.0394
vt 0.0645 0.2116
vn 0.8478 0.3026 -0.4355
v 0.1082 0.2372 0.0189
vt 0.0463 0.2116
vn 0.3695 0.3026 -0.8786
v 0.1034 0.2532 0.0303
vt 0.0514 0.2213
vn 0.3072 0.6100 -0.7304
v 0.1194 0.2532 0.0450
vt 0.0645 0.2213
vn 0.7048 0.6100 -0.3621
f 361/361/361 362/362/362 363/363/363 364/364/364
v 0.1082 0.2372 0.0189
vt 0.0463 0.2116
vn 0.3695 0.3026 -0.8786
v 0.0780 0.2372 0.0174
vt 0.0366 0.2116
vn -0.2817 0.3026 -0.9105
v 0.0817 0.2532 0.0292
vt 0.0444 0.2213
vn -0.2342 0.6100 -0.7570
v 0.1034 0.2532 0.0303
vt 0.0514 0.2213
vn 0.3072 0.6100 -0.7304
f 365/365/365 366/366/366 367/367/367 368/368/368
v 0.0780 0.2372 0.0174
vt 0.0366 0.2116
vn -0.2817 0.3026 -0.9105
v 0.0540 0.2372 0.0357
vt 0.0399 0.2116
vn -0.8011 0.3026 -0.5165
v 0.0643 0.2532 0.0423
vt 0.0468 0.2213
vn -0.6660 0.6100 -0.4294
v 0.0817 0.2532 0.0292
vt 0.0444 0.2213
vn -0.2342 0.6100 -0.7570
f 369/369/369 370/370/370 371/371/371 372/372/372
v 0.0540 0.2372 0.0357
vt 0.0399 0.2116
vn -0.8011 0.3026 -0.5165
v 0.0473 0.2372 0.0651
vt 0.0548 0.2116
vn -0.9456 0.3026 0.1193
v 0.0595 0.2532 0.0636
vt 0.0575 0.2213
vn -0.7862 0.6100 0.0992
v 0.0643 0.2532 0.0423
vt 0.0468 0.2213
vn -0.6660 0.6100 -0.4294
f 373/373/373 374/374/374 375/375/375 376/376/376
v 0.0473 0.2372 0.0651
vt 0.0548 0.2116
vn -0.9456 0.3026 0.1193
v 0.0611 0.2372 0.0920
vt 0.0742 0.2116
vn -0.6477 0.3026 0.6992
v 0.0694 0.2532 0.0829
vt 0.0715 0.2213
vn -0.5385 0.6100 0.5813
v 0.0595 0.2532 0.0636
vt 0.0575 0.2213
vn -0.7862 0.6100 0.0992
f 377/377/377 378/378/378 379/379/379 380/380/380
v 0.0611 0.2372 0.0920
vt 0.0742 0.2116
vn -0.6477 0.3026 0.6992
v 0.0889 0.2372 0.1037
vt 0.0891 0.2116
vn -0.0467 0.3026 0.9520
v 0.0895 0.2532 0.0914
vt 0.0822 0.2213
vn -0.0389 0.6100 0.7914
v 0.0694 0.2532 0.0829
vt 0.0715 0.2213
vn -0.5385 0.6100 0.5813
f 381/381/381 382/382/382 383/383/383 384/384/384
v 0.1341 0.2372 0.0694
vt 0.0827 0.2116
vn 0.9294 0.3026 0.2113
v 0.1303 0.2372 0.0394
vt 0.0645 0.2116
vn 0.8478 0.3026 -0.4355
v 0.1194 0.2532 0.0450
vt 0.0645 0.2213
vn 0.7048 0.6100 -0.3621
v 0.1221 0.2532 0.0667
vt 0.0776 0.2213
vn 0.7727 0.6100 0.1757
f 385/385/385 386/386/386 387/387/387 388/388/388
v 0.0889 0.2372 0.1037
vt 0.0891 0.2116
vn -0.0467 0.3026 0.9520
v 0.1178 0.2372 0.0948
vt 0.0924 0.2116
vn 0.5761 0.3026 0.7593
v 0.1103 0.2532 0.0850
vt 0.0846 0.2213
vn 0.4790 0.6100 0.6313
v 0.0895 0.2532 0.0914
vt 0.0822 0.2213
vn -0.0389 0.6100 0.7914
f 389/389/389 390/390/390 391/391/391 392/392/392
v 0.0911 0.2401 0.0596
vt 0.0645 0.1019
vn 0.0000 1.0000 -0.0000
v 0.1221 0.2532 0.0667
vt 0.0776 0.1738
vn -0.3705 0.9250 -0.0842
v 0.1194 0.2532 0.0450
vt 0.0645 0.1738
vn -0.3380 0.9250 0.1736
f 393/393/393 394/394/394 395/395/395
v 0.0911 0.2401 0.0596
vt 0.0645 0.1019
vn 0.0000 1.0000 -0.0000
v 0.1103 0.2532 0.0850
vt 0.0846 0.1738
vn -0.2297 0.9250 -0.3027
v 0.1221 0.2532 0.0667
vt 0.0776 0.1738
vn -0.3705 0.9250 -0.0842
f 396/396/396 397/397/397 398/398/398
v 0.0911 0.2401 0.0596
vt 0.0645 0.1019
vn 0.0000 1.0000 -0.0000
v 0.0895 0.2532 0.0914
vt 0.0822 0.1738
vn 0.0186 0.9250 -0.3795
v 0.1103 0.2532 0.0850
vt 0.0846 0.1738
vn -0.2297 0.9250 -0.3027
f 399/399/399 400/400/400 401/401/401
v 0.0911 0.2401 0.0596
vt 0.0645 0.1019
vn 0.0000 1.0000 -0.0000
v 0.0694 0.2532 0.0829
vt 0.0715 0.1738
vn 0.2582 0.9250 -0.2787
v 0.0895 0.2532 0.0914
vt 0.0822 0.1738
vn 0.0186 0.9250 -0.3795
f 402/402/402 403/403/403 404/404/404
v 0.0911 0.2401 0.0596
vt 0.0645 0.1019
vn 0.0000 1.0000 -0.0000
v 0.0595 0.2532 0.0636
vt 0.0575 0.1738
vn 0.3770 0.9250 -0.0476
v 0.0694 0.2532 0.0829
vt 0.0715 0.1738
vn 0.2582 0.9250 -0.2787
f 405/405/405 406/406/406 407/407/407
v 0.0911 0.2401 0.0596
vt 0.0645 0.1019
vn 0.0000 1.0000 -0.0000
v 0.0643 0.2532 0.0423
vt 0.0468 0.1738
vn 0.3193 0.9250 0.2059
v 0.0595 0.2532 0.0636
vt 0.0575 0.1738
vn 0.3770 0.9250 -0.0476
f 408/408/408 409/409/409 410/410/410
v 0.0911 0.2401 0.0596
vt 0.0645 0.1019
vn 0.0000 1.0000 -0.0000
v 0.0817 0.2532 0.0292
vt 0.0444 0.1738
vn 0.1123 0.9250 0.3630
v 0.0643 0.2532 0.0423
vt 0.0468 0.1738
vn 0.3193 0.9250 0.2059
f 411/411/411 412/412/412 413/413/413
v 0.0911 0.2401 0.0596
vt 0.0645 0.1019
vn 0.0000 1.0000 -0.0000
v 0.1034 0.2532 0.0303
vt 0.0514 0.1738
vn -0.1473 0.9250 0.3502
v 0.0817 0.2532 0.0292
vt 0.0444 0.1738
vn 0.1123 0.9250 0.3630
f 414/414/414 415/415/415 416/416/416
v 0.0911 0.2401 0.0596
vt 0.0645 0.1019
vn 0.0000 1.0000 -0.0000
v 0.1194 0.2532 0.0450
vt 0.0645 0.1738
vn -0.3380 0.9250 0.1736
v 0.1034 0.2532 0.0303
vt 0.0514 0.1738
vn -0.1473 0.9250 0.3502
f 417/417/417 418/418/418 419/419/419
v 0.0911 0.0000 0.0596
vt 0.0645 0.0075
vn 0.0000 -1.0000 0.0000
v 0.1303 0.0000 0.0394
vt 0.0645 0.0075
vn 0.0000 -1.0000 0.0000
v 0.1341 0.0000 0.0694
vt 0.0827 0.0075
vn 0.0000 -1.0000 0.0000
f 420/420/420 421/421/421 422/422/422
v 0.0911 0.0000 0.0596
vt 0.0798 0.0075
vn 0.0000 -1.0000 0.0000
v 0.1341 0.0000 0.0694
vt 0.0827 0.0075
vn 0.0000 -1.0000 0.0000
v 0.1178 0.0000 0.0948
vt 0.0924 0.0075
vn 0.0000 -1.0000 0.0000
f 423/423/423 424/424/424 425/425/425
v 0.0911 0.0000 0.0596
vt 0.0880 0.0075
vn 0.0000 -1.0000 0.0000
v 0.1178 0.0000 0.0948
vt 0.0924 0.0075
vn 0.0000 -1.0000 0.0000
v 0.0889 0.0000 0.1037
vt 0.0891 0.0075
vn 0.0000 -1.0000 0.0000
f 426/426/426 427/427/427 428/428/428
v 0.0911 0.0000 0.0596
vt 0.0851 0.0075
vn 0.0000 -1.0000 0.0000
v 0.0889 0.0000 0.1037
vt 0.0891 0.0075
vn 0.0000 -1.0000 0.0000
v 0.0611 0.0000 0.0920
vt 0.0742 0.0075
vn 0.0000 -1.0000 0.0000
f 429/429/429 430/430/430 431/431/431
v 0.0911 0.0000 0.0596
vt 0.0727 0.0075
vn 0.0000 -1.0000 0.0000
v 0.0611 0.0000 0.0920
vt 0.0742 0.0075
vn 0.0000 -1.0000 0.0000
v 0.0473 0.0000 0.0651
vt 0.0548 0.0075
vn 0.0000 -1.0000 0.0000
f 432/432/432 433/433/433 434/434/434
v 0.0911 0.0000 0.0596
vt 0.0563 0.0075
vn 0.0000 -1.0000 0.0000
v 0.0473 0.0000 0.0651
vt 0.0548 0.0075
vn 0.0000 -1.0000 0.0000
v 0.0540 0.0000 0.0357
vt 0.0399 0.0075
vn 0.0000 -1.0000 0.0000
f 435/435/435 436/436/436 437/437/437
v 0.0911 0.0000 0.0596
vt 0.0439 0.0075
vn 0.0000 -1.0000 0.0000
v 0.0540 0.0000 0.0357
vt 0.0399 0.0075
vn 0.0000 -1.0000 0.0000
v 0.0780 0.0000 0.0174
vt 0.0366 0.0075
vn 0.0000 -1.0000 0.0000
f 438/438/438 439/439/439 440/440/440
v 0.0911 0.0000 0.0596
vt 0.0410 0.0075
vn 0.0000 -1.0000 0.0000
v 0.0780 0.0000 0.0174
vt 0.0366 0.0075
vn 0.0000 -1.0000 0.0000
v 0.1082 0.0000 0.0189
vt 0.0463 0.0075
vn 0.0000 -1.0000 0.0000
f 441/441/441 442/442/442 443/443/443
v 0.0911 0.0000 0.0596
vt 0.0492 0.0075
vn 0.0000 -1.0000 0.0000
v 0.1082 0.0000 0.0189
vt 0.0463 0.0075
vn 0.0000 -1.0000 0.0000
v 0.1303 0.0000 0.0394
vt 0.0645 0.0075
vn 0.0000 -1.0000 0.0000
f 444/444/444 445/445/445 446/446/446
v 0.0911 0.2106 0.0596
vt 0.9219 0.7675
vn 0.9830 -0.1773 0.0483
v 0.1044 0.2825 0.0528
vt 0.9219 0.8312
vn 0.9830 -0.1773 0.0483
v 0.1036 0.2825 0.0677
vt 0.9495 0.8312
vn 0.9830 -0.1773 0.0483
f 447/447/447 448/448/448 449/449/449
v 0.0911 0.2106 0.0596
vt 0.9219 0.7675
vn 0.4497 -0.1773 0.8754
v 0.1036 0.2825 0.0677
vt 0.9495 0.8312
vn 0.4497 -0.1773 0.8754
v 0.0903 0.2825 0.0745
vt 0.9495 0.8312
vn 0.4497 -0.1773 0.8754
f 450/450/450 451/451/451 452/452/452
v 0.0911 0.2106 0.0596
vt 0.9219 0.7675
vn -0.5333 -0.1773 0.8272
v 0.0903 0.2825 0.0745
vt 0.9495 0.8312
vn -0.5333 -0.1773 0.8272
v 0.0778 0.2825 0.0664
vt 0.9219 0.8312
vn -0.5333 -0.1773 0.8272
f 453/453/453 454/454/454 455/455/455
v 0.0911 0.2106 0.0596
vt 0.9219 0.7675
vn -0.9830 -0.1773 -0.0483
v 0.0778 0.2825 0.0664
vt 0.9219 0.8312
vn -0.9830 -0.1773 -0.0483
v 0.0785 0.2825 0.0515
vt 0.8943 0.8312
vn -0.9830 -0.1773 -0.0483
f 456/456/456 457/457/457 458/458/458
v 0.0918 0.2825 0.0447
vt 0.8943 0.8312
vn 0.0105 0.9769 -0.2133
v 0.0785 0.2825 0.0515
vt 0.8943 0.8312
vn -0.1795 0.9769 -0.1157
v 0.0911 0.2857 0.0596
vt 0.8943 0.8312
vn 0.0000 1.0000 -0.0000
f 459/459/459 460/460/460 461/461/461
v 0.0911 0.2106 0.0596
vt 0.9219 0.7675
vn -0.4497 -0.1773 -0.8754
v 0.0785 0.2825 0.0515
vt 0.8943 0.8312
vn -0.4497 -0.1773 -0.8754
v 0.0918 0.2825 0.0447
vt 0.8943 0.8312
vn -0.4497 -0.1773 -0.8754
f 462/462/462 463/463/463 464/464/464
v 0.0911 0.2106 0.0596
vt 0.9219 0.7675
vn 0.5333 -0.1773 -0.8272
v 0.0918 0.2825 0.0447
vt 0.8943 0.8312
vn 0.5333 -0.1773 -0.8272
v 0.1044 0.2825 0.0528
vt 0.9219 0.8312
vn 0.5333 -0.1773 -0.8272
f 465/465/465 466/466/466 467/467/467
v 0.0785 0.2825 0.0515
vt 0.8943 0.8312
vn -0.1795 0.9769 -0.1157
v 0.0778 0.2825 0.0664
vt 0.9219 0.8312
vn -0.1899 0.9769 0.0976
v 0.0911 0.2857 0.0596
vt 0.8943 0.8312
vn 0.0000 1.0000 -0.0000
f 468/468/468 469/469/469 470/470/470
v 0.0778 0.2825 0.0664
vt 0.9219 0.8312
vn -0.1899 0.9769 0.0976
v 0.0903 0.2825 0.0745
vt 0.9495 0.8312
vn -0.0105 0.9769 0.2133
v 0.0911 0.2857 0.0596
vt 0.9219 0.8312
vn 0.0000 1.0000 -0.0000
f 471/471/471 472/472/472 473/473/473
v 0.1036 0.2825 0.0677
vt 0.9495 0.8312
vn 0.1795 0.9769 0.1157
v 0.1044 0.2825 0.0528
vt 0.9219 0.8312
vn 0.1899 0.9769 -0.0976
v 0.0911 0.2857 0.0596
vt 0.9495 0.8312
vn 0.0000 1.0000 -0.0000
f 474/474/474 475/475/475 476/476/476
v 0.1044 0.2825 0.0528
vt 0.9219 0.8312
vn 0.1899 0.9769 -0.0976
v 0.0918 0.2825 0.0447
vt 0.8943 0.8312
vn 0.0105 0.9769 -0.2133
v 0.0911 0.2857 0.0596
vt 0.9219 0.8312
vn 0.0000 1.0000 -0.0000
f 477/477/477 478/478/478 479/479/479
v 0.0903 0.2825 0.0745
vt 0.9495 0.8312
vn -0.0105 0.9769 0.2133
v 0.1036 0.2825 0.0677
vt 0.9495 0.8312
vn 0.1795 0.9769 0.1157
v 0.0911 0.2857 0.0596
vt 0.9495 0.8312
vn 0.0000 1.0000 -0.0000
f 480/480/480 481/481/481 482/482/482
v 0.1082 0.0000 0.0189
vt 0.0463 0.0538
vn 0.3877 0.0000 -0.9218
v 0.1082 0.2372 0.0189
vt 0.0463 0.1872
vn 0.3695 0.3026 -0.8786
v 0.1303 0.2372 0.0394
vt 0.0645 0.1872
vn 0.8478 0.3026 -0.4355
v 0.1303 0.0000 0.0394
vt 0.0645 0.0538
vn 0.8895 0.0000 -0.4569
f 483/483/483 484/484/484 485/485/485 486/486/486
