# Blender 4.5.13 LTS
# www.blender.org
o iron
v -0.011772 0.187051 0.017500
v 0.011772 0.212949 0.017500
v -0.011772 0.187051 -0.017500
v 0.011772 0.212949 -0.017500
v 0.208228 -0.012949 0.017500
v 0.231772 0.012949 0.017500
v 0.208228 -0.012949 -0.017500
v 0.231772 0.012949 -0.017500
v -0.000558 0.183095 0.018067
v 0.022986 0.192958 -0.005879
v -0.022986 0.207042 0.005879
v 0.000558 0.216905 -0.018067
v -0.110558 -0.016905 -0.172458
v -0.087014 -0.007042 -0.196405
v -0.132986 0.007042 -0.184647
v -0.109442 0.016905 -0.208593
v -0.022986 0.207042 -0.005879
v 0.000558 0.216905 0.018067
v -0.000558 0.183095 -0.018067
v 0.022986 0.192958 0.005879
v -0.132986 0.007042 0.184647
v -0.109442 0.016905 0.208593
v -0.110558 -0.016905 0.172458
v -0.087014 -0.007042 0.196405
v 0.000000 0.150000 -0.025000
v 0.000000 1.450000 -0.025000
v 0.021651 0.150000 -0.012500
v 0.021651 1.450000 -0.012500
v 0.021651 0.150000 0.012500
v 0.021651 1.450000 0.012500
v 0.000000 0.150000 0.025000
v 0.000000 1.450000 0.025000
v -0.021651 0.150000 0.012500
v -0.021651 1.450000 0.012500
v -0.021651 0.150000 -0.012500
v -0.021651 1.450000 -0.012500
v 0.000000 1.400000 -0.260000
v 0.000000 1.430000 -0.200000
v 0.130000 1.400000 -0.225167
v 0.100000 1.430000 -0.173205
v 0.225167 1.400000 -0.130000
v 0.173205 1.430000 -0.100000
v 0.260000 1.400000 0.000000
v 0.200000 1.430000 0.000000
v 0.225167 1.400000 0.130000
v 0.173205 1.430000 0.100000
v 0.130000 1.400000 0.225167
v 0.100000 1.430000 0.173205
v 0.000000 1.400000 0.260000
v 0.000000 1.430000 0.200000
v -0.130000 1.400000 0.225167
v -0.100000 1.430000 0.173205
v -0.225167 1.400000 0.130000
v -0.173205 1.430000 0.100000
v -0.260000 1.400000 0.000000
v -0.200000 1.430000 0.000000
v -0.225167 1.400000 -0.130000
v -0.173205 1.430000 -0.100000
v -0.130000 1.400000 -0.225167
v -0.100000 1.430000 -0.173205
v 0.000000 1.430000 -0.030000
v 0.000000 1.690000 -0.030000
v 0.025981 1.430000 -0.015000
v 0.025981 1.690000 -0.015000
v 0.025981 1.430000 0.015000
v 0.025981 1.690000 0.015000
v 0.000000 1.430000 0.030000
v 0.000000 1.690000 0.030000
v -0.025981 1.430000 0.015000
v -0.025981 1.690000 0.015000
v -0.025981 1.430000 -0.015000
v -0.025981 1.690000 -0.015000
v 0.000000 1.690000 -0.022000
v 0.000000 1.760000 -0.001000
v 0.020923 1.690000 -0.006798
v 0.000951 1.760000 -0.000309
v 0.012931 1.690000 0.017798
v 0.000588 1.760000 0.000809
v -0.012931 1.690000 0.017798
v -0.000588 1.760000 0.000809
v -0.020923 1.690000 -0.006798
v -0.000951 1.760000 -0.000309
v 0.061803 1.430000 -0.220211
v 0.061803 1.610000 -0.220211
v 0.087784 1.430000 -0.205211
v 0.087784 1.610000 -0.205211
v 0.087784 1.430000 -0.175211
v 0.087784 1.610000 -0.175211
v 0.061803 1.430000 -0.160211
v 0.061803 1.610000 -0.160211
v 0.035823 1.430000 -0.175211
v 0.035823 1.610000 -0.175211
v 0.035823 1.430000 -0.205211
v 0.035823 1.610000 -0.205211
v 0.061803 1.610000 -0.212211
v 0.061803 1.680000 -0.191211
v 0.082727 1.610000 -0.197010
v 0.062754 1.680000 -0.190520
v 0.074735 1.610000 -0.172413
v 0.062391 1.680000 -0.189402
v 0.048872 1.610000 -0.172413
v 0.061216 1.680000 -0.189402
v 0.040880 1.610000 -0.197010
v 0.060852 1.680000 -0.190520
v -0.161803 1.430000 -0.147557
v -0.161803 1.610000 -0.147557
v -0.135823 1.430000 -0.132557
v -0.135823 1.610000 -0.132557
v -0.135823 1.430000 -0.102557
v -0.135823 1.610000 -0.102557
v -0.161803 1.430000 -0.087557
v -0.161803 1.610000 -0.087557
v -0.187784 1.430000 -0.102557
v -0.187784 1.610000 -0.102557
v -0.187784 1.430000 -0.132557
v -0.187784 1.610000 -0.132557
v -0.161803 1.610000 -0.139557
v -0.161803 1.680000 -0.118557
v -0.140880 1.610000 -0.124355
v -0.160852 1.680000 -0.117866
v -0.148872 1.610000 -0.099759
v -0.161216 1.680000 -0.116748
v -0.174735 1.610000 -0.099759
v -0.162391 1.680000 -0.116748
v -0.182727 1.610000 -0.124355
v -0.162754 1.680000 -0.117866
v -0.161803 1.430000 0.087557
v -0.161803 1.610000 0.087557
v -0.135823 1.430000 0.102557
v -0.135823 1.610000 0.102557
v -0.135823 1.430000 0.132557
v -0.135823 1.610000 0.132557
v -0.161803 1.430000 0.147557
v -0.161803 1.610000 0.147557
v -0.187784 1.430000 0.132557
v -0.187784 1.610000 0.132557
v -0.187784 1.430000 0.102557
v -0.187784 1.610000 0.102557
v -0.161803 1.610000 0.095557
v -0.161803 1.680000 0.116557
v -0.140880 1.610000 0.110759
v -0.160852 1.680000 0.117248
v -0.148872 1.610000 0.135355
v -0.161216 1.680000 0.118366
v -0.174735 1.610000 0.135355
v -0.162391 1.680000 0.118366
v -0.182727 1.610000 0.110759
v -0.162754 1.680000 0.117248
v 0.061803 1.430000 0.160211
v 0.061803 1.610000 0.160211
v 0.087784 1.430000 0.175211
v 0.087784 1.610000 0.175211
v 0.087784 1.430000 0.205211
v 0.087784 1.610000 0.205211
v 0.061803 1.430000 0.220211
v 0.061803 1.610000 0.220211
v 0.035823 1.430000 0.205211
v 0.035823 1.610000 0.205211
v 0.035823 1.430000 0.175211
v 0.035823 1.610000 0.175211
v 0.061803 1.610000 0.168211
v 0.061803 1.680000 0.189211
v 0.082727 1.610000 0.183413
v 0.062754 1.680000 0.189902
v 0.074735 1.610000 0.208010
v 0.062391 1.680000 0.191020
v 0.048872 1.610000 0.208010
v 0.061216 1.680000 0.191020
v 0.040880 1.610000 0.183413
v 0.060852 1.680000 0.189902
vn -0.7399 0.6727 -0.0000
vn -0.0000 -0.0000 -1.0000
vn 0.7399 -0.6727 -0.0000
vn -0.0000 -0.0000 1.0000
vn -0.6727 -0.7399 -0.0000
vn 0.6727 0.7399 -0.0000
vn 0.3700 0.6727 0.6408
vn -0.6408 0.6842 -0.3482
vn -0.3700 -0.6727 -0.6408
vn 0.6408 -0.6842 0.3482
vn -0.6727 -0.2818 0.6842
vn 0.6727 0.2818 -0.6842
vn 0.3700 0.6727 -0.6408
vn 0.6408 -0.6842 -0.3482
vn -0.3700 -0.6727 0.6408
vn -0.6408 0.6842 0.3482
vn -0.6727 -0.2818 -0.6842
vn 0.6727 0.2818 0.6842
vn 0.5000 -0.0000 -0.8660
vn 1.0000 -0.0000 -0.0000
vn 0.5000 -0.0000 0.8660
vn -0.5000 -0.0000 0.8660
vn -0.0000 1.0000 -0.0000
vn -1.0000 -0.0000 -0.0000
vn -0.5000 -0.0000 -0.8660
vn -0.0000 -1.0000 -0.0000
vn 0.1190 0.8881 -0.4440
vn 0.3251 0.8881 -0.3251
vn 0.4440 0.8881 -0.1190
vn 0.4440 0.8881 0.1190
vn 0.3251 0.8881 0.3251
vn 0.1190 0.8881 0.4440
vn -0.1190 0.8881 0.4440
vn -0.3251 0.8881 0.3251
vn -0.4440 0.8881 0.1190
vn -0.4440 0.8881 -0.1190
vn -0.3251 0.8881 -0.3251
vn -0.1190 0.8881 -0.4440
vn 0.5712 0.2359 -0.7862
vn 0.9242 0.2359 0.3003
vn -0.0000 0.2359 0.9718
vn -0.9242 0.2359 0.3003
vn -0.5712 0.2359 -0.7862
vn -0.0005 1.0000 -0.0000
vn 0.0007 1.0000 -0.0000
vn -0.9242 0.2358 0.3003
vt 0.794933 0.100548
vt 0.816665 0.071776
vt 0.816665 0.098356
vt 0.549167 0.001518
vt 0.576009 0.229533
vt 0.549167 0.229533
vt 0.661780 0.188291
vt 0.634939 0.170235
vt 0.661780 0.170235
vt 0.549167 0.460383
vt 0.575970 0.232569
vt 0.575970 0.460313
vt 0.634939 0.001518
vt 0.661780 0.001518
vt 0.634939 0.644440
vt 0.661321 0.813547
vt 0.634939 0.816782
vt 0.814272 0.129208
vt 0.794933 0.109128
vt 0.814272 0.103585
vt 0.689636 0.783340
vt 0.664817 0.945181
vt 0.664817 0.776464
vt 0.515569 0.597880
vt 0.531441 0.575148
vt 0.540729 0.592380
vt 0.506281 0.580647
vt 0.540729 0.406687
vt 0.654846 0.411202
vt 0.634939 0.638168
vt 0.634939 0.414829
vt 0.664817 0.590578
vt 0.688738 0.773427
vt 0.664817 0.765625
vt 0.794933 0.168935
vt 0.813751 0.137788
vt 0.813751 0.163541
vt 0.515569 0.786610
vt 0.531441 0.623648
vt 0.540729 0.792109
vt 0.515569 0.600916
vt 0.540729 0.606416
vt 0.634939 0.408165
vt 0.656814 0.191327
vt 0.656814 0.402258
vt 0.688738 0.412495
vt 0.664817 0.579740
vt 0.664817 0.404693
vt 0.592053 0.712442
vt 0.614620 0.921099
vt 0.592053 0.926163
vt 0.406356 0.001518
vt 0.422960 0.998482
vt 0.406356 0.998482
vt 0.462241 0.001518
vt 0.481224 0.992804
vt 0.462241 0.992511
vt 0.425996 0.001518
vt 0.442600 0.996561
vt 0.425996 0.995867
vt 0.442600 0.002212
vt 0.459204 0.995867
vt 0.718489 0.944982
vt 0.735093 0.916223
vt 0.751697 0.944982
vt 0.484261 0.001812
vt 0.503245 0.992511
vt 0.484261 0.992804
vt 0.389752 0.001518
vt 0.389752 0.998482
vt 0.718489 0.967191
vt 0.751697 0.967191
vt 0.735093 0.995949
vt 0.045964 0.233814
vt 0.053125 0.335109
vt 0.001518 0.245724
vt 0.085662 0.302572
vt 0.142510 0.386715
vt 0.154419 0.342270
vt 0.245724 0.386715
vt 0.233814 0.342270
vt 0.335109 0.335109
vt 0.302572 0.302572
vt 0.386715 0.245724
vt 0.342270 0.233814
vt 0.386715 0.142510
vt 0.342270 0.154419
vt 0.335109 0.053125
vt 0.302572 0.085662
vt 0.245723 0.001518
vt 0.233814 0.045964
vt 0.142510 0.001518
vt 0.154419 0.045964
vt 0.053125 0.053125
vt 0.085662 0.085662
vt 0.001518 0.142510
vt 0.045964 0.154419
vt 0.142510 0.389752
vt 0.386715 0.633957
vt 0.053125 0.723343
vt 0.526206 0.204257
vt 0.546130 0.403650
vt 0.526206 0.403650
vt 0.664817 0.001518
vt 0.687597 0.200069
vt 0.664817 0.199717
vt 0.506281 0.001518
vt 0.526206 0.201221
vt 0.506281 0.200388
vt 0.526206 0.002351
vt 0.546130 0.200388
vt 0.718489 0.372833
vt 0.738414 0.338323
vt 0.758338 0.372833
vt 0.664817 0.203457
vt 0.687597 0.401304
vt 0.664817 0.401656
vt 0.506281 0.204257
vt 0.506281 0.403650
vt 0.718489 0.398877
vt 0.758338 0.398877
vt 0.738414 0.433387
vt 0.734535 0.686309
vt 0.735265 0.632626
vt 0.750581 0.686309
vt 0.769499 0.751794
vt 0.780914 0.806591
vt 0.761375 0.806591
vt 0.761375 0.056003
vt 0.771743 0.001518
vt 0.781209 0.056003
vt 0.796320 0.173152
vt 0.794933 0.172701
vt 0.795463 0.171972
vt 0.771902 0.809627
vt 0.780914 0.864424
vt 0.761375 0.864424
vt 0.718489 0.686309
vt 0.734535 0.632626
vt 0.780238 0.934681
vt 0.761375 0.908718
vt 0.780238 0.902589
vt 0.611978 0.143067
vt 0.631902 0.281108
vt 0.611978 0.281108
vt 0.692672 0.142121
vt 0.715452 0.279688
vt 0.692672 0.279336
vt 0.549167 0.463420
vt 0.569092 0.601932
vt 0.549167 0.601099
vt 0.569092 0.464253
vt 0.589016 0.601099
vt 0.718489 0.274732
vt 0.738414 0.240222
vt 0.758338 0.274732
vt 0.692672 0.564282
vt 0.715453 0.701145
vt 0.692672 0.701497
vt 0.592053 0.143067
vt 0.592053 0.281108
vt 0.718489 0.153625
vt 0.758338 0.153625
vt 0.738414 0.188135
vt 0.734535 0.689345
vt 0.750581 0.743028
vt 0.734535 0.743028
vt 0.769499 0.289127
vt 0.780914 0.343923
vt 0.761375 0.343923
vt 0.770841 0.059040
vt 0.781209 0.113525
vt 0.761375 0.113525
vt 0.795463 0.177926
vt 0.795463 0.176467
vt 0.796320 0.176746
vt 0.771902 0.346960
vt 0.780914 0.401757
vt 0.761375 0.401757
vt 0.733806 0.689345
vt 0.718489 0.743028
vt 0.761375 0.883507
vt 0.791896 0.873590
vt 0.791896 0.893423
vt 0.611978 0.425222
vt 0.631902 0.563263
vt 0.611978 0.563263
vt 0.692672 0.704534
vt 0.715452 0.842100
vt 0.692672 0.841748
vt 0.549167 0.746517
vt 0.569092 0.885028
vt 0.549167 0.884196
vt 0.569092 0.747349
vt 0.589016 0.884196
vt 0.738414 0.482438
vt 0.718489 0.447927
vt 0.758338 0.447927
vt 0.692672 0.845488
vt 0.715453 0.982351
vt 0.692672 0.982703
vt 0.592053 0.425222
vt 0.592053 0.563263
vt 0.718489 0.519985
vt 0.738414 0.485475
vt 0.758338 0.519985
vt 0.734535 0.746065
vt 0.750581 0.799747
vt 0.734535 0.799747
vt 0.769499 0.693961
vt 0.780914 0.748757
vt 0.761375 0.748757
vt 0.770841 0.231605
vt 0.781209 0.286090
vt 0.761375 0.286090
vt 0.796320 0.181692
vt 0.794933 0.182143
vt 0.794933 0.181241
vt 0.771902 0.636127
vt 0.780914 0.690924
vt 0.761375 0.690924
vt 0.733806 0.746065
vt 0.718489 0.799747
vt 0.806591 0.068739
vt 0.806591 0.036647
vt 0.825454 0.042776
vt 0.611978 0.566300
vt 0.631902 0.704341
vt 0.611978 0.704341
vt 0.692672 0.001518
vt 0.715453 0.139085
vt 0.692672 0.138733
vt 0.592053 0.001518
vt 0.611978 0.140030
vt 0.592053 0.139197
vt 0.611978 0.002351
vt 0.631902 0.139197
vt 0.738414 0.580539
vt 0.718489 0.546028
vt 0.758338 0.546028
vt 0.692672 0.283076
vt 0.715453 0.419939
vt 0.692672 0.420291
vt 0.592053 0.566300
vt 0.592053 0.704341
vt 0.718489 0.618086
vt 0.738414 0.583575
vt 0.758338 0.618086
vt 0.734535 0.802784
vt 0.750581 0.856467
vt 0.734535 0.856467
vt 0.761375 0.575257
vt 0.770387 0.520460
vt 0.780914 0.575257
vt 0.770841 0.116562
vt 0.781209 0.171047
vt 0.761375 0.171047
vt 0.796320 0.186187
vt 0.794933 0.186638
vt 0.794933 0.185737
vt 0.771902 0.404794
vt 0.780914 0.459590
vt 0.761375 0.459590
vt 0.733806 0.802784
vt 0.718489 0.856467
vt 0.806591 0.033610
vt 0.806591 0.001518
vt 0.825454 0.007647
vt 0.611978 0.284144
vt 0.631902 0.422186
vt 0.611978 0.422186
vt 0.718489 0.001518
vt 0.741270 0.139085
vt 0.718489 0.138733
vt 0.549167 0.604968
vt 0.569092 0.743480
vt 0.549167 0.742647
vt 0.569092 0.605801
vt 0.589016 0.742647
vt 0.718489 0.225682
vt 0.738414 0.191172
vt 0.758338 0.225682
vt 0.692672 0.423679
vt 0.715453 0.560542
vt 0.692672 0.560894
vt 0.592053 0.284144
vt 0.592053 0.422186
vt 0.718489 0.300776
vt 0.758338 0.300776
vt 0.738414 0.335286
vt 0.734535 0.859503
vt 0.750581 0.913186
vt 0.734535 0.913186
vt 0.769499 0.462627
vt 0.780914 0.517424
vt 0.761375 0.517424
vt 0.770841 0.174083
vt 0.781209 0.228568
vt 0.761375 0.228568
vt 0.795463 0.191412
vt 0.795463 0.189954
vt 0.796320 0.190232
vt 0.771902 0.578294
vt 0.780914 0.633091
vt 0.761375 0.633091
vt 0.733806 0.859503
vt 0.718489 0.913186
vt 0.780238 0.969810
vt 0.761375 0.943847
vt 0.780238 0.937718
vt 0.794933 0.073968
vt 0.576009 0.001518
vt 0.634939 0.188291
vt 0.549167 0.232639
vt 0.661321 0.641205
vt 0.794933 0.134751
vt 0.689636 0.952057
vt 0.515569 0.412186
vt 0.654846 0.634541
vt 0.688738 0.598380
vt 0.794933 0.143181
vt 0.506281 0.618149
vt 0.634939 0.197235
vt 0.688738 0.587542
vt 0.614620 0.707378
vt 0.422960 0.001518
vt 0.481224 0.001812
vt 0.459204 0.001518
vt 0.735093 0.954568
vt 0.718489 0.925809
vt 0.751697 0.925809
vt 0.503245 0.001518
vt 0.718489 0.986363
vt 0.735093 0.957605
vt 0.751697 0.986363
vt 0.001518 0.633957
vt 0.001518 0.530744
vt 0.053125 0.441359
vt 0.245724 0.389752
vt 0.335109 0.441359
vt 0.386715 0.530744
vt 0.335109 0.723343
vt 0.245724 0.774949
vt 0.142510 0.774949
vt 0.546130 0.204257
vt 0.687597 0.001870
vt 0.546130 0.001518
vt 0.738414 0.384337
vt 0.718489 0.349827
vt 0.758338 0.349827
vt 0.687597 0.203106
vt 0.718489 0.421884
vt 0.738414 0.387374
vt 0.758338 0.421884
vt 0.770387 0.751794
vt 0.770841 0.001518
vt 0.796320 0.172250
vt 0.795463 0.173430
vt 0.772790 0.809628
vt 0.733806 0.632626
vt 0.791896 0.918635
vt 0.761375 0.928552
vt 0.631902 0.143067
vt 0.715452 0.142473
vt 0.589016 0.463420
vt 0.738414 0.286236
vt 0.718489 0.251726
vt 0.758338 0.251726
vt 0.715453 0.563931
vt 0.718489 0.176632
vt 0.738414 0.142121
vt 0.758338 0.176632
vt 0.735265 0.689345
vt 0.770387 0.289127
vt 0.771743 0.059040
vt 0.796320 0.177647
vt 0.794933 0.177196
vt 0.772790 0.346960
vt 0.773033 0.899552
vt 0.773033 0.867461
vt 0.631902 0.425222
vt 0.715452 0.704885
vt 0.589016 0.746517
vt 0.758338 0.470934
vt 0.718489 0.470934
vt 0.738414 0.436424
vt 0.715453 0.845136
vt 0.738414 0.531488
vt 0.718489 0.496978
vt 0.758338 0.496978
vt 0.735265 0.746065
vt 0.770387 0.693961
vt 0.771743 0.231605
vt 0.795790 0.180963
vt 0.795790 0.182421
vt 0.772790 0.636127
vt 0.825454 0.062610
vt 0.794933 0.052693
vt 0.631902 0.566300
vt 0.715453 0.001870
vt 0.631902 0.001518
vt 0.758338 0.569035
vt 0.718489 0.569035
vt 0.738414 0.534525
vt 0.715453 0.282724
vt 0.738414 0.629589
vt 0.718489 0.595079
vt 0.758338 0.595079
vt 0.735265 0.802784
vt 0.769499 0.520460
vt 0.771743 0.116562
vt 0.795790 0.185458
vt 0.795790 0.186917
vt 0.772790 0.404794
vt 0.825454 0.027481
vt 0.794933 0.017564
vt 0.631902 0.284144
vt 0.741270 0.001870
vt 0.589016 0.604968
vt 0.738414 0.237185
vt 0.718489 0.202675
vt 0.758338 0.202675
vt 0.715453 0.423327
vt 0.718489 0.323783
vt 0.738414 0.289273
vt 0.758338 0.323783
vt 0.735265 0.859503
vt 0.770387 0.462627
vt 0.771743 0.174083
vt 0.796320 0.191134
vt 0.794933 0.190683
vt 0.772790 0.578294
vt 0.791896 0.953764
vt 0.761375 0.963681
s 0
f 2/1/1 3/2/1 1/3/1
f 3/4/2 8/5/2 7/6/2
f 8/7/3 5/8/3 7/9/3
f 6/10/4 1/11/4 5/12/4
f 7/9/5 1/13/5 3/14/5
f 4/15/6 6/16/6 8/17/6
f 9/18/7 12/19/7 11/20/7
f 12/21/8 15/22/8 11/23/8
f 16/24/9 13/25/9 15/26/9
f 14/27/10 9/28/10 13/25/10
f 11/29/11 13/30/11 9/31/11
f 12/32/12 14/33/12 16/34/12
f 17/35/13 20/36/13 19/37/13
f 20/38/14 23/39/14 19/40/14
f 23/39/15 22/41/15 21/42/15
f 22/43/16 17/44/16 21/45/16
f 19/46/17 21/47/17 17/48/17
f 20/49/18 22/50/18 24/51/18
f 26/52/19 27/53/19 25/54/19
f 28/55/20 29/56/20 27/57/20
f 30/58/21 31/59/21 29/60/21
f 32/61/22 33/62/22 31/59/22
f 26/63/23 34/64/23 30/65/23
f 34/66/24 35/67/24 33/68/24
f 36/69/25 25/54/25 35/70/25
f 27/71/26 31/72/26 35/73/26
f 38/74/27 39/75/27 37/76/27
f 40/77/28 41/78/28 39/75/28
f 42/79/29 43/80/29 41/78/29
f 44/81/30 45/82/30 43/80/30
f 46/83/31 47/84/31 45/82/31
f 48/85/32 49/86/32 47/84/32
f 50/87/33 51/88/33 49/86/33
f 52/89/34 53/90/34 51/88/34
f 54/91/35 55/92/35 53/90/35
f 56/93/36 57/94/36 55/92/36
f 58/95/23 50/87/23 42/79/23
f 58/95/37 59/96/37 57/94/37
f 60/97/38 37/76/38 59/96/38
f 43/98/26 51/99/26 59/100/26
f 62/101/19 63/102/19 61/103/19
f 64/104/20 65/105/20 63/106/20
f 66/107/21 67/108/21 65/109/21
f 68/110/22 69/111/22 67/108/22
f 62/112/23 70/113/23 66/114/23
f 70/115/24 71/116/24 69/117/24
f 72/118/25 61/103/25 71/119/25
f 63/120/26 67/121/26 71/122/26
f 73/123/39 76/124/39 75/125/39
f 76/126/40 77/127/40 75/128/40
f 77/129/41 80/130/41 79/131/41
f 74/132/23 80/133/23 78/134/23
f 80/135/42 81/136/42 79/137/42
f 81/138/43 74/139/43 73/123/43
f 75/140/26 79/141/26 81/142/26
f 84/143/19 85/144/19 83/145/19
f 86/146/20 87/147/20 85/148/20
f 88/149/21 89/150/21 87/151/21
f 90/152/22 91/153/22 89/150/22
f 84/154/23 92/155/23 88/156/23
f 92/157/24 93/158/24 91/159/24
f 94/160/25 83/145/25 93/161/25
f 85/162/26 89/163/26 93/164/26
f 96/165/39 97/166/39 95/167/39
f 98/168/40 99/169/40 97/170/40
f 100/171/41 101/172/41 99/173/41
f 96/174/23 102/175/23 100/176/23
f 102/177/42 103/178/42 101/179/42
f 104/180/43 95/167/43 103/181/43
f 97/182/26 101/183/26 103/184/26
f 106/185/19 107/186/19 105/187/19
f 108/188/20 109/189/20 107/190/20
f 110/191/21 111/192/21 109/193/21
f 112/194/22 113/195/22 111/192/22
f 106/196/23 114/197/23 110/198/23
f 114/199/24 115/200/24 113/201/24
f 116/202/25 105/187/25 115/203/25
f 107/204/26 111/205/26 115/206/26
f 118/207/39 119/208/39 117/209/39
f 120/210/40 121/211/40 119/212/40
f 122/213/41 123/214/41 121/215/41
f 118/216/23 124/217/23 122/218/23
f 124/219/42 125/220/42 123/221/42
f 126/222/43 117/209/43 125/223/43
f 119/224/26 123/225/26 125/226/26
f 128/227/19 129/228/19 127/229/19
f 130/230/20 131/231/20 129/232/20
f 132/233/21 133/234/21 131/235/21
f 134/236/22 135/237/22 133/234/22
f 128/238/23 136/239/23 132/240/23
f 136/241/24 137/242/24 135/243/24
f 138/244/25 127/229/25 137/245/25
f 129/246/26 133/247/26 137/248/26
f 140/249/39 141/250/39 139/251/39
f 141/252/40 144/253/40 143/254/40
f 144/255/41 145/256/41 143/257/41
f 140/258/23 146/259/23 144/260/23
f 146/261/42 147/262/42 145/263/42
f 148/264/43 139/251/43 147/265/43
f 141/266/26 145/267/26 147/268/26
f 150/269/19 151/270/19 149/271/19
f 152/272/20 153/273/20 151/274/20
f 154/275/21 155/276/21 153/277/21
f 156/278/22 157/279/22 155/276/22
f 150/280/23 158/281/23 154/282/23
f 158/283/24 159/284/24 157/285/24
f 160/286/25 149/271/25 159/287/25
f 151/288/26 155/289/26 159/290/26
f 162/291/39 163/292/39 161/293/39
f 164/294/40 165/295/40 163/296/40
f 166/297/41 167/298/41 165/299/41
f 162/300/23 168/301/23 166/302/23
f 168/303/42 169/304/42 167/305/42
f 170/306/43 161/293/43 169/307/43
f 163/308/26 167/309/26 169/310/26
f 2/1/1 4/311/1 3/2/1
f 3/4/2 4/312/2 8/5/2
f 8/7/3 6/313/3 5/8/3
f 6/10/4 2/314/4 1/11/4
f 7/9/5 5/8/5 1/13/5
f 4/15/6 2/315/6 6/16/6
f 9/18/7 10/316/7 12/19/7
f 12/21/8 16/317/8 15/22/8
f 16/24/9 14/27/9 13/25/9
f 14/27/10 10/318/10 9/28/10
f 11/29/11 15/319/11 13/30/11
f 12/32/12 10/320/12 14/33/12
f 17/35/13 18/321/13 20/36/13
f 20/38/14 24/322/14 23/39/14
f 23/39/15 24/322/15 22/41/15
f 22/43/16 18/323/16 17/44/16
f 19/46/17 23/324/17 21/47/17
f 20/49/18 18/325/18 22/50/18
f 26/52/19 28/326/19 27/53/19
f 28/55/20 30/327/20 29/56/20
f 30/58/21 32/61/21 31/59/21
f 32/61/22 34/328/22 33/62/22
f 30/65/23 28/329/23 26/63/23
f 26/63/23 36/330/23 34/64/23
f 34/64/23 32/331/23 30/65/23
f 34/66/24 36/332/24 35/67/24
f 36/69/25 26/52/25 25/54/25
f 35/73/26 25/333/26 27/71/26
f 27/71/26 29/334/26 31/72/26
f 31/72/26 33/335/26 35/73/26
f 38/74/27 40/77/27 39/75/27
f 40/77/28 42/79/28 41/78/28
f 42/79/29 44/81/29 43/80/29
f 44/81/30 46/83/30 45/82/30
f 46/83/31 48/85/31 47/84/31
f 48/85/32 50/87/32 49/86/32
f 50/87/33 52/89/33 51/88/33
f 52/89/34 54/91/34 53/90/34
f 54/91/35 56/93/35 55/92/35
f 56/93/36 58/95/36 57/94/36
f 42/79/23 40/77/23 38/74/23
f 38/74/23 60/97/23 58/95/23
f 58/95/23 56/93/23 54/91/23
f 54/91/23 52/89/23 50/87/23
f 50/87/23 48/85/23 46/83/23
f 46/83/23 44/81/23 42/79/23
f 42/79/23 38/74/23 58/95/23
f 58/95/23 54/91/23 50/87/23
f 50/87/23 46/83/23 42/79/23
f 58/95/37 60/97/37 59/96/37
f 60/97/38 38/74/38 37/76/38
f 59/100/26 37/336/26 39/337/26
f 39/337/26 41/338/26 43/98/26
f 43/98/26 45/339/26 47/340/26
f 47/340/26 49/341/26 51/99/26
f 51/99/26 53/342/26 55/343/26
f 55/343/26 57/344/26 59/100/26
f 59/100/26 39/337/26 43/98/26
f 43/98/26 47/340/26 51/99/26
f 51/99/26 55/343/26 59/100/26
f 62/101/19 64/345/19 63/102/19
f 64/104/20 66/346/20 65/105/20
f 66/107/21 68/110/21 67/108/21
f 68/110/22 70/347/22 69/111/22
f 66/114/23 64/348/23 62/112/23
f 62/112/23 72/349/23 70/113/23
f 70/113/23 68/350/23 66/114/23
f 70/115/24 72/351/24 71/116/24
f 72/118/25 62/101/25 61/103/25
f 71/122/26 61/352/26 63/120/26
f 63/120/26 65/353/26 67/121/26
f 67/121/26 69/354/26 71/122/26
f 73/123/39 74/139/39 76/124/39
f 76/126/40 78/355/40 77/127/40
f 77/129/41 78/356/41 80/130/41
f 78/134/44 76/357/44 74/132/44
f 74/132/45 82/358/45 80/133/45
f 80/135/42 82/359/42 81/136/42
f 81/138/43 82/360/43 74/139/43
f 81/142/26 73/361/26 75/140/26
f 75/140/26 77/362/26 79/141/26
f 84/143/19 86/363/19 85/144/19
f 86/146/20 88/364/20 87/147/20
f 88/149/21 90/152/21 89/150/21
f 90/152/22 92/365/22 91/153/22
f 88/156/23 86/366/23 84/154/23
f 84/154/23 94/367/23 92/155/23
f 92/155/23 90/368/23 88/156/23
f 92/157/24 94/369/24 93/158/24
f 94/160/25 84/143/25 83/145/25
f 93/164/26 83/370/26 85/162/26
f 85/162/26 87/371/26 89/163/26
f 89/163/26 91/372/26 93/164/26
f 96/165/39 98/373/39 97/166/39
f 98/168/40 100/374/40 99/169/40
f 100/171/41 102/375/41 101/172/41
f 100/176/23 98/376/23 96/174/23
f 96/174/23 104/377/23 102/175/23
f 102/177/46 104/378/46 103/178/46
f 104/180/43 96/165/43 95/167/43
f 103/184/26 95/379/26 97/182/26
f 97/182/26 99/380/26 101/183/26
f 106/185/19 108/381/19 107/186/19
f 108/188/20 110/382/20 109/189/20
f 110/191/21 112/194/21 111/192/21
f 112/194/22 114/383/22 113/195/22
f 110/198/23 108/384/23 106/196/23
f 106/196/23 116/385/23 114/197/23
f 114/197/23 112/386/23 110/198/23
f 114/199/24 116/387/24 115/200/24
f 116/202/25 106/185/25 105/187/25
f 115/206/26 105/388/26 107/204/26
f 107/204/26 109/389/26 111/205/26
f 111/205/26 113/390/26 115/206/26
f 118/207/39 120/391/39 119/208/39
f 120/210/40 122/392/40 121/211/40
f 122/213/41 124/393/41 123/214/41
f 122/218/23 120/394/23 118/216/23
f 118/216/23 126/395/23 124/217/23
f 124/219/42 126/396/42 125/220/42
f 126/222/43 118/207/43 117/209/43
f 125/226/26 117/397/26 119/224/26
f 119/224/26 121/398/26 123/225/26
f 128/227/19 130/399/19 129/228/19
f 130/230/20 132/400/20 131/231/20
f 132/233/21 134/236/21 133/234/21
f 134/236/22 136/401/22 135/237/22
f 132/240/23 130/402/23 128/238/23
f 128/238/23 138/403/23 136/239/23
f 136/239/23 134/404/23 132/240/23
f 136/241/24 138/405/24 137/242/24
f 138/244/25 128/227/25 127/229/25
f 137/248/26 127/406/26 129/246/26
f 129/246/26 131/407/26 133/247/26
f 133/247/26 135/408/26 137/248/26
f 140/249/39 142/409/39 141/250/39
f 141/252/40 142/410/40 144/253/40
f 144/255/41 146/411/41 145/256/41
f 144/260/23 142/412/23 140/258/23
f 140/258/23 148/413/23 146/259/23
f 146/261/46 148/414/46 147/262/46
f 148/264/43 140/249/43 139/251/43
f 147/268/26 139/415/26 141/266/26
f 141/266/26 143/416/26 145/267/26
f 150/269/19 152/417/19 151/270/19
f 152/272/20 154/418/20 153/273/20
f 154/275/21 156/278/21 155/276/21
f 156/278/22 158/419/22 157/279/22
f 154/282/23 152/420/23 150/280/23
f 150/280/23 160/421/23 158/281/23
f 158/281/23 156/422/23 154/282/23
f 158/283/24 160/423/24 159/284/24
f 160/286/25 150/269/25 149/271/25
f 159/290/26 149/424/26 151/288/26
f 151/288/26 153/425/26 155/289/26
f 155/289/26 157/426/26 159/290/26
f 162/291/39 164/427/39 163/292/39
f 164/294/40 166/428/40 165/295/40
f 166/297/41 168/429/41 167/298/41
f 166/302/23 164/430/23 162/300/23
f 162/300/23 170/431/23 168/301/23
f 168/303/46 170/432/46 169/304/46
f 170/306/43 162/291/43 161/293/43
f 169/310/26 161/433/26 163/308/26
f 163/308/26 165/434/26 167/309/26
