# Blender 4.5.13 LTS
# www.blender.org
o planks
v -0.650000 0.390000 0.375000
v -0.650000 0.450000 0.375000
v -0.650000 0.390000 -0.375000
v -0.650000 0.450000 -0.375000
v 0.650000 0.390000 0.375000
v 0.650000 0.450000 0.375000
v 0.650000 0.390000 -0.375000
v 0.650000 0.450000 -0.375000
v -0.650000 0.445000 0.425000
v -0.650000 0.695000 0.425000
v -0.650000 0.445000 0.375000
v -0.650000 0.695000 0.375000
v 0.650000 0.445000 0.425000
v 0.650000 0.695000 0.425000
v 0.650000 0.445000 0.375000
v 0.650000 0.695000 0.375000
v -0.650000 0.445000 -0.375000
v -0.650000 0.695000 -0.375000
v -0.650000 0.445000 -0.425000
v -0.650000 0.695000 -0.425000
v 0.650000 0.445000 -0.375000
v 0.650000 0.695000 -0.375000
v 0.650000 0.445000 -0.425000
v 0.650000 0.695000 -0.425000
v -0.675000 0.445000 0.375000
v -0.675000 0.695000 0.375000
v -0.675000 0.445000 -0.375000
v -0.675000 0.695000 -0.375000
v -0.625000 0.445000 0.375000
v -0.625000 0.695000 0.375000
v -0.625000 0.445000 -0.375000
v -0.625000 0.695000 -0.375000
v 0.600000 0.395000 0.275000
v 0.600000 0.445000 0.275000
v 0.600000 0.395000 0.225000
v 0.600000 0.445000 0.225000
v 1.600000 0.395000 0.275000
v 1.600000 0.445000 0.275000
v 1.600000 0.395000 0.225000
v 1.600000 0.445000 0.225000
v 0.600000 0.395000 -0.225000
v 0.600000 0.445000 -0.225000
v 0.600000 0.395000 -0.275000
v 0.600000 0.445000 -0.275000
v 1.600000 0.395000 -0.225000
v 1.600000 0.445000 -0.225000
v 1.600000 0.395000 -0.275000
v 1.600000 0.445000 -0.275000
v -0.030000 0.290000 0.450000
v -0.030000 0.350000 0.450000
v -0.030000 0.290000 -0.450000
v -0.030000 0.350000 -0.450000
v 0.030000 0.290000 0.450000
v 0.030000 0.350000 0.450000
v 0.030000 0.290000 -0.450000
v 0.030000 0.350000 -0.450000
v 0.000000 0.640000 0.470000
v 0.000000 0.640000 0.520000
v 0.122459 0.615641 0.470000
v 0.122459 0.615641 0.520000
v 0.226274 0.546274 0.470000
v 0.226274 0.546274 0.520000
v 0.295641 0.442459 0.470000
v 0.295641 0.442459 0.520000
v 0.320000 0.320000 0.470000
v 0.320000 0.320000 0.520000
v 0.295641 0.197541 0.470000
v 0.295641 0.197541 0.520000
v 0.226274 0.093726 0.470000
v 0.226274 0.093726 0.520000
v 0.122459 0.024359 0.470000
v 0.122459 0.024359 0.520000
v 0.000000 0.000000 0.470000
v 0.000000 0.000000 0.520000
v -0.122459 0.024359 0.470000
v -0.122459 0.024359 0.520000
v -0.226274 0.093726 0.470000
v -0.226274 0.093726 0.520000
v -0.295641 0.197541 0.470000
v -0.295641 0.197541 0.520000
v -0.320000 0.320000 0.470000
v -0.320000 0.320000 0.520000
v -0.295641 0.442459 0.470000
v -0.295641 0.442459 0.520000
v -0.226274 0.546274 0.470000
v -0.226274 0.546274 0.520000
v -0.122459 0.615641 0.470000
v -0.122459 0.615641 0.520000
v 0.000000 0.620000 0.470000
v 0.000000 0.620000 0.530000
v 0.114805 0.597164 0.470000
v 0.114805 0.597164 0.530000
v 0.212132 0.532132 0.470000
v 0.212132 0.532132 0.530000
v 0.277164 0.434805 0.470000
v 0.277164 0.434805 0.530000
v 0.300000 0.320000 0.470000
v 0.300000 0.320000 0.530000
v 0.277164 0.205195 0.470000
v 0.277164 0.205195 0.530000
v 0.212132 0.107868 0.470000
v 0.212132 0.107868 0.530000
v 0.114805 0.042836 0.470000
v 0.114805 0.042836 0.530000
v 0.000000 0.020000 0.470000
v 0.000000 0.020000 0.530000
v -0.114805 0.042836 0.470000
v -0.114805 0.042836 0.530000
v -0.212132 0.107868 0.470000
v -0.212132 0.107868 0.530000
v -0.277164 0.205195 0.470000
v -0.277164 0.205195 0.530000
v -0.300000 0.320000 0.470000
v -0.300000 0.320000 0.530000
v -0.277164 0.434805 0.470000
v -0.277164 0.434805 0.530000
v -0.212132 0.532132 0.470000
v -0.212132 0.532132 0.530000
v -0.114805 0.597164 0.470000
v -0.114805 0.597164 0.530000
v 0.000000 0.390000 0.470000
v 0.000000 0.390000 0.590000
v 0.049497 0.369497 0.470000
v 0.049497 0.369497 0.590000
v 0.070000 0.320000 0.470000
v 0.070000 0.320000 0.590000
v 0.049497 0.270503 0.470000
v 0.049497 0.270503 0.590000
v 0.000000 0.250000 0.470000
v 0.000000 0.250000 0.590000
v -0.049497 0.270503 0.470000
v -0.049497 0.270503 0.590000
v -0.070000 0.320000 0.470000
v -0.070000 0.320000 0.590000
v -0.049497 0.369497 0.470000
v -0.049497 0.369497 0.590000
v 0.000000 0.640000 -0.470000
v 0.000000 0.640000 -0.420000
v 0.122459 0.615641 -0.470000
v 0.122459 0.615641 -0.420000
v 0.226274 0.546274 -0.470000
v 0.226274 0.546274 -0.420000
v 0.295641 0.442459 -0.470000
v 0.295641 0.442459 -0.420000
v 0.320000 0.320000 -0.470000
v 0.320000 0.320000 -0.420000
v 0.295641 0.197541 -0.470000
v 0.295641 0.197541 -0.420000
v 0.226274 0.093726 -0.470000
v 0.226274 0.093726 -0.420000
v 0.122459 0.024359 -0.470000
v 0.122459 0.024359 -0.420000
v 0.000000 0.000000 -0.470000
v 0.000000 0.000000 -0.420000
v -0.122459 0.024359 -0.470000
v -0.122459 0.024359 -0.420000
v -0.226274 0.093726 -0.470000
v -0.226274 0.093726 -0.420000
v -0.295641 0.197541 -0.470000
v -0.295641 0.197541 -0.420000
v -0.320000 0.320000 -0.470000
v -0.320000 0.320000 -0.420000
v -0.295641 0.442459 -0.470000
v -0.295641 0.442459 -0.420000
v -0.226274 0.546274 -0.470000
v -0.226274 0.546274 -0.420000
v -0.122459 0.615641 -0.470000
v -0.122459 0.615641 -0.420000
v 0.000000 0.620000 -0.470000
v 0.000000 0.620000 -0.410000
v 0.114805 0.597164 -0.470000
v 0.114805 0.597164 -0.410000
v 0.212132 0.532132 -0.470000
v 0.212132 0.532132 -0.410000
v 0.277164 0.434805 -0.470000
v 0.277164 0.434805 -0.410000
v 0.300000 0.320000 -0.470000
v 0.300000 0.320000 -0.410000
v 0.277164 0.205195 -0.470000
v 0.277164 0.205195 -0.410000
v 0.212132 0.107868 -0.470000
v 0.212132 0.107868 -0.410000
v 0.114805 0.042836 -0.470000
v 0.114805 0.042836 -0.410000
v 0.000000 0.020000 -0.470000
v 0.000000 0.020000 -0.410000
v -0.114805 0.042836 -0.470000
v -0.114805 0.042836 -0.410000
v -0.212132 0.107868 -0.470000
v -0.212132 0.107868 -0.410000
v -0.277164 0.205195 -0.470000
v -0.277164 0.205195 -0.410000
v -0.300000 0.320000 -0.470000
v -0.300000 0.320000 -0.410000
v -0.277164 0.434805 -0.470000
v -0.277164 0.434805 -0.410000
v -0.212132 0.532132 -0.470000
v -0.212132 0.532132 -0.410000
v -0.114805 0.597164 -0.470000
v -0.114805 0.597164 -0.410000
v 0.000000 0.390000 -0.470000
v 0.000000 0.390000 -0.350000
v 0.049497 0.369497 -0.470000
v 0.049497 0.369497 -0.350000
v 0.070000 0.320000 -0.470000
v 0.070000 0.320000 -0.350000
v 0.049497 0.270503 -0.470000
v 0.049497 0.270503 -0.350000
v 0.000000 0.250000 -0.470000
v 0.000000 0.250000 -0.350000
v -0.049497 0.270503 -0.470000
v -0.049497 0.270503 -0.350000
v -0.070000 0.320000 -0.470000
v -0.070000 0.320000 -0.350000
v -0.049497 0.369497 -0.470000
v -0.049497 0.369497 -0.350000
vn -1.0000 -0.0000 -0.0000
vn -0.0000 -0.0000 -1.0000
vn 1.0000 -0.0000 -0.0000
vn -0.0000 -0.0000 1.0000
vn -0.0000 -1.0000 -0.0000
vn -0.0000 1.0000 -0.0000
vn 0.1951 0.9808 -0.0000
vn 0.5556 0.8315 -0.0000
vn 0.8315 0.5556 -0.0000
vn 0.9808 0.1951 -0.0000
vn 0.9808 -0.1951 -0.0000
vn 0.8315 -0.5556 -0.0000
vn 0.5556 -0.8315 -0.0000
vn 0.1951 -0.9808 -0.0000
vn -0.1951 -0.9808 -0.0000
vn -0.5556 -0.8315 -0.0000
vn -0.8315 -0.5556 -0.0000
vn -0.9808 -0.1951 -0.0000
vn -0.9808 0.1951 -0.0000
vn -0.8315 0.5556 -0.0000
vn -0.5556 0.8315 -0.0000
vn -0.1951 0.9808 -0.0000
vn 0.3827 0.9239 -0.0000
vn 0.9239 0.3827 -0.0000
vn 0.9239 -0.3827 -0.0000
vn 0.3827 -0.9239 -0.0000
vn -0.3827 -0.9239 -0.0000
vn -0.9239 -0.3827 -0.0000
vn -0.9239 0.3827 -0.0000
vn -0.3827 0.9239 -0.0000
vt 0.311621 0.912588
vt 0.291072 0.912588
vt 0.291072 0.655727
vt 0.311621 0.655727
vt 0.926766 0.447018
vt 0.906217 0.447018
vt 0.906217 0.001792
vt 0.926766 0.001792
vt 0.335755 0.912588
vt 0.315206 0.912588
vt 0.315206 0.655727
vt 0.335755 0.655727
vt 0.926766 0.895828
vt 0.906217 0.895828
vt 0.906217 0.450602
vt 0.926766 0.450602
vt 0.258653 0.001792
vt 0.258653 0.447018
vt 0.001792 0.447018
vt 0.001792 0.001792
vt 0.519098 0.001792
vt 0.519098 0.447018
vt 0.262237 0.447018
vt 0.262238 0.001792
vt 0.570565 0.441424
vt 0.570565 0.355804
vt 0.587689 0.355804
vt 0.587689 0.441424
vt 0.724223 0.652142
vt 0.638603 0.652142
vt 0.638603 0.206917
vt 0.724223 0.206917
vt 0.817012 0.796668
vt 0.817012 0.711047
vt 0.834136 0.711047
vt 0.834136 0.796668
vt 0.813428 0.447018
vt 0.727807 0.447018
vt 0.727807 0.001792
vt 0.813428 0.001792
vt 0.635018 0.206917
vt 0.635018 0.652142
vt 0.617894 0.652142
vt 0.617894 0.206917
vt 0.947474 0.001792
vt 0.947474 0.447018
vt 0.930350 0.447018
vt 0.930350 0.001792
vt 0.837721 0.796668
vt 0.837721 0.711047
vt 0.854845 0.711047
vt 0.854845 0.796668
vt 0.813428 0.895828
vt 0.727807 0.895828
vt 0.727807 0.450602
vt 0.813428 0.450602
vt 0.858429 0.796668
vt 0.858429 0.711047
vt 0.875553 0.711047
vt 0.875553 0.796668
vt 0.902632 0.447018
vt 0.817012 0.447018
vt 0.817012 0.001792
vt 0.902632 0.001792
vt 0.947474 0.450602
vt 0.947474 0.895828
vt 0.930350 0.895828
vt 0.930350 0.450602
vt 0.968183 0.001792
vt 0.968183 0.447018
vt 0.951059 0.447018
vt 0.951059 0.001792
vt 0.902632 0.707463
vt 0.817012 0.707463
vt 0.817012 0.450602
vt 0.902632 0.450602
vt 0.659311 0.884993
vt 0.659311 0.799373
vt 0.676435 0.799373
vt 0.676435 0.884993
vt 0.087412 0.912588
vt 0.001792 0.912588
vt 0.001792 0.655727
vt 0.087412 0.655727
vt 0.680020 0.884993
vt 0.680020 0.799373
vt 0.697144 0.799373
vt 0.697144 0.884993
vt 0.356463 0.912588
vt 0.339339 0.912588
vt 0.339339 0.655727
vt 0.356463 0.655727
vt 0.377172 0.912588
vt 0.360047 0.912588
vt 0.360047 0.655727
vt 0.377172 0.655727
vt 0.700728 0.816497
vt 0.700728 0.799373
vt 0.717852 0.799373
vt 0.717852 0.816497
vt 0.988891 0.690339
vt 0.971767 0.690339
vt 0.971767 0.347858
vt 0.988891 0.347858
vt 0.608397 0.393157
vt 0.591273 0.393157
vt 0.591273 0.376033
vt 0.608397 0.376033
vt 0.204654 0.998208
vt 0.187530 0.998208
vt 0.187530 0.655727
vt 0.204654 0.655727
vt 0.968183 0.450602
vt 0.968183 0.793083
vt 0.951059 0.793083
vt 0.951059 0.450602
vt 0.225363 0.655727
vt 0.225363 0.998208
vt 0.208238 0.998208
vt 0.208239 0.655727
vt 0.518546 0.831424
vt 0.501422 0.831424
vt 0.501422 0.814300
vt 0.518546 0.814300
vt 0.246071 0.998208
vt 0.228947 0.998208
vt 0.228947 0.655727
vt 0.246071 0.655727
vt 0.638524 0.831424
vt 0.638524 0.814300
vt 0.655648 0.814300
vt 0.655648 0.831424
vt 0.266780 0.998208
vt 0.249655 0.998208
vt 0.249656 0.655727
vt 0.266780 0.655727
vt 0.287488 0.655727
vt 0.287488 0.998208
vt 0.270364 0.998208
vt 0.270364 0.655727
vt 0.988891 0.001792
vt 0.988891 0.344273
vt 0.971767 0.344273
vt 0.971767 0.001792
vt 0.111546 0.963960
vt 0.090997 0.963960
vt 0.090997 0.655727
vt 0.111546 0.655727
vt 0.611822 0.441424
vt 0.591273 0.441424
vt 0.591273 0.420875
vt 0.611822 0.420875
vt 0.135679 0.963960
vt 0.115130 0.963960
vt 0.115130 0.655727
vt 0.135679 0.655727
vt 0.611822 0.417291
vt 0.591273 0.417291
vt 0.591273 0.396742
vt 0.611822 0.396742
vt 0.159812 0.963960
vt 0.139264 0.963960
vt 0.139264 0.655727
vt 0.159812 0.655727
vt 0.183946 0.963960
vt 0.163397 0.963960
vt 0.163397 0.655727
vt 0.183946 0.655727
vt 0.539255 0.733221
vt 0.522131 0.733221
vt 0.522131 0.691281
vt 0.539255 0.691281
vt 0.522131 0.655727
vt 0.539255 0.655727
vt 0.617894 0.655727
vt 0.635018 0.655727
vt 0.635018 0.691282
vt 0.617894 0.691282
vt 0.635018 0.733221
vt 0.617894 0.733221
vt 0.635018 0.775161
vt 0.617894 0.775161
vt 0.635018 0.810716
vt 0.617894 0.810716
vt 0.559963 0.810716
vt 0.542839 0.810716
vt 0.542839 0.775161
vt 0.559963 0.775161
vt 0.542839 0.733221
vt 0.559963 0.733221
vt 0.542839 0.691281
vt 0.559963 0.691281
vt 0.542839 0.655727
vt 0.559963 0.655727
vt 0.655727 0.810716
vt 0.638603 0.810716
vt 0.638603 0.775161
vt 0.655727 0.775161
vt 0.638603 0.733221
vt 0.655727 0.733221
vt 0.638603 0.691282
vt 0.655727 0.691282
vt 0.638603 0.655727
vt 0.655727 0.655727
vt 0.539255 0.810716
vt 0.522131 0.810716
vt 0.522131 0.775161
vt 0.539255 0.775161
vt 0.591498 0.279568
vt 0.570949 0.279568
vt 0.570949 0.240250
vt 0.591498 0.240250
vt 0.570949 0.206917
vt 0.591498 0.206917
vt 0.522683 0.206917
vt 0.543232 0.206917
vt 0.543232 0.240250
vt 0.522683 0.240250
vt 0.543232 0.279568
vt 0.522683 0.279568
vt 0.543232 0.318887
vt 0.522683 0.318887
vt 0.543232 0.352219
vt 0.522683 0.352219
vt 0.401305 0.801029
vt 0.380756 0.801029
vt 0.380756 0.767696
vt 0.401305 0.767696
vt 0.380756 0.728378
vt 0.401305 0.728378
vt 0.380756 0.689059
vt 0.401305 0.689059
vt 0.380756 0.655727
vt 0.401305 0.655727
vt 0.497838 0.801029
vt 0.477289 0.801029
vt 0.477289 0.767697
vt 0.497838 0.767697
vt 0.477289 0.728378
vt 0.497838 0.728378
vt 0.477289 0.689059
vt 0.497838 0.689059
vt 0.477289 0.655727
vt 0.497838 0.655727
vt 0.393116 0.494291
vt 0.408457 0.531328
vt 0.408457 0.571417
vt 0.393116 0.608454
vt 0.364769 0.636801
vt 0.327731 0.652142
vt 0.287643 0.652142
vt 0.250605 0.636801
vt 0.222258 0.608454
vt 0.206917 0.571417
vt 0.206917 0.531328
vt 0.222258 0.494291
vt 0.250605 0.465943
vt 0.287643 0.450602
vt 0.327731 0.450602
vt 0.364769 0.465943
vt 0.591498 0.352219
vt 0.570949 0.352219
vt 0.570949 0.318887
vt 0.591498 0.318887
vt 0.082518 0.450602
vt 0.122607 0.450602
vt 0.159644 0.465943
vt 0.187991 0.494291
vt 0.203332 0.531328
vt 0.203332 0.571417
vt 0.187991 0.608454
vt 0.159644 0.636801
vt 0.122607 0.652142
vt 0.082518 0.652142
vt 0.045481 0.636801
vt 0.017134 0.608454
vt 0.001792 0.571417
vt 0.001792 0.531328
vt 0.017134 0.494291
vt 0.045481 0.465943
vt 0.580500 0.855398
vt 0.580500 0.814300
vt 0.597452 0.814300
vt 0.597452 0.855398
vt 0.418244 0.845711
vt 0.418244 0.804614
vt 0.435196 0.804614
vt 0.435196 0.845711
vt 0.452148 0.804614
vt 0.452148 0.845711
vt 0.380756 0.845711
vt 0.380756 0.804614
vt 0.397708 0.804614
vt 0.397708 0.845711
vt 0.414660 0.804614
vt 0.414660 0.845711
vt 0.556587 0.403686
vt 0.556587 0.444784
vt 0.539635 0.444783
vt 0.539635 0.403686
vt 0.659311 0.764465
vt 0.672286 0.751491
vt 0.690634 0.751491
vt 0.703609 0.764465
vt 0.703609 0.782814
vt 0.690634 0.795788
vt 0.672286 0.795788
vt 0.659311 0.782814
vt 0.522683 0.444783
vt 0.522683 0.403686
vt 0.563548 0.855398
vt 0.563548 0.814300
vt 0.522683 0.368778
vt 0.535657 0.355804
vt 0.554006 0.355804
vt 0.566980 0.368778
vt 0.566980 0.387127
vt 0.554006 0.400101
vt 0.535657 0.400101
vt 0.522683 0.387127
vt 0.612207 0.284412
vt 0.595083 0.284412
vt 0.595083 0.242472
vt 0.612207 0.242472
vt 0.595083 0.206917
vt 0.612207 0.206917
vt 0.597186 0.655727
vt 0.614310 0.655727
vt 0.614310 0.691282
vt 0.597186 0.691282
vt 0.614310 0.733221
vt 0.597186 0.733221
vt 0.614310 0.775161
vt 0.597186 0.775161
vt 0.614310 0.810716
vt 0.597186 0.810716
vt 0.580672 0.810716
vt 0.563548 0.810716
vt 0.563548 0.775161
vt 0.580672 0.775161
vt 0.563548 0.733221
vt 0.580672 0.733221
vt 0.563548 0.691282
vt 0.580672 0.691282
vt 0.563548 0.655727
vt 0.580672 0.655727
vt 0.518546 0.810716
vt 0.501422 0.810716
vt 0.501422 0.775161
vt 0.518546 0.775161
vt 0.501422 0.733221
vt 0.518546 0.733221
vt 0.501422 0.691282
vt 0.518546 0.691282
vt 0.501422 0.655727
vt 0.518546 0.655727
vt 0.612207 0.361906
vt 0.595083 0.361906
vt 0.595083 0.326351
vt 0.612207 0.326351
vt 0.567365 0.279568
vt 0.546816 0.279568
vt 0.546816 0.240250
vt 0.567365 0.240250
vt 0.546816 0.206917
vt 0.567365 0.206917
vt 0.404889 0.655727
vt 0.425438 0.655727
vt 0.425438 0.689059
vt 0.404889 0.689059
vt 0.425438 0.728378
vt 0.404889 0.728378
vt 0.425438 0.767697
vt 0.404889 0.767697
vt 0.425438 0.801029
vt 0.404889 0.801029
vt 0.449571 0.801029
vt 0.429023 0.801029
vt 0.429022 0.767697
vt 0.449571 0.767697
vt 0.429022 0.728378
vt 0.449571 0.728378
vt 0.429022 0.689059
vt 0.449571 0.689059
vt 0.429023 0.655727
vt 0.449571 0.655727
vt 0.473705 0.801029
vt 0.453156 0.801029
vt 0.453156 0.767697
vt 0.473705 0.767697
vt 0.453156 0.728378
vt 0.473705 0.728378
vt 0.453156 0.689059
vt 0.473705 0.689059
vt 0.453156 0.655727
vt 0.473705 0.655727
vt 0.598240 0.494291
vt 0.613582 0.531328
vt 0.613582 0.571417
vt 0.598240 0.608454
vt 0.569893 0.636801
vt 0.532856 0.652142
vt 0.492767 0.652142
vt 0.455730 0.636801
vt 0.427383 0.608454
vt 0.412042 0.571417
vt 0.412042 0.531328
vt 0.427383 0.494291
vt 0.455730 0.465943
vt 0.492767 0.450602
vt 0.532856 0.450602
vt 0.569893 0.465943
vt 0.567365 0.352219
vt 0.546816 0.352219
vt 0.546816 0.318887
vt 0.567365 0.318887
vt 0.724223 0.082518
vt 0.724223 0.122607
vt 0.708882 0.159644
vt 0.680535 0.187991
vt 0.643497 0.203332
vt 0.603408 0.203332
vt 0.566371 0.187991
vt 0.538024 0.159644
vt 0.522683 0.122607
vt 0.522683 0.082518
vt 0.538024 0.045481
vt 0.566371 0.017134
vt 0.603408 0.001792
vt 0.643497 0.001792
vt 0.680535 0.017134
vt 0.708882 0.045481
vt 0.617988 0.855398
vt 0.617988 0.814300
vt 0.634940 0.814300
vt 0.634940 0.855398
vt 0.455733 0.845711
vt 0.455733 0.804614
vt 0.472685 0.804614
vt 0.472685 0.845711
vt 0.489636 0.804614
vt 0.489636 0.845711
vt 0.522131 0.855398
vt 0.522131 0.814300
vt 0.539083 0.814300
vt 0.539083 0.855398
vt 0.556035 0.814300
vt 0.556035 0.855398
vt 0.850916 0.800252
vt 0.850916 0.841350
vt 0.833964 0.841350
vt 0.833964 0.800252
vt 0.672286 0.655727
vt 0.690634 0.655727
vt 0.703609 0.668701
vt 0.703609 0.687050
vt 0.690634 0.700024
vt 0.672286 0.700024
vt 0.659311 0.687050
vt 0.659311 0.668701
vt 0.817012 0.841350
vt 0.817012 0.800252
vt 0.601036 0.855398
vt 0.601036 0.814300
vt 0.703609 0.716583
vt 0.703609 0.734932
vt 0.690634 0.747906
vt 0.672286 0.747906
vt 0.659311 0.734932
vt 0.659311 0.716583
vt 0.672286 0.703609
vt 0.690634 0.703609
s 0
f 1/1/1 2/2/1 4/3/1 3/4/1
f 3/5/2 4/6/2 8/7/2 7/8/2
f 7/9/3 8/10/3 6/11/3 5/12/3
f 5/13/4 6/14/4 2/15/4 1/16/4
f 3/17/5 7/18/5 5/19/5 1/20/5
f 8/21/6 4/22/6 2/23/6 6/24/6
f 9/25/1 10/26/1 12/27/1 11/28/1
f 11/29/2 12/30/2 16/31/2 15/32/2
f 15/33/3 16/34/3 14/35/3 13/36/3
f 13/37/4 14/38/4 10/39/4 9/40/4
f 11/41/5 15/42/5 13/43/5 9/44/5
f 16/45/6 12/46/6 10/47/6 14/48/6
f 17/49/1 18/50/1 20/51/1 19/52/1
f 19/53/2 20/54/2 24/55/2 23/56/2
f 23/57/3 24/58/3 22/59/3 21/60/3
f 21/61/4 22/62/4 18/63/4 17/64/4
f 19/65/5 23/66/5 21/67/5 17/68/5
f 24/69/6 20/70/6 18/71/6 22/72/6
f 25/73/1 26/74/1 28/75/1 27/76/1
f 27/77/2 28/78/2 32/79/2 31/80/2
f 31/81/3 32/82/3 30/83/3 29/84/3
f 29/85/4 30/86/4 26/87/4 25/88/4
f 27/89/5 31/90/5 29/91/5 25/92/5
f 32/93/6 28/94/6 26/95/6 30/96/6
f 33/97/1 34/98/1 36/99/1 35/100/1
f 35/101/2 36/102/2 40/103/2 39/104/2
f 39/105/3 40/106/3 38/107/3 37/108/3
f 37/109/4 38/110/4 34/111/4 33/112/4
f 35/113/5 39/114/5 37/115/5 33/116/5
f 40/117/6 36/118/6 34/119/6 38/120/6
f 41/121/1 42/122/1 44/123/1 43/124/1
f 43/125/2 44/126/2 48/127/2 47/128/2
f 47/129/3 48/130/3 46/131/3 45/132/3
f 45/133/4 46/134/4 42/135/4 41/136/4
f 43/137/5 47/138/5 45/139/5 41/140/5
f 48/141/6 44/142/6 42/143/6 46/144/6
f 49/145/1 50/146/1 52/147/1 51/148/1
f 51/149/2 52/150/2 56/151/2 55/152/2
f 55/153/3 56/154/3 54/155/3 53/156/3
f 53/157/4 54/158/4 50/159/4 49/160/4
f 51/161/5 55/162/5 53/163/5 49/164/5
f 56/165/6 52/166/6 50/167/6 54/168/6
f 57/169/7 58/170/7 60/171/7 59/172/7
f 59/172/8 60/171/8 62/173/8 61/174/8
f 61/175/9 62/176/9 64/177/9 63/178/9
f 63/178/10 64/177/10 66/179/10 65/180/10
f 65/180/11 66/179/11 68/181/11 67/182/11
f 67/182/12 68/181/12 70/183/12 69/184/12
f 69/185/13 70/186/13 72/187/13 71/188/13
f 71/188/14 72/187/14 74/189/14 73/190/14
f 73/190/15 74/189/15 76/191/15 75/192/15
f 75/192/16 76/191/16 78/193/16 77/194/16
f 77/195/17 78/196/17 80/197/17 79/198/17
f 79/198/18 80/197/18 82/199/18 81/200/18
f 81/200/19 82/199/19 84/201/19 83/202/19
f 83/202/20 84/201/20 86/203/20 85/204/20
f 85/205/21 86/206/21 88/207/21 87/208/21
f 87/208/22 88/207/22 58/170/22 57/169/22
f 89/209/7 90/210/7 92/211/7 91/212/7
f 91/212/8 92/211/8 94/213/8 93/214/8
f 93/215/9 94/216/9 96/217/9 95/218/9
f 95/218/10 96/217/10 98/219/10 97/220/10
f 97/220/11 98/219/11 100/221/11 99/222/11
f 99/222/12 100/221/12 102/223/12 101/224/12
f 101/225/13 102/226/13 104/227/13 103/228/13
f 103/228/14 104/227/14 106/229/14 105/230/14
f 105/230/15 106/229/15 108/231/15 107/232/15
f 107/232/16 108/231/16 110/233/16 109/234/16
f 109/235/17 110/236/17 112/237/17 111/238/17
f 111/238/18 112/237/18 114/239/18 113/240/18
f 113/240/19 114/239/19 116/241/19 115/242/19
f 115/242/20 116/241/20 118/243/20 117/244/20
f 92/245/4 90/246/4 120/247/4 118/248/4 116/249/4 114/250/4 112/251/4 110/252/4 108/253/4 106/254/4 104/255/4 102/256/4 100/257/4 98/258/4 96/259/4 94/260/4
f 117/261/21 118/262/21 120/263/21 119/264/21
f 119/264/22 120/263/22 90/210/22 89/209/22
f 89/265/2 91/266/2 93/267/2 95/268/2 97/269/2 99/270/2 101/271/2 103/272/2 105/273/2 107/274/2 109/275/2 111/276/2 113/277/2 115/278/2 117/279/2 119/280/2
f 121/281/23 122/282/23 124/283/23 123/284/23
f 123/285/24 124/286/24 126/287/24 125/288/24
f 125/288/25 126/287/25 128/289/25 127/290/25
f 127/291/26 128/292/26 130/293/26 129/294/26
f 129/294/27 130/293/27 132/295/27 131/296/27
f 131/297/28 132/298/28 134/299/28 133/300/28
f 124/301/4 122/302/4 136/303/4 134/304/4 132/305/4 130/306/4 128/307/4 126/308/4
f 133/300/29 134/299/29 136/309/29 135/310/29
f 135/311/30 136/312/30 122/282/30 121/281/30
f 121/313/2 123/314/2 125/315/2 127/316/2 129/317/2 131/318/2 133/319/2 135/320/2
f 137/321/7 138/322/7 140/323/7 139/324/7
f 139/324/8 140/323/8 142/325/8 141/326/8
f 141/327/9 142/328/9 144/329/9 143/330/9
f 143/330/10 144/329/10 146/331/10 145/332/10
f 145/332/11 146/331/11 148/333/11 147/334/11
f 147/334/12 148/333/12 150/335/12 149/336/12
f 149/337/13 150/338/13 152/339/13 151/340/13
f 151/340/14 152/339/14 154/341/14 153/342/14
f 153/342/15 154/341/15 156/343/15 155/344/15
f 155/344/16 156/343/16 158/345/16 157/346/16
f 157/347/17 158/348/17 160/349/17 159/350/17
f 159/350/18 160/349/18 162/351/18 161/352/18
f 161/352/19 162/351/19 164/353/19 163/354/19
f 163/354/20 164/353/20 166/355/20 165/356/20
f 165/357/21 166/358/21 168/359/21 167/360/21
f 167/360/22 168/359/22 138/322/22 137/321/22
f 169/361/7 170/362/7 172/363/7 171/364/7
f 171/364/8 172/363/8 174/365/8 173/366/8
f 173/367/9 174/368/9 176/369/9 175/370/9
f 175/370/10 176/369/10 178/371/10 177/372/10
f 177/372/11 178/371/11 180/373/11 179/374/11
f 179/374/12 180/373/12 182/375/12 181/376/12
f 181/377/13 182/378/13 184/379/13 183/380/13
f 183/380/14 184/379/14 186/381/14 185/382/14
f 185/382/15 186/381/15 188/383/15 187/384/15
f 187/384/16 188/383/16 190/385/16 189/386/16
f 189/387/17 190/388/17 192/389/17 191/390/17
f 191/390/18 192/389/18 194/391/18 193/392/18
f 193/392/19 194/391/19 196/393/19 195/394/19
f 195/394/20 196/393/20 198/395/20 197/396/20
f 172/397/4 170/398/4 200/399/4 198/400/4 196/401/4 194/402/4 192/403/4 190/404/4 188/405/4 186/406/4 184/407/4 182/408/4 180/409/4 178/410/4 176/411/4 174/412/4
f 197/413/21 198/414/21 200/415/21 199/416/21
f 199/416/22 200/415/22 170/362/22 169/361/22
f 169/417/2 171/418/2 173/419/2 175/420/2 177/421/2 179/422/2 181/423/2 183/424/2 185/425/2 187/426/2 189/427/2 191/428/2 193/429/2 195/430/2 197/431/2 199/432/2
f 201/433/23 202/434/23 204/435/23 203/436/23
f 203/437/24 204/438/24 206/439/24 205/440/24
f 205/440/25 206/439/25 208/441/25 207/442/25
f 207/443/26 208/444/26 210/445/26 209/446/26
f 209/446/27 210/445/27 212/447/27 211/448/27
f 211/449/28 212/450/28 214/451/28 213/452/28
f 204/453/4 202/454/4 216/455/4 214/456/4 212/457/4 210/458/4 208/459/4 206/460/4
f 213/452/29 214/451/29 216/461/29 215/462/29
f 215/463/30 216/464/30 202/434/30 201/433/30
f 201/465/2 203/466/2 205/467/2 207/468/2 209/469/2 211/470/2 213/471/2 215/472/2
