# Blender 4.5.13 LTS
# www.blender.org
o timber
v -0.185000 0.000000 0.185000
v -0.185000 0.420000 0.185000
v -0.185000 0.000000 0.135000
v -0.185000 0.420000 0.135000
v -0.135000 0.000000 0.185000
v -0.135000 0.420000 0.185000
v -0.135000 0.000000 0.135000
v -0.135000 0.420000 0.135000
v -0.185000 0.000000 -0.135000
v -0.185000 0.420000 -0.135000
v -0.185000 0.000000 -0.185000
v -0.185000 0.420000 -0.185000
v -0.135000 0.000000 -0.135000
v -0.135000 0.420000 -0.135000
v -0.135000 0.000000 -0.185000
v -0.135000 0.420000 -0.185000
v 0.135000 0.000000 0.185000
v 0.135000 0.420000 0.185000
v 0.135000 0.000000 0.135000
v 0.135000 0.420000 0.135000
v 0.185000 0.000000 0.185000
v 0.185000 0.420000 0.185000
v 0.185000 0.000000 0.135000
v 0.185000 0.420000 0.135000
v 0.135000 0.000000 -0.135000
v 0.135000 0.420000 -0.135000
v 0.135000 0.000000 -0.185000
v 0.135000 0.420000 -0.185000
v 0.185000 0.000000 -0.135000
v 0.185000 0.420000 -0.135000
v 0.185000 0.000000 -0.185000
v 0.185000 0.420000 -0.185000
v -0.190000 0.415000 0.190000
v -0.190000 0.465000 0.190000
v -0.190000 0.415000 -0.190000
v -0.190000 0.465000 -0.190000
v 0.190000 0.415000 0.190000
v 0.190000 0.465000 0.190000
v 0.190000 0.415000 -0.190000
v 0.190000 0.465000 -0.190000
v -0.190000 0.440000 -0.130000
v -0.190000 0.800000 -0.130000
v -0.190000 0.440000 -0.190000
v -0.190000 0.800000 -0.190000
v 0.190000 0.440000 -0.130000
v 0.190000 0.800000 -0.130000
v 0.190000 0.440000 -0.190000
v 0.190000 0.800000 -0.190000
vn -1.0000 -0.0000 -0.0000
vn -0.0000 -0.0000 -1.0000
vn 1.0000 -0.0000 -0.0000
vn -0.0000 -0.0000 1.0000
vn -0.0000 -1.0000 -0.0000
vn -0.0000 1.0000 -0.0000
vt 0.107635 0.998647
vt 0.107635 0.645604
vt 0.149664 0.645604
vt 0.149664 0.998647
vt 0.152370 0.998647
vt 0.152370 0.645604
vt 0.194399 0.645604
vt 0.194399 0.998647
vt 0.197105 0.998647
vt 0.197105 0.645604
vt 0.239134 0.645604
vt 0.239134 0.998647
vt 0.241840 0.998647
vt 0.241840 0.645604
vt 0.283869 0.645604
vt 0.283869 0.998647
vt 0.858168 0.323479
vt 0.858168 0.365508
vt 0.816139 0.365508
vt 0.816139 0.323479
vt 0.858168 0.368214
vt 0.858168 0.410243
vt 0.816139 0.410243
vt 0.816139 0.368214
vt 0.286575 0.998647
vt 0.286575 0.645604
vt 0.328604 0.645604
vt 0.328604 0.998647
vt 0.331310 0.998647
vt 0.331310 0.645604
vt 0.373339 0.645604
vt 0.373339 0.998647
vt 0.376045 0.998647
vt 0.376045 0.645604
vt 0.418074 0.645604
vt 0.418074 0.998647
vt 0.420780 0.998647
vt 0.420780 0.645604
vt 0.462809 0.645604
vt 0.462809 0.998647
vt 0.858168 0.412949
vt 0.858168 0.454978
vt 0.816139 0.454978
vt 0.816139 0.412949
vt 0.858168 0.457684
vt 0.858168 0.499713
vt 0.816139 0.499713
vt 0.816139 0.457684
vt 0.465515 0.998647
vt 0.465515 0.645604
vt 0.507544 0.645604
vt 0.507544 0.998647
vt 0.510250 0.998647
vt 0.510250 0.645604
vt 0.552279 0.645604
vt 0.552279 0.998647
vt 0.554985 0.998647
vt 0.554985 0.645604
vt 0.597014 0.645604
vt 0.597014 0.998647
vt 0.599720 0.998647
vt 0.599720 0.645604
vt 0.641749 0.645604
vt 0.641749 0.998647
vt 0.858168 0.502419
vt 0.858168 0.544448
vt 0.816139 0.544448
vt 0.816139 0.502419
vt 0.858168 0.547154
vt 0.858168 0.589183
vt 0.816139 0.589183
vt 0.816139 0.547154
vt 0.681934 0.354396
vt 0.681934 0.001353
vt 0.723963 0.001353
vt 0.723963 0.354396
vt 0.681934 0.710144
vt 0.681934 0.357102
vt 0.723963 0.357102
vt 0.723963 0.710144
vt 0.726669 0.354396
vt 0.726669 0.001353
vt 0.768698 0.001353
vt 0.768698 0.354396
vt 0.726669 0.710144
vt 0.726669 0.357102
vt 0.768698 0.357102
vt 0.768698 0.710144
vt 0.858168 0.591889
vt 0.858168 0.633918
vt 0.816139 0.633918
vt 0.816139 0.591889
vt 0.858168 0.636624
vt 0.858168 0.678653
vt 0.816139 0.678653
vt 0.816139 0.636624
vt 0.813433 0.320773
vt 0.771404 0.320773
vt 0.771404 0.001353
vt 0.813433 0.001353
vt 0.813433 0.642898
vt 0.771404 0.642898
vt 0.771404 0.323479
vt 0.813433 0.323479
vt 0.813433 0.965024
vt 0.771404 0.965024
vt 0.771404 0.645604
vt 0.813433 0.645604
vt 0.858168 0.320773
vt 0.816139 0.320773
vt 0.816139 0.001353
vt 0.858168 0.001353
vt 0.320773 0.001353
vt 0.320773 0.320773
vt 0.001353 0.320773
vt 0.001353 0.001353
vt 0.320773 0.323479
vt 0.320773 0.642898
vt 0.001353 0.642898
vt 0.001353 0.323479
vt 0.001353 0.948212
vt 0.001353 0.645604
vt 0.051788 0.645604
vt 0.051788 0.948212
vt 0.626087 0.320773
vt 0.323479 0.320773
vt 0.323479 0.001353
vt 0.626087 0.001353
vt 0.054494 0.948212
vt 0.054494 0.645604
vt 0.104929 0.645604
vt 0.104929 0.948212
vt 0.626087 0.642898
vt 0.323479 0.642898
vt 0.323479 0.323479
vt 0.626087 0.323479
vt 0.679228 0.001353
vt 0.679227 0.320773
vt 0.628793 0.320773
vt 0.628793 0.001353
vt 0.679228 0.323479
vt 0.679228 0.642898
vt 0.628793 0.642898
vt 0.628793 0.323479
s 0
f 1/1/1 2/2/1 4/3/1 3/4/1
f 3/5/2 4/6/2 8/7/2 7/8/2
f 7/9/3 8/10/3 6/11/3 5/12/3
f 5/13/4 6/14/4 2/15/4 1/16/4
f 3/17/5 7/18/5 5/19/5 1/20/5
f 8/21/6 4/22/6 2/23/6 6/24/6
f 9/25/1 10/26/1 12/27/1 11/28/1
f 11/29/2 12/30/2 16/31/2 15/32/2
f 15/33/3 16/34/3 14/35/3 13/36/3
f 13/37/4 14/38/4 10/39/4 9/40/4
f 11/41/5 15/42/5 13/43/5 9/44/5
f 16/45/6 12/46/6 10/47/6 14/48/6
f 17/49/1 18/50/1 20/51/1 19/52/1
f 19/53/2 20/54/2 24/55/2 23/56/2
f 23/57/3 24/58/3 22/59/3 21/60/3
f 21/61/4 22/62/4 18/63/4 17/64/4
f 19/65/5 23/66/5 21/67/5 17/68/5
f 24/69/6 20/70/6 18/71/6 22/72/6
f 25/73/1 26/74/1 28/75/1 27/76/1
f 27/77/2 28/78/2 32/79/2 31/80/2
f 31/81/3 32/82/3 30/83/3 29/84/3
f 29/85/4 30/86/4 26/87/4 25/88/4
f 27/89/5 31/90/5 29/91/5 25/92/5
f 32/93/6 28/94/6 26/95/6 30/96/6
f 33/97/1 34/98/1 36/99/1 35/100/1
f 35/101/2 36/102/2 40/103/2 39/104/2
f 39/105/3 40/106/3 38/107/3 37/108/3
f 37/109/4 38/110/4 34/111/4 33/112/4
f 35/113/5 39/114/5 37/115/5 33/116/5
f 40/117/6 36/118/6 34/119/6 38/120/6
f 41/121/1 42/122/1 44/123/1 43/124/1
f 43/125/2 44/126/2 48/127/2 47/128/2
f 47/129/3 48/130/3 46/131/3 45/132/3
f 45/133/4 46/134/4 42/135/4 41/136/4
f 43/137/5 47/138/5 45/139/5 41/140/5
f 48/141/6 44/142/6 42/143/6 46/144/6
