# The Giants of Holst prop, from CC0 kits by KayKit (Kay Lousberg) and Kenney
v -0.2925 0.2700 -0.1800
vt 0.5687 0.9344
vn 0.0000 1.0000 0.0000
v -0.2925 0.2700 -0.2250
vt 0.5687 0.9344
vn 0.0000 1.0000 0.0000
v -0.3375 0.2700 -0.1800
vt 0.5660 0.9344
vn 0.0000 1.0000 0.0000
f 1/1/1 2/2/2 3/3/3
v -0.3600 0.2700 0.2250
vt 0.5660 0.9344
vn 0.0000 1.0000 0.0000
v -0.2925 0.2700 0.2250
vt 0.5687 0.9344
vn 0.0000 1.0000 0.0000
v -0.3375 0.2700 0.1800
vt 0.5660 0.9344
vn 0.0000 1.0000 0.0000
v -0.3600 0.2700 0.1800
vt 0.5647 0.9344
vn 0.0000 1.0000 0.0000
f 4/4/4 5/5/5 6/6/6 7/7/7
v -0.2925 0.1282 0.2250
vt 0.5687 0.8583
vn 0.0000 0.0000 1.0000
v -0.2925 0.2700 0.2250
vt 0.5687 0.9188
vn 0.0000 0.0000 1.0000
v -0.3600 0.2700 0.2250
vt 0.5660 0.9188
vn 0.0000 0.0000 1.0000
v -0.3600 0.1282 0.2250
vt 0.5660 0.8583
vn 0.0000 0.0000 1.0000
f 8/8/8 9/9/9 10/10/10 11/11/11
v -0.3375 0.1282 0.1800
vt 0.5660 0.8583
vn 0.0000 0.0000 -1.0000
v -0.3375 0.0000 0.1800
vt 0.5660 0.8012
vn 0.0000 0.0000 -1.0000
v -0.3600 0.0000 0.1800
vt 0.5647 0.8012
vn 0.0000 0.0000 -1.0000
v -0.3600 0.1282 0.1800
vt 0.5647 0.8583
vn 0.0000 0.0000 -1.0000
f 12/12/12 13/13/13 14/14/14 15/15/15
v 0.2925 0.1282 -0.2250
vt 0.5980 0.8583
vn 0.0000 0.0000 -1.0000
v 0.2925 0.2700 -0.2250
vt 0.5980 0.9188
vn 0.0000 0.0000 -1.0000
v 0.3600 0.2700 -0.2250
vt 0.6007 0.9188
vn 0.0000 0.0000 -1.0000
v 0.3600 0.1282 -0.2250
vt 0.6007 0.8583
vn 0.0000 0.0000 -1.0000
f 16/16/16 17/17/17 18/18/18 19/19/19
v 0.2925 0.2700 -0.2250
vt 0.5980 0.9344
vn 0.0000 1.0000 0.0000
v 0.2925 0.2700 -0.1800
vt 0.5980 0.9344
vn 0.0000 1.0000 0.0000
v 0.3375 0.2700 -0.1800
vt 0.6007 0.9344
vn 0.0000 1.0000 0.0000
f 20/20/20 21/21/21 22/22/22
v -0.3375 0.1282 -0.1800
vt 0.5660 0.8271
vn 0.0000 0.0000 1.0000
v -0.3375 0.2700 -0.1800
vt 0.5660 0.8563
vn 0.0000 0.0000 1.0000
v -0.3600 0.2700 -0.1800
vt 0.5647 0.8563
vn 0.0000 0.0000 1.0000
v -0.3600 0.1282 -0.1800
vt 0.5647 0.8271
vn 0.0000 0.0000 1.0000
f 23/23/23 24/24/24 25/25/25 26/26/26
v -0.3375 0.0000 0.1800
vt 0.5660 0.8012
vn 0.0000 -1.0000 0.0000
v -0.2925 0.0000 0.2250
vt 0.5687 0.8012
vn 0.0000 -1.0000 0.0000
v -0.3600 0.0000 0.2250
vt 0.5647 0.8012
vn 0.0000 -1.0000 0.0000
v -0.3600 0.0000 0.1800
vt 0.5647 0.8012
vn 0.0000 -1.0000 0.0000
f 27/27/27 28/28/28 29/29/29 30/30/30
v 0.3375 0.1282 -0.1800
vt 0.6007 0.9052
vn 1.0000 0.0000 0.0000
v 0.3375 0.1282 0.1800
vt 0.6007 0.9052
vn 1.0000 0.0000 0.0000
v 0.3375 0.0000 0.1800
vt 0.6007 0.8169
vn 1.0000 0.0000 0.0000
v 0.3375 0.0000 -0.1800
vt 0.6007 0.8169
vn 1.0000 0.0000 0.0000
f 31/31/31 32/32/32 33/33/33 34/34/34
v 0.3375 0.0000 0.1800
vt 0.6007 0.8012
vn 0.0000 -1.0000 0.0000
v 0.3600 0.0000 0.1800
vt 0.6020 0.8012
vn 0.0000 -1.0000 0.0000
v 0.3600 0.0000 0.2250
vt 0.6007 0.8012
vn 0.0000 -1.0000 0.0000
v 0.2925 0.0000 0.2250
vt 0.5980 0.8012
vn 0.0000 -1.0000 0.0000
f 35/35/35 36/36/36 37/37/37 38/38/38
v 0.3375 0.2700 0.1800
vt 0.6007 0.9344
vn 0.0000 1.0000 0.0000
v 0.2925 0.2700 0.2250
vt 0.5980 0.9344
vn 0.0000 1.0000 0.0000
v 0.3600 0.2700 0.2250
vt 0.6020 0.9344
vn 0.0000 1.0000 0.0000
v 0.3600 0.2700 0.1800
vt 0.6020 0.9344
vn 0.0000 1.0000 0.0000
f 39/39/39 40/40/40 41/41/41 42/42/42
v 0.3375 0.1282 0.1800
vt 0.6007 0.8271
vn 0.0000 0.0000 -1.0000
v 0.3375 0.2700 0.1800
vt 0.6007 0.8563
vn 0.0000 0.0000 -1.0000
v 0.3600 0.2700 0.1800
vt 0.6020 0.8563
vn 0.0000 0.0000 -1.0000
v 0.3600 0.1282 0.1800
vt 0.6020 0.8271
vn 0.0000 0.0000 -1.0000
f 43/43/43 44/44/44 45/45/45 46/46/46
v 0.2925 0.2700 0.1800
vt 0.5980 0.9344
vn 0.0000 1.0000 0.0000
v 0.2925 0.2700 0.2250
vt 0.5980 0.9344
vn 0.0000 1.0000 0.0000
v 0.3375 0.2700 0.1800
vt 0.6007 0.9344
vn 0.0000 1.0000 0.0000
f 47/47/47 48/48/48 49/49/49
v -0.3600 0.1282 -0.1800
vt 0.5647 0.8427
vn -1.0000 0.0000 0.0000
v -0.3600 0.2700 -0.1800
vt 0.5647 0.8719
vn -1.0000 0.0000 0.0000
v -0.3600 0.2700 -0.2250
vt 0.5647 0.8719
vn -1.0000 0.0000 0.0000
v -0.3600 0.1282 -0.2250
vt 0.5647 0.8427
vn -1.0000 0.0000 0.0000
f 50/50/50 51/51/51 52/52/52 53/53/53
v 0.3600 0.2700 -0.2250
vt 0.6007 0.9344
vn 0.0000 1.0000 0.0000
v 0.2925 0.2700 -0.2250
vt 0.5980 0.9344
vn 0.0000 1.0000 0.0000
v 0.3375 0.2700 -0.1800
vt 0.6007 0.9344
vn 0.0000 1.0000 0.0000
v 0.3600 0.2700 -0.1800
vt 0.6020 0.9344
vn 0.0000 1.0000 0.0000
f 54/54/54 55/55/55 56/56/56 57/57/57
v -0.3600 0.1282 0.2250
vt 0.5647 0.8427
vn -1.0000 0.0000 0.0000
v -0.3600 0.2700 0.2250
vt 0.5647 0.8719
vn -1.0000 0.0000 0.0000
v -0.3600 0.2700 0.1800
vt 0.5647 0.8719
vn -1.0000 0.0000 0.0000
v -0.3600 0.1282 0.1800
vt 0.5647 0.8427
vn -1.0000 0.0000 0.0000
f 58/58/58 59/59/59 60/60/60 61/61/61
v -0.2925 0.2700 0.1800
vt 0.5687 0.9344
vn 0.0000 1.0000 0.0000
v -0.2925 0.2700 -0.1800
vt 0.5687 0.9344
vn 0.0000 1.0000 0.0000
v -0.3375 0.2700 -0.1800
vt 0.5660 0.9344
vn 0.0000 1.0000 0.0000
v -0.3375 0.2700 0.1800
vt 0.5660 0.9344
vn 0.0000 1.0000 0.0000
f 62/62/62 63/63/63 64/64/64 65/65/65
v 0.3375 0.1282 -0.1800
vt 0.6007 0.8583
vn 0.0000 0.0000 1.0000
v 0.3375 0.0000 -0.1800
vt 0.6007 0.8012
vn 0.0000 0.0000 1.0000
v 0.3600 0.0000 -0.1800
vt 0.6020 0.8012
vn 0.0000 0.0000 1.0000
v 0.3600 0.1282 -0.1800
vt 0.6020 0.8583
vn 0.0000 0.0000 1.0000
f 66/66/66 67/67/67 68/68/68 69/69/69
v 0.3600 0.0000 -0.2250
vt 0.6020 0.8012
vn 0.0000 -1.0000 0.0000
v 0.3600 0.0000 -0.1800
vt 0.6020 0.8012
vn 0.0000 -1.0000 0.0000
v 0.3375 0.0000 -0.1800
vt 0.6007 0.8012
vn 0.0000 -1.0000 0.0000
v 0.2925 0.0000 -0.2250
vt 0.5980 0.8012
vn 0.0000 -1.0000 0.0000
f 70/70/70 71/71/71 72/72/72 73/73/73
v -0.2925 0.2700 -0.2250
vt 0.5687 0.9344
vn 0.0000 1.0000 0.0000
v -0.3600 0.2700 -0.2250
vt 0.5647 0.9344
vn 0.0000 1.0000 0.0000
v -0.3600 0.2700 -0.1800
vt 0.5647 0.9344
vn 0.0000 1.0000 0.0000
v -0.3375 0.2700 -0.1800
vt 0.5660 0.9344
vn 0.0000 1.0000 0.0000
f 74/74/74 75/75/75 76/76/76 77/77/77
v 0.3600 0.1282 0.1800
vt 0.6020 0.8427
vn 1.0000 0.0000 0.0000
v 0.3600 0.2700 0.1800
vt 0.6020 0.8719
vn 1.0000 0.0000 0.0000
v 0.3600 0.2700 0.2250
vt 0.6020 0.8719
vn 1.0000 0.0000 0.0000
v 0.3600 0.1282 0.2250
vt 0.6020 0.8427
vn 1.0000 0.0000 0.0000
f 78/78/78 79/79/79 80/80/80 81/81/81
v -0.3375 0.1282 0.1800
vt 0.5660 0.8427
vn -1.0000 0.0000 0.0000
v -0.3375 0.2700 0.1800
vt 0.5660 0.9031
vn -1.0000 0.0000 0.0000
v -0.3375 0.2700 -0.1800
vt 0.5660 0.9031
vn -1.0000 0.0000 0.0000
v -0.3375 0.1282 -0.1800
vt 0.5660 0.8427
vn -1.0000 0.0000 0.0000
f 82/82/82 83/83/83 84/84/84 85/85/85
v 0.3600 0.1282 -0.2250
vt 0.6020 0.8427
vn 1.0000 0.0000 0.0000
v 0.3600 0.2700 -0.2250
vt 0.6020 0.8719
vn 1.0000 0.0000 0.0000
v 0.3600 0.2700 -0.1800
vt 0.6020 0.8719
vn 1.0000 0.0000 0.0000
v 0.3600 0.1282 -0.1800
vt 0.6020 0.8427
vn 1.0000 0.0000 0.0000
f 86/86/86 87/87/87 88/88/88 89/89/89
v -0.3600 0.0000 -0.2250
vt 0.5660 0.8012
vn 0.0000 -1.0000 0.0000
v -0.2925 0.0000 -0.2250
vt 0.5687 0.8012
vn 0.0000 -1.0000 0.0000
v -0.3375 0.0000 -0.1800
vt 0.5660 0.8012
vn 0.0000 -1.0000 0.0000
v -0.3600 0.0000 -0.1800
vt 0.5647 0.8012
vn 0.0000 -1.0000 0.0000
f 90/90/90 91/91/91 92/92/92 93/93/93
v 0.2925 0.2700 0.1800
vt 0.5900 0.9344
vn 0.0000 1.0000 0.0000
v 0.1575 0.2700 0.2250
vt 0.5900 0.9344
vn 0.0000 1.0000 0.0000
v 0.2925 0.2700 0.2250
vt 0.5980 0.9344
vn 0.0000 1.0000 0.0000
f 94/94/94 95/95/95 96/96/96
v 0.2925 0.2700 0.1800
vt 0.5900 0.9344
vn 0.0000 1.0000 0.0000
v -0.2925 0.2700 0.1800
vt 0.5767 0.9344
vn 0.0000 1.0000 0.0000
v -0.1575 0.2700 0.2250
vt 0.5767 0.9344
vn 0.0000 1.0000 0.0000
v 0.1575 0.2700 0.2250
vt 0.5900 0.9344
vn 0.0000 1.0000 0.0000
f 97/97/97 98/98/98 99/99/99 100/100/100
v 0.2925 0.2700 -0.2250
vt 0.5980 0.9344
vn 0.0000 1.0000 0.0000
v 0.1575 0.2700 -0.2250
vt 0.5900 0.9344
vn 0.0000 1.0000 0.0000
v 0.2925 0.2700 -0.1800
vt 0.5980 0.9344
vn 0.0000 1.0000 0.0000
f 101/101/101 102/102/102 103/103/103
v 0.1575 0.2700 -0.2250
vt 0.5900 0.9344
vn 0.0000 1.0000 0.0000
v -0.1575 0.2700 -0.2250
vt 0.5767 0.9344
vn 0.0000 1.0000 0.0000
v -0.2925 0.2700 -0.1800
vt 0.5767 0.9344
vn 0.0000 1.0000 0.0000
v 0.2925 0.2700 -0.1800
vt 0.5900 0.9344
vn 0.0000 1.0000 0.0000
f 104/104/104 105/105/105 106/106/106 107/107/107
v -0.1575 0.0000 -0.2250
vt 0.1532 0.7821
vn 0.0000 -1.0000 0.0000
v -0.2925 0.0000 -0.2250
vt 0.1323 0.7821
vn 0.0000 -1.0000 0.0000
v -0.2925 0.0000 -0.2587
vt 0.1323 0.7821
vn 0.0000 -1.0000 0.0000
v -0.1575 0.0000 -0.2587
vt 0.1532 0.7821
vn 0.0000 -1.0000 0.0000
f 108/108/108 109/109/109 110/110/110 111/111/111
v -0.1575 0.1282 -0.2250
vt 0.5767 0.8583
vn 0.0000 0.0000 -1.0000
v -0.1575 0.2700 -0.2250
vt 0.5767 0.9188
vn 0.0000 0.0000 -1.0000
v 0.1575 0.2700 -0.2250
vt 0.5900 0.9188
vn 0.0000 0.0000 -1.0000
v 0.1575 0.1282 -0.2250
vt 0.5900 0.8583
vn 0.0000 0.0000 -1.0000
f 112/112/112 113/113/113 114/114/114 115/115/115
v 0.1575 0.1282 0.2250
vt 0.1560 0.8290
vn -1.0000 0.0000 0.0000
v 0.1575 0.0000 0.2250
vt 0.1560 0.7977
vn -1.0000 0.0000 0.0000
v 0.1575 0.0000 0.2587
vt 0.1560 0.7977
vn -1.0000 0.0000 0.0000
f 116/116/116 117/117/117 118/118/118
v 0.1575 0.1282 0.2250
vt 0.5900 0.8583
vn 0.0000 0.0000 1.0000
v 0.1575 0.2700 0.2250
vt 0.5900 0.9188
vn 0.0000 0.0000 1.0000
v -0.1575 0.2700 0.2250
vt 0.5767 0.9188
vn 0.0000 0.0000 1.0000
v -0.1575 0.1282 0.2250
vt 0.5767 0.8583
vn 0.0000 0.0000 1.0000
f 119/119/119 120/120/120 121/121/121 122/122/122
v -0.1575 0.0000 -0.2250
vt 0.5767 0.8012
vn 0.0000 -1.0000 0.0000
v 0.1575 0.0000 -0.2250
vt 0.5900 0.8012
vn 0.0000 -1.0000 0.0000
v 0.1575 0.0000 0.2250
vt 0.5900 0.8012
vn 0.0000 -1.0000 0.0000
v -0.1575 0.0000 0.2250
vt 0.5767 0.8012
vn 0.0000 -1.0000 0.0000
f 123/123/123 124/124/124 125/125/125 126/126/126
v 0.3375 0.0000 0.1800
vt 0.6007 0.8012
vn 0.0000 -1.0000 0.0000
v 0.2925 0.0000 0.2250
vt 0.5980 0.8012
vn 0.0000 -1.0000 0.0000
v 0.2925 0.0000 -0.2250
vt 0.5980 0.8012
vn 0.0000 -1.0000 0.0000
v 0.3375 0.0000 -0.1800
vt 0.6007 0.8012
vn 0.0000 -1.0000 0.0000
f 127/127/127 128/128/128 129/129/129 130/130/130
v 0.3600 0.1282 0.2250
vt 0.6007 0.8583
vn 0.0000 0.0000 1.0000
v 0.3600 0.2700 0.2250
vt 0.6007 0.9188
vn 0.0000 0.0000 1.0000
v 0.2925 0.2700 0.2250
vt 0.5980 0.9188
vn 0.0000 0.0000 1.0000
v 0.2925 0.1282 0.2250
vt 0.5980 0.8583
vn 0.0000 0.0000 1.0000
f 131/131/131 132/132/132 133/133/133 134/134/134
v -0.2925 0.2700 0.2250
vt 0.5687 0.9344
vn 0.0000 1.0000 0.0000
v -0.2925 0.2700 0.1800
vt 0.5687 0.9344
vn 0.0000 1.0000 0.0000
v -0.3375 0.2700 0.1800
vt 0.5660 0.9344
vn 0.0000 1.0000 0.0000
f 135/135/135 136/136/136 137/137/137
v 0.1575 0.2363 -0.2587
vt 0.1560 0.9108
vn 0.0000 0.7071 -0.7071
v 0.2925 0.2363 -0.2587
vt 0.1770 0.9108
vn 0.0000 0.7071 -0.7071
v 0.2722 0.2250 -0.2700
vt 0.1738 0.9042
vn 0.0000 0.7071 -0.7071
v 0.1778 0.2250 -0.2700
vt 0.1592 0.9042
vn 0.0000 0.7071 -0.7071
f 138/138/138 139/139/139 140/140/140 141/141/141
v 0.2925 0.0000 0.2250
vt 0.2230 0.7700
vn 0.0000 -1.0000 0.0000
v 0.1575 0.0000 0.2250
vt 0.2150 0.7700
vn 0.0000 -1.0000 0.0000
v 0.1575 0.0000 -0.2250
vt 0.2150 0.7700
vn 0.0000 -1.0000 0.0000
v 0.2925 0.0000 -0.2250
vt 0.2230 0.7700
vn 0.0000 -1.0000 0.0000
f 142/142/142 143/143/143 144/144/144 145/145/145
v -0.2925 0.0000 0.2250
vt 0.5687 0.8012
vn 0.0000 -1.0000 0.0000
v -0.3375 0.0000 0.1800
vt 0.5660 0.8012
vn 0.0000 -1.0000 0.0000
v -0.3375 0.0000 -0.1800
vt 0.5660 0.8012
vn 0.0000 -1.0000 0.0000
v -0.2925 0.0000 -0.2250
vt 0.5687 0.8012
vn 0.0000 -1.0000 0.0000
f 146/146/146 147/147/147 148/148/148 149/149/149
v -0.3600 0.1282 -0.2250
vt 0.5660 0.8583
vn 0.0000 0.0000 -1.0000
v -0.3600 0.2700 -0.2250
vt 0.5660 0.9188
vn 0.0000 0.0000 -1.0000
v -0.2925 0.2700 -0.2250
vt 0.5687 0.9188
vn 0.0000 0.0000 -1.0000
v -0.2925 0.1282 -0.2250
vt 0.5687 0.8583
vn 0.0000 0.0000 -1.0000
f 150/150/150 151/151/151 152/152/152 153/153/153
v 0.2925 0.2700 -0.1800
vt 0.5980 0.9344
vn 0.0000 1.0000 0.0000
v 0.2925 0.2700 0.1800
vt 0.5980 0.9344
vn 0.0000 1.0000 0.0000
v 0.3375 0.2700 0.1800
vt 0.6007 0.9344
vn 0.0000 1.0000 0.0000
v 0.3375 0.2700 -0.1800
vt 0.6007 0.9344
vn 0.0000 1.0000 0.0000
f 154/154/154 155/155/155 156/156/156 157/157/157
v -0.1575 0.0000 0.2250
vt 0.2017 0.7700
vn 0.0000 -1.0000 0.0000
v -0.2925 0.0000 0.2250
vt 0.1937 0.7700
vn 0.0000 -1.0000 0.0000
v -0.2925 0.0000 -0.2250
vt 0.1937 0.7700
vn 0.0000 -1.0000 0.0000
v -0.1575 0.0000 -0.2250
vt 0.2017 0.7700
vn 0.0000 -1.0000 0.0000
f 158/158/158 159/159/159 160/160/160 161/161/161
v -0.2925 0.2700 0.1800
vt 0.5687 0.9344
vn 0.0000 1.0000 0.0000
v -0.2925 0.2700 0.2250
vt 0.5687 0.9344
vn 0.0000 1.0000 0.0000
v -0.1575 0.2700 0.2250
vt 0.5767 0.9344
vn 0.0000 1.0000 0.0000
f 162/162/162 163/163/163 164/164/164
v -0.1575 0.2700 -0.2250
vt 0.5767 0.9344
vn 0.0000 1.0000 0.0000
v -0.2925 0.2700 -0.2250
vt 0.5687 0.9344
vn 0.0000 1.0000 0.0000
v -0.2925 0.2700 -0.1800
vt 0.5767 0.9344
vn 0.0000 1.0000 0.0000
f 165/165/165 166/166/166 167/167/167
v -0.1575 0.1282 0.2250
vt 0.1532 0.8290
vn 1.0000 0.0000 0.0000
v -0.1575 0.2700 0.2250
vt 0.1532 0.8995
vn 1.0000 0.0000 0.0000
v -0.1575 0.2363 0.2587
vt 0.1532 0.8796
vn 1.0000 0.0000 0.0000
f 168/168/168 169/169/169 170/170/170
v 0.2925 0.1282 0.2250
vt 0.1770 0.8290
vn 1.0000 0.0000 0.0000
v 0.2925 0.2700 0.2250
vt 0.1770 0.8995
vn 1.0000 0.0000 0.0000
v 0.2925 0.2363 0.2587
vt 0.1770 0.8796
vn 1.0000 0.0000 0.0000
f 171/171/171 172/172/172 173/173/173
v -0.2925 0.1282 0.2250
vt 0.1323 0.8290
vn -1.0000 0.0000 0.0000
v -0.2925 0.0000 0.2250
vt 0.1323 0.7977
vn -1.0000 0.0000 0.0000
v -0.2925 0.0000 0.2587
vt 0.1323 0.7977
vn -1.0000 0.0000 0.0000
f 174/174/174 175/175/175 176/176/176
v 0.1575 0.0000 0.2250
vt 0.1560 0.7821
vn 0.0000 -1.0000 0.0000
v 0.2925 0.0000 0.2250
vt 0.1770 0.7821
vn 0.0000 -1.0000 0.0000
v 0.2925 0.0000 0.2587
vt 0.1770 0.7821
vn 0.0000 -1.0000 0.0000
v 0.1575 0.0000 0.2587
vt 0.1560 0.7821
vn 0.0000 -1.0000 0.0000
f 177/177/177 178/178/178 179/179/179 180/180/180
v -0.2925 0.0000 0.2587
vt 0.1323 0.7977
vn -1.0000 0.0000 0.0000
v -0.2925 0.2363 0.2587
vt 0.1323 0.8796
vn -1.0000 0.0000 0.0000
v -0.2925 0.1282 0.2250
vt 0.1323 0.8290
vn -1.0000 0.0000 0.0000
f 181/181/181 182/182/182 183/183/183
v -0.1575 0.2363 0.2587
vt 0.1532 0.9108
vn 0.0000 0.7071 0.7071
v -0.2925 0.2363 0.2587
vt 0.1323 0.9108
vn 0.0000 0.7071 0.7071
v -0.2722 0.2250 0.2700
vt 0.1354 0.9042
vn 0.0000 0.7071 0.7071
v -0.1778 0.2250 0.2700
vt 0.1501 0.9042
vn 0.0000 0.7071 0.7071
f 184/184/184 185/185/185 186/186/186 187/187/187
v 0.2925 0.2363 0.2587
vt 0.1770 0.9108
vn 0.0000 0.7071 0.7071
v 0.1575 0.2363 0.2587
vt 0.1560 0.9108
vn 0.0000 0.7071 0.7071
v 0.1778 0.2250 0.2700
vt 0.1592 0.9042
vn 0.0000 0.7071 0.7071
v 0.2722 0.2250 0.2700
vt 0.1738 0.9042
vn 0.0000 0.7071 0.7071
f 188/188/188 189/189/189 190/190/190 191/191/191
v -0.1778 0.0113 0.2700
vt 0.1501 0.8200
vn 0.0000 0.0000 1.0000
v -0.1778 0.2250 0.2700
vt 0.1501 0.8885
vn 0.0000 0.0000 1.0000
v -0.2722 0.2250 0.2700
vt 0.1354 0.8885
vn 0.0000 0.0000 1.0000
v -0.2722 0.0113 0.2700
vt 0.1354 0.8200
vn 0.0000 0.0000 1.0000
f 192/192/192 193/193/193 194/194/194 195/195/195
v 0.2925 0.0000 -0.2250
vt 0.1770 0.7821
vn 0.0000 -1.0000 0.0000
v 0.1575 0.0000 -0.2250
vt 0.1560 0.7821
vn 0.0000 -1.0000 0.0000
v 0.1575 0.0000 -0.2587
vt 0.1560 0.7821
vn 0.0000 -1.0000 0.0000
v 0.2925 0.0000 -0.2587
vt 0.1770 0.7821
vn 0.0000 -1.0000 0.0000
f 196/196/196 197/197/197 198/198/198 199/199/199
v -0.2925 0.1282 -0.2250
vt 0.1323 0.8290
vn -1.0000 0.0000 0.0000
v -0.2925 0.2700 -0.2250
vt 0.1323 0.8995
vn -1.0000 0.0000 0.0000
v -0.2925 0.2363 -0.2587
vt 0.1323 0.8796
vn -1.0000 0.0000 0.0000
f 200/200/200 201/201/201 202/202/202
v 0.2925 0.1282 -0.2250
vt 0.1770 0.8290
vn 1.0000 0.0000 0.0000
v 0.2925 0.0000 -0.2250
vt 0.1770 0.7977
vn 1.0000 0.0000 0.0000
v 0.2925 0.0000 -0.2587
vt 0.1770 0.7977
vn 1.0000 0.0000 0.0000
f 203/203/203 204/204/204 205/205/205
v -0.1575 0.1282 -0.2250
vt 0.1532 0.8290
vn 1.0000 0.0000 0.0000
v -0.1575 0.0000 -0.2250
vt 0.1532 0.7977
vn 1.0000 0.0000 0.0000
v -0.1575 0.0000 -0.2587
vt 0.1532 0.7977
vn 1.0000 0.0000 0.0000
f 206/206/206 207/207/207 208/208/208
v 0.1575 0.1282 -0.2250
vt 0.1560 0.8290
vn -1.0000 0.0000 0.0000
v 0.1575 0.2700 -0.2250
vt 0.1560 0.8995
vn -1.0000 0.0000 0.0000
v 0.1575 0.2363 -0.2587
vt 0.1560 0.8796
vn -1.0000 0.0000 0.0000
f 209/209/209 210/210/210 211/211/211
v 0.1575 0.2363 -0.2587
vt 0.1560 0.8796
vn -1.0000 0.0000 0.0000
v 0.1575 0.0000 -0.2587
vt 0.1560 0.7977
vn -1.0000 0.0000 0.0000
v 0.1575 0.1282 -0.2250
vt 0.1560 0.8290
vn -1.0000 0.0000 0.0000
f 212/212/212 213/213/213 214/214/214
v -0.2722 0.0113 -0.2700
vt 0.1354 0.8200
vn 0.0000 0.0000 -1.0000
v -0.2722 0.2250 -0.2700
vt 0.1354 0.8885
vn 0.0000 0.0000 -1.0000
v -0.1778 0.2250 -0.2700
vt 0.1501 0.8885
vn 0.0000 0.0000 -1.0000
v -0.1778 0.0113 -0.2700
vt 0.1501 0.8200
vn 0.0000 0.0000 -1.0000
f 215/215/215 216/216/216 217/217/217 218/218/218
v -0.2925 0.2363 -0.2587
vt 0.1323 0.9108
vn 0.0000 0.7071 -0.7071
v -0.1575 0.2363 -0.2587
vt 0.1532 0.9108
vn 0.0000 0.7071 -0.7071
v -0.1778 0.2250 -0.2700
vt 0.1501 0.9042
vn 0.0000 0.7071 -0.7071
v -0.2722 0.2250 -0.2700
vt 0.1354 0.9042
vn 0.0000 0.7071 -0.7071
f 219/219/219 220/220/220 221/221/221 222/222/222
v -0.2925 0.0000 0.2587
vt 0.1323 0.7821
vn 0.0000 -0.7071 0.7071
v -0.1575 0.0000 0.2587
vt 0.1532 0.7821
vn 0.0000 -0.7071 0.7071
v -0.1778 0.0113 0.2700
vt 0.1501 0.7888
vn 0.0000 -0.7071 0.7071
v -0.2722 0.0113 0.2700
vt 0.1354 0.7888
vn 0.0000 -0.7071 0.7071
f 223/223/223 224/224/224 225/225/225 226/226/226
v 0.1778 0.0113 -0.2700
vt 0.1592 0.8200
vn 0.0000 0.0000 -1.0000
v 0.1778 0.2250 -0.2700
vt 0.1592 0.8885
vn 0.0000 0.0000 -1.0000
v 0.2722 0.2250 -0.2700
vt 0.1738 0.8885
vn 0.0000 0.0000 -1.0000
v 0.2722 0.0113 -0.2700
vt 0.1738 0.8200
vn 0.0000 0.0000 -1.0000
f 227/227/227 228/228/228 229/229/229 230/230/230
v 0.1575 0.2363 0.2587
vt 0.1560 0.8796
vn -0.4856 -0.0000 0.8742
v 0.1575 0.0000 0.2587
vt 0.1560 0.7977
vn -0.4856 -0.0000 0.8742
v 0.1778 0.0113 0.2700
vt 0.1592 0.8044
vn -0.4856 -0.0000 0.8742
v 0.1778 0.2250 0.2700
vt 0.1592 0.8729
vn -0.4856 -0.0000 0.8742
f 231/231/231 232/232/232 233/233/233 234/234/234
v 0.1575 0.0000 0.2587
vt 0.1560 0.7821
vn 0.0000 -0.7071 0.7071
v 0.2925 0.0000 0.2587
vt 0.1770 0.7821
vn 0.0000 -0.7071 0.7071
v 0.2722 0.0113 0.2700
vt 0.1738 0.7888
vn 0.0000 -0.7071 0.7071
v 0.1778 0.0113 0.2700
vt 0.1592 0.7888
vn 0.0000 -0.7071 0.7071
f 235/235/235 236/236/236 237/237/237 238/238/238
v -0.1778 0.2250 0.2700
vt 0.1501 0.8729
vn 0.4856 0.0000 0.8742
v -0.1778 0.0113 0.2700
vt 0.1501 0.8044
vn 0.4856 0.0000 0.8742
v -0.1575 0.0000 0.2587
vt 0.1532 0.7977
vn 0.4856 0.0000 0.8742
v -0.1575 0.2363 0.2587
vt 0.1532 0.8796
vn 0.4856 0.0000 0.8742
f 239/239/239 240/240/240 241/241/241 242/242/242
v 0.2722 0.2250 0.2700
vt 0.1738 0.8729
vn 0.4856 0.0000 0.8742
v 0.2722 0.0113 0.2700
vt 0.1738 0.8044
vn 0.4856 0.0000 0.8742
v 0.2925 0.0000 0.2587
vt 0.1770 0.7977
vn 0.4856 0.0000 0.8742
v 0.2925 0.2363 0.2587
vt 0.1770 0.8796
vn 0.4856 0.0000 0.8742
f 243/243/243 244/244/244 245/245/245 246/246/246
v 0.2925 0.0000 -0.2587
vt 0.1770 0.7821
vn 0.0000 -0.7071 -0.7071
v 0.1575 0.0000 -0.2587
vt 0.1560 0.7821
vn 0.0000 -0.7071 -0.7071
v 0.1778 0.0113 -0.2700
vt 0.1592 0.7888
vn 0.0000 -0.7071 -0.7071
v 0.2722 0.0113 -0.2700
vt 0.1738 0.7888
vn 0.0000 -0.7071 -0.7071
f 247/247/247 248/248/248 249/249/249 250/250/250
v -0.2925 0.2363 0.2587
vt 0.1323 0.8796
vn -0.4856 -0.0000 0.8742
v -0.2925 0.0000 0.2587
vt 0.1323 0.7977
vn -0.4856 -0.0000 0.8742
v -0.2722 0.0113 0.2700
vt 0.1354 0.8044
vn -0.4856 -0.0000 0.8742
v -0.2722 0.2250 0.2700
vt 0.1354 0.8729
vn -0.4856 -0.0000 0.8742
f 251/251/251 252/252/252 253/253/253 254/254/254
v -0.1575 0.2363 -0.2587
vt 0.1532 0.8796
vn 0.4856 0.0000 -0.8742
v -0.1575 0.0000 -0.2587
vt 0.1532 0.7977
vn 0.4856 0.0000 -0.8742
v -0.1778 0.0113 -0.2700
vt 0.1501 0.8044
vn 0.4856 0.0000 -0.8742
v -0.1778 0.2250 -0.2700
vt 0.1501 0.8729
vn 0.4856 0.0000 -0.8742
f 255/255/255 256/256/256 257/257/257 258/258/258
v 0.1778 0.2250 -0.2700
vt 0.1592 0.8729
vn -0.4856 0.0000 -0.8742
v 0.1778 0.0113 -0.2700
vt 0.1592 0.8044
vn -0.4856 0.0000 -0.8742
v 0.1575 0.0000 -0.2587
vt 0.1560 0.7977
vn -0.4856 0.0000 -0.8742
v 0.1575 0.2363 -0.2587
vt 0.1560 0.8796
vn -0.4856 0.0000 -0.8742
f 259/259/259 260/260/260 261/261/261 262/262/262
v -0.1575 0.0000 -0.2587
vt 0.1532 0.7821
vn 0.0000 -0.7071 -0.7071
v -0.2925 0.0000 -0.2587
vt 0.1323 0.7821
vn 0.0000 -0.7071 -0.7071
v -0.2722 0.0113 -0.2700
vt 0.1354 0.7888
vn 0.0000 -0.7071 -0.7071
v -0.1778 0.0113 -0.2700
vt 0.1501 0.7888
vn 0.0000 -0.7071 -0.7071
f 263/263/263 264/264/264 265/265/265 266/266/266
v 0.2925 0.2363 -0.2587
vt 0.1770 0.8796
vn 0.4856 0.0000 -0.8742
v 0.2925 0.0000 -0.2587
vt 0.1770 0.7977
vn 0.4856 0.0000 -0.8742
v 0.2722 0.0113 -0.2700
vt 0.1738 0.8044
vn 0.4856 0.0000 -0.8742
v 0.2722 0.2250 -0.2700
vt 0.1738 0.8729
vn 0.4856 0.0000 -0.8742
f 267/267/267 268/268/268 269/269/269 270/270/270
v -0.2925 0.0000 0.2250
vt 0.1323 0.7821
vn 0.0000 -1.0000 0.0000
v -0.1575 0.0000 0.2250
vt 0.1532 0.7821
vn 0.0000 -1.0000 0.0000
v -0.1575 0.0000 0.2587
vt 0.1532 0.7821
vn 0.0000 -1.0000 0.0000
v -0.2925 0.0000 0.2587
vt 0.1323 0.7821
vn 0.0000 -1.0000 0.0000
f 271/271/271 272/272/272 273/273/273 274/274/274
v -0.2925 0.1282 -0.2250
vt 0.1323 0.8290
vn -1.0000 0.0000 0.0000
v -0.2925 0.2363 -0.2587
vt 0.1323 0.8796
vn -1.0000 0.0000 0.0000
v -0.2925 0.0000 -0.2587
vt 0.1323 0.7977
vn -1.0000 0.0000 0.0000
f 275/275/275 276/276/276 277/277/277
v 0.2722 0.0113 0.2700
vt 0.1738 0.8200
vn 0.0000 0.0000 1.0000
v 0.2722 0.2250 0.2700
vt 0.1738 0.8885
vn 0.0000 0.0000 1.0000
v 0.1778 0.2250 0.2700
vt 0.1592 0.8885
vn 0.0000 0.0000 1.0000
v 0.1778 0.0113 0.2700
vt 0.1592 0.8200
vn 0.0000 0.0000 1.0000
f 278/278/278 279/279/279 280/280/280 281/281/281
v -0.3600 0.0000 -0.2250
vt 0.5660 0.8325
vn 0.0000 0.0000 -1.0000
v -0.3600 0.1282 -0.2250
vt 0.5660 0.8896
vn 0.0000 0.0000 -1.0000
v -0.2925 0.1282 -0.2250
vt 0.5687 0.8896
vn 0.0000 0.0000 -1.0000
v -0.2925 0.0000 -0.2250
vt 0.5687 0.8325
vn 0.0000 0.0000 -1.0000
f 282/282/282 283/283/283 284/284/284 285/285/285
v 0.3600 0.0000 0.2250
vt 0.6007 0.8325
vn 0.0000 0.0000 1.0000
v 0.3600 0.1282 0.2250
vt 0.6007 0.8896
vn 0.0000 0.0000 1.0000
v 0.2925 0.1282 0.2250
vt 0.5980 0.8896
vn 0.0000 0.0000 1.0000
v 0.2925 0.0000 0.2250
vt 0.5980 0.8325
vn 0.0000 0.0000 1.0000
f 286/286/286 287/287/287 288/288/288 289/289/289
v 0.1575 0.0000 0.2250
vt 0.5900 0.8325
vn 0.0000 0.0000 1.0000
v 0.1575 0.1282 0.2250
vt 0.5900 0.8896
vn 0.0000 0.0000 1.0000
v -0.1575 0.1282 0.2250
vt 0.5767 0.8896
vn 0.0000 0.0000 1.0000
v -0.1575 0.0000 0.2250
vt 0.5767 0.8325
vn 0.0000 0.0000 1.0000
f 290/290/290 291/291/291 292/292/292 293/293/293
v -0.1575 0.0000 -0.2250
vt 0.5767 0.8325
vn 0.0000 0.0000 -1.0000
v -0.1575 0.1282 -0.2250
vt 0.5767 0.8896
vn 0.0000 0.0000 -1.0000
v 0.1575 0.1282 -0.2250
vt 0.5900 0.8896
vn 0.0000 0.0000 -1.0000
v 0.1575 0.0000 -0.2250
vt 0.5900 0.8325
vn 0.0000 0.0000 -1.0000
f 294/294/294 295/295/295 296/296/296 297/297/297
v 0.3600 0.0000 -0.2250
vt 0.6020 0.8169
vn 1.0000 0.0000 0.0000
v 0.3600 0.1282 -0.2250
vt 0.6020 0.8740
vn 1.0000 0.0000 0.0000
v 0.3600 0.1282 -0.1800
vt 0.6020 0.8740
vn 1.0000 0.0000 0.0000
v 0.3600 0.0000 -0.1800
vt 0.6020 0.8169
vn 1.0000 0.0000 0.0000
f 298/298/298 299/299/299 300/300/300 301/301/301
v -0.3375 0.0000 0.1800
vt 0.5660 0.8169
vn -1.0000 0.0000 0.0000
v -0.3375 0.1282 0.1800
vt 0.5660 0.9052
vn -1.0000 0.0000 0.0000
v -0.3375 0.1282 -0.1800
vt 0.5660 0.9052
vn -1.0000 0.0000 0.0000
v -0.3375 0.0000 -0.1800
vt 0.5660 0.8169
vn -1.0000 0.0000 0.0000
f 302/302/302 303/303/303 304/304/304 305/305/305
v 0.3600 0.0000 0.1800
vt 0.6020 0.8169
vn 1.0000 0.0000 0.0000
v 0.3600 0.1282 0.1800
vt 0.6020 0.8740
vn 1.0000 0.0000 0.0000
v 0.3600 0.1282 0.2250
vt 0.6020 0.8740
vn 1.0000 0.0000 0.0000
v 0.3600 0.0000 0.2250
vt 0.6020 0.8169
vn 1.0000 0.0000 0.0000
f 306/306/306 307/307/307 308/308/308 309/309/309
v 0.3375 0.2700 -0.1800
vt 0.6007 0.8563
vn 0.0000 0.0000 1.0000
v 0.3375 0.1282 -0.1800
vt 0.6007 0.8271
vn 0.0000 0.0000 1.0000
v 0.3600 0.1282 -0.1800
vt 0.6020 0.8271
vn 0.0000 0.0000 1.0000
v 0.3600 0.2700 -0.1800
vt 0.6020 0.8563
vn 0.0000 0.0000 1.0000
f 310/310/310 311/311/311 312/312/312 313/313/313
v -0.3600 0.0000 0.2250
vt 0.5647 0.8169
vn -1.0000 0.0000 0.0000
v -0.3600 0.1282 0.2250
vt 0.5647 0.8740
vn -1.0000 0.0000 0.0000
v -0.3600 0.1282 0.1800
vt 0.5647 0.8740
vn -1.0000 0.0000 0.0000
v -0.3600 0.0000 0.1800
vt 0.5647 0.8169
vn -1.0000 0.0000 0.0000
f 314/314/314 315/315/315 316/316/316 317/317/317
v -0.3600 0.0000 -0.1800
vt 0.5647 0.8169
vn -1.0000 0.0000 0.0000
v -0.3600 0.1282 -0.1800
vt 0.5647 0.8740
vn -1.0000 0.0000 0.0000
v -0.3600 0.1282 -0.2250
vt 0.5647 0.8740
vn -1.0000 0.0000 0.0000
v -0.3600 0.0000 -0.2250
vt 0.5647 0.8169
vn -1.0000 0.0000 0.0000
f 318/318/318 319/319/319 320/320/320 321/321/321
v 0.3375 0.0000 0.1800
vt 0.6007 0.8012
vn 0.0000 0.0000 -1.0000
v 0.3375 0.1282 0.1800
vt 0.6007 0.8583
vn 0.0000 0.0000 -1.0000
v 0.3600 0.1282 0.1800
vt 0.6020 0.8583
vn 0.0000 0.0000 -1.0000
v 0.3600 0.0000 0.1800
vt 0.6020 0.8012
vn 0.0000 0.0000 -1.0000
f 322/322/322 323/323/323 324/324/324 325/325/325
v 0.3375 0.2700 -0.1800
vt 0.6007 0.9031
vn 1.0000 0.0000 0.0000
v 0.3375 0.2700 0.1800
vt 0.6007 0.9031
vn 1.0000 0.0000 0.0000
v 0.3375 0.1282 0.1800
vt 0.6007 0.8427
vn 1.0000 0.0000 0.0000
v 0.3375 0.1282 -0.1800
vt 0.6007 0.8427
vn 1.0000 0.0000 0.0000
f 326/326/326 327/327/327 328/328/328 329/329/329
v -0.3375 0.0000 -0.1800
vt 0.5660 0.8012
vn 0.0000 0.0000 1.0000
v -0.3375 0.1282 -0.1800
vt 0.5660 0.8583
vn 0.0000 0.0000 1.0000
v -0.3600 0.1282 -0.1800
vt 0.5647 0.8583
vn 0.0000 0.0000 1.0000
v -0.3600 0.0000 -0.1800
vt 0.5647 0.8012
vn 0.0000 0.0000 1.0000
f 330/330/330 331/331/331 332/332/332 333/333/333
v 0.2925 0.0000 -0.2250
vt 0.5980 0.8325
vn 0.0000 0.0000 -1.0000
v 0.2925 0.1282 -0.2250
vt 0.5980 0.8896
vn 0.0000 0.0000 -1.0000
v 0.3600 0.1282 -0.2250
vt 0.6007 0.8896
vn 0.0000 0.0000 -1.0000
v 0.3600 0.0000 -0.2250
vt 0.6007 0.8325
vn 0.0000 0.0000 -1.0000
f 334/334/334 335/335/335 336/336/336 337/337/337
v -0.3375 0.2700 0.1800
vt 0.5660 0.8563
vn 0.0000 0.0000 -1.0000
v -0.3375 0.1282 0.1800
vt 0.5660 0.8271
vn 0.0000 0.0000 -1.0000
v -0.3600 0.1282 0.1800
vt 0.5647 0.8271
vn 0.0000 0.0000 -1.0000
v -0.3600 0.2700 0.1800
vt 0.5647 0.8563
vn 0.0000 0.0000 -1.0000
f 338/338/338 339/339/339 340/340/340 341/341/341
v -0.2925 0.0000 0.2250
vt 0.5687 0.8325
vn 0.0000 0.0000 1.0000
v -0.2925 0.1282 0.2250
vt 0.5687 0.8896
vn 0.0000 0.0000 1.0000
v -0.3600 0.1282 0.2250
vt 0.5660 0.8896
vn 0.0000 0.0000 1.0000
v -0.3600 0.0000 0.2250
vt 0.5660 0.8325
vn 0.0000 0.0000 1.0000
f 342/342/342 343/343/343 344/344/344 345/345/345
v 0.2925 0.2700 0.2250
vt 0.1770 0.9308
vn 0.0000 0.7071 0.7071
v 0.1575 0.2700 0.2250
vt 0.1560 0.9308
vn 0.0000 0.7071 0.7071
v 0.1575 0.2363 0.2587
vt 0.1560 0.9108
vn 0.0000 0.7071 0.7071
v 0.2925 0.2363 0.2587
vt 0.1770 0.9108
vn 0.0000 0.7071 0.7071
f 346/346/346 347/347/347 348/348/348 349/349/349
v -0.1575 0.2700 0.2250
vt 0.1532 0.9308
vn 0.0000 0.7071 0.7071
v -0.2925 0.2700 0.2250
vt 0.1323 0.9308
vn 0.0000 0.7071 0.7071
v -0.2925 0.2363 0.2587
vt 0.1323 0.9108
vn 0.0000 0.7071 0.7071
v -0.1575 0.2363 0.2587
vt 0.1532 0.9108
vn 0.0000 0.7071 0.7071
f 350/350/350 351/351/351 352/352/352 353/353/353
v -0.2925 0.2700 -0.2250
vt 0.1323 0.9308
vn 0.0000 0.7071 -0.7071
v -0.1575 0.2700 -0.2250
vt 0.1532 0.9308
vn 0.0000 0.7071 -0.7071
v -0.1575 0.2363 -0.2587
vt 0.1532 0.9108
vn 0.0000 0.7071 -0.7071
v -0.2925 0.2363 -0.2587
vt 0.1323 0.9108
vn 0.0000 0.7071 -0.7071
f 354/354/354 355/355/355 356/356/356 357/357/357
v 0.1575 0.2700 -0.2250
vt 0.1560 0.9308
vn 0.0000 0.7071 -0.7071
v 0.2925 0.2700 -0.2250
vt 0.1770 0.9308
vn 0.0000 0.7071 -0.7071
v 0.2925 0.2363 -0.2587
vt 0.1770 0.9108
vn 0.0000 0.7071 -0.7071
v 0.1575 0.2363 -0.2587
vt 0.1560 0.9108
vn 0.0000 0.7071 -0.7071
f 358/358/358 359/359/359 360/360/360 361/361/361
v 0.2925 0.2700 -0.2250
vt 0.1770 0.8995
vn 1.0000 0.0000 0.0000
v 0.2925 0.1282 -0.2250
vt 0.1770 0.8290
vn 1.0000 0.0000 0.0000
v 0.2925 0.2363 -0.2587
vt 0.1770 0.8796
vn 1.0000 0.0000 0.0000
f 362/362/362 363/363/363 364/364/364
v -0.2925 0.0000 -0.2250
vt 0.1323 0.7977
vn -1.0000 0.0000 0.0000
v -0.2925 0.1282 -0.2250
vt 0.1323 0.8290
vn -1.0000 0.0000 0.0000
v -0.2925 0.0000 -0.2587
vt 0.1323 0.7977
vn -1.0000 0.0000 0.0000
f 365/365/365 366/366/366 367/367/367
v 0.1575 0.0000 0.2587
vt 0.1560 0.7977
vn -1.0000 0.0000 0.0000
v 0.1575 0.2363 0.2587
vt 0.1560 0.8796
vn -1.0000 0.0000 0.0000
v 0.1575 0.1282 0.2250
vt 0.1560 0.8290
vn -1.0000 0.0000 0.0000
f 368/368/368 369/369/369 370/370/370
v -0.1575 0.0000 0.2250
vt 0.1532 0.7977
vn 1.0000 0.0000 0.0000
v -0.1575 0.1282 0.2250
vt 0.1532 0.8290
vn 1.0000 0.0000 0.0000
v -0.1575 0.0000 0.2587
vt 0.1532 0.7977
vn 1.0000 0.0000 0.0000
f 371/371/371 372/372/372 373/373/373
v 0.1575 0.2700 0.2250
vt 0.1560 0.8995
vn -1.0000 0.0000 0.0000
v 0.1575 0.1282 0.2250
vt 0.1560 0.8290
vn -1.0000 0.0000 0.0000
v 0.1575 0.2363 0.2587
vt 0.1560 0.8796
vn -1.0000 0.0000 0.0000
f 374/374/374 375/375/375 376/376/376
v -0.2925 0.2700 0.2250
vt 0.1323 0.8995
vn -1.0000 0.0000 0.0000
v -0.2925 0.1282 0.2250
vt 0.1323 0.8290
vn -1.0000 0.0000 0.0000
v -0.2925 0.2363 0.2587
vt 0.1323 0.8796
vn -1.0000 0.0000 0.0000
f 377/377/377 378/378/378 379/379/379
v 0.2925 0.2363 0.2587
vt 0.1770 0.8796
vn 1.0000 0.0000 0.0000
v 0.2925 0.0000 0.2587
vt 0.1770 0.7977
vn 1.0000 0.0000 0.0000
v 0.2925 0.1282 0.2250
vt 0.1770 0.8290
vn 1.0000 0.0000 0.0000
f 380/380/380 381/381/381 382/382/382
v -0.1575 0.2363 0.2587
vt 0.1532 0.8796
vn 1.0000 0.0000 0.0000
v -0.1575 0.0000 0.2587
vt 0.1532 0.7977
vn 1.0000 0.0000 0.0000
v -0.1575 0.1282 0.2250
vt 0.1532 0.8290
vn 1.0000 0.0000 0.0000
f 383/383/383 384/384/384 385/385/385
v 0.2925 0.0000 0.2250
vt 0.1770 0.7977
vn 1.0000 0.0000 0.0000
v 0.2925 0.1282 0.2250
vt 0.1770 0.8290
vn 1.0000 0.0000 0.0000
v 0.2925 0.0000 0.2587
vt 0.1770 0.7977
vn 1.0000 0.0000 0.0000
f 386/386/386 387/387/387 388/388/388
v -0.1575 0.0000 -0.2587
vt 0.1532 0.7977
vn 1.0000 0.0000 0.0000
v -0.1575 0.2363 -0.2587
vt 0.1532 0.8796
vn 1.0000 0.0000 0.0000
v -0.1575 0.1282 -0.2250
vt 0.1532 0.8290
vn 1.0000 0.0000 0.0000
f 389/389/389 390/390/390 391/391/391
v 0.1575 0.0000 -0.2250
vt 0.1560 0.7977
vn -1.0000 0.0000 0.0000
v 0.1575 0.1282 -0.2250
vt 0.1560 0.8290
vn -1.0000 0.0000 0.0000
v 0.1575 0.0000 -0.2587
vt 0.1560 0.7977
vn -1.0000 0.0000 0.0000
f 392/392/392 393/393/393 394/394/394
v -0.1575 0.2700 -0.2250
vt 0.1532 0.8995
vn 1.0000 0.0000 0.0000
v -0.1575 0.1282 -0.2250
vt 0.1532 0.8290
vn 1.0000 0.0000 0.0000
v -0.1575 0.2363 -0.2587
vt 0.1532 0.8796
vn 1.0000 0.0000 0.0000
f 395/395/395 396/396/396 397/397/397
v 0.2925 0.1282 -0.2250
vt 0.1770 0.8290
vn 1.0000 0.0000 0.0000
v 0.2925 0.0000 -0.2587
vt 0.1770 0.7977
vn 1.0000 0.0000 0.0000
v 0.2925 0.2363 -0.2587
vt 0.1770 0.8796
vn 1.0000 0.0000 0.0000
f 398/398/398 399/399/399 400/400/400
v -0.2722 0.2250 -0.2700
vt 0.1354 0.8729
vn -0.4856 0.0000 -0.8742
v -0.2722 0.0113 -0.2700
vt 0.1354 0.8044
vn -0.4856 0.0000 -0.8742
v -0.2925 0.0000 -0.2587
vt 0.1323 0.7977
vn -0.4856 0.0000 -0.8742
v -0.2925 0.2363 -0.2587
vt 0.1323 0.8796
vn -0.4856 0.0000 -0.8742
f 401/401/401 402/402/402 403/403/403 404/404/404
v -0.2925 0.2700 -0.1800
vt 0.5687 0.8719
vn 1.0000 0.0000 0.0000
v -0.2925 0.2700 0.1800
vt 0.5687 0.8719
vn 1.0000 0.0000 0.0000
v -0.2925 0.0450 0.1800
vt 0.5687 0.8279
vn 1.0000 0.0000 0.0000
v -0.2925 0.0450 -0.1800
vt 0.5687 0.8279
vn 1.0000 0.0000 0.0000
f 405/405/405 406/406/406 407/407/407 408/408/408
v 0.2925 0.2700 0.1800
vt 0.5980 0.8719
vn -1.0000 0.0000 0.0000
v 0.2925 0.2700 -0.1800
vt 0.5980 0.8719
vn -1.0000 0.0000 0.0000
v 0.2925 0.0450 -0.1800
vt 0.5980 0.8279
vn -1.0000 0.0000 0.0000
v 0.2925 0.0450 0.1800
vt 0.5980 0.8279
vn -1.0000 0.0000 0.0000
f 409/409/409 410/410/410 411/411/411 412/412/412
v 0.2925 0.2700 -0.1800
vt 0.5900 0.8875
vn 0.0000 0.0000 1.0000
v -0.2925 0.2700 -0.1800
vt 0.5767 0.8875
vn 0.0000 0.0000 1.0000
v -0.2925 0.0450 -0.1800
vt 0.5687 0.8435
vn 0.0000 0.0000 1.0000
v 0.2925 0.0450 -0.1800
vt 0.5980 0.8435
vn 0.0000 0.0000 1.0000
f 413/413/413 414/414/414 415/415/415 416/416/416
v 0.2925 0.2700 0.1800
vt 0.5900 0.8875
vn 0.0000 0.0000 -1.0000
v 0.2925 0.0450 0.1800
vt 0.5980 0.8435
vn 0.0000 0.0000 -1.0000
v -0.2925 0.0450 0.1800
vt 0.5687 0.8435
vn 0.0000 0.0000 -1.0000
v -0.2925 0.2700 0.1800
vt 0.5767 0.8875
vn 0.0000 0.0000 -1.0000
f 417/417/417 418/418/418 419/419/419 420/420/420
v -0.2925 0.0450 0.1800
vt 0.5687 0.8591
vn 0.0000 1.0000 0.0000
v 0.2925 0.0450 0.1800
vt 0.5980 0.8591
vn 0.0000 1.0000 0.0000
v 0.2925 0.0450 -0.1800
vt 0.5980 0.8591
vn 0.0000 1.0000 0.0000
v -0.2925 0.0450 -0.1800
vt 0.5687 0.8591
vn 0.0000 1.0000 0.0000
f 421/421/421 422/422/422 423/423/423 424/424/424
v -0.0675 0.1859 0.2700
vt 0.2017 0.8714
vn 0.0000 0.0000 1.0000
v 0.0675 0.1859 0.2700
vt 0.2150 0.8714
vn 0.0000 0.0000 1.0000
v 0.0675 0.2250 0.2700
vt 0.2150 0.8963
vn 0.0000 0.0000 1.0000
v -0.0675 0.2250 0.2700
vt 0.2017 0.8963
vn 0.0000 0.0000 1.0000
f 425/425/425 426/426/426 427/427/427 428/428/428
v 0.0675 0.2250 0.2250
vt 0.2150 0.9088
vn 0.0000 1.0000 0.0000
v -0.0675 0.2250 0.2250
vt 0.2017 0.9088
vn 0.0000 1.0000 0.0000
v -0.0675 0.2250 0.2700
vt 0.2017 0.9088
vn 0.0000 1.0000 0.0000
v 0.0675 0.2250 0.2700
vt 0.2150 0.9088
vn 0.0000 1.0000 0.0000
f 429/429/429 430/430/430 431/431/431 432/432/432
v -0.0675 0.2250 0.2250
vt 0.2017 0.8838
vn -1.0000 0.0000 0.0000
v -0.0675 0.1859 0.2250
vt 0.2017 0.8589
vn -0.9808 -0.1951 0.0000
v -0.0675 0.1859 0.2700
vt 0.2017 0.8589
vn -0.9808 -0.1951 0.0000
v -0.0675 0.2250 0.2700
vt 0.2017 0.8838
vn -1.0000 0.0000 0.0000
f 433/433/433 434/434/434 435/435/435 436/436/436
v -0.0323 0.1507 0.2250
vt 0.2052 0.8258
vn -0.1951 -0.9808 0.0000
v 0.0323 0.1507 0.2250
vt 0.2116 0.8258
vn 0.1951 -0.9808 0.0000
v 0.0323 0.1507 0.2700
vt 0.2116 0.8258
vn 0.1951 -0.9808 0.0000
v -0.0323 0.1507 0.2700
vt 0.2052 0.8258
vn -0.1951 -0.9808 0.0000
f 437/437/437 438/438/438 439/439/439 440/440/440
v -0.0323 0.1507 0.2250
vt 0.2052 0.8258
vn -0.1951 -0.9808 0.0000
v -0.0323 0.1507 0.2700
vt 0.2052 0.8258
vn -0.1951 -0.9808 0.0000
v -0.0572 0.1611 0.2700
vt 0.2020 0.8281
vn -0.7071 -0.7071 0.0000
v -0.0572 0.1611 0.2250
vt 0.2017 0.8258
vn -0.7071 -0.7071 0.0000
f 441/441/441 442/442/442 443/443/443 444/444/444
v -0.0572 0.1611 0.2250
vt 0.2017 0.8383
vn -0.7071 -0.7071 0.0000
v -0.0572 0.1611 0.2700
vt 0.2020 0.8405
vn -0.7071 -0.7071 0.0000
v -0.0675 0.1859 0.2700
vt 0.2017 0.8589
vn -0.9808 -0.1951 0.0000
v -0.0675 0.1859 0.2250
vt 0.2017 0.8589
vn -0.9808 -0.1951 0.0000
f 445/445/445 446/446/446 447/447/447 448/448/448
v 0.0675 0.1859 0.2250
vt 0.2150 0.8589
vn 0.9808 -0.1951 0.0000
v 0.0675 0.1859 0.2700
vt 0.2150 0.8589
vn 0.9808 -0.1951 0.0000
v 0.0572 0.1611 0.2700
vt 0.2147 0.8405
vn 0.7071 -0.7071 0.0000
v 0.0572 0.1611 0.2250
vt 0.2150 0.8383
vn 0.7071 -0.7071 0.0000
f 449/449/449 450/450/450 451/451/451 452/452/452
v 0.0572 0.1611 0.2250
vt 0.2150 0.8258
vn 0.7071 -0.7071 0.0000
v 0.0572 0.1611 0.2700
vt 0.2147 0.8281
vn 0.7071 -0.7071 0.0000
v 0.0323 0.1507 0.2700
vt 0.2116 0.8258
vn 0.1951 -0.9808 0.0000
v 0.0323 0.1507 0.2250
vt 0.2116 0.8258
vn 0.1951 -0.9808 0.0000
f 453/453/453 454/454/454 455/455/455 456/456/456
v 0.0675 0.1859 0.2250
vt 0.2150 0.8589
vn 0.9808 -0.1951 0.0000
v 0.0675 0.2250 0.2250
vt 0.2150 0.8838
vn 1.0000 0.0000 0.0000
v 0.0675 0.2250 0.2700
vt 0.2150 0.8838
vn 1.0000 0.0000 0.0000
v 0.0675 0.1859 0.2700
vt 0.2150 0.8589
vn 0.9808 -0.1951 0.0000
f 457/457/457 458/458/458 459/459/459 460/460/460
v -0.0572 0.1611 0.2700
vt 0.2020 0.8530
vn 0.0000 0.0000 1.0000
v 0.0572 0.1611 0.2700
vt 0.2147 0.8530
vn 0.0000 0.0000 1.0000
v 0.0675 0.1859 0.2700
vt 0.2150 0.8714
vn 0.0000 0.0000 1.0000
v -0.0675 0.1859 0.2700
vt 0.2017 0.8714
vn 0.0000 0.0000 1.0000
f 461/461/461 462/462/462 463/463/463 464/464/464
v -0.0323 0.1507 0.2700
vt 0.2052 0.8508
vn 0.0000 0.0000 1.0000
v 0.0323 0.1507 0.2700
vt 0.2116 0.8508
vn 0.0000 0.0000 1.0000
v 0.0572 0.1611 0.2700
vt 0.2147 0.8530
vn 0.0000 0.0000 1.0000
v -0.0572 0.1611 0.2700
vt 0.2020 0.8530
vn 0.0000 0.0000 1.0000
f 465/465/465 466/466/466 467/467/467 468/468/468
v 0.2078 0.0368 0.2817
vt 0.1733 0.7954
vn -0.5319 -0.5319 0.6590
v 0.2041 0.0540 0.2855
vt 0.1702 0.8173
vn -0.6405 -0.0000 0.7679
v 0.1962 0.0540 0.2700
vt 0.1637 0.8173
vn -0.9020 0.0000 0.4317
v 0.2041 0.0331 0.2700
vt 0.1702 0.7907
vn -0.6324 -0.6324 0.4473
f 469/469/469 470/470/470 471/471/471 472/472/472
v 0.2041 0.0540 0.2855
vt 0.1702 0.8173
vn -0.6405 -0.0000 0.7679
v 0.2078 0.0712 0.2817
vt 0.1733 0.8872
vn -0.5319 0.5319 0.6590
v 0.2041 0.0749 0.2700
vt 0.1702 0.8438
vn -0.6324 0.6324 0.4473
v 0.1962 0.0540 0.2700
vt 0.1637 0.8173
vn -0.9020 0.0000 0.4317
f 473/473/473 474/474/474 475/475/475 476/476/476
v 0.2538 0.0540 0.2700
vt 0.2113 0.8173
vn 0.9020 -0.0000 0.4317
v 0.2459 0.0749 0.2700
vt 0.2048 0.8438
vn 0.6324 0.6324 0.4473
v 0.2422 0.0712 0.2817
vt 0.2017 0.8872
vn 0.5319 0.5319 0.6590
v 0.2459 0.0540 0.2855
vt 0.2048 0.8173
vn 0.6405 -0.0000 0.7679
f 477/477/477 478/478/478 479/479/479 480/480/480
v 0.2459 0.0331 0.2700
vt 0.2048 0.7907
vn 0.6324 -0.6324 0.4473
v 0.2538 0.0540 0.2700
vt 0.2113 0.8173
vn 0.9020 -0.0000 0.4317
v 0.2459 0.0540 0.2855
vt 0.2048 0.8173
vn 0.6405 -0.0000 0.7679
v 0.2422 0.0368 0.2817
vt 0.2017 0.7954
vn 0.5319 -0.5319 0.6590
f 481/481/481 482/482/482 483/483/483 484/484/484
v 0.2422 0.0368 0.2817
vt 0.2017 0.7954
vn 0.5319 -0.5319 0.6590
v 0.2459 0.0540 0.2855
vt 0.2048 0.8413
vn 0.6405 -0.0000 0.7679
v 0.2250 0.0540 0.2906
vt 0.1875 0.8413
vn 0.0000 0.0000 1.0000
v 0.2250 0.0331 0.2855
vt 0.1875 0.8147
vn 0.0000 -0.6405 0.7679
f 485/485/485 486/486/486 487/487/487 488/488/488
v 0.2459 0.0540 0.2855
vt 0.2048 0.8413
vn 0.6405 -0.0000 0.7679
v 0.2422 0.0712 0.2817
vt 0.2017 0.8872
vn 0.5319 0.5319 0.6590
v 0.2250 0.0749 0.2855
vt 0.1875 0.8923
vn 0.0000 0.6405 0.7679
v 0.2250 0.0540 0.2906
vt 0.1875 0.8413
vn 0.0000 0.0000 1.0000
f 489/489/489 490/490/490 491/491/491 492/492/492
v 0.2250 0.0540 0.2906
vt 0.1875 0.8413
vn 0.0000 0.0000 1.0000
v 0.2250 0.0749 0.2855
vt 0.1875 0.8923
vn 0.0000 0.6405 0.7679
v 0.2078 0.0712 0.2817
vt 0.1733 0.8872
vn -0.5319 0.5319 0.6590
v 0.2041 0.0540 0.2855
vt 0.1702 0.8413
vn -0.6405 -0.0000 0.7679
f 493/493/493 494/494/494 495/495/495 496/496/496
v 0.2250 0.0331 0.2855
vt 0.1875 0.8147
vn 0.0000 -0.6405 0.7679
v 0.2250 0.0540 0.2906
vt 0.1875 0.8413
vn 0.0000 0.0000 1.0000
v 0.2041 0.0540 0.2855
vt 0.1702 0.8413
vn -0.6405 -0.0000 0.7679
v 0.2078 0.0368 0.2817
vt 0.1733 0.7954
vn -0.5319 -0.5319 0.6590
f 497/497/497 498/498/498 499/499/499 500/500/500
v 0.2250 0.0252 0.2700
vt 0.1875 0.7566
vn 0.0000 -0.9020 0.4317
v 0.2459 0.0331 0.2700
vt 0.2048 0.7666
vn 0.6324 -0.6324 0.4473
v 0.2422 0.0368 0.2817
vt 0.2017 0.7954
vn 0.5319 -0.5319 0.6590
v 0.2250 0.0331 0.2855
vt 0.1875 0.7666
vn 0.0000 -0.6405 0.7679
f 501/501/501 502/502/502 503/503/503 504/504/504
v 0.2041 0.0331 0.2700
vt 0.1702 0.7666
vn -0.6324 -0.6324 0.4473
v 0.2250 0.0252 0.2700
vt 0.1875 0.7566
vn 0.0000 -0.9020 0.4317
v 0.2250 0.0331 0.2855
vt 0.1875 0.7666
vn 0.0000 -0.6405 0.7679
v 0.2078 0.0368 0.2817
vt 0.1733 0.7954
vn -0.5319 -0.5319 0.6590
f 505/505/505 506/506/506 507/507/507 508/508/508
v 0.2250 0.0828 0.2700
vt 0.1875 0.9020
vn 0.0000 0.9020 0.4317
v 0.2041 0.0749 0.2700
vt 0.1702 0.8919
vn -0.6324 0.6324 0.4473
v 0.2078 0.0712 0.2817
vt 0.1733 0.8872
vn -0.5319 0.5319 0.6590
v 0.2250 0.0749 0.2855
vt 0.1875 0.9156
vn 0.0000 0.6405 0.7679
f 509/509/509 510/510/510 511/511/511 512/512/512
v 0.2459 0.0749 0.2700
vt 0.2048 0.8919
vn 0.6324 0.6324 0.4473
v 0.2250 0.0828 0.2700
vt 0.1875 0.9020
vn 0.0000 0.9020 0.4317
v 0.2250 0.0749 0.2855
vt 0.1875 0.9156
vn 0.0000 0.6405 0.7679
v 0.2422 0.0712 0.2817
vt 0.2017 0.8872
vn 0.5319 0.5319 0.6590
f 513/513/513 514/514/514 515/515/515 516/516/516
v -0.2422 0.0368 0.2817
vt 0.1733 0.7954
vn -0.5319 -0.5319 0.6590
v -0.2459 0.0540 0.2855
vt 0.1702 0.8173
vn -0.6405 -0.0000 0.7679
v -0.2538 0.0540 0.2700
vt 0.1637 0.8173
vn -0.9020 0.0000 0.4317
v -0.2459 0.0331 0.2700
vt 0.1702 0.7907
vn -0.6324 -0.6324 0.4473
f 517/517/517 518/518/518 519/519/519 520/520/520
v -0.2459 0.0540 0.2855
vt 0.1702 0.8173
vn -0.6405 -0.0000 0.7679
v -0.2422 0.0712 0.2817
vt 0.1733 0.8872
vn -0.5319 0.5319 0.6590
v -0.2459 0.0749 0.2700
vt 0.1702 0.8438
vn -0.6324 0.6324 0.4473
v -0.2538 0.0540 0.2700
vt 0.1637 0.8173
vn -0.9020 0.0000 0.4317
f 521/521/521 522/522/522 523/523/523 524/524/524
v -0.1962 0.0540 0.2700
vt 0.2113 0.8173
vn 0.9020 -0.0000 0.4317
v -0.2041 0.0749 0.2700
vt 0.2048 0.8438
vn 0.6324 0.6324 0.4473
v -0.2078 0.0712 0.2817
vt 0.2017 0.8872
vn 0.5319 0.5319 0.6590
v -0.2041 0.0540 0.2855
vt 0.2048 0.8173
vn 0.6405 -0.0000 0.7679
f 525/525/525 526/526/526 527/527/527 528/528/528
v -0.2041 0.0331 0.2700
vt 0.2048 0.7907
vn 0.6324 -0.6324 0.4473
v -0.1962 0.0540 0.2700
vt 0.2113 0.8173
vn 0.9020 -0.0000 0.4317
v -0.2041 0.0540 0.2855
vt 0.2048 0.8173
vn 0.6405 -0.0000 0.7679
v -0.2078 0.0368 0.2817
vt 0.2017 0.7954
vn 0.5319 -0.5319 0.6590
f 529/529/529 530/530/530 531/531/531 532/532/532
v -0.2078 0.0368 0.2817
vt 0.2017 0.7954
vn 0.5319 -0.5319 0.6590
v -0.2041 0.0540 0.2855
vt 0.2048 0.8413
vn 0.6405 -0.0000 0.7679
v -0.2250 0.0540 0.2906
vt 0.1875 0.8413
vn 0.0000 0.0000 1.0000
v -0.2250 0.0331 0.2855
vt 0.1875 0.8147
vn 0.0000 -0.6405 0.7679
f 533/533/533 534/534/534 535/535/535 536/536/536
v -0.2041 0.0540 0.2855
vt 0.2048 0.8413
vn 0.6405 -0.0000 0.7679
v -0.2078 0.0712 0.2817
vt 0.2017 0.8872
vn 0.5319 0.5319 0.6590
v -0.2250 0.0749 0.2855
vt 0.1875 0.8923
vn 0.0000 0.6405 0.7679
v -0.2250 0.0540 0.2906
vt 0.1875 0.8413
vn 0.0000 0.0000 1.0000
f 537/537/537 538/538/538 539/539/539 540/540/540
v -0.2250 0.0540 0.2906
vt 0.1875 0.8413
vn 0.0000 0.0000 1.0000
v -0.2250 0.0749 0.2855
vt 0.1875 0.8923
vn 0.0000 0.6405 0.7679
v -0.2422 0.0712 0.2817
vt 0.1733 0.8872
vn -0.5319 0.5319 0.6590
v -0.2459 0.0540 0.2855
vt 0.1702 0.8413
vn -0.6405 -0.0000 0.7679
f 541/541/541 542/542/542 543/543/543 544/544/544
v -0.2250 0.0331 0.2855
vt 0.1875 0.8147
vn 0.0000 -0.6405 0.7679
v -0.2250 0.0540 0.2906
vt 0.1875 0.8413
vn 0.0000 0.0000 1.0000
v -0.2459 0.0540 0.2855
vt 0.1702 0.8413
vn -0.6405 -0.0000 0.7679
v -0.2422 0.0368 0.2817
vt 0.1733 0.7954
vn -0.5319 -0.5319 0.6590
f 545/545/545 546/546/546 547/547/547 548/548/548
v -0.2250 0.0252 0.2700
vt 0.1875 0.7566
vn 0.0000 -0.9020 0.4317
v -0.2041 0.0331 0.2700
vt 0.2048 0.7666
vn 0.6324 -0.6324 0.4473
v -0.2078 0.0368 0.2817
vt 0.2017 0.7954
vn 0.5319 -0.5319 0.6590
v -0.2250 0.0331 0.2855
vt 0.1875 0.7666
vn 0.0000 -0.6405 0.7679
f 549/549/549 550/550/550 551/551/551 552/552/552
v -0.2459 0.0331 0.2700
vt 0.1702 0.7666
vn -0.6324 -0.6324 0.4473
v -0.2250 0.0252 0.2700
vt 0.1875 0.7566
vn 0.0000 -0.9020 0.4317
v -0.2250 0.0331 0.2855
vt 0.1875 0.7666
vn 0.0000 -0.6405 0.7679
v -0.2422 0.0368 0.2817
vt 0.1733 0.7954
vn -0.5319 -0.5319 0.6590
f 553/553/553 554/554/554 555/555/555 556/556/556
v -0.2250 0.0828 0.2700
vt 0.1875 0.9020
vn 0.0000 0.9020 0.4317
v -0.2459 0.0749 0.2700
vt 0.1702 0.8919
vn -0.6324 0.6324 0.4473
v -0.2422 0.0712 0.2817
vt 0.1733 0.8872
vn -0.5319 0.5319 0.6590
v -0.2250 0.0749 0.2855
vt 0.1875 0.9156
vn 0.0000 0.6405 0.7679
f 557/557/557 558/558/558 559/559/559 560/560/560
v -0.2041 0.0749 0.2700
vt 0.2048 0.8919
vn 0.6324 0.6324 0.4473
v -0.2250 0.0828 0.2700
vt 0.1875 0.9020
vn 0.0000 0.9020 0.4317
v -0.2250 0.0749 0.2855
vt 0.1875 0.9156
vn 0.0000 0.6405 0.7679
v -0.2078 0.0712 0.2817
vt 0.2017 0.8872
vn 0.5319 0.5319 0.6590
f 561/561/561 562/562/562 563/563/563 564/564/564
