# Blender 4.5.13 LTS
# www.blender.org
o planks
v -0.300000 0.000000 0.200000
v -0.300000 0.320000 0.200000
v -0.300000 0.000000 -0.200000
v -0.300000 0.320000 -0.200000
v 0.300000 0.000000 0.200000
v 0.300000 0.320000 0.200000
v 0.300000 0.000000 -0.200000
v 0.300000 0.320000 -0.200000
v -0.300000 0.320000 -0.200000
v 0.300000 0.320000 -0.200000
v -0.300000 0.202443 -0.161803
v 0.300000 0.202443 -0.161803
v -0.300000 0.129789 -0.061803
v 0.300000 0.129789 -0.061803
v -0.300000 0.129789 0.061803
v 0.300000 0.129789 0.061803
v -0.300000 0.202443 0.161803
v 0.300000 0.202443 0.161803
v -0.300000 0.320000 0.200000
v 0.300000 0.320000 0.200000
v -0.300000 0.437557 0.161803
v 0.300000 0.437557 0.161803
v -0.300000 0.510211 0.061803
v 0.300000 0.510211 0.061803
v -0.300000 0.510211 -0.061803
v 0.300000 0.510211 -0.061803
v -0.300000 0.437557 -0.161803
v 0.300000 0.437557 -0.161803
v -0.245000 0.000000 0.210000
v -0.245000 0.340000 0.210000
v -0.245000 0.000000 -0.210000
v -0.245000 0.340000 -0.210000
v -0.195000 0.000000 0.210000
v -0.195000 0.340000 0.210000
v -0.195000 0.000000 -0.210000
v -0.195000 0.340000 -0.210000
v -0.245000 0.320000 -0.205000
v -0.195000 0.320000 -0.205000
v -0.245000 0.199504 -0.165848
v -0.195000 0.199504 -0.165848
v -0.245000 0.125033 -0.063348
v -0.195000 0.125033 -0.063348
v -0.245000 0.125033 0.063348
v -0.195000 0.125033 0.063348
v -0.245000 0.199504 0.165848
v -0.195000 0.199504 0.165848
v -0.245000 0.320000 0.205000
v -0.195000 0.320000 0.205000
v -0.245000 0.440496 0.165848
v -0.195000 0.440496 0.165848
v -0.245000 0.514967 0.063348
v -0.195000 0.514967 0.063348
v -0.245000 0.514967 -0.063348
v -0.195000 0.514967 -0.063348
v -0.245000 0.440496 -0.165848
v -0.195000 0.440496 -0.165848
v 0.195000 0.000000 0.210000
v 0.195000 0.340000 0.210000
v 0.195000 0.000000 -0.210000
v 0.195000 0.340000 -0.210000
v 0.245000 0.000000 0.210000
v 0.245000 0.340000 0.210000
v 0.245000 0.000000 -0.210000
v 0.245000 0.340000 -0.210000
v 0.195000 0.320000 -0.205000
v 0.245000 0.320000 -0.205000
v 0.195000 0.199504 -0.165848
v 0.245000 0.199504 -0.165848
v 0.195000 0.125033 -0.063348
v 0.245000 0.125033 -0.063348
v 0.195000 0.125033 0.063348
v 0.245000 0.125033 0.063348
v 0.195000 0.199504 0.165848
v 0.245000 0.199504 0.165848
v 0.195000 0.320000 0.205000
v 0.245000 0.320000 0.205000
v 0.195000 0.440496 0.165848
v 0.245000 0.440496 0.165848
v 0.195000 0.514967 0.063348
v 0.245000 0.514967 0.063348
v 0.195000 0.514967 -0.063348
v 0.245000 0.514967 -0.063348
v 0.195000 0.440496 -0.165848
v 0.245000 0.440496 -0.165848
v -0.040000 0.250000 0.225000
v -0.040000 0.350000 0.225000
v -0.040000 0.250000 0.195000
v -0.040000 0.350000 0.195000
v 0.040000 0.250000 0.225000
v 0.040000 0.350000 0.225000
v 0.040000 0.250000 0.195000
v 0.040000 0.350000 0.195000
vn -1.0000 -0.0000 -0.0000
vn -0.0000 -0.0000 -1.0000
vn 1.0000 -0.0000 -0.0000
vn -0.0000 -0.0000 1.0000
vn -0.0000 -1.0000 -0.0000
vn -0.0000 1.0000 -0.0000
vn -0.0000 -0.3090 -0.9511
vn -0.0000 -0.8090 -0.5878
vn -0.0000 -0.8090 0.5878
vn -0.0000 -0.3090 0.9511
vn -0.0000 0.3090 0.9511
vn -0.0000 0.8090 0.5878
vn -0.0000 0.8090 -0.5878
vn -0.0000 0.3090 -0.9511
vt 0.187820 0.950879
vt 0.338296 0.762784
vt 0.338296 0.950879
vt 0.156631 0.568744
vt 0.307107 0.286602
vt 0.307107 0.568744
vt 0.001486 0.955581
vt 0.151962 0.767487
vt 0.151962 0.955581
vt 0.310080 0.568744
vt 0.460556 0.286602
vt 0.460556 0.568744
vt 0.189581 0.283629
vt 0.001487 0.001486
vt 0.189581 0.001486
vt 0.380649 0.283629
vt 0.192554 0.001486
vt 0.380649 0.001486
vt 0.867996 0.764514
vt 0.812716 0.482372
vt 0.867996 0.482372
vt 0.535794 0.283629
vt 0.488770 0.001486
vt 0.535794 0.001486
vt 0.488770 0.283629
vt 0.430646 0.001486
vt 0.430646 0.283629
vt 0.383622 0.001486
vt 0.887954 0.001486
vt 0.943234 0.283629
vt 0.887954 0.283629
vt 0.943234 0.001486
vt 0.998514 0.283629
vt 0.001487 0.286602
vt 0.048510 0.568744
vt 0.001486 0.568744
vt 0.048510 0.286602
vt 0.106635 0.568744
vt 0.187820 0.694826
vt 0.332544 0.589678
vt 0.366709 0.694826
vt 0.106635 0.286602
vt 0.153658 0.568744
vt 0.923276 0.764514
vt 0.923276 0.482372
vt 0.828752 0.409711
vt 0.649863 0.409711
vt 0.684028 0.304563
vt 0.649863 0.880344
vt 0.809743 0.682844
vt 0.809743 0.880344
vt 0.858209 0.277197
vt 0.881721 0.437077
vt 0.858209 0.437077
vt 0.725101 0.198986
vt 0.884981 0.001486
vt 0.884981 0.198986
vt 0.887954 0.286602
vt 0.911466 0.446482
vt 0.887954 0.446482
vt 0.369682 0.769216
vt 0.393194 0.571717
vt 0.393194 0.769216
vt 0.396167 0.769216
vt 0.419679 0.571717
vt 0.419679 0.769216
vt 0.393194 0.828851
vt 0.369682 0.885512
vt 0.369682 0.828851
vt 0.865686 0.923463
vt 0.889198 0.875264
vt 0.889198 0.923463
vt 0.865686 0.875264
vt 0.889198 0.815686
vt 0.865686 0.815686
vt 0.889198 0.767487
vt 0.446164 0.885512
vt 0.422652 0.828851
vt 0.446164 0.828851
vt 0.446164 0.772189
vt 0.836228 0.767487
vt 0.812716 0.815686
vt 0.812716 0.767487
vt 0.836228 0.815686
vt 0.812716 0.875264
vt 0.611871 0.305012
vt 0.555209 0.479399
vt 0.463529 0.412789
vt 0.836228 0.875264
vt 0.812716 0.923463
vt 0.393194 0.772189
vt 0.369682 0.772189
vt 0.463529 0.608559
vt 0.611871 0.500782
vt 0.646890 0.608559
vt 0.649863 0.679871
vt 0.809743 0.482372
vt 0.809743 0.679871
vt 0.341269 0.762784
vt 0.364781 0.922665
vt 0.341269 0.922665
vt 0.463529 0.875641
vt 0.623409 0.678142
vt 0.623409 0.875641
vt 0.154935 0.767487
vt 0.178447 0.927367
vt 0.154935 0.927367
vt 0.422652 0.769216
vt 0.446164 0.571717
vt 0.446164 0.769216
vt 0.831725 0.474696
vt 0.855236 0.277197
vt 0.855236 0.474696
vt 0.419679 0.828851
vt 0.396167 0.885512
vt 0.396167 0.828851
vt 0.892171 0.923463
vt 0.915683 0.875264
vt 0.915683 0.923463
vt 0.892171 0.875264
vt 0.915683 0.815686
vt 0.892171 0.815686
vt 0.915683 0.767487
vt 0.937951 0.399925
vt 0.914439 0.343263
vt 0.937951 0.343263
vt 0.937951 0.286602
vt 0.862713 0.767487
vt 0.839201 0.815686
vt 0.839201 0.767487
vt 0.862713 0.815686
vt 0.839201 0.875264
vt 0.687109 0.019897
vt 0.630447 0.194284
vt 0.538767 0.127674
vt 0.862713 0.875264
vt 0.839201 0.923463
vt 0.419679 0.772189
vt 0.396167 0.772189
vt 0.001486 0.697904
vt 0.149829 0.590127
vt 0.184847 0.697904
vt 0.619951 0.197257
vt 0.634058 0.244280
vt 0.619951 0.244280
vt 0.538767 0.197257
vt 0.576386 0.244280
vt 0.538767 0.244280
vt 0.637031 0.197257
vt 0.651138 0.244280
vt 0.637031 0.244280
vt 0.579359 0.197257
vt 0.616978 0.244280
vt 0.579359 0.244280
vt 0.668218 0.234875
vt 0.654111 0.197257
vt 0.668218 0.197257
vt 0.668218 0.275467
vt 0.654111 0.237848
vt 0.668218 0.237848
vt 0.187820 0.762784
vt 0.156631 0.286602
vt 0.001486 0.767487
vt 0.310080 0.286602
vt 0.001486 0.283629
vt 0.192554 0.283629
vt 0.812716 0.764514
vt 0.383622 0.283629
vt 0.998514 0.001486
vt 0.332544 0.741850
vt 0.277265 0.759811
vt 0.221985 0.741850
vt 0.187820 0.636702
vt 0.221985 0.589678
vt 0.277265 0.571717
vt 0.366709 0.636702
vt 0.153658 0.286602
vt 0.739307 0.286602
vt 0.794587 0.304563
vt 0.828752 0.351587
vt 0.794587 0.456735
vt 0.739307 0.474696
vt 0.684028 0.456735
vt 0.649863 0.351587
vt 0.649863 0.682844
vt 0.881721 0.277197
vt 0.725101 0.001486
vt 0.911466 0.286602
vt 0.369682 0.571717
vt 0.396167 0.571717
vt 0.393194 0.885512
vt 0.865686 0.767487
vt 0.422652 0.885512
vt 0.422652 0.772189
vt 0.463529 0.353211
vt 0.498548 0.305012
vt 0.555209 0.286602
vt 0.646890 0.353211
vt 0.646890 0.412789
vt 0.611871 0.460988
vt 0.498548 0.460988
vt 0.836228 0.923463
vt 0.611871 0.656758
vt 0.555209 0.675169
vt 0.498548 0.656758
vt 0.463529 0.548981
vt 0.498548 0.500782
vt 0.555209 0.482372
vt 0.646890 0.548981
vt 0.649863 0.482372
vt 0.364781 0.762784
vt 0.463529 0.678142
vt 0.178447 0.767487
vt 0.422652 0.571717
vt 0.831725 0.277197
vt 0.419679 0.885512
vt 0.892171 0.767487
vt 0.914439 0.399925
vt 0.914439 0.286602
vt 0.538767 0.068096
vt 0.573786 0.019897
vt 0.630447 0.001486
vt 0.722128 0.068096
vt 0.722128 0.127674
vt 0.687109 0.175873
vt 0.573786 0.175873
vt 0.862713 0.923463
vt 0.149829 0.746103
vt 0.093167 0.764514
vt 0.036505 0.746103
vt 0.001486 0.638326
vt 0.036505 0.590127
vt 0.093167 0.571717
vt 0.184847 0.638326
vt 0.634058 0.197257
vt 0.576386 0.197257
vt 0.651138 0.197257
vt 0.616978 0.197257
vt 0.654111 0.234875
vt 0.654111 0.275467
s 0
f 2/1/1 3/2/1 1/3/1
f 4/4/2 7/5/2 3/6/2
f 8/7/3 5/8/3 7/9/3
f 6/10/4 1/11/4 5/12/4
f 7/13/5 1/14/5 3/15/5
f 4/16/6 6/17/6 8/18/6
f 10/19/7 11/20/7 9/21/7
f 12/22/8 13/23/8 11/24/8
f 14/25/5 15/26/5 13/23/5
f 16/27/9 17/28/9 15/26/9
f 18/29/10 19/30/10 17/31/10
f 20/32/11 21/33/11 19/30/11
f 22/34/12 23/35/12 21/36/12
f 24/37/6 25/38/6 23/35/6
f 26/39/3 18/40/3 14/41/3
f 26/42/13 27/43/13 25/38/13
f 28/44/14 9/21/14 27/45/14
f 15/46/1 23/47/1 27/48/1
f 30/49/1 31/50/1 29/51/1
f 32/52/2 35/53/2 31/54/2
f 36/55/3 33/56/3 35/57/3
f 34/58/4 29/59/4 33/60/4
f 35/61/5 29/62/5 31/63/5
f 32/64/6 34/65/6 36/66/6
f 38/67/7 39/68/7 37/69/7
f 40/70/8 41/71/8 39/72/8
f 42/73/5 43/74/5 41/71/5
f 44/75/9 45/76/9 43/74/9
f 45/77/10 48/78/10 47/79/10
f 48/78/11 49/80/11 47/79/11
f 50/81/12 51/82/12 49/83/12
f 52/84/6 53/85/6 51/82/6
f 54/86/3 46/87/3 42/88/3
f 54/89/13 55/90/13 53/85/13
f 56/91/14 37/69/14 55/92/14
f 43/93/1 51/94/1 55/95/1
f 58/96/1 59/97/1 57/98/1
f 60/99/2 63/100/2 59/101/2
f 64/102/3 61/103/3 63/104/3
f 62/105/4 57/106/4 61/107/4
f 63/108/5 57/109/5 59/110/5
f 60/111/6 62/112/6 64/113/6
f 66/114/7 67/115/7 65/116/7
f 68/117/8 69/118/8 67/119/8
f 70/120/5 71/121/5 69/118/5
f 72/122/9 73/123/9 71/121/9
f 73/124/10 76/125/10 75/126/10
f 76/125/11 77/127/11 75/126/11
f 78/128/12 79/129/12 77/130/12
f 80/131/6 81/132/6 79/129/6
f 82/133/3 74/134/3 70/135/3
f 82/136/13 83/137/13 81/132/13
f 84/138/14 65/116/14 83/139/14
f 71/140/1 79/141/1 83/142/1
f 86/143/1 87/144/1 85/145/1
f 88/146/2 91/147/2 87/148/2
f 92/149/3 89/150/3 91/151/3
f 90/152/4 85/153/4 89/154/4
f 91/155/5 85/156/5 87/157/5
f 88/158/6 90/159/6 92/160/6
f 2/1/1 4/161/1 3/2/1
f 4/4/2 8/162/2 7/5/2
f 8/7/3 6/163/3 5/8/3
f 6/10/4 2/164/4 1/11/4
f 7/13/5 5/165/5 1/14/5
f 4/16/6 2/166/6 6/17/6
f 10/19/7 12/167/7 11/20/7
f 12/22/8 14/25/8 13/23/8
f 14/25/5 16/27/5 15/26/5
f 16/27/9 18/168/9 17/28/9
f 18/29/10 20/32/10 19/30/10
f 20/32/11 22/169/11 21/33/11
f 22/34/12 24/37/12 23/35/12
f 24/37/6 26/42/6 25/38/6
f 14/41/3 12/170/3 10/171/3
f 10/171/3 28/172/3 26/39/3
f 26/39/3 24/173/3 22/174/3
f 22/174/3 20/175/3 18/40/3
f 18/40/3 16/176/3 14/41/3
f 14/41/3 10/171/3 26/39/3
f 26/39/3 22/174/3 18/40/3
f 26/42/13 28/177/13 27/43/13
f 28/44/14 10/19/14 9/21/14
f 27/48/1 9/178/1 11/179/1
f 11/179/1 13/180/1 15/46/1
f 15/46/1 17/181/1 19/182/1
f 19/182/1 21/183/1 23/47/1
f 23/47/1 25/184/1 27/48/1
f 27/48/1 11/179/1 15/46/1
f 15/46/1 19/182/1 23/47/1
f 30/49/1 32/185/1 31/50/1
f 32/52/2 36/186/2 35/53/2
f 36/55/3 34/187/3 33/56/3
f 34/58/4 30/188/4 29/59/4
f 35/61/5 33/189/5 29/62/5
f 32/64/6 30/190/6 34/65/6
f 38/67/7 40/191/7 39/68/7
f 40/70/8 42/73/8 41/71/8
f 42/73/5 44/75/5 43/74/5
f 44/75/9 46/192/9 45/76/9
f 45/77/10 46/193/10 48/78/10
f 48/78/11 50/194/11 49/80/11
f 50/81/12 52/84/12 51/82/12
f 52/84/6 54/89/6 53/85/6
f 42/88/3 40/195/3 38/196/3
f 38/196/3 56/197/3 54/86/3
f 54/86/3 52/198/3 50/199/3
f 50/199/3 48/200/3 46/87/3
f 46/87/3 44/201/3 42/88/3
f 42/88/3 38/196/3 54/86/3
f 54/86/3 50/199/3 46/87/3
f 54/89/13 56/202/13 55/90/13
f 56/91/14 38/67/14 37/69/14
f 55/95/1 37/203/1 39/204/1
f 39/204/1 41/205/1 43/93/1
f 43/93/1 45/206/1 47/207/1
f 47/207/1 49/208/1 51/94/1
f 51/94/1 53/209/1 55/95/1
f 55/95/1 39/204/1 43/93/1
f 43/93/1 47/207/1 51/94/1
f 58/96/1 60/210/1 59/97/1
f 60/99/2 64/211/2 63/100/2
f 64/102/3 62/212/3 61/103/3
f 62/105/4 58/213/4 57/106/4
f 63/108/5 61/214/5 57/109/5
f 60/111/6 58/215/6 62/112/6
f 66/114/7 68/216/7 67/115/7
f 68/117/8 70/120/8 69/118/8
f 70/120/5 72/122/5 71/121/5
f 72/122/9 74/217/9 73/123/9
f 73/124/10 74/218/10 76/125/10
f 76/125/11 78/219/11 77/127/11
f 78/128/12 80/131/12 79/129/12
f 80/131/6 82/136/6 81/132/6
f 70/135/3 68/220/3 66/221/3
f 66/221/3 84/222/3 82/133/3
f 82/133/3 80/223/3 78/224/3
f 78/224/3 76/225/3 74/134/3
f 74/134/3 72/226/3 70/135/3
f 70/135/3 66/221/3 82/133/3
f 82/133/3 78/224/3 74/134/3
f 82/136/13 84/227/13 83/137/13
f 84/138/14 66/114/14 65/116/14
f 83/142/1 65/228/1 67/229/1
f 67/229/1 69/230/1 71/140/1
f 71/140/1 73/231/1 75/232/1
f 75/232/1 77/233/1 79/141/1
f 79/141/1 81/234/1 83/142/1
f 83/142/1 67/229/1 71/140/1
f 71/140/1 75/232/1 79/141/1
f 86/143/1 88/235/1 87/144/1
f 88/146/2 92/236/2 91/147/2
f 92/149/3 90/237/3 89/150/3
f 90/152/4 86/238/4 85/153/4
f 91/155/5 89/239/5 85/156/5
f 88/158/6 86/240/6 90/159/6
