# Blender 4.5.13 LTS
# www.blender.org
o gold
v 0.000000 0.000000 -0.160000
v 0.000000 0.040000 -0.160000
v 0.061229 0.000000 -0.147821
v 0.061229 0.040000 -0.147821
v 0.113137 0.000000 -0.113137
v 0.113137 0.040000 -0.113137
v 0.147821 0.000000 -0.061229
v 0.147821 0.040000 -0.061229
v 0.160000 0.000000 0.000000
v 0.160000 0.040000 0.000000
v 0.147821 0.000000 0.061229
v 0.147821 0.040000 0.061229
v 0.113137 0.000000 0.113137
v 0.113137 0.040000 0.113137
v 0.061229 0.000000 0.147821
v 0.061229 0.040000 0.147821
v 0.000000 0.000000 0.160000
v 0.000000 0.040000 0.160000
v -0.061229 0.000000 0.147821
v -0.061229 0.040000 0.147821
v -0.113137 0.000000 0.113137
v -0.113137 0.040000 0.113137
v -0.147821 0.000000 0.061229
v -0.147821 0.040000 0.061229
v -0.160000 0.000000 0.000000
v -0.160000 0.040000 0.000000
v -0.147821 0.000000 -0.061229
v -0.147821 0.040000 -0.061229
v -0.113137 0.000000 -0.113137
v -0.113137 0.040000 -0.113137
v -0.061229 0.000000 -0.147821
v -0.061229 0.040000 -0.147821
v 0.000000 0.040000 -0.100000
v 0.000000 0.048000 -0.100000
v 0.058779 0.040000 -0.080902
v 0.058779 0.048000 -0.080902
v 0.095106 0.040000 -0.030902
v 0.095106 0.048000 -0.030902
v 0.095106 0.040000 0.030902
v 0.095106 0.048000 0.030902
v 0.058779 0.040000 0.080902
v 0.058779 0.048000 0.080902
v 0.000000 0.040000 0.100000
v 0.000000 0.048000 0.100000
v -0.058779 0.040000 0.080902
v -0.058779 0.048000 0.080902
v -0.095106 0.040000 0.030902
v -0.095106 0.048000 0.030902
v -0.095106 0.040000 -0.030902
v -0.095106 0.048000 -0.030902
v -0.058779 0.040000 -0.080902
v -0.058779 0.048000 -0.080902
vn 0.1951 -0.0000 -0.9808
vn 0.5556 -0.0000 -0.8315
vn 0.8315 -0.0000 -0.5556
vn 0.9808 -0.0000 -0.1951
vn 0.9808 -0.0000 0.1951
vn 0.8315 -0.0000 0.5556
vn 0.5556 -0.0000 0.8315
vn 0.1951 -0.0000 0.9808
vn -0.1951 -0.0000 0.9808
vn -0.5556 -0.0000 0.8315
vn -0.8315 -0.0000 0.5556
vn -0.9808 -0.0000 0.1951
vn -0.9808 -0.0000 -0.1951
vn -0.8315 -0.0000 -0.5556
vn -0.0000 1.0000 -0.0000
vn -0.5556 -0.0000 -0.8315
vn -0.1951 -0.0000 -0.9808
vn -0.0000 -1.0000 -0.0000
vn 0.3090 -0.0000 -0.9511
vn 0.8090 -0.0000 -0.5878
vn 1.0000 -0.0000 -0.0000
vn 0.8090 -0.0000 0.5878
vn 0.3090 -0.0000 0.9511
vn -0.3090 -0.0000 0.9511
vn -0.8090 -0.0000 0.5878
vn -1.0000 -0.0000 -0.0000
vn -0.8090 -0.0000 -0.5878
vn -0.3090 -0.0000 -0.9511
vt 0.869329 0.170451
vt 0.932868 0.076138
vt 0.932868 0.170451
vt 0.869329 0.076138
vt 0.932868 0.000729
vt 0.804332 0.360158
vt 0.867870 0.277704
vt 0.867870 0.360158
vt 0.804332 0.277704
vt 0.867871 0.180444
vt 0.804332 0.180443
vt 0.867871 0.083183
vt 0.804332 0.083183
vt 0.867871 0.000729
vt 0.869329 0.716064
vt 0.932868 0.640656
vt 0.932868 0.716064
vt 0.869329 0.640656
vt 0.932868 0.546343
vt 0.869329 0.546343
vt 0.932868 0.447483
vt 0.869329 0.447483
vt 0.932868 0.359126
vt 0.804332 0.721045
vt 0.867870 0.638591
vt 0.867870 0.721045
vt 0.804332 0.638591
vt 0.867870 0.541331
vt 0.804332 0.541331
vt 0.867870 0.444070
vt 0.804332 0.444070
vt 0.867870 0.361616
vt 0.391200 0.038679
vt 0.461321 0.391200
vt 0.108800 0.461321
vt 0.869329 0.357667
vt 0.932868 0.269311
vt 0.932868 0.357667
vt 0.869329 0.269311
vt 0.461321 0.608800
vt 0.391200 0.961321
vt 0.038679 0.891200
vt 0.543229 0.728188
vt 0.555937 0.639032
vt 0.555937 0.728188
vt 0.500729 0.896051
vt 0.513437 0.816628
vt 0.513437 0.896051
vt 0.500729 0.816628
vt 0.513437 0.718456
vt 0.500729 0.718456
vt 0.513437 0.639032
vt 0.529063 0.824474
vt 0.541770 0.735318
vt 0.541770 0.824474
vt 0.529063 0.735318
vt 0.541770 0.639032
vt 0.514896 0.896051
vt 0.527604 0.816628
vt 0.527604 0.896051
vt 0.514896 0.816628
vt 0.527604 0.718456
vt 0.558434 0.031066
vt 0.802873 0.208662
vt 0.651801 0.318422
vt 0.514896 0.718456
vt 0.527604 0.639032
vt 0.543229 0.824474
vt 0.555937 0.824474
vt 0.651801 0.319881
vt 0.745169 0.607237
vt 0.558434 0.607237
vt 0.869329 0.000729
vt 0.804332 0.000729
vt 0.869329 0.359126
vt 0.804332 0.361616
vt 0.038679 0.391200
vt 0.000729 0.299583
vt 0.000729 0.200417
vt 0.038679 0.108800
vt 0.108800 0.038679
vt 0.200417 0.000729
vt 0.299583 0.000729
vt 0.461321 0.108800
vt 0.499271 0.200417
vt 0.499271 0.299583
vt 0.391200 0.461321
vt 0.299583 0.499271
vt 0.200417 0.499271
vt 0.000729 0.799583
vt 0.000729 0.700417
vt 0.038679 0.608800
vt 0.108800 0.538679
vt 0.200417 0.500729
vt 0.299583 0.500729
vt 0.391200 0.538679
vt 0.499271 0.700417
vt 0.499271 0.799583
vt 0.461321 0.891200
vt 0.299583 0.999271
vt 0.200417 0.999271
vt 0.108800 0.961321
vt 0.543229 0.639032
vt 0.500729 0.639032
vt 0.529063 0.639032
vt 0.558434 0.288085
vt 0.500729 0.208662
vt 0.500729 0.110490
vt 0.651801 0.000729
vt 0.745169 0.031066
vt 0.802873 0.110490
vt 0.745169 0.288085
vt 0.514896 0.639032
vt 0.500729 0.527813
vt 0.500729 0.429641
vt 0.558434 0.350218
vt 0.745169 0.350218
vt 0.802873 0.429641
vt 0.802873 0.527813
vt 0.651801 0.637574
s 0
f 2/1/1 3/2/1 1/3/1
f 4/4/2 5/5/2 3/2/2
f 6/6/3 7/7/3 5/8/3
f 8/9/4 9/10/4 7/7/4
f 10/11/5 11/12/5 9/10/5
f 12/13/6 13/14/6 11/12/6
f 14/15/7 15/16/7 13/17/7
f 16/18/8 17/19/8 15/16/8
f 18/20/9 19/21/9 17/19/9
f 20/22/10 21/23/10 19/21/10
f 22/24/11 23/25/11 21/26/11
f 24/27/12 25/28/12 23/25/12
f 26/29/13 27/30/13 25/28/13
f 28/31/14 29/32/14 27/30/14
f 22/33/15 14/34/15 6/35/15
f 30/36/16 31/37/16 29/38/16
f 32/39/17 1/3/17 31/37/17
f 15/40/18 23/41/18 31/42/18
f 34/43/19 35/44/19 33/45/19
f 36/46/20 37/47/20 35/48/20
f 38/49/21 39/50/21 37/47/21
f 40/51/22 41/52/22 39/50/22
f 42/53/23 43/54/23 41/55/23
f 44/56/24 45/57/24 43/54/24
f 46/58/25 47/59/25 45/60/25
f 48/61/26 49/62/26 47/59/26
f 50/63/15 42/64/15 38/65/15
f 50/66/27 51/67/27 49/62/27
f 52/68/28 33/45/28 51/69/28
f 39/70/18 47/71/18 51/72/18
f 2/1/1 4/4/1 3/2/1
f 4/4/2 6/73/2 5/5/2
f 6/6/3 8/9/3 7/7/3
f 8/9/4 10/11/4 9/10/4
f 10/11/5 12/13/5 11/12/5
f 12/13/6 14/74/6 13/14/6
f 14/15/7 16/18/7 15/16/7
f 16/18/8 18/20/8 17/19/8
f 18/20/9 20/22/9 19/21/9
f 20/22/10 22/75/10 21/23/10
f 22/24/11 24/27/11 23/25/11
f 24/27/12 26/29/12 25/28/12
f 26/29/13 28/31/13 27/30/13
f 28/31/14 30/76/14 29/32/14
f 6/35/15 4/77/15 2/78/15
f 2/78/15 32/79/15 30/80/15
f 30/80/15 28/81/15 26/82/15
f 26/82/15 24/83/15 22/33/15
f 22/33/15 20/84/15 18/85/15
f 18/85/15 16/86/15 14/34/15
f 14/34/15 12/87/15 10/88/15
f 10/88/15 8/89/15 6/35/15
f 6/35/15 2/78/15 30/80/15
f 30/80/15 26/82/15 22/33/15
f 22/33/15 18/85/15 14/34/15
f 14/34/15 10/88/15 6/35/15
f 6/35/15 30/80/15 22/33/15
f 30/36/16 32/39/16 31/37/16
f 32/39/17 2/1/17 1/3/17
f 31/42/18 1/90/18 3/91/18
f 3/91/18 5/92/18 7/93/18
f 7/93/18 9/94/18 11/95/18
f 11/95/18 13/96/18 15/40/18
f 15/40/18 17/97/18 19/98/18
f 19/98/18 21/99/18 23/41/18
f 23/41/18 25/100/18 27/101/18
f 27/101/18 29/102/18 31/42/18
f 31/42/18 3/91/18 7/93/18
f 7/93/18 11/95/18 15/40/18
f 15/40/18 19/98/18 23/41/18
f 23/41/18 27/101/18 31/42/18
f 31/42/18 7/93/18 15/40/18
f 34/43/19 36/103/19 35/44/19
f 36/46/20 38/49/20 37/47/20
f 38/49/21 40/51/21 39/50/21
f 40/51/22 42/104/22 41/52/22
f 42/53/23 44/56/23 43/54/23
f 44/56/24 46/105/24 45/57/24
f 46/58/25 48/61/25 47/59/25
f 48/61/26 50/66/26 49/62/26
f 38/65/15 36/106/15 34/107/15
f 34/107/15 52/108/15 50/63/15
f 50/63/15 48/109/15 46/110/15
f 46/110/15 44/111/15 42/64/15
f 42/64/15 40/112/15 38/65/15
f 38/65/15 34/107/15 50/63/15
f 50/63/15 46/110/15 42/64/15
f 50/66/27 52/113/27 51/67/27
f 52/68/28 34/43/28 33/45/28
f 51/72/18 33/114/18 35/115/18
f 35/115/18 37/116/18 39/70/18
f 39/70/18 41/117/18 43/118/18
f 43/118/18 45/119/18 47/71/18
f 47/71/18 49/120/18 51/72/18
f 51/72/18 35/115/18 39/70/18
f 39/70/18 43/118/18 47/71/18
