# Blender 4.5.13 LTS
# www.blender.org
o gold
v 0.000000 0.000000 -0.320000
v 0.000000 0.140000 -0.050000
v 0.160000 0.000000 -0.277128
v 0.025000 0.140000 -0.043301
v 0.277128 0.000000 -0.160000
v 0.043301 0.140000 -0.025000
v 0.320000 0.000000 0.000000
v 0.050000 0.140000 0.000000
v 0.277128 0.000000 0.160000
v 0.043301 0.140000 0.025000
v 0.160000 0.000000 0.277128
v 0.025000 0.140000 0.043301
v 0.000000 0.000000 0.320000
v 0.000000 0.140000 0.050000
v -0.160000 0.000000 0.277128
v -0.025000 0.140000 0.043301
v -0.277128 0.000000 0.160000
v -0.043301 0.140000 0.025000
v -0.320000 0.000000 0.000000
v -0.050000 0.140000 0.000000
v -0.277128 0.000000 -0.160000
v -0.043301 0.140000 -0.025000
v -0.160000 0.000000 -0.277128
v -0.025000 0.140000 -0.043301
v -0.329072 0.000000 -0.352690
v -0.329072 0.012000 -0.352690
v -0.300788 0.000000 -0.340975
v -0.300788 0.012000 -0.340975
v -0.289072 0.000000 -0.312690
v -0.289072 0.012000 -0.312690
v -0.300788 0.000000 -0.284406
v -0.300788 0.012000 -0.284406
v -0.329072 0.000000 -0.272690
v -0.329072 0.012000 -0.272690
v -0.357356 0.000000 -0.284406
v -0.357356 0.012000 -0.284406
v -0.369072 0.000000 -0.312690
v -0.369072 0.012000 -0.312690
v -0.357356 0.000000 -0.340975
v -0.357356 0.012000 -0.340975
v 0.237397 0.000000 0.180438
v 0.237397 0.012000 0.180438
v 0.265681 0.000000 0.192154
v 0.265681 0.012000 0.192154
v 0.277397 0.000000 0.220438
v 0.277397 0.012000 0.220438
v 0.265681 0.000000 0.248722
v 0.265681 0.012000 0.248722
v 0.237397 0.000000 0.260438
v 0.237397 0.012000 0.260438
v 0.209113 0.000000 0.248722
v 0.209113 0.012000 0.248722
v 0.197397 0.000000 0.220438
v 0.197397 0.012000 0.220438
v 0.209113 0.000000 0.192154
v 0.209113 0.012000 0.192154
v -0.004108 0.000000 0.005458
v -0.004108 0.012000 0.005458
v 0.024176 0.000000 0.017174
v 0.024176 0.012000 0.017174
v 0.035892 0.000000 0.045458
v 0.035892 0.012000 0.045458
v 0.024176 0.000000 0.073742
v 0.024176 0.012000 0.073742
v -0.004108 0.000000 0.085458
v -0.004108 0.012000 0.085458
v -0.032393 0.000000 0.073742
v -0.032393 0.012000 0.073742
v -0.044108 0.000000 0.045458
v -0.044108 0.012000 0.045458
v -0.032393 0.000000 0.017174
v -0.032393 0.012000 0.017174
v 0.136434 0.000000 -0.299851
v 0.136434 0.012000 -0.299851
v 0.164718 0.000000 -0.288135
v 0.164718 0.012000 -0.288135
v 0.176434 0.000000 -0.259851
v 0.176434 0.012000 -0.259851
v 0.164718 0.000000 -0.231567
v 0.164718 0.012000 -0.231567
v 0.136434 0.000000 -0.219851
v 0.136434 0.012000 -0.219851
v 0.108149 0.000000 -0.231567
v 0.108149 0.012000 -0.231567
v 0.096434 0.000000 -0.259851
v 0.096434 0.012000 -0.259851
v 0.108149 0.000000 -0.288135
v 0.108149 0.012000 -0.288135
v -0.365526 0.000000 0.384487
v -0.365526 0.012000 0.384487
v -0.337242 0.000000 0.396203
v -0.337242 0.012000 0.396203
v -0.325526 0.000000 0.424487
v -0.325526 0.012000 0.424487
v -0.337242 0.000000 0.452772
v -0.337242 0.012000 0.452772
v -0.365526 0.000000 0.464487
v -0.365526 0.012000 0.464487
v -0.393811 0.000000 0.452772
v -0.393811 0.012000 0.452772
v -0.405526 0.000000 0.424487
v -0.405526 0.012000 0.424487
v -0.393811 0.000000 0.396203
v -0.393811 0.012000 0.396203
v 0.302189 0.000000 0.020510
v 0.302189 0.012000 0.020510
v 0.330473 0.000000 0.032225
v 0.330473 0.012000 0.032225
v 0.342189 0.000000 0.060510
v 0.342189 0.012000 0.060510
v 0.330473 0.000000 0.088794
v 0.330473 0.012000 0.088794
v 0.302189 0.000000 0.100510
v 0.302189 0.012000 0.100510
v 0.273904 0.000000 0.088794
v 0.273904 0.012000 0.088794
v 0.262189 0.000000 0.060510
v 0.262189 0.012000 0.060510
v 0.273904 0.000000 0.032225
v 0.273904 0.012000 0.032225
v 0.236052 0.000000 0.408105
v 0.236052 0.012000 0.408105
v 0.264336 0.000000 0.419820
v 0.264336 0.012000 0.419820
v 0.276052 0.000000 0.448105
v 0.276052 0.012000 0.448105
v 0.264336 0.000000 0.476389
v 0.264336 0.012000 0.476389
v 0.236052 0.000000 0.488105
v 0.236052 0.012000 0.488105
v 0.207768 0.000000 0.476389
v 0.207768 0.012000 0.476389
v 0.196052 0.000000 0.448105
v 0.196052 0.012000 0.448105
v 0.207768 0.000000 0.419820
v 0.207768 0.012000 0.419820
v -0.049152 0.000000 -0.239386
v -0.049152 0.012000 -0.239386
v -0.020867 0.000000 -0.227670
v -0.020867 0.012000 -0.227670
v -0.009152 0.000000 -0.199386
v -0.009152 0.012000 -0.199386
v -0.020867 0.000000 -0.171102
v -0.020867 0.012000 -0.171102
v -0.049152 0.000000 -0.159386
v -0.049152 0.012000 -0.159386
v -0.077436 0.000000 -0.171102
v -0.077436 0.012000 -0.171102
v -0.089152 0.000000 -0.199386
v -0.089152 0.012000 -0.199386
v -0.077436 0.000000 -0.227670
v -0.077436 0.012000 -0.227670
v -0.244114 0.000000 -0.440744
v -0.244114 0.012000 -0.440744
v -0.215830 0.000000 -0.429028
v -0.215830 0.012000 -0.429028
v -0.204114 0.000000 -0.400744
v -0.204114 0.012000 -0.400744
v -0.215830 0.000000 -0.372459
v -0.215830 0.012000 -0.372459
v -0.244114 0.000000 -0.360744
v -0.244114 0.012000 -0.360744
v -0.272398 0.000000 -0.372459
v -0.272398 0.012000 -0.372459
v -0.284114 0.000000 -0.400744
v -0.284114 0.012000 -0.400744
v -0.272398 0.000000 -0.429028
v -0.272398 0.012000 -0.429028
v 0.361285 0.000000 0.382469
v 0.361285 0.012000 0.382469
v 0.389569 0.000000 0.394185
v 0.389569 0.012000 0.394185
v 0.401285 0.000000 0.422469
v 0.401285 0.012000 0.422469
v 0.389569 0.000000 0.450753
v 0.389569 0.012000 0.450753
v 0.361285 0.000000 0.462469
v 0.361285 0.012000 0.462469
v 0.333000 0.000000 0.450753
v 0.333000 0.012000 0.450753
v 0.321285 0.000000 0.422469
v 0.321285 0.012000 0.422469
v 0.333000 0.000000 0.394185
v 0.333000 0.012000 0.394185
vn 0.1224 0.8811 -0.4569
vn 0.3344 0.8811 -0.3344
vn 0.4569 0.8811 -0.1224
vn 0.4569 0.8811 0.1224
vn 0.3344 0.8811 0.3344
vn 0.1224 0.8811 0.4569
vn -0.1224 0.8811 0.4569
vn -0.3344 0.8811 0.3344
vn -0.4569 0.8811 0.1224
vn -0.4569 0.8811 -0.1224
vn -0.0000 1.0000 -0.0000
vn -0.3344 0.8811 -0.3344
vn -0.1224 0.8811 -0.4569
vn -0.0000 -1.0000 -0.0000
vn 0.3827 -0.0000 -0.9239
vn 0.9239 -0.0000 -0.3827
vn 0.9239 -0.0000 0.3827
vn 0.3827 -0.0000 0.9239
vn -0.3827 -0.0000 0.9239
vn -0.9239 -0.0000 0.3827
vn -0.9239 -0.0000 -0.3827
vn -0.3827 -0.0000 -0.9239
vt 0.211072 0.260431
vt 0.067618 0.432382
vt 0.000861 0.316757
vt 0.221503 0.278497
vt 0.183243 0.499139
vt 0.260431 0.288928
vt 0.316757 0.499139
vt 0.432382 0.432382
vt 0.278497 0.278497
vt 0.499139 0.316757
vt 0.288928 0.239569
vt 0.499139 0.183243
vt 0.432382 0.067618
vt 0.278497 0.221503
vt 0.316757 0.000861
vt 0.239569 0.211072
vt 0.183243 0.000861
vt 0.067618 0.067618
vt 0.221503 0.221503
vt 0.239569 0.288928
vt 0.000861 0.183243
vt 0.183243 0.500861
vt 0.499139 0.816757
vt 0.067618 0.932382
vt 0.623452 0.140901
vt 0.633124 0.123452
vt 0.633124 0.140901
vt 0.623452 0.533350
vt 0.633124 0.515901
vt 0.633124 0.533350
vt 0.623452 0.515901
vt 0.633124 0.491225
vt 0.562156 0.366912
vt 0.571829 0.349463
vt 0.571829 0.366912
vt 0.562156 0.349463
vt 0.571829 0.324787
vt 0.562157 0.324787
vt 0.571829 0.307339
vt 0.500861 0.202196
vt 0.542986 0.184748
vt 0.560435 0.226872
vt 0.623452 0.183026
vt 0.633124 0.165577
vt 0.633124 0.183026
vt 0.623452 0.165577
vt 0.542986 0.123452
vt 0.560435 0.165577
vt 0.518310 0.183026
vt 0.562156 0.569969
vt 0.571829 0.552521
vt 0.571829 0.569969
vt 0.623452 0.840278
vt 0.633124 0.822829
vt 0.633124 0.840278
vt 0.623452 0.822829
vt 0.633124 0.798153
vt 0.623452 0.244321
vt 0.633124 0.226872
vt 0.633124 0.244321
vt 0.623452 0.226872
vt 0.633124 0.202196
vt 0.623452 0.202196
vt 0.633124 0.184748
vt 0.518310 0.428208
vt 0.500861 0.386083
vt 0.542986 0.368634
vt 0.562156 0.612094
vt 0.571829 0.594646
vt 0.571829 0.612094
vt 0.562156 0.594646
vt 0.542986 0.429930
vt 0.560435 0.472055
vt 0.518310 0.489503
vt 0.562156 0.631265
vt 0.571829 0.613816
vt 0.571829 0.631265
vt 0.623452 0.708737
vt 0.633124 0.691289
vt 0.633124 0.708737
vt 0.623452 0.691289
vt 0.633124 0.666612
vt 0.562156 0.734685
vt 0.571829 0.717237
vt 0.571829 0.734685
vt 0.562156 0.717237
vt 0.571829 0.692560
vt 0.562156 0.692560
vt 0.571829 0.675112
vt 0.500861 0.962419
vt 0.518310 0.920294
vt 0.560435 0.937743
vt 0.562156 0.673390
vt 0.571829 0.655941
vt 0.571829 0.673390
vt 0.562156 0.655941
vt 0.518310 0.858998
vt 0.560434 0.876447
vt 0.542986 0.918572
vt 0.562156 0.386083
vt 0.571829 0.368634
vt 0.571829 0.386083
vt 0.623452 0.796431
vt 0.633124 0.778982
vt 0.633124 0.796431
vt 0.623452 0.778982
vt 0.633124 0.754306
vt 0.623452 0.121730
vt 0.633124 0.104281
vt 0.633124 0.121730
vt 0.623452 0.104281
vt 0.633124 0.079605
vt 0.623452 0.079605
vt 0.633124 0.062156
vt 0.518310 0.552521
vt 0.560434 0.569969
vt 0.542986 0.612094
vt 0.562156 0.428208
vt 0.571829 0.410759
vt 0.571829 0.428208
vt 0.562156 0.410759
vt 0.500861 0.508674
vt 0.542986 0.491225
vt 0.560434 0.533350
vt 0.623452 0.263492
vt 0.633124 0.246043
vt 0.633124 0.263492
vt 0.623452 0.884125
vt 0.633124 0.866676
vt 0.633124 0.884125
vt 0.623452 0.866676
vt 0.633124 0.842000
vt 0.562156 0.795981
vt 0.571829 0.778532
vt 0.571829 0.795981
vt 0.562156 0.778532
vt 0.571829 0.753856
vt 0.562156 0.753856
vt 0.571829 0.736407
vt 0.518310 0.000861
vt 0.560435 0.018310
vt 0.542986 0.060435
vt 0.623452 0.305617
vt 0.633124 0.288168
vt 0.633124 0.305617
vt 0.623452 0.288168
vt 0.500861 0.104281
vt 0.518310 0.062156
vt 0.560435 0.079605
vt 0.623452 0.324787
vt 0.633124 0.307338
vt 0.633124 0.324787
vt 0.623452 0.752584
vt 0.633124 0.735135
vt 0.633124 0.752584
vt 0.623452 0.735135
vt 0.633124 0.710459
vt 0.623452 0.428208
vt 0.633124 0.410759
vt 0.633124 0.428208
vt 0.623452 0.410759
vt 0.633124 0.386083
vt 0.623452 0.386083
vt 0.633124 0.368634
vt 0.518310 0.246043
vt 0.560434 0.263492
vt 0.542986 0.305617
vt 0.623452 0.366912
vt 0.633124 0.349463
vt 0.633124 0.366912
vt 0.623452 0.349463
vt 0.542986 0.307339
vt 0.560434 0.349463
vt 0.518310 0.366912
vt 0.562156 0.815152
vt 0.571829 0.797703
vt 0.571829 0.815152
vt 0.623452 0.577197
vt 0.633124 0.559748
vt 0.633124 0.577197
vt 0.623452 0.559748
vt 0.633124 0.535072
vt 0.623452 0.489503
vt 0.633124 0.472054
vt 0.633124 0.489503
vt 0.623452 0.472054
vt 0.633124 0.447378
vt 0.623452 0.447378
vt 0.633124 0.429929
vt 0.579605 0.060435
vt 0.562157 0.018310
vt 0.604281 0.000861
vt 0.562156 0.857276
vt 0.571829 0.839828
vt 0.571829 0.857276
vt 0.562156 0.839828
vt 0.604281 0.062156
vt 0.621730 0.104281
vt 0.579605 0.121730
vt 0.562156 0.876447
vt 0.571829 0.858998
vt 0.571829 0.876447
vt 0.623452 0.927971
vt 0.633124 0.910523
vt 0.633124 0.927971
vt 0.623452 0.910523
vt 0.633124 0.885846
vt 0.562156 0.979867
vt 0.571829 0.962419
vt 0.571829 0.979867
vt 0.562157 0.962419
vt 0.571829 0.937742
vt 0.562157 0.937742
vt 0.571829 0.920294
vt 0.562156 0.140901
vt 0.604281 0.123452
vt 0.621730 0.165577
vt 0.562156 0.918572
vt 0.571829 0.901123
vt 0.571829 0.918572
vt 0.562156 0.901123
vt 0.562157 0.226872
vt 0.579605 0.184748
vt 0.621730 0.202196
vt 0.562156 0.447378
vt 0.571829 0.429930
vt 0.571829 0.447378
vt 0.623452 0.621044
vt 0.633124 0.603595
vt 0.633124 0.621044
vt 0.623452 0.603595
vt 0.633124 0.578919
vt 0.562157 0.305617
vt 0.571829 0.288168
vt 0.571829 0.305617
vt 0.562157 0.288168
vt 0.571829 0.263492
vt 0.562157 0.263492
vt 0.571829 0.246043
vt 0.518310 0.613816
vt 0.560435 0.631265
vt 0.542986 0.673390
vt 0.562156 0.489503
vt 0.571829 0.472054
vt 0.571829 0.489503
vt 0.562156 0.472054
vt 0.542986 0.675112
vt 0.560435 0.717237
vt 0.518310 0.734685
vt 0.623452 0.018310
vt 0.633124 0.000861
vt 0.633124 0.018310
vt 0.623452 0.664890
vt 0.633124 0.647442
vt 0.633124 0.664890
vt 0.623452 0.647442
vt 0.633124 0.622766
vt 0.562156 0.550799
vt 0.571829 0.533350
vt 0.571829 0.550799
vt 0.562156 0.533350
vt 0.571829 0.508674
vt 0.562156 0.508674
vt 0.571829 0.491225
vt 0.500861 0.753856
vt 0.542986 0.736407
vt 0.560434 0.778532
vt 0.623452 0.060435
vt 0.633124 0.042986
vt 0.633124 0.060435
vt 0.623452 0.042986
vt 0.500861 0.815152
vt 0.542986 0.797703
vt 0.560435 0.839828
vt 0.288928 0.260431
vt 0.260431 0.211072
vt 0.211072 0.239569
vt 0.000861 0.816757
vt 0.000861 0.683243
vt 0.067618 0.567618
vt 0.316757 0.500861
vt 0.432382 0.567618
vt 0.499139 0.683243
vt 0.432382 0.932382
vt 0.316757 0.999139
vt 0.183243 0.999139
vt 0.623452 0.123452
vt 0.623452 0.491225
vt 0.562157 0.307339
vt 0.542986 0.244321
vt 0.518310 0.244321
vt 0.500861 0.226872
vt 0.518310 0.184748
vt 0.560435 0.202196
vt 0.500861 0.165577
vt 0.500861 0.140901
vt 0.518310 0.123452
vt 0.560435 0.140901
vt 0.542986 0.183026
vt 0.562156 0.552521
vt 0.623452 0.798153
vt 0.623452 0.184748
vt 0.560435 0.386083
vt 0.560435 0.410759
vt 0.542986 0.428208
vt 0.500861 0.410759
vt 0.518310 0.368634
vt 0.500861 0.472055
vt 0.500861 0.447378
vt 0.518310 0.429930
vt 0.560435 0.447378
vt 0.542986 0.489503
vt 0.562156 0.613816
vt 0.623452 0.666612
vt 0.562156 0.675112
vt 0.560435 0.962419
vt 0.542986 0.979867
vt 0.518310 0.979867
vt 0.500861 0.937743
vt 0.542986 0.920294
vt 0.518310 0.918572
vt 0.500861 0.901123
vt 0.500861 0.876447
vt 0.542986 0.858998
vt 0.560434 0.901123
vt 0.562156 0.368634
vt 0.623452 0.754306
vt 0.623452 0.062156
vt 0.518310 0.612094
vt 0.500861 0.594646
vt 0.500861 0.569969
vt 0.542986 0.552521
vt 0.560434 0.594646
vt 0.542986 0.550799
vt 0.518310 0.550799
vt 0.500861 0.533350
vt 0.518310 0.491225
vt 0.560434 0.508674
vt 0.623452 0.246043
vt 0.623452 0.842000
vt 0.562156 0.736407
vt 0.518310 0.060435
vt 0.500861 0.042986
vt 0.500861 0.018310
vt 0.542986 0.000861
vt 0.560435 0.042986
vt 0.560435 0.104281
vt 0.542986 0.121730
vt 0.518310 0.121730
vt 0.500861 0.079605
vt 0.542986 0.062156
vt 0.623452 0.307338
vt 0.623452 0.710459
vt 0.623452 0.368634
vt 0.518310 0.305617
vt 0.500861 0.288168
vt 0.500861 0.263492
vt 0.542986 0.246043
vt 0.560434 0.288168
vt 0.500861 0.349463
vt 0.500861 0.324787
vt 0.518310 0.307339
vt 0.560434 0.324787
vt 0.542986 0.366912
vt 0.562156 0.797703
vt 0.623452 0.535072
vt 0.623452 0.429929
vt 0.621730 0.018310
vt 0.621730 0.042986
vt 0.604281 0.060435
vt 0.562157 0.042986
vt 0.579605 0.000861
vt 0.562156 0.104281
vt 0.562156 0.079605
vt 0.579605 0.062156
vt 0.621730 0.079605
vt 0.604281 0.121730
vt 0.562156 0.858998
vt 0.623452 0.885846
vt 0.562157 0.920294
vt 0.604281 0.183026
vt 0.579605 0.183026
vt 0.562156 0.165577
vt 0.579605 0.123452
vt 0.621730 0.140901
vt 0.621730 0.226872
vt 0.604281 0.244321
vt 0.579605 0.244321
vt 0.562157 0.202196
vt 0.604281 0.184748
vt 0.562156 0.429930
vt 0.623452 0.578919
vt 0.562157 0.246043
vt 0.518310 0.673390
vt 0.500861 0.655941
vt 0.500861 0.631265
vt 0.542986 0.613816
vt 0.560435 0.655941
vt 0.500861 0.717237
vt 0.500861 0.692561
vt 0.518310 0.675112
vt 0.560435 0.692561
vt 0.542986 0.734685
vt 0.623452 0.000861
vt 0.623452 0.622766
vt 0.562156 0.491225
vt 0.542986 0.795981
vt 0.518310 0.795981
vt 0.500861 0.778532
vt 0.518310 0.736407
vt 0.560434 0.753856
vt 0.542986 0.857276
vt 0.518310 0.857276
vt 0.500861 0.839828
vt 0.518310 0.797703
vt 0.560435 0.815152
s 0
f 2/1/1 3/2/1 1/3/1
f 4/4/2 5/5/2 3/2/2
f 5/5/3 8/6/3 7/7/3
f 8/6/4 9/8/4 7/7/4
f 10/9/5 11/10/5 9/8/5
f 11/10/6 14/11/6 13/12/6
f 14/11/7 15/13/7 13/12/7
f 16/14/8 17/15/8 15/13/8
f 17/15/9 20/16/9 19/17/9
f 20/16/10 21/18/10 19/17/10
f 22/19/11 14/11/11 6/20/11
f 22/19/12 23/21/12 21/18/12
f 23/21/13 2/1/13 1/3/13
f 7/22/14 15/23/14 23/24/14
f 26/25/15 27/26/15 25/27/15
f 28/28/16 29/29/16 27/30/16
f 30/31/17 31/32/17 29/29/17
f 32/33/18 33/34/18 31/35/18
f 34/36/19 35/37/19 33/34/19
f 36/38/20 37/39/20 35/37/20
f 38/40/11 34/41/11 30/42/11
f 38/43/21 39/44/21 37/45/21
f 40/46/22 25/27/22 39/44/22
f 31/47/14 35/48/14 39/49/14
f 42/50/15 43/51/15 41/52/15
f 44/53/16 45/54/16 43/55/16
f 46/56/17 47/57/17 45/54/17
f 48/58/18 49/59/18 47/60/18
f 50/61/19 51/62/19 49/59/19
f 52/63/20 53/64/20 51/62/20
f 54/65/11 50/66/11 46/67/11
f 54/68/21 55/69/21 53/70/21
f 56/71/22 41/52/22 55/69/22
f 47/72/14 51/73/14 55/74/14
f 58/75/15 59/76/15 57/77/15
f 60/78/16 61/79/16 59/80/16
f 62/81/17 63/82/17 61/79/17
f 64/83/18 65/84/18 63/85/18
f 66/86/19 67/87/19 65/84/19
f 68/88/20 69/89/20 67/87/20
f 70/90/11 66/91/11 62/92/11
f 70/93/21 71/94/21 69/95/21
f 72/96/22 57/77/22 71/94/22
f 63/97/14 67/98/14 71/99/14
f 74/100/15 75/101/15 73/102/15
f 76/103/16 77/104/16 75/105/16
f 78/106/17 79/107/17 77/104/17
f 80/108/18 81/109/18 79/110/18
f 82/111/19 83/112/19 81/109/19
f 84/113/20 85/114/20 83/112/20
f 86/115/11 82/116/11 78/117/11
f 86/118/21 87/119/21 85/120/21
f 88/121/22 73/102/22 87/119/22
f 79/122/14 83/123/14 87/124/14
f 90/125/15 91/126/15 89/127/15
f 92/128/16 93/129/16 91/130/16
f 94/131/17 95/132/17 93/129/17
f 96/133/18 97/134/18 95/135/18
f 98/136/19 99/137/19 97/134/19
f 100/138/20 101/139/20 99/137/20
f 102/140/11 98/141/11 94/142/11
f 102/143/21 103/144/21 101/145/21
f 104/146/22 89/127/22 103/144/22
f 95/147/14 99/148/14 103/149/14
f 106/150/15 107/151/15 105/152/15
f 108/153/16 109/154/16 107/155/16
f 110/156/17 111/157/17 109/154/17
f 112/158/18 113/159/18 111/160/18
f 114/161/19 115/162/19 113/159/19
f 116/163/20 117/164/20 115/162/20
f 118/165/11 114/166/11 110/167/11
f 118/168/21 119/169/21 117/170/21
f 120/171/22 105/152/22 119/169/22
f 111/172/14 115/173/14 119/174/14
f 122/175/15 123/176/15 121/177/15
f 124/178/16 125/179/16 123/180/16
f 126/181/17 127/182/17 125/179/17
f 128/183/18 129/184/18 127/185/18
f 130/186/19 131/187/19 129/184/19
f 132/188/20 133/189/20 131/187/20
f 134/190/11 130/191/11 126/192/11
f 134/193/21 135/194/21 133/195/21
f 136/196/22 121/177/22 135/194/22
f 127/197/14 131/198/14 135/199/14
f 138/200/15 139/201/15 137/202/15
f 140/203/16 141/204/16 139/205/16
f 142/206/17 143/207/17 141/204/17
f 144/208/18 145/209/18 143/210/18
f 146/211/19 147/212/19 145/209/19
f 148/213/20 149/214/20 147/212/20
f 150/215/11 146/216/11 142/217/11
f 150/218/21 151/219/21 149/220/21
f 152/221/22 137/202/22 151/219/22
f 143/222/14 147/223/14 151/224/14
f 154/225/15 155/226/15 153/227/15
f 156/228/16 157/229/16 155/230/16
f 158/231/17 159/232/17 157/229/17
f 160/233/18 161/234/18 159/235/18
f 162/236/19 163/237/19 161/234/19
f 164/238/20 165/239/20 163/237/20
f 166/240/11 162/241/11 158/242/11
f 166/243/21 167/244/21 165/245/21
f 168/246/22 153/227/22 167/244/22
f 159/247/14 163/248/14 167/249/14
f 170/250/15 171/251/15 169/252/15
f 172/253/16 173/254/16 171/255/16
f 174/256/17 175/257/17 173/254/17
f 176/258/18 177/259/18 175/260/18
f 178/261/19 179/262/19 177/259/19
f 180/263/20 181/264/20 179/262/20
f 182/265/11 178/266/11 174/267/11
f 182/268/21 183/269/21 181/270/21
f 184/271/22 169/252/22 183/269/22
f 175/272/14 179/273/14 183/274/14
f 2/1/1 4/4/1 3/2/1
f 4/4/2 6/20/2 5/5/2
f 5/5/3 6/20/3 8/6/3
f 8/6/4 10/9/4 9/8/4
f 10/9/5 12/275/5 11/10/5
f 11/10/6 12/275/6 14/11/6
f 14/11/7 16/14/7 15/13/7
f 16/14/8 18/276/8 17/15/8
f 17/15/9 18/276/9 20/16/9
f 20/16/10 22/19/10 21/18/10
f 6/20/11 4/4/11 2/1/11
f 2/1/11 24/277/11 22/19/11
f 22/19/11 20/16/11 18/276/11
f 18/276/11 16/14/11 14/11/11
f 14/11/11 12/275/11 10/9/11
f 10/9/11 8/6/11 6/20/11
f 6/20/11 2/1/11 22/19/11
f 22/19/11 18/276/11 14/11/11
f 14/11/11 10/9/11 6/20/11
f 22/19/12 24/277/12 23/21/12
f 23/21/13 24/277/13 2/1/13
f 23/24/14 1/278/14 3/279/14
f 3/279/14 5/280/14 7/22/14
f 7/22/14 9/281/14 11/282/14
f 11/282/14 13/283/14 15/23/14
f 15/23/14 17/284/14 19/285/14
f 19/285/14 21/286/14 23/24/14
f 23/24/14 3/279/14 7/22/14
f 7/22/14 11/282/14 15/23/14
f 15/23/14 19/285/14 23/24/14
f 26/25/15 28/287/15 27/26/15
f 28/28/16 30/31/16 29/29/16
f 30/31/17 32/288/17 31/32/17
f 32/33/18 34/36/18 33/34/18
f 34/36/19 36/38/19 35/37/19
f 36/38/20 38/289/20 37/39/20
f 30/42/11 28/290/11 26/291/11
f 26/291/11 40/292/11 38/40/11
f 38/40/11 36/293/11 34/41/11
f 34/41/11 32/294/11 30/42/11
f 30/42/11 26/291/11 38/40/11
f 38/43/21 40/46/21 39/44/21
f 40/46/22 26/25/22 25/27/22
f 39/49/14 25/295/14 27/296/14
f 27/296/14 29/297/14 31/47/14
f 31/47/14 33/298/14 35/48/14
f 35/48/14 37/299/14 39/49/14
f 39/49/14 27/296/14 31/47/14
f 42/50/15 44/300/15 43/51/15
f 44/53/16 46/56/16 45/54/16
f 46/56/17 48/301/17 47/57/17
f 48/58/18 50/61/18 49/59/18
f 50/61/19 52/63/19 51/62/19
f 52/63/20 54/302/20 53/64/20
f 46/67/11 44/303/11 42/304/11
f 42/304/11 56/305/11 54/65/11
f 54/65/11 52/306/11 50/66/11
f 50/66/11 48/307/11 46/67/11
f 46/67/11 42/304/11 54/65/11
f 54/68/21 56/71/21 55/69/21
f 56/71/22 42/50/22 41/52/22
f 55/74/14 41/308/14 43/309/14
f 43/309/14 45/310/14 47/72/14
f 47/72/14 49/311/14 51/73/14
f 51/73/14 53/312/14 55/74/14
f 55/74/14 43/309/14 47/72/14
f 58/75/15 60/313/15 59/76/15
f 60/78/16 62/81/16 61/79/16
f 62/81/17 64/314/17 63/82/17
f 64/83/18 66/86/18 65/84/18
f 66/86/19 68/88/19 67/87/19
f 68/88/20 70/315/20 69/89/20
f 62/92/11 60/316/11 58/317/11
f 58/317/11 72/318/11 70/90/11
f 70/90/11 68/319/11 66/91/11
f 66/91/11 64/320/11 62/92/11
f 62/92/11 58/317/11 70/90/11
f 70/93/21 72/96/21 71/94/21
f 72/96/22 58/75/22 57/77/22
f 71/99/14 57/321/14 59/322/14
f 59/322/14 61/323/14 63/97/14
f 63/97/14 65/324/14 67/98/14
f 67/98/14 69/325/14 71/99/14
f 71/99/14 59/322/14 63/97/14
f 74/100/15 76/326/15 75/101/15
f 76/103/16 78/106/16 77/104/16
f 78/106/17 80/327/17 79/107/17
f 80/108/18 82/111/18 81/109/18
f 82/111/19 84/113/19 83/112/19
f 84/113/20 86/328/20 85/114/20
f 78/117/11 76/329/11 74/330/11
f 74/330/11 88/331/11 86/115/11
f 86/115/11 84/332/11 82/116/11
f 82/116/11 80/333/11 78/117/11
f 78/117/11 74/330/11 86/115/11
f 86/118/21 88/121/21 87/119/21
f 88/121/22 74/100/22 73/102/22
f 87/124/14 73/334/14 75/335/14
f 75/335/14 77/336/14 79/122/14
f 79/122/14 81/337/14 83/123/14
f 83/123/14 85/338/14 87/124/14
f 87/124/14 75/335/14 79/122/14
f 90/125/15 92/339/15 91/126/15
f 92/128/16 94/131/16 93/129/16
f 94/131/17 96/340/17 95/132/17
f 96/133/18 98/136/18 97/134/18
f 98/136/19 100/138/19 99/137/19
f 100/138/20 102/341/20 101/139/20
f 94/142/11 92/342/11 90/343/11
f 90/343/11 104/344/11 102/140/11
f 102/140/11 100/345/11 98/141/11
f 98/141/11 96/346/11 94/142/11
f 94/142/11 90/343/11 102/140/11
f 102/143/21 104/146/21 103/144/21
f 104/146/22 90/125/22 89/127/22
f 103/149/14 89/347/14 91/348/14
f 91/348/14 93/349/14 95/147/14
f 95/147/14 97/350/14 99/148/14
f 99/148/14 101/351/14 103/149/14
f 103/149/14 91/348/14 95/147/14
f 106/150/15 108/352/15 107/151/15
f 108/153/16 110/156/16 109/154/16
f 110/156/17 112/353/17 111/157/17
f 112/158/18 114/161/18 113/159/18
f 114/161/19 116/163/19 115/162/19
f 116/163/20 118/354/20 117/164/20
f 110/167/11 108/355/11 106/356/11
f 106/356/11 120/357/11 118/165/11
f 118/165/11 116/358/11 114/166/11
f 114/166/11 112/359/11 110/167/11
f 110/167/11 106/356/11 118/165/11
f 118/168/21 120/171/21 119/169/21
f 120/171/22 106/150/22 105/152/22
f 119/174/14 105/360/14 107/361/14
f 107/361/14 109/362/14 111/172/14
f 111/172/14 113/363/14 115/173/14
f 115/173/14 117/364/14 119/174/14
f 119/174/14 107/361/14 111/172/14
f 122/175/15 124/365/15 123/176/15
f 124/178/16 126/181/16 125/179/16
f 126/181/17 128/366/17 127/182/17
f 128/183/18 130/186/18 129/184/18
f 130/186/19 132/188/19 131/187/19
f 132/188/20 134/367/20 133/189/20
f 126/192/11 124/368/11 122/369/11
f 122/369/11 136/370/11 134/190/11
f 134/190/11 132/371/11 130/191/11
f 130/191/11 128/372/11 126/192/11
f 126/192/11 122/369/11 134/190/11
f 134/193/21 136/196/21 135/194/21
f 136/196/22 122/175/22 121/177/22
f 135/199/14 121/373/14 123/374/14
f 123/374/14 125/375/14 127/197/14
f 127/197/14 129/376/14 131/198/14
f 131/198/14 133/377/14 135/199/14
f 135/199/14 123/374/14 127/197/14
f 138/200/15 140/378/15 139/201/15
f 140/203/16 142/206/16 141/204/16
f 142/206/17 144/379/17 143/207/17
f 144/208/18 146/211/18 145/209/18
f 146/211/19 148/213/19 147/212/19
f 148/213/20 150/380/20 149/214/20
f 142/217/11 140/381/11 138/382/11
f 138/382/11 152/383/11 150/215/11
f 150/215/11 148/384/11 146/216/11
f 146/216/11 144/385/11 142/217/11
f 142/217/11 138/382/11 150/215/11
f 150/218/21 152/221/21 151/219/21
f 152/221/22 138/200/22 137/202/22
f 151/224/14 137/386/14 139/387/14
f 139/387/14 141/388/14 143/222/14
f 143/222/14 145/389/14 147/223/14
f 147/223/14 149/390/14 151/224/14
f 151/224/14 139/387/14 143/222/14
f 154/225/15 156/391/15 155/226/15
f 156/228/16 158/231/16 157/229/16
f 158/231/17 160/392/17 159/232/17
f 160/233/18 162/236/18 161/234/18
f 162/236/19 164/238/19 163/237/19
f 164/238/20 166/393/20 165/239/20
f 158/242/11 156/394/11 154/395/11
f 154/395/11 168/396/11 166/240/11
f 166/240/11 164/397/11 162/241/11
f 162/241/11 160/398/11 158/242/11
f 158/242/11 154/395/11 166/240/11
f 166/243/21 168/246/21 167/244/21
f 168/246/22 154/225/22 153/227/22
f 167/249/14 153/399/14 155/400/14
f 155/400/14 157/401/14 159/247/14
f 159/247/14 161/402/14 163/248/14
f 163/248/14 165/403/14 167/249/14
f 167/249/14 155/400/14 159/247/14
f 170/250/15 172/404/15 171/251/15
f 172/253/16 174/256/16 173/254/16
f 174/256/17 176/405/17 175/257/17
f 176/258/18 178/261/18 177/259/18
f 178/261/19 180/263/19 179/262/19
f 180/263/20 182/406/20 181/264/20
f 174/267/11 172/407/11 170/408/11
f 170/408/11 184/409/11 182/265/11
f 182/265/11 180/410/11 178/266/11
f 178/266/11 176/411/11 174/267/11
f 174/267/11 170/408/11 182/265/11
f 182/268/21 184/271/21 183/269/21
f 184/271/22 170/250/22 169/252/22
f 183/274/14 169/412/14 171/413/14
f 171/413/14 173/414/14 175/272/14
f 175/272/14 177/415/14 179/273/14
f 179/273/14 181/416/14 183/274/14
f 183/274/14 171/413/14 175/272/14
