# The Giants of Holst prop, from CC0 kits by KayKit (Kay Lousberg) and Kenney
v 0.2450 0.1225 0.3675
vt 0.8283 0.8177
vn -0.9487 0.0000 0.3162
v 0.2450 0.6125 0.3675
vt 0.8283 0.8682
vn -0.9487 0.0000 0.3162
v 0.2205 0.5880 0.2940
vt 0.8267 0.8657
vn -0.9487 0.0000 0.3162
v 0.2205 0.1470 0.2940
vt 0.8267 0.8202
vn -0.9487 0.0000 0.3162
f 1/1/1 2/2/2 3/3/3 4/4/4
v 0.0000 0.7350 -0.2450
vt 0.8125 0.9121
vn 0.0000 0.3162 0.9487
v 0.0000 0.6615 -0.2205
vt 0.8125 0.9045
vn 0.0000 0.3162 0.9487
v 0.2205 0.6615 -0.2205
vt 0.8267 0.9045
vn 0.0000 0.3162 0.9487
v 0.2450 0.7350 -0.2450
vt 0.8283 0.9121
vn 0.0000 0.3162 0.9487
f 5/5/5 6/6/6 7/7/7 8/8/8
v 0.3675 0.1225 -0.2450
vt 0.8362 0.8177
vn 0.3162 0.0000 0.9487
v 0.3675 0.6125 -0.2450
vt 0.8362 0.8682
vn 0.3162 0.0000 0.9487
v 0.2940 0.5880 -0.2205
vt 0.8315 0.8657
vn 0.3162 0.0000 0.9487
v 0.2940 0.1470 -0.2205
vt 0.8315 0.8202
vn 0.3162 0.0000 0.9487
f 9/9/9 10/10/10 11/11/11 12/12/12
v -0.3675 0.6125 0.0000
vt 0.7887 0.8682
vn -0.3162 -0.9487 0.0000
v -0.2940 0.5880 0.0000
vt 0.7935 0.8657
vn -0.3162 -0.9487 0.0000
v -0.2940 0.5880 0.2205
vt 0.7935 0.8657
vn -0.3162 -0.9487 0.0000
v -0.3675 0.6125 0.2450
vt 0.7887 0.8682
vn -0.3162 -0.9487 0.0000
f 13/13/13 14/14/14 15/15/15 16/16/16
v -0.2450 0.1225 -0.3675
vt 0.7966 0.8177
vn 0.9487 0.0000 -0.3162
v -0.2450 0.6125 -0.3675
vt 0.7966 0.8682
vn 0.9487 0.0000 -0.3162
v -0.2205 0.5880 -0.2940
vt 0.7982 0.8657
vn 0.9487 0.0000 -0.3162
v -0.2205 0.1470 -0.2940
vt 0.7982 0.8202
vn 0.9487 0.0000 -0.3162
f 17/17/17 18/18/18 19/19/19 20/20/20
v -0.3675 0.1225 0.2450
vt 0.7887 0.8177
vn -0.3162 0.0000 -0.9487
v -0.3675 0.6125 0.2450
vt 0.7887 0.8682
vn -0.3162 0.0000 -0.9487
v -0.2940 0.5880 0.2205
vt 0.7935 0.8657
vn -0.3162 0.0000 -0.9487
v -0.2940 0.1470 0.2205
vt 0.7935 0.8202
vn -0.3162 0.0000 -0.9487
f 21/21/21 22/22/22 23/23/23 24/24/24
v -0.3675 0.0000 0.3675
vt 0.7887 0.8363
vn -1.0000 0.0000 0.0000
v -0.3675 0.7350 0.3675
vt 0.7887 0.9121
vn -1.0000 0.0000 0.0000
v -0.3675 0.6125 0.2450
vt 0.7887 0.8995
vn -1.0000 0.0000 0.0000
v -0.3675 0.1225 0.2450
vt 0.7887 0.8489
vn -1.0000 0.0000 0.0000
f 25/25/25 26/26/26 27/27/27 28/28/28
v -0.3675 0.7350 -0.3675
vt 0.7887 0.9121
vn -1.0000 0.0000 0.0000
v -0.3675 0.6125 -0.2450
vt 0.7887 0.8995
vn -1.0000 0.0000 0.0000
v -0.3675 0.6125 0.0000
vt 0.7887 0.8995
vn -1.0000 0.0000 0.0000
f 29/29/29 30/30/30 31/31/31
v -0.3675 0.7350 -0.3675
vt 0.7887 0.9121
vn -1.0000 0.0000 0.0000
v -0.3675 0.0000 -0.3675
vt 0.7887 0.8363
vn -1.0000 0.0000 0.0000
v -0.3675 0.1225 -0.2450
vt 0.7887 0.8489
vn -1.0000 0.0000 0.0000
v -0.3675 0.6125 -0.2450
vt 0.7887 0.8995
vn -1.0000 0.0000 0.0000
f 32/32/32 33/33/33 34/34/34 35/35/35
v -0.3675 0.1225 0.0000
vt 0.7887 0.8489
vn -1.0000 0.0000 0.0000
v -0.3675 0.0000 0.3675
vt 0.7887 0.8363
vn -1.0000 0.0000 0.0000
v -0.3675 0.1225 0.2450
vt 0.7887 0.8489
vn -1.0000 0.0000 0.0000
f 36/36/36 37/37/37 38/38/38
v -0.3675 0.0000 -0.3675
vt 0.7887 0.8363
vn 0.0000 0.0000 -1.0000
v -0.3675 0.7350 -0.3675
vt 0.7887 0.9121
vn 0.0000 0.0000 -1.0000
v -0.2450 0.6125 -0.3675
vt 0.7966 0.8995
vn 0.0000 0.0000 -1.0000
v -0.2450 0.1225 -0.3675
vt 0.7966 0.8489
vn 0.0000 0.0000 -1.0000
f 39/39/39 40/40/40 41/41/41 42/42/42
v 0.3675 0.7350 -0.3675
vt 0.8362 0.9121
vn 0.0000 0.0000 -1.0000
v 0.0000 0.6125 -0.3675
vt 0.8125 0.8995
vn 0.0000 0.0000 -1.0000
v -0.3675 0.7350 -0.3675
vt 0.7887 0.9121
vn 0.0000 0.0000 -1.0000
f 43/43/43 44/44/44 45/45/45
v 0.3675 0.7350 -0.3675
vt 0.8362 0.9121
vn 0.0000 0.0000 -1.0000
v 0.3675 0.0000 -0.3675
vt 0.8362 0.8363
vn 0.0000 0.0000 -1.0000
v 0.2450 0.1225 -0.3675
vt 0.8283 0.8489
vn 0.0000 0.0000 -1.0000
v 0.2450 0.6125 -0.3675
vt 0.8283 0.8995
vn 0.0000 0.0000 -1.0000
f 46/46/46 47/47/47 48/48/48 49/49/49
v -0.3675 0.0000 -0.3675
vt 0.7887 0.8363
vn 0.0000 0.0000 -1.0000
v -0.2450 0.1225 -0.3675
vt 0.7966 0.8489
vn 0.0000 0.0000 -1.0000
v 0.0000 0.1225 -0.3675
vt 0.8125 0.8489
vn 0.0000 0.0000 -1.0000
f 50/50/50 51/51/51 52/52/52
v 0.3675 0.0000 -0.3675
vt 0.8362 0.8363
vn 1.0000 0.0000 0.0000
v 0.3675 0.7350 -0.3675
vt 0.8362 0.9121
vn 1.0000 0.0000 0.0000
v 0.3675 0.6125 -0.2450
vt 0.8362 0.8995
vn 1.0000 0.0000 0.0000
v 0.3675 0.1225 -0.2450
vt 0.8362 0.8489
vn 1.0000 0.0000 0.0000
f 53/53/53 54/54/54 55/55/55 56/56/56
v 0.3675 0.7350 0.3675
vt 0.8362 0.9121
vn 1.0000 0.0000 0.0000
v 0.3675 0.6125 0.2450
vt 0.8362 0.8995
vn 1.0000 0.0000 0.0000
v 0.3675 0.6125 0.0000
vt 0.8362 0.8995
vn 1.0000 0.0000 0.0000
f 57/57/57 58/58/58 59/59/59
v 0.3675 0.7350 0.3675
vt 0.8362 0.9121
vn 1.0000 0.0000 0.0000
v 0.3675 0.0000 0.3675
vt 0.8362 0.8363
vn 1.0000 0.0000 0.0000
v 0.3675 0.1225 0.2450
vt 0.8362 0.8489
vn 1.0000 0.0000 0.0000
v 0.3675 0.6125 0.2450
vt 0.8362 0.8995
vn 1.0000 0.0000 0.0000
f 60/60/60 61/61/61 62/62/62 63/63/63
v 0.3675 0.0000 -0.3675
vt 0.8362 0.8363
vn 1.0000 0.0000 0.0000
v 0.3675 0.1225 -0.2450
vt 0.8362 0.8489
vn 1.0000 0.0000 0.0000
v 0.3675 0.1225 0.0000
vt 0.8362 0.8489
vn 1.0000 0.0000 0.0000
f 64/64/64 65/65/65 66/66/66
v 0.3675 0.0000 0.3675
vt 0.8362 0.8363
vn 0.0000 0.0000 1.0000
v 0.3675 0.7350 0.3675
vt 0.8362 0.9121
vn 0.0000 0.0000 1.0000
v 0.2450 0.6125 0.3675
vt 0.8283 0.8995
vn 0.0000 0.0000 1.0000
v 0.2450 0.1225 0.3675
vt 0.8283 0.8489
vn 0.0000 0.0000 1.0000
f 67/67/67 68/68/68 69/69/69 70/70/70
v -0.3675 0.7350 0.3675
vt 0.7887 0.9121
vn 0.0000 0.0000 1.0000
v -0.2450 0.6125 0.3675
vt 0.7966 0.8995
vn 0.0000 0.0000 1.0000
v 0.0000 0.6125 0.3675
vt 0.8125 0.8995
vn 0.0000 0.0000 1.0000
f 71/71/71 72/72/72 73/73/73
v -0.3675 0.7350 0.3675
vt 0.7887 0.9121
vn 0.0000 0.0000 1.0000
v -0.3675 0.0000 0.3675
vt 0.7887 0.8363
vn 0.0000 0.0000 1.0000
v -0.2450 0.1225 0.3675
vt 0.7966 0.8489
vn 0.0000 0.0000 1.0000
v -0.2450 0.6125 0.3675
vt 0.7966 0.8995
vn 0.0000 0.0000 1.0000
f 74/74/74 75/75/75 76/76/76 77/77/77
v 0.0000 0.1225 0.3675
vt 0.8125 0.8489
vn 0.0000 0.0000 1.0000
v 0.3675 0.0000 0.3675
vt 0.8362 0.8363
vn 0.0000 0.0000 1.0000
v 0.2450 0.1225 0.3675
vt 0.8283 0.8489
vn 0.0000 0.0000 1.0000
f 78/78/78 79/79/79 80/80/80
v 0.3675 0.7350 0.3675
vt 0.8362 0.9590
vn 0.0000 1.0000 0.0000
v 0.2450 0.7350 0.2450
vt 0.8283 0.9590
vn 0.0000 1.0000 0.0000
v 0.0000 0.7350 0.2450
vt 0.8125 0.9590
vn 0.0000 1.0000 0.0000
f 81/81/81 82/82/82 83/83/83
v -0.2940 0.1470 0.0000
vt 0.6617 0.8056
vn -1.0000 0.0000 0.0000
v -0.2940 0.5880 0.0000
vt 0.6617 0.8443
vn -1.0000 0.0000 0.0000
v -0.2940 0.5880 -0.2205
vt 0.6617 0.8443
vn -1.0000 0.0000 0.0000
v -0.2940 0.1470 -0.2205
vt 0.6617 0.8056
vn -1.0000 0.0000 0.0000
f 84/84/84 85/85/85 86/86/86 87/87/87
v 0.0000 0.1470 -0.2940
vt 0.6875 0.8342
vn 0.0000 0.0000 -1.0000
v 0.0000 0.5880 -0.2940
vt 0.6875 0.8729
vn 0.0000 0.0000 -1.0000
v 0.2205 0.5880 -0.2940
vt 0.7069 0.8729
vn 0.0000 0.0000 -1.0000
v 0.2205 0.1470 -0.2940
vt 0.7069 0.8342
vn 0.0000 0.0000 -1.0000
f 88/88/88 89/89/89 90/90/90 91/91/91
v 0.2940 0.1470 0.0000
vt 0.7133 0.8056
vn 1.0000 0.0000 0.0000
v 0.2940 0.5880 0.0000
vt 0.7133 0.8443
vn 1.0000 0.0000 0.0000
v 0.2940 0.5880 0.2205
vt 0.7133 0.8443
vn 1.0000 0.0000 0.0000
v 0.2940 0.1470 0.2205
vt 0.7133 0.8056
vn 1.0000 0.0000 0.0000
f 92/92/92 93/93/93 94/94/94 95/95/95
v 0.0000 0.1470 0.2940
vt 0.6875 0.8056
vn 0.0000 0.0000 1.0000
v 0.0000 0.5880 0.2940
vt 0.6875 0.8443
vn 0.0000 0.0000 1.0000
v -0.2205 0.5880 0.2940
vt 0.6681 0.8443
vn 0.0000 0.0000 1.0000
v -0.2205 0.1470 0.2940
vt 0.6681 0.8056
vn 0.0000 0.0000 1.0000
f 96/96/96 97/97/97 98/98/98 99/99/99
v 0.0000 0.6615 -0.2205
vt 0.6875 0.8794
vn 0.0000 1.0000 0.0000
v -0.2205 0.6615 -0.2205
vt 0.6681 0.8794
vn 0.0000 1.0000 0.0000
v -0.2205 0.6615 0.2205
vt 0.6681 0.8794
vn 0.0000 1.0000 0.0000
v 0.0000 0.6615 0.2205
vt 0.6875 0.8794
vn 0.0000 1.0000 0.0000
f 100/100/100 101/101/101 102/102/102 103/103/103
v -0.3675 0.6125 0.0000
vt 0.7887 0.8682
vn -0.3162 -0.9487 0.0000
v -0.3675 0.6125 -0.2450
vt 0.7887 0.8682
vn -0.3162 -0.9487 0.0000
v -0.2940 0.5880 -0.2205
vt 0.7935 0.8657
vn -0.3162 -0.9487 0.0000
v -0.2940 0.5880 0.0000
vt 0.7935 0.8657
vn -0.3162 -0.9487 0.0000
f 104/104/104 105/105/105 106/106/106 107/107/107
v 0.2940 0.5880 -0.2205
vt 0.7133 0.8729
vn 1.0000 0.0000 0.0000
v 0.2940 0.5880 0.0000
vt 0.7133 0.8729
vn 1.0000 0.0000 0.0000
v 0.2940 0.1470 0.0000
vt 0.7133 0.8342
vn 1.0000 0.0000 0.0000
v 0.2940 0.1470 -0.2205
vt 0.7133 0.8342
vn 1.0000 0.0000 0.0000
f 108/108/108 109/109/109 110/110/110 111/111/111
v 0.0000 0.6125 -0.3675
vt 0.8125 0.8682
vn 0.0000 -0.9487 -0.3162
v 0.2450 0.6125 -0.3675
vt 0.8283 0.8682
vn 0.0000 -0.9487 -0.3162
v 0.2205 0.5880 -0.2940
vt 0.8267 0.8657
vn 0.0000 -0.9487 -0.3162
v 0.0000 0.5880 -0.2940
vt 0.8125 0.8657
vn 0.0000 -0.9487 -0.3162
f 112/112/112 113/113/113 114/114/114 115/115/115
v 0.0000 0.7350 -0.2450
vt 0.8125 0.9121
vn 0.0000 0.3162 0.9487
v -0.2450 0.7350 -0.2450
vt 0.7966 0.9121
vn 0.0000 0.3162 0.9487
v -0.2205 0.6615 -0.2205
vt 0.7982 0.9045
vn 0.0000 0.3162 0.9487
v 0.0000 0.6615 -0.2205
vt 0.8125 0.9045
vn 0.0000 0.3162 0.9487
f 116/116/116 117/117/117 118/118/118 119/119/119
v -0.3675 0.6125 -0.2450
vt 0.7887 0.8682
vn -0.3162 0.0000 0.9487
v -0.3675 0.1225 -0.2450
vt 0.7887 0.8177
vn -0.3162 0.0000 0.9487
v -0.2940 0.1470 -0.2205
vt 0.7935 0.8202
vn -0.3162 0.0000 0.9487
v -0.2940 0.5880 -0.2205
vt 0.7935 0.8657
vn -0.3162 0.0000 0.9487
f 120/120/120 121/121/121 122/122/122 123/123/123
v 0.3675 0.6125 0.0000
vt 0.8362 0.8682
vn 0.3162 -0.9487 0.0000
v 0.3675 0.6125 0.2450
vt 0.8362 0.8682
vn 0.3162 -0.9487 0.0000
v 0.2940 0.5880 0.2205
vt 0.8315 0.8657
vn 0.3162 -0.9487 0.0000
v 0.2940 0.5880 0.0000
vt 0.8315 0.8657
vn 0.3162 -0.9487 0.0000
f 124/124/124 125/125/125 126/126/126 127/127/127
v 0.2450 0.6125 -0.3675
vt 0.8283 0.8682
vn -0.9487 0.0000 -0.3162
v 0.2450 0.1225 -0.3675
vt 0.8283 0.8177
vn -0.9487 0.0000 -0.3162
v 0.2205 0.1470 -0.2940
vt 0.8267 0.8202
vn -0.9487 0.0000 -0.3162
v 0.2205 0.5880 -0.2940
vt 0.8267 0.8657
vn -0.9487 0.0000 -0.3162
f 128/128/128 129/129/129 130/130/130 131/131/131
v 0.0000 0.6125 0.3675
vt 0.8125 0.8682
vn 0.0000 -0.9487 0.3162
v -0.2450 0.6125 0.3675
vt 0.7966 0.8682
vn 0.0000 -0.9487 0.3162
v -0.2205 0.5880 0.2940
vt 0.7982 0.8657
vn 0.0000 -0.9487 0.3162
v 0.0000 0.5880 0.2940
vt 0.8125 0.8657
vn 0.0000 -0.9487 0.3162
f 132/132/132 133/133/133 134/134/134 135/135/135
v 0.2450 0.7350 0.2450
vt 0.8283 0.9121
vn -0.9487 0.3162 0.0000
v 0.2450 0.7350 -0.2450
vt 0.8283 0.9121
vn -0.9487 0.3162 0.0000
v 0.2205 0.6615 -0.2205
vt 0.8267 0.9045
vn -0.9487 0.3162 0.0000
v 0.2205 0.6615 0.2205
vt 0.8267 0.9045
vn -0.9487 0.3162 0.0000
f 136/136/136 137/137/137 138/138/138 139/139/139
v 0.3675 0.6125 0.2450
vt 0.8362 0.8682
vn 0.3162 0.0000 -0.9487
v 0.3675 0.1225 0.2450
vt 0.8362 0.8177
vn 0.3162 0.0000 -0.9487
v 0.2940 0.1470 0.2205
vt 0.8315 0.8202
vn 0.3162 0.0000 -0.9487
v 0.2940 0.5880 0.2205
vt 0.8315 0.8657
vn 0.3162 0.0000 -0.9487
f 140/140/140 141/141/141 142/142/142 143/143/143
v -0.2450 0.6125 0.3675
vt 0.7966 0.8682
vn 0.9487 0.0000 0.3162
v -0.2450 0.1225 0.3675
vt 0.7966 0.8177
vn 0.9487 0.0000 0.3162
v -0.2205 0.1470 0.2940
vt 0.7982 0.8202
vn 0.9487 0.0000 0.3162
v -0.2205 0.5880 0.2940
vt 0.7982 0.8657
vn 0.9487 0.0000 0.3162
f 144/144/144 145/145/145 146/146/146 147/147/147
v -0.2450 0.7350 -0.2450
vt 0.7966 0.9121
vn 0.9487 0.3162 0.0000
v -0.2450 0.7350 0.2450
vt 0.7966 0.9121
vn 0.9487 0.3162 0.0000
v -0.2205 0.6615 0.2205
vt 0.7982 0.9045
vn 0.9487 0.3162 0.0000
v -0.2205 0.6615 -0.2205
vt 0.7982 0.9045
vn 0.9487 0.3162 0.0000
f 148/148/148 149/149/149 150/150/150 151/151/151
v 0.2205 0.6615 -0.2205
vt 0.7069 0.8508
vn 0.0000 1.0000 0.0000
v 0.0000 0.6615 -0.2205
vt 0.6875 0.8508
vn 0.0000 1.0000 0.0000
v 0.0000 0.6615 0.2205
vt 0.6875 0.8508
vn 0.0000 1.0000 0.0000
v 0.2205 0.6615 0.2205
vt 0.7069 0.8508
vn 0.0000 1.0000 0.0000
f 152/152/152 153/153/153 154/154/154 155/155/155
v 0.2205 0.5880 0.2940
vt 0.7069 0.8729
vn 0.0000 0.0000 1.0000
v 0.0000 0.5880 0.2940
vt 0.6875 0.8729
vn 0.0000 0.0000 1.0000
v 0.0000 0.1470 0.2940
vt 0.6875 0.8342
vn 0.0000 0.0000 1.0000
v 0.2205 0.1470 0.2940
vt 0.7069 0.8342
vn 0.0000 0.0000 1.0000
f 156/156/156 157/157/157 158/158/158 159/159/159
v -0.2450 0.1225 0.3675
vt 0.7966 0.8177
vn 0.0000 0.9487 0.3162
v 0.0000 0.1225 0.3675
vt 0.8125 0.8177
vn 0.0000 0.9487 0.3162
v 0.0000 0.1470 0.2940
vt 0.8125 0.8202
vn 0.0000 0.9487 0.3162
v -0.2205 0.1470 0.2940
vt 0.7982 0.8202
vn 0.0000 0.9487 0.3162
f 160/160/160 161/161/161 162/162/162 163/163/163
v 0.2205 0.1470 0.2940
vt 0.8267 0.8202
vn 0.0000 0.9487 0.3162
v 0.0000 0.1470 0.2940
vt 0.8125 0.8202
vn 0.0000 0.9487 0.3162
v 0.0000 0.1225 0.3675
vt 0.8125 0.8177
vn 0.0000 0.9487 0.3162
v 0.2450 0.1225 0.3675
vt 0.8283 0.8177
vn 0.0000 0.9487 0.3162
f 164/164/164 165/165/165 166/166/166 167/167/167
v -0.2940 0.5880 0.2205
vt 0.6617 0.8729
vn -1.0000 0.0000 0.0000
v -0.2940 0.5880 0.0000
vt 0.6617 0.8729
vn -1.0000 0.0000 0.0000
v -0.2940 0.1470 0.0000
vt 0.6617 0.8342
vn -1.0000 0.0000 0.0000
v -0.2940 0.1470 0.2205
vt 0.6617 0.8342
vn -1.0000 0.0000 0.0000
f 168/168/168 169/169/169 170/170/170 171/171/171
v 0.0000 0.6125 -0.3675
vt 0.8125 0.8682
vn 0.0000 -0.9487 -0.3162
v 0.0000 0.5880 -0.2940
vt 0.8125 0.8657
vn 0.0000 -0.9487 -0.3162
v -0.2205 0.5880 -0.2940
vt 0.7982 0.8657
vn 0.0000 -0.9487 -0.3162
v -0.2450 0.6125 -0.3675
vt 0.7966 0.8682
vn 0.0000 -0.9487 -0.3162
f 172/172/172 173/173/173 174/174/174 175/175/175
v -0.3675 0.1225 -0.2450
vt 0.7887 0.8177
vn -0.3162 0.9487 0.0000
v -0.3675 0.1225 0.0000
vt 0.7887 0.8177
vn -0.3162 0.9487 0.0000
v -0.2940 0.1470 0.0000
vt 0.7935 0.8202
vn -0.3162 0.9487 0.0000
v -0.2940 0.1470 -0.2205
vt 0.7935 0.8202
vn -0.3162 0.9487 0.0000
f 176/176/176 177/177/177 178/178/178 179/179/179
v -0.2205 0.5880 -0.2940
vt 0.6681 0.8443
vn 0.0000 0.0000 -1.0000
v 0.0000 0.5880 -0.2940
vt 0.6875 0.8443
vn 0.0000 0.0000 -1.0000
v 0.0000 0.1470 -0.2940
vt 0.6875 0.8056
vn 0.0000 0.0000 -1.0000
v -0.2205 0.1470 -0.2940
vt 0.6681 0.8056
vn 0.0000 0.0000 -1.0000
f 180/180/180 181/181/181 182/182/182 183/183/183
v 0.3675 0.6125 0.0000
vt 0.8362 0.8682
vn 0.3162 -0.9487 0.0000
v 0.2940 0.5880 0.0000
vt 0.8315 0.8657
vn 0.3162 -0.9487 0.0000
v 0.2940 0.5880 -0.2205
vt 0.8315 0.8657
vn 0.3162 -0.9487 0.0000
v 0.3675 0.6125 -0.2450
vt 0.8362 0.8682
vn 0.3162 -0.9487 0.0000
f 184/184/184 185/185/185 186/186/186 187/187/187
v 0.2450 0.1225 -0.3675
vt 0.8283 0.8177
vn 0.0000 0.9487 -0.3162
v 0.0000 0.1225 -0.3675
vt 0.8125 0.8177
vn 0.0000 0.9487 -0.3162
v 0.0000 0.1470 -0.2940
vt 0.8125 0.8202
vn 0.0000 0.9487 -0.3162
v 0.2205 0.1470 -0.2940
vt 0.8267 0.8202
vn 0.0000 0.9487 -0.3162
f 188/188/188 189/189/189 190/190/190 191/191/191
v 0.2940 0.1470 -0.2205
vt 0.8315 0.8202
vn 0.3162 0.9487 -0.0000
v 0.2940 0.1470 0.0000
vt 0.8315 0.8202
vn 0.3162 0.9487 -0.0000
v 0.3675 0.1225 0.0000
vt 0.8362 0.8177
vn 0.3162 0.9487 -0.0000
v 0.3675 0.1225 -0.2450
vt 0.8362 0.8177
vn 0.3162 0.9487 -0.0000
f 192/192/192 193/193/193 194/194/194 195/195/195
v 0.3675 0.1225 0.2450
vt 0.8362 0.8177
vn 0.3162 0.9487 -0.0000
v 0.3675 0.1225 0.0000
vt 0.8362 0.8177
vn 0.3162 0.9487 -0.0000
v 0.2940 0.1470 0.0000
vt 0.8315 0.8202
vn 0.3162 0.9487 -0.0000
v 0.2940 0.1470 0.2205
vt 0.8315 0.8202
vn 0.3162 0.9487 -0.0000
f 196/196/196 197/197/197 198/198/198 199/199/199
v -0.2205 0.1470 -0.2940
vt 0.7982 0.8202
vn 0.0000 0.9487 -0.3162
v 0.0000 0.1470 -0.2940
vt 0.8125 0.8202
vn 0.0000 0.9487 -0.3162
v 0.0000 0.1225 -0.3675
vt 0.8125 0.8177
vn 0.0000 0.9487 -0.3162
v -0.2450 0.1225 -0.3675
vt 0.7966 0.8177
vn 0.0000 0.9487 -0.3162
f 200/200/200 201/201/201 202/202/202 203/203/203
v -0.2450 0.7350 0.2450
vt 0.7966 0.9121
vn 0.0000 0.3162 -0.9487
v 0.0000 0.7350 0.2450
vt 0.8125 0.9121
vn 0.0000 0.3162 -0.9487
v 0.0000 0.6615 0.2205
vt 0.8125 0.9045
vn 0.0000 0.3162 -0.9487
v -0.2205 0.6615 0.2205
vt 0.7982 0.9045
vn 0.0000 0.3162 -0.9487
f 204/204/204 205/205/205 206/206/206 207/207/207
v 0.2205 0.6615 0.2205
vt 0.8267 0.9045
vn 0.0000 0.3162 -0.9487
v 0.0000 0.6615 0.2205
vt 0.8125 0.9045
vn 0.0000 0.3162 -0.9487
v 0.0000 0.7350 0.2450
vt 0.8125 0.9121
vn 0.0000 0.3162 -0.9487
v 0.2450 0.7350 0.2450
vt 0.8283 0.9121
vn 0.0000 0.3162 -0.9487
f 208/208/208 209/209/209 210/210/210 211/211/211
v -0.3675 0.0000 0.3675
vt 0.7887 0.8363
vn 0.0000 0.0000 1.0000
v 0.3675 0.0000 0.3675
vt 0.8362 0.8363
vn 0.0000 0.0000 1.0000
v 0.0000 0.1225 0.3675
vt 0.8125 0.8489
vn 0.0000 0.0000 1.0000
f 212/212/212 213/213/213 214/214/214
v -0.3675 0.7350 -0.3675
vt 0.7887 0.9121
vn 0.0000 0.0000 -1.0000
v 0.0000 0.6125 -0.3675
vt 0.8125 0.8995
vn 0.0000 0.0000 -1.0000
v -0.2450 0.6125 -0.3675
vt 0.7966 0.8995
vn 0.0000 0.0000 -1.0000
f 215/215/215 216/216/216 217/217/217
v 0.3675 0.7350 -0.3675
vt 0.8362 0.9121
vn 0.0000 0.0000 -1.0000
v 0.2450 0.6125 -0.3675
vt 0.8283 0.8995
vn 0.0000 0.0000 -1.0000
v 0.0000 0.6125 -0.3675
vt 0.8125 0.8995
vn 0.0000 0.0000 -1.0000
f 218/218/218 219/219/219 220/220/220
v 0.2450 0.6125 0.3675
vt 0.8283 0.8995
vn 0.0000 0.0000 1.0000
v 0.3675 0.7350 0.3675
vt 0.8362 0.9121
vn 0.0000 0.0000 1.0000
v 0.0000 0.6125 0.3675
vt 0.8125 0.8995
vn 0.0000 0.0000 1.0000
f 221/221/221 222/222/222 223/223/223
v -0.3675 0.6125 0.2450
vt 0.7887 0.8995
vn -1.0000 0.0000 0.0000
v -0.3675 0.7350 0.3675
vt 0.7887 0.9121
vn -1.0000 0.0000 0.0000
v -0.3675 0.6125 0.0000
vt 0.7887 0.8995
vn -1.0000 0.0000 0.0000
f 224/224/224 225/225/225 226/226/226
v 0.3675 0.7350 -0.3675
vt 0.8362 0.9121
vn 1.0000 0.0000 0.0000
v 0.3675 0.7350 0.3675
vt 0.8362 0.9121
vn 1.0000 0.0000 0.0000
v 0.3675 0.6125 0.0000
vt 0.8362 0.8995
vn 1.0000 0.0000 0.0000
f 227/227/227 228/228/228 229/229/229
v 0.2450 0.7350 -0.2450
vt 0.8283 0.9590
vn 0.0000 1.0000 0.0000
v 0.2450 0.7350 0.2450
vt 0.8283 0.9590
vn 0.0000 1.0000 0.0000
v 0.3675 0.7350 0.3675
vt 0.8362 0.9590
vn 0.0000 1.0000 0.0000
v 0.3675 0.7350 -0.3675
vt 0.8362 0.9590
vn 0.0000 1.0000 0.0000
f 230/230/230 231/231/231 232/232/232 233/233/233
v -0.2450 0.7350 0.2450
vt 0.7966 0.9590
vn 0.0000 1.0000 0.0000
v -0.2450 0.7350 -0.2450
vt 0.7966 0.9590
vn 0.0000 1.0000 0.0000
v -0.3675 0.7350 -0.3675
vt 0.7887 0.9590
vn 0.0000 1.0000 0.0000
v -0.3675 0.7350 0.3675
vt 0.7887 0.9590
vn 0.0000 1.0000 0.0000
f 234/234/234 235/235/235 236/236/236 237/237/237
v 0.3675 0.1225 0.2450
vt 0.8362 0.8489
vn 1.0000 0.0000 0.0000
v 0.3675 0.0000 0.3675
vt 0.8362 0.8363
vn 1.0000 0.0000 0.0000
v 0.3675 0.1225 0.0000
vt 0.8362 0.8489
vn 1.0000 0.0000 0.0000
f 238/238/238 239/239/239 240/240/240
v 0.3675 0.0000 0.3675
vt 0.8362 0.8363
vn 1.0000 0.0000 0.0000
v 0.3675 0.0000 -0.3675
vt 0.8362 0.8363
vn 1.0000 0.0000 0.0000
v 0.3675 0.1225 0.0000
vt 0.8362 0.8489
vn 1.0000 0.0000 0.0000
f 241/241/241 242/242/242 243/243/243
v -0.2450 0.1225 0.3675
vt 0.7966 0.8489
vn 0.0000 0.0000 1.0000
v -0.3675 0.0000 0.3675
vt 0.7887 0.8363
vn 0.0000 0.0000 1.0000
v 0.0000 0.1225 0.3675
vt 0.8125 0.8489
vn 0.0000 0.0000 1.0000
f 244/244/244 245/245/245 246/246/246
v 0.3675 0.0000 0.3675
vt 0.8362 0.8363
vn 0.0000 -1.0000 0.0000
v -0.3675 0.0000 0.3675
vt 0.7887 0.8363
vn 0.0000 -1.0000 0.0000
v -0.3675 0.0000 -0.3675
vt 0.7887 0.8363
vn 0.0000 -1.0000 0.0000
v 0.3675 0.0000 -0.3675
vt 0.8362 0.8363
vn 0.0000 -1.0000 0.0000
f 247/247/247 248/248/248 249/249/249 250/250/250
v -0.3675 0.0000 -0.3675
vt 0.7887 0.8363
vn -1.0000 0.0000 0.0000
v -0.3675 0.0000 0.3675
vt 0.7887 0.8363
vn -1.0000 0.0000 0.0000
v -0.3675 0.1225 0.0000
vt 0.7887 0.8489
vn -1.0000 0.0000 0.0000
f 251/251/251 252/252/252 253/253/253
v -0.3675 0.1225 -0.2450
vt 0.7887 0.8489
vn -1.0000 0.0000 0.0000
v -0.3675 0.0000 -0.3675
vt 0.7887 0.8363
vn -1.0000 0.0000 0.0000
v -0.3675 0.1225 0.0000
vt 0.7887 0.8489
vn -1.0000 0.0000 0.0000
f 254/254/254 255/255/255 256/256/256
v -0.3675 0.7350 -0.3675
vt 0.7887 0.9121
vn -1.0000 0.0000 0.0000
v -0.3675 0.6125 0.0000
vt 0.7887 0.8995
vn -1.0000 0.0000 0.0000
v -0.3675 0.7350 0.3675
vt 0.7887 0.9121
vn -1.0000 0.0000 0.0000
f 257/257/257 258/258/258 259/259/259
v -0.3675 0.7350 -0.3675
vt 0.7887 0.9590
vn 0.0000 1.0000 0.0000
v -0.2450 0.7350 -0.2450
vt 0.7966 0.9590
vn 0.0000 1.0000 0.0000
v 0.0000 0.7350 -0.2450
vt 0.8125 0.9590
vn 0.0000 1.0000 0.0000
f 260/260/260 261/261/261 262/262/262
v 0.3675 0.7350 -0.3675
vt 0.8362 0.9590
vn 0.0000 1.0000 0.0000
v -0.3675 0.7350 -0.3675
vt 0.7887 0.9590
vn 0.0000 1.0000 0.0000
v 0.0000 0.7350 -0.2450
vt 0.8125 0.9590
vn 0.0000 1.0000 0.0000
f 263/263/263 264/264/264 265/265/265
v 0.2450 0.7350 -0.2450
vt 0.8283 0.9590
vn 0.0000 1.0000 0.0000
v 0.3675 0.7350 -0.3675
vt 0.8362 0.9590
vn 0.0000 1.0000 0.0000
v 0.0000 0.7350 -0.2450
vt 0.8125 0.9590
vn 0.0000 1.0000 0.0000
f 266/266/266 267/267/267 268/268/268
v -0.2450 0.7350 0.2450
vt 0.7966 0.9590
vn 0.0000 1.0000 0.0000
v -0.3675 0.7350 0.3675
vt 0.7887 0.9590
vn 0.0000 1.0000 0.0000
v 0.0000 0.7350 0.2450
vt 0.8125 0.9590
vn 0.0000 1.0000 0.0000
f 269/269/269 270/270/270 271/271/271
v 0.3675 0.6125 -0.2450
vt 0.8362 0.8995
vn 1.0000 0.0000 0.0000
v 0.3675 0.7350 -0.3675
vt 0.8362 0.9121
vn 1.0000 0.0000 0.0000
v 0.3675 0.6125 0.0000
vt 0.8362 0.8995
vn 1.0000 0.0000 0.0000
f 272/272/272 273/273/273 274/274/274
v -0.3675 0.7350 0.3675
vt 0.7887 0.9590
vn 0.0000 1.0000 0.0000
v 0.3675 0.7350 0.3675
vt 0.8362 0.9590
vn 0.0000 1.0000 0.0000
v 0.0000 0.7350 0.2450
vt 0.8125 0.9590
vn 0.0000 1.0000 0.0000
f 275/275/275 276/276/276 277/277/277
v -0.3675 0.7350 0.3675
vt 0.7887 0.9121
vn 0.0000 0.0000 1.0000
v 0.0000 0.6125 0.3675
vt 0.8125 0.8995
vn 0.0000 0.0000 1.0000
v 0.3675 0.7350 0.3675
vt 0.8362 0.9121
vn 0.0000 0.0000 1.0000
f 278/278/278 279/279/279 280/280/280
v 0.2450 0.1225 -0.3675
vt 0.8283 0.8489
vn 0.0000 0.0000 -1.0000
v 0.3675 0.0000 -0.3675
vt 0.8362 0.8363
vn 0.0000 0.0000 -1.0000
v 0.0000 0.1225 -0.3675
vt 0.8125 0.8489
vn 0.0000 0.0000 -1.0000
f 281/281/281 282/282/282 283/283/283
v 0.3675 0.0000 -0.3675
vt 0.8362 0.8363
vn 0.0000 0.0000 -1.0000
v -0.3675 0.0000 -0.3675
vt 0.7887 0.8363
vn 0.0000 0.0000 -1.0000
v 0.0000 0.1225 -0.3675
vt 0.8125 0.8489
vn 0.0000 0.0000 -1.0000
f 284/284/284 285/285/285 286/286/286
v 0.0000 0.6125 0.3675
vt 0.8125 0.8682
vn 0.0000 -0.9487 0.3162
v 0.0000 0.5880 0.2940
vt 0.8125 0.8657
vn 0.0000 -0.9487 0.3162
v 0.2205 0.5880 0.2940
vt 0.8267 0.8657
vn 0.0000 -0.9487 0.3162
v 0.2450 0.6125 0.3675
vt 0.8283 0.8682
vn 0.0000 -0.9487 0.3162
f 287/287/287 288/288/288 289/289/289 290/290/290
v -0.2940 0.1470 0.2205
vt 0.7935 0.8202
vn -0.3162 0.9487 0.0000
v -0.2940 0.1470 0.0000
vt 0.7935 0.8202
vn -0.3162 0.9487 0.0000
v -0.3675 0.1225 0.0000
vt 0.7887 0.8177
vn -0.3162 0.9487 0.0000
v -0.3675 0.1225 0.2450
vt 0.7887 0.8177
vn -0.3162 0.9487 0.0000
f 291/291/291 292/292/292 293/293/293 294/294/294
