# Blender 4.5.13 LTS
# www.blender.org
o planks
v -0.225000 0.000000 0.225000
v -0.225000 0.450000 0.225000
v -0.225000 0.000000 -0.225000
v -0.225000 0.450000 -0.225000
v 0.225000 0.000000 0.225000
v 0.225000 0.450000 0.225000
v 0.225000 0.000000 -0.225000
v 0.225000 0.450000 -0.225000
v -0.235000 -0.005000 0.235000
v -0.235000 0.455000 0.235000
v -0.235000 -0.005000 0.185000
v -0.235000 0.455000 0.185000
v -0.185000 -0.005000 0.235000
v -0.185000 0.455000 0.235000
v -0.185000 -0.005000 0.185000
v -0.185000 0.455000 0.185000
v -0.235000 -0.005000 -0.185000
v -0.235000 0.455000 -0.185000
v -0.235000 -0.005000 -0.235000
v -0.235000 0.455000 -0.235000
v -0.185000 -0.005000 -0.185000
v -0.185000 0.455000 -0.185000
v -0.185000 -0.005000 -0.235000
v -0.185000 0.455000 -0.235000
v 0.185000 -0.005000 0.235000
v 0.185000 0.455000 0.235000
v 0.185000 -0.005000 0.185000
v 0.185000 0.455000 0.185000
v 0.235000 -0.005000 0.235000
v 0.235000 0.455000 0.235000
v 0.235000 -0.005000 0.185000
v 0.235000 0.455000 0.185000
v 0.185000 -0.005000 -0.185000
v 0.185000 0.455000 -0.185000
v 0.185000 -0.005000 -0.235000
v 0.185000 0.455000 -0.235000
v 0.235000 -0.005000 -0.185000
v 0.235000 0.455000 -0.185000
v 0.235000 -0.005000 -0.235000
v 0.235000 0.455000 -0.235000
v -0.235000 0.000000 0.235000
v -0.235000 0.050000 0.235000
v -0.235000 0.000000 -0.235000
v -0.235000 0.050000 -0.235000
v 0.235000 0.000000 0.235000
v 0.235000 0.050000 0.235000
v 0.235000 0.000000 -0.235000
v 0.235000 0.050000 -0.235000
v -0.235000 0.400000 0.235000
v -0.235000 0.450000 0.235000
v -0.235000 0.400000 -0.235000
v -0.235000 0.450000 -0.235000
v 0.235000 0.400000 0.235000
v 0.235000 0.450000 0.235000
v 0.235000 0.400000 -0.235000
v 0.235000 0.450000 -0.235000
v -0.081963 0.450000 0.230171
v -0.081963 0.850000 0.230171
v -0.200171 0.450000 -0.151963
v -0.200171 0.850000 -0.151963
v 0.300171 0.450000 0.111963
v 0.300171 0.850000 0.111963
v 0.181963 0.450000 -0.270171
v 0.181963 0.850000 -0.270171
v -0.088561 0.445000 0.242680
v -0.088561 0.855000 0.242680
v -0.103337 0.445000 0.194913
v -0.103337 0.855000 0.194913
v -0.040795 0.445000 0.227904
v -0.040795 0.855000 0.227904
v -0.055571 0.445000 0.180137
v -0.055571 0.855000 0.180137
v -0.197904 0.445000 -0.110795
v -0.197904 0.855000 -0.110795
v -0.212680 0.445000 -0.158561
v -0.212680 0.855000 -0.158561
v -0.150137 0.445000 -0.125571
v -0.150137 0.855000 -0.125571
v -0.164913 0.445000 -0.173337
v -0.164913 0.855000 -0.173337
v 0.264913 0.445000 0.133337
v 0.264913 0.855000 0.133337
v 0.250137 0.445000 0.085571
v 0.250137 0.855000 0.085571
v 0.312680 0.445000 0.118561
v 0.312680 0.855000 0.118561
v 0.297904 0.445000 0.070795
v 0.297904 0.855000 0.070795
v 0.155571 0.445000 -0.220137
v 0.155571 0.855000 -0.220137
v 0.140795 0.445000 -0.267904
v 0.140795 0.855000 -0.267904
v 0.203337 0.445000 -0.234913
v 0.203337 0.855000 -0.234913
v 0.188561 0.445000 -0.282680
v 0.188561 0.855000 -0.282680
v -0.088561 0.450000 0.242680
v -0.088561 0.500000 0.242680
v -0.212680 0.450000 -0.158561
v -0.212680 0.500000 -0.158561
v 0.312680 0.450000 0.118561
v 0.312680 0.500000 0.118561
v 0.188561 0.450000 -0.282680
v 0.188561 0.500000 -0.282680
v -0.088561 0.800000 0.242680
v -0.088561 0.850000 0.242680
v -0.212680 0.800000 -0.158561
v -0.212680 0.850000 -0.158561
v 0.312680 0.800000 0.118561
v 0.312680 0.850000 0.118561
v 0.188561 0.800000 -0.282680
v 0.188561 0.850000 -0.282680
v 0.256040 0.000000 0.198465
v 0.256040 0.380000 0.198465
v 0.331535 0.000000 -0.173960
v 0.331535 0.380000 -0.173960
v 0.628465 0.000000 0.273960
v 0.628465 0.380000 0.273960
v 0.703960 0.000000 -0.098465
v 0.703960 0.380000 -0.098465
v 0.244253 -0.005000 0.206279
v 0.244253 0.385000 0.206279
v 0.254186 -0.005000 0.157276
v 0.254186 0.385000 0.157276
v 0.293256 -0.005000 0.216213
v 0.293256 0.385000 0.216213
v 0.303190 -0.005000 0.167210
v 0.303190 0.385000 0.167210
v 0.313787 -0.005000 -0.136744
v 0.313787 0.385000 -0.136744
v 0.323721 -0.005000 -0.185747
v 0.323721 0.385000 -0.185747
v 0.362790 -0.005000 -0.126810
v 0.362790 0.385000 -0.126810
v 0.372724 -0.005000 -0.175814
v 0.372724 0.385000 -0.175814
v 0.587276 -0.005000 0.275814
v 0.587276 0.385000 0.275814
v 0.597210 -0.005000 0.226810
v 0.597210 0.385000 0.226810
v 0.636279 -0.005000 0.285747
v 0.636279 0.385000 0.285747
v 0.646213 -0.005000 0.236744
v 0.646213 0.385000 0.236744
v 0.656810 -0.005000 -0.067210
v 0.656810 0.385000 -0.067210
v 0.666744 -0.005000 -0.116213
v 0.666744 0.385000 -0.116213
v 0.705814 -0.005000 -0.057276
v 0.705814 0.385000 -0.057276
v 0.715747 -0.005000 -0.106279
v 0.715747 0.385000 -0.106279
v 0.244253 0.000000 0.206279
v 0.244253 0.050000 0.206279
v 0.323721 0.000000 -0.185747
v 0.323721 0.050000 -0.185747
v 0.636279 0.000000 0.285747
v 0.636279 0.050000 0.285747
v 0.715747 0.000000 -0.106279
v 0.715747 0.050000 -0.106279
v 0.244253 0.330000 0.206279
v 0.244253 0.380000 0.206279
v 0.323721 0.330000 -0.185747
v 0.323721 0.380000 -0.185747
v 0.636279 0.330000 0.285747
v 0.636279 0.380000 0.285747
v 0.715747 0.330000 -0.106279
v 0.715747 0.380000 -0.106279
vn -1.0000 -0.0000 -0.0000
vn -0.0000 -0.0000 -1.0000
vn 1.0000 -0.0000 -0.0000
vn -0.0000 -0.0000 1.0000
vn -0.0000 -1.0000 -0.0000
vn -0.0000 1.0000 -0.0000
vn -0.9553 -0.0000 0.2955
vn -0.2955 -0.0000 -0.9553
vn 0.9553 -0.0000 -0.2955
vn 0.2955 -0.0000 0.9553
vn -0.9801 -0.0000 -0.1987
vn 0.1987 -0.0000 -0.9801
vn 0.9801 -0.0000 0.1987
vn -0.1987 -0.0000 0.9801
vt 0.327431 0.158217
vt 0.478304 0.309172
vt 0.327431 0.309172
vt 0.327431 0.314013
vt 0.478304 0.464968
vt 0.327431 0.464968
vt 0.164926 0.327431
vt 0.315799 0.478386
vt 0.164926 0.478386
vt 0.327431 0.469809
vt 0.478304 0.620764
vt 0.327431 0.620764
vt 0.153376 0.478386
vt 0.002420 0.327431
vt 0.153376 0.327431
vt 0.478386 0.153376
vt 0.327431 0.002420
vt 0.478386 0.002420
vt 0.827986 0.158217
vt 0.844750 0.312527
vt 0.827986 0.312527
vt 0.827986 0.320636
vt 0.844750 0.474946
vt 0.827986 0.474946
vt 0.849591 0.158217
vt 0.866355 0.312527
vt 0.849591 0.312527
vt 0.849591 0.320636
vt 0.866355 0.474946
vt 0.849591 0.474946
vt 0.801532 0.564669
vt 0.784759 0.547896
vt 0.801532 0.547896
vt 0.801532 0.586283
vt 0.784759 0.569510
vt 0.801532 0.569510
vt 0.871195 0.158217
vt 0.887959 0.312527
vt 0.871195 0.312527
vt 0.871195 0.320636
vt 0.887959 0.474946
vt 0.871195 0.474946
vt 0.873200 0.734437
vt 0.889963 0.888747
vt 0.873200 0.888747
vt 0.890062 0.568577
vt 0.906826 0.722887
vt 0.890062 0.722887
vt 0.821274 0.151507
vt 0.804501 0.134735
vt 0.821274 0.134735
vt 0.823146 0.499828
vt 0.806373 0.483056
vt 0.823146 0.483056
vt 0.892800 0.158217
vt 0.909564 0.312527
vt 0.892800 0.312527
vt 0.892800 0.317367
vt 0.909564 0.471677
vt 0.892800 0.471677
vt 0.894804 0.734437
vt 0.911568 0.888747
vt 0.894804 0.888747
vt 0.002420 0.761274
vt 0.019184 0.915584
vt 0.002420 0.915584
vt 0.823146 0.521442
vt 0.806373 0.504669
vt 0.823146 0.504669
vt 0.823146 0.564669
vt 0.806373 0.547896
vt 0.823146 0.547896
vt 0.024025 0.761274
vt 0.040789 0.915584
vt 0.024025 0.915584
vt 0.045629 0.761274
vt 0.062393 0.915584
vt 0.045629 0.915584
vt 0.067234 0.761274
vt 0.083997 0.915584
vt 0.067234 0.915584
vt 0.088838 0.761274
vt 0.105602 0.915584
vt 0.088838 0.915584
vt 0.823146 0.543056
vt 0.806373 0.526283
vt 0.823146 0.526283
vt 0.823146 0.586283
vt 0.806373 0.569510
vt 0.823146 0.569510
vt 0.784759 0.478215
vt 0.801532 0.320636
vt 0.801532 0.478215
vt 0.287176 0.803226
vt 0.303949 0.645647
vt 0.303949 0.803226
vt 0.806373 0.315795
vt 0.823146 0.158217
vt 0.823146 0.315795
vt 0.806373 0.478215
vt 0.823146 0.320636
vt 0.823146 0.478215
vt 0.160085 0.160085
vt 0.002420 0.002420
vt 0.160085 0.002420
vt 0.160085 0.322590
vt 0.002420 0.164926
vt 0.160085 0.164926
vt 0.287176 0.640806
vt 0.303949 0.483227
vt 0.303949 0.640806
vt 0.763146 0.315795
vt 0.779919 0.158217
vt 0.779918 0.315795
vt 0.763146 0.478215
vt 0.779918 0.320636
vt 0.779918 0.478215
vt 0.784759 0.315795
vt 0.801532 0.158217
vt 0.801532 0.315795
vt 0.322590 0.160085
vt 0.164926 0.002420
vt 0.322590 0.002420
vt 0.322590 0.322590
vt 0.164926 0.164926
vt 0.322590 0.164926
vt 0.628878 0.303949
vt 0.758305 0.438132
vt 0.628878 0.438132
vt 0.628878 0.449681
vt 0.758305 0.583864
vt 0.628878 0.583864
vt 0.628878 0.158217
vt 0.758305 0.292399
vt 0.628878 0.292399
vt 0.327431 0.625605
vt 0.456858 0.759788
vt 0.327431 0.759788
vt 0.483227 0.136603
vt 0.617410 0.002420
vt 0.617410 0.136603
vt 0.148153 0.617410
vt 0.282335 0.483227
vt 0.282335 0.617410
vt 0.433121 0.764628
vt 0.449300 0.902166
vt 0.433121 0.902166
vt 0.914404 0.300594
vt 0.930583 0.438132
vt 0.914404 0.438132
vt 0.916408 0.734437
vt 0.932587 0.871975
vt 0.916408 0.871975
vt 0.391083 0.764628
vt 0.407261 0.902166
vt 0.391083 0.902166
vt 0.782887 0.151507
vt 0.799660 0.134735
vt 0.799660 0.151507
vt 0.784759 0.499828
vt 0.801532 0.483056
vt 0.801532 0.499828
vt 0.287176 0.808066
vt 0.303355 0.945603
vt 0.287176 0.945603
vt 0.461699 0.767983
vt 0.477878 0.905520
vt 0.461699 0.905520
vt 0.890144 0.002420
vt 0.906322 0.139958
vt 0.890144 0.139958
vt 0.932182 0.002420
vt 0.948361 0.139958
vt 0.932182 0.139958
vt 0.763146 0.499828
vt 0.779919 0.483056
vt 0.779919 0.499828
vt 0.763146 0.569510
vt 0.779919 0.586283
vt 0.763146 0.586283
vt 0.412102 0.764628
vt 0.428281 0.902166
vt 0.412102 0.902166
vt 0.461699 0.625605
vt 0.477878 0.763142
vt 0.461699 0.763142
vt 0.911163 0.002420
vt 0.927342 0.139958
vt 0.911163 0.139958
vt 0.932685 0.568577
vt 0.948864 0.706115
vt 0.932685 0.706115
vt 0.779919 0.521442
vt 0.763146 0.504669
vt 0.779919 0.504669
vt 0.761274 0.134735
vt 0.778047 0.151507
vt 0.761274 0.151507
vt 0.370064 0.764628
vt 0.386242 0.902166
vt 0.370064 0.902166
vt 0.911666 0.568577
vt 0.927845 0.706115
vt 0.911666 0.706115
vt 0.349045 0.764628
vt 0.365223 0.902166
vt 0.349045 0.902166
vt 0.914404 0.158217
vt 0.930583 0.295754
vt 0.914404 0.295754
vt 0.763146 0.564669
vt 0.779919 0.547896
vt 0.779919 0.564669
vt 0.763146 0.543056
vt 0.779919 0.526283
vt 0.779919 0.543056
vt 0.256221 0.897173
vt 0.272994 0.761274
vt 0.272994 0.897173
vt 0.212994 0.897173
vt 0.229766 0.761274
vt 0.229766 0.897173
vt 0.234607 0.897173
vt 0.251380 0.761274
vt 0.251380 0.897173
vt 0.327431 0.900527
vt 0.344204 0.764628
vt 0.344204 0.900527
vt 0.483145 0.590573
vt 0.624037 0.449682
vt 0.624037 0.590573
vt 0.483145 0.299108
vt 0.624037 0.158217
vt 0.624037 0.299108
vt 0.191380 0.897173
vt 0.208153 0.761274
vt 0.208153 0.897173
vt 0.148153 0.897173
vt 0.164926 0.761274
vt 0.164926 0.897173
vt 0.110443 0.897173
vt 0.127215 0.761274
vt 0.127215 0.897173
vt 0.169766 0.897173
vt 0.186539 0.761274
vt 0.186539 0.897173
vt 0.002420 0.624119
vt 0.143312 0.483227
vt 0.143312 0.624119
vt 0.483145 0.444841
vt 0.624037 0.303949
vt 0.624037 0.444841
vt 0.761192 0.595414
vt 0.885221 0.722887
vt 0.761192 0.722887
vt 0.744329 0.734437
vt 0.868359 0.861911
vt 0.744329 0.861911
vt 0.761274 0.002420
vt 0.885303 0.129894
vt 0.761274 0.129894
vt 0.615459 0.734437
vt 0.739489 0.861911
vt 0.615459 0.861911
vt 0.002420 0.628960
vt 0.129894 0.756433
vt 0.002420 0.756433
vt 0.610618 0.861911
vt 0.483145 0.734437
vt 0.610618 0.734437
vt 0.959041 0.734437
vt 0.975361 0.865265
vt 0.959041 0.865265
vt 0.615459 0.866752
vt 0.631779 0.997580
vt 0.615459 0.997580
vt 0.636620 0.866752
vt 0.652939 0.997580
vt 0.636620 0.997580
vt 0.974815 0.002420
vt 0.991135 0.133248
vt 0.974815 0.133248
vt 0.826115 0.134735
vt 0.842887 0.151507
vt 0.826115 0.151507
vt 0.827986 0.521442
vt 0.844759 0.504669
vt 0.844759 0.521442
vt 0.546626 0.866752
vt 0.562946 0.997580
vt 0.546626 0.997580
vt 0.975318 0.568577
vt 0.991638 0.699405
vt 0.975318 0.699405
vt 0.525466 0.866752
vt 0.541786 0.997580
vt 0.525466 0.997580
vt 0.978197 0.429013
vt 0.994517 0.559841
vt 0.978197 0.559841
vt 0.827986 0.543056
vt 0.844759 0.526283
vt 0.844759 0.543056
vt 0.827986 0.586283
vt 0.844759 0.569510
vt 0.844759 0.586283
vt 0.957037 0.429013
vt 0.973357 0.559841
vt 0.957037 0.559841
vt 0.978650 0.158217
vt 0.994970 0.289045
vt 0.978650 0.289045
vt 0.980201 0.734437
vt 0.996521 0.865265
vt 0.980201 0.865265
vt 0.483145 0.866752
vt 0.499465 0.997580
vt 0.483145 0.997580
vt 0.801532 0.521442
vt 0.784759 0.504669
vt 0.801532 0.504669
vt 0.784759 0.543056
vt 0.801532 0.526283
vt 0.801532 0.543056
vt 0.567787 0.866752
vt 0.584106 0.997580
vt 0.567787 0.997580
vt 0.504305 0.866752
vt 0.520625 0.997580
vt 0.504305 0.997580
vt 0.588947 0.866752
vt 0.605267 0.997580
vt 0.588947 0.997580
vt 0.657780 0.866752
vt 0.674100 0.997580
vt 0.657780 0.997580
vt 0.827986 0.499828
vt 0.844759 0.483056
vt 0.844759 0.499828
vt 0.844759 0.547896
vt 0.827986 0.564669
vt 0.827986 0.547896
vt 0.957037 0.288774
vt 0.973810 0.158217
vt 0.973810 0.288774
vt 0.953201 0.132978
vt 0.969974 0.002420
vt 0.969974 0.132978
vt 0.957037 0.424172
vt 0.973810 0.293615
vt 0.973810 0.424172
vt 0.953705 0.699135
vt 0.970477 0.568577
vt 0.970477 0.699135
vt 0.483145 0.595414
vt 0.617328 0.729597
vt 0.483145 0.729597
vt 0.756351 0.729597
vt 0.622168 0.595414
vt 0.756351 0.595414
vt 0.935423 0.559570
vt 0.952196 0.429013
vt 0.952196 0.559570
vt 0.937428 0.864995
vt 0.954200 0.734437
vt 0.954200 0.864995
vt 0.935423 0.424172
vt 0.952196 0.293615
vt 0.952196 0.424172
vt 0.935423 0.288774
vt 0.952196 0.158217
vt 0.952196 0.288774
vt 0.622250 0.002420
vt 0.756433 0.136603
vt 0.622250 0.136603
vt 0.282335 0.756433
vt 0.148153 0.622251
vt 0.282335 0.622251
vt 0.478304 0.158217
vt 0.478304 0.314013
vt 0.315799 0.327431
vt 0.478304 0.469809
vt 0.002420 0.478386
vt 0.327431 0.153376
vt 0.844750 0.158217
vt 0.844750 0.320636
vt 0.866355 0.158217
vt 0.866355 0.320636
vt 0.784759 0.564669
vt 0.784759 0.586283
vt 0.887959 0.158217
vt 0.887959 0.320636
vt 0.889963 0.734437
vt 0.906826 0.568577
vt 0.804501 0.151507
vt 0.806373 0.499828
vt 0.909564 0.158217
vt 0.909564 0.317367
vt 0.911568 0.734437
vt 0.019184 0.761274
vt 0.806373 0.521442
vt 0.806373 0.564669
vt 0.040789 0.761274
vt 0.062393 0.761274
vt 0.083997 0.761274
vt 0.105602 0.761274
vt 0.806373 0.543056
vt 0.806373 0.586283
vt 0.784759 0.320636
vt 0.287176 0.645647
vt 0.806373 0.158217
vt 0.806373 0.320636
vt 0.002420 0.160085
vt 0.002420 0.322590
vt 0.287176 0.483227
vt 0.763146 0.158217
vt 0.763146 0.320636
vt 0.784759 0.158217
vt 0.164926 0.160085
vt 0.164926 0.322590
vt 0.758305 0.303949
vt 0.758305 0.449681
vt 0.758305 0.158217
vt 0.456858 0.625605
vt 0.483227 0.002420
vt 0.148153 0.483227
vt 0.449300 0.764628
vt 0.930583 0.300594
vt 0.932587 0.734437
vt 0.407261 0.764628
vt 0.782887 0.134735
vt 0.784759 0.483056
vt 0.303355 0.808066
vt 0.477878 0.767983
vt 0.906322 0.002420
vt 0.948361 0.002420
vt 0.763146 0.483056
vt 0.779919 0.569510
vt 0.428281 0.764628
vt 0.477878 0.625605
vt 0.927342 0.002420
vt 0.948864 0.568577
vt 0.763146 0.521442
vt 0.778047 0.134735
vt 0.386242 0.764628
vt 0.927845 0.568577
vt 0.365223 0.764628
vt 0.930583 0.158217
vt 0.763146 0.547896
vt 0.763146 0.526283
vt 0.256221 0.761274
vt 0.212994 0.761274
vt 0.234607 0.761274
vt 0.327431 0.764628
vt 0.483145 0.449682
vt 0.483145 0.158217
vt 0.191380 0.761274
vt 0.148153 0.761274
vt 0.110443 0.761274
vt 0.169766 0.761274
vt 0.002420 0.483227
vt 0.483145 0.303949
vt 0.885221 0.595414
vt 0.868359 0.734437
vt 0.885303 0.002420
vt 0.739489 0.734437
vt 0.129894 0.628960
vt 0.483145 0.861911
vt 0.975361 0.734437
vt 0.631779 0.866752
vt 0.652939 0.866752
vt 0.991135 0.002420
vt 0.842887 0.134735
vt 0.827986 0.504669
vt 0.562946 0.866752
vt 0.991638 0.568577
vt 0.541786 0.866752
vt 0.994517 0.429013
vt 0.827986 0.526283
vt 0.827986 0.569510
vt 0.973357 0.429013
vt 0.994970 0.158217
vt 0.996521 0.734437
vt 0.499465 0.866752
vt 0.784759 0.521442
vt 0.784759 0.526283
vt 0.584106 0.866752
vt 0.520625 0.866752
vt 0.605267 0.866752
vt 0.674100 0.866752
vt 0.827986 0.483056
vt 0.844759 0.564669
vt 0.957037 0.158217
vt 0.953201 0.002420
vt 0.957037 0.293615
vt 0.953705 0.568577
vt 0.617328 0.595414
vt 0.622168 0.729597
vt 0.935423 0.429013
vt 0.937428 0.734437
vt 0.935423 0.293615
vt 0.935423 0.158217
vt 0.756433 0.002420
vt 0.148153 0.756433
s 0
f 2/1/1 3/2/1 1/3/1
f 4/4/2 7/5/2 3/6/2
f 8/7/3 5/8/3 7/9/3
f 6/10/4 1/11/4 5/12/4
f 7/13/5 1/14/5 3/15/5
f 4/16/6 6/17/6 8/18/6
f 10/19/1 11/20/1 9/21/1
f 12/22/2 15/23/2 11/24/2
f 16/25/3 13/26/3 15/27/3
f 14/28/4 9/29/4 13/30/4
f 15/31/5 9/32/5 11/33/5
f 12/34/6 14/35/6 16/36/6
f 18/37/1 19/38/1 17/39/1
f 20/40/2 23/41/2 19/42/2
f 24/43/3 21/44/3 23/45/3
f 22/46/4 17/47/4 21/48/4
f 23/49/5 17/50/5 19/51/5
f 20/52/6 22/53/6 24/54/6
f 26/55/1 27/56/1 25/57/1
f 28/58/2 31/59/2 27/60/2
f 32/61/3 29/62/3 31/63/3
f 30/64/4 25/65/4 29/66/4
f 31/67/5 25/68/5 27/69/5
f 28/70/6 30/71/6 32/72/6
f 34/73/1 35/74/1 33/75/1
f 36/76/2 39/77/2 35/78/2
f 40/79/3 37/80/3 39/81/3
f 38/82/4 33/83/4 37/84/4
f 39/85/5 33/86/5 35/87/5
f 36/88/6 38/89/6 40/90/6
f 42/91/1 43/92/1 41/93/1
f 44/94/2 47/95/2 43/96/2
f 48/97/3 45/98/3 47/99/3
f 46/100/4 41/101/4 45/102/4
f 47/103/5 41/104/5 43/105/5
f 44/106/6 46/107/6 48/108/6
f 50/109/1 51/110/1 49/111/1
f 52/112/2 55/113/2 51/114/2
f 56/115/3 53/116/3 55/117/3
f 54/118/4 49/119/4 53/120/4
f 55/121/5 49/122/5 51/123/5
f 52/124/6 54/125/6 56/126/6
f 58/127/7 59/128/7 57/129/7
f 60/130/8 63/131/8 59/132/8
f 64/133/9 61/134/9 63/135/9
f 62/136/10 57/137/10 61/138/10
f 63/139/5 57/140/5 59/141/5
f 64/142/6 58/143/6 62/144/6
f 66/145/7 67/146/7 65/147/7
f 68/148/8 71/149/8 67/150/8
f 72/151/9 69/152/9 71/153/9
f 70/154/10 65/155/10 69/156/10
f 71/157/5 65/158/5 67/159/5
f 68/160/6 70/161/6 72/162/6
f 74/163/7 75/164/7 73/165/7
f 76/166/8 79/167/8 75/168/8
f 80/169/9 77/170/9 79/171/9
f 78/172/10 73/173/10 77/174/10
f 79/175/5 73/176/5 75/177/5
f 76/178/6 78/179/6 80/180/6
f 82/181/7 83/182/7 81/183/7
f 84/184/8 87/185/8 83/186/8
f 88/187/9 85/188/9 87/189/9
f 86/190/10 81/191/10 85/192/10
f 87/193/5 81/194/5 83/195/5
f 84/196/6 86/197/6 88/198/6
f 90/199/7 91/200/7 89/201/7
f 92/202/8 95/203/8 91/204/8
f 96/205/9 93/206/9 95/207/9
f 94/208/10 89/209/10 93/210/10
f 95/211/5 89/212/5 91/213/5
f 92/214/6 94/215/6 96/216/6
f 98/217/7 99/218/7 97/219/7
f 100/220/8 103/221/8 99/222/8
f 104/223/9 101/224/9 103/225/9
f 102/226/10 97/227/10 101/228/10
f 103/229/5 97/230/5 99/231/5
f 100/232/6 102/233/6 104/234/6
f 106/235/7 107/236/7 105/237/7
f 108/238/8 111/239/8 107/240/8
f 112/241/9 109/242/9 111/243/9
f 110/244/10 105/245/10 109/246/10
f 111/247/5 105/248/5 107/249/5
f 108/250/6 110/251/6 112/252/6
f 114/253/11 115/254/11 113/255/11
f 116/256/12 119/257/12 115/258/12
f 120/259/13 117/260/13 119/261/13
f 118/262/14 113/263/14 117/264/14
f 119/265/5 113/266/5 115/267/5
f 116/268/6 118/269/6 120/270/6
f 122/271/11 123/272/11 121/273/11
f 124/274/12 127/275/12 123/276/12
f 128/277/13 125/278/13 127/279/13
f 126/280/14 121/281/14 125/282/14
f 127/283/5 121/284/5 123/285/5
f 124/286/6 126/287/6 128/288/6
f 130/289/11 131/290/11 129/291/11
f 132/292/12 135/293/12 131/294/12
f 136/295/13 133/296/13 135/297/13
f 134/298/14 129/299/14 133/300/14
f 135/301/5 129/302/5 131/303/5
f 132/304/6 134/305/6 136/306/6
f 138/307/11 139/308/11 137/309/11
f 140/310/12 143/311/12 139/312/12
f 144/313/13 141/314/13 143/315/13
f 142/316/14 137/317/14 141/318/14
f 139/319/5 141/320/5 137/321/5
f 140/322/6 142/323/6 144/324/6
f 146/325/11 147/326/11 145/327/11
f 148/328/12 151/329/12 147/330/12
f 152/331/13 149/332/13 151/333/13
f 150/334/14 145/335/14 149/336/14
f 151/337/5 145/338/5 147/339/5
f 152/340/6 146/341/6 150/342/6
f 154/343/11 155/344/11 153/345/11
f 156/346/12 159/347/12 155/348/12
f 160/349/13 157/350/13 159/351/13
f 158/352/14 153/353/14 157/354/14
f 159/355/5 153/356/5 155/357/5
f 156/358/6 158/359/6 160/360/6
f 162/361/11 163/362/11 161/363/11
f 164/364/12 167/365/12 163/366/12
f 168/367/13 165/368/13 167/369/13
f 166/370/14 161/371/14 165/372/14
f 167/373/5 161/374/5 163/375/5
f 164/376/6 166/377/6 168/378/6
f 2/1/1 4/379/1 3/2/1
f 4/4/2 8/380/2 7/5/2
f 8/7/3 6/381/3 5/8/3
f 6/10/4 2/382/4 1/11/4
f 7/13/5 5/383/5 1/14/5
f 4/16/6 2/384/6 6/17/6
f 10/19/1 12/385/1 11/20/1
f 12/22/2 16/386/2 15/23/2
f 16/25/3 14/387/3 13/26/3
f 14/28/4 10/388/4 9/29/4
f 15/31/5 13/389/5 9/32/5
f 12/34/6 10/390/6 14/35/6
f 18/37/1 20/391/1 19/38/1
f 20/40/2 24/392/2 23/41/2
f 24/43/3 22/393/3 21/44/3
f 22/46/4 18/394/4 17/47/4
f 23/49/5 21/395/5 17/50/5
f 20/52/6 18/396/6 22/53/6
f 26/55/1 28/397/1 27/56/1
f 28/58/2 32/398/2 31/59/2
f 32/61/3 30/399/3 29/62/3
f 30/64/4 26/400/4 25/65/4
f 31/67/5 29/401/5 25/68/5
f 28/70/6 26/402/6 30/71/6
f 34/73/1 36/403/1 35/74/1
f 36/76/2 40/404/2 39/77/2
f 40/79/3 38/405/3 37/80/3
f 38/82/4 34/406/4 33/83/4
f 39/85/5 37/407/5 33/86/5
f 36/88/6 34/408/6 38/89/6
f 42/91/1 44/409/1 43/92/1
f 44/94/2 48/410/2 47/95/2
f 48/97/3 46/411/3 45/98/3
f 46/100/4 42/412/4 41/101/4
f 47/103/5 45/413/5 41/104/5
f 44/106/6 42/414/6 46/107/6
f 50/109/1 52/415/1 51/110/1
f 52/112/2 56/416/2 55/113/2
f 56/115/3 54/417/3 53/116/3
f 54/118/4 50/418/4 49/119/4
f 55/121/5 53/419/5 49/122/5
f 52/124/6 50/420/6 54/125/6
f 58/127/7 60/421/7 59/128/7
f 60/130/8 64/422/8 63/131/8
f 64/133/9 62/423/9 61/134/9
f 62/136/10 58/424/10 57/137/10
f 63/139/5 61/425/5 57/140/5
f 64/142/6 60/426/6 58/143/6
f 66/145/7 68/427/7 67/146/7
f 68/148/8 72/428/8 71/149/8
f 72/151/9 70/429/9 69/152/9
f 70/154/10 66/430/10 65/155/10
f 71/157/5 69/431/5 65/158/5
f 68/160/6 66/432/6 70/161/6
f 74/163/7 76/433/7 75/164/7
f 76/166/8 80/434/8 79/167/8
f 80/169/9 78/435/9 77/170/9
f 78/172/10 74/436/10 73/173/10
f 79/175/5 77/437/5 73/176/5
f 76/178/6 74/438/6 78/179/6
f 82/181/7 84/439/7 83/182/7
f 84/184/8 88/440/8 87/185/8
f 88/187/9 86/441/9 85/188/9
f 86/190/10 82/442/10 81/191/10
f 87/193/5 85/443/5 81/194/5
f 84/196/6 82/444/6 86/197/6
f 90/199/7 92/445/7 91/200/7
f 92/202/8 96/446/8 95/203/8
f 96/205/9 94/447/9 93/206/9
f 94/208/10 90/448/10 89/209/10
f 95/211/5 93/449/5 89/212/5
f 92/214/6 90/450/6 94/215/6
f 98/217/7 100/451/7 99/218/7
f 100/220/8 104/452/8 103/221/8
f 104/223/9 102/453/9 101/224/9
f 102/226/10 98/454/10 97/227/10
f 103/229/5 101/455/5 97/230/5
f 100/232/6 98/456/6 102/233/6
f 106/235/7 108/457/7 107/236/7
f 108/238/8 112/458/8 111/239/8
f 112/241/9 110/459/9 109/242/9
f 110/244/10 106/460/10 105/245/10
f 111/247/5 109/461/5 105/248/5
f 108/250/6 106/462/6 110/251/6
f 114/253/11 116/463/11 115/254/11
f 116/256/12 120/464/12 119/257/12
f 120/259/13 118/465/13 117/260/13
f 118/262/14 114/466/14 113/263/14
f 119/265/5 117/467/5 113/266/5
f 116/268/6 114/468/6 118/269/6
f 122/271/11 124/469/11 123/272/11
f 124/274/12 128/470/12 127/275/12
f 128/277/13 126/471/13 125/278/13
f 126/280/14 122/472/14 121/281/14
f 127/283/5 125/473/5 121/284/5
f 124/286/6 122/474/6 126/287/6
f 130/289/11 132/475/11 131/290/11
f 132/292/12 136/476/12 135/293/12
f 136/295/13 134/477/13 133/296/13
f 134/298/14 130/478/14 129/299/14
f 135/301/5 133/479/5 129/302/5
f 132/304/6 130/480/6 134/305/6
f 138/307/11 140/481/11 139/308/11
f 140/310/12 144/482/12 143/311/12
f 144/313/13 142/483/13 141/314/13
f 142/316/14 138/484/14 137/317/14
f 139/319/5 143/485/5 141/320/5
f 140/322/6 138/486/6 142/323/6
f 146/325/11 148/487/11 147/326/11
f 148/328/12 152/488/12 151/329/12
f 152/331/13 150/489/13 149/332/13
f 150/334/14 146/490/14 145/335/14
f 151/337/5 149/491/5 145/338/5
f 152/340/6 148/492/6 146/341/6
f 154/343/11 156/493/11 155/344/11
f 156/346/12 160/494/12 159/347/12
f 160/349/13 158/495/13 157/350/13
f 158/352/14 154/496/14 153/353/14
f 159/355/5 157/497/5 153/356/5
f 156/358/6 154/498/6 158/359/6
f 162/361/11 164/499/11 163/362/11
f 164/364/12 168/500/12 167/365/12
f 168/367/13 166/501/13 165/368/13
f 166/370/14 162/502/14 161/371/14
f 167/373/5 165/503/5 161/374/5
f 164/376/6 162/504/6 166/377/6
