# Blender 4.5.13 LTS
# www.blender.org
o timber
v 1.570595 0.000000 -0.650562
v 0.650562 0.000000 -1.570595
v -0.650562 0.000000 -1.570595
v -1.570595 0.000000 -0.650562
v -1.570595 0.000000 0.650562
v -0.650562 0.000000 1.570595
v 0.650562 0.000000 1.570595
v 1.570595 0.000000 0.650562
v 1.570595 0.320000 -0.650562
v 0.650562 0.320000 -1.570595
v -0.650562 0.320000 -1.570595
v -1.570595 0.320000 -0.650562
v -1.570595 0.320000 0.650562
v -0.650562 0.320000 1.570595
v 0.650562 0.320000 1.570595
v 1.570595 0.320000 0.650562
v 1.432013 0.320000 -0.593159
v 0.593159 0.320000 -1.432013
v -0.593159 0.320000 -1.432013
v -1.432013 0.320000 -0.593159
v -1.432013 0.320000 0.593159
v -0.593159 0.320000 1.432013
v 0.593159 0.320000 1.432013
v 1.432013 0.320000 0.593159
v 1.432013 0.060000 -0.593159
v 0.593159 0.060000 -1.432013
v -0.593159 0.060000 -1.432013
v -1.432013 0.060000 -0.593159
v -1.432013 0.060000 0.593159
v -0.593159 0.060000 1.432013
v 0.593159 0.060000 1.432013
v 1.432013 0.060000 0.593159
v 0.000000 0.060000 0.000000
v 0.000000 0.060000 0.000000
v 0.000000 0.060000 0.000000
v 0.000000 0.060000 0.000000
v 0.000000 0.060000 0.000000
v 0.000000 0.060000 0.000000
v 0.000000 0.060000 0.000000
v 0.000000 0.060000 0.000000
v -0.596986 0.060000 -1.441252
v -0.596986 0.090000 -1.441252
v 0.596986 0.060000 -1.441252
v 0.596986 0.090000 -1.441252
v 1.441252 0.060000 -0.596986
v 1.441252 0.090000 -0.596986
v 1.441252 0.060000 0.596986
v 1.441252 0.090000 0.596986
v 0.596986 0.060000 1.441252
v 0.596986 0.090000 1.441252
v -0.596986 0.060000 1.441252
v -0.596986 0.090000 1.441252
v -1.441252 0.060000 0.596986
v -1.441252 0.090000 0.596986
v -1.441252 0.060000 -0.596986
v -1.441252 0.090000 -0.596986
vn 0.7071 -0.0000 -0.7071
vn -0.0000 -0.0000 -1.0000
vn -0.7071 -0.0000 -0.7071
vn -1.0000 -0.0000 -0.0000
vn -0.7071 -0.0000 0.7071
vn -0.0000 -0.0000 1.0000
vn 0.7071 -0.0000 0.7071
vn 1.0000 -0.0000 -0.0000
vn -0.0000 1.0000 -0.0000
vn -0.0000 -1.0000 -0.0000
vt 0.735609 0.000767
vt 0.735609 0.150858
vt 0.698696 0.150858
vt 0.698696 0.000767
vt 0.735609 0.256987
vt 0.698696 0.256987
vt 0.735609 0.258522
vt 0.735609 0.408612
vt 0.698696 0.408612
vt 0.698696 0.258522
vt 0.735609 0.514742
vt 0.698696 0.514742
vt 0.735609 0.516277
vt 0.735609 0.666367
vt 0.698696 0.666367
vt 0.698696 0.516277
vt 0.735609 0.772497
vt 0.698696 0.772497
vt 0.774057 0.000767
vt 0.774057 0.150858
vt 0.737144 0.150858
vt 0.737144 0.000767
vt 0.774057 0.256987
vt 0.737144 0.256987
vt 0.256987 0.363117
vt 0.106897 0.363117
vt 0.113519 0.347131
vt 0.250366 0.347131
vt 0.000767 0.256987
vt 0.016753 0.250366
vt 0.000767 0.106897
vt 0.016753 0.113519
vt 0.106897 0.000767
vt 0.113519 0.016753
vt 0.256987 0.000767
vt 0.250366 0.016753
vt 0.363117 0.106897
vt 0.347131 0.113519
vt 0.363117 0.256987
vt 0.347131 0.250366
vt 0.737144 0.492134
vt 0.737144 0.355287
vt 0.767136 0.355287
vt 0.767136 0.492134
vt 0.737144 0.258522
vt 0.767136 0.258522
vt 0.737144 0.727281
vt 0.737144 0.590435
vt 0.767136 0.590435
vt 0.767136 0.727281
vt 0.737144 0.493669
vt 0.767136 0.493669
vt 0.768671 0.492134
vt 0.768671 0.355287
vt 0.798663 0.355287
vt 0.798663 0.492134
vt 0.768671 0.258522
vt 0.798663 0.258522
vt 0.768671 0.727281
vt 0.768671 0.590435
vt 0.798663 0.590435
vt 0.798663 0.727281
vt 0.768671 0.493669
vt 0.798663 0.493669
vt 0.598264 0.999233
vt 0.461417 0.999233
vt 0.529841 0.834044
vt 0.364652 0.902467
vt 0.364652 0.765620
vt 0.461417 0.668855
vt 0.598264 0.668855
vt 0.695029 0.765620
vt 0.695029 0.902467
vt 0.106897 0.364652
vt 0.256987 0.364652
vt 0.363117 0.470782
vt 0.363117 0.620872
vt 0.256987 0.727001
vt 0.106897 0.727001
vt 0.000767 0.620872
vt 0.000767 0.470782
vt 0.779053 0.235887
vt 0.775592 0.235887
vt 0.775592 0.138497
vt 0.779053 0.138497
vt 0.775592 0.000767
vt 0.779053 0.000767
vt 0.784048 0.235887
vt 0.780587 0.235887
vt 0.780587 0.138497
vt 0.784048 0.138497
vt 0.780587 0.000767
vt 0.784048 0.000767
vt 0.789044 0.235887
vt 0.785583 0.235887
vt 0.785583 0.138497
vt 0.789044 0.138497
vt 0.785583 0.000767
vt 0.789044 0.000767
vt 0.462041 0.333276
vt 0.364652 0.235887
vt 0.364652 0.098157
vt 0.462041 0.000767
vt 0.599771 0.000767
vt 0.697161 0.098157
vt 0.697161 0.235887
vt 0.599771 0.333276
vt 0.794039 0.235887
vt 0.790578 0.235887
vt 0.790578 0.138497
vt 0.794039 0.138497
vt 0.790578 0.000767
vt 0.794039 0.000767
vt 0.364652 0.569931
vt 0.364652 0.432201
vt 0.462041 0.334811
vt 0.599771 0.334811
vt 0.697161 0.432201
vt 0.697161 0.569931
vt 0.599771 0.667320
vt 0.462041 0.667320
s 0
f 1/1/1 2/2/1 10/3/1 9/4/1
f 2/2/2 3/5/2 11/6/2 10/3/2
f 3/7/3 4/8/3 12/9/3 11/10/3
f 4/8/4 5/11/4 13/12/4 12/9/4
f 5/13/5 6/14/5 14/15/5 13/16/5
f 6/14/6 7/17/6 15/18/6 14/15/6
f 7/19/7 8/20/7 16/21/7 15/22/7
f 8/20/8 1/23/8 9/24/8 16/21/8
f 9/25/9 10/26/9 18/27/9 17/28/9
f 10/26/9 11/29/9 19/30/9 18/27/9
f 11/29/9 12/31/9 20/32/9 19/30/9
f 12/31/9 13/33/9 21/34/9 20/32/9
f 13/33/9 14/35/9 22/36/9 21/34/9
f 14/35/9 15/37/9 23/38/9 22/36/9
f 15/37/9 16/39/9 24/40/9 23/38/9
f 16/39/9 9/25/9 17/28/9 24/40/9
f 17/41/5 18/42/5 26/43/5 25/44/5
f 18/42/6 19/45/6 27/46/6 26/43/6
f 19/47/7 20/48/7 28/49/7 27/50/7
f 20/48/8 21/51/8 29/52/8 28/49/8
f 21/53/1 22/54/1 30/55/1 29/56/1
f 22/54/2 23/57/2 31/58/2 30/55/2
f 23/59/3 24/60/3 32/61/3 31/62/3
f 24/60/4 17/63/4 25/64/4 32/61/4
f 25/65/9 26/66/9 34/67/9 33/67/9
f 26/66/9 27/68/9 35/67/9 34/67/9
f 27/68/9 28/69/9 36/67/9 35/67/9
f 28/69/9 29/70/9 37/67/9 36/67/9
f 29/70/9 30/71/9 38/67/9 37/67/9
f 30/71/9 31/72/9 39/67/9 38/67/9
f 31/72/9 32/73/9 40/67/9 39/67/9
f 32/73/9 25/65/9 33/67/9 40/67/9
f 8/74/10 7/75/10 6/76/10 5/77/10 4/78/10 3/79/10 2/80/10 1/81/10
f 41/82/2 42/83/2 44/84/2 43/85/2
f 43/85/1 44/84/1 46/86/1 45/87/1
f 45/88/8 46/89/8 48/90/8 47/91/8
f 47/91/7 48/90/7 50/92/7 49/93/7
f 49/94/6 50/95/6 52/96/6 51/97/6
f 51/97/5 52/96/5 54/98/5 53/99/5
f 44/100/9 42/101/9 56/102/9 54/103/9 52/104/9 50/105/9 48/106/9 46/107/9
f 53/108/4 54/109/4 56/110/4 55/111/4
f 55/111/3 56/110/3 42/112/3 41/113/3
f 41/114/10 43/115/10 45/116/10 47/117/10 49/118/10 51/119/10 53/120/10 55/121/10
