# Blender 4.5.13 LTS
# www.blender.org
o door
v -0.165607 -0.037096 0.612281
v -0.169584 0.022605 0.616758
v -0.397037 0.031045 -0.501899
v -0.401013 0.090745 -0.497422
v 0.401013 0.009255 0.497422
v 0.397037 0.068955 0.501899
v 0.169584 0.077395 -0.616758
v 0.165607 0.137096 -0.612281
v 0.239222 0.005000 -0.113817
v 0.239222 0.035000 -0.113817
v 0.189667 0.005000 -0.120472
v 0.189667 0.035000 -0.120472
v 0.265773 0.005000 -0.311527
v 0.265773 0.035000 -0.311527
v 0.216218 0.005000 -0.318182
v 0.216218 0.035000 -0.318182
v 0.372557 0.005000 -0.384389
v 0.372557 0.035000 -0.384389
v 0.322584 0.005000 -0.386060
v 0.322584 0.035000 -0.386060
v 0.379736 0.005000 -0.599074
v 0.379736 0.035000 -0.599074
v 0.329763 0.005000 -0.600745
v 0.329763 0.035000 -0.600745
v -0.360919 0.005000 0.941205
v -0.360919 0.035000 0.941205
v -0.405774 0.005000 0.919113
v -0.405774 0.035000 0.919113
v -0.227691 0.005000 0.670709
v -0.227691 0.035000 0.670709
v -0.272546 0.005000 0.648617
v -0.272546 0.035000 0.648617
v -0.625698 0.005000 -0.346351
v -0.625698 0.035000 -0.346351
v -0.657785 0.005000 -0.384698
v -0.657785 0.035000 -0.384698
v -0.375980 0.005000 -0.555306
v -0.375980 0.035000 -0.555306
v -0.408067 0.005000 -0.593652
v -0.408067 0.035000 -0.593652
v -0.463126 0.005000 -0.723326
v -0.463126 0.035000 -0.723326
v -0.503073 0.005000 -0.693256
v -0.503073 0.035000 -0.693256
v -0.595322 0.005000 -0.898940
v -0.595322 0.035000 -0.898940
v -0.635269 0.005000 -0.868869
v -0.635269 0.035000 -0.868869
v 0.046201 0.005000 0.931343
v 0.046201 0.035000 0.931343
v 0.004488 0.005000 0.903775
v 0.004488 0.035000 0.903775
v 0.273648 0.005000 0.587201
v 0.273648 0.035000 0.587201
v 0.231935 0.005000 0.559633
v 0.231935 0.035000 0.559633
v 0.370500 0.010000 -0.450352
v 0.370500 0.030000 -0.450352
v 0.338289 0.010000 -0.488594
v 0.338289 0.030000 -0.488594
v 0.561711 0.010000 -0.611406
v 0.561711 0.030000 -0.611406
v 0.529500 0.010000 -0.649648
v 0.529500 0.030000 -0.649648
vn -0.9769 -0.0799 0.1980
vn -0.2030 0.0598 -0.9774
vn 0.9769 0.0799 -0.1980
vn 0.2030 -0.0598 0.9774
vn 0.0663 -0.9950 -0.0746
vn -0.0663 0.9950 0.0746
vn -0.1331 -0.0000 0.9911
vn -0.9911 -0.0000 -0.1331
vn 0.1331 -0.0000 -0.9911
vn 0.9911 -0.0000 0.1331
vn -0.0000 -1.0000 -0.0000
vn -0.0000 1.0000 -0.0000
vn -0.0334 -0.0000 0.9994
vn -0.9994 -0.0000 -0.0334
vn 0.0334 -0.0000 -0.9994
vn 0.9994 -0.0000 0.0334
vn -0.4418 -0.0000 0.8971
vn -0.8971 -0.0000 -0.4418
vn 0.4418 -0.0000 -0.8971
vn 0.8971 -0.0000 0.4418
vn -0.7669 -0.0000 0.6417
vn -0.6417 -0.0000 -0.7669
vn 0.7669 -0.0000 -0.6417
vn 0.6417 -0.0000 0.7669
vn 0.6014 -0.0000 0.7989
vn -0.7989 -0.0000 0.6014
vn -0.6014 -0.0000 -0.7989
vn 0.7989 -0.0000 -0.6014
vn -0.5514 -0.0000 0.8343
vn -0.8343 -0.0000 -0.5514
vn 0.5514 -0.0000 -0.8343
vn 0.8343 -0.0000 0.5514
vn -0.7648 -0.0000 0.6442
vn -0.6442 -0.0000 -0.7648
vn 0.7648 -0.0000 -0.6442
vn 0.6442 -0.0000 0.7648
vt 0.841392 0.568544
vt 0.800217 0.569203
vt 0.800217 0.001838
vt 0.841392 0.001179
vt 0.841027 0.865694
vt 0.800217 0.861892
vt 0.800217 0.571562
vt 0.841027 0.575364
vt 0.843751 0.001179
vt 0.884927 0.001838
vt 0.884927 0.569203
vt 0.843751 0.568544
vt 0.843386 0.575364
vt 0.884196 0.571562
vt 0.884196 0.861893
vt 0.843386 0.865694
vt 0.001179 0.001179
vt 0.398339 0.002639
vt 0.398339 0.784114
vt 0.001179 0.782654
vt 0.400698 0.002639
vt 0.797858 0.001179
vt 0.797858 0.782655
vt 0.400698 0.784114
vt 0.760529 0.817768
vt 0.739935 0.817768
vt 0.739935 0.786473
vt 0.760529 0.786473
vt 0.475878 0.911332
vt 0.455285 0.911332
vt 0.455285 0.786473
vt 0.475878 0.786473
vt 0.737576 0.817768
vt 0.716983 0.817768
vt 0.716983 0.786473
vt 0.737576 0.786473
vt 0.498831 0.911331
vt 0.478237 0.911331
vt 0.478237 0.786473
vt 0.498831 0.786473
vt 0.257939 0.923401
vt 0.257939 0.786473
vt 0.292261 0.786475
vt 0.292261 0.923404
vt 0.255580 0.786473
vt 0.255580 0.923401
vt 0.221259 0.923404
vt 0.221259 0.786475
vt 0.783481 0.848293
vt 0.762887 0.848293
vt 0.762887 0.818563
vt 0.783481 0.818563
vt 0.429974 0.914199
vt 0.409381 0.914199
vt 0.409381 0.786473
vt 0.429974 0.786473
vt 0.783481 0.816204
vt 0.762887 0.816204
vt 0.762887 0.786473
vt 0.783481 0.786473
vt 0.452926 0.914199
vt 0.432333 0.914199
vt 0.432333 0.786473
vt 0.452926 0.786473
vt 0.147899 0.933918
vt 0.147899 0.786473
vt 0.182220 0.786476
vt 0.182220 0.933920
vt 0.218900 0.786473
vt 0.218900 0.933918
vt 0.184579 0.933920
vt 0.184579 0.786476
vt 0.622815 0.820627
vt 0.602222 0.820627
vt 0.602222 0.786473
vt 0.622815 0.786473
vt 0.361117 0.992441
vt 0.340524 0.992441
vt 0.340524 0.786473
vt 0.361117 0.786473
vt 0.599863 0.820627
vt 0.579270 0.820627
vt 0.579270 0.786473
vt 0.599863 0.786473
vt 0.338165 0.992441
vt 0.317572 0.992441
vt 0.317572 0.786473
vt 0.338165 0.786473
vt 0.923967 0.208145
vt 0.923967 0.001180
vt 0.958289 0.001181
vt 0.958289 0.208146
vt 0.958289 0.210505
vt 0.958289 0.417471
vt 0.923967 0.417472
vt 0.923967 0.210506
vt 0.645767 0.819081
vt 0.625174 0.819081
vt 0.625174 0.786473
vt 0.645767 0.786473
vt 0.315213 0.998821
vt 0.294619 0.998821
vt 0.294620 0.786473
vt 0.315213 0.786473
vt 0.668720 0.819081
vt 0.648126 0.819081
vt 0.648126 0.786473
vt 0.668720 0.786473
vt 0.981241 0.498946
vt 0.960648 0.498946
vt 0.960648 0.286599
vt 0.981241 0.286599
vt 0.887286 0.510180
vt 0.887286 0.286685
vt 0.921608 0.286684
vt 0.921608 0.510180
vt 0.957558 0.571563
vt 0.957558 0.795058
vt 0.923236 0.795058
vt 0.923236 0.571562
vt 0.714624 0.818486
vt 0.694031 0.818486
vt 0.694031 0.786473
vt 0.714624 0.786473
vt 0.384070 0.927209
vt 0.363476 0.927209
vt 0.363476 0.786473
vt 0.384070 0.786473
vt 0.691672 0.818486
vt 0.671078 0.818486
vt 0.671078 0.786473
vt 0.691672 0.786473
vt 0.407022 0.927209
vt 0.386428 0.927209
vt 0.386428 0.786473
vt 0.407022 0.786473
vt 0.074542 0.937359
vt 0.074542 0.786473
vt 0.108861 0.786474
vt 0.108861 0.937360
vt 0.145540 0.786473
vt 0.145540 0.937359
vt 0.111220 0.937360
vt 0.111220 0.786474
vt 0.553958 0.820782
vt 0.533365 0.820782
vt 0.533365 0.786473
vt 0.553958 0.786473
vt 0.980511 0.854623
vt 0.959917 0.854623
vt 0.959917 0.571562
vt 0.980511 0.571562
vt 0.576911 0.820782
vt 0.556317 0.820782
vt 0.556317 0.786473
vt 0.576911 0.786473
vt 0.981241 0.284240
vt 0.960648 0.284240
vt 0.960648 0.001179
vt 0.981241 0.001179
vt 0.886555 0.854707
vt 0.886555 0.571562
vt 0.920877 0.571563
vt 0.920877 0.854708
vt 0.921608 0.001179
vt 0.921608 0.284324
vt 0.887286 0.284325
vt 0.887286 0.001180
vt 0.730712 0.852769
vt 0.716983 0.852769
vt 0.716983 0.820127
vt 0.730712 0.820127
vt 0.531006 0.949685
vt 0.517277 0.949685
vt 0.517277 0.786473
vt 0.531006 0.786473
vt 0.746800 0.852769
vt 0.733071 0.852769
vt 0.733071 0.820127
vt 0.746800 0.820127
vt 0.514918 0.949685
vt 0.501190 0.949685
vt 0.501190 0.786473
vt 0.514918 0.786473
vt 0.037861 0.958072
vt 0.037861 0.786474
vt 0.072183 0.786473
vt 0.072183 0.958071
vt 0.035502 0.786474
vt 0.035502 0.958072
vt 0.001179 0.958071
vt 0.001179 0.786473
s 0
f 1/1/1 2/2/1 4/3/1 3/4/1
f 3/5/2 4/6/2 8/7/2 7/8/2
f 7/9/3 8/10/3 6/11/3 5/12/3
f 5/13/4 6/14/4 2/15/4 1/16/4
f 3/17/5 7/18/5 5/19/5 1/20/5
f 8/21/6 4/22/6 2/23/6 6/24/6
f 9/25/7 10/26/7 12/27/7 11/28/7
f 11/29/8 12/30/8 16/31/8 15/32/8
f 15/33/9 16/34/9 14/35/9 13/36/9
f 13/37/10 14/38/10 10/39/10 9/40/10
f 11/41/11 15/42/11 13/43/11 9/44/11
f 16/45/12 12/46/12 10/47/12 14/48/12
f 17/49/13 18/50/13 20/51/13 19/52/13
f 19/53/14 20/54/14 24/55/14 23/56/14
f 23/57/15 24/58/15 22/59/15 21/60/15
f 21/61/16 22/62/16 18/63/16 17/64/16
f 19/65/11 23/66/11 21/67/11 17/68/11
f 24/69/12 20/70/12 18/71/12 22/72/12
f 25/73/17 26/74/17 28/75/17 27/76/17
f 27/77/18 28/78/18 32/79/18 31/80/18
f 31/81/19 32/82/19 30/83/19 29/84/19
f 29/85/20 30/86/20 26/87/20 25/88/20
f 27/89/11 31/90/11 29/91/11 25/92/11
f 32/93/12 28/94/12 26/95/12 30/96/12
f 33/97/21 34/98/21 36/99/21 35/100/21
f 35/101/22 36/102/22 40/103/22 39/104/22
f 39/105/23 40/106/23 38/107/23 37/108/23
f 37/109/24 38/110/24 34/111/24 33/112/24
f 35/113/11 39/114/11 37/115/11 33/116/11
f 40/117/12 36/118/12 34/119/12 38/120/12
f 41/121/25 42/122/25 44/123/25 43/124/25
f 43/125/26 44/126/26 48/127/26 47/128/26
f 47/129/27 48/130/27 46/131/27 45/132/27
f 45/133/28 46/134/28 42/135/28 41/136/28
f 43/137/11 47/138/11 45/139/11 41/140/11
f 48/141/12 44/142/12 42/143/12 46/144/12
f 49/145/29 50/146/29 52/147/29 51/148/29
f 51/149/30 52/150/30 56/151/30 55/152/30
f 55/153/31 56/154/31 54/155/31 53/156/31
f 53/157/32 54/158/32 50/159/32 49/160/32
f 51/161/11 55/162/11 53/163/11 49/164/11
f 56/165/12 52/166/12 50/167/12 54/168/12
f 57/169/33 58/170/33 60/171/33 59/172/33
f 59/173/34 60/174/34 64/175/34 63/176/34
f 63/177/35 64/178/35 62/179/35 61/180/35
f 61/181/36 62/182/36 58/183/36 57/184/36
f 59/185/11 63/186/11 61/187/11 57/188/11
f 64/189/12 60/190/12 58/191/12 62/192/12
