# The Giants of Holst prop, from CC0 kits by KayKit (Kay Lousberg) and Kenney
v -3.3250 -0.1750 0.1750
vt 0.7930 0.8125
vn 0.9121 -0.0000 0.4100
v -3.3250 1.4000 0.1750
vt 0.7930 0.9011
vn 0.9121 -0.0000 0.4100
v -3.4037 1.4000 0.3500
vt 0.8008 0.9011
vn 0.9121 -0.0000 0.4100
v -3.4037 -0.1750 0.3500
vt 0.8008 0.8125
vn 0.9121 -0.0000 0.4100
f 1/1/1 2/2/2 3/3/3 4/4/4
v -3.5963 -0.1750 0.3500
vt 0.8008 0.8125
vn -0.9121 -0.0000 0.4100
v -3.5963 1.4000 0.3500
vt 0.8008 0.9011
vn -0.9121 -0.0000 0.4100
v -3.6750 1.4000 0.1750
vt 0.7930 0.9011
vn -0.9121 -0.0000 0.4100
v -3.6750 -0.1750 0.1750
vt 0.7930 0.8125
vn -0.9121 -0.0000 0.4100
f 5/5/5 6/6/6 7/7/7 8/8/8
v -3.6750 -0.1750 0.1750
vt 0.7930 0.8125
vn -0.9121 0.0000 -0.4100
v -3.6750 1.4000 0.1750
vt 0.7930 0.9011
vn -0.9121 0.0000 -0.4100
v -3.5963 1.4000 -0.0000
vt 0.7852 0.9011
vn -0.9121 0.0000 -0.4100
v -3.5963 -0.1750 -0.0000
vt 0.7852 0.8125
vn -0.9121 0.0000 -0.4100
f 9/9/9 10/10/10 11/11/11 12/12/12
v -3.5000 1.7500 0.1750
vt 0.6680 0.9299
vn 0.0000 0.4472 0.8944
v -3.5963 1.4000 0.3500
vt 0.6758 0.9011
vn 0.0000 0.4472 0.8944
v -3.4037 1.4000 0.3500
vt 0.6758 0.9011
vn 0.0000 0.4472 0.8944
f 13/13/13 14/14/14 15/15/15
v -3.4037 -0.1750 -0.0000
vt 0.7852 0.8125
vn 0.9121 0.0000 -0.4100
v -3.4037 1.4000 -0.0000
vt 0.7852 0.9011
vn 0.9121 0.0000 -0.4100
v -3.3250 1.4000 0.1750
vt 0.7930 0.9011
vn 0.9121 0.0000 -0.4100
v -3.3250 -0.1750 0.1750
vt 0.7930 0.8125
vn 0.9121 0.0000 -0.4100
f 16/16/16 17/17/17 18/18/18 19/19/19
v -3.5000 1.7500 0.1750
vt 0.6680 0.9299
vn 0.0000 0.4472 -0.8944
v -3.4037 1.4000 -0.0000
vt 0.6602 0.9011
vn 0.0000 0.4472 -0.8944
v -3.5963 1.4000 -0.0000
vt 0.6602 0.9011
vn 0.0000 0.4472 -0.8944
f 20/20/20 21/21/21 22/22/22
v -3.5000 1.7500 0.1750
vt 0.6680 0.9299
vn -0.8944 0.4472 0.0000
v -3.6750 1.4000 0.1750
vt 0.6680 0.9011
vn -0.8944 0.4472 0.0000
v -3.5963 1.4000 0.3500
vt 0.6758 0.9011
vn -0.8299 0.4149 0.3731
f 23/23/23 24/24/24 25/25/25
v -3.5000 1.7500 0.1750
vt 0.6680 0.9299
vn -0.8944 0.4472 0.0000
v -3.5963 1.4000 -0.0000
vt 0.6602 0.9011
vn -0.8299 0.4149 -0.3731
v -3.6750 1.4000 0.1750
vt 0.6680 0.9011
vn -0.8944 0.4472 0.0000
f 26/26/26 27/27/27 28/28/28
v -3.5000 1.7500 0.1750
vt 0.6680 0.9299
vn 0.8944 0.4472 0.0000
v -3.3250 1.4000 0.1750
vt 0.6680 0.9011
vn 0.8944 0.4472 0.0000
v -3.4037 1.4000 -0.0000
vt 0.6602 0.9011
vn 0.8299 0.4149 -0.3731
f 29/29/29 30/30/30 31/31/31
v -3.5000 1.7500 0.1750
vt 0.6680 0.9299
vn 0.8944 0.4472 0.0000
v -3.4037 1.4000 0.3500
vt 0.6758 0.9011
vn 0.8299 0.4149 0.3731
v -3.3250 1.4000 0.1750
vt 0.6680 0.9011
vn 0.8944 0.4472 0.0000
f 32/32/32 33/33/33 34/34/34
v -3.3250 -0.1750 0.5250
vt 0.7930 0.8125
vn 0.9121 -0.0000 0.4100
v -3.3250 1.4000 0.5250
vt 0.7930 0.9011
vn 0.9121 -0.0000 0.4100
v -3.4037 1.4000 0.7000
vt 0.8008 0.9011
vn 0.9121 -0.0000 0.4100
v -3.4037 -0.1750 0.7000
vt 0.8008 0.8125
vn 0.9121 -0.0000 0.4100
f 35/35/35 36/36/36 37/37/37 38/38/38
v -3.5963 -0.1750 0.7000
vt 0.8008 0.8125
vn -0.9121 -0.0000 0.4100
v -3.5963 1.4000 0.7000
vt 0.8008 0.9011
vn -0.9121 -0.0000 0.4100
v -3.6750 1.4000 0.5250
vt 0.7930 0.9011
vn -0.9121 -0.0000 0.4100
v -3.6750 -0.1750 0.5250
vt 0.7930 0.8125
vn -0.9121 -0.0000 0.4100
f 39/39/39 40/40/40 41/41/41 42/42/42
v -3.6750 -0.1750 0.5250
vt 0.7930 0.8125
vn -0.9121 0.0000 -0.4100
v -3.6750 1.4000 0.5250
vt 0.7930 0.9011
vn -0.9121 0.0000 -0.4100
v -3.5963 1.4000 0.3500
vt 0.7852 0.9011
vn -0.9121 0.0000 -0.4100
v -3.5963 -0.1750 0.3500
vt 0.7852 0.8125
vn -0.9121 0.0000 -0.4100
f 43/43/43 44/44/44 45/45/45 46/46/46
v -3.5000 1.7500 0.5250
vt 0.6680 0.9299
vn 0.0000 0.4472 0.8944
v -3.5963 1.4000 0.7000
vt 0.6758 0.9011
vn 0.0000 0.4472 0.8944
v -3.4037 1.4000 0.7000
vt 0.6758 0.9011
vn 0.0000 0.4472 0.8944
f 47/47/47 48/48/48 49/49/49
v -3.4037 -0.1750 0.3500
vt 0.7852 0.8125
vn 0.9121 0.0000 -0.4100
v -3.4037 1.4000 0.3500
vt 0.7852 0.9011
vn 0.9121 0.0000 -0.4100
v -3.3250 1.4000 0.5250
vt 0.7930 0.9011
vn 0.9121 0.0000 -0.4100
v -3.3250 -0.1750 0.5250
vt 0.7930 0.8125
vn 0.9121 0.0000 -0.4100
f 50/50/50 51/51/51 52/52/52 53/53/53
v -3.5000 1.7500 0.5250
vt 0.6680 0.9299
vn 0.0000 0.4472 -0.8944
v -3.4037 1.4000 0.3500
vt 0.6602 0.9011
vn 0.0000 0.4472 -0.8944
v -3.5963 1.4000 0.3500
vt 0.6602 0.9011
vn 0.0000 0.4472 -0.8944
f 54/54/54 55/55/55 56/56/56
v -3.5000 1.7500 0.5250
vt 0.6680 0.9299
vn -0.8944 0.4472 0.0000
v -3.6750 1.4000 0.5250
vt 0.6680 0.9011
vn -0.8944 0.4472 0.0000
v -3.5963 1.4000 0.7000
vt 0.6758 0.9011
vn -0.8299 0.4149 0.3731
f 57/57/57 58/58/58 59/59/59
v -3.5000 1.7500 0.5250
vt 0.6680 0.9299
vn -0.8944 0.4472 0.0000
v -3.5963 1.4000 0.3500
vt 0.6602 0.9011
vn -0.8299 0.4149 -0.3731
v -3.6750 1.4000 0.5250
vt 0.6680 0.9011
vn -0.8944 0.4472 0.0000
f 60/60/60 61/61/61 62/62/62
v -3.5000 1.7500 0.5250
vt 0.6680 0.9299
vn 0.8944 0.4472 0.0000
v -3.3250 1.4000 0.5250
vt 0.6680 0.9011
vn 0.8944 0.4472 0.0000
v -3.4037 1.4000 0.3500
vt 0.6602 0.9011
vn 0.8299 0.4149 -0.3731
f 63/63/63 64/64/64 65/65/65
v -3.5000 1.7500 0.5250
vt 0.6680 0.9299
vn 0.8944 0.4472 0.0000
v -3.4037 1.4000 0.7000
vt 0.6758 0.9011
vn 0.8299 0.4149 0.3731
v -3.3250 1.4000 0.5250
vt 0.6680 0.9011
vn 0.8944 0.4472 0.0000
f 66/66/66 67/67/67 68/68/68
v -3.3250 -0.1750 0.8750
vt 0.7930 0.8125
vn 0.9121 -0.0000 0.4100
v -3.3250 1.4000 0.8750
vt 0.7930 0.9011
vn 0.9121 -0.0000 0.4100
v -3.4037 1.4000 1.0500
vt 0.8008 0.9011
vn 0.9121 -0.0000 0.4100
v -3.4037 -0.1750 1.0500
vt 0.8008 0.8125
vn 0.9121 -0.0000 0.4100
f 69/69/69 70/70/70 71/71/71 72/72/72
v -3.5963 -0.1750 1.0500
vt 0.8008 0.8125
vn -0.9121 -0.0000 0.4100
v -3.5963 1.4000 1.0500
vt 0.8008 0.9011
vn -0.9121 -0.0000 0.4100
v -3.6750 1.4000 0.8750
vt 0.7930 0.9011
vn -0.9121 -0.0000 0.4100
v -3.6750 -0.1750 0.8750
vt 0.7930 0.8125
vn -0.9121 -0.0000 0.4100
f 73/73/73 74/74/74 75/75/75 76/76/76
v -3.6750 -0.1750 0.8750
vt 0.7930 0.8125
vn -0.9121 0.0000 -0.4100
v -3.6750 1.4000 0.8750
vt 0.7930 0.9011
vn -0.9121 0.0000 -0.4100
v -3.5963 1.4000 0.7000
vt 0.7852 0.9011
vn -0.9121 0.0000 -0.4100
v -3.5963 -0.1750 0.7000
vt 0.7852 0.8125
vn -0.9121 0.0000 -0.4100
f 77/77/77 78/78/78 79/79/79 80/80/80
v -3.5000 1.7500 0.8750
vt 0.6680 0.9299
vn 0.0000 0.4472 0.8944
v -3.5963 1.4000 1.0500
vt 0.6758 0.9011
vn 0.0000 0.4472 0.8944
v -3.4037 1.4000 1.0500
vt 0.6758 0.9011
vn 0.0000 0.4472 0.8944
f 81/81/81 82/82/82 83/83/83
v -3.4037 -0.1750 0.7000
vt 0.7852 0.8125
vn 0.9121 0.0000 -0.4100
v -3.4037 1.4000 0.7000
vt 0.7852 0.9011
vn 0.9121 0.0000 -0.4100
v -3.3250 1.4000 0.8750
vt 0.7930 0.9011
vn 0.9121 0.0000 -0.4100
v -3.3250 -0.1750 0.8750
vt 0.7930 0.8125
vn 0.9121 0.0000 -0.4100
f 84/84/84 85/85/85 86/86/86 87/87/87
v -3.5000 1.7500 0.8750
vt 0.6680 0.9299
vn 0.0000 0.4472 -0.8944
v -3.4037 1.4000 0.7000
vt 0.6602 0.9011
vn 0.0000 0.4472 -0.8944
v -3.5963 1.4000 0.7000
vt 0.6602 0.9011
vn 0.0000 0.4472 -0.8944
f 88/88/88 89/89/89 90/90/90
v -3.5000 1.7500 0.8750
vt 0.6680 0.9299
vn -0.8944 0.4472 0.0000
v -3.6750 1.4000 0.8750
vt 0.6680 0.9011
vn -0.8944 0.4472 0.0000
v -3.5963 1.4000 1.0500
vt 0.6758 0.9011
vn -0.8299 0.4149 0.3731
f 91/91/91 92/92/92 93/93/93
v -3.5000 1.7500 0.8750
vt 0.6680 0.9299
vn -0.8944 0.4472 0.0000
v -3.5963 1.4000 0.7000
vt 0.6602 0.9011
vn -0.8299 0.4149 -0.3731
v -3.6750 1.4000 0.8750
vt 0.6680 0.9011
vn -0.8944 0.4472 0.0000
f 94/94/94 95/95/95 96/96/96
v -3.5000 1.7500 0.8750
vt 0.6680 0.9299
vn 0.8944 0.4472 0.0000
v -3.3250 1.4000 0.8750
vt 0.6680 0.9011
vn 0.8944 0.4472 0.0000
v -3.4037 1.4000 0.7000
vt 0.6602 0.9011
vn 0.8299 0.4149 -0.3731
f 97/97/97 98/98/98 99/99/99
v -3.5000 1.7500 0.8750
vt 0.6680 0.9299
vn 0.8944 0.4472 0.0000
v -3.4037 1.4000 1.0500
vt 0.6758 0.9011
vn 0.8299 0.4149 0.3731
v -3.3250 1.4000 0.8750
vt 0.6680 0.9011
vn 0.8944 0.4472 0.0000
f 100/100/100 101/101/101 102/102/102
v -3.3250 -0.1750 1.2250
vt 0.7930 0.8125
vn 0.9121 -0.0000 0.4100
v -3.3250 1.4000 1.2250
vt 0.7930 0.9011
vn 0.9121 -0.0000 0.4100
v -3.4037 1.4000 1.4000
vt 0.8008 0.9011
vn 0.9121 -0.0000 0.4100
v -3.4037 -0.1750 1.4000
vt 0.8008 0.8125
vn 0.9121 -0.0000 0.4100
f 103/103/103 104/104/104 105/105/105 106/106/106
v -3.5963 -0.1750 1.4000
vt 0.8008 0.8125
vn -0.9121 -0.0000 0.4100
v -3.5963 1.4000 1.4000
vt 0.8008 0.9011
vn -0.9121 -0.0000 0.4100
v -3.6750 1.4000 1.2250
vt 0.7930 0.9011
vn -0.9121 -0.0000 0.4100
v -3.6750 -0.1750 1.2250
vt 0.7930 0.8125
vn -0.9121 -0.0000 0.4100
f 107/107/107 108/108/108 109/109/109 110/110/110
v -3.6750 -0.1750 1.2250
vt 0.7930 0.8125
vn -0.9121 0.0000 -0.4100
v -3.6750 1.4000 1.2250
vt 0.7930 0.9011
vn -0.9121 0.0000 -0.4100
v -3.5963 1.4000 1.0500
vt 0.7852 0.9011
vn -0.9121 0.0000 -0.4100
v -3.5963 -0.1750 1.0500
vt 0.7852 0.8125
vn -0.9121 0.0000 -0.4100
f 111/111/111 112/112/112 113/113/113 114/114/114
v -3.5000 1.7500 1.2250
vt 0.6680 0.9299
vn 0.0000 0.4472 0.8944
v -3.5963 1.4000 1.4000
vt 0.6758 0.9011
vn 0.0000 0.4472 0.8944
v -3.4037 1.4000 1.4000
vt 0.6758 0.9011
vn 0.0000 0.4472 0.8944
f 115/115/115 116/116/116 117/117/117
v -3.4037 -0.1750 1.0500
vt 0.7852 0.8125
vn 0.9121 0.0000 -0.4100
v -3.4037 1.4000 1.0500
vt 0.7852 0.9011
vn 0.9121 0.0000 -0.4100
v -3.3250 1.4000 1.2250
vt 0.7930 0.9011
vn 0.9121 0.0000 -0.4100
v -3.3250 -0.1750 1.2250
vt 0.7930 0.8125
vn 0.9121 0.0000 -0.4100
f 118/118/118 119/119/119 120/120/120 121/121/121
v -3.5000 1.7500 1.2250
vt 0.6680 0.9299
vn 0.0000 0.4472 -0.8944
v -3.4037 1.4000 1.0500
vt 0.6602 0.9011
vn 0.0000 0.4472 -0.8944
v -3.5963 1.4000 1.0500
vt 0.6602 0.9011
vn 0.0000 0.4472 -0.8944
f 122/122/122 123/123/123 124/124/124
v -3.5000 1.7500 1.2250
vt 0.6680 0.9299
vn -0.8944 0.4472 0.0000
v -3.6750 1.4000 1.2250
vt 0.6680 0.9011
vn -0.8944 0.4472 0.0000
v -3.5963 1.4000 1.4000
vt 0.6758 0.9011
vn -0.8299 0.4149 0.3731
f 125/125/125 126/126/126 127/127/127
v -3.5000 1.7500 1.2250
vt 0.6680 0.9299
vn -0.8944 0.4472 0.0000
v -3.5963 1.4000 1.0500
vt 0.6602 0.9011
vn -0.8299 0.4149 -0.3731
v -3.6750 1.4000 1.2250
vt 0.6680 0.9011
vn -0.8944 0.4472 0.0000
f 128/128/128 129/129/129 130/130/130
v -3.5000 1.7500 1.2250
vt 0.6680 0.9299
vn 0.8944 0.4472 0.0000
v -3.3250 1.4000 1.2250
vt 0.6680 0.9011
vn 0.8944 0.4472 0.0000
v -3.4037 1.4000 1.0500
vt 0.6602 0.9011
vn 0.8299 0.4149 -0.3731
f 131/131/131 132/132/132 133/133/133
v -3.5000 1.7500 1.2250
vt 0.6680 0.9299
vn 0.8944 0.4472 0.0000
v -3.4037 1.4000 1.4000
vt 0.6758 0.9011
vn 0.8299 0.4149 0.3731
v -3.3250 1.4000 1.2250
vt 0.6680 0.9011
vn 0.8944 0.4472 0.0000
f 134/134/134 135/135/135 136/136/136
v -3.3250 -0.1750 1.5750
vt 0.7930 0.8125
vn 0.9121 -0.0000 0.4100
v -3.3250 1.4000 1.5750
vt 0.7930 0.9011
vn 0.9121 -0.0000 0.4100
v -3.4037 1.4000 1.7500
vt 0.8008 0.9011
vn 0.9121 -0.0000 0.4100
v -3.4037 -0.1750 1.7500
vt 0.8008 0.8125
vn 0.9121 -0.0000 0.4100
f 137/137/137 138/138/138 139/139/139 140/140/140
v -3.5963 -0.1750 1.7500
vt 0.8008 0.8125
vn -0.9121 -0.0000 0.4100
v -3.5963 1.4000 1.7500
vt 0.8008 0.9011
vn -0.9121 -0.0000 0.4100
v -3.6750 1.4000 1.5750
vt 0.7930 0.9011
vn -0.9121 -0.0000 0.4100
v -3.6750 -0.1750 1.5750
vt 0.7930 0.8125
vn -0.9121 -0.0000 0.4100
f 141/141/141 142/142/142 143/143/143 144/144/144
v -3.6750 -0.1750 1.5750
vt 0.7930 0.8125
vn -0.9121 0.0000 -0.4100
v -3.6750 1.4000 1.5750
vt 0.7930 0.9011
vn -0.9121 0.0000 -0.4100
v -3.5963 1.4000 1.4000
vt 0.7852 0.9011
vn -0.9121 0.0000 -0.4100
v -3.5963 -0.1750 1.4000
vt 0.7852 0.8125
vn -0.9121 0.0000 -0.4100
f 145/145/145 146/146/146 147/147/147 148/148/148
v -3.5000 1.7500 1.5750
vt 0.6680 0.9299
vn 0.0000 0.4472 0.8944
v -3.5963 1.4000 1.7500
vt 0.6758 0.9011
vn 0.0000 0.4472 0.8944
v -3.4037 1.4000 1.7500
vt 0.6758 0.9011
vn 0.0000 0.4472 0.8944
f 149/149/149 150/150/150 151/151/151
v -3.4037 -0.1750 1.4000
vt 0.7852 0.8125
vn 0.9121 0.0000 -0.4100
v -3.4037 1.4000 1.4000
vt 0.7852 0.9011
vn 0.9121 0.0000 -0.4100
v -3.3250 1.4000 1.5750
vt 0.7930 0.9011
vn 0.9121 0.0000 -0.4100
v -3.3250 -0.1750 1.5750
vt 0.7930 0.8125
vn 0.9121 0.0000 -0.4100
f 152/152/152 153/153/153 154/154/154 155/155/155
v -3.5000 1.7500 1.5750
vt 0.6680 0.9299
vn 0.0000 0.4472 -0.8944
v -3.4037 1.4000 1.4000
vt 0.6602 0.9011
vn 0.0000 0.4472 -0.8944
v -3.5963 1.4000 1.4000
vt 0.6602 0.9011
vn 0.0000 0.4472 -0.8944
f 156/156/156 157/157/157 158/158/158
v -3.5000 1.7500 1.5750
vt 0.6680 0.9299
vn -0.8944 0.4472 0.0000
v -3.6750 1.4000 1.5750
vt 0.6680 0.9011
vn -0.8944 0.4472 0.0000
v -3.5963 1.4000 1.7500
vt 0.6758 0.9011
vn -0.8299 0.4149 0.3731
f 159/159/159 160/160/160 161/161/161
v -3.5000 1.7500 1.5750
vt 0.6680 0.9299
vn -0.8944 0.4472 0.0000
v -3.5963 1.4000 1.4000
vt 0.6602 0.9011
vn -0.8299 0.4149 -0.3731
v -3.6750 1.4000 1.5750
vt 0.6680 0.9011
vn -0.8944 0.4472 0.0000
f 162/162/162 163/163/163 164/164/164
v -3.5000 1.7500 1.5750
vt 0.6680 0.9299
vn 0.8944 0.4472 0.0000
v -3.3250 1.4000 1.5750
vt 0.6680 0.9011
vn 0.8944 0.4472 0.0000
v -3.4037 1.4000 1.4000
vt 0.6602 0.9011
vn 0.8299 0.4149 -0.3731
f 165/165/165 166/166/166 167/167/167
v -3.5000 1.7500 1.5750
vt 0.6680 0.9299
vn 0.8944 0.4472 0.0000
v -3.4037 1.4000 1.7500
vt 0.6758 0.9011
vn 0.8299 0.4149 0.3731
v -3.3250 1.4000 1.5750
vt 0.6680 0.9011
vn 0.8944 0.4472 0.0000
f 168/168/168 169/169/169 170/170/170
v -3.3250 1.4000 1.9197
vt 0.6680 0.9011
vn 0.5000 0.0000 0.8660
v -3.5000 1.7500 2.0207
vt 0.6680 0.9299
vn 0.5000 0.0000 0.8660
v -3.5000 1.4000 2.0207
vt 0.6758 0.9011
vn 0.5000 0.0000 0.8660
f 171/171/171 172/172/172 173/173/173
v -3.5000 -0.1750 2.0207
vt 0.8008 0.8125
vn -0.5000 -0.0000 0.8660
v -3.5000 1.4000 2.0207
vt 0.8008 0.9011
vn -0.5000 -0.0000 0.8660
v -3.6750 1.4000 1.9197
vt 0.7930 0.9011
vn -0.5000 -0.0000 0.8660
v -3.6750 -0.1750 1.9197
vt 0.7930 0.8125
vn -0.5000 -0.0000 0.8660
f 174/174/174 175/175/175 176/176/176 177/177/177
v -3.6750 -0.1750 1.9197
vt 0.7930 0.8125
vn -0.9073 0.0000 -0.4206
v -3.6750 1.4000 1.9197
vt 0.7930 0.9011
vn -0.9073 0.0000 -0.4206
v -3.5963 1.4000 1.7500
vt 0.7852 0.9011
vn -0.9073 0.0000 -0.4206
v -3.5963 -0.1750 1.7500
vt 0.7852 0.8125
vn -0.9073 0.0000 -0.4206
f 178/178/178 179/179/179 180/180/180 181/181/181
v -3.4037 -0.1750 1.7500
vt 0.7852 0.8125
vn 0.9073 0.0000 -0.4205
v -3.4037 1.4000 1.7500
vt 0.7852 0.9011
vn 0.9073 0.0000 -0.4205
v -3.3250 1.4000 1.9197
vt 0.7930 0.9011
vn 0.9073 0.0000 -0.4205
v -3.3250 -0.1750 1.9197
vt 0.7930 0.8125
vn 0.9073 0.0000 -0.4205
f 182/182/182 183/183/183 184/184/184 185/185/185
v -3.5000 1.7500 2.0207
vt 0.6680 0.9299
vn -0.0000 0.6119 -0.7910
v -3.4037 1.4000 1.7500
vt 0.6602 0.9011
vn -0.0000 0.6119 -0.7910
v -3.5963 1.4000 1.7500
vt 0.6602 0.9011
vn -0.0000 0.6119 -0.7910
f 186/186/186 187/187/187 188/188/188
v -3.5000 1.7500 2.0207
vt 0.6680 0.9299
vn -0.5000 -0.0000 0.8660
v -3.6750 1.4000 1.9197
vt 0.6680 0.9011
vn -0.5000 -0.0000 0.8660
v -3.5000 1.4000 2.0207
vt 0.6758 0.9011
vn -0.5000 -0.0000 0.8660
f 189/189/189 190/190/190 191/191/191
v -3.5000 1.7500 2.0207
vt 0.6680 0.9299
vn -0.7865 0.4985 -0.3646
v -3.5963 1.4000 1.7500
vt 0.6602 0.9011
vn -0.7865 0.4985 -0.3646
v -3.6750 1.4000 1.9197
vt 0.6680 0.9011
vn -0.7865 0.4985 -0.3646
f 192/192/192 193/193/193 194/194/194
v -3.5000 1.7500 2.0207
vt 0.6680 0.9299
vn 0.7865 0.4985 -0.3646
v -3.3250 1.4000 1.9197
vt 0.6680 0.9011
vn 0.7865 0.4985 -0.3646
v -3.4037 1.4000 1.7500
vt 0.6602 0.9011
vn 0.7865 0.4985 -0.3646
f 195/195/195 196/196/196 197/197/197
v -3.6750 -0.1750 0.1750
vt 0.7930 0.8125
vn -0.0000 -1.0000 0.0000
v -3.3250 -0.1750 0.1750
vt 0.7930 0.8125
vn -0.0000 -1.0000 0.0000
v -3.4037 -0.1750 0.3500
vt 0.8008 0.8125
vn -0.0000 -1.0000 0.0000
v -3.5963 -0.1750 0.3500
vt 0.8008 0.8125
vn -0.0000 -1.0000 0.0000
f 198/198/198 199/199/199 200/200/200 201/201/201
v -3.6750 -0.1750 1.2250
vt 0.7930 0.8125
vn -0.0000 -1.0000 0.0000
v -3.3250 -0.1750 1.2250
vt 0.7930 0.8125
vn -0.0000 -1.0000 0.0000
v -3.4037 -0.1750 1.4000
vt 0.8008 0.8125
vn -0.0000 -1.0000 0.0000
v -3.5963 -0.1750 1.4000
vt 0.8008 0.8125
vn -0.0000 -1.0000 0.0000
f 202/202/202 203/203/203 204/204/204 205/205/205
v -3.6750 -0.1750 0.5250
vt 0.7930 0.8125
vn -0.0000 -1.0000 0.0000
v -3.3250 -0.1750 0.5250
vt 0.7930 0.8125
vn -0.0000 -1.0000 0.0000
v -3.4037 -0.1750 0.7000
vt 0.8008 0.8125
vn -0.0000 -1.0000 0.0000
v -3.5963 -0.1750 0.7000
vt 0.8008 0.8125
vn -0.0000 -1.0000 0.0000
f 206/206/206 207/207/207 208/208/208 209/209/209
v -3.6750 -0.1750 0.8750
vt 0.7930 0.8125
vn -0.0000 -1.0000 0.0000
v -3.3250 -0.1750 0.8750
vt 0.7930 0.8125
vn -0.0000 -1.0000 0.0000
v -3.4037 -0.1750 1.0500
vt 0.8008 0.8125
vn -0.0000 -1.0000 0.0000
v -3.5963 -0.1750 1.0500
vt 0.8008 0.8125
vn -0.0000 -1.0000 0.0000
f 210/210/210 211/211/211 212/212/212 213/213/213
v -3.6750 -0.1750 1.5750
vt 0.7930 0.8125
vn -0.0000 -1.0000 0.0000
v -3.3250 -0.1750 1.5750
vt 0.7930 0.8125
vn -0.0000 -1.0000 0.0000
v -3.4037 -0.1750 1.7500
vt 0.8008 0.8125
vn -0.0000 -1.0000 0.0000
v -3.5963 -0.1750 1.7500
vt 0.8008 0.8125
vn -0.0000 -1.0000 0.0000
f 214/214/214 215/215/215 216/216/216 217/217/217
v -3.3250 1.4000 1.9197
vt 0.7930 0.9011
vn 0.5000 0.0000 0.8660
v -3.5000 1.4000 2.0207
vt 0.8008 0.9011
vn 0.5000 0.0000 0.8660
v -3.5000 -0.1750 2.0207
vt 0.8008 0.8125
vn 0.5000 0.0000 0.8660
v -3.3250 -0.1750 1.9197
vt 0.7930 0.8125
vn 0.5000 0.0000 0.8660
f 218/218/218 219/219/219 220/220/220 221/221/221
v -3.3250 -0.1750 1.9197
vt 0.7930 0.8125
vn -0.0000 -1.0000 0.0000
v -3.5000 -0.1750 2.0207
vt 0.8008 0.8125
vn -0.0000 -1.0000 0.0000
v -3.6750 -0.1750 1.9197
vt 0.7930 0.8125
vn -0.0000 -1.0000 0.0000
f 222/222/222 223/223/223 224/224/224
v -3.5963 -0.1750 -0.0000
vt 0.7852 0.8125
vn -0.0000 -1.0000 0.0000
v -3.4037 -0.1750 -0.0000
vt 0.7852 0.8125
vn -0.0000 -1.0000 0.0000
v -3.3250 -0.1750 0.1750
vt 0.7930 0.8125
vn -0.0000 -1.0000 0.0000
v -3.6750 -0.1750 0.1750
vt 0.7930 0.8125
vn -0.0000 -1.0000 0.0000
f 225/225/225 226/226/226 227/227/227 228/228/228
v -3.5963 -0.1750 0.3500
vt 0.7852 0.8125
vn -0.0000 -1.0000 0.0000
v -3.4037 -0.1750 0.3500
vt 0.7852 0.8125
vn -0.0000 -1.0000 0.0000
v -3.3250 -0.1750 0.5250
vt 0.7930 0.8125
vn -0.0000 -1.0000 0.0000
v -3.6750 -0.1750 0.5250
vt 0.7930 0.8125
vn -0.0000 -1.0000 0.0000
f 229/229/229 230/230/230 231/231/231 232/232/232
v -3.5963 -0.1750 0.7000
vt 0.7852 0.8125
vn -0.0000 -1.0000 0.0000
v -3.4037 -0.1750 0.7000
vt 0.7852 0.8125
vn -0.0000 -1.0000 0.0000
v -3.3250 -0.1750 0.8750
vt 0.7930 0.8125
vn -0.0000 -1.0000 0.0000
v -3.6750 -0.1750 0.8750
vt 0.7930 0.8125
vn -0.0000 -1.0000 0.0000
f 233/233/233 234/234/234 235/235/235 236/236/236
v -3.5963 -0.1750 1.0500
vt 0.7852 0.8125
vn -0.0000 -1.0000 0.0000
v -3.4037 -0.1750 1.0500
vt 0.7852 0.8125
vn -0.0000 -1.0000 0.0000
v -3.3250 -0.1750 1.2250
vt 0.7930 0.8125
vn -0.0000 -1.0000 0.0000
v -3.6750 -0.1750 1.2250
vt 0.7930 0.8125
vn -0.0000 -1.0000 0.0000
f 237/237/237 238/238/238 239/239/239 240/240/240
v -3.5963 -0.1750 1.4000
vt 0.7852 0.8125
vn -0.0000 -1.0000 0.0000
v -3.4037 -0.1750 1.4000
vt 0.7852 0.8125
vn -0.0000 -1.0000 0.0000
v -3.3250 -0.1750 1.5750
vt 0.7930 0.8125
vn -0.0000 -1.0000 0.0000
v -3.6750 -0.1750 1.5750
vt 0.7930 0.8125
vn -0.0000 -1.0000 0.0000
f 241/241/241 242/242/242 243/243/243 244/244/244
v -3.4037 -0.1750 1.7500
vt 0.7852 0.8125
vn -0.0000 -1.0000 0.0000
v -3.3250 -0.1750 1.9197
vt 0.7930 0.8125
vn -0.0000 -1.0000 0.0000
v -3.6750 -0.1750 1.9197
vt 0.7930 0.8125
vn -0.0000 -1.0000 0.0000
v -3.5963 -0.1750 1.7500
vt 0.7852 0.8125
vn -0.0000 -1.0000 0.0000
f 245/245/245 246/246/246 247/247/247 248/248/248
v -3.3250 -0.1750 -0.1750
vt 0.7930 0.8125
vn 0.9121 0.0000 -0.4100
v -3.4037 -0.1750 -0.3500
vt 0.8008 0.8125
vn 0.9121 0.0000 -0.4100
v -3.4037 1.4000 -0.3500
vt 0.8008 0.9011
vn 0.9121 0.0000 -0.4100
v -3.3250 1.4000 -0.1750
vt 0.7930 0.9011
vn 0.9121 0.0000 -0.4100
f 249/249/249 250/250/250 251/251/251 252/252/252
v -3.5963 -0.1750 -0.3500
vt 0.8008 0.8125
vn -0.9121 0.0000 -0.4100
v -3.6750 -0.1750 -0.1750
vt 0.7930 0.8125
vn -0.9121 0.0000 -0.4100
v -3.6750 1.4000 -0.1750
vt 0.7930 0.9011
vn -0.9121 0.0000 -0.4100
v -3.5963 1.4000 -0.3500
vt 0.8008 0.9011
vn -0.9121 0.0000 -0.4100
f 253/253/253 254/254/254 255/255/255 256/256/256
v -3.6750 -0.1750 -0.1750
vt 0.7930 0.8125
vn -0.9120 -0.0000 0.4102
v -3.5963 -0.1750 -0.0000
vt 0.7852 0.8125
vn -0.9120 -0.0000 0.4102
v -3.5963 1.4000 -0.0000
vt 0.7852 0.9011
vn -0.9120 -0.0000 0.4102
v -3.6750 1.4000 -0.1750
vt 0.7930 0.9011
vn -0.9120 -0.0000 0.4102
f 257/257/257 258/258/258 259/259/259 260/260/260
v -3.5000 1.7500 -0.1750
vt 0.6680 0.9299
vn 0.0000 0.4472 -0.8944
v -3.4037 1.4000 -0.3500
vt 0.6758 0.9011
vn 0.0000 0.4472 -0.8944
v -3.5963 1.4000 -0.3500
vt 0.6758 0.9011
vn 0.0000 0.4472 -0.8944
f 261/261/261 262/262/262 263/263/263
v -3.4037 -0.1750 -0.0000
vt 0.7852 0.8125
vn 0.9120 -0.0000 0.4102
v -3.3250 -0.1750 -0.1750
vt 0.7930 0.8125
vn 0.9120 -0.0000 0.4102
v -3.3250 1.4000 -0.1750
vt 0.7930 0.9011
vn 0.9120 -0.0000 0.4102
v -3.4037 1.4000 -0.0000
vt 0.7852 0.9011
vn 0.9120 -0.0000 0.4102
f 264/264/264 265/265/265 266/266/266 267/267/267
v -3.5000 1.7500 -0.1750
vt 0.6680 0.9299
vn 0.0000 0.4471 0.8945
v -3.5963 1.4000 -0.0000
vt 0.6602 0.9011
vn 0.0000 0.4471 0.8945
v -3.4037 1.4000 -0.0000
vt 0.6602 0.9011
vn 0.0000 0.4471 0.8945
f 268/268/268 269/269/269 270/270/270
v -3.5000 1.7500 -0.1750
vt 0.6680 0.9299
vn -0.8944 0.4472 0.0000
v -3.5963 1.4000 -0.3500
vt 0.6758 0.9011
vn -0.8299 0.4149 -0.3731
v -3.6750 1.4000 -0.1750
vt 0.6680 0.9011
vn -0.8944 0.4472 0.0001
f 271/271/271 272/272/272 273/273/273
v -3.5000 1.7500 -0.1750
vt 0.6680 0.9299
vn -0.8944 0.4472 0.0000
v -3.6750 1.4000 -0.1750
vt 0.6680 0.9011
vn -0.8944 0.4472 0.0001
v -3.5963 1.4000 -0.0000
vt 0.6602 0.9011
vn -0.8298 0.4149 0.3732
f 274/274/274 275/275/275 276/276/276
v -3.5000 1.7500 -0.1750
vt 0.6680 0.9299
vn 0.8944 0.4472 0.0000
v -3.4037 1.4000 -0.0000
vt 0.6602 0.9011
vn 0.8298 0.4149 0.3732
v -3.3250 1.4000 -0.1750
vt 0.6680 0.9011
vn 0.8944 0.4472 0.0001
f 277/277/277 278/278/278 279/279/279
v -3.5000 1.7500 -0.1750
vt 0.6680 0.9299
vn 0.8944 0.4472 0.0000
v -3.3250 1.4000 -0.1750
vt 0.6680 0.9011
vn 0.8944 0.4472 0.0001
v -3.4037 1.4000 -0.3500
vt 0.6758 0.9011
vn 0.8299 0.4149 -0.3731
f 280/280/280 281/281/281 282/282/282
v -3.3250 -0.1750 -0.5250
vt 0.7930 0.8125
vn 0.9121 0.0000 -0.4100
v -3.4037 -0.1750 -0.7000
vt 0.8008 0.8125
vn 0.9121 0.0000 -0.4100
v -3.4037 1.4000 -0.7000
vt 0.8008 0.9011
vn 0.9121 0.0000 -0.4100
v -3.3250 1.4000 -0.5250
vt 0.7930 0.9011
vn 0.9121 0.0000 -0.4100
f 283/283/283 284/284/284 285/285/285 286/286/286
v -3.5963 -0.1750 -0.7000
vt 0.8008 0.8125
vn -0.9121 0.0000 -0.4100
v -3.6750 -0.1750 -0.5250
vt 0.7930 0.8125
vn -0.9121 0.0000 -0.4100
v -3.6750 1.4000 -0.5250
vt 0.7930 0.9011
vn -0.9121 0.0000 -0.4100
v -3.5963 1.4000 -0.7000
vt 0.8008 0.9011
vn -0.9121 0.0000 -0.4100
f 287/287/287 288/288/288 289/289/289 290/290/290
v -3.6750 -0.1750 -0.5250
vt 0.7930 0.8125
vn -0.9121 -0.0000 0.4100
v -3.5963 -0.1750 -0.3500
vt 0.7852 0.8125
vn -0.9121 -0.0000 0.4100
v -3.5963 1.4000 -0.3500
vt 0.7852 0.9011
vn -0.9121 -0.0000 0.4100
v -3.6750 1.4000 -0.5250
vt 0.7930 0.9011
vn -0.9121 -0.0000 0.4100
f 291/291/291 292/292/292 293/293/293 294/294/294
v -3.5000 1.7500 -0.5250
vt 0.6680 0.9299
vn 0.0000 0.4472 -0.8944
v -3.4037 1.4000 -0.7000
vt 0.6758 0.9011
vn 0.0000 0.4472 -0.8944
v -3.5963 1.4000 -0.7000
vt 0.6758 0.9011
vn 0.0000 0.4472 -0.8944
f 295/295/295 296/296/296 297/297/297
v -3.4037 -0.1750 -0.3500
vt 0.7852 0.8125
vn 0.9121 -0.0000 0.4100
v -3.3250 -0.1750 -0.5250
vt 0.7930 0.8125
vn 0.9121 -0.0000 0.4100
v -3.3250 1.4000 -0.5250
vt 0.7930 0.9011
vn 0.9121 -0.0000 0.4100
v -3.4037 1.4000 -0.3500
vt 0.7852 0.9011
vn 0.9121 -0.0000 0.4100
f 298/298/298 299/299/299 300/300/300 301/301/301
v -3.5000 1.7500 -0.5250
vt 0.6680 0.9299
vn 0.0000 0.4472 0.8944
v -3.5963 1.4000 -0.3500
vt 0.6602 0.9011
vn 0.0000 0.4472 0.8944
v -3.4037 1.4000 -0.3500
vt 0.6602 0.9011
vn 0.0000 0.4472 0.8944
f 302/302/302 303/303/303 304/304/304
v -3.5000 1.7500 -0.5250
vt 0.6680 0.9299
vn -0.8944 0.4472 0.0000
v -3.5963 1.4000 -0.7000
vt 0.6758 0.9011
vn -0.8299 0.4149 -0.3731
v -3.6750 1.4000 -0.5250
vt 0.6680 0.9011
vn -0.8944 0.4472 0.0000
f 305/305/305 306/306/306 307/307/307
v -3.5000 1.7500 -0.5250
vt 0.6680 0.9299
vn -0.8944 0.4472 0.0000
v -3.6750 1.4000 -0.5250
vt 0.6680 0.9011
vn -0.8944 0.4472 0.0000
v -3.5963 1.4000 -0.3500
vt 0.6602 0.9011
vn -0.8299 0.4149 0.3731
f 308/308/308 309/309/309 310/310/310
v -3.5000 1.7500 -0.5250
vt 0.6680 0.9299
vn 0.8944 0.4472 0.0000
v -3.4037 1.4000 -0.3500
vt 0.6602 0.9011
vn 0.8299 0.4149 0.3731
v -3.3250 1.4000 -0.5250
vt 0.6680 0.9011
vn 0.8944 0.4472 0.0000
f 311/311/311 312/312/312 313/313/313
v -3.5000 1.7500 -0.5250
vt 0.6680 0.9299
vn 0.8944 0.4472 0.0000
v -3.3250 1.4000 -0.5250
vt 0.6680 0.9011
vn 0.8944 0.4472 0.0000
v -3.4037 1.4000 -0.7000
vt 0.6758 0.9011
vn 0.8299 0.4149 -0.3731
f 314/314/314 315/315/315 316/316/316
v -3.3250 -0.1750 -0.8750
vt 0.7930 0.8125
vn 0.9121 0.0000 -0.4100
v -3.4037 -0.1750 -1.0500
vt 0.8008 0.8125
vn 0.9121 0.0000 -0.4100
v -3.4037 1.4000 -1.0500
vt 0.8008 0.9011
vn 0.9121 0.0000 -0.4100
v -3.3250 1.4000 -0.8750
vt 0.7930 0.9011
vn 0.9121 0.0000 -0.4100
f 317/317/317 318/318/318 319/319/319 320/320/320
v -3.5963 -0.1750 -1.0500
vt 0.8008 0.8125
vn -0.9121 0.0000 -0.4100
v -3.6750 -0.1750 -0.8750
vt 0.7930 0.8125
vn -0.9121 0.0000 -0.4100
v -3.6750 1.4000 -0.8750
vt 0.7930 0.9011
vn -0.9121 0.0000 -0.4100
v -3.5963 1.4000 -1.0500
vt 0.8008 0.9011
vn -0.9121 0.0000 -0.4100
f 321/321/321 322/322/322 323/323/323 324/324/324
v -3.6750 -0.1750 -0.8750
vt 0.7930 0.8125
vn -0.9121 -0.0000 0.4100
v -3.5963 -0.1750 -0.7000
vt 0.7852 0.8125
vn -0.9121 -0.0000 0.4100
v -3.5963 1.4000 -0.7000
vt 0.7852 0.9011
vn -0.9121 -0.0000 0.4100
v -3.6750 1.4000 -0.8750
vt 0.7930 0.9011
vn -0.9121 -0.0000 0.4100
f 325/325/325 326/326/326 327/327/327 328/328/328
v -3.5000 1.7500 -0.8750
vt 0.6680 0.9299
vn 0.0000 0.4472 -0.8944
v -3.4037 1.4000 -1.0500
vt 0.6758 0.9011
vn 0.0000 0.4472 -0.8944
v -3.5963 1.4000 -1.0500
vt 0.6758 0.9011
vn 0.0000 0.4472 -0.8944
f 329/329/329 330/330/330 331/331/331
v -3.4037 -0.1750 -0.7000
vt 0.7852 0.8125
vn 0.9121 -0.0000 0.4100
v -3.3250 -0.1750 -0.8750
vt 0.7930 0.8125
vn 0.9121 -0.0000 0.4100
v -3.3250 1.4000 -0.8750
vt 0.7930 0.9011
vn 0.9121 -0.0000 0.4100
v -3.4037 1.4000 -0.7000
vt 0.7852 0.9011
vn 0.9121 -0.0000 0.4100
f 332/332/332 333/333/333 334/334/334 335/335/335
v -3.5000 1.7500 -0.8750
vt 0.6680 0.9299
vn 0.0000 0.4472 0.8944
v -3.5963 1.4000 -0.7000
vt 0.6602 0.9011
vn 0.0000 0.4472 0.8944
v -3.4037 1.4000 -0.7000
vt 0.6602 0.9011
vn 0.0000 0.4472 0.8944
f 336/336/336 337/337/337 338/338/338
v -3.5000 1.7500 -0.8750
vt 0.6680 0.9299
vn -0.8944 0.4472 0.0000
v -3.5963 1.4000 -1.0500
vt 0.6758 0.9011
vn -0.8299 0.4149 -0.3731
v -3.6750 1.4000 -0.8750
vt 0.6680 0.9011
vn -0.8944 0.4472 0.0000
f 339/339/339 340/340/340 341/341/341
v -3.5000 1.7500 -0.8750
vt 0.6680 0.9299
vn -0.8944 0.4472 0.0000
v -3.6750 1.4000 -0.8750
vt 0.6680 0.9011
vn -0.8944 0.4472 0.0000
v -3.5963 1.4000 -0.7000
vt 0.6602 0.9011
vn -0.8299 0.4149 0.3731
f 342/342/342 343/343/343 344/344/344
v -3.5000 1.7500 -0.8750
vt 0.6680 0.9299
vn 0.8944 0.4472 0.0000
v -3.4037 1.4000 -0.7000
vt 0.6602 0.9011
vn 0.8299 0.4149 0.3731
v -3.3250 1.4000 -0.8750
vt 0.6680 0.9011
vn 0.8944 0.4472 0.0000
f 345/345/345 346/346/346 347/347/347
v -3.5000 1.7500 -0.8750
vt 0.6680 0.9299
vn 0.8944 0.4472 0.0000
v -3.3250 1.4000 -0.8750
vt 0.6680 0.9011
vn 0.8944 0.4472 0.0000
v -3.4037 1.4000 -1.0500
vt 0.6758 0.9011
vn 0.8299 0.4149 -0.3731
f 348/348/348 349/349/349 350/350/350
v -3.3250 -0.1750 -1.2250
vt 0.7930 0.8125
vn 0.9121 0.0000 -0.4100
v -3.4037 -0.1750 -1.4000
vt 0.8008 0.8125
vn 0.9121 0.0000 -0.4100
v -3.4037 1.4000 -1.4000
vt 0.8008 0.9011
vn 0.9121 0.0000 -0.4100
v -3.3250 1.4000 -1.2250
vt 0.7930 0.9011
vn 0.9121 0.0000 -0.4100
f 351/351/351 352/352/352 353/353/353 354/354/354
v -3.5963 -0.1750 -1.4000
vt 0.8008 0.8125
vn -0.9121 0.0000 -0.4100
v -3.6750 -0.1750 -1.2250
vt 0.7930 0.8125
vn -0.9121 0.0000 -0.4100
v -3.6750 1.4000 -1.2250
vt 0.7930 0.9011
vn -0.9121 0.0000 -0.4100
v -3.5963 1.4000 -1.4000
vt 0.8008 0.9011
vn -0.9121 0.0000 -0.4100
f 355/355/355 356/356/356 357/357/357 358/358/358
v -3.6750 -0.1750 -1.2250
vt 0.7930 0.8125
vn -0.9121 -0.0000 0.4100
v -3.5963 -0.1750 -1.0500
vt 0.7852 0.8125
vn -0.9121 -0.0000 0.4100
v -3.5963 1.4000 -1.0500
vt 0.7852 0.9011
vn -0.9121 -0.0000 0.4100
v -3.6750 1.4000 -1.2250
vt 0.7930 0.9011
vn -0.9121 -0.0000 0.4100
f 359/359/359 360/360/360 361/361/361 362/362/362
v -3.5000 1.7500 -1.2250
vt 0.6680 0.9299
vn 0.0000 0.4472 -0.8944
v -3.4037 1.4000 -1.4000
vt 0.6758 0.9011
vn 0.0000 0.4472 -0.8944
v -3.5963 1.4000 -1.4000
vt 0.6758 0.9011
vn 0.0000 0.4472 -0.8944
f 363/363/363 364/364/364 365/365/365
v -3.4037 -0.1750 -1.0500
vt 0.7852 0.8125
vn 0.9121 -0.0000 0.4100
v -3.3250 -0.1750 -1.2250
vt 0.7930 0.8125
vn 0.9121 -0.0000 0.4100
v -3.3250 1.4000 -1.2250
vt 0.7930 0.9011
vn 0.9121 -0.0000 0.4100
v -3.4037 1.4000 -1.0500
vt 0.7852 0.9011
vn 0.9121 -0.0000 0.4100
f 366/366/366 367/367/367 368/368/368 369/369/369
v -3.5000 1.7500 -1.2250
vt 0.6680 0.9299
vn 0.0000 0.4472 0.8944
v -3.5963 1.4000 -1.0500
vt 0.6602 0.9011
vn 0.0000 0.4472 0.8944
v -3.4037 1.4000 -1.0500
vt 0.6602 0.9011
vn 0.0000 0.4472 0.8944
f 370/370/370 371/371/371 372/372/372
v -3.5000 1.7500 -1.2250
vt 0.6680 0.9299
vn -0.8944 0.4472 0.0000
v -3.5963 1.4000 -1.4000
vt 0.6758 0.9011
vn -0.8299 0.4149 -0.3731
v -3.6750 1.4000 -1.2250
vt 0.6680 0.9011
vn -0.8944 0.4472 0.0000
f 373/373/373 374/374/374 375/375/375
v -3.5000 1.7500 -1.2250
vt 0.6680 0.9299
vn -0.8944 0.4472 0.0000
v -3.6750 1.4000 -1.2250
vt 0.6680 0.9011
vn -0.8944 0.4472 0.0000
v -3.5963 1.4000 -1.0500
vt 0.6602 0.9011
vn -0.8299 0.4149 0.3731
f 376/376/376 377/377/377 378/378/378
v -3.5000 1.7500 -1.2250
vt 0.6680 0.9299
vn 0.8944 0.4472 0.0000
v -3.4037 1.4000 -1.0500
vt 0.6602 0.9011
vn 0.8299 0.4149 0.3731
v -3.3250 1.4000 -1.2250
vt 0.6680 0.9011
vn 0.8944 0.4472 0.0000
f 379/379/379 380/380/380 381/381/381
v -3.5000 1.7500 -1.2250
vt 0.6680 0.9299
vn 0.8944 0.4472 0.0000
v -3.3250 1.4000 -1.2250
vt 0.6680 0.9011
vn 0.8944 0.4472 0.0000
v -3.4037 1.4000 -1.4000
vt 0.6758 0.9011
vn 0.8299 0.4149 -0.3731
f 382/382/382 383/383/383 384/384/384
v -3.3250 -0.1750 -1.5750
vt 0.7930 0.8125
vn 0.9121 0.0000 -0.4100
v -3.4037 -0.1750 -1.7500
vt 0.8008 0.8125
vn 0.9121 0.0000 -0.4100
v -3.4037 1.4000 -1.7500
vt 0.8008 0.9011
vn 0.9121 0.0000 -0.4100
v -3.3250 1.4000 -1.5750
vt 0.7930 0.9011
vn 0.9121 0.0000 -0.4100
f 385/385/385 386/386/386 387/387/387 388/388/388
v -3.5963 -0.1750 -1.7500
vt 0.8008 0.8125
vn -0.9121 0.0000 -0.4100
v -3.6750 -0.1750 -1.5750
vt 0.7930 0.8125
vn -0.9121 0.0000 -0.4100
v -3.6750 1.4000 -1.5750
vt 0.7930 0.9011
vn -0.9121 0.0000 -0.4100
v -3.5963 1.4000 -1.7500
vt 0.8008 0.9011
vn -0.9121 0.0000 -0.4100
f 389/389/389 390/390/390 391/391/391 392/392/392
v -3.6750 -0.1750 -1.5750
vt 0.7930 0.8125
vn -0.9121 -0.0000 0.4100
v -3.5963 -0.1750 -1.4000
vt 0.7852 0.8125
vn -0.9121 -0.0000 0.4100
v -3.5963 1.4000 -1.4000
vt 0.7852 0.9011
vn -0.9121 -0.0000 0.4100
v -3.6750 1.4000 -1.5750
vt 0.7930 0.9011
vn -0.9121 -0.0000 0.4100
f 393/393/393 394/394/394 395/395/395 396/396/396
v -3.5000 1.7500 -1.5750
vt 0.6680 0.9299
vn 0.0000 0.4472 -0.8944
v -3.4037 1.4000 -1.7500
vt 0.6758 0.9011
vn 0.0000 0.4472 -0.8944
v -3.5963 1.4000 -1.7500
vt 0.6758 0.9011
vn 0.0000 0.4472 -0.8944
f 397/397/397 398/398/398 399/399/399
v -3.4037 -0.1750 -1.4000
vt 0.7852 0.8125
vn 0.9121 -0.0000 0.4100
v -3.3250 -0.1750 -1.5750
vt 0.7930 0.8125
vn 0.9121 -0.0000 0.4100
v -3.3250 1.4000 -1.5750
vt 0.7930 0.9011
vn 0.9121 -0.0000 0.4100
v -3.4037 1.4000 -1.4000
vt 0.7852 0.9011
vn 0.9121 -0.0000 0.4100
f 400/400/400 401/401/401 402/402/402 403/403/403
v -3.5000 1.7500 -1.5750
vt 0.6680 0.9299
vn 0.0000 0.4472 0.8944
v -3.5963 1.4000 -1.4000
vt 0.6602 0.9011
vn 0.0000 0.4472 0.8944
v -3.4037 1.4000 -1.4000
vt 0.6602 0.9011
vn 0.0000 0.4472 0.8944
f 404/404/404 405/405/405 406/406/406
v -3.5000 1.7500 -1.5750
vt 0.6680 0.9299
vn -0.8944 0.4472 0.0000
v -3.5963 1.4000 -1.7500
vt 0.6758 0.9011
vn -0.8299 0.4149 -0.3731
v -3.6750 1.4000 -1.5750
vt 0.6680 0.9011
vn -0.8944 0.4472 0.0000
f 407/407/407 408/408/408 409/409/409
v -3.5000 1.7500 -1.5750
vt 0.6680 0.9299
vn -0.8944 0.4472 0.0000
v -3.6750 1.4000 -1.5750
vt 0.6680 0.9011
vn -0.8944 0.4472 0.0000
v -3.5963 1.4000 -1.4000
vt 0.6602 0.9011
vn -0.8299 0.4149 0.3731
f 410/410/410 411/411/411 412/412/412
v -3.5000 1.7500 -1.5750
vt 0.6680 0.9299
vn 0.8944 0.4472 0.0000
v -3.4037 1.4000 -1.4000
vt 0.6602 0.9011
vn 0.8299 0.4149 0.3731
v -3.3250 1.4000 -1.5750
vt 0.6680 0.9011
vn 0.8944 0.4472 0.0000
f 413/413/413 414/414/414 415/415/415
v -3.5000 1.7500 -1.5750
vt 0.6680 0.9299
vn 0.8944 0.4472 0.0000
v -3.3250 1.4000 -1.5750
vt 0.6680 0.9011
vn 0.8944 0.4472 0.0000
v -3.4037 1.4000 -1.7500
vt 0.6758 0.9011
vn 0.8299 0.4149 -0.3731
f 416/416/416 417/417/417 418/418/418
v -3.3250 1.4000 -1.9197
vt 0.6680 0.9011
vn 0.5001 0.0000 -0.8660
v -3.5000 1.4000 -2.0207
vt 0.6758 0.9011
vn 0.5001 0.0000 -0.8660
v -3.5000 1.7500 -2.0207
vt 0.6680 0.9299
vn 0.5001 0.0000 -0.8660
f 419/419/419 420/420/420 421/421/421
v -3.5000 -0.1750 -2.0207
vt 0.8008 0.8125
vn -0.5000 0.0000 -0.8660
v -3.6750 -0.1750 -1.9197
vt 0.7930 0.8125
vn -0.5000 0.0000 -0.8660
v -3.6750 1.4000 -1.9197
vt 0.7930 0.9011
vn -0.5000 0.0000 -0.8660
v -3.5000 1.4000 -2.0207
vt 0.8008 0.9011
vn -0.5000 0.0000 -0.8660
f 422/422/422 423/423/423 424/424/424 425/425/425
v -3.6750 -0.1750 -1.9197
vt 0.7930 0.8125
vn -0.9073 0.0000 0.4206
v -3.5963 -0.1750 -1.7500
vt 0.7852 0.8125
vn -0.9073 0.0000 0.4206
v -3.5963 1.4000 -1.7500
vt 0.7852 0.9011
vn -0.9073 0.0000 0.4206
v -3.6750 1.4000 -1.9197
vt 0.7930 0.9011
vn -0.9073 0.0000 0.4206
f 426/426/426 427/427/427 428/428/428 429/429/429
v -3.4037 -0.1750 -1.7500
vt 0.7852 0.8125
vn 0.9073 -0.0000 0.4206
v -3.3250 -0.1750 -1.9197
vt 0.7930 0.8125
vn 0.9073 -0.0000 0.4206
v -3.3250 1.4000 -1.9197
vt 0.7930 0.9011
vn 0.9073 -0.0000 0.4206
v -3.4037 1.4000 -1.7500
vt 0.7852 0.9011
vn 0.9073 -0.0000 0.4206
f 430/430/430 431/431/431 432/432/432 433/433/433
v -3.5000 1.7500 -2.0207
vt 0.6680 0.9299
vn 0.0000 0.6119 0.7910
v -3.5963 1.4000 -1.7500
vt 0.6602 0.9011
vn 0.0000 0.6119 0.7910
v -3.4037 1.4000 -1.7500
vt 0.6602 0.9011
vn 0.0000 0.6119 0.7910
f 434/434/434 435/435/435 436/436/436
v -3.5000 1.7500 -2.0207
vt 0.6680 0.9299
vn -0.5000 0.0000 -0.8660
v -3.5000 1.4000 -2.0207
vt 0.6758 0.9011
vn -0.5000 0.0000 -0.8660
v -3.6750 1.4000 -1.9197
vt 0.6680 0.9011
vn -0.5000 0.0000 -0.8660
f 437/437/437 438/438/438 439/439/439
v -3.5000 1.7500 -2.0207
vt 0.6680 0.9299
vn -0.7865 0.4985 0.3646
v -3.6750 1.4000 -1.9197
vt 0.6680 0.9011
vn -0.7865 0.4985 0.3646
v -3.5963 1.4000 -1.7500
vt 0.6602 0.9011
vn -0.7865 0.4985 0.3646
f 440/440/440 441/441/441 442/442/442
v -3.5000 1.7500 -2.0207
vt 0.6680 0.9299
vn 0.7865 0.4985 0.3646
v -3.4037 1.4000 -1.7500
vt 0.6602 0.9011
vn 0.7865 0.4985 0.3646
v -3.3250 1.4000 -1.9197
vt 0.6680 0.9011
vn 0.7865 0.4985 0.3646
f 443/443/443 444/444/444 445/445/445
v -3.6750 -0.1750 -0.1750
vt 0.7930 0.8125
vn -0.0000 -1.0000 0.0000
v -3.5963 -0.1750 -0.3500
vt 0.8008 0.8125
vn -0.0000 -1.0000 0.0000
v -3.4037 -0.1750 -0.3500
vt 0.8008 0.8125
vn -0.0000 -1.0000 0.0000
v -3.3250 -0.1750 -0.1750
vt 0.7930 0.8125
vn -0.0000 -1.0000 0.0000
f 446/446/446 447/447/447 448/448/448 449/449/449
v -3.6750 -0.1750 -1.2250
vt 0.7930 0.8125
vn -0.0000 -1.0000 0.0000
v -3.5963 -0.1750 -1.4000
vt 0.8008 0.8125
vn -0.0000 -1.0000 0.0000
v -3.4037 -0.1750 -1.4000
vt 0.8008 0.8125
vn -0.0000 -1.0000 0.0000
v -3.3250 -0.1750 -1.2250
vt 0.7930 0.8125
vn -0.0000 -1.0000 0.0000
f 450/450/450 451/451/451 452/452/452 453/453/453
v -3.6750 -0.1750 -0.5250
vt 0.7930 0.8125
vn -0.0000 -1.0000 0.0000
v -3.5963 -0.1750 -0.7000
vt 0.8008 0.8125
vn -0.0000 -1.0000 0.0000
v -3.4037 -0.1750 -0.7000
vt 0.8008 0.8125
vn -0.0000 -1.0000 0.0000
v -3.3250 -0.1750 -0.5250
vt 0.7930 0.8125
vn -0.0000 -1.0000 0.0000
f 454/454/454 455/455/455 456/456/456 457/457/457
v -3.6750 -0.1750 -0.8750
vt 0.7930 0.8125
vn -0.0000 -1.0000 0.0000
v -3.5963 -0.1750 -1.0500
vt 0.8008 0.8125
vn -0.0000 -1.0000 0.0000
v -3.4037 -0.1750 -1.0500
vt 0.8008 0.8125
vn -0.0000 -1.0000 0.0000
v -3.3250 -0.1750 -0.8750
vt 0.7930 0.8125
vn -0.0000 -1.0000 0.0000
f 458/458/458 459/459/459 460/460/460 461/461/461
v -3.6750 -0.1750 -1.5750
vt 0.7930 0.8125
vn -0.0000 -1.0000 0.0000
v -3.5963 -0.1750 -1.7500
vt 0.8008 0.8125
vn -0.0000 -1.0000 0.0000
v -3.4037 -0.1750 -1.7500
vt 0.8008 0.8125
vn -0.0000 -1.0000 0.0000
v -3.3250 -0.1750 -1.5750
vt 0.7930 0.8125
vn -0.0000 -1.0000 0.0000
f 462/462/462 463/463/463 464/464/464 465/465/465
v -3.3250 1.4000 -1.9197
vt 0.7930 0.9011
vn 0.5001 0.0000 -0.8660
v -3.3250 -0.1750 -1.9197
vt 0.7930 0.8125
vn 0.5001 0.0000 -0.8660
v -3.5000 -0.1750 -2.0207
vt 0.8008 0.8125
vn 0.5001 0.0000 -0.8660
v -3.5000 1.4000 -2.0207
vt 0.8008 0.9011
vn 0.5001 0.0000 -0.8660
f 466/466/466 467/467/467 468/468/468 469/469/469
v -3.3250 -0.1750 -1.9197
vt 0.7930 0.8125
vn -0.0000 -1.0000 0.0000
v -3.6750 -0.1750 -1.9197
vt 0.7930 0.8125
vn -0.0000 -1.0000 0.0000
v -3.5000 -0.1750 -2.0207
vt 0.8008 0.8125
vn -0.0000 -1.0000 0.0000
f 470/470/470 471/471/471 472/472/472
v -3.5963 -0.1750 -0.0000
vt 0.7852 0.8125
vn -0.0000 -1.0000 0.0000
v -3.6750 -0.1750 -0.1750
vt 0.7930 0.8125
vn -0.0000 -1.0000 0.0000
v -3.3250 -0.1750 -0.1750
vt 0.7930 0.8125
vn -0.0000 -1.0000 0.0000
v -3.4037 -0.1750 -0.0000
vt 0.7852 0.8125
vn -0.0000 -1.0000 0.0000
f 473/473/473 474/474/474 475/475/475 476/476/476
v -3.5963 -0.1750 -0.3500
vt 0.7852 0.8125
vn -0.0000 -1.0000 0.0000
v -3.6750 -0.1750 -0.5250
vt 0.7930 0.8125
vn -0.0000 -1.0000 0.0000
v -3.3250 -0.1750 -0.5250
vt 0.7930 0.8125
vn -0.0000 -1.0000 0.0000
v -3.4037 -0.1750 -0.3500
vt 0.7852 0.8125
vn -0.0000 -1.0000 0.0000
f 477/477/477 478/478/478 479/479/479 480/480/480
v -3.5963 -0.1750 -0.7000
vt 0.7852 0.8125
vn -0.0000 -1.0000 0.0000
v -3.6750 -0.1750 -0.8750
vt 0.7930 0.8125
vn -0.0000 -1.0000 0.0000
v -3.3250 -0.1750 -0.8750
vt 0.7930 0.8125
vn -0.0000 -1.0000 0.0000
v -3.4037 -0.1750 -0.7000
vt 0.7852 0.8125
vn -0.0000 -1.0000 0.0000
f 481/481/481 482/482/482 483/483/483 484/484/484
v -3.5963 -0.1750 -1.0500
vt 0.7852 0.8125
vn -0.0000 -1.0000 0.0000
v -3.6750 -0.1750 -1.2250
vt 0.7930 0.8125
vn -0.0000 -1.0000 0.0000
v -3.3250 -0.1750 -1.2250
vt 0.7930 0.8125
vn -0.0000 -1.0000 0.0000
v -3.4037 -0.1750 -1.0500
vt 0.7852 0.8125
vn -0.0000 -1.0000 0.0000
f 485/485/485 486/486/486 487/487/487 488/488/488
v -3.5963 -0.1750 -1.4000
vt 0.7852 0.8125
vn -0.0000 -1.0000 0.0000
v -3.6750 -0.1750 -1.5750
vt 0.7930 0.8125
vn -0.0000 -1.0000 0.0000
v -3.3250 -0.1750 -1.5750
vt 0.7930 0.8125
vn -0.0000 -1.0000 0.0000
v -3.4037 -0.1750 -1.4000
vt 0.7852 0.8125
vn -0.0000 -1.0000 0.0000
f 489/489/489 490/490/490 491/491/491 492/492/492
v -3.4037 -0.1750 -1.7500
vt 0.7852 0.8125
vn -0.0000 -1.0000 0.0000
v -3.5963 -0.1750 -1.7500
vt 0.7852 0.8125
vn -0.0000 -1.0000 0.0000
v -3.6750 -0.1750 -1.9197
vt 0.7930 0.8125
vn -0.0000 -1.0000 0.0000
v -3.3250 -0.1750 -1.9197
vt 0.7930 0.8125
vn -0.0000 -1.0000 0.0000
f 493/493/493 494/494/494 495/495/495 496/496/496
