# The Giants of Holst prop, from CC0 kits by KayKit (Kay Lousberg) and Kenney
v -3.3250 0.0000 1.9197
vt 0.3255 0.7791
vn 0.6231 -0.7821 0.0000
v -3.5000 -0.1750 2.0207
vt 0.3125 0.7661
vn 0.7071 -0.7071 0.0000
v -3.5000 -0.1750 0.6386
vt 0.3125 0.7661
vn 0.7071 -0.7071 0.0000
v -3.3250 0.0000 0.6399
vt 0.3255 0.7791
vn 0.6053 -0.7960 0.0000
f 1/1/1 2/2/2 3/3/3 4/4/4
v -3.3250 0.4667 1.9197
vt 0.3255 0.8137
vn 0.6816 -0.0000 0.7317
v -3.1500 0.4904 1.5346
vt 0.3384 0.8467
vn 0.9765 -0.0000 0.2154
v -3.1500 0.6762 1.5346
vt 0.3384 0.8605
vn 0.9765 -0.0000 0.2154
v -3.3250 0.7000 1.9197
vt 0.3255 0.8310
vn 0.7367 -0.0000 0.6763
f 5/5/5 6/6/6 7/7/7 8/8/8
v -3.3250 0.2333 -0.6399
vt 0.3255 0.7964
vn 0.1345 -0.9909 -0.0000
v -3.3250 0.2333 -1.2798
vt 0.3255 0.7964
vn 0.1345 -0.9909 -0.0000
v -3.1500 0.2571 -0.8947
vt 0.3384 0.7982
vn 0.1345 -0.9909 -0.0000
f 9/9/9 10/10/10 11/11/11
v -3.6750 0.7665 -1.0191
vt 0.2995 0.8984
vn -0.2333 0.9688 0.0841
v -3.6750 0.7000 -0.6399
vt 0.2995 0.8935
vn -0.1113 0.9938 0.0000
v -3.3250 0.7000 -0.6399
vt 0.3255 0.8935
vn 0.1113 0.9938 -0.0000
v -3.3250 0.7665 -1.0191
vt 0.3255 0.8984
vn 0.2333 0.9688 0.0841
f 12/12/12 13/13/13 14/14/14 15/15/15
v -3.8500 0.6762 -1.0250
vt 0.2866 0.8917
vn -0.4591 0.8861 0.0640
v -3.6750 0.7000 -0.6399
vt 0.2995 0.8935
vn -0.1113 0.9938 0.0000
v -3.6750 0.7665 -1.0191
vt 0.2995 0.8984
vn -0.2333 0.9688 0.0841
f 16/16/16 17/17/17 18/18/18
v -3.6750 0.2333 1.2798
vt 0.2995 0.8589
vn -0.1345 0.9909 0.0000
v -3.8500 0.2096 1.0250
vt 0.2866 0.8571
vn -0.1345 0.9909 0.0000
v -3.8500 0.2096 1.5346
vt 0.2866 0.8571
vn -0.1345 0.9909 0.0000
f 19/19/19 20/20/20 21/21/21
v -3.8500 0.4904 1.0250
vt 0.2866 0.8155
vn -0.1345 -0.9909 0.0000
v -3.6750 0.4667 1.2798
vt 0.2995 0.8137
vn -0.1345 -0.9909 0.0000
v -3.8500 0.4904 1.5346
vt 0.2866 0.8155
vn -0.1345 -0.9909 0.0000
f 22/22/22 23/23/23 24/24/24
v -3.8500 0.2096 -1.0250
vt 0.2866 0.8571
vn -0.1345 0.9909 0.0000
v -3.6750 0.2333 -0.6399
vt 0.2995 0.8589
vn -0.1345 0.9909 0.0000
v -3.6750 0.2333 -1.2798
vt 0.2995 0.8589
vn -0.1345 0.9909 0.0000
f 25/25/25 26/26/26 27/27/27
v -3.5000 0.2625 2.0207
vt 0.3125 0.7986
vn 0.5000 0.0000 0.8660
v -3.3250 0.0000 1.9197
vt 0.3255 0.7791
vn 0.6954 0.0000 0.7186
v -3.3250 0.2333 1.9197
vt 0.3255 0.7964
vn 0.6816 -0.0000 0.7317
f 28/28/28 29/29/29 30/30/30
v -3.5000 0.2625 2.0207
vt 0.3125 0.7986
vn 0.5000 0.0000 0.8660
v -3.5000 -0.1750 2.0207
vt 0.3125 0.7661
vn 0.5000 0.0000 0.8660
v -3.3250 0.0000 1.9197
vt 0.3255 0.7791
vn 0.6954 0.0000 0.7186
f 31/31/31 32/32/32 33/33/33
v -3.5000 0.2625 -2.0207
vt 0.3125 0.7986
vn -0.5000 0.0000 -0.8660
v -3.5000 -0.1750 -2.0207
vt 0.3125 0.7661
vn -0.5000 0.0000 -0.8660
v -3.6750 0.0000 -1.9197
vt 0.2995 0.7791
vn -0.6954 0.0000 -0.7186
f 34/34/34 35/35/35 36/36/36
v -3.6750 0.4667 -1.2798
vt 0.2995 0.8137
vn -0.1345 -0.9909 0.0000
v -3.8500 0.4904 -1.0250
vt 0.2866 0.8155
vn -0.1345 -0.9909 0.0000
v -3.8500 0.4904 -1.5346
vt 0.2866 0.8155
vn -0.1345 -0.9909 0.0000
f 37/37/37 38/38/38 39/39/39
v -3.8500 0.6762 0.2548
vt 0.2866 0.8917
vn -0.4591 0.8861 0.0640
v -3.6750 0.7000 0.6399
vt 0.2995 0.8935
vn -0.1113 0.9938 0.0000
v -3.6750 0.7665 0.2607
vt 0.2995 0.8984
vn -0.2333 0.9688 0.0841
f 40/40/40 41/41/41 42/42/42
v -3.8500 0.2571 0.3851
vt 0.2866 0.7982
vn -0.1345 -0.9909 0.0000
v -3.6750 0.2333 0.6399
vt 0.2995 0.7964
vn -0.1345 -0.9909 0.0000
v -3.8500 0.2571 0.8947
vt 0.2866 0.7982
vn -0.1345 -0.9909 0.0000
f 43/43/43 44/44/44 45/45/45
v -3.6750 0.4667 0.6399
vt 0.2995 0.8762
vn -0.1345 0.9909 0.0000
v -3.8500 0.4429 0.3851
vt 0.2866 0.8744
vn -0.1345 0.9909 0.0000
v -3.8500 0.4429 0.8947
vt 0.2866 0.8744
vn -0.1345 0.9909 0.0000
f 46/46/46 47/47/47 48/48/48
v -3.8500 0.4904 -0.2548
vt 0.2866 0.8155
vn -0.1345 -0.9909 0.0000
v -3.6750 0.4667 0.0000
vt 0.2995 0.8137
vn -0.1345 -0.9909 0.0000
v -3.8500 0.4904 0.2548
vt 0.2866 0.8155
vn -0.1345 -0.9909 0.0000
f 49/49/49 50/50/50 51/51/51
v -3.6750 0.2333 0.0000
vt 0.2995 0.8589
vn -0.1345 0.9909 0.0000
v -3.8500 0.2096 -0.2548
vt 0.2866 0.8571
vn -0.1345 0.9909 0.0000
v -3.8500 0.2096 0.2548
vt 0.2866 0.8571
vn -0.1345 0.9909 0.0000
f 52/52/52 53/53/53 54/54/54
v -3.6750 0.4667 -0.6399
vt 0.2995 0.8762
vn -0.1345 0.9909 0.0000
v -3.8500 0.4429 -0.8947
vt 0.2866 0.8744
vn -0.1345 0.9909 0.0000
v -3.8500 0.4429 -0.3851
vt 0.2866 0.8744
vn -0.1345 0.9909 0.0000
f 55/55/55 56/56/56 57/57/57
v -3.5000 0.2625 2.0207
vt 0.3125 0.8298
vn -0.5000 0.0000 0.8660
v -3.6750 0.4667 1.9197
vt 0.2995 0.8450
vn -0.6816 0.0000 0.7317
v -3.6750 0.2333 1.9197
vt 0.2995 0.8277
vn -0.6816 0.0000 0.7317
f 58/58/58 59/59/59 60/60/60
v -3.1500 0.2096 1.0250
vt 0.3384 0.8571
vn 0.1345 0.9909 0.0000
v -3.3250 0.2333 0.6399
vt 0.3255 0.8589
vn 0.1345 0.9909 0.0000
v -3.3250 0.2333 1.2798
vt 0.3255 0.8589
vn 0.1345 0.9909 0.0000
f 61/61/61 62/62/62 63/63/63
v -3.1500 0.4904 1.5346
vt 0.3384 0.8155
vn 0.1345 -0.9909 -0.0000
v -3.3250 0.4667 1.9197
vt 0.3255 0.8137
vn 0.1345 -0.9909 -0.0000
v -3.3250 0.4667 1.2798
vt 0.3255 0.8137
vn 0.1345 -0.9909 -0.0000
f 64/64/64 65/65/65 66/66/66
v -3.1500 0.2096 -1.5346
vt 0.3384 0.8571
vn 0.1345 0.9909 0.0000
v -3.3250 0.2333 -1.9197
vt 0.3255 0.8589
vn 0.1345 0.9909 0.0000
v -3.3250 0.2333 -1.2798
vt 0.3255 0.8589
vn 0.1345 0.9909 0.0000
f 67/67/67 68/68/68 69/69/69
v -3.5000 0.2625 2.0207
vt 0.3125 0.8298
vn -0.5000 0.0000 0.8660
v -3.5000 0.7000 2.0207
vt 0.3125 0.8623
vn -0.5000 0.0000 0.8660
v -3.6750 0.4667 1.9197
vt 0.2995 0.8450
vn -0.6816 0.0000 0.7317
f 70/70/70 71/71/71 72/72/72
v -3.5000 -0.1750 2.0207
vt 0.3125 0.7974
vn -0.5000 0.0000 0.8660
v -3.5000 0.2625 2.0207
vt 0.3125 0.8298
vn -0.5000 0.0000 0.8660
v -3.6750 0.0000 1.9197
vt 0.2995 0.8104
vn -0.6955 0.0000 0.7186
f 73/73/73 74/74/74 75/75/75
v -3.1500 0.4904 -1.0250
vt 0.3384 0.8155
vn 0.1345 -0.9909 -0.0000
v -3.3250 0.4667 -0.6399
vt 0.3255 0.8137
vn 0.1345 -0.9909 -0.0000
v -3.3250 0.4667 -1.2798
vt 0.3255 0.8137
vn 0.1345 -0.9909 -0.0000
f 76/76/76 77/77/77 78/78/78
v -3.3250 0.2333 0.6399
vt 0.3255 0.7964
vn 0.1345 -0.9909 -0.0000
v -3.3250 0.2333 0.0000
vt 0.3255 0.7964
vn 0.1345 -0.9909 -0.0000
v -3.1500 0.2571 0.3851
vt 0.3384 0.7982
vn 0.1345 -0.9909 -0.0000
f 79/79/79 80/80/80 81/81/81
v -3.1500 0.4429 0.3851
vt 0.3384 0.8744
vn 0.1345 0.9909 0.0000
v -3.3250 0.4667 0.0000
vt 0.3255 0.8762
vn 0.1345 0.9909 0.0000
v -3.3250 0.4667 0.6399
vt 0.3255 0.8762
vn 0.1345 0.9909 0.0000
f 82/82/82 83/83/83 84/84/84
v -3.3250 0.4667 0.0000
vt 0.3255 0.8137
vn 0.1345 -0.9909 -0.0000
v -3.3250 0.4667 -0.6399
vt 0.3255 0.8137
vn 0.1345 -0.9909 -0.0000
v -3.1500 0.4904 -0.2548
vt 0.3384 0.8155
vn 0.1345 -0.9909 -0.0000
f 85/85/85 86/86/86 87/87/87
v -3.1500 0.6762 1.0250
vt 0.3384 0.8917
vn 0.4591 0.8861 -0.0640
v -3.3250 0.7000 0.6399
vt 0.3255 0.8623
vn 0.1113 0.9938 -0.0000
v -3.3250 0.7665 1.0191
vt 0.3255 0.8984
vn 0.2333 0.9688 -0.0841
f 88/88/88 89/89/89 90/90/90
v -3.1500 0.2096 -0.2548
vt 0.3384 0.8571
vn 0.1345 0.9909 0.0000
v -3.3250 0.2333 -0.6399
vt 0.3255 0.8589
vn 0.1345 0.9909 0.0000
v -3.3250 0.2333 0.0000
vt 0.3255 0.8589
vn 0.1345 0.9909 0.0000
f 91/91/91 92/92/92 93/93/93
v -3.1500 0.4429 -0.8947
vt 0.3384 0.8744
vn 0.1345 0.9909 0.0000
v -3.3250 0.4667 -1.2798
vt 0.3255 0.8762
vn 0.1345 0.9909 0.0000
v -3.3250 0.4667 -0.6399
vt 0.3255 0.8762
vn 0.1345 0.9909 0.0000
f 94/94/94 95/95/95 96/96/96
v -3.8500 0.2571 -0.8947
vt 0.2866 0.7982
vn -0.1345 -0.9909 0.0000
v -3.6750 0.2333 -0.6399
vt 0.2995 0.7964
vn -0.1345 -0.9909 0.0000
v -3.8500 0.2571 -0.3851
vt 0.2866 0.7982
vn -0.1345 -0.9909 0.0000
f 97/97/97 98/98/98 99/99/99
v -3.3250 0.4667 -1.9197
vt 0.3255 0.8450
vn 0.6816 0.0000 -0.7317
v -3.5000 0.7000 -2.0207
vt 0.3125 0.8623
vn 0.5000 -0.0000 -0.8660
v -3.3250 0.7000 -1.9197
vt 0.3255 0.8623
vn 0.7367 -0.0000 -0.6763
f 100/100/100 101/101/101 102/102/102
v -3.1500 0.4904 -0.2548
vt 0.3384 0.8467
vn 0.9765 -0.0000 -0.2154
v -3.1500 0.6762 -0.2548
vt 0.3384 0.8605
vn 0.9765 -0.0000 -0.2154
v -3.1500 0.6762 0.2548
vt 0.3384 0.8605
vn 0.9765 -0.0000 0.2154
v -3.1500 0.4904 0.2548
vt 0.3384 0.8467
vn 0.9765 -0.0000 0.2154
f 103/103/103 104/104/104 105/105/105 106/106/106
v -3.1500 0.2571 0.8947
vt 0.3384 0.8294
vn 0.9765 -0.0000 0.2154
v -3.1500 0.2571 0.3851
vt 0.3384 0.8294
vn 0.9765 -0.0000 -0.2154
v -3.1500 0.4429 0.3851
vt 0.3384 0.8432
vn 0.9765 -0.0000 -0.2154
v -3.1500 0.4429 0.8947
vt 0.3384 0.8432
vn 0.9765 -0.0000 0.2154
f 107/107/107 108/108/108 109/109/109 110/110/110
v -3.3250 0.7665 -0.2607
vt 0.3255 0.8984
vn 0.2333 0.9688 -0.0841
v -3.1500 0.6762 -0.2548
vt 0.3384 0.8917
vn 0.4591 0.8861 -0.0640
v -3.3250 0.7000 -0.6399
vt 0.3255 0.8623
vn 0.1113 0.9938 -0.0000
f 111/111/111 112/112/112 113/113/113
v -3.1500 0.2571 -0.8947
vt 0.3384 0.7982
vn 0.1345 -0.9909 -0.0000
v -3.1500 0.2571 -0.3851
vt 0.3384 0.7982
vn 0.1345 -0.9909 -0.0000
v -3.3250 0.2333 -0.6399
vt 0.3255 0.7964
vn 0.1345 -0.9909 -0.0000
f 114/114/114 115/115/115 116/116/116
v -3.1500 0.2571 -0.3851
vt 0.3384 0.7982
vn 0.1345 -0.9909 -0.0000
v -3.3250 0.2333 0.0000
vt 0.3255 0.7964
vn 0.1345 -0.9909 -0.0000
v -3.3250 0.2333 -0.6399
vt 0.3255 0.7964
vn 0.1345 -0.9909 -0.0000
f 117/117/117 118/118/118 119/119/119
v -3.8500 0.6762 1.0250
vt 0.2866 0.8917
vn -0.4591 0.8861 -0.0640
v -3.6750 0.7665 1.0191
vt 0.2995 0.8984
vn -0.2333 0.9688 -0.0841
v -3.6750 0.7000 0.6399
vt 0.2995 0.8623
vn -0.1113 0.9938 0.0000
f 120/120/120 121/121/121 122/122/122
v -3.3250 0.0000 -0.6399
vt 0.3255 0.7791
vn 0.6053 -0.7960 0.0000
v -3.1500 0.0238 -0.2548
vt 0.3384 0.7809
vn 0.1345 -0.9909 -0.0000
v -3.1500 0.0238 0.2548
vt 0.3384 0.7809
vn 0.1345 -0.9909 -0.0000
v -3.3250 0.0000 0.6399
vt 0.3255 0.7791
vn 0.6053 -0.7960 0.0000
f 123/123/123 124/124/124 125/125/125 126/126/126
v -3.5000 -0.1750 0.6386
vt 0.3125 0.7661
vn 0.7071 -0.7071 0.0000
v -3.5000 -0.1750 -0.6386
vt 0.3125 0.7661
vn 0.7071 -0.7071 0.0000
v -3.3250 0.0000 -0.6399
vt 0.3255 0.7791
vn 0.6053 -0.7960 0.0000
v -3.3250 0.0000 0.6399
vt 0.3255 0.7791
vn 0.6053 -0.7960 0.0000
f 127/127/127 128/128/128 129/129/129 130/130/130
v -3.6750 0.0000 -1.9197
vt 0.2995 0.7791
vn -0.6231 -0.7821 0.0000
v -3.5000 -0.1750 -2.0207
vt 0.3125 0.7661
vn -0.7071 -0.7071 0.0000
v -3.5000 -0.1750 -0.6386
vt 0.3125 0.7661
vn -0.7071 -0.7071 0.0000
v -3.6750 0.0000 -0.6399
vt 0.2995 0.7791
vn -0.6053 -0.7960 0.0000
f 131/131/131 132/132/132 133/133/133 134/134/134
v -3.1500 0.0238 1.0250
vt 0.3384 0.7809
vn 0.1345 -0.9909 -0.0000
v -3.1500 0.0238 1.5346
vt 0.3384 0.7809
vn 0.1345 -0.9909 -0.0000
v -3.3250 0.0000 1.9197
vt 0.3255 0.7791
vn 0.6231 -0.7821 0.0000
v -3.3250 0.0000 0.6399
vt 0.3255 0.7791
vn 0.6053 -0.7960 0.0000
f 135/135/135 136/136/136 137/137/137 138/138/138
v -3.8500 0.2096 1.5346
vt 0.2866 0.8571
vn -0.1345 0.9909 0.0000
v -3.6750 0.2333 1.9197
vt 0.2995 0.8589
vn -0.1345 0.9909 0.0000
v -3.6750 0.2333 1.2798
vt 0.2995 0.8589
vn -0.1345 0.9909 0.0000
f 139/139/139 140/140/140 141/141/141
v -3.6750 0.2333 1.2798
vt 0.2995 0.8589
vn -0.1345 0.9909 0.0000
v -3.6750 0.2333 0.6399
vt 0.2995 0.8589
vn -0.1345 0.9909 0.0000
v -3.8500 0.2096 1.0250
vt 0.2866 0.8571
vn -0.1345 0.9909 0.0000
f 142/142/142 143/143/143 144/144/144
v -3.8500 0.4429 -0.8947
vt 0.2866 0.8432
vn -0.9765 0.0000 -0.2154
v -3.6750 0.4667 -1.2798
vt 0.2995 0.8137
vn -0.9104 0.0000 -0.4137
v -3.6750 0.2333 -1.2798
vt 0.2995 0.7964
vn -0.9104 0.0000 -0.4137
v -3.8500 0.2571 -0.8947
vt 0.2866 0.8294
vn -0.9765 0.0000 -0.2154
f 145/145/145 146/146/146 147/147/147 148/148/148
v -3.6750 0.4667 0.6399
vt 0.2995 0.8137
vn -0.1345 -0.9909 0.0000
v -3.6750 0.4667 1.2798
vt 0.2995 0.8137
vn -0.1345 -0.9909 0.0000
v -3.8500 0.4904 1.0250
vt 0.2866 0.8155
vn -0.1345 -0.9909 0.0000
f 149/149/149 150/150/150 151/151/151
v -3.6750 0.4667 1.2798
vt 0.2995 0.8137
vn -0.1345 -0.9909 0.0000
v -3.6750 0.4667 1.9197
vt 0.2995 0.8137
vn -0.1345 -0.9909 0.0000
v -3.8500 0.4904 1.5346
vt 0.2866 0.8155
vn -0.1345 -0.9909 0.0000
f 152/152/152 153/153/153 154/154/154
v -3.8500 0.0238 1.5346
vt 0.2866 0.8121
vn -0.9765 0.0000 0.2154
v -3.6750 0.0000 1.9197
vt 0.2995 0.8104
vn -0.6955 0.0000 0.7186
v -3.6750 0.2333 1.9197
vt 0.2995 0.8277
vn -0.6816 0.0000 0.7317
v -3.8500 0.2096 1.5346
vt 0.2866 0.8259
vn -0.9765 0.0000 0.2154
f 155/155/155 156/156/156 157/157/157 158/158/158
v -3.3250 0.2333 -1.2798
vt 0.3255 0.7964
vn 0.1345 -0.9909 -0.0000
v -3.3250 0.2333 -1.9197
vt 0.3255 0.7964
vn 0.1345 -0.9909 -0.0000
v -3.1500 0.2571 -1.7271
vt 0.3384 0.7982
vn 0.1345 -0.9909 -0.0000
v -3.1500 0.2571 -1.4723
vt 0.3384 0.7982
vn 0.1345 -0.9909 -0.0000
f 159/159/159 160/160/160 161/161/161 162/162/162
v -3.8500 0.4904 -1.0250
vt 0.2866 0.8467
vn -0.9765 0.0000 0.2154
v -3.6750 0.4667 -0.6399
vt 0.2995 0.8450
vn -0.9104 0.0000 0.4137
v -3.6750 0.7000 -0.6399
vt 0.2995 0.8623
vn -0.9104 0.0000 0.4137
v -3.8500 0.6762 -1.0250
vt 0.2866 0.8605
vn -0.9765 0.0000 0.2154
f 163/163/163 164/164/164 165/165/165 166/166/166
v -3.6750 0.2333 -1.2798
vt 0.2995 0.8589
vn -0.1345 0.9909 0.0000
v -3.6750 0.2333 -1.9197
vt 0.2995 0.8589
vn -0.1345 0.9909 0.0000
v -3.8500 0.2096 -1.5346
vt 0.2866 0.8571
vn -0.1345 0.9909 0.0000
f 167/167/167 168/168/168 169/169/169
v -3.8500 0.2096 -1.5346
vt 0.2866 0.8571
vn -0.1345 0.9909 0.0000
v -3.8500 0.2096 -1.0250
vt 0.2866 0.8571
vn -0.1345 0.9909 0.0000
v -3.6750 0.2333 -1.2798
vt 0.2995 0.8589
vn -0.1345 0.9909 0.0000
f 170/170/170 171/171/171 172/172/172
v -3.3250 0.2333 0.0000
vt 0.3255 0.8277
vn 0.9104 0.0000 -0.4137
v -3.3250 0.4667 0.0000
vt 0.3255 0.8450
vn 0.9104 0.0000 -0.4137
v -3.1500 0.4429 0.3851
vt 0.3384 0.8432
vn 0.9765 -0.0000 -0.2154
v -3.1500 0.2571 0.3851
vt 0.3384 0.8294
vn 0.9765 -0.0000 -0.2154
f 173/173/173 174/174/174 175/175/175 176/176/176
v -3.8500 0.2096 -1.5346
vt 0.2866 0.8259
vn -0.9765 0.0000 -0.2154
v -3.8500 0.0238 -1.5346
vt 0.2866 0.8121
vn -0.9765 0.0000 -0.2154
v -3.8500 0.0238 -1.0250
vt 0.2866 0.8121
vn -0.9765 0.0000 0.2154
v -3.8500 0.2096 -1.0250
vt 0.2866 0.8259
vn -0.9765 0.0000 0.2154
f 177/177/177 178/178/178 179/179/179 180/180/180
v -3.3250 0.2333 1.9197
vt 0.3255 0.7964
vn 0.1345 -0.9909 -0.0000
v -3.3250 0.2333 1.2798
vt 0.3255 0.7964
vn 0.1345 -0.9909 -0.0000
v -3.1500 0.2571 1.4723
vt 0.3384 0.7982
vn 0.1345 -0.9909 -0.0000
v -3.1500 0.2571 1.7271
vt 0.3384 0.7982
vn 0.1345 -0.9909 -0.0000
f 181/181/181 182/182/182 183/183/183 184/184/184
v -3.6750 0.0000 1.9197
vt 0.2995 0.8104
vn -0.6955 0.0000 0.7186
v -3.5000 0.2625 2.0207
vt 0.3125 0.8298
vn -0.5000 0.0000 0.8660
v -3.6750 0.2333 1.9197
vt 0.2995 0.8277
vn -0.6816 0.0000 0.7317
f 185/185/185 186/186/186 187/187/187
v -3.3250 0.4667 -1.9197
vt 0.3255 0.8450
vn 0.6816 0.0000 -0.7317
v -3.5000 0.2625 -2.0207
vt 0.3125 0.8298
vn 0.5000 -0.0000 -0.8660
v -3.5000 0.7000 -2.0207
vt 0.3125 0.8623
vn 0.5000 -0.0000 -0.8660
f 188/188/188 189/189/189 190/190/190
v -3.1500 0.0238 1.0250
vt 0.3384 0.8121
vn 0.9765 -0.0000 -0.2154
v -3.1500 0.2096 1.0250
vt 0.3384 0.8259
vn 0.9765 -0.0000 -0.2154
v -3.1500 0.2096 1.5346
vt 0.3384 0.8259
vn 0.9765 -0.0000 0.2154
v -3.1500 0.0238 1.5346
vt 0.3384 0.8121
vn 0.9765 -0.0000 0.2154
f 191/191/191 192/192/192 193/193/193 194/194/194
v -3.8500 0.2571 -1.4723
vt 0.2866 0.7982
vn -0.1345 -0.9909 0.0000
v -3.8500 0.2571 -1.7271
vt 0.2866 0.7982
vn -0.1345 -0.9909 0.0000
v -3.6750 0.2333 -1.9197
vt 0.2995 0.7964
vn -0.1345 -0.9909 0.0000
v -3.6750 0.2333 -1.2798
vt 0.2995 0.7964
vn -0.1345 -0.9909 0.0000
f 195/195/195 196/196/196 197/197/197 198/198/198
v -3.8500 0.4904 -1.5346
vt 0.2866 0.8155
vn -0.1345 -0.9909 0.0000
v -3.6750 0.4667 -1.9197
vt 0.2995 0.8137
vn -0.1345 -0.9909 0.0000
v -3.6750 0.4667 -1.2798
vt 0.2995 0.8137
vn -0.1345 -0.9909 0.0000
f 199/199/199 200/200/200 201/201/201
v -3.6750 0.4667 -1.2798
vt 0.2995 0.8137
vn -0.1345 -0.9909 0.0000
v -3.6750 0.4667 -0.6399
vt 0.2995 0.8137
vn -0.1345 -0.9909 0.0000
v -3.8500 0.4904 -1.0250
vt 0.2866 0.8155
vn -0.1345 -0.9909 0.0000
f 202/202/202 203/203/203 204/204/204
v -3.8500 0.4429 0.3851
vt 0.2866 0.8432
vn -0.9765 0.0000 -0.2154
v -3.8500 0.2571 0.3851
vt 0.2866 0.8294
vn -0.9765 0.0000 -0.2154
v -3.8500 0.2571 0.8947
vt 0.2866 0.8294
vn -0.9765 0.0000 0.2154
v -3.8500 0.4429 0.8947
vt 0.2866 0.8432
vn -0.9765 0.0000 0.2154
f 205/205/205 206/206/206 207/207/207 208/208/208
v -3.1500 0.0238 0.2548
vt 0.3384 0.8121
vn 0.9765 -0.0000 0.2154
v -3.1500 0.0238 -0.2548
vt 0.3384 0.8121
vn 0.9765 -0.0000 -0.2154
v -3.1500 0.2096 -0.2548
vt 0.3384 0.8259
vn 0.9765 -0.0000 -0.2154
v -3.1500 0.2096 0.2548
vt 0.3384 0.8259
vn 0.9765 -0.0000 0.2154
f 209/209/209 210/210/210 211/211/211 212/212/212
v -3.3250 0.7000 -0.6399
vt 0.3255 0.8310
vn 0.9104 0.0000 0.4137
v -3.3250 0.4667 -0.6399
vt 0.3255 0.8137
vn 0.9104 0.0000 0.4137
v -3.1500 0.4904 -1.0250
vt 0.3384 0.8467
vn 0.9765 -0.0000 0.2154
v -3.1500 0.6762 -1.0250
vt 0.3384 0.8605
vn 0.9765 -0.0000 0.2154
f 213/213/213 214/214/214 215/215/215 216/216/216
v -3.8500 0.0238 1.0250
vt 0.2866 0.8121
vn -0.9765 0.0000 -0.2154
v -3.8500 0.0238 1.5346
vt 0.2866 0.8121
vn -0.9765 0.0000 0.2154
v -3.8500 0.2096 1.5346
vt 0.2866 0.8259
vn -0.9765 0.0000 0.2154
v -3.8500 0.2096 1.0250
vt 0.2866 0.8259
vn -0.9765 0.0000 -0.2154
f 217/217/217 218/218/218 219/219/219 220/220/220
v -3.3250 0.2333 -0.6399
vt 0.3255 0.7964
vn 0.9104 0.0000 0.4137
v -3.3250 0.0000 -0.6399
vt 0.3255 0.7791
vn 0.9104 0.0000 0.4137
v -3.1500 0.0238 -1.0250
vt 0.3384 0.8121
vn 0.9765 -0.0000 0.2154
v -3.1500 0.2096 -1.0250
vt 0.3384 0.8259
vn 0.9765 -0.0000 0.2154
f 221/221/221 222/222/222 223/223/223 224/224/224
v -3.1500 0.4904 1.0250
vt 0.3384 0.8467
vn 0.9765 -0.0000 -0.2154
v -3.3250 0.4667 0.6399
vt 0.3255 0.8450
vn 0.9104 0.0000 -0.4137
v -3.3250 0.7000 0.6399
vt 0.3255 0.8623
vn 0.9104 0.0000 -0.4137
v -3.1500 0.6762 1.0250
vt 0.3384 0.8605
vn 0.9765 -0.0000 -0.2154
f 225/225/225 226/226/226 227/227/227 228/228/228
v -3.8500 0.4904 -0.2548
vt 0.2866 0.8467
vn -0.9765 0.0000 -0.2154
v -3.8500 0.4904 0.2548
vt 0.2866 0.8467
vn -0.9765 0.0000 0.2154
v -3.8500 0.6762 0.2548
vt 0.2866 0.8605
vn -0.9765 0.0000 0.2154
v -3.8500 0.6762 -0.2548
vt 0.2866 0.8605
vn -0.9765 0.0000 -0.2154
f 229/229/229 230/230/230 231/231/231 232/232/232
v -3.8500 0.0238 0.2548
vt 0.2866 0.8121
vn -0.9765 0.0000 0.2154
v -3.6750 0.0000 0.6399
vt 0.2995 0.8104
vn -0.9104 0.0000 0.4137
v -3.6750 0.2333 0.6399
vt 0.2995 0.8277
vn -0.9104 0.0000 0.4137
v -3.8500 0.2096 0.2548
vt 0.2866 0.8259
vn -0.9765 0.0000 0.2154
f 233/233/233 234/234/234 235/235/235 236/236/236
v -3.3250 0.2333 0.6399
vt 0.3255 0.7964
vn 0.9104 0.0000 0.4137
v -3.3250 0.0000 0.6399
vt 0.3255 0.7791
vn 0.9104 0.0000 0.4137
v -3.1500 0.0238 0.2548
vt 0.3384 0.8121
vn 0.9765 -0.0000 0.2154
v -3.1500 0.2096 0.2548
vt 0.3384 0.8259
vn 0.9765 -0.0000 0.2154
f 237/237/237 238/238/238 239/239/239 240/240/240
v -3.8500 0.2096 -0.2548
vt 0.2866 0.8259
vn -0.9765 0.0000 -0.2154
v -3.6750 0.2333 -0.6399
vt 0.2995 0.7964
vn -0.9104 0.0000 -0.4137
v -3.6750 0.0000 -0.6399
vt 0.2995 0.7791
vn -0.9104 0.0000 -0.4137
v -3.8500 0.0238 -0.2548
vt 0.2866 0.8121
vn -0.9765 0.0000 -0.2154
f 241/241/241 242/242/242 243/243/243 244/244/244
v -3.6750 0.2333 0.0000
vt 0.2995 0.7964
vn -0.1345 -0.9909 0.0000
v -3.6750 0.2333 0.6399
vt 0.2995 0.7964
vn -0.1345 -0.9909 0.0000
v -3.8500 0.2571 0.3851
vt 0.2866 0.7982
vn -0.1345 -0.9909 0.0000
f 245/245/245 246/246/246 247/247/247
v -3.6750 0.2333 0.6399
vt 0.2995 0.7964
vn -0.1345 -0.9909 0.0000
v -3.6750 0.2333 1.2798
vt 0.2995 0.7964
vn -0.1345 -0.9909 0.0000
v -3.8500 0.2571 0.8947
vt 0.2866 0.7982
vn -0.1345 -0.9909 0.0000
f 248/248/248 249/249/249 250/250/250
v -3.8500 0.4429 0.8947
vt 0.2866 0.8744
vn -0.1345 0.9909 0.0000
v -3.6750 0.4667 1.2798
vt 0.2995 0.8762
vn -0.1345 0.9909 0.0000
v -3.6750 0.4667 0.6399
vt 0.2995 0.8762
vn -0.1345 0.9909 0.0000
f 251/251/251 252/252/252 253/253/253
v -3.6750 0.4667 0.6399
vt 0.2995 0.8762
vn -0.1345 0.9909 0.0000
v -3.6750 0.4667 0.0000
vt 0.2995 0.8762
vn -0.1345 0.9909 0.0000
v -3.8500 0.4429 0.3851
vt 0.2866 0.8744
vn -0.1345 0.9909 0.0000
f 254/254/254 255/255/255 256/256/256
v -3.1500 0.2571 -0.3851
vt 0.3384 0.8294
vn 0.9765 -0.0000 0.2154
v -3.1500 0.2571 -0.8947
vt 0.3384 0.8294
vn 0.9765 -0.0000 -0.2154
v -3.1500 0.4429 -0.8947
vt 0.3384 0.8432
vn 0.9765 -0.0000 -0.2154
v -3.1500 0.4429 -0.3851
vt 0.3384 0.8432
vn 0.9765 -0.0000 0.2154
f 257/257/257 258/258/258 259/259/259 260/260/260
v -3.6750 0.4667 -0.6399
vt 0.2995 0.8137
vn -0.1345 -0.9909 0.0000
v -3.6750 0.4667 0.0000
vt 0.2995 0.8137
vn -0.1345 -0.9909 0.0000
v -3.8500 0.4904 -0.2548
vt 0.2866 0.8155
vn -0.1345 -0.9909 0.0000
f 261/261/261 262/262/262 263/263/263
v -3.6750 0.4667 0.0000
vt 0.2995 0.8137
vn -0.1345 -0.9909 0.0000
v -3.6750 0.4667 0.6399
vt 0.2995 0.8137
vn -0.1345 -0.9909 0.0000
v -3.8500 0.4904 0.2548
vt 0.2866 0.8155
vn -0.1345 -0.9909 0.0000
f 264/264/264 265/265/265 266/266/266
v -3.3250 0.4667 -0.6399
vt 0.3255 0.8450
vn 0.9104 0.0000 -0.4137
v -3.3250 0.7000 -0.6399
vt 0.3255 0.8623
vn 0.9104 0.0000 -0.4137
v -3.1500 0.6762 -0.2548
vt 0.3384 0.8605
vn 0.9765 -0.0000 -0.2154
v -3.1500 0.4904 -0.2548
vt 0.3384 0.8467
vn 0.9765 -0.0000 -0.2154
f 267/267/267 268/268/268 269/269/269 270/270/270
v -3.6750 0.7000 -1.9197
vt 0.2995 0.8310
vn -0.7367 0.0000 -0.6763
v -3.5000 0.7000 -2.0207
vt 0.3125 0.8310
vn -0.5000 0.0000 -0.8660
v -3.6750 0.4667 -1.9197
vt 0.2995 0.8137
vn -0.6816 0.0000 -0.7317
f 271/271/271 272/272/272 273/273/273
v -3.3250 0.7665 -0.2607
vt 0.3255 0.8984
vn 0.2333 0.9688 -0.0841
v -3.3250 0.7000 -0.6399
vt 0.3255 0.8623
vn 0.1113 0.9938 -0.0000
v -3.6750 0.7000 -0.6399
vt 0.2995 0.8623
vn -0.1113 0.9938 0.0000
v -3.6750 0.7665 -0.2607
vt 0.2995 0.8984
vn -0.2333 0.9688 -0.0841
f 274/274/274 275/275/275 276/276/276 277/277/277
v -3.8500 0.2096 0.2548
vt 0.2866 0.8571
vn -0.1345 0.9909 0.0000
v -3.6750 0.2333 0.6399
vt 0.2995 0.8589
vn -0.1345 0.9909 0.0000
v -3.6750 0.2333 0.0000
vt 0.2995 0.8589
vn -0.1345 0.9909 0.0000
f 278/278/278 279/279/279 280/280/280
v -3.6750 0.2333 0.0000
vt 0.2995 0.8589
vn -0.1345 0.9909 0.0000
v -3.6750 0.2333 -0.6399
vt 0.2995 0.8589
vn -0.1345 0.9909 0.0000
v -3.8500 0.2096 -0.2548
vt 0.2866 0.8571
vn -0.1345 0.9909 0.0000
f 281/281/281 282/282/282 283/283/283
v -3.3250 0.0000 -0.6399
vt 0.3255 0.8104
vn 0.9104 0.0000 -0.4137
v -3.3250 0.2333 -0.6399
vt 0.3255 0.8277
vn 0.9104 0.0000 -0.4137
v -3.1500 0.2096 -0.2548
vt 0.3384 0.8259
vn 0.9765 -0.0000 -0.2154
v -3.1500 0.0238 -0.2548
vt 0.3384 0.8121
vn 0.9765 -0.0000 -0.2154
f 284/284/284 285/285/285 286/286/286 287/287/287
v -3.8500 0.0238 -1.0250
vt 0.2866 0.8121
vn -0.9765 0.0000 0.2154
v -3.6750 0.0000 -0.6399
vt 0.2995 0.8104
vn -0.9104 0.0000 0.4137
v -3.6750 0.2333 -0.6399
vt 0.2995 0.8277
vn -0.9104 0.0000 0.4137
v -3.8500 0.2096 -1.0250
vt 0.2866 0.8259
vn -0.9765 0.0000 0.2154
f 288/288/288 289/289/289 290/290/290 291/291/291
v -3.8500 0.4429 -0.3851
vt 0.2866 0.8744
vn -0.1345 0.9909 0.0000
v -3.6750 0.4667 0.0000
vt 0.2995 0.8762
vn -0.1345 0.9909 0.0000
v -3.6750 0.4667 -0.6399
vt 0.2995 0.8762
vn -0.1345 0.9909 0.0000
f 292/292/292 293/293/293 294/294/294
v -3.6750 0.4667 -0.6399
vt 0.2995 0.8762
vn -0.1345 0.9909 0.0000
v -3.6750 0.4667 -1.2798
vt 0.2995 0.8762
vn -0.1345 0.9909 0.0000
v -3.8500 0.4429 -0.8947
vt 0.2866 0.8744
vn -0.1345 0.9909 0.0000
f 295/295/295 296/296/296 297/297/297
v -3.8500 0.6762 1.0250
vt 0.2866 0.8605
vn -0.9765 0.0000 -0.2154
v -3.6750 0.7000 0.6399
vt 0.2995 0.8310
vn -0.9104 0.0000 -0.4137
v -3.6750 0.4667 0.6399
vt 0.2995 0.8137
vn -0.9104 0.0000 -0.4137
v -3.8500 0.4904 1.0250
vt 0.2866 0.8467
vn -0.9765 0.0000 -0.2154
f 298/298/298 299/299/299 300/300/300 301/301/301
v -3.3250 0.7000 0.6399
vt 0.3255 0.8310
vn 0.9104 0.0000 0.4137
v -3.3250 0.4667 0.6399
vt 0.3255 0.8137
vn 0.9104 0.0000 0.4137
v -3.1500 0.4904 0.2548
vt 0.3384 0.8467
vn 0.9765 -0.0000 0.2154
v -3.1500 0.6762 0.2548
vt 0.3384 0.8605
vn 0.9765 -0.0000 0.2154
f 302/302/302 303/303/303 304/304/304 305/305/305
v -3.1500 0.4904 -1.5346
vt 0.3384 0.8467
vn 0.9765 -0.0000 -0.2154
v -3.1500 0.6762 -1.5346
vt 0.3384 0.8605
vn 0.9765 -0.0000 -0.2154
v -3.1500 0.6762 -1.0250
vt 0.3384 0.8605
vn 0.9765 -0.0000 0.2154
v -3.1500 0.4904 -1.0250
vt 0.3384 0.8467
vn 0.9765 -0.0000 0.2154
f 306/306/306 307/307/307 308/308/308 309/309/309
v -3.3250 0.2333 1.2798
vt 0.3255 0.8277
vn 0.7400 0.0000 -0.6726
v -3.3250 0.4667 1.2798
vt 0.3255 0.8450
vn 0.7400 0.0000 -0.6726
v -3.1500 0.4429 1.4723
vt 0.3384 0.8432
vn 0.7400 0.0000 -0.6726
v -3.1500 0.2571 1.4723
vt 0.3384 0.8294
vn 0.7400 0.0000 -0.6726
f 310/310/310 311/311/311 312/312/312 313/313/313
v -3.6750 0.0000 -0.6399
vt 0.2995 0.7791
vn -0.6053 -0.7960 0.0000
v -3.5000 -0.1750 -0.6386
vt 0.3125 0.7661
vn -0.7071 -0.7071 0.0000
v -3.5000 -0.1750 0.6386
vt 0.3125 0.7661
vn -0.7071 -0.7071 0.0000
v -3.6750 0.0000 0.6399
vt 0.2995 0.7791
vn -0.6053 -0.7960 0.0000
f 314/314/314 315/315/315 316/316/316 317/317/317
v -3.3250 0.4667 -1.2798
vt 0.3255 0.8137
vn 0.7400 -0.0000 0.6726
v -3.3250 0.2333 -1.2798
vt 0.3255 0.7964
vn 0.7400 -0.0000 0.6726
v -3.1500 0.2571 -1.4723
vt 0.3384 0.8294
vn 0.7400 -0.0000 0.6726
v -3.1500 0.4429 -1.4723
vt 0.3384 0.8432
vn 0.7400 -0.0000 0.6726
f 318/318/318 319/319/319 320/320/320 321/321/321
v -3.8500 0.2571 1.7271
vt 0.2866 0.8294
vn -0.7400 0.0000 0.6726
v -3.6750 0.2333 1.9197
vt 0.2995 0.8277
vn -0.6816 0.0000 0.7317
v -3.6750 0.4667 1.9197
vt 0.2995 0.8450
vn -0.6816 0.0000 0.7317
v -3.8500 0.4429 1.7271
vt 0.2866 0.8432
vn -0.7400 0.0000 0.6726
f 322/322/322 323/323/323 324/324/324 325/325/325
v -3.3250 0.4667 1.2798
vt 0.3255 0.8762
vn 0.1345 0.9909 0.0000
v -3.3250 0.4667 1.9197
vt 0.3255 0.8762
vn 0.1345 0.9909 0.0000
v -3.1500 0.4429 1.7271
vt 0.3384 0.8744
vn 0.1345 0.9909 0.0000
v -3.1500 0.4429 1.4723
vt 0.3384 0.8744
vn 0.1345 0.9909 0.0000
f 326/326/326 327/327/327 328/328/328 329/329/329
v -3.8500 0.0238 0.2548
vt 0.2866 0.7809
vn -0.1345 -0.9909 0.0000
v -3.8500 0.0238 -0.2548
vt 0.2866 0.7809
vn -0.1345 -0.9909 0.0000
v -3.6750 0.0000 -0.6399
vt 0.2995 0.7791
vn -0.6053 -0.7960 0.0000
v -3.6750 0.0000 0.6399
vt 0.2995 0.7791
vn -0.6053 -0.7960 0.0000
f 330/330/330 331/331/331 332/332/332 333/333/333
v -3.3250 0.4667 1.9197
vt 0.3255 0.8137
vn 0.6816 -0.0000 0.7317
v -3.5000 0.2625 2.0207
vt 0.3125 0.7986
vn 0.5000 0.0000 0.8660
v -3.3250 0.2333 1.9197
vt 0.3255 0.7964
vn 0.6816 -0.0000 0.7317
f 334/334/334 335/335/335 336/336/336
v -3.6750 0.0000 1.9197
vt 0.2995 0.7791
vn -0.6231 -0.7821 0.0000
v -3.6750 0.0000 0.6399
vt 0.2995 0.7791
vn -0.6053 -0.7960 0.0000
v -3.5000 -0.1750 0.6386
vt 0.3125 0.7661
vn -0.7071 -0.7071 0.0000
v -3.5000 -0.1750 2.0207
vt 0.3125 0.7661
vn -0.7071 -0.7071 0.0000
f 337/337/337 338/338/338 339/339/339 340/340/340
v -3.8500 0.0238 -1.0250
vt 0.2866 0.7809
vn -0.1345 -0.9909 0.0000
v -3.8500 0.0238 -1.5346
vt 0.2866 0.7809
vn -0.1345 -0.9909 0.0000
v -3.6750 0.0000 -1.9197
vt 0.2995 0.7791
vn -0.6231 -0.7821 0.0000
v -3.6750 0.0000 -0.6399
vt 0.2995 0.7791
vn -0.6053 -0.7960 0.0000
f 341/341/341 342/342/342 343/343/343 344/344/344
v -3.3250 0.2333 1.2798
vt 0.3255 0.8589
vn 0.1345 0.9909 0.0000
v -3.3250 0.2333 1.9197
vt 0.3255 0.8589
vn 0.1345 0.9909 0.0000
v -3.1500 0.2096 1.5346
vt 0.3384 0.8571
vn 0.1345 0.9909 0.0000
f 345/345/345 346/346/346 347/347/347
v -3.1500 0.2096 1.5346
vt 0.3384 0.8571
vn 0.1345 0.9909 0.0000
v -3.1500 0.2096 1.0250
vt 0.3384 0.8571
vn 0.1345 0.9909 0.0000
v -3.3250 0.2333 1.2798
vt 0.3255 0.8589
vn 0.1345 0.9909 0.0000
f 348/348/348 349/349/349 350/350/350
v -3.8500 0.6762 -0.2548
vt 0.2866 0.8605
vn -0.9765 0.0000 -0.2154
v -3.6750 0.7000 -0.6399
vt 0.2995 0.8310
vn -0.9104 0.0000 -0.4137
v -3.6750 0.4667 -0.6399
vt 0.2995 0.8137
vn -0.9104 0.0000 -0.4137
v -3.8500 0.4904 -0.2548
vt 0.2866 0.8467
vn -0.9765 0.0000 -0.2154
f 351/351/351 352/352/352 353/353/353 354/354/354
v -3.3250 0.4667 0.6399
vt 0.3255 0.8137
vn 0.1345 -0.9909 -0.0000
v -3.1500 0.4904 1.0250
vt 0.3384 0.8155
vn 0.1345 -0.9909 -0.0000
v -3.3250 0.4667 1.2798
vt 0.3255 0.8137
vn 0.1345 -0.9909 -0.0000
f 355/355/355 356/356/356 357/357/357
v -3.1500 0.4904 1.0250
vt 0.3384 0.8155
vn 0.1345 -0.9909 -0.0000
v -3.1500 0.4904 1.5346
vt 0.3384 0.8155
vn 0.1345 -0.9909 -0.0000
v -3.3250 0.4667 1.2798
vt 0.3255 0.8137
vn 0.1345 -0.9909 -0.0000
f 358/358/358 359/359/359 360/360/360
v -3.8500 0.4429 0.3851
vt 0.2866 0.8432
vn -0.9765 0.0000 -0.2154
v -3.6750 0.4667 0.0000
vt 0.2995 0.8137
vn -0.9104 0.0000 -0.4137
v -3.6750 0.2333 0.0000
vt 0.2995 0.7964
vn -0.9104 0.0000 -0.4137
v -3.8500 0.2571 0.3851
vt 0.2866 0.8294
vn -0.9765 0.0000 -0.2154
f 361/361/361 362/362/362 363/363/363 364/364/364
v -3.5000 -0.1750 -0.6386
vt 0.3125 0.7661
vn 0.7071 -0.7071 0.0000
v -3.5000 -0.1750 -2.0207
vt 0.3125 0.7661
vn 0.7071 -0.7071 0.0000
v -3.3250 0.0000 -1.9197
vt 0.3255 0.7791
vn 0.6231 -0.7821 0.0000
v -3.3250 0.0000 -0.6399
vt 0.3255 0.7791
vn 0.6053 -0.7960 0.0000
f 365/365/365 366/366/366 367/367/367 368/368/368
v -3.1500 0.2571 -0.8947
vt 0.3384 0.8294
vn 0.9765 -0.0000 -0.2154
v -3.3250 0.2333 -1.2798
vt 0.3255 0.8277
vn 0.9104 0.0000 -0.4137
v -3.3250 0.4667 -1.2798
vt 0.3255 0.8450
vn 0.9104 0.0000 -0.4137
v -3.1500 0.4429 -0.8947
vt 0.3384 0.8432
vn 0.9765 -0.0000 -0.2154
f 369/369/369 370/370/370 371/371/371 372/372/372
v -3.3250 0.2333 -0.6399
vt 0.3255 0.8589
vn 0.1345 0.9909 0.0000
v -3.1500 0.2096 -1.0250
vt 0.3384 0.8571
vn 0.1345 0.9909 0.0000
v -3.3250 0.2333 -1.2798
vt 0.3255 0.8589
vn 0.1345 0.9909 0.0000
f 373/373/373 374/374/374 375/375/375
v -3.1500 0.2096 -1.0250
vt 0.3384 0.8571
vn 0.1345 0.9909 0.0000
v -3.1500 0.2096 -1.5346
vt 0.3384 0.8571
vn 0.1345 0.9909 0.0000
v -3.3250 0.2333 -1.2798
vt 0.3255 0.8589
vn 0.1345 0.9909 0.0000
f 376/376/376 377/377/377 378/378/378
v -3.1500 0.2571 -1.7271
vt 0.3384 0.8294
vn 0.7400 0.0000 -0.6726
v -3.3250 0.2333 -1.9197
vt 0.3255 0.8277
vn 0.6816 0.0000 -0.7317
v -3.3250 0.4667 -1.9197
vt 0.3255 0.8450
vn 0.6816 0.0000 -0.7317
v -3.1500 0.4429 -1.7271
vt 0.3384 0.8432
vn 0.7400 0.0000 -0.6726
f 379/379/379 380/380/380 381/381/381 382/382/382
v -3.1500 0.4904 1.5346
vt 0.3384 0.8467
vn 0.9765 -0.0000 0.2154
v -3.1500 0.4904 1.0250
vt 0.3384 0.8467
vn 0.9765 -0.0000 -0.2154
v -3.1500 0.6762 1.0250
vt 0.3384 0.8605
vn 0.9765 -0.0000 -0.2154
v -3.1500 0.6762 1.5346
vt 0.3384 0.8605
vn 0.9765 -0.0000 0.2154
f 383/383/383 384/384/384 385/385/385 386/386/386
v -3.8500 0.4429 -1.4723
vt 0.2866 0.8744
vn -0.1345 0.9909 0.0000
v -3.6750 0.4667 -1.2798
vt 0.2995 0.8762
vn -0.1345 0.9909 0.0000
v -3.6750 0.4667 -1.9197
vt 0.2995 0.8762
vn -0.1345 0.9909 0.0000
v -3.8500 0.4429 -1.7271
vt 0.2866 0.8744
vn -0.1345 0.9909 0.0000
f 387/387/387 388/388/388 389/389/389 390/390/390
v -3.5000 0.7000 2.0207
vt 0.3125 0.8310
vn 0.5000 0.0000 0.8660
v -3.5000 0.2625 2.0207
vt 0.3125 0.7986
vn 0.5000 0.0000 0.8660
v -3.3250 0.4667 1.9197
vt 0.3255 0.8137
vn 0.6816 -0.0000 0.7317
f 391/391/391 392/392/392 393/393/393
v -3.1500 0.2571 1.7271
vt 0.3384 0.8294
vn 1.0000 0.0000 0.0000
v -3.1500 0.2571 1.4723
vt 0.3384 0.8294
vn 1.0000 0.0000 0.0000
v -3.1500 0.4429 1.4723
vt 0.3384 0.8432
vn 1.0000 0.0000 0.0000
v -3.1500 0.4429 1.7271
vt 0.3384 0.8432
vn 1.0000 0.0000 0.0000
f 394/394/394 395/395/395 396/396/396 397/397/397
v -3.3250 0.4667 -1.9197
vt 0.3255 0.8762
vn 0.1345 0.9909 0.0000
v -3.3250 0.4667 -1.2798
vt 0.3255 0.8762
vn 0.1345 0.9909 0.0000
v -3.1500 0.4429 -1.4723
vt 0.3384 0.8744
vn 0.1345 0.9909 0.0000
v -3.1500 0.4429 -1.7271
vt 0.3384 0.8744
vn 0.1345 0.9909 0.0000
f 398/398/398 399/399/399 400/400/400 401/401/401
v -3.3250 0.4667 -1.2798
vt 0.3255 0.8137
vn 0.1345 -0.9909 -0.0000
v -3.3250 0.4667 -1.9197
vt 0.3255 0.8137
vn 0.1345 -0.9909 -0.0000
v -3.1500 0.4904 -1.5346
vt 0.3384 0.8155
vn 0.1345 -0.9909 -0.0000
f 402/402/402 403/403/403 404/404/404
v -3.1500 0.4904 -1.5346
vt 0.3384 0.8155
vn 0.1345 -0.9909 -0.0000
v -3.1500 0.4904 -1.0250
vt 0.3384 0.8155
vn 0.1345 -0.9909 -0.0000
v -3.3250 0.4667 -1.2798
vt 0.3255 0.8137
vn 0.1345 -0.9909 -0.0000
f 405/405/405 406/406/406 407/407/407
v -3.8500 0.4429 1.4723
vt 0.2866 0.8432
vn -1.0000 0.0000 0.0000
v -3.8500 0.2571 1.4723
vt 0.2866 0.8294
vn -1.0000 0.0000 0.0000
v -3.8500 0.2571 1.7271
vt 0.2866 0.8294
vn -1.0000 0.0000 0.0000
v -3.8500 0.4429 1.7271
vt 0.2866 0.8432
vn -1.0000 0.0000 0.0000
f 408/408/408 409/409/409 410/410/410 411/411/411
v -3.6750 0.0000 0.6399
vt 0.2995 0.7791
vn -0.6053 -0.7960 0.0000
v -3.6750 0.0000 1.9197
vt 0.2995 0.7791
vn -0.6231 -0.7821 0.0000
v -3.8500 0.0238 1.5346
vt 0.2866 0.7809
vn -0.1345 -0.9909 0.0000
v -3.8500 0.0238 1.0250
vt 0.2866 0.7809
vn -0.1345 -0.9909 0.0000
f 412/412/412 413/413/413 414/414/414 415/415/415
v -3.1500 0.2571 -1.4723
vt 0.3384 0.8294
vn 1.0000 0.0000 0.0000
v -3.1500 0.2571 -1.7271
vt 0.3384 0.8294
vn 1.0000 0.0000 0.0000
v -3.1500 0.4429 -1.7271
vt 0.3384 0.8432
vn 1.0000 0.0000 0.0000
v -3.1500 0.4429 -1.4723
vt 0.3384 0.8432
vn 1.0000 0.0000 0.0000
f 416/416/416 417/417/417 418/418/418 419/419/419
v -3.8500 0.2571 -0.3851
vt 0.2866 0.8294
vn -0.9765 0.0000 0.2154
v -3.6750 0.2333 0.0000
vt 0.2995 0.8277
vn -0.9104 0.0000 0.4137
v -3.6750 0.4667 0.0000
vt 0.2995 0.8450
vn -0.9104 0.0000 0.4137
v -3.8500 0.4429 -0.3851
vt 0.2866 0.8432
vn -0.9765 0.0000 0.2154
f 420/420/420 421/421/421 422/422/422 423/423/423
v -3.3250 0.0000 -1.9197
vt 0.3255 0.8104
vn 0.6955 0.0000 -0.7186
v -3.3250 0.2333 -1.9197
vt 0.3255 0.8277
vn 0.6816 0.0000 -0.7317
v -3.1500 0.2096 -1.5346
vt 0.3384 0.8259
vn 0.9765 -0.0000 -0.2154
v -3.1500 0.0238 -1.5346
vt 0.3384 0.8121
vn 0.9765 -0.0000 -0.2154
f 424/424/424 425/425/425 426/426/426 427/427/427
v -3.3250 0.4667 1.2798
vt 0.3255 0.8137
vn 0.9104 0.0000 0.4137
v -3.3250 0.2333 1.2798
vt 0.3255 0.7964
vn 0.9104 0.0000 0.4137
v -3.1500 0.2571 0.8947
vt 0.3384 0.8294
vn 0.9765 -0.0000 0.2154
v -3.1500 0.4429 0.8947
vt 0.3384 0.8432
vn 0.9765 -0.0000 0.2154
f 428/428/428 429/429/429 430/430/430 431/431/431
v -3.8500 0.4429 -0.8947
vt 0.2866 0.8432
vn -0.9765 0.0000 -0.2154
v -3.8500 0.2571 -0.8947
vt 0.2866 0.8294
vn -0.9765 0.0000 -0.2154
v -3.8500 0.2571 -0.3851
vt 0.2866 0.8294
vn -0.9765 0.0000 0.2154
v -3.8500 0.4429 -0.3851
vt 0.2866 0.8432
vn -0.9765 0.0000 0.2154
f 432/432/432 433/433/433 434/434/434 435/435/435
v -3.8500 0.6762 1.0250
vt 0.2866 0.8605
vn -0.9765 0.0000 -0.2154
v -3.8500 0.4904 1.0250
vt 0.2866 0.8467
vn -0.9765 0.0000 -0.2154
v -3.8500 0.4904 1.5346
vt 0.2866 0.8467
vn -0.9765 0.0000 0.2154
v -3.8500 0.6762 1.5346
vt 0.2866 0.8605
vn -0.9765 0.0000 0.2154
f 436/436/436 437/437/437 438/438/438 439/439/439
v -3.8500 0.2096 1.0250
vt 0.2866 0.8259
vn -0.9765 0.0000 -0.2154
v -3.6750 0.2333 0.6399
vt 0.2995 0.7964
vn -0.9104 0.0000 -0.4137
v -3.6750 0.0000 0.6399
vt 0.2995 0.7791
vn -0.9104 0.0000 -0.4137
v -3.8500 0.0238 1.0250
vt 0.2866 0.8121
vn -0.9765 0.0000 -0.2154
f 440/440/440 441/441/441 442/442/442 443/443/443
v -3.3250 0.4667 0.0000
vt 0.3255 0.8137
vn 0.9104 0.0000 0.4137
v -3.3250 0.2333 0.0000
vt 0.3255 0.7964
vn 0.9104 0.0000 0.4137
v -3.1500 0.2571 -0.3851
vt 0.3384 0.8294
vn 0.9765 -0.0000 0.2154
v -3.1500 0.4429 -0.3851
vt 0.3384 0.8432
vn 0.9765 -0.0000 0.2154
f 444/444/444 445/445/445 446/446/446 447/447/447
v -3.3250 0.0000 0.6399
vt 0.3255 0.8104
vn 0.9104 0.0000 -0.4137
v -3.3250 0.2333 0.6399
vt 0.3255 0.8277
vn 0.9104 0.0000 -0.4137
v -3.1500 0.2096 1.0250
vt 0.3384 0.8259
vn 0.9765 -0.0000 -0.2154
v -3.1500 0.0238 1.0250
vt 0.3384 0.8121
vn 0.9765 -0.0000 -0.2154
f 448/448/448 449/449/449 450/450/450 451/451/451
v -3.1500 0.2571 0.3851
vt 0.3384 0.7982
vn 0.1345 -0.9909 -0.0000
v -3.1500 0.2571 0.8947
vt 0.3384 0.7982
vn 0.1345 -0.9909 -0.0000
v -3.3250 0.2333 0.6399
vt 0.3255 0.7964
vn 0.1345 -0.9909 -0.0000
f 452/452/452 453/453/453 454/454/454
v -3.1500 0.2571 0.8947
vt 0.3384 0.7982
vn 0.1345 -0.9909 -0.0000
v -3.3250 0.2333 1.2798
vt 0.3255 0.7964
vn 0.1345 -0.9909 -0.0000
v -3.3250 0.2333 0.6399
vt 0.3255 0.7964
vn 0.1345 -0.9909 -0.0000
f 455/455/455 456/456/456 457/457/457
v -3.3250 0.4667 0.6399
vt 0.3255 0.8762
vn 0.1345 0.9909 0.0000
v -3.3250 0.4667 1.2798
vt 0.3255 0.8762
vn 0.1345 0.9909 0.0000
v -3.1500 0.4429 0.8947
vt 0.3384 0.8744
vn 0.1345 0.9909 0.0000
f 458/458/458 459/459/459 460/460/460
v -3.1500 0.4429 0.8947
vt 0.3384 0.8744
vn 0.1345 0.9909 0.0000
v -3.1500 0.4429 0.3851
vt 0.3384 0.8744
vn 0.1345 0.9909 0.0000
v -3.3250 0.4667 0.6399
vt 0.3255 0.8762
vn 0.1345 0.9909 0.0000
f 461/461/461 462/462/462 463/463/463
v -3.8500 0.2096 -0.2548
vt 0.2866 0.8259
vn -0.9765 0.0000 -0.2154
v -3.8500 0.0238 -0.2548
vt 0.2866 0.8121
vn -0.9765 0.0000 -0.2154
v -3.8500 0.0238 0.2548
vt 0.2866 0.8121
vn -0.9765 0.0000 0.2154
v -3.8500 0.2096 0.2548
vt 0.2866 0.8259
vn -0.9765 0.0000 0.2154
f 464/464/464 465/465/465 466/466/466 467/467/467
v -3.1500 0.4904 -0.2548
vt 0.3384 0.8155
vn 0.1345 -0.9909 -0.0000
v -3.1500 0.4904 0.2548
vt 0.3384 0.8155
vn 0.1345 -0.9909 -0.0000
v -3.3250 0.4667 0.0000
vt 0.3255 0.8137
vn 0.1345 -0.9909 -0.0000
f 468/468/468 469/469/469 470/470/470
v -3.1500 0.4904 0.2548
vt 0.3384 0.8155
vn 0.1345 -0.9909 -0.0000
v -3.3250 0.4667 0.6399
vt 0.3255 0.8137
vn 0.1345 -0.9909 -0.0000
v -3.3250 0.4667 0.0000
vt 0.3255 0.8137
vn 0.1345 -0.9909 -0.0000
f 471/471/471 472/472/472 473/473/473
v -3.8500 0.4904 0.2548
vt 0.2866 0.8467
vn -0.9765 0.0000 0.2154
v -3.6750 0.4667 0.6399
vt 0.2995 0.8450
vn -0.9104 0.0000 0.4137
v -3.6750 0.7000 0.6399
vt 0.2995 0.8623
vn -0.9104 0.0000 0.4137
v -3.8500 0.6762 0.2548
vt 0.2866 0.8605
vn -0.9765 0.0000 0.2154
f 474/474/474 475/475/475 476/476/476 477/477/477
v -3.1500 0.6762 -1.0250
vt 0.3384 0.8917
vn 0.4591 0.8861 0.0640
v -3.3250 0.7665 -1.0191
vt 0.3255 0.8984
vn 0.2333 0.9688 0.0841
v -3.3250 0.7000 -0.6399
vt 0.3255 0.8935
vn 0.1113 0.9938 -0.0000
f 478/478/478 479/479/479 480/480/480
v -3.3250 0.2333 0.0000
vt 0.3255 0.8589
vn 0.1345 0.9909 0.0000
v -3.3250 0.2333 0.6399
vt 0.3255 0.8589
vn 0.1345 0.9909 0.0000
v -3.1500 0.2096 0.2548
vt 0.3384 0.8571
vn 0.1345 0.9909 0.0000
f 481/481/481 482/482/482 483/483/483
v -3.1500 0.2096 0.2548
vt 0.3384 0.8571
vn 0.1345 0.9909 0.0000
v -3.1500 0.2096 -0.2548
vt 0.3384 0.8571
vn 0.1345 0.9909 0.0000
v -3.3250 0.2333 0.0000
vt 0.3255 0.8589
vn 0.1345 0.9909 0.0000
f 484/484/484 485/485/485 486/486/486
v -3.8500 0.2096 -1.5346
vt 0.2866 0.8259
vn -0.9765 0.0000 -0.2154
v -3.6750 0.2333 -1.9197
vt 0.2995 0.7964
vn -0.6816 0.0000 -0.7317
v -3.6750 0.0000 -1.9197
vt 0.2995 0.7791
vn -0.6954 0.0000 -0.7186
v -3.8500 0.0238 -1.5346
vt 0.2866 0.8121
vn -0.9765 0.0000 -0.2154
f 487/487/487 488/488/488 489/489/489 490/490/490
v -3.3250 0.2333 1.9197
vt 0.3255 0.7964
vn 0.6816 -0.0000 0.7317
v -3.3250 0.0000 1.9197
vt 0.3255 0.7791
vn 0.6954 0.0000 0.7186
v -3.1500 0.0238 1.5346
vt 0.3384 0.8121
vn 0.9765 -0.0000 0.2154
v -3.1500 0.2096 1.5346
vt 0.3384 0.8259
vn 0.9765 -0.0000 0.2154
f 491/491/491 492/492/492 493/493/493 494/494/494
v -3.3250 0.4667 -0.6399
vt 0.3255 0.8762
vn 0.1345 0.9909 0.0000
v -3.3250 0.4667 0.0000
vt 0.3255 0.8762
vn 0.1345 0.9909 0.0000
v -3.1500 0.4429 -0.3851
vt 0.3384 0.8744
vn 0.1345 0.9909 0.0000
f 495/495/495 496/496/496 497/497/497
v -3.1500 0.4429 -0.3851
vt 0.3384 0.8744
vn 0.1345 0.9909 0.0000
v -3.1500 0.4429 -0.8947
vt 0.3384 0.8744
vn 0.1345 0.9909 0.0000
v -3.3250 0.4667 -0.6399
vt 0.3255 0.8762
vn 0.1345 0.9909 0.0000
f 498/498/498 499/499/499 500/500/500
v -3.8500 0.2571 0.8947
vt 0.2866 0.8294
vn -0.9765 0.0000 0.2154
v -3.6750 0.2333 1.2798
vt 0.2995 0.8277
vn -0.9104 0.0000 0.4137
v -3.6750 0.4667 1.2798
vt 0.2995 0.8450
vn -0.9104 0.0000 0.4137
v -3.8500 0.4429 0.8947
vt 0.2866 0.8432
vn -0.9765 0.0000 0.2154
f 501/501/501 502/502/502 503/503/503 504/504/504
v -3.6750 0.2333 -1.2798
vt 0.2995 0.7964
vn -0.1345 -0.9909 0.0000
v -3.6750 0.2333 -0.6399
vt 0.2995 0.7964
vn -0.1345 -0.9909 0.0000
v -3.8500 0.2571 -0.8947
vt 0.2866 0.7982
vn -0.1345 -0.9909 0.0000
f 505/505/505 506/506/506 507/507/507
v -3.6750 0.2333 -0.6399
vt 0.2995 0.7964
vn -0.1345 -0.9909 0.0000
v -3.6750 0.2333 0.0000
vt 0.2995 0.7964
vn -0.1345 -0.9909 0.0000
v -3.8500 0.2571 -0.3851
vt 0.2866 0.7982
vn -0.1345 -0.9909 0.0000
f 508/508/508 509/509/509 510/510/510
v -3.8500 0.4429 -1.7271
vt 0.2866 0.8432
vn -1.0000 0.0000 0.0000
v -3.8500 0.2571 -1.7271
vt 0.2866 0.8294
vn -1.0000 0.0000 0.0000
v -3.8500 0.2571 -1.4723
vt 0.2866 0.8294
vn -1.0000 0.0000 0.0000
v -3.8500 0.4429 -1.4723
vt 0.2866 0.8432
vn -1.0000 0.0000 0.0000
f 511/511/511 512/512/512 513/513/513 514/514/514
v -3.8500 0.4904 -1.5346
vt 0.2866 0.8467
vn -0.9765 0.0000 -0.2154
v -3.8500 0.4904 -1.0250
vt 0.2866 0.8467
vn -0.9765 0.0000 0.2154
v -3.8500 0.6762 -1.0250
vt 0.2866 0.8605
vn -0.9765 0.0000 0.2154
v -3.8500 0.6762 -1.5346
vt 0.2866 0.8605
vn -0.9765 0.0000 -0.2154
f 515/515/515 516/516/516 517/517/517 518/518/518
v -3.8500 0.2571 -1.7271
vt 0.2866 0.8294
vn -0.7400 0.0000 -0.6726
v -3.8500 0.4429 -1.7271
vt 0.2866 0.8432
vn -0.7400 0.0000 -0.6726
v -3.6750 0.4667 -1.9197
vt 0.2995 0.8137
vn -0.6816 0.0000 -0.7317
v -3.6750 0.2333 -1.9197
vt 0.2995 0.7964
vn -0.6816 0.0000 -0.7317
f 519/519/519 520/520/520 521/521/521 522/522/522
v -3.8500 0.2571 -1.4723
vt 0.2866 0.8294
vn -0.7400 0.0000 0.6726
v -3.6750 0.2333 -1.2798
vt 0.2995 0.8277
vn -0.7400 0.0000 0.6726
v -3.6750 0.4667 -1.2798
vt 0.2995 0.8450
vn -0.7400 0.0000 0.6726
v -3.8500 0.4429 -1.4723
vt 0.2866 0.8432
vn -0.7400 0.0000 0.6726
f 523/523/523 524/524/524 525/525/525 526/526/526
v -3.8500 0.4429 1.4723
vt 0.2866 0.8432
vn -0.7400 0.0000 -0.6726
v -3.6750 0.4667 1.2798
vt 0.2995 0.8137
vn -0.7400 0.0000 -0.6726
v -3.6750 0.2333 1.2798
vt 0.2995 0.7964
vn -0.7400 0.0000 -0.6726
v -3.8500 0.2571 1.4723
vt 0.2866 0.8294
vn -0.7400 0.0000 -0.6726
f 527/527/527 528/528/528 529/529/529 530/530/530
v -3.3250 0.4667 1.9197
vt 0.3255 0.8137
vn 0.6816 -0.0000 0.7317
v -3.3250 0.2333 1.9197
vt 0.3255 0.7964
vn 0.6816 -0.0000 0.7317
v -3.1500 0.2571 1.7271
vt 0.3384 0.8294
vn 0.7400 -0.0000 0.6726
v -3.1500 0.4429 1.7271
vt 0.3384 0.8432
vn 0.7400 -0.0000 0.6726
f 531/531/531 532/532/532 533/533/533 534/534/534
v -3.8500 0.2571 1.7271
vt 0.2866 0.7982
vn -0.1345 -0.9909 0.0000
v -3.8500 0.2571 1.4723
vt 0.2866 0.7982
vn -0.1345 -0.9909 0.0000
v -3.6750 0.2333 1.2798
vt 0.2995 0.7964
vn -0.1345 -0.9909 0.0000
v -3.6750 0.2333 1.9197
vt 0.2995 0.7964
vn -0.1345 -0.9909 0.0000
f 535/535/535 536/536/536 537/537/537 538/538/538
v -3.8500 0.4429 1.7271
vt 0.2866 0.8744
vn -0.1345 0.9909 0.0000
v -3.6750 0.4667 1.9197
vt 0.2995 0.8762
vn -0.1345 0.9909 0.0000
v -3.6750 0.4667 1.2798
vt 0.2995 0.8762
vn -0.1345 0.9909 0.0000
v -3.8500 0.4429 1.4723
vt 0.2866 0.8744
vn -0.1345 0.9909 0.0000
f 539/539/539 540/540/540 541/541/541 542/542/542
v -3.3250 0.0000 -1.9197
vt 0.3255 0.7791
vn 0.6231 -0.7821 0.0000
v -3.1500 0.0238 -1.5346
vt 0.3384 0.7809
vn 0.1345 -0.9909 -0.0000
v -3.1500 0.0238 -1.0250
vt 0.3384 0.7809
vn 0.1345 -0.9909 -0.0000
v -3.3250 0.0000 -0.6399
vt 0.3255 0.7791
vn 0.6053 -0.7960 0.0000
f 543/543/543 544/544/544 545/545/545 546/546/546
v -3.1500 0.0238 -1.0250
vt 0.3384 0.8121
vn 0.9765 -0.0000 0.2154
v -3.1500 0.0238 -1.5346
vt 0.3384 0.8121
vn 0.9765 -0.0000 -0.2154
v -3.1500 0.2096 -1.5346
vt 0.3384 0.8259
vn 0.9765 -0.0000 -0.2154
v -3.1500 0.2096 -1.0250
vt 0.3384 0.8259
vn 0.9765 -0.0000 0.2154
f 547/547/547 548/548/548 549/549/549 550/550/550
v -3.6750 0.7000 1.9197
vt 0.2995 0.8623
vn -0.7367 0.0000 0.6763
v -3.6750 0.4667 1.9197
vt 0.2995 0.8450
vn -0.6816 0.0000 0.7317
v -3.5000 0.7000 2.0207
vt 0.3125 0.8623
vn -0.5000 0.0000 0.8660
f 551/551/551 552/552/552 553/553/553
v -3.3250 0.0000 -1.9197
vt 0.3255 0.8104
vn 0.6955 0.0000 -0.7186
v -3.5000 -0.1750 -2.0207
vt 0.3125 0.7974
vn 0.5000 -0.0000 -0.8660
v -3.5000 0.2625 -2.0207
vt 0.3125 0.8298
vn 0.5000 -0.0000 -0.8660
f 554/554/554 555/555/555 556/556/556
v -3.3250 0.2333 -1.9197
vt 0.3255 0.8277
vn 0.6816 0.0000 -0.7317
v -3.3250 0.0000 -1.9197
vt 0.3255 0.8104
vn 0.6955 0.0000 -0.7186
v -3.5000 0.2625 -2.0207
vt 0.3125 0.8298
vn 0.5000 -0.0000 -0.8660
f 557/557/557 558/558/558 559/559/559
v -3.3250 0.4667 -1.9197
vt 0.3255 0.8450
vn 0.6816 0.0000 -0.7317
v -3.3250 0.2333 -1.9197
vt 0.3255 0.8277
vn 0.6816 0.0000 -0.7317
v -3.5000 0.2625 -2.0207
vt 0.3125 0.8298
vn 0.5000 -0.0000 -0.8660
f 560/560/560 561/561/561 562/562/562
v -3.5000 0.2625 -2.0207
vt 0.3125 0.7986
vn -0.5000 0.0000 -0.8660
v -3.6750 0.2333 -1.9197
vt 0.2995 0.7964
vn -0.6816 0.0000 -0.7317
v -3.6750 0.4667 -1.9197
vt 0.2995 0.8137
vn -0.6816 0.0000 -0.7317
f 563/563/563 564/564/564 565/565/565
v -3.5000 0.7000 -2.0207
vt 0.3125 0.8310
vn -0.5000 0.0000 -0.8660
v -3.5000 0.2625 -2.0207
vt 0.3125 0.7986
vn -0.5000 0.0000 -0.8660
v -3.6750 0.4667 -1.9197
vt 0.2995 0.8137
vn -0.6816 0.0000 -0.7317
f 566/566/566 567/567/567 568/568/568
v -3.6750 0.2333 -1.9197
vt 0.2995 0.7964
vn -0.6816 0.0000 -0.7317
v -3.5000 0.2625 -2.0207
vt 0.3125 0.7986
vn -0.5000 0.0000 -0.8660
v -3.6750 0.0000 -1.9197
vt 0.2995 0.7791
vn -0.6954 0.0000 -0.7186
f 569/569/569 570/570/570 571/571/571
v -3.8500 0.6762 1.5346
vt 0.2866 0.8605
vn -0.9765 0.0000 0.2154
v -3.8500 0.4904 1.5346
vt 0.2866 0.8467
vn -0.9765 0.0000 0.2154
v -3.6750 0.4667 1.9197
vt 0.2995 0.8450
vn -0.6816 0.0000 0.7317
v -3.6750 0.7000 1.9197
vt 0.2995 0.8623
vn -0.7367 0.0000 0.6763
f 572/572/572 573/573/573 574/574/574 575/575/575
v -3.5000 0.7000 2.0207
vt 0.3125 0.8310
vn 0.5000 0.0000 0.8660
v -3.3250 0.4667 1.9197
vt 0.3255 0.8137
vn 0.6816 -0.0000 0.7317
v -3.3250 0.7000 1.9197
vt 0.3255 0.8310
vn 0.7367 -0.0000 0.6763
f 576/576/576 577/577/577 578/578/578
v -3.8500 0.6762 -1.5346
vt 0.2866 0.8605
vn -0.9765 0.0000 -0.2154
v -3.6750 0.7000 -1.9197
vt 0.2995 0.8310
vn -0.7367 0.0000 -0.6763
v -3.6750 0.4667 -1.9197
vt 0.2995 0.8137
vn -0.6816 0.0000 -0.7317
v -3.8500 0.4904 -1.5346
vt 0.2866 0.8467
vn -0.9765 0.0000 -0.2154
f 579/579/579 580/580/580 581/581/581 582/582/582
v -3.1500 0.4904 -1.5346
vt 0.3384 0.8467
vn 0.9765 -0.0000 -0.2154
v -3.3250 0.4667 -1.9197
vt 0.3255 0.8450
vn 0.6816 0.0000 -0.7317
v -3.3250 0.7000 -1.9197
vt 0.3255 0.8623
vn 0.7367 -0.0000 -0.6763
v -3.1500 0.6762 -1.5346
vt 0.3384 0.8605
vn 0.9765 -0.0000 -0.2154
f 583/583/583 584/584/584 585/585/585 586/586/586
v -3.6750 0.7000 1.9197
vt 0.2995 0.8935
vn -0.0873 0.9868 0.1367
v -3.5000 0.7000 2.0207
vt 0.3125 0.8935
vn 0.0000 1.0000 0.0000
v -3.3250 0.7000 1.9197
vt 0.3255 0.8935
vn 0.0873 0.9868 0.1367
f 587/587/587 588/588/588 589/589/589
v -3.6750 0.7665 1.5405
vt 0.2995 0.8984
vn -0.2333 0.9688 0.0841
v -3.6750 0.7000 1.9197
vt 0.2995 0.8935
vn -0.0873 0.9868 0.1367
v -3.3250 0.7000 1.9197
vt 0.3255 0.8935
vn 0.0873 0.9868 0.1367
v -3.3250 0.7665 1.5405
vt 0.3255 0.8984
vn 0.2333 0.9688 0.0841
f 590/590/590 591/591/591 592/592/592 593/593/593
v -3.5000 0.7000 -2.0207
vt 0.3125 0.8935
vn 0.0000 1.0000 0.0000
v -3.6750 0.7000 -1.9197
vt 0.2995 0.8935
vn -0.0873 0.9868 -0.1367
v -3.3250 0.7000 -1.9197
vt 0.3255 0.8935
vn 0.0873 0.9868 -0.1367
f 594/594/594 595/595/595 596/596/596
v -3.6750 0.7665 -1.5405
vt 0.2995 0.8984
vn -0.2333 0.9688 -0.0841
v -3.6750 0.7665 -1.0191
vt 0.2995 0.8984
vn -0.2333 0.9688 0.0841
v -3.3250 0.7665 -1.0191
vt 0.3255 0.8984
vn 0.2333 0.9688 0.0841
v -3.3250 0.7665 -1.5405
vt 0.3255 0.8984
vn 0.2333 0.9688 -0.0841
f 597/597/597 598/598/598 599/599/599 600/600/600
v -3.1500 0.6762 -1.5346
vt 0.3384 0.8917
vn 0.4591 0.8861 -0.0640
v -3.3250 0.7000 -1.9197
vt 0.3255 0.8935
vn 0.0873 0.9868 -0.1367
v -3.3250 0.7665 -1.5405
vt 0.3255 0.8984
vn 0.2333 0.9688 -0.0841
f 601/601/601 602/602/602 603/603/603
v -3.8500 0.6762 -1.5346
vt 0.2866 0.8917
vn -0.4591 0.8861 -0.0640
v -3.8500 0.6762 -1.0250
vt 0.2866 0.8917
vn -0.4591 0.8861 0.0640
v -3.6750 0.7665 -1.0191
vt 0.2995 0.8984
vn -0.2333 0.9688 0.0841
v -3.6750 0.7665 -1.5405
vt 0.2995 0.8984
vn -0.2333 0.9688 -0.0841
f 604/604/604 605/605/605 606/606/606 607/607/607
v -3.6750 0.7000 -1.9197
vt 0.2995 0.8935
vn -0.0873 0.9868 -0.1367
v -3.6750 0.7665 -1.5405
vt 0.2995 0.8984
vn -0.2333 0.9688 -0.0841
v -3.3250 0.7665 -1.5405
vt 0.3255 0.8984
vn 0.2333 0.9688 -0.0841
v -3.3250 0.7000 -1.9197
vt 0.3255 0.8935
vn 0.0873 0.9868 -0.1367
f 608/608/608 609/609/609 610/610/610 611/611/611
v -3.1500 0.6762 -1.0250
vt 0.3384 0.8917
vn 0.4591 0.8861 0.0640
v -3.1500 0.6762 -1.5346
vt 0.3384 0.8917
vn 0.4591 0.8861 -0.0640
v -3.3250 0.7665 -1.5405
vt 0.3255 0.8984
vn 0.2333 0.9688 -0.0841
v -3.3250 0.7665 -1.0191
vt 0.3255 0.8984
vn 0.2333 0.9688 0.0841
f 612/612/612 613/613/613 614/614/614 615/615/615
v -3.6750 0.7000 -1.9197
vt 0.2995 0.8935
vn -0.0873 0.9868 -0.1367
v -3.8500 0.6762 -1.5346
vt 0.2866 0.8917
vn -0.4591 0.8861 -0.0640
v -3.6750 0.7665 -1.5405
vt 0.2995 0.8984
vn -0.2333 0.9688 -0.0841
f 616/616/616 617/617/617 618/618/618
v -3.3250 0.7665 0.2607
vt 0.3255 0.8984
vn 0.2333 0.9688 0.0841
v -3.3250 0.7665 -0.2607
vt 0.3255 0.8984
vn 0.2333 0.9688 -0.0841
v -3.6750 0.7665 -0.2607
vt 0.2995 0.8984
vn -0.2333 0.9688 -0.0841
v -3.6750 0.7665 0.2607
vt 0.2995 0.8984
vn -0.2333 0.9688 0.0841
f 619/619/619 620/620/620 621/621/621 622/622/622
v -3.1500 0.6762 0.2548
vt 0.3384 0.8917
vn 0.4591 0.8861 0.0640
v -3.1500 0.6762 -0.2548
vt 0.3384 0.8917
vn 0.4591 0.8861 -0.0640
v -3.3250 0.7665 -0.2607
vt 0.3255 0.8984
vn 0.2333 0.9688 -0.0841
v -3.3250 0.7665 0.2607
vt 0.3255 0.8984
vn 0.2333 0.9688 0.0841
f 623/623/623 624/624/624 625/625/625 626/626/626
v -3.6750 0.7000 -0.6399
vt 0.2995 0.8623
vn -0.1113 0.9938 0.0000
v -3.8500 0.6762 -0.2548
vt 0.2866 0.8917
vn -0.4591 0.8861 -0.0640
v -3.6750 0.7665 -0.2607
vt 0.2995 0.8984
vn -0.2333 0.9688 -0.0841
f 627/627/627 628/628/628 629/629/629
v -3.3250 0.7000 0.6399
vt 0.3255 0.8935
vn 0.1113 0.9938 -0.0000
v -3.3250 0.7665 0.2607
vt 0.3255 0.8984
vn 0.2333 0.9688 0.0841
v -3.6750 0.7665 0.2607
vt 0.2995 0.8984
vn -0.2333 0.9688 0.0841
v -3.6750 0.7000 0.6399
vt 0.2995 0.8935
vn -0.1113 0.9938 0.0000
f 630/630/630 631/631/631 632/632/632 633/633/633
v -3.3250 0.7000 0.6399
vt 0.3255 0.8935
vn 0.1113 0.9938 -0.0000
v -3.1500 0.6762 0.2548
vt 0.3384 0.8917
vn 0.4591 0.8861 0.0640
v -3.3250 0.7665 0.2607
vt 0.3255 0.8984
vn 0.2333 0.9688 0.0841
f 634/634/634 635/635/635 636/636/636
v -3.8500 0.6762 -0.2548
vt 0.2866 0.8917
vn -0.4591 0.8861 -0.0640
v -3.8500 0.6762 0.2548
vt 0.2866 0.8917
vn -0.4591 0.8861 0.0640
v -3.6750 0.7665 0.2607
vt 0.2995 0.8984
vn -0.2333 0.9688 0.0841
v -3.6750 0.7665 -0.2607
vt 0.2995 0.8984
vn -0.2333 0.9688 -0.0841
f 637/637/637 638/638/638 639/639/639 640/640/640
v -3.6750 0.7000 0.6399
vt 0.2995 0.8623
vn -0.1113 0.9938 0.0000
v -3.6750 0.7665 1.0191
vt 0.2995 0.8984
vn -0.2333 0.9688 -0.0841
v -3.3250 0.7665 1.0191
vt 0.3255 0.8984
vn 0.2333 0.9688 -0.0841
v -3.3250 0.7000 0.6399
vt 0.3255 0.8623
vn 0.1113 0.9938 -0.0000
f 641/641/641 642/642/642 643/643/643 644/644/644
v -3.1500 0.6762 1.5346
vt 0.3384 0.8917
vn 0.4591 0.8861 0.0640
v -3.1500 0.6762 1.0250
vt 0.3384 0.8917
vn 0.4591 0.8861 -0.0640
v -3.3250 0.7665 1.0191
vt 0.3255 0.8984
vn 0.2333 0.9688 -0.0841
v -3.3250 0.7665 1.5405
vt 0.3255 0.8984
vn 0.2333 0.9688 0.0841
f 645/645/645 646/646/646 647/647/647 648/648/648
v -3.8500 0.6762 1.5346
vt 0.2866 0.8917
vn -0.4591 0.8861 0.0640
v -3.6750 0.7000 1.9197
vt 0.2995 0.8935
vn -0.0873 0.9868 0.1367
v -3.6750 0.7665 1.5405
vt 0.2995 0.8984
vn -0.2333 0.9688 0.0841
f 649/649/649 650/650/650 651/651/651
v -3.6750 0.7665 1.0191
vt 0.2995 0.8984
vn -0.2333 0.9688 -0.0841
v -3.6750 0.7665 1.5405
vt 0.2995 0.8984
vn -0.2333 0.9688 0.0841
v -3.3250 0.7665 1.5405
vt 0.3255 0.8984
vn 0.2333 0.9688 0.0841
v -3.3250 0.7665 1.0191
vt 0.3255 0.8984
vn 0.2333 0.9688 -0.0841
f 652/652/652 653/653/653 654/654/654 655/655/655
v -3.3250 0.7000 1.9197
vt 0.3255 0.8935
vn 0.0873 0.9868 0.1367
v -3.1500 0.6762 1.5346
vt 0.3384 0.8917
vn 0.4591 0.8861 0.0640
v -3.3250 0.7665 1.5405
vt 0.3255 0.8984
vn 0.2333 0.9688 0.0841
f 656/656/656 657/657/657 658/658/658
v -3.8500 0.6762 1.0250
vt 0.2866 0.8917
vn -0.4591 0.8861 -0.0640
v -3.8500 0.6762 1.5346
vt 0.2866 0.8917
vn -0.4591 0.8861 0.0640
v -3.6750 0.7665 1.5405
vt 0.2995 0.8984
vn -0.2333 0.9688 0.0841
v -3.6750 0.7665 1.0191
vt 0.2995 0.8984
vn -0.2333 0.9688 -0.0841
f 659/659/659 660/660/660 661/661/661 662/662/662
