# Blender 4.5.13 LTS
# www.blender.org
o bark
v -1.200000 0.150000 0.000000
v -1.200000 0.163397 -0.050000
v -1.200000 0.200000 -0.086603
v -1.200000 0.250000 -0.100000
v -1.200000 0.300000 -0.086603
v -1.200000 0.336603 -0.050000
v -1.200000 0.350000 -0.000000
v -1.200000 0.336603 0.050000
v -1.200000 0.300000 0.086603
v -1.200000 0.250000 0.100000
v -1.200000 0.200000 0.086603
v -1.200000 0.163397 0.050000
v -0.600000 0.130000 0.000000
v -0.600000 0.146077 -0.060000
v -0.600000 0.190000 -0.103923
v -0.600000 0.250000 -0.120000
v -0.600000 0.310000 -0.103923
v -0.600000 0.353923 -0.060000
v -0.600000 0.370000 -0.000000
v -0.600000 0.353923 0.060000
v -0.600000 0.310000 0.103923
v -0.600000 0.250000 0.120000
v -0.600000 0.190000 0.103923
v -0.600000 0.146077 0.060000
v 0.400000 0.050000 0.000000
v 0.400000 0.076795 -0.100000
v 0.400000 0.150000 -0.173205
v 0.400000 0.250000 -0.200000
v 0.400000 0.350000 -0.173205
v 0.400000 0.423205 -0.100000
v 0.400000 0.450000 -0.000000
v 0.400000 0.423205 0.100000
v 0.400000 0.350000 0.173205
v 0.400000 0.250000 0.200000
v 0.400000 0.150000 0.173205
v 0.400000 0.076795 0.100000
v 1.000000 -0.050000 0.000000
v 1.000000 -0.009807 -0.150000
v 1.000000 0.100000 -0.259808
v 1.000000 0.250000 -0.300000
v 1.000000 0.400000 -0.259808
v 1.000000 0.509808 -0.150000
v 1.000000 0.550000 -0.000000
v 1.000000 0.509808 0.150000
v 1.000000 0.400000 0.259808
v 1.000000 0.250000 0.300000
v 1.000000 0.100000 0.259808
v 1.000000 -0.009807 0.150000
v 1.200000 0.030000 0.000000
v 1.200000 0.059475 -0.110000
v 1.200000 0.140000 -0.190526
v 1.200000 0.250000 -0.220000
v 1.200000 0.360000 -0.190526
v 1.200000 0.440526 -0.110000
v 1.200000 0.470000 -0.000000
v 1.200000 0.440526 0.110000
v 1.200000 0.360000 0.190526
v 1.200000 0.250000 0.220000
v 1.200000 0.140000 0.190526
v 1.200000 0.059475 0.110000
v 0.450000 0.250000 -0.260000
v 0.530000 0.250000 -0.260000
v 0.450000 0.120000 -0.225167
v 0.530000 0.120000 -0.225167
v 0.450000 0.024833 -0.130000
v 0.530000 0.024833 -0.130000
v 0.450000 -0.010000 0.000000
v 0.530000 -0.010000 0.000000
v 0.450000 0.024833 0.130000
v 0.530000 0.024833 0.130000
v 0.450000 0.120000 0.225167
v 0.530000 0.120000 0.225167
v 0.450000 0.250000 0.260000
v 0.530000 0.250000 0.260000
v 0.450000 0.380000 0.225167
v 0.530000 0.380000 0.225167
v 0.450000 0.475167 0.130000
v 0.530000 0.475167 0.130000
v 0.450000 0.510000 0.000000
v 0.530000 0.510000 0.000000
v 0.450000 0.475167 -0.130000
v 0.530000 0.475167 -0.130000
v 0.450000 0.380000 -0.225167
v 0.530000 0.380000 -0.225167
v 0.850000 0.250000 -0.310000
v 0.930000 0.250000 -0.310000
v 0.850000 0.095000 -0.268468
v 0.930000 0.095000 -0.268468
v 0.850000 -0.018468 -0.155000
v 0.930000 -0.018468 -0.155000
v 0.850000 -0.060000 0.000000
v 0.930000 -0.060000 0.000000
v 0.850000 -0.018468 0.155000
v 0.930000 -0.018468 0.155000
v 0.850000 0.095000 0.268468
v 0.930000 0.095000 0.268468
v 0.850000 0.250000 0.310000
v 0.930000 0.250000 0.310000
v 0.850000 0.405000 0.268468
v 0.930000 0.405000 0.268468
v 0.850000 0.518468 0.155000
v 0.930000 0.518468 0.155000
v 0.850000 0.560000 0.000000
v 0.930000 0.560000 0.000000
v 0.850000 0.518468 -0.155000
v 0.930000 0.518468 -0.155000
v 0.850000 0.405000 -0.268468
v 0.930000 0.405000 -0.268468
v 0.620000 0.290000 -0.270000
v 0.654641 0.270000 -0.270000
v 0.654641 0.230000 -0.270000
v 0.620000 0.210000 -0.270000
v 0.585359 0.230000 -0.270000
v 0.585359 0.270000 -0.270000
v 0.620000 0.250000 -0.150000
v 0.620000 0.519146 -0.121477
v 0.654641 0.512966 -0.102456
v 0.654641 0.500605 -0.064413
v 0.620000 0.494425 -0.045392
v 0.585359 0.500605 -0.064413
v 0.585359 0.512966 -0.102456
v 0.620000 0.620912 -0.046353
v 0.620000 0.376341 0.194923
v 0.654641 0.392522 0.206679
v 0.654641 0.424882 0.230190
v 0.620000 0.441063 0.241946
v 0.585359 0.424882 0.230190
v 0.585359 0.392522 0.206679
v 0.620000 0.479236 0.121353
v 0.620000 0.058937 0.241946
v 0.654641 0.075118 0.230190
v 0.654641 0.107478 0.206679
v 0.620000 0.123659 0.194923
v 0.585359 0.107478 0.206679
v 0.585359 0.075118 0.230190
v 0.620000 0.020764 0.121353
v 0.620000 0.005575 -0.045392
v 0.654641 -0.000605 -0.064413
v 0.654641 -0.012966 -0.102456
v 0.620000 -0.019146 -0.121477
v 0.585359 -0.012966 -0.102456
v 0.585359 -0.000605 -0.064413
v 0.620000 -0.120912 -0.046353
v 0.940000 0.435467 -0.245426
v 0.974641 0.418960 -0.234133
v 0.974641 0.385947 -0.211548
v 0.940000 0.369440 -0.200255
v 0.905359 0.385947 -0.211548
v 0.905359 0.418960 -0.234133
v 0.940000 0.470211 -0.123800
v 0.940000 0.497766 0.037753
v 0.974641 0.503405 0.056942
v 0.974641 0.514684 0.095319
v 0.940000 0.520323 0.114507
v 0.905359 0.514684 0.095319
v 0.905359 0.503405 0.056942
v 0.940000 0.624176 0.042295
v 0.940000 0.217661 0.268759
v 0.974641 0.237653 0.269325
v 0.974641 0.277637 0.270458
v 0.940000 0.297629 0.271024
v 0.905359 0.277637 0.270458
v 0.905359 0.237653 0.269325
v 0.940000 0.261043 0.149940
v 0.940000 -0.017753 0.128349
v 0.974641 -0.011036 0.109510
v 0.974641 0.002397 0.071833
v 0.940000 0.009113 0.052995
v 0.905359 0.002397 0.071833
v 0.905359 -0.011036 0.109510
v 0.940000 -0.117351 0.050373
v 0.940000 0.116859 -0.189435
v 0.974641 0.101018 -0.201644
v 0.974641 0.069336 -0.226063
v 0.940000 0.053495 -0.238272
v 0.905359 0.069336 -0.226063
v 0.905359 0.101018 -0.201644
v 0.940000 0.011922 -0.118808
vn -0.6656 -0.6463 -0.3732
vn -0.0568 -0.9984 -0.0000
vn -0.6656 -0.7463 -0.0000
vn -0.0568 -0.4992 -0.8646
vn -0.0568 -0.8646 -0.4992
vn -0.6656 -0.0000 -0.7463
vn -0.6656 -0.3732 -0.6463
vn -0.6656 0.3732 -0.6464
vn -0.0568 -0.0000 -0.9984
vn -0.0568 0.8646 -0.4992
vn -0.0568 0.4992 -0.8646
vn -0.6656 0.7463 -0.0000
vn -0.6656 0.6463 -0.3732
vn -0.6656 0.6463 0.3732
vn -0.0568 0.9984 -0.0000
vn -0.6656 0.3732 0.6464
vn -0.0568 0.8646 0.4992
vn -0.6656 -0.0000 0.7463
vn -0.0568 0.4992 0.8646
vn -0.6656 -0.3732 0.6463
vn -0.0568 -0.0000 0.9984
vn -0.6656 -0.6463 0.3732
vn -0.0568 -0.4992 0.8646
vn -0.0568 -0.8646 0.4992
vn -0.1230 -0.9924 -0.0000
vn -0.1230 -0.4962 -0.8594
vn -0.1230 -0.8594 -0.4962
vn -0.1230 -0.0000 -0.9924
vn -0.1230 0.4962 -0.8594
vn -0.1230 0.9924 -0.0000
vn -0.1230 0.8594 -0.4962
vn -0.1230 0.8594 0.4962
vn -0.1230 0.4962 0.8594
vn -0.1230 -0.0000 0.9924
vn -0.1230 -0.4962 0.8594
vn -0.1230 -0.8594 0.4962
vn 0.1030 -0.9947 -0.0000
vn 0.1030 -0.8614 -0.4973
vn 0.1030 -0.4973 -0.8614
vn 0.1030 -0.0000 -0.9947
vn 0.1030 0.8614 -0.4973
vn 0.1030 0.4973 -0.8614
vn 0.1030 0.9947 -0.0000
vn 0.1030 0.8614 0.4973
vn 0.1030 0.4973 0.8614
vn 0.1030 -0.4973 0.8614
vn 0.1030 -0.0000 0.9947
vn 0.1030 -0.8614 0.4973
vn 0.7860 -0.6182 -0.0000
vn 0.7860 -0.3091 -0.5354
vn 0.7860 -0.5354 -0.3091
vn 0.7860 -0.0000 -0.6182
vn 0.7860 0.3091 -0.5354
vn 0.7860 0.5354 -0.3091
vn 0.7860 0.5354 0.3091
vn 0.7860 0.6182 -0.0000
vn 0.7860 0.3091 0.5354
vn 0.7860 -0.0000 0.6182
vn 0.7860 -0.3091 0.5354
vn 0.7860 -0.5354 0.3091
vn -0.0000 -0.2588 -0.9659
vn -0.0000 -0.7071 -0.7071
vn -0.0000 -0.9659 -0.2588
vn -0.0000 -0.9659 0.2588
vn -0.0000 -0.7071 0.7071
vn -0.0000 -0.2588 0.9659
vn -0.0000 0.2588 0.9659
vn -0.0000 0.7071 0.7071
vn -0.0000 0.9659 0.2588
vn -0.0000 0.9659 -0.2588
vn 1.0000 -0.0000 -0.0000
vn -0.0000 0.7071 -0.7071
vn -0.0000 0.2588 -0.9659
vn -1.0000 -0.0000 -0.0000
vn 0.4804 0.8321 0.2773
vn 0.9608 -0.0000 0.2774
vn 0.4804 -0.8321 0.2773
vn -0.4804 -0.8321 0.2773
vn -0.0000 -0.0000 -1.0000
vn -0.9608 -0.0000 0.2774
vn -0.4804 0.8321 0.2774
vn 0.4804 0.5209 -0.7056
vn 0.9608 0.2638 0.0857
vn 0.4804 0.0067 0.8770
vn -0.4804 0.0067 0.8770
vn -0.0000 -0.9511 -0.3090
vn -0.9608 0.2638 0.0857
vn -0.4804 0.5209 -0.7056
vn 0.4804 -0.5101 -0.7134
vn 0.9608 0.1630 -0.2244
vn 0.4804 0.8362 0.2647
vn -0.4804 0.8362 0.2647
vn -0.0000 -0.5878 0.8090
vn -0.9608 0.1630 -0.2244
vn -0.4804 -0.5101 -0.7134
vn 0.4804 -0.8362 0.2647
vn 0.9608 -0.1630 -0.2244
vn 0.4804 0.5101 -0.7134
vn -0.4804 0.5101 -0.7134
vn -0.0000 0.5878 0.8090
vn -0.9608 -0.1630 -0.2244
vn -0.4804 -0.8362 0.2647
vn 0.4804 -0.0067 0.8770
vn 0.9608 -0.2638 0.0857
vn 0.4804 -0.5209 -0.7056
vn -0.4804 -0.5209 -0.7056
vn -0.0000 0.9511 -0.3090
vn -0.9608 -0.2638 0.0857
vn -0.4804 -0.0067 0.8770
vn 0.4804 0.8433 -0.2409
vn 0.9608 0.1566 0.2289
vn 0.4804 -0.5301 0.6987
vn -0.4804 -0.5301 0.6987
vn -0.0000 -0.5646 -0.8253
vn -0.9608 0.1566 0.2289
vn -0.4804 0.8433 -0.2409
vn 0.4804 0.0315 -0.8765
vn 0.9608 0.2661 -0.0782
vn 0.4804 0.5007 0.7201
vn -0.4804 0.5007 0.7201
vn -0.0000 -0.9594 0.2820
vn -0.9608 0.2661 -0.0782
vn -0.4804 0.0315 -0.8765
vn 0.4804 -0.8239 -0.3008
vn 0.9608 0.0079 -0.2772
vn 0.4804 0.8396 -0.2537
vn -0.4804 0.8396 -0.2537
vn -0.0000 -0.0283 0.9996
vn -0.9608 0.0079 -0.2772
vn -0.4804 -0.8239 -0.3008
vn 0.4804 -0.5407 0.6906
vn 0.9608 -0.2612 -0.0931
vn 0.4804 0.0182 -0.8769
vn -0.4804 0.0182 -0.8769
vn -0.0000 0.9419 0.3358
vn -0.9608 -0.2612 -0.0931
vn -0.4804 -0.5407 0.6906
vn 0.4804 0.4897 0.7276
vn 0.9608 -0.1693 0.2197
vn 0.4804 -0.8283 -0.2883
vn -0.4804 -0.8283 -0.2883
vn -0.0000 0.6105 -0.7920
vn -0.9608 -0.1693 0.2197
vn -0.4804 0.4897 0.7276
vt 0.303945 0.001382
vt 0.288965 0.230368
vt 0.286970 0.001612
vt 0.133663 0.917309
vt 0.120316 0.688218
vt 0.140537 0.688639
vt 0.097092 0.916829
vt 0.116812 0.916958
vt 0.079786 0.916958
vt 0.096651 0.688064
vt 0.063579 0.688639
vt 0.075884 0.688218
vt 0.452022 0.916726
vt 0.474627 0.688237
vt 0.469242 0.916946
vt 0.432298 0.916726
vt 0.453962 0.687972
vt 0.415355 0.916946
vt 0.430294 0.687972
vt 0.582685 0.001382
vt 0.559813 0.229996
vt 0.563640 0.001441
vt 0.601748 0.001441
vt 0.582667 0.229925
vt 0.267246 0.001612
vt 0.244668 0.230092
vt 0.250056 0.001382
vt 0.265295 0.230368
vt 0.309335 0.230092
vt 0.297079 0.612028
vt 0.131153 0.306596
vt 0.164855 0.307299
vt 0.091712 0.306339
vt 0.057100 0.306596
vt 0.461557 0.306332
vt 0.495998 0.306773
vt 0.422109 0.306332
vt 0.388224 0.306773
vt 0.582605 0.610624
vt 0.544515 0.610742
vt 0.605542 0.229996
vt 0.223250 0.611568
vt 0.257629 0.612028
vt 0.331028 0.611568
vt 0.307284 0.841470
vt 0.193777 0.078245
vt 0.143224 0.077191
vt 0.084063 0.076806
vt 0.001382 0.078245
vt 0.032145 0.077191
vt 0.522634 0.077582
vt 0.470972 0.076921
vt 0.411800 0.076921
vt 0.525398 0.838992
vt 0.639721 0.838992
vt 0.582532 0.838814
vt 0.248110 0.841470
vt 0.196541 0.840781
vt 0.358209 0.840781
vt 0.299054 0.916979
vt 0.135110 0.001665
vt 0.172182 0.002437
vt 0.091726 0.001382
vt 0.053653 0.001665
vt 0.501407 0.001866
vt 0.420129 0.001382
vt 0.463522 0.001382
vt 0.382855 0.001866
vt 0.582585 0.915377
vt 0.540686 0.915507
vt 0.624523 0.915507
vt 0.217842 0.916473
vt 0.255659 0.916979
vt 0.846520 0.839686
vt 0.910276 0.856769
vt 0.863603 0.903441
vt 0.895939 0.625306
vt 0.858356 0.485043
vt 0.998618 0.522627
vt 0.903109 0.699908
vt 0.872298 0.750999
vt 0.872632 0.699726
vt 0.902775 0.751181
vt 0.871385 0.794812
vt 0.906471 0.768182
vt 0.936351 0.724055
vt 0.936949 0.768190
vt 0.905873 0.724047
vt 0.936351 0.672771
vt 0.906471 0.628070
vt 0.936949 0.628077
vt 0.906898 0.440114
vt 0.937536 0.390551
vt 0.937382 0.440115
vt 0.907052 0.390551
vt 0.937382 0.341035
vt 0.938443 0.311327
vt 0.907392 0.267267
vt 0.937870 0.267276
vt 0.937870 0.215994
vt 0.907392 0.215984
vt 0.938443 0.171220
vt 0.763833 0.463345
vt 0.808249 0.629109
vt 0.642485 0.584693
vt 0.901862 0.628251
vt 0.872298 0.654731
vt 0.871385 0.628070
vt 0.902775 0.654913
vt 0.668129 0.823281
vt 0.712545 0.657517
vt 0.833893 0.778865
vt 0.868621 0.713688
vt 0.837746 0.774640
vt 0.838145 0.713507
vt 0.868223 0.774821
vt 0.836657 0.826877
vt 0.874179 0.168439
vt 0.903944 0.115825
vt 0.904657 0.168447
vt 0.873466 0.115817
vt 0.903944 0.054678
vt 0.873466 0.054670
vt 0.904657 0.001390
vt 0.903951 0.459169
vt 0.873650 0.400073
vt 0.904134 0.400074
vt 0.903951 0.341035
vt 0.874149 0.338261
vt 0.903945 0.285748
vt 0.904628 0.338270
vt 0.873467 0.285739
vt 0.903945 0.224604
vt 0.873467 0.224594
vt 0.904628 0.171220
vt 0.840127 0.031957
vt 0.787169 0.229599
vt 0.642485 0.084915
vt 0.867134 0.628251
vt 0.837746 0.659858
vt 0.836657 0.628070
vt 0.868223 0.660040
vt 0.642485 0.377047
vt 0.787169 0.232363
vt 0.840127 0.430005
vt 0.655533 0.853450
vt 0.642485 0.899716
vt 0.642485 0.851689
vt 0.948980 0.770954
vt 0.948980 0.817314
vt 0.933945 0.773460
vt 0.670642 0.899602
vt 0.670642 0.851689
vt 0.683734 0.898020
vt 0.696034 0.892395
vt 0.567446 0.918271
vt 0.580395 0.940555
vt 0.554497 0.941271
vt 0.811265 0.947173
vt 0.811265 0.900813
vt 0.826301 0.944668
vt 0.667878 0.858896
vt 0.766791 0.930979
vt 0.755557 0.902173
vt 0.780417 0.930369
vt 0.940300 0.387394
vt 0.940300 0.341034
vt 0.955336 0.384888
vt 0.726914 0.892126
vt 0.752296 0.851689
vt 0.739041 0.898032
vt 0.752296 0.899388
vt 0.396987 0.925355
vt 0.419727 0.928798
vt 0.408357 0.949176
vt 0.601166 0.964001
vt 0.608788 0.918272
vt 0.616409 0.964001
vt 0.755557 0.939236
vt 0.797399 0.944320
vt 0.783181 0.901907
vt 0.808122 0.935390
vt 0.940300 0.434013
vt 0.955335 0.390158
vt 0.955335 0.436518
vt 0.905873 0.810689
vt 0.931181 0.770954
vt 0.917571 0.817108
vt 0.931181 0.818188
vt 0.433640 0.948949
vt 0.422491 0.929021
vt 0.444789 0.925019
vt 0.940931 0.873623
vt 0.940931 0.827263
vt 0.955967 0.871117
vt 0.783181 0.944024
vt 0.794932 0.852918
vt 0.808501 0.899143
vt 0.783181 0.859144
vt 0.910016 0.906206
vt 0.910016 0.952566
vt 0.894980 0.908711
vt 0.497781 0.932954
vt 0.474950 0.947933
vt 0.489964 0.920268
vt 0.474950 0.919710
vt 0.465916 0.946109
vt 0.447553 0.932910
vt 0.466139 0.919710
vt 0.634416 0.918271
vt 0.626795 0.964001
vt 0.619173 0.918271
vt 0.808501 0.851689
vt 0.768478 0.853112
vt 0.755060 0.899409
vt 0.755060 0.851689
vt 0.954748 0.628070
vt 0.954748 0.674430
vt 0.939712 0.630576
vt 0.933815 0.001382
vt 0.920348 0.046409
vt 0.920804 0.001955
vt 0.907421 0.001382
vt 0.877650 0.797757
vt 0.897187 0.810954
vt 0.878021 0.824150
vt 0.394223 0.919710
vt 0.386601 0.965440
vt 0.378980 0.919710
vt 0.780417 0.859037
vt 0.737072 0.902152
vt 0.751547 0.941250
vt 0.726914 0.912186
vt 0.935308 0.143368
vt 0.935308 0.097008
vt 0.950344 0.140862
vt 0.500545 0.951998
vt 0.513849 0.919710
vt 0.513849 0.958165
vt 0.935353 0.087940
vt 0.947390 0.051467
vt 0.947390 0.094244
vt 0.655380 0.902480
vt 0.667878 0.924406
vt 0.642882 0.925728
vt 0.941207 0.315188
vt 0.948828 0.269459
vt 0.956450 0.315188
vt 0.751547 0.902702
vt 0.711553 0.896342
vt 0.724150 0.851689
vt 0.724150 0.899617
vt 0.941207 0.215065
vt 0.956243 0.171211
vt 0.956243 0.217571
vt 0.913040 0.865525
vt 0.938167 0.829823
vt 0.926347 0.867542
vt 0.938167 0.873623
vt 0.849855 0.936689
vt 0.836657 0.913822
vt 0.863052 0.913831
vt 0.941207 0.264189
vt 0.956243 0.220335
vt 0.956243 0.266695
vt 0.698797 0.892276
vt 0.926157 0.882470
vt 0.938272 0.919708
vt 0.913040 0.884132
vt 0.956072 0.878893
vt 0.941037 0.922747
vt 0.941037 0.876387
vt 0.907421 0.094244
vt 0.907421 0.049173
vt 0.919346 0.088734
vt 0.932589 0.086287
vt 0.865816 0.929066
vt 0.879016 0.906205
vt 0.892216 0.929058
vt 0.951615 0.001382
vt 0.951615 0.047742
vt 0.936579 0.003888
vt 0.938272 0.876387
vt 0.962035 0.057932
vt 0.950154 0.094036
vt 0.950154 0.051467
vt 0.598402 0.918272
vt 0.590780 0.964001
vt 0.583159 0.918272
vt 0.932544 0.105098
vt 0.907421 0.141555
vt 0.921414 0.097117
vt 0.907421 0.097008
vt 0.538566 0.948690
vt 0.525398 0.925939
vt 0.551733 0.925814
vt 0.826301 0.854195
vt 0.811265 0.898049
vt 0.811265 0.851689
vt 0.953117 0.732313
vt 0.939713 0.765163
vt 0.939713 0.726318
vt 0.685192 0.902366
vt 0.670641 0.939563
vt 0.670641 0.903053
vt 0.954748 0.679700
vt 0.939713 0.723554
vt 0.939713 0.677194
vt 0.698798 0.928488
vt 0.723162 0.902381
vt 0.708533 0.939160
vt 0.723162 0.938639
vt 0.214293 0.944600
vt 0.196541 0.937389
vt 0.205417 0.919743
vt 0.376216 0.919710
vt 0.368594 0.965440
vt 0.360973 0.919710
vt 0.695151 0.912863
vt 0.069532 0.917309
vt 0.409963 0.688236
vt 0.036592 0.307299
vt 0.620731 0.610742
vt 0.360973 0.077582
vt 0.336399 0.916473
vt 0.031093 0.002437
vt 0.846520 0.893578
vt 0.836657 0.876495
vt 0.836657 0.856769
vt 0.863603 0.829823
vt 0.883330 0.829823
vt 0.900413 0.839686
vt 0.910276 0.876495
vt 0.900413 0.893578
vt 0.883330 0.903441
vt 0.998618 0.566024
vt 0.976919 0.603607
vt 0.939336 0.625306
vt 0.858356 0.603607
vt 0.836657 0.566024
vt 0.836657 0.522627
vt 0.895939 0.463345
vt 0.939336 0.463345
vt 0.976919 0.485043
vt 0.901862 0.794993
vt 0.905873 0.672763
vt 0.906898 0.341034
vt 0.907964 0.311317
vt 0.907964 0.171211
vt 0.642485 0.533405
vt 0.668129 0.488989
vt 0.712545 0.463345
vt 0.808249 0.488989
vt 0.833893 0.533405
vt 0.833893 0.584693
vt 0.763833 0.654753
vt 0.712545 0.654753
vt 0.668129 0.629109
vt 0.808249 0.823281
vt 0.763833 0.848925
vt 0.712545 0.848925
vt 0.642485 0.778865
vt 0.642485 0.727577
vt 0.668129 0.683161
vt 0.763833 0.657517
vt 0.808249 0.683161
vt 0.833893 0.727577
vt 0.867134 0.827059
vt 0.874179 0.001382
vt 0.873466 0.459168
vt 0.873466 0.341034
vt 0.874149 0.171211
vt 0.673060 0.031957
vt 0.726019 0.001382
vt 0.787169 0.001382
vt 0.870703 0.084915
vt 0.870703 0.146066
vt 0.840127 0.199024
vt 0.726018 0.229599
vt 0.673060 0.199024
vt 0.642485 0.146066
vt 0.787169 0.460581
vt 0.726018 0.460581
vt 0.673060 0.430005
vt 0.642485 0.315897
vt 0.673060 0.262939
vt 0.726018 0.232363
vt 0.840127 0.262939
vt 0.870703 0.315897
vt 0.870703 0.377047
vt 0.554497 0.926177
vt 0.580395 0.925460
vt 0.567446 0.948460
vt 0.396987 0.940088
vt 0.408357 0.919710
vt 0.419727 0.943530
vt 0.444789 0.939638
vt 0.422491 0.943641
vt 0.433640 0.919710
vt 0.472186 0.932910
vt 0.453600 0.946109
vt 0.453822 0.919710
vt 0.871385 0.810954
vt 0.890551 0.797757
vt 0.890922 0.824150
vt 0.642882 0.910670
vt 0.667878 0.909348
vt 0.655380 0.932596
vt 0.863052 0.929072
vt 0.836657 0.929064
vt 0.849855 0.906206
vt 0.879016 0.936681
vt 0.865816 0.913828
vt 0.892216 0.913820
vt 0.551733 0.941023
vt 0.525398 0.941148
vt 0.538566 0.918272
vt 0.214293 0.930432
vt 0.205417 0.948078
vt 0.196541 0.923221
s 1
f 2/1/1 13/2/2 1/3/3
f 2/4/1 15/5/4 14/6/5
f 4/7/6 15/5/4 3/8/7
f 5/9/8 16/10/9 4/7/6
f 5/9/8 18/11/10 17/12/11
f 7/13/12 18/14/10 6/15/13
f 8/16/14 19/17/15 7/13/12
f 9/18/16 20/19/17 8/16/14
f 10/20/18 21/21/19 9/22/16
f 11/23/20 22/24/21 10/20/18
f 12/25/22 23/26/23 11/27/20
f 1/3/3 24/28/24 12/25/22
f 14/29/5 25/30/25 13/2/2
f 14/6/5 27/31/26 26/32/27
f 16/10/9 27/31/26 15/5/4
f 17/12/11 28/33/28 16/10/9
f 18/11/10 29/34/29 17/12/11
f 18/14/10 31/35/30 30/36/31
f 19/17/15 32/37/32 31/35/30
f 20/19/17 33/38/33 32/37/32
f 21/21/19 34/39/34 33/40/33
f 23/41/23 34/39/34 22/24/21
f 24/28/24 35/42/35 23/26/23
f 24/28/24 25/30/25 36/43/36
f 26/44/27 37/45/37 25/30/25
f 27/31/26 38/46/38 26/32/27
f 28/33/28 39/47/39 27/31/26
f 29/34/29 40/48/40 28/33/28
f 29/34/29 42/49/41 41/50/42
f 31/35/30 42/51/41 30/36/31
f 32/37/32 43/52/43 31/35/30
f 33/38/33 44/53/44 32/37/32
f 34/39/34 45/54/45 33/40/33
f 34/39/34 47/55/46 46/56/47
f 35/42/35 48/57/48 47/58/46
f 36/43/36 37/45/37 48/57/48
f 38/59/38 49/60/49 37/45/37
f 38/46/38 51/61/50 50/62/51
f 40/48/40 51/61/50 39/47/39
f 41/50/42 52/63/52 40/48/40
f 42/49/41 53/64/53 41/50/42
f 43/52/43 54/65/54 42/51/41
f 43/52/43 56/66/55 55/67/56
f 44/53/44 57/68/57 56/66/55
f 45/54/45 58/69/58 57/70/57
f 46/56/47 59/71/59 58/69/58
f 48/57/48 59/72/59 47/58/46
f 48/57/48 49/60/49 60/73/60
f 9/74/16 5/75/8 1/76/3
f 52/77/52 56/78/55 60/79/60
s 0
f 62/80/61 63/81/61 61/82/61
f 64/83/62 65/84/62 63/81/62
f 66/85/63 67/86/63 65/87/63
f 68/88/64 69/89/64 67/86/64
f 69/89/65 72/90/65 71/91/65
f 72/92/66 73/93/66 71/94/66
f 74/95/67 75/96/67 73/93/67
f 75/97/68 78/98/68 77/99/68
f 78/98/69 79/100/69 77/99/69
f 80/101/70 81/102/70 79/100/70
f 82/103/71 74/104/71 66/105/71
f 82/106/72 83/107/72 81/108/72
f 84/109/73 61/82/73 83/107/73
f 67/110/74 75/111/74 83/112/74
f 86/113/61 87/114/61 85/115/61
f 88/116/62 89/117/62 87/114/62
f 90/118/63 91/119/63 89/120/63
f 92/121/64 93/122/64 91/119/64
f 94/123/65 95/124/65 93/122/65
f 95/125/66 98/126/66 97/127/66
f 98/126/67 99/128/67 97/127/67
f 100/129/68 101/130/68 99/131/68
f 102/132/69 103/133/69 101/130/69
f 104/134/70 105/135/70 103/133/70
f 106/136/71 98/137/71 90/138/71
f 106/139/72 107/140/72 105/141/72
f 108/142/73 85/115/73 107/140/73
f 91/143/74 99/144/74 107/145/74
f 109/146/75 115/147/75 110/148/75
f 110/149/76 115/150/76 111/151/76
f 111/152/77 115/153/77 112/154/77
f 112/154/78 115/153/78 113/155/78
f 110/156/79 112/157/79 114/158/79
f 113/159/80 115/160/80 114/161/80
f 114/162/81 115/147/81 109/146/81
f 116/163/82 122/164/82 117/165/82
f 117/166/83 122/167/83 118/168/83
f 118/169/84 122/170/84 119/171/84
f 119/171/85 122/170/85 120/172/85
f 117/173/86 119/174/86 121/175/86
f 120/176/87 122/177/87 121/178/87
f 121/179/88 122/164/88 116/163/88
f 123/180/89 129/181/89 124/182/89
f 124/183/90 129/184/90 125/185/90
f 125/186/91 129/187/91 126/188/91
f 126/188/92 129/187/92 127/189/92
f 124/190/93 126/191/93 128/192/93
f 127/193/94 129/194/94 128/195/94
f 128/196/95 129/181/95 123/180/95
f 130/197/96 136/198/96 131/199/96
f 131/200/97 136/201/97 132/202/97
f 132/203/98 136/204/98 133/205/98
f 133/205/99 136/204/99 134/206/99
f 131/207/100 133/208/100 135/209/100
f 134/210/101 136/211/101 135/212/101
f 135/213/102 136/198/102 130/197/102
f 137/214/103 143/215/103 138/216/103
f 138/217/104 143/218/104 139/219/104
f 139/220/105 143/221/105 140/222/105
f 140/222/106 143/221/106 141/223/106
f 138/224/107 140/225/107 142/226/107
f 141/227/108 143/228/108 142/229/108
f 142/230/109 143/215/109 137/214/109
f 144/231/110 150/232/110 145/233/110
f 145/234/111 150/235/111 146/236/111
f 146/237/112 150/238/112 147/239/112
f 147/240/113 150/241/113 148/242/113
f 145/243/114 147/244/114 149/245/114
f 148/246/115 150/247/115 149/248/115
f 149/249/116 150/232/116 144/231/116
f 151/250/117 157/251/117 152/252/117
f 152/253/118 157/254/118 153/255/118
f 153/256/119 157/257/119 154/258/119
f 154/258/120 157/257/120 155/259/120
f 152/260/121 154/261/121 156/262/121
f 155/263/122 157/264/122 156/265/122
f 156/266/123 157/251/123 151/250/123
f 158/267/124 164/268/124 159/269/124
f 159/270/125 164/271/125 160/272/125
f 160/273/126 164/274/126 161/275/126
f 161/275/127 164/274/127 162/276/127
f 159/277/128 161/278/128 163/279/128
f 162/280/129 164/281/129 163/282/129
f 163/283/130 164/268/130 158/267/130
f 165/284/131 171/285/131 166/286/131
f 166/287/132 171/288/132 167/289/132
f 167/290/133 171/291/133 168/292/133
f 168/292/134 171/291/134 169/293/134
f 166/294/135 168/295/135 170/296/135
f 169/297/136 171/298/136 170/299/136
f 170/300/137 171/301/137 165/302/137
f 172/303/138 178/304/138 173/305/138
f 173/306/139 178/307/139 174/308/139
f 174/309/140 178/310/140 175/311/140
f 175/311/141 178/310/141 176/312/141
f 173/313/142 175/314/142 177/315/142
f 176/316/143 178/317/143 177/318/143
f 177/319/144 178/304/144 172/303/144
s 1
f 2/1/1 14/29/5 13/2/2
f 2/4/1 3/8/7 15/5/4
f 4/7/6 16/10/9 15/5/4
f 5/9/8 17/12/11 16/10/9
f 5/9/8 6/320/13 18/11/10
f 7/13/12 19/17/15 18/14/10
f 8/16/14 20/19/17 19/17/15
f 9/18/16 21/321/19 20/19/17
f 10/20/18 22/24/21 21/21/19
f 11/23/20 23/41/23 22/24/21
f 12/25/22 24/28/24 23/26/23
f 1/3/3 13/2/2 24/28/24
f 14/29/5 26/44/27 25/30/25
f 14/6/5 15/5/4 27/31/26
f 16/10/9 28/33/28 27/31/26
f 17/12/11 29/34/29 28/33/28
f 18/11/10 30/322/31 29/34/29
f 18/14/10 19/17/15 31/35/30
f 19/17/15 20/19/17 32/37/32
f 20/19/17 21/321/19 33/38/33
f 21/21/19 22/24/21 34/39/34
f 23/41/23 35/323/35 34/39/34
f 24/28/24 36/43/36 35/42/35
f 24/28/24 13/2/2 25/30/25
f 26/44/27 38/59/38 37/45/37
f 27/31/26 39/47/39 38/46/38
f 28/33/28 40/48/40 39/47/39
f 29/34/29 41/50/42 40/48/40
f 29/34/29 30/322/31 42/49/41
f 31/35/30 43/52/43 42/51/41
f 32/37/32 44/53/44 43/52/43
f 33/38/33 45/324/45 44/53/44
f 34/39/34 46/56/47 45/54/45
f 34/39/34 35/323/35 47/55/46
f 35/42/35 36/43/36 48/57/48
f 36/43/36 25/30/25 37/45/37
f 38/59/38 50/325/51 49/60/49
f 38/46/38 39/47/39 51/61/50
f 40/48/40 52/63/52 51/61/50
f 41/50/42 53/64/53 52/63/52
f 42/49/41 54/326/54 53/64/53
f 43/52/43 55/67/56 54/65/54
f 43/52/43 44/53/44 56/66/55
f 44/53/44 45/324/45 57/68/57
f 45/54/45 46/56/47 58/69/58
f 46/56/47 47/55/46 59/71/59
f 48/57/48 60/73/60 59/72/59
f 48/57/48 37/45/37 49/60/49
f 1/76/3 12/327/22 11/328/20
f 11/328/20 10/329/18 9/74/16
f 9/74/16 8/330/14 7/331/12
f 7/331/12 6/332/13 5/75/8
f 5/75/8 4/333/6 3/334/7
f 3/334/7 2/335/1 1/76/3
f 1/76/3 11/328/20 9/74/16
f 9/74/16 7/331/12 5/75/8
f 5/75/8 3/334/7 1/76/3
f 60/79/60 49/336/49 50/337/51
f 50/337/51 51/338/50 52/77/52
f 52/77/52 53/339/53 54/340/54
f 54/340/54 55/341/56 56/78/55
f 56/78/55 57/342/57 58/343/58
f 58/343/58 59/344/59 60/79/60
f 60/79/60 50/337/51 52/77/52
f 52/77/52 54/340/54 56/78/55
f 56/78/55 58/343/58 60/79/60
s 0
f 62/80/61 64/83/61 63/81/61
f 64/83/62 66/345/62 65/84/62
f 66/85/63 68/88/63 67/86/63
f 68/88/64 70/346/64 69/89/64
f 69/89/65 70/346/65 72/90/65
f 72/92/66 74/95/66 73/93/66
f 74/95/67 76/347/67 75/96/67
f 75/97/68 76/348/68 78/98/68
f 78/98/69 80/101/69 79/100/69
f 80/101/70 82/349/70 81/102/70
f 66/105/71 64/350/71 62/351/71
f 62/351/71 84/352/71 82/103/71
f 82/103/71 80/353/71 78/354/71
f 78/354/71 76/355/71 74/104/71
f 74/104/71 72/356/71 70/357/71
f 70/357/71 68/358/71 66/105/71
f 66/105/71 62/351/71 82/103/71
f 82/103/71 78/354/71 74/104/71
f 74/104/71 70/357/71 66/105/71
f 82/106/72 84/109/72 83/107/72
f 84/109/73 62/80/73 61/82/73
f 83/112/74 61/359/74 63/360/74
f 63/360/74 65/361/74 67/110/74
f 67/110/74 69/362/74 71/363/74
f 71/363/74 73/364/74 75/111/74
f 75/111/74 77/365/74 79/366/74
f 79/366/74 81/367/74 83/112/74
f 83/112/74 63/360/74 67/110/74
f 67/110/74 71/363/74 75/111/74
f 75/111/74 79/366/74 83/112/74
f 86/113/61 88/116/61 87/114/61
f 88/116/62 90/368/62 89/117/62
f 90/118/63 92/121/63 91/119/63
f 92/121/64 94/123/64 93/122/64
f 94/123/65 96/369/65 95/124/65
f 95/125/66 96/370/66 98/126/66
f 98/126/67 100/371/67 99/128/67
f 100/129/68 102/132/68 101/130/68
f 102/132/69 104/134/69 103/133/69
f 104/134/70 106/372/70 105/135/70
f 90/138/71 88/373/71 86/374/71
f 86/374/71 108/375/71 106/136/71
f 106/136/71 104/376/71 102/377/71
f 102/377/71 100/378/71 98/137/71
f 98/137/71 96/379/71 94/380/71
f 94/380/71 92/381/71 90/138/71
f 90/138/71 86/374/71 106/136/71
f 106/136/71 102/377/71 98/137/71
f 98/137/71 94/380/71 90/138/71
f 106/139/72 108/142/72 107/140/72
f 108/142/73 86/113/73 85/115/73
f 107/145/74 85/382/74 87/383/74
f 87/383/74 89/384/74 91/143/74
f 91/143/74 93/385/74 95/386/74
f 95/386/74 97/387/74 99/144/74
f 99/144/74 101/388/74 103/389/74
f 103/389/74 105/390/74 107/145/74
f 107/145/74 87/383/74 91/143/74
f 91/143/74 95/386/74 99/144/74
f 99/144/74 103/389/74 107/145/74
f 114/158/79 109/391/79 110/156/79
f 110/156/79 111/392/79 112/157/79
f 112/157/79 113/393/79 114/158/79
f 121/175/86 116/394/86 117/173/86
f 117/173/86 118/395/86 119/174/86
f 119/174/86 120/396/86 121/175/86
f 128/192/93 123/397/93 124/190/93
f 124/190/93 125/398/93 126/191/93
f 126/191/93 127/399/93 128/192/93
f 135/209/100 130/400/100 131/207/100
f 131/207/100 132/401/100 133/208/100
f 133/208/100 134/402/100 135/209/100
f 142/226/107 137/403/107 138/224/107
f 138/224/107 139/404/107 140/225/107
f 140/225/107 141/405/107 142/226/107
f 149/245/114 144/406/114 145/243/114
f 145/243/114 146/407/114 147/244/114
f 147/244/114 148/408/114 149/245/114
f 156/262/121 151/409/121 152/260/121
f 152/260/121 153/410/121 154/261/121
f 154/261/121 155/411/121 156/262/121
f 163/279/128 158/412/128 159/277/128
f 159/277/128 160/413/128 161/278/128
f 161/278/128 162/414/128 163/279/128
f 170/296/135 165/415/135 166/294/135
f 166/294/135 167/416/135 168/295/135
f 168/295/135 169/417/135 170/296/135
f 177/315/142 172/418/142 173/313/142
f 173/313/142 174/419/142 175/314/142
f 175/314/142 176/420/142 177/315/142
