# Blender 4.5.13 LTS
# www.blender.org
o charcoal
v -3.000000 0.000000 1.800000
v -3.000000 0.030000 1.800000
v -3.000000 0.000000 -1.800000
v -3.000000 0.030000 -1.800000
v 3.000000 0.000000 1.800000
v 3.000000 0.030000 1.800000
v 3.000000 0.000000 -1.800000
v 3.000000 0.030000 -1.800000
v -3.020000 0.000000 -1.780000
v -3.020000 0.035000 -1.780000
v -3.020000 0.000000 -1.820000
v -3.020000 0.035000 -1.820000
v 3.020000 0.000000 -1.780000
v 3.020000 0.035000 -1.780000
v 3.020000 0.000000 -1.820000
v 3.020000 0.035000 -1.820000
v -3.020000 0.000000 1.820000
v -3.020000 0.035000 1.820000
v -3.020000 0.000000 1.780000
v -3.020000 0.035000 1.780000
v 3.020000 0.000000 1.820000
v 3.020000 0.035000 1.820000
v 3.020000 0.000000 1.780000
v 3.020000 0.035000 1.780000
v 2.980000 0.000000 1.800000
v 2.980000 0.035000 1.800000
v 2.980000 0.000000 -1.800000
v 2.980000 0.035000 -1.800000
v 3.020000 0.000000 1.800000
v 3.020000 0.035000 1.800000
v 3.020000 0.000000 -1.800000
v 3.020000 0.035000 -1.800000
v -3.020000 0.000000 1.800000
v -3.020000 0.035000 1.800000
v -3.020000 0.000000 -1.800000
v -3.020000 0.035000 -1.800000
v -2.980000 0.000000 1.800000
v -2.980000 0.035000 1.800000
v -2.980000 0.000000 -1.800000
v -2.980000 0.035000 -1.800000
vn -1.0000 -0.0000 -0.0000
vn -0.0000 -0.0000 -1.0000
vn 1.0000 -0.0000 -0.0000
vn -0.0000 -0.0000 1.0000
vn -0.0000 -1.0000 -0.0000
vn -0.0000 1.0000 -0.0000
vt 0.995537 0.455106
vt 0.999324 0.000676
vt 0.999324 0.455106
vt 0.960920 0.758060
vt 0.964707 0.000676
vt 0.964707 0.758060
vt 0.995537 0.910888
vt 0.999324 0.456457
vt 0.999324 0.910888
vt 0.966059 0.758060
vt 0.969846 0.000676
vt 0.969846 0.758060
vt 0.455106 0.758060
vt 0.000676 0.000676
vt 0.455106 0.000676
vt 0.910888 0.758060
vt 0.456458 0.000676
vt 0.910888 0.000676
vt 0.000676 0.764460
vt 0.005094 0.759411
vt 0.005094 0.764460
vt 0.937842 0.763109
vt 0.942260 0.000676
vt 0.942260 0.763109
vt 0.006445 0.764460
vt 0.010863 0.759411
vt 0.010863 0.764460
vt 0.943612 0.763109
vt 0.948030 0.000676
vt 0.948030 0.763109
vt 0.917288 0.763109
vt 0.912239 0.000676
vt 0.917289 0.000676
vt 0.923689 0.763109
vt 0.918640 0.000676
vt 0.923689 0.000676
vt 0.012215 0.764460
vt 0.016633 0.759411
vt 0.016633 0.764460
vt 0.949381 0.763109
vt 0.953799 0.000676
vt 0.953799 0.763109
vt 0.017984 0.764460
vt 0.022402 0.759411
vt 0.022402 0.764460
vt 0.955151 0.763109
vt 0.959569 0.000676
vt 0.959569 0.763109
vt 0.930090 0.763109
vt 0.925041 0.000676
vt 0.930090 0.000676
vt 0.936491 0.763109
vt 0.931441 0.000676
vt 0.936491 0.000676
vt 0.983998 0.455106
vt 0.988416 0.000676
vt 0.988416 0.455106
vt 0.023754 0.764460
vt 0.028172 0.759411
vt 0.028172 0.764460
vt 0.983998 0.910888
vt 0.988416 0.456457
vt 0.988416 0.910888
vt 0.029523 0.764460
vt 0.033941 0.759411
vt 0.033941 0.764460
vt 0.971197 0.455106
vt 0.976246 0.000676
vt 0.976246 0.455106
vt 0.971197 0.910888
vt 0.976246 0.456457
vt 0.976246 0.910888
vt 0.989768 0.455106
vt 0.994186 0.000676
vt 0.994186 0.455106
vt 0.035293 0.764460
vt 0.039711 0.759411
vt 0.039711 0.764460
vt 0.989768 0.910888
vt 0.994186 0.456457
vt 0.994186 0.910888
vt 0.041062 0.764460
vt 0.045480 0.759411
vt 0.045480 0.764460
vt 0.977598 0.455106
vt 0.982647 0.000676
vt 0.982647 0.455106
vt 0.977598 0.910888
vt 0.982647 0.456457
vt 0.982647 0.910888
vt 0.995537 0.000676
vt 0.960920 0.000676
vt 0.995537 0.456457
vt 0.966059 0.000676
vt 0.000676 0.758060
vt 0.456457 0.758060
vt 0.000676 0.759411
vt 0.937842 0.000676
vt 0.006445 0.759411
vt 0.943612 0.000676
vt 0.912239 0.763109
vt 0.918640 0.763109
vt 0.012215 0.759411
vt 0.949381 0.000676
vt 0.017984 0.759411
vt 0.955151 0.000676
vt 0.925041 0.763109
vt 0.931441 0.763109
vt 0.983998 0.000676
vt 0.023754 0.759411
vt 0.983998 0.456457
vt 0.029523 0.759411
vt 0.971197 0.000676
vt 0.971197 0.456457
vt 0.989768 0.000676
vt 0.035293 0.759411
vt 0.989768 0.456457
vt 0.041062 0.759411
vt 0.977598 0.000676
vt 0.977598 0.456457
s 0
f 2/1/1 3/2/1 1/3/1
f 4/4/2 7/5/2 3/6/2
f 8/7/3 5/8/3 7/9/3
f 6/10/4 1/11/4 5/12/4
f 7/13/5 1/14/5 3/15/5
f 4/16/6 6/17/6 8/18/6
f 10/19/1 11/20/1 9/21/1
f 12/22/2 15/23/2 11/24/2
f 16/25/3 13/26/3 15/27/3
f 14/28/4 9/29/4 13/30/4
f 15/31/5 9/32/5 11/33/5
f 12/34/6 14/35/6 16/36/6
f 18/37/1 19/38/1 17/39/1
f 20/40/2 23/41/2 19/42/2
f 24/43/3 21/44/3 23/45/3
f 22/46/4 17/47/4 21/48/4
f 23/49/5 17/50/5 19/51/5
f 20/52/6 22/53/6 24/54/6
f 26/55/1 27/56/1 25/57/1
f 28/58/2 31/59/2 27/60/2
f 32/61/3 29/62/3 31/63/3
f 30/64/4 25/65/4 29/66/4
f 31/67/5 25/68/5 27/69/5
f 28/70/6 30/71/6 32/72/6
f 34/73/1 35/74/1 33/75/1
f 36/76/2 39/77/2 35/78/2
f 40/79/3 37/80/3 39/81/3
f 38/82/4 33/83/4 37/84/4
f 39/85/5 33/86/5 35/87/5
f 36/88/6 38/89/6 40/90/6
f 2/1/1 4/91/1 3/2/1
f 4/4/2 8/92/2 7/5/2
f 8/7/3 6/93/3 5/8/3
f 6/10/4 2/94/4 1/11/4
f 7/13/5 5/95/5 1/14/5
f 4/16/6 2/96/6 6/17/6
f 10/19/1 12/97/1 11/20/1
f 12/22/2 16/98/2 15/23/2
f 16/25/3 14/99/3 13/26/3
f 14/28/4 10/100/4 9/29/4
f 15/31/5 13/101/5 9/32/5
f 12/34/6 10/102/6 14/35/6
f 18/37/1 20/103/1 19/38/1
f 20/40/2 24/104/2 23/41/2
f 24/43/3 22/105/3 21/44/3
f 22/46/4 18/106/4 17/47/4
f 23/49/5 21/107/5 17/50/5
f 20/52/6 18/108/6 22/53/6
f 26/55/1 28/109/1 27/56/1
f 28/58/2 32/110/2 31/59/2
f 32/61/3 30/111/3 29/62/3
f 30/64/4 26/112/4 25/65/4
f 31/67/5 29/113/5 25/68/5
f 28/70/6 26/114/6 30/71/6
f 34/73/1 36/115/1 35/74/1
f 36/76/2 40/116/2 39/77/2
f 40/79/3 38/117/3 37/80/3
f 38/82/4 34/118/4 33/83/4
f 39/85/5 37/119/5 33/86/5
f 36/88/6 34/120/6 38/89/6
