# Blender 4.5.13 LTS
# www.blender.org
o screen_out_0
v -1.261868 0.150000 2.902134
v -1.261868 3.350000 2.902134
v 0.000000 0.150000 1.100000
v 0.000000 3.350000 1.100000
v -1.237294 0.150000 2.919342
v -1.237294 3.350000 2.919342
v 0.024575 0.150000 1.117207
v 0.024575 3.350000 1.117207
v -1.286443 0.150000 2.884927
v -1.286443 3.350000 2.884927
v -0.024574 0.150000 1.082793
v -0.024574 3.350000 1.082793
v -1.261868 0.150000 2.902134
v -1.261868 3.350000 2.902134
v 0.000000 0.150000 1.100000
v 0.000000 3.350000 1.100000
v -1.320033 0.110000 2.898030
v -1.320033 0.190000 2.898030
v -0.023750 0.110000 1.046746
v -0.023750 0.190000 1.046746
v -1.238118 0.110000 2.955388
v -1.238118 0.190000 2.955388
v 0.058165 0.110000 1.104104
v 0.058165 0.190000 1.104104
v -1.320033 3.310000 2.898030
v -1.320033 3.390000 2.898030
v -0.023750 3.310000 1.046746
v -0.023750 3.390000 1.046746
v -1.238118 3.310000 2.955388
v -1.238118 3.390000 2.955388
v 0.058165 3.310000 1.104104
v 0.058165 3.390000 1.104104
v 0.000000 0.150000 1.100000
v 0.000000 3.350000 1.100000
v 0.000000 0.150000 -1.100000
v 0.000000 3.350000 -1.100000
v 0.030000 0.150000 1.100000
v 0.030000 3.350000 1.100000
v 0.030000 0.150000 -1.100000
v 0.030000 3.350000 -1.100000
v -0.030000 0.150000 1.100000
v -0.030000 3.350000 1.100000
v -0.030000 0.150000 -1.100000
v -0.030000 3.350000 -1.100000
v 0.000000 0.150000 1.100000
v 0.000000 3.350000 1.100000
v 0.000000 0.150000 -1.100000
v 0.000000 3.350000 -1.100000
v -0.050000 0.110000 1.130000
v -0.050000 0.190000 1.130000
v -0.050000 0.110000 -1.130000
v -0.050000 0.190000 -1.130000
v 0.050000 0.110000 1.130000
v 0.050000 0.190000 1.130000
v 0.050000 0.110000 -1.130000
v 0.050000 0.190000 -1.130000
v -0.050000 3.310000 1.130000
v -0.050000 3.390000 1.130000
v -0.050000 3.310000 -1.130000
v -0.050000 3.390000 -1.130000
v 0.050000 3.310000 1.130000
v 0.050000 3.390000 1.130000
v 0.050000 3.310000 -1.130000
v 0.050000 3.390000 -1.130000
v 0.000000 0.150000 -1.100000
v 0.000000 3.350000 -1.100000
v -1.261868 0.150000 -2.902134
v -1.261868 3.350000 -2.902134
v 0.024575 0.150000 -1.117207
v 0.024575 3.350000 -1.117207
v -1.237294 0.150000 -2.919342
v -1.237294 3.350000 -2.919342
v -0.024574 0.150000 -1.082793
v -0.024574 3.350000 -1.082793
v -1.286443 0.150000 -2.884927
v -1.286443 3.350000 -2.884927
v 0.000000 0.150000 -1.100000
v 0.000000 3.350000 -1.100000
v -1.261868 0.150000 -2.902134
v -1.261868 3.350000 -2.902134
v -0.023750 0.110000 -1.046746
v -0.023750 0.190000 -1.046746
v -1.320033 0.110000 -2.898030
v -1.320033 0.190000 -2.898030
v 0.058165 0.110000 -1.104104
v 0.058165 0.190000 -1.104104
v -1.238118 0.110000 -2.955388
v -1.238118 0.190000 -2.955388
v -0.023750 3.310000 -1.046746
v -0.023750 3.390000 -1.046746
v -1.320033 3.310000 -2.898030
v -1.320033 3.390000 -2.898030
v 0.058165 3.310000 -1.104104
v 0.058165 3.390000 -1.104104
v -1.238118 3.310000 -2.955388
v -1.238118 3.390000 -2.955388
v 0.000000 0.000000 1.040000
v 0.000000 3.400000 1.040000
v 0.042426 0.000000 1.057574
v 0.042426 3.400000 1.057574
v 0.060000 0.000000 1.100000
v 0.060000 3.400000 1.100000
v 0.042426 0.000000 1.142426
v 0.042426 3.400000 1.142426
v 0.000000 0.000000 1.160000
v 0.000000 3.400000 1.160000
v -0.042426 0.000000 1.142426
v -0.042426 3.400000 1.142426
v -0.060000 0.000000 1.100000
v -0.060000 3.400000 1.100000
v -0.042426 0.000000 1.057574
v -0.042426 3.400000 1.057574
v -1.261868 0.000000 2.842134
v -1.261868 3.400000 2.842134
v -1.219442 0.000000 2.859708
v -1.219442 3.400000 2.859708
v -1.201868 0.000000 2.902134
v -1.201868 3.400000 2.902134
v -1.219442 0.000000 2.944561
v -1.219442 3.400000 2.944561
v -1.261868 0.000000 2.962134
v -1.261868 3.400000 2.962134
v -1.304294 0.000000 2.944561
v -1.304294 3.400000 2.944561
v -1.321868 0.000000 2.902134
v -1.321868 3.400000 2.902134
v -1.304294 0.000000 2.859708
v -1.304294 3.400000 2.859708
v 0.000000 0.000000 -1.160000
v 0.000000 3.400000 -1.160000
v 0.042426 0.000000 -1.142426
v 0.042426 3.400000 -1.142426
v 0.060000 0.000000 -1.100000
v 0.060000 3.400000 -1.100000
v 0.042426 0.000000 -1.057574
v 0.042426 3.400000 -1.057574
v 0.000000 0.000000 -1.040000
v 0.000000 3.400000 -1.040000
v -0.042426 0.000000 -1.057574
v -0.042426 3.400000 -1.057574
v -0.060000 0.000000 -1.100000
v -0.060000 3.400000 -1.100000
v -0.042426 0.000000 -1.142426
v -0.042426 3.400000 -1.142426
v -1.261868 0.000000 -2.962134
v -1.261868 3.400000 -2.962134
v -1.219442 0.000000 -2.944561
v -1.219442 3.400000 -2.944561
v -1.201868 0.000000 -2.902134
v -1.201868 3.400000 -2.902134
v -1.219442 0.000000 -2.859708
v -1.219442 3.400000 -2.859708
v -1.261868 0.000000 -2.842134
v -1.261868 3.400000 -2.842134
v -1.304294 0.000000 -2.859708
v -1.304294 3.400000 -2.859708
v -1.321868 0.000000 -2.902134
v -1.321868 3.400000 -2.902134
v -1.304294 0.000000 -2.944561
v -1.304294 3.400000 -2.944561
vn -0.8192 -0.0000 -0.5736
vn 0.5736 -0.0000 -0.8192
vn 0.8192 -0.0000 0.5736
vn -0.5736 -0.0000 0.8192
vn -0.0000 -1.0000 -0.0000
vn -0.0000 1.0000 -0.0000
vn -1.0000 -0.0000 -0.0000
vn -0.0000 -0.0000 -1.0000
vn 1.0000 -0.0000 -0.0000
vn -0.0000 -0.0000 1.0000
vn -0.8192 -0.0000 0.5736
vn -0.5736 -0.0000 -0.8192
vn 0.8192 -0.0000 -0.5736
vn 0.5736 -0.0000 0.8192
vn 0.3827 -0.0000 -0.9239
vn 0.9239 -0.0000 -0.3827
vn 0.9239 -0.0000 0.3827
vn 0.3827 -0.0000 0.9239
vn -0.3827 -0.0000 0.9239
vn -0.9239 -0.0000 0.3827
vn -0.9239 -0.0000 -0.3827
vn -0.3827 -0.0000 -0.9239
vt 0.001689 0.167793
vt 0.216566 0.379373
vt 0.001689 0.379373
vt 0.969063 0.381625
vt 0.971993 0.593205
vt 0.969063 0.593205
vt 0.219945 0.167793
vt 0.434821 0.379373
vt 0.219945 0.379373
vt 0.867755 0.595457
vt 0.870685 0.807037
vt 0.867755 0.807037
vt 0.964537 0.753975
vt 0.961246 0.621905
vt 0.964537 0.622477
vt 0.987162 0.513695
vt 0.990453 0.381625
vt 0.990453 0.513123
vt 0.001689 0.381625
vt 0.216566 0.593205
vt 0.001689 0.593205
vt 0.975371 0.167793
vt 0.978301 0.379373
vt 0.975371 0.379373
vt 0.219945 0.381625
vt 0.434821 0.593205
vt 0.219945 0.593205
vt 0.975371 0.595457
vt 0.978301 0.807037
vt 0.975371 0.807037
vt 0.988350 0.726955
vt 0.991641 0.596030
vt 0.991641 0.727528
vt 0.993832 0.513695
vt 0.997123 0.381625
vt 0.997123 0.513123
vt 0.806635 0.693562
vt 0.818537 0.595457
vt 0.818537 0.693562
vt 0.706690 0.744603
vt 0.716457 0.749892
vt 0.706690 0.749892
vt 0.837195 0.693563
vt 0.849096 0.595457
vt 0.849096 0.693563
vt 0.732981 0.744603
vt 0.742748 0.749892
vt 0.732981 0.749892
vt 0.749237 0.730541
vt 0.760208 0.597366
vt 0.760208 0.732450
vt 0.691840 0.732450
vt 0.702810 0.595457
vt 0.702810 0.730541
vt 0.874711 0.720010
vt 0.886612 0.621905
vt 0.886612 0.720010
vt 0.759273 0.744603
vt 0.769040 0.749892
vt 0.759273 0.749892
vt 0.889991 0.720010
vt 0.901892 0.621905
vt 0.901892 0.720010
vt 0.785564 0.744603
vt 0.795331 0.749892
vt 0.785564 0.749892
vt 0.763587 0.730541
vt 0.774558 0.597366
vt 0.774558 0.732450
vt 0.706189 0.732450
vt 0.717160 0.595457
vt 0.717160 0.730541
vt 0.323328 0.595457
vt 0.477612 0.807037
vt 0.323328 0.807037
vt 0.981680 0.381625
vt 0.983784 0.593205
vt 0.981680 0.593205
vt 0.163560 0.595457
vt 0.317845 0.807037
vt 0.163560 0.807037
vt 0.317845 0.595457
vt 0.319949 0.807037
vt 0.935830 0.767366
vt 0.938806 0.621905
vt 0.938806 0.767366
vt 0.942184 0.767366
vt 0.945159 0.621905
vt 0.945159 0.767366
vt 0.480991 0.595457
vt 0.635276 0.807037
vt 0.480991 0.807037
vt 0.001689 0.595457
vt 0.003793 0.807037
vt 0.001689 0.807037
vt 0.003793 0.595457
vt 0.158078 0.807037
vt 0.158078 0.595457
vt 0.160182 0.807037
vt 0.948538 0.767366
vt 0.951513 0.621905
vt 0.951513 0.767366
vt 0.954892 0.767366
vt 0.957867 0.621905
vt 0.957867 0.767366
vt 0.837195 0.766256
vt 0.849096 0.695815
vt 0.849096 0.766256
vt 0.795793 0.734703
vt 0.802806 0.739992
vt 0.795793 0.739992
vt 0.806635 0.769373
vt 0.818537 0.698932
vt 0.818537 0.769373
vt 0.806635 0.698932
vt 0.818537 0.695815
vt 0.638654 0.744885
vt 0.648572 0.595457
vt 0.648572 0.744885
vt 0.651950 0.744885
vt 0.661868 0.595457
vt 0.661868 0.744885
vt 0.852475 0.766256
vt 0.864376 0.695815
vt 0.864376 0.766256
vt 0.651950 0.747138
vt 0.658963 0.752427
vt 0.651950 0.752427
vt 0.821915 0.769373
vt 0.833816 0.698932
vt 0.833816 0.769373
vt 0.821915 0.698932
vt 0.833816 0.695815
vt 0.665247 0.744885
vt 0.675165 0.595457
vt 0.675165 0.744885
vt 0.678543 0.744885
vt 0.688461 0.595457
vt 0.688461 0.744885
vt 0.438200 0.167793
vt 0.653077 0.379373
vt 0.438200 0.379373
vt 0.969063 0.167793
vt 0.971993 0.379373
vt 0.969063 0.379373
vt 0.438200 0.381625
vt 0.653077 0.593205
vt 0.438200 0.593205
vt 0.969063 0.595457
vt 0.971993 0.807037
vt 0.969063 0.807037
vt 0.984971 0.726955
vt 0.981680 0.596030
vt 0.984971 0.595457
vt 0.991280 0.299863
vt 0.987988 0.167793
vt 0.991280 0.168366
vt 0.656455 0.167793
vt 0.871332 0.379373
vt 0.656455 0.379373
vt 0.981680 0.167793
vt 0.984610 0.379373
vt 0.981680 0.379373
vt 0.656455 0.381625
vt 0.871332 0.593205
vt 0.656455 0.593205
vt 0.975371 0.381625
vt 0.978301 0.593205
vt 0.975371 0.593205
vt 0.994658 0.299863
vt 0.997950 0.167793
vt 0.997950 0.299291
vt 0.995020 0.726955
vt 0.998311 0.596030
vt 0.998311 0.727528
vt 0.852475 0.693563
vt 0.864376 0.595457
vt 0.864376 0.693563
vt 0.746127 0.744603
vt 0.755894 0.749892
vt 0.746127 0.749892
vt 0.821915 0.693563
vt 0.833816 0.595457
vt 0.833816 0.693563
vt 0.719836 0.744603
vt 0.729603 0.749892
vt 0.719836 0.749892
vt 0.777936 0.732450
vt 0.788907 0.595457
vt 0.788907 0.730541
vt 0.731509 0.732450
vt 0.720538 0.595457
vt 0.731509 0.597366
vt 0.905270 0.720010
vt 0.917172 0.621905
vt 0.917172 0.720010
vt 0.638654 0.747138
vt 0.648421 0.752427
vt 0.638654 0.752427
vt 0.920550 0.720010
vt 0.932452 0.621905
vt 0.932452 0.720010
vt 0.772418 0.744603
vt 0.782185 0.749892
vt 0.772418 0.749892
vt 0.792286 0.732450
vt 0.803257 0.595457
vt 0.803257 0.730541
vt 0.745859 0.732450
vt 0.734888 0.595457
vt 0.745859 0.597366
vt 0.910093 0.167793
vt 0.914300 0.392596
vt 0.910093 0.392596
vt 0.914300 0.167793
vt 0.918508 0.392596
vt 0.874711 0.167793
vt 0.878918 0.392596
vt 0.874711 0.392596
vt 0.878918 0.167793
vt 0.883126 0.392596
vt 0.910093 0.394849
vt 0.914300 0.619652
vt 0.910093 0.619652
vt 0.914300 0.394849
vt 0.918508 0.619652
vt 0.706690 0.737823
vt 0.714802 0.734703
vt 0.718162 0.739231
vt 0.874711 0.394849
vt 0.878918 0.619652
vt 0.874711 0.619652
vt 0.878918 0.394849
vt 0.883126 0.619652
vt 0.724901 0.735325
vt 0.733012 0.736320
vt 0.729652 0.741728
vt 0.933681 0.167793
vt 0.937888 0.392596
vt 0.933681 0.392596
vt 0.937888 0.167793
vt 0.942096 0.392596
vt 0.933681 0.394849
vt 0.937888 0.619652
vt 0.933681 0.619652
vt 0.937888 0.394849
vt 0.942096 0.619652
vt 0.886505 0.167793
vt 0.890712 0.392596
vt 0.886505 0.392596
vt 0.890712 0.167793
vt 0.894920 0.392596
vt 0.736391 0.737823
vt 0.744503 0.734703
vt 0.747863 0.739231
vt 0.945475 0.167793
vt 0.949682 0.392596
vt 0.945475 0.392596
vt 0.949682 0.167793
vt 0.953890 0.392596
vt 0.784303 0.735325
vt 0.792414 0.736320
vt 0.789054 0.741728
vt 0.886505 0.394849
vt 0.890712 0.619652
vt 0.886505 0.619652
vt 0.890712 0.394849
vt 0.894920 0.619652
vt 0.921887 0.167793
vt 0.926094 0.392596
vt 0.921887 0.392596
vt 0.926094 0.167793
vt 0.930302 0.392596
vt 0.898299 0.167793
vt 0.902506 0.392596
vt 0.898299 0.392596
vt 0.902506 0.167793
vt 0.906714 0.392596
vt 0.751242 0.737823
vt 0.759353 0.734703
vt 0.762714 0.739231
vt 0.921887 0.394849
vt 0.926094 0.619652
vt 0.921887 0.619652
vt 0.926094 0.394849
vt 0.930302 0.619652
vt 0.769452 0.735325
vt 0.777564 0.736320
vt 0.774204 0.741728
vt 0.945475 0.394849
vt 0.949682 0.619652
vt 0.945475 0.619652
vt 0.949682 0.394849
vt 0.953890 0.619652
vt 0.957269 0.167793
vt 0.961476 0.392596
vt 0.957269 0.392596
vt 0.961476 0.167793
vt 0.965684 0.392596
vt 0.957269 0.394849
vt 0.961476 0.619652
vt 0.957269 0.619652
vt 0.961476 0.394849
vt 0.965684 0.619652
vt 0.691839 0.737823
vt 0.699951 0.734703
vt 0.703311 0.739231
vt 0.898299 0.394849
vt 0.902506 0.619652
vt 0.898299 0.619652
vt 0.902506 0.394849
vt 0.906714 0.619652
vt 0.695199 0.745225
vt 0.703311 0.746221
vt 0.699951 0.751629
vt 0.216566 0.167793
vt 0.971993 0.381625
vt 0.434821 0.167793
vt 0.870685 0.595457
vt 0.961245 0.753402
vt 0.987162 0.382198
vt 0.216566 0.381625
vt 0.978301 0.167793
vt 0.434821 0.381625
vt 0.978301 0.595457
vt 0.988350 0.595457
vt 0.993832 0.382198
vt 0.806635 0.595457
vt 0.716457 0.744603
vt 0.837195 0.595457
vt 0.742748 0.744603
vt 0.749237 0.595457
vt 0.691840 0.597366
vt 0.874711 0.621905
vt 0.769040 0.744603
vt 0.889991 0.621905
vt 0.795331 0.744603
vt 0.763587 0.595457
vt 0.706189 0.597366
vt 0.477612 0.595457
vt 0.983784 0.381625
vt 0.319949 0.595457
vt 0.935830 0.621905
vt 0.942184 0.621905
vt 0.635276 0.595457
vt 0.160182 0.595457
vt 0.948538 0.621905
vt 0.954892 0.621905
vt 0.837195 0.695815
vt 0.802806 0.734703
vt 0.806635 0.695815
vt 0.638654 0.595457
vt 0.651950 0.595457
vt 0.852475 0.695815
vt 0.658963 0.747138
vt 0.821915 0.695815
vt 0.665247 0.595457
vt 0.678543 0.595457
vt 0.653077 0.167793
vt 0.971993 0.167793
vt 0.653077 0.381625
vt 0.971993 0.595457
vt 0.981680 0.727528
vt 0.987988 0.299291
vt 0.871332 0.167793
vt 0.984610 0.167793
vt 0.871332 0.381625
vt 0.978301 0.381625
vt 0.994658 0.168366
vt 0.995020 0.595457
vt 0.852475 0.595457
vt 0.755894 0.744603
vt 0.821915 0.595457
vt 0.729603 0.744603
vt 0.777936 0.597366
vt 0.720538 0.730541
vt 0.905270 0.621905
vt 0.648421 0.747138
vt 0.920550 0.621905
vt 0.782185 0.744603
vt 0.792286 0.597366
vt 0.734888 0.730541
vt 0.918508 0.167793
vt 0.883126 0.167793
vt 0.918508 0.394849
vt 0.714802 0.741728
vt 0.710050 0.742351
vt 0.706690 0.740733
vt 0.710050 0.735325
vt 0.718162 0.736320
vt 0.883126 0.394849
vt 0.724901 0.742351
vt 0.721540 0.740733
vt 0.721540 0.737823
vt 0.729652 0.734703
vt 0.733012 0.739231
vt 0.942096 0.167793
vt 0.942096 0.394849
vt 0.894920 0.167793
vt 0.744503 0.741728
vt 0.739751 0.742351
vt 0.736391 0.740733
vt 0.739751 0.735325
vt 0.747863 0.736320
vt 0.953890 0.167793
vt 0.784303 0.742351
vt 0.780942 0.740733
vt 0.780942 0.737823
vt 0.789054 0.734703
vt 0.792414 0.739231
vt 0.894920 0.394849
vt 0.930302 0.167793
vt 0.906714 0.167793
vt 0.759353 0.741728
vt 0.754602 0.742351
vt 0.751242 0.740733
vt 0.754602 0.735325
vt 0.762714 0.736320
vt 0.930302 0.394849
vt 0.769452 0.742351
vt 0.766092 0.740733
vt 0.766092 0.737823
vt 0.774204 0.734703
vt 0.777564 0.739231
vt 0.953890 0.394849
vt 0.965684 0.167793
vt 0.965684 0.394849
vt 0.699951 0.741728
vt 0.695200 0.742351
vt 0.691839 0.740733
vt 0.695200 0.735325
vt 0.703311 0.736320
vt 0.906714 0.394849
vt 0.695199 0.752251
vt 0.691839 0.750633
vt 0.691839 0.747723
vt 0.699951 0.744603
vt 0.703311 0.749131
s 0
f 2/1/1 3/2/1 1/3/1
f 4/4/2 7/5/2 3/6/2
f 8/7/3 5/8/3 7/9/3
f 6/10/4 1/11/4 5/12/4
f 3/13/5 5/14/5 1/15/5
f 4/16/6 6/17/6 8/18/6
f 10/19/1 11/20/1 9/21/1
f 12/22/2 15/23/2 11/24/2
f 16/25/3 13/26/3 15/27/3
f 14/28/4 9/29/4 13/30/4
f 15/31/5 9/32/5 11/33/5
f 12/34/6 14/35/6 16/36/6
f 18/37/1 19/38/1 17/39/1
f 20/40/2 23/41/2 19/42/2
f 24/43/3 21/44/3 23/45/3
f 22/46/4 17/47/4 21/48/4
f 23/49/5 17/50/5 19/51/5
f 20/52/6 22/53/6 24/54/6
f 26/55/1 27/56/1 25/57/1
f 28/58/2 31/59/2 27/60/2
f 32/61/3 29/62/3 31/63/3
f 30/64/4 25/65/4 29/66/4
f 31/67/5 25/68/5 27/69/5
f 28/70/6 30/71/6 32/72/6
f 34/73/7 35/74/7 33/75/7
f 36/76/8 39/77/8 35/78/8
f 40/79/9 37/80/9 39/81/9
f 38/82/10 33/83/10 37/80/10
f 39/84/5 33/85/5 35/86/5
f 36/87/6 38/88/6 40/89/6
f 42/90/7 43/91/7 41/92/7
f 44/93/8 47/94/8 43/95/8
f 48/96/9 45/97/9 47/94/9
f 46/98/10 41/99/10 45/97/10
f 47/100/5 41/101/5 43/102/5
f 44/103/6 46/104/6 48/105/6
f 50/106/7 51/107/7 49/108/7
f 52/109/8 55/110/8 51/111/8
f 56/112/9 53/113/9 55/114/9
f 54/115/10 49/116/10 53/113/10
f 55/117/5 49/118/5 51/119/5
f 52/120/6 54/121/6 56/122/6
f 58/123/7 59/124/7 57/125/7
f 60/126/8 63/127/8 59/128/8
f 64/129/9 61/130/9 63/131/9
f 62/132/10 57/133/10 61/130/10
f 63/134/5 57/135/5 59/136/5
f 60/137/6 62/138/6 64/139/6
f 66/140/11 67/141/11 65/142/11
f 68/143/12 71/144/12 67/145/12
f 72/146/13 69/147/13 71/148/13
f 70/149/14 65/150/14 69/151/14
f 67/152/5 69/153/5 65/154/5
f 72/155/6 66/156/6 70/157/6
f 74/158/11 75/159/11 73/160/11
f 76/161/12 79/162/12 75/163/12
f 80/164/13 77/165/13 79/166/13
f 78/167/14 73/168/14 77/169/14
f 79/170/5 73/171/5 75/172/5
f 76/173/6 78/174/6 80/175/6
f 82/176/11 83/177/11 81/178/11
f 84/179/12 87/180/12 83/181/12
f 88/182/13 85/183/13 87/184/13
f 86/185/14 81/186/14 85/187/14
f 87/188/5 81/189/5 83/190/5
f 88/191/6 82/192/6 86/193/6
f 90/194/11 91/195/11 89/196/11
f 92/197/12 95/198/12 91/199/12
f 96/200/13 93/201/13 95/202/13
f 94/203/14 89/204/14 93/205/14
f 95/206/5 89/207/5 91/208/5
f 96/209/6 90/210/6 94/211/6
f 98/212/15 99/213/15 97/214/15
f 100/215/16 101/216/16 99/213/16
f 102/217/17 103/218/17 101/219/17
f 104/220/18 105/221/18 103/218/18
f 106/222/19 107/223/19 105/224/19
f 108/225/20 109/226/20 107/223/20
f 110/227/6 106/228/6 102/229/6
f 110/230/21 111/231/21 109/232/21
f 112/233/22 97/234/22 111/231/22
f 103/235/5 107/236/5 111/237/5
f 114/238/15 115/239/15 113/240/15
f 116/241/16 117/242/16 115/239/16
f 118/243/17 119/244/17 117/245/17
f 120/246/18 121/247/18 119/244/18
f 122/248/19 123/249/19 121/250/19
f 124/251/20 125/252/20 123/249/20
f 126/253/6 122/254/6 118/255/6
f 126/256/21 127/257/21 125/258/21
f 128/259/22 113/260/22 127/257/22
f 119/261/5 123/262/5 127/263/5
f 130/264/15 131/265/15 129/266/15
f 132/267/16 133/268/16 131/265/16
f 134/269/17 135/270/17 133/271/17
f 136/272/18 137/273/18 135/270/18
f 138/274/19 139/275/19 137/276/19
f 140/277/20 141/278/20 139/275/20
f 142/279/6 138/280/6 134/281/6
f 142/282/21 143/283/21 141/284/21
f 144/285/22 129/286/22 143/283/22
f 135/287/5 139/288/5 143/289/5
f 146/290/15 147/291/15 145/292/15
f 148/293/16 149/294/16 147/291/16
f 150/295/17 151/296/17 149/297/17
f 152/298/18 153/299/18 151/296/18
f 154/300/19 155/301/19 153/302/19
f 156/303/20 157/304/20 155/301/20
f 158/305/6 154/306/6 150/307/6
f 158/308/21 159/309/21 157/310/21
f 160/311/22 145/312/22 159/309/22
f 151/313/5 155/314/5 159/315/5
f 2/1/1 4/316/1 3/2/1
f 4/4/2 8/317/2 7/5/2
f 8/7/3 6/318/3 5/8/3
f 6/10/4 2/319/4 1/11/4
f 3/13/5 7/320/5 5/14/5
f 4/16/6 2/321/6 6/17/6
f 10/19/1 12/322/1 11/20/1
f 12/22/2 16/323/2 15/23/2
f 16/25/3 14/324/3 13/26/3
f 14/28/4 10/325/4 9/29/4
f 15/31/5 13/326/5 9/32/5
f 12/34/6 10/327/6 14/35/6
f 18/37/1 20/328/1 19/38/1
f 20/40/2 24/329/2 23/41/2
f 24/43/3 22/330/3 21/44/3
f 22/46/4 18/331/4 17/47/4
f 23/49/5 21/332/5 17/50/5
f 20/52/6 18/333/6 22/53/6
f 26/55/1 28/334/1 27/56/1
f 28/58/2 32/335/2 31/59/2
f 32/61/3 30/336/3 29/62/3
f 30/64/4 26/337/4 25/65/4
f 31/67/5 29/338/5 25/68/5
f 28/70/6 26/339/6 30/71/6
f 34/73/7 36/340/7 35/74/7
f 36/76/8 40/341/8 39/77/8
f 40/79/9 38/82/9 37/80/9
f 38/82/10 34/342/10 33/83/10
f 39/84/5 37/343/5 33/85/5
f 36/87/6 34/344/6 38/88/6
f 42/90/7 44/345/7 43/91/7
f 44/93/8 48/96/8 47/94/8
f 48/96/9 46/98/9 45/97/9
f 46/98/10 42/346/10 41/99/10
f 47/100/5 45/347/5 41/101/5
f 44/103/6 42/348/6 46/104/6
f 50/106/7 52/349/7 51/107/7
f 52/109/8 56/350/8 55/110/8
f 56/112/9 54/115/9 53/113/9
f 54/115/10 50/351/10 49/116/10
f 55/117/5 53/352/5 49/118/5
f 52/120/6 50/353/6 54/121/6
f 58/123/7 60/354/7 59/124/7
f 60/126/8 64/355/8 63/127/8
f 64/129/9 62/132/9 61/130/9
f 62/132/10 58/356/10 57/133/10
f 63/134/5 61/357/5 57/135/5
f 60/137/6 58/358/6 62/138/6
f 66/140/11 68/359/11 67/141/11
f 68/143/12 72/360/12 71/144/12
f 72/146/13 70/361/13 69/147/13
f 70/149/14 66/362/14 65/150/14
f 67/152/5 71/363/5 69/153/5
f 72/155/6 68/364/6 66/156/6
f 74/158/11 76/365/11 75/159/11
f 76/161/12 80/366/12 79/162/12
f 80/164/13 78/367/13 77/165/13
f 78/167/14 74/368/14 73/168/14
f 79/170/5 77/369/5 73/171/5
f 76/173/6 74/370/6 78/174/6
f 82/176/11 84/371/11 83/177/11
f 84/179/12 88/372/12 87/180/12
f 88/182/13 86/373/13 85/183/13
f 86/185/14 82/374/14 81/186/14
f 87/188/5 85/375/5 81/189/5
f 88/191/6 84/376/6 82/192/6
f 90/194/11 92/377/11 91/195/11
f 92/197/12 96/378/12 95/198/12
f 96/200/13 94/379/13 93/201/13
f 94/203/14 90/380/14 89/204/14
f 95/206/5 93/381/5 89/207/5
f 96/209/6 92/382/6 90/210/6
f 98/212/15 100/215/15 99/213/15
f 100/215/16 102/383/16 101/216/16
f 102/217/17 104/220/17 103/218/17
f 104/220/18 106/384/18 105/221/18
f 106/222/19 108/225/19 107/223/19
f 108/225/20 110/385/20 109/226/20
f 102/229/6 100/386/6 98/387/6
f 98/387/6 112/388/6 110/227/6
f 110/227/6 108/389/6 106/228/6
f 106/228/6 104/390/6 102/229/6
f 102/229/6 98/387/6 110/227/6
f 110/230/21 112/233/21 111/231/21
f 112/233/22 98/391/22 97/234/22
f 111/237/5 97/392/5 99/393/5
f 99/393/5 101/394/5 103/235/5
f 103/235/5 105/395/5 107/236/5
f 107/236/5 109/396/5 111/237/5
f 111/237/5 99/393/5 103/235/5
f 114/238/15 116/241/15 115/239/15
f 116/241/16 118/397/16 117/242/16
f 118/243/17 120/246/17 119/244/17
f 120/246/18 122/398/18 121/247/18
f 122/248/19 124/251/19 123/249/19
f 124/251/20 126/399/20 125/252/20
f 118/255/6 116/400/6 114/401/6
f 114/401/6 128/402/6 126/253/6
f 126/253/6 124/403/6 122/254/6
f 122/254/6 120/404/6 118/255/6
f 118/255/6 114/401/6 126/253/6
f 126/256/21 128/259/21 127/257/21
f 128/259/22 114/405/22 113/260/22
f 127/263/5 113/406/5 115/407/5
f 115/407/5 117/408/5 119/261/5
f 119/261/5 121/409/5 123/262/5
f 123/262/5 125/410/5 127/263/5
f 127/263/5 115/407/5 119/261/5
f 130/264/15 132/267/15 131/265/15
f 132/267/16 134/411/16 133/268/16
f 134/269/17 136/272/17 135/270/17
f 136/272/18 138/412/18 137/273/18
f 138/274/19 140/277/19 139/275/19
f 140/277/20 142/413/20 141/278/20
f 134/281/6 132/414/6 130/415/6
f 130/415/6 144/416/6 142/279/6
f 142/279/6 140/417/6 138/280/6
f 138/280/6 136/418/6 134/281/6
f 134/281/6 130/415/6 142/279/6
f 142/282/21 144/285/21 143/283/21
f 144/285/22 130/419/22 129/286/22
f 143/289/5 129/420/5 131/421/5
f 131/421/5 133/422/5 135/287/5
f 135/287/5 137/423/5 139/288/5
f 139/288/5 141/424/5 143/289/5
f 143/289/5 131/421/5 135/287/5
f 146/290/15 148/293/15 147/291/15
f 148/293/16 150/425/16 149/294/16
f 150/295/17 152/298/17 151/296/17
f 152/298/18 154/426/18 153/299/18
f 154/300/19 156/303/19 155/301/19
f 156/303/20 158/427/20 157/304/20
f 150/307/6 148/428/6 146/429/6
f 146/429/6 160/430/6 158/305/6
f 158/305/6 156/431/6 154/306/6
f 154/306/6 152/432/6 150/307/6
f 150/307/6 146/429/6 158/305/6
f 158/308/21 160/311/21 159/309/21
f 160/311/22 146/433/22 145/312/22
f 159/315/5 145/434/5 147/435/5
f 147/435/5 149/436/5 151/313/5
f 151/313/5 153/437/5 155/314/5
f 155/314/5 157/438/5 159/315/5
f 159/315/5 147/435/5 151/313/5
