# Blender 4.5.13 LTS
# www.blender.org
o planks
v -5.200000 -0.350000 10.400000
v -5.200000 0.000000 10.400000
v -5.200000 -0.350000 -10.400000
v -5.200000 0.000000 -10.400000
v 5.200000 -0.350000 10.400000
v 5.200000 0.000000 10.400000
v 5.200000 -0.350000 -10.400000
v 5.200000 0.000000 -10.400000
v -4.800000 -0.950000 10.000000
v -4.800000 -0.350000 10.000000
v -4.800000 -0.950000 -10.000000
v -4.800000 -0.350000 -10.000000
v 4.800000 -0.950000 10.000000
v 4.800000 -0.350000 10.000000
v 4.800000 -0.950000 -10.000000
v 4.800000 -0.350000 -10.000000
v -4.850000 -9.350000 10.050000
v -4.850000 -0.350000 10.050000
v -4.850000 -9.350000 9.349999
v -4.850000 -0.350000 9.349999
v -4.150000 -9.350000 10.050000
v -4.150000 -0.350000 10.050000
v -4.150000 -9.350000 9.349999
v -4.150000 -0.350000 9.349999
v -4.850000 -9.350000 -9.349999
v -4.850000 -0.350000 -9.349999
v -4.850000 -9.350000 -10.050000
v -4.850000 -0.350000 -10.050000
v -4.150000 -9.350000 -9.349999
v -4.150000 -0.350000 -9.349999
v -4.150000 -9.350000 -10.050000
v -4.150000 -0.350000 -10.050000
v 4.150000 -9.350000 10.050000
v 4.150000 -0.350000 10.050000
v 4.150000 -9.350000 9.349999
v 4.150000 -0.350000 9.349999
v 4.850000 -9.350000 10.050000
v 4.850000 -0.350000 10.050000
v 4.850000 -9.350000 9.349999
v 4.850000 -0.350000 9.349999
v 4.150000 -9.350000 -9.349999
v 4.150000 -0.350000 -9.349999
v 4.150000 -9.350000 -10.050000
v 4.150000 -0.350000 -10.050000
v 4.850000 -9.350000 -9.349999
v 4.850000 -0.350000 -9.349999
v 4.850000 -9.350000 -10.050000
v 4.850000 -0.350000 -10.050000
vn -1.0000 -0.0000 -0.0000
vn -0.0000 -0.0000 -1.0000
vn 1.0000 -0.0000 -0.0000
vn -0.0000 -0.0000 1.0000
vn -0.0000 -1.0000 -0.0000
vn -0.0000 1.0000 -0.0000
vt 0.805972 0.519001
vt 0.797254 0.519001
vt 0.797254 0.000925
vt 0.805972 0.000925
vt 0.772382 0.759963
vt 0.763664 0.759963
vt 0.763664 0.500925
vt 0.772382 0.500925
vt 0.816540 0.519001
vt 0.807822 0.519001
vt 0.807822 0.000925
vt 0.816540 0.000925
vt 0.351806 0.779889
vt 0.343088 0.779889
vt 0.343088 0.520851
vt 0.351806 0.520851
vt 0.259963 0.519001
vt 0.000925 0.519001
vt 0.000925 0.000925
vt 0.259963 0.000925
vt 0.520851 0.519001
vt 0.261814 0.519001
vt 0.261814 0.000925
vt 0.520851 0.000925
vt 0.778609 0.499075
vt 0.763664 0.499075
vt 0.763664 0.000925
vt 0.778609 0.000925
vt 0.324442 0.759963
vt 0.309498 0.759963
vt 0.309498 0.520851
vt 0.324442 0.520851
vt 0.795404 0.499075
vt 0.780459 0.499075
vt 0.780459 0.000925
vt 0.795404 0.000925
vt 0.341237 0.759963
vt 0.326293 0.759963
vt 0.326293 0.520851
vt 0.341237 0.520851
vt 0.761814 0.499075
vt 0.522702 0.499075
vt 0.522702 0.000925
vt 0.761814 0.000925
vt 0.761814 0.999075
vt 0.522702 0.999075
vt 0.522702 0.500925
vt 0.761814 0.500925
vt 0.000925 0.745018
vt 0.000925 0.520851
vt 0.018361 0.520851
vt 0.018361 0.745018
vt 0.155212 0.745018
vt 0.155212 0.520851
vt 0.172647 0.520851
vt 0.172647 0.745018
vt 0.020211 0.745018
vt 0.020211 0.520851
vt 0.037646 0.520851
vt 0.037646 0.745018
vt 0.174497 0.745018
vt 0.174497 0.520851
vt 0.191933 0.520851
vt 0.191933 0.745018
vt 0.371091 0.538286
vt 0.353656 0.538286
vt 0.353656 0.520851
vt 0.371091 0.520851
vt 0.390377 0.538286
vt 0.372942 0.538286
vt 0.372942 0.520851
vt 0.390377 0.520851
vt 0.039497 0.745018
vt 0.039497 0.520851
vt 0.056932 0.520851
vt 0.056932 0.745018
vt 0.193783 0.745018
vt 0.193783 0.520851
vt 0.211218 0.520851
vt 0.211218 0.745018
vt 0.058783 0.745018
vt 0.058783 0.520851
vt 0.076218 0.520851
vt 0.076218 0.745018
vt 0.213069 0.745018
vt 0.213069 0.520851
vt 0.230504 0.520851
vt 0.230504 0.745018
vt 0.409663 0.538287
vt 0.392228 0.538287
vt 0.392228 0.520851
vt 0.409663 0.520851
vt 0.428949 0.538287
vt 0.411514 0.538287
vt 0.411514 0.520851
vt 0.428949 0.520851
vt 0.078068 0.745018
vt 0.078068 0.520851
vt 0.095504 0.520851
vt 0.095504 0.745018
vt 0.232355 0.745018
vt 0.232355 0.520851
vt 0.249790 0.520851
vt 0.249790 0.745018
vt 0.097354 0.745018
vt 0.097354 0.520851
vt 0.114790 0.520851
vt 0.114790 0.745018
vt 0.251641 0.745018
vt 0.251641 0.520851
vt 0.269076 0.520851
vt 0.269076 0.745018
vt 0.448235 0.538286
vt 0.430799 0.538286
vt 0.430799 0.520851
vt 0.448235 0.520851
vt 0.467520 0.538286
vt 0.450085 0.538286
vt 0.450085 0.520851
vt 0.467520 0.520851
vt 0.116640 0.745018
vt 0.116640 0.520851
vt 0.134075 0.520851
vt 0.134075 0.745018
vt 0.270926 0.745018
vt 0.270926 0.520851
vt 0.288362 0.520851
vt 0.288362 0.745018
vt 0.135926 0.745018
vt 0.135926 0.520851
vt 0.153361 0.520851
vt 0.153361 0.745018
vt 0.290212 0.745018
vt 0.290212 0.520851
vt 0.307647 0.520851
vt 0.307647 0.745018
vt 0.486806 0.538287
vt 0.469371 0.538287
vt 0.469371 0.520851
vt 0.486806 0.520851
vt 0.506092 0.538287
vt 0.488657 0.538287
vt 0.488657 0.520851
vt 0.506092 0.520851
s 0
f 1/1/1 2/2/1 4/3/1 3/4/1
f 3/5/2 4/6/2 8/7/2 7/8/2
f 7/9/3 8/10/3 6/11/3 5/12/3
f 5/13/4 6/14/4 2/15/4 1/16/4
f 3/17/5 7/18/5 5/19/5 1/20/5
f 8/21/6 4/22/6 2/23/6 6/24/6
f 9/25/1 10/26/1 12/27/1 11/28/1
f 11/29/2 12/30/2 16/31/2 15/32/2
f 15/33/3 16/34/3 14/35/3 13/36/3
f 13/37/4 14/38/4 10/39/4 9/40/4
f 11/41/5 15/42/5 13/43/5 9/44/5
f 16/45/6 12/46/6 10/47/6 14/48/6
f 17/49/1 18/50/1 20/51/1 19/52/1
f 19/53/2 20/54/2 24/55/2 23/56/2
f 23/57/3 24/58/3 22/59/3 21/60/3
f 21/61/4 22/62/4 18/63/4 17/64/4
f 19/65/5 23/66/5 21/67/5 17/68/5
f 24/69/6 20/70/6 18/71/6 22/72/6
f 25/73/1 26/74/1 28/75/1 27/76/1
f 27/77/2 28/78/2 32/79/2 31/80/2
f 31/81/3 32/82/3 30/83/3 29/84/3
f 29/85/4 30/86/4 26/87/4 25/88/4
f 27/89/5 31/90/5 29/91/5 25/92/5
f 32/93/6 28/94/6 26/95/6 30/96/6
f 33/97/1 34/98/1 36/99/1 35/100/1
f 35/101/2 36/102/2 40/103/2 39/104/2
f 39/105/3 40/106/3 38/107/3 37/108/3
f 37/109/4 38/110/4 34/111/4 33/112/4
f 35/113/5 39/114/5 37/115/5 33/116/5
f 40/117/6 36/118/6 34/119/6 38/120/6
f 41/121/1 42/122/1 44/123/1 43/124/1
f 43/125/2 44/126/2 48/127/2 47/128/2
f 47/129/3 48/130/3 46/131/3 45/132/3
f 45/133/4 46/134/4 42/135/4 41/136/4
f 43/137/5 47/138/5 45/139/5 41/140/5
f 48/141/6 44/142/6 42/143/6 46/144/6
