# The Giants of Holst prop, from CC0 kits by KayKit (Kay Lousberg) and Kenney
v -0.4725 0.0500 0.9000
vt 0.6755 0.8705
vn 0.0000 1.0000 0.0000
v -0.9000 0.0500 0.4725
vt 0.6331 0.8705
vn 0.0000 1.0000 0.0000
v -0.9000 0.0500 0.9000
vt 0.6331 0.8705
vn 0.0000 1.0000 0.0000
f 1/1/1 2/2/2 3/3/3
v -0.7502 0.0500 0.4725
vt 0.6479 0.8393
vn 0.1795 0.8771 -0.4454
v -0.4725 0.0500 0.7502
vt 0.6755 0.8393
vn 0.4454 0.8771 -0.1795
v -0.4500 0.0486 0.7401
vt 0.6777 0.8067
vn 0.4426 0.8772 -0.1859
v -0.7401 0.0486 0.4500
vt 0.6490 0.8067
vn 0.1859 0.8772 -0.4426
f 4/4/4 5/5/5 6/6/6 7/7/7
v -0.4275 0.0500 0.7502
vt 0.6800 0.8705
vn 0.0000 0.6004 -0.7997
v 0.4275 0.0500 0.7502
vt 0.6755 0.8705
vn 0.0000 0.6004 -0.7997
v 0.4500 0.0486 0.7401
vt 0.6755 0.8705
vn 0.0000 0.6004 -0.7997
v -0.4500 0.0486 0.7401
vt 0.6800 0.8705
vn 0.0000 0.6004 -0.7997
f 8/8/8 9/9/9 10/10/10 11/11/11
v -0.4725 0.0500 0.7502
vt 0.6755 0.8549
vn 0.4454 0.8771 -0.1795
v -0.4725 0.0500 0.9000
vt 0.6755 0.8542
vn 0.5145 0.8575 0.0000
v -0.4500 0.0486 0.9000
vt 0.6777 0.8542
vn 0.5145 0.8575 0.0000
v -0.4500 0.0486 0.7401
vt 0.6777 0.8223
vn 0.4426 0.8772 -0.1859
f 12/12/12 13/13/13 14/14/14 15/15/15
v -0.4500 0.0486 0.7401
vt 0.6777 0.8536
vn -0.5145 0.8575 0.0000
v -0.4500 0.0486 0.9000
vt 0.6777 0.8542
vn -0.5145 0.8575 0.0000
v -0.4275 0.0500 0.9000
vt 0.6800 0.8542
vn -0.5145 0.8575 0.0000
v -0.4275 0.0500 0.7502
vt 0.6800 0.8862
vn -0.5145 0.8575 0.0000
f 16/16/16 17/17/17 18/18/18 19/19/19
v -0.9000 0.0500 0.4725
vt 0.6331 0.8542
vn 0.0000 0.8575 -0.5145
v -0.7502 0.0500 0.4725
vt 0.6479 0.8393
vn 0.1795 0.8771 -0.4454
v -0.7401 0.0486 0.4500
vt 0.6490 0.8067
vn 0.1859 0.8772 -0.4426
v -0.9000 0.0486 0.4500
vt 0.6331 0.8542
vn 0.0000 0.8575 -0.5145
f 20/20/20 21/21/21 22/22/22 23/23/23
v -0.9000 0.0486 0.4500
vt 0.6331 0.8542
vn 0.0000 0.8575 0.5145
v -0.7401 0.0486 0.4500
vt 0.6490 0.8692
vn 0.0000 0.8575 0.5145
v -0.7502 0.0500 0.4275
vt 0.6479 0.9018
vn 0.0000 0.8575 0.5145
v -0.9000 0.0500 0.4275
vt 0.6331 0.8542
vn 0.0000 0.8575 0.5145
f 24/24/24 25/25/25 26/26/26 27/27/27
v -0.9000 0.0500 0.4725
vt 0.6331 0.8386
vn -1.0000 0.0000 0.0000
v -0.9000 0.0486 0.4500
vt 0.6331 0.8386
vn -1.0000 0.0000 0.0000
v -0.9000 0.0429 0.9000
vt 0.6331 0.8386
vn -1.0000 0.0000 0.0000
v -0.9000 0.0500 0.9000
vt 0.6331 0.8386
vn -1.0000 0.0000 0.0000
f 28/28/28 29/29/29 30/30/30 31/31/31
v -0.4725 0.0500 0.9000
vt 0.6755 0.8386
vn 0.0000 0.0000 1.0000
v -0.9000 0.0500 0.9000
vt 0.6331 0.8386
vn 0.0000 0.0000 1.0000
v -0.9000 0.0429 0.9000
vt 0.6331 0.8386
vn 0.0000 0.0000 1.0000
v -0.4500 0.0486 0.9000
vt 0.6777 0.8386
vn 0.0000 0.0000 1.0000
f 32/32/32 33/33/33 34/34/34 35/35/35
v 0.9000 0.0429 0.9000
vt 0.7224 0.8386
vn 0.0000 0.0000 1.0000
v 0.4500 0.0486 0.9000
vt 0.6777 0.8386
vn 0.0000 0.0000 1.0000
v -0.4500 0.0486 0.9000
vt 0.6777 0.8386
vn 0.0000 0.0000 1.0000
v -0.9000 0.0429 0.9000
vt 0.6331 0.8386
vn 0.0000 0.0000 1.0000
f 36/36/36 37/37/37 38/38/38 39/39/39
v -0.4725 0.0500 0.7502
vt 0.6755 0.8705
vn 0.0000 1.0000 0.0000
v -0.7502 0.0500 0.4725
vt 0.6479 0.8705
vn 0.0000 1.0000 0.0000
v -0.9000 0.0500 0.4725
vt 0.6331 0.8705
vn 0.0000 1.0000 0.0000
v -0.4725 0.0500 0.9000
vt 0.6755 0.8705
vn 0.0000 1.0000 0.0000
f 40/40/40 41/41/41 42/42/42 43/43/43
v 0.9000 0.0500 0.4275
vt 0.7224 0.8386
vn 1.0000 0.0000 0.0000
v 0.9000 0.0486 0.4500
vt 0.7224 0.8386
vn 1.0000 0.0000 0.0000
v 0.9000 0.0486 -0.4500
vt 0.7224 0.8386
vn 1.0000 0.0000 0.0000
v 0.9000 0.0500 -0.4275
vt 0.7224 0.8386
vn 1.0000 0.0000 0.0000
f 44/44/44 45/45/45 46/46/46 47/47/47
v -0.9000 0.0486 0.4500
vt 0.6331 0.8386
vn -1.0000 0.0000 0.0000
v -0.9000 0.0500 0.4275
vt 0.6331 0.8386
vn -1.0000 0.0000 0.0000
v -0.9000 0.0500 -0.4275
vt 0.6331 0.8386
vn -1.0000 0.0000 0.0000
v -0.9000 0.0486 -0.4500
vt 0.6331 0.8386
vn -1.0000 0.0000 0.0000
f 48/48/48 49/49/49 50/50/50 51/51/51
v -0.9000 0.0500 -0.4725
vt 0.6331 0.8705
vn 0.0000 1.0000 0.0000
v -0.4725 0.0500 -0.9000
vt 0.6755 0.8705
vn 0.0000 1.0000 0.0000
v -0.9000 0.0500 -0.9000
vt 0.6331 0.8705
vn 0.0000 1.0000 0.0000
f 52/52/52 53/53/53 54/54/54
v -0.7401 0.0486 -0.4500
vt 0.6490 0.8692
vn 0.1859 0.8772 0.4426
v -0.4500 0.0486 -0.7401
vt 0.6777 0.8692
vn 0.4426 0.8772 0.1859
v -0.4725 0.0500 -0.7502
vt 0.6755 0.9018
vn 0.4454 0.8771 0.1795
v -0.7502 0.0500 -0.4725
vt 0.6479 0.9018
vn 0.1795 0.8771 0.4454
f 55/55/55 56/56/56 57/57/57 58/58/58
v -0.4725 0.0500 -0.9000
vt 0.6755 0.8542
vn 0.5145 0.8575 0.0000
v -0.4725 0.0500 -0.7502
vt 0.6755 0.8549
vn 0.4454 0.8771 0.1795
v -0.4500 0.0486 -0.7401
vt 0.6777 0.8223
vn 0.4426 0.8772 0.1859
v -0.4500 0.0486 -0.9000
vt 0.6777 0.8542
vn 0.5145 0.8575 0.0000
f 59/59/59 60/60/60 61/61/61 62/62/62
v -0.4500 0.0486 -0.9000
vt 0.6777 0.8542
vn -0.5145 0.8575 0.0000
v -0.4500 0.0486 -0.7401
vt 0.6777 0.8536
vn -0.5145 0.8575 0.0000
v -0.4275 0.0500 -0.7502
vt 0.6800 0.8862
vn -0.5145 0.8575 0.0000
v -0.4275 0.0500 -0.9000
vt 0.6800 0.8542
vn -0.5145 0.8575 0.0000
f 63/63/63 64/64/64 65/65/65 66/66/66
v -0.9000 0.0500 -0.4275
vt 0.6331 0.8542
vn 0.0000 0.8575 -0.5145
v -0.7502 0.0500 -0.4275
vt 0.6479 0.8393
vn 0.0000 0.8575 -0.5145
v -0.7401 0.0486 -0.4500
vt 0.6490 0.8067
vn 0.0000 0.8575 -0.5145
v -0.9000 0.0486 -0.4500
vt 0.6331 0.8542
vn 0.0000 0.8575 -0.5145
f 67/67/67 68/68/68 69/69/69 70/70/70
v -0.9000 0.0486 -0.4500
vt 0.6331 0.8542
vn 0.0000 0.8575 0.5145
v -0.7401 0.0486 -0.4500
vt 0.6490 0.8692
vn 0.1859 0.8772 0.4426
v -0.7502 0.0500 -0.4725
vt 0.6479 0.9018
vn 0.1795 0.8771 0.4454
v -0.9000 0.0500 -0.4725
vt 0.6331 0.8542
vn 0.0000 0.8575 0.5145
f 71/71/71 72/72/72 73/73/73 74/74/74
v 0.4275 0.0500 -0.7502
vt 0.6755 0.8705
vn 0.0000 1.0000 0.0000
v 0.4275 0.0500 -0.9000
vt 0.6755 0.8705
vn 0.0000 1.0000 0.0000
v -0.4275 0.0500 -0.9000
vt 0.6800 0.8705
vn 0.0000 1.0000 0.0000
v -0.4275 0.0500 -0.7502
vt 0.6800 0.8705
vn 0.0000 1.0000 0.0000
f 75/75/75 76/76/76 77/77/77 78/78/78
v -0.9000 0.0486 0.4500
vt 0.6331 0.8386
vn -1.0000 0.0000 0.0000
v -0.9000 0.0486 -0.4500
vt 0.6331 0.8386
vn -1.0000 0.0000 0.0000
v -0.9000 0.0429 -0.9000
vt 0.6331 0.8386
vn -1.0000 0.0000 0.0000
v -0.9000 0.0429 0.9000
vt 0.6331 0.8386
vn -1.0000 0.0000 0.0000
f 79/79/79 80/80/80 81/81/81 82/82/82
v -0.4725 0.0500 -0.9000
vt 0.6755 0.8386
vn 0.0000 0.0000 -1.0000
v -0.4500 0.0486 -0.9000
vt 0.6777 0.8386
vn 0.0000 0.0000 -1.0000
v -0.9000 0.0429 -0.9000
vt 0.6331 0.8386
vn 0.0000 0.0000 -1.0000
v -0.9000 0.0500 -0.9000
vt 0.6331 0.8386
vn 0.0000 0.0000 -1.0000
f 83/83/83 84/84/84 85/85/85 86/86/86
v -0.9000 0.0486 -0.4500
vt 0.6331 0.8386
vn -1.0000 0.0000 0.0000
v -0.9000 0.0500 -0.4725
vt 0.6331 0.8386
vn -1.0000 0.0000 0.0000
v -0.9000 0.0500 -0.9000
vt 0.6331 0.8386
vn -1.0000 0.0000 0.0000
v -0.9000 0.0429 -0.9000
vt 0.6331 0.8386
vn -1.0000 0.0000 0.0000
f 87/87/87 88/88/88 89/89/89 90/90/90
v -0.7502 0.0500 -0.4275
vt 0.6479 0.8705
vn 0.0000 1.0000 0.0000
v -0.9000 0.0500 -0.4275
vt 0.6331 0.8705
vn 0.0000 1.0000 0.0000
v -0.9000 0.0500 0.4275
vt 0.6331 0.8705
vn 0.0000 1.0000 0.0000
v -0.7502 0.0500 0.4275
vt 0.6479 0.8705
vn 0.0000 1.0000 0.0000
f 91/91/91 92/92/92 93/93/93 94/94/94
v -0.7502 0.0500 -0.4725
vt 0.6479 0.8705
vn 0.0000 1.0000 0.0000
v -0.4725 0.0500 -0.7502
vt 0.6755 0.8705
vn 0.0000 1.0000 0.0000
v -0.4725 0.0500 -0.9000
vt 0.6755 0.8705
vn 0.0000 1.0000 0.0000
v -0.9000 0.0500 -0.4725
vt 0.6331 0.8705
vn 0.0000 1.0000 0.0000
f 95/95/95 96/96/96 97/97/97 98/98/98
v 0.4500 0.0486 -0.9000
vt 0.6777 0.8386
vn 0.0000 0.0000 -1.0000
v 0.9000 0.0429 -0.9000
vt 0.7224 0.8386
vn 0.0000 0.0000 -1.0000
v -0.9000 0.0429 -0.9000
vt 0.6331 0.8386
vn 0.0000 0.0000 -1.0000
v -0.4500 0.0486 -0.9000
vt 0.6777 0.8386
vn 0.0000 0.0000 -1.0000
f 99/99/99 100/100/100 101/101/101 102/102/102
v -0.4500 0.0486 -0.9000
vt 0.6777 0.8386
vn 0.0000 0.0000 -1.0000
v -0.4275 0.0500 -0.9000
vt 0.6800 0.8386
vn 0.0000 0.0000 -1.0000
v 0.4275 0.0500 -0.9000
vt 0.6755 0.8386
vn 0.0000 0.0000 -1.0000
v 0.4500 0.0486 -0.9000
vt 0.6777 0.8386
vn 0.0000 0.0000 -1.0000
f 103/103/103 104/104/104 105/105/105 106/106/106
v 0.7502 0.0500 0.4275
vt 0.7075 0.8705
vn -0.7997 0.6004 0.0000
v 0.7502 0.0500 -0.4275
vt 0.7075 0.8705
vn -0.7997 0.6004 0.0000
v 0.7401 0.0486 -0.4500
vt 0.7075 0.8705
vn -0.7997 0.6004 0.0000
v 0.7401 0.0486 0.4500
vt 0.7075 0.8705
vn -0.7997 0.6004 0.0000
f 107/107/107 108/108/108 109/109/109 110/110/110
v 0.4500 0.0486 -0.7401
vt 0.6777 0.8692
vn -0.4426 0.8772 0.1859
v 0.7401 0.0486 -0.4500
vt 0.7065 0.8692
vn -0.1859 0.8772 0.4426
v 0.7502 0.0500 -0.4725
vt 0.7075 0.9018
vn -0.1795 0.8771 0.4454
v 0.4725 0.0500 -0.7502
vt 0.6800 0.9018
vn -0.4454 0.8771 0.1795
f 111/111/111 112/112/112 113/113/113 114/114/114
v 0.4275 0.0500 -0.9000
vt 0.6755 0.8542
vn 0.5145 0.8575 0.0000
v 0.4275 0.0500 -0.7502
vt 0.6755 0.8549
vn 0.5145 0.8575 0.0000
v 0.4500 0.0486 -0.7401
vt 0.6777 0.8223
vn 0.5145 0.8575 0.0000
v 0.4500 0.0486 -0.9000
vt 0.6777 0.8542
vn 0.5145 0.8575 0.0000
f 115/115/115 116/116/116 117/117/117 118/118/118
v 0.4500 0.0486 -0.9000
vt 0.6777 0.8542
vn -0.5145 0.8575 0.0000
v 0.4500 0.0486 -0.7401
vt 0.6777 0.8536
vn -0.4426 0.8772 0.1859
v 0.4725 0.0500 -0.7502
vt 0.6800 0.8862
vn -0.4454 0.8771 0.1795
v 0.4725 0.0500 -0.9000
vt 0.6800 0.8542
vn -0.5145 0.8575 0.0000
f 119/119/119 120/120/120 121/121/121 122/122/122
v 0.7502 0.0500 -0.4275
vt 0.7075 0.8393
vn 0.0000 0.8575 -0.5145
v 0.9000 0.0500 -0.4275
vt 0.7224 0.8542
vn 0.0000 0.8575 -0.5145
v 0.9000 0.0486 -0.4500
vt 0.7224 0.8542
vn 0.0000 0.8575 -0.5145
v 0.7401 0.0486 -0.4500
vt 0.7065 0.8067
vn 0.0000 0.8575 -0.5145
f 123/123/123 124/124/124 125/125/125 126/126/126
v 0.7401 0.0486 -0.4500
vt 0.7065 0.8692
vn -0.1859 0.8772 0.4426
v 0.9000 0.0486 -0.4500
vt 0.7224 0.8542
vn 0.0000 0.8575 0.5145
v 0.9000 0.0500 -0.4725
vt 0.7224 0.8542
vn 0.0000 0.8575 0.5145
v 0.7502 0.0500 -0.4725
vt 0.7075 0.9018
vn -0.1795 0.8771 0.4454
f 127/127/127 128/128/128 129/129/129 130/130/130
v 0.4725 0.0500 -0.9000
vt 0.6800 0.8705
vn 0.0000 1.0000 0.0000
v 0.9000 0.0500 -0.4725
vt 0.7224 0.8705
vn 0.0000 1.0000 0.0000
v 0.9000 0.0500 -0.9000
vt 0.7224 0.8705
vn 0.0000 1.0000 0.0000
f 131/131/131 132/132/132 133/133/133
v 0.9000 0.0500 -0.4725
vt 0.7224 0.8386
vn 1.0000 0.0000 0.0000
v 0.9000 0.0486 -0.4500
vt 0.7224 0.8386
vn 1.0000 0.0000 0.0000
v 0.9000 0.0429 -0.9000
vt 0.7224 0.8386
vn 1.0000 0.0000 0.0000
v 0.9000 0.0500 -0.9000
vt 0.7224 0.8386
vn 1.0000 0.0000 0.0000
f 134/134/134 135/135/135 136/136/136 137/137/137
v 0.9000 0.0429 -0.9000
vt 0.7224 0.8386
vn 1.0000 0.0000 0.0000
v 0.9000 0.0486 -0.4500
vt 0.7224 0.8386
vn 1.0000 0.0000 0.0000
v 0.9000 0.0486 0.4500
vt 0.7224 0.8386
vn 1.0000 0.0000 0.0000
v 0.9000 0.0429 0.9000
vt 0.7224 0.8386
vn 1.0000 0.0000 0.0000
f 138/138/138 139/139/139 140/140/140 141/141/141
v 0.4500 0.0486 -0.9000
vt 0.6777 0.8386
vn 0.0000 0.0000 -1.0000
v 0.4725 0.0500 -0.9000
vt 0.6800 0.8386
vn 0.0000 0.0000 -1.0000
v 0.9000 0.0500 -0.9000
vt 0.7224 0.8386
vn 0.0000 0.0000 -1.0000
v 0.9000 0.0429 -0.9000
vt 0.7224 0.8386
vn 0.0000 0.0000 -1.0000
f 142/142/142 143/143/143 144/144/144 145/145/145
v 0.4725 0.0500 -0.7502
vt 0.6800 0.8705
vn 0.0000 1.0000 0.0000
v 0.7502 0.0500 -0.4725
vt 0.7075 0.8705
vn 0.0000 1.0000 0.0000
v 0.9000 0.0500 -0.4725
vt 0.7224 0.8705
vn 0.0000 1.0000 0.0000
v 0.4725 0.0500 -0.9000
vt 0.6800 0.8705
vn 0.0000 1.0000 0.0000
f 146/146/146 147/147/147 148/148/148 149/149/149
v 0.4275 0.0500 0.9000
vt 0.6755 0.8705
vn 0.0000 1.0000 0.0000
v 0.4275 0.0500 0.7502
vt 0.6755 0.8705
vn 0.0000 1.0000 0.0000
v -0.4275 0.0500 0.7502
vt 0.6800 0.8705
vn 0.0000 1.0000 0.0000
v -0.4275 0.0500 0.9000
vt 0.6800 0.8705
vn 0.0000 1.0000 0.0000
f 150/150/150 151/151/151 152/152/152 153/153/153
v 0.9000 0.0500 0.4725
vt 0.7224 0.8705
vn 0.0000 1.0000 0.0000
v 0.4725 0.0500 0.9000
vt 0.6800 0.8705
vn 0.0000 1.0000 0.0000
v 0.9000 0.0500 0.9000
vt 0.7224 0.8705
vn 0.0000 1.0000 0.0000
f 154/154/154 155/155/155 156/156/156
v 0.4500 0.0486 0.9000
vt 0.6777 0.8386
vn 0.0000 0.0000 1.0000
v 0.4275 0.0500 0.9000
vt 0.6755 0.8386
vn 0.0000 0.0000 1.0000
v -0.4275 0.0500 0.9000
vt 0.6800 0.8386
vn 0.0000 0.0000 1.0000
v -0.4500 0.0486 0.9000
vt 0.6777 0.8386
vn 0.0000 0.0000 1.0000
f 157/157/157 158/158/158 159/159/159 160/160/160
v 0.4725 0.0500 0.7502
vt 0.6800 0.8393
vn -0.4454 0.8771 -0.1795
v 0.7502 0.0500 0.4725
vt 0.7075 0.8393
vn -0.1795 0.8771 -0.4454
v 0.7401 0.0486 0.4500
vt 0.7065 0.8067
vn -0.1859 0.8772 -0.4426
v 0.4500 0.0486 0.7401
vt 0.6777 0.8067
vn -0.4426 0.8772 -0.1859
f 161/161/161 162/162/162 163/163/163 164/164/164
v -0.7502 0.0500 -0.4275
vt 0.6479 0.8705
vn 0.7997 0.6004 0.0000
v -0.7502 0.0500 0.4275
vt 0.6479 0.8705
vn 0.7997 0.6004 0.0000
v -0.7401 0.0486 0.4500
vt 0.6479 0.8705
vn 0.7997 0.6004 0.0000
v -0.7401 0.0486 -0.4500
vt 0.6479 0.8705
vn 0.7997 0.6004 0.0000
f 165/165/165 166/166/166 167/167/167 168/168/168
v 0.7502 0.0500 0.4725
vt 0.7075 0.8393
vn -0.1795 0.8771 -0.4454
v 0.9000 0.0500 0.4725
vt 0.7224 0.8542
vn 0.0000 0.8575 -0.5145
v 0.9000 0.0486 0.4500
vt 0.7224 0.8542
vn 0.0000 0.8575 -0.5145
v 0.7401 0.0486 0.4500
vt 0.7065 0.8067
vn -0.1859 0.8772 -0.4426
f 169/169/169 170/170/170 171/171/171 172/172/172
v 0.7401 0.0486 0.4500
vt 0.7065 0.8692
vn 0.0000 0.8575 0.5145
v 0.9000 0.0486 0.4500
vt 0.7224 0.8542
vn 0.0000 0.8575 0.5145
v 0.9000 0.0500 0.4275
vt 0.7224 0.8542
vn 0.0000 0.8575 0.5145
v 0.7502 0.0500 0.4275
vt 0.7075 0.9018
vn 0.0000 0.8575 0.5145
f 173/173/173 174/174/174 175/175/175 176/176/176
v 0.4275 0.0500 0.7502
vt 0.6755 0.8549
vn 0.5145 0.8575 0.0000
v 0.4275 0.0500 0.9000
vt 0.6755 0.8542
vn 0.5145 0.8575 0.0000
v 0.4500 0.0486 0.9000
vt 0.6777 0.8542
vn 0.5145 0.8575 0.0000
v 0.4500 0.0486 0.7401
vt 0.6777 0.8223
vn 0.5145 0.8575 0.0000
f 177/177/177 178/178/178 179/179/179 180/180/180
v 0.4500 0.0486 0.7401
vt 0.6777 0.8536
vn -0.4426 0.8772 -0.1859
v 0.4500 0.0486 0.9000
vt 0.6777 0.8542
vn -0.5145 0.8575 0.0000
v 0.4725 0.0500 0.9000
vt 0.6800 0.8542
vn -0.5145 0.8575 0.0000
v 0.4725 0.0500 0.7502
vt 0.6800 0.8862
vn -0.4454 0.8771 -0.1795
f 181/181/181 182/182/182 183/183/183 184/184/184
v 0.4725 0.0500 0.9000
vt 0.6800 0.8386
vn 0.0000 0.0000 1.0000
v 0.4500 0.0486 0.9000
vt 0.6777 0.8386
vn 0.0000 0.0000 1.0000
v 0.9000 0.0429 0.9000
vt 0.7224 0.8386
vn 0.0000 0.0000 1.0000
v 0.9000 0.0500 0.9000
vt 0.7224 0.8386
vn 0.0000 0.0000 1.0000
f 185/185/185 186/186/186 187/187/187 188/188/188
v 0.7502 0.0500 0.4275
vt 0.7075 0.8705
vn 0.0000 1.0000 0.0000
v 0.9000 0.0500 0.4275
vt 0.7224 0.8705
vn 0.0000 1.0000 0.0000
v 0.9000 0.0500 -0.4275
vt 0.7224 0.8705
vn 0.0000 1.0000 0.0000
v 0.7502 0.0500 -0.4275
vt 0.7075 0.8705
vn 0.0000 1.0000 0.0000
f 189/189/189 190/190/190 191/191/191 192/192/192
v 0.9000 0.0486 0.4500
vt 0.7224 0.8386
vn 1.0000 0.0000 0.0000
v 0.9000 0.0500 0.4725
vt 0.7224 0.8386
vn 1.0000 0.0000 0.0000
v 0.9000 0.0500 0.9000
vt 0.7224 0.8386
vn 1.0000 0.0000 0.0000
v 0.9000 0.0429 0.9000
vt 0.7224 0.8386
vn 1.0000 0.0000 0.0000
f 193/193/193 194/194/194 195/195/195 196/196/196
v 0.7502 0.0500 0.4725
vt 0.7075 0.8705
vn 0.0000 1.0000 0.0000
v 0.4725 0.0500 0.7502
vt 0.6800 0.8705
vn 0.0000 1.0000 0.0000
v 0.4725 0.0500 0.9000
vt 0.6800 0.8705
vn 0.0000 1.0000 0.0000
v 0.9000 0.0500 0.4725
vt 0.7224 0.8705
vn 0.0000 1.0000 0.0000
f 197/197/197 198/198/198 199/199/199 200/200/200
v 0.4275 0.0500 -0.7502
vt 0.6755 0.8705
vn 0.0000 0.6004 0.7997
v -0.4275 0.0500 -0.7502
vt 0.6800 0.8705
vn 0.0000 0.6004 0.7997
v -0.4500 0.0486 -0.7401
vt 0.6800 0.8705
vn 0.0000 0.6004 0.7997
v 0.4500 0.0486 -0.7401
vt 0.6755 0.8705
vn 0.0000 0.6004 0.7997
f 201/201/201 202/202/202 203/203/203 204/204/204
v -0.7401 0.0486 -0.4500
vt 0.6591 0.8125
vn 0.9137 0.1342 0.3836
v -0.7401 0.0486 0.4500
vt 0.6591 0.8125
vn 0.9137 0.1342 -0.3836
v -0.6864 0.0000 0.4173
vt 0.6591 0.7758
vn 0.9176 0.1340 -0.3744
v -0.6864 0.0000 -0.4173
vt 0.6591 0.7758
vn 0.9176 0.1340 0.3744
f 205/205/205 206/206/206 207/207/207 208/208/208
v 0.4500 0.0486 0.7401
vt 0.7048 0.7968
vn -0.3836 0.1342 -0.9137
v 0.7401 0.0486 0.4500
vt 0.7159 0.7968
vn -0.9137 0.1342 -0.3836
v 0.6864 0.0000 0.4173
vt 0.7159 0.7602
vn -0.9176 0.1340 -0.3744
v 0.4173 0.0000 0.6864
vt 0.7048 0.7602
vn -0.3744 0.1340 -0.9176
f 209/209/209 210/210/210 211/211/211 212/212/212
v 0.7401 0.0486 -0.4500
vt 0.7159 0.7968
vn -0.9137 0.1342 0.3836
v 0.4500 0.0486 -0.7401
vt 0.7048 0.7968
vn -0.3836 0.1342 0.9137
v 0.4173 0.0000 -0.6864
vt 0.7048 0.7602
vn -0.3744 0.1340 0.9176
v 0.6864 0.0000 -0.4173
vt 0.7159 0.7602
vn -0.9176 0.1340 0.3744
f 213/213/213 214/214/214 215/215/215 216/216/216
v 0.4500 0.0486 -0.7401
vt 0.7048 0.8125
vn -0.3836 0.1342 0.9137
v -0.4500 0.0486 -0.7401
vt 0.6702 0.8125
vn 0.3836 0.1342 0.9137
v -0.4173 0.0000 -0.6864
vt 0.6702 0.7758
vn 0.3744 0.1340 0.9176
v 0.4173 0.0000 -0.6864
vt 0.7048 0.7758
vn -0.3744 0.1340 0.9176
f 217/217/217 218/218/218 219/219/219 220/220/220
v 0.7401 0.0486 0.4500
vt 0.7159 0.8125
vn -0.9137 0.1342 -0.3836
v 0.7401 0.0486 -0.4500
vt 0.7159 0.8125
vn -0.9137 0.1342 0.3836
v 0.6864 0.0000 -0.4173
vt 0.7159 0.7758
vn -0.9176 0.1340 0.3744
v 0.6864 0.0000 0.4173
vt 0.7159 0.7758
vn -0.9176 0.1340 -0.3744
f 221/221/221 222/222/222 223/223/223 224/224/224
v -0.7401 0.0486 0.4500
vt 0.6591 0.7968
vn 0.9137 0.1342 -0.3836
v -0.4500 0.0486 0.7401
vt 0.6702 0.7968
vn 0.3836 0.1342 -0.9137
v -0.4173 0.0000 0.6864
vt 0.6702 0.7602
vn 0.3744 0.1340 -0.9176
v -0.6864 0.0000 0.4173
vt 0.6591 0.7602
vn 0.9176 0.1340 -0.3744
f 225/225/225 226/226/226 227/227/227 228/228/228
v -0.4500 0.0486 0.7401
vt 0.6702 0.8125
vn 0.3836 0.1342 -0.9137
v 0.4500 0.0486 0.7401
vt 0.7048 0.8125
vn -0.3836 0.1342 -0.9137
v 0.4173 0.0000 0.6864
vt 0.7048 0.7758
vn -0.3744 0.1340 -0.9176
v -0.4173 0.0000 0.6864
vt 0.6702 0.7758
vn 0.3744 0.1340 -0.9176
f 229/229/229 230/230/230 231/231/231 232/232/232
v -0.4500 0.0486 -0.7401
vt 0.6702 0.7968
vn 0.3836 0.1342 0.9137
v -0.7401 0.0486 -0.4500
vt 0.6591 0.7968
vn 0.9137 0.1342 0.3836
v -0.6864 0.0000 -0.4173
vt 0.6591 0.7602
vn 0.9176 0.1340 0.3744
v -0.4173 0.0000 -0.6864
vt 0.6702 0.7602
vn 0.3744 0.1340 0.9176
f 233/233/233 234/234/234 235/235/235 236/236/236
v 0.0000 0.0000 0.0000
vt 0.7014 0.8074
vn 0.0000 1.0000 0.0000
v 0.6864 0.0000 -0.4173
vt 0.7075 0.8074
vn 0.0000 1.0000 0.0000
v 0.4173 0.0000 -0.6864
vt 0.6755 0.8074
vn 0.0000 1.0000 0.0000
f 237/237/237 238/238/238 239/239/239
v 0.0000 0.0000 0.0000
vt 0.6759 0.8074
vn 0.0000 1.0000 0.0000
v -0.4173 0.0000 -0.6864
vt 0.6800 0.8074
vn 0.0000 1.0000 0.0000
v -0.6864 0.0000 -0.4173
vt 0.6490 0.8074
vn 0.0000 1.0000 0.0000
f 240/240/240 241/241/241 242/242/242
v 0.0000 0.0000 0.0000
vt 0.6796 0.8074
vn 0.0000 1.0000 0.0000
v 0.4173 0.0000 -0.6864
vt 0.6755 0.8074
vn 0.0000 1.0000 0.0000
v -0.4173 0.0000 -0.6864
vt 0.6800 0.8074
vn 0.0000 1.0000 0.0000
f 243/243/243 244/244/244 245/245/245
v 0.0000 0.0000 0.0000
vt 0.7007 0.8074
vn 0.0000 1.0000 0.0000
v 0.6864 0.0000 0.4173
vt 0.7065 0.8074
vn 0.0000 1.0000 0.0000
v 0.6864 0.0000 -0.4173
vt 0.7075 0.8074
vn 0.0000 1.0000 0.0000
f 246/246/246 247/247/247 248/248/248
v 0.0000 0.0000 0.0000
vt 0.6741 0.8074
vn 0.0000 1.0000 0.0000
v -0.4173 0.0000 0.6864
vt 0.6777 0.8074
vn 0.0000 1.0000 0.0000
v 0.4173 0.0000 0.6864
vt 0.6755 0.8074
vn 0.0000 1.0000 0.0000
f 249/249/249 250/250/250 251/251/251
v 0.0000 0.0000 0.0000
vt 0.6794 0.8074
vn 0.0000 1.0000 0.0000
v 0.4173 0.0000 0.6864
vt 0.6755 0.8074
vn 0.0000 1.0000 0.0000
v 0.6864 0.0000 0.4173
vt 0.7065 0.8074
vn 0.0000 1.0000 0.0000
f 252/252/252 253/253/253 254/254/254
v 0.0000 0.0000 0.0000
vt 0.6537 0.8074
vn 0.0000 1.0000 0.0000
v -0.6864 0.0000 0.4173
vt 0.6479 0.8074
vn 0.0000 1.0000 0.0000
v -0.4173 0.0000 0.6864
vt 0.6777 0.8074
vn 0.0000 1.0000 0.0000
f 255/255/255 256/256/256 257/257/257
v 0.0000 0.0000 0.0000
vt 0.6547 0.8074
vn 0.0000 1.0000 0.0000
v -0.6864 0.0000 -0.4173
vt 0.6490 0.8074
vn 0.0000 1.0000 0.0000
v -0.6864 0.0000 0.4173
vt 0.6479 0.8074
vn 0.0000 1.0000 0.0000
f 258/258/258 259/259/259 260/260/260
v -0.5980 0.0383 0.6179
vt 0.4114 0.8415
vn 0.6124 -0.5000 0.6124
v 0.6179 0.0383 -0.5980
vt 0.4521 0.8415
vn 0.6124 -0.5000 0.6124
v 0.6279 0.0409 -0.5881
vt 0.4521 0.8885
vn 0.6124 -0.5000 0.6124
v -0.5881 0.0409 0.6279
vt 0.4114 0.8885
vn 0.6124 -0.5000 0.6124
f 261/261/261 262/262/262 263/263/263 264/264/264
v -0.6279 0.0409 0.5881
vt 0.4114 0.8885
vn -0.6124 -0.5000 -0.6124
v 0.5881 0.0409 -0.6279
vt 0.4521 0.8885
vn -0.6124 -0.5000 -0.6124
v 0.5980 0.0383 -0.6179
vt 0.4521 0.8415
vn -0.6124 -0.5000 -0.6124
v -0.6179 0.0383 0.5980
vt 0.4114 0.8415
vn -0.6124 -0.5000 -0.6124
f 265/265/265 266/266/266 267/267/267 268/268/268
v -0.5881 0.0409 0.6279
vt 0.4119 0.9272
vn 0.6124 0.5000 0.6124
v 0.6279 0.0409 -0.5881
vt 0.4526 0.9272
vn 0.6124 0.5000 0.6124
v 0.6179 0.0435 -0.5980
vt 0.4526 0.9743
vn 0.6124 0.5000 0.6124
v -0.5980 0.0435 0.6179
vt 0.4119 0.9743
vn 0.6124 0.5000 0.6124
f 269/269/269 270/270/270 271/271/271 272/272/272
v -0.6179 0.0383 0.5980
vt 0.4119 0.7621
vn 0.0000 -1.0000 0.0000
v 0.5980 0.0383 -0.6179
vt 0.4526 0.7621
vn 0.0000 -1.0000 0.0000
v 0.6179 0.0383 -0.5980
vt 0.4526 0.7621
vn 0.0000 -1.0000 0.0000
v -0.5980 0.0383 0.6179
vt 0.4119 0.7621
vn 0.0000 -1.0000 0.0000
f 273/273/273 274/274/274 275/275/275 276/276/276
v -0.6179 0.0435 0.5980
vt 0.4119 0.9743
vn -0.6124 0.5000 -0.6124
v 0.5980 0.0435 -0.6179
vt 0.4526 0.9743
vn -0.6124 0.5000 -0.6124
v 0.5881 0.0409 -0.6279
vt 0.4526 0.9272
vn -0.6124 0.5000 -0.6124
v -0.6279 0.0409 0.5881
vt 0.4119 0.9272
vn -0.6124 0.5000 -0.6124
f 277/277/277 278/278/278 279/279/279 280/280/280
v -0.5980 0.0435 0.6179
vt 0.0437 0.7643
vn 0.0000 1.0000 0.0000
v 0.6179 0.0435 -0.5980
vt 0.0844 0.7643
vn 0.0000 1.0000 0.0000
v 0.5980 0.0435 -0.6179
vt 0.0844 0.7643
vn 0.0000 1.0000 0.0000
v -0.6179 0.0435 0.5980
vt 0.0437 0.7643
vn 0.0000 1.0000 0.0000
f 281/281/281 282/282/282 283/283/283 284/284/284
v -0.1506 0.0409 0.7472
vt 0.4114 0.8885
vn -0.6124 -0.5000 -0.6124
v 0.7472 0.0409 -0.1506
vt 0.4521 0.8885
vn -0.6124 -0.5000 -0.6124
v 0.7571 0.0383 -0.1406
vt 0.4521 0.8415
vn -0.6124 -0.5000 -0.6124
v -0.1406 0.0383 0.7571
vt 0.4114 0.8415
vn -0.6124 -0.5000 -0.6124
f 285/285/285 286/286/286 287/287/287 288/288/288
v -0.4588 0.0435 0.7571
vt 0.4119 0.9743
vn -0.6124 0.5000 -0.6124
v 0.7571 0.0435 -0.4588
vt 0.4526 0.9743
vn -0.6124 0.5000 -0.6124
v 0.7472 0.0409 -0.4688
vt 0.4526 0.9272
vn -0.6124 0.5000 -0.6124
v -0.4688 0.0409 0.7472
vt 0.4119 0.9272
vn -0.6124 0.5000 -0.6124
f 289/289/289 290/290/290 291/291/291 292/292/292
v -0.4588 0.0383 0.7571
vt 0.4119 0.7621
vn 0.0000 -1.0000 0.0000
v 0.7571 0.0383 -0.4588
vt 0.4526 0.7621
vn 0.0000 -1.0000 0.0000
v 0.7770 0.0383 -0.4389
vt 0.4526 0.7621
vn 0.0000 -1.0000 0.0000
v -0.4389 0.0383 0.7770
vt 0.4119 0.7621
vn 0.0000 -1.0000 0.0000
f 293/293/293 294/294/294 295/295/295 296/296/296
v -0.4290 0.0409 0.7870
vt 0.4119 0.9272
vn 0.6124 0.5000 0.6124
v 0.7870 0.0409 -0.4290
vt 0.4526 0.9272
vn 0.6124 0.5000 0.6124
v 0.7770 0.0435 -0.4389
vt 0.4526 0.9743
vn 0.6124 0.5000 0.6124
v -0.4389 0.0435 0.7770
vt 0.4119 0.9743
vn 0.6124 0.5000 0.6124
f 297/297/297 298/298/298 299/299/299 300/300/300
v -0.4688 0.0409 0.7472
vt 0.4114 0.8885
vn -0.6124 -0.5000 -0.6124
v 0.7472 0.0409 -0.4688
vt 0.4521 0.8885
vn -0.6124 -0.5000 -0.6124
v 0.7571 0.0383 -0.4588
vt 0.4521 0.8415
vn -0.6124 -0.5000 -0.6124
v -0.4588 0.0383 0.7571
vt 0.4114 0.8415
vn -0.6124 -0.5000 -0.6124
f 301/301/301 302/302/302 303/303/303 304/304/304
v -0.1207 0.0383 0.7770
vt 0.4114 0.8415
vn 0.6124 -0.5000 0.6124
v 0.7770 0.0383 -0.1207
vt 0.4521 0.8415
vn 0.6124 -0.5000 0.6124
v 0.7870 0.0409 -0.1108
vt 0.4521 0.8885
vn 0.6124 -0.5000 0.6124
v -0.1108 0.0409 0.7870
vt 0.4114 0.8885
vn 0.6124 -0.5000 0.6124
f 305/305/305 306/306/306 307/307/307 308/308/308
v -0.1406 0.0383 0.7571
vt 0.4119 0.7621
vn 0.0000 -1.0000 0.0000
v 0.7571 0.0383 -0.1406
vt 0.4526 0.7621
vn 0.0000 -1.0000 0.0000
v 0.7770 0.0383 -0.1207
vt 0.4526 0.7621
vn 0.0000 -1.0000 0.0000
v -0.1207 0.0383 0.7770
vt 0.4119 0.7621
vn 0.0000 -1.0000 0.0000
f 309/309/309 310/310/310 311/311/311 312/312/312
v -0.1406 0.0435 0.7571
vt 0.4119 0.9743
vn -0.6124 0.5000 -0.6124
v 0.7571 0.0435 -0.1406
vt 0.4526 0.9743
vn -0.6124 0.5000 -0.6124
v 0.7472 0.0409 -0.1506
vt 0.4526 0.9272
vn -0.6124 0.5000 -0.6124
v -0.1506 0.0409 0.7472
vt 0.4119 0.9272
vn -0.6124 0.5000 -0.6124
f 313/313/313 314/314/314 315/315/315 316/316/316
v -0.1207 0.0435 0.7770
vt 0.0437 0.7643
vn 0.0000 1.0000 0.0000
v 0.7770 0.0435 -0.1207
vt 0.0844 0.7643
vn 0.0000 1.0000 0.0000
v 0.7571 0.0435 -0.1406
vt 0.0844 0.7643
vn 0.0000 1.0000 0.0000
v -0.1406 0.0435 0.7571
vt 0.0437 0.7643
vn 0.0000 1.0000 0.0000
f 317/317/317 318/318/318 319/319/319 320/320/320
v -0.4389 0.0435 0.7770
vt 0.0437 0.7643
vn 0.0000 1.0000 0.0000
v 0.7770 0.0435 -0.4389
vt 0.0844 0.7643
vn 0.0000 1.0000 0.0000
v 0.7571 0.0435 -0.4588
vt 0.0844 0.7643
vn 0.0000 1.0000 0.0000
v -0.4588 0.0435 0.7571
vt 0.0437 0.7643
vn 0.0000 1.0000 0.0000
f 321/321/321 322/322/322 323/323/323 324/324/324
v -0.1108 0.0409 0.7870
vt 0.4119 0.9272
vn 0.6124 0.5000 0.6124
v 0.7870 0.0409 -0.1108
vt 0.4526 0.9272
vn 0.6124 0.5000 0.6124
v 0.7770 0.0435 -0.1207
vt 0.4526 0.9743
vn 0.6124 0.5000 0.6124
v -0.1207 0.0435 0.7770
vt 0.4119 0.9743
vn 0.6124 0.5000 0.6124
f 325/325/325 326/326/326 327/327/327 328/328/328
v -0.4389 0.0383 0.7770
vt 0.4114 0.8415
vn 0.6124 -0.5000 0.6124
v 0.7770 0.0383 -0.4389
vt 0.4521 0.8415
vn 0.6124 -0.5000 0.6124
v 0.7870 0.0409 -0.4290
vt 0.4521 0.8885
vn 0.6124 -0.5000 0.6124
v -0.4290 0.0409 0.7870
vt 0.4114 0.8885
vn 0.6124 -0.5000 0.6124
f 329/329/329 330/330/330 331/331/331 332/332/332
v -0.7571 0.0383 0.1776
vt 0.4119 0.7621
vn 0.0000 -1.0000 0.0000
v -0.1776 0.0383 0.7571
vt 0.4526 0.7621
vn 0.0000 -1.0000 0.0000
v -0.1975 0.0383 0.7770
vt 0.4526 0.7621
vn 0.0000 -1.0000 0.0000
v -0.7770 0.0383 0.1975
vt 0.4119 0.7621
vn 0.0000 -1.0000 0.0000
f 333/333/333 334/334/334 335/335/335 336/336/336
v -0.7472 0.0409 0.1676
vt 0.4114 0.8885
vn 0.6124 -0.5000 -0.6124
v -0.1676 0.0409 0.7472
vt 0.4521 0.8885
vn 0.6124 -0.5000 -0.6124
v -0.1776 0.0383 0.7571
vt 0.4521 0.8415
vn 0.6124 -0.5000 -0.6124
v -0.7571 0.0383 0.1776
vt 0.4114 0.8415
vn 0.6124 -0.5000 -0.6124
f 337/337/337 338/338/338 339/339/339 340/340/340
v -0.7770 0.0435 0.1975
vt 0.0437 0.7643
vn 0.0000 1.0000 0.0000
v -0.1975 0.0435 0.7770
vt 0.0844 0.7643
vn 0.0000 1.0000 0.0000
v -0.1776 0.0435 0.7571
vt 0.0844 0.7643
vn 0.0000 1.0000 0.0000
v -0.7571 0.0435 0.1776
vt 0.0437 0.7643
vn 0.0000 1.0000 0.0000
f 341/341/341 342/342/342 343/343/343 344/344/344
v -0.7571 0.0435 0.1776
vt 0.4119 0.9743
vn 0.6124 0.5000 -0.6124
v -0.1776 0.0435 0.7571
vt 0.4526 0.9743
vn 0.6124 0.5000 -0.6124
v -0.1676 0.0409 0.7472
vt 0.4526 0.9272
vn 0.6124 0.5000 -0.6124
v -0.7472 0.0409 0.1676
vt 0.4119 0.9272
vn 0.6124 0.5000 -0.6124
f 345/345/345 346/346/346 347/347/347 348/348/348
v -0.7870 0.0409 0.2074
vt 0.4119 0.9272
vn -0.6124 0.5000 0.6124
v -0.2074 0.0409 0.7870
vt 0.4526 0.9272
vn -0.6124 0.5000 0.6124
v -0.1975 0.0435 0.7770
vt 0.4526 0.9743
vn -0.6124 0.5000 0.6124
v -0.7770 0.0435 0.1975
vt 0.4119 0.9743
vn -0.6124 0.5000 0.6124
f 349/349/349 350/350/350 351/351/351 352/352/352
v -0.7770 0.0383 0.1975
vt 0.4114 0.8415
vn -0.6124 -0.5000 0.6124
v -0.1975 0.0383 0.7770
vt 0.4521 0.8415
vn -0.6124 -0.5000 0.6124
v -0.2074 0.0409 0.7870
vt 0.4521 0.8885
vn -0.6124 -0.5000 0.6124
v -0.7870 0.0409 0.2074
vt 0.4114 0.8885
vn -0.6124 -0.5000 0.6124
f 353/353/353 354/354/354 355/355/355 356/356/356
v -0.7571 0.0435 -0.1406
vt 0.4119 0.9743
vn 0.6124 0.5000 -0.6124
v 0.1406 0.0435 0.7571
vt 0.4526 0.9743
vn 0.6124 0.5000 -0.6124
v 0.1506 0.0409 0.7472
vt 0.4526 0.9272
vn 0.6124 0.5000 -0.6124
v -0.7472 0.0409 -0.1506
vt 0.4119 0.9272
vn 0.6124 0.5000 -0.6124
f 357/357/357 358/358/358 359/359/359 360/360/360
v -0.7571 0.0383 -0.1406
vt 0.4119 0.7621
vn 0.0000 -1.0000 0.0000
v 0.1406 0.0383 0.7571
vt 0.4526 0.7621
vn 0.0000 -1.0000 0.0000
v 0.1207 0.0383 0.7770
vt 0.4526 0.7621
vn 0.0000 -1.0000 0.0000
v -0.7770 0.0383 -0.1207
vt 0.4119 0.7621
vn 0.0000 -1.0000 0.0000
f 361/361/361 362/362/362 363/363/363 364/364/364
v -0.7770 0.0435 -0.4389
vt 0.0437 0.7643
vn 0.0000 1.0000 0.0000
v 0.4389 0.0435 0.7770
vt 0.0844 0.7643
vn 0.0000 1.0000 0.0000
v 0.4588 0.0435 0.7571
vt 0.0844 0.7643
vn 0.0000 1.0000 0.0000
v -0.7571 0.0435 -0.4588
vt 0.0437 0.7643
vn 0.0000 1.0000 0.0000
f 365/365/365 366/366/366 367/367/367 368/368/368
v -0.7770 0.0435 -0.1207
vt 0.0437 0.7643
vn 0.0000 1.0000 0.0000
v 0.1207 0.0435 0.7770
vt 0.0844 0.7643
vn 0.0000 1.0000 0.0000
v 0.1406 0.0435 0.7571
vt 0.0844 0.7643
vn 0.0000 1.0000 0.0000
v -0.7571 0.0435 -0.1406
vt 0.0437 0.7643
vn 0.0000 1.0000 0.0000
f 369/369/369 370/370/370 371/371/371 372/372/372
v -0.7870 0.0409 -0.1108
vt 0.4119 0.9272
vn -0.6124 0.5000 0.6124
v 0.1108 0.0409 0.7870
vt 0.4526 0.9272
vn -0.6124 0.5000 0.6124
v 0.1207 0.0435 0.7770
vt 0.4526 0.9743
vn -0.6124 0.5000 0.6124
v -0.7770 0.0435 -0.1207
vt 0.4119 0.9743
vn -0.6124 0.5000 0.6124
f 373/373/373 374/374/374 375/375/375 376/376/376
v -0.7770 0.0383 -0.4389
vt 0.4114 0.8415
vn -0.6124 -0.5000 0.6124
v 0.4389 0.0383 0.7770
vt 0.4521 0.8415
vn -0.6124 -0.5000 0.6124
v 0.4290 0.0409 0.7870
vt 0.4521 0.8885
vn -0.6124 -0.5000 0.6124
v -0.7870 0.0409 -0.4290
vt 0.4114 0.8885
vn -0.6124 -0.5000 0.6124
f 377/377/377 378/378/378 379/379/379 380/380/380
v -0.7472 0.0409 -0.4688
vt 0.4114 0.8885
vn 0.6124 -0.5000 -0.6124
v 0.4688 0.0409 0.7472
vt 0.4521 0.8885
vn 0.6124 -0.5000 -0.6124
v 0.4588 0.0383 0.7571
vt 0.4521 0.8415
vn 0.6124 -0.5000 -0.6124
v -0.7571 0.0383 -0.4588
vt 0.4114 0.8415
vn 0.6124 -0.5000 -0.6124
f 381/381/381 382/382/382 383/383/383 384/384/384
v -0.7770 0.0383 -0.1207
vt 0.4114 0.8415
vn -0.6124 -0.5000 0.6124
v 0.1207 0.0383 0.7770
vt 0.4521 0.8415
vn -0.6124 -0.5000 0.6124
v 0.1108 0.0409 0.7870
vt 0.4521 0.8885
vn -0.6124 -0.5000 0.6124
v -0.7870 0.0409 -0.1108
vt 0.4114 0.8885
vn -0.6124 -0.5000 0.6124
f 385/385/385 386/386/386 387/387/387 388/388/388
v -0.7571 0.0435 -0.4588
vt 0.4119 0.9743
vn 0.6124 0.5000 -0.6124
v 0.4588 0.0435 0.7571
vt 0.4526 0.9743
vn 0.6124 0.5000 -0.6124
v 0.4688 0.0409 0.7472
vt 0.4526 0.9272
vn 0.6124 0.5000 -0.6124
v -0.7472 0.0409 -0.4688
vt 0.4119 0.9272
vn 0.6124 0.5000 -0.6124
f 389/389/389 390/390/390 391/391/391 392/392/392
v -0.7571 0.0383 -0.4588
vt 0.4119 0.7621
vn 0.0000 -1.0000 0.0000
v 0.4588 0.0383 0.7571
vt 0.4526 0.7621
vn 0.0000 -1.0000 0.0000
v 0.4389 0.0383 0.7770
vt 0.4526 0.7621
vn 0.0000 -1.0000 0.0000
v -0.7770 0.0383 -0.4389
vt 0.4119 0.7621
vn 0.0000 -1.0000 0.0000
f 393/393/393 394/394/394 395/395/395 396/396/396
v -0.7472 0.0409 -0.1506
vt 0.4114 0.8885
vn 0.6124 -0.5000 -0.6124
v 0.1506 0.0409 0.7472
vt 0.4521 0.8885
vn 0.6124 -0.5000 -0.6124
v 0.1406 0.0383 0.7571
vt 0.4521 0.8415
vn 0.6124 -0.5000 -0.6124
v -0.7571 0.0383 -0.1406
vt 0.4114 0.8415
vn 0.6124 -0.5000 -0.6124
f 397/397/397 398/398/398 399/399/399 400/400/400
v -0.7870 0.0409 -0.4290
vt 0.4119 0.9272
vn -0.6124 0.5000 0.6124
v 0.4290 0.0409 0.7870
vt 0.4526 0.9272
vn -0.6124 0.5000 0.6124
v 0.4389 0.0435 0.7770
vt 0.4526 0.9743
vn -0.6124 0.5000 0.6124
v -0.7770 0.0435 -0.4389
vt 0.4119 0.9743
vn -0.6124 0.5000 0.6124
f 401/401/401 402/402/402 403/403/403 404/404/404
v -0.6179 0.0435 -0.5980
vt 0.0437 0.7643
vn 0.0000 1.0000 0.0000
v 0.5980 0.0435 0.6179
vt 0.0844 0.7643
vn 0.0000 1.0000 0.0000
v 0.6179 0.0435 0.5980
vt 0.0844 0.7643
vn 0.0000 1.0000 0.0000
v -0.5980 0.0435 -0.6179
vt 0.0437 0.7643
vn 0.0000 1.0000 0.0000
f 405/405/405 406/406/406 407/407/407 408/408/408
v -0.6179 0.0383 -0.5980
vt 0.4114 0.8415
vn -0.6124 -0.5000 0.6124
v 0.5980 0.0383 0.6179
vt 0.4521 0.8415
vn -0.6124 -0.5000 0.6124
v 0.5881 0.0409 0.6279
vt 0.4521 0.8885
vn -0.6124 -0.5000 0.6124
v -0.6279 0.0409 -0.5881
vt 0.4114 0.8885
vn -0.6124 -0.5000 0.6124
f 409/409/409 410/410/410 411/411/411 412/412/412
v -0.5980 0.0435 -0.6179
vt 0.4119 0.9743
vn 0.6124 0.5000 -0.6124
v 0.6179 0.0435 0.5980
vt 0.4526 0.9743
vn 0.6124 0.5000 -0.6124
v 0.6279 0.0409 0.5881
vt 0.4526 0.9272
vn 0.6124 0.5000 -0.6124
v -0.5881 0.0409 -0.6279
vt 0.4119 0.9272
vn 0.6124 0.5000 -0.6124
f 413/413/413 414/414/414 415/415/415 416/416/416
v -0.5980 0.0383 -0.6179
vt 0.4119 0.7621
vn 0.0000 -1.0000 0.0000
v 0.6179 0.0383 0.5980
vt 0.4526 0.7621
vn 0.0000 -1.0000 0.0000
v 0.5980 0.0383 0.6179
vt 0.4526 0.7621
vn 0.0000 -1.0000 0.0000
v -0.6179 0.0383 -0.5980
vt 0.4119 0.7621
vn 0.0000 -1.0000 0.0000
f 417/417/417 418/418/418 419/419/419 420/420/420
v -0.6279 0.0409 -0.5881
vt 0.4119 0.9272
vn -0.6124 0.5000 0.6124
v 0.5881 0.0409 0.6279
vt 0.4526 0.9272
vn -0.6124 0.5000 0.6124
v 0.5980 0.0435 0.6179
vt 0.4526 0.9743
vn -0.6124 0.5000 0.6124
v -0.6179 0.0435 -0.5980
vt 0.4119 0.9743
vn -0.6124 0.5000 0.6124
f 421/421/421 422/422/422 423/423/423 424/424/424
v -0.5881 0.0409 -0.6279
vt 0.4114 0.8885
vn 0.6124 -0.5000 -0.6124
v 0.6279 0.0409 0.5881
vt 0.4521 0.8885
vn 0.6124 -0.5000 -0.6124
v 0.6179 0.0383 0.5980
vt 0.4521 0.8415
vn 0.6124 -0.5000 -0.6124
v -0.5980 0.0383 -0.6179
vt 0.4114 0.8415
vn 0.6124 -0.5000 -0.6124
f 425/425/425 426/426/426 427/427/427 428/428/428
v 0.1676 0.0409 0.7472
vt 0.4114 0.8885
vn -0.6124 -0.5000 -0.6124
v 0.7472 0.0409 0.1676
vt 0.4521 0.8885
vn -0.6124 -0.5000 -0.6124
v 0.7571 0.0383 0.1776
vt 0.4521 0.8415
vn -0.6124 -0.5000 -0.6124
v 0.1776 0.0383 0.7571
vt 0.4114 0.8415
vn -0.6124 -0.5000 -0.6124
f 429/429/429 430/430/430 431/431/431 432/432/432
v 0.1975 0.0383 0.7770
vt 0.4114 0.8415
vn 0.6124 -0.5000 0.6124
v 0.7770 0.0383 0.1975
vt 0.4521 0.8415
vn 0.6124 -0.5000 0.6124
v 0.7870 0.0409 0.2074
vt 0.4521 0.8885
vn 0.6124 -0.5000 0.6124
v 0.2074 0.0409 0.7870
vt 0.4114 0.8885
vn 0.6124 -0.5000 0.6124
f 433/433/433 434/434/434 435/435/435 436/436/436
v 0.1776 0.0383 0.7571
vt 0.4119 0.7621
vn 0.0000 -1.0000 0.0000
v 0.7571 0.0383 0.1776
vt 0.4526 0.7621
vn 0.0000 -1.0000 0.0000
v 0.7770 0.0383 0.1975
vt 0.4526 0.7621
vn 0.0000 -1.0000 0.0000
v 0.1975 0.0383 0.7770
vt 0.4119 0.7621
vn 0.0000 -1.0000 0.0000
f 437/437/437 438/438/438 439/439/439 440/440/440
v 0.1776 0.0435 0.7571
vt 0.4119 0.9743
vn -0.6124 0.5000 -0.6124
v 0.7571 0.0435 0.1776
vt 0.4526 0.9743
vn -0.6124 0.5000 -0.6124
v 0.7472 0.0409 0.1676
vt 0.4526 0.9272
vn -0.6124 0.5000 -0.6124
v 0.1676 0.0409 0.7472
vt 0.4119 0.9272
vn -0.6124 0.5000 -0.6124
f 441/441/441 442/442/442 443/443/443 444/444/444
v 0.1975 0.0435 0.7770
vt 0.0437 0.7643
vn 0.0000 1.0000 0.0000
v 0.7770 0.0435 0.1975
vt 0.0844 0.7643
vn 0.0000 1.0000 0.0000
v 0.7571 0.0435 0.1776
vt 0.0844 0.7643
vn 0.0000 1.0000 0.0000
v 0.1776 0.0435 0.7571
vt 0.0437 0.7643
vn 0.0000 1.0000 0.0000
f 445/445/445 446/446/446 447/447/447 448/448/448
v 0.2074 0.0409 0.7870
vt 0.4119 0.9272
vn 0.6124 0.5000 0.6124
v 0.7870 0.0409 0.2074
vt 0.4526 0.9272
vn 0.6124 0.5000 0.6124
v 0.7770 0.0435 0.1975
vt 0.4526 0.9743
vn 0.6124 0.5000 0.6124
v 0.1975 0.0435 0.7770
vt 0.4119 0.9743
vn 0.6124 0.5000 0.6124
f 449/449/449 450/450/450 451/451/451 452/452/452
v -0.7870 0.0409 0.4290
vt 0.4114 0.8885
vn -0.6124 -0.5000 -0.6124
v 0.4290 0.0409 -0.7870
vt 0.4521 0.8885
vn -0.6124 -0.5000 -0.6124
v 0.4389 0.0383 -0.7770
vt 0.4521 0.8415
vn -0.6124 -0.5000 -0.6124
v -0.7770 0.0383 0.4389
vt 0.4114 0.8415
vn -0.6124 -0.5000 -0.6124
f 453/453/453 454/454/454 455/455/455 456/456/456
v -0.7571 0.0383 0.4588
vt 0.4114 0.8415
vn 0.6124 -0.5000 0.6124
v 0.4588 0.0383 -0.7571
vt 0.4521 0.8415
vn 0.6124 -0.5000 0.6124
v 0.4688 0.0409 -0.7472
vt 0.4521 0.8885
vn 0.6124 -0.5000 0.6124
v -0.7472 0.0409 0.4688
vt 0.4114 0.8885
vn 0.6124 -0.5000 0.6124
f 457/457/457 458/458/458 459/459/459 460/460/460
v -0.7770 0.0383 0.4389
vt 0.4119 0.7621
vn 0.0000 -1.0000 0.0000
v 0.4389 0.0383 -0.7770
vt 0.4526 0.7621
vn 0.0000 -1.0000 0.0000
v 0.4588 0.0383 -0.7571
vt 0.4526 0.7621
vn 0.0000 -1.0000 0.0000
v -0.7571 0.0383 0.4588
vt 0.4119 0.7621
vn 0.0000 -1.0000 0.0000
f 461/461/461 462/462/462 463/463/463 464/464/464
v -0.7770 0.0435 0.4389
vt 0.4119 0.9743
vn -0.6124 0.5000 -0.6124
v 0.4389 0.0435 -0.7770
vt 0.4526 0.9743
vn -0.6124 0.5000 -0.6124
v 0.4290 0.0409 -0.7870
vt 0.4526 0.9272
vn -0.6124 0.5000 -0.6124
v -0.7870 0.0409 0.4290
vt 0.4119 0.9272
vn -0.6124 0.5000 -0.6124
f 465/465/465 466/466/466 467/467/467 468/468/468
v -0.7571 0.0435 0.4588
vt 0.0437 0.7643
vn 0.0000 1.0000 0.0000
v 0.4588 0.0435 -0.7571
vt 0.0844 0.7643
vn 0.0000 1.0000 0.0000
v 0.4389 0.0435 -0.7770
vt 0.0844 0.7643
vn 0.0000 1.0000 0.0000
v -0.7770 0.0435 0.4389
vt 0.0437 0.7643
vn 0.0000 1.0000 0.0000
f 469/469/469 470/470/470 471/471/471 472/472/472
v -0.7472 0.0409 0.4688
vt 0.4119 0.9272
vn 0.6124 0.5000 0.6124
v 0.4688 0.0409 -0.7472
vt 0.4526 0.9272
vn 0.6124 0.5000 0.6124
v 0.4588 0.0435 -0.7571
vt 0.4526 0.9743
vn 0.6124 0.5000 0.6124
v -0.7571 0.0435 0.4588
vt 0.4119 0.9743
vn 0.6124 0.5000 0.6124
f 473/473/473 474/474/474 475/475/475 476/476/476
v -0.4290 0.0409 -0.7870
vt 0.4114 0.8885
vn 0.6124 -0.5000 -0.6124
v 0.7870 0.0409 0.4290
vt 0.4521 0.8885
vn 0.6124 -0.5000 -0.6124
v 0.7770 0.0383 0.4389
vt 0.4521 0.8415
vn 0.6124 -0.5000 -0.6124
v -0.4389 0.0383 -0.7770
vt 0.4114 0.8415
vn 0.6124 -0.5000 -0.6124
f 477/477/477 478/478/478 479/479/479 480/480/480
v -0.4588 0.0383 -0.7571
vt 0.4114 0.8415
vn -0.6124 -0.5000 0.6124
v 0.7571 0.0383 0.4588
vt 0.4521 0.8415
vn -0.6124 -0.5000 0.6124
v 0.7472 0.0409 0.4688
vt 0.4521 0.8885
vn -0.6124 -0.5000 0.6124
v -0.4688 0.0409 -0.7472
vt 0.4114 0.8885
vn -0.6124 -0.5000 0.6124
f 481/481/481 482/482/482 483/483/483 484/484/484
v -0.4389 0.0383 -0.7770
vt 0.4119 0.7621
vn 0.0000 -1.0000 0.0000
v 0.7770 0.0383 0.4389
vt 0.4526 0.7621
vn 0.0000 -1.0000 0.0000
v 0.7571 0.0383 0.4588
vt 0.4526 0.7621
vn 0.0000 -1.0000 0.0000
v -0.4588 0.0383 -0.7571
vt 0.4119 0.7621
vn 0.0000 -1.0000 0.0000
f 485/485/485 486/486/486 487/487/487 488/488/488
v -0.4389 0.0435 -0.7770
vt 0.4119 0.9743
vn 0.6124 0.5000 -0.6124
v 0.7770 0.0435 0.4389
vt 0.4526 0.9743
vn 0.6124 0.5000 -0.6124
v 0.7870 0.0409 0.4290
vt 0.4526 0.9272
vn 0.6124 0.5000 -0.6124
v -0.4290 0.0409 -0.7870
vt 0.4119 0.9272
vn 0.6124 0.5000 -0.6124
f 489/489/489 490/490/490 491/491/491 492/492/492
v -0.4588 0.0435 -0.7571
vt 0.0437 0.7643
vn 0.0000 1.0000 0.0000
v 0.7571 0.0435 0.4588
vt 0.0844 0.7643
vn 0.0000 1.0000 0.0000
v 0.7770 0.0435 0.4389
vt 0.0844 0.7643
vn 0.0000 1.0000 0.0000
v -0.4389 0.0435 -0.7770
vt 0.0437 0.7643
vn 0.0000 1.0000 0.0000
f 493/493/493 494/494/494 495/495/495 496/496/496
v -0.4688 0.0409 -0.7472
vt 0.4119 0.9272
vn -0.6124 0.5000 0.6124
v 0.7472 0.0409 0.4688
vt 0.4526 0.9272
vn -0.6124 0.5000 0.6124
v 0.7571 0.0435 0.4588
vt 0.4526 0.9743
vn -0.6124 0.5000 0.6124
v -0.4588 0.0435 -0.7571
vt 0.4119 0.9743
vn -0.6124 0.5000 0.6124
f 497/497/497 498/498/498 499/499/499 500/500/500
v -0.1108 0.0409 -0.7870
vt 0.4114 0.8885
vn 0.6124 -0.5000 -0.6124
v 0.7870 0.0409 0.1108
vt 0.4521 0.8885
vn 0.6124 -0.5000 -0.6124
v 0.7770 0.0383 0.1207
vt 0.4521 0.8415
vn 0.6124 -0.5000 -0.6124
v -0.1207 0.0383 -0.7770
vt 0.4114 0.8415
vn 0.6124 -0.5000 -0.6124
f 501/501/501 502/502/502 503/503/503 504/504/504
v -0.1406 0.0383 -0.7571
vt 0.4114 0.8415
vn -0.6124 -0.5000 0.6124
v 0.7571 0.0383 0.1406
vt 0.4521 0.8415
vn -0.6124 -0.5000 0.6124
v 0.7472 0.0409 0.1506
vt 0.4521 0.8885
vn -0.6124 -0.5000 0.6124
v -0.1506 0.0409 -0.7472
vt 0.4114 0.8885
vn -0.6124 -0.5000 0.6124
f 505/505/505 506/506/506 507/507/507 508/508/508
v -0.1207 0.0383 -0.7770
vt 0.4119 0.7621
vn 0.0000 -1.0000 0.0000
v 0.7770 0.0383 0.1207
vt 0.4526 0.7621
vn 0.0000 -1.0000 0.0000
v 0.7571 0.0383 0.1406
vt 0.4526 0.7621
vn 0.0000 -1.0000 0.0000
v -0.1406 0.0383 -0.7571
vt 0.4119 0.7621
vn 0.0000 -1.0000 0.0000
f 509/509/509 510/510/510 511/511/511 512/512/512
v -0.1207 0.0435 -0.7770
vt 0.4119 0.9743
vn 0.6124 0.5000 -0.6124
v 0.7770 0.0435 0.1207
vt 0.4526 0.9743
vn 0.6124 0.5000 -0.6124
v 0.7870 0.0409 0.1108
vt 0.4526 0.9272
vn 0.6124 0.5000 -0.6124
v -0.1108 0.0409 -0.7870
vt 0.4119 0.9272
vn 0.6124 0.5000 -0.6124
f 513/513/513 514/514/514 515/515/515 516/516/516
v -0.1406 0.0435 -0.7571
vt 0.0437 0.7643
vn 0.0000 1.0000 0.0000
v 0.7571 0.0435 0.1406
vt 0.0844 0.7643
vn 0.0000 1.0000 0.0000
v 0.7770 0.0435 0.1207
vt 0.0844 0.7643
vn 0.0000 1.0000 0.0000
v -0.1207 0.0435 -0.7770
vt 0.0437 0.7643
vn 0.0000 1.0000 0.0000
f 517/517/517 518/518/518 519/519/519 520/520/520
v -0.1506 0.0409 -0.7472
vt 0.4119 0.9272
vn -0.6124 0.5000 0.6124
v 0.7472 0.0409 0.1506
vt 0.4526 0.9272
vn -0.6124 0.5000 0.6124
v 0.7571 0.0435 0.1406
vt 0.4526 0.9743
vn -0.6124 0.5000 0.6124
v -0.1406 0.0435 -0.7571
vt 0.4119 0.9743
vn -0.6124 0.5000 0.6124
f 521/521/521 522/522/522 523/523/523 524/524/524
v -0.7870 0.0409 0.1108
vt 0.4114 0.8885
vn -0.6124 -0.5000 -0.6124
v 0.1108 0.0409 -0.7870
vt 0.4521 0.8885
vn -0.6124 -0.5000 -0.6124
v 0.1207 0.0383 -0.7770
vt 0.4521 0.8415
vn -0.6124 -0.5000 -0.6124
v -0.7770 0.0383 0.1207
vt 0.4114 0.8415
vn -0.6124 -0.5000 -0.6124
f 525/525/525 526/526/526 527/527/527 528/528/528
v -0.7571 0.0383 0.1406
vt 0.4114 0.8415
vn 0.6124 -0.5000 0.6124
v 0.1406 0.0383 -0.7571
vt 0.4521 0.8415
vn 0.6124 -0.5000 0.6124
v 0.1506 0.0409 -0.7472
vt 0.4521 0.8885
vn 0.6124 -0.5000 0.6124
v -0.7472 0.0409 0.1506
vt 0.4114 0.8885
vn 0.6124 -0.5000 0.6124
f 529/529/529 530/530/530 531/531/531 532/532/532
v -0.7770 0.0383 0.1207
vt 0.4119 0.7621
vn 0.0000 -1.0000 0.0000
v 0.1207 0.0383 -0.7770
vt 0.4526 0.7621
vn 0.0000 -1.0000 0.0000
v 0.1406 0.0383 -0.7571
vt 0.4526 0.7621
vn 0.0000 -1.0000 0.0000
v -0.7571 0.0383 0.1406
vt 0.4119 0.7621
vn 0.0000 -1.0000 0.0000
f 533/533/533 534/534/534 535/535/535 536/536/536
v -0.7770 0.0435 0.1207
vt 0.4119 0.9743
vn -0.6124 0.5000 -0.6124
v 0.1207 0.0435 -0.7770
vt 0.4526 0.9743
vn -0.6124 0.5000 -0.6124
v 0.1108 0.0409 -0.7870
vt 0.4526 0.9272
vn -0.6124 0.5000 -0.6124
v -0.7870 0.0409 0.1108
vt 0.4119 0.9272
vn -0.6124 0.5000 -0.6124
f 537/537/537 538/538/538 539/539/539 540/540/540
v -0.7571 0.0435 0.1406
vt 0.0437 0.7643
vn 0.0000 1.0000 0.0000
v 0.1406 0.0435 -0.7571
vt 0.0844 0.7643
vn 0.0000 1.0000 0.0000
v 0.1207 0.0435 -0.7770
vt 0.0844 0.7643
vn 0.0000 1.0000 0.0000
v -0.7770 0.0435 0.1207
vt 0.0437 0.7643
vn 0.0000 1.0000 0.0000
f 541/541/541 542/542/542 543/543/543 544/544/544
v -0.7472 0.0409 0.1506
vt 0.4119 0.9272
vn 0.6124 0.5000 0.6124
v 0.1506 0.0409 -0.7472
vt 0.4526 0.9272
vn 0.6124 0.5000 0.6124
v 0.1406 0.0435 -0.7571
vt 0.4526 0.9743
vn 0.6124 0.5000 0.6124
v -0.7571 0.0435 0.1406
vt 0.4119 0.9743
vn 0.6124 0.5000 0.6124
f 545/545/545 546/546/546 547/547/547 548/548/548
v 0.2074 0.0409 -0.7870
vt 0.4114 0.8885
vn 0.6124 -0.5000 -0.6124
v 0.7870 0.0409 -0.2074
vt 0.4521 0.8885
vn 0.6124 -0.5000 -0.6124
v 0.7770 0.0383 -0.1975
vt 0.4521 0.8415
vn 0.6124 -0.5000 -0.6124
v 0.1975 0.0383 -0.7770
vt 0.4114 0.8415
vn 0.6124 -0.5000 -0.6124
f 549/549/549 550/550/550 551/551/551 552/552/552
v 0.1776 0.0383 -0.7571
vt 0.4114 0.8415
vn -0.6124 -0.5000 0.6124
v 0.7571 0.0383 -0.1776
vt 0.4521 0.8415
vn -0.6124 -0.5000 0.6124
v 0.7472 0.0409 -0.1676
vt 0.4521 0.8885
vn -0.6124 -0.5000 0.6124
v 0.1676 0.0409 -0.7472
vt 0.4114 0.8885
vn -0.6124 -0.5000 0.6124
f 553/553/553 554/554/554 555/555/555 556/556/556
v 0.1975 0.0383 -0.7770
vt 0.4119 0.7621
vn 0.0000 -1.0000 0.0000
v 0.7770 0.0383 -0.1975
vt 0.4526 0.7621
vn 0.0000 -1.0000 0.0000
v 0.7571 0.0383 -0.1776
vt 0.4526 0.7621
vn 0.0000 -1.0000 0.0000
v 0.1776 0.0383 -0.7571
vt 0.4119 0.7621
vn 0.0000 -1.0000 0.0000
f 557/557/557 558/558/558 559/559/559 560/560/560
v 0.1975 0.0435 -0.7770
vt 0.4119 0.9743
vn 0.6124 0.5000 -0.6124
v 0.7770 0.0435 -0.1975
vt 0.4526 0.9743
vn 0.6124 0.5000 -0.6124
v 0.7870 0.0409 -0.2074
vt 0.4526 0.9272
vn 0.6124 0.5000 -0.6124
v 0.2074 0.0409 -0.7870
vt 0.4119 0.9272
vn 0.6124 0.5000 -0.6124
f 561/561/561 562/562/562 563/563/563 564/564/564
v 0.1776 0.0435 -0.7571
vt 0.0437 0.7643
vn 0.0000 1.0000 0.0000
v 0.7571 0.0435 -0.1776
vt 0.0844 0.7643
vn 0.0000 1.0000 0.0000
v 0.7770 0.0435 -0.1975
vt 0.0844 0.7643
vn 0.0000 1.0000 0.0000
v 0.1975 0.0435 -0.7770
vt 0.0437 0.7643
vn 0.0000 1.0000 0.0000
f 565/565/565 566/566/566 567/567/567 568/568/568
v 0.1676 0.0409 -0.7472
vt 0.4119 0.9272
vn -0.6124 0.5000 0.6124
v 0.7472 0.0409 -0.1676
vt 0.4526 0.9272
vn -0.6124 0.5000 0.6124
v 0.7571 0.0435 -0.1776
vt 0.4526 0.9743
vn -0.6124 0.5000 0.6124
v 0.1776 0.0435 -0.7571
vt 0.4119 0.9743
vn -0.6124 0.5000 0.6124
f 569/569/569 570/570/570 571/571/571 572/572/572
v -0.7870 0.0409 -0.2074
vt 0.4114 0.8885
vn -0.6124 -0.5000 -0.6124
v -0.2074 0.0409 -0.7870
vt 0.4521 0.8885
vn -0.6124 -0.5000 -0.6124
v -0.1975 0.0383 -0.7770
vt 0.4521 0.8415
vn -0.6124 -0.5000 -0.6124
v -0.7770 0.0383 -0.1975
vt 0.4114 0.8415
vn -0.6124 -0.5000 -0.6124
f 573/573/573 574/574/574 575/575/575 576/576/576
v -0.7571 0.0383 -0.1776
vt 0.4114 0.8415
vn 0.6124 -0.5000 0.6124
v -0.1776 0.0383 -0.7571
vt 0.4521 0.8415
vn 0.6124 -0.5000 0.6124
v -0.1676 0.0409 -0.7472
vt 0.4521 0.8885
vn 0.6124 -0.5000 0.6124
v -0.7472 0.0409 -0.1676
vt 0.4114 0.8885
vn 0.6124 -0.5000 0.6124
f 577/577/577 578/578/578 579/579/579 580/580/580
v -0.7770 0.0383 -0.1975
vt 0.4119 0.7621
vn 0.0000 -1.0000 0.0000
v -0.1975 0.0383 -0.7770
vt 0.4526 0.7621
vn 0.0000 -1.0000 0.0000
v -0.1776 0.0383 -0.7571
vt 0.4526 0.7621
vn 0.0000 -1.0000 0.0000
v -0.7571 0.0383 -0.1776
vt 0.4119 0.7621
vn 0.0000 -1.0000 0.0000
f 581/581/581 582/582/582 583/583/583 584/584/584
v -0.7770 0.0435 -0.1975
vt 0.4119 0.9743
vn -0.6124 0.5000 -0.6124
v -0.1975 0.0435 -0.7770
vt 0.4526 0.9743
vn -0.6124 0.5000 -0.6124
v -0.2074 0.0409 -0.7870
vt 0.4526 0.9272
vn -0.6124 0.5000 -0.6124
v -0.7870 0.0409 -0.2074
vt 0.4119 0.9272
vn -0.6124 0.5000 -0.6124
f 585/585/585 586/586/586 587/587/587 588/588/588
v -0.7571 0.0435 -0.1776
vt 0.0437 0.7643
vn 0.0000 1.0000 0.0000
v -0.1776 0.0435 -0.7571
vt 0.0844 0.7643
vn 0.0000 1.0000 0.0000
v -0.1975 0.0435 -0.7770
vt 0.0844 0.7643
vn 0.0000 1.0000 0.0000
v -0.7770 0.0435 -0.1975
vt 0.0437 0.7643
vn 0.0000 1.0000 0.0000
f 589/589/589 590/590/590 591/591/591 592/592/592
v -0.7472 0.0409 -0.1676
vt 0.4119 0.9272
vn 0.6124 0.5000 0.6124
v -0.1676 0.0409 -0.7472
vt 0.4526 0.9272
vn 0.6124 0.5000 0.6124
v -0.1776 0.0435 -0.7571
vt 0.4526 0.9743
vn 0.6124 0.5000 0.6124
v -0.7571 0.0435 -0.1776
vt 0.4119 0.9743
vn 0.6124 0.5000 0.6124
f 593/593/593 594/594/594 595/595/595 596/596/596
