# The Giants of Holst prop, from CC0 kits by KayKit (Kay Lousberg) and Kenney
v -1.8157 0.0000 -0.2951
vt 0.2966 0.5818
vn -0.6602 0.3472 -0.6660
v -1.5651 0.5628 -0.2501
vt 0.2966 0.6346
vn -0.6602 0.3472 -0.6660
v -0.6024 0.5628 -1.2043
vt 0.2966 0.6346
vn -0.6602 0.3472 -0.6660
v -0.6950 0.0000 -1.4059
vt 0.2966 0.5818
vn -0.6602 0.3472 -0.6660
f 1/1/1 2/2/2 3/3/3 4/4/4
v -0.6950 0.0000 -1.4059
vt 0.2966 0.5818
vn 0.1622 0.3090 -0.9371
v -0.6024 0.5628 -1.2043
vt 0.2966 0.6346
vn 0.1622 0.3090 -0.9371
v 1.3277 0.5628 -0.8703
vt 0.2966 0.6346
vn 0.1622 0.3090 -0.9371
v 1.5519 0.0000 -1.0171
vt 0.2966 0.5818
vn 0.1622 0.3090 -0.9371
f 5/5/5 6/6/6 7/7/7 8/8/8
v 1.5519 0.0000 -1.0171
vt 0.2966 0.5818
vn 0.8320 0.4246 -0.3570
v 1.3277 0.5628 -0.8703
vt 0.2966 0.6346
vn 0.8320 0.4246 -0.3570
v 1.7718 0.5628 0.1648
vt 0.2966 0.6346
vn 0.8320 0.4246 -0.3570
v 2.0689 0.0000 0.1879
vt 0.2966 0.5818
vn 0.8320 0.4246 -0.3570
f 9/9/9 10/10/10 11/11/11 12/12/12
v 0.0949 0.0000 1.2476
vt 0.2966 0.5818
vn 0.2811 0.2898 0.9149
v 0.0761 0.5628 1.0751
vt 0.2966 0.6346
vn 0.2937 0.2891 0.9111
v -1.2378 0.5628 1.2289
vt 0.2966 0.6346
vn 0.1111 0.2946 0.9491
v -1.4347 0.0000 1.4267
vt 0.2966 0.5818
vn 0.1111 0.2946 0.9491
f 13/13/13 14/14/14 15/15/15 16/16/16
v 2.0689 0.0000 0.1879
vt 0.2966 0.5818
vn 0.4548 0.2749 0.8471
v 1.7718 0.5628 0.1648
vt 0.2966 0.6346
vn 0.4548 0.2749 0.8471
v 0.0761 0.5628 1.0751
vt 0.2966 0.6346
vn 0.2937 0.2891 0.9111
v 0.0949 0.0000 1.2476
vt 0.2966 0.5818
vn 0.2811 0.2898 0.9149
f 17/17/17 18/18/18 19/19/19 20/20/20
v -1.4347 0.0000 1.4267
vt 0.2966 0.5818
vn -0.9010 0.3853 0.1994
v -1.2378 0.5628 1.2289
vt 0.2966 0.6346
vn -0.9010 0.3853 0.1994
v -1.5651 0.5628 -0.2501
vt 0.2966 0.6346
vn -0.9010 0.3853 0.1994
v -1.8157 0.0000 -0.2951
vt 0.2966 0.5818
vn -0.9010 0.3853 0.1994
f 21/21/21 22/22/22 23/23/23 24/24/24
v 0.1089 0.7962 1.1793
vt 0.0523 0.3354
vn 0.2820 0.3237 0.9031
v 1.8749 0.7962 0.2008
vt 0.0737 0.3354
vn 0.4642 0.2735 0.8424
v 1.7718 0.9128 0.1648
vt 0.0728 0.3736
vn 0.3728 0.6279 0.6833
v 0.0761 0.9128 1.0751
vt 0.0525 0.3736
vn 0.2305 0.6359 0.7365
f 25/25/25 26/26/26 27/27/27 28/28/28
v 1.8749 0.7962 0.2008
vt 0.0737 0.3354
vn 0.8908 0.2615 -0.3715
v 1.3953 0.7962 -0.9561
vt 0.0747 0.3354
vn 0.8861 0.2794 -0.3697
v 1.3277 0.9128 -0.8703
vt 0.0735 0.3736
vn 0.7347 0.6036 -0.3096
v 1.7718 0.9128 0.1648
vt 0.0728 0.3736
vn 0.7347 0.6036 -0.3096
f 29/29/29 30/30/30 31/31/31 32/32/32
v -1.6699 0.7962 -0.2810
vt 0.0423 0.3354
vn -0.9360 0.2793 0.2143
v -1.3011 0.7962 1.3179
vt 0.0382 0.3354
vn -0.9408 0.2618 0.2155
v -1.2378 0.9128 1.2289
vt 0.0393 0.3736
vn -0.7775 0.6038 0.1759
v -1.5651 0.9128 -0.2501
vt 0.0432 0.3736
vn -0.7775 0.6038 0.1759
f 33/33/33 34/34/34 35/35/35 36/36/36
v 1.3953 0.7962 -0.9561
vt 0.0747 0.3354
vn 0.1631 0.2987 -0.9403
v -0.6352 0.7962 -1.3085
vt 0.0571 0.3354
vn 0.1630 0.3003 -0.9398
v -0.6024 0.9128 -1.2043
vt 0.0569 0.3736
vn 0.1315 0.6377 -0.7590
v 1.3277 0.9128 -0.8703
vt 0.0735 0.3736
vn 0.1315 0.6377 -0.7590
f 37/37/37 38/38/38 39/39/39 40/40/40
v -1.3011 0.7962 1.3179
vt 0.0382 0.3354
vn 0.0971 0.2752 0.9565
v 0.1089 0.7962 1.1793
vt 0.0523 0.3354
vn 0.2820 0.3237 0.9031
v 0.0761 0.9128 1.0751
vt 0.0525 0.3736
vn 0.2305 0.6359 0.7365
v -1.2378 0.9128 1.2289
vt 0.0393 0.3736
vn 0.0830 0.6292 0.7728
f 41/41/41 42/42/42 43/43/43 44/44/44
v -0.6352 0.7962 -1.3085
vt 0.0571 0.3354
vn -0.6721 0.2999 -0.6770
v -1.6699 0.7962 -0.2810
vt 0.0423 0.3354
vn -0.6726 0.2977 -0.6775
v -1.5651 0.9128 -0.2501
vt 0.0432 0.3736
vn -0.5430 0.6369 -0.5472
v -0.6024 0.9128 -1.2043
vt 0.0569 0.3736
vn -0.5430 0.6369 -0.5472
f 45/45/45 46/46/46 47/47/47 48/48/48
v -0.6024 0.5628 -1.2043
vt 0.0569 0.3215
vn -0.5430 -0.6369 -0.5472
v -1.5651 0.5628 -0.2501
vt 0.0432 0.3215
vn -0.5430 -0.6369 -0.5472
v -1.6699 0.6795 -0.2810
vt 0.0423 0.3285
vn -0.6726 -0.2977 -0.6775
v -0.6352 0.6795 -1.3085
vt 0.0571 0.3285
vn -0.6721 -0.2999 -0.6770
f 49/49/49 50/50/50 51/51/51 52/52/52
v -0.6352 0.6795 -1.3085
vt 0.0571 0.3285
vn -0.6721 -0.2999 -0.6770
v -1.6699 0.6795 -0.2810
vt 0.0423 0.3285
vn -0.6726 -0.2977 -0.6775
v -1.6699 0.7962 -0.2810
vt 0.0423 0.3354
vn -0.6726 0.2977 -0.6775
v -0.6352 0.7962 -1.3085
vt 0.0571 0.3354
vn -0.6721 0.2999 -0.6770
f 53/53/53 54/54/54 55/55/55 56/56/56
v -1.2378 0.5628 1.2289
vt 0.0393 0.3215
vn 0.0830 -0.6292 0.7728
v 0.0761 0.5628 1.0751
vt 0.0525 0.3215
vn 0.2305 -0.6359 0.7365
v 0.1089 0.6795 1.1793
vt 0.0523 0.3285
vn 0.2820 -0.3237 0.9031
v -1.3011 0.6795 1.3179
vt 0.0382 0.3285
vn 0.0971 -0.2752 0.9565
f 57/57/57 58/58/58 59/59/59 60/60/60
v -1.3011 0.6795 1.3179
vt 0.0382 0.3285
vn 0.0971 -0.2752 0.9565
v 0.1089 0.6795 1.1793
vt 0.0523 0.3285
vn 0.2820 -0.3237 0.9031
v 0.1089 0.7962 1.1793
vt 0.0523 0.3354
vn 0.2820 0.3237 0.9031
v -1.3011 0.7962 1.3179
vt 0.0382 0.3354
vn 0.0971 0.2752 0.9565
f 61/61/61 62/62/62 63/63/63 64/64/64
v 1.3277 0.5628 -0.8703
vt 0.0735 0.3215
vn 0.1315 -0.6377 -0.7590
v -0.6024 0.5628 -1.2043
vt 0.0569 0.3215
vn 0.1315 -0.6377 -0.7590
v -0.6352 0.6795 -1.3085
vt 0.0571 0.3285
vn 0.1630 -0.3003 -0.9398
v 1.3953 0.6795 -0.9561
vt 0.0747 0.3285
vn 0.1631 -0.2987 -0.9403
f 65/65/65 66/66/66 67/67/67 68/68/68
v 1.3953 0.6795 -0.9561
vt 0.0747 0.3285
vn 0.1631 -0.2987 -0.9403
v -0.6352 0.6795 -1.3085
vt 0.0571 0.3285
vn 0.1630 -0.3003 -0.9398
v -0.6352 0.7962 -1.3085
vt 0.0571 0.3354
vn 0.1630 0.3003 -0.9398
v 1.3953 0.7962 -0.9561
vt 0.0747 0.3354
vn 0.1631 0.2987 -0.9403
f 69/69/69 70/70/70 71/71/71 72/72/72
v -1.5651 0.5628 -0.2501
vt 0.0432 0.3215
vn -0.7775 -0.6038 0.1759
v -1.2378 0.5628 1.2289
vt 0.0393 0.3215
vn -0.7775 -0.6038 0.1759
v -1.3011 0.6795 1.3179
vt 0.0382 0.3285
vn -0.9408 -0.2618 0.2155
v -1.6699 0.6795 -0.2810
vt 0.0423 0.3285
vn -0.9360 -0.2793 0.2143
f 73/73/73 74/74/74 75/75/75 76/76/76
v -1.6699 0.6795 -0.2810
vt 0.0423 0.3285
vn -0.9360 -0.2793 0.2143
v -1.3011 0.6795 1.3179
vt 0.0382 0.3285
vn -0.9408 -0.2618 0.2155
v -1.3011 0.7962 1.3179
vt 0.0382 0.3354
vn -0.9408 0.2618 0.2155
v -1.6699 0.7962 -0.2810
vt 0.0423 0.3354
vn -0.9360 0.2793 0.2143
f 77/77/77 78/78/78 79/79/79 80/80/80
v 1.7718 0.5628 0.1648
vt 0.0728 0.3215
vn 0.7347 -0.6036 -0.3096
v 1.3277 0.5628 -0.8703
vt 0.0735 0.3215
vn 0.7347 -0.6036 -0.3096
v 1.3953 0.6795 -0.9561
vt 0.0747 0.3285
vn 0.8861 -0.2794 -0.3697
v 1.8749 0.6795 0.2008
vt 0.0737 0.3285
vn 0.8908 -0.2615 -0.3715
f 81/81/81 82/82/82 83/83/83 84/84/84
v 1.8749 0.6795 0.2008
vt 0.0737 0.3285
vn 0.8908 -0.2615 -0.3715
v 1.3953 0.6795 -0.9561
vt 0.0747 0.3285
vn 0.8861 -0.2794 -0.3697
v 1.3953 0.7962 -0.9561
vt 0.0747 0.3354
vn 0.8861 0.2794 -0.3697
v 1.8749 0.7962 0.2008
vt 0.0737 0.3354
vn 0.8908 0.2615 -0.3715
f 85/85/85 86/86/86 87/87/87 88/88/88
v 0.0761 0.5628 1.0751
vt 0.0525 0.3215
vn 0.2305 -0.6359 0.7365
v 1.7718 0.5628 0.1648
vt 0.0728 0.3215
vn 0.3728 -0.6279 0.6833
v 1.8749 0.6795 0.2008
vt 0.0737 0.3285
vn 0.4642 -0.2735 0.8424
v 0.1089 0.6795 1.1793
vt 0.0523 0.3285
vn 0.2820 -0.3237 0.9031
f 89/89/89 90/90/90 91/91/91 92/92/92
v 0.1089 0.6795 1.1793
vt 0.0523 0.3285
vn 0.2820 -0.3237 0.9031
v 1.8749 0.6795 0.2008
vt 0.0737 0.3285
vn 0.4642 -0.2735 0.8424
v 1.8749 0.7962 0.2008
vt 0.0737 0.3354
vn 0.4642 0.2735 0.8424
v 0.1089 0.7962 1.1793
vt 0.0523 0.3354
vn 0.2820 0.3237 0.9031
f 93/93/93 94/94/94 95/95/95 96/96/96
v -0.0490 1.0754 -0.0079
vt 0.0539 0.4049
vn 0.0029 1.0000 0.0024
v 0.0761 0.9128 1.0751
vt 0.0525 0.4049
vn 0.0422 0.9887 0.1436
v 1.7718 0.9128 0.1648
vt 0.0728 0.4049
vn 0.0866 0.9959 0.0242
f 97/97/97 98/98/98 99/99/99
v -0.0490 1.0754 -0.0079
vt 0.0644 0.4049
vn 0.0029 1.0000 0.0024
v 1.3277 0.9128 -0.8703
vt 0.0735 0.4049
vn 0.0697 0.9946 -0.0763
v -0.6024 0.9128 -1.2043
vt 0.0569 0.4049
vn -0.0400 0.9924 -0.1164
f 100/100/100 101/101/101 102/102/102
v -0.0490 1.0754 -0.0079
vt 0.0506 0.4049
vn 0.0029 1.0000 0.0024
v -1.5651 0.9128 -0.2501
vt 0.0432 0.4049
vn -0.1023 0.9944 -0.0271
v -1.2378 0.9128 1.2289
vt 0.0393 0.4049
vn -0.0580 0.9955 0.0751
f 103/103/103 104/104/104 105/105/105
v -0.0490 1.0754 -0.0079
vt 0.0553 0.4049
vn 0.0029 1.0000 0.0024
v -0.6024 0.9128 -1.2043
vt 0.0569 0.4049
vn -0.0400 0.9924 -0.1164
v -1.5651 0.9128 -0.2501
vt 0.0432 0.4049
vn -0.1023 0.9944 -0.0271
f 106/106/106 107/107/107 108/108/108
v -0.0490 1.0754 -0.0079
vt 0.0645 0.4049
vn 0.0029 1.0000 0.0024
v 1.7718 0.9128 0.1648
vt 0.0728 0.4049
vn 0.0866 0.9959 0.0242
v 1.3277 0.9128 -0.8703
vt 0.0735 0.4049
vn 0.0697 0.9946 -0.0763
f 109/109/109 110/110/110 111/111/111
v -0.0490 1.0754 -0.0079
vt 0.0499 0.4049
vn 0.0029 1.0000 0.0024
v -1.2378 0.9128 1.2289
vt 0.0393 0.4049
vn -0.0580 0.9955 0.0751
v 0.0761 0.9128 1.0751
vt 0.0525 0.4049
vn 0.0422 0.9887 0.1436
f 112/112/112 113/113/113 114/114/114
v -0.0397 0.0000 0.0197
vt 0.2966 0.5818
vn 0.0000 -1.0000 0.0000
v -1.4347 0.0000 1.4267
vt 0.2966 0.5818
vn 0.0000 -1.0000 0.0000
v -1.8157 0.0000 -0.2951
vt 0.2966 0.5818
vn 0.0000 -1.0000 0.0000
f 115/115/115 116/116/116 117/117/117
v -0.0397 0.0000 0.0197
vt 0.2966 0.5818
vn 0.0000 -1.0000 0.0000
v -1.8157 0.0000 -0.2951
vt 0.2966 0.5818
vn 0.0000 -1.0000 0.0000
v -0.6950 0.0000 -1.4059
vt 0.2966 0.5818
vn 0.0000 -1.0000 0.0000
f 118/118/118 119/119/119 120/120/120
v -0.0397 0.0000 0.0197
vt 0.2966 0.5818
vn 0.0000 -1.0000 0.0000
v -0.6950 0.0000 -1.4059
vt 0.2966 0.5818
vn 0.0000 -1.0000 0.0000
v 1.5519 0.0000 -1.0171
vt 0.2966 0.5818
vn 0.0000 -1.0000 0.0000
f 121/121/121 122/122/122 123/123/123
v -0.0397 0.0000 0.0197
vt 0.2966 0.5818
vn 0.0000 -1.0000 0.0000
v 1.5519 0.0000 -1.0171
vt 0.2966 0.5818
vn 0.0000 -1.0000 0.0000
v 2.0689 0.0000 0.1879
vt 0.2966 0.5818
vn 0.0000 -1.0000 0.0000
f 124/124/124 125/125/125 126/126/126
v -0.0397 0.0000 0.0197
vt 0.2966 0.5818
vn 0.0000 -1.0000 0.0000
v 2.0689 0.0000 0.1879
vt 0.2966 0.5818
vn 0.0000 -1.0000 0.0000
v 0.0949 0.0000 1.2476
vt 0.2966 0.5818
vn 0.0000 -1.0000 0.0000
f 127/127/127 128/128/128 129/129/129
v -0.0397 0.0000 0.0197
vt 0.2966 0.5818
vn 0.0000 -1.0000 0.0000
v 0.0949 0.0000 1.2476
vt 0.2966 0.5818
vn 0.0000 -1.0000 0.0000
v -1.4347 0.0000 1.4267
vt 0.2966 0.5818
vn 0.0000 -1.0000 0.0000
f 130/130/130 131/131/131 132/132/132
