# Blender 4.5.13 LTS
# www.blender.org
o gold
v 0.000000 0.000000 0.000000
v -0.240740 -0.061353 0.508756
v -0.473104 -0.101625 -0.156737
v -0.048037 0.000000 -0.645810
v 0.450370 0.102919 -0.227872
v 0.334079 0.065409 0.498454
v -0.498070 0.051663 0.237031
v -0.361662 0.090291 -0.486331
v 0.219206 0.220099 -0.533077
v 0.439085 0.252419 0.158954
v 0.012963 0.155006 0.635750
v -0.077772 0.353135 0.005785
v -0.267572 -0.057476 -0.088645
v -0.154114 -0.039276 0.325690
v -0.420708 -0.096140 0.212871
v 0.042257 0.000000 0.568097
v 0.182589 0.035749 0.272428
v -0.026777 0.000000 -0.359980
v -0.292451 -0.057259 -0.436341
v 0.260982 0.059640 -0.132048
v 0.234509 0.059765 -0.495585
v 0.463296 0.099518 0.153495
v -0.118649 -0.037167 0.673729
v 0.229275 0.039266 0.685396
v -0.555747 -0.123070 0.041338
v -0.401831 -0.095599 0.433615
v -0.227696 -0.038995 -0.680676
v -0.482959 -0.100031 -0.386518
v 0.433679 0.103176 -0.467982
v 0.122477 0.038366 -0.695463
v 0.498048 0.103156 0.398594
v 0.526028 0.116489 -0.039128
v -0.269140 0.116125 0.490235
v -0.522409 0.086628 -0.156116
v -0.078936 0.169369 -0.556969
v 0.407675 0.291480 -0.224224
v 0.282059 0.251881 0.485873
v -0.313906 0.220280 0.132400
v -0.035189 0.278540 0.356180
v -0.267330 0.266056 -0.293565
v 0.086943 0.346137 -0.321485
v 0.226694 0.366678 0.102229
v 0.250000 0.000000 -0.200000
v 0.250000 0.320000 -0.200000
v 0.250000 0.000000 -0.600000
v 0.250000 0.320000 -0.600000
v 0.850000 0.000000 -0.200000
v 0.850000 0.320000 -0.200000
v 0.850000 0.000000 -0.600000
v 0.850000 0.320000 -0.600000
v 0.275000 0.300000 -0.225000
v 0.275000 0.360000 -0.225000
v 0.275000 0.300000 -0.575000
v 0.275000 0.360000 -0.575000
v 0.825000 0.300000 -0.225000
v 0.825000 0.360000 -0.225000
v 0.825000 0.300000 -0.575000
v 0.825000 0.360000 -0.575000
v 0.250000 0.259036 -0.704482
v 0.250000 0.619215 -0.530496
v 0.250000 0.280785 -0.749504
v 0.250000 0.640964 -0.575518
v 0.850000 0.259036 -0.704482
v 0.850000 0.619215 -0.530496
v 0.850000 0.280785 -0.749504
v 0.850000 0.640964 -0.575518
v 0.325000 0.000000 -0.190000
v 0.325000 0.340000 -0.190000
v 0.325000 0.000000 -0.610000
v 0.325000 0.340000 -0.610000
v 0.375000 0.000000 -0.190000
v 0.375000 0.340000 -0.190000
v 0.375000 0.000000 -0.610000
v 0.375000 0.340000 -0.610000
v 0.725000 0.000000 -0.190000
v 0.725000 0.340000 -0.190000
v 0.725000 0.000000 -0.610000
v 0.725000 0.340000 -0.610000
v 0.775000 0.000000 -0.190000
v 0.775000 0.340000 -0.190000
v 0.775000 0.000000 -0.610000
v 0.775000 0.340000 -0.610000
v -0.170438 0.020000 -0.467329
v -0.179987 0.020000 -0.496719
v -0.204987 0.020000 -0.514882
v -0.235889 0.020000 -0.514882
v -0.260889 0.020000 -0.496719
v -0.270438 0.020000 -0.467329
v -0.260889 0.020000 -0.437940
v -0.235889 0.020000 -0.419777
v -0.204987 0.020000 -0.419777
v -0.179987 0.020000 -0.437940
v -0.200438 0.050000 -0.467329
v -0.204258 0.050000 -0.479085
v -0.214258 0.050000 -0.486351
v -0.226619 0.050000 -0.486351
v -0.236619 0.050000 -0.479085
v -0.240438 0.050000 -0.467329
v -0.236619 0.050000 -0.455574
v -0.226619 0.050000 -0.448308
v -0.214258 0.050000 -0.448308
v -0.204258 0.050000 -0.455574
v -0.205438 0.130000 -0.467329
v -0.208303 0.130000 -0.476146
v -0.215803 0.130000 -0.481595
v -0.225074 0.130000 -0.481595
v -0.232574 0.130000 -0.476146
v -0.235438 0.130000 -0.467329
v -0.232574 0.130000 -0.458513
v -0.225074 0.130000 -0.453064
v -0.215803 0.130000 -0.453064
v -0.208303 0.130000 -0.458513
v -0.160438 0.220000 -0.467329
v -0.171897 0.220000 -0.502597
v -0.201897 0.220000 -0.524393
v -0.238979 0.220000 -0.524393
v -0.268979 0.220000 -0.502597
v -0.280438 0.220000 -0.467329
v -0.268979 0.220000 -0.432062
v -0.238979 0.220000 -0.410266
v -0.201897 0.220000 -0.410266
v -0.171897 0.220000 -0.432062
v 0.669331 0.020000 -0.023230
v 0.659781 0.020000 -0.052619
v 0.634781 0.020000 -0.070782
v 0.603880 0.020000 -0.070782
v 0.578880 0.020000 -0.052619
v 0.569331 0.020000 -0.023230
v 0.578880 0.020000 0.006160
v 0.603880 0.020000 0.024323
v 0.634781 0.020000 0.024323
v 0.659781 0.020000 0.006160
v 0.639331 0.050000 -0.023230
v 0.635511 0.050000 -0.034985
v 0.625511 0.050000 -0.042251
v 0.613150 0.050000 -0.042251
v 0.603150 0.050000 -0.034985
v 0.599331 0.050000 -0.023230
v 0.603150 0.050000 -0.011474
v 0.613150 0.050000 -0.004209
v 0.625511 0.050000 -0.004209
v 0.635511 0.050000 -0.011474
v 0.634331 0.130000 -0.023230
v 0.631466 0.130000 -0.032046
v 0.623966 0.130000 -0.037496
v 0.614695 0.130000 -0.037496
v 0.607195 0.130000 -0.032046
v 0.604331 0.130000 -0.023230
v 0.607195 0.130000 -0.014413
v 0.614695 0.130000 -0.008964
v 0.623966 0.130000 -0.008964
v 0.631466 0.130000 -0.014413
v 0.679331 0.220000 -0.023230
v 0.667872 0.220000 -0.058497
v 0.637872 0.220000 -0.080293
v 0.600789 0.220000 -0.080293
v 0.570790 0.220000 -0.058497
v 0.559331 0.220000 -0.023230
v 0.570790 0.220000 0.012037
v 0.600789 0.220000 0.033834
v 0.637872 0.220000 0.033834
v 0.667872 0.220000 0.012037
v -0.380392 0.020000 0.359900
v -0.389941 0.020000 0.330511
v -0.414941 0.020000 0.312347
v -0.445843 0.020000 0.312347
v -0.470843 0.020000 0.330511
v -0.480392 0.020000 0.359900
v -0.470843 0.020000 0.389289
v -0.445843 0.020000 0.407453
v -0.414941 0.020000 0.407453
v -0.389941 0.020000 0.389289
v -0.410392 0.050000 0.359900
v -0.414212 0.050000 0.348145
v -0.424212 0.050000 0.340879
v -0.436573 0.050000 0.340879
v -0.446573 0.050000 0.348145
v -0.450392 0.050000 0.359900
v -0.446573 0.050000 0.371656
v -0.436573 0.050000 0.378921
v -0.424212 0.050000 0.378921
v -0.414212 0.050000 0.371656
v -0.415392 0.130000 0.359900
v -0.418257 0.130000 0.351083
v -0.425757 0.130000 0.345634
v -0.435027 0.130000 0.345634
v -0.442527 0.130000 0.351083
v -0.445392 0.130000 0.359900
v -0.442527 0.130000 0.368717
v -0.435027 0.130000 0.374166
v -0.425757 0.130000 0.374166
v -0.418257 0.130000 0.368717
v -0.370392 0.220000 0.359900
v -0.381851 0.220000 0.324633
v -0.411851 0.220000 0.302837
v -0.448933 0.220000 0.302837
v -0.478933 0.220000 0.324633
v -0.490392 0.220000 0.359900
v -0.478933 0.220000 0.395167
v -0.448933 0.220000 0.416964
v -0.411851 0.220000 0.416964
v -0.381851 0.220000 0.395167
v -0.050000 0.330000 -0.060000
v -0.050000 0.410000 -0.060000
v 0.027782 0.330000 -0.027782
v 0.027782 0.410000 -0.027782
v 0.060000 0.330000 0.050000
v 0.060000 0.410000 0.050000
v 0.027782 0.330000 0.127782
v 0.027782 0.410000 0.127782
v -0.050000 0.330000 0.160000
v -0.050000 0.410000 0.160000
v -0.127782 0.330000 0.127782
v -0.127782 0.410000 0.127782
v -0.160000 0.330000 0.050000
v -0.160000 0.410000 0.050000
v -0.127782 0.330000 -0.027782
v -0.127782 0.410000 -0.027782
v 0.060000 0.410000 0.035000
v 0.060000 0.470000 0.049000
v 0.075000 0.410000 0.050000
v 0.061000 0.470000 0.050000
v 0.060000 0.410000 0.065000
v 0.060000 0.470000 0.051000
v 0.045000 0.410000 0.050000
v 0.059000 0.470000 0.050000
v -0.016008 0.410000 -0.069616
v -0.016008 0.470000 -0.055616
v -0.001008 0.410000 -0.054616
v -0.015008 0.470000 -0.054616
v -0.016008 0.410000 -0.039616
v -0.016008 0.470000 -0.053616
v -0.031008 0.410000 -0.054616
v -0.017008 0.470000 -0.054616
v -0.138992 0.410000 -0.029656
v -0.138992 0.470000 -0.015656
v -0.123992 0.410000 -0.014656
v -0.137992 0.470000 -0.014656
v -0.138992 0.410000 0.000344
v -0.138992 0.470000 -0.013656
v -0.153992 0.410000 -0.014656
v -0.139992 0.470000 -0.014656
v -0.138992 0.410000 0.099656
v -0.138992 0.470000 0.113656
v -0.123992 0.410000 0.114656
v -0.137992 0.470000 0.114656
v -0.138992 0.410000 0.129656
v -0.138992 0.470000 0.115656
v -0.153992 0.410000 0.114656
v -0.139992 0.470000 0.114656
v -0.016008 0.410000 0.139616
v -0.016008 0.470000 0.153616
v -0.001008 0.410000 0.154616
v -0.015008 0.470000 0.154616
v -0.016008 0.410000 0.169616
v -0.016008 0.470000 0.155616
v -0.031008 0.410000 0.154616
v -0.017008 0.470000 0.154616
v 0.764069 0.000000 0.513150
v 0.764069 0.012000 0.513150
v 0.795889 0.000000 0.526330
v 0.795889 0.012000 0.526330
v 0.809069 0.000000 0.558150
v 0.809069 0.012000 0.558150
v 0.795889 0.000000 0.589970
v 0.795889 0.012000 0.589970
v 0.764069 0.000000 0.603150
v 0.764069 0.012000 0.603150
v 0.732249 0.000000 0.589970
v 0.732249 0.012000 0.589970
v 0.719069 0.000000 0.558150
v 0.719069 0.012000 0.558150
v 0.732249 0.000000 0.526330
v 0.732249 0.012000 0.526330
v -0.749250 0.000000 0.010962
v -0.749250 0.012000 0.010962
v -0.717430 0.000000 0.024142
v -0.717430 0.012000 0.024142
v -0.704250 0.000000 0.055962
v -0.704250 0.012000 0.055962
v -0.717430 0.000000 0.087782
v -0.717430 0.012000 0.087782
v -0.749250 0.000000 0.100962
v -0.749250 0.012000 0.100962
v -0.781070 0.000000 0.087782
v -0.781070 0.012000 0.087782
v -0.794250 0.000000 0.055962
v -0.794250 0.012000 0.055962
v -0.781070 0.000000 0.024142
v -0.781070 0.012000 0.024142
v 0.404832 0.000000 -0.674341
v 0.404832 0.012000 -0.674341
v 0.436651 0.000000 -0.661161
v 0.436651 0.012000 -0.661161
v 0.449832 0.000000 -0.629341
v 0.449832 0.012000 -0.629341
v 0.436651 0.000000 -0.597521
v 0.436651 0.012000 -0.597521
v 0.404832 0.000000 -0.584341
v 0.404832 0.012000 -0.584341
v 0.373012 0.000000 -0.597521
v 0.373012 0.012000 -0.597521
v 0.359832 0.000000 -0.629341
v 0.359832 0.012000 -0.629341
v 0.373012 0.000000 -0.661161
v 0.373012 0.012000 -0.661161
v 0.092176 0.000000 -0.647145
v 0.092176 0.012000 -0.647145
v 0.123996 0.000000 -0.633965
v 0.123996 0.012000 -0.633965
v 0.137176 0.000000 -0.602145
v 0.137176 0.012000 -0.602145
v 0.123996 0.000000 -0.570325
v 0.123996 0.012000 -0.570325
v 0.092176 0.000000 -0.557145
v 0.092176 0.012000 -0.557145
v 0.060357 0.000000 -0.570325
v 0.060357 0.012000 -0.570325
v 0.047176 0.000000 -0.602145
v 0.047176 0.012000 -0.602145
v 0.060357 0.000000 -0.633965
v 0.060357 0.012000 -0.633965
v 0.317090 0.000000 -0.718800
v 0.317090 0.012000 -0.718800
v 0.348910 0.000000 -0.705620
v 0.348910 0.012000 -0.705620
v 0.362090 0.000000 -0.673800
v 0.362090 0.012000 -0.673800
v 0.348910 0.000000 -0.641981
v 0.348910 0.012000 -0.641981
v 0.317090 0.000000 -0.628800
v 0.317090 0.012000 -0.628800
v 0.285270 0.000000 -0.641981
v 0.285270 0.012000 -0.641981
v 0.272090 0.000000 -0.673800
v 0.272090 0.012000 -0.673800
v 0.285270 0.000000 -0.705620
v 0.285270 0.012000 -0.705620
v 0.547687 0.000000 -0.493590
v 0.547687 0.012000 -0.493590
v 0.579507 0.000000 -0.480410
v 0.579507 0.012000 -0.480410
v 0.592687 0.000000 -0.448590
v 0.592687 0.012000 -0.448590
v 0.579507 0.000000 -0.416770
v 0.579507 0.012000 -0.416770
v 0.547687 0.000000 -0.403590
v 0.547687 0.012000 -0.403590
v 0.515867 0.000000 -0.416770
v 0.515867 0.012000 -0.416770
v 0.502687 0.000000 -0.448590
v 0.502687 0.012000 -0.448590
v 0.515867 0.000000 -0.480410
v 0.515867 0.012000 -0.480410
v 0.385037 0.000000 -0.569295
v 0.385037 0.012000 -0.569295
v 0.416857 0.000000 -0.556115
v 0.416857 0.012000 -0.556115
v 0.430037 0.000000 -0.524295
v 0.430037 0.012000 -0.524295
v 0.416857 0.000000 -0.492475
v 0.416857 0.012000 -0.492475
v 0.385037 0.000000 -0.479295
v 0.385037 0.012000 -0.479295
v 0.353217 0.000000 -0.492475
v 0.353217 0.012000 -0.492475
v 0.340037 0.000000 -0.524295
v 0.340037 0.012000 -0.524295
v 0.353217 0.000000 -0.556115
v 0.353217 0.012000 -0.556115
v 0.211103 0.000000 0.744898
v 0.211103 0.012000 0.744898
v 0.242923 0.000000 0.758078
v 0.242923 0.012000 0.758078
v 0.256103 0.000000 0.789898
v 0.256103 0.012000 0.789898
v 0.242923 0.000000 0.821718
v 0.242923 0.012000 0.821718
v 0.211103 0.000000 0.834898
v 0.211103 0.012000 0.834898
v 0.179283 0.000000 0.821718
v 0.179283 0.012000 0.821718
v 0.166103 0.000000 0.789898
v 0.166103 0.012000 0.789898
v 0.179283 0.000000 0.758078
v 0.179283 0.012000 0.758078
v 0.280620 0.000000 -0.762874
v 0.280620 0.012000 -0.762874
v 0.312439 0.000000 -0.749694
v 0.312439 0.012000 -0.749694
v 0.325620 0.000000 -0.717874
v 0.325620 0.012000 -0.717874
v 0.312439 0.000000 -0.686054
v 0.312439 0.012000 -0.686054
v 0.280620 0.000000 -0.672874
v 0.280620 0.012000 -0.672874
v 0.248800 0.000000 -0.686054
v 0.248800 0.012000 -0.686054
v 0.235620 0.000000 -0.717874
v 0.235620 0.012000 -0.717874
v 0.248800 0.000000 -0.749694
v 0.248800 0.012000 -0.749694
v 0.586605 0.000000 0.416900
v 0.586605 0.012000 0.416900
v 0.618425 0.000000 0.430080
v 0.618425 0.012000 0.430080
v 0.631605 0.000000 0.461900
v 0.631605 0.012000 0.461900
v 0.618425 0.000000 0.493720
v 0.618425 0.012000 0.493720
v 0.586605 0.000000 0.506900
v 0.586605 0.012000 0.506900
v 0.554786 0.000000 0.493720
v 0.554786 0.012000 0.493720
v 0.541605 0.000000 0.461900
v 0.541605 0.012000 0.461900
v 0.554786 0.000000 0.430080
v 0.554786 0.012000 0.430080
v -0.507684 0.000000 -0.747596
v -0.507684 0.012000 -0.747596
v -0.475864 0.000000 -0.734416
v -0.475864 0.012000 -0.734416
v -0.462683 0.000000 -0.702596
v -0.462683 0.012000 -0.702596
v -0.475864 0.000000 -0.670776
v -0.475864 0.012000 -0.670776
v -0.507684 0.000000 -0.657596
v -0.507684 0.012000 -0.657596
v -0.539503 0.000000 -0.670776
v -0.539503 0.012000 -0.670776
v -0.552684 0.000000 -0.702596
v -0.552684 0.012000 -0.702596
v -0.539503 0.000000 -0.734416
v -0.539503 0.012000 -0.734416
v 0.069928 0.000000 0.701988
v 0.069928 0.012000 0.701988
v 0.101748 0.000000 0.715168
v 0.101748 0.012000 0.715168
v 0.114928 0.000000 0.746988
v 0.114928 0.012000 0.746988
v 0.101748 0.000000 0.778808
v 0.101748 0.012000 0.778808
v 0.069928 0.000000 0.791988
v 0.069928 0.012000 0.791988
v 0.038108 0.000000 0.778808
v 0.038108 0.012000 0.778808
v 0.024928 0.000000 0.746988
v 0.024928 0.012000 0.746988
v 0.038108 0.000000 0.715168
v 0.038108 0.012000 0.715168
vn 0.2151 -0.9765 -0.0160
vn -0.2281 -0.5282 0.8179
vn -0.7172 -0.6941 0.0614
vn -0.2494 -0.4210 -0.8721
vn 0.8088 -0.2805 -0.5169
vn 0.8946 -0.2636 0.3609
vn -0.5404 -0.6458 0.5393
vn -0.6518 -0.6401 -0.4068
vn 0.2714 -0.3286 -0.9046
vn 0.9283 -0.3683 -0.0505
vn 0.4380 -0.3539 0.8264
vn -0.8555 0.4015 0.3271
vn -0.5710 0.5924 0.5684
vn -0.5134 0.8407 0.1723
vn -0.6415 0.5229 -0.5613
vn -0.8709 0.4759 -0.1222
vn -0.4414 0.8601 -0.2556
vn 0.2532 0.7262 -0.6392
vn -0.2090 0.7338 -0.6464
vn -0.0109 0.9522 -0.3053
vn 0.6814 0.7214 0.1232
vn 0.6049 0.7688 -0.2075
vn 0.1736 0.9784 0.1125
vn -0.1625 0.6420 0.7493
vn 0.3230 0.8020 0.5025
vn -0.2322 0.9167 0.3252
vn -0.2512 0.9657 0.0654
vn -1.0000 -0.0000 -0.0000
vn -0.0000 -0.0000 -1.0000
vn 1.0000 -0.0000 -0.0000
vn -0.0000 -0.0000 1.0000
vn -0.0000 -1.0000 -0.0000
vn -0.0000 1.0000 -0.0000
vn -0.0000 0.4350 -0.9004
vn -0.0000 -0.4350 0.9004
vn -0.0000 -0.9004 -0.4350
vn -0.0000 0.9004 0.4350
vn 0.6892 0.6892 -0.2239
vn 0.4259 0.6891 -0.5862
vn -0.0000 0.6892 -0.7246
vn -0.4259 0.6892 -0.5862
vn -0.6892 0.6892 -0.2239
vn -0.6892 0.6892 0.2239
vn -0.4259 0.6892 0.5862
vn -0.0000 0.6892 0.7246
vn 0.4259 0.6892 0.5862
vn 0.6892 0.6892 0.2239
vn 0.9494 0.0593 -0.3085
vn 0.5867 0.0593 -0.8076
vn -0.0000 0.0593 -0.9982
vn -0.5867 0.0593 -0.8076
vn -0.9494 0.0593 -0.3085
vn -0.9494 0.0593 0.3085
vn -0.5867 0.0593 0.8076
vn -0.0000 0.0593 0.9982
vn 0.5867 0.0593 0.8076
vn 0.9494 0.0593 0.3085
vn 0.8589 -0.4294 -0.2791
vn 0.5308 -0.4294 -0.7306
vn -0.0000 -0.4294 -0.9031
vn -0.5308 -0.4294 -0.7306
vn -0.8589 -0.4294 -0.2791
vn -0.8589 -0.4294 0.2791
vn -0.5308 -0.4294 0.7306
vn -0.0000 -0.4294 0.9031
vn 0.5308 -0.4294 0.7306
vn 0.8589 -0.4294 0.2791
vn 0.4259 0.6892 -0.5862
vn 0.5868 0.0593 -0.8076
vn -0.5868 0.0593 -0.8076
vn -0.5868 0.0593 0.8076
vn 0.5868 0.0593 0.8076
vn 0.3827 -0.0000 -0.9239
vn 0.9239 -0.0000 -0.3827
vn 0.9239 -0.0000 0.3827
vn 0.3827 -0.0000 0.9239
vn -0.3827 -0.0000 0.9239
vn -0.9239 -0.0000 0.3827
vn -0.9239 -0.0000 -0.3827
vn -0.3827 -0.0000 -0.9239
vn 0.6977 0.1628 -0.6977
vn 0.6977 0.1628 0.6977
vn -0.6977 0.1628 0.6977
vn -0.6977 0.1628 -0.6977
vn -0.4259 0.6891 -0.5862
vn 0.4259 0.6891 0.5862
vn -0.0000 0.6891 -0.7246
vn -0.0000 0.6891 0.7246
vn -0.6891 0.6892 -0.2239
vt 0.203631 0.251314
vt 0.151009 0.369206
vt 0.105440 0.222924
vt 0.121430 0.435472
vt 0.224923 0.453235
vt 0.190140 0.123364
vt 0.297124 0.201143
vt 0.272849 0.346204
vt 0.167534 0.492796
vt 0.030015 0.201118
vt 0.052920 0.332191
vt 0.002041 0.272684
vt 0.179427 0.021771
vt 0.092766 0.099330
vt 0.113755 0.011494
vt 0.364968 0.164736
vt 0.283705 0.071923
vt 0.356394 0.079379
vt 0.330277 0.424932
vt 0.373648 0.300471
vt 0.388840 0.387390
vt 0.062087 0.410622
vt 0.024034 0.119360
vt 0.240893 0.002041
vt 0.394441 0.231086
vt 0.294131 0.492796
vt 0.746106 0.251380
vt 0.672270 0.345506
vt 0.671767 0.212664
vt 0.670635 0.002041
vt 0.739397 0.111024
vt 0.638482 0.063127
vt 0.476863 0.519187
vt 0.478125 0.627289
vt 0.398523 0.553961
vt 0.405803 0.250951
vt 0.401814 0.113552
vt 0.474990 0.215849
vt 0.576624 0.405665
vt 0.473030 0.358755
vt 0.579496 0.298909
vt 0.579463 0.170458
vt 0.509756 0.063281
vt 0.459590 0.002041
vt 0.398523 0.682439
vt 0.476247 0.729733
vt 0.505846 0.438540
vt 0.732787 0.959731
vt 0.701716 0.859269
vt 0.760856 0.859269
vt 0.398523 0.345682
vt 0.892787 0.158012
vt 0.831675 0.223980
vt 0.845552 0.087401
vt 0.898241 0.310986
vt 0.518652 0.449440
vt 0.422328 0.442621
vt 0.552113 0.567059
vt 0.553327 0.694203
vt 0.760782 0.379846
vt 0.825957 0.296199
vt 0.827593 0.414058
vt 0.750188 0.227470
vt 0.809991 0.156420
vt 0.754585 0.087680
vt 0.827593 0.065993
vt 0.769361 0.002041
vt 0.630785 0.424606
vt 0.898241 0.002041
vt 0.781188 0.484528
vt 0.293223 0.623872
vt 0.293223 0.496878
vt 0.344099 0.564604
vt 0.830530 0.956987
vt 0.944493 0.814430
vt 0.944493 0.957001
vt 0.262729 0.929875
vt 0.367450 0.716640
vt 0.367450 0.930477
vt 0.945670 0.315068
vt 0.831675 0.457650
vt 0.831675 0.315080
vt 0.148674 0.929894
vt 0.258647 0.716037
vt 0.258647 0.929894
vt 0.002041 0.497197
vt 0.144592 0.708827
vt 0.002041 0.709146
vt 0.289141 0.711956
vt 0.148674 0.496878
vt 0.289141 0.498688
vt 0.948575 0.939166
vt 0.969943 0.814419
vt 0.969943 0.939168
vt 0.372883 0.692896
vt 0.392518 0.496991
vt 0.392518 0.693009
vt 0.965807 0.155841
vt 0.944432 0.280592
vt 0.944432 0.155843
vt 0.348181 0.692913
vt 0.368801 0.496878
vt 0.368801 0.692913
vt 0.701717 0.660901
vt 0.826449 0.854908
vt 0.701716 0.855187
vt 0.124950 0.910307
vt 0.002041 0.713228
vt 0.124950 0.714812
vt 0.954301 0.506826
vt 0.972120 0.649305
vt 0.954301 0.649295
vt 0.557409 0.656540
vt 0.699850 0.442621
vt 0.699850 0.656459
vt 0.949752 0.457577
vt 0.967572 0.315068
vt 0.967572 0.457570
vt 0.557409 0.874478
vt 0.697635 0.660622
vt 0.697635 0.874478
vt 0.902323 0.002041
vt 0.918498 0.214987
vt 0.902323 0.213990
vt 0.392518 0.910358
vt 0.375381 0.697453
vt 0.392518 0.697090
vt 0.829134 0.656527
vt 0.950219 0.506843
vt 0.950219 0.656542
vt 0.966177 0.002143
vt 0.983996 0.113309
vt 0.966177 0.113412
vt 0.825052 0.506828
vt 0.703932 0.656540
vt 0.703932 0.506841
vt 0.955697 0.660621
vt 0.973519 0.777469
vt 0.955697 0.777469
vt 0.553327 0.733854
vt 0.535664 0.883494
vt 0.535664 0.733815
vt 0.940351 0.155841
vt 0.922580 0.303573
vt 0.922580 0.156070
vt 0.830530 0.810320
vt 0.951616 0.660636
vt 0.951616 0.810335
vt 0.969888 0.155943
vt 0.987708 0.267109
vt 0.969888 0.267212
vt 0.519643 0.733815
vt 0.398523 0.883526
vt 0.398523 0.733828
vt 0.808627 0.859269
vt 0.826449 0.976116
vt 0.808627 0.976116
vt 0.940242 0.002080
vt 0.922580 0.151720
vt 0.922580 0.002041
vt 0.962095 0.002041
vt 0.944324 0.149773
vt 0.944324 0.002270
vt 0.303119 0.699430
vt 0.313570 0.688982
vt 0.313605 0.699318
vt 0.063789 0.975931
vt 0.051586 0.964649
vt 0.055118 0.963623
vt 0.043945 0.978496
vt 0.054958 0.978496
vt 0.034956 0.975931
vt 0.047181 0.964649
vt 0.983899 0.318392
vt 0.971654 0.325328
vt 0.973598 0.315068
vt 0.990265 0.327248
vt 0.975774 0.326658
vt 0.990265 0.338253
vt 0.978321 0.330200
vt 0.983899 0.347204
vt 0.978321 0.334602
vt 0.973598 0.350682
vt 0.975774 0.338183
vt 0.324069 0.699430
vt 0.317755 0.689027
vt 0.309375 0.689027
vt 0.313561 0.660542
vt 0.053814 0.937028
vt 0.047861 0.937797
vt 0.051165 0.937797
vt 0.043585 0.963623
vt 0.532979 0.948737
vt 0.536133 0.920361
vt 0.537173 0.948793
vt 0.528793 0.948793
vt 0.532988 0.920319
vt 0.613938 0.940579
vt 0.616061 0.914050
vt 0.617502 0.941266
vt 0.609532 0.940579
vt 0.613387 0.913535
vt 0.605968 0.941266
vt 0.610083 0.913535
vt 0.316700 0.660575
vt 0.310415 0.660575
vt 0.313609 0.627954
vt 0.308464 0.660663
vt 0.301026 0.628088
vt 0.056477 0.914388
vt 0.538083 0.920469
vt 0.545527 0.887781
vt 0.553327 0.888216
vt 0.529848 0.920361
vt 0.532945 0.887615
vt 0.629037 0.880620
vt 0.618344 0.878560
vt 0.607410 0.914050
vt 0.605127 0.878560
vt 0.326166 0.628088
vt 0.838101 0.493846
vt 0.848498 0.461732
vt 0.865321 0.474144
vt 0.567305 0.950036
vt 0.577756 0.939588
vt 0.577791 0.949924
vt 0.022043 0.978496
vt 0.022204 0.963623
vt 0.030874 0.975931
vt 0.011030 0.978496
vt 0.018671 0.964649
vt 0.010670 0.963623
vt 0.014266 0.964649
vt 0.684048 0.881884
vt 0.671803 0.888820
vt 0.673747 0.878560
vt 0.678469 0.893692
vt 0.675923 0.890150
vt 0.690414 0.901745
vt 0.690414 0.890740
vt 0.684048 0.910696
vt 0.678469 0.898094
vt 0.671803 0.903066
vt 0.675923 0.901675
vt 0.581941 0.939633
vt 0.588255 0.950036
vt 0.573561 0.939633
vt 0.577747 0.911148
vt 0.020900 0.937028
vt 0.018251 0.937797
vt 0.014947 0.937797
vt 0.486822 0.948730
vt 0.489977 0.920354
vt 0.491017 0.948786
vt 0.482636 0.948786
vt 0.486831 0.920312
vt 0.652623 0.940579
vt 0.654745 0.914050
vt 0.656187 0.941266
vt 0.648217 0.940579
vt 0.652072 0.913535
vt 0.644653 0.941266
vt 0.648768 0.913535
vt 0.580886 0.911181
vt 0.565212 0.878694
vt 0.577795 0.878560
vt 0.572650 0.911269
vt 0.574601 0.911181
vt 0.023563 0.914389
vt 0.507170 0.888209
vt 0.491927 0.920463
vt 0.486788 0.887608
vt 0.499370 0.887774
vt 0.483692 0.920354
vt 0.667721 0.880620
vt 0.657028 0.878560
vt 0.646094 0.914050
vt 0.643811 0.878560
vt 0.590352 0.878694
vt 0.934731 0.493660
vt 0.907310 0.473974
vt 0.924257 0.461732
vt 0.774835 0.930745
vt 0.785285 0.920297
vt 0.785321 0.930633
vt 0.087873 0.978496
vt 0.088033 0.963623
vt 0.096703 0.975931
vt 0.076860 0.978496
vt 0.084501 0.964649
vt 0.067870 0.975931
vt 0.080096 0.964649
vt 0.982133 0.274618
vt 0.969888 0.281554
vt 0.971833 0.271294
vt 0.988499 0.283474
vt 0.974009 0.282884
vt 0.988499 0.294479
vt 0.976555 0.286426
vt 0.982133 0.303430
vt 0.976555 0.290828
vt 0.971833 0.306907
vt 0.974009 0.294408
vt 0.795785 0.930745
vt 0.789470 0.920342
vt 0.782130 0.891891
vt 0.785276 0.891857
vt 0.086729 0.937028
vt 0.084080 0.937797
vt 0.076500 0.963623
vt 0.080776 0.937797
vt 0.453994 0.948786
vt 0.449809 0.920312
vt 0.452954 0.920354
vt 0.445614 0.948786
vt 0.449800 0.948730
vt 0.418027 0.949627
vt 0.420150 0.923098
vt 0.421592 0.950314
vt 0.413622 0.949627
vt 0.417477 0.922583
vt 0.410057 0.950314
vt 0.414172 0.922583
vt 0.788415 0.891891
vt 0.785325 0.859269
vt 0.764938 0.859754
vt 0.772741 0.859403
vt 0.089392 0.914388
vt 0.470148 0.888209
vt 0.454904 0.920463
vt 0.449766 0.887608
vt 0.462348 0.887774
vt 0.446669 0.920354
vt 0.433126 0.889668
vt 0.422433 0.887608
vt 0.411499 0.923098
vt 0.409216 0.887608
vt 0.797881 0.859403
vt 0.886315 0.497127
vt 0.875863 0.465031
vt 0.896768 0.465192
vt 0.708482 0.470202
vt 0.730112 0.442772
vt 0.734663 0.470352
vt 0.210212 0.933976
vt 0.182090 0.961739
vt 0.181713 0.933979
vt 0.210589 0.961736
vt 0.181713 0.989426
vt 0.128279 0.914388
vt 0.103830 0.942112
vt 0.100785 0.914388
vt 0.131324 0.942112
vt 0.100785 0.969836
vt 0.149141 0.989423
vt 0.177164 0.961736
vt 0.177631 0.989426
vt 0.148674 0.961733
vt 0.177631 0.933979
vt 0.703932 0.498063
vt 0.730112 0.498214
vt 0.129416 0.713453
vt 0.139380 0.731005
vt 0.134802 0.734384
vt 0.695071 0.918256
vt 0.695415 0.940297
vt 0.690265 0.938914
vt 0.330248 0.703673
vt 0.330744 0.704170
vt 0.330248 0.704176
vt 0.964920 0.781645
vt 0.970062 0.802164
vt 0.964920 0.803589
vt 0.129032 0.713407
vt 0.129032 0.733694
vt 0.304823 0.703578
vt 0.312341 0.711047
vt 0.304823 0.711113
vt 0.129416 0.738691
vt 0.139380 0.756243
vt 0.134802 0.759622
vt 0.685840 0.918255
vt 0.686184 0.940297
vt 0.681034 0.938914
vt 0.334826 0.703673
vt 0.335323 0.704170
vt 0.334826 0.704176
vt 0.953664 0.284769
vt 0.958805 0.305288
vt 0.953664 0.306712
vt 0.129032 0.738645
vt 0.129032 0.758932
vt 0.293223 0.703578
vt 0.300741 0.711047
vt 0.293223 0.711113
vt 0.330633 0.653417
vt 0.340596 0.670969
vt 0.336018 0.674348
vt 0.143928 0.924291
vt 0.144271 0.946333
vt 0.139122 0.944950
vt 0.339404 0.703673
vt 0.339901 0.704170
vt 0.339404 0.704176
vt 0.798406 0.934922
vt 0.803548 0.955440
vt 0.798406 0.956865
vt 0.330248 0.653371
vt 0.330248 0.673658
vt 0.359781 0.697061
vt 0.367299 0.704530
vt 0.359781 0.704596
vt 0.330633 0.628179
vt 0.340596 0.645732
vt 0.336018 0.649110
vt 0.676609 0.918255
vt 0.676952 0.940297
vt 0.671803 0.938914
vt 0.339404 0.708264
vt 0.339901 0.708760
vt 0.339404 0.708767
vt 0.955697 0.781645
vt 0.960839 0.802164
vt 0.955697 0.803589
vt 0.330248 0.628133
vt 0.330248 0.648421
vt 0.316422 0.711113
vt 0.323940 0.703512
vt 0.323940 0.711047
vt 0.330633 0.678655
vt 0.340596 0.696207
vt 0.336018 0.699585
vt 0.949239 0.284674
vt 0.949582 0.306716
vt 0.944433 0.305333
vt 0.334826 0.708766
vt 0.335323 0.708258
vt 0.335323 0.708760
vt 0.248139 0.934071
vt 0.253281 0.954590
vt 0.248139 0.956014
vt 0.330248 0.678609
vt 0.330248 0.698896
vt 0.348181 0.697061
vt 0.355699 0.704530
vt 0.348181 0.704596
vt 0.527656 0.771883
vt 0.529721 0.760622
vt 0.531583 0.771905
vt 0.980477 0.506826
vt 0.976356 0.518183
vt 0.976202 0.506827
vt 0.980631 0.518183
vt 0.976202 0.529510
vt 0.143026 0.790468
vt 0.140147 0.801809
vt 0.138902 0.790468
vt 0.144271 0.801809
vt 0.138902 0.813151
vt 0.974215 0.863865
vt 0.978298 0.852538
vt 0.978489 0.863865
vt 0.710245 0.993450
vt 0.701716 0.972488
vt 0.722307 0.963821
vt 0.974024 0.852537
vt 0.978489 0.841182
vt 0.525794 0.783281
vt 0.529721 0.783303
vt 0.223278 0.934032
vt 0.244057 0.942610
vt 0.235450 0.963593
vt 0.740606 0.453904
vt 0.742671 0.442644
vt 0.744533 0.453927
vt 0.981875 0.740916
vt 0.977755 0.752273
vt 0.977600 0.740917
vt 0.982029 0.752273
vt 0.977600 0.763600
vt 0.906447 0.245833
vt 0.903569 0.257175
vt 0.902323 0.245833
vt 0.907693 0.257175
vt 0.902323 0.268516
vt 0.974215 0.890630
vt 0.978298 0.879303
vt 0.978489 0.890630
vt 0.974705 0.147130
vt 0.966177 0.126168
vt 0.986767 0.117501
vt 0.974024 0.879302
vt 0.978489 0.867947
vt 0.738744 0.465302
vt 0.742671 0.465325
vt 0.271336 0.934616
vt 0.292116 0.943194
vt 0.283509 0.964177
vt 0.130893 0.882127
vt 0.132959 0.870866
vt 0.134820 0.882149
vt 0.980477 0.533591
vt 0.976356 0.544948
vt 0.976202 0.533592
vt 0.980631 0.544948
vt 0.976202 0.556275
vt 0.143026 0.897526
vt 0.140147 0.908868
vt 0.138902 0.897526
vt 0.144271 0.908868
vt 0.138902 0.920209
vt 0.971845 0.377446
vt 0.975928 0.366119
vt 0.976119 0.377447
vt 0.223199 0.997368
vt 0.214671 0.976407
vt 0.235261 0.967739
vt 0.971654 0.366118
vt 0.976119 0.354764
vt 0.129032 0.893525
vt 0.132959 0.893547
vt 0.953893 0.461789
vt 0.974672 0.470367
vt 0.966065 0.491350
vt 0.130893 0.801771
vt 0.132959 0.790511
vt 0.134820 0.801794
vt 0.980477 0.587121
vt 0.976356 0.598478
vt 0.976202 0.587122
vt 0.980631 0.598478
vt 0.976202 0.609804
vt 0.143026 0.763703
vt 0.140147 0.775045
vt 0.138902 0.763703
vt 0.144271 0.775045
vt 0.138902 0.786386
vt 0.971845 0.404211
vt 0.975928 0.392884
vt 0.976119 0.404212
vt 0.839059 0.990719
vt 0.830530 0.969758
vt 0.851121 0.961090
vt 0.971654 0.392884
vt 0.976119 0.381529
vt 0.129032 0.813169
vt 0.132959 0.813192
vt 0.669978 0.945404
vt 0.690758 0.953982
vt 0.682151 0.974965
vt 0.527656 0.825453
vt 0.529721 0.814193
vt 0.531583 0.825476
vt 0.802681 0.960947
vt 0.798561 0.972304
vt 0.798406 0.960947
vt 0.802835 0.972304
vt 0.798406 0.983630
vt 0.915899 0.219068
vt 0.913020 0.230410
vt 0.911775 0.219068
vt 0.917144 0.230410
vt 0.911775 0.241751
vt 0.511443 0.937056
vt 0.515525 0.925729
vt 0.515716 0.937057
vt 0.271258 0.997952
vt 0.262729 0.976990
vt 0.283319 0.968323
vt 0.511252 0.925728
vt 0.515716 0.914374
vt 0.525794 0.836851
vt 0.529721 0.836874
vt 0.445815 0.952924
vt 0.466594 0.961502
vt 0.457987 0.982485
vt 0.740606 0.480689
vt 0.742671 0.469429
vt 0.744533 0.480712
vt 0.981875 0.687387
vt 0.977755 0.698744
vt 0.977600 0.687387
vt 0.982029 0.698743
vt 0.977600 0.710070
vt 0.906447 0.272598
vt 0.903569 0.283939
vt 0.902323 0.272598
vt 0.907693 0.283939
vt 0.902323 0.295281
vt 0.139313 0.973097
vt 0.143396 0.961770
vt 0.143587 0.973098
vt 0.565937 0.983754
vt 0.557409 0.962793
vt 0.577999 0.954125
vt 0.139122 0.961769
vt 0.143587 0.950415
vt 0.738744 0.492087
vt 0.742671 0.492110
vt 0.304805 0.934616
vt 0.325584 0.943194
vt 0.316977 0.964177
vt 0.527656 0.745098
vt 0.529721 0.733837
vt 0.531583 0.745120
vt 0.981875 0.714152
vt 0.977754 0.725509
vt 0.977600 0.714152
vt 0.982029 0.725508
vt 0.977600 0.736835
vt 0.915899 0.245833
vt 0.913020 0.257175
vt 0.911775 0.245833
vt 0.917144 0.257175
vt 0.911775 0.268516
vt 0.974215 0.917395
vt 0.978298 0.906068
vt 0.978489 0.917395
vt 0.528915 0.982511
vt 0.520387 0.961549
vt 0.540977 0.952882
vt 0.974024 0.906067
vt 0.978489 0.894712
vt 0.525794 0.756496
vt 0.529721 0.756518
vt 0.338273 0.934616
vt 0.359053 0.943194
vt 0.350446 0.964177
vt 0.130893 0.855342
vt 0.132959 0.844081
vt 0.134820 0.855364
vt 0.980477 0.613886
vt 0.976356 0.625243
vt 0.976202 0.613887
vt 0.980631 0.625243
vt 0.976202 0.636569
vt 0.915899 0.272598
vt 0.913020 0.283939
vt 0.911775 0.272598
vt 0.917144 0.283939
vt 0.911775 0.295281
vt 0.971845 0.430976
vt 0.975928 0.419649
vt 0.976119 0.430977
vt 0.482758 0.982504
vt 0.474230 0.961543
vt 0.494820 0.952875
vt 0.971654 0.419649
vt 0.976119 0.408294
vt 0.129032 0.866740
vt 0.132959 0.866762
vt 0.603041 0.945404
vt 0.623821 0.953982
vt 0.615213 0.974965
vt 0.527656 0.798668
vt 0.529721 0.787408
vt 0.531583 0.798691
vt 0.981875 0.660622
vt 0.977755 0.671979
vt 0.977600 0.660622
vt 0.982029 0.671978
vt 0.977600 0.683305
vt 0.143026 0.817232
vt 0.140147 0.828574
vt 0.138902 0.817232
vt 0.144271 0.828574
vt 0.138902 0.839915
vt 0.511443 0.963821
vt 0.515525 0.952494
vt 0.515716 0.963822
vt 0.407052 0.984032
vt 0.398523 0.963071
vt 0.419113 0.954403
vt 0.511252 0.952494
vt 0.515716 0.941139
vt 0.525794 0.810066
vt 0.529721 0.810089
vt 0.371742 0.934616
vt 0.392522 0.943194
vt 0.383914 0.964177
vt 0.130893 0.828556
vt 0.132959 0.817296
vt 0.134820 0.828579
vt 0.983029 0.461732
vt 0.978908 0.473089
vt 0.978754 0.461732
vt 0.983183 0.473088
vt 0.978754 0.484415
vt 0.143026 0.843997
vt 0.140147 0.855338
vt 0.138902 0.843997
vt 0.144271 0.855338
vt 0.138902 0.866680
vt 0.974335 0.804233
vt 0.978417 0.792906
vt 0.978608 0.804234
vt 0.304459 0.997952
vt 0.295930 0.976990
vt 0.316520 0.968323
vt 0.974144 0.792906
vt 0.978608 0.781551
vt 0.129032 0.839954
vt 0.132959 0.839977
vt 0.957182 0.943307
vt 0.977961 0.951885
vt 0.969354 0.972868
vt 0.130893 0.774986
vt 0.132959 0.763726
vt 0.134820 0.775009
vt 0.980477 0.560356
vt 0.976356 0.571713
vt 0.976202 0.560357
vt 0.980631 0.571713
vt 0.976202 0.583040
vt 0.143026 0.870762
vt 0.140147 0.882103
vt 0.138902 0.870762
vt 0.144271 0.882103
vt 0.138902 0.893445
vt 0.511443 0.910291
vt 0.515525 0.898964
vt 0.515716 0.910292
vt 0.872260 0.990719
vt 0.863731 0.969758
vt 0.884321 0.961090
vt 0.511252 0.898963
vt 0.515716 0.887609
vt 0.129032 0.786384
vt 0.132959 0.786407
vt 0.636510 0.945404
vt 0.657289 0.953982
vt 0.648682 0.974965
vt 0.527656 0.852239
vt 0.529721 0.840978
vt 0.531583 0.852261
vt 0.252414 0.960096
vt 0.248293 0.971453
vt 0.248139 0.960096
vt 0.252568 0.971452
vt 0.248139 0.982779
vt 0.906447 0.219068
vt 0.903569 0.230410
vt 0.902323 0.219068
vt 0.907693 0.230410
vt 0.902323 0.241751
vt 0.974215 0.837100
vt 0.978298 0.825772
vt 0.978489 0.837100
vt 0.905461 0.990719
vt 0.896932 0.969758
vt 0.917522 0.961090
vt 0.974024 0.825772
vt 0.978489 0.814417
vt 0.525794 0.863636
vt 0.529721 0.863659
vt 0.773545 0.934883
vt 0.794325 0.943462
vt 0.785717 0.964445
vt 0.830530 0.814417
vt 0.262729 0.716037
vt 0.945670 0.457638
vt 0.148674 0.716037
vt 0.144592 0.496878
vt 0.148674 0.710145
vt 0.948575 0.814417
vt 0.372883 0.496878
vt 0.965807 0.280590
vt 0.348181 0.496878
vt 0.826449 0.660621
vt 0.002041 0.908723
vt 0.972120 0.506836
vt 0.557409 0.442702
vt 0.949752 0.315074
vt 0.557409 0.660622
vt 0.918498 0.003038
vt 0.375381 0.910720
vt 0.829134 0.506828
vt 0.983996 0.002041
vt 0.825052 0.656527
vt 0.973519 0.660621
vt 0.553327 0.883533
vt 0.940351 0.303344
vt 0.830530 0.660622
vt 0.987708 0.155841
vt 0.519643 0.883514
vt 0.826449 0.859269
vt 0.940242 0.151759
vt 0.962095 0.149544
vt 0.971654 0.339574
vt 0.045165 0.937028
vt 0.293223 0.628439
vt 0.043261 0.914388
vt 0.520386 0.887781
vt 0.594434 0.880620
vt 0.865321 0.485140
vt 0.858895 0.493991
vt 0.848498 0.497317
vt 0.831675 0.484905
vt 0.831675 0.473908
vt 0.838101 0.465057
vt 0.858895 0.465203
vt 0.002041 0.975931
vt 0.673747 0.914174
vt 0.012250 0.937028
vt 0.557409 0.879045
vt 0.010347 0.914389
vt 0.474230 0.887774
vt 0.633118 0.880620
vt 0.934731 0.465082
vt 0.941204 0.473898
vt 0.941204 0.484814
vt 0.924257 0.497057
vt 0.913783 0.493707
vt 0.907310 0.484890
vt 0.913783 0.465129
vt 0.781090 0.920342
vt 0.969888 0.295799
vt 0.078079 0.937028
vt 0.780179 0.891978
vt 0.076176 0.914388
vt 0.437208 0.887774
vt 0.398523 0.889668
vt 0.903228 0.474091
vt 0.903228 0.485029
vt 0.896768 0.493828
vt 0.875863 0.493667
vt 0.869402 0.484768
vt 0.869402 0.473830
vt 0.886315 0.461732
vt 0.703932 0.442621
vt 0.210212 0.989423
vt 0.128279 0.969836
vt 0.149141 0.933976
vt 0.129721 0.713228
vt 0.695415 0.918348
vt 0.330744 0.703667
vt 0.965263 0.781550
vt 0.312341 0.703512
vt 0.129721 0.738466
vt 0.686184 0.918348
vt 0.335323 0.703667
vt 0.954006 0.284674
vt 0.300741 0.703512
vt 0.330938 0.653192
vt 0.144271 0.924383
vt 0.339901 0.703667
vt 0.798749 0.934827
vt 0.367299 0.696995
vt 0.330938 0.627954
vt 0.676952 0.918348
vt 0.339901 0.708258
vt 0.956040 0.781550
vt 0.316422 0.703578
vt 0.330938 0.678429
vt 0.949582 0.284766
vt 0.334826 0.708264
vt 0.248482 0.933976
vt 0.355699 0.696995
vt 0.525794 0.760600
vt 0.980477 0.529509
vt 0.143026 0.813151
vt 0.730835 0.972506
vt 0.730835 0.984782
vt 0.722307 0.993457
vt 0.701716 0.984764
vt 0.710245 0.963813
vt 0.974215 0.841182
vt 0.223278 0.963650
vt 0.214671 0.955015
vt 0.214671 0.942747
vt 0.235450 0.933976
vt 0.244057 0.954879
vt 0.738744 0.442621
vt 0.981875 0.763599
vt 0.906447 0.268516
vt 0.995296 0.126186
vt 0.995296 0.138462
vt 0.986767 0.147137
vt 0.966177 0.138444
vt 0.974705 0.117493
vt 0.974215 0.867947
vt 0.271336 0.964234
vt 0.262729 0.955599
vt 0.262729 0.943331
vt 0.283509 0.934559
vt 0.292116 0.955462
vt 0.129032 0.870844
vt 0.980477 0.556274
vt 0.143026 0.920209
vt 0.243790 0.976425
vt 0.243790 0.988701
vt 0.235261 0.997376
vt 0.214671 0.988683
vt 0.223199 0.967732
vt 0.971845 0.354763
vt 0.953893 0.491406
vt 0.945285 0.482772
vt 0.945285 0.470503
vt 0.966065 0.461732
vt 0.974672 0.482635
vt 0.129032 0.790488
vt 0.980477 0.609804
vt 0.143026 0.786386
vt 0.859649 0.969776
vt 0.859649 0.982051
vt 0.851121 0.990727
vt 0.830530 0.982034
vt 0.839059 0.961083
vt 0.971845 0.381528
vt 0.669978 0.975022
vt 0.661371 0.966387
vt 0.661371 0.954119
vt 0.682151 0.945347
vt 0.690758 0.966250
vt 0.525794 0.814170
vt 0.802681 0.983630
vt 0.915899 0.241751
vt 0.291848 0.977008
vt 0.291848 0.989284
vt 0.283319 0.997959
vt 0.262729 0.989266
vt 0.271258 0.968315
vt 0.511443 0.914373
vt 0.445815 0.982542
vt 0.437207 0.973907
vt 0.437207 0.961639
vt 0.457987 0.952868
vt 0.466594 0.973771
vt 0.738744 0.469406
vt 0.981875 0.710069
vt 0.906447 0.295281
vt 0.586528 0.962810
vt 0.586528 0.975086
vt 0.577999 0.983761
vt 0.557409 0.975069
vt 0.565937 0.954118
vt 0.139313 0.950414
vt 0.304805 0.964234
vt 0.296198 0.955599
vt 0.296198 0.943331
vt 0.316977 0.934559
vt 0.325584 0.955462
vt 0.525794 0.733815
vt 0.981875 0.736834
vt 0.915899 0.268516
vt 0.549506 0.961567
vt 0.549506 0.973843
vt 0.540977 0.982518
vt 0.520387 0.973825
vt 0.528915 0.952874
vt 0.974215 0.894712
vt 0.338273 0.964234
vt 0.329666 0.955599
vt 0.329666 0.943331
vt 0.350446 0.934559
vt 0.359053 0.955462
vt 0.129032 0.844059
vt 0.980477 0.636569
vt 0.915899 0.295281
vt 0.503349 0.961560
vt 0.503349 0.973836
vt 0.494820 0.982511
vt 0.474230 0.973819
vt 0.482758 0.952868
vt 0.971845 0.408293
vt 0.603041 0.975022
vt 0.594434 0.966387
vt 0.594434 0.954119
vt 0.615213 0.945347
vt 0.623821 0.966250
vt 0.525794 0.787385
vt 0.981875 0.683304
vt 0.143026 0.839915
vt 0.427642 0.963089
vt 0.427642 0.975364
vt 0.419113 0.984040
vt 0.398523 0.975347
vt 0.407052 0.954396
vt 0.511443 0.941138
vt 0.371742 0.964234
vt 0.363135 0.955599
vt 0.363135 0.943331
vt 0.383914 0.934559
vt 0.392522 0.955462
vt 0.129032 0.817273
vt 0.983029 0.484415
vt 0.143026 0.866680
vt 0.325049 0.977008
vt 0.325049 0.989284
vt 0.316520 0.997959
vt 0.295930 0.989266
vt 0.304459 0.968315
vt 0.974335 0.781550
vt 0.957182 0.972925
vt 0.948574 0.964290
vt 0.948574 0.952022
vt 0.969354 0.943250
vt 0.977961 0.964153
vt 0.129032 0.763703
vt 0.980477 0.583039
vt 0.143026 0.893445
vt 0.892850 0.969775
vt 0.892850 0.982051
vt 0.884321 0.990726
vt 0.863731 0.982034
vt 0.872260 0.961083
vt 0.511443 0.887608
vt 0.636510 0.975022
vt 0.627902 0.966387
vt 0.627902 0.954119
vt 0.648682 0.945347
vt 0.657289 0.966250
vt 0.525794 0.840956
vt 0.252414 0.982779
vt 0.906447 0.241751
vt 0.926051 0.969775
vt 0.926051 0.982051
vt 0.917522 0.990726
vt 0.896932 0.982034
vt 0.905461 0.961083
vt 0.974215 0.814417
vt 0.773545 0.964501
vt 0.764938 0.955866
vt 0.764938 0.943598
vt 0.785717 0.934827
vt 0.794325 0.955730
s 1
f 1/1/1 14/2/1 13/3/1
f 2/4/1 14/2/1 16/5/1
f 1/1/1 13/3/1 18/6/1
f 1/1/1 18/6/1 20/7/1
f 1/1/1 20/7/1 17/8/1
f 2/4/1 16/5/1 23/9/2
f 3/10/1 15/11/1 25/12/3
f 4/13/1 19/14/1 27/15/4
f 5/16/1 21/17/1 29/18/5
f 6/19/1 22/20/1 31/21/6
f 2/4/1 23/9/2 26/22/7
f 3/10/1 25/12/3 28/23/8
f 4/13/1 27/15/4 30/24/9
f 5/16/1 29/18/5 32/25/10
f 6/19/1 31/21/6 24/26/11
f 7/27/12 33/28/13 38/29/14
f 8/30/15 34/31/16 40/32/17
f 9/33/18 35/34/19 41/35/20
f 10/36/21 36/37/22 42/38/23
f 11/39/24 37/40/25 39/41/26
f 39/41/26 42/38/23 12/42/27
f 39/41/26 37/40/25 42/38/23
f 37/40/25 10/36/21 42/38/23
f 42/38/23 41/43/20 12/42/27
f 42/38/23 36/37/22 41/43/20
f 36/37/22 9/44/18 41/43/20
f 41/43/20 40/32/17 12/42/27
f 41/35/20 35/34/19 40/45/17
f 35/34/19 8/46/15 40/45/17
f 40/32/17 38/29/14 12/42/27
f 40/32/17 34/31/16 38/29/14
f 34/31/16 7/27/12 38/29/14
f 38/29/14 39/41/26 12/42/27
f 38/29/14 33/28/13 39/41/26
f 33/28/13 11/39/24 39/41/26
f 24/47/11 37/40/25 11/39/24
f 24/48/11 31/49/6 37/50/25
f 31/51/6 10/36/21 37/40/25
f 32/52/10 36/53/22 10/54/21
f 32/52/10 29/55/5 36/53/22
f 29/56/5 9/33/18 36/57/22
f 30/58/9 35/34/19 9/33/18
f 30/58/9 27/59/4 35/34/19
f 27/59/4 8/46/15 35/34/19
f 28/60/8 34/61/16 8/62/15
f 28/60/8 25/63/3 34/61/16
f 25/63/3 7/64/12 34/61/16
f 26/65/7 33/66/13 7/64/12
f 26/65/7 23/67/2 33/66/13
f 23/68/2 11/39/24 33/28/13
f 31/69/6 32/52/10 10/54/21
f 31/21/6 22/20/1 32/25/10
f 22/20/1 5/16/1 32/25/10
f 29/56/5 30/58/9 9/33/18
f 29/18/5 21/17/1 30/24/9
f 21/17/1 4/13/1 30/24/9
f 27/70/4 28/60/8 8/62/15
f 27/15/4 19/14/1 28/23/8
f 19/14/1 3/10/1 28/23/8
f 25/63/3 26/65/7 7/64/12
f 25/12/3 15/11/1 26/22/7
f 15/11/1 2/4/1 26/22/7
f 23/71/2 24/72/11 11/73/24
f 23/9/2 16/5/1 24/26/11
f 16/5/1 6/19/1 24/26/11
f 17/8/1 22/20/1 6/19/1
f 17/8/1 20/7/1 22/20/1
f 20/7/1 5/16/1 22/20/1
f 20/7/1 21/17/1 5/16/1
f 20/7/1 18/6/1 21/17/1
f 18/6/1 4/13/1 21/17/1
f 18/6/1 19/14/1 4/13/1
f 18/6/1 13/3/1 19/14/1
f 13/3/1 3/10/1 19/14/1
f 16/5/1 17/8/1 6/19/1
f 16/5/1 14/2/1 17/8/1
f 14/2/1 1/1/1 17/8/1
f 13/3/1 15/11/1 3/10/1
f 13/3/1 14/2/1 15/11/1
f 14/2/1 2/4/1 15/11/1
s 0
f 44/74/28 45/75/28 43/76/28
f 46/77/29 49/78/29 45/79/29
f 50/80/30 47/81/30 49/82/30
f 48/83/31 43/84/31 47/85/31
f 49/86/32 43/87/32 45/88/32
f 46/89/33 48/90/33 50/91/33
f 52/92/28 53/93/28 51/94/28
f 54/95/29 57/96/29 53/97/29
f 58/98/30 55/99/30 57/100/30
f 56/101/31 51/102/31 55/103/31
f 57/104/32 51/105/32 53/106/32
f 54/107/33 56/108/33 58/109/33
f 60/110/28 61/111/28 59/112/28
f 62/113/34 65/114/34 61/115/34
f 65/116/30 64/117/30 63/118/30
f 64/119/35 59/120/35 63/121/35
f 65/122/36 59/123/36 61/124/36
f 62/125/37 64/126/37 66/127/37
f 68/128/28 69/129/28 67/130/28
f 70/131/29 73/132/29 69/133/29
f 74/134/30 71/135/30 73/136/30
f 72/137/31 67/138/31 71/139/31
f 73/140/32 67/141/32 69/142/32
f 70/143/33 72/144/33 74/145/33
f 76/146/28 77/147/28 75/148/28
f 78/149/29 81/150/29 77/151/29
f 82/152/30 79/153/30 81/154/30
f 80/155/31 75/156/31 79/157/31
f 81/158/32 75/159/32 77/160/32
f 78/161/33 80/162/33 82/163/33
f 84/164/38 93/165/38 83/166/38
f 84/167/39 95/168/39 94/169/39
f 86/170/40 95/168/40 85/171/40
f 87/172/41 96/173/41 86/170/41
f 88/174/42 97/175/42 87/176/42
f 89/177/43 98/178/43 88/174/43
f 90/179/44 99/180/44 89/177/44
f 91/181/45 100/182/45 90/179/45
f 92/183/46 101/184/46 91/181/46
f 92/185/47 93/165/47 102/186/47
f 94/187/48 103/188/48 93/165/48
f 95/168/49 104/189/49 94/169/49
f 95/168/50 106/190/50 105/191/50
f 97/192/51 106/190/51 96/173/51
f 98/193/52 107/194/52 97/195/52
f 99/196/53 108/197/53 98/193/53
f 100/198/54 109/199/54 99/200/54
f 101/201/55 110/202/55 100/198/55
f 102/203/56 111/204/56 101/201/56
f 93/165/57 112/205/57 102/186/57
f 104/206/58 113/207/58 103/188/58
f 105/208/59 114/209/59 104/206/59
f 106/190/60 115/210/60 105/191/60
f 106/211/61 117/212/61 116/213/61
f 108/197/62 117/212/62 107/194/62
f 109/214/63 118/215/63 108/197/63
f 110/202/64 119/216/64 109/199/64
f 111/204/65 120/217/65 110/202/65
f 112/218/66 121/219/66 111/204/66
f 103/188/67 122/220/67 112/205/67
f 89/221/32 85/222/32 83/223/32
f 124/224/38 133/225/38 123/226/38
f 125/227/68 134/228/68 124/229/68
f 126/230/40 135/231/40 125/227/40
f 126/230/41 137/232/41 136/233/41
f 128/234/42 137/235/42 127/236/42
f 128/234/43 139/237/43 138/238/43
f 130/239/44 139/237/44 129/240/44
f 131/241/45 140/242/45 130/239/45
f 131/241/46 142/243/46 141/244/46
f 123/226/47 142/245/47 132/246/47
f 134/247/48 143/248/48 133/225/48
f 135/231/69 144/249/69 134/228/69
f 136/233/50 145/250/50 135/231/50
f 137/232/70 146/251/70 136/233/70
f 138/252/52 147/253/52 137/254/52
f 139/255/53 148/256/53 138/252/53
f 140/257/71 149/258/71 139/259/71
f 141/260/55 150/261/55 140/257/55
f 142/262/72 151/263/72 141/260/72
f 133/225/57 152/264/57 142/245/57
f 143/248/58 154/265/58 153/266/58
f 145/267/59 154/265/59 144/268/59
f 146/251/60 155/269/60 145/250/60
f 147/253/61 156/270/61 146/271/61
f 147/253/62 158/272/62 157/273/62
f 149/274/63 158/272/63 148/256/63
f 150/261/64 159/275/64 149/258/64
f 151/263/65 160/276/65 150/261/65
f 152/277/66 161/278/66 151/263/66
f 152/264/67 153/266/67 162/279/67
f 129/280/32 125/281/32 123/282/32
f 164/283/38 173/284/38 163/285/38
f 165/286/68 174/287/68 164/288/68
f 166/289/40 175/290/40 165/286/40
f 167/291/41 176/292/41 166/289/41
f 168/293/42 177/294/42 167/295/42
f 169/296/43 178/297/43 168/293/43
f 170/298/44 179/299/44 169/296/44
f 171/300/45 180/301/45 170/298/45
f 172/302/46 181/303/46 171/300/46
f 172/304/47 173/284/47 182/305/47
f 173/284/48 184/306/48 183/307/48
f 175/290/49 184/308/49 174/287/49
f 176/292/50 185/309/50 175/290/50
f 177/310/51 186/311/51 176/292/51
f 177/312/52 188/313/52 187/314/52
f 179/315/53 188/313/53 178/316/53
f 180/317/54 189/318/54 179/319/54
f 181/320/55 190/321/55 180/317/55
f 182/322/56 191/323/56 181/320/56
f 182/305/57 183/307/57 192/324/57
f 184/306/58 193/325/58 183/307/58
f 184/306/59 195/326/59 194/327/59
f 186/311/60 195/328/60 185/309/60
f 187/314/61 196/329/61 186/330/61
f 187/314/62 198/331/62 197/332/62
f 189/333/63 198/331/63 188/313/63
f 190/321/64 199/334/64 189/318/64
f 191/323/65 200/335/65 190/321/65
f 192/336/66 201/337/66 191/323/66
f 192/324/67 193/325/67 202/338/67
f 169/339/32 165/340/32 163/341/32
f 204/342/73 205/343/73 203/344/73
f 206/345/74 207/346/74 205/347/74
f 208/348/75 209/349/75 207/346/75
f 210/350/76 211/351/76 209/352/76
f 212/353/77 213/354/77 211/351/77
f 214/355/78 215/356/78 213/357/78
f 216/358/79 217/359/79 215/356/79
f 218/360/80 203/344/80 217/361/80
f 220/362/81 221/363/81 219/364/81
f 222/365/82 223/366/82 221/367/82
f 220/368/33 224/369/33 222/370/33
f 224/371/83 225/372/83 223/373/83
f 226/374/84 219/364/84 225/375/84
f 221/376/32 225/377/32 219/378/32
f 228/379/81 229/380/81 227/381/81
f 230/382/82 231/383/82 229/384/82
f 228/385/33 232/386/33 230/387/33
f 232/388/83 233/389/83 231/390/83
f 234/391/84 227/381/84 233/392/84
f 229/393/32 233/394/32 227/395/32
f 236/396/81 237/397/81 235/398/81
f 238/399/82 239/400/82 237/401/82
f 236/402/33 240/403/33 238/404/33
f 240/405/83 241/406/83 239/407/83
f 242/408/84 235/398/84 241/409/84
f 237/410/32 241/411/32 235/412/32
f 244/413/81 245/414/81 243/415/81
f 246/416/82 247/417/82 245/418/82
f 244/419/33 248/420/33 246/421/33
f 248/422/83 249/423/83 247/424/83
f 250/425/84 243/415/84 249/426/84
f 243/427/32 247/428/32 249/429/32
f 252/430/81 253/431/81 251/432/81
f 254/433/82 255/434/82 253/435/82
f 254/436/33 258/437/33 256/438/33
f 256/439/83 257/440/83 255/441/83
f 258/442/84 251/432/84 257/443/84
f 253/444/32 257/445/32 251/446/32
f 260/447/73 261/448/73 259/449/73
f 262/450/74 263/451/74 261/452/74
f 264/453/75 265/454/75 263/451/75
f 266/455/76 267/456/76 265/457/76
f 268/458/77 269/459/77 267/456/77
f 270/460/78 271/461/78 269/462/78
f 272/463/33 268/464/33 264/465/33
f 272/466/79 273/467/79 271/461/79
f 274/468/80 259/449/80 273/469/80
f 265/470/32 269/471/32 273/472/32
f 276/473/73 277/474/73 275/475/73
f 278/476/74 279/477/74 277/478/74
f 280/479/75 281/480/75 279/477/75
f 282/481/76 283/482/76 281/483/76
f 284/484/77 285/485/77 283/482/77
f 286/486/78 287/487/78 285/488/78
f 288/489/33 284/490/33 280/491/33
f 288/492/79 289/493/79 287/487/79
f 290/494/80 275/475/80 289/495/80
f 281/496/32 285/497/32 289/498/32
f 292/499/73 293/500/73 291/501/73
f 294/502/74 295/503/74 293/504/74
f 296/505/75 297/506/75 295/503/75
f 298/507/76 299/508/76 297/509/76
f 300/510/77 301/511/77 299/508/77
f 302/512/78 303/513/78 301/514/78
f 304/515/33 300/516/33 296/517/33
f 304/518/79 305/519/79 303/513/79
f 306/520/80 291/501/80 305/521/80
f 297/522/32 301/523/32 305/524/32
f 308/525/73 309/526/73 307/527/73
f 310/528/74 311/529/74 309/530/74
f 312/531/75 313/532/75 311/529/75
f 314/533/76 315/534/76 313/535/76
f 316/536/77 317/537/77 315/534/77
f 318/538/78 319/539/78 317/540/78
f 320/541/33 316/542/33 312/543/33
f 320/544/79 321/545/79 319/539/79
f 322/546/80 307/527/80 321/547/80
f 313/548/32 317/549/32 321/550/32
f 324/551/73 325/552/73 323/553/73
f 326/554/74 327/555/74 325/556/74
f 328/557/75 329/558/75 327/555/75
f 330/559/76 331/560/76 329/561/76
f 332/562/77 333/563/77 331/560/77
f 334/564/78 335/565/78 333/566/78
f 336/567/33 332/568/33 328/569/33
f 336/570/79 337/571/79 335/565/79
f 338/572/80 323/553/80 337/573/80
f 329/574/32 333/575/32 337/576/32
f 340/577/73 341/578/73 339/579/73
f 342/580/74 343/581/74 341/582/74
f 344/583/75 345/584/75 343/581/75
f 346/585/76 347/586/76 345/587/76
f 348/588/77 349/589/77 347/586/77
f 350/590/78 351/591/78 349/592/78
f 352/593/33 348/594/33 344/595/33
f 352/596/79 353/597/79 351/591/79
f 354/598/80 339/579/80 353/599/80
f 345/600/32 349/601/32 353/602/32
f 356/603/73 357/604/73 355/605/73
f 358/606/74 359/607/74 357/608/74
f 360/609/75 361/610/75 359/607/75
f 362/611/76 363/612/76 361/613/76
f 364/614/77 365/615/77 363/612/77
f 366/616/78 367/617/78 365/618/78
f 368/619/33 364/620/33 360/621/33
f 368/622/79 369/623/79 367/617/79
f 370/624/80 355/605/80 369/625/80
f 361/626/32 365/627/32 369/628/32
f 372/629/73 373/630/73 371/631/73
f 374/632/74 375/633/74 373/634/74
f 376/635/75 377/636/75 375/633/75
f 378/637/76 379/638/76 377/639/76
f 380/640/77 381/641/77 379/638/77
f 382/642/78 383/643/78 381/644/78
f 384/645/33 380/646/33 376/647/33
f 384/648/79 385/649/79 383/643/79
f 386/650/80 371/631/80 385/651/80
f 377/652/32 381/653/32 385/654/32
f 388/655/73 389/656/73 387/657/73
f 390/658/74 391/659/74 389/660/74
f 392/661/75 393/662/75 391/659/75
f 394/663/76 395/664/76 393/665/76
f 396/666/77 397/667/77 395/664/77
f 398/668/78 399/669/78 397/670/78
f 400/671/33 396/672/33 392/673/33
f 400/674/79 401/675/79 399/669/79
f 402/676/80 387/657/80 401/677/80
f 393/678/32 397/679/32 401/680/32
f 404/681/73 405/682/73 403/683/73
f 406/684/74 407/685/74 405/686/74
f 408/687/75 409/688/75 407/685/75
f 410/689/76 411/690/76 409/691/76
f 412/692/77 413/693/77 411/690/77
f 414/694/78 415/695/78 413/696/78
f 416/697/33 412/698/33 408/699/33
f 416/700/79 417/701/79 415/695/79
f 418/702/80 403/683/80 417/703/80
f 409/704/32 413/705/32 417/706/32
f 420/707/73 421/708/73 419/709/73
f 422/710/74 423/711/74 421/712/74
f 424/713/75 425/714/75 423/711/75
f 426/715/76 427/716/76 425/717/76
f 428/718/77 429/719/77 427/716/77
f 430/720/78 431/721/78 429/722/78
f 432/723/33 428/724/33 424/725/33
f 432/726/79 433/727/79 431/721/79
f 434/728/80 419/709/80 433/729/80
f 425/730/32 429/731/32 433/732/32
f 436/733/73 437/734/73 435/735/73
f 438/736/74 439/737/74 437/738/74
f 440/739/75 441/740/75 439/737/75
f 442/741/76 443/742/76 441/743/76
f 444/744/77 445/745/77 443/742/77
f 446/746/78 447/747/78 445/748/78
f 448/749/33 444/750/33 440/751/33
f 448/752/79 449/753/79 447/747/79
f 450/754/80 435/735/80 449/755/80
f 441/756/32 445/757/32 449/758/32
f 44/74/28 46/759/28 45/75/28
f 46/77/29 50/760/29 49/78/29
f 50/80/30 48/761/30 47/81/30
f 48/83/31 44/762/31 43/84/31
f 49/86/32 47/763/32 43/87/32
f 46/89/33 44/764/33 48/90/33
f 52/92/28 54/765/28 53/93/28
f 54/95/29 58/766/29 57/96/29
f 58/98/30 56/767/30 55/99/30
f 56/101/31 52/768/31 51/102/31
f 57/104/32 55/769/32 51/105/32
f 54/107/33 52/770/33 56/108/33
f 60/110/28 62/771/28 61/111/28
f 62/113/34 66/772/34 65/114/34
f 65/116/30 66/773/30 64/117/30
f 64/119/35 60/774/35 59/120/35
f 65/122/36 63/775/36 59/123/36
f 62/125/37 60/776/37 64/126/37
f 68/128/28 70/777/28 69/129/28
f 70/131/29 74/778/29 73/132/29
f 74/134/30 72/779/30 71/135/30
f 72/137/31 68/780/31 67/138/31
f 73/140/32 71/781/32 67/141/32
f 70/143/33 68/782/33 72/144/33
f 76/146/28 78/783/28 77/147/28
f 78/149/29 82/784/29 81/150/29
f 82/152/30 80/785/30 79/153/30
f 80/155/31 76/786/31 75/156/31
f 81/158/32 79/787/32 75/159/32
f 78/161/33 76/788/33 80/162/33
f 84/164/38 94/187/38 93/165/38
f 84/167/68 85/171/68 95/168/68
f 86/170/40 96/173/40 95/168/40
f 87/172/85 97/192/85 96/173/85
f 88/174/42 98/178/42 97/175/42
f 89/177/43 99/180/43 98/178/43
f 90/179/44 100/182/44 99/180/44
f 91/181/45 101/184/45 100/182/45
f 92/183/86 102/789/86 101/184/86
f 92/185/47 83/166/47 93/165/47
f 94/187/48 104/206/48 103/188/48
f 95/168/49 105/191/49 104/189/49
f 95/168/50 96/173/50 106/190/50
f 97/192/51 107/790/51 106/190/51
f 98/193/52 108/197/52 107/194/52
f 99/196/53 109/214/53 108/197/53
f 100/198/54 110/202/54 109/199/54
f 101/201/55 111/204/55 110/202/55
f 102/203/56 112/218/56 111/204/56
f 93/165/57 103/188/57 112/205/57
f 104/206/58 114/209/58 113/207/58
f 105/208/59 115/791/59 114/209/59
f 106/190/60 116/792/60 115/210/60
f 106/211/61 107/194/61 117/212/61
f 108/197/62 118/215/62 117/212/62
f 109/214/63 119/793/63 118/215/63
f 110/202/64 120/217/64 119/216/64
f 111/204/65 121/219/65 120/217/65
f 112/218/66 122/794/66 121/219/66
f 103/188/67 113/207/67 122/220/67
f 83/223/32 92/795/32 91/796/32
f 91/796/32 90/797/32 89/221/32
f 89/221/32 88/798/32 87/799/32
f 87/799/32 86/800/32 85/222/32
f 85/222/32 84/801/32 83/223/32
f 83/223/32 91/796/32 89/221/32
f 89/221/32 87/799/32 85/222/32
f 124/224/38 134/247/38 133/225/38
f 125/227/68 135/231/68 134/228/68
f 126/230/87 136/233/87 135/231/87
f 126/230/41 127/802/41 137/232/41
f 128/234/42 138/238/42 137/235/42
f 128/234/43 129/240/43 139/237/43
f 130/239/44 140/242/44 139/237/44
f 131/241/88 141/244/88 140/242/88
f 131/241/46 132/803/46 142/243/46
f 123/226/47 133/225/47 142/245/47
f 134/247/48 144/268/48 143/248/48
f 135/231/69 145/250/69 144/249/69
f 136/233/50 146/251/50 145/250/50
f 137/232/70 147/804/70 146/251/70
f 138/252/52 148/256/52 147/253/52
f 139/255/53 149/274/53 148/256/53
f 140/257/71 150/261/71 149/258/71
f 141/260/55 151/263/55 150/261/55
f 142/262/72 152/277/72 151/263/72
f 133/225/57 143/248/57 152/264/57
f 143/248/58 144/268/58 154/265/58
f 145/267/59 155/805/59 154/265/59
f 146/251/60 156/806/60 155/269/60
f 147/253/61 157/273/61 156/270/61
f 147/253/62 148/256/62 158/272/62
f 149/274/63 159/807/63 158/272/63
f 150/261/64 160/276/64 159/275/64
f 151/263/65 161/278/65 160/276/65
f 152/277/66 162/808/66 161/278/66
f 152/264/67 143/248/67 153/266/67
f 123/282/32 132/809/32 131/810/32
f 131/810/32 130/811/32 129/280/32
f 129/280/32 128/812/32 127/813/32
f 127/813/32 126/814/32 125/281/32
f 125/281/32 124/815/32 123/282/32
f 123/282/32 131/810/32 129/280/32
f 129/280/32 127/813/32 125/281/32
f 164/283/38 174/816/38 173/284/38
f 165/286/68 175/290/68 174/287/68
f 166/289/40 176/292/40 175/290/40
f 167/291/41 177/310/41 176/292/41
f 168/293/89 178/297/89 177/294/89
f 169/296/43 179/299/43 178/297/43
f 170/298/44 180/301/44 179/299/44
f 171/300/45 181/303/45 180/301/45
f 172/302/46 182/817/46 181/303/46
f 172/304/47 163/285/47 173/284/47
f 173/284/48 174/816/48 184/306/48
f 175/290/69 185/309/69 184/308/69
f 176/292/50 186/311/50 185/309/50
f 177/310/51 187/818/51 186/311/51
f 177/312/52 178/316/52 188/313/52
f 179/315/53 189/333/53 188/313/53
f 180/317/71 190/321/71 189/318/71
f 181/320/55 191/323/55 190/321/55
f 182/322/72 192/336/72 191/323/72
f 182/305/57 173/284/57 183/307/57
f 184/306/58 194/327/58 193/325/58
f 184/306/59 185/819/59 195/326/59
f 186/311/60 196/820/60 195/328/60
f 187/314/61 197/332/61 196/329/61
f 187/314/62 188/313/62 198/331/62
f 189/333/63 199/821/63 198/331/63
f 190/321/64 200/335/64 199/334/64
f 191/323/65 201/337/65 200/335/65
f 192/336/66 202/822/66 201/337/66
f 192/324/67 183/307/67 193/325/67
f 163/341/32 172/823/32 171/824/32
f 171/824/32 170/825/32 169/339/32
f 169/339/32 168/826/32 167/827/32
f 167/827/32 166/828/32 165/340/32
f 165/340/32 164/829/32 163/341/32
f 163/341/32 171/824/32 169/339/32
f 169/339/32 167/827/32 165/340/32
f 204/342/73 206/830/73 205/343/73
f 206/345/74 208/348/74 207/346/74
f 208/348/75 210/831/75 209/349/75
f 210/350/76 212/353/76 211/351/76
f 212/353/77 214/832/77 213/354/77
f 214/355/78 216/358/78 215/356/78
f 216/358/79 218/833/79 217/359/79
f 218/360/80 204/342/80 203/344/80
f 220/362/81 222/834/81 221/363/81
f 222/365/82 224/835/82 223/366/82
f 220/368/33 226/836/33 224/369/33
f 224/371/83 226/837/83 225/372/83
f 226/374/84 220/362/84 219/364/84
f 221/376/32 223/838/32 225/377/32
f 228/379/81 230/839/81 229/380/81
f 230/382/82 232/840/82 231/383/82
f 228/385/33 234/841/33 232/386/33
f 232/388/83 234/842/83 233/389/83
f 234/391/84 228/379/84 227/381/84
f 229/393/32 231/843/32 233/394/32
f 236/396/81 238/844/81 237/397/81
f 238/399/82 240/845/82 239/400/82
f 236/402/33 242/846/33 240/403/33
f 240/405/83 242/847/83 241/406/83
f 242/408/84 236/396/84 235/398/84
f 237/410/32 239/848/32 241/411/32
f 244/413/81 246/849/81 245/414/81
f 246/416/82 248/850/82 247/417/82
f 244/419/33 250/851/33 248/420/33
f 248/422/83 250/852/83 249/423/83
f 250/425/84 244/413/84 243/415/84
f 243/427/32 245/853/32 247/428/32
f 252/430/81 254/854/81 253/431/81
f 254/433/82 256/855/82 255/434/82
f 254/436/33 252/856/33 258/437/33
f 256/439/83 258/857/83 257/440/83
f 258/442/84 252/430/84 251/432/84
f 253/444/32 255/858/32 257/445/32
f 260/447/73 262/859/73 261/448/73
f 262/450/74 264/453/74 263/451/74
f 264/453/75 266/860/75 265/454/75
f 266/455/76 268/458/76 267/456/76
f 268/458/77 270/861/77 269/459/77
f 270/460/78 272/466/78 271/461/78
f 264/465/33 262/862/33 260/863/33
f 260/863/33 274/864/33 272/463/33
f 272/463/33 270/865/33 268/464/33
f 268/464/33 266/866/33 264/465/33
f 264/465/33 260/863/33 272/463/33
f 272/466/79 274/867/79 273/467/79
f 274/468/80 260/447/80 259/449/80
f 273/472/32 259/868/32 261/869/32
f 261/869/32 263/870/32 265/470/32
f 265/470/32 267/871/32 269/471/32
f 269/471/32 271/872/32 273/472/32
f 273/472/32 261/869/32 265/470/32
f 276/473/73 278/873/73 277/474/73
f 278/476/74 280/479/74 279/477/74
f 280/479/75 282/874/75 281/480/75
f 282/481/76 284/484/76 283/482/76
f 284/484/77 286/875/77 285/485/77
f 286/486/78 288/492/78 287/487/78
f 280/491/33 278/876/33 276/877/33
f 276/877/33 290/878/33 288/489/33
f 288/489/33 286/879/33 284/490/33
f 284/490/33 282/880/33 280/491/33
f 280/491/33 276/877/33 288/489/33
f 288/492/79 290/881/79 289/493/79
f 290/494/80 276/473/80 275/475/80
f 289/498/32 275/882/32 277/883/32
f 277/883/32 279/884/32 281/496/32
f 281/496/32 283/885/32 285/497/32
f 285/497/32 287/886/32 289/498/32
f 289/498/32 277/883/32 281/496/32
f 292/499/73 294/887/73 293/500/73
f 294/502/74 296/505/74 295/503/74
f 296/505/75 298/888/75 297/506/75
f 298/507/76 300/510/76 299/508/76
f 300/510/77 302/889/77 301/511/77
f 302/512/78 304/518/78 303/513/78
f 296/517/33 294/890/33 292/891/33
f 292/891/33 306/892/33 304/515/33
f 304/515/33 302/893/33 300/516/33
f 300/516/33 298/894/33 296/517/33
f 296/517/33 292/891/33 304/515/33
f 304/518/79 306/895/79 305/519/79
f 306/520/80 292/499/80 291/501/80
f 305/524/32 291/896/32 293/897/32
f 293/897/32 295/898/32 297/522/32
f 297/522/32 299/899/32 301/523/32
f 301/523/32 303/900/32 305/524/32
f 305/524/32 293/897/32 297/522/32
f 308/525/73 310/901/73 309/526/73
f 310/528/74 312/531/74 311/529/74
f 312/531/75 314/902/75 313/532/75
f 314/533/76 316/536/76 315/534/76
f 316/536/77 318/903/77 317/537/77
f 318/538/78 320/544/78 319/539/78
f 312/543/33 310/904/33 308/905/33
f 308/905/33 322/906/33 320/541/33
f 320/541/33 318/907/33 316/542/33
f 316/542/33 314/908/33 312/543/33
f 312/543/33 308/905/33 320/541/33
f 320/544/79 322/909/79 321/545/79
f 322/546/80 308/525/80 307/527/80
f 321/550/32 307/910/32 309/911/32
f 309/911/32 311/912/32 313/548/32
f 313/548/32 315/913/32 317/549/32
f 317/549/32 319/914/32 321/550/32
f 321/550/32 309/911/32 313/548/32
f 324/551/73 326/915/73 325/552/73
f 326/554/74 328/557/74 327/555/74
f 328/557/75 330/916/75 329/558/75
f 330/559/76 332/562/76 331/560/76
f 332/562/77 334/917/77 333/563/77
f 334/564/78 336/570/78 335/565/78
f 328/569/33 326/918/33 324/919/33
f 324/919/33 338/920/33 336/567/33
f 336/567/33 334/921/33 332/568/33
f 332/568/33 330/922/33 328/569/33
f 328/569/33 324/919/33 336/567/33
f 336/570/79 338/923/79 337/571/79
f 338/572/80 324/551/80 323/553/80
f 337/576/32 323/924/32 325/925/32
f 325/925/32 327/926/32 329/574/32
f 329/574/32 331/927/32 333/575/32
f 333/575/32 335/928/32 337/576/32
f 337/576/32 325/925/32 329/574/32
f 340/577/73 342/929/73 341/578/73
f 342/580/74 344/583/74 343/581/74
f 344/583/75 346/930/75 345/584/75
f 346/585/76 348/588/76 347/586/76
f 348/588/77 350/931/77 349/589/77
f 350/590/78 352/596/78 351/591/78
f 344/595/33 342/932/33 340/933/33
f 340/933/33 354/934/33 352/593/33
f 352/593/33 350/935/33 348/594/33
f 348/594/33 346/936/33 344/595/33
f 344/595/33 340/933/33 352/593/33
f 352/596/79 354/937/79 353/597/79
f 354/598/80 340/577/80 339/579/80
f 353/602/32 339/938/32 341/939/32
f 341/939/32 343/940/32 345/600/32
f 345/600/32 347/941/32 349/601/32
f 349/601/32 351/942/32 353/602/32
f 353/602/32 341/939/32 345/600/32
f 356/603/73 358/943/73 357/604/73
f 358/606/74 360/609/74 359/607/74
f 360/609/75 362/944/75 361/610/75
f 362/611/76 364/614/76 363/612/76
f 364/614/77 366/945/77 365/615/77
f 366/616/78 368/622/78 367/617/78
f 360/621/33 358/946/33 356/947/33
f 356/947/33 370/948/33 368/619/33
f 368/619/33 366/949/33 364/620/33
f 364/620/33 362/950/33 360/621/33
f 360/621/33 356/947/33 368/619/33
f 368/622/79 370/951/79 369/623/79
f 370/624/80 356/603/80 355/605/80
f 369/628/32 355/952/32 357/953/32
f 357/953/32 359/954/32 361/626/32
f 361/626/32 363/955/32 365/627/32
f 365/627/32 367/956/32 369/628/32
f 369/628/32 357/953/32 361/626/32
f 372/629/73 374/957/73 373/630/73
f 374/632/74 376/635/74 375/633/74
f 376/635/75 378/958/75 377/636/75
f 378/637/76 380/640/76 379/638/76
f 380/640/77 382/959/77 381/641/77
f 382/642/78 384/648/78 383/643/78
f 376/647/33 374/960/33 372/961/33
f 372/961/33 386/962/33 384/645/33
f 384/645/33 382/963/33 380/646/33
f 380/646/33 378/964/33 376/647/33
f 376/647/33 372/961/33 384/645/33
f 384/648/79 386/965/79 385/649/79
f 386/650/80 372/629/80 371/631/80
f 385/654/32 371/966/32 373/967/32
f 373/967/32 375/968/32 377/652/32
f 377/652/32 379/969/32 381/653/32
f 381/653/32 383/970/32 385/654/32
f 385/654/32 373/967/32 377/652/32
f 388/655/73 390/971/73 389/656/73
f 390/658/74 392/661/74 391/659/74
f 392/661/75 394/972/75 393/662/75
f 394/663/76 396/666/76 395/664/76
f 396/666/77 398/973/77 397/667/77
f 398/668/78 400/674/78 399/669/78
f 392/673/33 390/974/33 388/975/33
f 388/975/33 402/976/33 400/671/33
f 400/671/33 398/977/33 396/672/33
f 396/672/33 394/978/33 392/673/33
f 392/673/33 388/975/33 400/671/33
f 400/674/79 402/979/79 401/675/79
f 402/676/80 388/655/80 387/657/80
f 401/680/32 387/980/32 389/981/32
f 389/981/32 391/982/32 393/678/32
f 393/678/32 395/983/32 397/679/32
f 397/679/32 399/984/32 401/680/32
f 401/680/32 389/981/32 393/678/32
f 404/681/73 406/985/73 405/682/73
f 406/684/74 408/687/74 407/685/74
f 408/687/75 410/986/75 409/688/75
f 410/689/76 412/692/76 411/690/76
f 412/692/77 414/987/77 413/693/77
f 414/694/78 416/700/78 415/695/78
f 408/699/33 406/988/33 404/989/33
f 404/989/33 418/990/33 416/697/33
f 416/697/33 414/991/33 412/698/33
f 412/698/33 410/992/33 408/699/33
f 408/699/33 404/989/33 416/697/33
f 416/700/79 418/993/79 417/701/79
f 418/702/80 404/681/80 403/683/80
f 417/706/32 403/994/32 405/995/32
f 405/995/32 407/996/32 409/704/32
f 409/704/32 411/997/32 413/705/32
f 413/705/32 415/998/32 417/706/32
f 417/706/32 405/995/32 409/704/32
f 420/707/73 422/999/73 421/708/73
f 422/710/74 424/713/74 423/711/74
f 424/713/75 426/1000/75 425/714/75
f 426/715/76 428/718/76 427/716/76
f 428/718/77 430/1001/77 429/719/77
f 430/720/78 432/726/78 431/721/78
f 424/725/33 422/1002/33 420/1003/33
f 420/1003/33 434/1004/33 432/723/33
f 432/723/33 430/1005/33 428/724/33
f 428/724/33 426/1006/33 424/725/33
f 424/725/33 420/1003/33 432/723/33
f 432/726/79 434/1007/79 433/727/79
f 434/728/80 420/707/80 419/709/80
f 433/732/32 419/1008/32 421/1009/32
f 421/1009/32 423/1010/32 425/730/32
f 425/730/32 427/1011/32 429/731/32
f 429/731/32 431/1012/32 433/732/32
f 433/732/32 421/1009/32 425/730/32
f 436/733/73 438/1013/73 437/734/73
f 438/736/74 440/739/74 439/737/74
f 440/739/75 442/1014/75 441/740/75
f 442/741/76 444/744/76 443/742/76
f 444/744/77 446/1015/77 445/745/77
f 446/746/78 448/752/78 447/747/78
f 440/751/33 438/1016/33 436/1017/33
f 436/1017/33 450/1018/33 448/749/33
f 448/749/33 446/1019/33 444/750/33
f 444/750/33 442/1020/33 440/751/33
f 440/751/33 436/1017/33 448/749/33
f 448/752/79 450/1021/79 449/753/79
f 450/754/80 436/733/80 435/735/80
f 449/758/32 435/1022/32 437/1023/32
f 437/1023/32 439/1024/32 441/756/32
f 441/756/32 443/1025/32 445/757/32
f 445/757/32 447/1026/32 449/758/32
f 449/758/32 437/1023/32 441/756/32
