# Blender 4.5.13 LTS
# www.blender.org
o gold
v 0.000000 0.000000 0.000000
v -0.079684 -0.002031 0.571101
v -0.518586 -0.003368 0.001068
v -0.241357 0.000000 -0.590757
v 0.359604 0.003264 -0.351259
v 0.441032 0.001961 0.339782
v -0.367664 0.152708 0.358556
v -0.477281 0.158499 -0.366481
v 0.080813 0.160311 -0.586134
v 0.509890 0.158854 -0.000640
v 0.239808 0.159196 0.589917
v -0.002184 0.336637 0.000892
v -0.290545 -0.001887 0.000599
v -0.046578 -0.001187 0.333830
v -0.363050 -0.003296 0.354633
v 0.216979 0.000000 0.531089
v 0.260165 0.001157 0.200438
v -0.132480 0.000000 -0.324266
v -0.416968 -0.001854 -0.321240
v 0.210361 0.001910 -0.205479
v 0.077672 0.001980 -0.556667
v 0.507793 0.003297 -0.001040
v 0.089739 -0.001188 0.667894
v 0.405534 0.001194 0.542228
v -0.505233 -0.003825 0.206415
v -0.257594 -0.003101 0.539294
v -0.425700 -0.001253 -0.569192
v -0.578381 -0.003194 -0.210777
v 0.256127 0.003083 -0.536221
v -0.087280 0.001156 -0.649596
v 0.594583 0.003283 0.216682
v 0.531277 0.004022 -0.217056
v -0.081276 0.189218 0.574110
v -0.474762 0.175144 0.001442
v -0.227635 0.185007 -0.553742
v 0.366114 0.196585 -0.358339
v 0.445092 0.188034 0.344331
v -0.229775 0.311569 0.223286
v 0.131773 0.285833 0.327830
v -0.290382 0.313410 -0.221311
v 0.043222 0.283004 -0.322135
v 0.297252 0.296671 0.000165
v 0.250000 0.000000 -0.200000
v 0.250000 0.320000 -0.200000
v 0.250000 0.000000 -0.600000
v 0.250000 0.320000 -0.600000
v 0.850000 0.000000 -0.200000
v 0.850000 0.320000 -0.200000
v 0.850000 0.000000 -0.600000
v 0.850000 0.320000 -0.600000
v 0.275000 0.300000 -0.225000
v 0.275000 0.360000 -0.225000
v 0.275000 0.300000 -0.575000
v 0.275000 0.360000 -0.575000
v 0.825000 0.300000 -0.225000
v 0.825000 0.360000 -0.225000
v 0.825000 0.300000 -0.575000
v 0.825000 0.360000 -0.575000
v 0.250000 0.259036 -0.704482
v 0.250000 0.619215 -0.530496
v 0.250000 0.280785 -0.749504
v 0.250000 0.640964 -0.575518
v 0.850000 0.259036 -0.704482
v 0.850000 0.619215 -0.530496
v 0.850000 0.280785 -0.749504
v 0.850000 0.640964 -0.575518
v 0.325000 0.000000 -0.190000
v 0.325000 0.340000 -0.190000
v 0.325000 0.000000 -0.610000
v 0.325000 0.340000 -0.610000
v 0.375000 0.000000 -0.190000
v 0.375000 0.340000 -0.190000
v 0.375000 0.000000 -0.610000
v 0.375000 0.340000 -0.610000
v 0.725000 0.000000 -0.190000
v 0.725000 0.340000 -0.190000
v 0.725000 0.000000 -0.610000
v 0.725000 0.340000 -0.610000
v 0.775000 0.000000 -0.190000
v 0.775000 0.340000 -0.190000
v 0.775000 0.000000 -0.610000
v 0.775000 0.340000 -0.610000
v -0.188324 0.020000 0.461585
v -0.197873 0.020000 0.432195
v -0.222873 0.020000 0.414032
v -0.253775 0.020000 0.414032
v -0.278775 0.020000 0.432195
v -0.288324 0.020000 0.461585
v -0.278775 0.020000 0.490974
v -0.253775 0.020000 0.509138
v -0.222873 0.020000 0.509138
v -0.197873 0.020000 0.490974
v -0.218324 0.050000 0.461585
v -0.222143 0.050000 0.449829
v -0.232143 0.050000 0.442564
v -0.244504 0.050000 0.442564
v -0.254504 0.050000 0.449829
v -0.258324 0.050000 0.461585
v -0.254504 0.050000 0.473340
v -0.244504 0.050000 0.480606
v -0.232143 0.050000 0.480606
v -0.222143 0.050000 0.473340
v -0.223324 0.130000 0.461585
v -0.226188 0.130000 0.452768
v -0.233688 0.130000 0.447319
v -0.242959 0.130000 0.447319
v -0.250459 0.130000 0.452768
v -0.253324 0.130000 0.461585
v -0.250459 0.130000 0.470402
v -0.242959 0.130000 0.475851
v -0.233688 0.130000 0.475851
v -0.226188 0.130000 0.470402
v -0.178324 0.220000 0.461585
v -0.189783 0.220000 0.426318
v -0.219783 0.220000 0.404521
v -0.256865 0.220000 0.404521
v -0.286865 0.220000 0.426318
v -0.298324 0.220000 0.461585
v -0.286865 0.220000 0.496852
v -0.256865 0.220000 0.518648
v -0.219783 0.220000 0.518648
v -0.189783 0.220000 0.496852
v 0.661577 0.020000 0.082138
v 0.652028 0.020000 0.052749
v 0.627028 0.020000 0.034585
v 0.596126 0.020000 0.034585
v 0.571126 0.020000 0.052749
v 0.561577 0.020000 0.082138
v 0.571126 0.020000 0.111527
v 0.596126 0.020000 0.129691
v 0.627028 0.020000 0.129691
v 0.652028 0.020000 0.111527
v 0.631577 0.050000 0.082138
v 0.627757 0.050000 0.070382
v 0.617757 0.050000 0.063117
v 0.605397 0.050000 0.063117
v 0.595397 0.050000 0.070382
v 0.591577 0.050000 0.082138
v 0.595397 0.050000 0.093894
v 0.605397 0.050000 0.101159
v 0.617757 0.050000 0.101159
v 0.627757 0.050000 0.093894
v 0.626577 0.130000 0.082138
v 0.623712 0.130000 0.073321
v 0.616212 0.130000 0.067872
v 0.606942 0.130000 0.067872
v 0.599442 0.130000 0.073321
v 0.596577 0.130000 0.082138
v 0.599442 0.130000 0.090955
v 0.606942 0.130000 0.096404
v 0.616212 0.130000 0.096404
v 0.623712 0.130000 0.090955
v 0.671577 0.220000 0.082138
v 0.660118 0.220000 0.046871
v 0.630118 0.220000 0.025075
v 0.593036 0.220000 0.025075
v 0.563036 0.220000 0.046871
v 0.551577 0.220000 0.082138
v 0.563036 0.220000 0.117405
v 0.593036 0.220000 0.139201
v 0.630118 0.220000 0.139201
v 0.660118 0.220000 0.117405
v 0.259885 0.020000 0.470479
v 0.250335 0.020000 0.441090
v 0.225335 0.020000 0.422926
v 0.194434 0.020000 0.422926
v 0.169434 0.020000 0.441090
v 0.159885 0.020000 0.470479
v 0.169434 0.020000 0.499868
v 0.194434 0.020000 0.518032
v 0.225335 0.020000 0.518032
v 0.250335 0.020000 0.499868
v 0.229885 0.050000 0.470479
v 0.226065 0.050000 0.458723
v 0.216065 0.050000 0.451458
v 0.203704 0.050000 0.451458
v 0.193704 0.050000 0.458723
v 0.189885 0.050000 0.470479
v 0.193704 0.050000 0.482235
v 0.203704 0.050000 0.489500
v 0.216065 0.050000 0.489500
v 0.226065 0.050000 0.482235
v 0.224885 0.130000 0.470479
v 0.222020 0.130000 0.461662
v 0.214520 0.130000 0.456213
v 0.205249 0.130000 0.456213
v 0.197749 0.130000 0.461662
v 0.194885 0.130000 0.470479
v 0.197749 0.130000 0.479296
v 0.205249 0.130000 0.484745
v 0.214520 0.130000 0.484745
v 0.222020 0.130000 0.479296
v 0.269885 0.220000 0.470479
v 0.258426 0.220000 0.435212
v 0.228426 0.220000 0.413416
v 0.191344 0.220000 0.413416
v 0.161344 0.220000 0.435212
v 0.149885 0.220000 0.470479
v 0.161344 0.220000 0.505746
v 0.191344 0.220000 0.527542
v 0.228426 0.220000 0.527542
v 0.258426 0.220000 0.505746
v -0.050000 0.330000 -0.060000
v -0.050000 0.410000 -0.060000
v 0.027782 0.330000 -0.027782
v 0.027782 0.410000 -0.027782
v 0.060000 0.330000 0.050000
v 0.060000 0.410000 0.050000
v 0.027782 0.330000 0.127782
v 0.027782 0.410000 0.127782
v -0.050000 0.330000 0.160000
v -0.050000 0.410000 0.160000
v -0.127782 0.330000 0.127782
v -0.127782 0.410000 0.127782
v -0.160000 0.330000 0.050000
v -0.160000 0.410000 0.050000
v -0.127782 0.330000 -0.027782
v -0.127782 0.410000 -0.027782
v 0.060000 0.410000 0.035000
v 0.060000 0.470000 0.049000
v 0.075000 0.410000 0.050000
v 0.061000 0.470000 0.050000
v 0.060000 0.410000 0.065000
v 0.060000 0.470000 0.051000
v 0.045000 0.410000 0.050000
v 0.059000 0.470000 0.050000
v -0.016008 0.410000 -0.069616
v -0.016008 0.470000 -0.055616
v -0.001008 0.410000 -0.054616
v -0.015008 0.470000 -0.054616
v -0.016008 0.410000 -0.039616
v -0.016008 0.470000 -0.053616
v -0.031008 0.410000 -0.054616
v -0.017008 0.470000 -0.054616
v -0.138992 0.410000 -0.029656
v -0.138992 0.470000 -0.015656
v -0.123992 0.410000 -0.014656
v -0.137992 0.470000 -0.014656
v -0.138992 0.410000 0.000344
v -0.138992 0.470000 -0.013656
v -0.153992 0.410000 -0.014656
v -0.139992 0.470000 -0.014656
v -0.138992 0.410000 0.099656
v -0.138992 0.470000 0.113656
v -0.123992 0.410000 0.114656
v -0.137992 0.470000 0.114656
v -0.138992 0.410000 0.129656
v -0.138992 0.470000 0.115656
v -0.153992 0.410000 0.114656
v -0.139992 0.470000 0.114656
v -0.016008 0.410000 0.139616
v -0.016008 0.470000 0.153616
v -0.001008 0.410000 0.154616
v -0.015008 0.470000 0.154616
v -0.016008 0.410000 0.169616
v -0.016008 0.470000 0.155616
v -0.031008 0.410000 0.154616
v -0.017008 0.470000 0.154616
v 0.864865 0.000000 0.185455
v 0.864865 0.012000 0.185455
v 0.896685 0.000000 0.198636
v 0.896685 0.012000 0.198636
v 0.909865 0.000000 0.230455
v 0.909865 0.012000 0.230455
v 0.896685 0.000000 0.262275
v 0.896685 0.012000 0.262275
v 0.864865 0.000000 0.275455
v 0.864865 0.012000 0.275455
v 0.833046 0.000000 0.262275
v 0.833046 0.012000 0.262275
v 0.819865 0.000000 0.230455
v 0.819865 0.012000 0.230455
v 0.833046 0.000000 0.198636
v 0.833046 0.012000 0.198636
v 0.972035 0.000000 0.012674
v 0.972035 0.012000 0.012674
v 1.003854 0.000000 0.025854
v 1.003854 0.012000 0.025854
v 1.017035 0.000000 0.057674
v 1.017035 0.012000 0.057674
v 1.003854 0.000000 0.089494
v 1.003854 0.012000 0.089494
v 0.972035 0.000000 0.102674
v 0.972035 0.012000 0.102674
v 0.940215 0.000000 0.089494
v 0.940215 0.012000 0.089494
v 0.927034 0.000000 0.057674
v 0.927034 0.012000 0.057674
v 0.940215 0.000000 0.025854
v 0.940215 0.012000 0.025854
v -0.592043 0.000000 -0.731282
v -0.592043 0.012000 -0.731282
v -0.560223 0.000000 -0.718102
v -0.560223 0.012000 -0.718102
v -0.547043 0.000000 -0.686282
v -0.547043 0.012000 -0.686282
v -0.560223 0.000000 -0.654462
v -0.560223 0.012000 -0.654462
v -0.592043 0.000000 -0.641282
v -0.592043 0.012000 -0.641282
v -0.623863 0.000000 -0.654462
v -0.623863 0.012000 -0.654462
v -0.637043 0.000000 -0.686282
v -0.637043 0.012000 -0.686282
v -0.623863 0.000000 -0.718102
v -0.623863 0.012000 -0.718102
v -0.578470 0.000000 -0.496293
v -0.578470 0.012000 -0.496293
v -0.546650 0.000000 -0.483113
v -0.546650 0.012000 -0.483113
v -0.533469 0.000000 -0.451293
v -0.533469 0.012000 -0.451293
v -0.546650 0.000000 -0.419474
v -0.546650 0.012000 -0.419474
v -0.578470 0.000000 -0.406293
v -0.578470 0.012000 -0.406293
v -0.610289 0.000000 -0.419474
v -0.610289 0.012000 -0.419474
v -0.623470 0.000000 -0.451293
v -0.623470 0.012000 -0.451293
v -0.610289 0.000000 -0.483113
v -0.610289 0.012000 -0.483113
v 0.790568 0.000000 -0.371654
v 0.790568 0.012000 -0.371654
v 0.822388 0.000000 -0.358474
v 0.822388 0.012000 -0.358474
v 0.835568 0.000000 -0.326654
v 0.835568 0.012000 -0.326654
v 0.822388 0.000000 -0.294834
v 0.822388 0.012000 -0.294834
v 0.790568 0.000000 -0.281654
v 0.790568 0.012000 -0.281654
v 0.758748 0.000000 -0.294834
v 0.758748 0.012000 -0.294834
v 0.745568 0.000000 -0.326654
v 0.745568 0.012000 -0.326654
v 0.758748 0.000000 -0.358474
v 0.758748 0.012000 -0.358474
v 0.338890 0.000000 -0.823185
v 0.338890 0.012000 -0.823185
v 0.370710 0.000000 -0.810004
v 0.370710 0.012000 -0.810004
v 0.383890 0.000000 -0.778185
v 0.383890 0.012000 -0.778185
v 0.370710 0.000000 -0.746365
v 0.370710 0.012000 -0.746365
v 0.338890 0.000000 -0.733185
v 0.338890 0.012000 -0.733185
v 0.307070 0.000000 -0.746365
v 0.307070 0.012000 -0.746365
v 0.293890 0.000000 -0.778185
v 0.293890 0.012000 -0.778185
v 0.307070 0.000000 -0.810004
v 0.307070 0.012000 -0.810004
v 0.775621 0.000000 0.154658
v 0.775621 0.012000 0.154658
v 0.807441 0.000000 0.167838
v 0.807441 0.012000 0.167838
v 0.820621 0.000000 0.199658
v 0.820621 0.012000 0.199658
v 0.807441 0.000000 0.231478
v 0.807441 0.012000 0.231478
v 0.775621 0.000000 0.244658
v 0.775621 0.012000 0.244658
v 0.743802 0.000000 0.231478
v 0.743802 0.012000 0.231478
v 0.730621 0.000000 0.199658
v 0.730621 0.012000 0.199658
v 0.743802 0.000000 0.167838
v 0.743802 0.012000 0.167838
v 0.723212 0.000000 -0.485134
v 0.723212 0.012000 -0.485134
v 0.755032 0.000000 -0.471954
v 0.755032 0.012000 -0.471954
v 0.768212 0.000000 -0.440134
v 0.768212 0.012000 -0.440134
v 0.755032 0.000000 -0.408314
v 0.755032 0.012000 -0.408314
v 0.723212 0.000000 -0.395134
v 0.723212 0.012000 -0.395134
v 0.691392 0.000000 -0.408314
v 0.691392 0.012000 -0.408314
v 0.678212 0.000000 -0.440134
v 0.678212 0.012000 -0.440134
v 0.691392 0.000000 -0.471954
v 0.691392 0.012000 -0.471954
v 0.441495 0.000000 -0.684412
v 0.441495 0.012000 -0.684412
v 0.473315 0.000000 -0.671232
v 0.473315 0.012000 -0.671232
v 0.486495 0.000000 -0.639412
v 0.486495 0.012000 -0.639412
v 0.473315 0.000000 -0.607592
v 0.473315 0.012000 -0.607592
v 0.441495 0.000000 -0.594412
v 0.441495 0.012000 -0.594412
v 0.409675 0.000000 -0.607592
v 0.409675 0.012000 -0.607592
v 0.396495 0.000000 -0.639412
v 0.396495 0.012000 -0.639412
v 0.409675 0.000000 -0.671232
v 0.409675 0.012000 -0.671232
v 0.317708 0.000000 0.564894
v 0.317708 0.012000 0.564894
v 0.349528 0.000000 0.578074
v 0.349528 0.012000 0.578074
v 0.362708 0.000000 0.609894
v 0.362708 0.012000 0.609894
v 0.349528 0.000000 0.641713
v 0.349528 0.012000 0.641713
v 0.317708 0.000000 0.654894
v 0.317708 0.012000 0.654894
v 0.285888 0.000000 0.641713
v 0.285888 0.012000 0.641713
v 0.272708 0.000000 0.609894
v 0.272708 0.012000 0.609894
v 0.285888 0.000000 0.578074
v 0.285888 0.012000 0.578074
v -0.899417 0.000000 -0.430316
v -0.899417 0.012000 -0.430316
v -0.867597 0.000000 -0.417136
v -0.867597 0.012000 -0.417136
v -0.854417 0.000000 -0.385316
v -0.854417 0.012000 -0.385316
v -0.867597 0.000000 -0.353496
v -0.867597 0.012000 -0.353496
v -0.899417 0.000000 -0.340316
v -0.899417 0.012000 -0.340316
v -0.931237 0.000000 -0.353496
v -0.931237 0.012000 -0.353496
v -0.944417 0.000000 -0.385316
v -0.944417 0.012000 -0.385316
v -0.931237 0.000000 -0.417136
v -0.931237 0.012000 -0.417136
v -0.801854 0.000000 -0.277349
v -0.801854 0.012000 -0.277349
v -0.770035 0.000000 -0.264169
v -0.770035 0.012000 -0.264169
v -0.756854 0.000000 -0.232349
v -0.756854 0.012000 -0.232349
v -0.770035 0.000000 -0.200529
v -0.770035 0.012000 -0.200529
v -0.801854 0.000000 -0.187349
v -0.801854 0.012000 -0.187349
v -0.833674 0.000000 -0.200529
v -0.833674 0.012000 -0.200529
v -0.846854 0.000000 -0.232349
v -0.846854 0.012000 -0.232349
v -0.833674 0.000000 -0.264169
v -0.833674 0.012000 -0.264169
vn 0.0065 -1.0000 -0.0027
vn 0.0056 -0.5163 0.8564
vn -0.8044 -0.5122 0.3009
vn -0.5669 -0.4298 -0.7028
vn 0.4848 -0.5470 -0.6825
vn 0.8830 -0.4404 0.1625
vn -0.5076 -0.5360 0.6746
vn -0.8731 -0.4829 -0.0679
vn -0.0120 -0.5237 -0.8518
vn 0.8091 -0.4863 -0.3301
vn 0.6060 -0.4896 0.6269
vn -0.7031 0.5095 0.4961
vn -0.2454 0.6386 0.7294
vn -0.3122 0.9212 0.2322
vn -0.7296 0.5977 -0.3322
vn -0.7705 0.6256 0.1224
vn -0.3060 0.9389 -0.1573
vn 0.2347 0.5697 -0.7876
vn -0.2160 0.6963 -0.6844
vn 0.1035 0.9512 -0.2906
vn 0.7737 0.6274 -0.0878
vn 0.5858 0.6543 -0.4782
vn 0.3336 0.9422 -0.0315
vn 0.3086 0.6026 0.7359
vn 0.6219 0.7095 0.3313
vn 0.1285 0.9569 0.2606
vn 0.0462 0.9989 -0.0101
vn -1.0000 -0.0000 -0.0000
vn -0.0000 -0.0000 -1.0000
vn 1.0000 -0.0000 -0.0000
vn -0.0000 -0.0000 1.0000
vn -0.0000 -1.0000 -0.0000
vn -0.0000 1.0000 -0.0000
vn -0.0000 0.4350 -0.9004
vn -0.0000 -0.4350 0.9004
vn -0.0000 -0.9004 -0.4350
vn -0.0000 0.9004 0.4350
vn 0.6892 0.6892 -0.2239
vn 0.4259 0.6892 -0.5862
vn -0.0000 0.6892 -0.7246
vn -0.4259 0.6892 -0.5862
vn -0.6892 0.6892 -0.2239
vn -0.6892 0.6892 0.2239
vn -0.4259 0.6892 0.5862
vn -0.0000 0.6892 0.7246
vn 0.4259 0.6892 0.5862
vn 0.6892 0.6892 0.2239
vn 0.9494 0.0593 -0.3085
vn 0.5867 0.0593 -0.8076
vn -0.0000 0.0593 -0.9982
vn -0.5867 0.0593 -0.8076
vn -0.9494 0.0593 -0.3085
vn -0.9494 0.0593 0.3085
vn -0.5867 0.0593 0.8076
vn -0.0000 0.0593 0.9982
vn 0.5867 0.0593 0.8076
vn 0.9494 0.0593 0.3085
vn 0.8589 -0.4294 -0.2791
vn 0.5308 -0.4294 -0.7306
vn -0.0000 -0.4294 -0.9031
vn -0.5308 -0.4294 -0.7306
vn -0.8589 -0.4294 -0.2791
vn -0.8589 -0.4294 0.2791
vn -0.5308 -0.4294 0.7306
vn -0.0000 -0.4294 0.9031
vn 0.5308 -0.4294 0.7306
vn 0.8589 -0.4294 0.2791
vn 0.3827 -0.0000 -0.9239
vn 0.9239 -0.0000 -0.3827
vn 0.9239 -0.0000 0.3827
vn 0.3827 -0.0000 0.9239
vn -0.3827 -0.0000 0.9239
vn -0.9239 -0.0000 0.3827
vn -0.9239 -0.0000 -0.3827
vn -0.3827 -0.0000 -0.9239
vn 0.6977 0.1628 -0.6977
vn 0.6977 0.1628 0.6977
vn -0.6977 0.1628 0.6977
vn -0.6977 0.1628 -0.6977
vt 0.194696 0.238623
vt 0.157294 0.354502
vt 0.091272 0.220712
vt 0.130710 0.436864
vt 0.238770 0.441133
vt 0.167786 0.114978
vt 0.282370 0.178632
vt 0.274767 0.326173
vt 0.184958 0.481874
vt 0.010097 0.206654
vt 0.043384 0.342163
vt 0.002037 0.280554
vt 0.145670 0.013362
vt 0.066366 0.098308
vt 0.078728 0.009536
vt 0.344571 0.136070
vt 0.257065 0.045393
vt 0.319290 0.063801
vt 0.330432 0.387038
vt 0.375452 0.269930
vt 0.392751 0.352814
vt 0.069388 0.414448
vt 0.002037 0.127544
vt 0.204167 0.002037
vt 0.397285 0.194531
vt 0.305170 0.456858
vt 0.719363 0.336912
vt 0.616219 0.412747
vt 0.667648 0.279740
vt 0.756784 0.077870
vt 0.756784 0.207898
vt 0.688224 0.121027
vt 0.554591 0.002037
vt 0.665833 0.010696
vt 0.567753 0.088457
vt 0.401360 0.212554
vt 0.451877 0.082242
vt 0.476824 0.203545
vt 0.500605 0.421632
vt 0.425483 0.333348
vt 0.537639 0.320148
vt 0.584573 0.200043
vt 0.832232 0.019311
vt 0.763809 0.090445
vt 0.778081 0.002037
vt 0.827750 0.136669
vt 0.772665 0.215030
vt 0.827811 0.293437
vt 0.760859 0.344372
vt 0.832232 0.409090
vt 0.376613 0.529620
vt 0.323603 0.590649
vt 0.294309 0.485949
vt 0.382222 0.654158
vt 0.306822 0.701401
vt 0.369875 0.775910
vt 0.294309 0.790952
vt 0.766350 0.697760
vt 0.829123 0.620203
vt 0.824920 0.753187
vt 0.763662 0.547044
vt 0.818655 0.491285
vt 0.760859 0.426728
vt 0.829123 0.413165
vt 0.678653 0.886638
vt 0.690707 0.761069
vt 0.748503 0.822422
vt 0.738699 0.706498
vt 0.767909 0.827177
vt 0.678652 0.647073
vt 0.266635 0.795028
vt 0.382222 0.795027
vt 0.382222 0.939529
vt 0.266635 0.939531
vt 0.002037 0.706846
vt 0.113650 0.706777
vt 0.113650 0.923531
vt 0.002037 0.923599
vt 0.836307 0.157876
vt 0.951784 0.157858
vt 0.951784 0.302360
vt 0.836307 0.302378
vt 0.259702 0.923591
vt 0.148238 0.923591
vt 0.148238 0.706838
vt 0.259702 0.706838
vt 0.401360 0.642464
vt 0.401360 0.425712
vt 0.545858 0.425707
vt 0.545858 0.642459
vt 0.692384 0.426311
vt 0.692384 0.642998
vt 0.549933 0.642394
vt 0.549933 0.425707
vt 0.782991 0.831252
vt 0.804663 0.831251
vt 0.804663 0.957691
vt 0.782991 0.957691
vt 0.696459 0.425720
vt 0.717386 0.425707
vt 0.717386 0.624398
vt 0.696459 0.624411
vt 0.401360 0.849311
vt 0.423012 0.849307
vt 0.423012 0.975746
vt 0.401360 0.975750
vt 0.742360 0.624398
vt 0.721461 0.624398
vt 0.721461 0.425707
vt 0.742360 0.425707
vt 0.401360 0.845232
vt 0.401360 0.646543
vt 0.527796 0.646539
vt 0.527796 0.845228
vt 0.674578 0.647601
vt 0.674578 0.846230
vt 0.549933 0.845702
vt 0.549933 0.647073
vt 0.808738 0.975740
vt 0.808738 0.831251
vt 0.826800 0.831253
vt 0.826800 0.975742
vt 0.148238 0.485949
vt 0.290235 0.486010
vt 0.290235 0.702763
vt 0.148238 0.702702
vt 0.963076 0.146418
vt 0.963076 0.002051
vt 0.981136 0.002037
vt 0.981136 0.146404
vt 0.144163 0.702702
vt 0.002037 0.702702
vt 0.002037 0.485949
vt 0.144163 0.485949
vt 0.955859 0.374610
vt 0.955859 0.157858
vt 0.972188 0.157889
vt 0.972188 0.374641
vt 0.135077 0.706777
vt 0.135077 0.923464
vt 0.117724 0.923589
vt 0.117724 0.706902
vt 0.833198 0.413167
vt 0.956009 0.413165
vt 0.956009 0.564892
vt 0.833198 0.564894
vt 0.466233 0.967895
vt 0.466233 0.849307
vt 0.484296 0.849318
vt 0.484296 0.967906
vt 0.833198 0.724792
vt 0.955892 0.724773
vt 0.955892 0.876500
vt 0.833198 0.876519
vt 0.510508 0.967737
vt 0.510508 0.849307
vt 0.528571 0.849307
vt 0.528571 0.967737
vt 0.959967 0.724773
vt 0.978030 0.724774
vt 0.978030 0.876496
vt 0.959967 0.876496
vt 0.960084 0.569045
vt 0.978141 0.568969
vt 0.978141 0.718544
vt 0.960084 0.718621
vt 0.833198 0.568971
vt 0.956009 0.568969
vt 0.956009 0.720697
vt 0.833198 0.720698
vt 0.488371 0.967895
vt 0.488371 0.849307
vt 0.506434 0.849318
vt 0.506434 0.967906
vt 0.836307 0.002056
vt 0.959001 0.002037
vt 0.959001 0.153764
vt 0.836307 0.153783
vt 0.549933 0.968735
vt 0.549933 0.850305
vt 0.567995 0.850305
vt 0.567995 0.968735
vt 0.960084 0.413165
vt 0.978147 0.413165
vt 0.978147 0.564888
vt 0.960084 0.564887
vt 0.760859 0.831328
vt 0.778916 0.831252
vt 0.778916 0.980827
vt 0.760859 0.980903
vt 0.275439 0.779171
vt 0.264809 0.779171
vt 0.271305 0.768849
vt 0.275557 0.768849
vt 0.868503 0.375657
vt 0.859458 0.377366
vt 0.856125 0.364218
vt 0.859743 0.363534
vt 0.848294 0.377366
vt 0.851659 0.364218
vt 0.839277 0.375657
vt 0.848053 0.363534
vt 0.925631 0.952893
vt 0.915017 0.952893
vt 0.914951 0.942232
vt 0.919196 0.942232
vt 0.986647 0.993082
vt 0.976180 0.989589
vt 0.984280 0.980585
vt 0.988466 0.981982
vt 0.969712 0.980533
vt 0.981692 0.976962
vt 0.969712 0.969373
vt 0.981692 0.972498
vt 0.976180 0.960372
vt 0.984280 0.968898
vt 0.986647 0.956968
vt 0.988466 0.967536
vt 0.272792 0.740067
vt 0.275981 0.740067
vt 0.855553 0.335867
vt 0.858267 0.335355
vt 0.852204 0.335867
vt 0.849499 0.335355
vt 0.914797 0.913364
vt 0.917982 0.913364
vt 0.910703 0.942276
vt 0.911611 0.913398
vt 0.856579 0.944149
vt 0.852967 0.943453
vt 0.852408 0.916043
vt 0.855118 0.916565
vt 0.848501 0.943453
vt 0.849059 0.916043
vt 0.844889 0.944149
vt 0.846350 0.916565
vt 0.279798 0.768978
vt 0.279162 0.740164
vt 0.263777 0.706838
vt 0.276532 0.706838
vt 0.860523 0.308503
vt 0.871378 0.306453
vt 0.847127 0.308503
vt 0.836307 0.306453
vt 0.914641 0.880594
vt 0.927378 0.880594
vt 0.901897 0.880727
vt 0.857432 0.880594
vt 0.868270 0.882682
vt 0.844036 0.880594
vt 0.833198 0.882682
vt 0.289254 0.707222
vt 0.221027 0.940146
vt 0.221027 0.951310
vt 0.214465 0.960341
vt 0.203848 0.963791
vt 0.193231 0.960342
vt 0.186670 0.951311
vt 0.186670 0.940148
vt 0.193231 0.931116
vt 0.203848 0.927666
vt 0.214465 0.931116
vt 0.926262 0.378785
vt 0.915632 0.378785
vt 0.922128 0.368464
vt 0.926380 0.368464
vt 0.459283 0.918512
vt 0.450238 0.920221
vt 0.446905 0.907073
vt 0.450523 0.906389
vt 0.439074 0.920221
vt 0.442439 0.907073
vt 0.430057 0.918512
vt 0.438833 0.906389
vt 0.955187 0.952893
vt 0.944573 0.952893
vt 0.944506 0.942232
vt 0.948752 0.942232
vt 0.385905 0.979720
vt 0.375439 0.976227
vt 0.383538 0.967223
vt 0.387725 0.968620
vt 0.368970 0.967171
vt 0.380951 0.963600
vt 0.368970 0.956011
vt 0.380951 0.959136
vt 0.375439 0.947010
vt 0.383538 0.955536
vt 0.385905 0.943606
vt 0.387725 0.954174
vt 0.923615 0.339682
vt 0.926804 0.339682
vt 0.446333 0.878722
vt 0.449047 0.878209
vt 0.442984 0.878722
vt 0.440279 0.878209
vt 0.944353 0.913364
vt 0.947537 0.913364
vt 0.940258 0.942276
vt 0.941167 0.913398
vt 0.634598 0.913861
vt 0.630985 0.913165
vt 0.630427 0.885754
vt 0.633136 0.886276
vt 0.626520 0.913165
vt 0.627078 0.885754
vt 0.622907 0.913861
vt 0.624368 0.886276
vt 0.930621 0.368593
vt 0.929985 0.339778
vt 0.914599 0.306453
vt 0.927355 0.306453
vt 0.451303 0.851358
vt 0.462158 0.849307
vt 0.437907 0.851358
vt 0.427087 0.849307
vt 0.944197 0.880594
vt 0.956933 0.880594
vt 0.931453 0.880727
vt 0.635450 0.850305
vt 0.646288 0.852393
vt 0.622054 0.850305
vt 0.611217 0.852393
vt 0.940077 0.306837
vt 0.176033 0.960342
vt 0.165416 0.963791
vt 0.154800 0.960341
vt 0.148238 0.951310
vt 0.148238 0.940147
vt 0.154800 0.931116
vt 0.165416 0.927666
vt 0.176033 0.931116
vt 0.182595 0.940148
vt 0.182595 0.951311
vt 0.884007 0.952927
vt 0.873377 0.952927
vt 0.879873 0.942606
vt 0.884125 0.942606
vt 0.907650 0.375657
vt 0.898604 0.377366
vt 0.895271 0.364218
vt 0.898889 0.363534
vt 0.887440 0.377366
vt 0.890806 0.364218
vt 0.878423 0.375657
vt 0.887199 0.363534
vt 0.702386 0.963012
vt 0.691773 0.963012
vt 0.691706 0.952351
vt 0.695951 0.952351
vt 0.672758 0.886420
vt 0.662292 0.882927
vt 0.670391 0.873922
vt 0.674578 0.875319
vt 0.655823 0.873871
vt 0.667804 0.870300
vt 0.655823 0.862711
vt 0.667804 0.865836
vt 0.662292 0.853709
vt 0.670391 0.862235
vt 0.672758 0.850305
vt 0.674578 0.860874
vt 0.881360 0.913824
vt 0.884549 0.913824
vt 0.894700 0.335867
vt 0.897413 0.335355
vt 0.891350 0.335867
vt 0.888645 0.335355
vt 0.691553 0.923483
vt 0.694737 0.923483
vt 0.687458 0.952395
vt 0.688367 0.923517
vt 0.595451 0.913860
vt 0.591839 0.913164
vt 0.591281 0.885754
vt 0.593990 0.886276
vt 0.587373 0.913164
vt 0.587931 0.885754
vt 0.583761 0.913860
vt 0.585222 0.886276
vt 0.888366 0.942734
vt 0.887730 0.913920
vt 0.872344 0.880594
vt 0.885100 0.880594
vt 0.899670 0.308503
vt 0.910525 0.306453
vt 0.886274 0.308503
vt 0.875453 0.306453
vt 0.691396 0.890713
vt 0.704133 0.890713
vt 0.678652 0.890846
vt 0.596304 0.850305
vt 0.607142 0.852393
vt 0.582908 0.850305
vt 0.572070 0.852393
vt 0.897822 0.880979
vt 0.461444 0.936776
vt 0.461444 0.947939
vt 0.454883 0.956970
vt 0.444266 0.960420
vt 0.433649 0.956971
vt 0.427087 0.947940
vt 0.427087 0.936777
vt 0.433649 0.927746
vt 0.444266 0.924296
vt 0.454883 0.927745
vt 0.572070 0.946026
vt 0.599973 0.946009
vt 0.603005 0.974133
vt 0.575102 0.974151
vt 0.607080 0.917940
vt 0.635949 0.917935
vt 0.636490 0.946073
vt 0.607621 0.946078
vt 0.635949 0.974133
vt 0.607080 0.974138
vt 0.708208 0.890713
vt 0.736074 0.890713
vt 0.739160 0.918812
vt 0.711294 0.918812
vt 0.736074 0.946911
vt 0.708208 0.946911
vt 0.640565 0.917936
vt 0.669462 0.917935
vt 0.669649 0.946046
vt 0.640753 0.946046
vt 0.669462 0.974134
vt 0.640565 0.974134
vt 0.575102 0.917953
vt 0.603005 0.917935
vt 0.391675 0.585356
vt 0.396912 0.563737
vt 0.397286 0.563731
vt 0.397286 0.585263
vt 0.892372 0.402309
vt 0.897227 0.381450
vt 0.897574 0.381548
vt 0.897574 0.403784
vt 0.396779 0.634178
vt 0.396779 0.633669
vt 0.397285 0.633662
vt 0.397285 0.634171
vt 0.532646 0.871650
vt 0.532646 0.849395
vt 0.532997 0.849307
vt 0.537909 0.870332
vt 0.386753 0.582711
vt 0.396583 0.563560
vt 0.715860 0.628486
vt 0.715860 0.636149
vt 0.708197 0.636149
vt 0.708197 0.628485
vt 0.391675 0.533615
vt 0.396911 0.511996
vt 0.397286 0.511989
vt 0.397286 0.533522
vt 0.883096 0.402309
vt 0.887951 0.381450
vt 0.888297 0.381548
vt 0.888297 0.403784
vt 0.396779 0.620407
vt 0.396779 0.619899
vt 0.397285 0.619892
vt 0.397285 0.620400
vt 0.855145 0.403784
vt 0.855145 0.381529
vt 0.855496 0.381441
vt 0.860407 0.402466
vt 0.386753 0.530970
vt 0.396583 0.511819
vt 0.704122 0.628486
vt 0.704122 0.636149
vt 0.696459 0.636149
vt 0.696459 0.628485
vt 0.391675 0.559486
vt 0.396911 0.537866
vt 0.397286 0.537860
vt 0.397286 0.559393
vt 0.873819 0.402309
vt 0.878674 0.381450
vt 0.879021 0.381548
vt 0.879021 0.403784
vt 0.396779 0.624997
vt 0.396779 0.624489
vt 0.397285 0.624482
vt 0.397285 0.624990
vt 0.386770 0.854172
vt 0.386770 0.831917
vt 0.387120 0.831830
vt 0.392032 0.852855
vt 0.386753 0.556841
vt 0.396583 0.537690
vt 0.271440 0.783245
vt 0.271440 0.790909
vt 0.263777 0.790909
vt 0.263777 0.783245
vt 0.391675 0.507744
vt 0.396911 0.486125
vt 0.397285 0.486119
vt 0.397285 0.507652
vt 0.532707 0.896584
vt 0.537562 0.875725
vt 0.537909 0.875823
vt 0.537909 0.898059
vt 0.396779 0.629588
vt 0.396779 0.629079
vt 0.397285 0.629072
vt 0.397285 0.629581
vt 0.864482 0.403784
vt 0.864482 0.381529
vt 0.864833 0.381441
vt 0.869744 0.402466
vt 0.386753 0.505100
vt 0.396583 0.485949
vt 0.727598 0.628485
vt 0.727598 0.636149
vt 0.719935 0.636149
vt 0.719935 0.628485
vt 0.391675 0.611227
vt 0.396912 0.589607
vt 0.397286 0.589601
vt 0.397286 0.611134
vt 0.386830 0.879106
vt 0.391685 0.858247
vt 0.392032 0.858345
vt 0.392032 0.880581
vt 0.396779 0.615817
vt 0.396779 0.615309
vt 0.397285 0.615302
vt 0.397285 0.615810
vt 0.845807 0.403784
vt 0.845807 0.381529
vt 0.846158 0.381441
vt 0.851070 0.402466
vt 0.386753 0.608582
vt 0.396583 0.589431
vt 0.739336 0.628485
vt 0.739336 0.636149
vt 0.731673 0.636149
vt 0.731673 0.628485
vt 0.746435 0.626660
vt 0.750621 0.626657
vt 0.751861 0.638163
vt 0.747675 0.638165
vt 0.139611 0.760909
vt 0.143942 0.760908
vt 0.144163 0.772419
vt 0.139833 0.772420
vt 0.143942 0.783899
vt 0.139611 0.783899
vt 0.386753 0.723562
vt 0.390932 0.723562
vt 0.392195 0.735057
vt 0.388015 0.735057
vt 0.390932 0.746552
vt 0.386753 0.746552
vt 0.541388 0.727734
vt 0.545722 0.727734
vt 0.545799 0.739234
vt 0.541464 0.739234
vt 0.936009 0.978334
vt 0.936009 0.965903
vt 0.944687 0.957052
vt 0.956959 0.956968
vt 0.965637 0.965699
vt 0.965637 0.978130
vt 0.956959 0.986980
vt 0.944687 0.987065
vt 0.545722 0.750724
vt 0.541388 0.750724
vt 0.747675 0.615175
vt 0.751861 0.615173
vt 0.002037 0.948914
vt 0.002037 0.936472
vt 0.010835 0.927674
vt 0.023277 0.927674
vt 0.032074 0.936472
vt 0.032074 0.948914
vt 0.023277 0.957712
vt 0.010835 0.957712
vt 0.836307 0.392928
vt 0.840493 0.392926
vt 0.841733 0.404431
vt 0.837547 0.404434
vt 0.901649 0.381450
vt 0.905979 0.381450
vt 0.906201 0.392961
vt 0.901870 0.392961
vt 0.905979 0.404440
vt 0.901649 0.404440
vt 0.746435 0.452772
vt 0.750615 0.452772
vt 0.751878 0.464267
vt 0.747698 0.464267
vt 0.750615 0.475762
vt 0.746435 0.475762
vt 0.541388 0.808930
vt 0.545722 0.808930
vt 0.545799 0.820429
vt 0.541464 0.820429
vt 0.225102 0.983146
vt 0.225102 0.970714
vt 0.233780 0.961864
vt 0.246052 0.961779
vt 0.254730 0.970510
vt 0.254730 0.982942
vt 0.246052 0.991792
vt 0.233780 0.991877
vt 0.545722 0.831920
vt 0.541388 0.831920
vt 0.837547 0.381444
vt 0.841733 0.381441
vt 0.901897 0.978208
vt 0.901897 0.965766
vt 0.910695 0.956968
vt 0.923136 0.956968
vt 0.931934 0.965766
vt 0.931934 0.978208
vt 0.923136 0.987006
vt 0.910695 0.987006
vt 0.746435 0.518389
vt 0.750621 0.518387
vt 0.751861 0.529892
vt 0.747675 0.529895
vt 0.139611 0.706778
vt 0.143942 0.706777
vt 0.144163 0.718288
vt 0.139833 0.718289
vt 0.143942 0.729767
vt 0.139611 0.729768
vt 0.386753 0.642367
vt 0.390932 0.642367
vt 0.392195 0.653862
vt 0.388015 0.653862
vt 0.390932 0.665357
vt 0.386753 0.665357
vt 0.541388 0.646539
vt 0.545722 0.646539
vt 0.545799 0.658039
vt 0.541464 0.658039
vt 0.036149 0.983153
vt 0.036149 0.970722
vt 0.044827 0.961871
vt 0.057099 0.961787
vt 0.065777 0.970518
vt 0.065777 0.982949
vt 0.057099 0.991800
vt 0.044827 0.991884
vt 0.545722 0.669529
vt 0.541388 0.669529
vt 0.747675 0.506905
vt 0.751861 0.506902
vt 0.070261 0.948914
vt 0.070261 0.936472
vt 0.079059 0.927674
vt 0.091500 0.927674
vt 0.100298 0.936472
vt 0.100298 0.948914
vt 0.091500 0.957712
vt 0.079059 0.957712
vt 0.386769 0.762114
vt 0.390955 0.762112
vt 0.392195 0.773617
vt 0.388010 0.773620
vt 0.655823 0.890495
vt 0.660154 0.890495
vt 0.660375 0.902005
vt 0.656045 0.902006
vt 0.660154 0.913485
vt 0.655823 0.913485
vt 0.531870 0.727734
vt 0.536050 0.727734
vt 0.537313 0.739229
vt 0.533133 0.739229
vt 0.536050 0.750724
vt 0.531870 0.750724
vt 0.914600 0.382860
vt 0.918934 0.382860
vt 0.919011 0.394360
vt 0.914676 0.394360
vt 0.002037 0.983153
vt 0.002037 0.970722
vt 0.010715 0.961871
vt 0.022987 0.961787
vt 0.031665 0.970518
vt 0.031665 0.982949
vt 0.022987 0.991800
vt 0.010715 0.991884
vt 0.918934 0.405850
vt 0.914600 0.405850
vt 0.388010 0.750630
vt 0.392195 0.750627
vt 0.708208 0.972227
vt 0.708208 0.959784
vt 0.717005 0.950986
vt 0.729447 0.950986
vt 0.738245 0.959784
vt 0.738245 0.972226
vt 0.729447 0.981024
vt 0.717005 0.981024
vt 0.746435 0.545457
vt 0.750621 0.545454
vt 0.751861 0.556960
vt 0.747675 0.556963
vt 0.743951 0.890714
vt 0.748281 0.890713
vt 0.748503 0.902224
vt 0.744172 0.902225
vt 0.748281 0.913703
vt 0.743951 0.913704
vt 0.386753 0.696497
vt 0.390932 0.696497
vt 0.392195 0.707992
vt 0.388015 0.707992
vt 0.390932 0.719487
vt 0.386753 0.719487
vt 0.923086 0.382860
vt 0.927420 0.382860
vt 0.927497 0.394360
vt 0.923162 0.394360
vt 0.070261 0.983153
vt 0.070261 0.970722
vt 0.078939 0.961871
vt 0.091211 0.961787
vt 0.099889 0.970518
vt 0.099889 0.982949
vt 0.091211 0.991800
vt 0.078939 0.991884
vt 0.927420 0.405850
vt 0.923086 0.405850
vt 0.747675 0.533972
vt 0.751861 0.533970
vt 0.266635 0.964846
vt 0.266635 0.952404
vt 0.275433 0.943606
vt 0.287874 0.943606
vt 0.296672 0.952404
vt 0.296672 0.964846
vt 0.287874 0.973644
vt 0.275433 0.973644
vt 0.386769 0.789182
vt 0.390955 0.789179
vt 0.392195 0.800685
vt 0.388010 0.800687
vt 0.139611 0.733844
vt 0.143942 0.733843
vt 0.144163 0.745354
vt 0.139833 0.745354
vt 0.143942 0.756833
vt 0.139611 0.756834
vt 0.386753 0.615302
vt 0.390933 0.615302
vt 0.392195 0.626797
vt 0.388015 0.626797
vt 0.390933 0.638292
vt 0.386753 0.638292
vt 0.532707 0.902133
vt 0.537041 0.902133
vt 0.537118 0.913633
vt 0.532784 0.913633
vt 0.961008 0.901960
vt 0.961008 0.889529
vt 0.969686 0.880678
vt 0.981958 0.880594
vt 0.990636 0.889325
vt 0.990636 0.901756
vt 0.981958 0.910607
vt 0.969686 0.910691
vt 0.537041 0.925123
vt 0.532707 0.925124
vt 0.388010 0.777697
vt 0.392195 0.777695
vt 0.036149 0.948914
vt 0.036149 0.936472
vt 0.044947 0.927674
vt 0.057389 0.927674
vt 0.066186 0.936472
vt 0.066186 0.948914
vt 0.057388 0.957712
vt 0.044947 0.957712
vt 0.746435 0.572525
vt 0.750621 0.572522
vt 0.751861 0.584028
vt 0.747675 0.584030
vt 0.139611 0.842106
vt 0.143942 0.842105
vt 0.144163 0.853616
vt 0.139833 0.853617
vt 0.143942 0.865095
vt 0.139611 0.865096
vt 0.531870 0.700669
vt 0.536050 0.700669
vt 0.537313 0.712164
vt 0.533133 0.712164
vt 0.536050 0.723659
vt 0.531870 0.723659
vt 0.541388 0.754799
vt 0.545722 0.754799
vt 0.545799 0.766299
vt 0.541464 0.766299
vt 0.961008 0.936132
vt 0.961008 0.923701
vt 0.969686 0.914850
vt 0.981958 0.914766
vt 0.990636 0.923497
vt 0.990636 0.935928
vt 0.981958 0.944779
vt 0.969686 0.944863
vt 0.545722 0.777789
vt 0.541388 0.777790
vt 0.747675 0.561040
vt 0.751861 0.561037
vt 0.104373 0.948914
vt 0.104373 0.936472
vt 0.113170 0.927674
vt 0.125612 0.927674
vt 0.134410 0.936472
vt 0.134410 0.948914
vt 0.125612 0.957712
vt 0.113170 0.957712
vt 0.386769 0.816249
vt 0.390955 0.816247
vt 0.392195 0.827752
vt 0.388010 0.827755
vt 0.139611 0.787975
vt 0.143942 0.787974
vt 0.144163 0.799485
vt 0.139833 0.799486
vt 0.143942 0.810964
vt 0.139611 0.810965
vt 0.386753 0.669432
vt 0.390932 0.669432
vt 0.392195 0.680927
vt 0.388015 0.680927
vt 0.390932 0.692422
vt 0.386753 0.692422
vt 0.541388 0.781864
vt 0.545722 0.781864
vt 0.545799 0.793364
vt 0.541464 0.793364
vt 0.674505 0.988453
vt 0.674505 0.976022
vt 0.683183 0.967172
vt 0.695455 0.967087
vt 0.704133 0.975818
vt 0.704133 0.988249
vt 0.695455 0.997100
vt 0.683183 0.997184
vt 0.545722 0.804855
vt 0.541388 0.804855
vt 0.388010 0.804765
vt 0.392195 0.804762
vt 0.225102 0.948907
vt 0.225102 0.936464
vt 0.233899 0.927666
vt 0.246341 0.927666
vt 0.255139 0.936464
vt 0.255139 0.948906
vt 0.246341 0.957705
vt 0.233899 0.957705
vt 0.746435 0.599592
vt 0.750621 0.599590
vt 0.751861 0.611095
vt 0.747675 0.611098
vt 0.139611 0.869171
vt 0.143942 0.869171
vt 0.144163 0.880682
vt 0.139833 0.880682
vt 0.143942 0.892161
vt 0.139611 0.892162
vt 0.531870 0.646539
vt 0.536050 0.646539
vt 0.537313 0.658034
vt 0.533133 0.658034
vt 0.536050 0.669529
vt 0.531870 0.669529
vt 0.139752 0.896236
vt 0.144087 0.896236
vt 0.144163 0.907736
vt 0.139829 0.907736
vt 0.104782 0.983153
vt 0.104782 0.970722
vt 0.113460 0.961872
vt 0.125732 0.961787
vt 0.134410 0.970518
vt 0.134410 0.982949
vt 0.125732 0.991800
vt 0.113460 0.991884
vt 0.144087 0.919226
vt 0.139752 0.919227
vt 0.747675 0.588108
vt 0.751861 0.588105
vt 0.300747 0.964846
vt 0.300747 0.952404
vt 0.309544 0.943606
vt 0.321986 0.943606
vt 0.330784 0.952404
vt 0.330784 0.964846
vt 0.321986 0.973644
vt 0.309544 0.973644
vt 0.531870 0.793354
vt 0.536056 0.793351
vt 0.537296 0.804857
vt 0.533111 0.804859
vt 0.139611 0.815040
vt 0.143942 0.815040
vt 0.144163 0.826551
vt 0.139833 0.826551
vt 0.143942 0.838030
vt 0.139611 0.838030
vt 0.746435 0.479837
vt 0.750615 0.479837
vt 0.751878 0.491332
vt 0.747698 0.491332
vt 0.750615 0.502827
vt 0.746435 0.502827
vt 0.541388 0.673604
vt 0.545722 0.673604
vt 0.545799 0.685104
vt 0.541465 0.685104
vt 0.427087 0.985861
vt 0.427087 0.973430
vt 0.435765 0.964579
vt 0.448037 0.964495
vt 0.456715 0.973226
vt 0.456715 0.985657
vt 0.448037 0.994508
vt 0.435765 0.994592
vt 0.545722 0.696594
vt 0.541388 0.696594
vt 0.533111 0.781869
vt 0.537296 0.781867
vt 0.334859 0.964846
vt 0.334859 0.952404
vt 0.343656 0.943606
vt 0.356098 0.943606
vt 0.364895 0.952404
vt 0.364895 0.964846
vt 0.356098 0.973644
vt 0.343656 0.973644
vt 0.531870 0.766286
vt 0.536056 0.766284
vt 0.537296 0.777789
vt 0.533111 0.777792
vt 0.387480 0.884656
vt 0.391810 0.884656
vt 0.392032 0.896167
vt 0.387702 0.896167
vt 0.391810 0.907646
vt 0.387480 0.907646
vt 0.746435 0.425707
vt 0.750615 0.425707
vt 0.751878 0.437202
vt 0.747698 0.437202
vt 0.750615 0.448697
vt 0.746435 0.448697
vt 0.541388 0.700669
vt 0.545722 0.700669
vt 0.545799 0.712169
vt 0.541465 0.712169
vt 0.868195 0.978368
vt 0.868195 0.965936
vt 0.876872 0.957086
vt 0.889145 0.957002
vt 0.897822 0.965732
vt 0.897822 0.978164
vt 0.889145 0.987014
vt 0.876872 0.987099
vt 0.545722 0.723659
vt 0.541388 0.723659
vt 0.533111 0.754802
vt 0.537296 0.754799
vt 0.833198 0.969464
vt 0.833198 0.957022
vt 0.841996 0.948224
vt 0.854437 0.948224
vt 0.863235 0.957022
vt 0.863235 0.969464
vt 0.854437 0.978262
vt 0.841996 0.978262
vt 0.531870 0.820421
vt 0.536056 0.820419
vt 0.537296 0.831924
vt 0.533111 0.831927
vt 0.670026 0.890495
vt 0.674356 0.890494
vt 0.674578 0.902005
vt 0.670247 0.902006
vt 0.674356 0.913485
vt 0.670026 0.913485
vt 0.531870 0.673604
vt 0.536050 0.673604
vt 0.537313 0.685099
vt 0.533133 0.685099
vt 0.536050 0.696594
vt 0.531870 0.696594
vt 0.541193 0.902133
vt 0.545528 0.902133
vt 0.545604 0.913633
vt 0.541270 0.913633
vt 0.191399 0.989232
vt 0.191399 0.976800
vt 0.200077 0.967950
vt 0.212349 0.967866
vt 0.221027 0.976596
vt 0.221027 0.989028
vt 0.212349 0.997878
vt 0.200077 0.997963
vt 0.545528 0.925123
vt 0.541193 0.925123
vt 0.533111 0.808937
vt 0.537296 0.808934
vt 0.955859 0.399956
vt 0.955859 0.387514
vt 0.964656 0.378716
vt 0.977098 0.378716
vt 0.985896 0.387514
vt 0.985895 0.399956
vt 0.977098 0.408754
vt 0.964656 0.408754
s 1
f 1/1/1 14/2/1 13/3/1
f 2/4/1 14/2/1 16/5/1
f 1/1/1 13/3/1 18/6/1
f 1/1/1 18/6/1 20/7/1
f 1/1/1 20/7/1 17/8/1
f 2/4/1 16/5/1 23/9/2
f 3/10/1 15/11/1 25/12/3
f 4/13/1 19/14/1 27/15/4
f 5/16/1 21/17/1 29/18/5
f 6/19/1 22/20/1 31/21/6
f 2/4/1 23/9/2 26/22/7
f 3/10/1 25/12/3 28/23/8
f 4/13/1 27/15/4 30/24/9
f 5/16/1 29/18/5 32/25/10
f 6/19/1 31/21/6 24/26/11
f 7/27/12 33/28/13 38/29/14
f 8/30/15 34/31/16 40/32/17
f 9/33/18 35/34/19 41/35/20
f 10/36/21 36/37/22 42/38/23
f 11/39/24 37/40/25 39/41/26
f 39/41/26 42/38/23 12/42/27
f 39/41/26 37/40/25 42/38/23
f 37/40/25 10/36/21 42/38/23
f 42/38/23 41/35/20 12/42/27
f 42/38/23 36/37/22 41/35/20
f 36/37/22 9/33/18 41/35/20
f 41/35/20 40/32/17 12/42/27
f 41/35/20 35/34/19 40/32/17
f 35/34/19 8/30/15 40/32/17
f 40/32/17 38/29/14 12/42/27
f 40/32/17 34/31/16 38/29/14
f 34/31/16 7/27/12 38/29/14
f 38/29/14 39/41/26 12/42/27
f 38/29/14 33/28/13 39/41/26
f 33/28/13 11/39/24 39/41/26
f 24/43/11 37/44/25 11/45/24
f 24/43/11 31/46/6 37/44/25
f 31/46/6 10/47/21 37/44/25
f 32/48/10 36/49/22 10/47/21
f 32/48/10 29/50/5 36/49/22
f 29/51/5 9/52/18 36/53/22
f 30/54/9 35/55/19 9/52/18
f 30/54/9 27/56/4 35/55/19
f 27/56/4 8/57/15 35/55/19
f 28/58/8 34/59/16 8/60/15
f 28/58/8 25/61/3 34/59/16
f 25/61/3 7/62/12 34/59/16
f 26/63/7 33/64/13 7/62/12
f 26/65/7 23/66/2 33/67/13
f 23/66/2 11/68/24 33/67/13
f 31/46/6 32/48/10 10/47/21
f 31/21/6 22/20/1 32/25/10
f 22/20/1 5/16/1 32/25/10
f 29/51/5 30/54/9 9/52/18
f 29/18/5 21/17/1 30/24/9
f 21/17/1 4/13/1 30/24/9
f 27/69/4 28/58/8 8/60/15
f 27/15/4 19/14/1 28/23/8
f 19/14/1 3/10/1 28/23/8
f 25/61/3 26/63/7 7/62/12
f 25/12/3 15/11/1 26/22/7
f 15/11/1 2/4/1 26/22/7
f 23/66/2 24/70/11 11/68/24
f 23/9/2 16/5/1 24/26/11
f 16/5/1 6/19/1 24/26/11
f 17/8/1 22/20/1 6/19/1
f 17/8/1 20/7/1 22/20/1
f 20/7/1 5/16/1 22/20/1
f 20/7/1 21/17/1 5/16/1
f 20/7/1 18/6/1 21/17/1
f 18/6/1 4/13/1 21/17/1
f 18/6/1 19/14/1 4/13/1
f 18/6/1 13/3/1 19/14/1
f 13/3/1 3/10/1 19/14/1
f 16/5/1 17/8/1 6/19/1
f 16/5/1 14/2/1 17/8/1
f 14/2/1 1/1/1 17/8/1
f 13/3/1 15/11/1 3/10/1
f 13/3/1 14/2/1 15/11/1
f 14/2/1 2/4/1 15/11/1
s 0
f 43/71/28 44/72/28 46/73/28 45/74/28
f 45/75/29 46/76/29 50/77/29 49/78/29
f 49/79/30 50/80/30 48/81/30 47/82/30
f 47/83/31 48/84/31 44/85/31 43/86/31
f 45/87/32 49/88/32 47/89/32 43/90/32
f 50/91/33 46/92/33 44/93/33 48/94/33
f 51/95/28 52/96/28 54/97/28 53/98/28
f 53/99/29 54/100/29 58/101/29 57/102/29
f 57/103/30 58/104/30 56/105/30 55/106/30
f 55/107/31 56/108/31 52/109/31 51/110/31
f 53/111/32 57/112/32 55/113/32 51/114/32
f 58/115/33 54/116/33 52/117/33 56/118/33
f 59/119/28 60/120/28 62/121/28 61/122/28
f 61/123/34 62/124/34 66/125/34 65/126/34
f 65/127/30 66/128/30 64/129/30 63/130/30
f 63/131/35 64/132/35 60/133/35 59/134/35
f 61/135/36 65/136/36 63/137/36 59/138/36
f 66/139/37 62/140/37 60/141/37 64/142/37
f 67/143/28 68/144/28 70/145/28 69/146/28
f 69/147/29 70/148/29 74/149/29 73/150/29
f 73/151/30 74/152/30 72/153/30 71/154/30
f 71/155/31 72/156/31 68/157/31 67/158/31
f 69/159/32 73/160/32 71/161/32 67/162/32
f 74/163/33 70/164/33 68/165/33 72/166/33
f 75/167/28 76/168/28 78/169/28 77/170/28
f 77/171/29 78/172/29 82/173/29 81/174/29
f 81/175/30 82/176/30 80/177/30 79/178/30
f 79/179/31 80/180/31 76/181/31 75/182/31
f 77/183/32 81/184/32 79/185/32 75/186/32
f 82/187/33 78/188/33 76/189/33 80/190/33
f 83/191/38 84/192/38 94/193/38 93/194/38
f 84/195/39 85/196/39 95/197/39 94/198/39
f 85/196/40 86/199/40 96/200/40 95/197/40
f 86/199/41 87/201/41 97/202/41 96/200/41
f 87/203/42 88/204/42 98/205/42 97/206/42
f 88/207/43 89/208/43 99/209/43 98/210/43
f 89/208/44 90/211/44 100/212/44 99/209/44
f 90/211/45 91/213/45 101/214/45 100/212/45
f 91/213/46 92/215/46 102/216/46 101/214/46
f 92/215/47 83/217/47 93/218/47 102/216/47
f 93/194/48 94/193/48 104/219/48 103/220/48
f 94/198/49 95/197/49 105/221/49 104/222/49
f 95/197/50 96/200/50 106/223/50 105/221/50
f 96/200/51 97/202/51 107/224/51 106/223/51
f 97/206/52 98/205/52 108/225/52 107/226/52
f 98/205/53 99/227/53 109/228/53 108/225/53
f 99/229/54 100/230/54 110/231/54 109/232/54
f 100/230/55 101/233/55 111/234/55 110/231/55
f 101/233/56 102/235/56 112/236/56 111/234/56
f 102/237/57 93/194/57 103/220/57 112/238/57
f 103/220/58 104/219/58 114/239/58 113/240/58
f 104/222/59 105/221/59 115/241/59 114/242/59
f 105/221/60 106/223/60 116/243/60 115/241/60
f 106/223/61 107/224/61 117/244/61 116/243/61
f 107/226/62 108/225/62 118/245/62 117/246/62
f 108/225/63 109/228/63 119/247/63 118/245/63
f 109/232/64 110/231/64 120/248/64 119/249/64
f 110/231/65 111/234/65 121/250/65 120/248/65
f 111/234/66 112/236/66 122/251/66 121/250/66
f 112/238/67 103/220/67 113/240/67 122/252/67
f 92/253/32 91/254/32 90/255/32 89/256/32 88/257/32 87/258/32 86/259/32 85/260/32 84/261/32 83/262/32
f 123/263/38 124/264/38 134/265/38 133/266/38
f 124/267/39 125/268/39 135/269/39 134/270/39
f 125/268/40 126/271/40 136/272/40 135/269/40
f 126/271/41 127/273/41 137/274/41 136/272/41
f 127/275/42 128/276/42 138/277/42 137/278/42
f 128/279/43 129/280/43 139/281/43 138/282/43
f 129/280/44 130/283/44 140/284/44 139/281/44
f 130/283/45 131/285/45 141/286/45 140/284/45
f 131/285/46 132/287/46 142/288/46 141/286/46
f 132/287/47 123/289/47 133/290/47 142/288/47
f 133/266/48 134/265/48 144/291/48 143/292/48
f 134/270/49 135/269/49 145/293/49 144/294/49
f 135/269/50 136/272/50 146/295/50 145/293/50
f 136/272/51 137/274/51 147/296/51 146/295/51
f 137/278/52 138/277/52 148/297/52 147/298/52
f 138/277/53 139/299/53 149/300/53 148/297/53
f 139/301/54 140/302/54 150/303/54 149/304/54
f 140/302/55 141/305/55 151/306/55 150/303/55
f 141/305/56 142/307/56 152/308/56 151/306/56
f 142/309/57 133/266/57 143/292/57 152/310/57
f 143/292/58 144/291/58 154/311/58 153/312/58
f 144/294/59 145/293/59 155/313/59 154/314/59
f 145/293/60 146/295/60 156/315/60 155/313/60
f 146/295/61 147/296/61 157/316/61 156/315/61
f 147/298/62 148/297/62 158/317/62 157/318/62
f 148/297/63 149/300/63 159/319/63 158/317/63
f 149/304/64 150/303/64 160/320/64 159/321/64
f 150/303/65 151/306/65 161/322/65 160/320/65
f 151/306/66 152/308/66 162/323/66 161/322/66
f 152/310/67 143/292/67 153/312/67 162/324/67
f 132/325/32 131/326/32 130/327/32 129/328/32 128/329/32 127/330/32 126/331/32 125/332/32 124/333/32 123/334/32
f 163/335/38 164/336/38 174/337/38 173/338/38
f 164/339/39 165/340/39 175/341/39 174/342/39
f 165/340/40 166/343/40 176/344/40 175/341/40
f 166/343/41 167/345/41 177/346/41 176/344/41
f 167/347/42 168/348/42 178/349/42 177/350/42
f 168/351/43 169/352/43 179/353/43 178/354/43
f 169/352/44 170/355/44 180/356/44 179/353/44
f 170/355/45 171/357/45 181/358/45 180/356/45
f 171/357/46 172/359/46 182/360/46 181/358/46
f 172/359/47 163/361/47 173/362/47 182/360/47
f 173/338/48 174/337/48 184/363/48 183/364/48
f 174/342/49 175/341/49 185/365/49 184/366/49
f 175/341/50 176/344/50 186/367/50 185/365/50
f 176/344/51 177/346/51 187/368/51 186/367/51
f 177/350/52 178/349/52 188/369/52 187/370/52
f 178/349/53 179/371/53 189/372/53 188/369/53
f 179/373/54 180/374/54 190/375/54 189/376/54
f 180/374/55 181/377/55 191/378/55 190/375/55
f 181/377/56 182/379/56 192/380/56 191/378/56
f 182/381/57 173/338/57 183/364/57 192/382/57
f 183/364/58 184/363/58 194/383/58 193/384/58
f 184/366/59 185/365/59 195/385/59 194/386/59
f 185/365/60 186/367/60 196/387/60 195/385/60
f 186/367/61 187/368/61 197/388/61 196/387/61
f 187/370/62 188/369/62 198/389/62 197/390/62
f 188/369/63 189/372/63 199/391/63 198/389/63
f 189/376/64 190/375/64 200/392/64 199/393/64
f 190/375/65 191/378/65 201/394/65 200/392/65
f 191/378/66 192/380/66 202/395/66 201/394/66
f 192/382/67 183/364/67 193/384/67 202/396/67
f 172/397/32 171/398/32 170/399/32 169/400/32 168/401/32 167/402/32 166/403/32 165/404/32 164/405/32 163/406/32
f 203/407/68 204/408/68 206/409/68 205/410/68
f 205/411/69 206/412/69 208/413/69 207/414/69
f 207/414/70 208/413/70 210/415/70 209/416/70
f 209/417/71 210/418/71 212/419/71 211/420/71
f 211/420/72 212/419/72 214/421/72 213/422/72
f 213/423/73 214/424/73 216/425/73 215/426/73
f 215/426/74 216/425/74 218/427/74 217/428/74
f 217/429/75 218/430/75 204/408/75 203/407/75
f 219/431/76 220/432/76 222/433/76 221/434/76
f 221/435/77 222/436/77 224/437/77 223/438/77
f 222/439/33 220/440/33 226/441/33 224/442/33
f 223/443/78 224/444/78 226/445/78 225/446/78
f 225/447/79 226/448/79 220/432/79 219/431/79
f 219/449/32 221/450/32 223/451/32 225/452/32
f 227/453/76 228/454/76 230/455/76 229/456/76
f 229/457/77 230/458/77 232/459/77 231/460/77
f 230/461/33 228/462/33 234/463/33 232/464/33
f 231/465/78 232/466/78 234/467/78 233/468/78
f 233/469/79 234/470/79 228/454/79 227/453/79
f 227/471/32 229/472/32 231/473/32 233/474/32
f 235/475/76 236/476/76 238/477/76 237/478/76
f 237/479/77 238/480/77 240/481/77 239/482/77
f 238/483/33 236/484/33 242/485/33 240/486/33
f 239/487/78 240/488/78 242/489/78 241/490/78
f 241/491/79 242/492/79 236/476/79 235/475/79
f 235/493/32 237/494/32 239/495/32 241/496/32
f 243/497/76 244/498/76 246/499/76 245/500/76
f 245/501/77 246/502/77 248/503/77 247/504/77
f 246/505/33 244/506/33 250/507/33 248/508/33
f 247/509/78 248/510/78 250/511/78 249/512/78
f 249/513/79 250/514/79 244/498/79 243/497/79
f 243/515/32 245/516/32 247/517/32 249/518/32
f 251/519/76 252/520/76 254/521/76 253/522/76
f 253/523/77 254/524/77 256/525/77 255/526/77
f 254/527/33 252/528/33 258/529/33 256/530/33
f 255/531/78 256/532/78 258/533/78 257/534/78
f 257/535/79 258/536/79 252/520/79 251/519/79
f 251/537/32 253/538/32 255/539/32 257/540/32
f 259/541/68 260/542/68 262/543/68 261/544/68
f 261/545/69 262/546/69 264/547/69 263/548/69
f 263/548/70 264/547/70 266/549/70 265/550/70
f 265/551/71 266/552/71 268/553/71 267/554/71
f 267/554/72 268/553/72 270/555/72 269/556/72
f 269/557/73 270/558/73 272/559/73 271/560/73
f 262/561/33 260/562/33 274/563/33 272/564/33 270/565/33 268/566/33 266/567/33 264/568/33
f 271/560/74 272/559/74 274/569/74 273/570/74
f 273/571/75 274/572/75 260/542/75 259/541/75
f 259/573/32 261/574/32 263/575/32 265/576/32 267/577/32 269/578/32 271/579/32 273/580/32
f 275/581/68 276/582/68 278/583/68 277/584/68
f 277/585/69 278/586/69 280/587/69 279/588/69
f 279/588/70 280/587/70 282/589/70 281/590/70
f 281/591/71 282/592/71 284/593/71 283/594/71
f 283/594/72 284/593/72 286/595/72 285/596/72
f 285/597/73 286/598/73 288/599/73 287/600/73
f 278/601/33 276/602/33 290/603/33 288/604/33 286/605/33 284/606/33 282/607/33 280/608/33
f 287/600/74 288/599/74 290/609/74 289/610/74
f 289/611/75 290/612/75 276/582/75 275/581/75
f 275/613/32 277/614/32 279/615/32 281/616/32 283/617/32 285/618/32 287/619/32 289/620/32
f 291/621/68 292/622/68 294/623/68 293/624/68
f 293/625/69 294/626/69 296/627/69 295/628/69
f 295/628/70 296/627/70 298/629/70 297/630/70
f 297/631/71 298/632/71 300/633/71 299/634/71
f 299/634/72 300/633/72 302/635/72 301/636/72
f 301/637/73 302/638/73 304/639/73 303/640/73
f 294/641/33 292/642/33 306/643/33 304/644/33 302/645/33 300/646/33 298/647/33 296/648/33
f 303/640/74 304/639/74 306/649/74 305/650/74
f 305/651/75 306/652/75 292/622/75 291/621/75
f 291/653/32 293/654/32 295/655/32 297/656/32 299/657/32 301/658/32 303/659/32 305/660/32
f 307/661/68 308/662/68 310/663/68 309/664/68
f 309/665/69 310/666/69 312/667/69 311/668/69
f 311/668/70 312/667/70 314/669/70 313/670/70
f 313/671/71 314/672/71 316/673/71 315/674/71
f 315/674/72 316/673/72 318/675/72 317/676/72
f 317/677/73 318/678/73 320/679/73 319/680/73
f 310/681/33 308/682/33 322/683/33 320/684/33 318/685/33 316/686/33 314/687/33 312/688/33
f 319/680/74 320/679/74 322/689/74 321/690/74
f 321/691/75 322/692/75 308/662/75 307/661/75
f 307/693/32 309/694/32 311/695/32 313/696/32 315/697/32 317/698/32 319/699/32 321/700/32
f 323/701/68 324/702/68 326/703/68 325/704/68
f 325/705/69 326/706/69 328/707/69 327/708/69
f 327/708/70 328/707/70 330/709/70 329/710/70
f 329/711/71 330/712/71 332/713/71 331/714/71
f 331/714/72 332/713/72 334/715/72 333/716/72
f 333/717/73 334/718/73 336/719/73 335/720/73
f 326/721/33 324/722/33 338/723/33 336/724/33 334/725/33 332/726/33 330/727/33 328/728/33
f 335/720/74 336/719/74 338/729/74 337/730/74
f 337/731/75 338/732/75 324/702/75 323/701/75
f 323/733/32 325/734/32 327/735/32 329/736/32 331/737/32 333/738/32 335/739/32 337/740/32
f 339/741/68 340/742/68 342/743/68 341/744/68
f 341/745/69 342/746/69 344/747/69 343/748/69
f 343/748/70 344/747/70 346/749/70 345/750/70
f 345/751/71 346/752/71 348/753/71 347/754/71
f 347/754/72 348/753/72 350/755/72 349/756/72
f 349/757/73 350/758/73 352/759/73 351/760/73
f 342/761/33 340/762/33 354/763/33 352/764/33 350/765/33 348/766/33 346/767/33 344/768/33
f 351/760/74 352/759/74 354/769/74 353/770/74
f 353/771/75 354/772/75 340/742/75 339/741/75
f 339/773/32 341/774/32 343/775/32 345/776/32 347/777/32 349/778/32 351/779/32 353/780/32
f 355/781/68 356/782/68 358/783/68 357/784/68
f 357/785/69 358/786/69 360/787/69 359/788/69
f 359/788/70 360/787/70 362/789/70 361/790/70
f 361/791/71 362/792/71 364/793/71 363/794/71
f 363/794/72 364/793/72 366/795/72 365/796/72
f 365/797/73 366/798/73 368/799/73 367/800/73
f 358/801/33 356/802/33 370/803/33 368/804/33 366/805/33 364/806/33 362/807/33 360/808/33
f 367/800/74 368/799/74 370/809/74 369/810/74
f 369/811/75 370/812/75 356/782/75 355/781/75
f 355/813/32 357/814/32 359/815/32 361/816/32 363/817/32 365/818/32 367/819/32 369/820/32
f 371/821/68 372/822/68 374/823/68 373/824/68
f 373/825/69 374/826/69 376/827/69 375/828/69
f 375/828/70 376/827/70 378/829/70 377/830/70
f 377/831/71 378/832/71 380/833/71 379/834/71
f 379/834/72 380/833/72 382/835/72 381/836/72
f 381/837/73 382/838/73 384/839/73 383/840/73
f 374/841/33 372/842/33 386/843/33 384/844/33 382/845/33 380/846/33 378/847/33 376/848/33
f 383/840/74 384/839/74 386/849/74 385/850/74
f 385/851/75 386/852/75 372/822/75 371/821/75
f 371/853/32 373/854/32 375/855/32 377/856/32 379/857/32 381/858/32 383/859/32 385/860/32
f 387/861/68 388/862/68 390/863/68 389/864/68
f 389/865/69 390/866/69 392/867/69 391/868/69
f 391/868/70 392/867/70 394/869/70 393/870/70
f 393/871/71 394/872/71 396/873/71 395/874/71
f 395/874/72 396/873/72 398/875/72 397/876/72
f 397/877/73 398/878/73 400/879/73 399/880/73
f 390/881/33 388/882/33 402/883/33 400/884/33 398/885/33 396/886/33 394/887/33 392/888/33
f 399/880/74 400/879/74 402/889/74 401/890/74
f 401/891/75 402/892/75 388/862/75 387/861/75
f 387/893/32 389/894/32 391/895/32 393/896/32 395/897/32 397/898/32 399/899/32 401/900/32
f 403/901/68 404/902/68 406/903/68 405/904/68
f 405/905/69 406/906/69 408/907/69 407/908/69
f 407/908/70 408/907/70 410/909/70 409/910/70
f 409/911/71 410/912/71 412/913/71 411/914/71
f 411/914/72 412/913/72 414/915/72 413/916/72
f 413/917/73 414/918/73 416/919/73 415/920/73
f 406/921/33 404/922/33 418/923/33 416/924/33 414/925/33 412/926/33 410/927/33 408/928/33
f 415/920/74 416/919/74 418/929/74 417/930/74
f 417/931/75 418/932/75 404/902/75 403/901/75
f 403/933/32 405/934/32 407/935/32 409/936/32 411/937/32 413/938/32 415/939/32 417/940/32
f 419/941/68 420/942/68 422/943/68 421/944/68
f 421/945/69 422/946/69 424/947/69 423/948/69
f 423/948/70 424/947/70 426/949/70 425/950/70
f 425/951/71 426/952/71 428/953/71 427/954/71
f 427/954/72 428/953/72 430/955/72 429/956/72
f 429/957/73 430/958/73 432/959/73 431/960/73
f 422/961/33 420/962/33 434/963/33 432/964/33 430/965/33 428/966/33 426/967/33 424/968/33
f 431/960/74 432/959/74 434/969/74 433/970/74
f 433/971/75 434/972/75 420/942/75 419/941/75
f 419/973/32 421/974/32 423/975/32 425/976/32 427/977/32 429/978/32 431/979/32 433/980/32
f 435/981/68 436/982/68 438/983/68 437/984/68
f 437/985/69 438/986/69 440/987/69 439/988/69
f 439/988/70 440/987/70 442/989/70 441/990/70
f 441/991/71 442/992/71 444/993/71 443/994/71
f 443/994/72 444/993/72 446/995/72 445/996/72
f 445/997/73 446/998/73 448/999/73 447/1000/73
f 438/1001/33 436/1002/33 450/1003/33 448/1004/33 446/1005/33 444/1006/33 442/1007/33 440/1008/33
f 447/1000/74 448/999/74 450/1009/74 449/1010/74
f 449/1011/75 450/1012/75 436/982/75 435/981/75
f 435/1013/32 437/1014/32 439/1015/32 441/1016/32 443/1017/32 445/1018/32 447/1019/32 449/1020/32
