# Blender 4.5.13 LTS
# www.blender.org
o stone
v -1.700000 0.000000 1.200000
v -1.700000 0.140000 1.200000
v -1.700000 0.000000 -1.200000
v -1.700000 0.140000 -1.200000
v 1.700000 0.000000 1.200000
v 1.700000 0.140000 1.200000
v 1.700000 0.000000 -1.200000
v 1.700000 0.140000 -1.200000
v -1.600000 0.140000 1.170000
v -1.600000 1.590000 1.170000
v -1.600000 0.140000 1.030000
v -1.600000 1.590000 1.030000
v 1.600000 0.140000 1.170000
v 1.600000 1.590000 1.170000
v 1.600000 0.140000 1.030000
v 1.600000 1.590000 1.030000
v -1.600000 0.140000 -1.030000
v -1.600000 1.590000 -1.030000
v -1.600000 0.140000 -1.170000
v -1.600000 1.590000 -1.170000
v 1.600000 0.140000 -1.030000
v 1.600000 1.590000 -1.030000
v 1.600000 0.140000 -1.170000
v 1.600000 1.590000 -1.170000
v -1.670000 0.140000 1.030000
v -1.670000 1.590000 1.030000
v -1.670000 0.140000 -1.030000
v -1.670000 1.590000 -1.030000
v -1.530000 0.140000 1.030000
v -1.530000 1.590000 1.030000
v -1.530000 0.140000 -1.030000
v -1.530000 1.590000 -1.030000
v 1.530000 0.140000 1.030000
v 1.530000 1.590000 1.030000
v 1.530000 0.140000 -1.030000
v 1.530000 1.590000 -1.030000
v 1.670000 0.140000 1.030000
v 1.670000 1.590000 1.030000
v 1.670000 0.140000 -1.030000
v 1.670000 1.590000 -1.030000
v -1.410000 0.731000 1.190000
v -1.410000 1.231000 1.190000
v -1.410000 0.731000 1.160000
v -1.410000 1.231000 1.160000
v -0.990000 0.731000 1.190000
v -0.990000 1.231000 1.190000
v -0.990000 0.731000 1.160000
v -0.990000 1.231000 1.160000
v -1.470000 0.676000 1.265000
v -1.470000 0.726000 1.265000
v -1.470000 0.676000 1.145000
v -1.470000 0.726000 1.145000
v -0.930000 0.676000 1.265000
v -0.930000 0.726000 1.265000
v -0.930000 0.676000 1.145000
v -0.930000 0.726000 1.145000
v -1.470000 1.231000 1.235000
v -1.470000 1.311000 1.235000
v -1.470000 1.231000 1.155000
v -1.470000 1.311000 1.155000
v -0.930000 1.231000 1.235000
v -0.930000 1.311000 1.235000
v -0.930000 1.231000 1.155000
v -0.930000 1.311000 1.155000
v -0.610000 0.731000 1.190000
v -0.610000 1.231000 1.190000
v -0.610000 0.731000 1.160000
v -0.610000 1.231000 1.160000
v -0.190000 0.731000 1.190000
v -0.190000 1.231000 1.190000
v -0.190000 0.731000 1.160000
v -0.190000 1.231000 1.160000
v -0.670000 0.676000 1.265000
v -0.670000 0.726000 1.265000
v -0.670000 0.676000 1.145000
v -0.670000 0.726000 1.145000
v -0.130000 0.676000 1.265000
v -0.130000 0.726000 1.265000
v -0.130000 0.676000 1.145000
v -0.130000 0.726000 1.145000
v -0.670000 1.231000 1.235000
v -0.670000 1.311000 1.235000
v -0.670000 1.231000 1.155000
v -0.670000 1.311000 1.155000
v -0.130000 1.231000 1.235000
v -0.130000 1.311000 1.235000
v -0.130000 1.231000 1.155000
v -0.130000 1.311000 1.155000
v 0.110000 0.140000 1.190000
v 0.110000 1.280000 1.190000
v 0.110000 0.140000 1.160000
v 0.110000 1.280000 1.160000
v 0.690000 0.140000 1.190000
v 0.690000 1.280000 1.190000
v 0.690000 0.140000 1.160000
v 0.690000 1.280000 1.160000
v 0.030000 0.140000 1.245000
v 0.030000 1.340000 1.245000
v 0.030000 0.140000 1.145000
v 0.030000 1.340000 1.145000
v 0.110000 0.140000 1.245000
v 0.110000 1.340000 1.245000
v 0.110000 0.140000 1.145000
v 0.110000 1.340000 1.145000
v 0.690000 0.140000 1.245000
v 0.690000 1.340000 1.245000
v 0.690000 0.140000 1.145000
v 0.690000 1.340000 1.145000
v 0.770000 0.140000 1.245000
v 0.770000 1.340000 1.245000
v 0.770000 0.140000 1.145000
v 0.770000 1.340000 1.145000
v 0.010000 1.310000 1.255000
v 0.010000 1.410000 1.255000
v 0.010000 1.310000 1.135000
v 0.010000 1.410000 1.135000
v 0.790000 1.310000 1.255000
v 0.790000 1.410000 1.255000
v 0.790000 1.310000 1.135000
v 0.790000 1.410000 1.135000
v 0.000000 0.010000 1.475000
v 0.000000 0.110000 1.475000
v 0.000000 0.010000 1.175000
v 0.000000 0.110000 1.175000
v 0.800000 0.010000 1.475000
v 0.800000 0.110000 1.475000
v 0.800000 0.010000 1.175000
v 0.800000 0.110000 1.175000
v 0.990000 0.731000 1.190000
v 0.990000 1.231000 1.190000
v 0.990000 0.731000 1.160000
v 0.990000 1.231000 1.160000
v 1.410000 0.731000 1.190000
v 1.410000 1.231000 1.190000
v 1.410000 0.731000 1.160000
v 1.410000 1.231000 1.160000
v 0.930000 0.676000 1.265000
v 0.930000 0.726000 1.265000
v 0.930000 0.676000 1.145000
v 0.930000 0.726000 1.145000
v 1.470000 0.676000 1.265000
v 1.470000 0.726000 1.265000
v 1.470000 0.676000 1.145000
v 1.470000 0.726000 1.145000
v 0.930000 1.231000 1.235000
v 0.930000 1.311000 1.235000
v 0.930000 1.231000 1.155000
v 0.930000 1.311000 1.155000
v 1.470000 1.231000 1.235000
v 1.470000 1.311000 1.235000
v 1.470000 1.231000 1.155000
v 1.470000 1.311000 1.155000
v -1.410000 0.731000 -1.160000
v -1.410000 1.231000 -1.160000
v -1.410000 0.731000 -1.190000
v -1.410000 1.231000 -1.190000
v -0.990000 0.731000 -1.160000
v -0.990000 1.231000 -1.160000
v -0.990000 0.731000 -1.190000
v -0.990000 1.231000 -1.190000
v -1.470000 0.676000 -1.145000
v -1.470000 0.726000 -1.145000
v -1.470000 0.676000 -1.265000
v -1.470000 0.726000 -1.265000
v -0.930000 0.676000 -1.145000
v -0.930000 0.726000 -1.145000
v -0.930000 0.676000 -1.265000
v -0.930000 0.726000 -1.265000
v -1.470000 1.231000 -1.155000
v -1.470000 1.311000 -1.155000
v -1.470000 1.231000 -1.235000
v -1.470000 1.311000 -1.235000
v -0.930000 1.231000 -1.155000
v -0.930000 1.311000 -1.155000
v -0.930000 1.231000 -1.235000
v -0.930000 1.311000 -1.235000
v -0.610000 0.731000 -1.160000
v -0.610000 1.231000 -1.160000
v -0.610000 0.731000 -1.190000
v -0.610000 1.231000 -1.190000
v -0.190000 0.731000 -1.160000
v -0.190000 1.231000 -1.160000
v -0.190000 0.731000 -1.190000
v -0.190000 1.231000 -1.190000
v -0.670000 0.676000 -1.145000
v -0.670000 0.726000 -1.145000
v -0.670000 0.676000 -1.265000
v -0.670000 0.726000 -1.265000
v -0.130000 0.676000 -1.145000
v -0.130000 0.726000 -1.145000
v -0.130000 0.676000 -1.265000
v -0.130000 0.726000 -1.265000
v -0.670000 1.231000 -1.155000
v -0.670000 1.311000 -1.155000
v -0.670000 1.231000 -1.235000
v -0.670000 1.311000 -1.235000
v -0.130000 1.231000 -1.155000
v -0.130000 1.311000 -1.155000
v -0.130000 1.231000 -1.235000
v -0.130000 1.311000 -1.235000
v 0.190000 0.731000 -1.160000
v 0.190000 1.231000 -1.160000
v 0.190000 0.731000 -1.190000
v 0.190000 1.231000 -1.190000
v 0.610000 0.731000 -1.160000
v 0.610000 1.231000 -1.160000
v 0.610000 0.731000 -1.190000
v 0.610000 1.231000 -1.190000
v 0.130000 0.676000 -1.145000
v 0.130000 0.726000 -1.145000
v 0.130000 0.676000 -1.265000
v 0.130000 0.726000 -1.265000
v 0.670000 0.676000 -1.145000
v 0.670000 0.726000 -1.145000
v 0.670000 0.676000 -1.265000
v 0.670000 0.726000 -1.265000
v 0.130000 1.231000 -1.155000
v 0.130000 1.311000 -1.155000
v 0.130000 1.231000 -1.235000
v 0.130000 1.311000 -1.235000
v 0.670000 1.231000 -1.155000
v 0.670000 1.311000 -1.155000
v 0.670000 1.231000 -1.235000
v 0.670000 1.311000 -1.235000
v 0.990000 0.731000 -1.160000
v 0.990000 1.231000 -1.160000
v 0.990000 0.731000 -1.190000
v 0.990000 1.231000 -1.190000
v 1.410000 0.731000 -1.160000
v 1.410000 1.231000 -1.160000
v 1.410000 0.731000 -1.190000
v 1.410000 1.231000 -1.190000
v 0.930000 0.676000 -1.145000
v 0.930000 0.726000 -1.145000
v 0.930000 0.676000 -1.265000
v 0.930000 0.726000 -1.265000
v 1.470000 0.676000 -1.145000
v 1.470000 0.726000 -1.145000
v 1.470000 0.676000 -1.265000
v 1.470000 0.726000 -1.265000
v 0.930000 1.231000 -1.155000
v 0.930000 1.311000 -1.155000
v 0.930000 1.231000 -1.235000
v 0.930000 1.311000 -1.235000
v 1.470000 1.231000 -1.155000
v 1.470000 1.311000 -1.155000
v 1.470000 1.231000 -1.235000
v 1.470000 1.311000 -1.235000
v -1.690000 0.731000 0.943333
v -1.690000 1.231000 0.943333
v -1.690000 0.731000 0.523333
v -1.690000 1.231000 0.523333
v -1.660000 0.731000 0.943333
v -1.660000 1.231000 0.943333
v -1.660000 0.731000 0.523333
v -1.660000 1.231000 0.523333
v -1.765000 0.676000 1.003333
v -1.765000 0.726000 1.003333
v -1.765000 0.676000 0.463333
v -1.765000 0.726000 0.463333
v -1.645000 0.676000 1.003333
v -1.645000 0.726000 1.003333
v -1.645000 0.676000 0.463333
v -1.645000 0.726000 0.463333
v -1.735000 1.231000 1.003333
v -1.735000 1.311000 1.003333
v -1.735000 1.231000 0.463333
v -1.735000 1.311000 0.463333
v -1.655000 1.231000 1.003333
v -1.655000 1.311000 1.003333
v -1.655000 1.231000 0.463333
v -1.655000 1.311000 0.463333
v -1.690000 0.731000 0.210000
v -1.690000 1.231000 0.210000
v -1.690000 0.731000 -0.210000
v -1.690000 1.231000 -0.210000
v -1.660000 0.731000 0.210000
v -1.660000 1.231000 0.210000
v -1.660000 0.731000 -0.210000
v -1.660000 1.231000 -0.210000
v -1.765000 0.676000 0.270000
v -1.765000 0.726000 0.270000
v -1.765000 0.676000 -0.270000
v -1.765000 0.726000 -0.270000
v -1.645000 0.676000 0.270000
v -1.645000 0.726000 0.270000
v -1.645000 0.676000 -0.270000
v -1.645000 0.726000 -0.270000
v -1.735000 1.231000 0.270000
v -1.735000 1.311000 0.270000
v -1.735000 1.231000 -0.270000
v -1.735000 1.311000 -0.270000
v -1.655000 1.231000 0.270000
v -1.655000 1.311000 0.270000
v -1.655000 1.231000 -0.270000
v -1.655000 1.311000 -0.270000
v -1.825000 0.561000 0.250000
v -1.825000 0.681000 0.250000
v -1.825000 0.561000 -0.250000
v -1.825000 0.681000 -0.250000
v -1.685000 0.561000 0.250000
v -1.685000 0.681000 0.250000
v -1.685000 0.561000 -0.250000
v -1.685000 0.681000 -0.250000
v -1.828027 0.641886 0.210768
v -1.858878 0.680067 0.163111
v -1.787599 0.665441 0.147542
v -1.775754 0.685171 0.218186
v -1.823756 0.691487 0.260791
v -1.873629 0.690701 0.221156
v -1.826495 0.734446 0.126957
v -1.774312 0.732159 0.177949
v -1.784301 0.748162 0.244317
v -1.852777 0.744836 0.238960
v -1.883459 0.741661 0.178412
v -1.821749 0.785225 0.188435
v -1.825016 0.731665 0.200000
v -1.809695 0.747857 0.178656
v -1.798848 0.747259 0.208326
v -1.824855 0.748320 0.225359
v -1.848782 0.748488 0.207883
v -1.843610 0.745316 0.174718
v -1.795021 0.776772 0.190063
v -1.804178 0.778549 0.228287
v -1.846813 0.779731 0.230419
v -1.850215 0.774248 0.191972
v -1.825212 0.779510 0.162980
v -1.824979 0.799849 0.200000
v -1.828274 0.633019 0.109287
v -1.856465 0.680612 0.059466
v -1.794932 0.679345 0.062540
v -1.757361 0.674618 0.128721
v -1.827391 0.690124 0.158249
v -1.885897 0.684689 0.121178
v -1.822702 0.731065 0.044013
v -1.754066 0.741647 0.075332
v -1.794703 0.740260 0.139029
v -1.855826 0.743453 0.138405
v -1.887452 0.744591 0.073482
v -1.822036 0.781595 0.091593
v -1.825207 0.720422 0.109725
v -1.853765 0.738567 0.083007
v -1.813448 0.735923 0.071607
v -1.788395 0.743153 0.105057
v -1.817573 0.754150 0.127133
v -1.853807 0.748783 0.123467
v -1.833279 0.768636 0.069757
v -1.802984 0.770337 0.082065
v -1.801192 0.779567 0.114065
v -1.835572 0.783950 0.125984
v -1.850037 0.773207 0.096541
v -1.824830 0.794350 0.092007
v -1.832422 0.630607 0.008862
v -1.840153 0.681012 -0.047215
v -1.776414 0.672512 -0.028622
v -1.778472 0.679059 0.044961
v -1.853919 0.685838 0.068206
v -1.888063 0.686049 -0.001146
v -1.797258 0.735138 -0.065430
v -1.747741 0.741567 0.001404
v -1.807291 0.746048 0.055181
v -1.868828 0.745719 0.025819
v -1.861657 0.736164 -0.035422
v -1.817677 0.790315 -0.008743
v -1.825894 0.728045 -0.002888
v -1.799102 0.745680 0.007671
v -1.825958 0.741365 0.031981
v -1.853313 0.746448 0.007370
v -1.843686 0.747956 -0.027192
v -1.803127 0.744423 -0.031424
v -1.809886 0.771551 0.021995
v -1.844155 0.775517 0.027518
v -1.853734 0.777998 -0.008511
v -1.823963 0.782250 -0.034611
v -1.790793 0.778581 -0.008905
v -1.824064 0.795511 0.003024
v -1.829453 0.652305 -0.105174
v -1.776137 0.682155 -0.106592
v -1.800243 0.667393 -0.037178
v -1.870277 0.682736 -0.065369
v -1.876169 0.688716 -0.132161
v -1.811314 0.680853 -0.171301
v -1.776078 0.732305 -0.069251
v -1.837246 0.737975 -0.036202
v -1.890598 0.749724 -0.091151
v -1.850289 0.755544 -0.164172
v -1.779544 0.739375 -0.134768
v -1.819848 0.778909 -0.094013
v -1.825117 0.727600 -0.099620
v -1.840577 0.747894 -0.120519
v -1.805875 0.743931 -0.127130
v -1.789490 0.742394 -0.088861
v -1.824574 0.746553 -0.070274
v -1.859399 0.743106 -0.088023
v -1.825422 0.775311 -0.129446
v -1.798025 0.775032 -0.109392
v -1.806480 0.776583 -0.075603
v -1.846326 0.780033 -0.069749
v -1.858209 0.778401 -0.110417
v -1.824871 0.797853 -0.100419
v -1.821728 0.650503 -0.204601
v -1.799266 0.670038 -0.132681
v -1.866065 0.679886 -0.170554
v -1.869261 0.683038 -0.234676
v -1.803640 0.683994 -0.265204
v -1.768387 0.686529 -0.202537
v -1.842955 0.733701 -0.145190
v -1.882856 0.736008 -0.197407
v -1.844419 0.741910 -0.250799
v -1.786050 0.740512 -0.227929
v -1.770925 0.745162 -0.157635
v -1.829009 0.785136 -0.194362
v -1.826566 0.726129 -0.200628
v -1.800192 0.745099 -0.216315
v -1.801903 0.744077 -0.180414
v -1.837505 0.745166 -0.170856
v -1.863130 0.744035 -0.202826
v -1.832736 0.747323 -0.228408
v -1.792571 0.775429 -0.197596
v -1.815537 0.777730 -0.165251
v -1.846339 0.774678 -0.185967
v -1.849753 0.779136 -0.220990
v -1.810250 0.779676 -0.234376
v -1.823704 0.789856 -0.199481
v 1.660000 0.731000 0.943333
v 1.660000 1.231000 0.943333
v 1.660000 0.731000 0.523333
v 1.660000 1.231000 0.523333
v 1.690000 0.731000 0.943333
v 1.690000 1.231000 0.943333
v 1.690000 0.731000 0.523333
v 1.690000 1.231000 0.523333
v 1.645000 0.676000 1.003333
v 1.645000 0.726000 1.003333
v 1.645000 0.676000 0.463333
v 1.645000 0.726000 0.463333
v 1.765000 0.676000 1.003333
v 1.765000 0.726000 1.003333
v 1.765000 0.676000 0.463333
v 1.765000 0.726000 0.463333
v 1.655000 1.231000 1.003333
v 1.655000 1.311000 1.003333
v 1.655000 1.231000 0.463333
v 1.655000 1.311000 0.463333
v 1.735000 1.231000 1.003333
v 1.735000 1.311000 1.003333
v 1.735000 1.231000 0.463333
v 1.735000 1.311000 0.463333
v -1.820000 1.282000 1.380000
v -1.820000 1.429988 1.542787
v -1.820000 2.829597 -0.026907
v -1.820000 2.977586 0.135880
v 1.820000 1.282000 1.380000
v 1.820000 1.429988 1.542787
v 1.820000 2.829597 -0.026907
v 1.820000 2.977586 0.135880
v -1.820000 1.284872 1.363502
v -1.820000 1.355994 1.340393
v -1.820000 1.355994 1.340393
v 1.820000 1.355994 1.340393
v -1.820000 1.284872 1.363502
v 1.820000 1.284872 1.363502
v -1.820000 1.240916 1.424002
v 1.820000 1.240916 1.424002
v -1.820000 1.240916 1.498784
v 1.820000 1.240916 1.498784
v -1.820000 1.284872 1.559284
v 1.820000 1.284872 1.559284
v -1.820000 1.355994 1.582393
v 1.820000 1.355994 1.582393
v -1.820000 1.427116 1.559284
v 1.820000 1.427116 1.559284
v -1.820000 1.471072 1.498784
v 1.820000 1.471072 1.498784
v -1.820000 1.471072 1.424002
v 1.820000 1.471072 1.424002
v -1.820000 1.427116 1.363502
v 1.820000 1.427116 1.363502
v 1.820000 1.284872 1.363502
v 1.820000 1.355994 1.340393
v -1.820000 1.240916 1.424002
v 1.820000 1.240916 1.424002
v -1.820000 1.240916 1.498784
v 1.820000 1.240916 1.498784
v -1.820000 1.284872 1.559284
v 1.820000 1.427116 1.363502
v 1.820000 1.284872 1.559284
v -1.820000 1.355994 1.582393
v 1.820000 1.355994 1.582393
v -1.820000 1.427116 1.559284
v 1.820000 1.427116 1.559284
v -1.820000 1.471072 1.498784
v 1.820000 1.471072 1.498784
v 1.820000 1.471072 1.424002
v -1.820000 1.471072 1.424002
v -1.820000 1.427116 1.363502
v -1.820000 2.829597 0.026907
v -1.820000 2.977586 -0.135880
v -1.820000 1.282000 -1.380000
v -1.820000 1.429988 -1.542787
v 1.820000 2.829597 0.026907
v 1.820000 2.977586 -0.135880
v 1.820000 1.282000 -1.380000
v 1.820000 1.429988 -1.542787
v -1.820000 1.284872 -1.559284
v -1.820000 1.355994 -1.582393
v -1.820000 1.355994 -1.582393
v 1.820000 1.355994 -1.582393
v -1.820000 1.284872 -1.559284
v 1.820000 1.284872 -1.559284
v -1.820000 1.240916 -1.498784
v 1.820000 1.240916 -1.498784
v -1.820000 1.240916 -1.424002
v 1.820000 1.240916 -1.424002
v -1.820000 1.284872 -1.363502
v 1.820000 1.284872 -1.363502
v -1.820000 1.355994 -1.340393
v 1.820000 1.355994 -1.340393
v -1.820000 1.427116 -1.363502
v 1.820000 1.427116 -1.363502
v -1.820000 1.471072 -1.424002
v 1.820000 1.471072 -1.424002
v -1.820000 1.471072 -1.498784
v 1.820000 1.471072 -1.498784
v -1.820000 1.427116 -1.559284
v 1.820000 1.427116 -1.559284
v 1.820000 1.284872 -1.559284
v 1.820000 1.355994 -1.582393
v -1.820000 1.240916 -1.498784
v 1.820000 1.240916 -1.498784
v -1.820000 1.240916 -1.424002
v 1.820000 1.240916 -1.424002
v -1.820000 1.284872 -1.363502
v 1.820000 1.427116 -1.559284
v 1.820000 1.284872 -1.363502
v -1.820000 1.355994 -1.340393
v 1.820000 1.355994 -1.340393
v -1.820000 1.427116 -1.363502
v 1.820000 1.427116 -1.363502
v -1.820000 1.471072 -1.424002
v 1.820000 1.471072 -1.424002
v 1.820000 1.471072 -1.498784
v -1.820000 1.471072 -1.498784
v -1.820000 1.427116 -1.559284
v -1.480000 1.590000 1.100000
v -1.480000 1.590000 -1.100000
v -1.480000 2.800000 0.000000
v -1.600000 1.590000 1.100000
v -1.600000 1.590000 -1.100000
v -1.600000 2.800000 -0.000000
v 1.600000 1.590000 1.100000
v 1.600000 1.590000 -1.100000
v 1.600000 2.800000 0.000000
v 1.480000 1.590000 1.100000
v 1.480000 1.590000 -1.100000
v 1.480000 2.800000 -0.000000
v -1.820000 2.765954 -0.129443
v -1.820000 2.860000 -0.160000
v -1.820000 2.860000 -0.160000
v 1.820000 2.860000 -0.160000
v -1.820000 2.765954 -0.129443
v 1.820000 2.765954 -0.129443
v -1.820000 2.707831 -0.049443
v 1.820000 2.707831 -0.049443
v -1.820000 2.707831 0.049443
v 1.820000 2.707831 0.049443
v -1.820000 2.765954 0.129443
v 1.820000 2.765954 0.129443
v -1.820000 2.860000 0.160000
v 1.820000 2.860000 0.160000
v -1.820000 2.954046 0.129443
v 1.820000 2.954046 0.129443
v -1.820000 3.012169 0.049443
v 1.820000 3.012169 0.049443
v -1.820000 3.012169 -0.049443
v 1.820000 3.012169 -0.049443
v -1.820000 2.954046 -0.129443
v 1.820000 2.954046 -0.129443
v 1.820000 2.765954 -0.129443
v 1.820000 2.860000 -0.160000
v -1.820000 2.707831 -0.049443
v 1.820000 2.707831 -0.049443
v -1.820000 2.707831 0.049443
v 1.820000 2.707831 0.049443
v -1.820000 2.765954 0.129443
v 1.820000 2.954046 -0.129443
v 1.820000 2.765954 0.129443
v -1.820000 2.860000 0.160000
v 1.820000 2.860000 0.160000
v -1.820000 2.954046 0.129443
v 1.820000 2.954046 0.129443
v -1.820000 3.012169 0.049443
v 1.820000 3.012169 0.049443
v 1.820000 3.012169 -0.049443
v -1.820000 3.012169 -0.049443
v -1.820000 2.954046 -0.129443
v -2.075000 0.000000 0.437512
v -2.075000 1.590000 0.437512
v -2.075000 0.000000 -0.062488
v -2.075000 1.590000 -0.062488
v -1.525000 0.000000 0.437512
v -1.525000 1.590000 0.437512
v -1.525000 0.000000 -0.062488
v -1.525000 1.590000 -0.062488
v -1.980000 0.000000 0.387512
v -1.980000 3.250000 0.387512
v -1.980000 0.000000 -0.012488
v -1.980000 3.250000 -0.012488
v -1.560000 0.000000 0.387512
v -1.560000 3.250000 0.387512
v -1.560000 0.000000 -0.012488
v -1.560000 3.250000 -0.012488
v -2.030000 3.210000 0.437512
v -2.030000 3.290000 0.437512
v -2.030000 3.210000 -0.062488
v -2.030000 3.290000 -0.062488
v -1.510000 3.210000 0.437512
v -1.510000 3.290000 0.437512
v -1.510000 3.210000 -0.062488
v -1.510000 3.290000 -0.062488
v -1.770000 3.290000 0.222512
v -1.770000 3.450000 0.232512
v -1.731109 3.290000 0.238621
v -1.738180 3.450000 0.245692
v -1.715000 3.290000 0.277512
v -1.725000 3.450000 0.277512
v -1.731109 3.290000 0.316403
v -1.738180 3.450000 0.309332
v -1.770000 3.290000 0.332512
v -1.770000 3.450000 0.322512
v -1.808891 3.290000 0.316403
v -1.801820 3.450000 0.309332
v -1.825000 3.290000 0.277512
v -1.815000 3.450000 0.277512
v -1.808891 3.290000 0.238621
v -1.801820 3.450000 0.245692
v -1.770000 3.290000 0.042512
v -1.770000 3.450000 0.052512
v -1.731109 3.290000 0.058621
v -1.738180 3.450000 0.065692
v -1.715000 3.290000 0.097512
v -1.725000 3.450000 0.097512
v -1.731109 3.290000 0.136403
v -1.738180 3.450000 0.129332
v -1.770000 3.290000 0.152512
v -1.770000 3.450000 0.142512
v -1.808891 3.290000 0.136403
v -1.801820 3.450000 0.129332
v -1.825000 3.290000 0.097512
v -1.815000 3.450000 0.097512
v -1.808891 3.290000 0.058621
v -1.801820 3.450000 0.065692
v 1.670000 0.140000 0.840000
v 1.670000 1.090000 0.840000
v 1.670000 0.140000 0.700000
v 1.670000 1.090000 0.700000
v 2.620000 0.140000 0.840000
v 2.620000 1.090000 0.840000
v 2.620000 0.140000 0.700000
v 2.620000 1.090000 0.700000
v 1.670000 0.140000 -0.700000
v 1.670000 1.090000 -0.700000
v 1.670000 0.140000 -0.840000
v 1.670000 1.090000 -0.840000
v 2.620000 0.140000 -0.700000
v 2.620000 1.090000 -0.700000
v 2.620000 0.140000 -0.840000
v 2.620000 1.090000 -0.840000
v 1.600000 0.140000 0.700000
v 1.600000 1.090000 0.700000
v 1.600000 0.140000 -0.700000
v 1.600000 1.090000 -0.700000
v 1.740000 0.140000 0.700000
v 1.740000 1.090000 0.700000
v 1.740000 0.140000 -0.700000
v 1.740000 1.090000 -0.700000
v 2.550000 0.140000 0.700000
v 2.550000 1.090000 0.700000
v 2.550000 0.140000 -0.700000
v 2.550000 1.090000 -0.700000
v 2.690000 0.140000 0.700000
v 2.690000 1.090000 0.700000
v 2.690000 0.140000 -0.700000
v 2.690000 1.090000 -0.700000
v 1.561647 1.467620 0.920000
v 1.585846 1.533304 0.920000
v 1.561647 1.467620 -0.920000
v 1.585846 1.533304 -0.920000
v 2.704154 1.046696 0.920000
v 2.728354 1.112380 0.920000
v 2.704154 1.046696 -0.920000
v 2.728354 1.112380 -0.920000
v 1.895000 0.145000 0.865000
v 1.895000 0.995000 0.865000
v 1.895000 0.145000 0.835000
v 1.895000 0.995000 0.835000
v 2.395000 0.145000 0.865000
v 2.395000 0.995000 0.865000
v 2.395000 0.145000 0.835000
v 2.395000 0.995000 0.835000
vn -1.0000 -0.0000 -0.0000
vn -0.0000 -0.0000 -1.0000
vn 1.0000 -0.0000 -0.0000
vn -0.0000 -0.0000 1.0000
vn -0.0000 -1.0000 -0.0000
vn -0.0000 1.0000 -0.0000
vn -0.2763 -0.8294 -0.4856
vn -0.7360 -0.6740 -0.0636
vn 0.6244 -0.7731 0.1112
vn 0.4536 -0.6519 0.6077
vn -0.4938 -0.5960 0.6332
vn -0.9285 -0.3268 -0.1761
vn -0.2745 -0.4137 -0.8681
vn 0.9823 -0.1382 -0.1261
vn 0.6306 -0.2229 0.7435
vn -0.6219 -0.0179 0.7829
vn -0.6738 -0.0866 -0.7338
vn 0.6914 0.1811 -0.6994
vn 0.9883 0.0804 0.1293
vn -0.0897 0.3350 0.9379
vn -0.8789 0.1954 0.4351
vn -0.4151 0.7169 -0.5601
vn 0.5652 0.6141 -0.5508
vn 0.7396 0.6711 -0.0505
vn -0.0851 0.8031 0.5897
vn -0.5849 0.7696 0.2560
vn 0.5498 -0.8066 -0.2172
vn 0.1251 -0.8316 -0.5411
vn 0.3086 -0.7959 0.5208
vn -0.3779 -0.7728 0.5099
vn -0.5805 -0.8142 -0.0126
vn 0.1349 -0.3858 -0.9126
vn 0.8877 -0.3199 -0.3310
vn 0.4883 -0.4087 0.7710
vn -0.5203 -0.4778 0.7078
vn -0.9802 -0.1406 -0.1394
vn 0.6649 -0.0433 -0.7456
vn 0.9725 0.0176 0.2322
vn 0.0460 -0.1275 0.9908
vn -0.9961 -0.0009 0.0883
vn -0.7599 0.1961 -0.6197
vn 0.4568 0.7784 -0.4305
vn 0.6299 0.7681 0.1152
vn 0.0514 0.8156 0.5763
vn -0.7056 0.7076 -0.0385
vn -0.5944 0.7064 -0.3844
vn 0.0200 -0.7173 -0.6965
vn -0.6727 -0.6868 -0.2754
vn 0.5435 -0.7571 -0.3626
vn 0.1724 -0.6427 0.7465
vn -0.3895 -0.5960 0.7022
vn -0.8599 -0.3314 -0.3882
vn 0.0408 -0.3175 -0.9474
vn 0.7786 -0.4139 -0.4716
vn 0.4032 0.0863 0.9110
vn -0.5369 0.0275 0.8432
vn -0.4145 -0.0014 -0.9101
vn 0.4253 -0.0941 -0.9002
vn 0.7813 0.3649 0.5064
vn 0.0089 0.3529 0.9356
vn -0.8518 0.3126 0.4204
vn -0.1841 0.6751 -0.7144
vn 0.2218 0.6669 -0.7114
vn 0.5353 0.7650 0.3582
vn 0.0333 0.7629 0.6456
vn -0.5297 0.8033 0.2721
vn -0.1764 -0.8916 -0.4170
vn -0.6452 -0.7409 0.1864
vn 0.4982 -0.8459 -0.1903
vn 0.4008 -0.4902 0.7740
vn -0.0228 -0.4544 0.8905
vn -0.9924 0.1189 -0.0311
vn -0.2787 -0.2218 -0.9344
vn 0.8054 -0.0659 -0.5890
vn 0.6073 0.0170 0.7943
vn -0.0976 -0.0206 0.9950
vn -0.7860 0.2965 -0.5424
vn 0.3629 0.1682 -0.9165
vn 0.9192 0.3616 -0.1558
vn 0.3453 0.2435 0.9064
vn -0.8630 0.4284 0.2677
vn -0.6107 0.6233 -0.4885
vn 0.2804 0.5737 -0.7695
vn 0.6662 0.7058 -0.2409
vn 0.2375 0.9053 0.3522
vn -0.6388 0.7687 0.0333
vn 0.0985 -0.7333 -0.6727
vn -0.5593 -0.6534 -0.5102
vn 0.6332 -0.7692 0.0861
vn 0.1540 -0.6949 0.7025
vn -0.6938 -0.6350 0.3397
vn -0.6947 -0.1192 -0.7094
vn 0.1948 -0.4480 -0.8725
vn 0.9120 -0.4055 0.0616
vn 0.2928 -0.0199 0.9560
vn -0.8935 0.0891 0.4402
vn -0.4218 0.0293 -0.9062
vn 0.8046 -0.0782 -0.5886
vn 0.6670 0.1765 0.7239
vn -0.3825 0.4685 0.7964
vn -0.9146 0.3693 -0.1647
vn -0.3244 0.6168 -0.7172
vn 0.5490 0.6891 -0.4730
vn 0.4652 0.7613 0.4516
vn -0.2794 0.7675 0.5769
vn -0.7147 0.6735 -0.1888
vn 0.4281 -0.8440 0.3232
vn 0.5580 -0.8293 -0.0308
vn -0.4429 -0.8378 0.3192
vn -0.5965 -0.7772 -0.2001
vn -0.1301 -0.8116 -0.5696
vn 0.9541 -0.2858 -0.0890
vn 0.6768 -0.1201 0.7263
vn -0.6715 -0.2674 0.6911
vn -0.9508 -0.1493 -0.2714
vn -0.1152 -0.1463 -0.9825
vn 0.8436 0.0560 0.5340
vn 0.1801 0.2212 0.9585
vn -0.9574 0.1195 0.2628
vn -0.6603 0.2247 -0.7166
vn 0.6081 0.2721 -0.7458
vn 0.5285 0.6967 0.4851
vn 0.1928 0.6767 0.7106
vn -0.5551 0.8066 0.2031
vn -0.3926 0.8671 -0.3066
vn 0.3398 0.8873 -0.3118
vn 0.4881 -0.8726 -0.0161
vn 0.4696 -0.8501 -0.2382
vn -0.3289 -0.8822 0.3371
vn -0.6084 -0.7934 -0.0174
vn -0.3711 -0.8112 -0.4520
vn 0.8660 -0.1785 -0.4672
vn 0.9366 -0.2100 0.2806
vn -0.4059 -0.2250 0.8858
vn -0.9614 -0.2682 0.0608
vn -0.5240 -0.1943 -0.8293
vn 0.9982 0.0353 -0.0490
vn 0.4786 0.2392 0.8448
vn -0.7105 0.0545 0.7015
vn -0.8737 0.1116 -0.4734
vn 0.4240 0.3027 -0.8536
vn 0.7186 0.6945 0.0369
vn 0.3922 0.6910 0.6073
vn -0.3172 0.8164 0.4826
vn -0.3824 0.9136 -0.1383
vn 0.3682 0.8224 -0.4337
vn -0.2028 -0.7732 -0.6009
vn -0.4863 -0.7787 -0.3964
vn 0.4299 -0.8758 -0.2193
vn 0.1832 -0.8273 0.5310
vn -0.1912 -0.8229 0.5350
vn -0.8066 -0.2970 -0.5110
vn -0.2053 -0.1986 -0.9583
vn 0.9192 -0.0074 -0.3938
vn 0.4541 -0.1169 0.8833
vn -0.4133 -0.2821 0.8658
vn -0.5022 -0.0040 -0.8647
vn 0.5662 0.2959 -0.7694
vn 0.9056 0.3687 0.2097
vn 0.1519 0.0832 0.9849
vn -0.9423 0.2014 0.2673
vn -0.2691 0.7631 -0.5875
vn 0.4186 0.7134 -0.5620
vn 0.6674 0.7327 0.1334
vn 0.1540 0.8037 0.5747
vn -0.5270 0.8413 0.1202
vn -0.3234 -0.8828 0.3408
vn 0.5576 -0.8285 0.0509
vn -0.5592 -0.8289 -0.0129
vn -0.2311 -0.8207 -0.5225
vn 0.5454 -0.7918 -0.2748
vn 0.9094 -0.2274 0.3483
vn -0.5051 -0.1808 0.8439
vn -0.9619 -0.2712 0.0346
vn -0.4199 -0.0706 -0.9048
vn 0.8694 0.0534 -0.4912
vn 0.1218 0.2712 0.9548
vn -0.7923 0.0538 0.6078
vn -0.8069 0.1871 -0.5602
vn 0.3362 0.4434 -0.8309
vn 0.9531 0.2089 -0.2189
vn 0.0156 0.6887 0.7249
vn -0.6030 0.6306 0.4886
vn -0.6158 0.6976 -0.3662
vn 0.2647 0.7293 -0.6309
vn 0.6341 0.7505 -0.1861
vn 0.5858 -0.8105 0.0049
vn 0.1788 -0.7627 -0.6216
vn 0.1274 -0.8137 0.5671
vn -0.4263 -0.8250 0.3709
vn -0.3510 -0.7804 -0.5174
vn 0.3010 -0.3713 -0.8784
vn 0.9633 -0.2657 0.0383
vn 0.2368 -0.3178 0.9181
vn -0.7789 0.0850 0.6213
vn -0.6260 -0.1567 -0.7639
vn 0.9023 0.0382 -0.4293
vn 0.8157 0.0718 0.5740
vn -0.5580 0.2397 0.7944
vn -0.8988 0.4152 0.1405
vn -0.3212 0.0487 -0.9458
vn 0.4233 0.9005 -0.0995
vn 0.3991 0.8901 0.2201
vn -0.3440 0.8562 0.3854
vn -0.4838 0.8610 0.1568
vn -0.1216 0.9393 -0.3209
vn -0.0000 0.7399 -0.6727
vn -0.0000 -0.7399 0.6727
vn -0.0000 -0.6727 -0.7399
vn -0.0000 0.6727 0.7399
vn -0.0000 -0.5878 -0.8090
vn -0.0000 -0.9511 -0.3090
vn -0.0000 -0.9511 0.3090
vn -0.0000 -0.5878 0.8090
vn -0.0000 0.5878 0.8090
vn -0.0000 0.9511 0.3090
vn -0.0000 0.9511 -0.3090
vn -0.0000 0.5878 -0.8090
vn -0.0000 -0.7399 -0.6727
vn -0.0000 0.7399 0.6727
vn -0.0000 -0.6727 0.7399
vn -0.0000 0.6727 -0.7399
vn 0.3820 0.0576 -0.9223
vn 0.9223 0.0576 -0.3820
vn 0.9223 0.0576 0.3820
vn 0.3820 0.0576 0.9223
vn -0.3820 0.0576 0.9223
vn -0.9223 0.0576 0.3820
vn -0.9223 0.0576 -0.3820
vn -0.3820 0.0576 -0.9223
vn -0.9383 0.3457 -0.0000
vn 0.9383 -0.3457 -0.0000
vn -0.3457 -0.9383 -0.0000
vn 0.3457 0.9383 -0.0000
vn 0.3821 0.0576 -0.9223
vn 0.9223 0.0576 0.3821
vt 0.948500 0.602891
vt 0.958690 0.428244
vt 0.958690 0.602898
vt 0.869417 0.696654
vt 0.859224 0.940940
vt 0.859224 0.696672
vt 0.958366 0.699787
vt 0.948174 0.874508
vt 0.948174 0.699789
vt 0.830971 0.941382
vt 0.841163 0.693855
vt 0.841163 0.941383
vt 0.184535 0.003272
vt 0.359267 0.250765
vt 0.184535 0.250769
vt 0.178000 0.250798
vt 0.003268 0.003268
vt 0.178000 0.003269
vt 0.488325 0.809335
vt 0.498514 0.914868
vt 0.488325 0.914874
vt 0.703745 0.003268
vt 0.598183 0.233347
vt 0.598183 0.003448
vt 0.217988 0.807116
vt 0.228180 0.912677
vt 0.217988 0.912675
vt 0.484542 0.520679
vt 0.590108 0.287716
vt 0.590108 0.520684
vt 0.879453 0.699933
vt 0.889646 0.932871
vt 0.879453 0.932871
vt 0.908019 0.932756
vt 0.897827 0.699787
vt 0.908019 0.699787
vt 0.471602 0.809335
vt 0.481790 0.914868
vt 0.471602 0.914874
vt 0.702205 0.287712
vt 0.596644 0.517791
vt 0.596644 0.287892
vt 0.234715 0.807116
vt 0.244907 0.912677
vt 0.234715 0.912675
vt 0.486082 0.236235
vt 0.591648 0.003272
vt 0.591648 0.236239
vt 0.931446 0.699787
vt 0.941639 0.932726
vt 0.931446 0.932726
vt 0.924911 0.932756
vt 0.914718 0.699787
vt 0.924911 0.699787
vt 0.596637 0.677131
vt 0.702177 0.527291
vt 0.702177 0.677202
vt 0.505049 0.809328
vt 0.515107 0.914907
vt 0.505049 0.914889
vt 0.590102 0.527219
vt 0.484542 0.677202
vt 0.484542 0.527234
vt 0.460425 0.560127
vt 0.470617 0.665693
vt 0.460425 0.665693
vt 0.194726 0.807116
vt 0.184535 0.957094
vt 0.184535 0.807116
vt 0.761841 0.802319
vt 0.751649 0.952297
vt 0.751649 0.802319
vt 0.184535 0.692045
vt 0.290075 0.542204
vt 0.290075 0.692116
vt 0.521642 0.809328
vt 0.531700 0.914907
vt 0.521642 0.914889
vt 0.108827 0.529739
vt 0.003268 0.679722
vt 0.003268 0.529755
vt 0.888406 0.003268
vt 0.898599 0.108834
vt 0.888406 0.108834
vt 0.211452 0.807116
vt 0.201261 0.957094
vt 0.201261 0.807116
vt 0.418451 0.802524
vt 0.408259 0.952502
vt 0.408259 0.802524
vt 0.992530 0.834413
vt 0.994713 0.870804
vt 0.992530 0.870806
vt 0.090559 0.897726
vt 0.120734 0.934178
vt 0.090559 0.934126
vt 0.989945 0.519922
vt 0.992129 0.556322
vt 0.989945 0.556322
vt 0.260217 0.698653
vt 0.290794 0.735054
vt 0.260217 0.735055
vt 0.243434 0.965061
vt 0.245618 0.995634
vt 0.243434 0.995634
vt 0.376706 0.990416
vt 0.374521 0.959839
vt 0.376706 0.959839
vt 0.784394 0.986450
vt 0.788033 0.977720
vt 0.788033 0.986453
vt 0.989631 0.049629
vt 0.985991 0.088431
vt 0.985991 0.049635
vt 0.175083 0.973049
vt 0.171443 0.981786
vt 0.171443 0.973050
vt 0.460425 0.711542
vt 0.464065 0.672229
vt 0.464065 0.711542
vt 0.611909 0.924724
vt 0.620646 0.964032
vt 0.611909 0.964033
vt 0.575349 0.957104
vt 0.566613 0.917790
vt 0.575349 0.917790
vt 0.879453 0.985261
vt 0.885275 0.991080
vt 0.879453 0.991084
vt 0.985995 0.834411
vt 0.980171 0.873217
vt 0.980171 0.834421
vt 0.477426 0.982532
vt 0.471602 0.988356
vt 0.471602 0.982532
vt 0.965228 0.648747
vt 0.971052 0.609434
vt 0.971052 0.648747
vt 0.115279 0.940713
vt 0.121103 0.980022
vt 0.115279 0.980022
vt 0.464052 0.970794
vt 0.458227 0.931480
vt 0.464052 0.931480
vt 0.991532 0.199473
vt 0.993716 0.235865
vt 0.991532 0.235866
vt 0.596637 0.881737
vt 0.626811 0.918189
vt 0.596637 0.918137
vt 0.990813 0.358284
vt 0.992997 0.394684
vt 0.990813 0.394684
vt 0.803319 0.649512
vt 0.833896 0.685913
vt 0.803319 0.685914
vt 0.252154 0.965061
vt 0.254338 0.995634
vt 0.252154 0.995634
vt 0.195438 0.994207
vt 0.193254 0.963630
vt 0.195438 0.963630
vt 0.982461 0.305005
vt 0.986100 0.296274
vt 0.986100 0.305007
vt 0.332350 0.951142
vt 0.328710 0.989944
vt 0.328710 0.951148
vt 0.636987 0.975986
vt 0.633347 0.984723
vt 0.633347 0.975987
vt 0.328710 0.944607
vt 0.332350 0.905294
vt 0.332350 0.944607
vt 0.660670 0.924790
vt 0.669406 0.964098
vt 0.660670 0.964098
vt 0.012004 0.959624
vt 0.003268 0.920310
vt 0.012004 0.920310
vt 0.931446 0.985114
vt 0.937268 0.990933
vt 0.931446 0.990937
vt 0.984278 0.360690
vt 0.978454 0.399495
vt 0.978454 0.360700
vt 0.492698 0.982574
vt 0.486874 0.988399
vt 0.486874 0.982575
vt 0.968997 0.195853
vt 0.974822 0.156540
vt 0.974822 0.195853
vt 0.065808 0.940713
vt 0.071632 0.980022
vt 0.065808 0.980022
vt 0.970726 0.920357
vt 0.964902 0.881043
vt 0.970726 0.881044
vt 0.847699 0.783383
vt 0.849882 0.866358
vt 0.847699 0.866359
vt 0.645398 0.792203
vt 0.687067 0.875267
vt 0.645398 0.875196
vt 0.847699 0.693854
vt 0.849883 0.776846
vt 0.847699 0.776846
vt 0.596637 0.792204
vt 0.638863 0.875200
vt 0.596637 0.875201
vt 0.869400 0.947475
vt 0.871584 0.989695
vt 0.869400 0.989695
vt 0.924729 0.981516
vt 0.922545 0.939291
vt 0.924729 0.939291
vt 0.552051 0.874103
vt 0.559328 0.961442
vt 0.552051 0.961447
vt 0.171443 0.879143
vt 0.177190 0.966514
vt 0.171443 0.966504
vt 0.947915 0.315349
vt 0.955195 0.402710
vt 0.947915 0.402709
vt 0.171443 0.785243
vt 0.177267 0.872607
vt 0.171443 0.872608
vt 0.614820 0.970568
vt 0.608997 0.977848
vt 0.608997 0.970568
vt 0.430811 0.969230
vt 0.424987 0.976511
vt 0.424987 0.969230
vt 0.955185 0.156545
vt 0.962462 0.243883
vt 0.955185 0.243888
vt 0.583340 0.809328
vt 0.589088 0.896699
vt 0.583340 0.896689
vt 0.538236 0.874098
vt 0.545516 0.961459
vt 0.538236 0.961458
vt 0.846254 0.527219
vt 0.852078 0.614584
vt 0.846254 0.614584
vt 0.651221 0.970634
vt 0.645398 0.977914
vt 0.645398 0.970634
vt 0.602461 0.970568
vt 0.596637 0.977848
vt 0.596637 0.970568
vt 0.471602 0.975991
vt 0.478880 0.967264
vt 0.478880 0.975996
vt 0.729808 0.913688
vt 0.722528 0.969738
vt 0.722528 0.913700
vt 0.954031 0.410412
vt 0.946751 0.419149
vt 0.946751 0.410413
vt 0.708712 0.970474
vt 0.715993 0.913688
vt 0.715993 0.970474
vt 0.313438 0.905294
vt 0.322174 0.962072
vt 0.313438 0.962072
vt 0.935308 0.146028
vt 0.926572 0.089242
vt 0.935308 0.089242
vt 0.836539 0.147456
vt 0.843818 0.125629
vt 0.843818 0.147461
vt 0.135941 0.908751
vt 0.128661 0.966238
vt 0.128661 0.908763
vt 0.830004 0.125624
vt 0.822724 0.147465
vt 0.822724 0.125625
vt 0.955185 0.308665
vt 0.962465 0.250423
vt 0.962465 0.308665
vt 0.538236 0.809328
vt 0.560077 0.867563
vt 0.538236 0.867563
vt 0.694174 0.741980
vt 0.672332 0.683738
vt 0.694174 0.683738
vt 0.992533 0.699789
vt 0.994716 0.736180
vt 0.992533 0.736181
vt 0.905134 0.003268
vt 0.935308 0.039720
vt 0.905134 0.039668
vt 0.989946 0.656749
vt 0.992130 0.693150
vt 0.989946 0.693149
vt 0.090561 0.811849
vt 0.121137 0.848250
vt 0.090561 0.848251
vt 0.030169 0.966159
vt 0.032353 0.996732
vt 0.030169 0.996732
vt 0.443684 0.991907
vt 0.441500 0.961330
vt 0.443684 0.961330
vt 0.794569 0.986450
vt 0.798208 0.977720
vt 0.798208 0.986453
vt 0.993262 0.926887
vt 0.989622 0.965689
vt 0.989622 0.926894
vt 0.132301 0.972774
vt 0.128661 0.981510
vt 0.128661 0.972774
vt 0.981357 0.241702
vt 0.984997 0.202389
vt 0.984997 0.241702
vt 0.596637 0.924724
vt 0.605374 0.964032
vt 0.596637 0.964033
vt 0.226724 0.958526
vt 0.217988 0.919212
vt 0.226724 0.919212
vt 0.065807 0.986561
vt 0.071629 0.992380
vt 0.065807 0.992384
vt 0.983412 0.609434
vt 0.977588 0.648239
vt 0.977588 0.609444
vt 0.430811 0.983046
vt 0.424987 0.988871
vt 0.424987 0.983047
vt 0.968997 0.241702
vt 0.974822 0.202389
vt 0.974822 0.241702
vt 0.977262 0.881044
vt 0.983086 0.920352
vt 0.977262 0.920352
vt 0.971050 0.467550
vt 0.965226 0.428237
vt 0.971050 0.428237
vt 0.991535 0.250425
vt 0.993719 0.286816
vt 0.991535 0.286818
vt 0.365802 0.871001
vt 0.395976 0.907453
vt 0.365802 0.907402
vt 0.989947 0.609434
vt 0.992131 0.645834
vt 0.989947 0.645833
vt 0.263527 0.819407
vt 0.294104 0.855808
vt 0.263527 0.855809
vt 0.021450 0.966159
vt 0.023634 0.996732
vt 0.021450 0.996732
vt 0.186719 0.994207
vt 0.184535 0.963630
vt 0.186719 0.963630
vt 0.804743 0.986450
vt 0.808383 0.977720
vt 0.808383 0.986452
vt 0.989631 0.094966
vt 0.985991 0.133768
vt 0.985991 0.094972
vt 0.726168 0.976274
vt 0.722528 0.985010
vt 0.722528 0.976274
vt 0.847699 0.980613
vt 0.851339 0.941299
vt 0.851339 0.980613
vt 0.675942 0.924790
vt 0.684678 0.964098
vt 0.675942 0.964098
vt 0.480339 0.960723
vt 0.471602 0.921410
vt 0.480339 0.921410
vt 0.078167 0.986561
vt 0.083989 0.992380
vt 0.078167 0.992384
vt 0.984278 0.315349
vt 0.978454 0.354154
vt 0.978454 0.315359
vt 0.674962 0.983223
vt 0.669138 0.989047
vt 0.669138 0.983223
vt 0.897827 0.978604
vt 0.903651 0.939291
vt 0.903651 0.978604
vt 0.102919 0.940713
vt 0.108744 0.980022
vt 0.102919 0.980022
vt 0.970726 0.966206
vt 0.964902 0.926892
vt 0.970726 0.926892
vt 0.992533 0.745129
vt 0.994716 0.781521
vt 0.992533 0.781522
vt 0.645398 0.881802
vt 0.675572 0.918254
vt 0.645398 0.918203
vt 0.989945 0.562858
vt 0.992129 0.599258
vt 0.989945 0.599257
vt 0.784394 0.816151
vt 0.814971 0.852552
vt 0.784394 0.852553
vt 0.038889 0.966159
vt 0.041073 0.996732
vt 0.038889 0.996732
vt 0.204158 0.994207
vt 0.201974 0.963630
vt 0.204158 0.963630
vt 0.263527 0.989715
vt 0.267167 0.980985
vt 0.267167 0.989717
vt 0.993262 0.881043
vt 0.989622 0.919845
vt 0.989622 0.881050
vt 0.985298 0.412198
vt 0.981658 0.420934
vt 0.981658 0.412198
vt 0.396345 0.953302
vt 0.399985 0.913989
vt 0.399986 0.953302
vt 0.964901 0.745631
vt 0.973638 0.784939
vt 0.964901 0.784940
vt 0.045458 0.959624
vt 0.036722 0.920310
vt 0.045458 0.920310
vt 0.897827 0.985144
vt 0.903648 0.990963
vt 0.897827 0.990967
vt 0.983409 0.519922
vt 0.977585 0.558728
vt 0.977585 0.519932
vt 0.510873 0.982230
vt 0.505049 0.988055
vt 0.505049 0.982231
vt 0.969000 0.289736
vt 0.974825 0.250423
vt 0.974825 0.289737
vt 0.078167 0.940713
vt 0.083992 0.980022
vt 0.078167 0.980022
vt 0.947668 0.138626
vt 0.941844 0.099313
vt 0.947668 0.099313
vt 0.751649 0.958834
vt 0.753832 0.995225
vt 0.751649 0.995227
vt 0.053448 0.897726
vt 0.083622 0.934178
vt 0.053448 0.934126
vt 0.948174 0.956741
vt 0.950358 0.993142
vt 0.948174 0.993141
vt 0.300640 0.819407
vt 0.331217 0.855808
vt 0.300640 0.855809
vt 0.003268 0.966159
vt 0.005452 0.996732
vt 0.003268 0.996732
vt 0.568797 0.994216
vt 0.566613 0.963639
vt 0.568797 0.963639
vt 0.280251 0.989740
vt 0.283890 0.981009
vt 0.283890 0.989742
vt 0.993584 0.428237
vt 0.989944 0.467038
vt 0.989944 0.428243
vt 0.712352 0.977009
vt 0.708712 0.985746
vt 0.708712 0.977010
vt 0.161249 0.983342
vt 0.164889 0.944029
vt 0.164889 0.983342
vt 0.964901 0.699787
vt 0.973638 0.739095
vt 0.964901 0.739096
vt 0.030186 0.959624
vt 0.021450 0.920310
vt 0.030186 0.920310
vt 0.910186 0.985145
vt 0.916008 0.990964
vt 0.910186 0.990968
vt 0.985997 0.699787
vt 0.980173 0.738593
vt 0.980173 0.699797
vt 0.774200 0.984207
vt 0.768376 0.990032
vt 0.768376 0.984208
vt 0.965226 0.559248
vt 0.971050 0.519935
vt 0.971050 0.559248
vt 0.090559 0.940713
vt 0.096384 0.980022
vt 0.090559 0.980022
vt 0.255811 0.958526
vt 0.249987 0.919212
vt 0.255811 0.919212
vt 0.408259 0.959039
vt 0.410442 0.995430
vt 0.408259 0.995432
vt 0.905134 0.046255
vt 0.935308 0.082707
vt 0.905134 0.082655
vt 0.990813 0.315349
vt 0.992997 0.351749
vt 0.990813 0.351749
vt 0.053448 0.811849
vt 0.084025 0.848250
vt 0.053448 0.848251
vt 0.011987 0.966159
vt 0.014171 0.996732
vt 0.011987 0.996732
vt 0.385425 0.990416
vt 0.383241 0.959839
vt 0.385425 0.959839
vt 0.985107 0.149547
vt 0.988746 0.140816
vt 0.988746 0.149549
vt 0.993584 0.474073
vt 0.989944 0.512875
vt 0.989944 0.474079
vt 0.461867 0.977329
vt 0.458227 0.986066
vt 0.458227 0.977330
vt 0.981357 0.195853
vt 0.984997 0.156540
vt 0.984997 0.195853
vt 0.645398 0.924790
vt 0.654134 0.964098
vt 0.645398 0.964098
vt 0.243452 0.958526
vt 0.234715 0.919212
vt 0.243452 0.919212
vt 0.090559 0.986561
vt 0.096381 0.992380
vt 0.090559 0.992384
vt 0.985997 0.745631
vt 0.980173 0.784436
vt 0.980173 0.745641
vt 0.602461 0.984384
vt 0.596637 0.990209
vt 0.596637 0.984385
vt 0.931446 0.978575
vt 0.937270 0.939262
vt 0.937270 0.978575
vt 0.977262 0.926892
vt 0.983086 0.966201
vt 0.977262 0.966201
vt 0.971050 0.513399
vt 0.965226 0.474085
vt 0.971050 0.474086
vt 0.300640 0.862365
vt 0.331204 0.898737
vt 0.300640 0.898758
vt 0.339771 0.959163
vt 0.341926 0.995567
vt 0.339771 0.995563
vt 0.053448 0.854786
vt 0.084024 0.891191
vt 0.053448 0.891186
vt 0.588685 0.242775
vt 0.590869 0.279177
vt 0.588685 0.279177
vt 0.236899 0.965061
vt 0.234715 0.995639
vt 0.234715 0.965061
vt 0.398529 0.959837
vt 0.396345 0.990415
vt 0.396345 0.959837
vt 0.583340 0.988382
vt 0.586980 0.949087
vt 0.586980 0.988384
vt 0.304241 0.981007
vt 0.300601 0.989634
vt 0.300601 0.981013
vt 0.985000 0.250423
vt 0.981360 0.289735
vt 0.981360 0.250424
vt 0.977262 0.981472
vt 0.980902 0.972736
vt 0.980902 0.981473
vt 0.530377 0.921442
vt 0.521642 0.960756
vt 0.521642 0.921442
vt 0.389810 0.913988
vt 0.381074 0.953303
vt 0.381074 0.913989
vt 0.977585 0.467534
vt 0.983408 0.428241
vt 0.983408 0.467538
vt 0.172240 0.528896
vt 0.177987 0.534730
vt 0.172240 0.534720
vt 0.979456 0.049118
vt 0.973632 0.088431
vt 0.973632 0.049119
vt 0.645398 0.984450
vt 0.651222 0.990274
vt 0.645398 0.990274
vt 0.885276 0.939407
vt 0.879453 0.978721
vt 0.879453 0.939407
vt 0.464051 0.885630
vt 0.458227 0.924945
vt 0.458227 0.885630
vt 0.263527 0.862365
vt 0.294092 0.898737
vt 0.263527 0.898758
vt 0.348462 0.959163
vt 0.350617 0.995567
vt 0.348462 0.995563
vt 0.090559 0.854786
vt 0.121135 0.891191
vt 0.090559 0.891186
vt 0.682107 0.881802
vt 0.684292 0.918204
vt 0.682107 0.918205
vt 0.694119 0.963948
vt 0.691935 0.994526
vt 0.691935 0.963948
vt 0.963914 0.391038
vt 0.961730 0.421616
vt 0.961730 0.391038
vt 0.830971 0.987215
vt 0.834610 0.947921
vt 0.834610 0.987218
vt 0.522435 0.981586
vt 0.518795 0.990213
vt 0.518795 0.981592
vt 0.862864 0.947475
vt 0.859224 0.986788
vt 0.859225 0.947476
vt 0.964902 0.981477
vt 0.968542 0.972741
vt 0.968542 0.981477
vt 0.513784 0.921442
vt 0.505049 0.960756
vt 0.505049 0.921442
vt 0.374538 0.913989
vt 0.365802 0.953303
vt 0.365802 0.913989
vt 0.977585 0.513383
vt 0.983408 0.474089
vt 0.983408 0.513387
vt 0.115279 0.986557
vt 0.121026 0.992391
vt 0.115279 0.992381
vt 0.979456 0.094966
vt 0.973632 0.134279
vt 0.973632 0.094967
vt 0.313438 0.984503
vt 0.319262 0.990327
vt 0.313438 0.990327
vt 0.979455 0.003268
vt 0.973632 0.042582
vt 0.973632 0.003268
vt 0.823674 0.902028
vt 0.817850 0.941343
vt 0.817850 0.902028
vt 0.964901 0.870798
vt 0.973636 0.834417
vt 0.973636 0.870804
vt 0.717477 0.503939
vt 0.708740 0.514012
vt 0.708740 0.503954
vt 0.973637 0.791475
vt 0.964901 0.827876
vt 0.964901 0.791476
vt 0.684059 0.250074
vt 0.692795 0.239882
vt 0.692795 0.250075
vt 0.850622 0.649511
vt 0.840431 0.685913
vt 0.840431 0.649511
vt 0.582150 0.242775
vt 0.571957 0.279177
vt 0.571957 0.242775
vt 0.625245 0.974201
vt 0.626648 0.978064
vt 0.621356 0.978064
vt 0.556172 0.987909
vt 0.552051 0.989630
vt 0.552317 0.986102
vt 0.621588 0.972852
vt 0.625657 0.970568
vt 0.969000 0.303636
vt 0.971590 0.301127
vt 0.973857 0.303932
vt 0.556299 0.983344
vt 0.703584 0.248097
vt 0.699331 0.244755
vt 0.703584 0.242444
vt 0.940215 0.413567
vt 0.940085 0.418918
vt 0.936084 0.415362
vt 0.969000 0.298700
vt 0.972933 0.296272
vt 0.975926 0.300262
vt 0.699614 0.239882
vt 0.934866 0.418918
vt 0.936396 0.410412
vt 0.552051 0.981916
vt 0.511932 0.975695
vt 0.506347 0.975695
vt 0.509210 0.972126
vt 0.512259 0.970394
vt 0.932643 0.413549
vt 0.505049 0.970926
vt 0.508487 0.967292
vt 0.916925 0.106723
vt 0.915250 0.105773
vt 0.917305 0.104741
vt 0.915250 0.108262
vt 0.918754 0.106477
vt 0.917691 0.108354
vt 0.460608 0.992601
vt 0.460608 0.994998
vt 0.458227 0.993356
vt 0.128661 0.991395
vt 0.128672 0.989225
vt 0.130799 0.990045
vt 0.724773 0.993276
vt 0.724798 0.995182
vt 0.722537 0.994725
vt 0.724798 0.991545
vt 0.722528 0.991619
vt 0.682689 0.990654
vt 0.681727 0.988442
vt 0.683928 0.988558
vt 0.130950 0.988045
vt 0.130950 0.992818
vt 0.682931 0.985905
vt 0.685290 0.990156
vt 0.130961 0.532435
vt 0.133057 0.530356
vt 0.133162 0.533048
vt 0.131765 0.535182
vt 0.134872 0.535182
vt 0.685290 0.987082
vt 0.134983 0.532374
vt 0.316986 0.973898
vt 0.313477 0.976098
vt 0.313438 0.971615
vt 0.318088 0.977967
vt 0.318088 0.968608
vt 0.954538 0.693082
vt 0.948566 0.693082
vt 0.952413 0.689527
vt 0.956261 0.687714
vt 0.662368 0.984778
vt 0.662092 0.989204
vt 0.657757 0.985699
vt 0.867236 0.133886
vt 0.865024 0.130100
vt 0.869525 0.130390
vt 0.053448 0.991422
vt 0.053448 0.986561
vt 0.058072 0.987233
vt 0.948500 0.687584
vt 0.952220 0.685131
vt 0.867730 0.125624
vt 0.872547 0.133886
vt 0.058230 0.991834
vt 0.657757 0.990492
vt 0.872358 0.128042
vt 0.489867 0.967260
vt 0.494016 0.970867
vt 0.490834 0.972232
vt 0.486874 0.971876
vt 0.488760 0.975905
vt 0.494016 0.976039
vt 0.881372 0.143262
vt 0.878940 0.144712
vt 0.878937 0.141666
vt 0.881778 0.145501
vt 0.881778 0.140562
vt 0.141518 0.534103
vt 0.141518 0.530950
vt 0.143316 0.532352
vt 0.144370 0.534800
vt 0.990868 0.405148
vt 0.990813 0.402113
vt 0.993047 0.403529
vt 0.141644 0.976122
vt 0.138837 0.977279
vt 0.139339 0.974592
vt 0.994892 0.298989
vt 0.992636 0.300104
vt 0.992788 0.297479
vt 0.144264 0.530356
vt 0.145851 0.532327
vt 0.993254 0.405454
vt 0.141116 0.973603
vt 0.994892 0.296272
vt 0.993254 0.401220
vt 0.906923 0.108556
vt 0.905134 0.107113
vt 0.906988 0.106820
vt 0.138837 0.972774
vt 0.908079 0.104741
vt 0.908714 0.106986
vt 0.905433 0.104741
vt 0.772499 0.973721
vt 0.768925 0.975766
vt 0.768376 0.970975
vt 0.773367 0.977672
vt 0.773367 0.969025
vt 0.738198 0.510134
vt 0.741701 0.506217
vt 0.742205 0.511723
vt 0.852047 0.631308
vt 0.846254 0.630569
vt 0.850434 0.627611
vt 0.850481 0.129622
vt 0.850353 0.125624
vt 0.854267 0.127482
vt 0.850353 0.134026
vt 0.854787 0.132436
vt 0.662603 0.978243
vt 0.657757 0.975916
vt 0.662237 0.972701
vt 0.746582 0.508307
vt 0.846254 0.625229
vt 0.657757 0.970634
vt 0.746259 0.503939
vt 0.746582 0.512768
vt 0.850257 0.623189
vt 0.858488 0.129852
vt 0.115362 0.671830
vt 0.121204 0.670226
vt 0.119806 0.674369
vt 0.116359 0.677584
vt 0.121204 0.678664
vt 0.846261 0.621119
vt 0.849583 0.989673
vt 0.847699 0.988707
vt 0.849831 0.987148
vt 0.847699 0.991568
vt 0.851621 0.989135
vt 0.850663 0.991566
vt 0.994158 0.414331
vt 0.991833 0.415981
vt 0.991833 0.412987
vt 0.359224 0.962579
vt 0.357333 0.963219
vt 0.357152 0.961187
vt 0.173716 0.990815
vt 0.173848 0.992689
vt 0.171443 0.992072
vt 0.173848 0.988321
vt 0.171551 0.989427
vt 0.138837 0.987917
vt 0.138837 0.984942
vt 0.141458 0.986223
vt 0.993988 0.412198
vt 0.359224 0.959762
vt 0.140921 0.983814
vt 0.141350 0.988321
vt 0.941844 0.147794
vt 0.942122 0.145162
vt 0.943496 0.147326
vt 0.357232 0.959163
vt 0.945725 0.147993
vt 0.943567 0.149639
vt 0.945175 0.145162
vt 0.868442 0.145935
vt 0.864948 0.144155
vt 0.868922 0.140562
vt 0.864948 0.149518
vt 0.872402 0.144792
vt 0.870448 0.149266
vt 0.724605 0.508644
vt 0.724012 0.503939
vt 0.728544 0.506188
vt 0.724012 0.513761
vt 0.728507 0.510988
vt 0.992447 0.972736
vt 0.992447 0.977941
vt 0.988013 0.974198
vt 0.975122 0.414923
vt 0.975091 0.419815
vt 0.970449 0.417448
vt 0.614288 0.989216
vt 0.609376 0.990765
vt 0.609466 0.985392
vt 0.987437 0.978652
vt 0.970828 0.421616
vt 0.970449 0.412198
vt 0.614288 0.984599
vt 0.731663 0.508825
vt 0.853084 0.148875
vt 0.850353 0.144617
vt 0.853992 0.144565
vt 0.858413 0.147248
vt 0.858413 0.141174
vt 0.852877 0.140562
vt 0.848087 0.639938
vt 0.846254 0.640350
vt 0.846802 0.637843
vt 0.847889 0.642546
vt 0.849832 0.637843
vt 0.850075 0.640718
vt 0.164052 0.993212
vt 0.161722 0.992870
vt 0.164052 0.990913
vt 0.922545 0.992149
vt 0.922682 0.989565
vt 0.924749 0.990640
vt 0.148890 0.992667
vt 0.148890 0.989865
vt 0.151205 0.991083
vt 0.881503 0.128146
vt 0.881774 0.130714
vt 0.879302 0.129444
vt 0.881774 0.125624
vt 0.879082 0.126537
vt 0.924812 0.988052
vt 0.924812 0.992371
vt 0.151396 0.993531
vt 0.161249 0.989878
vt 0.980902 0.989512
vt 0.980242 0.992190
vt 0.978860 0.990054
vt 0.978941 0.988008
vt 0.976752 0.989288
vt 0.977157 0.992190
vt 0.908486 0.094618
vt 0.909608 0.089242
vt 0.912480 0.094025
vt 0.905134 0.092561
vt 0.910388 0.098205
vt 0.905134 0.097797
vt 0.251442 0.912000
vt 0.252136 0.906841
vt 0.256719 0.909644
vt 0.978571 0.148950
vt 0.973765 0.148024
vt 0.978303 0.144708
vt 0.542345 0.983381
vt 0.542207 0.988058
vt 0.538316 0.985758
vt 0.987684 0.990257
vt 0.987437 0.985188
vt 0.991793 0.987024
vt 0.251442 0.902296
vt 0.255834 0.904578
vt 0.973632 0.142167
vt 0.538118 0.989641
vt 0.538118 0.981929
vt 0.991793 0.990949
vt 0.978571 0.140814
vt 0.518795 0.971841
vt 0.520831 0.967513
vt 0.522608 0.970795
vt 0.522353 0.975051
vt 0.526155 0.972527
vt 0.526155 0.967292
vt 0.966745 0.990245
vt 0.967069 0.988013
vt 0.969030 0.989746
vt 0.964902 0.989307
vt 0.967952 0.992202
vt 0.964968 0.992202
vt 0.531517 0.981586
vt 0.531304 0.983778
vt 0.528977 0.982052
vt 0.821507 0.888575
vt 0.821506 0.885961
vt 0.823760 0.887265
vt 0.711183 0.994526
vt 0.708712 0.995333
vt 0.708983 0.992704
vt 0.635531 0.994142
vt 0.633347 0.995100
vt 0.633390 0.992691
vt 0.531517 0.986267
vt 0.528970 0.985048
vt 0.823975 0.884565
vt 0.823975 0.889595
vt 0.711183 0.992281
vt 0.635531 0.991258
vt 0.474496 0.673629
vt 0.474496 0.676599
vt 0.472520 0.674730
vt 0.471972 0.672229
vt 0.470600 0.674559
vt 0.471482 0.676965
vt 0.708712 0.870760
vt 0.739277 0.907132
vt 0.708712 0.907153
vt 0.736343 0.959538
vt 0.738499 0.995942
vt 0.736343 0.995938
vt 0.784394 0.859088
vt 0.814970 0.895493
vt 0.784394 0.895488
vt 0.980173 0.790972
vt 0.982357 0.827374
vt 0.980173 0.827374
vt 0.220171 0.965061
vt 0.217988 0.995639
vt 0.217988 0.965061
vt 0.367986 0.959839
vt 0.365802 0.990417
vt 0.365802 0.959839
vt 0.985991 0.042565
vt 0.989630 0.003270
vt 0.989630 0.042567
vt 0.294066 0.981007
vt 0.290426 0.989634
vt 0.290426 0.981013
vt 0.821490 0.947878
vt 0.817850 0.987191
vt 0.817850 0.947879
vt 0.681727 0.979370
vt 0.685367 0.970634
vt 0.685367 0.979370
vt 0.495609 0.921410
vt 0.486874 0.960724
vt 0.486874 0.921410
vt 0.745080 0.913688
vt 0.736343 0.953003
vt 0.736343 0.913688
vt 0.148890 0.983326
vt 0.154713 0.944033
vt 0.154713 0.983330
vt 0.102919 0.986557
vt 0.108667 0.992391
vt 0.102919 0.992381
vt 0.059272 0.940713
vt 0.053448 0.980026
vt 0.053448 0.940714
vt 0.620824 0.984600
vt 0.626648 0.990424
vt 0.620824 0.990424
vt 0.916010 0.939291
vt 0.910186 0.978606
vt 0.910186 0.939291
vt 0.589164 0.903234
vt 0.583340 0.942549
vt 0.583340 0.903234
vt 0.932643 0.308812
vt 0.948649 0.156541
vt 0.948649 0.308814
vt 0.897375 0.421541
vt 0.909217 0.156625
vt 0.909217 0.421627
vt 0.457514 0.726822
vt 0.441499 0.879095
vt 0.441500 0.726822
vt 0.891291 0.428237
vt 0.879453 0.693397
vt 0.879453 0.428429
vt 0.479547 0.281177
vt 0.365802 0.003268
vt 0.479547 0.019666
vt 0.003268 0.258204
vt 0.116406 0.522334
vt 0.003268 0.523204
vt 0.936805 0.690028
vt 0.931609 0.428254
vt 0.936805 0.428518
vt 0.819000 0.156675
vt 0.823408 0.421699
vt 0.819000 0.421642
vt 0.823408 0.156731
vt 0.828853 0.421699
vt 0.828853 0.156731
vt 0.833253 0.421642
vt 0.925074 0.693252
vt 0.919904 0.428237
vt 0.925074 0.428251
vt 0.919904 0.693237
vt 0.914718 0.428251
vt 0.159651 0.257359
vt 0.164058 0.522335
vt 0.159651 0.522360
vt 0.164058 0.257333
vt 0.169503 0.522335
vt 0.715938 0.258305
vt 0.729494 0.268155
vt 0.721116 0.274240
vt 0.169503 0.257333
vt 0.173905 0.522361
vt 0.941965 0.689747
vt 0.941965 0.428237
vt 0.767694 0.274241
vt 0.762519 0.258308
vt 0.772869 0.258304
vt 0.355788 0.800454
vt 0.339771 0.952627
vt 0.339771 0.800458
vt 0.860578 0.421508
vt 0.872443 0.156731
vt 0.872443 0.421699
vt 0.148890 0.937493
vt 0.164908 0.785243
vt 0.164908 0.937494
vt 0.890840 0.156540
vt 0.878979 0.421627
vt 0.878979 0.156625
vt 0.478007 0.553591
vt 0.365802 0.287712
vt 0.478007 0.288591
vt 0.184535 0.274087
vt 0.296123 0.518815
vt 0.184535 0.535598
vt 0.920948 0.418331
vt 0.915753 0.156557
vt 0.920948 0.156821
vt 0.839789 0.156675
vt 0.844198 0.421699
vt 0.839789 0.421642
vt 0.844198 0.156731
vt 0.849642 0.421699
vt 0.849642 0.156731
vt 0.854043 0.421642
vt 0.908183 0.693252
vt 0.903012 0.428237
vt 0.908183 0.428251
vt 0.903012 0.693237
vt 0.897827 0.428251
vt 0.798210 0.156700
vt 0.802618 0.421676
vt 0.798210 0.421701
vt 0.802618 0.156674
vt 0.808062 0.421676
vt 0.736029 0.262710
vt 0.752785 0.262709
vt 0.749585 0.272557
vt 0.808062 0.156674
vt 0.812464 0.421701
vt 0.926108 0.418050
vt 0.926108 0.156540
vt 0.802635 0.141556
vt 0.807812 0.125624
vt 0.816188 0.131703
vt 0.365802 0.720286
vt 0.365802 0.560127
vt 0.453890 0.640194
vt 0.708712 0.607209
vt 0.796783 0.527219
vt 0.796783 0.687319
vt 0.777112 0.962489
vt 0.768376 0.802319
vt 0.777112 0.802319
vt 0.702128 0.881713
vt 0.693602 0.792203
vt 0.702128 0.793485
vt 0.932643 0.315349
vt 0.941379 0.403877
vt 0.932643 0.403809
vt 0.590102 0.802793
vt 0.471602 0.695048
vt 0.590102 0.683737
vt 0.003268 0.686257
vt 0.121702 0.697584
vt 0.003268 0.805312
vt 0.433722 0.962695
vt 0.424987 0.802524
vt 0.433722 0.802524
vt 0.950369 0.092777
vt 0.941844 0.003268
vt 0.950369 0.004550
vt 0.128661 0.813688
vt 0.137397 0.902216
vt 0.128661 0.902148
vt 0.866095 0.690119
vt 0.859225 0.428260
vt 0.866095 0.428609
vt 0.339771 0.257305
vt 0.345601 0.522348
vt 0.339771 0.522273
vt 0.345601 0.257380
vt 0.352800 0.522348
vt 0.352800 0.257380
vt 0.358619 0.522272
vt 0.142355 0.807153
vt 0.135518 0.542133
vt 0.142355 0.542152
vt 0.135518 0.807133
vt 0.128661 0.542152
vt 0.339771 0.528917
vt 0.345599 0.793885
vt 0.339771 0.793919
vt 0.345599 0.528883
vt 0.352799 0.793885
vt 0.148884 0.502748
vt 0.142038 0.523821
vt 0.130961 0.515772
vt 0.352799 0.528883
vt 0.358619 0.793919
vt 0.872918 0.689747
vt 0.872918 0.428237
vt 0.695131 0.279919
vt 0.688288 0.258851
vt 0.701973 0.258845
vt 0.845485 0.003292
vt 0.881871 0.118997
vt 0.845485 0.119022
vt 0.799436 0.003268
vt 0.838950 0.119089
vt 0.799436 0.119021
vt 0.803319 0.527219
vt 0.839718 0.642976
vt 0.803319 0.642970
vt 0.784394 0.693856
vt 0.824436 0.809613
vt 0.784394 0.809615
vt 0.641121 0.239883
vt 0.677523 0.279919
vt 0.641121 0.279919
vt 0.634586 0.279924
vt 0.598183 0.239882
vt 0.634586 0.239882
vt 0.148890 0.542153
vt 0.178000 0.778687
vt 0.148890 0.778707
vt 0.122941 0.257333
vt 0.153115 0.493988
vt 0.122941 0.493937
vt 0.302659 0.500455
vt 0.331779 0.737058
vt 0.302659 0.737054
vt 0.302659 0.257306
vt 0.333236 0.493918
vt 0.302659 0.493919
vt 0.888406 0.115370
vt 0.917528 0.145943
vt 0.888406 0.145943
vt 0.701454 0.779093
vt 0.672332 0.748515
vt 0.701454 0.748516
vt 0.977588 0.693136
vt 0.983411 0.656753
vt 0.983411 0.693140
vt 0.983409 0.565263
vt 0.977585 0.602631
vt 0.977585 0.565273
vt 0.971050 0.565783
vt 0.965226 0.602184
vt 0.965226 0.565784
vt 0.965228 0.693140
vt 0.971052 0.655283
vt 0.971052 0.693140
vt 0.529020 0.242775
vt 0.565422 0.280627
vt 0.529020 0.280628
vt 0.522484 0.280632
vt 0.486082 0.242775
vt 0.522484 0.242775
vt 0.848199 0.504049
vt 0.850941 0.515702
vt 0.848337 0.515690
vt 0.821539 0.504061
vt 0.823877 0.515689
vt 0.821032 0.515703
vt 0.823867 0.504049
vt 0.826694 0.515703
vt 0.784949 0.504049
vt 0.787279 0.515706
vt 0.784438 0.515700
vt 0.787274 0.504054
vt 0.790101 0.515700
vt 0.765820 0.503939
vt 0.768178 0.515623
vt 0.765313 0.515596
vt 0.159651 0.533176
vt 0.161424 0.528896
vt 0.165704 0.530669
vt 0.768164 0.503961
vt 0.770973 0.515596
vt 0.845353 0.515702
vt 0.540285 0.967994
vt 0.545516 0.970161
vt 0.543348 0.975393
vt 0.836076 0.504049
vt 0.838818 0.515702
vt 0.836214 0.515690
vt 0.809341 0.504061
vt 0.811679 0.515689
vt 0.808834 0.515703
vt 0.811669 0.504049
vt 0.814497 0.515703
vt 0.797147 0.504049
vt 0.799477 0.515706
vt 0.796636 0.515701
vt 0.799471 0.504054
vt 0.802299 0.515700
vt 0.753624 0.503939
vt 0.755982 0.515623
vt 0.753117 0.515596
vt 0.669138 0.974914
vt 0.670911 0.970634
vt 0.675191 0.972407
vt 0.755968 0.503961
vt 0.758777 0.515596
vt 0.833230 0.515702
vt 0.554218 0.967982
vt 0.559449 0.970149
vt 0.557282 0.975381
vt 0.961730 0.315356
vt 0.971918 0.384496
vt 0.961730 0.384503
vt 0.784438 0.428237
vt 0.852689 0.497514
vt 0.784438 0.497398
vt 0.956904 0.003268
vt 0.967096 0.072429
vt 0.956904 0.072427
vt 0.708740 0.428239
vt 0.777903 0.497401
vt 0.708740 0.497403
vt 0.801122 0.902028
vt 0.811315 0.971182
vt 0.801122 0.971182
vt 0.958693 0.678596
vt 0.948500 0.609434
vt 0.958693 0.609434
vt 0.263527 0.905300
vt 0.273716 0.974440
vt 0.263527 0.974447
vt 0.263527 0.743593
vt 0.331779 0.812870
vt 0.263527 0.812754
vt 0.956904 0.078964
vt 0.967096 0.148125
vt 0.956904 0.148124
vt 0.365802 0.726824
vt 0.434964 0.795986
vt 0.365802 0.795988
vt 0.784394 0.902028
vt 0.794587 0.971182
vt 0.784394 0.971182
vt 0.958367 0.950206
vt 0.948174 0.881043
vt 0.958367 0.881044
vt 0.184535 0.800534
vt 0.253682 0.698699
vt 0.253682 0.800581
vt 0.296844 0.905293
vt 0.306902 0.974472
vt 0.296844 0.974454
vt 0.665797 0.683738
vt 0.596637 0.785667
vt 0.596637 0.683748
vt 0.691935 0.888248
vt 0.702128 0.957412
vt 0.691935 0.957412
vt 0.030186 0.811848
vt 0.019995 0.913775
vt 0.019995 0.811848
vt 0.576805 0.809328
vt 0.566613 0.911255
vt 0.566613 0.809328
vt 0.708712 0.795736
vt 0.777859 0.693901
vt 0.777859 0.795783
vt 0.280251 0.905293
vt 0.290309 0.974472
vt 0.280251 0.974454
vt 0.779440 0.143804
vt 0.710280 0.245734
vt 0.710280 0.143814
vt 0.441500 0.885631
vt 0.451692 0.954794
vt 0.441500 0.954795
vt 0.046913 0.811848
vt 0.036722 0.913775
vt 0.036722 0.811848
vt 0.013460 0.811848
vt 0.003268 0.913775
vt 0.003268 0.811848
vt 0.115363 0.663690
vt 0.120184 0.529739
vt 0.120184 0.663641
vt 0.638432 0.881737
vt 0.633347 0.969451
vt 0.633347 0.881787
vt 0.790778 0.143824
vt 0.785975 0.277756
vt 0.785975 0.143804
vt 0.251442 0.895760
vt 0.256539 0.807116
vt 0.256539 0.895760
vt 0.792900 0.003308
vt 0.710280 0.137229
vt 0.710280 0.003268
vt 0.791675 0.287712
vt 0.708740 0.421701
vt 0.708740 0.287740
vt 0.847699 0.872896
vt 0.849882 0.934762
vt 0.847699 0.934764
vt 0.365802 0.802524
vt 0.401724 0.864466
vt 0.365802 0.864405
vt 0.821507 0.816150
vt 0.823691 0.878030
vt 0.821507 0.878030
vt 0.708712 0.802320
vt 0.745113 0.864202
vt 0.708712 0.864204
vt 0.991532 0.156540
vt 0.993716 0.192936
vt 0.991532 0.192936
vt 0.991077 0.827373
vt 0.988893 0.790972
vt 0.991077 0.790972
vt 0.948500 0.428237
vt 0.869417 0.940922
vt 0.958366 0.874507
vt 0.830971 0.693854
vt 0.359267 0.003268
vt 0.003268 0.250797
vt 0.498514 0.809328
vt 0.703745 0.233167
vt 0.228180 0.807117
vt 0.484542 0.287712
vt 0.889646 0.699932
vt 0.897827 0.932756
vt 0.481790 0.809328
vt 0.702205 0.517611
vt 0.244907 0.807117
vt 0.486082 0.003268
vt 0.941639 0.699787
vt 0.914718 0.932756
vt 0.596637 0.527219
vt 0.515107 0.809345
vt 0.590102 0.677187
vt 0.470617 0.560127
vt 0.194726 0.957094
vt 0.761841 0.952297
vt 0.184535 0.542133
vt 0.531700 0.809345
vt 0.108827 0.679707
vt 0.898599 0.003268
vt 0.211452 0.957094
vt 0.418451 0.952502
vt 0.994713 0.834411
vt 0.120734 0.897777
vt 0.992129 0.519922
vt 0.290794 0.698652
vt 0.245618 0.965061
vt 0.374521 0.990416
vt 0.784394 0.977717
vt 0.989631 0.088424
vt 0.175083 0.981785
vt 0.460425 0.672229
vt 0.620646 0.924724
vt 0.566613 0.957104
vt 0.885275 0.985257
vt 0.985995 0.873207
vt 0.477426 0.988356
vt 0.965228 0.609434
vt 0.121103 0.940713
vt 0.458227 0.970794
vt 0.993716 0.199472
vt 0.626811 0.881788
vt 0.992997 0.358285
vt 0.833896 0.649511
vt 0.254338 0.965061
vt 0.193254 0.994207
vt 0.982461 0.296272
vt 0.332350 0.989938
vt 0.636987 0.984722
vt 0.328710 0.905293
vt 0.669406 0.924790
vt 0.003268 0.959624
vt 0.937268 0.985110
vt 0.984278 0.399485
vt 0.492698 0.988398
vt 0.968997 0.156540
vt 0.071632 0.940713
vt 0.964902 0.920357
vt 0.849882 0.783382
vt 0.687067 0.792274
vt 0.849883 0.693855
vt 0.638863 0.792203
vt 0.871584 0.947475
vt 0.922545 0.981516
vt 0.559328 0.874098
vt 0.177190 0.879153
vt 0.955195 0.315350
vt 0.177267 0.785242
vt 0.614820 0.977848
vt 0.430811 0.976511
vt 0.962462 0.156540
vt 0.589088 0.809338
vt 0.545516 0.874099
vt 0.852078 0.527219
vt 0.651221 0.977914
vt 0.602461 0.977848
vt 0.471602 0.967259
vt 0.729808 0.969726
vt 0.954031 0.419148
vt 0.708712 0.913688
vt 0.322174 0.905293
vt 0.926572 0.146028
vt 0.836539 0.125624
vt 0.135941 0.966226
vt 0.830004 0.147464
vt 0.955185 0.250423
vt 0.560077 0.809328
vt 0.672332 0.741980
vt 0.994716 0.699787
vt 0.935308 0.003319
vt 0.992130 0.656750
vt 0.121137 0.811848
vt 0.032353 0.966159
vt 0.441500 0.991907
vt 0.794569 0.977717
vt 0.993262 0.965683
vt 0.132301 0.981510
vt 0.981357 0.202388
vt 0.605374 0.924724
vt 0.217988 0.958526
vt 0.071629 0.986557
vt 0.983412 0.648229
vt 0.430811 0.988870
vt 0.968997 0.202388
vt 0.983086 0.881043
vt 0.965226 0.467550
vt 0.993719 0.250423
vt 0.395976 0.871053
vt 0.992131 0.609434
vt 0.294104 0.819406
vt 0.023634 0.966159
vt 0.184535 0.994207
vt 0.804743 0.977717
vt 0.989631 0.133761
vt 0.726168 0.985010
vt 0.847699 0.941299
vt 0.684678 0.924790
vt 0.471602 0.960723
vt 0.083989 0.986557
vt 0.984278 0.354144
vt 0.674962 0.989047
vt 0.897827 0.939291
vt 0.108744 0.940713
vt 0.964902 0.966206
vt 0.994716 0.745128
vt 0.675572 0.881854
vt 0.992129 0.562858
vt 0.814971 0.816150
vt 0.041073 0.966159
vt 0.201974 0.994207
vt 0.263527 0.980982
vt 0.993262 0.919839
vt 0.985298 0.420934
vt 0.396345 0.913989
vt 0.973638 0.745631
vt 0.036722 0.959624
vt 0.903648 0.985140
vt 0.983409 0.558718
vt 0.510873 0.988054
vt 0.969000 0.250423
vt 0.083992 0.940713
vt 0.941844 0.138626
vt 0.753832 0.958832
vt 0.083622 0.897777
vt 0.950358 0.956742
vt 0.331217 0.819406
vt 0.005452 0.966159
vt 0.566613 0.994216
vt 0.280251 0.981007
vt 0.993584 0.467032
vt 0.712352 0.985745
vt 0.161249 0.944029
vt 0.973638 0.699787
vt 0.021450 0.959624
vt 0.916008 0.985141
vt 0.985997 0.738583
vt 0.774200 0.990031
vt 0.965226 0.519934
vt 0.096384 0.940713
vt 0.249987 0.958526
vt 0.410442 0.959037
vt 0.935308 0.046306
vt 0.992997 0.315349
vt 0.084025 0.811848
vt 0.014171 0.966159
vt 0.383241 0.990416
vt 0.985107 0.140814
vt 0.993584 0.512869
vt 0.461867 0.986065
vt 0.981357 0.156540
vt 0.654134 0.924790
vt 0.234715 0.958526
vt 0.096381 0.986557
vt 0.985997 0.784426
vt 0.602461 0.990208
vt 0.931446 0.939261
vt 0.983086 0.926892
vt 0.965226 0.513399
vt 0.331204 0.862344
vt 0.341926 0.959166
vt 0.084024 0.854791
vt 0.590869 0.242775
vt 0.236899 0.995639
vt 0.398529 0.990415
vt 0.583340 0.949084
vt 0.304241 0.989628
vt 0.985000 0.289735
vt 0.977262 0.972736
vt 0.530377 0.960757
vt 0.389810 0.953303
vt 0.977585 0.428237
vt 0.177987 0.528906
vt 0.979456 0.088430
vt 0.651222 0.984450
vt 0.885276 0.978722
vt 0.464051 0.924945
vt 0.294092 0.862344
vt 0.350617 0.959166
vt 0.121135 0.854791
vt 0.684292 0.881802
vt 0.694119 0.994526
vt 0.963914 0.421616
vt 0.830971 0.947918
vt 0.522435 0.990207
vt 0.862864 0.986787
vt 0.964902 0.972741
vt 0.513784 0.960757
vt 0.374538 0.953303
vt 0.977585 0.474086
vt 0.121026 0.986567
vt 0.979456 0.134278
vt 0.319262 0.984503
vt 0.979455 0.042582
vt 0.823674 0.941343
vt 0.964901 0.834411
vt 0.717477 0.513997
vt 0.973637 0.827875
vt 0.684059 0.239882
vt 0.850622 0.685914
vt 0.582150 0.279177
vt 0.739277 0.870739
vt 0.738499 0.959542
vt 0.814970 0.859093
vt 0.982357 0.790972
vt 0.220171 0.995639
vt 0.367986 0.990417
vt 0.985991 0.003268
vt 0.294066 0.989628
vt 0.821490 0.987190
vt 0.681727 0.970634
vt 0.495609 0.960725
vt 0.745080 0.953003
vt 0.148890 0.944029
vt 0.108667 0.986567
vt 0.059272 0.980025
vt 0.626648 0.984599
vt 0.916010 0.978606
vt 0.589164 0.942549
vt 0.932644 0.156540
vt 0.897375 0.156540
vt 0.457514 0.879095
vt 0.891291 0.693205
vt 0.365802 0.264778
vt 0.116406 0.257333
vt 0.931609 0.689765
vt 0.833253 0.156674
vt 0.914718 0.693251
vt 0.715938 0.272557
vt 0.712738 0.268153
vt 0.712738 0.262709
vt 0.721116 0.256624
vt 0.726294 0.258306
vt 0.729494 0.262711
vt 0.726294 0.272559
vt 0.173905 0.257359
vt 0.776067 0.262707
vt 0.776067 0.268151
vt 0.772869 0.272556
vt 0.762519 0.272561
vt 0.759321 0.268158
vt 0.759321 0.262714
vt 0.767694 0.256624
vt 0.355788 0.952623
vt 0.860578 0.156540
vt 0.148890 0.785242
vt 0.890840 0.421541
vt 0.365802 0.552712
vt 0.296123 0.257304
vt 0.915753 0.418068
vt 0.854043 0.156674
vt 0.897827 0.693251
vt 0.744407 0.274240
vt 0.739229 0.272558
vt 0.736029 0.268154
vt 0.739229 0.258306
vt 0.744407 0.256624
vt 0.749585 0.258306
vt 0.752785 0.268153
vt 0.812464 0.156700
vt 0.816188 0.137145
vt 0.812989 0.141549
vt 0.807812 0.143234
vt 0.799436 0.137156
vt 0.799436 0.131714
vt 0.802635 0.127309
vt 0.812989 0.127302
vt 0.768376 0.962489
vt 0.693602 0.880430
vt 0.941379 0.315416
vt 0.424987 0.962695
vt 0.941844 0.091495
vt 0.137397 0.813755
vt 0.859225 0.689770
vt 0.358619 0.257304
vt 0.128661 0.807152
vt 0.130961 0.508573
vt 0.135192 0.502748
vt 0.142038 0.500523
vt 0.153116 0.508572
vt 0.153116 0.515771
vt 0.148884 0.521596
vt 0.135192 0.521596
vt 0.358619 0.528917
vt 0.706202 0.264667
vt 0.706202 0.271866
vt 0.701973 0.277692
vt 0.688288 0.277698
vt 0.684059 0.271876
vt 0.684059 0.264677
vt 0.695131 0.256624
vt 0.881871 0.003268
vt 0.838950 0.003335
vt 0.839718 0.527224
vt 0.824436 0.693854
vt 0.677523 0.239882
vt 0.598183 0.279924
vt 0.178000 0.542133
vt 0.153115 0.257385
vt 0.331779 0.500459
vt 0.333236 0.257304
vt 0.917528 0.115369
vt 0.672332 0.779093
vt 0.977588 0.656749
vt 0.983409 0.602621
vt 0.971050 0.602183
vt 0.965228 0.655282
vt 0.565422 0.242775
vt 0.486082 0.280632
vt 0.850330 0.504059
vt 0.826172 0.504061
vt 0.789582 0.504049
vt 0.165704 0.533176
vt 0.163931 0.534949
vt 0.161424 0.534949
vt 0.159651 0.530669
vt 0.163931 0.528896
vt 0.770451 0.503939
vt 0.845758 0.504059
vt 0.540284 0.975393
vt 0.538117 0.973226
vt 0.538118 0.970161
vt 0.543349 0.967994
vt 0.545515 0.973226
vt 0.838207 0.504059
vt 0.813974 0.504061
vt 0.801780 0.504049
vt 0.675191 0.974914
vt 0.673418 0.976687
vt 0.670911 0.976687
vt 0.669138 0.972407
vt 0.673418 0.970634
vt 0.758255 0.503939
vt 0.833634 0.504059
vt 0.554218 0.975381
vt 0.552051 0.973213
vt 0.552051 0.970149
vt 0.557283 0.967982
vt 0.559449 0.973213
vt 0.971918 0.315349
vt 0.852689 0.428353
vt 0.967096 0.003269
vt 0.777903 0.428237
vt 0.811315 0.902028
vt 0.948500 0.678596
vt 0.273716 0.905293
vt 0.331779 0.743709
vt 0.967096 0.078966
vt 0.434964 0.726822
vt 0.794587 0.902028
vt 0.948174 0.950206
vt 0.184535 0.698652
vt 0.306902 0.905311
vt 0.665797 0.785658
vt 0.702128 0.888248
vt 0.030186 0.913775
vt 0.576805 0.911255
vt 0.708712 0.693854
vt 0.290309 0.905311
vt 0.779440 0.245724
vt 0.451692 0.885630
vt 0.046913 0.913775
vt 0.013460 0.913775
vt 0.115363 0.529788
vt 0.638432 0.969401
vt 0.790778 0.277776
vt 0.251442 0.807116
vt 0.792900 0.137269
vt 0.791675 0.421673
vt 0.849882 0.872894
vt 0.401724 0.802585
vt 0.823691 0.816150
vt 0.745113 0.802319
vt 0.993716 0.156540
vt 0.988893 0.827373
s 0
f 2/1/1 3/2/1 1/3/1
f 4/4/2 7/5/2 3/6/2
f 8/7/3 5/8/3 7/9/3
f 6/10/4 1/11/4 5/12/4
f 7/13/5 1/14/5 3/15/5
f 4/16/6 6/17/6 8/18/6
f 10/19/1 11/20/1 9/21/1
f 12/22/2 15/23/2 11/24/2
f 16/25/3 13/26/3 15/27/3
f 14/28/4 9/29/4 13/30/4
f 15/31/5 9/32/5 11/33/5
f 12/34/6 14/35/6 16/36/6
f 18/37/1 19/38/1 17/39/1
f 20/40/2 23/41/2 19/42/2
f 24/43/3 21/44/3 23/45/3
f 22/46/4 17/47/4 21/48/4
f 23/49/5 17/50/5 19/51/5
f 20/52/6 22/53/6 24/54/6
f 26/55/1 27/56/1 25/57/1
f 28/58/2 31/59/2 27/60/2
f 32/61/3 29/62/3 31/63/3
f 30/64/4 25/65/4 29/66/4
f 31/67/5 25/68/5 27/69/5
f 28/70/6 30/71/6 32/72/6
f 34/73/1 35/74/1 33/75/1
f 36/76/2 39/77/2 35/78/2
f 40/79/3 37/80/3 39/81/3
f 38/82/4 33/83/4 37/84/4
f 39/85/5 33/86/5 35/87/5
f 36/88/6 38/89/6 40/90/6
f 42/91/1 43/92/1 41/93/1
f 44/94/2 47/95/2 43/96/2
f 48/97/3 45/98/3 47/99/3
f 46/100/4 41/101/4 45/102/4
f 47/103/5 41/104/5 43/105/5
f 44/106/6 46/107/6 48/108/6
f 50/109/1 51/110/1 49/111/1
f 52/112/2 55/113/2 51/114/2
f 56/115/3 53/116/3 55/117/3
f 54/118/4 49/119/4 53/120/4
f 55/121/5 49/122/5 51/123/5
f 52/124/6 54/125/6 56/126/6
f 58/127/1 59/128/1 57/129/1
f 60/130/2 63/131/2 59/132/2
f 64/133/3 61/134/3 63/135/3
f 62/136/4 57/137/4 61/138/4
f 63/139/5 57/140/5 59/141/5
f 60/142/6 62/143/6 64/144/6
f 66/145/1 67/146/1 65/147/1
f 68/148/2 71/149/2 67/150/2
f 72/151/3 69/152/3 71/153/3
f 70/154/4 65/155/4 69/156/4
f 71/157/5 65/158/5 67/159/5
f 68/160/6 70/161/6 72/162/6
f 74/163/1 75/164/1 73/165/1
f 76/166/2 79/167/2 75/168/2
f 80/169/3 77/170/3 79/171/3
f 78/172/4 73/173/4 77/174/4
f 79/175/5 73/176/5 75/177/5
f 76/178/6 78/179/6 80/180/6
f 82/181/1 83/182/1 81/183/1
f 84/184/2 87/185/2 83/186/2
f 88/187/3 85/188/3 87/189/3
f 86/190/4 81/191/4 85/192/4
f 87/193/5 81/194/5 83/195/5
f 84/196/6 86/197/6 88/198/6
f 90/199/1 91/200/1 89/201/1
f 92/202/2 95/203/2 91/204/2
f 96/205/3 93/206/3 95/207/3
f 94/208/4 89/209/4 93/210/4
f 95/211/5 89/212/5 91/213/5
f 92/214/6 94/215/6 96/216/6
f 98/217/1 99/218/1 97/219/1
f 100/220/2 103/221/2 99/222/2
f 104/223/3 101/224/3 103/225/3
f 102/226/4 97/227/4 101/228/4
f 103/229/5 97/230/5 99/231/5
f 100/232/6 102/233/6 104/234/6
f 106/235/1 107/236/1 105/237/1
f 108/238/2 111/239/2 107/240/2
f 112/241/3 109/242/3 111/243/3
f 110/244/4 105/245/4 109/246/4
f 111/247/5 105/248/5 107/249/5
f 108/250/6 110/251/6 112/252/6
f 114/253/1 115/254/1 113/255/1
f 116/256/2 119/257/2 115/258/2
f 120/259/3 117/260/3 119/261/3
f 118/262/4 113/263/4 117/264/4
f 119/265/5 113/266/5 115/267/5
f 116/268/6 118/269/6 120/270/6
f 122/271/1 123/272/1 121/273/1
f 124/274/2 127/275/2 123/276/2
f 128/277/3 125/278/3 127/279/3
f 126/280/4 121/281/4 125/282/4
f 127/283/5 121/284/5 123/285/5
f 124/286/6 126/287/6 128/288/6
f 130/289/1 131/290/1 129/291/1
f 132/292/2 135/293/2 131/294/2
f 136/295/3 133/296/3 135/297/3
f 134/298/4 129/299/4 133/300/4
f 135/301/5 129/302/5 131/303/5
f 132/304/6 134/305/6 136/306/6
f 138/307/1 139/308/1 137/309/1
f 140/310/2 143/311/2 139/312/2
f 144/313/3 141/314/3 143/315/3
f 142/316/4 137/317/4 141/318/4
f 143/319/5 137/320/5 139/321/5
f 140/322/6 142/323/6 144/324/6
f 146/325/1 147/326/1 145/327/1
f 148/328/2 151/329/2 147/330/2
f 152/331/3 149/332/3 151/333/3
f 150/334/4 145/335/4 149/336/4
f 151/337/5 145/338/5 147/339/5
f 148/340/6 150/341/6 152/342/6
f 154/343/1 155/344/1 153/345/1
f 156/346/2 159/347/2 155/348/2
f 160/349/3 157/350/3 159/351/3
f 158/352/4 153/353/4 157/354/4
f 159/355/5 153/356/5 155/357/5
f 156/358/6 158/359/6 160/360/6
f 162/361/1 163/362/1 161/363/1
f 164/364/2 167/365/2 163/366/2
f 168/367/3 165/368/3 167/369/3
f 166/370/4 161/371/4 165/372/4
f 167/373/5 161/374/5 163/375/5
f 164/376/6 166/377/6 168/378/6
f 170/379/1 171/380/1 169/381/1
f 172/382/2 175/383/2 171/384/2
f 176/385/3 173/386/3 175/387/3
f 174/388/4 169/389/4 173/390/4
f 175/391/5 169/392/5 171/393/5
f 172/394/6 174/395/6 176/396/6
f 178/397/1 179/398/1 177/399/1
f 180/400/2 183/401/2 179/402/2
f 184/403/3 181/404/3 183/405/3
f 182/406/4 177/407/4 181/408/4
f 183/409/5 177/410/5 179/411/5
f 180/412/6 182/413/6 184/414/6
f 186/415/1 187/416/1 185/417/1
f 188/418/2 191/419/2 187/420/2
f 192/421/3 189/422/3 191/423/3
f 190/424/4 185/425/4 189/426/4
f 191/427/5 185/428/5 187/429/5
f 188/430/6 190/431/6 192/432/6
f 194/433/1 195/434/1 193/435/1
f 196/436/2 199/437/2 195/438/2
f 200/439/3 197/440/3 199/441/3
f 198/442/4 193/443/4 197/444/4
f 199/445/5 193/446/5 195/447/5
f 196/448/6 198/449/6 200/450/6
f 202/451/1 203/452/1 201/453/1
f 204/454/2 207/455/2 203/456/2
f 208/457/3 205/458/3 207/459/3
f 206/460/4 201/461/4 205/462/4
f 207/463/5 201/464/5 203/465/5
f 204/466/6 206/467/6 208/468/6
f 210/469/1 211/470/1 209/471/1
f 212/472/2 215/473/2 211/474/2
f 216/475/3 213/476/3 215/477/3
f 214/478/4 209/479/4 213/480/4
f 215/481/5 209/482/5 211/483/5
f 212/484/6 214/485/6 216/486/6
f 218/487/1 219/488/1 217/489/1
f 220/490/2 223/491/2 219/492/2
f 224/493/3 221/494/3 223/495/3
f 222/496/4 217/497/4 221/498/4
f 223/499/5 217/500/5 219/501/5
f 220/502/6 222/503/6 224/504/6
f 226/505/1 227/506/1 225/507/1
f 228/508/2 231/509/2 227/510/2
f 232/511/3 229/512/3 231/513/3
f 230/514/4 225/515/4 229/516/4
f 231/517/5 225/518/5 227/519/5
f 228/520/6 230/521/6 232/522/6
f 234/523/1 235/524/1 233/525/1
f 236/526/2 239/527/2 235/528/2
f 240/529/3 237/530/3 239/531/3
f 238/532/4 233/533/4 237/534/4
f 239/535/5 233/536/5 235/537/5
f 236/538/6 238/539/6 240/540/6
f 242/541/1 243/542/1 241/543/1
f 244/544/2 247/545/2 243/546/2
f 248/547/3 245/548/3 247/549/3
f 246/550/4 241/551/4 245/552/4
f 247/553/5 241/554/5 243/555/5
f 244/556/6 246/557/6 248/558/6
f 250/559/1 251/560/1 249/561/1
f 252/562/2 255/563/2 251/564/2
f 256/565/3 253/566/3 255/567/3
f 254/568/4 249/569/4 253/570/4
f 255/571/5 249/572/5 251/573/5
f 252/574/6 254/575/6 256/576/6
f 258/577/1 259/578/1 257/579/1
f 260/580/2 263/581/2 259/582/2
f 264/583/3 261/584/3 263/585/3
f 262/586/4 257/587/4 261/588/4
f 263/589/5 257/590/5 259/591/5
f 260/592/6 262/593/6 264/594/6
f 266/595/1 267/596/1 265/597/1
f 268/598/2 271/599/2 267/600/2
f 272/601/3 269/602/3 271/603/3
f 270/604/4 265/605/4 269/606/4
f 271/607/5 265/608/5 267/609/5
f 268/610/6 270/611/6 272/612/6
f 274/613/1 275/614/1 273/615/1
f 276/616/2 279/617/2 275/618/2
f 280/619/3 277/620/3 279/621/3
f 278/622/4 273/623/4 277/624/4
f 279/625/5 273/626/5 275/627/5
f 276/628/6 278/629/6 280/630/6
f 282/631/1 283/632/1 281/633/1
f 284/634/2 287/635/2 283/636/2
f 288/637/3 285/638/3 287/639/3
f 286/640/4 281/641/4 285/642/4
f 287/643/5 281/644/5 283/645/5
f 284/646/6 286/647/6 288/648/6
f 290/649/1 291/650/1 289/651/1
f 292/652/2 295/653/2 291/654/2
f 296/655/3 293/656/3 295/657/3
f 294/658/4 289/659/4 293/660/4
f 295/661/5 289/662/5 291/663/5
f 292/664/6 294/665/6 296/666/6
f 298/667/1 299/668/1 297/669/1
f 300/670/2 303/671/2 299/672/2
f 304/673/3 301/674/3 303/675/3
f 302/676/4 297/677/4 301/678/4
f 303/679/5 297/680/5 299/681/5
f 300/682/6 302/683/6 304/684/6
f 305/685/7 306/686/7 307/687/7
f 306/688/8 305/689/8 310/690/8
f 305/685/9 307/687/9 308/691/9
f 305/685/10 308/691/10 309/692/10
f 305/693/11 309/694/11 310/695/11
f 306/688/12 310/690/12 315/696/12
f 307/697/13 306/698/13 311/699/13
f 308/700/14 307/701/14 312/702/14
f 309/694/15 308/703/15 313/704/15
f 310/695/16 309/694/16 314/705/16
f 306/698/17 315/706/17 311/699/17
f 307/701/18 311/707/18 312/702/18
f 308/700/19 312/702/19 313/708/19
f 309/694/20 313/704/20 314/705/20
f 310/690/21 314/709/21 315/696/21
f 311/710/22 315/711/22 316/712/22
f 312/713/23 311/710/23 316/712/23
f 313/708/24 312/702/24 316/714/24
f 314/715/25 313/716/25 316/712/25
f 315/711/26 314/715/26 316/712/26
f 317/717/27 318/718/27 319/719/27
f 318/718/28 317/717/28 322/720/28
f 317/717/29 319/719/29 320/721/29
f 317/717/30 320/721/30 321/722/30
f 317/717/31 321/722/31 322/720/31
f 318/723/32 322/724/32 327/725/32
f 319/726/33 318/727/33 323/728/33
f 320/729/34 319/730/34 324/731/34
f 321/732/35 320/729/35 325/733/35
f 322/734/36 321/735/36 326/736/36
f 318/727/37 327/737/37 323/728/37
f 319/726/38 323/728/38 324/738/38
f 320/729/39 324/731/39 325/733/39
f 321/735/40 325/739/40 326/736/40
f 322/734/41 326/736/41 327/740/41
f 323/741/42 327/742/42 328/743/42
f 324/744/43 323/741/43 328/743/43
f 325/745/44 324/744/44 328/743/44
f 326/736/45 325/739/45 328/746/45
f 327/742/46 326/747/46 328/743/46
f 329/748/47 330/749/47 331/750/47
f 330/749/48 329/748/48 334/751/48
f 329/748/49 331/750/49 332/752/49
f 329/753/50 332/754/50 333/755/50
f 329/753/51 333/755/51 334/756/51
f 330/757/52 334/758/52 339/759/52
f 331/760/53 330/761/53 335/762/53
f 332/763/54 331/764/54 336/765/54
f 333/755/55 332/754/55 337/766/55
f 334/756/56 333/755/56 338/767/56
f 330/761/57 339/768/57 335/762/57
f 331/760/58 335/762/58 336/769/58
f 332/763/59 336/765/59 337/770/59
f 333/755/60 337/766/60 338/767/60
f 334/758/61 338/771/61 339/759/61
f 335/762/62 339/768/62 340/772/62
f 336/773/63 335/774/63 340/775/63
f 337/776/64 336/773/64 340/775/64
f 338/777/65 337/776/65 340/775/65
f 339/778/66 338/777/66 340/775/66
f 341/779/67 342/780/67 343/781/67
f 342/780/68 341/779/68 346/782/68
f 341/779/69 343/781/69 344/783/69
f 341/784/70 344/785/70 345/786/70
f 341/784/71 345/786/71 346/787/71
f 342/788/72 346/789/72 351/790/72
f 343/791/73 342/792/73 347/793/73
f 344/794/74 343/795/74 348/796/74
f 345/786/75 344/785/75 349/797/75
f 346/787/76 345/786/76 350/798/76
f 342/788/77 351/790/77 347/799/77
f 343/791/78 347/793/78 348/800/78
f 344/794/79 348/796/79 349/801/79
f 345/786/80 349/797/80 350/798/80
f 346/789/81 350/802/81 351/790/81
f 347/803/82 351/804/82 352/805/82
f 348/800/83 347/793/83 352/806/83
f 349/807/84 348/808/84 352/805/84
f 350/809/85 349/807/85 352/805/85
f 351/804/86 350/809/86 352/805/86
f 353/810/87 354/811/87 355/812/87
f 354/811/88 353/810/88 358/813/88
f 353/810/89 355/812/89 356/814/89
f 353/815/90 356/816/90 357/817/90
f 353/818/91 357/819/91 358/820/91
f 354/821/92 358/822/92 363/823/92
f 355/824/93 354/821/93 359/825/93
f 356/826/94 355/827/94 360/828/94
f 357/817/95 356/816/95 361/829/95
f 358/820/96 357/819/96 362/830/96
f 354/821/97 363/823/97 359/825/97
f 355/827/98 359/831/98 360/828/98
f 356/816/99 360/832/99 361/829/99
f 357/817/100 361/829/100 362/833/100
f 358/820/101 362/830/101 363/834/101
f 359/825/102 363/823/102 364/835/102
f 360/836/103 359/837/103 364/838/103
f 361/839/104 360/836/104 364/838/104
f 362/840/105 361/839/105 364/838/105
f 363/834/106 362/830/106 364/841/106
f 365/842/107 366/843/107 367/844/107
f 366/843/108 365/842/108 370/845/108
f 365/842/109 367/844/109 368/846/109
f 365/842/110 368/846/110 369/847/110
f 365/842/111 369/847/111 370/845/111
f 366/848/112 370/849/112 375/850/112
f 367/851/113 366/852/113 371/853/113
f 368/854/114 367/855/114 372/856/114
f 369/857/115 368/854/115 373/858/115
f 370/859/116 369/860/116 374/861/116
f 366/848/117 375/850/117 371/862/117
f 367/851/118 371/853/118 372/863/118
f 368/854/119 372/856/119 373/858/119
f 369/860/120 373/864/120 374/861/120
f 370/859/121 374/861/121 375/865/121
f 371/866/122 375/867/122 376/868/122
f 372/863/123 371/853/123 376/869/123
f 373/870/124 372/871/124 376/868/124
f 374/872/125 373/870/125 376/868/125
f 375/867/126 374/872/126 376/868/126
f 377/873/127 378/874/127 379/875/127
f 378/874/128 377/873/128 382/876/128
f 377/873/129 379/875/129 380/877/129
f 377/873/130 380/877/130 381/878/130
f 377/873/131 381/878/131 382/876/131
f 378/879/132 382/880/132 387/881/132
f 379/882/133 378/879/133 383/883/133
f 380/884/134 379/885/134 384/886/134
f 381/887/135 380/888/135 385/889/135
f 382/890/136 381/891/136 386/892/136
f 378/879/137 387/881/137 383/883/137
f 379/885/138 383/893/138 384/886/138
f 380/888/139 384/894/139 385/889/139
f 381/887/140 385/889/140 386/895/140
f 382/890/141 386/892/141 387/896/141
f 383/883/142 387/881/142 388/897/142
f 384/898/143 383/899/143 388/900/143
f 385/901/144 384/898/144 388/900/144
f 386/902/145 385/901/145 388/900/145
f 387/903/146 386/902/146 388/900/146
f 389/904/147 390/905/147 391/906/147
f 390/905/148 389/904/148 394/907/148
f 389/904/149 391/906/149 392/908/149
f 389/904/150 392/908/150 393/909/150
f 389/904/151 393/909/151 394/907/151
f 390/910/152 394/911/152 399/912/152
f 391/913/153 390/914/153 395/915/153
f 392/916/154 391/917/154 396/918/154
f 393/919/155 392/920/155 397/921/155
f 394/922/156 393/919/156 398/923/156
f 390/914/157 399/924/157 395/915/157
f 391/913/158 395/915/158 396/925/158
f 392/916/159 396/918/159 397/926/159
f 393/919/160 397/921/160 398/923/160
f 394/911/161 398/927/161 399/912/161
f 395/928/162 399/929/162 400/930/162
f 396/931/163 395/928/163 400/930/163
f 397/932/164 396/931/164 400/930/164
f 398/933/165 397/932/165 400/930/165
f 399/929/166 398/933/166 400/930/166
f 401/934/167 402/935/167 403/936/167
f 402/935/168 401/934/168 406/937/168
f 401/934/169 403/936/169 404/938/169
f 401/934/170 404/938/170 405/939/170
f 401/934/171 405/939/171 406/937/171
f 402/940/172 406/941/172 411/942/172
f 403/943/173 402/944/173 407/945/173
f 404/946/174 403/947/174 408/948/174
f 405/949/175 404/950/175 409/951/175
f 406/941/176 405/952/176 410/953/176
f 402/944/177 411/954/177 407/945/177
f 403/947/178 407/955/178 408/948/178
f 404/946/179 408/948/179 409/956/179
f 405/949/180 409/951/180 410/957/180
f 406/941/181 410/953/181 411/942/181
f 407/945/182 411/954/182 412/958/182
f 408/959/183 407/960/183 412/961/183
f 409/962/184 408/959/184 412/961/184
f 410/963/185 409/962/185 412/961/185
f 411/964/186 410/963/186 412/961/186
f 413/965/187 414/966/187 415/967/187
f 414/966/188 413/965/188 418/968/188
f 413/965/189 415/967/189 416/969/189
f 413/965/190 416/969/190 417/970/190
f 413/965/191 417/970/191 418/968/191
f 414/971/192 418/972/192 423/973/192
f 415/974/193 414/975/193 419/976/193
f 416/977/194 415/978/194 420/979/194
f 417/980/195 416/981/195 421/982/195
f 418/972/196 417/983/196 422/984/196
f 414/975/197 423/985/197 419/976/197
f 415/974/198 419/976/198 420/986/198
f 416/977/199 420/979/199 421/987/199
f 417/980/200 421/982/200 422/988/200
f 418/972/201 422/984/201 423/973/201
f 419/989/202 423/990/202 424/991/202
f 420/992/203 419/989/203 424/991/203
f 421/993/204 420/992/204 424/991/204
f 422/994/205 421/993/205 424/991/205
f 423/990/206 422/994/206 424/991/206
f 426/995/1 427/996/1 425/997/1
f 428/998/2 431/999/2 427/1000/2
f 432/1001/3 429/1002/3 431/1003/3
f 430/1004/4 425/1005/4 429/1006/4
f 431/1007/5 425/1008/5 427/1009/5
f 428/1010/6 430/1011/6 432/1012/6
f 434/1013/1 435/1014/1 433/1015/1
f 436/1016/2 439/1017/2 435/1018/2
f 440/1019/3 437/1020/3 439/1021/3
f 438/1022/4 433/1023/4 437/1024/4
f 439/1025/5 433/1026/5 435/1027/5
f 436/1028/6 438/1029/6 440/1030/6
f 442/1031/1 443/1032/1 441/1033/1
f 444/1034/2 447/1035/2 443/1036/2
f 448/1037/3 445/1038/3 447/1039/3
f 446/1040/4 441/1041/4 445/1042/4
f 447/1043/5 441/1044/5 443/1045/5
f 444/1046/6 446/1047/6 448/1048/6
f 450/1049/1 451/1050/1 449/1051/1
f 452/1052/207 455/1053/207 451/1054/207
f 456/1055/3 453/1056/3 455/1057/3
f 454/1058/208 449/1059/208 453/1060/208
f 455/1061/209 449/1062/209 451/1063/209
f 452/1064/210 454/1065/210 456/1066/210
s 1
f 480/1067/2 457/1068/211 458/1069/2
f 479/1070/211 481/1071/212 457/1072/211
f 482/1073/212 483/1074/213 481/1071/212
f 484/1075/213 485/1076/214 483/1074/213
f 487/1077/214 488/1078/4 485/1079/214
f 489/1080/4 490/1081/215 488/1078/4
f 491/1082/215 492/1083/216 490/1084/215
f 493/1085/216 495/1086/217 492/1083/216
f 476/1087/3 468/1088/3 464/1089/3
f 494/1090/217 496/1091/218 495/1086/217
f 486/1092/218 458/1069/2 496/1093/218
f 465/1094/1 473/1095/1 477/1096/1
s 0
f 498/1097/1 499/1098/1 497/1099/1
f 500/1100/219 503/1101/219 499/1102/219
f 504/1103/3 501/1104/3 503/1105/3
f 502/1106/220 497/1107/220 501/1108/220
f 503/1109/221 497/1110/221 499/1111/221
f 500/1112/222 502/1113/222 504/1114/222
s 1
f 528/1115/2 505/1116/211 506/1117/2
f 527/1118/211 529/1119/212 505/1120/211
f 530/1121/212 531/1122/213 529/1119/212
f 532/1123/213 533/1124/214 531/1122/213
f 535/1125/214 536/1126/4 533/1127/214
f 537/1128/4 538/1129/215 536/1126/4
f 539/1130/215 540/1131/216 538/1132/215
f 541/1133/216 543/1134/217 540/1131/216
f 524/1135/3 516/1136/3 512/1137/3
f 542/1138/217 544/1139/218 543/1134/217
f 534/1140/218 506/1117/2 544/1141/218
f 513/1142/1 521/1143/1 525/1144/1
s 0
f 545/1145/3 546/1146/3 547/1147/3
f 550/1148/1 549/1149/1 548/1150/1
f 545/1151/5 549/1152/5 546/1153/5
f 546/1154/222 550/1155/222 547/1156/222
f 547/1157/210 548/1158/210 545/1159/210
f 551/1160/3 552/1161/3 553/1162/3
f 556/1163/1 555/1164/1 554/1165/1
f 551/1166/5 555/1167/5 552/1168/5
f 552/1169/222 556/1170/222 553/1171/222
f 553/1172/210 554/1173/210 551/1174/210
s 1
f 580/1175/2 557/1176/211 558/1177/2
f 579/1178/211 581/1179/212 557/1180/211
f 582/1181/212 583/1182/213 581/1179/212
f 584/1183/213 585/1184/214 583/1182/213
f 587/1185/214 588/1186/4 585/1187/214
f 589/1188/4 590/1189/215 588/1186/4
f 591/1190/215 592/1191/216 590/1192/215
f 593/1193/216 595/1194/217 592/1191/216
f 576/1195/3 568/1196/3 564/1197/3
f 594/1198/217 596/1199/218 595/1194/217
f 586/1200/218 558/1177/2 596/1201/218
f 565/1202/1 573/1203/1 577/1204/1
s 0
f 598/1205/1 599/1206/1 597/1207/1
f 600/1208/2 603/1209/2 599/1210/2
f 604/1211/3 601/1212/3 603/1213/3
f 602/1214/4 597/1215/4 601/1216/4
f 603/1217/5 597/1218/5 599/1219/5
f 600/1220/6 602/1221/6 604/1222/6
f 606/1223/1 607/1224/1 605/1225/1
f 608/1226/2 611/1227/2 607/1228/2
f 612/1229/3 609/1230/3 611/1231/3
f 610/1232/4 605/1233/4 609/1234/4
f 611/1235/5 605/1236/5 607/1237/5
f 608/1238/6 610/1239/6 612/1240/6
f 614/1241/1 615/1242/1 613/1243/1
f 616/1244/2 619/1245/2 615/1246/2
f 620/1247/3 617/1248/3 619/1249/3
f 618/1250/4 613/1251/4 617/1252/4
f 619/1253/5 613/1254/5 615/1255/5
f 616/1256/6 618/1257/6 620/1258/6
f 622/1259/223 623/1260/223 621/1261/223
f 624/1262/224 625/1263/224 623/1264/224
f 626/1265/225 627/1266/225 625/1263/225
f 628/1267/226 629/1268/226 627/1269/226
f 630/1270/227 631/1271/227 629/1268/227
f 632/1272/228 633/1273/228 631/1274/228
f 634/1275/6 630/1276/6 626/1277/6
f 634/1278/229 635/1279/229 633/1273/229
f 635/1280/230 622/1259/230 621/1261/230
f 627/1281/5 631/1282/5 635/1283/5
f 638/1284/223 639/1285/223 637/1286/223
f 640/1287/224 641/1288/224 639/1289/224
f 642/1290/225 643/1291/225 641/1288/225
f 644/1292/226 645/1293/226 643/1294/226
f 646/1295/227 647/1296/227 645/1293/227
f 648/1297/228 649/1298/228 647/1299/228
f 650/1300/6 646/1301/6 642/1302/6
f 650/1303/229 651/1304/229 649/1298/229
f 651/1305/230 638/1284/230 637/1286/230
f 643/1306/5 647/1307/5 651/1308/5
f 654/1309/1 655/1310/1 653/1311/1
f 656/1312/2 659/1313/2 655/1314/2
f 660/1315/3 657/1316/3 659/1317/3
f 658/1318/4 653/1319/4 657/1320/4
f 659/1321/5 653/1322/5 655/1323/5
f 656/1324/6 658/1325/6 660/1326/6
f 662/1327/1 663/1328/1 661/1329/1
f 664/1330/2 667/1331/2 663/1332/2
f 668/1333/3 665/1334/3 667/1335/3
f 666/1336/4 661/1337/4 665/1338/4
f 667/1339/5 661/1340/5 663/1341/5
f 664/1342/6 666/1343/6 668/1344/6
f 670/1345/1 671/1346/1 669/1347/1
f 672/1348/2 675/1349/2 671/1350/2
f 676/1351/3 673/1352/3 675/1353/3
f 674/1354/4 669/1355/4 673/1356/4
f 675/1357/5 669/1358/5 671/1359/5
f 672/1360/6 674/1361/6 676/1362/6
f 678/1363/1 679/1364/1 677/1365/1
f 680/1366/2 683/1367/2 679/1368/2
f 684/1369/3 681/1370/3 683/1371/3
f 682/1372/4 677/1373/4 681/1374/4
f 683/1375/5 677/1376/5 679/1377/5
f 680/1378/6 682/1379/6 684/1380/6
f 686/1381/231 687/1382/231 685/1383/231
f 688/1384/2 691/1385/2 687/1386/2
f 692/1387/232 689/1388/232 691/1389/232
f 690/1390/4 685/1391/4 689/1392/4
f 691/1393/233 685/1394/233 687/1395/233
f 688/1396/234 690/1397/234 692/1398/234
f 694/1399/1 695/1400/1 693/1401/1
f 696/1402/2 699/1403/2 695/1404/2
f 700/1405/3 697/1406/3 699/1407/3
f 698/1408/4 693/1409/4 697/1410/4
f 699/1411/5 693/1412/5 695/1413/5
f 696/1414/6 698/1415/6 700/1416/6
f 2/1/1 4/1417/1 3/2/1
f 4/4/2 8/1418/2 7/5/2
f 8/7/3 6/1419/3 5/8/3
f 6/10/4 2/1420/4 1/11/4
f 7/13/5 5/1421/5 1/14/5
f 4/16/6 2/1422/6 6/17/6
f 10/19/1 12/1423/1 11/20/1
f 12/22/2 16/1424/2 15/23/2
f 16/25/3 14/1425/3 13/26/3
f 14/28/4 10/1426/4 9/29/4
f 15/31/5 13/1427/5 9/32/5
f 12/34/6 10/1428/6 14/35/6
f 18/37/1 20/1429/1 19/38/1
f 20/40/2 24/1430/2 23/41/2
f 24/43/3 22/1431/3 21/44/3
f 22/46/4 18/1432/4 17/47/4
f 23/49/5 21/1433/5 17/50/5
f 20/52/6 18/1434/6 22/53/6
f 26/55/1 28/1435/1 27/56/1
f 28/58/2 32/1436/2 31/59/2
f 32/61/3 30/1437/3 29/62/3
f 30/64/4 26/1438/4 25/65/4
f 31/67/5 29/1439/5 25/68/5
f 28/70/6 26/1440/6 30/71/6
f 34/73/1 36/1441/1 35/74/1
f 36/76/2 40/1442/2 39/77/2
f 40/79/3 38/1443/3 37/80/3
f 38/82/4 34/1444/4 33/83/4
f 39/85/5 37/1445/5 33/86/5
f 36/88/6 34/1446/6 38/89/6
f 42/91/1 44/1447/1 43/92/1
f 44/94/2 48/1448/2 47/95/2
f 48/97/3 46/1449/3 45/98/3
f 46/100/4 42/1450/4 41/101/4
f 47/103/5 45/1451/5 41/104/5
f 44/106/6 42/1452/6 46/107/6
f 50/109/1 52/1453/1 51/110/1
f 52/112/2 56/1454/2 55/113/2
f 56/115/3 54/1455/3 53/116/3
f 54/118/4 50/1456/4 49/119/4
f 55/121/5 53/1457/5 49/122/5
f 52/124/6 50/1458/6 54/125/6
f 58/127/1 60/1459/1 59/128/1
f 60/130/2 64/1460/2 63/131/2
f 64/133/3 62/1461/3 61/134/3
f 62/136/4 58/1462/4 57/137/4
f 63/139/5 61/1463/5 57/140/5
f 60/142/6 58/1464/6 62/143/6
f 66/145/1 68/1465/1 67/146/1
f 68/148/2 72/1466/2 71/149/2
f 72/151/3 70/1467/3 69/152/3
f 70/154/4 66/1468/4 65/155/4
f 71/157/5 69/1469/5 65/158/5
f 68/160/6 66/1470/6 70/161/6
f 74/163/1 76/1471/1 75/164/1
f 76/166/2 80/1472/2 79/167/2
f 80/169/3 78/1473/3 77/170/3
f 78/172/4 74/1474/4 73/173/4
f 79/175/5 77/1475/5 73/176/5
f 76/178/6 74/1476/6 78/179/6
f 82/181/1 84/1477/1 83/182/1
f 84/184/2 88/1478/2 87/185/2
f 88/187/3 86/1479/3 85/188/3
f 86/190/4 82/1480/4 81/191/4
f 87/193/5 85/1481/5 81/194/5
f 84/196/6 82/1482/6 86/197/6
f 90/199/1 92/1483/1 91/200/1
f 92/202/2 96/1484/2 95/203/2
f 96/205/3 94/1485/3 93/206/3
f 94/208/4 90/1486/4 89/209/4
f 95/211/5 93/1487/5 89/212/5
f 92/214/6 90/1488/6 94/215/6
f 98/217/1 100/1489/1 99/218/1
f 100/220/2 104/1490/2 103/221/2
f 104/223/3 102/1491/3 101/224/3
f 102/226/4 98/1492/4 97/227/4
f 103/229/5 101/1493/5 97/230/5
f 100/232/6 98/1494/6 102/233/6
f 106/235/1 108/1495/1 107/236/1
f 108/238/2 112/1496/2 111/239/2
f 112/241/3 110/1497/3 109/242/3
f 110/244/4 106/1498/4 105/245/4
f 111/247/5 109/1499/5 105/248/5
f 108/250/6 106/1500/6 110/251/6
f 114/253/1 116/1501/1 115/254/1
f 116/256/2 120/1502/2 119/257/2
f 120/259/3 118/1503/3 117/260/3
f 118/262/4 114/1504/4 113/263/4
f 119/265/5 117/1505/5 113/266/5
f 116/268/6 114/1506/6 118/269/6
f 122/271/1 124/1507/1 123/272/1
f 124/274/2 128/1508/2 127/275/2
f 128/277/3 126/1509/3 125/278/3
f 126/280/4 122/1510/4 121/281/4
f 127/283/5 125/1511/5 121/284/5
f 124/286/6 122/1512/6 126/287/6
f 130/289/1 132/1513/1 131/290/1
f 132/292/2 136/1514/2 135/293/2
f 136/295/3 134/1515/3 133/296/3
f 134/298/4 130/1516/4 129/299/4
f 135/301/5 133/1517/5 129/302/5
f 132/304/6 130/1518/6 134/305/6
f 138/307/1 140/1519/1 139/308/1
f 140/310/2 144/1520/2 143/311/2
f 144/313/3 142/1521/3 141/314/3
f 142/316/4 138/1522/4 137/317/4
f 143/319/5 141/1523/5 137/320/5
f 140/322/6 138/1524/6 142/323/6
f 146/325/1 148/1525/1 147/326/1
f 148/328/2 152/1526/2 151/329/2
f 152/331/3 150/1527/3 149/332/3
f 150/334/4 146/1528/4 145/335/4
f 151/337/5 149/1529/5 145/338/5
f 148/340/6 146/1530/6 150/341/6
f 154/343/1 156/1531/1 155/344/1
f 156/346/2 160/1532/2 159/347/2
f 160/349/3 158/1533/3 157/350/3
f 158/352/4 154/1534/4 153/353/4
f 159/355/5 157/1535/5 153/356/5
f 156/358/6 154/1536/6 158/359/6
f 162/361/1 164/1537/1 163/362/1
f 164/364/2 168/1538/2 167/365/2
f 168/367/3 166/1539/3 165/368/3
f 166/370/4 162/1540/4 161/371/4
f 167/373/5 165/1541/5 161/374/5
f 164/376/6 162/1542/6 166/377/6
f 170/379/1 172/1543/1 171/380/1
f 172/382/2 176/1544/2 175/383/2
f 176/385/3 174/1545/3 173/386/3
f 174/388/4 170/1546/4 169/389/4
f 175/391/5 173/1547/5 169/392/5
f 172/394/6 170/1548/6 174/395/6
f 178/397/1 180/1549/1 179/398/1
f 180/400/2 184/1550/2 183/401/2
f 184/403/3 182/1551/3 181/404/3
f 182/406/4 178/1552/4 177/407/4
f 183/409/5 181/1553/5 177/410/5
f 180/412/6 178/1554/6 182/413/6
f 186/415/1 188/1555/1 187/416/1
f 188/418/2 192/1556/2 191/419/2
f 192/421/3 190/1557/3 189/422/3
f 190/424/4 186/1558/4 185/425/4
f 191/427/5 189/1559/5 185/428/5
f 188/430/6 186/1560/6 190/431/6
f 194/433/1 196/1561/1 195/434/1
f 196/436/2 200/1562/2 199/437/2
f 200/439/3 198/1563/3 197/440/3
f 198/442/4 194/1564/4 193/443/4
f 199/445/5 197/1565/5 193/446/5
f 196/448/6 194/1566/6 198/449/6
f 202/451/1 204/1567/1 203/452/1
f 204/454/2 208/1568/2 207/455/2
f 208/457/3 206/1569/3 205/458/3
f 206/460/4 202/1570/4 201/461/4
f 207/463/5 205/1571/5 201/464/5
f 204/466/6 202/1572/6 206/467/6
f 210/469/1 212/1573/1 211/470/1
f 212/472/2 216/1574/2 215/473/2
f 216/475/3 214/1575/3 213/476/3
f 214/478/4 210/1576/4 209/479/4
f 215/481/5 213/1577/5 209/482/5
f 212/484/6 210/1578/6 214/485/6
f 218/487/1 220/1579/1 219/488/1
f 220/490/2 224/1580/2 223/491/2
f 224/493/3 222/1581/3 221/494/3
f 222/496/4 218/1582/4 217/497/4
f 223/499/5 221/1583/5 217/500/5
f 220/502/6 218/1584/6 222/503/6
f 226/505/1 228/1585/1 227/506/1
f 228/508/2 232/1586/2 231/509/2
f 232/511/3 230/1587/3 229/512/3
f 230/514/4 226/1588/4 225/515/4
f 231/517/5 229/1589/5 225/518/5
f 228/520/6 226/1590/6 230/521/6
f 234/523/1 236/1591/1 235/524/1
f 236/526/2 240/1592/2 239/527/2
f 240/529/3 238/1593/3 237/530/3
f 238/532/4 234/1594/4 233/533/4
f 239/535/5 237/1595/5 233/536/5
f 236/538/6 234/1596/6 238/539/6
f 242/541/1 244/1597/1 243/542/1
f 244/544/2 248/1598/2 247/545/2
f 248/547/3 246/1599/3 245/548/3
f 246/550/4 242/1600/4 241/551/4
f 247/553/5 245/1601/5 241/554/5
f 244/556/6 242/1602/6 246/557/6
f 250/559/1 252/1603/1 251/560/1
f 252/562/2 256/1604/2 255/563/2
f 256/565/3 254/1605/3 253/566/3
f 254/568/4 250/1606/4 249/569/4
f 255/571/5 253/1607/5 249/572/5
f 252/574/6 250/1608/6 254/575/6
f 258/577/1 260/1609/1 259/578/1
f 260/580/2 264/1610/2 263/581/2
f 264/583/3 262/1611/3 261/584/3
f 262/586/4 258/1612/4 257/587/4
f 263/589/5 261/1613/5 257/590/5
f 260/592/6 258/1614/6 262/593/6
f 266/595/1 268/1615/1 267/596/1
f 268/598/2 272/1616/2 271/599/2
f 272/601/3 270/1617/3 269/602/3
f 270/604/4 266/1618/4 265/605/4
f 271/607/5 269/1619/5 265/608/5
f 268/610/6 266/1620/6 270/611/6
f 274/613/1 276/1621/1 275/614/1
f 276/616/2 280/1622/2 279/617/2
f 280/619/3 278/1623/3 277/620/3
f 278/622/4 274/1624/4 273/623/4
f 279/625/5 277/1625/5 273/626/5
f 276/628/6 274/1626/6 278/629/6
f 282/631/1 284/1627/1 283/632/1
f 284/634/2 288/1628/2 287/635/2
f 288/637/3 286/1629/3 285/638/3
f 286/640/4 282/1630/4 281/641/4
f 287/643/5 285/1631/5 281/644/5
f 284/646/6 282/1632/6 286/647/6
f 290/649/1 292/1633/1 291/650/1
f 292/652/2 296/1634/2 295/653/2
f 296/655/3 294/1635/3 293/656/3
f 294/658/4 290/1636/4 289/659/4
f 295/661/5 293/1637/5 289/662/5
f 292/664/6 290/1638/6 294/665/6
f 298/667/1 300/1639/1 299/668/1
f 300/670/2 304/1640/2 303/671/2
f 304/673/3 302/1641/3 301/674/3
f 302/676/4 298/1642/4 297/677/4
f 303/679/5 301/1643/5 297/680/5
f 300/682/6 298/1644/6 302/683/6
f 426/995/1 428/1645/1 427/996/1
f 428/998/2 432/1646/2 431/999/2
f 432/1001/3 430/1647/3 429/1002/3
f 430/1004/4 426/1648/4 425/1005/4
f 431/1007/5 429/1649/5 425/1008/5
f 428/1010/6 426/1650/6 430/1011/6
f 434/1013/1 436/1651/1 435/1014/1
f 436/1016/2 440/1652/2 439/1017/2
f 440/1019/3 438/1653/3 437/1020/3
f 438/1022/4 434/1654/4 433/1023/4
f 439/1025/5 437/1655/5 433/1026/5
f 436/1028/6 434/1656/6 438/1029/6
f 442/1031/1 444/1657/1 443/1032/1
f 444/1034/2 448/1658/2 447/1035/2
f 448/1037/3 446/1659/3 445/1038/3
f 446/1040/4 442/1660/4 441/1041/4
f 447/1043/5 445/1661/5 441/1044/5
f 444/1046/6 442/1662/6 446/1047/6
f 450/1049/1 452/1663/1 451/1050/1
f 452/1052/207 456/1664/207 455/1053/207
f 456/1055/3 454/1665/3 453/1056/3
f 454/1058/208 450/1666/208 449/1059/208
f 455/1061/209 453/1667/209 449/1062/209
f 452/1064/210 450/1668/210 454/1065/210
s 1
f 480/1067/2 479/1669/211 457/1068/211
f 479/1070/211 482/1073/212 481/1071/212
f 482/1073/212 484/1075/213 483/1074/213
f 484/1075/213 487/1670/214 485/1076/214
f 487/1077/214 489/1080/4 488/1078/4
f 489/1080/4 491/1671/215 490/1081/215
f 491/1082/215 493/1085/216 492/1083/216
f 493/1085/216 494/1090/217 495/1086/217
f 464/1089/3 462/1672/3 460/1673/3
f 460/1673/3 478/1674/3 476/1087/3
f 476/1087/3 474/1675/3 472/1676/3
f 472/1676/3 470/1677/3 468/1088/3
f 468/1088/3 466/1678/3 464/1089/3
f 464/1089/3 460/1673/3 476/1087/3
f 476/1087/3 472/1676/3 468/1088/3
f 494/1090/217 486/1679/218 496/1091/218
f 486/1092/218 480/1067/2 458/1069/2
f 477/1096/1 459/1680/1 461/1681/1
f 461/1681/1 463/1682/1 465/1094/1
f 465/1094/1 467/1683/1 469/1684/1
f 469/1684/1 471/1685/1 473/1095/1
f 473/1095/1 475/1686/1 477/1096/1
f 477/1096/1 461/1681/1 465/1094/1
f 465/1094/1 469/1684/1 473/1095/1
s 0
f 498/1097/1 500/1687/1 499/1098/1
f 500/1100/219 504/1688/219 503/1101/219
f 504/1103/3 502/1689/3 501/1104/3
f 502/1106/220 498/1690/220 497/1107/220
f 503/1109/221 501/1691/221 497/1110/221
f 500/1112/222 498/1692/222 502/1113/222
s 1
f 528/1115/2 527/1693/211 505/1116/211
f 527/1118/211 530/1121/212 529/1119/212
f 530/1121/212 532/1123/213 531/1122/213
f 532/1123/213 535/1694/214 533/1124/214
f 535/1125/214 537/1128/4 536/1126/4
f 537/1128/4 539/1695/215 538/1129/215
f 539/1130/215 541/1133/216 540/1131/216
f 541/1133/216 542/1138/217 543/1134/217
f 512/1137/3 510/1696/3 508/1697/3
f 508/1697/3 526/1698/3 524/1135/3
f 524/1135/3 522/1699/3 520/1700/3
f 520/1700/3 518/1701/3 516/1136/3
f 516/1136/3 514/1702/3 512/1137/3
f 512/1137/3 508/1697/3 524/1135/3
f 524/1135/3 520/1700/3 516/1136/3
f 542/1138/217 534/1703/218 544/1139/218
f 534/1140/218 528/1115/2 506/1117/2
f 525/1144/1 507/1704/1 509/1705/1
f 509/1705/1 511/1706/1 513/1142/1
f 513/1142/1 515/1707/1 517/1708/1
f 517/1708/1 519/1709/1 521/1143/1
f 521/1143/1 523/1710/1 525/1144/1
f 525/1144/1 509/1705/1 513/1142/1
f 513/1142/1 517/1708/1 521/1143/1
s 0
f 545/1151/5 548/1711/5 549/1152/5
f 546/1154/222 549/1712/222 550/1155/222
f 547/1157/210 550/1713/210 548/1158/210
f 551/1166/5 554/1714/5 555/1167/5
f 552/1169/222 555/1715/222 556/1170/222
f 553/1172/210 556/1716/210 554/1173/210
s 1
f 580/1175/2 579/1717/211 557/1176/211
f 579/1178/211 582/1181/212 581/1179/212
f 582/1181/212 584/1183/213 583/1182/213
f 584/1183/213 587/1718/214 585/1184/214
f 587/1185/214 589/1188/4 588/1186/4
f 589/1188/4 591/1719/215 590/1189/215
f 591/1190/215 593/1193/216 592/1191/216
f 593/1193/216 594/1198/217 595/1194/217
f 564/1197/3 562/1720/3 560/1721/3
f 560/1721/3 578/1722/3 576/1195/3
f 576/1195/3 574/1723/3 572/1724/3
f 572/1724/3 570/1725/3 568/1196/3
f 568/1196/3 566/1726/3 564/1197/3
f 564/1197/3 560/1721/3 576/1195/3
f 576/1195/3 572/1724/3 568/1196/3
f 594/1198/217 586/1727/218 596/1199/218
f 586/1200/218 580/1175/2 558/1177/2
f 577/1204/1 559/1728/1 561/1729/1
f 561/1729/1 563/1730/1 565/1202/1
f 565/1202/1 567/1731/1 569/1732/1
f 569/1732/1 571/1733/1 573/1203/1
f 573/1203/1 575/1734/1 577/1204/1
f 577/1204/1 561/1729/1 565/1202/1
f 565/1202/1 569/1732/1 573/1203/1
s 0
f 598/1205/1 600/1735/1 599/1206/1
f 600/1208/2 604/1736/2 603/1209/2
f 604/1211/3 602/1737/3 601/1212/3
f 602/1214/4 598/1738/4 597/1215/4
f 603/1217/5 601/1739/5 597/1218/5
f 600/1220/6 598/1740/6 602/1221/6
f 606/1223/1 608/1741/1 607/1224/1
f 608/1226/2 612/1742/2 611/1227/2
f 612/1229/3 610/1743/3 609/1230/3
f 610/1232/4 606/1744/4 605/1233/4
f 611/1235/5 609/1745/5 605/1236/5
f 608/1238/6 606/1746/6 610/1239/6
f 614/1241/1 616/1747/1 615/1242/1
f 616/1244/2 620/1748/2 619/1245/2
f 620/1247/3 618/1749/3 617/1248/3
f 618/1250/4 614/1750/4 613/1251/4
f 619/1253/5 617/1751/5 613/1254/5
f 616/1256/6 614/1752/6 618/1257/6
f 622/1259/235 624/1753/235 623/1260/235
f 624/1262/224 626/1265/224 625/1263/224
f 626/1265/236 628/1754/236 627/1266/236
f 628/1267/226 630/1270/226 629/1268/226
f 630/1270/227 632/1755/227 631/1271/227
f 632/1272/228 634/1278/228 633/1273/228
f 626/1277/6 624/1756/6 622/1757/6
f 622/1757/6 636/1758/6 634/1275/6
f 634/1275/6 632/1759/6 630/1276/6
f 630/1276/6 628/1760/6 626/1277/6
f 626/1277/6 622/1757/6 634/1275/6
f 634/1278/229 636/1761/229 635/1279/229
f 635/1280/230 636/1762/230 622/1259/230
f 635/1283/5 621/1763/5 623/1764/5
f 623/1764/5 625/1765/5 627/1281/5
f 627/1281/5 629/1766/5 631/1282/5
f 631/1282/5 633/1767/5 635/1283/5
f 635/1283/5 623/1764/5 627/1281/5
f 638/1284/235 640/1768/235 639/1285/235
f 640/1287/224 642/1290/224 641/1288/224
f 642/1290/236 644/1769/236 643/1291/236
f 644/1292/226 646/1295/226 645/1293/226
f 646/1295/227 648/1770/227 647/1296/227
f 648/1297/228 650/1303/228 649/1298/228
f 642/1302/6 640/1771/6 638/1772/6
f 638/1772/6 652/1773/6 650/1300/6
f 650/1300/6 648/1774/6 646/1301/6
f 646/1301/6 644/1775/6 642/1302/6
f 642/1302/6 638/1772/6 650/1300/6
f 650/1303/229 652/1776/229 651/1304/229
f 651/1305/230 652/1777/230 638/1284/230
f 651/1308/5 637/1778/5 639/1779/5
f 639/1779/5 641/1780/5 643/1306/5
f 643/1306/5 645/1781/5 647/1307/5
f 647/1307/5 649/1782/5 651/1308/5
f 651/1308/5 639/1779/5 643/1306/5
f 654/1309/1 656/1783/1 655/1310/1
f 656/1312/2 660/1784/2 659/1313/2
f 660/1315/3 658/1785/3 657/1316/3
f 658/1318/4 654/1786/4 653/1319/4
f 659/1321/5 657/1787/5 653/1322/5
f 656/1324/6 654/1788/6 658/1325/6
f 662/1327/1 664/1789/1 663/1328/1
f 664/1330/2 668/1790/2 667/1331/2
f 668/1333/3 666/1791/3 665/1334/3
f 666/1336/4 662/1792/4 661/1337/4
f 667/1339/5 665/1793/5 661/1340/5
f 664/1342/6 662/1794/6 666/1343/6
f 670/1345/1 672/1795/1 671/1346/1
f 672/1348/2 676/1796/2 675/1349/2
f 676/1351/3 674/1797/3 673/1352/3
f 674/1354/4 670/1798/4 669/1355/4
f 675/1357/5 673/1799/5 669/1358/5
f 672/1360/6 670/1800/6 674/1361/6
f 678/1363/1 680/1801/1 679/1364/1
f 680/1366/2 684/1802/2 683/1367/2
f 684/1369/3 682/1803/3 681/1370/3
f 682/1372/4 678/1804/4 677/1373/4
f 683/1375/5 681/1805/5 677/1376/5
f 680/1378/6 678/1806/6 682/1379/6
f 686/1381/231 688/1807/231 687/1382/231
f 688/1384/2 692/1808/2 691/1385/2
f 692/1387/232 690/1809/232 689/1388/232
f 690/1390/4 686/1810/4 685/1391/4
f 691/1393/233 689/1811/233 685/1394/233
f 688/1396/234 686/1812/234 690/1397/234
f 694/1399/1 696/1813/1 695/1400/1
f 696/1402/2 700/1814/2 699/1403/2
f 700/1405/3 698/1815/3 697/1406/3
f 698/1408/4 694/1816/4 693/1409/4
f 699/1411/5 697/1817/5 693/1412/5
f 696/1414/6 694/1818/6 698/1415/6
