# Blender 4.5.13 LTS
# www.blender.org
o stone
v -1.280000 0.000000 1.280000
v -1.280000 0.180000 1.280000
v -1.280000 0.000000 -1.280000
v -1.280000 0.180000 -1.280000
v 1.280000 0.000000 1.280000
v 1.280000 0.180000 1.280000
v 1.280000 0.000000 -1.280000
v 1.280000 0.180000 -1.280000
v -1.200000 0.180000 1.270000
v -1.200000 1.480000 1.270000
v -1.200000 0.180000 1.130000
v -1.200000 1.480000 1.130000
v 1.200000 0.180000 1.270000
v 1.200000 1.480000 1.270000
v 1.200000 0.180000 1.130000
v 1.200000 1.480000 1.130000
v -1.200000 0.180000 -1.130000
v -1.200000 1.480000 -1.130000
v -1.200000 0.180000 -1.270000
v -1.200000 1.480000 -1.270000
v 1.200000 0.180000 -1.130000
v 1.200000 1.480000 -1.130000
v 1.200000 0.180000 -1.270000
v 1.200000 1.480000 -1.270000
v -1.270000 0.180000 1.130000
v -1.270000 1.480000 1.130000
v -1.270000 0.180000 -1.130000
v -1.270000 1.480000 -1.130000
v -1.130000 0.180000 1.130000
v -1.130000 1.480000 1.130000
v -1.130000 0.180000 -1.130000
v -1.130000 1.480000 -1.130000
v 1.130000 0.180000 1.130000
v 1.130000 1.480000 1.130000
v 1.130000 0.180000 -1.130000
v 1.130000 1.480000 -1.130000
v 1.270000 0.180000 1.130000
v 1.270000 1.480000 1.130000
v 1.270000 0.180000 -1.130000
v 1.270000 1.480000 -1.130000
v -1.250000 0.185000 1.310000
v -1.250000 0.255000 1.310000
v -1.250000 0.185000 1.240000
v -1.250000 0.255000 1.240000
v 1.250000 0.185000 1.310000
v 1.250000 0.255000 1.310000
v 1.250000 0.185000 1.240000
v 1.250000 0.255000 1.240000
v -1.250000 1.405000 1.310000
v -1.250000 1.475000 1.310000
v -1.250000 1.405000 1.240000
v -1.250000 1.475000 1.240000
v 1.250000 1.405000 1.310000
v 1.250000 1.475000 1.310000
v 1.250000 1.405000 1.240000
v 1.250000 1.475000 1.240000
v -1.235000 0.180000 1.310000
v -1.235000 1.480000 1.310000
v -1.235000 0.180000 1.240000
v -1.235000 1.480000 1.240000
v -1.165000 0.180000 1.310000
v -1.165000 1.480000 1.310000
v -1.165000 0.180000 1.240000
v -1.165000 1.480000 1.240000
v -0.435000 0.180000 1.310000
v -0.435000 1.480000 1.310000
v -0.435000 0.180000 1.240000
v -0.435000 1.480000 1.240000
v -0.365000 0.180000 1.310000
v -0.365000 1.480000 1.310000
v -0.365000 0.180000 1.240000
v -0.365000 1.480000 1.240000
v 0.365000 0.180000 1.310000
v 0.365000 1.480000 1.310000
v 0.365000 0.180000 1.240000
v 0.365000 1.480000 1.240000
v 0.435000 0.180000 1.310000
v 0.435000 1.480000 1.310000
v 0.435000 0.180000 1.240000
v 0.435000 1.480000 1.240000
v 1.165000 0.180000 1.310000
v 1.165000 1.480000 1.310000
v 1.165000 0.180000 1.240000
v 1.165000 1.480000 1.240000
v 1.235000 0.180000 1.310000
v 1.235000 1.480000 1.310000
v 1.235000 0.180000 1.240000
v 1.235000 1.480000 1.240000
v -1.227742 1.328660 1.303000
v -1.172258 1.371340 1.303000
v -1.227742 1.328660 1.247000
v -1.172258 1.371340 1.247000
v -0.427742 0.288660 1.303000
v -0.372258 0.331340 1.303000
v -0.427742 0.288660 1.247000
v -0.372258 0.331340 1.247000
v -1.250000 0.185000 -1.240000
v -1.250000 0.255000 -1.240000
v -1.250000 0.185000 -1.310000
v -1.250000 0.255000 -1.310000
v 1.250000 0.185000 -1.240000
v 1.250000 0.255000 -1.240000
v 1.250000 0.185000 -1.310000
v 1.250000 0.255000 -1.310000
v -1.250000 1.405000 -1.240000
v -1.250000 1.475000 -1.240000
v -1.250000 1.405000 -1.310000
v -1.250000 1.475000 -1.310000
v 1.250000 1.405000 -1.240000
v 1.250000 1.475000 -1.240000
v 1.250000 1.405000 -1.310000
v 1.250000 1.475000 -1.310000
v -1.235000 0.180000 -1.240000
v -1.235000 1.480000 -1.240000
v -1.235000 0.180000 -1.310000
v -1.235000 1.480000 -1.310000
v -1.165000 0.180000 -1.240000
v -1.165000 1.480000 -1.240000
v -1.165000 0.180000 -1.310000
v -1.165000 1.480000 -1.310000
v -0.435000 0.180000 -1.240000
v -0.435000 1.480000 -1.240000
v -0.435000 0.180000 -1.310000
v -0.435000 1.480000 -1.310000
v -0.365000 0.180000 -1.240000
v -0.365000 1.480000 -1.240000
v -0.365000 0.180000 -1.310000
v -0.365000 1.480000 -1.310000
v 0.365000 0.180000 -1.240000
v 0.365000 1.480000 -1.240000
v 0.365000 0.180000 -1.310000
v 0.365000 1.480000 -1.310000
v 0.435000 0.180000 -1.240000
v 0.435000 1.480000 -1.240000
v 0.435000 0.180000 -1.310000
v 0.435000 1.480000 -1.310000
v 1.165000 0.180000 -1.240000
v 1.165000 1.480000 -1.240000
v 1.165000 0.180000 -1.310000
v 1.165000 1.480000 -1.310000
v 1.235000 0.180000 -1.240000
v 1.235000 1.480000 -1.240000
v 1.235000 0.180000 -1.310000
v 1.235000 1.480000 -1.310000
v -1.227742 1.328660 -1.247000
v -1.172258 1.371340 -1.247000
v -1.227742 1.328660 -1.303000
v -1.172258 1.371340 -1.303000
v -0.427742 0.288660 -1.247000
v -0.372258 0.331340 -1.247000
v -0.427742 0.288660 -1.303000
v -0.372258 0.331340 -1.303000
v -0.372258 0.288660 -1.247000
v -0.427742 0.331340 -1.247000
v -0.372258 0.288660 -1.303000
v -0.427742 0.331340 -1.303000
v 0.427742 1.328660 -1.247000
v 0.372258 1.371340 -1.247000
v 0.427742 1.328660 -1.303000
v 0.372258 1.371340 -1.303000
v -1.310000 0.185000 1.250000
v -1.310000 0.255000 1.250000
v -1.310000 0.185000 -1.250000
v -1.310000 0.255000 -1.250000
v -1.240000 0.185000 1.250000
v -1.240000 0.255000 1.250000
v -1.240000 0.185000 -1.250000
v -1.240000 0.255000 -1.250000
v -1.310000 1.405000 1.250000
v -1.310000 1.475000 1.250000
v -1.310000 1.405000 -1.250000
v -1.310000 1.475000 -1.250000
v -1.240000 1.405000 1.250000
v -1.240000 1.475000 1.250000
v -1.240000 1.405000 -1.250000
v -1.240000 1.475000 -1.250000
v -1.310000 0.180000 1.235000
v -1.310000 1.480000 1.235000
v -1.310000 0.180000 1.165000
v -1.310000 1.480000 1.165000
v -1.240000 0.180000 1.235000
v -1.240000 1.480000 1.235000
v -1.240000 0.180000 1.165000
v -1.240000 1.480000 1.165000
v -1.310000 0.180000 0.435000
v -1.310000 1.480000 0.435000
v -1.310000 0.180000 0.365000
v -1.310000 1.480000 0.365000
v -1.240000 0.180000 0.435000
v -1.240000 1.480000 0.435000
v -1.240000 0.180000 0.365000
v -1.240000 1.480000 0.365000
v -1.310000 0.180000 -0.365000
v -1.310000 1.480000 -0.365000
v -1.310000 0.180000 -0.435000
v -1.310000 1.480000 -0.435000
v -1.240000 0.180000 -0.365000
v -1.240000 1.480000 -0.365000
v -1.240000 0.180000 -0.435000
v -1.240000 1.480000 -0.435000
v -1.310000 0.180000 -1.165000
v -1.310000 1.480000 -1.165000
v -1.310000 0.180000 -1.235000
v -1.310000 1.480000 -1.235000
v -1.240000 0.180000 -1.165000
v -1.240000 1.480000 -1.165000
v -1.240000 0.180000 -1.235000
v -1.240000 1.480000 -1.235000
v -1.303000 1.328660 0.427742
v -1.303000 1.371340 0.372258
v -1.303000 0.288660 -0.372258
v -1.303000 0.331340 -0.427742
v -1.247000 1.328660 0.427742
v -1.247000 1.371340 0.372258
v -1.247000 0.288660 -0.372258
v -1.247000 0.331340 -0.427742
v -1.303000 0.288660 -0.427742
v -1.303000 0.331340 -0.372258
v -1.303000 1.328660 -1.227742
v -1.303000 1.371340 -1.172258
v -1.247000 0.288660 -0.427742
v -1.247000 0.331340 -0.372258
v -1.247000 1.328660 -1.227742
v -1.247000 1.371340 -1.172258
v 1.240000 0.185000 1.250000
v 1.240000 0.255000 1.250000
v 1.240000 0.185000 -1.250000
v 1.240000 0.255000 -1.250000
v 1.310000 0.185000 1.250000
v 1.310000 0.255000 1.250000
v 1.310000 0.185000 -1.250000
v 1.310000 0.255000 -1.250000
v 1.240000 1.405000 1.250000
v 1.240000 1.475000 1.250000
v 1.240000 1.405000 -1.250000
v 1.240000 1.475000 -1.250000
v 1.310000 1.405000 1.250000
v 1.310000 1.475000 1.250000
v 1.310000 1.405000 -1.250000
v 1.310000 1.475000 -1.250000
v 1.240000 0.180000 1.235000
v 1.240000 1.480000 1.235000
v 1.240000 0.180000 1.165000
v 1.240000 1.480000 1.165000
v 1.310000 0.180000 1.235000
v 1.310000 1.480000 1.235000
v 1.310000 0.180000 1.165000
v 1.310000 1.480000 1.165000
v 1.240000 0.180000 0.435000
v 1.240000 1.480000 0.435000
v 1.240000 0.180000 0.365000
v 1.240000 1.480000 0.365000
v 1.310000 0.180000 0.435000
v 1.310000 1.480000 0.435000
v 1.310000 0.180000 0.365000
v 1.310000 1.480000 0.365000
v 1.240000 0.180000 -0.365000
v 1.240000 1.480000 -0.365000
v 1.240000 0.180000 -0.435000
v 1.240000 1.480000 -0.435000
v 1.310000 0.180000 -0.365000
v 1.310000 1.480000 -0.365000
v 1.310000 0.180000 -0.435000
v 1.310000 1.480000 -0.435000
v 1.240000 0.180000 -1.165000
v 1.240000 1.480000 -1.165000
v 1.240000 0.180000 -1.235000
v 1.240000 1.480000 -1.235000
v 1.310000 0.180000 -1.165000
v 1.310000 1.480000 -1.165000
v 1.310000 0.180000 -1.235000
v 1.310000 1.480000 -1.235000
v 1.247000 0.288660 0.372258
v 1.247000 0.331340 0.427742
v 1.247000 1.328660 -0.427742
v 1.247000 1.371340 -0.372258
v 1.303000 0.288660 0.372258
v 1.303000 0.331340 0.427742
v 1.303000 1.328660 -0.427742
v 1.303000 1.371340 -0.372258
v -0.780000 0.590000 1.305000
v -0.780000 1.010000 1.305000
v -0.780000 0.590000 1.255000
v -0.780000 1.010000 1.255000
v -0.420000 0.590000 1.305000
v -0.420000 1.010000 1.305000
v -0.420000 0.590000 1.255000
v -0.420000 1.010000 1.255000
v 0.390000 0.180000 1.305000
v 0.390000 0.960000 1.305000
v 0.390000 0.180000 1.255000
v 0.390000 0.960000 1.255000
v 0.810000 0.180000 1.305000
v 0.810000 0.960000 1.305000
v 0.810000 0.180000 1.255000
v 0.810000 0.960000 1.255000
v -0.780000 0.590000 -1.255000
v -0.780000 1.010000 -1.255000
v -0.780000 0.590000 -1.305000
v -0.780000 1.010000 -1.305000
v -0.420000 0.590000 -1.255000
v -0.420000 1.010000 -1.255000
v -0.420000 0.590000 -1.305000
v -0.420000 1.010000 -1.305000
v 0.420000 0.590000 -1.255000
v 0.420000 1.010000 -1.255000
v 0.420000 0.590000 -1.305000
v 0.420000 1.010000 -1.305000
v 0.780000 0.590000 -1.255000
v 0.780000 1.010000 -1.255000
v 0.780000 0.590000 -1.305000
v 0.780000 1.010000 -1.305000
v -1.305000 0.590000 0.180000
v -1.305000 1.010000 0.180000
v -1.305000 0.590000 -0.180000
v -1.305000 1.010000 -0.180000
v -1.255000 0.590000 0.180000
v -1.255000 1.010000 0.180000
v -1.255000 0.590000 -0.180000
v -1.255000 1.010000 -0.180000
v 1.255000 0.590000 0.180000
v 1.255000 1.010000 0.180000
v 1.255000 0.590000 -0.180000
v 1.255000 1.010000 -0.180000
v 1.305000 0.590000 0.180000
v 1.305000 1.010000 0.180000
v 1.305000 0.590000 -0.180000
v 1.305000 1.010000 -0.180000
v -1.200000 1.480000 1.270000
v -1.200000 2.780000 1.270000
v -1.200000 1.480000 1.130000
v -1.200000 2.780000 1.130000
v 1.200000 1.480000 1.270000
v 1.200000 2.780000 1.270000
v 1.200000 1.480000 1.130000
v 1.200000 2.780000 1.130000
v -1.200000 1.480000 -1.130000
v -1.200000 2.780000 -1.130000
v -1.200000 1.480000 -1.270000
v -1.200000 2.780000 -1.270000
v 1.200000 1.480000 -1.130000
v 1.200000 2.780000 -1.130000
v 1.200000 1.480000 -1.270000
v 1.200000 2.780000 -1.270000
v -1.270000 1.480000 1.130000
v -1.270000 2.780000 1.130000
v -1.270000 1.480000 -1.130000
v -1.270000 2.780000 -1.130000
v -1.130000 1.480000 1.130000
v -1.130000 2.780000 1.130000
v -1.130000 1.480000 -1.130000
v -1.130000 2.780000 -1.130000
v 1.130000 1.480000 1.130000
v 1.130000 2.780000 1.130000
v 1.130000 1.480000 -1.130000
v 1.130000 2.780000 -1.130000
v 1.270000 1.480000 1.130000
v 1.270000 2.780000 1.130000
v 1.270000 1.480000 -1.130000
v 1.270000 2.780000 -1.130000
v -1.250000 1.485000 1.310000
v -1.250000 1.555000 1.310000
v -1.250000 1.485000 1.240000
v -1.250000 1.555000 1.240000
v 1.250000 1.485000 1.310000
v 1.250000 1.555000 1.310000
v 1.250000 1.485000 1.240000
v 1.250000 1.555000 1.240000
v -1.250000 2.705000 1.310000
v -1.250000 2.775000 1.310000
v -1.250000 2.705000 1.240000
v -1.250000 2.775000 1.240000
v 1.250000 2.705000 1.310000
v 1.250000 2.775000 1.310000
v 1.250000 2.705000 1.240000
v 1.250000 2.775000 1.240000
v -1.235000 1.480000 1.310000
v -1.235000 2.780000 1.310000
v -1.235000 1.480000 1.240000
v -1.235000 2.780000 1.240000
v -1.165000 1.480000 1.310000
v -1.165000 2.780000 1.310000
v -1.165000 1.480000 1.240000
v -1.165000 2.780000 1.240000
v -0.435000 1.480000 1.310000
v -0.435000 2.780000 1.310000
v -0.435000 1.480000 1.240000
v -0.435000 2.780000 1.240000
v -0.365000 1.480000 1.310000
v -0.365000 2.780000 1.310000
v -0.365000 1.480000 1.240000
v -0.365000 2.780000 1.240000
v 0.365000 1.480000 1.310000
v 0.365000 2.780000 1.310000
v 0.365000 1.480000 1.240000
v 0.365000 2.780000 1.240000
v 0.435000 1.480000 1.310000
v 0.435000 2.780000 1.310000
v 0.435000 1.480000 1.240000
v 0.435000 2.780000 1.240000
v 1.165000 1.480000 1.310000
v 1.165000 2.780000 1.310000
v 1.165000 1.480000 1.240000
v 1.165000 2.780000 1.240000
v 1.235000 1.480000 1.310000
v 1.235000 2.780000 1.310000
v 1.235000 1.480000 1.240000
v 1.235000 2.780000 1.240000
v -1.250000 1.485000 -1.240000
v -1.250000 1.555000 -1.240000
v -1.250000 1.485000 -1.310000
v -1.250000 1.555000 -1.310000
v 1.250000 1.485000 -1.240000
v 1.250000 1.555000 -1.240000
v 1.250000 1.485000 -1.310000
v 1.250000 1.555000 -1.310000
v -1.250000 2.705000 -1.240000
v -1.250000 2.775000 -1.240000
v -1.250000 2.705000 -1.310000
v -1.250000 2.775000 -1.310000
v 1.250000 2.705000 -1.240000
v 1.250000 2.775000 -1.240000
v 1.250000 2.705000 -1.310000
v 1.250000 2.775000 -1.310000
v -1.235000 1.480000 -1.240000
v -1.235000 2.780000 -1.240000
v -1.235000 1.480000 -1.310000
v -1.235000 2.780000 -1.310000
v -1.165000 1.480000 -1.240000
v -1.165000 2.780000 -1.240000
v -1.165000 1.480000 -1.310000
v -1.165000 2.780000 -1.310000
v -0.435000 1.480000 -1.240000
v -0.435000 2.780000 -1.240000
v -0.435000 1.480000 -1.310000
v -0.435000 2.780000 -1.310000
v -0.365000 1.480000 -1.240000
v -0.365000 2.780000 -1.240000
v -0.365000 1.480000 -1.310000
v -0.365000 2.780000 -1.310000
v 0.365000 1.480000 -1.240000
v 0.365000 2.780000 -1.240000
v 0.365000 1.480000 -1.310000
v 0.365000 2.780000 -1.310000
v 0.435000 1.480000 -1.240000
v 0.435000 2.780000 -1.240000
v 0.435000 1.480000 -1.310000
v 0.435000 2.780000 -1.310000
v 1.165000 1.480000 -1.240000
v 1.165000 2.780000 -1.240000
v 1.165000 1.480000 -1.310000
v 1.165000 2.780000 -1.310000
v 1.235000 1.480000 -1.240000
v 1.235000 2.780000 -1.240000
v 1.235000 1.480000 -1.310000
v 1.235000 2.780000 -1.310000
v -1.172258 1.588660 -1.247000
v -1.227742 1.631340 -1.247000
v -1.172258 1.588660 -1.303000
v -1.227742 1.631340 -1.303000
v -0.372258 2.628660 -1.247000
v -0.427742 2.671340 -1.247000
v -0.372258 2.628660 -1.303000
v -0.427742 2.671340 -1.303000
v -1.310000 1.485000 1.250000
v -1.310000 1.555000 1.250000
v -1.310000 1.485000 -1.250000
v -1.310000 1.555000 -1.250000
v -1.240000 1.485000 1.250000
v -1.240000 1.555000 1.250000
v -1.240000 1.485000 -1.250000
v -1.240000 1.555000 -1.250000
v -1.310000 2.705000 1.250000
v -1.310000 2.775000 1.250000
v -1.310000 2.705000 -1.250000
v -1.310000 2.775000 -1.250000
v -1.240000 2.705000 1.250000
v -1.240000 2.775000 1.250000
v -1.240000 2.705000 -1.250000
v -1.240000 2.775000 -1.250000
v -1.310000 1.480000 1.235000
v -1.310000 2.780000 1.235000
v -1.310000 1.480000 1.165000
v -1.310000 2.780000 1.165000
v -1.240000 1.480000 1.235000
v -1.240000 2.780000 1.235000
v -1.240000 1.480000 1.165000
v -1.240000 2.780000 1.165000
v -1.310000 1.480000 0.435000
v -1.310000 2.780000 0.435000
v -1.310000 1.480000 0.365000
v -1.310000 2.780000 0.365000
v -1.240000 1.480000 0.435000
v -1.240000 2.780000 0.435000
v -1.240000 1.480000 0.365000
v -1.240000 2.780000 0.365000
v -1.310000 1.480000 -0.365000
v -1.310000 2.780000 -0.365000
v -1.310000 1.480000 -0.435000
v -1.310000 2.780000 -0.435000
v -1.240000 1.480000 -0.365000
v -1.240000 2.780000 -0.365000
v -1.240000 1.480000 -0.435000
v -1.240000 2.780000 -0.435000
v -1.310000 1.480000 -1.165000
v -1.310000 2.780000 -1.165000
v -1.310000 1.480000 -1.235000
v -1.310000 2.780000 -1.235000
v -1.240000 1.480000 -1.165000
v -1.240000 2.780000 -1.165000
v -1.240000 1.480000 -1.235000
v -1.240000 2.780000 -1.235000
v -1.303000 2.628660 1.227742
v -1.303000 2.671340 1.172258
v -1.303000 1.588660 0.427742
v -1.303000 1.631340 0.372258
v -1.247000 2.628660 1.227742
v -1.247000 2.671340 1.172258
v -1.247000 1.588660 0.427742
v -1.247000 1.631340 0.372258
v -1.303000 2.628660 0.427742
v -1.303000 2.671340 0.372258
v -1.303000 1.588660 -0.372258
v -1.303000 1.631340 -0.427742
v -1.247000 2.628660 0.427742
v -1.247000 2.671340 0.372258
v -1.247000 1.588660 -0.372258
v -1.247000 1.631340 -0.427742
v -1.303000 2.628660 -0.372258
v -1.303000 2.671340 -0.427742
v -1.303000 1.588660 -1.172258
v -1.303000 1.631340 -1.227742
v -1.247000 2.628660 -0.372258
v -1.247000 2.671340 -0.427742
v -1.247000 1.588660 -1.172258
v -1.247000 1.631340 -1.227742
v 1.240000 1.485000 1.250000
v 1.240000 1.555000 1.250000
v 1.240000 1.485000 -1.250000
v 1.240000 1.555000 -1.250000
v 1.310000 1.485000 1.250000
v 1.310000 1.555000 1.250000
v 1.310000 1.485000 -1.250000
v 1.310000 1.555000 -1.250000
v 1.240000 2.705000 1.250000
v 1.240000 2.775000 1.250000
v 1.240000 2.705000 -1.250000
v 1.240000 2.775000 -1.250000
v 1.310000 2.705000 1.250000
v 1.310000 2.775000 1.250000
v 1.310000 2.705000 -1.250000
v 1.310000 2.775000 -1.250000
v 1.240000 1.480000 1.235000
v 1.240000 2.780000 1.235000
v 1.240000 1.480000 1.165000
v 1.240000 2.780000 1.165000
v 1.310000 1.480000 1.235000
v 1.310000 2.780000 1.235000
v 1.310000 1.480000 1.165000
v 1.310000 2.780000 1.165000
v 1.240000 1.480000 0.435000
v 1.240000 2.780000 0.435000
v 1.240000 1.480000 0.365000
v 1.240000 2.780000 0.365000
v 1.310000 1.480000 0.435000
v 1.310000 2.780000 0.435000
v 1.310000 1.480000 0.365000
v 1.310000 2.780000 0.365000
v 1.240000 1.480000 -0.365000
v 1.240000 2.780000 -0.365000
v 1.240000 1.480000 -0.435000
v 1.240000 2.780000 -0.435000
v 1.310000 1.480000 -0.365000
v 1.310000 2.780000 -0.365000
v 1.310000 1.480000 -0.435000
v 1.310000 2.780000 -0.435000
v 1.240000 1.480000 -1.165000
v 1.240000 2.780000 -1.165000
v 1.240000 1.480000 -1.235000
v 1.240000 2.780000 -1.235000
v 1.310000 1.480000 -1.165000
v 1.310000 2.780000 -1.165000
v 1.310000 1.480000 -1.235000
v 1.310000 2.780000 -1.235000
v -0.780000 1.890000 1.305000
v -0.780000 2.310000 1.305000
v -0.780000 1.890000 1.255000
v -0.780000 2.310000 1.255000
v -0.420000 1.890000 1.305000
v -0.420000 2.310000 1.305000
v -0.420000 1.890000 1.255000
v -0.420000 2.310000 1.255000
v 0.420000 1.890000 1.305000
v 0.420000 2.310000 1.305000
v 0.420000 1.890000 1.255000
v 0.420000 2.310000 1.255000
v 0.780000 1.890000 1.305000
v 0.780000 2.310000 1.305000
v 0.780000 1.890000 1.255000
v 0.780000 2.310000 1.255000
v -0.780000 1.890000 -1.255000
v -0.780000 2.310000 -1.255000
v -0.780000 1.890000 -1.305000
v -0.780000 2.310000 -1.305000
v -0.420000 1.890000 -1.255000
v -0.420000 2.310000 -1.255000
v -0.420000 1.890000 -1.305000
v -0.420000 2.310000 -1.305000
v 0.420000 1.890000 -1.255000
v 0.420000 2.310000 -1.255000
v 0.420000 1.890000 -1.305000
v 0.420000 2.310000 -1.305000
v 0.780000 1.890000 -1.255000
v 0.780000 2.310000 -1.255000
v 0.780000 1.890000 -1.305000
v 0.780000 2.310000 -1.305000
v -1.305000 1.890000 0.180000
v -1.305000 2.310000 0.180000
v -1.305000 1.890000 -0.180000
v -1.305000 2.310000 -0.180000
v -1.255000 1.890000 0.180000
v -1.255000 2.310000 0.180000
v -1.255000 1.890000 -0.180000
v -1.255000 2.310000 -0.180000
v 1.255000 1.890000 0.180000
v 1.255000 2.310000 0.180000
v 1.255000 1.890000 -0.180000
v 1.255000 2.310000 -0.180000
v 1.305000 1.890000 0.180000
v 1.305000 2.310000 0.180000
v 1.305000 1.890000 -0.180000
v 1.305000 2.310000 -0.180000
v -1.380000 2.695168 1.311780
v -1.380000 2.759063 1.375164
v -1.380000 4.031337 -0.035164
v -1.380000 4.095232 0.028220
v 1.380000 2.695168 1.311780
v 1.380000 2.759063 1.375164
v 1.380000 4.031337 -0.035164
v 1.380000 4.095232 0.028220
v -1.380000 4.031337 0.035164
v -1.380000 4.095232 -0.028220
v -1.380000 2.695168 -1.311780
v -1.380000 2.759063 -1.375164
v 1.380000 4.031337 0.035164
v 1.380000 4.095232 -0.028220
v 1.380000 2.695168 -1.311780
v 1.380000 2.759063 -1.375164
v -1.080000 2.780000 1.200000
v -1.080000 2.780000 -1.200000
v -1.080000 3.970400 0.000000
v -1.200000 2.780000 1.200000
v -1.200000 2.780000 -1.200000
v -1.200000 3.970400 -0.000000
v 1.200000 2.780000 1.200000
v 1.200000 2.780000 -1.200000
v 1.200000 3.970400 0.000000
v 1.080000 2.780000 1.200000
v 1.080000 2.780000 -1.200000
v 1.080000 3.970400 -0.000000
v -1.390000 3.950400 0.050000
v -1.390000 4.050400 0.050000
v -1.390000 3.950400 -0.050000
v -1.390000 4.050400 -0.050000
v 1.390000 3.950400 0.050000
v 1.390000 4.050400 0.050000
v 1.390000 3.950400 -0.050000
v 1.390000 4.050400 -0.050000
v -0.822000 2.780000 -0.282000
v -0.822000 4.470400 -0.282000
v -0.822000 2.780000 -0.582000
v -0.822000 4.470400 -0.582000
v -0.522000 2.780000 -0.282000
v -0.522000 4.470400 -0.282000
v -0.522000 2.780000 -0.582000
v -0.522000 4.470400 -0.582000
vn -1.0000 -0.0000 -0.0000
vn -0.0000 -0.0000 -1.0000
vn 1.0000 -0.0000 -0.0000
vn -0.0000 -0.0000 1.0000
vn -0.0000 -1.0000 -0.0000
vn -0.0000 1.0000 -0.0000
vn -0.6097 0.7926 -0.0000
vn 0.6097 -0.7926 -0.0000
vn -0.7926 -0.6097 -0.0000
vn 0.7926 0.6097 -0.0000
vn -0.6097 -0.7926 -0.0000
vn 0.6097 0.7926 -0.0000
vn 0.7926 -0.6097 -0.0000
vn -0.7926 0.6097 -0.0000
vn -0.0000 -0.7926 -0.6097
vn -0.0000 0.7926 0.6097
vn -0.0000 -0.6097 0.7926
vn -0.0000 0.6097 -0.7926
vn -0.0000 0.7926 -0.6097
vn -0.0000 -0.7926 0.6097
vn -0.0000 -0.6097 -0.7926
vn -0.0000 0.6097 0.7926
vn -0.0000 0.7043 -0.7099
vn -0.0000 -0.7043 0.7099
vn -0.0000 -0.7099 -0.7043
vn -0.0000 0.7099 0.7043
vn -0.0000 -0.7043 -0.7099
vn -0.0000 0.7043 0.7099
vn -0.0000 -0.7099 0.7043
vn -0.0000 0.7099 -0.7043
vt 0.111693 0.541757
vt 0.099415 0.541757
vt 0.099415 0.367139
vt 0.111693 0.367139
vt 0.150571 0.541757
vt 0.138294 0.541757
vt 0.138294 0.367139
vt 0.150572 0.367139
vt 0.131132 0.541757
vt 0.118854 0.541757
vt 0.118854 0.367139
vt 0.131132 0.367139
vt 0.170011 0.541757
vt 0.157733 0.541757
vt 0.157733 0.367139
vt 0.170011 0.367139
vt 0.178199 0.003581
vt 0.178199 0.178199
vt 0.003581 0.178199
vt 0.003581 0.003581
vt 0.178199 0.185360
vt 0.178199 0.359978
vt 0.003581 0.359978
vt 0.003581 0.185360
vt 0.771202 0.460614
vt 0.771202 0.371941
vt 0.780751 0.371941
vt 0.780751 0.460614
vt 0.274033 0.558128
vt 0.185360 0.558128
vt 0.185360 0.394423
vt 0.274033 0.394423
vt 0.787912 0.460614
vt 0.787912 0.371941
vt 0.797462 0.371941
vt 0.797462 0.460614
vt 0.369868 0.558128
vt 0.281195 0.558128
vt 0.281195 0.394423
vt 0.369868 0.394423
vt 0.680486 0.467776
vt 0.680486 0.631480
vt 0.670937 0.631480
vt 0.670937 0.467776
vt 0.697197 0.467776
vt 0.697197 0.631480
vt 0.687648 0.631480
vt 0.687648 0.467776
vt 0.804623 0.460614
vt 0.804623 0.371941
vt 0.814173 0.371941
vt 0.814173 0.460614
vt 0.567941 0.167285
vt 0.479268 0.167285
vt 0.479268 0.003581
vt 0.567941 0.003581
vt 0.233104 0.824828
vt 0.233104 0.736155
vt 0.242654 0.736155
vt 0.242654 0.824828
vt 0.567941 0.338151
vt 0.479268 0.338151
vt 0.479268 0.174446
vt 0.567941 0.174446
vt 0.713908 0.467776
vt 0.713908 0.631480
vt 0.704359 0.631480
vt 0.704359 0.467776
vt 0.371627 0.565289
vt 0.371627 0.728993
vt 0.362077 0.728993
vt 0.362077 0.565289
vt 0.567941 0.670332
vt 0.479268 0.670332
vt 0.479268 0.516178
vt 0.567941 0.516178
vt 0.472106 0.176834
vt 0.383433 0.176834
vt 0.383433 0.167285
vt 0.472106 0.167285
vt 0.383433 0.013130
vt 0.472106 0.013130
vt 0.383433 0.003581
vt 0.472106 0.003581
vt 0.785556 0.157736
vt 0.776006 0.157736
vt 0.776006 0.003581
vt 0.785556 0.003581
vt 0.680486 0.792796
vt 0.670937 0.792796
vt 0.670937 0.638641
vt 0.680486 0.638641
vt 0.472106 0.347700
vt 0.383433 0.347700
vt 0.383433 0.193545
vt 0.472106 0.193545
vt 0.383433 0.183996
vt 0.472106 0.183996
vt 0.663775 0.670332
vt 0.575102 0.670332
vt 0.575102 0.516178
vt 0.663775 0.516178
vt 0.472106 0.357249
vt 0.383433 0.357249
vt 0.697197 0.792796
vt 0.687648 0.792796
vt 0.687648 0.638641
vt 0.697197 0.638641
vt 0.713908 0.792796
vt 0.704358 0.792796
vt 0.704358 0.638641
vt 0.713908 0.638641
vt 0.837552 0.650237
vt 0.837552 0.645462
vt 0.842327 0.645462
vt 0.842327 0.650237
vt 0.819288 0.833722
vt 0.814513 0.833722
vt 0.814513 0.663197
vt 0.819288 0.663197
vt 0.842357 0.356908
vt 0.842357 0.352133
vt 0.847132 0.352133
vt 0.847132 0.356908
vt 0.831224 0.833722
vt 0.826449 0.833722
vt 0.826449 0.663197
vt 0.831224 0.663197
vt 0.775976 0.664561
vt 0.775976 0.835087
vt 0.771202 0.835087
vt 0.771202 0.664561
vt 0.789959 0.664561
vt 0.789959 0.835087
vt 0.785184 0.835087
vt 0.785184 0.664561
vt 0.985063 0.165380
vt 0.980288 0.165380
vt 0.980288 0.160606
vt 0.985063 0.160606
vt 0.175809 0.841908
vt 0.171035 0.841908
vt 0.171035 0.671382
vt 0.175809 0.671382
vt 0.175809 0.985488
vt 0.171035 0.985488
vt 0.171035 0.980713
vt 0.175809 0.980713
vt 0.842327 0.638301
vt 0.837552 0.638301
vt 0.837552 0.467776
vt 0.842327 0.467776
vt 0.843160 0.663197
vt 0.843160 0.833722
vt 0.838385 0.833722
vt 0.838385 0.663197
vt 0.847132 0.174446
vt 0.847132 0.344972
vt 0.842357 0.344972
vt 0.842357 0.174446
vt 0.944817 0.092254
vt 0.944817 0.003581
vt 0.949592 0.003581
vt 0.949592 0.092254
vt 0.944977 0.556449
vt 0.944977 0.467776
vt 0.949752 0.467776
vt 0.949752 0.556449
vt 0.944977 0.652283
vt 0.944977 0.563610
vt 0.949752 0.563610
vt 0.949752 0.652283
vt 0.945810 0.751870
vt 0.945810 0.663197
vt 0.950585 0.663197
vt 0.950585 0.751870
vt 0.104190 0.981053
vt 0.104190 0.985828
vt 0.099415 0.985828
vt 0.099415 0.981053
vt 0.116126 0.981053
vt 0.116126 0.985828
vt 0.111351 0.985828
vt 0.111351 0.981053
vt 0.945810 0.847705
vt 0.945810 0.759032
vt 0.950585 0.759032
vt 0.950585 0.847705
vt 0.909169 0.652283
vt 0.909169 0.563610
vt 0.913944 0.563610
vt 0.913944 0.652283
vt 0.945810 0.943539
vt 0.945810 0.854866
vt 0.950585 0.854866
vt 0.950585 0.943539
vt 0.910002 0.751870
vt 0.910002 0.663197
vt 0.914777 0.663197
vt 0.914777 0.751870
vt 0.854263 0.645462
vt 0.854263 0.650237
vt 0.849489 0.650237
vt 0.849489 0.645462
vt 0.859068 0.352133
vt 0.859068 0.356908
vt 0.854293 0.356908
vt 0.854293 0.352133
vt 0.949782 0.263120
vt 0.949782 0.174446
vt 0.954557 0.174446
vt 0.954557 0.263120
vt 0.910002 0.847705
vt 0.910002 0.759032
vt 0.914777 0.759032
vt 0.914777 0.847705
vt 0.949782 0.358954
vt 0.949782 0.270281
vt 0.954557 0.270281
vt 0.954557 0.358954
vt 0.913974 0.263120
vt 0.913974 0.174446
vt 0.918748 0.174446
vt 0.918748 0.263120
vt 0.866199 0.645463
vt 0.866199 0.650237
vt 0.861425 0.650237
vt 0.861425 0.645463
vt 0.871004 0.352133
vt 0.871004 0.356908
vt 0.866229 0.356908
vt 0.866229 0.352133
vt 0.952631 0.459789
vt 0.952631 0.371116
vt 0.957406 0.371116
vt 0.957406 0.459789
vt 0.956753 0.092254
vt 0.956753 0.003581
vt 0.961528 0.003581
vt 0.961528 0.092254
vt 0.956913 0.556449
vt 0.956913 0.467776
vt 0.961688 0.467776
vt 0.961688 0.556449
vt 0.956913 0.652283
vt 0.956913 0.563610
vt 0.961688 0.563610
vt 0.961688 0.652283
vt 0.128062 0.981054
vt 0.128062 0.985828
vt 0.123287 0.985828
vt 0.123287 0.981053
vt 0.139998 0.981053
vt 0.139998 0.985828
vt 0.135224 0.985828
vt 0.135224 0.981053
vt 0.623523 0.986825
vt 0.627308 0.986825
vt 0.627308 0.990644
vt 0.623523 0.990644
vt 0.249815 0.736155
vt 0.254590 0.736155
vt 0.254590 0.825653
vt 0.249815 0.825653
vt 0.638568 0.990644
vt 0.634783 0.990644
vt 0.634783 0.986825
vt 0.638568 0.986825
vt 0.266526 0.825653
vt 0.261751 0.825653
vt 0.261751 0.736155
vt 0.266526 0.736155
vt 0.746373 0.895792
vt 0.746373 0.966731
vt 0.742553 0.966731
vt 0.742553 0.895792
vt 0.754489 0.966731
vt 0.754489 0.895792
vt 0.758309 0.895792
vt 0.758309 0.966731
vt 0.873361 0.650237
vt 0.873361 0.645462
vt 0.878135 0.645462
vt 0.878135 0.650237
vt 0.484042 0.848019
vt 0.479268 0.848019
vt 0.479268 0.677494
vt 0.484042 0.677494
vt 0.878165 0.356908
vt 0.878165 0.352133
vt 0.882940 0.352133
vt 0.882940 0.356908
vt 0.495979 0.848019
vt 0.491204 0.848019
vt 0.491204 0.677494
vt 0.495979 0.677494
vt 0.507915 0.677494
vt 0.507915 0.848019
vt 0.503140 0.848019
vt 0.503140 0.677494
vt 0.519851 0.677494
vt 0.519851 0.848019
vt 0.515076 0.848019
vt 0.515076 0.677494
vt 0.151934 0.985828
vt 0.147160 0.985828
vt 0.147160 0.981053
vt 0.151934 0.981053
vt 0.531787 0.848019
vt 0.527012 0.848019
vt 0.527012 0.677494
vt 0.531787 0.677494
vt 0.163870 0.985828
vt 0.159096 0.985828
vt 0.159096 0.981054
vt 0.163870 0.981054
vt 0.543723 0.848019
vt 0.538948 0.848019
vt 0.538948 0.677494
vt 0.543723 0.677494
vt 0.555659 0.677494
vt 0.555659 0.848019
vt 0.550884 0.848019
vt 0.550884 0.677494
vt 0.567595 0.677494
vt 0.567595 0.848019
vt 0.562820 0.848019
vt 0.562820 0.677494
vt 0.957746 0.751870
vt 0.957746 0.663197
vt 0.962521 0.663197
vt 0.962521 0.751870
vt 0.957746 0.847705
vt 0.957746 0.759032
vt 0.962521 0.759032
vt 0.962521 0.847705
vt 0.957746 0.943539
vt 0.957746 0.854866
vt 0.962521 0.854866
vt 0.962521 0.943539
vt 0.961718 0.263120
vt 0.961718 0.174446
vt 0.966493 0.174446
vt 0.966493 0.263120
vt 0.008355 0.982392
vt 0.008355 0.987167
vt 0.003581 0.987167
vt 0.003581 0.982392
vt 0.020291 0.982392
vt 0.020291 0.987167
vt 0.015517 0.987167
vt 0.015517 0.982392
vt 0.961718 0.358954
vt 0.961718 0.270281
vt 0.966493 0.270281
vt 0.966493 0.358954
vt 0.913974 0.358954
vt 0.913974 0.270281
vt 0.918748 0.270281
vt 0.918748 0.358954
vt 0.964567 0.459789
vt 0.964567 0.371116
vt 0.969342 0.371116
vt 0.969342 0.459789
vt 0.233104 0.920662
vt 0.233104 0.831989
vt 0.237879 0.831989
vt 0.237879 0.920662
vt 0.890072 0.645462
vt 0.890072 0.650237
vt 0.885297 0.650237
vt 0.885297 0.645462
vt 0.894876 0.352133
vt 0.894876 0.356908
vt 0.890101 0.356908
vt 0.890101 0.352133
vt 0.383433 0.972502
vt 0.383433 0.883829
vt 0.388208 0.883829
vt 0.388208 0.972502
vt 0.249815 0.921487
vt 0.249815 0.832814
vt 0.254590 0.832814
vt 0.254590 0.921487
vt 0.395369 0.972502
vt 0.395369 0.883829
vt 0.400144 0.883829
vt 0.400144 0.972502
vt 0.261751 0.921487
vt 0.261751 0.832814
vt 0.266526 0.832814
vt 0.266526 0.921487
vt 0.902008 0.645463
vt 0.902008 0.650237
vt 0.897233 0.650237
vt 0.897233 0.645463
vt 0.803941 0.905342
vt 0.803941 0.910116
vt 0.799167 0.910116
vt 0.799167 0.905342
vt 0.407305 0.972502
vt 0.407305 0.883829
vt 0.412080 0.883829
vt 0.412080 0.972502
vt 0.419241 0.972502
vt 0.419241 0.883829
vt 0.424016 0.883829
vt 0.424016 0.972502
vt 0.431178 0.972502
vt 0.431178 0.883829
vt 0.435952 0.883829
vt 0.435952 0.972502
vt 0.443114 0.972502
vt 0.443114 0.883829
vt 0.447888 0.883829
vt 0.447888 0.972502
vt 0.032228 0.982392
vt 0.032228 0.987167
vt 0.027453 0.987167
vt 0.027453 0.982392
vt 0.044164 0.982392
vt 0.044164 0.987167
vt 0.039389 0.987167
vt 0.039389 0.982392
vt 0.645729 0.986825
vt 0.649513 0.986825
vt 0.649513 0.990645
vt 0.645729 0.990645
vt 0.273719 0.736155
vt 0.278493 0.736155
vt 0.278493 0.825653
vt 0.273719 0.825653
vt 0.660459 0.990645
vt 0.656675 0.990645
vt 0.656675 0.986825
vt 0.660459 0.986825
vt 0.290430 0.825653
vt 0.285655 0.825653
vt 0.285655 0.736155
vt 0.290430 0.736155
vt 0.674757 0.896617
vt 0.674757 0.967556
vt 0.670937 0.967556
vt 0.670937 0.896617
vt 0.980626 0.074519
vt 0.980626 0.003581
vt 0.984445 0.003581
vt 0.984445 0.074519
vt 0.988439 0.449216
vt 0.992224 0.449216
vt 0.992224 0.453036
vt 0.988439 0.453036
vt 0.861917 0.460614
vt 0.857143 0.460614
vt 0.857143 0.371116
vt 0.861917 0.371116
vt 0.945504 0.994081
vt 0.941719 0.994081
vt 0.941719 0.990261
vt 0.945504 0.990261
vt 0.861265 0.003581
vt 0.866040 0.003581
vt 0.866040 0.093079
vt 0.861265 0.093079
vt 0.980626 0.152619
vt 0.980626 0.081681
vt 0.984445 0.081681
vt 0.984445 0.152619
vt 0.984605 0.467776
vt 0.984605 0.538714
vt 0.980786 0.538714
vt 0.980786 0.467776
vt 0.579877 0.848019
vt 0.575102 0.848019
vt 0.575102 0.677494
vt 0.579877 0.677494
vt 0.217077 0.918616
vt 0.217077 0.913841
vt 0.221852 0.913841
vt 0.221852 0.918616
vt 0.591813 0.848019
vt 0.587038 0.848019
vt 0.587038 0.677494
vt 0.591813 0.677494
vt 0.799167 0.922052
vt 0.799167 0.917278
vt 0.803941 0.917278
vt 0.803941 0.922052
vt 0.882940 0.344972
vt 0.878165 0.344972
vt 0.878165 0.174446
vt 0.882940 0.174446
vt 0.890072 0.638301
vt 0.885297 0.638301
vt 0.885297 0.467776
vt 0.890072 0.467776
vt 0.603749 0.848019
vt 0.598974 0.848019
vt 0.598974 0.677494
vt 0.603749 0.677494
vt 0.056100 0.987167
vt 0.051325 0.987167
vt 0.051325 0.982392
vt 0.056100 0.982392
vt 0.615685 0.848019
vt 0.610911 0.848019
vt 0.610911 0.677494
vt 0.615685 0.677494
vt 0.068036 0.987167
vt 0.063261 0.987167
vt 0.063261 0.982392
vt 0.068036 0.982392
vt 0.890905 0.833722
vt 0.886130 0.833722
vt 0.886130 0.663197
vt 0.890905 0.663197
vt 0.894876 0.344972
vt 0.890101 0.344972
vt 0.890101 0.174446
vt 0.894876 0.174446
vt 0.455050 0.972502
vt 0.455050 0.883829
vt 0.459824 0.883829
vt 0.459824 0.972502
vt 0.466986 0.972502
vt 0.466986 0.883829
vt 0.471761 0.883829
vt 0.471761 0.972502
vt 0.968690 0.092254
vt 0.968690 0.003581
vt 0.973464 0.003581
vt 0.973464 0.092254
vt 0.968849 0.556449
vt 0.968849 0.467776
vt 0.973624 0.467776
vt 0.973624 0.556449
vt 0.079972 0.982392
vt 0.079972 0.987167
vt 0.075197 0.987167
vt 0.075197 0.982392
vt 0.091908 0.982392
vt 0.091908 0.987167
vt 0.087133 0.987167
vt 0.087133 0.982392
vt 0.273719 0.921487
vt 0.273719 0.832814
vt 0.278493 0.832814
vt 0.278493 0.921487
vt 0.968849 0.652283
vt 0.968849 0.563610
vt 0.973624 0.563610
vt 0.973624 0.652283
vt 0.285655 0.921487
vt 0.285655 0.832814
vt 0.290429 0.832814
vt 0.290429 0.921487
vt 0.969682 0.751870
vt 0.969682 0.663197
vt 0.974457 0.663197
vt 0.974457 0.751870
vt 0.961191 0.165380
vt 0.956416 0.165380
vt 0.956416 0.160606
vt 0.961191 0.160606
vt 0.973127 0.165380
vt 0.968352 0.165380
vt 0.968352 0.160606
vt 0.973127 0.160606
vt 0.297591 0.921487
vt 0.297591 0.832814
vt 0.302366 0.832814
vt 0.302366 0.921487
vt 0.969682 0.847705
vt 0.969682 0.759032
vt 0.974457 0.759032
vt 0.974457 0.847705
vt 0.309527 0.921487
vt 0.309527 0.832814
vt 0.314302 0.832814
vt 0.314302 0.921487
vt 0.969682 0.943539
vt 0.969682 0.854866
vt 0.974457 0.854866
vt 0.974457 0.943539
vt 0.808716 0.977303
vt 0.803941 0.977303
vt 0.803941 0.972528
vt 0.808716 0.972528
vt 0.820652 0.977303
vt 0.815877 0.977303
vt 0.815877 0.972528
vt 0.820652 0.972528
vt 0.003581 0.975230
vt 0.003581 0.886557
vt 0.008355 0.886557
vt 0.008355 0.975230
vt 0.015517 0.975230
vt 0.015517 0.886557
vt 0.020292 0.886557
vt 0.020292 0.975230
vt 0.027453 0.975230
vt 0.027453 0.886557
vt 0.032228 0.886557
vt 0.032228 0.975230
vt 0.039389 0.975230
vt 0.039389 0.886557
vt 0.044164 0.886557
vt 0.044164 0.975230
vt 0.808716 0.984464
vt 0.808716 0.989239
vt 0.803941 0.989239
vt 0.803941 0.984464
vt 0.820652 0.984464
vt 0.820652 0.989239
vt 0.815877 0.989239
vt 0.815877 0.984464
vt 0.869079 0.371116
vt 0.873853 0.371116
vt 0.873853 0.460614
vt 0.869079 0.460614
vt 0.953655 0.990261
vt 0.957440 0.990261
vt 0.957440 0.994081
vt 0.953655 0.994081
vt 0.877976 0.093079
vt 0.873201 0.093079
vt 0.873201 0.003581
vt 0.877976 0.003581
vt 0.383433 0.991600
vt 0.387218 0.991600
vt 0.387218 0.995419
vt 0.383433 0.995419
vt 0.984605 0.616814
vt 0.980786 0.616814
vt 0.980786 0.545876
vt 0.984605 0.545876
vt 0.985438 0.734136
vt 0.981618 0.734136
vt 0.981618 0.663197
vt 0.985438 0.663197
vt 0.302366 0.825653
vt 0.297591 0.825653
vt 0.297591 0.736155
vt 0.302366 0.736155
vt 0.399154 0.995419
vt 0.395369 0.995419
vt 0.395369 0.991600
vt 0.399154 0.991600
vt 0.309527 0.736155
vt 0.314302 0.736155
vt 0.314302 0.825653
vt 0.309527 0.825653
vt 0.411090 0.995419
vt 0.407305 0.995419
vt 0.407305 0.991600
vt 0.411090 0.991600
vt 0.981618 0.741297
vt 0.985438 0.741297
vt 0.985438 0.812236
vt 0.981618 0.812236
vt 0.981618 0.819397
vt 0.985438 0.819397
vt 0.985438 0.890335
vt 0.981618 0.890335
vt 0.627621 0.848019
vt 0.622847 0.848019
vt 0.622847 0.677494
vt 0.627622 0.677494
vt 0.827813 0.977303
vt 0.827813 0.972528
vt 0.832588 0.972528
vt 0.832588 0.977303
vt 0.639558 0.848019
vt 0.634783 0.848019
vt 0.634783 0.677494
vt 0.639558 0.677494
vt 0.839749 0.977303
vt 0.839749 0.972528
vt 0.844524 0.972528
vt 0.844524 0.977303
vt 0.902008 0.638301
vt 0.897233 0.638301
vt 0.897233 0.467776
vt 0.902008 0.467776
vt 0.104190 0.902273
vt 0.099415 0.902273
vt 0.099415 0.731748
vt 0.104190 0.731748
vt 0.651494 0.848019
vt 0.646719 0.848019
vt 0.646719 0.677494
vt 0.651494 0.677494
vt 0.832588 0.989239
vt 0.827813 0.989239
vt 0.827813 0.984464
vt 0.832588 0.984464
vt 0.663430 0.848019
vt 0.658655 0.848019
vt 0.658655 0.677494
vt 0.663430 0.677494
vt 0.844524 0.989239
vt 0.839749 0.989239
vt 0.839749 0.984464
vt 0.844524 0.984464
vt 0.116126 0.902273
vt 0.111351 0.902273
vt 0.111351 0.731748
vt 0.116126 0.731748
vt 0.128062 0.902273
vt 0.123287 0.902273
vt 0.123287 0.731748
vt 0.128062 0.731748
vt 0.051325 0.975230
vt 0.051325 0.886557
vt 0.056100 0.886557
vt 0.056100 0.975230
vt 0.063261 0.975230
vt 0.063261 0.886557
vt 0.068036 0.886557
vt 0.068036 0.975230
vt 0.075197 0.975230
vt 0.075197 0.886557
vt 0.079972 0.886557
vt 0.079972 0.975230
vt 0.087133 0.975230
vt 0.087133 0.886557
vt 0.091908 0.886557
vt 0.091908 0.975230
vt 0.856460 0.984464
vt 0.856460 0.989239
vt 0.851685 0.989239
vt 0.851685 0.984464
vt 0.868396 0.984464
vt 0.868396 0.989239
vt 0.863622 0.989239
vt 0.863622 0.984464
vt 0.321463 0.921487
vt 0.321463 0.832814
vt 0.326238 0.832814
vt 0.326238 0.921487
vt 0.973654 0.263120
vt 0.973654 0.174446
vt 0.978429 0.174446
vt 0.978429 0.263120
vt 0.333399 0.921487
vt 0.333399 0.832814
vt 0.338174 0.832814
vt 0.338174 0.921487
vt 0.973654 0.358954
vt 0.973654 0.270281
vt 0.978429 0.270281
vt 0.978429 0.358954
vt 0.856460 0.977303
vt 0.851685 0.977303
vt 0.851685 0.972528
vt 0.856460 0.972528
vt 0.868396 0.977303
vt 0.863622 0.977303
vt 0.863622 0.972528
vt 0.868396 0.972528
vt 0.345335 0.921487
vt 0.345335 0.832814
vt 0.350110 0.832814
vt 0.350110 0.921487
vt 0.976503 0.459789
vt 0.976503 0.371116
vt 0.981278 0.371116
vt 0.981278 0.459789
vt 0.357271 0.921487
vt 0.357271 0.832814
vt 0.362046 0.832814
vt 0.362046 0.921487
vt 0.682873 0.984465
vt 0.682873 0.895792
vt 0.687648 0.895792
vt 0.687648 0.984465
vt 0.880332 0.977303
vt 0.875558 0.977303
vt 0.875558 0.972528
vt 0.880332 0.972528
vt 0.892268 0.977303
vt 0.887494 0.977303
vt 0.887494 0.972528
vt 0.892268 0.972528
vt 0.694809 0.984465
vt 0.694809 0.895792
vt 0.699584 0.895792
vt 0.699584 0.984465
vt 0.706745 0.984465
vt 0.706745 0.895792
vt 0.711520 0.895792
vt 0.711520 0.984465
vt 0.718681 0.984465
vt 0.718681 0.895792
vt 0.723456 0.895792
vt 0.723456 0.984465
vt 0.730617 0.984465
vt 0.730617 0.895792
vt 0.735392 0.895792
vt 0.735392 0.984465
vt 0.880332 0.984464
vt 0.880332 0.989239
vt 0.875558 0.989239
vt 0.875558 0.984464
vt 0.892268 0.984464
vt 0.892268 0.989239
vt 0.887494 0.989239
vt 0.887494 0.984464
vt 0.885789 0.460614
vt 0.881015 0.460614
vt 0.881015 0.371116
vt 0.885789 0.371116
vt 0.422036 0.995419
vt 0.418251 0.995419
vt 0.418251 0.991600
vt 0.422036 0.991600
vt 0.670937 0.799958
vt 0.675712 0.799958
vt 0.675712 0.889456
vt 0.670937 0.889456
vt 0.434962 0.995419
vt 0.431178 0.995419
vt 0.431178 0.991600
vt 0.434962 0.991600
vt 0.981618 0.897497
vt 0.985438 0.897497
vt 0.985438 0.968435
vt 0.981618 0.968435
vt 0.985590 0.174446
vt 0.989410 0.174446
vt 0.989410 0.245385
vt 0.985590 0.245385
vt 0.591808 0.979663
vt 0.591808 0.951015
vt 0.595218 0.951015
vt 0.595218 0.979663
vt 0.313249 0.957297
vt 0.313249 0.928649
vt 0.337805 0.928649
vt 0.337805 0.957297
vt 0.602380 0.979663
vt 0.602380 0.951015
vt 0.605790 0.951015
vt 0.605790 0.979663
vt 0.345335 0.957297
vt 0.345335 0.928649
vt 0.369891 0.928649
vt 0.369891 0.957297
vt 0.839099 0.140155
vt 0.839099 0.164710
vt 0.835688 0.164710
vt 0.835688 0.140155
vt 0.369515 0.964458
vt 0.369515 0.989014
vt 0.366105 0.989014
vt 0.366105 0.964458
vt 0.956416 0.153444
vt 0.956416 0.100240
vt 0.959827 0.100240
vt 0.959827 0.153444
vt 0.099415 0.724586
vt 0.099415 0.671382
vt 0.128063 0.671382
vt 0.128063 0.724586
vt 0.966988 0.153444
vt 0.966988 0.100240
vt 0.970398 0.100240
vt 0.970398 0.153444
vt 0.135225 0.724586
vt 0.135225 0.671382
vt 0.163873 0.671382
vt 0.163873 0.724586
vt 0.807352 0.936718
vt 0.807352 0.965367
vt 0.803941 0.965367
vt 0.803941 0.936718
vt 0.790671 0.335763
vt 0.790671 0.364411
vt 0.787260 0.364411
vt 0.787260 0.335763
vt 0.612951 0.979663
vt 0.612951 0.951015
vt 0.616362 0.951015
vt 0.616362 0.979663
vt 0.814513 0.965366
vt 0.814513 0.936718
vt 0.839069 0.936718
vt 0.839069 0.965366
vt 0.623523 0.979663
vt 0.623523 0.951015
vt 0.626934 0.951015
vt 0.626934 0.979663
vt 0.846230 0.965366
vt 0.846230 0.936718
vt 0.870786 0.936718
vt 0.870786 0.965366
vt 0.994768 0.623976
vt 0.994768 0.648531
vt 0.991357 0.648531
vt 0.991357 0.623976
vt 0.849671 0.140155
vt 0.849671 0.164710
vt 0.846260 0.164710
vt 0.846260 0.140155
vt 0.634783 0.979663
vt 0.634783 0.951015
vt 0.638193 0.951015
vt 0.638193 0.979663
vt 0.877947 0.965366
vt 0.877947 0.936718
vt 0.902503 0.936718
vt 0.902503 0.965366
vt 0.645355 0.979663
vt 0.645355 0.951015
vt 0.648765 0.951015
vt 0.648765 0.979663
vt 0.771202 0.966731
vt 0.771202 0.938083
vt 0.795757 0.938083
vt 0.795757 0.966731
vt 0.232081 0.964459
vt 0.232081 0.989014
vt 0.228670 0.989014
vt 0.228670 0.964459
vt 0.996010 0.819397
vt 0.996010 0.843952
vt 0.992600 0.843952
vt 0.992600 0.819397
vt 0.099415 0.973892
vt 0.099415 0.945244
vt 0.123971 0.945244
vt 0.123971 0.973892
vt 0.655927 0.979663
vt 0.655927 0.951015
vt 0.659337 0.951015
vt 0.659337 0.979663
vt 0.131132 0.973892
vt 0.131132 0.945244
vt 0.155688 0.945244
vt 0.155688 0.973892
vt 0.980786 0.652624
vt 0.980786 0.623976
vt 0.984196 0.623976
vt 0.984196 0.652624
vt 0.242652 0.989014
vt 0.239242 0.989014
vt 0.239242 0.964459
vt 0.242652 0.964459
vt 0.253224 0.989014
vt 0.249814 0.989014
vt 0.249814 0.964459
vt 0.253224 0.964459
vt 0.185360 0.978299
vt 0.185360 0.949651
vt 0.209916 0.949651
vt 0.209916 0.978299
vt 0.985590 0.359294
vt 0.985590 0.330646
vt 0.989001 0.330646
vt 0.989001 0.359294
vt 0.910002 0.979349
vt 0.910002 0.950701
vt 0.934558 0.950701
vt 0.934558 0.979349
vt 0.218098 0.993107
vt 0.218098 0.964459
vt 0.221509 0.964459
vt 0.221509 0.993107
vt 0.263796 0.989014
vt 0.260386 0.989014
vt 0.260386 0.964459
vt 0.263796 0.964459
vt 0.274368 0.989014
vt 0.270958 0.989014
vt 0.270958 0.964459
vt 0.274368 0.964459
vt 0.698561 0.433985
vt 0.698561 0.345312
vt 0.708111 0.345312
vt 0.708111 0.433985
vt 0.567941 0.509016
vt 0.479268 0.509016
vt 0.479268 0.345312
vt 0.567941 0.345312
vt 0.715272 0.433985
vt 0.715272 0.345312
vt 0.724821 0.345312
vt 0.724821 0.433985
vt 0.663775 0.167285
vt 0.575102 0.167285
vt 0.575102 0.003581
vt 0.663775 0.003581
vt 0.730619 0.467776
vt 0.730619 0.631480
vt 0.721069 0.631480
vt 0.721069 0.467776
vt 0.747330 0.467776
vt 0.747330 0.631480
vt 0.737780 0.631480
vt 0.737780 0.467776
vt 0.731983 0.433985
vt 0.731983 0.345312
vt 0.741532 0.345312
vt 0.741532 0.433985
vt 0.663775 0.338151
vt 0.575102 0.338151
vt 0.575102 0.174446
vt 0.663775 0.174446
vt 0.754491 0.460614
vt 0.754491 0.371941
vt 0.764040 0.371941
vt 0.764040 0.460614
vt 0.663775 0.509016
vt 0.575102 0.509016
vt 0.575102 0.345312
vt 0.663775 0.345312
vt 0.764040 0.467776
vt 0.764040 0.631480
vt 0.754491 0.631480
vt 0.754491 0.467776
vt 0.768845 0.003581
vt 0.768845 0.167285
vt 0.759296 0.167285
vt 0.759296 0.003581
vt 0.472106 0.698981
vt 0.383433 0.698981
vt 0.383433 0.544826
vt 0.472106 0.544826
vt 0.472106 0.537665
vt 0.383433 0.537665
vt 0.383433 0.528115
vt 0.472106 0.528115
vt 0.383433 0.373960
vt 0.472106 0.373960
vt 0.383433 0.364411
vt 0.472106 0.364411
vt 0.730619 0.792796
vt 0.721069 0.792796
vt 0.721069 0.638641
vt 0.730619 0.638641
vt 0.747329 0.792796
vt 0.737780 0.792796
vt 0.737780 0.638641
vt 0.747329 0.638641
vt 0.092254 0.530844
vt 0.003581 0.530844
vt 0.003581 0.376689
vt 0.092254 0.376689
vt 0.003581 0.367139
vt 0.092254 0.367139
vt 0.092254 0.701709
vt 0.003581 0.701709
vt 0.003581 0.547554
vt 0.092254 0.547554
vt 0.092254 0.540393
vt 0.003581 0.540393
vt 0.764040 0.792796
vt 0.754491 0.792796
vt 0.754491 0.638641
vt 0.764040 0.638641
vt 0.796810 0.328601
vt 0.787260 0.328601
vt 0.787260 0.174446
vt 0.796810 0.174446
vt 0.190135 0.990235
vt 0.185360 0.990235
vt 0.185360 0.985461
vt 0.190135 0.985461
vt 0.854263 0.638301
vt 0.849489 0.638301
vt 0.849489 0.467776
vt 0.854263 0.467776
vt 0.202071 0.990235
vt 0.197296 0.990235
vt 0.197296 0.985461
vt 0.202071 0.985461
vt 0.855096 0.833722
vt 0.850322 0.833722
vt 0.850322 0.663197
vt 0.855096 0.663197
vt 0.859068 0.174446
vt 0.859068 0.344972
vt 0.854293 0.344972
vt 0.854293 0.174446
vt 0.866199 0.467776
vt 0.866199 0.638301
vt 0.861425 0.638301
vt 0.861425 0.467776
vt 0.698561 0.459904
vt 0.698561 0.455129
vt 0.703336 0.455129
vt 0.703336 0.459904
vt 0.867032 0.833722
vt 0.862258 0.833722
vt 0.862258 0.663197
vt 0.867032 0.663197
vt 0.710497 0.459904
vt 0.710497 0.455129
vt 0.715272 0.455129
vt 0.715272 0.459904
vt 0.871004 0.344972
vt 0.866229 0.344972
vt 0.866229 0.174446
vt 0.871004 0.174446
vt 0.388208 0.706142
vt 0.388208 0.876667
vt 0.383433 0.876667
vt 0.383433 0.706142
vt 0.400144 0.706142
vt 0.400144 0.876667
vt 0.395369 0.876667
vt 0.395369 0.706142
vt 0.369207 0.921488
vt 0.369207 0.832814
vt 0.373982 0.832814
vt 0.373982 0.921488
vt 0.916823 0.459789
vt 0.916823 0.371116
vt 0.921598 0.371116
vt 0.921598 0.459789
vt 0.920945 0.092254
vt 0.920945 0.003581
vt 0.925720 0.003581
vt 0.925720 0.092254
vt 0.921105 0.556449
vt 0.921105 0.467776
vt 0.925880 0.467776
vt 0.925880 0.556449
vt 0.747328 0.985828
vt 0.747328 0.990603
vt 0.742553 0.990603
vt 0.742553 0.985828
vt 0.759264 0.985828
vt 0.759264 0.990603
vt 0.754489 0.990603
vt 0.754489 0.985828
vt 0.921105 0.652284
vt 0.921105 0.563610
vt 0.925880 0.563610
vt 0.925880 0.652284
vt 0.682873 0.888631
vt 0.682873 0.799958
vt 0.687648 0.799958
vt 0.687648 0.888631
vt 0.921938 0.751870
vt 0.921938 0.663197
vt 0.926713 0.663197
vt 0.926713 0.751870
vt 0.694809 0.888631
vt 0.694809 0.799958
vt 0.699584 0.799958
vt 0.699584 0.888631
vt 0.747328 0.973892
vt 0.747328 0.978667
vt 0.742553 0.978667
vt 0.742553 0.973892
vt 0.759264 0.973892
vt 0.759264 0.978667
vt 0.754489 0.978667
vt 0.754489 0.973892
vt 0.921938 0.847705
vt 0.921938 0.759032
vt 0.926713 0.759032
vt 0.926713 0.847705
vt 0.706745 0.888631
vt 0.706745 0.799958
vt 0.711520 0.799958
vt 0.711520 0.888631
vt 0.814513 0.929557
vt 0.814513 0.840884
vt 0.819288 0.840884
vt 0.819288 0.929557
vt 0.718681 0.888631
vt 0.718681 0.799958
vt 0.723456 0.799958
vt 0.723456 0.888631
vt 0.771200 0.973892
vt 0.771200 0.978667
vt 0.766425 0.978667
vt 0.766425 0.973892
vt 0.783136 0.973892
vt 0.783136 0.978667
vt 0.778361 0.978667
vt 0.778361 0.973892
vt 0.826449 0.929557
vt 0.826449 0.840884
vt 0.831224 0.840884
vt 0.831224 0.929557
vt 0.838385 0.929557
vt 0.838385 0.840884
vt 0.843160 0.840884
vt 0.843160 0.929557
vt 0.850322 0.929557
vt 0.850322 0.840884
vt 0.855096 0.840884
vt 0.855096 0.929557
vt 0.862258 0.929557
vt 0.862258 0.840884
vt 0.867032 0.840884
vt 0.867032 0.929557
vt 0.771200 0.985828
vt 0.771200 0.990603
vt 0.766425 0.990603
vt 0.766425 0.985828
vt 0.783136 0.985828
vt 0.783136 0.990603
vt 0.778361 0.990603
vt 0.778361 0.985828
vt 0.795072 0.990603
vt 0.790297 0.990603
vt 0.790297 0.985828
vt 0.795072 0.985828
vt 0.412080 0.876667
vt 0.407305 0.876667
vt 0.407305 0.706142
vt 0.412080 0.706142
vt 0.914777 0.991285
vt 0.910002 0.991285
vt 0.910002 0.986510
vt 0.914777 0.986510
vt 0.424016 0.876667
vt 0.419242 0.876667
vt 0.419242 0.706142
vt 0.424016 0.706142
vt 0.435952 0.706142
vt 0.435952 0.876668
vt 0.431178 0.876668
vt 0.431178 0.706142
vt 0.447888 0.706142
vt 0.447888 0.876668
vt 0.443114 0.876668
vt 0.443114 0.706142
vt 0.722433 0.459904
vt 0.722433 0.455129
vt 0.727208 0.455129
vt 0.727208 0.459904
vt 0.459825 0.876667
vt 0.455050 0.876667
vt 0.455050 0.706142
vt 0.459825 0.706142
vt 0.726526 0.445921
vt 0.726526 0.441147
vt 0.731301 0.441147
vt 0.731301 0.445921
vt 0.471761 0.876667
vt 0.466986 0.876667
vt 0.466986 0.706142
vt 0.471761 0.706142
vt 0.878136 0.467776
vt 0.878136 0.638301
vt 0.873361 0.638301
vt 0.873361 0.467776
vt 0.878969 0.663197
vt 0.878968 0.833722
vt 0.874194 0.833722
vt 0.874194 0.663197
vt 0.874194 0.929557
vt 0.874194 0.840884
vt 0.878968 0.840884
vt 0.878968 0.929557
vt 0.886130 0.929557
vt 0.886130 0.840884
vt 0.890905 0.840884
vt 0.890905 0.929557
vt 0.898066 0.929557
vt 0.898066 0.840884
vt 0.902841 0.840884
vt 0.902841 0.929557
vt 0.925910 0.263119
vt 0.925910 0.174446
vt 0.930684 0.174446
vt 0.930684 0.263119
vt 0.926713 0.986510
vt 0.926713 0.991285
vt 0.921938 0.991285
vt 0.921938 0.986510
vt 0.974457 0.986510
vt 0.974457 0.991285
vt 0.969682 0.991285
vt 0.969682 0.986510
vt 0.925910 0.358954
vt 0.925910 0.270281
vt 0.930684 0.270281
vt 0.930684 0.358954
vt 0.730617 0.888631
vt 0.730617 0.799958
vt 0.735392 0.799958
vt 0.735392 0.888631
vt 0.771202 0.930921
vt 0.771202 0.842248
vt 0.775976 0.842248
vt 0.775976 0.930921
vt 0.742553 0.888631
vt 0.742553 0.799958
vt 0.747328 0.799958
vt 0.747328 0.888631
vt 0.795072 0.973892
vt 0.795072 0.978667
vt 0.790297 0.978667
vt 0.790297 0.973892
vt 0.675712 0.974717
vt 0.675712 0.979492
vt 0.670937 0.979492
vt 0.670937 0.974717
vt 0.783138 0.930921
vt 0.783138 0.842248
vt 0.787913 0.842248
vt 0.787913 0.930921
vt 0.754489 0.888631
vt 0.754489 0.799958
vt 0.759264 0.799958
vt 0.759264 0.888631
vt 0.928759 0.459789
vt 0.928759 0.371116
vt 0.933534 0.371116
vt 0.933534 0.459789
vt 0.885137 0.092254
vt 0.885137 0.003581
vt 0.889912 0.003581
vt 0.889912 0.092254
vt 0.946494 0.978325
vt 0.946494 0.983100
vt 0.941719 0.983100
vt 0.941719 0.978325
vt 0.958430 0.978325
vt 0.958430 0.983100
vt 0.953655 0.983100
vt 0.953655 0.978325
vt 0.932881 0.092254
vt 0.932881 0.003581
vt 0.937656 0.003581
vt 0.937656 0.092254
vt 0.171035 0.937742
vt 0.171035 0.849069
vt 0.175809 0.849069
vt 0.175809 0.937742
vt 0.933041 0.556449
vt 0.933041 0.467776
vt 0.937816 0.467776
vt 0.937816 0.556449
vt 0.933041 0.652284
vt 0.933041 0.563610
vt 0.937816 0.563610
vt 0.937816 0.652284
vt 0.986393 0.986510
vt 0.986393 0.991285
vt 0.981618 0.991285
vt 0.981618 0.986510
vt 0.675712 0.986653
vt 0.675712 0.991428
vt 0.670937 0.991428
vt 0.670937 0.986653
vt 0.442124 0.991600
vt 0.445908 0.991600
vt 0.445908 0.995419
vt 0.442124 0.995419
vt 0.350110 0.825653
vt 0.345335 0.825653
vt 0.345335 0.736155
vt 0.350110 0.736155
vt 0.456854 0.995419
vt 0.453069 0.995419
vt 0.453069 0.991600
vt 0.456854 0.991600
vt 0.357271 0.736155
vt 0.362046 0.736155
vt 0.362046 0.825653
vt 0.357271 0.825653
vt 0.991767 0.538714
vt 0.991767 0.467776
vt 0.995586 0.467776
vt 0.995586 0.538714
vt 0.989410 0.252546
vt 0.989410 0.323485
vt 0.985590 0.323485
vt 0.985590 0.252546
vt 0.008355 0.879396
vt 0.003581 0.879396
vt 0.003581 0.708871
vt 0.008355 0.708871
vt 0.484042 0.991599
vt 0.479268 0.991599
vt 0.479268 0.986825
vt 0.484042 0.986825
vt 0.020292 0.879396
vt 0.015517 0.879396
vt 0.015517 0.708871
vt 0.020292 0.708871
vt 0.495979 0.991599
vt 0.491204 0.991599
vt 0.491204 0.986825
vt 0.495979 0.986825
vt 0.140000 0.902273
vt 0.135225 0.902273
vt 0.135225 0.731748
vt 0.140000 0.731748
vt 0.151936 0.902273
vt 0.147161 0.902273
vt 0.147161 0.731748
vt 0.151936 0.731748
vt 0.032228 0.879396
vt 0.027453 0.879396
vt 0.027453 0.708871
vt 0.032228 0.708871
vt 0.734369 0.459904
vt 0.734369 0.455129
vt 0.739144 0.455129
vt 0.739144 0.459904
vt 0.044164 0.879396
vt 0.039389 0.879396
vt 0.039389 0.708871
vt 0.044164 0.708871
vt 0.738462 0.445921
vt 0.738462 0.441147
vt 0.743237 0.441147
vt 0.743237 0.445921
vt 0.163872 0.902273
vt 0.159097 0.902273
vt 0.159097 0.731748
vt 0.163872 0.731748
vt 0.902841 0.833722
vt 0.898066 0.833722
vt 0.898066 0.663197
vt 0.902841 0.663197
vt 0.933874 0.751870
vt 0.933874 0.663197
vt 0.938649 0.663197
vt 0.938649 0.751870
vt 0.933874 0.847705
vt 0.933874 0.759032
vt 0.938649 0.759032
vt 0.938649 0.847705
vt 0.937846 0.263119
vt 0.937846 0.174446
vt 0.942621 0.174446
vt 0.942621 0.263119
vt 0.937846 0.358954
vt 0.937846 0.270281
vt 0.942621 0.270281
vt 0.942621 0.358954
vt 0.507915 0.986825
vt 0.507915 0.991599
vt 0.503140 0.991599
vt 0.503140 0.986825
vt 0.519851 0.986825
vt 0.519851 0.991599
vt 0.515076 0.991599
vt 0.515076 0.986825
vt 0.892951 0.459789
vt 0.892951 0.371116
vt 0.897725 0.371116
vt 0.897725 0.459789
vt 0.910002 0.943539
vt 0.910002 0.854866
vt 0.914777 0.854866
vt 0.914777 0.943539
vt 0.799167 0.898180
vt 0.799167 0.809507
vt 0.803941 0.809507
vt 0.803941 0.898180
vt 0.921938 0.943539
vt 0.921938 0.854866
vt 0.926713 0.854866
vt 0.926713 0.943539
vt 0.388208 0.984438
vt 0.383433 0.984438
vt 0.383433 0.979663
vt 0.388208 0.979663
vt 0.400144 0.984438
vt 0.395369 0.984438
vt 0.395369 0.979663
vt 0.400144 0.979663
vt 0.897073 0.092254
vt 0.897073 0.003581
vt 0.901848 0.003581
vt 0.901848 0.092254
vt 0.933874 0.943539
vt 0.933874 0.854866
vt 0.938649 0.854866
vt 0.938649 0.943539
vt 0.902038 0.263119
vt 0.902038 0.174446
vt 0.906812 0.174446
vt 0.906812 0.263119
vt 0.479268 0.943854
vt 0.479268 0.855181
vt 0.484042 0.855181
vt 0.484042 0.943854
vt 0.412080 0.984438
vt 0.407305 0.984438
vt 0.407305 0.979663
vt 0.412080 0.979663
vt 0.424016 0.984438
vt 0.419241 0.984438
vt 0.419241 0.979663
vt 0.424016 0.979663
vt 0.491204 0.943854
vt 0.491204 0.855181
vt 0.495979 0.855181
vt 0.495979 0.943854
vt 0.503140 0.943854
vt 0.503140 0.855181
vt 0.507915 0.855181
vt 0.507915 0.943854
vt 0.515076 0.943854
vt 0.515076 0.855181
vt 0.519851 0.855181
vt 0.519851 0.943854
vt 0.527012 0.943854
vt 0.527012 0.855181
vt 0.531787 0.855181
vt 0.531787 0.943854
vt 0.531787 0.986825
vt 0.531787 0.991599
vt 0.527012 0.991599
vt 0.527012 0.986825
vt 0.543723 0.986825
vt 0.543723 0.991599
vt 0.538948 0.991599
vt 0.538948 0.986825
vt 0.333399 0.736155
vt 0.338174 0.736155
vt 0.338174 0.825653
vt 0.333399 0.825653
vt 0.466986 0.991599
vt 0.470770 0.991599
vt 0.470770 0.995419
vt 0.466986 0.995419
vt 0.326238 0.825653
vt 0.321463 0.825653
vt 0.321463 0.736155
vt 0.326238 0.736155
vt 0.682873 0.991627
vt 0.686657 0.991627
vt 0.686657 0.995447
vt 0.682873 0.995447
vt 0.995586 0.616814
vt 0.991767 0.616814
vt 0.991767 0.545876
vt 0.995586 0.545876
vt 0.992259 0.442055
vt 0.988439 0.442055
vt 0.988439 0.371116
vt 0.992259 0.371116
vt 0.369208 0.736155
vt 0.373982 0.736155
vt 0.373982 0.825653
vt 0.369208 0.825653
vt 0.694809 0.991627
vt 0.698593 0.991627
vt 0.698593 0.995446
vt 0.694809 0.995446
vt 0.826109 0.460614
vt 0.821334 0.460614
vt 0.821334 0.371116
vt 0.826109 0.371116
vt 0.705755 0.991627
vt 0.709539 0.991627
vt 0.709539 0.995447
vt 0.705755 0.995447
vt 0.996419 0.734136
vt 0.992600 0.734136
vt 0.992600 0.663197
vt 0.996419 0.663197
vt 0.995426 0.074519
vt 0.991607 0.074519
vt 0.991607 0.003581
vt 0.995426 0.003581
vt 0.833270 0.371116
vt 0.838045 0.371116
vt 0.838045 0.460614
vt 0.833270 0.460614
vt 0.718681 0.991627
vt 0.722466 0.991627
vt 0.722466 0.995446
vt 0.718681 0.995446
vt 0.849981 0.460614
vt 0.845206 0.460614
vt 0.845206 0.371116
vt 0.849981 0.371116
vt 0.730617 0.991627
vt 0.734402 0.991627
vt 0.734402 0.995447
vt 0.730617 0.995447
vt 0.996419 0.812235
vt 0.992600 0.812235
vt 0.992600 0.741297
vt 0.996419 0.741297
vt 0.995426 0.152619
vt 0.991607 0.152619
vt 0.991607 0.081681
vt 0.995426 0.081681
vt 0.056100 0.879396
vt 0.051325 0.879396
vt 0.051325 0.708871
vt 0.056100 0.708871
vt 0.555659 0.991599
vt 0.550884 0.991599
vt 0.550884 0.986825
vt 0.555659 0.986825
vt 0.068036 0.879396
vt 0.063261 0.879396
vt 0.063261 0.708871
vt 0.068036 0.708871
vt 0.567595 0.991599
vt 0.562820 0.991599
vt 0.562820 0.986825
vt 0.567595 0.986825
vt 0.190135 0.906680
vt 0.185360 0.906680
vt 0.185360 0.736155
vt 0.190135 0.736155
vt 0.202071 0.906680
vt 0.197296 0.906680
vt 0.197296 0.736155
vt 0.202071 0.736155
vt 0.079972 0.879396
vt 0.075197 0.879396
vt 0.075197 0.708871
vt 0.079972 0.708871
vt 0.797832 0.364411
vt 0.797832 0.359636
vt 0.802607 0.359636
vt 0.802607 0.364411
vt 0.091908 0.879396
vt 0.087133 0.879396
vt 0.087133 0.708871
vt 0.091908 0.708871
vt 0.797832 0.352475
vt 0.797832 0.347700
vt 0.802607 0.347700
vt 0.802607 0.352475
vt 0.214007 0.906680
vt 0.209232 0.906680
vt 0.209232 0.736155
vt 0.214007 0.736155
vt 0.225943 0.906680
vt 0.221168 0.906680
vt 0.221168 0.736155
vt 0.225943 0.736155
vt 0.538948 0.943854
vt 0.538948 0.855181
vt 0.543723 0.855181
vt 0.543723 0.943854
vt 0.550884 0.943854
vt 0.550884 0.855181
vt 0.555659 0.855181
vt 0.555659 0.943854
vt 0.562820 0.943854
vt 0.562820 0.855181
vt 0.567595 0.855181
vt 0.567595 0.943854
vt 0.574756 0.943854
vt 0.574756 0.855181
vt 0.579531 0.855181
vt 0.579531 0.943854
vt 0.579531 0.986825
vt 0.579531 0.991599
vt 0.574756 0.991599
vt 0.574756 0.986825
vt 0.591467 0.986825
vt 0.591467 0.991599
vt 0.586692 0.991599
vt 0.586692 0.986825
vt 0.902038 0.358954
vt 0.902038 0.270281
vt 0.906812 0.270281
vt 0.906812 0.358954
vt 0.587038 0.943854
vt 0.587038 0.855181
vt 0.591813 0.855181
vt 0.591813 0.943854
vt 0.904887 0.459789
vt 0.904887 0.371116
vt 0.909662 0.371116
vt 0.909662 0.459789
vt 0.598974 0.943854
vt 0.598974 0.855181
vt 0.603749 0.855181
vt 0.603749 0.943854
vt 0.435952 0.984438
vt 0.431178 0.984438
vt 0.431178 0.979663
vt 0.435952 0.979663
vt 0.447888 0.984438
vt 0.443114 0.984438
vt 0.443114 0.979663
vt 0.447888 0.979663
vt 0.909009 0.092254
vt 0.909009 0.003581
vt 0.913784 0.003581
vt 0.913784 0.092254
vt 0.610910 0.943854
vt 0.610910 0.855181
vt 0.615685 0.855181
vt 0.615685 0.943854
vt 0.909169 0.556449
vt 0.909169 0.467776
vt 0.913944 0.467776
vt 0.913944 0.556449
vt 0.622847 0.943854
vt 0.622847 0.855181
vt 0.627621 0.855181
vt 0.627621 0.943854
vt 0.459824 0.984438
vt 0.455050 0.984438
vt 0.455050 0.979663
vt 0.459824 0.979663
vt 0.471761 0.984438
vt 0.466986 0.984438
vt 0.466986 0.979663
vt 0.471761 0.979663
vt 0.634783 0.943854
vt 0.634783 0.855181
vt 0.639558 0.855181
vt 0.639558 0.943854
vt 0.646719 0.943854
vt 0.646719 0.855181
vt 0.651494 0.855181
vt 0.651494 0.943854
vt 0.658655 0.943854
vt 0.658655 0.855181
vt 0.663430 0.855181
vt 0.663430 0.943854
vt 0.940695 0.459789
vt 0.940695 0.371116
vt 0.945470 0.371116
vt 0.945470 0.459789
vt 0.603403 0.986825
vt 0.603403 0.991599
vt 0.598629 0.991599
vt 0.598629 0.986825
vt 0.615339 0.986825
vt 0.615339 0.991599
vt 0.610565 0.991599
vt 0.610565 0.986825
vt 0.171035 0.973552
vt 0.171035 0.944903
vt 0.174445 0.944903
vt 0.174445 0.973552
vt 0.861265 0.128889
vt 0.861265 0.100240
vt 0.885821 0.100240
vt 0.885821 0.128889
vt 0.969682 0.979349
vt 0.969682 0.950701
vt 0.973093 0.950701
vt 0.973093 0.979349
vt 0.861265 0.164698
vt 0.861265 0.136050
vt 0.885821 0.136050
vt 0.885821 0.164698
vt 0.284940 0.964459
vt 0.284940 0.989014
vt 0.281530 0.989014
vt 0.281530 0.964459
vt 0.996010 0.851114
vt 0.996010 0.875670
vt 0.992600 0.875670
vt 0.992600 0.851114
vt 0.479268 0.979663
vt 0.479268 0.951015
vt 0.482678 0.951015
vt 0.482678 0.979663
vt 0.892982 0.128889
vt 0.892982 0.100240
vt 0.917538 0.100240
vt 0.917538 0.128889
vt 0.491204 0.979663
vt 0.491204 0.951015
vt 0.494614 0.951015
vt 0.494614 0.979663
vt 0.892982 0.164698
vt 0.892982 0.136050
vt 0.917538 0.136050
vt 0.917538 0.164698
vt 0.996010 0.882831
vt 0.996010 0.907387
vt 0.992600 0.907387
vt 0.992600 0.882831
vt 0.295512 0.964459
vt 0.295512 0.989014
vt 0.292101 0.989014
vt 0.292101 0.964459
vt 0.501776 0.979663
vt 0.501776 0.951015
vt 0.505186 0.951015
vt 0.505186 0.979663
vt 0.099415 0.938082
vt 0.099415 0.909434
vt 0.123971 0.909434
vt 0.123971 0.938082
vt 0.515076 0.979663
vt 0.515076 0.951015
vt 0.518486 0.951015
vt 0.518486 0.979663
vt 0.131132 0.938082
vt 0.131132 0.909434
vt 0.155688 0.909434
vt 0.155688 0.938082
vt 0.996010 0.914548
vt 0.996010 0.939104
vt 0.992600 0.939104
vt 0.992600 0.914548
vt 0.306084 0.964459
vt 0.306084 0.989014
vt 0.302673 0.989014
vt 0.302673 0.964459
vt 0.525648 0.979663
vt 0.525648 0.951015
vt 0.529058 0.951015
vt 0.529058 0.979663
vt 0.185360 0.942490
vt 0.185360 0.913841
vt 0.209916 0.913841
vt 0.209916 0.942490
vt 0.538948 0.979663
vt 0.538948 0.951015
vt 0.542359 0.951015
vt 0.542359 0.979663
vt 0.924699 0.128889
vt 0.924699 0.100240
vt 0.949255 0.100240
vt 0.949255 0.128889
vt 0.316656 0.964459
vt 0.316656 0.989014
vt 0.313245 0.989014
vt 0.313245 0.964459
vt 0.996010 0.946265
vt 0.996010 0.970821
vt 0.992600 0.970821
vt 0.992600 0.946265
vt 0.924699 0.164698
vt 0.924699 0.136050
vt 0.949255 0.136050
vt 0.949255 0.164698
vt 0.549520 0.979663
vt 0.549520 0.951015
vt 0.552931 0.951015
vt 0.552931 0.979663
vt 0.249815 0.957297
vt 0.249815 0.928649
vt 0.274371 0.928649
vt 0.274371 0.957297
vt 0.560092 0.979663
vt 0.560092 0.951015
vt 0.563502 0.951015
vt 0.563502 0.979663
vt 0.327228 0.989014
vt 0.323817 0.989014
vt 0.323817 0.964459
vt 0.327228 0.964459
vt 0.337800 0.989014
vt 0.334389 0.989014
vt 0.334389 0.964459
vt 0.337800 0.964459
vt 0.218098 0.957297
vt 0.218098 0.928649
vt 0.242654 0.928649
vt 0.242654 0.957297
vt 0.570664 0.979663
vt 0.570664 0.951015
vt 0.574074 0.951015
vt 0.574074 0.979663
vt 0.281532 0.957297
vt 0.281532 0.928649
vt 0.306088 0.928649
vt 0.306088 0.957297
vt 0.581236 0.979663
vt 0.581236 0.951015
vt 0.584646 0.951015
vt 0.584646 0.979663
vt 0.348371 0.989014
vt 0.344961 0.989014
vt 0.344961 0.964459
vt 0.348371 0.964459
vt 0.358943 0.989014
vt 0.355533 0.989014
vt 0.355533 0.964459
vt 0.358943 0.964459
vt 0.840803 0.132993
vt 0.834664 0.132993
vt 0.834664 0.003581
vt 0.840803 0.003581
vt 0.818871 0.656036
vt 0.814513 0.656036
vt 0.814513 0.467776
vt 0.818871 0.467776
vt 0.808064 0.003581
vt 0.814203 0.003581
vt 0.814203 0.132993
vt 0.808064 0.132993
vt 0.823676 0.362706
vt 0.819318 0.362706
vt 0.819318 0.174446
vt 0.823676 0.174446
vt 0.277235 0.199002
vt 0.277235 0.387262
vt 0.185360 0.387262
vt 0.185360 0.199002
vt 0.277235 0.003581
vt 0.277235 0.191841
vt 0.185360 0.191841
vt 0.185360 0.003581
vt 0.821364 0.003581
vt 0.827503 0.003581
vt 0.827503 0.132993
vt 0.821364 0.132993
vt 0.830391 0.656036
vt 0.826033 0.656036
vt 0.826033 0.467776
vt 0.830391 0.467776
vt 0.854104 0.132993
vt 0.847965 0.132993
vt 0.847965 0.003581
vt 0.854104 0.003581
vt 0.835196 0.362706
vt 0.830837 0.362706
vt 0.830837 0.174446
vt 0.835196 0.174446
vt 0.376272 0.199002
vt 0.376272 0.387262
vt 0.284397 0.387262
vt 0.284397 0.199002
vt 0.376272 0.003581
vt 0.376272 0.191841
vt 0.284397 0.191841
vt 0.284397 0.003581
vt 0.185360 0.728993
vt 0.185360 0.565289
vt 0.266557 0.647141
vt 0.354916 0.647141
vt 0.273719 0.728993
vt 0.273719 0.565289
vt 0.792717 0.167285
vt 0.792717 0.003581
vt 0.800902 0.003581
vt 0.800902 0.167285
vt 0.807352 0.549628
vt 0.807352 0.631480
vt 0.799167 0.631480
vt 0.799167 0.549628
vt 0.807352 0.467776
vt 0.799167 0.467776
vt 0.670937 0.167285
vt 0.670937 0.003581
vt 0.752134 0.085433
vt 0.752134 0.256298
vt 0.670937 0.338151
vt 0.670937 0.174446
vt 0.799167 0.802346
vt 0.799167 0.638641
vt 0.807352 0.638641
vt 0.807352 0.802346
vt 0.812156 0.256298
vt 0.812156 0.338151
vt 0.803971 0.338151
vt 0.803971 0.256298
vt 0.812156 0.174446
vt 0.803971 0.174446
vt 0.698561 0.447968
vt 0.698561 0.441147
vt 0.705382 0.441147
vt 0.705382 0.447968
vt 0.780099 0.364070
vt 0.773278 0.364070
vt 0.773278 0.174446
vt 0.780099 0.174446
vt 0.712544 0.447968
vt 0.712544 0.441147
vt 0.719365 0.441147
vt 0.719365 0.447968
vt 0.792005 0.657400
vt 0.785184 0.657400
vt 0.785184 0.467776
vt 0.792005 0.467776
vt 0.766116 0.174446
vt 0.766116 0.364070
vt 0.759295 0.364070
vt 0.759295 0.174446
vt 0.778023 0.467776
vt 0.778023 0.657400
vt 0.771202 0.657400
vt 0.771202 0.467776
vt 0.157733 0.664221
vt 0.157733 0.548919
vt 0.178196 0.548919
vt 0.178196 0.664221
vt 0.099415 0.664221
vt 0.099415 0.548919
vt 0.119878 0.548919
vt 0.119878 0.664221
vt 0.670937 0.460614
vt 0.670937 0.345312
vt 0.691400 0.345312
vt 0.691400 0.460614
vt 0.127040 0.664221
vt 0.127040 0.548919
vt 0.147503 0.548919
vt 0.147503 0.664221
vt 0.828527 0.140155
vt 0.828527 0.160618
vt 0.808064 0.160618
vt 0.808064 0.140155
vt 0.962182 0.950701
vt 0.962182 0.971164
vt 0.941719 0.971164
vt 0.941719 0.950701
s 0
f 1/1/1 2/2/1 4/3/1 3/4/1
f 3/5/2 4/6/2 8/7/2 7/8/2
f 7/9/3 8/10/3 6/11/3 5/12/3
f 5/13/4 6/14/4 2/15/4 1/16/4
f 3/17/5 7/18/5 5/19/5 1/20/5
f 8/21/6 4/22/6 2/23/6 6/24/6
f 9/25/1 10/26/1 12/27/1 11/28/1
f 11/29/2 12/30/2 16/31/2 15/32/2
f 15/33/3 16/34/3 14/35/3 13/36/3
f 13/37/4 14/38/4 10/39/4 9/40/4
f 11/41/5 15/42/5 13/43/5 9/44/5
f 16/45/6 12/46/6 10/47/6 14/48/6
f 17/49/1 18/50/1 20/51/1 19/52/1
f 19/53/2 20/54/2 24/55/2 23/56/2
f 23/57/3 24/58/3 22/59/3 21/60/3
f 21/61/4 22/62/4 18/63/4 17/64/4
f 19/65/5 23/66/5 21/67/5 17/68/5
f 24/69/6 20/70/6 18/71/6 22/72/6
f 25/73/1 26/74/1 28/75/1 27/76/1
f 27/77/2 28/78/2 32/79/2 31/80/2
f 31/80/3 32/79/3 30/81/3 29/82/3
f 29/82/4 30/81/4 26/83/4 25/84/4
f 27/85/5 31/86/5 29/87/5 25/88/5
f 32/89/6 28/90/6 26/91/6 30/92/6
f 33/93/1 34/94/1 36/95/1 35/96/1
f 35/96/2 36/95/2 40/97/2 39/98/2
f 39/99/3 40/100/3 38/101/3 37/102/3
f 37/103/4 38/104/4 34/94/4 33/93/4
f 35/105/5 39/106/5 37/107/5 33/108/5
f 40/109/6 36/110/6 34/111/6 38/112/6
f 41/113/1 42/114/1 44/115/1 43/116/1
f 43/117/2 44/118/2 48/119/2 47/120/2
f 47/121/3 48/122/3 46/123/3 45/124/3
f 45/125/4 46/126/4 42/127/4 41/128/4
f 43/129/5 47/130/5 45/131/5 41/132/5
f 48/133/6 44/134/6 42/135/6 46/136/6
f 49/137/1 50/138/1 52/139/1 51/140/1
f 51/141/2 52/142/2 56/143/2 55/144/2
f 55/145/3 56/146/3 54/147/3 53/148/3
f 53/149/4 54/150/4 50/151/4 49/152/4
f 51/153/5 55/154/5 53/155/5 49/156/5
f 56/157/6 52/158/6 50/159/6 54/160/6
f 57/161/1 58/162/1 60/163/1 59/164/1
f 59/165/2 60/166/2 64/167/2 63/168/2
f 63/169/3 64/170/3 62/171/3 61/172/3
f 61/173/4 62/174/4 58/175/4 57/176/4
f 59/177/5 63/178/5 61/179/5 57/180/5
f 64/181/6 60/182/6 58/183/6 62/184/6
f 65/185/1 66/186/1 68/187/1 67/188/1
f 67/189/2 68/190/2 72/191/2 71/192/2
f 71/193/3 72/194/3 70/195/3 69/196/3
f 69/197/4 70/198/4 66/199/4 65/200/4
f 67/201/5 71/202/5 69/203/5 65/204/5
f 72/205/6 68/206/6 66/207/6 70/208/6
f 73/209/1 74/210/1 76/211/1 75/212/1
f 75/213/2 76/214/2 80/215/2 79/216/2
f 79/217/3 80/218/3 78/219/3 77/220/3
f 77/221/4 78/222/4 74/223/4 73/224/4
f 75/225/5 79/226/5 77/227/5 73/228/5
f 80/229/6 76/230/6 74/231/6 78/232/6
f 81/233/1 82/234/1 84/235/1 83/236/1
f 83/237/2 84/238/2 88/239/2 87/240/2
f 87/241/3 88/242/3 86/243/3 85/244/3
f 85/245/4 86/246/4 82/247/4 81/248/4
f 83/249/5 87/250/5 85/251/5 81/252/5
f 88/253/6 84/254/6 82/255/6 86/256/6
f 89/257/7 90/258/7 92/259/7 91/260/7
f 91/261/2 92/262/2 96/263/2 95/264/2
f 95/265/8 96/266/8 94/267/8 93/268/8
f 93/269/4 94/270/4 90/271/4 89/272/4
f 91/273/9 95/274/9 93/275/9 89/276/9
f 96/277/10 92/278/10 90/279/10 94/280/10
f 97/281/1 98/282/1 100/283/1 99/284/1
f 99/285/2 100/286/2 104/287/2 103/288/2
f 103/289/3 104/290/3 102/291/3 101/292/3
f 101/293/4 102/294/4 98/295/4 97/296/4
f 99/297/5 103/298/5 101/299/5 97/300/5
f 104/301/6 100/302/6 98/303/6 102/304/6
f 105/305/1 106/306/1 108/307/1 107/308/1
f 107/309/2 108/310/2 112/311/2 111/312/2
f 111/313/3 112/314/3 110/315/3 109/316/3
f 109/317/4 110/318/4 106/319/4 105/320/4
f 107/321/5 111/322/5 109/323/5 105/324/5
f 112/325/6 108/326/6 106/327/6 110/328/6
f 113/329/1 114/330/1 116/331/1 115/332/1
f 115/333/2 116/334/2 120/335/2 119/336/2
f 119/337/3 120/338/3 118/339/3 117/340/3
f 117/341/4 118/342/4 114/343/4 113/344/4
f 115/345/5 119/346/5 117/347/5 113/348/5
f 120/349/6 116/350/6 114/351/6 118/352/6
f 121/353/1 122/354/1 124/355/1 123/356/1
f 123/357/2 124/358/2 128/359/2 127/360/2
f 127/361/3 128/362/3 126/363/3 125/364/3
f 125/365/4 126/366/4 122/367/4 121/368/4
f 123/369/5 127/370/5 125/371/5 121/372/5
f 128/373/6 124/374/6 122/375/6 126/376/6
f 129/377/1 130/378/1 132/379/1 131/380/1
f 131/381/2 132/382/2 136/383/2 135/384/2
f 135/385/3 136/386/3 134/387/3 133/388/3
f 133/389/4 134/390/4 130/391/4 129/392/4
f 131/393/5 135/394/5 133/395/5 129/396/5
f 136/397/6 132/398/6 130/399/6 134/400/6
f 137/401/1 138/402/1 140/403/1 139/404/1
f 139/405/2 140/406/2 144/407/2 143/408/2
f 143/409/3 144/410/3 142/411/3 141/412/3
f 141/413/4 142/414/4 138/415/4 137/416/4
f 139/417/5 143/418/5 141/419/5 137/420/5
f 144/421/6 140/422/6 138/423/6 142/424/6
f 145/425/7 146/426/7 148/427/7 147/428/7
f 147/429/2 148/430/2 152/431/2 151/432/2
f 151/433/8 152/434/8 150/435/8 149/436/8
f 149/437/4 150/438/4 146/439/4 145/440/4
f 147/441/9 151/442/9 149/443/9 145/444/9
f 152/445/10 148/446/10 146/447/10 150/448/10
f 153/449/11 154/450/11 156/451/11 155/452/11
f 155/453/2 156/454/2 160/455/2 159/456/2
f 159/457/12 160/458/12 158/459/12 157/460/12
f 157/461/4 158/462/4 154/463/4 153/464/4
f 155/465/13 159/466/13 157/467/13 153/468/13
f 160/469/14 156/470/14 154/471/14 158/472/14
f 161/473/1 162/474/1 164/475/1 163/476/1
f 163/477/2 164/478/2 168/479/2 167/480/2
f 167/481/3 168/482/3 166/483/3 165/484/3
f 165/485/4 166/486/4 162/487/4 161/488/4
f 163/489/5 167/490/5 165/491/5 161/492/5
f 168/493/6 164/494/6 162/495/6 166/496/6
f 169/497/1 170/498/1 172/499/1 171/500/1
f 171/501/2 172/502/2 176/503/2 175/504/2
f 175/505/3 176/506/3 174/507/3 173/508/3
f 173/509/4 174/510/4 170/511/4 169/512/4
f 171/513/5 175/514/5 173/515/5 169/516/5
f 176/517/6 172/518/6 170/519/6 174/520/6
f 177/521/1 178/522/1 180/523/1 179/524/1
f 179/525/2 180/526/2 184/527/2 183/528/2
f 183/529/3 184/530/3 182/531/3 181/532/3
f 181/533/4 182/534/4 178/535/4 177/536/4
f 179/537/5 183/538/5 181/539/5 177/540/5
f 184/541/6 180/542/6 178/543/6 182/544/6
f 185/545/1 186/546/1 188/547/1 187/548/1
f 187/549/2 188/550/2 192/551/2 191/552/2
f 191/553/3 192/554/3 190/555/3 189/556/3
f 189/557/4 190/558/4 186/559/4 185/560/4
f 187/561/5 191/562/5 189/563/5 185/564/5
f 192/565/6 188/566/6 186/567/6 190/568/6
f 193/569/1 194/570/1 196/571/1 195/572/1
f 195/573/2 196/574/2 200/575/2 199/576/2
f 199/577/3 200/578/3 198/579/3 197/580/3
f 197/581/4 198/582/4 194/583/4 193/584/4
f 195/585/5 199/586/5 197/587/5 193/588/5
f 200/589/6 196/590/6 194/591/6 198/592/6
f 201/593/1 202/594/1 204/595/1 203/596/1
f 203/597/2 204/598/2 208/599/2 207/600/2
f 207/601/3 208/602/3 206/603/3 205/604/3
f 205/605/4 206/606/4 202/607/4 201/608/4
f 203/609/5 207/610/5 205/611/5 201/612/5
f 208/613/6 204/614/6 202/615/6 206/616/6
f 209/617/1 210/618/1 212/619/1 211/620/1
f 211/621/15 212/622/15 216/623/15 215/624/15
f 215/625/3 216/626/3 214/627/3 213/628/3
f 213/629/16 214/630/16 210/631/16 209/632/16
f 211/633/17 215/634/17 213/635/17 209/636/17
f 216/637/18 212/638/18 210/639/18 214/640/18
f 217/641/1 218/642/1 220/643/1 219/644/1
f 219/645/19 220/646/19 224/647/19 223/648/19
f 223/649/3 224/650/3 222/651/3 221/652/3
f 221/653/20 222/654/20 218/655/20 217/656/20
f 219/657/21 223/658/21 221/659/21 217/660/21
f 224/661/22 220/662/22 218/663/22 222/664/22
f 225/665/1 226/666/1 228/667/1 227/668/1
f 227/669/2 228/670/2 232/671/2 231/672/2
f 231/673/3 232/674/3 230/675/3 229/676/3
f 229/677/4 230/678/4 226/679/4 225/680/4
f 227/681/5 231/682/5 229/683/5 225/684/5
f 232/685/6 228/686/6 226/687/6 230/688/6
f 233/689/1 234/690/1 236/691/1 235/692/1
f 235/693/2 236/694/2 240/695/2 239/696/2
f 239/697/3 240/698/3 238/699/3 237/700/3
f 237/701/4 238/702/4 234/703/4 233/704/4
f 235/705/5 239/706/5 237/707/5 233/708/5
f 240/709/6 236/710/6 234/711/6 238/712/6
f 241/713/1 242/714/1 244/715/1 243/716/1
f 243/717/2 244/718/2 248/719/2 247/720/2
f 247/721/3 248/722/3 246/723/3 245/724/3
f 245/725/4 246/726/4 242/727/4 241/728/4
f 243/729/5 247/730/5 245/731/5 241/732/5
f 248/733/6 244/734/6 242/735/6 246/736/6
f 249/737/1 250/738/1 252/739/1 251/740/1
f 251/741/2 252/742/2 256/743/2 255/744/2
f 255/745/3 256/746/3 254/747/3 253/748/3
f 253/749/4 254/750/4 250/751/4 249/752/4
f 251/753/5 255/754/5 253/755/5 249/756/5
f 256/757/6 252/758/6 250/759/6 254/760/6
f 257/761/1 258/762/1 260/763/1 259/764/1
f 259/765/2 260/766/2 264/767/2 263/768/2
f 263/769/3 264/770/3 262/771/3 261/772/3
f 261/773/4 262/774/4 258/775/4 257/776/4
f 259/777/5 263/778/5 261/779/5 257/780/5
f 264/781/6 260/782/6 258/783/6 262/784/6
f 265/785/1 266/786/1 268/787/1 267/788/1
f 267/789/2 268/790/2 272/791/2 271/792/2
f 271/793/3 272/794/3 270/795/3 269/796/3
f 269/797/4 270/798/4 266/799/4 265/800/4
f 267/801/5 271/802/5 269/803/5 265/804/5
f 272/805/6 268/806/6 266/807/6 270/808/6
f 273/809/1 274/810/1 276/811/1 275/812/1
f 275/813/19 276/814/19 280/815/19 279/816/19
f 279/817/3 280/818/3 278/819/3 277/820/3
f 277/821/20 278/822/20 274/823/20 273/824/20
f 275/825/21 279/826/21 277/827/21 273/828/21
f 280/829/22 276/830/22 274/831/22 278/832/22
f 281/833/1 282/834/1 284/835/1 283/836/1
f 283/837/2 284/838/2 288/839/2 287/840/2
f 287/841/3 288/842/3 286/843/3 285/844/3
f 285/845/4 286/846/4 282/847/4 281/848/4
f 283/849/5 287/850/5 285/851/5 281/852/5
f 288/853/6 284/854/6 282/855/6 286/856/6
f 289/857/1 290/858/1 292/859/1 291/860/1
f 291/861/2 292/862/2 296/863/2 295/864/2
f 295/865/3 296/866/3 294/867/3 293/868/3
f 293/869/4 294/870/4 290/871/4 289/872/4
f 291/873/5 295/874/5 293/875/5 289/876/5
f 296/877/6 292/878/6 290/879/6 294/880/6
f 297/881/1 298/882/1 300/883/1 299/884/1
f 299/885/2 300/886/2 304/887/2 303/888/2
f 303/889/3 304/890/3 302/891/3 301/892/3
f 301/893/4 302/894/4 298/895/4 297/896/4
f 299/897/5 303/898/5 301/899/5 297/900/5
f 304/901/6 300/902/6 298/903/6 302/904/6
f 305/905/1 306/906/1 308/907/1 307/908/1
f 307/909/2 308/910/2 312/911/2 311/912/2
f 311/913/3 312/914/3 310/915/3 309/916/3
f 309/917/4 310/918/4 306/919/4 305/920/4
f 307/921/5 311/922/5 309/923/5 305/924/5
f 312/925/6 308/926/6 306/927/6 310/928/6
f 313/929/1 314/930/1 316/931/1 315/932/1
f 315/933/2 316/934/2 320/935/2 319/936/2
f 319/937/3 320/938/3 318/939/3 317/940/3
f 317/941/4 318/942/4 314/943/4 313/944/4
f 315/945/5 319/946/5 317/947/5 313/948/5
f 320/949/6 316/950/6 314/951/6 318/952/6
f 321/953/1 322/954/1 324/955/1 323/956/1
f 323/957/2 324/958/2 328/959/2 327/960/2
f 327/961/3 328/962/3 326/963/3 325/964/3
f 325/965/4 326/966/4 322/967/4 321/968/4
f 323/969/5 327/970/5 325/971/5 321/972/5
f 328/973/6 324/974/6 322/975/6 326/976/6
f 329/977/1 330/978/1 332/979/1 331/980/1
f 331/981/2 332/982/2 336/983/2 335/984/2
f 335/985/3 336/986/3 334/987/3 333/988/3
f 333/989/4 334/990/4 330/991/4 329/992/4
f 331/993/5 335/994/5 333/995/5 329/996/5
f 336/997/6 332/998/6 330/999/6 334/1000/6
f 337/1001/1 338/1002/1 340/1003/1 339/1004/1
f 339/1005/2 340/1006/2 344/1007/2 343/1008/2
f 343/1009/3 344/1010/3 342/1011/3 341/1012/3
f 341/1013/4 342/1014/4 338/1015/4 337/1016/4
f 339/1017/5 343/1018/5 341/1019/5 337/1020/5
f 344/1021/6 340/1022/6 338/1023/6 342/1024/6
f 345/1025/1 346/1026/1 348/1027/1 347/1028/1
f 347/1029/2 348/1030/2 352/1031/2 351/1032/2
f 351/1032/3 352/1031/3 350/1033/3 349/1034/3
f 349/1034/4 350/1033/4 346/1035/4 345/1036/4
f 347/1037/5 351/1038/5 349/1039/5 345/1040/5
f 352/1041/6 348/1042/6 346/1043/6 350/1044/6
f 353/1045/1 354/1046/1 356/1047/1 355/1048/1
f 355/1048/2 356/1047/2 360/1049/2 359/1050/2
f 359/1051/3 360/1052/3 358/1053/3 357/1054/3
f 357/1055/4 358/1056/4 354/1046/4 353/1045/4
f 355/1057/5 359/1058/5 357/1059/5 353/1060/5
f 360/1061/6 356/1062/6 354/1063/6 358/1064/6
f 361/1065/1 362/1066/1 364/1067/1 363/1068/1
f 363/1069/2 364/1070/2 368/1071/2 367/1072/2
f 367/1073/3 368/1074/3 366/1075/3 365/1076/3
f 365/1077/4 366/1078/4 362/1079/4 361/1080/4
f 363/1081/5 367/1082/5 365/1083/5 361/1084/5
f 368/1085/6 364/1086/6 362/1087/6 366/1088/6
f 369/1089/1 370/1090/1 372/1091/1 371/1092/1
f 371/1093/2 372/1094/2 376/1095/2 375/1096/2
f 375/1097/3 376/1098/3 374/1099/3 373/1100/3
f 373/1101/4 374/1102/4 370/1103/4 369/1104/4
f 371/1105/5 375/1106/5 373/1107/5 369/1108/5
f 376/1109/6 372/1110/6 370/1111/6 374/1112/6
f 377/1113/1 378/1114/1 380/1115/1 379/1116/1
f 379/1117/2 380/1118/2 384/1119/2 383/1120/2
f 383/1121/3 384/1122/3 382/1123/3 381/1124/3
f 381/1125/4 382/1126/4 378/1127/4 377/1128/4
f 379/1129/5 383/1130/5 381/1131/5 377/1132/5
f 384/1133/6 380/1134/6 378/1135/6 382/1136/6
f 385/1137/1 386/1138/1 388/1139/1 387/1140/1
f 387/1141/2 388/1142/2 392/1143/2 391/1144/2
f 391/1145/3 392/1146/3 390/1147/3 389/1148/3
f 389/1149/4 390/1150/4 386/1151/4 385/1152/4
f 387/1153/5 391/1154/5 389/1155/5 385/1156/5
f 392/1157/6 388/1158/6 386/1159/6 390/1160/6
f 393/1161/1 394/1162/1 396/1163/1 395/1164/1
f 395/1165/2 396/1166/2 400/1167/2 399/1168/2
f 399/1169/3 400/1170/3 398/1171/3 397/1172/3
f 397/1173/4 398/1174/4 394/1175/4 393/1176/4
f 395/1177/5 399/1178/5 397/1179/5 393/1180/5
f 400/1181/6 396/1182/6 394/1183/6 398/1184/6
f 401/1185/1 402/1186/1 404/1187/1 403/1188/1
f 403/1189/2 404/1190/2 408/1191/2 407/1192/2
f 407/1193/3 408/1194/3 406/1195/3 405/1196/3
f 405/1197/4 406/1198/4 402/1199/4 401/1200/4
f 403/1201/5 407/1202/5 405/1203/5 401/1204/5
f 408/1205/6 404/1206/6 402/1207/6 406/1208/6
f 409/1209/1 410/1210/1 412/1211/1 411/1212/1
f 411/1213/2 412/1214/2 416/1215/2 415/1216/2
f 415/1217/3 416/1218/3 414/1219/3 413/1220/3
f 413/1221/4 414/1222/4 410/1223/4 409/1224/4
f 411/1225/5 415/1226/5 413/1227/5 409/1228/5
f 416/1229/6 412/1230/6 410/1231/6 414/1232/6
f 417/1233/1 418/1234/1 420/1235/1 419/1236/1
f 419/1237/2 420/1238/2 424/1239/2 423/1240/2
f 423/1241/3 424/1242/3 422/1243/3 421/1244/3
f 421/1245/4 422/1246/4 418/1247/4 417/1248/4
f 419/1249/5 423/1250/5 421/1251/5 417/1252/5
f 424/1253/6 420/1254/6 418/1255/6 422/1256/6
f 425/1257/1 426/1258/1 428/1259/1 427/1260/1
f 427/1261/2 428/1262/2 432/1263/2 431/1264/2
f 431/1265/3 432/1266/3 430/1267/3 429/1268/3
f 429/1269/4 430/1270/4 426/1271/4 425/1272/4
f 427/1273/5 431/1274/5 429/1275/5 425/1276/5
f 432/1277/6 428/1278/6 426/1279/6 430/1280/6
f 433/1281/1 434/1282/1 436/1283/1 435/1284/1
f 435/1285/2 436/1286/2 440/1287/2 439/1288/2
f 439/1289/3 440/1290/3 438/1291/3 437/1292/3
f 437/1293/4 438/1294/4 434/1295/4 433/1296/4
f 435/1297/5 439/1298/5 437/1299/5 433/1300/5
f 440/1301/6 436/1302/6 434/1303/6 438/1304/6
f 441/1305/1 442/1306/1 444/1307/1 443/1308/1
f 443/1309/2 444/1310/2 448/1311/2 447/1312/2
f 447/1313/3 448/1314/3 446/1315/3 445/1316/3
f 445/1317/4 446/1318/4 442/1319/4 441/1320/4
f 443/1321/5 447/1322/5 445/1323/5 441/1324/5
f 448/1325/6 444/1326/6 442/1327/6 446/1328/6
f 449/1329/1 450/1330/1 452/1331/1 451/1332/1
f 451/1333/2 452/1334/2 456/1335/2 455/1336/2
f 455/1337/3 456/1338/3 454/1339/3 453/1340/3
f 453/1341/4 454/1342/4 450/1343/4 449/1344/4
f 451/1345/5 455/1346/5 453/1347/5 449/1348/5
f 456/1349/6 452/1350/6 450/1351/6 454/1352/6
f 457/1353/11 458/1354/11 460/1355/11 459/1356/11
f 459/1357/2 460/1358/2 464/1359/2 463/1360/2
f 463/1361/12 464/1362/12 462/1363/12 461/1364/12
f 461/1365/4 462/1366/4 458/1367/4 457/1368/4
f 459/1369/13 463/1370/13 461/1371/13 457/1372/13
f 464/1373/14 460/1374/14 458/1375/14 462/1376/14
f 465/1377/1 466/1378/1 468/1379/1 467/1380/1
f 467/1381/2 468/1382/2 472/1383/2 471/1384/2
f 471/1385/3 472/1386/3 470/1387/3 469/1388/3
f 469/1389/4 470/1390/4 466/1391/4 465/1392/4
f 467/1393/5 471/1394/5 469/1395/5 465/1396/5
f 472/1397/6 468/1398/6 466/1399/6 470/1400/6
f 473/1401/1 474/1402/1 476/1403/1 475/1404/1
f 475/1405/2 476/1406/2 480/1407/2 479/1408/2
f 479/1409/3 480/1410/3 478/1411/3 477/1412/3
f 477/1413/4 478/1414/4 474/1415/4 473/1416/4
f 475/1417/5 479/1418/5 477/1419/5 473/1420/5
f 480/1421/6 476/1422/6 474/1423/6 478/1424/6
f 481/1425/1 482/1426/1 484/1427/1 483/1428/1
f 483/1429/2 484/1430/2 488/1431/2 487/1432/2
f 487/1433/3 488/1434/3 486/1435/3 485/1436/3
f 485/1437/4 486/1438/4 482/1439/4 481/1440/4
f 483/1441/5 487/1442/5 485/1443/5 481/1444/5
f 488/1445/6 484/1446/6 482/1447/6 486/1448/6
f 489/1449/1 490/1450/1 492/1451/1 491/1452/1
f 491/1453/2 492/1454/2 496/1455/2 495/1456/2
f 495/1457/3 496/1458/3 494/1459/3 493/1460/3
f 493/1461/4 494/1462/4 490/1463/4 489/1464/4
f 491/1465/5 495/1466/5 493/1467/5 489/1468/5
f 496/1469/6 492/1470/6 490/1471/6 494/1472/6
f 497/1473/1 498/1474/1 500/1475/1 499/1476/1
f 499/1477/2 500/1478/2 504/1479/2 503/1480/2
f 503/1481/3 504/1482/3 502/1483/3 501/1484/3
f 501/1485/4 502/1486/4 498/1487/4 497/1488/4
f 499/1489/5 503/1490/5 501/1491/5 497/1492/5
f 504/1493/6 500/1494/6 498/1495/6 502/1496/6
f 505/1497/1 506/1498/1 508/1499/1 507/1500/1
f 507/1501/2 508/1502/2 512/1503/2 511/1504/2
f 511/1505/3 512/1506/3 510/1507/3 509/1508/3
f 509/1509/4 510/1510/4 506/1511/4 505/1512/4
f 507/1513/5 511/1514/5 509/1515/5 505/1516/5
f 512/1517/6 508/1518/6 506/1519/6 510/1520/6
f 513/1521/1 514/1522/1 516/1523/1 515/1524/1
f 515/1525/15 516/1526/15 520/1527/15 519/1528/15
f 519/1529/3 520/1530/3 518/1531/3 517/1532/3
f 517/1533/16 518/1534/16 514/1535/16 513/1536/16
f 515/1537/17 519/1538/17 517/1539/17 513/1540/17
f 520/1541/18 516/1542/18 514/1543/18 518/1544/18
f 521/1545/1 522/1546/1 524/1547/1 523/1548/1
f 523/1549/15 524/1550/15 528/1551/15 527/1552/15
f 527/1553/3 528/1554/3 526/1555/3 525/1556/3
f 525/1557/16 526/1558/16 522/1559/16 521/1560/16
f 523/1561/17 527/1562/17 525/1563/17 521/1564/17
f 528/1565/18 524/1566/18 522/1567/18 526/1568/18
f 529/1569/1 530/1570/1 532/1571/1 531/1572/1
f 531/1573/15 532/1574/15 536/1575/15 535/1576/15
f 535/1577/3 536/1578/3 534/1579/3 533/1580/3
f 533/1581/16 534/1582/16 530/1583/16 529/1584/16
f 531/1585/17 535/1586/17 533/1587/17 529/1588/17
f 536/1589/18 532/1590/18 530/1591/18 534/1592/18
f 537/1593/1 538/1594/1 540/1595/1 539/1596/1
f 539/1597/2 540/1598/2 544/1599/2 543/1600/2
f 543/1601/3 544/1602/3 542/1603/3 541/1604/3
f 541/1605/4 542/1606/4 538/1607/4 537/1608/4
f 539/1609/5 543/1610/5 541/1611/5 537/1612/5
f 544/1613/6 540/1614/6 538/1615/6 542/1616/6
f 545/1617/1 546/1618/1 548/1619/1 547/1620/1
f 547/1621/2 548/1622/2 552/1623/2 551/1624/2
f 551/1625/3 552/1626/3 550/1627/3 549/1628/3
f 549/1629/4 550/1630/4 546/1631/4 545/1632/4
f 547/1633/5 551/1634/5 549/1635/5 545/1636/5
f 552/1637/6 548/1638/6 546/1639/6 550/1640/6
f 553/1641/1 554/1642/1 556/1643/1 555/1644/1
f 555/1645/2 556/1646/2 560/1647/2 559/1648/2
f 559/1649/3 560/1650/3 558/1651/3 557/1652/3
f 557/1653/4 558/1654/4 554/1655/4 553/1656/4
f 555/1657/5 559/1658/5 557/1659/5 553/1660/5
f 560/1661/6 556/1662/6 554/1663/6 558/1664/6
f 561/1665/1 562/1666/1 564/1667/1 563/1668/1
f 563/1669/2 564/1670/2 568/1671/2 567/1672/2
f 567/1673/3 568/1674/3 566/1675/3 565/1676/3
f 565/1677/4 566/1678/4 562/1679/4 561/1680/4
f 563/1681/5 567/1682/5 565/1683/5 561/1684/5
f 568/1685/6 564/1686/6 562/1687/6 566/1688/6
f 569/1689/1 570/1690/1 572/1691/1 571/1692/1
f 571/1693/2 572/1694/2 576/1695/2 575/1696/2
f 575/1697/3 576/1698/3 574/1699/3 573/1700/3
f 573/1701/4 574/1702/4 570/1703/4 569/1704/4
f 571/1705/5 575/1706/5 573/1707/5 569/1708/5
f 576/1709/6 572/1710/6 570/1711/6 574/1712/6
f 577/1713/1 578/1714/1 580/1715/1 579/1716/1
f 579/1717/2 580/1718/2 584/1719/2 583/1720/2
f 583/1721/3 584/1722/3 582/1723/3 581/1724/3
f 581/1725/4 582/1726/4 578/1727/4 577/1728/4
f 579/1729/5 583/1730/5 581/1731/5 577/1732/5
f 584/1733/6 580/1734/6 578/1735/6 582/1736/6
f 585/1737/1 586/1738/1 588/1739/1 587/1740/1
f 587/1741/2 588/1742/2 592/1743/2 591/1744/2
f 591/1745/3 592/1746/3 590/1747/3 589/1748/3
f 589/1749/4 590/1750/4 586/1751/4 585/1752/4
f 587/1753/5 591/1754/5 589/1755/5 585/1756/5
f 592/1757/6 588/1758/6 586/1759/6 590/1760/6
f 593/1761/1 594/1762/1 596/1763/1 595/1764/1
f 595/1765/2 596/1766/2 600/1767/2 599/1768/2
f 599/1769/3 600/1770/3 598/1771/3 597/1772/3
f 597/1773/4 598/1774/4 594/1775/4 593/1776/4
f 595/1777/5 599/1778/5 597/1779/5 593/1780/5
f 600/1781/6 596/1782/6 594/1783/6 598/1784/6
f 601/1785/1 602/1786/1 604/1787/1 603/1788/1
f 603/1789/2 604/1790/2 608/1791/2 607/1792/2
f 607/1793/3 608/1794/3 606/1795/3 605/1796/3
f 605/1797/4 606/1798/4 602/1799/4 601/1800/4
f 603/1801/5 607/1802/5 605/1803/5 601/1804/5
f 608/1805/6 604/1806/6 602/1807/6 606/1808/6
f 609/1809/1 610/1810/1 612/1811/1 611/1812/1
f 611/1813/2 612/1814/2 616/1815/2 615/1816/2
f 615/1817/3 616/1818/3 614/1819/3 613/1820/3
f 613/1821/4 614/1822/4 610/1823/4 609/1824/4
f 611/1825/5 615/1826/5 613/1827/5 609/1828/5
f 616/1829/6 612/1830/6 610/1831/6 614/1832/6
f 617/1833/1 618/1834/1 620/1835/1 619/1836/1
f 619/1837/2 620/1838/2 624/1839/2 623/1840/2
f 623/1841/3 624/1842/3 622/1843/3 621/1844/3
f 621/1845/4 622/1846/4 618/1847/4 617/1848/4
f 619/1849/5 623/1850/5 621/1851/5 617/1852/5
f 624/1853/6 620/1854/6 618/1855/6 622/1856/6
f 625/1857/1 626/1858/1 628/1859/1 627/1860/1
f 627/1861/2 628/1862/2 632/1863/2 631/1864/2
f 631/1865/3 632/1866/3 630/1867/3 629/1868/3
f 629/1869/4 630/1870/4 626/1871/4 625/1872/4
f 627/1873/5 631/1874/5 629/1875/5 625/1876/5
f 632/1877/6 628/1878/6 626/1879/6 630/1880/6
f 633/1881/1 634/1882/1 636/1883/1 635/1884/1
f 635/1885/23 636/1886/23 640/1887/23 639/1888/23
f 639/1889/3 640/1890/3 638/1891/3 637/1892/3
f 637/1893/24 638/1894/24 634/1895/24 633/1896/24
f 635/1897/25 639/1898/25 637/1899/25 633/1900/25
f 640/1901/26 636/1902/26 634/1903/26 638/1904/26
f 641/1905/1 642/1906/1 644/1907/1 643/1908/1
f 643/1909/27 644/1910/27 648/1911/27 647/1912/27
f 647/1913/3 648/1914/3 646/1915/3 645/1916/3
f 645/1917/28 646/1918/28 642/1919/28 641/1920/28
f 643/1921/29 647/1922/29 645/1923/29 641/1924/29
f 648/1925/30 644/1926/30 642/1927/30 646/1928/30
f 649/1929/3 650/1930/3 651/1931/3
f 654/1932/1 653/1933/1 652/1934/1
f 650/1935/5 649/1936/5 652/1937/5 653/1938/5
f 651/1939/30 650/1940/30 653/1941/30 654/1942/30
f 649/1943/26 651/1939/26 654/1942/26 652/1944/26
f 655/1945/3 656/1946/3 657/1947/3
f 660/1948/1 659/1949/1 658/1950/1
f 656/1951/5 655/1952/5 658/1953/5 659/1954/5
f 657/1955/30 656/1956/30 659/1957/30 660/1958/30
f 655/1959/26 657/1955/26 660/1958/26 658/1960/26
f 661/1961/1 662/1962/1 664/1963/1 663/1964/1
f 663/1965/2 664/1966/2 668/1967/2 667/1968/2
f 667/1969/3 668/1970/3 666/1971/3 665/1972/3
f 665/1973/4 666/1974/4 662/1975/4 661/1976/4
f 663/1977/5 667/1978/5 665/1979/5 661/1980/5
f 668/1981/6 664/1982/6 662/1983/6 666/1984/6
f 669/1985/1 670/1986/1 672/1987/1 671/1988/1
f 671/1989/2 672/1990/2 676/1991/2 675/1992/2
f 675/1993/3 676/1994/3 674/1995/3 673/1996/3
f 673/1997/4 674/1998/4 670/1999/4 669/2000/4
f 671/2001/5 675/2002/5 673/2003/5 669/2004/5
f 676/2005/6 672/2006/6 670/2007/6 674/2008/6
