# Blender 4.5.13 LTS
# www.blender.org
o planks
v -0.800000 0.000000 0.800000
v -0.800000 0.100000 0.800000
v -0.800000 0.000000 -0.800000
v -0.800000 0.100000 -0.800000
v 0.800000 0.000000 0.800000
v 0.800000 0.100000 0.800000
v 0.800000 0.000000 -0.800000
v 0.800000 0.100000 -0.800000
v -0.820000 0.080000 -0.740000
v -0.820000 0.140000 -0.740000
v -0.820000 0.080000 -0.820000
v -0.820000 0.140000 -0.820000
v 0.820000 0.080000 -0.740000
v 0.820000 0.140000 -0.740000
v 0.820000 0.080000 -0.820000
v 0.820000 0.140000 -0.820000
v -0.820000 0.080000 0.820000
v -0.820000 0.140000 0.820000
v -0.820000 0.080000 0.740000
v -0.820000 0.140000 0.740000
v 0.820000 0.080000 0.820000
v 0.820000 0.140000 0.820000
v 0.820000 0.080000 0.740000
v 0.820000 0.140000 0.740000
v 0.740000 0.080000 0.820000
v 0.740000 0.140000 0.820000
v 0.740000 0.080000 -0.820000
v 0.740000 0.140000 -0.820000
v 0.820000 0.080000 0.820000
v 0.820000 0.140000 0.820000
v 0.820000 0.080000 -0.820000
v 0.820000 0.140000 -0.820000
v -0.820000 0.080000 0.820000
v -0.820000 0.140000 0.820000
v -0.820000 0.080000 -0.820000
v -0.820000 0.140000 -0.820000
v -0.740000 0.080000 0.820000
v -0.740000 0.140000 0.820000
v -0.740000 0.080000 -0.820000
v -0.740000 0.140000 -0.820000
v -0.600000 0.100000 0.520000
v -0.600000 0.120000 0.520000
v -0.600000 0.100000 -0.200000
v -0.600000 0.120000 -0.200000
v 0.600000 0.100000 0.520000
v 0.600000 0.120000 0.520000
v 0.600000 0.100000 -0.200000
v 0.600000 0.120000 -0.200000
v -0.660000 0.130000 0.615000
v -0.660000 0.180000 0.635000
v -0.628180 0.130000 0.628180
v -0.642322 0.180000 0.642322
v -0.615000 0.130000 0.660000
v -0.635000 0.180000 0.660000
v -0.628180 0.130000 0.691820
v -0.642322 0.180000 0.677678
v -0.660000 0.130000 0.705000
v -0.660000 0.180000 0.685000
v -0.691820 0.130000 0.691820
v -0.677678 0.180000 0.677678
v -0.705000 0.130000 0.660000
v -0.685000 0.180000 0.660000
v -0.691820 0.130000 0.628180
v -0.677678 0.180000 0.642322
v -0.660000 0.130000 -0.705000
v -0.660000 0.180000 -0.685000
v -0.628180 0.130000 -0.691820
v -0.642322 0.180000 -0.677678
v -0.615000 0.130000 -0.660000
v -0.635000 0.180000 -0.660000
v -0.628180 0.130000 -0.628180
v -0.642322 0.180000 -0.642322
v -0.660000 0.130000 -0.615000
v -0.660000 0.180000 -0.635000
v -0.691820 0.130000 -0.628180
v -0.677678 0.180000 -0.642322
v -0.705000 0.130000 -0.660000
v -0.685000 0.180000 -0.660000
v -0.691820 0.130000 -0.691820
v -0.677678 0.180000 -0.677678
v 0.660000 0.130000 0.615000
v 0.660000 0.180000 0.635000
v 0.691820 0.130000 0.628180
v 0.677678 0.180000 0.642322
v 0.705000 0.130000 0.660000
v 0.685000 0.180000 0.660000
v 0.691820 0.130000 0.691820
v 0.677678 0.180000 0.677678
v 0.660000 0.130000 0.705000
v 0.660000 0.180000 0.685000
v 0.628180 0.130000 0.691820
v 0.642322 0.180000 0.677678
v 0.615000 0.130000 0.660000
v 0.635000 0.180000 0.660000
v 0.628180 0.130000 0.628180
v 0.642322 0.180000 0.642322
v 0.660000 0.130000 -0.705000
v 0.660000 0.180000 -0.685000
v 0.691820 0.130000 -0.691820
v 0.677678 0.180000 -0.677678
v 0.705000 0.130000 -0.660000
v 0.685000 0.180000 -0.660000
v 0.691820 0.130000 -0.628180
v 0.677678 0.180000 -0.642322
v 0.660000 0.130000 -0.615000
v 0.660000 0.180000 -0.635000
v 0.628180 0.130000 -0.628180
v 0.642322 0.180000 -0.642322
v 0.615000 0.130000 -0.660000
v 0.635000 0.180000 -0.660000
v 0.628180 0.130000 -0.691820
v 0.642322 0.180000 -0.677678
vn -1.0000 -0.0000 -0.0000
vn -0.0000 -0.0000 -1.0000
vn 1.0000 -0.0000 -0.0000
vn -0.0000 -0.0000 1.0000
vn -0.0000 -1.0000 -0.0000
vn -0.0000 1.0000 -0.0000
vn 0.3590 0.3466 -0.8666
vn 0.8666 0.3466 -0.3590
vn 0.8666 0.3466 0.3590
vn 0.3590 0.3466 0.8666
vn -0.3590 0.3466 0.8666
vn -0.8666 0.3466 0.3590
vn -0.8666 0.3466 -0.3590
vn -0.3590 0.3466 -0.8666
vt 0.710195 0.486544
vt 0.739847 0.001326
vt 0.739847 0.486544
vt 0.742499 0.486544
vt 0.772151 0.001326
vt 0.772151 0.486544
vt 0.774803 0.486544
vt 0.804455 0.001326
vt 0.804455 0.486544
vt 0.807106 0.486544
vt 0.836758 0.001326
vt 0.836758 0.486544
vt 0.486544 0.486544
vt 0.001326 0.001326
vt 0.486544 0.001326
vt 0.486544 0.974413
vt 0.001326 0.489195
vt 0.486544 0.489195
vt 0.617830 0.785629
vt 0.635621 0.761369
vt 0.635621 0.785629
vt 0.859853 0.998674
vt 0.877644 0.501326
vt 0.877644 0.998674
vt 0.617830 0.758717
vt 0.635621 0.734456
vt 0.635621 0.758717
vt 0.796324 0.986544
vt 0.814115 0.489195
vt 0.814115 0.986544
vt 0.863671 0.498674
vt 0.839410 0.001326
vt 0.863671 0.001326
vt 0.890583 0.498674
vt 0.866323 0.001326
vt 0.890584 0.001326
vt 0.638273 0.758717
vt 0.656064 0.734456
vt 0.656064 0.758717
vt 0.816767 0.986544
vt 0.834558 0.489195
vt 0.834558 0.986544
vt 0.638273 0.785629
vt 0.656064 0.761369
vt 0.656064 0.785629
vt 0.880296 0.998674
vt 0.898087 0.501326
vt 0.898087 0.998674
vt 0.917496 0.498674
vt 0.893235 0.001326
vt 0.917496 0.001326
vt 0.944409 0.498674
vt 0.920148 0.001326
vt 0.944409 0.001326
vt 0.973973 0.498674
vt 0.991764 0.001326
vt 0.991764 0.498674
vt 0.658715 0.785629
vt 0.676507 0.761369
vt 0.676507 0.785629
vt 0.900739 0.998674
vt 0.918530 0.501326
vt 0.918530 0.998674
vt 0.658716 0.758717
vt 0.676507 0.734456
vt 0.676507 0.758717
vt 0.947060 0.498674
vt 0.971321 0.001326
vt 0.971321 0.498674
vt 0.710195 0.986544
vt 0.734456 0.489195
vt 0.734456 0.986544
vt 0.921182 0.998674
vt 0.938973 0.501326
vt 0.938973 0.998674
vt 0.679158 0.758717
vt 0.696950 0.734456
vt 0.696950 0.758717
vt 0.839410 0.998674
vt 0.857201 0.501326
vt 0.857201 0.998674
vt 0.679158 0.785629
vt 0.696950 0.761369
vt 0.696950 0.785629
vt 0.742499 0.986544
vt 0.766760 0.489195
vt 0.766760 0.986544
vt 0.769411 0.986544
vt 0.793672 0.489195
vt 0.793672 0.986544
vt 0.489195 0.952804
vt 0.495126 0.734456
vt 0.495126 0.952804
vt 0.950207 0.865239
vt 0.956137 0.501326
vt 0.956137 0.865239
vt 0.497777 0.952804
vt 0.503708 0.734456
vt 0.503708 0.952804
vt 0.941625 0.865239
vt 0.947555 0.501326
vt 0.947555 0.865239
vt 0.707543 0.365239
vt 0.489195 0.001326
vt 0.707544 0.001326
vt 0.707544 0.731804
vt 0.489195 0.367891
vt 0.707544 0.367891
vt 0.550790 0.771973
vt 0.534227 0.766612
vt 0.549952 0.762324
vt 0.530737 0.781623
vt 0.515478 0.771973
vt 0.531575 0.771973
vt 0.530737 0.762324
vt 0.577820 0.781623
vt 0.562560 0.771973
vt 0.578658 0.771973
vt 0.577820 0.762324
vt 0.581309 0.777334
vt 0.597873 0.771973
vt 0.597035 0.781623
vt 0.605272 0.762324
vt 0.615178 0.766427
vt 0.611075 0.776332
vt 0.581309 0.766612
vt 0.597035 0.762324
vt 0.534227 0.777334
vt 0.549952 0.781623
vt 0.524190 0.734456
vt 0.531575 0.752286
vt 0.513745 0.759672
vt 0.531575 0.793924
vt 0.515012 0.788563
vt 0.530737 0.784275
vt 0.534227 0.799285
vt 0.550790 0.793924
vt 0.549952 0.803574
vt 0.534227 0.788563
vt 0.549952 0.784275
vt 0.569167 0.803574
vt 0.553907 0.793924
vt 0.570005 0.793924
vt 0.569167 0.784275
vt 0.588382 0.803574
vt 0.573122 0.793924
vt 0.589220 0.793924
vt 0.594426 0.816132
vt 0.598529 0.806226
vt 0.608435 0.810329
vt 0.588382 0.784275
vt 0.515012 0.799285
vt 0.530737 0.803574
vt 0.552057 0.734456
vt 0.559443 0.752286
vt 0.541613 0.759672
vt 0.592337 0.793924
vt 0.607597 0.784275
vt 0.608435 0.793924
vt 0.633555 0.807580
vt 0.618295 0.797931
vt 0.634393 0.797931
vt 0.633555 0.788281
vt 0.638273 0.803292
vt 0.654836 0.797931
vt 0.653998 0.807580
vt 0.638273 0.792570
vt 0.653998 0.788281
vt 0.679158 0.803292
vt 0.695722 0.797931
vt 0.694884 0.807580
vt 0.617830 0.820138
vt 0.621933 0.810232
vt 0.631839 0.814335
vt 0.679158 0.792570
vt 0.694884 0.788281
vt 0.607597 0.803574
vt 0.579925 0.734456
vt 0.587310 0.752286
vt 0.569480 0.759672
vt 0.660409 0.797931
vt 0.675669 0.788281
vt 0.676507 0.797931
vt 0.515012 0.821236
vt 0.531575 0.815875
vt 0.530737 0.825525
vt 0.515012 0.810514
vt 0.530737 0.806226
vt 0.534227 0.821236
vt 0.550790 0.815875
vt 0.549952 0.825525
vt 0.534227 0.810514
vt 0.549952 0.806226
vt 0.569167 0.825525
vt 0.553907 0.815875
vt 0.570005 0.815875
vt 0.576760 0.806226
vt 0.586666 0.810329
vt 0.582563 0.820235
vt 0.569167 0.806226
vt 0.675669 0.807580
vt 0.607792 0.734456
vt 0.615178 0.752286
vt 0.597348 0.759672
vt 0.710195 0.001326
vt 0.742499 0.001326
vt 0.774803 0.001326
vt 0.807106 0.001326
vt 0.001326 0.486544
vt 0.001326 0.974413
vt 0.617830 0.761369
vt 0.859853 0.501326
vt 0.617830 0.734456
vt 0.796324 0.489195
vt 0.839410 0.498674
vt 0.866323 0.498674
vt 0.638273 0.734456
vt 0.816767 0.489195
vt 0.638273 0.761369
vt 0.880296 0.501326
vt 0.893235 0.498674
vt 0.920148 0.498674
vt 0.973973 0.001326
vt 0.658715 0.761369
vt 0.900739 0.501326
vt 0.658716 0.734456
vt 0.947060 0.001326
vt 0.710195 0.489195
vt 0.921182 0.501326
vt 0.679158 0.734456
vt 0.839410 0.501326
vt 0.679158 0.761369
vt 0.742499 0.489195
vt 0.769411 0.489195
vt 0.489195 0.734456
vt 0.950207 0.501326
vt 0.497777 0.734456
vt 0.941625 0.501326
vt 0.489195 0.365239
vt 0.489195 0.731804
vt 0.534693 0.771973
vt 0.515012 0.777334
vt 0.515012 0.766612
vt 0.562095 0.777334
vt 0.562095 0.766612
vt 0.581775 0.771973
vt 0.605272 0.776332
vt 0.601169 0.772229
vt 0.601169 0.766427
vt 0.611075 0.762324
vt 0.615178 0.772229
vt 0.506360 0.752286
vt 0.506360 0.741841
vt 0.513745 0.734456
vt 0.531575 0.741841
vt 0.524190 0.759672
vt 0.515478 0.793924
vt 0.534693 0.793924
vt 0.553442 0.799285
vt 0.553442 0.788563
vt 0.572657 0.799285
vt 0.608435 0.816132
vt 0.604332 0.820235
vt 0.598529 0.820235
vt 0.594426 0.810329
vt 0.604332 0.806226
vt 0.572657 0.788563
vt 0.534227 0.752286
vt 0.534227 0.741841
vt 0.541613 0.734456
vt 0.559443 0.741841
vt 0.552057 0.759672
vt 0.591872 0.788563
vt 0.617830 0.803292
vt 0.617830 0.792570
vt 0.638738 0.797931
vt 0.679624 0.797931
vt 0.631839 0.820138
vt 0.627735 0.824241
vt 0.621933 0.824241
vt 0.617830 0.814335
vt 0.627735 0.810232
vt 0.591872 0.799285
vt 0.562095 0.752286
vt 0.562095 0.741841
vt 0.569480 0.734456
vt 0.587310 0.741841
vt 0.579925 0.759672
vt 0.659944 0.792570
vt 0.515478 0.815875
vt 0.534693 0.815875
vt 0.553442 0.821236
vt 0.576760 0.820235
vt 0.572657 0.816131
vt 0.572657 0.810329
vt 0.582563 0.806226
vt 0.586666 0.816131
vt 0.553442 0.810515
vt 0.659944 0.803292
vt 0.589962 0.752286
vt 0.589962 0.741841
vt 0.597348 0.734456
vt 0.615178 0.741842
vt 0.607792 0.759672
s 0
f 2/1/1 3/2/1 1/3/1
f 4/4/2 7/5/2 3/6/2
f 8/7/3 5/8/3 7/9/3
f 6/10/4 1/11/4 5/12/4
f 7/13/5 1/14/5 3/15/5
f 4/16/6 6/17/6 8/18/6
f 10/19/1 11/20/1 9/21/1
f 12/22/2 15/23/2 11/24/2
f 16/25/3 13/26/3 15/27/3
f 14/28/4 9/29/4 13/30/4
f 15/31/5 9/32/5 11/33/5
f 12/34/6 14/35/6 16/36/6
f 18/37/1 19/38/1 17/39/1
f 20/40/2 23/41/2 19/42/2
f 24/43/3 21/44/3 23/45/3
f 22/46/4 17/47/4 21/48/4
f 23/49/5 17/50/5 19/51/5
f 20/52/6 22/53/6 24/54/6
f 26/55/1 27/56/1 25/57/1
f 28/58/2 31/59/2 27/60/2
f 32/61/3 29/62/3 31/63/3
f 30/64/4 25/65/4 29/66/4
f 31/67/5 25/68/5 27/69/5
f 28/70/6 30/71/6 32/72/6
f 34/73/1 35/74/1 33/75/1
f 36/76/2 39/77/2 35/78/2
f 40/79/3 37/80/3 39/81/3
f 38/82/4 33/83/4 37/84/4
f 39/85/5 33/86/5 35/87/5
f 36/88/6 38/89/6 40/90/6
f 42/91/1 43/92/1 41/93/1
f 44/94/2 47/95/2 43/96/2
f 48/97/3 45/98/3 47/99/3
f 46/100/4 41/101/4 45/102/4
f 47/103/5 41/104/5 43/105/5
f 44/106/6 46/107/6 48/108/6
f 49/109/7 52/110/7 51/111/7
f 51/112/8 54/113/8 53/114/8
f 54/113/9 55/115/9 53/114/9
f 55/116/10 58/117/10 57/118/10
f 58/117/11 59/119/11 57/118/11
f 60/120/12 61/121/12 59/122/12
f 62/123/6 58/124/6 54/125/6
f 61/121/13 64/126/13 63/127/13
f 64/128/14 49/109/14 63/129/14
f 55/130/5 59/131/5 63/132/5
f 65/133/7 68/134/7 67/135/7
f 68/136/8 69/137/8 67/138/8
f 69/137/9 72/139/9 71/140/9
f 71/141/10 74/142/10 73/143/10
f 74/142/11 75/144/11 73/143/11
f 75/145/12 78/146/12 77/147/12
f 78/148/6 74/149/6 70/150/6
f 78/146/13 79/151/13 77/147/13
f 80/152/14 65/133/14 79/153/14
f 71/154/5 75/155/5 79/156/5
f 82/157/7 83/158/7 81/159/7
f 83/160/8 86/161/8 85/162/8
f 86/161/9 87/163/9 85/162/9
f 88/164/10 89/165/10 87/166/10
f 89/165/11 92/167/11 91/168/11
f 92/169/12 93/170/12 91/171/12
f 94/172/6 90/173/6 86/174/6
f 93/170/13 96/175/13 95/176/13
f 95/177/14 82/157/14 81/159/14
f 87/178/5 91/179/5 95/180/5
f 98/181/7 99/182/7 97/183/7
f 100/184/8 101/185/8 99/186/8
f 101/185/9 104/187/9 103/188/9
f 104/189/10 105/190/10 103/191/10
f 105/190/11 108/192/11 107/193/11
f 107/194/12 110/195/12 109/196/12
f 110/197/6 106/198/6 102/199/6
f 110/195/13 111/200/13 109/196/13
f 111/201/14 98/181/14 97/183/14
f 103/202/5 107/203/5 111/204/5
f 2/1/1 4/205/1 3/2/1
f 4/4/2 8/206/2 7/5/2
f 8/7/3 6/207/3 5/8/3
f 6/10/4 2/208/4 1/11/4
f 7/13/5 5/209/5 1/14/5
f 4/16/6 2/210/6 6/17/6
f 10/19/1 12/211/1 11/20/1
f 12/22/2 16/212/2 15/23/2
f 16/25/3 14/213/3 13/26/3
f 14/28/4 10/214/4 9/29/4
f 15/31/5 13/215/5 9/32/5
f 12/34/6 10/216/6 14/35/6
f 18/37/1 20/217/1 19/38/1
f 20/40/2 24/218/2 23/41/2
f 24/43/3 22/219/3 21/44/3
f 22/46/4 18/220/4 17/47/4
f 23/49/5 21/221/5 17/50/5
f 20/52/6 18/222/6 22/53/6
f 26/55/1 28/223/1 27/56/1
f 28/58/2 32/224/2 31/59/2
f 32/61/3 30/225/3 29/62/3
f 30/64/4 26/226/4 25/65/4
f 31/67/5 29/227/5 25/68/5
f 28/70/6 26/228/6 30/71/6
f 34/73/1 36/229/1 35/74/1
f 36/76/2 40/230/2 39/77/2
f 40/79/3 38/231/3 37/80/3
f 38/82/4 34/232/4 33/83/4
f 39/85/5 37/233/5 33/86/5
f 36/88/6 34/234/6 38/89/6
f 42/91/1 44/235/1 43/92/1
f 44/94/2 48/236/2 47/95/2
f 48/97/3 46/237/3 45/98/3
f 46/100/4 42/238/4 41/101/4
f 47/103/5 45/239/5 41/104/5
f 44/106/6 42/240/6 46/107/6
f 49/109/7 50/241/7 52/110/7
f 51/112/8 52/242/8 54/113/8
f 54/113/9 56/243/9 55/115/9
f 55/116/10 56/244/10 58/117/10
f 58/117/11 60/245/11 59/119/11
f 60/120/12 62/246/12 61/121/12
f 54/125/6 52/247/6 50/248/6
f 50/248/6 64/249/6 62/123/6
f 62/123/6 60/250/6 58/124/6
f 58/124/6 56/251/6 54/125/6
f 54/125/6 50/248/6 62/123/6
f 61/121/13 62/246/13 64/126/13
f 64/128/14 50/241/14 49/109/14
f 63/132/5 49/252/5 51/253/5
f 51/253/5 53/254/5 55/130/5
f 55/130/5 57/255/5 59/131/5
f 59/131/5 61/256/5 63/132/5
f 63/132/5 51/253/5 55/130/5
f 65/133/7 66/257/7 68/134/7
f 68/136/8 70/258/8 69/137/8
f 69/137/9 70/258/9 72/139/9
f 71/141/10 72/259/10 74/142/10
f 74/142/11 76/260/11 75/144/11
f 75/145/12 76/261/12 78/146/12
f 70/150/6 68/262/6 66/263/6
f 66/263/6 80/264/6 78/148/6
f 78/148/6 76/265/6 74/149/6
f 74/149/6 72/266/6 70/150/6
f 70/150/6 66/263/6 78/148/6
f 78/146/13 80/267/13 79/151/13
f 80/152/14 66/257/14 65/133/14
f 79/156/5 65/268/5 67/269/5
f 67/269/5 69/270/5 71/154/5
f 71/154/5 73/271/5 75/155/5
f 75/155/5 77/272/5 79/156/5
f 79/156/5 67/269/5 71/154/5
f 82/157/7 84/273/7 83/158/7
f 83/160/8 84/274/8 86/161/8
f 86/161/9 88/275/9 87/163/9
f 88/164/10 90/276/10 89/165/10
f 89/165/11 90/276/11 92/167/11
f 92/169/12 94/277/12 93/170/12
f 86/174/6 84/278/6 82/279/6
f 82/279/6 96/280/6 94/172/6
f 94/172/6 92/281/6 90/173/6
f 90/173/6 88/282/6 86/174/6
f 86/174/6 82/279/6 94/172/6
f 93/170/13 94/277/13 96/175/13
f 95/177/14 96/283/14 82/157/14
f 95/180/5 81/284/5 83/285/5
f 83/285/5 85/286/5 87/178/5
f 87/178/5 89/287/5 91/179/5
f 91/179/5 93/288/5 95/180/5
f 95/180/5 83/285/5 87/178/5
f 98/181/7 100/289/7 99/182/7
f 100/184/8 102/290/8 101/185/8
f 101/185/9 102/290/9 104/187/9
f 104/189/10 106/291/10 105/190/10
f 105/190/11 106/291/11 108/192/11
f 107/194/12 108/292/12 110/195/12
f 102/199/6 100/293/6 98/294/6
f 98/294/6 112/295/6 110/197/6
f 110/197/6 108/296/6 106/198/6
f 106/198/6 104/297/6 102/199/6
f 102/199/6 98/294/6 110/197/6
f 110/195/13 112/298/13 111/200/13
f 111/201/14 112/299/14 98/181/14
f 111/204/5 97/300/5 99/301/5
f 99/301/5 101/302/5 103/202/5
f 103/202/5 105/303/5 107/203/5
f 107/203/5 109/304/5 111/204/5
f 111/204/5 99/301/5 103/202/5
