# Blender 4.5.13 LTS
# www.blender.org
o planks
v 0.000000 0.000000 -0.950000
v 0.000000 0.120000 -0.950000
v 0.245878 0.000000 -0.917630
v 0.245878 0.120000 -0.917630
v 0.475000 0.000000 -0.822724
v 0.475000 0.120000 -0.822724
v 0.671751 0.000000 -0.671751
v 0.671751 0.120000 -0.671751
v 0.822724 0.000000 -0.475000
v 0.822724 0.120000 -0.475000
v 0.917630 0.000000 -0.245878
v 0.917630 0.120000 -0.245878
v 0.950000 0.000000 0.000000
v 0.950000 0.120000 0.000000
v 0.917630 0.000000 0.245878
v 0.917630 0.120000 0.245878
v 0.822724 0.000000 0.475000
v 0.822724 0.120000 0.475000
v 0.671751 0.000000 0.671751
v 0.671751 0.120000 0.671751
v 0.475000 0.000000 0.822724
v 0.475000 0.120000 0.822724
v 0.245878 0.000000 0.917630
v 0.245878 0.120000 0.917630
v 0.000000 0.000000 0.950000
v 0.000000 0.120000 0.950000
v -0.245878 0.000000 0.917630
v -0.245878 0.120000 0.917630
v -0.475000 0.000000 0.822724
v -0.475000 0.120000 0.822724
v -0.671751 0.000000 0.671751
v -0.671751 0.120000 0.671751
v -0.822724 0.000000 0.475000
v -0.822724 0.120000 0.475000
v -0.917630 0.000000 0.245878
v -0.917630 0.120000 0.245878
v -0.950000 0.000000 0.000000
v -0.950000 0.120000 0.000000
v -0.917630 0.000000 -0.245878
v -0.917630 0.120000 -0.245878
v -0.822724 0.000000 -0.475000
v -0.822724 0.120000 -0.475000
v -0.671751 0.000000 -0.671751
v -0.671751 0.120000 -0.671751
v -0.475000 0.000000 -0.822724
v -0.475000 0.120000 -0.822724
v -0.245878 0.000000 -0.917630
v -0.245878 0.120000 -0.917630
v 0.950000 0.000000 0.000000
v 0.917630 0.000000 -0.245878
v 0.822724 0.000000 -0.475000
v 0.671751 0.000000 -0.671751
v 0.475000 0.000000 -0.822724
v 0.245878 0.000000 -0.917630
v 0.000000 0.000000 -0.950000
v -0.245878 0.000000 -0.917630
v -0.475000 0.000000 -0.822724
v -0.671751 0.000000 -0.671751
v -0.822724 0.000000 -0.475000
v -0.917630 0.000000 -0.245878
v -0.950000 0.000000 -0.000000
v -0.917630 0.000000 0.245878
v -0.822724 0.000000 0.475000
v -0.671751 0.000000 0.671751
v -0.475000 0.000000 0.822724
v -0.245878 0.000000 0.917630
v -0.000000 0.000000 0.950000
v 0.245878 0.000000 0.917630
v 0.475000 0.000000 0.822724
v 0.671751 0.000000 0.671751
v 0.822724 0.000000 0.475000
v 0.917630 0.000000 0.245878
v 1.020000 0.000000 0.000000
v 0.985244 0.000000 -0.263995
v 0.883346 0.000000 -0.510000
v 0.721249 0.000000 -0.721249
v 0.510000 0.000000 -0.883346
v 0.263995 0.000000 -0.985244
v 0.000000 0.000000 -1.020000
v -0.263995 0.000000 -0.985244
v -0.510000 0.000000 -0.883346
v -0.721249 0.000000 -0.721249
v -0.883346 0.000000 -0.510000
v -0.985244 0.000000 -0.263995
v -1.020000 0.000000 -0.000000
v -0.985244 0.000000 0.263995
v -0.883346 0.000000 0.510000
v -0.721249 0.000000 0.721249
v -0.510000 0.000000 0.883346
v -0.263995 0.000000 0.985244
v -0.000000 0.000000 1.020000
v 0.263995 0.000000 0.985244
v 0.510000 0.000000 0.883346
v 0.721249 0.000000 0.721249
v 0.883346 0.000000 0.510000
v 0.985244 0.000000 0.263995
v 1.020000 0.160000 0.000000
v 0.985244 0.160000 -0.263995
v 0.883346 0.160000 -0.510000
v 0.721249 0.160000 -0.721249
v 0.510000 0.160000 -0.883346
v 0.263995 0.160000 -0.985244
v 0.000000 0.160000 -1.020000
v -0.263995 0.160000 -0.985244
v -0.510000 0.160000 -0.883346
v -0.721249 0.160000 -0.721249
v -0.883346 0.160000 -0.510000
v -0.985244 0.160000 -0.263995
v -1.020000 0.160000 -0.000000
v -0.985244 0.160000 0.263995
v -0.883346 0.160000 0.510000
v -0.721249 0.160000 0.721249
v -0.510000 0.160000 0.883346
v -0.263995 0.160000 0.985244
v -0.000000 0.160000 1.020000
v 0.263995 0.160000 0.985244
v 0.510000 0.160000 0.883346
v 0.721249 0.160000 0.721249
v 0.883346 0.160000 0.510000
v 0.985244 0.160000 0.263995
v 0.900000 0.160000 0.000000
v 0.869333 0.160000 -0.232937
v 0.779423 0.160000 -0.450000
v 0.636396 0.160000 -0.636396
v 0.450000 0.160000 -0.779423
v 0.232937 0.160000 -0.869333
v 0.000000 0.160000 -0.900000
v -0.232937 0.160000 -0.869333
v -0.450000 0.160000 -0.779423
v -0.636396 0.160000 -0.636396
v -0.779423 0.160000 -0.450000
v -0.869333 0.160000 -0.232937
v -0.900000 0.160000 -0.000000
v -0.869333 0.160000 0.232937
v -0.779423 0.160000 0.450000
v -0.636396 0.160000 0.636396
v -0.450000 0.160000 0.779423
v -0.232937 0.160000 0.869333
v -0.000000 0.160000 0.900000
v 0.232937 0.160000 0.869333
v 0.450000 0.160000 0.779423
v 0.636396 0.160000 0.636396
v 0.779423 0.160000 0.450000
v 0.869333 0.160000 0.232937
v 0.900000 0.120000 0.000000
v 0.869333 0.120000 -0.232937
v 0.779423 0.120000 -0.450000
v 0.636396 0.120000 -0.636396
v 0.450000 0.120000 -0.779423
v 0.232937 0.120000 -0.869333
v 0.000000 0.120000 -0.900000
v -0.232937 0.120000 -0.869333
v -0.450000 0.120000 -0.779423
v -0.636396 0.120000 -0.636396
v -0.779423 0.120000 -0.450000
v -0.869333 0.120000 -0.232937
v -0.900000 0.120000 -0.000000
v -0.869333 0.120000 0.232937
v -0.779423 0.120000 0.450000
v -0.636396 0.120000 0.636396
v -0.450000 0.120000 0.779423
v -0.232937 0.120000 0.869333
v -0.000000 0.120000 0.900000
v 0.232937 0.120000 0.869333
v 0.450000 0.120000 0.779423
v 0.636396 0.120000 0.636396
v 0.779423 0.120000 0.450000
v 0.869333 0.120000 0.232937
v 0.000000 0.120000 -0.420000
v 0.000000 0.160000 -0.380000
v 0.129787 0.120000 -0.399444
v 0.117426 0.160000 -0.361401
v 0.246870 0.120000 -0.339787
v 0.223358 0.160000 -0.307426
v 0.339787 0.120000 -0.246870
v 0.307426 0.160000 -0.223358
v 0.399444 0.120000 -0.129787
v 0.361401 0.160000 -0.117426
v 0.420000 0.120000 0.000000
v 0.380000 0.160000 0.000000
v 0.399444 0.120000 0.129787
v 0.361401 0.160000 0.117426
v 0.339787 0.120000 0.246870
v 0.307426 0.160000 0.223358
v 0.246870 0.120000 0.339787
v 0.223358 0.160000 0.307426
v 0.129787 0.120000 0.399444
v 0.117426 0.160000 0.361401
v 0.000000 0.120000 0.420000
v 0.000000 0.160000 0.380000
v -0.129787 0.120000 0.399444
v -0.117426 0.160000 0.361401
v -0.246870 0.120000 0.339787
v -0.223358 0.160000 0.307426
v -0.339787 0.120000 0.246870
v -0.307426 0.160000 0.223358
v -0.399444 0.120000 0.129787
v -0.361401 0.160000 0.117426
v -0.420000 0.120000 0.000000
v -0.380000 0.160000 0.000000
v -0.399444 0.120000 -0.129787
v -0.361401 0.160000 -0.117426
v -0.339787 0.120000 -0.246870
v -0.307426 0.160000 -0.223358
v -0.246870 0.120000 -0.339787
v -0.223358 0.160000 -0.307426
v -0.129787 0.120000 -0.399444
v -0.117426 0.160000 -0.361401
v 0.800000 0.120000 -0.040000
v 0.800000 0.170000 -0.020000
v 0.834641 0.120000 -0.020000
v 0.817321 0.170000 -0.010000
v 0.834641 0.120000 0.020000
v 0.817321 0.170000 0.010000
v 0.800000 0.120000 0.040000
v 0.800000 0.170000 0.020000
v 0.765359 0.120000 0.020000
v 0.782679 0.170000 0.010000
v 0.765359 0.120000 -0.020000
v 0.782679 0.170000 -0.010000
v 0.565685 0.120000 -0.605685
v 0.565685 0.170000 -0.585685
v 0.600326 0.120000 -0.585685
v 0.583006 0.170000 -0.575685
v 0.600326 0.120000 -0.545685
v 0.583006 0.170000 -0.555685
v 0.565685 0.120000 -0.525685
v 0.565685 0.170000 -0.545685
v 0.531044 0.120000 -0.545685
v 0.548365 0.170000 -0.555685
v 0.531044 0.120000 -0.585685
v 0.548365 0.170000 -0.575685
v 0.000000 0.120000 -0.840000
v 0.000000 0.170000 -0.820000
v 0.034641 0.120000 -0.820000
v 0.017321 0.170000 -0.810000
v 0.034641 0.120000 -0.780000
v 0.017321 0.170000 -0.790000
v 0.000000 0.120000 -0.760000
v 0.000000 0.170000 -0.780000
v -0.034641 0.120000 -0.780000
v -0.017321 0.170000 -0.790000
v -0.034641 0.120000 -0.820000
v -0.017321 0.170000 -0.810000
v -0.565685 0.120000 -0.605685
v -0.565685 0.170000 -0.585685
v -0.531044 0.120000 -0.585685
v -0.548365 0.170000 -0.575685
v -0.531044 0.120000 -0.545685
v -0.548365 0.170000 -0.555685
v -0.565685 0.120000 -0.525685
v -0.565685 0.170000 -0.545685
v -0.600326 0.120000 -0.545685
v -0.583006 0.170000 -0.555685
v -0.600326 0.120000 -0.585685
v -0.583006 0.170000 -0.575685
v -0.800000 0.120000 -0.040000
v -0.800000 0.170000 -0.020000
v -0.765359 0.120000 -0.020000
v -0.782679 0.170000 -0.010000
v -0.765359 0.120000 0.020000
v -0.782679 0.170000 0.010000
v -0.800000 0.120000 0.040000
v -0.800000 0.170000 0.020000
v -0.834641 0.120000 0.020000
v -0.817321 0.170000 0.010000
v -0.834641 0.120000 -0.020000
v -0.817321 0.170000 -0.010000
v -0.565685 0.120000 0.525685
v -0.565685 0.170000 0.545685
v -0.531044 0.120000 0.545685
v -0.548365 0.170000 0.555685
v -0.531044 0.120000 0.585685
v -0.548365 0.170000 0.575685
v -0.565685 0.120000 0.605685
v -0.565685 0.170000 0.585685
v -0.600326 0.120000 0.585685
v -0.583006 0.170000 0.575685
v -0.600326 0.120000 0.545685
v -0.583006 0.170000 0.555685
v -0.000000 0.120000 0.760000
v -0.000000 0.170000 0.780000
v 0.034641 0.120000 0.780000
v 0.017321 0.170000 0.790000
v 0.034641 0.120000 0.820000
v 0.017321 0.170000 0.810000
v -0.000000 0.120000 0.840000
v -0.000000 0.170000 0.820000
v -0.034641 0.120000 0.820000
v -0.017321 0.170000 0.810000
v -0.034641 0.120000 0.780000
v -0.017321 0.170000 0.790000
v 0.565685 0.120000 0.525685
v 0.565685 0.170000 0.545685
v 0.600326 0.120000 0.545685
v 0.583006 0.170000 0.555685
v 0.600326 0.120000 0.585685
v 0.583006 0.170000 0.575685
v 0.565685 0.120000 0.605685
v 0.565685 0.170000 0.585685
v 0.531044 0.120000 0.585685
v 0.548365 0.170000 0.575685
v 0.531044 0.120000 0.545685
v 0.548365 0.170000 0.555685
vn 0.1305 -0.0000 -0.9914
vn 0.3827 -0.0000 -0.9239
vn 0.6088 -0.0000 -0.7934
vn 0.7934 -0.0000 -0.6088
vn 0.9239 -0.0000 -0.3827
vn 0.9914 -0.0000 -0.1305
vn 0.9914 -0.0000 0.1305
vn 0.9239 -0.0000 0.3827
vn 0.7934 -0.0000 0.6088
vn 0.6088 -0.0000 0.7934
vn 0.3827 -0.0000 0.9239
vn 0.1305 -0.0000 0.9914
vn -0.1305 -0.0000 0.9914
vn -0.3827 -0.0000 0.9239
vn -0.6088 -0.0000 0.7934
vn -0.7934 -0.0000 0.6088
vn -0.9239 -0.0000 0.3827
vn -0.9914 -0.0000 0.1305
vn -0.9914 -0.0000 -0.1305
vn -0.9239 -0.0000 -0.3827
vn -0.7934 -0.0000 -0.6088
vn -0.6088 -0.0000 -0.7934
vn -0.0000 1.0000 -0.0000
vn -0.3827 -0.0000 -0.9239
vn -0.1305 -0.0000 -0.9914
vn -0.0000 -1.0000 -0.0000
vn 0.1113 0.7027 -0.7027
vn 0.3230 0.7027 -0.6339
vn 0.5031 0.7027 -0.5031
vn 0.6339 0.7027 -0.3230
vn 0.7027 0.7027 -0.1113
vn 0.7027 0.7027 0.1113
vn 0.6339 0.7027 0.3230
vn 0.5031 0.7027 0.5031
vn 0.3230 0.7027 0.6339
vn 0.1113 0.7027 0.7027
vn -0.1113 0.7027 0.7027
vn -0.3230 0.7027 0.6339
vn -0.5031 0.7027 0.5031
vn -0.6339 0.7027 0.3230
vn -0.7027 0.7027 0.1113
vn -0.7027 0.7027 -0.1113
vn -0.6339 0.7027 -0.3230
vn -0.5031 0.7027 -0.5031
vn -0.3230 0.7027 -0.6339
vn -0.1113 0.7027 -0.7027
vn 0.4725 0.3273 -0.8183
vn 0.9449 0.3273 -0.0000
vn 0.4725 0.3273 0.8183
vn -0.4725 0.3273 0.8183
vn -0.9449 0.3273 -0.0000
vn -0.4725 0.3273 -0.8183
vt 0.960767 0.769936
vt 0.934181 0.823028
vt 0.935039 0.769955
vt 0.959908 0.823009
vt 0.935039 0.876186
vt 0.960767 0.876166
vt 0.937556 0.925806
vt 0.963283 0.925786
vt 0.941559 0.968506
vt 0.891518 0.907402
vt 0.920911 0.857906
vt 0.916954 0.907402
vt 0.895475 0.857906
vt 0.922260 0.804789
vt 0.896825 0.804789
vt 0.920911 0.751673
vt 0.895475 0.751673
vt 0.916954 0.702177
vt 0.934181 0.675526
vt 0.964598 0.633332
vt 0.959905 0.675962
vt 0.938874 0.632896
vt 0.967916 0.583759
vt 0.942193 0.583324
vt 0.969634 0.530622
vt 0.943910 0.530187
vt 0.969634 0.477542
vt 0.943910 0.477107
vt 0.967916 0.428137
vt 0.942193 0.427701
vt 0.964598 0.385772
vt 0.938874 0.385337
vt 0.959905 0.353336
vt 0.896650 0.678195
vt 0.926965 0.638782
vt 0.922382 0.678338
vt 0.901233 0.638639
vt 0.930206 0.591223
vt 0.904473 0.591080
vt 0.931884 0.538900
vt 0.906151 0.538758
vt 0.931884 0.485381
vt 0.906151 0.485239
vt 0.930206 0.434313
vt 0.904473 0.434170
vt 0.926965 0.389175
vt 0.901233 0.389032
vt 0.922382 0.353044
vt 0.565304 0.015015
vt 0.847310 0.231406
vt 0.518907 0.367435
vt 0.967286 0.678259
vt 0.937556 0.720584
vt 0.941559 0.678279
vt 0.963283 0.720564
vt 0.617053 0.410386
vt 0.833444 0.692392
vt 0.481024 0.738789
vt 0.141075 0.030007
vt 0.190850 0.001149
vt 0.192824 0.016141
vt 0.094678 0.056795
vt 0.135288 0.016037
vt 0.044798 0.085472
vt 0.085472 0.044798
vt 0.030007 0.141075
vt 0.056795 0.094678
vt 0.016141 0.192824
vt 0.016037 0.135288
vt 0.016141 0.246398
vt 0.001149 0.190850
vt 0.030007 0.298147
vt 0.001149 0.248372
vt 0.056795 0.344544
vt 0.016037 0.303934
vt 0.085472 0.394424
vt 0.044798 0.353750
vt 0.141075 0.409215
vt 0.094678 0.382427
vt 0.192824 0.423081
vt 0.135288 0.423185
vt 0.246398 0.423081
vt 0.190850 0.438073
vt 0.298147 0.409215
vt 0.248372 0.438073
vt 0.344544 0.382427
vt 0.303934 0.423185
vt 0.394424 0.353750
vt 0.353750 0.394424
vt 0.409215 0.298147
vt 0.382427 0.344544
vt 0.423081 0.246398
vt 0.423185 0.303934
vt 0.423081 0.192824
vt 0.438073 0.248372
vt 0.409215 0.141075
vt 0.438073 0.190850
vt 0.382427 0.094678
vt 0.423185 0.135288
vt 0.353750 0.044798
vt 0.394424 0.085472
vt 0.298147 0.030007
vt 0.344544 0.056795
vt 0.246398 0.016141
vt 0.303934 0.016037
vt 0.248372 0.001149
vt 0.887771 0.869381
vt 0.855306 0.812350
vt 0.889220 0.812350
vt 0.883522 0.922524
vt 0.853857 0.869381
vt 0.900041 0.266940
vt 0.938641 0.312761
vt 0.904338 0.312787
vt 0.897339 0.213664
vt 0.934343 0.266914
vt 0.896417 0.156590
vt 0.931642 0.213639
vt 0.897339 0.099606
vt 0.930720 0.156564
vt 0.900041 0.046597
vt 0.931642 0.099581
vt 0.904338 0.001175
vt 0.934343 0.046571
vt 0.888839 0.040133
vt 0.849608 0.001149
vt 0.883918 0.001339
vt 0.892318 0.088597
vt 0.854529 0.039942
vt 0.894120 0.143428
vt 0.858008 0.088406
vt 0.894120 0.200891
vt 0.859809 0.143238
vt 0.892318 0.257068
vt 0.859809 0.200700
vt 0.888839 0.308132
vt 0.858008 0.256878
vt 0.883918 0.350603
vt 0.854529 0.307942
vt 0.888945 0.388308
vt 0.849608 0.352901
vt 0.883906 0.353481
vt 0.892508 0.433794
vt 0.854647 0.387727
vt 0.894352 0.486840
vt 0.858210 0.433213
vt 0.894352 0.543831
vt 0.860054 0.486259
vt 0.892508 0.600883
vt 0.860054 0.543250
vt 0.888945 0.654108
vt 0.858210 0.600302
vt 0.883906 0.699879
vt 0.854647 0.653527
vt 0.887771 0.755320
vt 0.849608 0.702177
vt 0.883522 0.702177
vt 0.853857 0.755320
vt 0.190850 0.877295
vt 0.244988 0.851594
vt 0.248372 0.877295
vt 0.135288 0.862408
vt 0.194234 0.851594
vt 0.085472 0.833646
vt 0.145208 0.838458
vt 0.044798 0.792972
vt 0.101253 0.813080
vt 0.016037 0.743156
vt 0.065364 0.777191
vt 0.001149 0.687594
vt 0.039987 0.733236
vt 0.001149 0.630072
vt 0.026850 0.684211
vt 0.016037 0.574510
vt 0.026850 0.633456
vt 0.044798 0.524694
vt 0.039987 0.584430
vt 0.085472 0.484020
vt 0.065364 0.540475
vt 0.135288 0.455259
vt 0.101253 0.504586
vt 0.190850 0.440371
vt 0.145208 0.479209
vt 0.248372 0.440371
vt 0.194234 0.466072
vt 0.303934 0.455259
vt 0.244988 0.466072
vt 0.353750 0.484020
vt 0.294014 0.479209
vt 0.394424 0.524694
vt 0.337969 0.504586
vt 0.423185 0.574510
vt 0.373858 0.540475
vt 0.438073 0.630072
vt 0.399235 0.584430
vt 0.438073 0.687594
vt 0.412372 0.633456
vt 0.423185 0.743156
vt 0.412372 0.684211
vt 0.394424 0.792972
vt 0.399235 0.733236
vt 0.353750 0.833646
vt 0.373858 0.777191
vt 0.303934 0.862408
vt 0.337969 0.813080
vt 0.294014 0.838458
vt 0.962617 0.083680
vt 0.969606 0.133295
vt 0.961028 0.133248
vt 0.965688 0.038623
vt 0.971195 0.083727
vt 0.970029 0.001149
vt 0.974265 0.038671
vt 0.945710 0.276065
vt 0.958731 0.306939
vt 0.950156 0.306794
vt 0.942567 0.235930
vt 0.954285 0.276210
vt 0.940939 0.189125
vt 0.951141 0.236075
vt 0.940939 0.138839
vt 0.949514 0.189270
vt 0.942567 0.088499
vt 0.949514 0.138984
vt 0.945710 0.041535
vt 0.951141 0.088644
vt 0.950156 0.001149
vt 0.954285 0.041680
vt 0.984159 0.399792
vt 0.971931 0.352901
vt 0.980410 0.352901
vt 0.985438 0.450113
vt 0.975680 0.399792
vt 0.984159 0.500433
vt 0.976959 0.450113
vt 0.980410 0.547325
vt 0.975680 0.500433
vt 0.981952 0.718712
vt 0.969584 0.678266
vt 0.978159 0.678259
vt 0.984336 0.765720
vt 0.973376 0.718719
vt 0.985149 0.816080
vt 0.975760 0.765727
vt 0.984336 0.866360
vt 0.976573 0.816087
vt 0.981952 0.913133
vt 0.975760 0.866366
vt 0.978159 0.953211
vt 0.973376 0.913139
vt 0.965688 0.275093
vt 0.978607 0.309370
vt 0.970029 0.309323
vt 0.962617 0.232331
vt 0.974265 0.275141
vt 0.961028 0.183950
vt 0.971195 0.232378
vt 0.969606 0.183998
vt 0.814694 0.845501
vt 0.824323 0.873186
vt 0.814694 0.873717
vt 0.815778 0.901507
vt 0.740245 0.982380
vt 0.767133 0.973394
vt 0.744168 0.990079
vt 0.786354 0.921205
vt 0.798669 0.900991
vt 0.796181 0.926284
vt 0.788604 0.898321
vt 0.799526 0.872953
vt 0.788604 0.847586
vt 0.798669 0.844916
vt 0.796181 0.819623
vt 0.776119 0.871969
vt 0.767133 0.845080
vt 0.783818 0.868046
vt 0.827601 0.898329
vt 0.838210 0.873717
vt 0.837126 0.901507
vt 0.828581 0.873186
vt 0.838210 0.845501
vt 0.827601 0.824244
vt 0.837126 0.819623
vt 0.690135 0.828158
vt 0.661785 0.828395
vt 0.688783 0.819623
vt 0.665708 0.836094
vt 0.638820 0.845080
vt 0.644930 0.851191
vt 0.622134 0.868046
vt 0.801824 0.898353
vt 0.812397 0.874243
vt 0.811334 0.901794
vt 0.802785 0.847808
vt 0.812397 0.845929
vt 0.811334 0.819623
vt 0.629834 0.946505
vt 0.638820 0.973394
vt 0.622134 0.950428
vt 0.629834 0.871969
vt 0.784056 0.896395
vt 0.644930 0.967284
vt 0.661785 0.990079
vt 0.825303 0.824244
vt 0.815778 0.819623
vt 0.544179 0.819623
vt 0.571176 0.990079
vt 0.465828 0.973394
vt 0.150527 0.886452
vt 0.139814 0.894034
vt 0.139264 0.885687
vt 0.373733 0.879593
vt 0.380214 0.890913
vt 0.371573 0.890913
vt 0.164088 0.894034
vt 0.153375 0.886452
vt 0.164638 0.885687
vt 0.164088 0.879593
vt 0.896649 0.687117
vt 0.900391 0.680636
vt 0.904133 0.687117
vt 0.384867 0.893211
vt 0.391122 0.904386
vt 0.382512 0.904386
vt 0.150802 0.883405
vt 0.139814 0.879593
vt 0.070206 0.892555
vt 0.077690 0.879593
vt 0.085173 0.892555
vt 0.233541 0.886452
vt 0.222827 0.894034
vt 0.222278 0.885687
vt 0.382512 0.890913
vt 0.388992 0.879593
vt 0.391153 0.890913
vt 0.177924 0.894034
vt 0.167210 0.886452
vt 0.178473 0.885687
vt 0.177924 0.879593
vt 0.180771 0.902812
vt 0.184513 0.896331
vt 0.188254 0.902812
vt 0.426174 0.904386
vt 0.432835 0.893211
vt 0.434784 0.904386
vt 0.222827 0.879593
vt 0.008632 0.896875
vt 0.001149 0.883913
vt 0.016116 0.883914
vt 0.261212 0.886452
vt 0.250499 0.894034
vt 0.249949 0.885687
vt 0.395611 0.879593
vt 0.402091 0.890913
vt 0.393450 0.890913
vt 0.263785 0.890625
vt 0.275323 0.885687
vt 0.274773 0.894034
vt 0.264060 0.886452
vt 0.274773 0.879593
vt 0.143319 0.902812
vt 0.147060 0.896331
vt 0.150802 0.902812
vt 0.406713 0.893211
vt 0.412969 0.904386
vt 0.404358 0.904386
vt 0.261487 0.883405
vt 0.250499 0.879593
vt 0.104735 0.883913
vt 0.119702 0.883913
vt 0.112219 0.896875
vt 0.316555 0.886452
vt 0.305841 0.894034
vt 0.305292 0.885687
vt 0.404389 0.890913
vt 0.410870 0.879593
vt 0.413030 0.890913
vt 0.319127 0.890625
vt 0.330665 0.885687
vt 0.330116 0.894034
vt 0.319127 0.883405
vt 0.330116 0.879593
vt 0.202090 0.902812
vt 0.194607 0.902812
vt 0.198348 0.896331
vt 0.896417 0.326260
vt 0.903077 0.315085
vt 0.905027 0.326260
vt 0.316830 0.883405
vt 0.305841 0.879593
vt 0.018413 0.883913
vt 0.033380 0.883913
vt 0.025897 0.896875
vt 0.192034 0.886452
vt 0.181321 0.894034
vt 0.180771 0.885687
vt 0.362794 0.879593
vt 0.369275 0.890913
vt 0.360634 0.890913
vt 0.194607 0.890625
vt 0.206145 0.885687
vt 0.205595 0.894034
vt 0.194881 0.886452
vt 0.205595 0.879593
vt 0.153100 0.902812
vt 0.156841 0.896332
vt 0.160583 0.902812
vt 0.373959 0.893211
vt 0.380214 0.904386
vt 0.371604 0.904386
vt 0.181321 0.879593
vt 0.087471 0.892555
vt 0.094954 0.879593
vt 0.102438 0.892555
vt 0.344226 0.886452
vt 0.333513 0.894034
vt 0.332963 0.885687
vt 0.415328 0.890913
vt 0.421809 0.879593
vt 0.423969 0.890913
vt 0.357787 0.894034
vt 0.347073 0.886452
vt 0.358337 0.885687
vt 0.357787 0.879593
vt 0.208442 0.902812
vt 0.212184 0.896331
vt 0.215926 0.902812
vt 0.896417 0.339733
vt 0.903078 0.328558
vt 0.905028 0.339733
vt 0.333513 0.879593
vt 0.043161 0.896875
vt 0.035678 0.883914
vt 0.050644 0.883914
vt 0.288884 0.886452
vt 0.278170 0.894034
vt 0.277620 0.885687
vt 0.428427 0.879593
vt 0.434907 0.890913
vt 0.426266 0.890913
vt 0.291456 0.890625
vt 0.302994 0.885687
vt 0.302444 0.894034
vt 0.291731 0.886452
vt 0.302444 0.879593
vt 0.162881 0.902812
vt 0.166622 0.896331
vt 0.170364 0.902812
vt 0.417621 0.893211
vt 0.423877 0.904386
vt 0.415266 0.904386
vt 0.289158 0.883405
vt 0.278170 0.879593
vt 0.122000 0.883914
vt 0.136966 0.883913
vt 0.129483 0.896875
vt 0.208442 0.885687
vt 0.219980 0.890625
vt 0.208992 0.894034
vt 0.360634 0.904531
vt 0.367115 0.893211
vt 0.369275 0.904531
vt 0.236114 0.890626
vt 0.247652 0.885687
vt 0.247102 0.894034
vt 0.236388 0.886452
vt 0.247102 0.879593
vt 0.229761 0.902812
vt 0.222278 0.902812
vt 0.226020 0.896331
vt 0.393450 0.904386
vt 0.400111 0.893211
vt 0.402061 0.904386
vt 0.219980 0.883405
vt 0.208992 0.879593
vt 0.052942 0.883914
vt 0.067909 0.883914
vt 0.060425 0.896875
vt 0.967286 0.968486
vt 0.891518 0.702177
vt 0.934181 0.352901
vt 0.896650 0.352901
vt 0.481024 0.329552
vt 0.454237 0.283155
vt 0.440371 0.231406
vt 0.440371 0.177831
vt 0.454237 0.126082
vt 0.481024 0.079685
vt 0.518907 0.041802
vt 0.617053 0.001149
vt 0.670628 0.001149
vt 0.722377 0.015015
vt 0.768774 0.041802
vt 0.806657 0.079685
vt 0.833444 0.126082
vt 0.847310 0.177831
vt 0.833444 0.283155
vt 0.806657 0.329552
vt 0.768774 0.367435
vt 0.722377 0.394222
vt 0.670628 0.408088
vt 0.617053 0.408088
vt 0.565304 0.394222
vt 0.454237 0.692392
vt 0.440371 0.640643
vt 0.440371 0.587068
vt 0.454237 0.535319
vt 0.481024 0.488922
vt 0.518907 0.451039
vt 0.565304 0.424252
vt 0.670628 0.410386
vt 0.722377 0.424252
vt 0.768774 0.451039
vt 0.806657 0.488922
vt 0.833444 0.535319
vt 0.847310 0.587068
vt 0.847310 0.640643
vt 0.806657 0.738789
vt 0.768774 0.776672
vt 0.722377 0.803459
vt 0.670628 0.817325
vt 0.617053 0.817325
vt 0.565304 0.803459
vt 0.518907 0.776672
vt 0.849608 0.922524
vt 0.938641 0.001149
vt 0.849608 0.350413
vt 0.849608 0.699299
vt 0.978607 0.001196
vt 0.958731 0.001294
vt 0.971931 0.547325
vt 0.969584 0.953218
vt 0.824323 0.847658
vt 0.825303 0.898329
vt 0.761023 0.967284
vt 0.789380 0.872953
vt 0.786354 0.824702
vt 0.761023 0.851191
vt 0.828581 0.847658
vt 0.802785 0.873426
vt 0.801824 0.824007
vt 0.715818 0.990317
vt 0.690135 0.990317
vt 0.665708 0.982380
vt 0.621897 0.922079
vt 0.621897 0.896395
vt 0.715818 0.828158
vt 0.740245 0.836094
vt 0.784056 0.922079
vt 0.776119 0.946505
vt 0.449143 0.950428
vt 0.440371 0.923431
vt 0.440371 0.895044
vt 0.449143 0.868046
vt 0.465828 0.845080
vt 0.488794 0.828395
vt 0.515792 0.819623
vt 0.571176 0.828395
vt 0.594142 0.845080
vt 0.610827 0.868046
vt 0.619599 0.895044
vt 0.619599 0.923431
vt 0.610827 0.950428
vt 0.594142 0.973394
vt 0.544179 0.998851
vt 0.515792 0.998851
vt 0.488794 0.990079
vt 0.150802 0.890626
vt 0.378054 0.879593
vt 0.153100 0.890626
vt 0.153100 0.883405
vt 0.900391 0.689277
vt 0.896649 0.682796
vt 0.904133 0.682796
vt 0.389172 0.893211
vt 0.077690 0.896875
vt 0.070206 0.883913
vt 0.085173 0.883913
vt 0.233816 0.890625
vt 0.384672 0.879593
vt 0.166935 0.890625
vt 0.166935 0.883405
vt 0.184513 0.904973
vt 0.180771 0.898492
vt 0.188254 0.898492
vt 0.428529 0.893211
vt 0.233816 0.883405
vt 0.016116 0.892555
vt 0.001149 0.892555
vt 0.008632 0.879593
vt 0.261487 0.890625
vt 0.399931 0.879593
vt 0.263785 0.883405
vt 0.147060 0.904973
vt 0.143319 0.898492
vt 0.150802 0.898492
vt 0.411019 0.893211
vt 0.104735 0.892555
vt 0.112219 0.879593
vt 0.119702 0.892555
vt 0.316830 0.890625
vt 0.406549 0.879593
vt 0.319402 0.886452
vt 0.202090 0.898492
vt 0.198348 0.904973
vt 0.194607 0.898492
vt 0.898772 0.315085
vt 0.018413 0.892555
vt 0.025897 0.879593
vt 0.033380 0.892555
vt 0.192309 0.890625
vt 0.367115 0.879593
vt 0.194607 0.883405
vt 0.156841 0.904973
vt 0.153100 0.898492
vt 0.160583 0.898492
vt 0.378264 0.893211
vt 0.192309 0.883405
vt 0.094954 0.896875
vt 0.087471 0.883913
vt 0.102438 0.883913
vt 0.344501 0.890626
vt 0.417488 0.879593
vt 0.346799 0.890625
vt 0.346799 0.883405
vt 0.212184 0.904972
vt 0.208442 0.898492
vt 0.215926 0.898492
vt 0.898772 0.328558
vt 0.344501 0.883405
vt 0.050644 0.892555
vt 0.035678 0.892555
vt 0.043161 0.879593
vt 0.289158 0.890626
vt 0.432747 0.879593
vt 0.291456 0.883405
vt 0.166622 0.904972
vt 0.162881 0.898492
vt 0.170364 0.898492
vt 0.421927 0.893211
vt 0.122000 0.892555
vt 0.129483 0.879593
vt 0.136966 0.892555
vt 0.219705 0.886452
vt 0.362794 0.893211
vt 0.236114 0.883405
vt 0.229761 0.898492
vt 0.226020 0.904972
vt 0.222278 0.898492
vt 0.395806 0.893211
vt 0.052942 0.892555
vt 0.060425 0.879593
vt 0.067909 0.892555
s 0
f 2/1/1 3/2/1 1/3/1
f 4/4/2 5/5/2 3/2/2
f 6/6/3 7/7/3 5/5/3
f 8/8/4 9/9/4 7/7/4
f 10/10/5 11/11/5 9/12/5
f 12/13/6 13/14/6 11/11/6
f 14/15/7 15/16/7 13/14/7
f 16/17/8 17/18/8 15/16/8
f 18/19/9 19/20/9 17/21/9
f 20/22/10 21/23/10 19/20/10
f 22/24/11 23/25/11 21/23/11
f 24/26/12 25/27/12 23/25/12
f 26/28/13 27/29/13 25/27/13
f 28/30/14 29/31/14 27/29/14
f 30/32/15 31/33/15 29/31/15
f 32/34/16 33/35/16 31/36/16
f 34/37/17 35/38/17 33/35/17
f 36/39/18 37/40/18 35/38/18
f 38/41/19 39/42/19 37/40/19
f 40/43/20 41/44/20 39/42/20
f 42/45/21 43/46/21 41/44/21
f 44/47/22 45/48/22 43/46/22
f 38/49/23 22/50/23 6/51/23
f 46/52/24 47/53/24 45/54/24
f 48/55/25 1/3/25 47/53/25
f 15/56/26 31/57/26 47/58/26
f 50/59/26 73/60/26 49/61/26
f 51/62/26 74/63/26 50/59/26
f 51/62/26 76/64/26 75/65/26
f 53/66/26 76/64/26 52/67/26
f 54/68/26 77/69/26 53/66/26
f 55/70/26 78/71/26 54/68/26
f 56/72/26 79/73/26 55/70/26
f 57/74/26 80/75/26 56/72/26
f 57/74/26 82/76/26 81/77/26
f 59/78/26 82/76/26 58/79/26
f 60/80/26 83/81/26 59/78/26
f 61/82/26 84/83/26 60/80/26
f 62/84/26 85/85/26 61/82/26
f 63/86/26 86/87/26 62/84/26
f 63/86/26 88/88/26 87/89/26
f 65/90/26 88/88/26 64/91/26
f 66/92/26 89/93/26 65/90/26
f 67/94/26 90/95/26 66/92/26
f 68/96/26 91/97/26 67/94/26
f 69/98/26 92/99/26 68/96/26
f 69/98/26 94/100/26 93/101/26
f 71/102/26 94/100/26 70/103/26
f 72/104/26 95/105/26 71/102/26
f 49/61/26 96/106/26 72/104/26
f 74/107/6 97/108/6 73/109/6
f 75/110/5 98/111/5 74/107/5
f 76/112/4 99/113/4 75/114/4
f 77/115/3 100/116/3 76/112/3
f 78/117/2 101/118/2 77/115/2
f 79/119/1 102/120/1 78/117/1
f 80/121/25 103/122/25 79/119/25
f 81/123/24 104/124/24 80/121/24
f 82/125/22 105/126/22 81/127/22
f 83/128/21 106/129/21 82/125/21
f 84/130/20 107/131/20 83/128/20
f 85/132/19 108/133/19 84/130/19
f 86/134/18 109/135/18 85/132/18
f 87/136/17 110/137/17 86/134/17
f 88/138/16 111/139/16 87/136/16
f 89/140/15 112/141/15 88/142/15
f 90/143/14 113/144/14 89/140/14
f 91/145/13 114/146/13 90/143/13
f 92/147/12 115/148/12 91/145/12
f 93/149/11 116/150/11 92/147/11
f 94/151/10 117/152/10 93/149/10
f 95/153/9 118/154/9 94/151/9
f 96/155/8 119/156/8 95/157/8
f 73/109/7 120/158/7 96/155/7
f 98/159/23 121/160/23 97/161/23
f 99/162/23 122/163/23 98/159/23
f 100/164/23 123/165/23 99/162/23
f 101/166/23 124/167/23 100/164/23
f 102/168/23 125/169/23 101/166/23
f 103/170/23 126/171/23 102/168/23
f 104/172/23 127/173/23 103/170/23
f 105/174/23 128/175/23 104/172/23
f 106/176/23 129/177/23 105/174/23
f 107/178/23 130/179/23 106/176/23
f 108/180/23 131/181/23 107/178/23
f 109/182/23 132/183/23 108/180/23
f 110/184/23 133/185/23 109/182/23
f 111/186/23 134/187/23 110/184/23
f 112/188/23 135/189/23 111/186/23
f 113/190/23 136/191/23 112/188/23
f 114/192/23 137/193/23 113/190/23
f 115/194/23 138/195/23 114/192/23
f 116/196/23 139/197/23 115/194/23
f 117/198/23 140/199/23 116/196/23
f 118/200/23 141/201/23 117/198/23
f 119/202/23 142/203/23 118/200/23
f 120/204/23 143/205/23 119/202/23
f 97/161/23 144/206/23 120/204/23
f 122/207/18 145/208/18 121/209/18
f 123/210/17 146/211/17 122/207/17
f 124/212/16 147/213/16 123/210/16
f 125/214/15 148/215/15 124/216/15
f 126/217/14 149/218/14 125/214/14
f 127/219/13 150/220/13 126/217/13
f 128/221/12 151/222/12 127/219/12
f 129/223/11 152/224/11 128/221/11
f 130/225/10 153/226/10 129/223/10
f 131/227/9 154/228/9 130/225/9
f 132/229/8 155/230/8 131/231/8
f 133/232/7 156/233/7 132/229/7
f 134/234/6 157/235/6 133/232/6
f 135/236/5 158/237/5 134/234/5
f 136/238/4 159/239/4 135/240/4
f 137/241/3 160/242/3 136/238/3
f 138/243/2 161/244/2 137/241/2
f 139/245/1 162/246/1 138/243/1
f 140/247/25 163/248/25 139/245/25
f 141/249/24 164/250/24 140/247/24
f 142/251/22 165/252/22 141/253/22
f 143/254/21 166/255/21 142/251/21
f 144/256/20 167/257/20 143/254/20
f 121/209/19 168/258/19 144/256/19
f 169/259/27 172/260/27 171/261/27
f 172/260/28 173/262/28 171/261/28
f 174/263/29 175/264/29 173/265/29
f 176/266/30 177/267/30 175/268/30
f 178/269/31 179/270/31 177/267/31
f 179/270/32 182/271/32 181/272/32
f 182/271/33 183/273/33 181/272/33
f 184/274/34 185/275/34 183/276/34
f 186/277/35 187/278/35 185/279/35
f 188/280/36 189/281/36 187/278/36
f 189/281/37 192/282/37 191/283/37
f 192/284/38 193/285/38 191/286/38
f 194/287/39 195/288/39 193/285/39
f 196/289/40 197/290/40 195/288/40
f 198/291/41 199/292/41 197/293/41
f 199/292/42 202/294/42 201/295/42
f 202/294/43 203/296/43 201/295/43
f 204/297/44 205/298/44 203/299/44
f 198/300/23 182/301/23 174/263/23
f 206/302/45 207/303/45 205/298/45
f 208/304/46 169/259/46 207/305/46
f 183/306/26 199/307/26 207/308/26
f 210/309/47 211/310/47 209/311/47
f 212/312/48 213/313/48 211/314/48
f 213/315/49 216/316/49 215/317/49
f 216/316/50 217/318/50 215/317/50
f 210/319/23 218/320/23 214/321/23
f 218/322/51 219/323/51 217/324/51
f 220/325/52 209/311/52 219/326/52
f 211/327/26 215/328/26 219/329/26
f 222/330/47 223/331/47 221/332/47
f 223/333/48 226/334/48 225/335/48
f 225/336/49 228/337/49 227/338/49
f 228/337/50 229/339/50 227/338/50
f 222/340/23 230/341/23 226/342/23
f 229/343/51 232/344/51 231/345/51
f 231/346/52 222/330/52 221/332/52
f 223/347/26 227/348/26 231/349/26
f 234/350/47 235/351/47 233/352/47
f 236/353/48 237/354/48 235/355/48
f 238/356/49 239/357/49 237/358/49
f 240/359/50 241/360/50 239/357/50
f 234/361/23 242/362/23 238/363/23
f 242/364/51 243/365/51 241/366/51
f 244/367/52 233/352/52 243/368/52
f 235/369/26 239/370/26 243/371/26
f 246/372/47 247/373/47 245/374/47
f 247/375/48 250/376/48 249/377/48
f 250/378/49 251/379/49 249/380/49
f 251/379/50 254/381/50 253/382/50
f 246/383/23 254/384/23 250/385/23
f 253/386/51 256/387/51 255/388/51
f 256/389/52 245/374/52 255/390/52
f 247/391/26 251/392/26 255/393/26
f 258/394/47 259/395/47 257/396/47
f 260/397/48 261/398/48 259/399/48
f 262/400/49 263/401/49 261/402/49
f 264/403/50 265/404/50 263/401/50
f 258/405/23 266/406/23 262/407/23
f 266/408/51 267/409/51 265/410/51
f 267/411/52 258/394/52 257/396/52
f 259/412/26 263/413/26 267/414/26
f 270/415/47 271/416/47 269/417/47
f 271/418/48 274/419/48 273/420/48
f 273/421/49 276/422/49 275/423/49
f 276/422/50 277/424/50 275/423/50
f 270/425/23 278/426/23 274/427/23
f 277/428/51 280/429/51 279/430/51
f 279/431/52 270/415/52 269/417/52
f 271/432/26 275/433/26 279/434/26
f 282/435/47 283/436/47 281/437/47
f 284/438/48 285/439/48 283/440/48
f 286/441/49 287/442/49 285/443/49
f 288/444/50 289/445/50 287/442/50
f 282/446/23 290/447/23 286/448/23
f 290/449/51 291/450/51 289/451/51
f 292/452/52 281/437/52 291/453/52
f 283/454/26 287/455/26 291/456/26
f 293/457/47 296/458/47 295/459/47
f 295/460/48 298/461/48 297/462/48
f 298/463/49 299/464/49 297/465/49
f 300/466/50 301/467/50 299/464/50
f 294/468/23 302/469/23 298/470/23
f 301/471/51 304/472/51 303/473/51
f 304/474/52 293/457/52 303/475/52
f 295/476/26 299/477/26 303/478/26
f 2/1/1 4/4/1 3/2/1
f 4/4/2 6/6/2 5/5/2
f 6/6/3 8/8/3 7/7/3
f 8/8/4 10/479/4 9/9/4
f 10/10/5 12/13/5 11/11/5
f 12/13/6 14/15/6 13/14/6
f 14/15/7 16/17/7 15/16/7
f 16/17/8 18/480/8 17/18/8
f 18/19/9 20/22/9 19/20/9
f 20/22/10 22/24/10 21/23/10
f 22/24/11 24/26/11 23/25/11
f 24/26/12 26/28/12 25/27/12
f 26/28/13 28/30/13 27/29/13
f 28/30/14 30/32/14 29/31/14
f 30/32/15 32/481/15 31/33/15
f 32/34/16 34/37/16 33/35/16
f 34/37/17 36/39/17 35/38/17
f 36/39/18 38/41/18 37/40/18
f 38/41/19 40/43/19 39/42/19
f 40/43/20 42/45/20 41/44/20
f 42/45/21 44/47/21 43/46/21
f 44/47/22 46/482/22 45/48/22
f 6/51/23 4/483/23 2/484/23
f 2/484/23 48/485/23 46/486/23
f 46/486/23 44/487/23 42/488/23
f 42/488/23 40/489/23 38/49/23
f 38/49/23 36/490/23 34/491/23
f 34/491/23 32/492/23 30/493/23
f 30/493/23 28/494/23 26/495/23
f 26/495/23 24/496/23 22/50/23
f 22/50/23 20/497/23 18/498/23
f 18/498/23 16/499/23 14/500/23
f 14/500/23 12/501/23 10/502/23
f 10/502/23 8/503/23 6/51/23
f 6/51/23 2/484/23 46/486/23
f 46/486/23 42/488/23 38/49/23
f 38/49/23 34/491/23 30/493/23
f 30/493/23 26/495/23 22/50/23
f 22/50/23 18/498/23 14/500/23
f 14/500/23 10/502/23 6/51/23
f 6/51/23 46/486/23 38/49/23
f 38/49/23 30/493/23 22/50/23
f 22/50/23 14/500/23 6/51/23
f 46/52/24 48/55/24 47/53/24
f 48/55/25 2/1/25 1/3/25
f 47/58/26 1/504/26 3/505/26
f 3/505/26 5/506/26 7/507/26
f 7/507/26 9/508/26 11/509/26
f 11/509/26 13/510/26 15/56/26
f 15/56/26 17/511/26 19/512/26
f 19/512/26 21/513/26 23/514/26
f 23/514/26 25/515/26 27/516/26
f 27/516/26 29/517/26 31/57/26
f 31/57/26 33/518/26 35/519/26
f 35/519/26 37/520/26 39/521/26
f 39/521/26 41/522/26 43/523/26
f 43/523/26 45/524/26 47/58/26
f 47/58/26 3/505/26 7/507/26
f 7/507/26 11/509/26 15/56/26
f 15/56/26 19/512/26 23/514/26
f 23/514/26 27/516/26 31/57/26
f 31/57/26 35/519/26 39/521/26
f 39/521/26 43/523/26 47/58/26
f 47/58/26 7/507/26 15/56/26
f 15/56/26 23/514/26 31/57/26
f 31/57/26 39/521/26 47/58/26
f 50/59/26 74/63/26 73/60/26
f 51/62/26 75/65/26 74/63/26
f 51/62/26 52/67/26 76/64/26
f 53/66/26 77/69/26 76/64/26
f 54/68/26 78/71/26 77/69/26
f 55/70/26 79/73/26 78/71/26
f 56/72/26 80/75/26 79/73/26
f 57/74/26 81/77/26 80/75/26
f 57/74/26 58/79/26 82/76/26
f 59/78/26 83/81/26 82/76/26
f 60/80/26 84/83/26 83/81/26
f 61/82/26 85/85/26 84/83/26
f 62/84/26 86/87/26 85/85/26
f 63/86/26 87/89/26 86/87/26
f 63/86/26 64/91/26 88/88/26
f 65/90/26 89/93/26 88/88/26
f 66/92/26 90/95/26 89/93/26
f 67/94/26 91/97/26 90/95/26
f 68/96/26 92/99/26 91/97/26
f 69/98/26 93/101/26 92/99/26
f 69/98/26 70/103/26 94/100/26
f 71/102/26 95/105/26 94/100/26
f 72/104/26 96/106/26 95/105/26
f 49/61/26 73/60/26 96/106/26
f 74/107/6 98/111/6 97/108/6
f 75/110/5 99/525/5 98/111/5
f 76/112/4 100/116/4 99/113/4
f 77/115/3 101/118/3 100/116/3
f 78/117/2 102/120/2 101/118/2
f 79/119/1 103/122/1 102/120/1
f 80/121/25 104/124/25 103/122/25
f 81/123/24 105/526/24 104/124/24
f 82/125/22 106/129/22 105/126/22
f 83/128/21 107/131/21 106/129/21
f 84/130/20 108/133/20 107/131/20
f 85/132/19 109/135/19 108/133/19
f 86/134/18 110/137/18 109/135/18
f 87/136/17 111/139/17 110/137/17
f 88/138/16 112/527/16 111/139/16
f 89/140/15 113/144/15 112/141/15
f 90/143/14 114/146/14 113/144/14
f 91/145/13 115/148/13 114/146/13
f 92/147/12 116/150/12 115/148/12
f 93/149/11 117/152/11 116/150/11
f 94/151/10 118/154/10 117/152/10
f 95/153/9 119/528/9 118/154/9
f 96/155/8 120/158/8 119/156/8
f 73/109/7 97/108/7 120/158/7
f 98/159/23 122/163/23 121/160/23
f 99/162/23 123/165/23 122/163/23
f 100/164/23 124/167/23 123/165/23
f 101/166/23 125/169/23 124/167/23
f 102/168/23 126/171/23 125/169/23
f 103/170/23 127/173/23 126/171/23
f 104/172/23 128/175/23 127/173/23
f 105/174/23 129/177/23 128/175/23
f 106/176/23 130/179/23 129/177/23
f 107/178/23 131/181/23 130/179/23
f 108/180/23 132/183/23 131/181/23
f 109/182/23 133/185/23 132/183/23
f 110/184/23 134/187/23 133/185/23
f 111/186/23 135/189/23 134/187/23
f 112/188/23 136/191/23 135/189/23
f 113/190/23 137/193/23 136/191/23
f 114/192/23 138/195/23 137/193/23
f 115/194/23 139/197/23 138/195/23
f 116/196/23 140/199/23 139/197/23
f 117/198/23 141/201/23 140/199/23
f 118/200/23 142/203/23 141/201/23
f 119/202/23 143/205/23 142/203/23
f 120/204/23 144/206/23 143/205/23
f 97/161/23 121/160/23 144/206/23
f 122/207/18 146/211/18 145/208/18
f 123/210/17 147/213/17 146/211/17
f 124/212/16 148/529/16 147/213/16
f 125/214/15 149/218/15 148/215/15
f 126/217/14 150/220/14 149/218/14
f 127/219/13 151/222/13 150/220/13
f 128/221/12 152/224/12 151/222/12
f 129/223/11 153/226/11 152/224/11
f 130/225/10 154/228/10 153/226/10
f 131/227/9 155/530/9 154/228/9
f 132/229/8 156/233/8 155/230/8
f 133/232/7 157/235/7 156/233/7
f 134/234/6 158/237/6 157/235/6
f 135/236/5 159/531/5 158/237/5
f 136/238/4 160/242/4 159/239/4
f 137/241/3 161/244/3 160/242/3
f 138/243/2 162/246/2 161/244/2
f 139/245/1 163/248/1 162/246/1
f 140/247/25 164/250/25 163/248/25
f 141/249/24 165/532/24 164/250/24
f 142/251/22 166/255/22 165/252/22
f 143/254/21 167/257/21 166/255/21
f 144/256/20 168/258/20 167/257/20
f 121/209/19 145/208/19 168/258/19
f 169/259/27 170/533/27 172/260/27
f 172/260/28 174/534/28 173/262/28
f 174/263/29 176/535/29 175/264/29
f 176/266/30 178/269/30 177/267/30
f 178/269/31 180/536/31 179/270/31
f 179/270/32 180/536/32 182/271/32
f 182/271/33 184/537/33 183/273/33
f 184/274/34 186/538/34 185/275/34
f 186/277/35 188/280/35 187/278/35
f 188/280/36 190/539/36 189/281/36
f 189/281/37 190/539/37 192/282/37
f 192/284/38 194/287/38 193/285/38
f 194/287/39 196/289/39 195/288/39
f 196/289/40 198/300/40 197/290/40
f 198/291/41 200/540/41 199/292/41
f 199/292/42 200/540/42 202/294/42
f 202/294/43 204/541/43 203/296/43
f 204/297/44 206/302/44 205/298/44
f 174/263/23 172/542/23 170/543/23
f 170/543/23 208/544/23 206/302/23
f 206/302/23 204/297/23 202/545/23
f 202/545/23 200/546/23 198/300/23
f 198/300/23 196/289/23 194/287/23
f 194/287/23 192/284/23 190/547/23
f 190/547/23 188/548/23 186/538/23
f 186/538/23 184/274/23 182/301/23
f 182/301/23 180/549/23 178/550/23
f 178/550/23 176/535/23 174/263/23
f 174/263/23 170/543/23 206/302/23
f 206/302/23 202/545/23 198/300/23
f 198/300/23 194/287/23 190/547/23
f 190/547/23 186/538/23 182/301/23
f 182/301/23 178/550/23 174/263/23
f 174/263/23 206/302/23 198/300/23
f 198/300/23 190/547/23 182/301/23
f 206/302/45 208/544/45 207/303/45
f 208/304/46 170/533/46 169/259/46
f 207/308/26 169/551/26 171/552/26
f 171/552/26 173/553/26 175/554/26
f 175/554/26 177/555/26 179/556/26
f 179/556/26 181/557/26 183/306/26
f 183/306/26 185/558/26 187/559/26
f 187/559/26 189/560/26 191/561/26
f 191/561/26 193/562/26 195/563/26
f 195/563/26 197/564/26 199/307/26
f 199/307/26 201/565/26 203/566/26
f 203/566/26 205/567/26 207/308/26
f 207/308/26 171/552/26 175/554/26
f 175/554/26 179/556/26 183/306/26
f 183/306/26 187/559/26 191/561/26
f 191/561/26 195/563/26 199/307/26
f 199/307/26 203/566/26 207/308/26
f 207/308/26 175/554/26 183/306/26
f 183/306/26 191/561/26 199/307/26
f 210/309/47 212/568/47 211/310/47
f 212/312/48 214/569/48 213/313/48
f 213/315/49 214/570/49 216/316/49
f 216/316/50 218/571/50 217/318/50
f 214/321/23 212/572/23 210/319/23
f 210/319/23 220/573/23 218/320/23
f 218/320/23 216/574/23 214/321/23
f 218/322/51 220/575/51 219/323/51
f 220/325/52 210/309/52 209/311/52
f 219/329/26 209/576/26 211/327/26
f 211/327/26 213/577/26 215/328/26
f 215/328/26 217/578/26 219/329/26
f 222/330/47 224/579/47 223/331/47
f 223/333/48 224/580/48 226/334/48
f 225/336/49 226/581/49 228/337/49
f 228/337/50 230/582/50 229/339/50
f 226/342/23 224/583/23 222/340/23
f 222/340/23 232/584/23 230/341/23
f 230/341/23 228/585/23 226/342/23
f 229/343/51 230/586/51 232/344/51
f 231/346/52 232/587/52 222/330/52
f 231/349/26 221/588/26 223/347/26
f 223/347/26 225/589/26 227/348/26
f 227/348/26 229/590/26 231/349/26
f 234/350/47 236/591/47 235/351/47
f 236/353/48 238/592/48 237/354/48
f 238/356/49 240/359/49 239/357/49
f 240/359/50 242/593/50 241/360/50
f 238/363/23 236/594/23 234/361/23
f 234/361/23 244/595/23 242/362/23
f 242/362/23 240/596/23 238/363/23
f 242/364/51 244/597/51 243/365/51
f 244/367/52 234/350/52 233/352/52
f 243/371/26 233/598/26 235/369/26
f 235/369/26 237/599/26 239/370/26
f 239/370/26 241/600/26 243/371/26
f 246/372/47 248/601/47 247/373/47
f 247/375/48 248/602/48 250/376/48
f 250/378/49 252/603/49 251/379/49
f 251/379/50 252/603/50 254/381/50
f 250/385/23 248/604/23 246/383/23
f 246/383/23 256/605/23 254/384/23
f 254/384/23 252/606/23 250/385/23
f 253/386/51 254/607/51 256/387/51
f 256/389/52 246/372/52 245/374/52
f 255/393/26 245/608/26 247/391/26
f 247/391/26 249/609/26 251/392/26
f 251/392/26 253/610/26 255/393/26
f 258/394/47 260/611/47 259/395/47
f 260/397/48 262/612/48 261/398/48
f 262/400/49 264/403/49 263/401/49
f 264/403/50 266/613/50 265/404/50
f 262/407/23 260/614/23 258/405/23
f 258/405/23 268/615/23 266/406/23
f 266/406/23 264/616/23 262/407/23
f 266/408/51 268/617/51 267/409/51
f 267/411/52 268/618/52 258/394/52
f 267/414/26 257/619/26 259/412/26
f 259/412/26 261/620/26 263/413/26
f 263/413/26 265/621/26 267/414/26
f 270/415/47 272/622/47 271/416/47
f 271/418/48 272/623/48 274/419/48
f 273/421/49 274/624/49 276/422/49
f 276/422/50 278/625/50 277/424/50
f 274/427/23 272/626/23 270/425/23
f 270/425/23 280/627/23 278/426/23
f 278/426/23 276/628/23 274/427/23
f 277/428/51 278/629/51 280/429/51
f 279/431/52 280/630/52 270/415/52
f 279/434/26 269/631/26 271/432/26
f 271/432/26 273/632/26 275/433/26
f 275/433/26 277/633/26 279/434/26
f 282/435/47 284/634/47 283/436/47
f 284/438/48 286/635/48 285/439/48
f 286/441/49 288/444/49 287/442/49
f 288/444/50 290/636/50 289/445/50
f 286/448/23 284/637/23 282/446/23
f 282/446/23 292/638/23 290/447/23
f 290/447/23 288/639/23 286/448/23
f 290/449/51 292/640/51 291/450/51
f 292/452/52 282/435/52 281/437/52
f 291/456/26 281/641/26 283/454/26
f 283/454/26 285/642/26 287/455/26
f 287/455/26 289/643/26 291/456/26
f 293/457/47 294/644/47 296/458/47
f 295/460/48 296/645/48 298/461/48
f 298/463/49 300/466/49 299/464/49
f 300/466/50 302/646/50 301/467/50
f 298/470/23 296/647/23 294/468/23
f 294/468/23 304/648/23 302/469/23
f 302/469/23 300/649/23 298/470/23
f 301/471/51 302/650/51 304/472/51
f 304/474/52 294/644/52 293/457/52
f 303/478/26 293/651/26 295/476/26
f 295/476/26 297/652/26 299/477/26
f 299/477/26 301/653/26 303/478/26
