# Blender 4.5.13 LTS
# www.blender.org
o planks
v 0.170000 0.210000 -0.250000
v 0.153165 0.283760 -0.250000
v 0.105993 0.342911 -0.250000
v 0.037829 0.375738 -0.250000
v -0.037829 0.375738 -0.250000
v -0.105993 0.342911 -0.250000
v -0.153165 0.283760 -0.250000
v -0.170000 0.210000 -0.250000
v -0.153165 0.136240 -0.250000
v -0.105993 0.077089 -0.250000
v -0.037829 0.044262 -0.250000
v 0.037829 0.044262 -0.250000
v 0.105993 0.077089 -0.250000
v 0.153165 0.136240 -0.250000
v 0.205000 0.210000 -0.130000
v 0.184699 0.298946 -0.130000
v 0.127815 0.370275 -0.130000
v 0.045617 0.409860 -0.130000
v -0.045617 0.409860 -0.130000
v -0.127815 0.370275 -0.130000
v -0.184699 0.298946 -0.130000
v -0.205000 0.210000 -0.130000
v -0.184699 0.121054 -0.130000
v -0.127815 0.049725 -0.130000
v -0.045617 0.010140 -0.130000
v 0.045617 0.010140 -0.130000
v 0.127815 0.049725 -0.130000
v 0.184699 0.121054 -0.130000
v 0.215000 0.210000 0.000000
v 0.193708 0.303285 0.000000
v 0.134050 0.378094 -0.000000
v 0.047842 0.419610 -0.000000
v -0.047842 0.419610 -0.000000
v -0.134050 0.378094 -0.000000
v -0.193708 0.303285 0.000000
v -0.215000 0.210000 0.000000
v -0.193708 0.116715 0.000000
v -0.134050 0.041906 0.000000
v -0.047842 0.000390 0.000000
v 0.047842 0.000390 0.000000
v 0.134050 0.041906 0.000000
v 0.193708 0.116715 0.000000
v 0.205000 0.210000 0.130000
v 0.184699 0.298946 0.130000
v 0.127815 0.370275 0.130000
v 0.045617 0.409860 0.130000
v -0.045617 0.409860 0.130000
v -0.127815 0.370275 0.130000
v -0.184699 0.298946 0.130000
v -0.205000 0.210000 0.130000
v -0.184699 0.121054 0.130000
v -0.127815 0.049725 0.130000
v -0.045617 0.010140 0.130000
v 0.045617 0.010140 0.130000
v 0.127815 0.049725 0.130000
v 0.184699 0.121054 0.130000
v 0.170000 0.210000 0.250000
v 0.153165 0.283760 0.250000
v 0.105993 0.342911 0.250000
v 0.037829 0.375738 0.250000
v -0.037829 0.375738 0.250000
v -0.105993 0.342911 0.250000
v -0.153165 0.283760 0.250000
v -0.170000 0.210000 0.250000
v -0.153165 0.136240 0.250000
v -0.105993 0.077089 0.250000
v -0.037829 0.044262 0.250000
v 0.037829 0.044262 0.250000
v 0.105993 0.077089 0.250000
v 0.153165 0.136240 0.250000
v 0.194800 0.210000 -0.210000
v 0.175509 0.294521 -0.210000
v 0.121456 0.362301 -0.210000
v 0.043347 0.399916 -0.210000
v -0.043347 0.399916 -0.210000
v -0.121456 0.362301 -0.210000
v -0.175509 0.294521 -0.210000
v -0.194800 0.210000 -0.210000
v -0.175509 0.125479 -0.210000
v -0.121456 0.057699 -0.210000
v -0.043347 0.020084 -0.210000
v 0.043347 0.020084 -0.210000
v 0.121456 0.057699 -0.210000
v 0.175509 0.125479 -0.210000
v 0.206800 0.210000 -0.210000
v 0.186320 0.299727 -0.210000
v 0.128938 0.371683 -0.210000
v 0.046017 0.411615 -0.210000
v -0.046017 0.411615 -0.210000
v -0.128938 0.371683 -0.210000
v -0.186320 0.299727 -0.210000
v -0.206800 0.210000 -0.210000
v -0.186320 0.120273 -0.210000
v -0.128938 0.048317 -0.210000
v -0.046017 0.008385 -0.210000
v 0.046017 0.008385 -0.210000
v 0.128938 0.048317 -0.210000
v 0.186320 0.120273 -0.210000
v 0.206800 0.210000 -0.170000
v 0.186320 0.299727 -0.170000
v 0.128938 0.371683 -0.170000
v 0.046017 0.411615 -0.170000
v -0.046017 0.411615 -0.170000
v -0.128938 0.371683 -0.170000
v -0.186320 0.299727 -0.170000
v -0.206800 0.210000 -0.170000
v -0.186320 0.120273 -0.170000
v -0.128938 0.048317 -0.170000
v -0.046017 0.008385 -0.170000
v 0.046017 0.008385 -0.170000
v 0.128938 0.048317 -0.170000
v 0.186320 0.120273 -0.170000
v 0.194800 0.210000 -0.170000
v 0.175509 0.294521 -0.170000
v 0.121456 0.362301 -0.170000
v 0.043347 0.399916 -0.170000
v -0.043347 0.399916 -0.170000
v -0.121456 0.362301 -0.170000
v -0.175509 0.294521 -0.170000
v -0.194800 0.210000 -0.170000
v -0.175509 0.125479 -0.170000
v -0.121456 0.057699 -0.170000
v -0.043347 0.020084 -0.170000
v 0.043347 0.020084 -0.170000
v 0.121456 0.057699 -0.170000
v 0.175509 0.125479 -0.170000
v 0.194800 0.210000 0.170000
v 0.175509 0.294521 0.170000
v 0.121456 0.362301 0.170000
v 0.043347 0.399916 0.170000
v -0.043347 0.399916 0.170000
v -0.121456 0.362301 0.170000
v -0.175509 0.294521 0.170000
v -0.194800 0.210000 0.170000
v -0.175509 0.125479 0.170000
v -0.121456 0.057699 0.170000
v -0.043347 0.020084 0.170000
v 0.043347 0.020084 0.170000
v 0.121456 0.057699 0.170000
v 0.175509 0.125479 0.170000
v 0.206800 0.210000 0.170000
v 0.186320 0.299727 0.170000
v 0.128938 0.371683 0.170000
v 0.046017 0.411615 0.170000
v -0.046017 0.411615 0.170000
v -0.128938 0.371683 0.170000
v -0.186320 0.299727 0.170000
v -0.206800 0.210000 0.170000
v -0.186320 0.120273 0.170000
v -0.128938 0.048317 0.170000
v -0.046017 0.008385 0.170000
v 0.046017 0.008385 0.170000
v 0.128938 0.048317 0.170000
v 0.186320 0.120273 0.170000
v 0.206800 0.210000 0.210000
v 0.186320 0.299727 0.210000
v 0.128938 0.371683 0.210000
v 0.046017 0.411615 0.210000
v -0.046017 0.411615 0.210000
v -0.128938 0.371683 0.210000
v -0.186320 0.299727 0.210000
v -0.206800 0.210000 0.210000
v -0.186320 0.120273 0.210000
v -0.128938 0.048317 0.210000
v -0.046017 0.008385 0.210000
v 0.046017 0.008385 0.210000
v 0.128938 0.048317 0.210000
v 0.186320 0.120273 0.210000
v 0.194800 0.210000 0.210000
v 0.175509 0.294521 0.210000
v 0.121456 0.362301 0.210000
v 0.043347 0.399916 0.210000
v -0.043347 0.399916 0.210000
v -0.121456 0.362301 0.210000
v -0.175509 0.294521 0.210000
v -0.194800 0.210000 0.210000
v -0.175509 0.125479 0.210000
v -0.121456 0.057699 0.210000
v -0.043347 0.020084 0.210000
v 0.043347 0.020084 0.210000
v 0.121456 0.057699 0.210000
v 0.175509 0.125479 0.210000
v -0.190000 0.000000 0.000000
v -0.190000 0.120000 0.000000
v -0.190000 0.000000 -0.500000
v -0.190000 0.120000 -0.500000
v -0.110000 0.000000 0.000000
v -0.110000 0.120000 0.000000
v -0.110000 0.000000 -0.500000
v -0.110000 0.120000 -0.500000
v 0.110000 0.000000 0.000000
v 0.110000 0.120000 0.000000
v 0.110000 0.000000 -0.500000
v 0.110000 0.120000 -0.500000
v 0.190000 0.000000 0.000000
v 0.190000 0.120000 0.000000
v 0.190000 0.000000 -0.500000
v 0.190000 0.120000 -0.500000
vn 0.9378 0.2140 -0.2735
vn 0.7520 0.5997 -0.2735
vn 0.4173 0.8666 -0.2735
vn -0.0000 0.9619 -0.2735
vn -0.4173 0.8666 -0.2735
vn -0.7520 0.5997 -0.2735
vn -0.9378 0.2140 -0.2735
vn -0.9378 -0.2140 -0.2735
vn -0.7520 -0.5997 -0.2735
vn -0.4173 -0.8666 -0.2735
vn -0.0000 -0.9619 -0.2735
vn 0.4173 -0.8666 -0.2735
vn 0.7520 -0.5997 -0.2735
vn 0.9378 -0.2140 -0.2735
vn 0.9722 0.2219 -0.0748
vn 0.7796 0.6217 -0.0748
vn 0.4327 0.8984 -0.0748
vn -0.0000 0.9972 -0.0748
vn -0.4327 0.8984 -0.0748
vn -0.7796 0.6217 -0.0748
vn -0.9722 0.2219 -0.0748
vn -0.9722 -0.2219 -0.0748
vn -0.7796 -0.6217 -0.0748
vn -0.4327 -0.8984 -0.0748
vn -0.0000 -0.9972 -0.0748
vn 0.4327 -0.8984 -0.0748
vn 0.7796 -0.6217 -0.0748
vn 0.9722 -0.2219 -0.0748
vn 0.9722 0.2219 0.0748
vn 0.7796 0.6217 0.0748
vn 0.4327 0.8984 0.0748
vn -0.0000 0.9972 0.0748
vn -0.4327 0.8984 0.0748
vn -0.7796 0.6217 0.0748
vn -0.9722 0.2219 0.0748
vn -0.9722 -0.2219 0.0748
vn -0.7796 -0.6217 0.0748
vn -0.4327 -0.8984 0.0748
vn -0.0000 -0.9972 0.0748
vn 0.4327 -0.8984 0.0748
vn 0.7796 -0.6217 0.0748
vn 0.9722 -0.2219 0.0748
vn 0.9378 0.2140 0.2735
vn 0.7520 0.5997 0.2735
vn 0.4173 0.8666 0.2735
vn -0.0000 0.9619 0.2735
vn -0.4173 0.8666 0.2735
vn -0.7520 0.5997 0.2735
vn -0.9378 0.2140 0.2735
vn -0.9378 -0.2140 0.2735
vn -0.7520 -0.5997 0.2735
vn -0.4173 -0.8666 0.2735
vn -0.0000 -0.9619 0.2735
vn 0.4173 -0.8666 0.2735
vn 0.7520 -0.5997 0.2735
vn 0.9378 -0.2140 0.2735
vn -0.0000 -0.0000 -1.0000
vn -0.0000 -0.0000 1.0000
vn 0.9749 0.2225 -0.0000
vn 0.7818 0.6235 -0.0000
vn 0.4339 0.9010 -0.0000
vn -0.0000 1.0000 -0.0000
vn -0.4339 0.9010 -0.0000
vn -0.7818 0.6235 -0.0000
vn -0.9749 0.2225 -0.0000
vn -0.9749 -0.2225 -0.0000
vn -0.7818 -0.6235 -0.0000
vn -0.4339 -0.9010 -0.0000
vn -0.0000 -1.0000 -0.0000
vn 0.4339 -0.9010 -0.0000
vn 0.7818 -0.6235 -0.0000
vn 0.9749 -0.2225 -0.0000
vn -1.0000 -0.0000 -0.0000
vn 1.0000 -0.0000 -0.0000
vt 0.149422 0.001239
vt 0.104229 0.074762
vt 0.104229 0.001239
vt 0.185663 0.001239
vt 0.158726 0.074762
vt 0.814764 0.307587
vt 0.777772 0.234063
vt 0.828134 0.234063
vt 0.726645 0.307587
vt 0.773000 0.307587
vt 0.684881 0.307587
vt 0.721873 0.234063
vt 0.357880 0.307587
vt 0.410888 0.234063
vt 0.394122 0.307587
vt 0.312687 0.307587
vt 0.367184 0.234063
vt 0.267495 0.307587
vt 0.312687 0.234063
vt 0.231253 0.307587
vt 0.258190 0.234063
vt 0.106548 0.872301
vt 0.161683 0.798777
vt 0.148312 0.872301
vt 0.055422 0.798777
vt 0.111320 0.798777
vt 0.060193 0.872301
vt 0.005059 0.798777
vt 0.022795 0.001239
vt 0.049732 0.074762
vt 0.006029 0.074762
vt 0.059037 0.001239
vt 0.161384 0.154413
vt 0.104229 0.154413
vt 0.202429 0.074762
vt 0.831955 0.154413
vt 0.720510 0.154413
vt 0.779135 0.154413
vt 0.671511 0.234063
vt 0.415678 0.154413
vt 0.369843 0.154413
vt 0.312687 0.154413
vt 0.214487 0.234063
vt 0.255532 0.154413
vt 0.165503 0.719127
vt 0.112683 0.719127
vt 0.054058 0.719127
vt 0.001239 0.154413
vt 0.047074 0.154413
vt 0.104229 0.234063
vt 0.207220 0.154413
vt 0.158726 0.234063
vt 0.828134 0.074762
vt 0.777772 0.074762
vt 0.667690 0.154413
vt 0.721873 0.074762
vt 0.410888 0.074762
vt 0.312687 0.074762
vt 0.367184 0.074762
vt 0.209697 0.154413
vt 0.258190 0.074762
vt 0.161683 0.639476
vt 0.111320 0.639476
vt 0.001239 0.719127
vt 0.055422 0.639476
vt 0.006029 0.234063
vt 0.049732 0.234063
vt 0.104229 0.307587
vt 0.185663 0.307587
vt 0.149422 0.307587
vt 0.814764 0.001239
vt 0.773000 0.001239
vt 0.671511 0.074762
vt 0.726645 0.001239
vt 0.394122 0.001239
vt 0.312687 0.001239
vt 0.357880 0.001239
vt 0.231253 0.001239
vt 0.267495 0.001239
vt 0.148312 0.565953
vt 0.106548 0.565953
vt 0.018429 0.565953
vt 0.060193 0.565953
vt 0.022795 0.307587
vt 0.059037 0.307587
vt 0.224335 0.763954
vt 0.188093 0.605169
vt 0.350962 0.605169
vt 0.475099 0.565953
vt 0.576645 0.693289
vt 0.429906 0.763954
vt 0.634998 0.053529
vt 0.665213 0.099750
vt 0.658045 0.101386
vt 0.593470 0.020411
vt 0.640746 0.048945
vt 0.541684 0.008591
vt 0.596660 0.013787
vt 0.489899 0.020411
vt 0.541684 0.001239
vt 0.442622 0.048945
vt 0.486709 0.013787
vt 0.425323 0.101386
vt 0.448370 0.053529
vt 0.425323 0.154503
vt 0.418155 0.099750
vt 0.448370 0.202360
vt 0.418155 0.156139
vt 0.486709 0.242102
vt 0.442622 0.206944
vt 0.541684 0.247297
vt 0.489899 0.235478
vt 0.593470 0.235478
vt 0.541684 0.254650
vt 0.640746 0.206944
vt 0.596660 0.242102
vt 0.658045 0.154503
vt 0.634998 0.202360
vt 0.665213 0.156139
vt 0.852830 0.662977
vt 0.877338 0.717952
vt 0.852830 0.717952
vt 0.852830 0.618890
vt 0.877338 0.662977
vt 0.273445 0.827552
vt 0.248937 0.776747
vt 0.273445 0.776747
vt 0.273445 0.883941
vt 0.248937 0.827552
vt 0.273445 0.934746
vt 0.248937 0.883941
vt 0.910433 0.045326
vt 0.885925 0.001239
vt 0.910433 0.001239
vt 0.910433 0.100301
vt 0.885925 0.045326
vt 0.910433 0.155277
vt 0.885925 0.100301
vt 0.910433 0.199363
vt 0.885925 0.155277
vt 0.246459 0.827552
vt 0.221951 0.776747
vt 0.246459 0.776747
vt 0.246459 0.883941
vt 0.221951 0.827552
vt 0.246459 0.934746
vt 0.221951 0.883941
vt 0.852830 0.772928
vt 0.877338 0.817015
vt 0.852830 0.817015
vt 0.877338 0.772928
vt 0.524775 0.357770
vt 0.507477 0.410211
vt 0.500309 0.408575
vt 0.572052 0.329236
vt 0.530524 0.362354
vt 0.568862 0.322612
vt 0.623838 0.317417
vt 0.678813 0.322612
vt 0.623838 0.310064
vt 0.722900 0.357770
vt 0.675623 0.329236
vt 0.740198 0.410211
vt 0.717152 0.362354
vt 0.747366 0.464964
vt 0.747366 0.408575
vt 0.722900 0.515769
vt 0.740198 0.463328
vt 0.678813 0.550927
vt 0.717152 0.511185
vt 0.623838 0.556123
vt 0.675623 0.544303
vt 0.568862 0.550927
vt 0.623838 0.563475
vt 0.524775 0.515769
vt 0.572052 0.544303
vt 0.500309 0.464964
vt 0.530524 0.511185
vt 0.507477 0.463328
vt 0.241128 0.463328
vt 0.223830 0.515769
vt 0.218082 0.511185
vt 0.248296 0.408575
vt 0.248296 0.464964
vt 0.241128 0.410211
vt 0.223830 0.357770
vt 0.176553 0.329236
vt 0.218082 0.362354
vt 0.124768 0.317417
vt 0.179743 0.322612
vt 0.072982 0.329236
vt 0.124768 0.310064
vt 0.031454 0.362354
vt 0.069792 0.322612
vt 0.001239 0.408575
vt 0.025705 0.357770
vt 0.008407 0.410211
vt 0.001239 0.464964
vt 0.031454 0.511185
vt 0.008407 0.463328
vt 0.072982 0.544303
vt 0.025705 0.515769
vt 0.124768 0.563475
vt 0.069792 0.550928
vt 0.176553 0.544303
vt 0.124768 0.556123
vt 0.179743 0.550928
vt 0.901846 0.736500
vt 0.926354 0.791476
vt 0.901846 0.791476
vt 0.901846 0.692413
vt 0.926354 0.736500
vt 0.192488 0.776747
vt 0.167981 0.827552
vt 0.167981 0.776747
vt 0.192488 0.883941
vt 0.192488 0.827552
vt 0.192488 0.934746
vt 0.167981 0.883941
vt 0.937419 0.001239
vt 0.912911 0.045326
vt 0.912911 0.001239
vt 0.937419 0.100301
vt 0.937419 0.045326
vt 0.937419 0.155277
vt 0.912911 0.100301
vt 0.937419 0.199363
vt 0.912911 0.155277
vt 0.219474 0.827552
vt 0.194966 0.776747
vt 0.219474 0.776747
vt 0.219474 0.883941
vt 0.194966 0.827552
vt 0.219474 0.934746
vt 0.194966 0.883941
vt 0.901846 0.846451
vt 0.926354 0.890538
vt 0.901846 0.890538
vt 0.926354 0.846451
vt 0.250774 0.408575
vt 0.257942 0.463328
vt 0.250774 0.464964
vt 0.275240 0.357770
vt 0.257942 0.410211
vt 0.319327 0.322612
vt 0.280989 0.362354
vt 0.374303 0.310064
vt 0.322517 0.329236
vt 0.429278 0.322612
vt 0.374303 0.317417
vt 0.467617 0.362354
vt 0.426088 0.329236
vt 0.497831 0.408575
vt 0.473365 0.357770
vt 0.497831 0.464964
vt 0.490663 0.410211
vt 0.473365 0.515769
vt 0.490663 0.463328
vt 0.426088 0.544303
vt 0.467617 0.511185
vt 0.374303 0.563475
vt 0.429278 0.550928
vt 0.319327 0.550928
vt 0.374303 0.556123
vt 0.275240 0.515769
vt 0.322517 0.544303
vt 0.280989 0.511185
vt 0.749844 0.616412
vt 0.823367 0.310064
vt 0.823367 0.616412
vt 0.275922 0.776747
vt 0.324938 0.850271
vt 0.275922 0.850271
vt 0.579123 0.872301
vt 0.652647 0.565953
vt 0.652647 0.872301
vt 0.901846 0.310064
vt 0.950862 0.383588
vt 0.901846 0.383588
vt 0.901846 0.689936
vt 0.950862 0.689936
vt 0.834432 0.307587
vt 0.883448 0.001239
vt 0.883448 0.307587
vt 0.655124 0.872301
vt 0.728648 0.565953
vt 0.728648 0.872301
vt 0.373552 0.776747
vt 0.422567 0.850271
vt 0.373552 0.850271
vt 0.825845 0.616412
vt 0.899369 0.310064
vt 0.899369 0.616412
vt 0.749844 0.618890
vt 0.798860 0.692413
vt 0.749844 0.692413
vt 0.749844 0.998761
vt 0.798860 0.998761
vt 0.801337 0.925238
vt 0.850353 0.618890
vt 0.850353 0.925238
vt 0.018429 0.872301
vt 0.202429 0.234063
vt 0.214487 0.074762
vt 0.005059 0.639476
vt 0.684881 0.001239
vt 0.371074 0.693288
vt 0.350962 0.735053
vt 0.314720 0.763954
vt 0.269527 0.774269
vt 0.188093 0.735053
vt 0.167981 0.693288
vt 0.167981 0.646934
vt 0.224335 0.576268
vt 0.269527 0.565953
vt 0.314720 0.576268
vt 0.371074 0.646934
vt 0.373552 0.693289
vt 0.373552 0.646934
vt 0.393664 0.605169
vt 0.429906 0.576268
vt 0.520291 0.576268
vt 0.556533 0.605169
vt 0.576645 0.646934
vt 0.556533 0.735053
vt 0.520291 0.763954
vt 0.475099 0.774269
vt 0.393664 0.735053
vt 0.877338 0.618890
vt 0.248937 0.934746
vt 0.885925 0.199363
vt 0.221951 0.934746
vt 0.926354 0.692413
vt 0.167981 0.934746
vt 0.912911 0.199363
vt 0.194966 0.934746
vt 0.749844 0.310064
vt 0.324938 0.776747
vt 0.579123 0.565953
vt 0.950862 0.310064
vt 0.834432 0.001239
vt 0.655124 0.565953
vt 0.422567 0.776747
vt 0.825845 0.310064
vt 0.798860 0.618890
vt 0.801337 0.618890
s 0
f 2/1/1 15/2/1 1/3/1
f 3/4/2 16/5/2 2/1/2
f 3/6/3 18/7/3 17/8/3
f 5/9/4 18/7/4 4/10/4
f 6/11/5 19/12/5 5/9/5
f 7/13/6 20/14/6 6/15/6
f 8/16/7 21/17/7 7/13/7
f 9/18/8 22/19/8 8/16/8
f 10/20/9 23/21/9 9/18/9
f 11/22/10 24/23/10 10/24/10
f 11/22/11 26/25/11 25/26/11
f 12/27/12 27/28/12 26/25/12
f 13/29/13 28/30/13 27/31/13
f 14/32/14 15/2/14 28/30/14
f 15/2/15 30/33/15 29/34/15
f 17/35/16 30/33/16 16/5/16
f 18/7/17 31/36/17 17/8/17
f 18/7/18 33/37/18 32/38/18
f 20/39/19 33/37/19 19/12/19
f 21/17/20 34/40/20 20/14/20
f 22/19/21 35/41/21 21/17/21
f 23/21/22 36/42/22 22/19/22
f 24/43/23 37/44/23 23/21/23
f 25/26/24 38/45/24 24/23/24
f 26/25/25 39/46/25 25/26/25
f 27/28/26 40/47/26 26/25/26
f 28/30/27 41/48/27 27/31/27
f 15/2/28 42/49/28 28/30/28
f 30/33/29 43/50/29 29/34/29
f 31/51/30 44/52/30 30/33/30
f 32/38/31 45/53/31 31/36/31
f 33/37/32 46/54/32 32/38/32
f 34/55/33 47/56/33 33/37/33
f 35/41/34 48/57/34 34/40/34
f 35/41/35 50/58/35 49/59/35
f 37/44/36 50/58/36 36/42/36
f 38/60/37 51/61/37 37/44/37
f 39/46/38 52/62/38 38/45/38
f 40/47/39 53/63/39 39/46/39
f 41/64/40 54/65/40 40/47/40
f 42/49/41 55/66/41 41/48/41
f 42/49/42 43/50/42 56/67/42
f 44/52/43 57/68/43 43/50/43
f 44/52/44 59/69/44 58/70/44
f 46/54/45 59/71/45 45/53/45
f 47/56/46 60/72/46 46/54/46
f 48/73/47 61/74/47 47/56/47
f 49/59/48 62/75/48 48/57/48
f 49/59/49 64/76/49 63/77/49
f 51/61/50 64/76/50 50/58/50
f 51/61/51 66/78/51 65/79/51
f 53/63/52 66/80/52 52/62/52
f 54/65/53 67/81/53 53/63/53
f 54/65/54 69/82/54 68/83/54
f 56/67/55 69/84/55 55/66/55
f 43/50/56 70/85/56 56/67/56
f 11/86/57 7/87/57 3/88/57
f 60/89/58 64/90/58 68/91/58
f 72/92/57 85/93/57 71/94/57
f 73/95/57 86/96/57 72/92/57
f 74/97/57 87/98/57 73/95/57
f 75/99/57 88/100/57 74/97/57
f 75/99/57 90/101/57 89/102/57
f 77/103/57 90/101/57 76/104/57
f 78/105/57 91/106/57 77/103/57
f 79/107/57 92/108/57 78/105/57
f 79/107/57 94/109/57 93/110/57
f 81/111/57 94/109/57 80/112/57
f 82/113/57 95/114/57 81/111/57
f 82/113/57 97/115/57 96/116/57
f 84/117/57 97/115/57 83/118/57
f 71/94/57 98/119/57 84/117/57
f 86/120/59 99/121/59 85/122/59
f 87/123/60 100/124/60 86/120/60
f 88/125/61 101/126/61 87/127/61
f 89/128/62 102/129/62 88/125/62
f 90/130/63 103/131/63 89/128/63
f 91/132/64 104/133/64 90/134/64
f 92/135/65 105/136/65 91/132/65
f 93/137/66 106/138/66 92/135/66
f 94/139/67 107/140/67 93/137/67
f 95/141/68 108/142/68 94/143/68
f 96/144/69 109/145/69 95/141/69
f 97/146/70 110/147/70 96/144/70
f 98/148/71 111/149/71 97/150/71
f 85/122/72 112/151/72 98/148/72
f 100/152/58 113/153/58 99/154/58
f 100/152/58 115/155/58 114/156/58
f 101/157/58 116/158/58 115/155/58
f 103/159/58 116/158/58 102/160/58
f 104/161/58 117/162/58 103/159/58
f 104/161/58 119/163/58 118/164/58
f 106/165/58 119/163/58 105/166/58
f 107/167/58 120/168/58 106/165/58
f 108/169/58 121/170/58 107/167/58
f 108/169/58 123/171/58 122/172/58
f 110/173/58 123/171/58 109/174/58
f 111/175/58 124/176/58 110/173/58
f 112/177/58 125/178/58 111/175/58
f 99/154/58 126/179/58 112/177/58
f 128/180/57 141/181/57 127/182/57
f 128/180/57 143/183/57 142/184/57
f 129/185/57 144/186/57 143/183/57
f 131/187/57 144/186/57 130/188/57
f 132/189/57 145/190/57 131/187/57
f 133/191/57 146/192/57 132/189/57
f 134/193/57 147/194/57 133/191/57
f 134/193/57 149/195/57 148/196/57
f 135/197/57 150/198/57 149/195/57
f 137/199/57 150/198/57 136/200/57
f 138/201/57 151/202/57 137/199/57
f 138/201/57 153/203/57 152/204/57
f 140/205/57 153/203/57 139/206/57
f 127/182/57 154/207/57 140/205/57
f 142/208/59 155/209/59 141/210/59
f 143/211/60 156/212/60 142/208/60
f 143/213/61 158/214/61 157/215/61
f 145/216/62 158/214/62 144/217/62
f 146/218/63 159/219/63 145/216/63
f 146/220/64 161/221/64 160/222/64
f 148/223/65 161/221/65 147/224/65
f 149/225/66 162/226/66 148/223/66
f 150/227/67 163/228/67 149/225/67
f 151/229/68 164/230/68 150/231/68
f 152/232/69 165/233/69 151/229/69
f 153/234/70 166/235/70 152/232/70
f 154/236/71 167/237/71 153/238/71
f 141/210/72 168/239/72 154/236/72
f 156/240/58 169/241/58 155/242/58
f 157/243/58 170/244/58 156/240/58
f 158/245/58 171/246/58 157/243/58
f 159/247/58 172/248/58 158/245/58
f 160/249/58 173/250/58 159/247/58
f 160/249/58 175/251/58 174/252/58
f 162/253/58 175/251/58 161/254/58
f 163/255/58 176/256/58 162/253/58
f 164/257/58 177/258/58 163/255/58
f 164/257/58 179/259/58 178/260/58
f 166/261/58 179/259/58 165/262/58
f 167/263/58 180/264/58 166/261/58
f 168/265/58 181/266/58 167/263/58
f 155/242/58 182/267/58 168/265/58
f 184/268/73 185/269/73 183/270/73
f 186/271/57 189/272/57 185/273/57
f 190/274/74 187/275/74 189/276/74
f 188/277/58 183/278/58 187/279/58
f 189/280/69 183/278/69 185/281/69
f 186/282/62 188/283/62 190/284/62
f 192/285/73 193/286/73 191/287/73
f 194/288/57 197/289/57 193/290/57
f 198/291/74 195/292/74 197/293/74
f 196/294/58 191/295/58 195/296/58
f 197/297/69 191/295/69 193/298/69
f 194/299/62 196/300/62 198/301/62
f 2/1/1 16/5/1 15/2/1
f 3/4/2 17/35/2 16/5/2
f 3/6/3 4/10/3 18/7/3
f 5/9/4 19/12/4 18/7/4
f 6/11/5 20/39/5 19/12/5
f 7/13/6 21/17/6 20/14/6
f 8/16/7 22/19/7 21/17/7
f 9/18/8 23/21/8 22/19/8
f 10/20/9 24/43/9 23/21/9
f 11/22/10 25/26/10 24/23/10
f 11/22/11 12/27/11 26/25/11
f 12/27/12 13/302/12 27/28/12
f 13/29/13 14/32/13 28/30/13
f 14/32/14 1/3/14 15/2/14
f 15/2/15 16/5/15 30/33/15
f 17/35/16 31/51/16 30/33/16
f 18/7/17 32/38/17 31/36/17
f 18/7/18 19/12/18 33/37/18
f 20/39/19 34/55/19 33/37/19
f 21/17/20 35/41/20 34/40/20
f 22/19/21 36/42/21 35/41/21
f 23/21/22 37/44/22 36/42/22
f 24/43/23 38/60/23 37/44/23
f 25/26/24 39/46/24 38/45/24
f 26/25/25 40/47/25 39/46/25
f 27/28/26 41/64/26 40/47/26
f 28/30/27 42/49/27 41/48/27
f 15/2/28 29/34/28 42/49/28
f 30/33/29 44/52/29 43/50/29
f 31/51/30 45/303/30 44/52/30
f 32/38/31 46/54/31 45/53/31
f 33/37/32 47/56/32 46/54/32
f 34/55/33 48/73/33 47/56/33
f 35/41/34 49/59/34 48/57/34
f 35/41/35 36/42/35 50/58/35
f 37/44/36 51/61/36 50/58/36
f 38/60/37 52/304/37 51/61/37
f 39/46/38 53/63/38 52/62/38
f 40/47/39 54/65/39 53/63/39
f 41/64/40 55/305/40 54/65/40
f 42/49/41 56/67/41 55/66/41
f 42/49/42 29/34/42 43/50/42
f 44/52/43 58/70/43 57/68/43
f 44/52/44 45/303/44 59/69/44
f 46/54/45 60/72/45 59/71/45
f 47/56/46 61/74/46 60/72/46
f 48/73/47 62/306/47 61/74/47
f 49/59/48 63/77/48 62/75/48
f 49/59/49 50/58/49 64/76/49
f 51/61/50 65/79/50 64/76/50
f 51/61/51 52/304/51 66/78/51
f 53/63/52 67/81/52 66/80/52
f 54/65/53 68/83/53 67/81/53
f 54/65/54 55/305/54 69/82/54
f 56/67/55 70/85/55 69/84/55
f 43/50/56 57/68/56 70/85/56
f 1/307/57 14/308/57 13/309/57
f 13/309/57 12/310/57 11/86/57
f 11/86/57 10/311/57 9/312/57
f 9/312/57 8/313/57 7/87/57
f 7/87/57 6/314/57 5/315/57
f 5/315/57 4/316/57 3/88/57
f 3/88/57 2/317/57 1/307/57
f 1/307/57 13/309/57 11/86/57
f 11/86/57 9/312/57 7/87/57
f 7/87/57 5/315/57 3/88/57
f 3/88/57 1/307/57 11/86/57
f 70/318/58 57/319/58 58/320/58
f 58/320/58 59/321/58 60/89/58
f 60/89/58 61/322/58 62/323/58
f 62/323/58 63/324/58 64/90/58
f 64/90/58 65/325/58 66/326/58
f 66/326/58 67/327/58 68/91/58
f 68/91/58 69/328/58 70/318/58
f 70/318/58 58/320/58 60/89/58
f 60/89/58 62/323/58 64/90/58
f 64/90/58 66/326/58 68/91/58
f 68/91/58 70/318/58 60/89/58
f 72/92/57 86/96/57 85/93/57
f 73/95/57 87/98/57 86/96/57
f 74/97/57 88/100/57 87/98/57
f 75/99/57 89/102/57 88/100/57
f 75/99/57 76/104/57 90/101/57
f 77/103/57 91/106/57 90/101/57
f 78/105/57 92/108/57 91/106/57
f 79/107/57 93/110/57 92/108/57
f 79/107/57 80/112/57 94/109/57
f 81/111/57 95/114/57 94/109/57
f 82/113/57 96/116/57 95/114/57
f 82/113/57 83/118/57 97/115/57
f 84/117/57 98/119/57 97/115/57
f 71/94/57 85/93/57 98/119/57
f 86/120/59 100/124/59 99/121/59
f 87/123/60 101/329/60 100/124/60
f 88/125/61 102/129/61 101/126/61
f 89/128/62 103/131/62 102/129/62
f 90/130/63 104/330/63 103/131/63
f 91/132/64 105/136/64 104/133/64
f 92/135/65 106/138/65 105/136/65
f 93/137/66 107/140/66 106/138/66
f 94/139/67 108/331/67 107/140/67
f 95/141/68 109/145/68 108/142/68
f 96/144/69 110/147/69 109/145/69
f 97/146/70 111/332/70 110/147/70
f 98/148/71 112/151/71 111/149/71
f 85/122/72 99/121/72 112/151/72
f 100/152/58 114/156/58 113/153/58
f 100/152/58 101/157/58 115/155/58
f 101/157/58 102/160/58 116/158/58
f 103/159/58 117/162/58 116/158/58
f 104/161/58 118/164/58 117/162/58
f 104/161/58 105/166/58 119/163/58
f 106/165/58 120/168/58 119/163/58
f 107/167/58 121/170/58 120/168/58
f 108/169/58 122/172/58 121/170/58
f 108/169/58 109/174/58 123/171/58
f 110/173/58 124/176/58 123/171/58
f 111/175/58 125/178/58 124/176/58
f 112/177/58 126/179/58 125/178/58
f 99/154/58 113/153/58 126/179/58
f 128/180/57 142/184/57 141/181/57
f 128/180/57 129/185/57 143/183/57
f 129/185/57 130/188/57 144/186/57
f 131/187/57 145/190/57 144/186/57
f 132/189/57 146/192/57 145/190/57
f 133/191/57 147/194/57 146/192/57
f 134/193/57 148/196/57 147/194/57
f 134/193/57 135/197/57 149/195/57
f 135/197/57 136/200/57 150/198/57
f 137/199/57 151/202/57 150/198/57
f 138/201/57 152/204/57 151/202/57
f 138/201/57 139/206/57 153/203/57
f 140/205/57 154/207/57 153/203/57
f 127/182/57 141/181/57 154/207/57
f 142/208/59 156/212/59 155/209/59
f 143/211/60 157/333/60 156/212/60
f 143/213/61 144/217/61 158/214/61
f 145/216/62 159/219/62 158/214/62
f 146/218/63 160/334/63 159/219/63
f 146/220/64 147/224/64 161/221/64
f 148/223/65 162/226/65 161/221/65
f 149/225/66 163/228/66 162/226/66
f 150/227/67 164/335/67 163/228/67
f 151/229/68 165/233/68 164/230/68
f 152/232/69 166/235/69 165/233/69
f 153/234/70 167/336/70 166/235/70
f 154/236/71 168/239/71 167/237/71
f 141/210/72 155/209/72 168/239/72
f 156/240/58 170/244/58 169/241/58
f 157/243/58 171/246/58 170/244/58
f 158/245/58 172/248/58 171/246/58
f 159/247/58 173/250/58 172/248/58
f 160/249/58 174/252/58 173/250/58
f 160/249/58 161/254/58 175/251/58
f 162/253/58 176/256/58 175/251/58
f 163/255/58 177/258/58 176/256/58
f 164/257/58 178/260/58 177/258/58
f 164/257/58 165/262/58 179/259/58
f 166/261/58 180/264/58 179/259/58
f 167/263/58 181/266/58 180/264/58
f 168/265/58 182/267/58 181/266/58
f 155/242/58 169/241/58 182/267/58
f 184/268/73 186/337/73 185/269/73
f 186/271/57 190/338/57 189/272/57
f 190/274/74 188/339/74 187/275/74
f 188/277/58 184/340/58 183/278/58
f 189/280/69 187/279/69 183/278/69
f 186/282/62 184/341/62 188/283/62
f 192/285/73 194/342/73 193/286/73
f 194/288/57 198/343/57 197/289/57
f 198/291/74 196/344/74 195/292/74
f 196/294/58 192/345/58 191/295/58
f 197/297/69 195/296/69 191/295/69
f 194/299/62 192/346/62 196/300/62
