# Blender 4.5.13 LTS
# www.blender.org
o stone
v -0.900000 0.000000 0.175000
v -0.900000 0.160000 0.175000
v -0.900000 0.000000 -0.175000
v -0.900000 0.160000 -0.175000
v 0.900000 0.000000 0.175000
v 0.900000 0.160000 0.175000
v 0.900000 0.000000 -0.175000
v 0.900000 0.160000 -0.175000
v -0.900000 -0.120000 -0.150000
v -0.900000 0.080000 -0.150000
v -0.900000 -0.120000 -0.190000
v -0.900000 0.080000 -0.190000
v 0.900000 -0.120000 -0.150000
v 0.900000 0.080000 -0.150000
v 0.900000 -0.120000 -0.190000
v 0.900000 0.080000 -0.190000
vn -1.0000 -0.0000 -0.0000
vn -0.0000 -0.0000 -1.0000
vn 1.0000 -0.0000 -0.0000
vn -0.0000 -0.0000 1.0000
vn -0.0000 -1.0000 -0.0000
vn -0.0000 1.0000 -0.0000
vt 0.934956 0.194958
vt 0.846217 0.194958
vt 0.846217 0.000840
vt 0.934956 0.000840
vt 0.706386 0.999160
vt 0.617646 0.999160
vt 0.617646 0.000840
vt 0.706386 0.000840
vt 0.934956 0.390756
vt 0.846217 0.390756
vt 0.846217 0.196638
vt 0.934956 0.196638
vt 0.796806 0.999160
vt 0.708066 0.999160
vt 0.708066 0.000840
vt 0.796806 0.000840
vt 0.194958 0.000840
vt 0.194958 0.999160
vt 0.000840 0.999160
vt 0.000840 0.000840
vt 0.390756 0.000840
vt 0.390756 0.999160
vt 0.196638 0.999160
vt 0.196638 0.000840
vt 0.846217 0.503361
vt 0.846217 0.392436
vt 0.868402 0.392436
vt 0.868402 0.503361
vt 0.503361 0.999160
vt 0.392437 0.999160
vt 0.392437 0.000840
vt 0.503361 0.000840
vt 0.846217 0.615966
vt 0.846217 0.505041
vt 0.868402 0.505041
vt 0.868402 0.615966
vt 0.615966 0.999160
vt 0.505041 0.999160
vt 0.505041 0.000840
vt 0.615966 0.000840
vt 0.820671 0.000840
vt 0.820671 0.999160
vt 0.798486 0.999160
vt 0.798486 0.000840
vt 0.844536 0.000840
vt 0.844536 0.999160
vt 0.822352 0.999160
vt 0.822352 0.000840
s 0
f 1/1/1 2/2/1 4/3/1 3/4/1
f 3/5/2 4/6/2 8/7/2 7/8/2
f 7/9/3 8/10/3 6/11/3 5/12/3
f 5/13/4 6/14/4 2/15/4 1/16/4
f 3/17/5 7/18/5 5/19/5 1/20/5
f 8/21/6 4/22/6 2/23/6 6/24/6
f 9/25/1 10/26/1 12/27/1 11/28/1
f 11/29/2 12/30/2 16/31/2 15/32/2
f 15/33/3 16/34/3 14/35/3 13/36/3
f 13/37/4 14/38/4 10/39/4 9/40/4
f 11/41/5 15/42/5 13/43/5 9/44/5
f 16/45/6 12/46/6 10/47/6 14/48/6
