# The Giants of Holst prop, from CC0 kits by KayKit (Kay Lousberg) and Kenney
v 1.1342 0.0245 -0.2052
vt 0.8542 0.8843
vn 0.3436 -0.3416 0.8748
v 1.1342 0.3430 -0.2052
vt 0.8542 0.8969
vn 0.3436 0.3416 0.8748
v -1.1443 0.3430 -0.2000
vt 0.7708 0.8969
vn -0.3396 0.3416 0.8764
v -1.1443 0.0245 -0.2000
vt 0.7708 0.8843
vn -0.3396 -0.3416 0.8764
f 1/1/1 2/2/2 3/3/3 4/4/4
v 1.1579 0.0245 -0.5483
vt 0.7308 0.8843
vn 0.8748 -0.3416 -0.3436
v 1.1579 0.3430 -0.5483
vt 0.7308 0.8969
vn 0.8748 0.3416 -0.3436
v 1.1587 0.3430 -0.2298
vt 0.7308 0.8969
vn 0.8764 0.3416 0.3396
v 1.1587 0.0245 -0.2298
vt 0.7308 0.8843
vn 0.8764 -0.3416 0.3396
f 5/5/5 6/6/6 7/7/7 8/8/8
v 1.1334 0.3675 -0.5482
vt 0.8542 0.9297
vn 0.3408 0.8756 -0.3424
v -1.1451 0.3675 -0.5430
vt 0.7708 0.9297
vn -0.3424 0.8756 -0.3408
v -1.1443 0.3675 -0.2245
vt 0.7708 0.9297
vn 0.0000 1.0000 0.0000
v 1.1342 0.3675 -0.2297
vt 0.8542 0.9297
vn 0.0000 1.0000 0.0000
f 9/9/9 10/10/10 11/11/11 12/12/12
v -1.1688 0.0245 -0.2244
vt 0.6443 0.8843
vn -0.8748 -0.3416 0.3436
v -1.1688 0.3430 -0.2244
vt 0.6443 0.8969
vn -0.8748 0.3416 0.3436
v -1.1696 0.3430 -0.5429
vt 0.6443 0.8969
vn -0.8764 0.3416 -0.3396
v -1.1696 0.0245 -0.5429
vt 0.6443 0.8843
vn -0.8764 -0.3416 -0.3396
f 13/13/13 14/14/14 15/15/15 16/16/16
v -1.1451 0.0245 -0.5675
vt 0.7708 0.8843
vn -0.0023 0.0000 -1.0000
v -1.1451 0.3430 -0.5675
vt 0.7708 0.8969
vn -0.0023 0.0000 -1.0000
v 1.1334 0.3430 -0.5727
vt 0.8542 0.8969
vn -0.0023 0.0000 -1.0000
v 1.1334 0.0245 -0.5727
vt 0.8542 0.8843
vn -0.0023 0.0000 -1.0000
f 17/17/17 18/18/18 19/19/19 20/20/20
v -1.1443 -0.0000 -0.2245
vt 0.6458 0.9296
vn -0.4595 -0.7588 0.4616
v -1.1443 0.0245 -0.2000
vt 0.6458 0.9312
vn -0.3396 -0.3416 0.8764
v -1.1688 0.0245 -0.2244
vt 0.6443 0.9312
vn -0.8748 -0.3416 0.3436
f 21/21/21 22/22/22 23/23/23
v -1.1443 0.3430 -0.2000
vt 0.6458 0.9438
vn -0.3396 0.3416 0.8764
v -1.1443 0.3675 -0.2245
vt 0.6458 0.9454
vn -0.4595 0.7588 0.4616
v -1.1688 0.3430 -0.2244
vt 0.6443 0.9438
vn -0.8748 0.3416 0.3436
f 24/24/24 25/25/25 26/26/26
v -1.1451 -0.0000 -0.5430
vt 0.6458 0.8828
vn -0.3424 -0.8756 -0.3408
v -1.1696 0.0245 -0.5429
vt 0.6443 0.8843
vn -0.8764 -0.3416 -0.3396
v -1.1451 0.0245 -0.5675
vt 0.6458 0.8843
vn -0.4623 -0.4606 -0.7577
f 27/27/27 28/28/28 29/29/29
v -1.1451 0.3675 -0.5430
vt 0.6458 0.9454
vn -0.3424 0.8756 -0.3408
v -1.1451 0.3430 -0.5675
vt 0.6458 0.9438
vn -0.4623 0.4606 -0.7577
v -1.1696 0.3430 -0.5429
vt 0.6443 0.9438
vn -0.8764 0.3416 -0.3396
f 30/30/30 31/31/31 32/32/32
v 1.1342 -0.0000 -0.2297
vt 0.7292 0.9296
vn 0.4616 -0.7588 0.4595
v 1.1587 0.0245 -0.2298
vt 0.7308 0.9312
vn 0.8764 -0.3416 0.3396
v 1.1342 0.0245 -0.2052
vt 0.7292 0.9312
vn 0.3436 -0.3416 0.8748
f 33/33/33 34/34/34 35/35/35
v 1.1342 0.3675 -0.2297
vt 0.7292 0.9454
vn 0.4616 0.7588 0.4595
v 1.1342 0.3430 -0.2052
vt 0.7292 0.9438
vn 0.3436 0.3416 0.8748
v 1.1587 0.3430 -0.2298
vt 0.7308 0.9438
vn 0.8764 0.3416 0.3396
f 36/36/36 37/37/37 38/38/38
v 1.1334 -0.0000 -0.5482
vt 0.7292 0.9296
vn 0.3408 -0.8756 -0.3424
v 1.1334 0.0245 -0.5727
vt 0.7292 0.9312
vn 0.4588 -0.4606 -0.7598
v 1.1579 0.0245 -0.5483
vt 0.7308 0.9312
vn 0.8748 -0.3416 -0.3436
f 39/39/39 40/40/40 41/41/41
v 1.1334 0.3675 -0.5482
vt 0.7292 0.9454
vn 0.3408 0.8756 -0.3424
v 1.1579 0.3430 -0.5483
vt 0.7308 0.9438
vn 0.8748 0.3416 -0.3436
v 1.1334 0.3430 -0.5727
vt 0.7292 0.9438
vn 0.4588 0.4606 -0.7598
f 42/42/42 43/43/43 44/44/44
v -1.1451 -0.0000 -0.5430
vt 0.6458 0.9296
vn -0.3424 -0.8756 -0.3408
v -1.1443 -0.0000 -0.2245
vt 0.6458 0.9296
vn -0.4595 -0.7588 0.4616
v -1.1688 0.0245 -0.2244
vt 0.6443 0.9312
vn -0.8748 -0.3416 0.3436
v -1.1696 0.0245 -0.5429
vt 0.6443 0.9312
vn -0.8764 -0.3416 -0.3396
f 45/45/45 46/46/46 47/47/47 48/48/48
v -1.1443 0.0245 -0.2000
vt 0.6458 0.9312
vn -0.3396 -0.3416 0.8764
v -1.1443 0.3430 -0.2000
vt 0.6458 0.9438
vn -0.3396 0.3416 0.8764
v -1.1688 0.3430 -0.2244
vt 0.6443 0.9438
vn -0.8748 0.3416 0.3436
v -1.1688 0.0245 -0.2244
vt 0.6443 0.9312
vn -0.8748 -0.3416 0.3436
f 49/49/49 50/50/50 51/51/51 52/52/52
v -1.1443 0.3675 -0.2245
vt 0.6458 0.9454
vn -0.4595 0.7588 0.4616
v -1.1451 0.3675 -0.5430
vt 0.6458 0.9454
vn -0.3424 0.8756 -0.3408
v -1.1696 0.3430 -0.5429
vt 0.6443 0.9438
vn -0.8764 0.3416 -0.3396
v -1.1688 0.3430 -0.2244
vt 0.6443 0.9438
vn -0.8748 0.3416 0.3436
f 53/53/53 54/54/54 55/55/55 56/56/56
v -1.1451 0.3430 -0.5675
vt 0.6458 0.9438
vn -0.4623 0.4606 -0.7577
v -1.1451 0.0245 -0.5675
vt 0.6458 0.9312
vn -0.4623 -0.4606 -0.7577
v -1.1696 0.0245 -0.5429
vt 0.6443 0.9312
vn -0.8764 -0.3416 -0.3396
v -1.1696 0.3430 -0.5429
vt 0.6443 0.9438
vn -0.8764 0.3416 -0.3396
f 57/57/57 58/58/58 59/59/59 60/60/60
v 1.1334 -0.0000 -0.5482
vt 0.8542 0.9296
vn 0.3408 -0.8756 -0.3424
v -1.1451 -0.0000 -0.5430
vt 0.7708 0.9296
vn -0.3424 -0.8756 -0.3408
v -1.1451 0.0245 -0.5675
vt 0.7708 0.9312
vn -0.4623 -0.4606 -0.7577
v 1.1334 0.0245 -0.5727
vt 0.8542 0.9312
vn 0.4588 -0.4606 -0.7598
f 61/61/61 62/62/62 63/63/63 64/64/64
v -1.1451 0.3675 -0.5430
vt 0.7708 0.9454
vn -0.3424 0.8756 -0.3408
v 1.1334 0.3675 -0.5482
vt 0.8542 0.9454
vn 0.3408 0.8756 -0.3424
v 1.1334 0.3430 -0.5727
vt 0.8542 0.9438
vn 0.4588 0.4606 -0.7598
v -1.1451 0.3430 -0.5675
vt 0.7708 0.9438
vn -0.4623 0.4606 -0.7577
f 65/65/65 66/66/66 67/67/67 68/68/68
v 1.1579 0.3430 -0.5483
vt 0.7308 0.9438
vn 0.8748 0.3416 -0.3436
v 1.1579 0.0245 -0.5483
vt 0.7308 0.9312
vn 0.8748 -0.3416 -0.3436
v 1.1334 0.0245 -0.5727
vt 0.7292 0.9312
vn 0.4588 -0.4606 -0.7598
v 1.1334 0.3430 -0.5727
vt 0.7292 0.9438
vn 0.4588 0.4606 -0.7598
f 69/69/69 70/70/70 71/71/71 72/72/72
v 1.1342 -0.0000 -0.2297
vt 0.7292 0.9296
vn 0.4616 -0.7588 0.4595
v 1.1334 -0.0000 -0.5482
vt 0.7292 0.9296
vn 0.3408 -0.8756 -0.3424
v 1.1579 0.0245 -0.5483
vt 0.7308 0.9312
vn 0.8748 -0.3416 -0.3436
v 1.1587 0.0245 -0.2298
vt 0.7308 0.9312
vn 0.8764 -0.3416 0.3396
f 73/73/73 74/74/74 75/75/75 76/76/76
v 1.1334 0.3675 -0.5482
vt 0.7292 0.9454
vn 0.3408 0.8756 -0.3424
v 1.1342 0.3675 -0.2297
vt 0.7292 0.9454
vn 0.4616 0.7588 0.4595
v 1.1587 0.3430 -0.2298
vt 0.7308 0.9438
vn 0.8764 0.3416 0.3396
v 1.1579 0.3430 -0.5483
vt 0.7308 0.9438
vn 0.8748 0.3416 -0.3436
f 77/77/77 78/78/78 79/79/79 80/80/80
v 1.1342 0.3430 -0.2052
vt 0.7292 0.9438
vn 0.3436 0.3416 0.8748
v 1.1342 0.0245 -0.2052
vt 0.7292 0.9312
vn 0.3436 -0.3416 0.8748
v 1.1587 0.0245 -0.2298
vt 0.7308 0.9312
vn 0.8764 -0.3416 0.3396
v 1.1587 0.3430 -0.2298
vt 0.7308 0.9438
vn 0.8764 0.3416 0.3396
f 81/81/81 82/82/82 83/83/83 84/84/84
v -1.1443 -0.0000 -0.2245
vt 0.7708 0.9296
vn -0.4595 -0.7588 0.4616
v 1.1342 -0.0000 -0.2297
vt 0.8542 0.9296
vn 0.4616 -0.7588 0.4595
v 1.1342 0.0245 -0.2052
vt 0.8542 0.9312
vn 0.3436 -0.3416 0.8748
v -1.1443 0.0245 -0.2000
vt 0.7708 0.9312
vn -0.3396 -0.3416 0.8764
f 85/85/85 86/86/86 87/87/87 88/88/88
v 1.1342 0.3675 -0.2297
vt 0.8542 0.9454
vn 0.4616 0.7588 0.4595
v -1.1443 0.3675 -0.2245
vt 0.7708 0.9454
vn -0.4595 0.7588 0.4616
v -1.1443 0.3430 -0.2000
vt 0.7708 0.9438
vn -0.3396 0.3416 0.8764
v 1.1342 0.3430 -0.2052
vt 0.8542 0.9438
vn 0.3436 0.3416 0.8748
f 89/89/89 90/90/90 91/91/91 92/92/92
v -1.1451 -0.0000 -0.5430
vt 0.7708 0.8515
vn -0.3424 -0.8756 -0.3408
v 1.1334 -0.0000 -0.5482
vt 0.8542 0.8515
vn 0.3408 -0.8756 -0.3424
v 1.1342 -0.0000 -0.2297
vt 0.8542 0.8515
vn 0.0000 -1.0000 0.0000
v -1.1443 -0.0000 -0.2245
vt 0.7708 0.8515
vn 0.0000 -1.0000 0.0000
f 93/93/93 94/94/94 95/95/95 96/96/96
v 1.1597 0.0245 0.1867
vt 0.8542 0.8843
vn 0.3436 -0.3416 0.8748
v 1.1597 0.3430 0.1867
vt 0.8542 0.8969
vn 0.3436 0.3416 0.8748
v -1.1188 0.3430 0.1920
vt 0.7708 0.8969
vn -0.3396 0.3416 0.8764
v -1.1188 0.0245 0.1920
vt 0.7708 0.8843
vn -0.3396 -0.3416 0.8764
f 97/97/97 98/98/98 99/99/99 100/100/100
v 1.1834 0.0245 -0.1563
vt 0.7308 0.8843
vn 0.8748 -0.3416 -0.3436
v 1.1834 0.3430 -0.1563
vt 0.7308 0.8969
vn 0.8748 0.3416 -0.3436
v 1.1841 0.3430 0.1622
vt 0.7308 0.8969
vn 0.8764 0.3416 0.3396
v 1.1841 0.0245 0.1622
vt 0.7308 0.8843
vn 0.8764 -0.3416 0.3396
f 101/101/101 102/102/102 103/103/103 104/104/104
v 1.1589 0.3675 -0.1563
vt 0.8542 0.9297
vn 0.0000 1.0000 0.0000
v -1.1196 0.3675 -0.1510
vt 0.7708 0.9297
vn 0.0000 1.0000 0.0000
v -1.1189 0.3675 0.1675
vt 0.7708 0.9297
vn 0.0000 1.0000 0.0000
v 1.1596 0.3675 0.1622
vt 0.8542 0.9297
vn 0.0000 1.0000 0.0000
f 105/105/105 106/106/106 107/107/107 108/108/108
v -1.1434 0.0245 0.1675
vt 0.6443 0.8843
vn -0.8748 -0.3416 0.3436
v -1.1434 0.3430 0.1675
vt 0.6443 0.8969
vn -0.8748 0.3416 0.3436
v -1.1441 0.3430 -0.1510
vt 0.6443 0.8969
vn -0.8764 0.3416 -0.3396
v -1.1441 0.0245 -0.1510
vt 0.6443 0.8843
vn -0.8764 -0.3416 -0.3396
f 109/109/109 110/110/110 111/111/111 112/112/112
v -1.1197 0.0245 -0.1755
vt 0.7708 0.8843
vn -0.0023 0.0000 -1.0000
v -1.1197 0.3430 -0.1755
vt 0.7708 0.8969
vn -0.3436 0.3416 -0.8748
v 1.1588 0.3430 -0.1808
vt 0.8542 0.8969
vn 0.3396 0.3416 -0.8764
v 1.1588 0.0245 -0.1808
vt 0.8542 0.8843
vn 0.3396 -0.3416 -0.8764
f 113/113/113 114/114/114 115/115/115 116/116/116
v -1.1189 -0.0000 0.1675
vt 0.6458 0.9296
vn -0.4595 -0.7588 0.4616
v -1.1188 0.0245 0.1920
vt 0.6458 0.9312
vn -0.3396 -0.3416 0.8764
v -1.1434 0.0245 0.1675
vt 0.6443 0.9312
vn -0.8748 -0.3416 0.3436
f 117/117/117 118/118/118 119/119/119
v -1.1188 0.3430 0.1920
vt 0.6458 0.9438
vn -0.3396 0.3416 0.8764
v -1.1189 0.3675 0.1675
vt 0.6458 0.9454
vn -0.4595 0.7588 0.4616
v -1.1434 0.3430 0.1675
vt 0.6443 0.9438
vn -0.8748 0.3416 0.3436
f 120/120/120 121/121/121 122/122/122
v -1.1196 -0.0000 -0.1510
vt 0.6458 0.8828
vn -0.3424 -0.8756 -0.3408
v -1.1441 0.0245 -0.1510
vt 0.6443 0.8843
vn -0.8764 -0.3416 -0.3396
v -1.1197 0.0245 -0.1755
vt 0.6458 0.8843
vn -0.4623 -0.4606 -0.7577
f 123/123/123 124/124/124 125/125/125
v -1.1196 0.3675 -0.1510
vt 0.6458 0.9454
vn -0.4616 0.7588 -0.4595
v -1.1197 0.3430 -0.1755
vt 0.6458 0.9438
vn -0.3436 0.3416 -0.8748
v -1.1441 0.3430 -0.1510
vt 0.6443 0.9438
vn -0.8764 0.3416 -0.3396
f 126/126/126 127/127/127 128/128/128
v 1.1596 -0.0000 0.1622
vt 0.7292 0.9296
vn 0.4616 -0.7588 0.4595
v 1.1841 0.0245 0.1622
vt 0.7308 0.9312
vn 0.8764 -0.3416 0.3396
v 1.1597 0.0245 0.1867
vt 0.7292 0.9312
vn 0.3436 -0.3416 0.8748
f 129/129/129 130/130/130 131/131/131
v 1.1596 0.3675 0.1622
vt 0.7292 0.9454
vn 0.4616 0.7588 0.4595
v 1.1597 0.3430 0.1867
vt 0.7292 0.9438
vn 0.3436 0.3416 0.8748
v 1.1841 0.3430 0.1622
vt 0.7308 0.9438
vn 0.8764 0.3416 0.3396
f 132/132/132 133/133/133 134/134/134
v 1.1589 -0.0000 -0.1563
vt 0.7292 0.9296
vn 0.3408 -0.8756 -0.3424
v 1.1588 0.0245 -0.1808
vt 0.7292 0.9312
vn 0.3396 -0.3416 -0.8764
v 1.1834 0.0245 -0.1563
vt 0.7308 0.9312
vn 0.8748 -0.3416 -0.3436
f 135/135/135 136/136/136 137/137/137
v 1.1589 0.3675 -0.1563
vt 0.7292 0.9454
vn 0.4595 0.7588 -0.4616
v 1.1834 0.3430 -0.1563
vt 0.7308 0.9438
vn 0.8748 0.3416 -0.3436
v 1.1588 0.3430 -0.1808
vt 0.7292 0.9438
vn 0.3396 0.3416 -0.8764
f 138/138/138 139/139/139 140/140/140
v -1.1196 -0.0000 -0.1510
vt 0.6458 0.9296
vn -0.3424 -0.8756 -0.3408
v -1.1189 -0.0000 0.1675
vt 0.6458 0.9296
vn -0.4595 -0.7588 0.4616
v -1.1434 0.0245 0.1675
vt 0.6443 0.9312
vn -0.8748 -0.3416 0.3436
v -1.1441 0.0245 -0.1510
vt 0.6443 0.9312
vn -0.8764 -0.3416 -0.3396
f 141/141/141 142/142/142 143/143/143 144/144/144
v -1.1188 0.0245 0.1920
vt 0.6458 0.9312
vn -0.3396 -0.3416 0.8764
v -1.1188 0.3430 0.1920
vt 0.6458 0.9438
vn -0.3396 0.3416 0.8764
v -1.1434 0.3430 0.1675
vt 0.6443 0.9438
vn -0.8748 0.3416 0.3436
v -1.1434 0.0245 0.1675
vt 0.6443 0.9312
vn -0.8748 -0.3416 0.3436
f 145/145/145 146/146/146 147/147/147 148/148/148
v -1.1189 0.3675 0.1675
vt 0.6458 0.9454
vn -0.4595 0.7588 0.4616
v -1.1196 0.3675 -0.1510
vt 0.6458 0.9454
vn -0.4616 0.7588 -0.4595
v -1.1441 0.3430 -0.1510
vt 0.6443 0.9438
vn -0.8764 0.3416 -0.3396
v -1.1434 0.3430 0.1675
vt 0.6443 0.9438
vn -0.8748 0.3416 0.3436
f 149/149/149 150/150/150 151/151/151 152/152/152
v -1.1197 0.3430 -0.1755
vt 0.6458 0.9438
vn -0.3436 0.3416 -0.8748
v -1.1197 0.0245 -0.1755
vt 0.6458 0.9312
vn -0.4623 -0.4606 -0.7577
v -1.1441 0.0245 -0.1510
vt 0.6443 0.9312
vn -0.8764 -0.3416 -0.3396
v -1.1441 0.3430 -0.1510
vt 0.6443 0.9438
vn -0.8764 0.3416 -0.3396
f 153/153/153 154/154/154 155/155/155 156/156/156
v 1.1589 -0.0000 -0.1563
vt 0.8542 0.9296
vn 0.3408 -0.8756 -0.3424
v -1.1196 -0.0000 -0.1510
vt 0.7708 0.9296
vn -0.3424 -0.8756 -0.3408
v -1.1197 0.0245 -0.1755
vt 0.7708 0.9312
vn -0.4623 -0.4606 -0.7577
v 1.1588 0.0245 -0.1808
vt 0.8542 0.9312
vn 0.3396 -0.3416 -0.8764
f 157/157/157 158/158/158 159/159/159 160/160/160
v -1.1196 0.3675 -0.1510
vt 0.7708 0.9454
vn -0.4616 0.7588 -0.4595
v 1.1589 0.3675 -0.1563
vt 0.8542 0.9454
vn 0.4595 0.7588 -0.4616
v 1.1588 0.3430 -0.1808
vt 0.8542 0.9438
vn 0.3396 0.3416 -0.8764
v -1.1197 0.3430 -0.1755
vt 0.7708 0.9438
vn -0.3436 0.3416 -0.8748
f 161/161/161 162/162/162 163/163/163 164/164/164
v 1.1834 0.3430 -0.1563
vt 0.7308 0.9438
vn 0.8748 0.3416 -0.3436
v 1.1834 0.0245 -0.1563
vt 0.7308 0.9312
vn 0.8748 -0.3416 -0.3436
v 1.1588 0.0245 -0.1808
vt 0.7292 0.9312
vn 0.3396 -0.3416 -0.8764
v 1.1588 0.3430 -0.1808
vt 0.7292 0.9438
vn 0.3396 0.3416 -0.8764
f 165/165/165 166/166/166 167/167/167 168/168/168
v 1.1596 -0.0000 0.1622
vt 0.7292 0.9296
vn 0.4616 -0.7588 0.4595
v 1.1589 -0.0000 -0.1563
vt 0.7292 0.9296
vn 0.3408 -0.8756 -0.3424
v 1.1834 0.0245 -0.1563
vt 0.7308 0.9312
vn 0.8748 -0.3416 -0.3436
v 1.1841 0.0245 0.1622
vt 0.7308 0.9312
vn 0.8764 -0.3416 0.3396
f 169/169/169 170/170/170 171/171/171 172/172/172
v 1.1589 0.3675 -0.1563
vt 0.7292 0.9454
vn 0.4595 0.7588 -0.4616
v 1.1596 0.3675 0.1622
vt 0.7292 0.9454
vn 0.4616 0.7588 0.4595
v 1.1841 0.3430 0.1622
vt 0.7308 0.9438
vn 0.8764 0.3416 0.3396
v 1.1834 0.3430 -0.1563
vt 0.7308 0.9438
vn 0.8748 0.3416 -0.3436
f 173/173/173 174/174/174 175/175/175 176/176/176
v 1.1597 0.3430 0.1867
vt 0.7292 0.9438
vn 0.3436 0.3416 0.8748
v 1.1597 0.0245 0.1867
vt 0.7292 0.9312
vn 0.3436 -0.3416 0.8748
v 1.1841 0.0245 0.1622
vt 0.7308 0.9312
vn 0.8764 -0.3416 0.3396
v 1.1841 0.3430 0.1622
vt 0.7308 0.9438
vn 0.8764 0.3416 0.3396
f 177/177/177 178/178/178 179/179/179 180/180/180
v -1.1189 -0.0000 0.1675
vt 0.7708 0.9296
vn -0.4595 -0.7588 0.4616
v 1.1596 -0.0000 0.1622
vt 0.8542 0.9296
vn 0.4616 -0.7588 0.4595
v 1.1597 0.0245 0.1867
vt 0.8542 0.9312
vn 0.3436 -0.3416 0.8748
v -1.1188 0.0245 0.1920
vt 0.7708 0.9312
vn -0.3396 -0.3416 0.8764
f 181/181/181 182/182/182 183/183/183 184/184/184
v 1.1596 0.3675 0.1622
vt 0.8542 0.9454
vn 0.4616 0.7588 0.4595
v -1.1189 0.3675 0.1675
vt 0.7708 0.9454
vn -0.4595 0.7588 0.4616
v -1.1188 0.3430 0.1920
vt 0.7708 0.9438
vn -0.3396 0.3416 0.8764
v 1.1597 0.3430 0.1867
vt 0.8542 0.9438
vn 0.3436 0.3416 0.8748
f 185/185/185 186/186/186 187/187/187 188/188/188
v -1.1196 -0.0000 -0.1510
vt 0.7708 0.8515
vn -0.3424 -0.8756 -0.3408
v 1.1589 -0.0000 -0.1563
vt 0.8542 0.8515
vn 0.3408 -0.8756 -0.3424
v 1.1596 -0.0000 0.1622
vt 0.8542 0.8515
vn 0.0000 -1.0000 0.0000
v -1.1189 -0.0000 0.1675
vt 0.7708 0.8515
vn 0.0000 -1.0000 0.0000
f 189/189/189 190/190/190 191/191/191 192/192/192
v 1.1360 0.0245 0.5788
vt 0.8542 0.8843
vn 0.3436 -0.3416 0.8748
v 1.1360 0.3430 0.5788
vt 0.8542 0.8969
vn 0.3436 0.3416 0.8748
v -1.1425 0.3430 0.5840
vt 0.7708 0.8969
vn -0.3396 0.3416 0.8764
v -1.1425 0.0245 0.5840
vt 0.7708 0.8843
vn -0.3396 -0.3416 0.8764
f 193/193/193 194/194/194 195/195/195 196/196/196
v 1.1598 0.0245 0.2357
vt 0.7308 0.8843
vn 0.8748 -0.3416 -0.3436
v 1.1598 0.3430 0.2357
vt 0.7308 0.8969
vn 0.8748 0.3416 -0.3436
v 1.1605 0.3430 0.5542
vt 0.7308 0.8969
vn 0.8764 0.3416 0.3396
v 1.1605 0.0245 0.5542
vt 0.7308 0.8843
vn 0.8764 -0.3416 0.3396
f 197/197/197 198/198/198 199/199/199 200/200/200
v 1.1353 0.3675 0.2358
vt 0.8542 0.9297
vn 0.3408 0.8756 -0.3424
v -1.1432 0.3675 0.2410
vt 0.7708 0.9297
vn -0.3424 0.8756 -0.3408
v -1.1425 0.3675 0.5595
vt 0.7708 0.9297
vn 0.0000 1.0000 0.0000
v 1.1360 0.3675 0.5543
vt 0.8542 0.9297
vn 0.0000 1.0000 0.0000
f 201/201/201 202/202/202 203/203/203 204/204/204
v -1.1670 0.0245 0.5596
vt 0.6443 0.8843
vn -0.8748 -0.3416 0.3436
v -1.1670 0.3430 0.5596
vt 0.6443 0.8969
vn -0.8748 0.3416 0.3436
v -1.1677 0.3430 0.2411
vt 0.6443 0.8969
vn -0.8764 0.3416 -0.3396
v -1.1677 0.0245 0.2411
vt 0.6443 0.8843
vn -0.8764 -0.3416 -0.3396
f 205/205/205 206/206/206 207/207/207 208/208/208
v -1.1433 0.0245 0.2165
vt 0.7708 0.8843
vn -0.0023 0.0000 -1.0000
v -1.1433 0.3430 0.2165
vt 0.7708 0.8969
vn -0.0023 0.0000 -1.0000
v 1.1352 0.3430 0.2113
vt 0.8542 0.8969
vn -0.0023 0.0000 -1.0000
v 1.1352 0.0245 0.2113
vt 0.8542 0.8843
vn -0.0023 0.0000 -1.0000
f 209/209/209 210/210/210 211/211/211 212/212/212
v -1.1425 -0.0000 0.5595
vt 0.6458 0.9296
vn -0.4595 -0.7588 0.4616
v -1.1425 0.0245 0.5840
vt 0.6458 0.9312
vn -0.3396 -0.3416 0.8764
v -1.1670 0.0245 0.5596
vt 0.6443 0.9312
vn -0.8748 -0.3416 0.3436
f 213/213/213 214/214/214 215/215/215
v -1.1425 0.3430 0.5840
vt 0.6458 0.9438
vn -0.3396 0.3416 0.8764
v -1.1425 0.3675 0.5595
vt 0.6458 0.9454
vn -0.4595 0.7588 0.4616
v -1.1670 0.3430 0.5596
vt 0.6443 0.9438
vn -0.8748 0.3416 0.3436
f 216/216/216 217/217/217 218/218/218
v -1.1432 -0.0000 0.2410
vt 0.6458 0.8828
vn -0.3424 -0.8756 -0.3408
v -1.1677 0.0245 0.2411
vt 0.6443 0.8843
vn -0.8764 -0.3416 -0.3396
v -1.1433 0.0245 0.2165
vt 0.6458 0.8843
vn -0.4623 -0.4606 -0.7577
f 219/219/219 220/220/220 221/221/221
v -1.1432 0.3675 0.2410
vt 0.6458 0.9454
vn -0.3424 0.8756 -0.3408
v -1.1433 0.3430 0.2165
vt 0.6458 0.9438
vn -0.4623 0.4606 -0.7577
v -1.1677 0.3430 0.2411
vt 0.6443 0.9438
vn -0.8764 0.3416 -0.3396
f 222/222/222 223/223/223 224/224/224
v 1.1360 -0.0000 0.5543
vt 0.7292 0.9296
vn 0.4616 -0.7588 0.4595
v 1.1605 0.0245 0.5542
vt 0.7308 0.9312
vn 0.8764 -0.3416 0.3396
v 1.1360 0.0245 0.5788
vt 0.7292 0.9312
vn 0.3436 -0.3416 0.8748
f 225/225/225 226/226/226 227/227/227
v 1.1360 0.3675 0.5543
vt 0.7292 0.9454
vn 0.4616 0.7588 0.4595
v 1.1360 0.3430 0.5788
vt 0.7292 0.9438
vn 0.3436 0.3416 0.8748
v 1.1605 0.3430 0.5542
vt 0.7308 0.9438
vn 0.8764 0.3416 0.3396
f 228/228/228 229/229/229 230/230/230
v 1.1353 -0.0000 0.2358
vt 0.7292 0.9296
vn 0.3408 -0.8756 -0.3424
v 1.1352 0.0245 0.2113
vt 0.7292 0.9312
vn 0.4588 -0.4606 -0.7598
v 1.1598 0.0245 0.2357
vt 0.7308 0.9312
vn 0.8748 -0.3416 -0.3436
f 231/231/231 232/232/232 233/233/233
v 1.1353 0.3675 0.2358
vt 0.7292 0.9454
vn 0.3408 0.8756 -0.3424
v 1.1598 0.3430 0.2357
vt 0.7308 0.9438
vn 0.8748 0.3416 -0.3436
v 1.1352 0.3430 0.2113
vt 0.7292 0.9438
vn 0.4588 0.4606 -0.7598
f 234/234/234 235/235/235 236/236/236
v -1.1432 -0.0000 0.2410
vt 0.6458 0.9296
vn -0.3424 -0.8756 -0.3408
v -1.1425 -0.0000 0.5595
vt 0.6458 0.9296
vn -0.4595 -0.7588 0.4616
v -1.1670 0.0245 0.5596
vt 0.6443 0.9312
vn -0.8748 -0.3416 0.3436
v -1.1677 0.0245 0.2411
vt 0.6443 0.9312
vn -0.8764 -0.3416 -0.3396
f 237/237/237 238/238/238 239/239/239 240/240/240
v -1.1425 0.0245 0.5840
vt 0.6458 0.9312
vn -0.3396 -0.3416 0.8764
v -1.1425 0.3430 0.5840
vt 0.6458 0.9438
vn -0.3396 0.3416 0.8764
v -1.1670 0.3430 0.5596
vt 0.6443 0.9438
vn -0.8748 0.3416 0.3436
v -1.1670 0.0245 0.5596
vt 0.6443 0.9312
vn -0.8748 -0.3416 0.3436
f 241/241/241 242/242/242 243/243/243 244/244/244
v -1.1425 0.3675 0.5595
vt 0.6458 0.9454
vn -0.4595 0.7588 0.4616
v -1.1432 0.3675 0.2410
vt 0.6458 0.9454
vn -0.3424 0.8756 -0.3408
v -1.1677 0.3430 0.2411
vt 0.6443 0.9438
vn -0.8764 0.3416 -0.3396
v -1.1670 0.3430 0.5596
vt 0.6443 0.9438
vn -0.8748 0.3416 0.3436
f 245/245/245 246/246/246 247/247/247 248/248/248
v -1.1433 0.3430 0.2165
vt 0.6458 0.9438
vn -0.4623 0.4606 -0.7577
v -1.1433 0.0245 0.2165
vt 0.6458 0.9312
vn -0.4623 -0.4606 -0.7577
v -1.1677 0.0245 0.2411
vt 0.6443 0.9312
vn -0.8764 -0.3416 -0.3396
v -1.1677 0.3430 0.2411
vt 0.6443 0.9438
vn -0.8764 0.3416 -0.3396
f 249/249/249 250/250/250 251/251/251 252/252/252
v 1.1353 -0.0000 0.2358
vt 0.8542 0.9296
vn 0.3408 -0.8756 -0.3424
v -1.1432 -0.0000 0.2410
vt 0.7708 0.9296
vn -0.3424 -0.8756 -0.3408
v -1.1433 0.0245 0.2165
vt 0.7708 0.9312
vn -0.4623 -0.4606 -0.7577
v 1.1352 0.0245 0.2113
vt 0.8542 0.9312
vn 0.4588 -0.4606 -0.7598
f 253/253/253 254/254/254 255/255/255 256/256/256
v -1.1432 0.3675 0.2410
vt 0.7708 0.9454
vn -0.3424 0.8756 -0.3408
v 1.1353 0.3675 0.2358
vt 0.8542 0.9454
vn 0.3408 0.8756 -0.3424
v 1.1352 0.3430 0.2113
vt 0.8542 0.9438
vn 0.4588 0.4606 -0.7598
v -1.1433 0.3430 0.2165
vt 0.7708 0.9438
vn -0.4623 0.4606 -0.7577
f 257/257/257 258/258/258 259/259/259 260/260/260
v 1.1598 0.3430 0.2357
vt 0.7308 0.9438
vn 0.8748 0.3416 -0.3436
v 1.1598 0.0245 0.2357
vt 0.7308 0.9312
vn 0.8748 -0.3416 -0.3436
v 1.1352 0.0245 0.2113
vt 0.7292 0.9312
vn 0.4588 -0.4606 -0.7598
v 1.1352 0.3430 0.2113
vt 0.7292 0.9438
vn 0.4588 0.4606 -0.7598
f 261/261/261 262/262/262 263/263/263 264/264/264
v 1.1360 -0.0000 0.5543
vt 0.7292 0.9296
vn 0.4616 -0.7588 0.4595
v 1.1353 -0.0000 0.2358
vt 0.7292 0.9296
vn 0.3408 -0.8756 -0.3424
v 1.1598 0.0245 0.2357
vt 0.7308 0.9312
vn 0.8748 -0.3416 -0.3436
v 1.1605 0.0245 0.5542
vt 0.7308 0.9312
vn 0.8764 -0.3416 0.3396
f 265/265/265 266/266/266 267/267/267 268/268/268
v 1.1353 0.3675 0.2358
vt 0.7292 0.9454
vn 0.3408 0.8756 -0.3424
v 1.1360 0.3675 0.5543
vt 0.7292 0.9454
vn 0.4616 0.7588 0.4595
v 1.1605 0.3430 0.5542
vt 0.7308 0.9438
vn 0.8764 0.3416 0.3396
v 1.1598 0.3430 0.2357
vt 0.7308 0.9438
vn 0.8748 0.3416 -0.3436
f 269/269/269 270/270/270 271/271/271 272/272/272
v 1.1360 0.3430 0.5788
vt 0.7292 0.9438
vn 0.3436 0.3416 0.8748
v 1.1360 0.0245 0.5788
vt 0.7292 0.9312
vn 0.3436 -0.3416 0.8748
v 1.1605 0.0245 0.5542
vt 0.7308 0.9312
vn 0.8764 -0.3416 0.3396
v 1.1605 0.3430 0.5542
vt 0.7308 0.9438
vn 0.8764 0.3416 0.3396
f 273/273/273 274/274/274 275/275/275 276/276/276
v -1.1425 -0.0000 0.5595
vt 0.7708 0.9296
vn -0.4595 -0.7588 0.4616
v 1.1360 -0.0000 0.5543
vt 0.8542 0.9296
vn 0.4616 -0.7588 0.4595
v 1.1360 0.0245 0.5788
vt 0.8542 0.9312
vn 0.3436 -0.3416 0.8748
v -1.1425 0.0245 0.5840
vt 0.7708 0.9312
vn -0.3396 -0.3416 0.8764
f 277/277/277 278/278/278 279/279/279 280/280/280
v 1.1360 0.3675 0.5543
vt 0.8542 0.9454
vn 0.4616 0.7588 0.4595
v -1.1425 0.3675 0.5595
vt 0.7708 0.9454
vn -0.4595 0.7588 0.4616
v -1.1425 0.3430 0.5840
vt 0.7708 0.9438
vn -0.3396 0.3416 0.8764
v 1.1360 0.3430 0.5788
vt 0.8542 0.9438
vn 0.3436 0.3416 0.8748
f 281/281/281 282/282/282 283/283/283 284/284/284
v -1.1432 -0.0000 0.2410
vt 0.7708 0.8515
vn -0.3424 -0.8756 -0.3408
v 1.1353 -0.0000 0.2358
vt 0.8542 0.8515
vn 0.3408 -0.8756 -0.3424
v 1.1360 -0.0000 0.5543
vt 0.8542 0.8515
vn 0.0000 -1.0000 0.0000
v -1.1425 -0.0000 0.5595
vt 0.7708 0.8515
vn 0.0000 -1.0000 0.0000
f 285/285/285 286/286/286 287/287/287 288/288/288
v 1.1705 0.3920 0.0878
vt 0.8542 0.8843
vn 0.3436 -0.3416 0.8748
v 1.1705 0.7105 0.0878
vt 0.8542 0.8969
vn 0.3436 0.3416 0.8748
v -1.1080 0.7105 0.0930
vt 0.7708 0.8969
vn -0.3396 0.3416 0.8764
v -1.1080 0.3920 0.0930
vt 0.7708 0.8843
vn -0.3396 -0.3416 0.8764
f 289/289/289 290/290/290 291/291/291 292/292/292
v 1.1942 0.3920 -0.2553
vt 0.7308 0.8843
vn 0.8748 -0.3416 -0.3436
v 1.1942 0.7105 -0.2553
vt 0.7308 0.8969
vn 0.8748 0.3416 -0.3436
v 1.1949 0.7105 0.0632
vt 0.7308 0.8969
vn 0.8764 0.3416 0.3396
v 1.1949 0.3920 0.0632
vt 0.7308 0.8843
vn 0.8764 -0.3416 0.3396
f 293/293/293 294/294/294 295/295/295 296/296/296
v 1.1697 0.7350 -0.2552
vt 0.8542 0.9297
vn 0.3408 0.8756 -0.3424
v -1.1088 0.7350 -0.2500
vt 0.7708 0.9297
vn -0.3424 0.8756 -0.3408
v -1.1081 0.7350 0.0685
vt 0.7708 0.9297
vn 0.0000 1.0000 0.0000
v 1.1704 0.7350 0.0633
vt 0.8542 0.9297
vn 0.0000 1.0000 0.0000
f 297/297/297 298/298/298 299/299/299 300/300/300
v -1.1326 0.3920 0.0686
vt 0.6443 0.8843
vn -0.8748 -0.3416 0.3436
v -1.1326 0.7105 0.0686
vt 0.6443 0.8969
vn -0.8748 0.3416 0.3436
v -1.1333 0.7105 -0.2499
vt 0.6443 0.8969
vn -0.8764 0.3416 -0.3396
v -1.1333 0.3920 -0.2499
vt 0.6443 0.8843
vn -0.8764 -0.3416 -0.3396
f 301/301/301 302/302/302 303/303/303 304/304/304
v -1.1088 0.3920 -0.2745
vt 0.7708 0.8843
vn -0.0023 0.0000 -1.0000
v -1.1088 0.7105 -0.2745
vt 0.7708 0.8969
vn -0.0023 0.0000 -1.0000
v 1.1697 0.7105 -0.2797
vt 0.8542 0.8969
vn 0.3396 0.3416 -0.8764
v 1.1697 0.3920 -0.2797
vt 0.8542 0.8843
vn 0.3396 -0.3416 -0.8764
f 305/305/305 306/306/306 307/307/307 308/308/308
v -1.1081 0.3675 0.0685
vt 0.6458 0.9296
vn -0.4595 -0.7588 0.4616
v -1.1080 0.3920 0.0930
vt 0.6458 0.9312
vn -0.3396 -0.3416 0.8764
v -1.1326 0.3920 0.0686
vt 0.6443 0.9312
vn -0.8748 -0.3416 0.3436
f 309/309/309 310/310/310 311/311/311
v -1.1080 0.7105 0.0930
vt 0.6458 0.9438
vn -0.3396 0.3416 0.8764
v -1.1081 0.7350 0.0685
vt 0.6458 0.9454
vn -0.4595 0.7588 0.4616
v -1.1326 0.7105 0.0686
vt 0.6443 0.9438
vn -0.8748 0.3416 0.3436
f 312/312/312 313/313/313 314/314/314
v -1.1088 0.3675 -0.2500
vt 0.6458 0.8828
vn -0.3424 -0.8756 -0.3408
v -1.1333 0.3920 -0.2499
vt 0.6443 0.8843
vn -0.8764 -0.3416 -0.3396
v -1.1088 0.3920 -0.2745
vt 0.6458 0.8843
vn -0.4623 -0.4606 -0.7577
f 315/315/315 316/316/316 317/317/317
v -1.1088 0.7350 -0.2500
vt 0.6458 0.9454
vn -0.3424 0.8756 -0.3408
v -1.1088 0.7105 -0.2745
vt 0.6458 0.9438
vn -0.4623 0.4606 -0.7577
v -1.1333 0.7105 -0.2499
vt 0.6443 0.9438
vn -0.8764 0.3416 -0.3396
f 318/318/318 319/319/319 320/320/320
v 1.1704 0.3675 0.0633
vt 0.7292 0.9296
vn 0.4616 -0.7588 0.4595
v 1.1949 0.3920 0.0632
vt 0.7308 0.9312
vn 0.8764 -0.3416 0.3396
v 1.1705 0.3920 0.0878
vt 0.7292 0.9312
vn 0.3436 -0.3416 0.8748
f 321/321/321 322/322/322 323/323/323
v 1.1704 0.7350 0.0633
vt 0.7292 0.9454
vn 0.4616 0.7588 0.4595
v 1.1705 0.7105 0.0878
vt 0.7292 0.9438
vn 0.3436 0.3416 0.8748
v 1.1949 0.7105 0.0632
vt 0.7308 0.9438
vn 0.8764 0.3416 0.3396
f 324/324/324 325/325/325 326/326/326
v 1.1697 0.3675 -0.2552
vt 0.7292 0.9296
vn 0.3408 -0.8756 -0.3424
v 1.1697 0.3920 -0.2797
vt 0.7292 0.9312
vn 0.3396 -0.3416 -0.8764
v 1.1942 0.3920 -0.2553
vt 0.7308 0.9312
vn 0.8748 -0.3416 -0.3436
f 327/327/327 328/328/328 329/329/329
v 1.1697 0.7350 -0.2552
vt 0.7292 0.9454
vn 0.3408 0.8756 -0.3424
v 1.1942 0.7105 -0.2553
vt 0.7308 0.9438
vn 0.8748 0.3416 -0.3436
v 1.1697 0.7105 -0.2797
vt 0.7292 0.9438
vn 0.3396 0.3416 -0.8764
f 330/330/330 331/331/331 332/332/332
v -1.1088 0.3675 -0.2500
vt 0.6458 0.9296
vn -0.3424 -0.8756 -0.3408
v -1.1081 0.3675 0.0685
vt 0.6458 0.9296
vn -0.4595 -0.7588 0.4616
v -1.1326 0.3920 0.0686
vt 0.6443 0.9312
vn -0.8748 -0.3416 0.3436
v -1.1333 0.3920 -0.2499
vt 0.6443 0.9312
vn -0.8764 -0.3416 -0.3396
f 333/333/333 334/334/334 335/335/335 336/336/336
v -1.1080 0.3920 0.0930
vt 0.6458 0.9312
vn -0.3396 -0.3416 0.8764
v -1.1080 0.7105 0.0930
vt 0.6458 0.9438
vn -0.3396 0.3416 0.8764
v -1.1326 0.7105 0.0686
vt 0.6443 0.9438
vn -0.8748 0.3416 0.3436
v -1.1326 0.3920 0.0686
vt 0.6443 0.9312
vn -0.8748 -0.3416 0.3436
f 337/337/337 338/338/338 339/339/339 340/340/340
v -1.1081 0.7350 0.0685
vt 0.6458 0.9454
vn -0.4595 0.7588 0.4616
v -1.1088 0.7350 -0.2500
vt 0.6458 0.9454
vn -0.3424 0.8756 -0.3408
v -1.1333 0.7105 -0.2499
vt 0.6443 0.9438
vn -0.8764 0.3416 -0.3396
v -1.1326 0.7105 0.0686
vt 0.6443 0.9438
vn -0.8748 0.3416 0.3436
f 341/341/341 342/342/342 343/343/343 344/344/344
v -1.1088 0.7105 -0.2745
vt 0.6458 0.9438
vn -0.4623 0.4606 -0.7577
v -1.1088 0.3920 -0.2745
vt 0.6458 0.9312
vn -0.4623 -0.4606 -0.7577
v -1.1333 0.3920 -0.2499
vt 0.6443 0.9312
vn -0.8764 -0.3416 -0.3396
v -1.1333 0.7105 -0.2499
vt 0.6443 0.9438
vn -0.8764 0.3416 -0.3396
f 345/345/345 346/346/346 347/347/347 348/348/348
v 1.1697 0.3675 -0.2552
vt 0.8542 0.9296
vn 0.3408 -0.8756 -0.3424
v -1.1088 0.3675 -0.2500
vt 0.7708 0.9296
vn -0.3424 -0.8756 -0.3408
v -1.1088 0.3920 -0.2745
vt 0.7708 0.9312
vn -0.4623 -0.4606 -0.7577
v 1.1697 0.3920 -0.2797
vt 0.8542 0.9312
vn 0.3396 -0.3416 -0.8764
f 349/349/349 350/350/350 351/351/351 352/352/352
v -1.1088 0.7350 -0.2500
vt 0.7708 0.9454
vn -0.3424 0.8756 -0.3408
v 1.1697 0.7350 -0.2552
vt 0.8542 0.9454
vn 0.3408 0.8756 -0.3424
v 1.1697 0.7105 -0.2797
vt 0.8542 0.9438
vn 0.3396 0.3416 -0.8764
v -1.1088 0.7105 -0.2745
vt 0.7708 0.9438
vn -0.4623 0.4606 -0.7577
f 353/353/353 354/354/354 355/355/355 356/356/356
v 1.1942 0.7105 -0.2553
vt 0.7308 0.9438
vn 0.8748 0.3416 -0.3436
v 1.1942 0.3920 -0.2553
vt 0.7308 0.9312
vn 0.8748 -0.3416 -0.3436
v 1.1697 0.3920 -0.2797
vt 0.7292 0.9312
vn 0.3396 -0.3416 -0.8764
v 1.1697 0.7105 -0.2797
vt 0.7292 0.9438
vn 0.3396 0.3416 -0.8764
f 357/357/357 358/358/358 359/359/359 360/360/360
v 1.1704 0.3675 0.0633
vt 0.7292 0.9296
vn 0.4616 -0.7588 0.4595
v 1.1697 0.3675 -0.2552
vt 0.7292 0.9296
vn 0.3408 -0.8756 -0.3424
v 1.1942 0.3920 -0.2553
vt 0.7308 0.9312
vn 0.8748 -0.3416 -0.3436
v 1.1949 0.3920 0.0632
vt 0.7308 0.9312
vn 0.8764 -0.3416 0.3396
f 361/361/361 362/362/362 363/363/363 364/364/364
v 1.1697 0.7350 -0.2552
vt 0.7292 0.9454
vn 0.3408 0.8756 -0.3424
v 1.1704 0.7350 0.0633
vt 0.7292 0.9454
vn 0.4616 0.7588 0.4595
v 1.1949 0.7105 0.0632
vt 0.7308 0.9438
vn 0.8764 0.3416 0.3396
v 1.1942 0.7105 -0.2553
vt 0.7308 0.9438
vn 0.8748 0.3416 -0.3436
f 365/365/365 366/366/366 367/367/367 368/368/368
v 1.1705 0.7105 0.0878
vt 0.7292 0.9438
vn 0.3436 0.3416 0.8748
v 1.1705 0.3920 0.0878
vt 0.7292 0.9312
vn 0.3436 -0.3416 0.8748
v 1.1949 0.3920 0.0632
vt 0.7308 0.9312
vn 0.8764 -0.3416 0.3396
v 1.1949 0.7105 0.0632
vt 0.7308 0.9438
vn 0.8764 0.3416 0.3396
f 369/369/369 370/370/370 371/371/371 372/372/372
v -1.1081 0.3675 0.0685
vt 0.7708 0.9296
vn -0.4595 -0.7588 0.4616
v 1.1704 0.3675 0.0633
vt 0.8542 0.9296
vn 0.4616 -0.7588 0.4595
v 1.1705 0.3920 0.0878
vt 0.8542 0.9312
vn 0.3436 -0.3416 0.8748
v -1.1080 0.3920 0.0930
vt 0.7708 0.9312
vn -0.3396 -0.3416 0.8764
f 373/373/373 374/374/374 375/375/375 376/376/376
v 1.1704 0.7350 0.0633
vt 0.8542 0.9454
vn 0.4616 0.7588 0.4595
v -1.1081 0.7350 0.0685
vt 0.7708 0.9454
vn -0.4595 0.7588 0.4616
v -1.1080 0.7105 0.0930
vt 0.7708 0.9438
vn -0.3396 0.3416 0.8764
v 1.1705 0.7105 0.0878
vt 0.8542 0.9438
vn 0.3436 0.3416 0.8748
f 377/377/377 378/378/378 379/379/379 380/380/380
v -1.1088 0.3675 -0.2500
vt 0.7708 0.8515
vn -0.3424 -0.8756 -0.3408
v 1.1697 0.3675 -0.2552
vt 0.8542 0.8515
vn 0.3408 -0.8756 -0.3424
v 1.1704 0.3675 0.0633
vt 0.8542 0.8515
vn 0.0000 -1.0000 0.0000
v -1.1081 0.3675 0.0685
vt 0.7708 0.8515
vn 0.0000 -1.0000 0.0000
f 381/381/381 382/382/382 383/383/383 384/384/384
v 1.0979 0.3920 0.5044
vt 0.8542 0.8843
vn 0.3436 -0.3416 0.8748
v 1.0979 0.7105 0.5044
vt 0.8542 0.8969
vn 0.3436 0.3416 0.8748
v -1.1806 0.7105 0.5097
vt 0.7708 0.8969
vn -0.3396 0.3416 0.8764
v -1.1806 0.3920 0.5097
vt 0.7708 0.8843
vn -0.3396 -0.3416 0.8764
f 385/385/385 386/386/386 387/387/387 388/388/388
v 1.1216 0.3920 0.1614
vt 0.7308 0.8843
vn 0.8748 -0.3416 -0.3436
v 1.1216 0.7105 0.1614
vt 0.7308 0.8969
vn 0.8748 0.3416 -0.3436
v 1.1224 0.7105 0.4799
vt 0.7308 0.8969
vn 0.8764 0.3416 0.3396
v 1.1224 0.3920 0.4799
vt 0.7308 0.8843
vn 0.8764 -0.3416 0.3396
f 389/389/389 390/390/390 391/391/391 392/392/392
v 1.0971 0.7350 0.1614
vt 0.8542 0.9297
vn 0.3408 0.8756 -0.3424
v -1.1814 0.7350 0.1667
vt 0.7708 0.9297
vn -0.3424 0.8756 -0.3408
v -1.1806 0.7350 0.4852
vt 0.7708 0.9297
vn 0.0000 1.0000 0.0000
v 1.0979 0.7350 0.4799
vt 0.8542 0.9297
vn 0.3424 0.8756 0.3408
f 393/393/393 394/394/394 395/395/395 396/396/396
v -1.2051 0.3920 0.4852
vt 0.6443 0.8843
vn -0.8748 -0.3416 0.3436
v -1.2051 0.7105 0.4852
vt 0.6443 0.8969
vn -0.8748 0.3416 0.3436
v -1.2059 0.7105 0.1667
vt 0.6443 0.8969
vn -0.8764 0.3416 -0.3396
v -1.2059 0.3920 0.1667
vt 0.6443 0.8843
vn -0.8764 -0.3416 -0.3396
f 397/397/397 398/398/398 399/399/399 400/400/400
v -1.1814 0.3920 0.1422
vt 0.7708 0.8843
vn -0.3436 -0.3416 -0.8748
v -1.1814 0.7105 0.1422
vt 0.7708 0.8969
vn -0.3436 0.3416 -0.8748
v 1.0971 0.7105 0.1369
vt 0.8542 0.8969
vn 0.3396 0.3416 -0.8764
v 1.0971 0.3920 0.1369
vt 0.8542 0.8843
vn 0.3396 -0.3416 -0.8764
f 401/401/401 402/402/402 403/403/403 404/404/404
v -1.1806 0.3675 0.4852
vt 0.6458 0.9296
vn -0.4595 -0.7588 0.4616
v -1.1806 0.3920 0.5097
vt 0.6458 0.9312
vn -0.3396 -0.3416 0.8764
v -1.2051 0.3920 0.4852
vt 0.6443 0.9312
vn -0.8748 -0.3416 0.3436
f 405/405/405 406/406/406 407/407/407
v -1.1806 0.7105 0.5097
vt 0.6458 0.9438
vn -0.3396 0.3416 0.8764
v -1.1806 0.7350 0.4852
vt 0.6458 0.9454
vn -0.4595 0.7588 0.4616
v -1.2051 0.7105 0.4852
vt 0.6443 0.9438
vn -0.8748 0.3416 0.3436
f 408/408/408 409/409/409 410/410/410
v -1.1814 0.3675 0.1667
vt 0.6458 0.8828
vn -0.3424 -0.8756 -0.3408
v -1.2059 0.3920 0.1667
vt 0.6443 0.8843
vn -0.8764 -0.3416 -0.3396
v -1.1814 0.3920 0.1422
vt 0.6458 0.8843
vn -0.3436 -0.3416 -0.8748
f 411/411/411 412/412/412 413/413/413
v -1.1814 0.7350 0.1667
vt 0.6458 0.9454
vn -0.3424 0.8756 -0.3408
v -1.1814 0.7105 0.1422
vt 0.6458 0.9438
vn -0.3436 0.3416 -0.8748
v -1.2059 0.7105 0.1667
vt 0.6443 0.9438
vn -0.8764 0.3416 -0.3396
f 414/414/414 415/415/415 416/416/416
v 1.0979 0.3675 0.4799
vt 0.7292 0.9296
vn 0.4616 -0.7588 0.4595
v 1.1224 0.3920 0.4799
vt 0.7308 0.9312
vn 0.8764 -0.3416 0.3396
v 1.0979 0.3920 0.5044
vt 0.7292 0.9312
vn 0.3436 -0.3416 0.8748
f 417/417/417 418/418/418 419/419/419
v 1.0979 0.7350 0.4799
vt 0.7292 0.9454
vn 0.3424 0.8756 0.3408
v 1.0979 0.7105 0.5044
vt 0.7292 0.9438
vn 0.3436 0.3416 0.8748
v 1.1224 0.7105 0.4799
vt 0.7308 0.9438
vn 0.8764 0.3416 0.3396
f 420/420/420 421/421/421 422/422/422
v 1.0971 0.3675 0.1614
vt 0.7292 0.9296
vn 0.3408 -0.8756 -0.3424
v 1.0971 0.3920 0.1369
vt 0.7292 0.9312
vn 0.3396 -0.3416 -0.8764
v 1.1216 0.3920 0.1614
vt 0.7308 0.9312
vn 0.8748 -0.3416 -0.3436
f 423/423/423 424/424/424 425/425/425
v 1.0971 0.7350 0.1614
vt 0.7292 0.9454
vn 0.3408 0.8756 -0.3424
v 1.1216 0.7105 0.1614
vt 0.7308 0.9438
vn 0.8748 0.3416 -0.3436
v 1.0971 0.7105 0.1369
vt 0.7292 0.9438
vn 0.3396 0.3416 -0.8764
f 426/426/426 427/427/427 428/428/428
v -1.1814 0.3675 0.1667
vt 0.6458 0.9296
vn -0.3424 -0.8756 -0.3408
v -1.1806 0.3675 0.4852
vt 0.6458 0.9296
vn -0.4595 -0.7588 0.4616
v -1.2051 0.3920 0.4852
vt 0.6443 0.9312
vn -0.8748 -0.3416 0.3436
v -1.2059 0.3920 0.1667
vt 0.6443 0.9312
vn -0.8764 -0.3416 -0.3396
f 429/429/429 430/430/430 431/431/431 432/432/432
v -1.1806 0.3920 0.5097
vt 0.6458 0.9312
vn -0.3396 -0.3416 0.8764
v -1.1806 0.7105 0.5097
vt 0.6458 0.9438
vn -0.3396 0.3416 0.8764
v -1.2051 0.7105 0.4852
vt 0.6443 0.9438
vn -0.8748 0.3416 0.3436
v -1.2051 0.3920 0.4852
vt 0.6443 0.9312
vn -0.8748 -0.3416 0.3436
f 433/433/433 434/434/434 435/435/435 436/436/436
v -1.1806 0.7350 0.4852
vt 0.6458 0.9454
vn -0.4595 0.7588 0.4616
v -1.1814 0.7350 0.1667
vt 0.6458 0.9454
vn -0.3424 0.8756 -0.3408
v -1.2059 0.7105 0.1667
vt 0.6443 0.9438
vn -0.8764 0.3416 -0.3396
v -1.2051 0.7105 0.4852
vt 0.6443 0.9438
vn -0.8748 0.3416 0.3436
f 437/437/437 438/438/438 439/439/439 440/440/440
v -1.1814 0.7105 0.1422
vt 0.6458 0.9438
vn -0.3436 0.3416 -0.8748
v -1.1814 0.3920 0.1422
vt 0.6458 0.9312
vn -0.3436 -0.3416 -0.8748
v -1.2059 0.3920 0.1667
vt 0.6443 0.9312
vn -0.8764 -0.3416 -0.3396
v -1.2059 0.7105 0.1667
vt 0.6443 0.9438
vn -0.8764 0.3416 -0.3396
f 441/441/441 442/442/442 443/443/443 444/444/444
v 1.0971 0.3675 0.1614
vt 0.8542 0.9296
vn 0.3408 -0.8756 -0.3424
v -1.1814 0.3675 0.1667
vt 0.7708 0.9296
vn -0.3424 -0.8756 -0.3408
v -1.1814 0.3920 0.1422
vt 0.7708 0.9312
vn -0.3436 -0.3416 -0.8748
v 1.0971 0.3920 0.1369
vt 0.8542 0.9312
vn 0.3396 -0.3416 -0.8764
f 445/445/445 446/446/446 447/447/447 448/448/448
v -1.1814 0.7350 0.1667
vt 0.7708 0.9454
vn -0.3424 0.8756 -0.3408
v 1.0971 0.7350 0.1614
vt 0.8542 0.9454
vn 0.3408 0.8756 -0.3424
v 1.0971 0.7105 0.1369
vt 0.8542 0.9438
vn 0.3396 0.3416 -0.8764
v -1.1814 0.7105 0.1422
vt 0.7708 0.9438
vn -0.3436 0.3416 -0.8748
f 449/449/449 450/450/450 451/451/451 452/452/452
v 1.1216 0.7105 0.1614
vt 0.7308 0.9438
vn 0.8748 0.3416 -0.3436
v 1.1216 0.3920 0.1614
vt 0.7308 0.9312
vn 0.8748 -0.3416 -0.3436
v 1.0971 0.3920 0.1369
vt 0.7292 0.9312
vn 0.3396 -0.3416 -0.8764
v 1.0971 0.7105 0.1369
vt 0.7292 0.9438
vn 0.3396 0.3416 -0.8764
f 453/453/453 454/454/454 455/455/455 456/456/456
v 1.0979 0.3675 0.4799
vt 0.7292 0.9296
vn 0.4616 -0.7588 0.4595
v 1.0971 0.3675 0.1614
vt 0.7292 0.9296
vn 0.3408 -0.8756 -0.3424
v 1.1216 0.3920 0.1614
vt 0.7308 0.9312
vn 0.8748 -0.3416 -0.3436
v 1.1224 0.3920 0.4799
vt 0.7308 0.9312
vn 0.8764 -0.3416 0.3396
f 457/457/457 458/458/458 459/459/459 460/460/460
v 1.0971 0.7350 0.1614
vt 0.7292 0.9454
vn 0.3408 0.8756 -0.3424
v 1.0979 0.7350 0.4799
vt 0.7292 0.9454
vn 0.3424 0.8756 0.3408
v 1.1224 0.7105 0.4799
vt 0.7308 0.9438
vn 0.8764 0.3416 0.3396
v 1.1216 0.7105 0.1614
vt 0.7308 0.9438
vn 0.8748 0.3416 -0.3436
f 461/461/461 462/462/462 463/463/463 464/464/464
v 1.0979 0.7105 0.5044
vt 0.7292 0.9438
vn 0.3436 0.3416 0.8748
v 1.0979 0.3920 0.5044
vt 0.7292 0.9312
vn 0.3436 -0.3416 0.8748
v 1.1224 0.3920 0.4799
vt 0.7308 0.9312
vn 0.8764 -0.3416 0.3396
v 1.1224 0.7105 0.4799
vt 0.7308 0.9438
vn 0.8764 0.3416 0.3396
f 465/465/465 466/466/466 467/467/467 468/468/468
v -1.1806 0.3675 0.4852
vt 0.7708 0.9296
vn -0.4595 -0.7588 0.4616
v 1.0979 0.3675 0.4799
vt 0.8542 0.9296
vn 0.4616 -0.7588 0.4595
v 1.0979 0.3920 0.5044
vt 0.8542 0.9312
vn 0.3436 -0.3416 0.8748
v -1.1806 0.3920 0.5097
vt 0.7708 0.9312
vn -0.3396 -0.3416 0.8764
f 469/469/469 470/470/470 471/471/471 472/472/472
v 1.0979 0.7350 0.4799
vt 0.8542 0.9454
vn 0.3424 0.8756 0.3408
v -1.1806 0.7350 0.4852
vt 0.7708 0.9454
vn -0.4595 0.7588 0.4616
v -1.1806 0.7105 0.5097
vt 0.7708 0.9438
vn -0.3396 0.3416 0.8764
v 1.0979 0.7105 0.5044
vt 0.8542 0.9438
vn 0.3436 0.3416 0.8748
f 473/473/473 474/474/474 475/475/475 476/476/476
v -1.1814 0.3675 0.1667
vt 0.7708 0.8515
vn -0.3424 -0.8756 -0.3408
v 1.0971 0.3675 0.1614
vt 0.8542 0.8515
vn 0.3408 -0.8756 -0.3424
v 1.0979 0.3675 0.4799
vt 0.8542 0.8515
vn 0.0000 -1.0000 0.0000
v -1.1806 0.3675 0.4852
vt 0.7708 0.8515
vn 0.0000 -1.0000 0.0000
f 477/477/477 478/478/478 479/479/479 480/480/480
