# Blender 4.5.13 LTS
# www.blender.org
o charcoal
v 0.000000 0.000000 -0.300000
v 0.000000 0.050000 -0.300000
v 0.092705 0.000000 -0.285317
v 0.092705 0.050000 -0.285317
v 0.176336 0.000000 -0.242705
v 0.176336 0.050000 -0.242705
v 0.242705 0.000000 -0.176336
v 0.242705 0.050000 -0.176336
v 0.285317 0.000000 -0.092705
v 0.285317 0.050000 -0.092705
v 0.300000 0.000000 0.000000
v 0.300000 0.050000 0.000000
v 0.285317 0.000000 0.092705
v 0.285317 0.050000 0.092705
v 0.242705 0.000000 0.176336
v 0.242705 0.050000 0.176336
v 0.176336 0.000000 0.242705
v 0.176336 0.050000 0.242705
v 0.092705 0.000000 0.285317
v 0.092705 0.050000 0.285317
v 0.000000 0.000000 0.300000
v 0.000000 0.050000 0.300000
v -0.092705 0.000000 0.285317
v -0.092705 0.050000 0.285317
v -0.176336 0.000000 0.242705
v -0.176336 0.050000 0.242705
v -0.242705 0.000000 0.176336
v -0.242705 0.050000 0.176336
v -0.285317 0.000000 0.092705
v -0.285317 0.050000 0.092705
v -0.300000 0.000000 0.000000
v -0.300000 0.050000 0.000000
v -0.285317 0.000000 -0.092705
v -0.285317 0.050000 -0.092705
v -0.242705 0.000000 -0.176336
v -0.242705 0.050000 -0.176336
v -0.176336 0.000000 -0.242705
v -0.176336 0.050000 -0.242705
v -0.092705 0.000000 -0.285317
v -0.092705 0.050000 -0.285317
v 0.000000 0.035000 -0.305000
v 0.000000 0.055000 -0.305000
v 0.094250 0.035000 -0.290072
v 0.094250 0.055000 -0.290072
v 0.179274 0.035000 -0.246750
v 0.179274 0.055000 -0.246750
v 0.246750 0.035000 -0.179274
v 0.246750 0.055000 -0.179274
v 0.290072 0.035000 -0.094250
v 0.290072 0.055000 -0.094250
v 0.305000 0.035000 0.000000
v 0.305000 0.055000 0.000000
v 0.290072 0.035000 0.094250
v 0.290072 0.055000 0.094250
v 0.246750 0.035000 0.179274
v 0.246750 0.055000 0.179274
v 0.179274 0.035000 0.246750
v 0.179274 0.055000 0.246750
v 0.094250 0.035000 0.290072
v 0.094250 0.055000 0.290072
v 0.000000 0.035000 0.305000
v 0.000000 0.055000 0.305000
v -0.094250 0.035000 0.290072
v -0.094250 0.055000 0.290072
v -0.179274 0.035000 0.246750
v -0.179274 0.055000 0.246750
v -0.246750 0.035000 0.179274
v -0.246750 0.055000 0.179274
v -0.290072 0.035000 0.094250
v -0.290072 0.055000 0.094250
v -0.305000 0.035000 0.000000
v -0.305000 0.055000 0.000000
v -0.290072 0.035000 -0.094250
v -0.290072 0.055000 -0.094250
v -0.246750 0.035000 -0.179274
v -0.246750 0.055000 -0.179274
v -0.179274 0.035000 -0.246750
v -0.179274 0.055000 -0.246750
v -0.094250 0.035000 -0.290072
v -0.094250 0.055000 -0.290072
v 0.230000 0.040000 0.000000
v 0.207223 0.040000 -0.099793
v 0.143403 0.040000 -0.179821
v 0.051180 0.040000 -0.224233
v -0.051180 0.040000 -0.224233
v -0.143403 0.040000 -0.179821
v -0.207223 0.040000 -0.099793
v -0.230000 0.040000 -0.000000
v -0.207223 0.040000 0.099793
v -0.143403 0.040000 0.179821
v -0.051180 0.040000 0.224233
v 0.051180 0.040000 0.224233
v 0.143403 0.040000 0.179821
v 0.207223 0.040000 0.099793
v 0.210000 0.350000 0.000000
v 0.189203 0.350000 -0.091116
v 0.130933 0.350000 -0.164185
v 0.046729 0.350000 -0.204735
v -0.046729 0.350000 -0.204735
v -0.130933 0.350000 -0.164185
v -0.189203 0.350000 -0.091116
v -0.210000 0.350000 -0.000000
v -0.189203 0.350000 0.091116
v -0.130933 0.350000 0.164185
v -0.046729 0.350000 0.204735
v 0.046729 0.350000 0.204735
v 0.130933 0.350000 0.164185
v 0.189203 0.350000 0.091116
v 0.180000 0.620000 0.000000
v 0.162174 0.620000 -0.078099
v 0.112228 0.620000 -0.140730
v 0.040054 0.620000 -0.175487
v -0.040054 0.620000 -0.175487
v -0.112228 0.620000 -0.140730
v -0.162174 0.620000 -0.078099
v -0.180000 0.620000 -0.000000
v -0.162174 0.620000 0.078099
v -0.112228 0.620000 0.140730
v -0.040054 0.620000 0.175487
v 0.040054 0.620000 0.175487
v 0.112228 0.620000 0.140730
v 0.162174 0.620000 0.078099
v 0.170000 0.780000 0.000000
v 0.153165 0.780000 -0.073760
v 0.105993 0.780000 -0.132911
v 0.037829 0.780000 -0.165738
v -0.037829 0.780000 -0.165738
v -0.105993 0.780000 -0.132911
v -0.153165 0.780000 -0.073760
v -0.170000 0.780000 -0.000000
v -0.153165 0.780000 0.073760
v -0.105993 0.780000 0.132911
v -0.037829 0.780000 0.165738
v 0.037829 0.780000 0.165738
v 0.105993 0.780000 0.132911
v 0.153165 0.780000 0.073760
v 0.100000 0.860000 0.000000
v 0.090097 0.860000 -0.043388
v 0.062349 0.860000 -0.078183
v 0.022252 0.860000 -0.097493
v -0.022252 0.860000 -0.097493
v -0.062349 0.860000 -0.078183
v -0.090097 0.860000 -0.043388
v -0.100000 0.860000 -0.000000
v -0.090097 0.860000 0.043388
v -0.062349 0.860000 0.078183
v -0.022252 0.860000 0.097493
v 0.022252 0.860000 0.097493
v 0.062349 0.860000 0.078183
v 0.090097 0.860000 0.043388
v 0.000000 0.440000 -0.210000
v 0.000000 0.490000 -0.210000
v 0.091116 0.440000 -0.189203
v 0.091116 0.490000 -0.189203
v 0.164185 0.440000 -0.130933
v 0.164185 0.490000 -0.130933
v 0.204735 0.440000 -0.046729
v 0.204735 0.490000 -0.046729
v 0.204735 0.440000 0.046729
v 0.204735 0.490000 0.046729
v 0.164185 0.440000 0.130933
v 0.164185 0.490000 0.130933
v 0.091116 0.440000 0.189203
v 0.091116 0.490000 0.189203
v 0.000000 0.440000 0.210000
v 0.000000 0.490000 0.210000
v -0.091116 0.440000 0.189203
v -0.091116 0.490000 0.189203
v -0.164185 0.440000 0.130933
v -0.164185 0.490000 0.130933
v -0.204735 0.440000 0.046729
v -0.204735 0.490000 0.046729
v -0.204735 0.440000 -0.046729
v -0.204735 0.490000 -0.046729
v -0.164185 0.440000 -0.130933
v -0.164185 0.490000 -0.130933
v -0.091116 0.440000 -0.189203
v -0.091116 0.490000 -0.189203
v -0.166240 0.477138 -0.046001
v -0.154922 0.537752 -0.115307
v -0.090756 0.528621 -0.086755
v -0.120168 0.543776 -0.010364
v -0.198914 0.555593 0.005615
v -0.224115 0.548496 -0.060546
v -0.099310 0.646020 -0.127997
v -0.077425 0.650434 -0.059465
v -0.144678 0.667297 -0.000207
v -0.209134 0.671246 -0.033295
v -0.181331 0.659049 -0.112130
v -0.132830 0.729899 -0.074801
v -0.125757 0.482715 -0.066827
v -0.162396 0.491565 -0.084207
v -0.117780 0.517680 -0.111257
v -0.196854 0.529900 -0.095617
v -0.201161 0.497103 -0.051855
v -0.141988 0.489685 -0.021220
v -0.100672 0.529012 -0.046316
v -0.189030 0.498325 -0.012414
v -0.161356 0.539194 0.009576
v -0.219598 0.545570 -0.022099
v -0.170701 0.595549 -0.123074
v -0.211853 0.604640 -0.091036
v -0.089198 0.585991 -0.112412
v -0.124053 0.588300 -0.132584
v -0.092630 0.595697 -0.031213
v -0.074924 0.588383 -0.074858
v -0.177060 0.612202 0.015697
v -0.128886 0.604540 0.004334
v -0.222376 0.611199 -0.045676
v -0.215311 0.615048 -0.003701
v -0.138604 0.661016 -0.129816
v -0.078790 0.655690 -0.098779
v -0.105951 0.665904 -0.026515
v -0.180336 0.677506 -0.011741
v -0.200188 0.672226 -0.073922
v -0.110493 0.702917 -0.108167
v -0.157556 0.704033 -0.096572
v -0.095757 0.709096 -0.068635
v -0.137548 0.708922 -0.035684
v -0.174318 0.717644 -0.053152
v 0.141166 0.471414 -0.021428
v 0.110260 0.532130 -0.094828
v 0.179999 0.520734 -0.107831
v 0.202230 0.545088 -0.030703
v 0.148374 0.565911 0.026789
v 0.091583 0.558021 -0.013028
v 0.151677 0.635148 -0.149485
v 0.211408 0.644129 -0.109377
v 0.188467 0.665697 -0.026287
v 0.120708 0.677399 -0.013295
v 0.095373 0.657431 -0.090641
v 0.158700 0.726635 -0.097986
v 0.161726 0.485021 -0.065159
v 0.121750 0.488164 -0.058810
v 0.143190 0.511271 -0.109759
v 0.093275 0.536534 -0.052955
v 0.108414 0.497537 -0.007877
v 0.175767 0.495451 -0.021093
v 0.198228 0.522093 -0.069801
v 0.143893 0.504792 0.014952
v 0.180647 0.546146 0.010191
v 0.113948 0.554375 0.020188
v 0.093303 0.592038 -0.099529
v 0.083246 0.607788 -0.049326
v 0.168780 0.574112 -0.142001
v 0.127001 0.579589 -0.133313
v 0.216408 0.592253 -0.070619
v 0.199531 0.580785 -0.112715
v 0.173582 0.620928 0.015170
v 0.203206 0.607472 -0.022905
v 0.099594 0.619555 -0.006354
v 0.132783 0.623733 0.015176
v 0.119534 0.653538 -0.129779
v 0.185265 0.644630 -0.138439
v 0.209275 0.666319 -0.067362
v 0.156762 0.688107 -0.010590
v 0.099743 0.681184 -0.049787
v 0.156164 0.696094 -0.135649
v 0.123069 0.709271 -0.100664
v 0.189307 0.696848 -0.109266
v 0.177358 0.708308 -0.061152
v 0.137629 0.721302 -0.054557
v -0.021468 0.823668 -0.077431
v 0.061652 0.865377 -0.084100
v 0.034514 0.854455 -0.002294
v -0.055898 0.876868 -0.010799
v -0.081543 0.898350 -0.097077
v -0.007623 0.891335 -0.139549
v 0.081143 0.941544 -0.023104
v 0.007744 0.949123 0.020821
v -0.063151 0.975951 -0.035314
v -0.034668 0.985838 -0.117964
v 0.054628 0.962153 -0.108084
v 0.020391 1.011499 -0.043444
v 0.007026 0.829461 -0.037858
v 0.024504 0.831107 -0.084618
v 0.058158 0.847957 -0.040960
v 0.031117 0.871778 -0.120286
v -0.016955 0.847245 -0.117831
v -0.044303 0.840098 -0.041825
v -0.012648 0.857849 0.001198
v -0.060522 0.850773 -0.092018
v -0.079881 0.882381 -0.053039
v -0.051107 0.890610 -0.128422
v 0.071358 0.912100 -0.104224
v 0.028495 0.927864 -0.138554
v 0.069292 0.894378 -0.003739
v 0.081817 0.900511 -0.053062
v -0.027884 0.912305 0.016869
v 0.023807 0.900334 0.019363
v -0.081620 0.939442 -0.066922
v -0.071678 0.927936 -0.015577
v -0.024631 0.940346 -0.142110
v -0.066923 0.944746 -0.114337
v 0.081564 0.958412 -0.067107
v 0.053510 0.950773 0.011639
v -0.032194 0.969890 0.002372
v -0.054826 0.987916 -0.077950
v 0.013115 0.984449 -0.123461
v 0.059945 0.988567 -0.028288
v 0.044587 1.000415 -0.078292
v 0.016657 0.991477 -0.003185
v -0.024468 1.008762 -0.035418
v -0.007458 1.016108 -0.083504
v -0.000191 0.814194 -0.038442
v 0.090421 0.875994 0.044083
v -0.033081 0.868927 0.084569
v -0.113392 0.889003 -0.022012
v -0.034992 0.913095 -0.130355
v 0.087422 0.905231 -0.088514
v 0.033291 0.985111 0.104505
v -0.087586 0.994852 0.068661
v -0.086370 1.020691 -0.061661
v 0.031269 1.026633 -0.099389
v 0.103054 1.005436 0.000917
v 0.000173 1.073100 0.015781
v -0.019659 0.824473 0.029631
v 0.050373 0.833882 0.004527
v 0.034000 0.855979 0.080328
v 0.107074 0.878683 -0.025657
v 0.049317 0.850715 -0.069879
v -0.060218 0.845352 -0.031512
v -0.085542 0.865939 0.039905
v -0.020905 0.848945 -0.098091
v -0.081783 0.895857 -0.084144
v 0.031746 0.901491 -0.127803
v 0.120399 0.941599 0.029305
v 0.113134 0.957930 -0.048625
v 0.000824 0.924349 0.112476
v 0.072206 0.928810 0.090692
v -0.118585 0.941688 0.030486
v -0.071565 0.928595 0.092689
v -0.075372 0.972119 -0.115108
v -0.109490 0.957640 -0.045743
v 0.066465 0.969880 -0.105370
v -0.000792 0.974652 -0.127705
v 0.087482 1.007916 0.069310
v -0.030028 0.995885 0.101430
v -0.096760 1.014447 0.004149
v -0.030772 1.035095 -0.091753
v 0.077544 1.026202 -0.055239
v 0.020142 1.047367 0.074877
v 0.064268 1.061686 0.012959
v -0.049314 1.049279 0.049875
v -0.048189 1.061084 -0.023897
v 0.018168 1.066008 -0.046625
v 0.000000 1.040000 -0.260000
v 0.000000 1.060000 -0.260000
v 0.084190 1.040000 -0.243253
v 0.084190 1.060000 -0.243253
v 0.155563 1.040000 -0.195563
v 0.155563 1.060000 -0.195563
v 0.203253 1.040000 -0.124190
v 0.203253 1.060000 -0.124190
v 0.220000 1.040000 -0.040000
v 0.220000 1.060000 -0.040000
v 0.203253 1.040000 0.044190
v 0.203253 1.060000 0.044190
v 0.155563 1.040000 0.115563
v 0.155563 1.060000 0.115563
v 0.084190 1.040000 0.163253
v 0.084190 1.060000 0.163253
v 0.000000 1.040000 0.180000
v 0.000000 1.060000 0.180000
v -0.084190 1.040000 0.163253
v -0.084190 1.060000 0.163253
v -0.155563 1.040000 0.115563
v -0.155563 1.060000 0.115563
v -0.203253 1.040000 0.044190
v -0.203253 1.060000 0.044190
v -0.220000 1.040000 -0.040000
v -0.220000 1.060000 -0.040000
v -0.203253 1.040000 -0.124190
v -0.203253 1.060000 -0.124190
v -0.155563 1.040000 -0.195563
v -0.155563 1.060000 -0.195563
v -0.084190 1.040000 -0.243253
v -0.084190 1.060000 -0.243253
v 0.000000 1.050000 -0.140000
v 0.000000 1.170000 -0.120000
v 0.050000 1.050000 -0.126603
v 0.040000 1.170000 -0.109282
v 0.086603 1.050000 -0.090000
v 0.069282 1.170000 -0.080000
v 0.100000 1.050000 -0.040000
v 0.080000 1.170000 -0.040000
v 0.086603 1.050000 0.010000
v 0.069282 1.170000 0.000000
v 0.050000 1.050000 0.046603
v 0.040000 1.170000 0.029282
v 0.000000 1.050000 0.060000
v 0.000000 1.170000 0.040000
v -0.050000 1.050000 0.046603
v -0.040000 1.170000 0.029282
v -0.086603 1.050000 0.010000
v -0.069282 1.170000 0.000000
v -0.100000 1.050000 -0.040000
v -0.080000 1.170000 -0.040000
v -0.086603 1.050000 -0.090000
v -0.069282 1.170000 -0.080000
v -0.050000 1.050000 -0.126603
v -0.040000 1.170000 -0.109282
v -0.160000 0.380000 0.330000
v -0.160000 0.780000 0.330000
v -0.160000 0.380000 0.150000
v -0.160000 0.780000 0.150000
v 0.160000 0.380000 0.330000
v 0.160000 0.780000 0.330000
v 0.160000 0.380000 0.150000
v 0.160000 0.780000 0.150000
v 0.000000 0.800000 0.190000
v 0.360000 0.800000 0.190000
v 0.000000 0.756699 0.215000
v 0.360000 0.756699 0.215000
v 0.000000 0.756699 0.265000
v 0.360000 0.756699 0.265000
v 0.000000 0.800000 0.290000
v 0.360000 0.800000 0.290000
v -0.000000 0.843301 0.265000
v 0.360000 0.843301 0.265000
v -0.000000 0.843301 0.215000
v 0.360000 0.843301 0.215000
v 0.173946 0.370976 -0.123268
v 0.175318 0.412231 -0.066626
v 0.120126 0.410454 -0.101036
v 0.138680 0.416447 -0.161226
v 0.201892 0.416930 -0.169013
v 0.224678 0.416617 -0.107857
v 0.140313 0.480783 -0.074376
v 0.115398 0.483336 -0.132126
v 0.164752 0.487267 -0.172664
v 0.217358 0.487551 -0.138007
v 0.201758 0.484023 -0.078197
v 0.166275 0.524612 -0.116915
vn 0.1564 -0.0000 -0.9877
vn 0.4540 -0.0000 -0.8910
vn 0.7071 -0.0000 -0.7071
vn 0.8910 -0.0000 -0.4540
vn 0.9877 -0.0000 -0.1564
vn 0.9877 -0.0000 0.1564
vn 0.8910 -0.0000 0.4540
vn 0.7071 -0.0000 0.7071
vn 0.4540 -0.0000 0.8910
vn 0.1564 -0.0000 0.9877
vn -0.1564 -0.0000 0.9877
vn -0.4540 -0.0000 0.8910
vn -0.7071 -0.0000 0.7071
vn -0.8910 -0.0000 0.4540
vn -0.9877 -0.0000 0.1564
vn -0.9877 -0.0000 -0.1564
vn -0.8910 -0.0000 -0.4540
vn -0.7071 -0.0000 -0.7071
vn -0.0000 1.0000 -0.0000
vn -0.4540 -0.0000 -0.8910
vn -0.1564 -0.0000 -0.9877
vn -0.0000 -1.0000 -0.0000
vn 0.6951 -0.6362 -0.3348
vn 0.9962 0.0871 -0.0000
vn 0.7716 -0.6362 -0.0000
vn 0.4811 -0.6362 -0.6032
vn 0.8975 0.0871 -0.4322
vn 0.1717 -0.6362 -0.7522
vn 0.6211 0.0871 -0.7789
vn -0.1717 -0.6362 -0.7522
vn 0.2217 0.0871 -0.9712
vn -0.4811 -0.6362 -0.6032
vn -0.2217 0.0871 -0.9712
vn -0.6952 -0.6361 -0.3348
vn -0.6211 0.0871 -0.7789
vn -0.7715 -0.6362 -0.0000
vn -0.8975 0.0871 -0.4322
vn -0.6952 -0.6362 0.3348
vn -0.9962 0.0871 -0.0000
vn -0.4810 -0.6362 0.6032
vn -0.8975 0.0871 0.4322
vn -0.1717 -0.6362 0.7522
vn -0.6211 0.0871 0.7789
vn 0.1717 -0.6362 0.7522
vn -0.2217 0.0871 0.9712
vn 0.4811 -0.6362 0.6032
vn 0.2217 0.0871 0.9712
vn 0.6951 -0.6362 0.3348
vn 0.6211 0.0871 0.7789
vn 0.8975 0.0871 0.4322
vn 0.9962 0.0867 -0.0000
vn 0.8976 0.0867 -0.4322
vn 0.2217 0.0867 -0.9713
vn 0.6211 0.0867 -0.7789
vn -0.6211 0.0867 -0.7789
vn -0.2217 0.0867 -0.9713
vn -0.8976 0.0867 -0.4322
vn -0.9962 0.0867 -0.0000
vn -0.8976 0.0867 0.4322
vn -0.2217 0.0867 0.9713
vn -0.6211 0.0867 0.7789
vn 0.6211 0.0867 0.7789
vn 0.2217 0.0867 0.9713
vn 0.8976 0.0867 0.4322
vn 0.9308 0.3656 -0.0000
vn 0.8386 0.3656 -0.4039
vn 0.5803 0.3656 -0.7277
vn 0.2071 0.3656 -0.9075
vn -0.5803 0.3656 -0.7277
vn -0.2071 0.3656 -0.9075
vn -0.8386 0.3656 -0.4039
vn -0.9308 0.3656 -0.0000
vn -0.8386 0.3656 0.4039
vn -0.5803 0.3656 0.7277
vn -0.2071 0.3656 0.9075
vn 0.5803 0.3656 0.7277
vn 0.2071 0.3656 0.9074
vn 0.8386 0.3656 0.4039
vn 0.4597 0.8881 -0.0000
vn 0.4142 0.8881 -0.1995
vn 0.2866 0.8881 -0.3594
vn 0.1023 0.8881 -0.4482
vn -0.1023 0.8881 -0.4482
vn -0.2866 0.8881 -0.3594
vn -0.4142 0.8881 -0.1995
vn -0.4597 0.8881 -0.0000
vn -0.4142 0.8881 0.1995
vn -0.2866 0.8881 0.3594
vn -0.1023 0.8881 0.4482
vn 0.1023 0.8881 0.4482
vn 0.2866 0.8881 0.3594
vn 0.4142 0.8881 0.1995
vn 0.2225 -0.0000 -0.9749
vn 0.6235 -0.0000 -0.7818
vn 0.9010 -0.0000 -0.4339
vn 1.0000 -0.0000 -0.0000
vn 0.9010 -0.0000 0.4339
vn 0.6235 -0.0000 0.7818
vn 0.2225 -0.0000 0.9749
vn -0.2225 -0.0000 0.9749
vn -0.6235 -0.0000 0.7818
vn -0.9010 -0.0000 0.4339
vn -1.0000 -0.0000 -0.0000
vn -0.9010 -0.0000 -0.4339
vn -0.6235 -0.0000 -0.7818
vn -0.2225 -0.0000 -0.9749
vn -0.1711 -0.9840 0.0497
vn -0.2350 -0.7649 -0.5998
vn 0.4660 -0.8762 -0.1225
vn -0.2298 -0.3509 -0.9078
vn -0.6102 -0.3777 -0.6964
vn 0.3734 -0.7072 0.6004
vn -0.4313 -0.6507 0.6249
vn -0.7213 -0.6814 -0.1240
vn -0.4158 -0.0615 -0.9074
vn 0.8722 -0.4405 -0.2125
vn 0.3164 -0.5425 -0.7782
vn 0.7552 -0.1606 -0.6356
vn 0.6376 -0.2540 0.7273
vn 0.8385 -0.3866 0.3839
vn 0.8214 -0.0617 0.5670
vn -0.4953 -0.1873 0.8483
vn 0.1215 -0.2739 0.9541
vn -0.1279 0.1259 0.9838
vn -0.9580 -0.1973 -0.2082
vn -0.9037 -0.2373 0.3563
vn -0.9907 0.1298 -0.0418
vn 0.1276 -0.1429 -0.9815
vn 0.9905 -0.1344 0.0304
vn 0.4865 0.0286 0.8732
vn -0.7823 0.1593 0.6023
vn -0.8369 0.0714 -0.5427
vn 0.4957 0.1395 -0.8572
vn -0.1363 0.2801 -0.9502
vn 0.3578 0.6343 -0.6853
vn 0.9387 0.1635 0.3034
vn 0.9171 0.2072 -0.3405
vn 0.7361 0.6598 0.1509
vn 0.2109 0.4176 0.8838
vn 0.6580 0.3122 0.6852
vn 0.2035 0.7283 0.6543
vn -0.8486 0.4691 0.2445
vn -0.3477 0.5556 0.7553
vn -0.5004 0.8552 0.1352
vn -0.5975 0.3073 -0.7407
vn -0.8339 0.4236 -0.3539
vn -0.4244 0.6438 -0.6367
vn 0.0634 0.9917 -0.1121
vn -0.0148 -0.9737 0.2273
vn -0.5549 -0.7691 -0.3171
vn 0.3281 -0.8944 -0.3039
vn -0.7503 -0.4119 -0.5171
vn -0.9423 -0.3086 -0.1298
vn 0.7003 -0.6370 0.3222
vn 0.0841 -0.5119 0.8549
vn -0.7228 -0.5657 0.3969
vn -0.8882 -0.0956 -0.4495
vn 0.5491 -0.5666 -0.6144
vn -0.1992 -0.6609 -0.7235
vn 0.2616 -0.2744 -0.9253
vn 0.9256 -0.2454 0.2881
vn 0.8664 -0.4786 -0.1427
vn 0.9954 -0.0936 -0.0220
vn 0.1016 -0.0178 0.9947
vn 0.6679 -0.2007 0.7167
vn 0.4654 0.2305 0.8545
vn -0.9392 -0.1014 0.3281
vn -0.5345 -0.0788 0.8415
vn -0.7865 0.2102 0.5807
vn -0.5043 -0.2191 -0.8352
vn 0.8269 -0.2079 -0.5225
vn 0.8960 0.0798 0.4368
vn -0.2651 0.2806 0.9225
vn -0.9968 0.0562 0.0574
vn -0.1111 0.0530 -0.9924
vn -0.6587 0.1850 -0.7293
vn 0.0034 0.5311 -0.8473
vn 0.9115 0.1228 -0.3925
vn 0.5545 0.1135 -0.8244
vn 0.7320 0.5670 -0.3779
vn 0.7498 0.4057 0.5228
vn 0.9207 0.3550 0.1623
vn 0.6093 0.7391 0.2872
vn -0.5092 0.5156 0.6891
vn 0.2111 0.6307 0.7467
vn -0.2345 0.9183 0.3190
vn -0.9210 0.2440 -0.3038
vn -0.8595 0.4731 0.1933
vn -0.6505 0.6645 -0.3678
vn 0.1551 0.9572 -0.2445
vn -0.2045 -0.9673 -0.1502
vn 0.3707 -0.8675 -0.3318
vn 0.0712 -0.9444 0.3210
vn 0.7711 -0.5151 -0.3743
vn 0.4425 -0.4597 -0.7700
vn -0.5269 -0.7840 0.3282
vn -0.6851 -0.6511 -0.3267
vn -0.0936 -0.6691 -0.7372
vn 0.8223 -0.1075 -0.5589
vn 0.3146 -0.6497 0.6920
vn 0.6883 -0.7099 0.1493
vn 0.7556 -0.2660 0.5986
vn -0.6520 -0.4039 0.6417
vn -0.2013 -0.6033 0.7717
vn -0.3576 -0.0797 0.9305
vn -0.9216 -0.1441 -0.3603
vn -0.9291 -0.3232 0.1798
vn -0.9715 0.2365 -0.0142
vn 0.0167 -0.2744 -0.9615
vn -0.5121 -0.2517 -0.8212
vn -0.2158 0.1720 -0.9612
vn 0.9750 -0.2215 -0.0199
vn 0.1609 -0.2048 0.9655
vn -0.8283 0.0874 0.5534
vn -0.7694 0.2714 -0.5782
vn 0.3835 0.0465 -0.9224
vn 0.9316 0.1564 0.3282
vn 0.9268 0.3278 -0.1832
vn 0.6528 0.6877 0.3178
vn -0.0288 0.2469 0.9686
vn 0.5103 0.2684 0.8171
vn 0.1032 0.7134 0.6931
vn -0.7813 0.5415 0.3103
vn -0.4279 0.4620 0.7768
vn -0.3474 0.8779 0.3297
vn -0.4095 0.6331 -0.6569
vn -0.7193 0.6754 -0.1625
vn -0.0967 0.9586 -0.2680
vn 0.6668 0.3888 -0.6357
vn 0.2289 0.5914 -0.7732
vn 0.5471 0.7871 -0.2848
vn 0.2275 0.9517 0.2063
vn 0.0006 -0.9804 -0.1971
vn 0.4546 -0.8846 0.1039
vn -0.1859 -0.9348 0.3028
vn 0.7316 -0.5433 0.4118
vn 0.8447 -0.5155 -0.1438
vn -0.5685 -0.8028 -0.1799
vn -0.2012 -0.7286 -0.6548
vn 0.4664 -0.7481 -0.4720
vn 0.9643 -0.0234 0.2639
vn -0.2876 -0.5774 0.7641
vn 0.2715 -0.6695 0.6914
vn 0.0034 -0.1543 0.9880
vn -0.8926 -0.4250 -0.1504
vn -0.6845 -0.6263 0.3731
vn -0.9626 0.0012 0.2708
vn -0.2898 -0.2235 -0.9306
vn -0.7299 -0.4024 -0.5525
vn -0.6058 0.1938 -0.7716
vn 0.7308 -0.2798 -0.6226
vn 0.3033 -0.2921 -0.9070
vn 0.5845 0.2248 -0.7797
vn 0.5712 -0.1425 0.8084
vn -0.5645 -0.1398 0.8135
vn -0.9557 0.1026 -0.2760
vn 0.0548 0.2651 -0.9626
vn 0.9302 0.1416 -0.3388
vn 0.2378 0.2389 0.9415
vn 0.7019 0.4093 0.5829
vn 0.1171 0.7322 0.6709
vn -0.7185 0.3741 0.5863
vn -0.2474 0.3467 0.9047
vn -0.4515 0.7770 0.4386
vn -0.7439 0.5687 -0.3510
vn -0.8491 0.5232 0.0723
vn -0.4338 0.8913 -0.1319
vn 0.2940 0.6033 -0.7413
vn -0.2293 0.7086 -0.6673
vn 0.1471 0.9253 -0.3495
vn 0.8990 0.4378 -0.0096
vn 0.6931 0.5920 -0.4114
vn 0.5360 0.8388 0.0953
vn -0.0508 0.9873 0.1506
vn 0.1951 -0.0000 -0.9808
vn 0.5556 -0.0000 -0.8315
vn 0.8315 -0.0000 -0.5556
vn 0.9808 -0.0000 -0.1951
vn 0.9808 -0.0000 0.1951
vn 0.8315 -0.0000 0.5556
vn 0.5556 -0.0000 0.8315
vn 0.1951 -0.0000 0.9808
vn -0.1951 -0.0000 0.9808
vn -0.5556 -0.0000 0.8315
vn -0.8315 -0.0000 0.5556
vn -0.9808 -0.0000 0.1951
vn -0.9808 -0.0000 -0.1951
vn -0.8315 -0.0000 -0.5556
vn -0.5556 -0.0000 -0.8315
vn -0.1951 -0.0000 -0.9808
vn 0.2555 0.1589 -0.9536
vn 0.6981 0.1589 -0.6981
vn 0.9536 0.1589 -0.2555
vn 0.9536 0.1589 0.2555
vn 0.6981 0.1589 0.6981
vn 0.2555 0.1589 0.9536
vn -0.2555 0.1589 0.9536
vn -0.6981 0.1589 0.6981
vn -0.9536 0.1589 0.2555
vn -0.9536 0.1589 -0.2555
vn -0.6981 0.1589 -0.6981
vn -0.2555 0.1589 -0.9536
vn -0.0000 -0.0000 -1.0000
vn -0.0000 -0.0000 1.0000
vn -0.0000 -0.5000 -0.8660
vn -0.0000 -0.5000 0.8660
vn -0.0000 0.5000 0.8660
vn -0.0000 0.5000 -0.8660
vn -0.3258 -0.7605 0.5618
vn 0.4865 -0.7118 0.5066
vn -0.6394 -0.7203 -0.2688
vn -0.0849 -0.6765 -0.7315
vn 0.6883 -0.6773 -0.2599
vn 0.6428 -0.1147 0.7574
vn -0.5175 -0.1694 0.8388
vn -0.9325 -0.1912 -0.3065
vn -0.1206 -0.1149 -0.9860
vn 0.9357 -0.0517 -0.3489
vn 0.0541 0.1394 0.9888
vn -0.9108 0.1106 0.3978
vn -0.6361 0.1108 -0.7636
vn 0.5332 0.2394 -0.8114
vn 0.9436 0.2072 0.2583
vn 0.0082 0.6939 0.7200
vn -0.6531 0.6899 0.3123
vn -0.4584 0.7441 -0.4859
vn 0.3443 0.7757 -0.5290
vn 0.6292 0.7488 0.2083
vt 0.939198 0.353902
vt 0.959742 0.315746
vt 0.959742 0.353913
vt 0.939198 0.315736
vt 0.959699 0.281159
vt 0.939155 0.281148
vt 0.959617 0.253536
vt 0.948892 0.511875
vt 0.928669 0.546166
vt 0.928350 0.511918
vt 0.949211 0.546123
vt 0.928836 0.584217
vt 0.949378 0.584174
vt 0.928836 0.622346
vt 0.949378 0.622303
vt 0.928669 0.656822
vt 0.949211 0.656778
vt 0.928350 0.684268
vt 0.676881 0.777452
vt 0.656468 0.811060
vt 0.656338 0.777466
vt 0.677012 0.811046
vt 0.656537 0.848863
vt 0.677081 0.848849
vt 0.656537 0.887174
vt 0.677081 0.887160
vt 0.656468 0.922243
vt 0.677012 0.922230
vt 0.656338 0.950638
vt 0.920687 0.861280
vt 0.941932 0.827639
vt 0.941221 0.861358
vt 0.921398 0.827560
vt 0.942306 0.789786
vt 0.921772 0.789708
vt 0.942306 0.751505
vt 0.921772 0.751427
vt 0.941932 0.716543
vt 0.921398 0.716465
vt 0.941221 0.688323
vt 0.319099 0.485093
vt 0.355685 0.253526
vt 0.484471 0.319343
vt 0.939073 0.426043
vt 0.959699 0.391922
vt 0.959617 0.426053
vt 0.939155 0.391911
vt 0.179668 0.265438
vt 0.142996 0.497013
vt 0.013904 0.431221
vt 0.978189 0.793965
vt 0.986407 0.755167
vt 0.986407 0.793969
vt 0.978189 0.755163
vt 0.986363 0.720003
vt 0.978145 0.719999
vt 0.986279 0.691920
vt 0.985228 0.253526
vt 0.977336 0.288362
vt 0.977012 0.253543
vt 0.985552 0.288344
vt 0.977506 0.327047
vt 0.985723 0.327029
vt 0.977506 0.365811
vt 0.985723 0.365794
vt 0.977336 0.400861
vt 0.985552 0.400844
vt 0.977012 0.428765
vt 0.986279 0.511875
vt 0.978195 0.546035
vt 0.978062 0.511881
vt 0.986412 0.546029
vt 0.978265 0.584468
vt 0.986482 0.584462
vt 0.978265 0.623417
vt 0.986482 0.623412
vt 0.978195 0.659071
vt 0.986412 0.659066
vt 0.978062 0.687940
vt 0.963719 0.429444
vt 0.972655 0.395194
vt 0.971932 0.429476
vt 0.964441 0.395163
vt 0.973035 0.356711
vt 0.964822 0.356680
vt 0.973035 0.317792
vt 0.964822 0.317761
vt 0.972655 0.282248
vt 0.964441 0.282216
vt 0.971932 0.253557
vt 0.320193 0.237415
vt 0.357388 0.001988
vt 0.488321 0.068902
vt 0.978062 0.867308
vt 0.986363 0.832612
vt 0.986279 0.867313
vt 0.978145 0.832608
vt 0.182626 0.014104
vt 0.145352 0.249540
vt 0.014106 0.182658
vt 0.684698 0.589805
vt 0.725704 0.462428
vt 0.725640 0.589675
vt 0.651986 0.590169
vt 0.688323 0.462546
vt 0.081695 0.838126
vt 0.114776 0.710665
vt 0.119822 0.838061
vt 0.039640 0.838126
vt 0.079965 0.710725
vt 0.001988 0.838061
vt 0.041567 0.710725
vt 0.614216 0.592183
vt 0.642529 0.464091
vt 0.648009 0.591604
vt 0.572907 0.592183
vt 0.611675 0.464619
vt 0.532263 0.591604
vt 0.573957 0.464619
vt 0.500334 0.590562
vt 0.536848 0.464091
vt 0.202909 0.837609
vt 0.236719 0.710379
vt 0.241537 0.837714
vt 0.160889 0.837609
vt 0.201450 0.710283
vt 0.123798 0.837714
vt 0.163084 0.710283
vt 0.766703 0.589805
vt 0.793374 0.462879
vt 0.799754 0.590169
vt 0.763197 0.462546
vt 0.725794 0.351671
vt 0.658455 0.462879
vt 0.693753 0.351773
vt 0.077373 0.599744
vt 0.107212 0.599693
vt 0.014994 0.599693
vt 0.044461 0.599744
vt 0.633832 0.352903
vt 0.607385 0.353355
vt 0.575056 0.353355
vt 0.507696 0.463139
vt 0.543248 0.352903
vt 0.199243 0.599416
vt 0.229474 0.599497
vt 0.137330 0.599498
vt 0.166357 0.599416
vt 0.783796 0.352058
vt 0.757930 0.351773
vt 0.725827 0.285993
vt 0.668152 0.352058
vt 0.695565 0.286090
vt 0.104689 0.533940
vt 0.076508 0.533989
vt 0.017594 0.533940
vt 0.045424 0.533989
vt 0.631104 0.287093
vt 0.606127 0.287520
vt 0.575594 0.287520
vt 0.518260 0.352087
vt 0.545552 0.287093
vt 0.227065 0.533776
vt 0.198514 0.533698
vt 0.140041 0.533776
vt 0.167456 0.533698
vt 0.780607 0.286359
vt 0.756177 0.286090
vt 0.726016 0.253526
vt 0.749239 0.772706
vt 0.732480 0.803347
vt 0.718948 0.779547
vt 0.087049 0.500989
vt 0.070472 0.501017
vt 0.052187 0.501018
vt 0.609465 0.253526
vt 0.594773 0.253777
vt 0.576812 0.253777
vt 0.749239 0.912124
vt 0.768117 0.877309
vt 0.779531 0.905282
vt 0.718948 0.905158
vt 0.750299 0.881333
vt 0.193309 0.500989
vt 0.681176 0.857787
vt 0.718191 0.865829
vt 0.694657 0.885766
vt 0.681176 0.826764
vt 0.710261 0.849371
vt 0.743869 0.253582
vt 0.688625 0.075472
vt 0.596504 0.190989
vt 0.504382 0.075449
vt 0.768117 0.803420
vt 0.782406 0.865960
vt 0.966827 0.907177
vt 0.946313 0.944724
vt 0.946283 0.907178
vt 0.966857 0.944723
vt 0.946399 0.975055
vt 0.963822 0.209225
vt 0.984132 0.174738
vt 0.984364 0.209227
vt 0.963590 0.174736
vt 0.984132 0.136338
vt 0.963590 0.136336
vt 0.984364 0.101633
vt 0.953542 0.646677
vt 0.973948 0.617694
vt 0.974085 0.646682
vt 0.953404 0.617689
vt 0.973899 0.580649
vt 0.953355 0.580645
vt 0.973948 0.542885
vt 0.953404 0.542880
vt 0.974085 0.511880
vt 0.942306 0.865334
vt 0.921253 0.899344
vt 0.921772 0.865357
vt 0.941787 0.899322
vt 0.921253 0.937721
vt 0.941787 0.937698
vt 0.921772 0.972886
vt 0.421699 0.749322
vt 0.337589 0.854456
vt 0.253480 0.749122
vt 0.966943 0.840145
vt 0.946313 0.869854
vt 0.946399 0.840145
vt 0.966857 0.869853
vt 0.727853 0.604702
vt 0.849394 0.663249
vt 0.765285 0.768729
vt 0.940382 0.474282
vt 0.955357 0.478893
vt 0.945460 0.492264
vt 0.271141 0.934277
vt 0.264723 0.952322
vt 0.253723 0.934191
vt 0.928350 0.482030
vt 0.928541 0.462353
vt 0.945417 0.460654
vt 0.269204 0.909736
vt 0.436190 0.850588
vt 0.425675 0.853899
vt 0.428799 0.825839
vt 0.468177 0.848669
vt 0.452705 0.852647
vt 0.462404 0.826240
vt 0.938355 0.069737
vt 0.922116 0.074370
vt 0.932357 0.045454
vt 0.332863 0.927637
vt 0.317422 0.930806
vt 0.323470 0.902871
vt 0.287412 0.916276
vt 0.444199 0.826783
vt 0.477426 0.824753
vt 0.948404 0.046450
vt 0.342425 0.902978
vt 0.301888 0.894897
vt 0.287183 0.885806
vt 0.301888 0.871063
vt 0.453789 0.802343
vt 0.438056 0.798112
vt 0.453221 0.778068
vt 0.922431 0.021339
vt 0.907039 0.019936
vt 0.922381 0.004164
vt 0.180036 0.976552
vt 0.165888 0.972576
vt 0.178460 0.959247
vt 0.348486 0.879259
vt 0.331983 0.876198
vt 0.340044 0.861422
vt 0.187936 0.943145
vt 0.175122 0.940099
vt 0.321422 0.858432
vt 0.315379 0.878886
vt 0.163320 0.951998
vt 0.937689 0.019160
vt 0.163320 0.930160
vt 0.905939 0.001988
vt 0.468093 0.797972
vt 0.179690 0.925043
vt 0.436814 0.778563
vt 0.425675 0.800615
vt 0.283049 0.866965
vt 0.295148 0.858432
vt 0.269889 0.883285
vt 0.949432 0.023364
vt 0.912529 0.046026
vt 0.306262 0.903431
vt 0.305864 0.927896
vt 0.905939 0.070371
vt 0.301409 0.919896
vt 0.284597 0.945249
vt 0.253480 0.902869
vt 0.348486 0.932948
vt 0.332371 0.948690
vt 0.316400 0.950112
vt 0.931535 0.092611
vt 0.946697 0.075064
vt 0.912072 0.093630
vt 0.460906 0.870255
vt 0.441923 0.870562
vt 0.962459 0.465869
vt 0.962459 0.499009
vt 0.950328 0.507899
vt 0.919901 0.111159
vt 0.933197 0.122066
vt 0.919102 0.130902
vt 0.482682 0.572034
vt 0.473302 0.593152
vt 0.465435 0.575085
vt 0.906694 0.116417
vt 0.912944 0.097607
vt 0.930046 0.100599
vt 0.477870 0.548070
vt 0.235987 0.917294
vt 0.221171 0.922260
vt 0.229638 0.895812
vt 0.471834 0.748525
vt 0.456261 0.758768
vt 0.454466 0.729893
vt 0.091670 0.892299
vt 0.078298 0.899771
vt 0.082723 0.869222
vt 0.447269 0.570911
vt 0.434743 0.575580
vt 0.438039 0.547128
vt 0.492963 0.548809
vt 0.440735 0.760192
vt 0.425675 0.739036
vt 0.437470 0.735539
vt 0.473781 0.722763
vt 0.099509 0.868947
vt 0.456166 0.547414
vt 0.220792 0.871316
vt 0.207181 0.864689
vt 0.220908 0.846181
vt 0.437535 0.709412
vt 0.425675 0.709936
vt 0.436589 0.687900
vt 0.471269 0.699020
vt 0.454339 0.699474
vt 0.456139 0.682297
vt 0.671862 0.247451
vt 0.657758 0.242648
vt 0.671960 0.227908
vt 0.467281 0.523093
vt 0.448567 0.518024
vt 0.465927 0.501028
vt 0.684513 0.212956
vt 0.670609 0.208016
vt 0.446511 0.501005
vt 0.685464 0.236680
vt 0.657758 0.219689
vt 0.477354 0.689686
vt 0.660515 0.199897
vt 0.677188 0.194966
vt 0.234605 0.844848
vt 0.234335 0.866421
vt 0.207141 0.841690
vt 0.483466 0.520019
vt 0.434743 0.523124
vt 0.091510 0.842103
vt 0.106106 0.847279
vt 0.078298 0.850669
vt 0.242196 0.892118
vt 0.212401 0.894782
vt 0.113394 0.871444
vt 0.105648 0.897793
vt 0.489223 0.716642
vt 0.488659 0.747390
vt 0.207141 0.914653
vt 0.451965 0.595154
vt 0.107171 0.921324
vt 0.092391 0.917512
vt 0.079741 0.920778
vt 0.476851 0.768848
vt 0.459017 0.774091
vt 0.918938 0.149727
vt 0.905939 0.138259
vt 0.933197 0.144616
vt 0.491210 0.578152
vt 0.591642 0.210666
vt 0.593470 0.229687
vt 0.574708 0.221435
vt 0.592144 0.244893
vt 0.607646 0.233201
vt 0.577446 0.200464
vt 0.598330 0.194966
vt 0.607934 0.213438
vt 0.367822 0.913601
vt 0.352837 0.913265
vt 0.356886 0.895719
vt 0.401824 0.913425
vt 0.386394 0.918193
vt 0.398795 0.897089
vt 0.458964 0.929257
vt 0.440598 0.922473
vt 0.460412 0.910409
vt 0.613949 0.904100
vt 0.595194 0.908207
vt 0.603872 0.885741
vt 0.457348 0.642377
vt 0.439567 0.641391
vt 0.451795 0.621796
vt 0.378334 0.897399
vt 0.425675 0.910152
vt 0.426706 0.888452
vt 0.441645 0.899269
vt 0.478201 0.918632
vt 0.623694 0.885982
vt 0.473221 0.628460
vt 0.388134 0.878970
vt 0.369254 0.874669
vt 0.383364 0.860259
vt 0.460250 0.889316
vt 0.447236 0.875971
vt 0.469893 0.874538
vt 0.554959 0.234916
vt 0.540437 0.248857
vt 0.539114 0.231964
vt 0.547519 0.199574
vt 0.553701 0.216806
vt 0.534603 0.211333
vt 0.485098 0.615137
vt 0.468653 0.604803
vt 0.482262 0.599130
vt 0.513156 0.211283
vt 0.521225 0.226355
vt 0.528319 0.194966
vt 0.520750 0.243502
vt 0.478201 0.894729
vt 0.504382 0.231191
vt 0.505068 0.248857
vt 0.401824 0.873341
vt 0.362389 0.858432
vt 0.352463 0.875675
vt 0.449141 0.602832
vt 0.611387 0.866310
vt 0.627888 0.869098
vt 0.593257 0.868970
vt 0.582516 0.887547
vt 0.578090 0.869070
vt 0.434743 0.618726
vt 0.626783 0.908615
vt 0.578090 0.907913
vt 0.490513 0.636136
vt 0.472757 0.651503
vt 0.452354 0.660150
vt 0.434743 0.657403
vt 0.609680 0.922972
vt 0.588937 0.924435
vt 0.558935 0.212442
vt 0.564717 0.194966
vt 0.559300 0.231872
vt 0.469053 0.667939
vt 0.574659 0.242471
vt 0.875818 0.646624
vt 0.877171 0.619303
vt 0.902887 0.635780
vt 0.880196 0.596159
vt 0.853370 0.608280
vt 0.893357 0.664245
vt 0.861863 0.668205
vt 0.853370 0.638289
vt 0.742045 0.247140
vt 0.714658 0.238481
vt 0.743199 0.219351
vt 0.052004 0.916170
vt 0.024574 0.921683
vt 0.037456 0.893430
vt 0.627675 0.845267
vt 0.607246 0.862333
vt 0.599982 0.832331
vt 0.789406 0.220411
vt 0.770199 0.226769
vt 0.773741 0.195583
vt 0.839784 0.225316
vt 0.816659 0.226116
vt 0.832001 0.198495
vt 0.766223 0.231313
vt 0.067504 0.891531
vt 0.627278 0.815390
vt 0.804332 0.195613
vt 0.692602 0.221326
vt 0.692883 0.194010
vt 0.714054 0.204552
vt 0.024105 0.868571
vt 0.002409 0.859429
vt 0.029852 0.843022
vt 0.074322 0.864318
vt 0.050123 0.863978
vt 0.058792 0.842103
vt 0.624822 0.788432
vt 0.600181 0.800194
vt 0.604943 0.777452
vt 0.915027 0.187883
vt 0.914127 0.213467
vt 0.894989 0.194590
vt 0.738815 0.191096
vt 0.718802 0.176989
vt 0.749674 0.170323
vt 0.869043 0.177619
vt 0.870259 0.203868
vt 0.895492 0.170323
vt 0.887683 0.222526
vt 0.903202 0.237304
vt 0.857239 0.225405
vt 0.876464 0.243683
vt 0.578090 0.816599
vt 0.578090 0.792314
vt 0.844747 0.197759
vt 0.843761 0.170323
vt 0.766223 0.197553
vt 0.818383 0.174685
vt 0.837616 0.175459
vt 0.793069 0.170323
vt 0.770199 0.175413
vt 0.008518 0.891841
vt 0.652361 0.799549
vt 0.651008 0.833422
vt 0.578226 0.845261
vt 0.074322 0.917355
vt 0.001988 0.913696
vt 0.823469 0.247140
vt 0.794458 0.246911
vt 0.881989 0.684268
vt 0.910080 0.678938
vt 0.923047 0.654417
vt 0.924374 0.626127
vt 0.694178 0.245183
vt 0.906043 0.605458
vt 0.997917 0.317094
vt 0.989724 0.351774
vt 0.989699 0.317095
vt 0.997941 0.351773
vt 0.989794 0.381352
vt 0.632232 0.994144
vt 0.640177 0.964946
vt 0.640449 0.994145
vt 0.631960 0.964945
vt 0.640081 0.930399
vt 0.631864 0.930398
vt 0.640177 0.895763
vt 0.631960 0.895762
vt 0.640449 0.866310
vt 0.988492 0.229354
vt 0.996597 0.200882
vt 0.996710 0.229356
vt 0.988380 0.200880
vt 0.996558 0.166610
vt 0.988340 0.166608
vt 0.996597 0.131759
vt 0.988380 0.131757
vt 0.996710 0.101633
vt 0.414839 0.858432
vt 0.406015 0.887057
vt 0.406625 0.858441
vt 0.414228 0.887048
vt 0.405800 0.921384
vt 0.414014 0.921375
vt 0.406015 0.956198
vt 0.414228 0.956189
vt 0.406625 0.986198
vt 0.513798 0.735035
vt 0.538674 0.609655
vt 0.663736 0.634600
vt 0.998012 0.253526
vt 0.989724 0.282595
vt 0.989794 0.253526
vt 0.997941 0.282594
vt 0.417271 0.539447
vt 0.392336 0.664825
vt 0.266975 0.639879
vt 0.730542 0.951948
vt 0.681207 0.935305
vt 0.730542 0.931334
vt 0.730503 0.916100
vt 0.783736 0.920076
vt 0.734672 0.936608
vt 0.734519 0.916100
vt 0.783859 0.936483
vt 0.734672 0.957187
vt 0.783736 0.965056
vt 0.734519 0.972324
vt 0.549605 0.917314
vt 0.500397 0.933266
vt 0.500335 0.912972
vt 0.549655 0.933549
vt 0.500397 0.954024
vt 0.549605 0.962683
vt 0.500335 0.969683
vt 0.794312 0.960078
vt 0.844119 0.944456
vt 0.843779 0.964791
vt 0.794584 0.943810
vt 0.844119 0.923730
vt 0.876554 0.688250
vt 0.916711 0.728496
vt 0.861856 0.743247
vt 0.794584 0.927229
vt 0.843779 0.908165
vt 0.730503 0.972419
vt 0.681207 0.951796
vt 0.152845 0.841690
vt 0.203164 0.892012
vt 0.134434 0.910432
vt 0.828049 0.001988
vt 0.901962 0.166343
vt 0.828049 0.166262
vt 0.692602 0.001988
vt 0.824073 0.166347
vt 0.692602 0.166340
vt 0.803730 0.421891
vt 0.877688 0.586222
vt 0.803730 0.586228
vt 0.803730 0.253557
vt 0.935096 0.417876
vt 0.803730 0.417908
vt 0.868259 0.904188
vt 0.794312 0.772706
vt 0.868259 0.772705
vt 0.574114 0.908995
vt 0.500335 0.777452
vt 0.574114 0.777527
vt 0.889991 0.920611
vt 0.872236 0.772840
vt 0.889991 0.772706
vt 0.959614 0.249549
vt 0.939073 0.101631
vt 0.959614 0.101631
vt 0.917247 0.569680
vt 0.899397 0.422321
vt 0.917247 0.421893
vt 0.899397 0.570108
vt 0.881664 0.421884
vt 0.872236 0.934993
vt 0.907819 0.934993
vt 0.890028 0.965806
vt 0.946283 0.688245
vt 0.966777 0.836168
vt 0.946283 0.836147
vt 0.907819 0.920744
vt 0.907819 0.772838
vt 0.141571 0.966129
vt 0.123798 0.935306
vt 0.159344 0.935322
vt 0.040155 0.946881
vt 0.059894 0.933978
vt 0.059828 0.960708
vt 0.034836 0.925660
vt 0.034836 0.967245
vt 0.635658 0.242704
vt 0.621109 0.223965
vt 0.647039 0.223977
vt 0.102849 0.975423
vt 0.078298 0.964665
vt 0.101604 0.955437
vt 0.001988 0.945271
vt 0.002665 0.925660
vt 0.030859 0.933093
vt 0.002398 0.968535
vt 0.030859 0.958286
vt 0.231525 0.963342
vt 0.207141 0.957275
vt 0.229315 0.933591
vt 0.631983 0.194966
vt 0.079395 0.932931
vt 0.207141 0.926236
vt 0.611911 0.196366
vt 0.653782 0.194966
vt 0.102849 0.925301
vt 0.367256 0.963318
vt 0.352463 0.942774
vt 0.374736 0.943010
vt 0.392093 0.956115
vt 0.392093 0.929823
vt 0.367379 0.922170
vt 0.939073 0.253526
vt 0.948892 0.684225
vt 0.676881 0.950625
vt 0.920687 0.688245
vt 0.496358 0.356023
vt 0.496358 0.394589
vt 0.484471 0.431264
vt 0.461860 0.462459
vt 0.430738 0.485120
vt 0.394153 0.497028
vt 0.355685 0.497019
vt 0.287978 0.462417
vt 0.265367 0.431211
vt 0.253480 0.394530
vt 0.253480 0.355965
vt 0.265367 0.319290
vt 0.287978 0.288095
vt 0.319099 0.265434
vt 0.394153 0.253535
vt 0.430738 0.265461
vt 0.461860 0.288137
vt 0.001988 0.394542
vt 0.001988 0.355977
vt 0.013904 0.319299
vt 0.036569 0.288100
vt 0.067764 0.265433
vt 0.104436 0.253517
vt 0.142996 0.253519
vt 0.210864 0.288107
vt 0.233529 0.319308
vt 0.245444 0.355987
vt 0.245444 0.394553
vt 0.233528 0.431230
vt 0.210864 0.462430
vt 0.179668 0.485097
vt 0.104436 0.497011
vt 0.067764 0.485092
vt 0.036569 0.462422
vt 0.978062 0.691916
vt 0.985228 0.428748
vt 0.986279 0.687934
vt 0.963719 0.253526
vt 0.500406 0.106194
vt 0.500406 0.145403
vt 0.488321 0.182689
vt 0.465333 0.214404
vt 0.433693 0.237442
vt 0.396498 0.249549
vt 0.357388 0.249540
vt 0.288553 0.214361
vt 0.265565 0.182635
vt 0.253480 0.145343
vt 0.253480 0.106135
vt 0.265565 0.068848
vt 0.288553 0.037134
vt 0.320193 0.014095
vt 0.396498 0.001998
vt 0.433693 0.014123
vt 0.465333 0.037176
vt 0.001990 0.145369
vt 0.001988 0.106160
vt 0.014101 0.068871
vt 0.037142 0.037150
vt 0.068856 0.014104
vt 0.106139 0.001988
vt 0.145342 0.001988
vt 0.214342 0.037150
vt 0.237386 0.068871
vt 0.249502 0.106160
vt 0.249503 0.145369
vt 0.237391 0.182658
vt 0.214349 0.214378
vt 0.182635 0.237424
vt 0.106150 0.249540
vt 0.068866 0.237424
vt 0.037149 0.214378
vt 0.007189 0.710665
vt 0.129219 0.710379
vt 0.671387 0.286359
vt 0.521953 0.286322
vt 0.708215 0.253582
vt 0.750299 0.799323
vt 0.035817 0.500989
vt 0.559141 0.253526
vt 0.732480 0.877236
vt 0.175039 0.500989
vt 0.710261 0.831122
vt 0.555506 0.011342
vt 0.596504 0.001988
vt 0.637502 0.011352
vt 0.670379 0.037578
vt 0.688625 0.117528
vt 0.670379 0.155418
vt 0.637502 0.181636
vt 0.555506 0.181626
vt 0.522628 0.155400
vt 0.504382 0.117506
vt 0.522628 0.037560
vt 0.718191 0.814696
vt 0.782406 0.814827
vt 0.790336 0.831285
vt 0.790336 0.849535
vt 0.966943 0.975054
vt 0.963822 0.101631
vt 0.953542 0.511875
vt 0.942306 0.972863
vt 0.300157 0.690777
vt 0.337589 0.682297
vt 0.375022 0.690866
vt 0.405040 0.714787
vt 0.421699 0.787631
vt 0.405040 0.822126
vt 0.375022 0.845976
vt 0.300157 0.845887
vt 0.270139 0.821966
vt 0.253480 0.787431
vt 0.270139 0.714626
vt 0.697835 0.736238
vt 0.681176 0.701639
vt 0.681176 0.663239
vt 0.697835 0.628642
vt 0.765285 0.596159
vt 0.802717 0.604707
vt 0.832735 0.628651
vt 0.849394 0.701650
vt 0.832735 0.736246
vt 0.802717 0.760187
vt 0.727853 0.760182
vt 0.998012 0.381352
vt 0.632232 0.866310
vt 0.988492 0.101631
vt 0.414839 0.986189
vt 0.677199 0.667186
vt 0.677199 0.702456
vt 0.663736 0.735041
vt 0.638860 0.759980
vt 0.606357 0.773476
vt 0.571177 0.773474
vt 0.538674 0.759975
vt 0.500335 0.702449
vt 0.500335 0.667179
vt 0.513798 0.634594
vt 0.571177 0.596159
vt 0.606357 0.596161
vt 0.638860 0.609659
vt 0.253480 0.607293
vt 0.253480 0.572023
vt 0.266975 0.539438
vt 0.291911 0.514500
vt 0.324491 0.501005
vt 0.359755 0.501007
vt 0.392336 0.514506
vt 0.430767 0.572032
vt 0.430767 0.607302
vt 0.417271 0.639887
vt 0.359755 0.678321
vt 0.324491 0.678319
vt 0.291911 0.664820
vt 0.681176 0.923118
vt 0.783859 0.952946
vt 0.549655 0.950155
vt 0.853370 0.728514
vt 0.853370 0.711499
vt 0.861856 0.696761
vt 0.893527 0.688245
vt 0.908225 0.696748
vt 0.916711 0.711481
vt 0.908225 0.743234
vt 0.893527 0.751746
vt 0.876554 0.751750
vt 0.794312 0.914778
vt 0.681176 0.968173
vt 0.123800 0.892012
vt 0.123798 0.870744
vt 0.134430 0.852324
vt 0.174111 0.841690
vt 0.192528 0.852324
vt 0.203163 0.870744
vt 0.192533 0.910432
vt 0.174117 0.921066
vt 0.152851 0.921066
vt 0.901962 0.002070
vt 0.824073 0.001994
vt 0.877688 0.421884
vt 0.935096 0.253526
vt 0.794312 0.904189
vt 0.500335 0.908921
vt 0.872236 0.920746
vt 0.939073 0.249549
vt 0.881664 0.569671
vt 0.872236 0.955534
vt 0.890028 0.924722
vt 0.907819 0.955535
vt 0.966777 0.688266
vt 0.159344 0.955865
vt 0.123798 0.955850
vt 0.141571 0.925042
s 0
f 2/1/1 3/2/1 1/3/1
f 4/4/2 5/5/2 3/2/2
f 6/6/3 7/7/3 5/5/3
f 8/8/4 9/9/4 7/10/4
f 10/11/5 11/12/5 9/9/5
f 12/13/6 13/14/6 11/12/6
f 14/15/7 15/16/7 13/14/7
f 16/17/8 17/18/8 15/16/8
f 18/19/9 19/20/9 17/21/9
f 20/22/10 21/23/10 19/20/10
f 22/24/11 23/25/11 21/23/11
f 24/26/12 25/27/12 23/25/12
f 26/28/13 27/29/13 25/27/13
f 28/30/14 29/31/14 27/32/14
f 30/33/15 31/34/15 29/31/15
f 32/35/16 33/36/16 31/34/16
f 34/37/17 35/38/17 33/36/17
f 36/39/18 37/40/18 35/38/18
f 30/41/19 14/42/19 6/43/19
f 38/44/20 39/45/20 37/46/20
f 40/47/21 1/3/21 39/45/21
f 15/48/22 31/49/22 39/50/22
f 42/51/1 43/52/1 41/53/1
f 44/54/2 45/55/2 43/52/2
f 46/56/3 47/57/3 45/55/3
f 48/58/4 49/59/4 47/60/4
f 50/61/5 51/62/5 49/59/5
f 52/63/6 53/64/6 51/62/6
f 54/65/7 55/66/7 53/64/7
f 56/67/8 57/68/8 55/66/8
f 58/69/9 59/70/9 57/71/9
f 60/72/10 61/73/10 59/70/10
f 62/74/11 63/75/11 61/73/11
f 64/76/12 65/77/12 63/75/12
f 66/78/13 67/79/13 65/77/13
f 68/80/14 69/81/14 67/82/14
f 70/83/15 71/84/15 69/81/15
f 72/85/16 73/86/16 71/84/16
f 74/87/17 75/88/17 73/86/17
f 76/89/18 77/90/18 75/88/18
f 70/91/19 54/92/19 46/93/19
f 78/94/20 79/95/20 77/96/20
f 80/97/21 41/53/21 79/95/21
f 55/98/22 71/99/22 79/100/22
s 1
f 82/101/23 95/102/24 81/103/25
f 83/104/26 96/105/27 82/101/23
f 84/106/28 97/107/29 83/108/26
f 85/109/30 98/110/31 84/106/28
f 86/111/32 99/112/33 85/109/30
f 87/113/34 100/114/35 86/115/32
f 88/116/36 101/117/37 87/113/34
f 89/118/38 102/119/39 88/116/36
f 90/120/40 103/121/41 89/118/38
f 91/122/42 104/123/43 90/124/40
f 92/125/44 105/126/45 91/122/42
f 93/127/46 106/128/47 92/125/44
f 94/129/48 107/130/49 93/131/46
f 81/103/25 108/132/50 94/129/48
f 96/105/27 109/133/51 95/102/24
f 97/134/29 110/135/52 96/105/27
f 97/107/29 112/136/53 111/137/54
f 99/112/33 112/136/53 98/110/31
f 99/112/33 114/138/55 113/139/56
f 101/117/37 114/140/55 100/114/35
f 102/119/39 115/141/57 101/117/37
f 103/121/41 116/142/58 102/119/39
f 104/143/43 117/144/59 103/121/41
f 104/123/43 119/145/60 118/146/61
f 106/128/47 119/145/60 105/126/45
f 106/128/47 121/147/62 120/148/63
f 108/132/50 121/149/62 107/130/49
f 95/102/24 122/150/64 108/132/50
f 110/135/52 123/151/65 109/133/51
f 111/152/54 124/153/66 110/135/52
f 112/136/53 125/154/67 111/137/54
f 113/139/56 126/155/68 112/136/53
f 113/139/56 128/156/69 127/157/70
f 115/141/57 128/158/69 114/140/55
f 116/142/58 129/159/71 115/141/57
f 117/144/59 130/160/72 116/142/58
f 118/161/61 131/162/73 117/144/59
f 119/145/60 132/163/74 118/146/61
f 120/148/63 133/164/75 119/145/60
f 120/148/63 135/165/76 134/166/77
f 122/150/64 135/167/76 121/149/62
f 109/133/51 136/168/78 122/150/64
f 124/153/66 137/169/79 123/151/65
f 125/170/67 138/171/80 124/172/66
f 126/155/68 139/173/81 125/154/67
f 127/157/70 140/174/82 126/155/68
f 128/156/69 141/175/83 127/157/70
f 129/159/71 142/176/84 128/158/69
f 130/160/72 143/177/85 129/159/71
f 131/162/73 144/178/86 130/160/72
f 132/179/74 145/180/87 131/181/73
f 133/182/75 146/183/88 132/179/74
f 134/166/77 147/184/89 133/164/75
f 135/185/76 148/186/90 134/187/77
f 136/188/78 149/189/91 135/185/76
f 123/151/65 150/190/92 136/168/78
f 91/191/42 87/192/34 83/193/26
f 140/194/82 144/195/86 148/186/90
s 0
f 152/196/93 153/197/93 151/198/93
f 154/199/94 155/200/94 153/197/94
f 156/201/95 157/202/95 155/203/95
f 158/204/96 159/205/96 157/202/96
f 160/206/97 161/207/97 159/205/97
f 162/208/98 163/209/98 161/210/98
f 164/211/99 165/212/99 163/209/99
f 166/213/100 167/214/100 165/212/100
f 168/215/101 169/216/101 167/214/101
f 170/217/102 171/218/102 169/219/102
f 172/220/103 173/221/103 171/218/103
f 174/222/104 175/223/104 173/221/104
f 176/224/19 168/225/19 160/226/19
f 176/227/105 177/228/105 175/229/105
f 178/230/106 151/198/106 177/228/106
f 157/231/22 165/232/22 173/233/22
s 1
f 179/234/107 192/235/108 191/236/109
f 180/237/110 192/238/108 194/239/111
f 179/234/107 191/236/109 196/240/112
f 179/234/107 196/240/112 198/241/113
f 179/234/107 198/241/113 195/242/114
f 180/237/110 194/239/111 201/243/115
f 181/244/116 193/245/117 203/246/118
f 182/247/119 197/248/120 205/249/121
f 183/250/122 199/251/123 207/252/124
f 184/253/125 200/254/126 209/255/127
f 180/237/110 201/243/115 204/256/128
f 181/244/116 203/246/118 206/257/129
f 182/247/119 205/249/121 208/258/130
f 183/250/122 207/252/124 210/259/131
f 184/253/125 209/255/127 202/260/132
f 185/261/133 211/262/134 216/263/135
f 186/264/136 212/265/137 218/266/138
f 187/267/139 213/268/140 219/269/141
f 188/270/142 214/271/143 220/272/144
f 189/273/145 215/274/146 217/275/147
f 217/276/147 220/272/144 190/277/148
f 217/275/147 215/274/146 220/278/144
f 215/274/146 188/279/142 220/278/144
f 220/272/144 219/280/141 190/277/148
f 220/272/144 214/271/143 219/280/141
f 214/281/143 187/267/139 219/269/141
f 219/280/141 218/282/138 190/277/148
f 219/269/141 213/268/140 218/283/138
f 213/284/140 186/264/136 218/266/138
f 218/282/138 216/285/135 190/277/148
f 218/266/138 212/265/137 216/286/135
f 212/265/137 185/287/133 216/286/135
f 216/263/135 217/288/147 190/289/148
f 216/263/135 211/262/134 217/288/147
f 211/262/134 189/290/145 217/288/147
f 202/260/132 215/274/146 189/273/145
f 202/260/132 209/255/127 215/274/146
f 209/255/127 188/279/142 215/274/146
f 210/259/131 214/281/143 188/291/142
f 210/259/131 207/252/124 214/281/143
f 207/252/124 187/267/139 214/281/143
f 208/292/130 213/268/140 187/267/139
f 208/258/130 205/249/121 213/284/140
f 205/249/121 186/264/136 213/284/140
f 206/257/129 212/265/137 186/264/136
f 206/257/129 203/246/118 212/265/137
f 203/246/118 185/287/133 212/265/137
f 204/256/128 211/262/134 185/261/133
f 204/256/128 201/243/115 211/262/134
f 201/243/115 189/290/145 211/262/134
f 209/255/127 210/293/131 188/279/142
f 209/255/127 200/254/126 210/293/131
f 200/254/126 183/294/122 210/293/131
f 207/252/124 208/292/130 187/267/139
f 207/252/124 199/251/123 208/292/130
f 199/251/123 182/295/119 208/292/130
f 205/249/121 206/257/129 186/264/136
f 205/249/121 197/248/120 206/257/129
f 197/248/120 181/244/116 206/257/129
f 203/296/118 204/256/128 185/261/133
f 203/296/118 193/297/117 204/256/128
f 193/297/117 180/237/110 204/256/128
f 201/243/115 202/298/132 189/290/145
f 201/243/115 194/239/111 202/298/132
f 194/299/111 184/253/125 202/260/132
f 195/300/114 200/254/126 184/253/125
f 195/300/114 198/301/113 200/254/126
f 198/302/113 183/250/122 200/303/126
f 198/302/113 199/251/123 183/250/122
f 198/302/113 196/304/112 199/251/123
f 196/304/112 182/295/119 199/251/123
f 196/305/112 197/248/120 182/247/119
f 196/305/112 191/306/109 197/248/120
f 191/306/109 181/244/116 197/248/120
f 194/299/111 195/300/114 184/253/125
f 194/307/111 192/235/108 195/242/114
f 192/235/108 179/234/107 195/242/114
f 191/236/109 193/308/117 181/309/116
f 191/236/109 192/235/108 193/308/117
f 192/238/108 180/237/110 193/297/117
f 221/310/149 234/311/150 233/312/151
f 222/313/152 234/314/150 236/315/153
f 221/310/149 233/312/151 238/316/154
f 221/310/149 238/316/154 240/317/155
f 221/310/149 240/317/155 237/318/156
f 222/313/152 236/315/153 243/319/157
f 223/320/158 235/321/159 245/322/160
f 224/323/161 239/324/162 247/325/163
f 225/326/164 241/327/165 249/328/166
f 226/329/167 242/330/168 251/331/169
f 222/313/152 243/319/157 246/332/170
f 223/333/158 245/334/160 248/335/171
f 224/323/161 247/325/163 250/336/172
f 225/326/164 249/328/166 252/337/173
f 226/329/167 251/331/169 244/338/174
f 227/339/175 253/340/176 258/341/177
f 228/342/178 254/343/179 260/344/180
f 229/345/181 255/346/182 261/347/183
f 230/348/184 256/349/185 262/350/186
f 231/351/187 257/352/188 259/353/189
f 259/354/189 262/350/186 232/355/190
f 259/353/189 257/352/188 262/356/186
f 257/357/188 230/348/184 262/350/186
f 262/350/186 261/358/183 232/355/190
f 262/350/186 256/349/185 261/358/183
f 256/359/185 229/345/181 261/347/183
f 261/358/183 260/360/180 232/355/190
f 261/347/183 255/346/182 260/344/180
f 255/346/182 228/342/178 260/344/180
f 260/360/180 258/361/177 232/355/190
f 260/362/180 254/363/179 258/341/177
f 254/363/179 227/339/175 258/341/177
f 258/361/177 259/354/189 232/355/190
f 258/341/177 253/340/176 259/364/189
f 253/365/176 231/351/187 259/353/189
f 244/338/174 257/352/188 231/351/187
f 244/338/174 251/331/169 257/352/188
f 251/331/169 230/366/184 257/352/188
f 252/337/173 256/367/185 230/368/184
f 252/337/173 249/328/166 256/367/185
f 249/328/166 229/369/181 256/367/185
f 250/336/172 255/346/182 229/345/181
f 250/336/172 247/325/163 255/346/182
f 247/325/163 228/342/178 255/346/182
f 248/335/171 254/343/179 228/342/178
f 248/370/171 245/322/160 254/363/179
f 245/322/160 227/339/175 254/363/179
f 246/371/170 253/340/176 227/339/175
f 246/332/170 243/319/157 253/365/176
f 243/319/157 231/351/187 253/365/176
f 251/372/169 252/337/173 230/368/184
f 251/372/169 242/373/168 252/337/173
f 242/373/168 225/326/164 252/337/173
f 249/374/166 250/336/172 229/345/181
f 249/374/166 241/375/165 250/336/172
f 241/375/165 224/323/161 250/336/172
f 247/325/163 248/335/171 228/342/178
f 247/325/163 239/324/162 248/335/171
f 239/324/162 223/333/158 248/335/171
f 245/322/160 246/371/170 227/339/175
f 245/322/160 235/321/159 246/371/170
f 235/321/159 222/376/152 246/371/170
f 243/319/157 244/338/174 231/351/187
f 243/319/157 236/315/153 244/338/174
f 236/315/153 226/329/167 244/338/174
f 237/377/156 242/330/168 226/329/167
f 237/378/156 240/379/155 242/373/168
f 240/379/155 225/326/164 242/373/168
f 240/379/155 241/327/165 225/326/164
f 240/379/155 238/380/154 241/327/165
f 238/381/154 224/323/161 241/375/165
f 238/381/154 239/324/162 224/323/161
f 238/381/154 233/382/151 239/324/162
f 233/312/151 223/383/158 239/384/162
f 236/315/153 237/377/156 226/329/167
f 236/315/153 234/314/150 237/377/156
f 234/311/150 221/310/149 237/318/156
f 233/312/151 235/385/159 223/383/158
f 233/312/151 234/311/150 235/385/159
f 234/314/150 222/313/152 235/386/159
f 263/387/191 276/388/192 275/389/193
f 264/390/194 276/388/192 278/391/195
f 263/387/191 275/389/193 280/392/196
f 263/387/191 280/392/196 282/393/197
f 263/387/191 282/393/197 279/394/198
f 264/395/194 278/396/195 285/397/199
f 265/398/200 277/399/201 287/400/202
f 266/401/203 281/402/204 289/403/205
f 267/404/206 283/405/207 291/406/208
f 268/407/209 284/408/210 293/409/211
f 264/395/194 285/397/199 288/410/212
f 265/411/200 287/412/202 290/413/213
f 266/401/203 289/403/205 292/414/214
f 267/404/206 291/406/208 294/415/215
f 268/407/209 293/409/211 286/416/216
f 269/417/217 295/418/218 300/419/219
f 270/420/220 296/421/221 302/422/222
f 271/423/223 297/424/224 303/425/225
f 272/426/226 298/427/227 304/428/228
f 273/429/229 299/430/230 301/431/231
f 301/432/231 304/428/228 274/433/232
f 301/432/231 299/434/230 304/428/228
f 299/434/230 272/426/226 304/428/228
f 304/428/228 303/425/225 274/433/232
f 304/428/228 298/427/227 303/425/225
f 298/427/227 271/423/223 303/425/225
f 303/425/225 302/435/222 274/433/232
f 303/425/225 297/424/224 302/435/222
f 297/436/224 270/420/220 302/422/222
f 302/435/222 300/437/219 274/433/232
f 302/435/222 296/438/221 300/437/219
f 296/439/221 269/417/217 300/419/219
f 300/437/219 301/432/231 274/433/232
f 300/419/219 295/418/218 301/440/231
f 295/418/218 273/441/229 301/440/231
f 286/416/216 299/430/230 273/429/229
f 286/416/216 293/409/211 299/430/230
f 293/409/211 272/442/226 299/430/230
f 294/415/215 298/443/227 272/444/226
f 294/415/215 291/406/208 298/443/227
f 291/406/208 271/445/223 298/443/227
f 292/446/214 297/447/224 271/445/223
f 292/414/214 289/403/205 297/436/224
f 289/403/205 270/420/220 297/436/224
f 290/413/213 296/421/221 270/420/220
f 290/413/213 287/412/202 296/421/221
f 287/400/202 269/417/217 296/439/221
f 288/410/212 295/418/218 269/417/217
f 288/410/212 285/397/199 295/418/218
f 285/397/199 273/441/229 295/418/218
f 293/409/211 294/448/215 272/442/226
f 293/409/211 284/408/210 294/448/215
f 284/449/210 267/404/206 294/415/215
f 291/406/208 292/446/214 271/445/223
f 291/406/208 283/405/207 292/446/214
f 283/405/207 266/450/203 292/446/214
f 289/403/205 290/413/213 270/420/220
f 289/403/205 281/402/204 290/413/213
f 281/402/204 265/411/200 290/413/213
f 287/400/202 288/410/212 269/417/217
f 287/400/202 277/399/201 288/410/212
f 277/399/201 264/395/194 288/410/212
f 285/451/199 286/416/216 273/429/229
f 285/451/199 278/452/195 286/416/216
f 278/452/195 268/407/209 286/416/216
f 279/453/198 284/408/210 268/407/209
f 279/453/198 282/454/197 284/408/210
f 282/455/197 267/404/206 284/449/210
f 282/455/197 283/405/207 267/404/206
f 282/455/197 280/456/196 283/405/207
f 280/456/196 266/450/203 283/405/207
f 280/392/196 281/457/204 266/458/203
f 280/392/196 275/389/193 281/457/204
f 275/389/193 265/459/200 281/457/204
f 278/452/195 279/453/198 268/407/209
f 278/452/195 276/460/192 279/453/198
f 276/388/192 263/387/191 279/394/198
f 275/389/193 277/461/201 265/459/200
f 275/389/193 276/388/192 277/461/201
f 276/388/192 264/390/194 277/461/201
f 305/462/233 318/463/234 317/464/235
f 306/465/236 318/463/234 320/466/237
f 305/462/233 317/464/235 322/467/238
f 305/462/233 322/467/238 324/468/239
f 305/462/233 324/468/239 321/469/240
f 306/470/236 320/471/237 327/472/241
f 307/473/242 319/474/243 329/475/244
f 308/476/245 323/477/246 331/478/247
f 309/479/248 325/480/249 333/481/250
f 310/482/251 326/483/252 335/484/253
f 306/470/236 327/472/241 330/485/254
f 307/473/242 329/475/244 332/486/255
f 308/476/245 331/478/247 334/487/256
f 309/479/248 333/481/250 336/488/257
f 310/489/251 335/490/253 328/491/258
f 311/492/259 337/493/260 342/494/261
f 312/495/262 338/496/263 344/497/264
f 313/498/265 339/499/266 345/500/267
f 314/501/268 340/502/269 346/503/270
f 315/504/271 341/505/272 343/506/273
f 343/507/273 346/503/270 316/508/274
f 343/507/273 341/509/272 346/503/270
f 341/509/272 314/501/268 346/503/270
f 346/503/270 345/510/267 316/508/274
f 346/503/270 340/502/269 345/510/267
f 340/502/269 313/511/265 345/510/267
f 345/510/267 344/512/264 316/508/274
f 345/510/267 339/513/266 344/512/264
f 339/499/266 312/514/262 344/515/264
f 344/512/264 342/516/261 316/508/274
f 344/497/264 338/496/263 342/494/261
f 338/496/263 311/492/259 342/494/261
f 342/516/261 343/507/273 316/508/274
f 342/516/261 337/517/260 343/507/273
f 337/518/260 315/504/271 343/506/273
f 328/491/258 341/505/272 315/504/271
f 328/491/258 335/490/253 341/505/272
f 335/484/253 314/519/268 341/520/272
f 336/488/257 340/521/269 314/519/268
f 336/488/257 333/481/250 340/521/269
f 333/481/250 313/522/265 340/521/269
f 334/487/256 339/499/266 313/498/265
f 334/487/256 331/478/247 339/499/266
f 331/478/247 312/514/262 339/499/266
f 332/486/255 338/496/263 312/495/262
f 332/486/255 329/475/244 338/496/263
f 329/475/244 311/492/259 338/496/263
f 330/523/254 337/493/260 311/492/259
f 330/485/254 327/472/241 337/518/260
f 327/472/241 315/504/271 337/518/260
f 335/484/253 336/488/257 314/519/268
f 335/484/253 326/483/252 336/488/257
f 326/483/252 309/479/248 336/488/257
f 333/524/250 334/487/256 313/498/265
f 333/524/250 325/525/249 334/487/256
f 325/525/249 308/476/245 334/487/256
f 331/478/247 332/526/255 312/514/262
f 331/478/247 323/477/246 332/526/255
f 323/527/246 307/473/242 332/486/255
f 329/475/244 330/523/254 311/492/259
f 329/475/244 319/474/243 330/523/254
f 319/474/243 306/528/236 330/523/254
f 327/472/241 328/491/258 315/504/271
f 327/472/241 320/471/237 328/491/258
f 320/471/237 310/489/251 328/491/258
f 321/529/240 326/483/252 310/482/251
f 321/529/240 324/530/239 326/483/252
f 324/530/239 309/479/248 326/483/252
f 324/530/239 325/480/249 309/479/248
f 324/468/239 322/467/238 325/531/249
f 322/467/238 308/532/245 325/531/249
f 322/467/238 323/533/246 308/532/245
f 322/467/238 317/464/235 323/533/246
f 317/464/235 307/534/242 323/533/246
f 320/471/237 321/535/240 310/489/251
f 320/466/237 318/463/234 321/469/240
f 318/463/234 305/462/233 321/469/240
f 317/464/235 319/536/243 307/534/242
f 317/464/235 318/463/234 319/536/243
f 318/463/234 306/465/236 319/536/243
s 0
f 348/537/275 349/538/275 347/539/275
f 350/540/276 351/541/276 349/538/276
f 352/542/277 353/543/277 351/544/277
f 354/545/278 355/546/278 353/543/278
f 356/547/279 357/548/279 355/546/279
f 358/549/280 359/550/280 357/548/280
f 360/551/281 361/552/281 359/553/281
f 362/554/282 363/555/282 361/552/282
f 364/556/283 365/557/283 363/555/283
f 366/558/284 367/559/284 365/557/284
f 368/560/285 369/561/285 367/562/285
f 370/563/286 371/564/286 369/561/286
f 372/565/287 373/566/287 371/564/287
f 374/567/288 375/568/288 373/566/288
f 368/569/19 360/570/19 352/571/19
f 376/572/289 377/573/289 375/574/289
f 378/575/290 347/539/290 377/573/290
f 361/576/22 369/577/22 377/578/22
f 379/579/291 382/580/291 381/581/291
f 382/580/292 383/582/292 381/581/292
f 384/583/293 385/584/293 383/585/293
f 386/586/294 387/587/294 385/584/294
f 387/587/295 390/588/295 389/589/295
f 390/590/296 391/591/296 389/592/296
f 392/593/297 393/594/297 391/591/297
f 393/594/298 396/595/298 395/596/298
f 396/597/299 397/598/299 395/599/299
f 398/600/300 399/601/300 397/598/300
f 400/602/19 392/603/19 384/604/19
f 400/605/301 401/606/301 399/601/301
f 401/607/302 380/608/302 379/579/302
f 385/609/22 393/610/22 401/611/22
f 404/612/103 405/613/103 403/614/103
f 406/615/303 409/616/303 405/617/303
f 410/618/96 407/619/96 409/620/96
f 408/621/304 403/622/304 407/623/304
f 409/624/22 403/625/22 405/626/22
f 406/627/19 408/628/19 410/629/19
f 412/630/305 413/631/305 411/632/305
f 414/633/22 415/634/22 413/635/22
f 416/636/306 417/637/306 415/638/306
f 418/639/307 419/640/307 417/637/307
f 412/641/96 420/642/96 416/643/96
f 420/644/19 421/645/19 419/646/19
f 422/647/308 411/632/308 421/648/308
f 413/649/103 417/650/103 421/651/103
f 423/652/309 424/653/309 425/654/309
f 424/653/310 423/652/310 428/655/310
f 423/652/311 425/654/311 426/656/311
f 423/657/312 426/658/312 427/659/312
f 423/660/313 427/661/313 428/662/313
f 424/663/314 428/664/314 433/665/314
f 425/666/315 424/663/315 429/667/315
f 426/668/316 425/669/316 430/670/316
f 427/659/317 426/658/317 431/671/317
f 428/662/318 427/661/318 432/672/318
f 424/663/319 433/665/319 429/667/319
f 425/669/320 429/673/320 430/670/320
f 426/658/321 430/674/321 431/671/321
f 427/659/322 431/671/322 432/675/322
f 428/662/323 432/672/323 433/676/323
f 429/677/324 433/678/324 434/679/324
f 430/680/325 429/677/325 434/679/325
f 431/681/326 430/680/326 434/679/326
f 432/682/327 431/681/327 434/679/327
f 433/678/328 432/682/328 434/679/328
f 2/1/1 4/4/1 3/2/1
f 4/4/2 6/6/2 5/5/2
f 6/6/3 8/683/3 7/7/3
f 8/8/4 10/11/4 9/9/4
f 10/11/5 12/13/5 11/12/5
f 12/13/6 14/15/6 13/14/6
f 14/15/7 16/17/7 15/16/7
f 16/17/8 18/684/8 17/18/8
f 18/19/9 20/22/9 19/20/9
f 20/22/10 22/24/10 21/23/10
f 22/24/11 24/26/11 23/25/11
f 24/26/12 26/28/12 25/27/12
f 26/28/13 28/685/13 27/29/13
f 28/30/14 30/33/14 29/31/14
f 30/33/15 32/35/15 31/34/15
f 32/35/16 34/37/16 33/36/16
f 34/37/17 36/39/17 35/38/17
f 36/39/18 38/686/18 37/40/18
f 6/43/19 4/687/19 2/688/19
f 2/688/19 40/689/19 38/690/19
f 38/690/19 36/691/19 34/692/19
f 34/692/19 32/693/19 30/41/19
f 30/41/19 28/694/19 26/695/19
f 26/695/19 24/696/19 22/697/19
f 22/697/19 20/698/19 18/699/19
f 18/699/19 16/700/19 14/42/19
f 14/42/19 12/701/19 10/702/19
f 10/702/19 8/703/19 6/43/19
f 6/43/19 2/688/19 38/690/19
f 38/690/19 34/692/19 30/41/19
f 30/41/19 26/695/19 22/697/19
f 22/697/19 18/699/19 14/42/19
f 14/42/19 10/702/19 6/43/19
f 6/43/19 38/690/19 30/41/19
f 30/41/19 22/697/19 14/42/19
f 38/44/20 40/47/20 39/45/20
f 40/47/21 2/1/21 1/3/21
f 39/50/22 1/704/22 3/705/22
f 3/705/22 5/706/22 7/707/22
f 7/707/22 9/708/22 11/709/22
f 11/709/22 13/710/22 15/48/22
f 15/48/22 17/711/22 19/712/22
f 19/712/22 21/713/22 23/714/22
f 23/714/22 25/715/22 27/716/22
f 27/716/22 29/717/22 31/49/22
f 31/49/22 33/718/22 35/719/22
f 35/719/22 37/720/22 39/50/22
f 39/50/22 3/705/22 7/707/22
f 7/707/22 11/709/22 15/48/22
f 15/48/22 19/712/22 23/714/22
f 23/714/22 27/716/22 31/49/22
f 31/49/22 35/719/22 39/50/22
f 39/50/22 7/707/22 15/48/22
f 15/48/22 23/714/22 31/49/22
f 42/51/1 44/54/1 43/52/1
f 44/54/2 46/56/2 45/55/2
f 46/56/3 48/721/3 47/57/3
f 48/58/4 50/61/4 49/59/4
f 50/61/5 52/63/5 51/62/5
f 52/63/6 54/65/6 53/64/6
f 54/65/7 56/67/7 55/66/7
f 56/67/8 58/722/8 57/68/8
f 58/69/9 60/72/9 59/70/9
f 60/72/10 62/74/10 61/73/10
f 62/74/11 64/76/11 63/75/11
f 64/76/12 66/78/12 65/77/12
f 66/78/13 68/723/13 67/79/13
f 68/80/14 70/83/14 69/81/14
f 70/83/15 72/85/15 71/84/15
f 72/85/16 74/87/16 73/86/16
f 74/87/17 76/89/17 75/88/17
f 76/89/18 78/724/18 77/90/18
f 46/93/19 44/725/19 42/726/19
f 42/726/19 80/727/19 78/728/19
f 78/728/19 76/729/19 74/730/19
f 74/730/19 72/731/19 70/91/19
f 70/91/19 68/732/19 66/733/19
f 66/733/19 64/734/19 62/735/19
f 62/735/19 60/736/19 58/737/19
f 58/737/19 56/738/19 54/92/19
f 54/92/19 52/739/19 50/740/19
f 50/740/19 48/741/19 46/93/19
f 46/93/19 42/726/19 78/728/19
f 78/728/19 74/730/19 70/91/19
f 70/91/19 66/733/19 62/735/19
f 62/735/19 58/737/19 54/92/19
f 54/92/19 50/740/19 46/93/19
f 46/93/19 78/728/19 70/91/19
f 70/91/19 62/735/19 54/92/19
f 78/94/20 80/97/20 79/95/20
f 80/97/21 42/51/21 41/53/21
f 79/100/22 41/742/22 43/743/22
f 43/743/22 45/744/22 47/745/22
f 47/745/22 49/746/22 51/747/22
f 51/747/22 53/748/22 55/98/22
f 55/98/22 57/749/22 59/750/22
f 59/750/22 61/751/22 63/752/22
f 63/752/22 65/753/22 67/754/22
f 67/754/22 69/755/22 71/99/22
f 71/99/22 73/756/22 75/757/22
f 75/757/22 77/758/22 79/100/22
f 79/100/22 43/743/22 47/745/22
f 47/745/22 51/747/22 55/98/22
f 55/98/22 59/750/22 63/752/22
f 63/752/22 67/754/22 71/99/22
f 71/99/22 75/757/22 79/100/22
f 79/100/22 47/745/22 55/98/22
f 55/98/22 63/752/22 71/99/22
s 1
f 82/101/23 96/105/27 95/102/24
f 83/104/26 97/134/29 96/105/27
f 84/106/28 98/110/31 97/107/29
f 85/109/30 99/112/33 98/110/31
f 86/111/32 100/759/35 99/112/33
f 87/113/34 101/117/37 100/114/35
f 88/116/36 102/119/39 101/117/37
f 89/118/38 103/121/41 102/119/39
f 90/120/40 104/143/43 103/121/41
f 91/122/42 105/126/45 104/123/43
f 92/125/44 106/128/47 105/126/45
f 93/127/46 107/760/49 106/128/47
f 94/129/48 108/132/50 107/130/49
f 81/103/25 95/102/24 108/132/50
f 96/105/27 110/135/52 109/133/51
f 97/134/29 111/152/54 110/135/52
f 97/107/29 98/110/31 112/136/53
f 99/112/33 113/139/56 112/136/53
f 99/112/33 100/759/35 114/138/55
f 101/117/37 115/141/57 114/140/55
f 102/119/39 116/142/58 115/141/57
f 103/121/41 117/144/59 116/142/58
f 104/143/43 118/161/61 117/144/59
f 104/123/43 105/126/45 119/145/60
f 106/128/47 120/148/63 119/145/60
f 106/128/47 107/760/49 121/147/62
f 108/132/50 122/150/64 121/149/62
f 95/102/24 109/133/51 122/150/64
f 110/135/52 124/153/66 123/151/65
f 111/152/54 125/761/67 124/153/66
f 112/136/53 126/155/68 125/154/67
f 113/139/56 127/157/70 126/155/68
f 113/139/56 114/138/55 128/156/69
f 115/141/57 129/159/71 128/158/69
f 116/142/58 130/160/72 129/159/71
f 117/144/59 131/162/73 130/160/72
f 118/161/61 132/762/74 131/162/73
f 119/145/60 133/164/75 132/163/74
f 120/148/63 134/166/77 133/164/75
f 120/148/63 121/147/62 135/165/76
f 122/150/64 136/168/78 135/167/76
f 109/133/51 123/151/65 136/168/78
f 124/153/66 138/763/80 137/169/79
f 125/170/67 139/764/81 138/171/80
f 126/155/68 140/174/82 139/173/81
f 127/157/70 141/175/83 140/174/82
f 128/156/69 142/765/84 141/175/83
f 129/159/71 143/177/85 142/176/84
f 130/160/72 144/178/86 143/177/85
f 131/162/73 145/766/87 144/178/86
f 132/179/74 146/183/88 145/180/87
f 133/182/75 147/767/89 146/183/88
f 134/166/77 148/768/90 147/184/89
f 135/185/76 149/189/91 148/186/90
f 136/188/78 150/769/92 149/189/91
f 123/151/65 137/169/79 150/190/92
f 81/770/25 94/771/48 93/772/46
f 93/772/46 92/773/44 91/191/42
f 91/191/42 90/774/40 89/775/38
f 89/775/38 88/776/36 87/192/34
f 87/192/34 86/777/32 85/778/30
f 85/778/30 84/779/28 83/193/26
f 83/193/26 82/780/23 81/770/25
f 81/770/25 93/772/46 91/191/42
f 91/191/42 89/775/38 87/192/34
f 87/192/34 85/778/30 83/193/26
f 83/193/26 81/770/25 91/191/42
f 150/769/92 137/781/79 138/171/80
f 138/171/80 139/764/81 140/194/82
f 140/194/82 141/782/83 142/783/84
f 142/783/84 143/784/85 144/195/86
f 144/195/86 145/180/87 146/183/88
f 146/183/88 147/767/89 148/186/90
f 148/186/90 149/189/91 150/769/92
f 150/769/92 138/171/80 140/194/82
f 140/194/82 142/783/84 144/195/86
f 144/195/86 146/183/88 148/186/90
f 148/186/90 150/769/92 140/194/82
s 0
f 152/196/93 154/199/93 153/197/93
f 154/199/94 156/785/94 155/200/94
f 156/201/95 158/204/95 157/202/95
f 158/204/96 160/206/96 159/205/96
f 160/206/97 162/786/97 161/207/97
f 162/208/98 164/211/98 163/209/98
f 164/211/99 166/213/99 165/212/99
f 166/213/100 168/215/100 167/214/100
f 168/215/101 170/787/101 169/216/101
f 170/217/102 172/220/102 171/218/102
f 172/220/103 174/222/103 173/221/103
f 174/222/104 176/788/104 175/223/104
f 156/789/19 154/790/19 152/791/19
f 152/791/19 178/792/19 176/224/19
f 176/224/19 174/793/19 172/794/19
f 172/794/19 170/795/19 168/225/19
f 168/225/19 166/796/19 164/797/19
f 164/797/19 162/798/19 160/226/19
f 160/226/19 158/799/19 156/789/19
f 156/789/19 152/791/19 176/224/19
f 176/224/19 172/794/19 168/225/19
f 168/225/19 164/797/19 160/226/19
f 160/226/19 156/789/19 176/224/19
f 176/227/105 178/230/105 177/228/105
f 178/230/106 152/196/106 151/198/106
f 177/800/22 151/801/22 153/802/22
f 153/802/22 155/803/22 157/231/22
f 157/231/22 159/804/22 161/805/22
f 161/805/22 163/806/22 165/232/22
f 165/232/22 167/807/22 169/808/22
f 169/808/22 171/809/22 173/233/22
f 173/233/22 175/810/22 177/800/22
f 177/800/22 153/802/22 157/231/22
f 157/231/22 161/805/22 165/232/22
f 165/232/22 169/808/22 173/233/22
f 173/233/22 177/800/22 157/231/22
f 348/537/275 350/540/275 349/538/275
f 350/540/276 352/811/276 351/541/276
f 352/542/277 354/545/277 353/543/277
f 354/545/278 356/547/278 355/546/278
f 356/547/279 358/549/279 357/548/279
f 358/549/280 360/812/280 359/550/280
f 360/551/281 362/554/281 361/552/281
f 362/554/282 364/556/282 363/555/282
f 364/556/283 366/558/283 365/557/283
f 366/558/284 368/813/284 367/559/284
f 368/560/285 370/563/285 369/561/285
f 370/563/286 372/565/286 371/564/286
f 372/565/287 374/567/287 373/566/287
f 374/567/288 376/814/288 375/568/288
f 352/571/19 350/815/19 348/816/19
f 348/816/19 378/817/19 376/818/19
f 376/818/19 374/819/19 372/820/19
f 372/820/19 370/821/19 368/569/19
f 368/569/19 366/822/19 364/823/19
f 364/823/19 362/824/19 360/570/19
f 360/570/19 358/825/19 356/826/19
f 356/826/19 354/827/19 352/571/19
f 352/571/19 348/816/19 376/818/19
f 376/818/19 372/820/19 368/569/19
f 368/569/19 364/823/19 360/570/19
f 360/570/19 356/826/19 352/571/19
f 352/571/19 376/818/19 368/569/19
f 376/572/289 378/575/289 377/573/289
f 378/575/290 348/537/290 347/539/290
f 377/578/22 347/828/22 349/829/22
f 349/829/22 351/830/22 353/831/22
f 353/831/22 355/832/22 357/833/22
f 357/833/22 359/834/22 361/576/22
f 361/576/22 363/835/22 365/836/22
f 365/836/22 367/837/22 369/577/22
f 369/577/22 371/838/22 373/839/22
f 373/839/22 375/840/22 377/578/22
f 377/578/22 349/829/22 353/831/22
f 353/831/22 357/833/22 361/576/22
f 361/576/22 365/836/22 369/577/22
f 369/577/22 373/839/22 377/578/22
f 377/578/22 353/831/22 361/576/22
f 379/579/291 380/608/291 382/580/291
f 382/580/292 384/841/292 383/582/292
f 384/583/293 386/586/293 385/584/293
f 386/586/294 388/842/294 387/587/294
f 387/587/295 388/842/295 390/588/295
f 390/590/296 392/593/296 391/591/296
f 392/593/297 394/843/297 393/594/297
f 393/594/298 394/843/298 396/595/298
f 396/597/299 398/600/299 397/598/299
f 398/600/300 400/605/300 399/601/300
f 384/604/19 382/844/19 380/845/19
f 380/845/19 402/846/19 400/602/19
f 400/602/19 398/847/19 396/848/19
f 396/848/19 394/849/19 392/603/19
f 392/603/19 390/850/19 388/851/19
f 388/851/19 386/852/19 384/604/19
f 384/604/19 380/845/19 400/602/19
f 400/602/19 396/848/19 392/603/19
f 392/603/19 388/851/19 384/604/19
f 400/605/301 402/853/301 401/606/301
f 401/607/302 402/854/302 380/608/302
f 401/611/22 379/855/22 381/856/22
f 381/856/22 383/857/22 385/609/22
f 385/609/22 387/858/22 389/859/22
f 389/859/22 391/860/22 393/610/22
f 393/610/22 395/861/22 397/862/22
f 397/862/22 399/863/22 401/611/22
f 401/611/22 381/856/22 385/609/22
f 385/609/22 389/859/22 393/610/22
f 393/610/22 397/862/22 401/611/22
f 404/612/103 406/864/103 405/613/103
f 406/615/303 410/865/303 409/616/303
f 410/618/96 408/866/96 407/619/96
f 408/621/304 404/867/304 403/622/304
f 409/624/22 407/868/22 403/625/22
f 406/627/19 404/869/19 408/628/19
f 412/630/305 414/870/305 413/631/305
f 414/633/22 416/871/22 415/634/22
f 416/636/306 418/639/306 417/637/306
f 418/639/307 420/872/307 419/640/307
f 416/643/96 414/873/96 412/641/96
f 412/641/96 422/874/96 420/642/96
f 420/642/96 418/875/96 416/643/96
f 420/644/19 422/876/19 421/645/19
f 422/647/308 412/630/308 411/632/308
f 421/651/103 411/877/103 413/649/103
f 413/649/103 415/878/103 417/650/103
f 417/650/103 419/879/103 421/651/103
