# The Giants of Holst prop, from CC0 kits by KayKit (Kay Lousberg) and Kenney
v -0.1243 0.2250 -0.2487
vt 0.1938 0.8485
vn 0.0000 0.0000 -1.0000
v -0.1243 0.7875 -0.2487
vt 0.1938 0.8635
vn 0.0000 0.0000 -1.0000
v 0.1243 0.7875 -0.2487
vt 0.2022 0.8635
vn 0.0000 0.0000 -1.0000
v 0.1243 0.2250 -0.2487
vt 0.2022 0.8485
vn 0.0000 0.0000 -1.0000
f 1/1/1 2/2/2 3/3/3 4/4/4
v 0.1243 1.4400 0.2487
vt 0.2022 0.8809
vn 0.0000 0.0000 1.0000
v -0.1243 1.4400 0.2487
vt 0.1938 0.8809
vn 0.0000 0.0000 1.0000
v -0.1243 0.8775 0.2487
vt 0.1938 0.8659
vn 0.0000 0.0000 1.0000
v 0.1243 0.8775 0.2487
vt 0.2022 0.8659
vn 0.0000 0.0000 1.0000
f 5/5/5 6/6/6 7/7/7 8/8/8
v -0.1243 0.8775 -0.2487
vt 0.1938 0.8659
vn 0.0000 0.0000 -1.0000
v -0.1243 1.4400 -0.2487
vt 0.1938 0.8809
vn 0.0000 0.0000 -1.0000
v 0.1243 1.4400 -0.2487
vt 0.2022 0.8809
vn 0.0000 0.0000 -1.0000
v 0.1243 0.8775 -0.2487
vt 0.2022 0.8659
vn 0.0000 0.0000 -1.0000
f 9/9/9 10/10/10 11/11/11 12/12/12
v -0.1243 0.7875 0.2487
vt 0.1938 0.8791
vn 0.0000 0.4874 0.8732
v 0.1243 0.7875 0.2487
vt 0.2022 0.8791
vn 0.0000 0.4874 0.8732
v 0.1495 0.8325 0.2236
vt 0.2031 0.8803
vn 0.0000 0.4874 0.8732
v -0.1495 0.8325 0.2236
vt 0.1930 0.8803
vn 0.0000 0.4874 0.8732
f 13/13/13 14/14/14 15/15/15 16/16/16
v -0.1495 0.8325 0.2236
vt 0.1930 0.8335
vn 0.0000 -0.4874 0.8732
v 0.1495 0.8325 0.2236
vt 0.2031 0.8335
vn 0.0000 -0.4874 0.8732
v 0.1243 0.8775 0.2487
vt 0.2022 0.8347
vn 0.0000 -0.4874 0.8732
v -0.1243 0.8775 0.2487
vt 0.1938 0.8347
vn 0.0000 -0.4874 0.8732
f 17/17/17 18/18/18 19/19/19 20/20/20
v -0.1243 0.8775 -0.2487
vt 0.1938 0.8347
vn 0.0000 -0.4874 -0.8732
v 0.1243 0.8775 -0.2487
vt 0.2022 0.8347
vn 0.0000 -0.4874 -0.8732
v 0.1495 0.8325 -0.2236
vt 0.2031 0.8335
vn 0.0000 -0.4874 -0.8732
v -0.1495 0.8325 -0.2236
vt 0.1930 0.8335
vn 0.0000 -0.4874 -0.8732
f 21/21/21 22/22/22 23/23/23 24/24/24
v -0.1495 0.8325 -0.2236
vt 0.1930 0.8803
vn 0.0000 0.4874 -0.8732
v 0.1495 0.8325 -0.2236
vt 0.2031 0.8803
vn 0.0000 0.4874 -0.8732
v 0.1243 0.7875 -0.2487
vt 0.2022 0.8791
vn 0.0000 0.4874 -0.8732
v -0.1243 0.7875 -0.2487
vt 0.1938 0.8791
vn 0.0000 0.4874 -0.8732
f 25/25/25 26/26/26 27/27/27 28/28/28
v 0.1243 0.7875 0.2487
vt 0.2022 0.8635
vn 0.0000 0.0000 1.0000
v -0.1243 0.7875 0.2487
vt 0.1938 0.8635
vn 0.0000 0.0000 1.0000
v -0.1243 0.2250 0.2487
vt 0.1938 0.8485
vn 0.0000 0.0000 1.0000
v 0.1243 0.2250 0.2487
vt 0.2022 0.8485
vn 0.0000 0.0000 1.0000
f 29/29/29 30/30/30 31/31/31 32/32/32
v 0.2236 0.8325 0.1495
vt 0.2056 0.8335
vn 0.8732 -0.4874 0.0000
v 0.2236 0.8325 -0.1495
vt 0.2056 0.8335
vn 0.8732 -0.4874 0.0000
v 0.2487 0.8775 -0.1243
vt 0.2064 0.8347
vn 0.8732 -0.4874 0.0000
v 0.2487 0.8775 0.1243
vt 0.2064 0.8347
vn 0.8732 -0.4874 0.0000
f 33/33/33 34/34/34 35/35/35 36/36/36
v -0.2487 0.8775 0.1243
vt 0.1896 0.8347
vn -0.8732 -0.4874 0.0000
v -0.2487 0.8775 -0.1243
vt 0.1896 0.8347
vn -0.8732 -0.4874 0.0000
v -0.2236 0.8325 -0.1495
vt 0.1905 0.8335
vn -0.8732 -0.4874 0.0000
v -0.2236 0.8325 0.1495
vt 0.1905 0.8335
vn -0.8732 -0.4874 0.0000
f 37/37/37 38/38/38 39/39/39 40/40/40
v 0.2487 1.4400 -0.1243
vt 0.2064 0.8809
vn 1.0000 0.0000 0.0000
v 0.2487 1.4400 0.1243
vt 0.2064 0.8809
vn 1.0000 0.0000 0.0000
v 0.2487 0.8775 0.1243
vt 0.2064 0.8659
vn 1.0000 0.0000 0.0000
v 0.2487 0.8775 -0.1243
vt 0.2064 0.8659
vn 1.0000 0.0000 0.0000
f 41/41/41 42/42/42 43/43/43 44/44/44
v -0.2487 0.8775 0.1243
vt 0.1896 0.8659
vn -1.0000 0.0000 0.0000
v -0.2487 1.4400 0.1243
vt 0.1896 0.8809
vn -1.0000 0.0000 0.0000
v -0.2487 1.4400 -0.1243
vt 0.1896 0.8809
vn -1.0000 0.0000 0.0000
v -0.2487 0.8775 -0.1243
vt 0.1896 0.8659
vn -1.0000 0.0000 0.0000
f 45/45/45 46/46/46 47/47/47 48/48/48
v -0.2236 0.8325 0.1495
vt 0.1905 0.8803
vn -0.8732 0.4874 0.0000
v -0.2236 0.8325 -0.1495
vt 0.1905 0.8803
vn -0.8732 0.4874 0.0000
v -0.2487 0.7875 -0.1243
vt 0.1896 0.8791
vn -0.8732 0.4874 0.0000
v -0.2487 0.7875 0.1243
vt 0.1896 0.8791
vn -0.8732 0.4874 0.0000
f 49/49/49 50/50/50 51/51/51 52/52/52
v 0.2487 0.7875 -0.1243
vt 0.2064 0.8635
vn 1.0000 0.0000 0.0000
v 0.2487 0.7875 0.1243
vt 0.2064 0.8635
vn 1.0000 0.0000 0.0000
v 0.2487 0.2250 0.1243
vt 0.2064 0.8485
vn 1.0000 0.0000 0.0000
v 0.2487 0.2250 -0.1243
vt 0.2064 0.8485
vn 1.0000 0.0000 0.0000
f 53/53/53 54/54/54 55/55/55 56/56/56
v 0.2487 0.7875 0.1243
vt 0.2064 0.8791
vn 0.8732 0.4874 -0.0000
v 0.2487 0.7875 -0.1243
vt 0.2064 0.8791
vn 0.8732 0.4874 -0.0000
v 0.2236 0.8325 -0.1495
vt 0.2056 0.8803
vn 0.8732 0.4874 -0.0000
v 0.2236 0.8325 0.1495
vt 0.2056 0.8803
vn 0.8732 0.4874 -0.0000
f 57/57/57 58/58/58 59/59/59 60/60/60
v -0.2487 0.2250 0.1243
vt 0.1896 0.8485
vn -1.0000 0.0000 0.0000
v -0.2487 0.7875 0.1243
vt 0.1896 0.8635
vn -1.0000 0.0000 0.0000
v -0.2487 0.7875 -0.1243
vt 0.1896 0.8635
vn -1.0000 0.0000 0.0000
v -0.2487 0.2250 -0.1243
vt 0.1896 0.8485
vn -1.0000 0.0000 0.0000
f 61/61/61 62/62/62 63/63/63 64/64/64
v -0.1243 0.2250 0.2487
vt 0.1938 0.8329
vn -0.7071 0.0000 0.7071
v -0.1243 0.7875 0.2487
vt 0.1938 0.8479
vn -0.7071 0.0000 0.7071
v -0.2487 0.7875 0.1243
vt 0.1896 0.8479
vn -0.7071 0.0000 0.7071
v -0.2487 0.2250 0.1243
vt 0.1896 0.8329
vn -0.7071 0.0000 0.7071
f 65/65/65 66/66/66 67/67/67 68/68/68
v -0.1495 0.8325 0.2236
vt 0.1930 0.8491
vn -0.7071 0.0000 0.7071
v -0.2236 0.8325 0.1495
vt 0.1905 0.8491
vn -0.7071 0.0000 0.7071
v -0.2487 0.7875 0.1243
vt 0.1896 0.8479
vn -0.7071 0.0000 0.7071
v -0.1243 0.7875 0.2487
vt 0.1938 0.8479
vn -0.7071 0.0000 0.7071
f 69/69/69 70/70/70 71/71/71 72/72/72
v -0.1243 0.8775 0.2487
vt 0.1938 0.8503
vn -0.7071 0.0000 0.7071
v -0.2487 0.8775 0.1243
vt 0.1896 0.8503
vn -0.7071 0.0000 0.7071
v -0.2236 0.8325 0.1495
vt 0.1905 0.8491
vn -0.7071 0.0000 0.7071
v -0.1495 0.8325 0.2236
vt 0.1930 0.8491
vn -0.7071 0.0000 0.7071
f 73/73/73 74/74/74 75/75/75 76/76/76
v -0.1243 1.4400 0.2487
vt 0.1938 0.8653
vn -0.7071 0.0000 0.7071
v -0.2487 1.4400 0.1243
vt 0.1896 0.8653
vn -0.7071 0.0000 0.7071
v -0.2487 0.8775 0.1243
vt 0.1896 0.8503
vn -0.7071 0.0000 0.7071
v -0.1243 0.8775 0.2487
vt 0.1938 0.8503
vn -0.7071 0.0000 0.7071
f 77/77/77 78/78/78 79/79/79 80/80/80
v 0.1243 0.2250 0.2487
vt 0.2022 0.8329
vn 0.7071 0.0000 0.7071
v 0.2487 0.2250 0.1243
vt 0.2064 0.8329
vn 0.7071 0.0000 0.7071
v 0.2487 0.7875 0.1243
vt 0.2064 0.8479
vn 0.7071 0.0000 0.7071
v 0.1243 0.7875 0.2487
vt 0.2022 0.8479
vn 0.7071 0.0000 0.7071
f 81/81/81 82/82/82 83/83/83 84/84/84
v 0.1243 0.7875 0.2487
vt 0.2022 0.8479
vn 0.7071 0.0000 0.7071
v 0.2487 0.7875 0.1243
vt 0.2064 0.8479
vn 0.7071 0.0000 0.7071
v 0.2236 0.8325 0.1495
vt 0.2056 0.8491
vn 0.7071 0.0000 0.7071
v 0.1495 0.8325 0.2236
vt 0.2031 0.8491
vn 0.7071 0.0000 0.7071
f 85/85/85 86/86/86 87/87/87 88/88/88
v 0.1495 0.8325 0.2236
vt 0.2031 0.8491
vn 0.7071 0.0000 0.7071
v 0.2236 0.8325 0.1495
vt 0.2056 0.8491
vn 0.7071 0.0000 0.7071
v 0.2487 0.8775 0.1243
vt 0.2064 0.8503
vn 0.7071 0.0000 0.7071
v 0.1243 0.8775 0.2487
vt 0.2022 0.8503
vn 0.7071 0.0000 0.7071
f 89/89/89 90/90/90 91/91/91 92/92/92
v 0.1243 1.4400 0.2487
vt 0.2022 0.8653
vn 0.7071 0.0000 0.7071
v 0.1243 0.8775 0.2487
vt 0.2022 0.8503
vn 0.7071 0.0000 0.7071
v 0.2487 0.8775 0.1243
vt 0.2064 0.8503
vn 0.7071 0.0000 0.7071
v 0.2487 1.4400 0.1243
vt 0.2064 0.8653
vn 0.7071 0.0000 0.7071
f 93/93/93 94/94/94 95/95/95 96/96/96
v 0.1243 0.7875 -0.2487
vt 0.2022 0.8479
vn 0.7071 0.0000 -0.7071
v 0.2487 0.7875 -0.1243
vt 0.2064 0.8479
vn 0.7071 0.0000 -0.7071
v 0.2487 0.2250 -0.1243
vt 0.2064 0.8329
vn 0.7071 0.0000 -0.7071
v 0.1243 0.2250 -0.2487
vt 0.2022 0.8329
vn 0.7071 0.0000 -0.7071
f 97/97/97 98/98/98 99/99/99 100/100/100
v 0.1495 0.8325 -0.2236
vt 0.2031 0.8491
vn 0.7071 0.0000 -0.7071
v 0.2236 0.8325 -0.1495
vt 0.2056 0.8491
vn 0.7071 0.0000 -0.7071
v 0.2487 0.7875 -0.1243
vt 0.2064 0.8479
vn 0.7071 0.0000 -0.7071
v 0.1243 0.7875 -0.2487
vt 0.2022 0.8479
vn 0.7071 0.0000 -0.7071
f 101/101/101 102/102/102 103/103/103 104/104/104
v 0.1243 0.8775 -0.2487
vt 0.2022 0.8503
vn 0.7071 0.0000 -0.7071
v 0.2487 0.8775 -0.1243
vt 0.2064 0.8503
vn 0.7071 0.0000 -0.7071
v 0.2236 0.8325 -0.1495
vt 0.2056 0.8491
vn 0.7071 0.0000 -0.7071
v 0.1495 0.8325 -0.2236
vt 0.2031 0.8491
vn 0.7071 0.0000 -0.7071
f 105/105/105 106/106/106 107/107/107 108/108/108
v 0.1243 1.4400 -0.2487
vt 0.2022 0.8653
vn 0.7071 0.0000 -0.7071
v 0.2487 1.4400 -0.1243
vt 0.2064 0.8653
vn 0.7071 0.0000 -0.7071
v 0.2487 0.8775 -0.1243
vt 0.2064 0.8503
vn 0.7071 0.0000 -0.7071
v 0.1243 0.8775 -0.2487
vt 0.2022 0.8503
vn 0.7071 0.0000 -0.7071
f 109/109/109 110/110/110 111/111/111 112/112/112
v -0.1243 0.2250 -0.2487
vt 0.1938 0.8329
vn -0.7071 0.0000 -0.7071
v -0.2487 0.2250 -0.1243
vt 0.1896 0.8329
vn -0.7071 0.0000 -0.7071
v -0.2487 0.7875 -0.1243
vt 0.1896 0.8479
vn -0.7071 0.0000 -0.7071
v -0.1243 0.7875 -0.2487
vt 0.1938 0.8479
vn -0.7071 0.0000 -0.7071
f 113/113/113 114/114/114 115/115/115 116/116/116
v -0.1243 0.7875 -0.2487
vt 0.1938 0.8479
vn -0.7071 0.0000 -0.7071
v -0.2487 0.7875 -0.1243
vt 0.1896 0.8479
vn -0.7071 0.0000 -0.7071
v -0.2236 0.8325 -0.1495
vt 0.1905 0.8491
vn -0.7071 0.0000 -0.7071
v -0.1495 0.8325 -0.2236
vt 0.1930 0.8491
vn -0.7071 0.0000 -0.7071
f 117/117/117 118/118/118 119/119/119 120/120/120
v -0.1495 0.8325 -0.2236
vt 0.1930 0.8491
vn -0.7071 0.0000 -0.7071
v -0.2236 0.8325 -0.1495
vt 0.1905 0.8491
vn -0.7071 0.0000 -0.7071
v -0.2487 0.8775 -0.1243
vt 0.1896 0.8503
vn -0.7071 0.0000 -0.7071
v -0.1243 0.8775 -0.2487
vt 0.1938 0.8503
vn -0.7071 0.0000 -0.7071
f 121/121/121 122/122/122 123/123/123 124/124/124
v -0.1243 0.8775 -0.2487
vt 0.1938 0.8503
vn -0.7071 0.0000 -0.7071
v -0.2487 0.8775 -0.1243
vt 0.1896 0.8503
vn -0.7071 0.0000 -0.7071
v -0.2487 1.4400 -0.1243
vt 0.1896 0.8653
vn -0.7071 0.0000 -0.7071
v -0.1243 1.4400 -0.2487
vt 0.1938 0.8653
vn -0.7071 0.0000 -0.7071
f 125/125/125 126/126/126 127/127/127 128/128/128
v -0.3375 1.5525 -0.1243
vt 0.0174 0.8667
vn -0.7071 0.0000 -0.7071
v -0.3375 1.8000 -0.1243
vt 0.0174 0.8844
vn -0.7071 0.0000 -0.7071
v -0.1243 1.8000 -0.3375
vt 0.0187 0.8844
vn -0.7071 0.0000 -0.7071
v -0.1243 1.5525 -0.3375
vt 0.0187 0.8667
vn -0.7071 0.0000 -0.7071
f 129/129/129 130/130/130 131/131/131 132/132/132
v -0.1243 0.2250 -0.2487
vt 0.0187 0.9550
vn 0.0000 0.6196 -0.7849
v 0.1243 0.2250 -0.2487
vt 0.0202 0.9550
vn 0.0000 0.6196 -0.7849
v 0.1243 0.1125 -0.3375
vt 0.0202 0.9469
vn 0.0000 0.6196 -0.7849
v -0.1243 0.1125 -0.3375
vt 0.0187 0.9469
vn 0.0000 0.6196 -0.7849
f 133/133/133 134/134/134 135/135/135 136/136/136
v 0.1243 0.1125 0.3375
vt 0.0202 0.8844
vn 0.0000 0.0000 1.0000
v -0.1243 0.1125 0.3375
vt 0.0187 0.8844
vn 0.0000 0.0000 1.0000
v -0.1243 0.0000 0.3375
vt 0.0187 0.8764
vn 0.0000 0.0000 1.0000
v 0.1243 0.0000 0.3375
vt 0.0202 0.8764
vn 0.0000 0.0000 1.0000
f 137/137/137 138/138/138 139/139/139 140/140/140
v -0.1243 1.8000 -0.3375
vt 0.0187 0.8844
vn 0.0000 0.0000 -1.0000
v 0.1243 1.8000 -0.3375
vt 0.0202 0.8844
vn 0.0000 0.0000 -1.0000
v 0.1243 1.5525 -0.3375
vt 0.0202 0.8667
vn 0.0000 0.0000 -1.0000
v -0.1243 1.5525 -0.3375
vt 0.0187 0.8667
vn 0.0000 0.0000 -1.0000
f 141/141/141 142/142/142 143/143/143 144/144/144
v 0.1243 0.2250 0.2487
vt 0.0202 0.9550
vn 0.0000 0.6196 0.7849
v -0.1243 0.2250 0.2487
vt 0.0187 0.9550
vn 0.0000 0.6196 0.7849
v -0.1243 0.1125 0.3375
vt 0.0187 0.9469
vn 0.0000 0.6196 0.7849
v 0.1243 0.1125 0.3375
vt 0.0202 0.9469
vn 0.0000 0.6196 0.7849
f 145/145/145 146/146/146 147/147/147 148/148/148
v -0.1243 1.4400 -0.2487
vt 0.0187 0.7961
vn 0.0000 -0.6196 -0.7849
v -0.1243 1.5525 -0.3375
vt 0.0187 0.8042
vn 0.0000 -0.6196 -0.7849
v 0.1243 1.5525 -0.3375
vt 0.0202 0.8042
vn 0.0000 -0.6196 -0.7849
v 0.1243 1.4400 -0.2487
vt 0.0202 0.7961
vn 0.0000 -0.6196 -0.7849
f 149/149/149 150/150/150 151/151/151 152/152/152
v 0.1243 1.8000 0.3375
vt 0.0202 0.8844
vn 0.0000 0.0000 1.0000
v -0.1243 1.8000 0.3375
vt 0.0187 0.8844
vn 0.0000 0.0000 1.0000
v -0.1243 1.5525 0.3375
vt 0.0187 0.8667
vn 0.0000 0.0000 1.0000
v 0.1243 1.5525 0.3375
vt 0.0202 0.8667
vn 0.0000 0.0000 1.0000
f 153/153/153 154/154/154 155/155/155 156/156/156
v 0.1243 1.5525 0.3375
vt 0.0202 0.8042
vn 0.0000 -0.6196 0.7849
v -0.1243 1.5525 0.3375
vt 0.0187 0.8042
vn 0.0000 -0.6196 0.7849
v -0.1243 1.4400 0.2487
vt 0.0187 0.7961
vn 0.0000 -0.6196 0.7849
v 0.1243 1.4400 0.2487
vt 0.0202 0.7961
vn 0.0000 -0.6196 0.7849
f 157/157/157 158/158/158 159/159/159 160/160/160
v -0.1243 0.0000 -0.3375
vt 0.0187 0.8764
vn 0.0000 0.0000 -1.0000
v -0.1243 0.1125 -0.3375
vt 0.0187 0.8844
vn 0.0000 0.0000 -1.0000
v 0.1243 0.1125 -0.3375
vt 0.0202 0.8844
vn 0.0000 0.0000 -1.0000
v 0.1243 0.0000 -0.3375
vt 0.0202 0.8764
vn 0.0000 0.0000 -1.0000
f 161/161/161 162/162/162 163/163/163 164/164/164
v -0.3375 0.0000 -0.1243
vt 0.0174 0.8764
vn -0.7071 0.0000 -0.7071
v -0.3375 0.1125 -0.1243
vt 0.0174 0.8844
vn -0.7071 0.0000 -0.7071
v -0.1243 0.1125 -0.3375
vt 0.0187 0.8844
vn -0.7071 0.0000 -0.7071
v -0.1243 0.0000 -0.3375
vt 0.0187 0.8764
vn -0.7071 0.0000 -0.7071
f 165/165/165 166/166/166 167/167/167 168/168/168
v -0.3375 0.0000 0.1243
vt 0.0174 0.8764
vn -1.0000 0.0000 0.0000
v -0.3375 0.1125 0.1243
vt 0.0174 0.8844
vn -1.0000 0.0000 0.0000
v -0.3375 0.1125 -0.1243
vt 0.0174 0.8844
vn -1.0000 0.0000 0.0000
v -0.3375 0.0000 -0.1243
vt 0.0174 0.8764
vn -1.0000 0.0000 0.0000
f 169/169/169 170/170/170 171/171/171 172/172/172
v 0.2487 0.2250 -0.1243
vt 0.0209 0.9550
vn 0.7849 0.6196 0.0000
v 0.2487 0.2250 0.1243
vt 0.0209 0.9550
vn 0.7849 0.6196 0.0000
v 0.3375 0.1125 0.1243
vt 0.0215 0.9469
vn 0.7849 0.6196 0.0000
v 0.3375 0.1125 -0.1243
vt 0.0215 0.9469
vn 0.7849 0.6196 0.0000
f 173/173/173 174/174/174 175/175/175 176/176/176
v 0.3375 1.8000 -0.1243
vt 0.0215 0.8844
vn 1.0000 0.0000 0.0000
v 0.3375 1.8000 0.1243
vt 0.0215 0.8844
vn 1.0000 0.0000 0.0000
v 0.3375 1.5525 0.1243
vt 0.0215 0.8667
vn 1.0000 0.0000 0.0000
v 0.3375 1.5525 -0.1243
vt 0.0215 0.8667
vn 1.0000 0.0000 0.0000
f 177/177/177 178/178/178 179/179/179 180/180/180
v -0.3375 0.0000 0.1243
vt 0.0174 0.8764
vn -0.7071 0.0000 0.7071
v -0.1243 0.0000 0.3375
vt 0.0187 0.8764
vn -0.7071 0.0000 0.7071
v -0.1243 0.1125 0.3375
vt 0.0187 0.8844
vn -0.7071 0.0000 0.7071
v -0.3375 0.1125 0.1243
vt 0.0174 0.8844
vn -0.7071 0.0000 0.7071
f 181/181/181 182/182/182 183/183/183 184/184/184
v 0.3375 0.1125 0.1243
vt 0.0215 0.8844
vn 0.7071 0.0000 0.7071
v 0.1243 0.1125 0.3375
vt 0.0202 0.8844
vn 0.7071 0.0000 0.7071
v 0.1243 0.0000 0.3375
vt 0.0202 0.8764
vn 0.7071 0.0000 0.7071
v 0.3375 0.0000 0.1243
vt 0.0215 0.8764
vn 0.7071 0.0000 0.7071
f 185/185/185 186/186/186 187/187/187 188/188/188
v -0.3375 1.5525 0.1243
vt 0.0174 0.8667
vn -0.7071 0.0000 0.7071
v -0.1243 1.5525 0.3375
vt 0.0187 0.8667
vn -0.7071 0.0000 0.7071
v -0.1243 1.8000 0.3375
vt 0.0187 0.8844
vn -0.7071 0.0000 0.7071
v -0.3375 1.8000 0.1243
vt 0.0174 0.8844
vn -0.7071 0.0000 0.7071
f 189/189/189 190/190/190 191/191/191 192/192/192
v -0.2487 1.4400 0.1243
vt 0.0179 0.7961
vn -0.7849 -0.6196 0.0000
v -0.3375 1.5525 0.1243
vt 0.0174 0.8042
vn -0.7849 -0.6196 0.0000
v -0.3375 1.5525 -0.1243
vt 0.0174 0.8042
vn -0.7849 -0.6196 0.0000
v -0.2487 1.4400 -0.1243
vt 0.0179 0.7961
vn -0.7849 -0.6196 0.0000
f 193/193/193 194/194/194 195/195/195 196/196/196
v 0.3375 1.5525 -0.1243
vt 0.0215 0.8042
vn 0.7849 -0.6196 0.0000
v 0.3375 1.5525 0.1243
vt 0.0215 0.8042
vn 0.7849 -0.6196 0.0000
v 0.2487 1.4400 0.1243
vt 0.0209 0.7961
vn 0.7849 -0.6196 0.0000
v 0.2487 1.4400 -0.1243
vt 0.0209 0.7961
vn 0.7849 -0.6196 0.0000
f 197/197/197 198/198/198 199/199/199 200/200/200
v -0.2487 0.2250 0.1243
vt 0.0179 0.9550
vn -0.7849 0.6196 0.0000
v -0.2487 0.2250 -0.1243
vt 0.0179 0.9550
vn -0.7849 0.6196 0.0000
v -0.3375 0.1125 -0.1243
vt 0.0174 0.9469
vn -0.7849 0.6196 0.0000
v -0.3375 0.1125 0.1243
vt 0.0174 0.9469
vn -0.7849 0.6196 0.0000
f 201/201/201 202/202/202 203/203/203 204/204/204
v 0.3375 0.0000 -0.1243
vt 0.0215 0.8764
vn 0.7071 0.0000 -0.7071
v 0.1243 0.0000 -0.3375
vt 0.0202 0.8764
vn 0.7071 0.0000 -0.7071
v 0.1243 0.1125 -0.3375
vt 0.0202 0.8844
vn 0.7071 0.0000 -0.7071
v 0.3375 0.1125 -0.1243
vt 0.0215 0.8844
vn 0.7071 0.0000 -0.7071
f 205/205/205 206/206/206 207/207/207 208/208/208
v -0.3375 1.8000 0.1243
vt 0.0174 0.8844
vn -1.0000 0.0000 0.0000
v -0.3375 1.8000 -0.1243
vt 0.0174 0.8844
vn -1.0000 0.0000 0.0000
v -0.3375 1.5525 -0.1243
vt 0.0174 0.8667
vn -1.0000 0.0000 0.0000
v -0.3375 1.5525 0.1243
vt 0.0174 0.8667
vn -1.0000 0.0000 0.0000
f 209/209/209 210/210/210 211/211/211 212/212/212
v 0.3375 0.1125 -0.1243
vt 0.0215 0.8844
vn 1.0000 0.0000 0.0000
v 0.3375 0.1125 0.1243
vt 0.0215 0.8844
vn 1.0000 0.0000 0.0000
v 0.3375 0.0000 0.1243
vt 0.0215 0.8764
vn 1.0000 0.0000 0.0000
v 0.3375 0.0000 -0.1243
vt 0.0215 0.8764
vn 1.0000 0.0000 0.0000
f 213/213/213 214/214/214 215/215/215 216/216/216
v 0.3375 1.5525 -0.1243
vt 0.0215 0.8667
vn 0.7071 0.0000 -0.7071
v 0.1243 1.5525 -0.3375
vt 0.0202 0.8667
vn 0.7071 0.0000 -0.7071
v 0.1243 1.8000 -0.3375
vt 0.0202 0.8844
vn 0.7071 0.0000 -0.7071
v 0.3375 1.8000 -0.1243
vt 0.0215 0.8844
vn 0.7071 0.0000 -0.7071
f 217/217/217 218/218/218 219/219/219 220/220/220
v 0.3375 1.8000 0.1243
vt 0.0215 0.8844
vn 0.7071 0.0000 0.7071
v 0.1243 1.8000 0.3375
vt 0.0202 0.8844
vn 0.7071 0.0000 0.7071
v 0.1243 1.5525 0.3375
vt 0.0202 0.8667
vn 0.7071 0.0000 0.7071
v 0.3375 1.5525 0.1243
vt 0.0215 0.8667
vn 0.7071 0.0000 0.7071
f 221/221/221 222/222/222 223/223/223 224/224/224
v -0.1243 0.1125 0.3375
vt 0.0187 0.9469
vn -0.6174 0.4874 0.6174
v -0.1243 0.2250 0.2487
vt 0.0187 0.9550
vn -0.6174 0.4874 0.6174
v -0.2487 0.2250 0.1243
vt 0.0179 0.9550
vn -0.6174 0.4874 0.6174
v -0.3375 0.1125 0.1243
vt 0.0174 0.9469
vn -0.6174 0.4874 0.6174
f 225/225/225 226/226/226 227/227/227 228/228/228
v -0.1243 1.5525 0.3375
vt 0.0187 0.8042
vn -0.6174 -0.4874 0.6174
v -0.3375 1.5525 0.1243
vt 0.0174 0.8042
vn -0.6174 -0.4874 0.6174
v -0.2487 1.4400 0.1243
vt 0.0179 0.7961
vn -0.6174 -0.4874 0.6174
v -0.1243 1.4400 0.2487
vt 0.0187 0.7961
vn -0.6174 -0.4874 0.6174
f 229/229/229 230/230/230 231/231/231 232/232/232
v 0.1243 0.1125 0.3375
vt 0.0202 0.9469
vn 0.6174 0.4874 0.6174
v 0.3375 0.1125 0.1243
vt 0.0215 0.9469
vn 0.6174 0.4874 0.6174
v 0.2487 0.2250 0.1243
vt 0.0209 0.9550
vn 0.6174 0.4874 0.6174
v 0.1243 0.2250 0.2487
vt 0.0202 0.9550
vn 0.6174 0.4874 0.6174
f 233/233/233 234/234/234 235/235/235 236/236/236
v 0.1243 1.5525 0.3375
vt 0.0202 0.8042
vn 0.6174 -0.4874 0.6174
v 0.1243 1.4400 0.2487
vt 0.0202 0.7961
vn 0.6174 -0.4874 0.6174
v 0.2487 1.4400 0.1243
vt 0.0209 0.7961
vn 0.6174 -0.4874 0.6174
v 0.3375 1.5525 0.1243
vt 0.0215 0.8042
vn 0.6174 -0.4874 0.6174
f 237/237/237 238/238/238 239/239/239 240/240/240
v 0.1243 0.1125 -0.3375
vt 0.0202 0.9469
vn 0.6174 0.4874 -0.6174
v 0.1243 0.2250 -0.2487
vt 0.0202 0.9550
vn 0.6174 0.4874 -0.6174
v 0.2487 0.2250 -0.1243
vt 0.0209 0.9550
vn 0.6174 0.4874 -0.6174
v 0.3375 0.1125 -0.1243
vt 0.0215 0.9469
vn 0.6174 0.4874 -0.6174
f 241/241/241 242/242/242 243/243/243 244/244/244
v 0.1243 1.5525 -0.3375
vt 0.0202 0.8042
vn 0.6174 -0.4874 -0.6174
v 0.3375 1.5525 -0.1243
vt 0.0215 0.8042
vn 0.6174 -0.4874 -0.6174
v 0.2487 1.4400 -0.1243
vt 0.0209 0.7961
vn 0.6174 -0.4874 -0.6174
v 0.1243 1.4400 -0.2487
vt 0.0202 0.7961
vn 0.6174 -0.4874 -0.6174
f 245/245/245 246/246/246 247/247/247 248/248/248
v -0.1243 0.1125 -0.3375
vt 0.0187 0.9469
vn -0.6174 0.4874 -0.6174
v -0.3375 0.1125 -0.1243
vt 0.0174 0.9469
vn -0.6174 0.4874 -0.6174
v -0.2487 0.2250 -0.1243
vt 0.0179 0.9550
vn -0.6174 0.4874 -0.6174
v -0.1243 0.2250 -0.2487
vt 0.0187 0.9550
vn -0.6174 0.4874 -0.6174
f 249/249/249 250/250/250 251/251/251 252/252/252
v -0.1243 1.5525 -0.3375
vt 0.0187 0.8042
vn -0.6174 -0.4874 -0.6174
v -0.1243 1.4400 -0.2487
vt 0.0187 0.7961
vn -0.6174 -0.4874 -0.6174
v -0.2487 1.4400 -0.1243
vt 0.0179 0.7961
vn -0.6174 -0.4874 -0.6174
v -0.3375 1.5525 -0.1243
vt 0.0174 0.8042
vn -0.6174 -0.4874 -0.6174
f 253/253/253 254/254/254 255/255/255 256/256/256
v -0.0000 1.8000 -0.0000
vt 0.0194 0.9938
vn 0.0000 1.0000 -0.0000
v 0.1243 1.8000 -0.3375
vt 0.0202 0.9938
vn 0.0000 1.0000 -0.0000
v -0.1243 1.8000 -0.3375
vt 0.0187 0.9938
vn 0.0000 1.0000 -0.0000
f 257/257/257 258/258/258 259/259/259
v -0.0000 1.8000 -0.0000
vt 0.0194 0.9938
vn 0.0000 1.0000 -0.0000
v -0.1243 1.8000 0.3375
vt 0.0187 0.9938
vn 0.0000 1.0000 -0.0000
v 0.1243 1.8000 0.3375
vt 0.0202 0.9938
vn 0.0000 1.0000 -0.0000
f 260/260/260 261/261/261 262/262/262
v -0.0000 1.8000 -0.0000
vt 0.0194 0.9938
vn 0.0000 1.0000 -0.0000
v 0.3375 1.8000 0.1243
vt 0.0215 0.9938
vn 0.0000 1.0000 -0.0000
v 0.3375 1.8000 -0.1243
vt 0.0215 0.9938
vn 0.0000 1.0000 -0.0000
f 263/263/263 264/264/264 265/265/265
v -0.0000 1.8000 -0.0000
vt 0.0194 0.9938
vn 0.0000 1.0000 -0.0000
v -0.3375 1.8000 -0.1243
vt 0.0174 0.9938
vn 0.0000 1.0000 -0.0000
v -0.3375 1.8000 0.1243
vt 0.0174 0.9938
vn 0.0000 1.0000 -0.0000
f 266/266/266 267/267/267 268/268/268
v -0.0000 1.8000 -0.0000
vt 0.0194 0.9938
vn 0.0000 1.0000 -0.0000
v -0.3375 1.8000 0.1243
vt 0.0174 0.9938
vn 0.0000 1.0000 -0.0000
v -0.1243 1.8000 0.3375
vt 0.0187 0.9938
vn 0.0000 1.0000 -0.0000
f 269/269/269 270/270/270 271/271/271
v -0.0000 1.8000 -0.0000
vt 0.0194 0.9938
vn 0.0000 1.0000 -0.0000
v 0.3375 1.8000 -0.1243
vt 0.0215 0.9938
vn 0.0000 1.0000 -0.0000
v 0.1243 1.8000 -0.3375
vt 0.0202 0.9938
vn 0.0000 1.0000 -0.0000
f 272/272/272 273/273/273 274/274/274
v -0.0000 1.8000 -0.0000
vt 0.0194 0.9938
vn 0.0000 1.0000 -0.0000
v 0.1243 1.8000 0.3375
vt 0.0202 0.9938
vn 0.0000 1.0000 -0.0000
v 0.3375 1.8000 0.1243
vt 0.0215 0.9938
vn 0.0000 1.0000 -0.0000
f 275/275/275 276/276/276 277/277/277
v -0.0000 1.8000 -0.0000
vt 0.0194 0.9938
vn 0.0000 1.0000 -0.0000
v -0.1243 1.8000 -0.3375
vt 0.0187 0.9938
vn 0.0000 1.0000 -0.0000
v -0.3375 1.8000 -0.1243
vt 0.0174 0.9938
vn 0.0000 1.0000 -0.0000
f 278/278/278 279/279/279 280/280/280
