# Blender 4.5.13 LTS
# www.blender.org
o bark
v 0.160000 0.000000 0.000000
v 0.113137 0.000000 -0.113137
v 0.000000 0.000000 -0.160000
v -0.113137 0.000000 -0.113137
v -0.160000 0.000000 -0.000000
v -0.113137 0.000000 0.113137
v -0.000000 0.000000 0.160000
v 0.113137 0.000000 0.113137
v 0.100000 0.120000 0.000000
v 0.070711 0.120000 -0.070711
v 0.000000 0.120000 -0.100000
v -0.070711 0.120000 -0.070711
v -0.100000 0.120000 -0.000000
v -0.070711 0.120000 0.070711
v -0.000000 0.120000 0.100000
v 0.070711 0.120000 0.070711
v 0.080000 1.280000 0.000000
v 0.056569 1.280000 -0.056569
v 0.000000 1.280000 -0.080000
v -0.056569 1.280000 -0.056569
v -0.080000 1.280000 -0.000000
v -0.056569 1.280000 0.056569
v -0.000000 1.280000 0.080000
v 0.056569 1.280000 0.056569
v 0.030000 3.040000 0.000000
v 0.021213 3.040000 -0.021213
v 0.000000 3.040000 -0.030000
v -0.021213 3.040000 -0.021213
v -0.030000 3.040000 -0.000000
v -0.021213 3.040000 0.021213
v -0.000000 3.040000 0.030000
v 0.021213 3.040000 0.021213
v 0.000000 1.536000 0.000000
v 0.743373 0.605538 -0.244689
v 0.371394 0.704000 -0.256992
v 0.273959 0.605538 -0.692235
v -0.020271 0.704000 -0.480147
v -0.332753 0.605538 -0.639875
v -0.367991 0.704000 -0.277951
v -0.665606 0.605538 -0.152426
v -0.547988 0.704000 0.155299
v -0.511853 0.605538 0.491974
v -0.205488 0.704000 0.428700
v -0.044127 0.605538 0.615360
v 0.211445 0.704000 0.433049
v 0.599225 0.605538 0.487565
v 0.502213 0.704000 0.106021
v 0.408855 0.754000 -0.134579
v 0.204266 0.754000 -0.141346
v 0.150678 0.754000 -0.380729
v -0.011149 0.754000 -0.264081
v -0.183014 0.754000 -0.351931
v -0.202395 0.754000 -0.152873
v -0.366083 0.754000 -0.083834
v -0.301393 0.754000 0.085415
v -0.281519 0.754000 0.270586
v -0.113019 0.754000 0.235785
v -0.024270 0.754000 0.338448
v 0.116295 0.754000 0.238177
v 0.329574 0.754000 0.268161
v 0.276217 0.754000 0.058311
v 0.000000 1.881600 0.000000
v 0.523990 1.002338 -0.206580
v 0.282669 1.100800 -0.318283
v 0.075378 1.002338 -0.611432
v -0.083450 1.100800 -0.459906
v -0.420905 1.002338 -0.462186
v -0.423561 1.100800 -0.161170
v -0.566402 1.002338 0.036429
v -0.405479 1.100800 0.247129
v -0.415004 1.002338 0.471448
v -0.072594 1.100800 0.414052
v 0.140987 1.002338 0.571022
v 0.293074 1.100800 0.307319
v 0.527718 1.002338 0.208987
v 0.466550 1.100800 -0.037846
v 0.288195 1.150800 -0.113619
v 0.155468 1.150800 -0.175056
v 0.041458 1.150800 -0.336288
v -0.045897 1.150800 -0.252948
v -0.231498 1.150800 -0.254202
v -0.232959 1.150800 -0.088643
v -0.311521 1.150800 0.020036
v -0.223014 1.150800 0.135921
v -0.228252 1.150800 0.259296
v -0.039927 1.150800 0.227729
v 0.077543 1.150800 0.314062
v 0.161191 1.150800 0.169025
v 0.290245 1.150800 0.114943
v 0.256603 1.150800 -0.020816
v 0.000000 2.227200 0.000000
v 0.384413 1.399138 -0.363132
v 0.113270 1.497600 -0.323248
v -0.009867 1.399138 -0.455792
v -0.165926 1.497600 -0.266898
v -0.387750 1.399138 -0.226347
v -0.325898 1.497600 -0.025788
v -0.467102 1.399138 0.185532
v -0.253671 1.497600 0.234217
v -0.167392 1.399138 0.458525
v 0.012018 1.497600 0.317723
v 0.264754 1.399138 0.459713
v 0.256276 1.497600 0.167716
v 0.502725 1.399138 0.048054
v 0.295180 1.497600 -0.114206
v 0.211427 1.547600 -0.199722
v 0.062299 1.547600 -0.177786
v -0.005427 1.547600 -0.250686
v -0.091259 1.547600 -0.146794
v -0.213263 1.547600 -0.124491
v -0.179244 1.547600 -0.014183
v -0.256906 1.547600 0.102043
v -0.139519 1.547600 0.128819
v -0.092066 1.547600 0.252189
v 0.006610 1.547600 0.174747
v 0.145614 1.547600 0.252842
v 0.140952 1.547600 0.092244
v 0.276499 1.547600 0.026430
v 0.162349 1.547600 -0.062813
v 0.000000 2.572800 0.000000
v 0.379106 1.795938 0.013673
v 0.219943 1.894400 -0.106578
v 0.175059 1.795938 -0.277598
v 0.050541 1.894400 -0.282191
v -0.074327 1.795938 -0.329666
v -0.182044 1.894400 -0.182305
v -0.299868 1.795938 -0.115167
v -0.240675 1.894400 0.004441
v -0.282426 1.795938 0.162824
v -0.120349 1.894400 0.196986
v -0.044701 1.795938 0.317084
v 0.062991 1.894400 0.276871
v 0.204283 1.795938 0.266058
v 0.237736 1.894400 0.092554
v 0.208508 1.944400 0.007520
v 0.120969 1.944400 -0.058618
v 0.096282 1.944400 -0.152679
v 0.027798 1.944400 -0.155205
v -0.040880 1.944400 -0.181316
v -0.100124 1.944400 -0.100268
v -0.164928 1.944400 -0.063342
v -0.132371 1.944400 0.002443
v -0.155334 1.944400 0.089553
v -0.066192 1.944400 0.108342
v -0.024586 1.944400 0.174396
v 0.034645 1.944400 0.152279
v 0.112356 1.944400 0.146332
v 0.130755 1.944400 0.050905
v 0.000000 2.918400 0.000000
v 0.114967 2.192739 -0.199358
v 0.042459 2.291200 -0.169451
v -0.081176 2.192739 -0.255863
v -0.107713 2.291200 -0.137115
v -0.222250 2.192739 -0.113145
v -0.191988 2.291200 0.021181
v -0.224789 2.192739 0.148274
v -0.099461 2.291200 0.163691
v -0.039087 2.192739 0.231660
v 0.053785 2.291200 0.164835
v 0.153639 2.192739 0.196379
v 0.156258 2.291200 0.051676
v 0.245048 2.192739 -0.019001
v 0.144010 2.291200 -0.081233
v 0.063232 2.341200 -0.109647
v 0.023353 2.341200 -0.093198
v -0.044647 2.341200 -0.140725
v -0.059242 2.341200 -0.075413
v -0.122237 2.341200 -0.062230
v -0.105594 2.341200 0.011650
v -0.123634 2.341200 0.081551
v -0.054703 2.341200 0.090030
v -0.021498 2.341200 0.127413
v 0.029582 2.341200 0.090659
v 0.084502 2.341200 0.108009
v 0.085942 2.341200 0.028422
v 0.134776 2.341200 -0.010450
v 0.079205 2.341200 -0.044678
v 0.000000 3.264000 0.000000
v 0.143886 2.589539 -0.009789
v 0.075734 2.688000 -0.045973
v 0.066798 2.589539 -0.108555
v 0.017052 2.688000 -0.087349
v -0.034144 2.589539 -0.121131
v -0.073275 2.688000 -0.069949
v -0.151146 2.589539 -0.038728
v -0.092278 2.688000 0.018701
v -0.112043 2.589539 0.068701
v -0.054132 2.688000 0.089160
v -0.008772 2.589539 0.147682
v 0.028514 2.688000 0.094901
v 0.086991 2.589539 0.086353
v 0.090101 2.688000 0.040346
v 0.079137 2.738000 -0.005384
v 0.041654 2.738000 -0.025285
v 0.036739 2.738000 -0.059705
v 0.009379 2.738000 -0.048042
v -0.018779 2.738000 -0.066622
v -0.040302 2.738000 -0.038472
v -0.083130 2.738000 -0.021300
v -0.050753 2.738000 0.010286
v -0.061623 2.738000 0.037786
v -0.029772 2.738000 0.049038
v -0.004825 2.738000 0.081225
v 0.015683 2.738000 0.052196
v 0.047845 2.738000 0.047494
v 0.049556 2.738000 0.022190
vn 0.8929 -0.4502 -0.0000
vn 0.6314 -0.4502 -0.6314
vn -0.0000 -0.4502 -0.8929
vn -0.6314 -0.4502 -0.6314
vn -0.8929 -0.4502 -0.0000
vn -0.6314 -0.4502 0.6314
vn -0.0000 -0.4502 0.8929
vn 0.6314 -0.4502 0.6314
vn 0.9678 0.2516 -0.0000
vn 0.6844 0.2516 -0.6844
vn -0.0000 0.2516 -0.9678
vn -0.6844 0.2516 -0.6844
vn -0.9678 0.2516 -0.0000
vn -0.6844 0.2516 0.6844
vn -0.0000 0.2516 0.9678
vn 0.6844 0.2516 0.6844
vn 0.9997 0.0228 -0.0000
vn 0.7069 0.0228 -0.7069
vn -0.0000 0.0228 -0.9997
vn -0.7069 0.0228 -0.7069
vn -0.9997 0.0228 -0.0000
vn -0.7069 0.0228 0.7069
vn -0.0000 0.0228 0.9997
vn 0.7069 0.0228 0.7069
vn 0.7676 0.6409 -0.0000
vn 0.5428 0.6409 -0.5428
vn -0.0000 0.6409 -0.7676
vn -0.5428 0.6409 -0.5428
vn -0.7676 0.6409 -0.0000
vn -0.5428 0.6409 0.5428
vn -0.0000 0.6409 0.7676
vn 0.5428 0.6409 0.5428
vn -0.0046 1.0000 0.0020
vn 0.7840 -0.5012 -0.3663
vn 0.3156 -0.8496 -0.4227
vn 0.3019 -0.5188 -0.7998
vn -0.0529 -0.7494 -0.6600
vn -0.4010 -0.5366 -0.7425
vn -0.5224 -0.7541 -0.3980
vn -0.7590 -0.5813 -0.2933
vn -0.8387 -0.5072 0.1983
vn -0.5087 -0.5633 0.6511
vn -0.2209 -0.7218 0.6559
vn -0.0977 -0.6203 0.7783
vn 0.1580 -0.6780 0.7179
vn 0.6456 -0.5117 0.5669
vn 0.7260 -0.6773 0.1196
vn -0.3611 -0.9024 0.2351
vn -0.4775 -0.6376 0.6046
vn -0.1766 -0.8887 0.4230
vn 0.0585 -0.6669 0.7428
vn 0.2281 -0.8873 0.4009
vn 0.6048 -0.6610 0.4442
vn 0.4788 -0.8512 0.2148
vn 0.6416 -0.7514 -0.1539
vn 0.2813 -0.8692 -0.4066
vn 0.2336 -0.6658 -0.7086
vn 0.0554 -0.8367 -0.5449
vn -0.1666 -0.6837 -0.7104
vn -0.3233 -0.8962 -0.3039
vn -0.7098 -0.6932 -0.1253
vn 0.0153 0.9998 0.0091
vn 0.7030 -0.6588 -0.2678
vn 0.4757 -0.6325 -0.6112
vn 0.0618 -0.5988 -0.7985
vn -0.3789 -0.6207 -0.6864
vn -0.5639 -0.5929 -0.5750
vn -0.7477 -0.6132 -0.2550
vn -0.7555 -0.6550 0.0125
vn -0.7913 -0.5914 0.1556
vn -0.5459 -0.5917 0.5932
vn -0.2029 -0.6938 0.6910
vn 0.1622 -0.6113 0.7746
vn 0.4848 -0.6483 0.5871
vn 0.6879 -0.6463 0.3303
vn 0.8420 -0.5292 0.1048
vn -0.5040 -0.8311 0.2350
vn -0.4638 -0.6884 0.5577
vn -0.0762 -0.8567 0.5101
vn 0.2746 -0.6860 0.6738
vn 0.3756 -0.8420 0.3872
vn 0.6848 -0.6935 0.2238
vn 0.5851 -0.8109 -0.0112
vn 0.6909 -0.6918 -0.2097
vn 0.3116 -0.8651 -0.3931
vn 0.1742 -0.6678 -0.7236
vn -0.1159 -0.8415 -0.5277
vn -0.4845 -0.6793 -0.5512
vn -0.5102 -0.8199 -0.2597
vn -0.7121 -0.7013 -0.0331
vn -0.0075 0.9999 -0.0089
vn 0.6030 -0.6170 -0.5058
vn 0.2840 -0.7531 -0.5935
vn -0.0023 -0.6907 -0.7231
vn -0.3293 -0.7372 -0.5899
vn -0.6203 -0.6921 -0.3691
vn -0.6389 -0.7655 -0.0767
vn -0.7069 -0.6460 0.2880
vn -0.3871 -0.7672 0.5115
vn -0.2088 -0.6571 0.7243
vn 0.0838 -0.8512 0.5181
vn 0.4083 -0.6075 0.6814
vn 0.4305 -0.8611 0.2707
vn 0.7729 -0.6296 0.0793
vn 0.4660 -0.8748 -0.1328
vn -0.4314 -0.8427 0.3221
vn -0.2582 -0.6277 0.7344
vn 0.0400 -0.7975 0.6020
vn 0.3941 -0.6267 0.6723
vn 0.5214 -0.7886 0.3258
vn 0.7739 -0.6229 0.1143
vn 0.5171 -0.8341 -0.1921
vn 0.5075 -0.6275 -0.5905
vn 0.1371 -0.8198 -0.5559
vn -0.0624 -0.6023 -0.7958
vn -0.2900 -0.8402 -0.4583
vn -0.6867 -0.5967 -0.4152
vn -0.5564 -0.8282 -0.0674
vn -0.7713 -0.5973 0.2199
vn -0.0158 0.9999 0.0057
vn 0.6861 -0.7254 0.0552
vn 0.5140 -0.7838 -0.3487
vn 0.3267 -0.8089 -0.4889
vn 0.1663 -0.5511 -0.8177
vn -0.1334 -0.7970 -0.5890
vn -0.4535 -0.6666 -0.5917
vn -0.5627 -0.8070 -0.1791
vn -0.6476 -0.7498 0.1359
vn -0.5331 -0.7814 0.3244
vn -0.3860 -0.7980 0.4628
vn -0.1371 -0.8224 0.5521
vn 0.1977 -0.5426 0.8164
vn 0.3780 -0.7977 0.4699
vn 0.4254 -0.8044 0.4147
vn -0.6274 -0.7778 -0.0366
vn -0.6755 -0.5826 0.4520
vn -0.4741 -0.6848 0.5535
vn -0.1528 -0.6392 0.7537
vn 0.2237 -0.6956 0.6827
vn 0.5278 -0.6101 0.5910
vn 0.6750 -0.7107 0.1984
vn 0.8121 -0.5777 -0.0820
vn 0.6028 -0.7023 -0.3787
vn 0.4714 -0.5646 -0.6775
vn 0.2532 -0.6936 -0.6744
vn -0.1653 -0.6403 -0.7502
vn -0.4926 -0.6919 -0.5279
vn -0.6616 -0.5764 -0.4796
vn 0.0206 0.9998 -0.0030
vn 0.1928 -0.8660 -0.4614
vn -0.2431 -0.7962 -0.5540
vn -0.2217 -0.8112 -0.5411
vn -0.2570 -0.9352 -0.2437
vn -0.4464 -0.8442 -0.2968
vn -0.6525 -0.7559 -0.0529
vn -0.4640 -0.8265 0.3187
vn -0.3557 -0.7538 0.5526
vn -0.0845 -0.8732 0.4800
vn -0.0192 -0.8642 0.5028
vn 0.3030 -0.8339 0.4614
vn 0.3475 -0.8921 0.2889
vn 0.5410 -0.8405 -0.0302
vn 0.3805 -0.8652 -0.3267
vn -0.3566 -0.6383 0.6822
vn -0.0966 -0.4992 0.8611
vn 0.2726 -0.6768 0.6839
vn 0.6097 -0.4936 0.6202
vn 0.6517 -0.6266 0.4275
vn 0.8366 -0.5478 0.0115
vn 0.6153 -0.6672 -0.4198
vn 0.3936 -0.5342 -0.7482
vn 0.0670 -0.6205 -0.7814
vn -0.1395 -0.5000 -0.8547
vn -0.4515 -0.6522 -0.6089
vn -0.7826 -0.4906 -0.3832
vn -0.7514 -0.6585 0.0422
vn -0.7027 -0.4966 0.5096
vn 0.0080 0.9999 -0.0077
vn 0.3777 -0.9249 -0.0440
vn 0.2164 -0.9762 -0.0160
vn 0.1498 -0.9454 -0.2895
vn -0.1572 -0.9449 -0.2870
vn -0.0516 -0.9501 -0.3078
vn -0.3297 -0.8630 -0.3828
vn -0.4045 -0.9110 -0.0799
vn -0.1714 -0.9368 -0.3050
vn -0.2905 -0.9485 0.1259
vn -0.3059 -0.8263 0.4729
vn 0.0165 -0.9276 0.3733
vn 0.3410 -0.8962 0.2839
vn 0.2236 -0.9588 0.1750
vn 0.5926 -0.8047 0.0364
vn -0.8639 -0.4850 0.1361
vn -0.7689 -0.3471 0.5370
vn -0.4295 -0.4625 0.7756
vn -0.0883 -0.3466 0.9339
vn 0.1342 -0.4304 0.8926
vn 0.5606 -0.3887 0.7312
vn 0.8470 -0.5103 0.1487
vn 0.9137 -0.3565 -0.1950
vn 0.8165 -0.4610 -0.3476
vn 0.5357 -0.3971 -0.7452
vn -0.0396 -0.5046 -0.8624
vn -0.4783 -0.3712 -0.7959
vn -0.6601 -0.4353 -0.6122
vn -0.8362 -0.3785 -0.3970
vt 0.455243 0.518403
vt 0.474502 0.495831
vt 0.477169 0.519699
vt 0.451588 0.490988
vt 0.460798 0.495022
vt 0.590543 0.530628
vt 0.609020 0.510925
vt 0.612348 0.529591
vt 0.585370 0.522222
vt 0.565956 0.500063
vt 0.576856 0.502880
vt 0.546162 0.517789
vt 0.567929 0.517715
vt 0.540989 0.534927
vt 0.522628 0.511673
vt 0.531672 0.514270
vt 0.504610 0.529592
vt 0.526519 0.530771
vt 0.493441 0.515077
vt 0.484672 0.492943
vt 0.471534 0.299826
vt 0.482497 0.300474
vt 0.612336 0.309986
vt 0.619842 0.512559
vt 0.592776 0.309197
vt 0.603678 0.308678
vt 0.581450 0.304307
vt 0.561846 0.302091
vt 0.572730 0.302054
vt 0.536699 0.311351
vt 0.518510 0.308683
vt 0.529464 0.309273
vt 0.498615 0.512490
vt 0.508936 0.510935
vt 0.493441 0.002830
vt 0.597878 0.003077
vt 0.594632 0.002587
vt 0.585370 0.003432
vt 0.582100 0.002587
vt 0.540989 0.003587
vt 0.538276 0.002808
vt 0.510253 0.309927
vt 0.534168 0.002587
vt 0.678065 0.506591
vt 0.640553 0.522129
vt 0.625015 0.484617
vt 0.403184 0.491245
vt 0.410217 0.488331
vt 0.413131 0.495365
vt 0.423256 0.428527
vt 0.389424 0.370428
vt 0.423256 0.214543
vt 0.897832 0.282171
vt 0.867717 0.295030
vt 0.867717 0.140005
vt 0.081904 0.068856
vt 0.104368 0.064026
vt 0.100001 0.100497
vt 0.192784 0.590151
vt 0.132186 0.645185
vt 0.132186 0.432701
vt 0.485866 0.840949
vt 0.445232 0.824065
vt 0.485866 0.682553
vt 0.056378 0.106384
vt 0.002587 0.079602
vt 0.220659 0.422478
vt 0.173977 0.381095
vt 0.220659 0.261076
vt 0.862544 0.283977
vt 0.829902 0.297351
vt 0.829902 0.140005
vt 0.035966 0.135434
vt 0.074736 0.137115
vt 0.808620 0.706612
vt 0.774053 0.737869
vt 0.774053 0.540100
vt 0.957655 0.662866
vt 0.933910 0.658747
vt 0.957655 0.515981
vt 0.056378 0.166485
vt 0.002587 0.188876
vt 0.382873 0.608930
vt 0.350679 0.551691
vt 0.382873 0.412172
vt 0.312719 0.894310
vt 0.287278 0.914852
vt 0.287278 0.768678
vt 0.066749 0.200717
vt 0.091666 0.173021
vt 0.819943 0.466212
vt 0.784157 0.515009
vt 0.784157 0.330467
vt 0.924740 0.832970
vt 0.894904 0.821854
vt 0.924740 0.677671
vt 0.101483 0.203350
vt 0.084596 0.255903
vt 0.607322 0.679790
vt 0.559493 0.642608
vt 0.607322 0.540100
vt 0.530097 0.791234
vt 0.498615 0.783113
vt 0.562182 0.684963
vt 0.141427 0.239581
vt 0.132739 0.194396
vt 0.498615 0.631708
vt 0.562182 0.796352
vt 0.166150 0.193700
vt 0.202172 0.238357
vt 0.228332 0.628935
vt 0.197957 0.579436
vt 0.228332 0.432701
vt 0.126488 0.869392
vt 0.097994 0.881083
vt 0.097994 0.724245
vt 0.195589 0.182568
vt 0.162528 0.163039
vt 0.949288 0.819144
vt 0.929914 0.860454
vt 0.929914 0.677671
vt 0.974025 0.959207
vt 0.954461 0.947017
vt 0.974025 0.825389
vt 0.182251 0.148757
vt 0.231447 0.156643
vt 0.493441 0.677380
vt 0.447161 0.643158
vt 0.493441 0.524872
vt 0.733110 0.147210
vt 0.704538 0.153484
vt 0.704538 0.002587
vt 0.202799 0.108097
vt 0.166494 0.122080
vt 0.389515 0.630240
vt 0.768615 0.145748
vt 0.175145 0.084413
vt 0.218526 0.039655
vt 0.345505 0.629117
vt 0.294522 0.578948
vt 0.345505 0.412172
vt 0.603241 0.829746
vt 0.567356 0.844640
vt 0.567356 0.684963
vt 0.148821 0.051069
vt 0.136806 0.090715
vt 0.236620 0.587343
vt 0.891479 0.672498
vt 0.860465 0.661697
vt 0.891479 0.515981
vt 0.089840 0.002587
vt 0.328648 0.373329
vt 0.284865 0.366108
vt 0.236620 0.214543
vt 0.678050 0.315633
vt 0.660499 0.314547
vt 0.709906 0.181757
vt 0.375413 0.047800
vt 0.382884 0.083771
vt 0.357497 0.077118
vt 0.236620 0.406998
vt 0.709906 0.325293
vt 0.332259 0.052246
vt 0.329484 0.002587
vt 0.699280 0.647838
vt 0.662050 0.647883
vt 0.612495 0.540100
vt 0.410070 0.820548
vt 0.389515 0.822698
vt 0.417639 0.682553
vt 0.306265 0.034367
vt 0.319466 0.069730
vt 0.612495 0.681214
vt 0.440059 0.822698
vt 0.286643 0.075379
vt 0.246547 0.044647
vt 0.127013 0.600579
vt 0.097162 0.552888
vt 0.127013 0.432701
vt 0.635538 0.941051
vt 0.612495 0.956913
vt 0.612495 0.829093
vt 0.255641 0.097892
vt 0.291622 0.104668
vt 0.070311 0.542106
vt 0.561473 0.943908
vt 0.540855 0.938497
vt 0.561473 0.801526
vt 0.281184 0.126350
vt 0.236620 0.137321
vt 0.041732 0.507039
vt 0.157358 0.895245
vt 0.132186 0.896494
vt 0.132186 0.792004
vt 0.271751 0.169438
vt 0.300483 0.144019
vt 0.002587 0.495212
vt 0.177008 0.888982
vt 0.303460 0.165976
vt 0.277123 0.209370
vt 0.824729 0.317970
vt 0.788418 0.265997
vt 0.824729 0.140005
vt 0.928737 0.649508
vt 0.896652 0.660973
vt 0.896652 0.515981
vt 0.335829 0.188392
vt 0.335726 0.154443
vt 0.389515 0.864404
vt 0.419971 0.827871
vt 0.419971 0.933414
vt 0.981481 0.273099
vt 0.963933 0.258992
vt 0.981481 0.140005
vt 0.359206 0.165976
vt 0.378478 0.209370
vt 0.715535 0.463906
vt 0.672721 0.446106
vt 0.715535 0.330467
vt 0.958760 0.276425
vt 0.936389 0.276307
vt 0.958760 0.140005
vt 0.397041 0.157972
vt 0.369392 0.137712
vt 0.625015 0.455181
vt 0.959981 0.472999
vt 0.936096 0.465850
vt 0.959981 0.330467
vt 0.390477 0.124077
vt 0.435334 0.133189
vt 0.384250 0.329787
vt 0.337818 0.340291
vt 0.648057 0.306161
vt 0.625015 0.296215
vt 0.416763 0.091517
vt 0.380240 0.101162
vt 0.421530 0.059905
vt 0.889731 0.836979
vt 0.858140 0.795417
vt 0.889731 0.677671
vt 0.219834 0.951754
vt 0.195260 0.959844
vt 0.195260 0.827654
vt 0.087619 0.280241
vt 0.109128 0.298670
vt 0.083596 0.307597
vt 0.930923 0.473194
vt 0.909837 0.497774
vt 0.909837 0.330467
vt 0.986829 0.129985
vt 0.971256 0.126930
vt 0.986829 0.002587
vt 0.069188 0.297051
vt 0.061381 0.261076
vt 0.312832 0.763504
vt 0.278998 0.746168
vt 0.312832 0.634290
vt 0.024572 0.848287
vt 0.002587 0.846230
vt 0.045387 0.724245
vt 0.040337 0.299648
vt 0.057591 0.318271
vt 0.236620 0.755966
vt 0.045387 0.853649
vt 0.036851 0.326342
vt 0.002587 0.314332
vt 0.778984 0.468046
vt 0.751408 0.437684
vt 0.778984 0.330467
vt 0.949288 0.968067
vt 0.929804 0.974998
vt 0.929804 0.865628
vt 0.020334 0.347562
vt 0.046590 0.344624
vt 0.720709 0.431565
vt 0.966083 0.132220
vt 0.945052 0.126519
vt 0.966083 0.002587
vt 0.036851 0.367740
vt 0.002587 0.389600
vt 0.977178 0.662866
vt 0.962828 0.627578
vt 0.977178 0.490990
vt 0.585763 0.974539
vt 0.567356 0.979646
vt 0.567356 0.849813
vt 0.041887 0.390924
vt 0.058444 0.368473
vt 0.931216 0.249737
vt 0.903005 0.286831
vt 0.903005 0.140005
vt 0.072885 0.968046
vt 0.050561 0.960034
vt 0.072885 0.859159
vt 0.070993 0.388600
vt 0.064663 0.427527
vt 0.377814 0.780322
vt 0.348328 0.749271
vt 0.377814 0.634290
vt 0.846456 0.126927
vt 0.825557 0.126757
vt 0.866121 0.002587
vt 0.091536 0.396618
vt 0.085751 0.371605
vt 0.318006 0.743695
vt 0.866121 0.133335
vt 0.112895 0.380647
vt 0.140848 0.413067
vt 0.231130 0.822481
vt 0.195260 0.786726
vt 0.231130 0.650358
vt 0.939879 0.124321
vt 0.913209 0.133467
vt 0.913209 0.002587
vt 0.129483 0.361895
vt 0.106621 0.352507
vt 0.859136 0.446561
vt 0.825116 0.486030
vt 0.825116 0.330467
vt 0.729720 0.953878
vt 0.704453 0.945446
vt 0.729720 0.822457
vt 0.128271 0.336309
vt 0.168804 0.332454
vt 0.699364 0.158304
vt 0.654564 0.142071
vt 0.625015 0.002587
vt 0.834869 0.664181
vt 0.813794 0.664782
vt 0.855291 0.540100
vt 0.126767 0.310900
vt 0.105128 0.324459
vt 0.625015 0.176584
vt 0.855291 0.672498
vt 0.133999 0.264019
vt 0.768880 0.694993
vt 0.743020 0.666849
vt 0.768880 0.540100
vt 0.679137 0.799644
vt 0.664329 0.805113
vt 0.660024 0.686387
vt 0.684840 0.813251
vt 0.708922 0.678909
vt 0.696445 0.797430
vt 0.023203 0.641483
vt 0.029025 0.664417
vt 0.002587 0.665612
vt 0.704453 0.653902
vt 0.714904 0.810142
vt 0.704453 0.806903
vt 0.752543 0.700166
vt 0.014607 0.684415
vt 0.035650 0.674778
vt 0.190087 0.744951
vt 0.176743 0.764733
vt 0.132186 0.650358
vt 0.723426 0.813861
vt 0.038815 0.687576
vt 0.020388 0.707719
vt 0.148147 0.761410
vt 0.739385 0.815003
vt 0.053106 0.708517
vt 0.056824 0.688034
vt 0.132186 0.786830
vt 0.752543 0.817284
vt 0.068893 0.693820
vt 0.075073 0.719072
vt 0.820383 0.126796
vt 0.801962 0.105637
vt 0.820383 0.002587
vt 0.015492 0.955528
vt 0.002587 0.957859
vt 0.002587 0.858822
vt 0.086644 0.698085
vt 0.075270 0.682296
vt 0.773788 0.111032
vt 0.027652 0.949445
vt 0.090466 0.676783
vt 0.114297 0.688094
vt 0.438353 0.975086
vt 0.425144 0.946313
vt 0.438353 0.827871
vt 0.092451 0.972885
vt 0.078058 0.975173
vt 0.078058 0.859159
vt 0.102751 0.660662
vt 0.084129 0.661713
vt 0.605881 0.960452
vt 0.590936 0.987507
vt 0.590936 0.849813
vt 0.249574 0.989631
vt 0.236620 0.984987
vt 0.249574 0.886022
vt 0.089622 0.648827
vt 0.112762 0.637266
vt 0.092821 0.853985
vt 0.077262 0.831811
vt 0.092821 0.724245
vt 0.869407 0.957520
vt 0.858140 0.956542
vt 0.882978 0.842152
vt 0.095802 0.625455
vt 0.080307 0.642350
vt 0.050561 0.840751
vt 0.882978 0.959556
vt 0.071490 0.631494
vt 0.079795 0.605752
vt 0.384065 0.933557
vt 0.363274 0.913332
vt 0.384065 0.785495
vt 0.994993 0.939075
vt 0.979198 0.941138
vt 0.979198 0.825389
vt 0.050759 0.618512
vt 0.055533 0.638531
vt 0.973304 0.791995
vt 0.954461 0.820216
vt 0.954461 0.677671
vt 0.997413 0.609026
vt 0.982351 0.605108
vt 0.997413 0.490990
vt 0.041189 0.631494
vt 0.024703 0.605752
vt 0.996649 0.454744
vt 0.987088 0.435024
vt 0.996649 0.330467
vt 0.189803 0.896293
vt 0.182181 0.897570
vt 0.182181 0.792004
vt 0.389424 0.499433
vt 0.398010 0.506881
vt 0.393268 0.512999
vt 0.981914 0.443634
vt 0.965154 0.462044
vt 0.965154 0.330467
vt 0.109617 0.988366
vt 0.097994 0.988366
vt 0.107989 0.886256
vt 0.612495 0.795265
vt 0.630127 0.790349
vt 0.621073 0.819798
vt 0.043818 0.991595
vt 0.032826 0.966108
vt 0.043818 0.858822
vt 0.280403 0.981833
vt 0.271331 0.986748
vt 0.271331 0.886022
vt 0.638485 0.801920
vt 0.637835 0.789817
vt 0.994229 0.780605
vt 0.978477 0.802446
vt 0.978477 0.677671
vt 0.648705 0.792616
vt 0.654851 0.686387
vt 0.654851 0.823920
vt 0.282104 0.880849
vt 0.256165 0.865697
vt 0.243864 0.768678
vt 0.782990 0.972363
vt 0.769926 0.975667
vt 0.769926 0.883125
vt 0.395130 0.457748
vt 0.407521 0.442659
vt 0.410637 0.455887
vt 0.236620 0.880849
vt 0.792856 0.967662
vt 0.407521 0.468461
vt 0.389424 0.480612
vt 0.997373 0.274545
vt 0.986655 0.249161
vt 0.997373 0.140005
vt 0.266157 0.990191
vt 0.254747 0.991911
vt 0.254747 0.886022
vt 0.411981 0.483158
vt 0.419905 0.469862
vt 0.698373 0.948202
vt 0.690436 0.970811
vt 0.690436 0.845139
vt 0.122734 0.980905
vt 0.114790 0.978006
vt 0.122734 0.886256
vt 0.813794 0.788621
vt 0.830058 0.781281
vt 0.818323 0.809804
vt 0.846606 0.942154
vt 0.830082 0.921971
vt 0.846606 0.820024
vt 0.840694 0.781753
vt 0.852967 0.677671
vt 0.839792 0.793557
vt 0.813794 0.933407
vt 0.849113 0.784057
vt 0.852967 0.814851
vt 0.490365 0.979494
vt 0.471679 0.959400
vt 0.490365 0.846122
vt 0.752323 0.280470
vt 0.739114 0.276406
vt 0.783245 0.181757
vt 0.742767 0.290477
vt 0.653813 0.935831
vt 0.640712 0.959387
vt 0.640712 0.829093
vt 0.808304 0.987952
vt 0.798029 0.986535
vt 0.808304 0.883125
vt 0.756168 0.284371
vt 0.746086 0.314069
vt 0.808620 0.877952
vt 0.789812 0.858514
vt 0.783146 0.743042
vt 0.764893 0.283881
vt 0.765621 0.296680
vt 0.769926 0.877952
vt 0.776605 0.286516
vt 0.783245 0.317970
vt 0.466506 0.968215
vt 0.457347 0.947841
vt 0.466506 0.846122
vt 0.909679 0.930412
vt 0.904389 0.931369
vt 0.919288 0.838144
vt 0.910366 0.941170
vt 0.445232 0.964507
vt 0.915803 0.931417
vt 0.919288 0.959754
vt 0.358101 0.894239
vt 0.345187 0.879621
vt 0.318006 0.785495
vt 0.873858 0.423795
vt 0.868585 0.424581
vt 0.864309 0.330466
vt 0.871181 0.434354
vt 0.341322 0.896181
vt 0.432992 0.496591
vt 0.428430 0.497385
vt 0.428430 0.405650
vt 0.877098 0.424419
vt 0.879788 0.452522
vt 0.329030 0.882710
vt 0.882603 0.422912
vt 0.887082 0.432748
vt 0.318006 0.903005
vt 0.890780 0.421732
vt 0.904664 0.447636
vt 0.908036 0.105692
vt 0.892555 0.094122
vt 0.871294 0.002587
vt 0.671414 0.929206
vt 0.663961 0.929101
vt 0.660024 0.845139
vt 0.671077 0.935008
vt 0.888242 0.110716
vt 0.761675 0.792847
vt 0.757716 0.793245
vt 0.757716 0.700166
vt 0.675106 0.927347
vt 0.680288 0.947931
vt 0.879172 0.098155
vt 0.230829 0.355003
vt 0.225832 0.354635
vt 0.230829 0.261076
vt 0.685263 0.933540
vt 0.679217 0.928398
vt 0.871294 0.118810
vt 0.435212 0.400476
vt 0.428430 0.398643
vt 0.435212 0.313470
vt 0.734893 0.923424
vt 0.744831 0.916131
vt 0.737230 0.943844
vt 0.535682 0.915325
vt 0.526841 0.898542
vt 0.531744 0.801526
vt 0.749860 0.915904
vt 0.761988 0.822457
vt 0.748622 0.926342
vt 0.515445 0.914249
vt 0.755572 0.916823
vt 0.756760 0.945102
vt 0.512609 0.898284
vt 0.123815 0.698429
vt 0.119471 0.698429
vt 0.121054 0.605752
vt 0.761988 0.926678
vt 0.757211 0.916089
vt 0.498615 0.915325
vt 0.434920 0.308085
vt 0.428430 0.308297
vt 0.428430 0.214543
vt 0.894904 0.938740
vt 0.898535 0.959667
vt 0.440508 0.511948
vt 0.595392 0.511574
vt 0.552352 0.500109
vt 0.489330 0.002587
vt 0.590543 0.002781
vt 0.578019 0.002601
vt 0.531072 0.003053
vt 0.640553 0.469079
vt 0.662527 0.469079
vt 0.678065 0.484617
vt 0.662527 0.522129
vt 0.625015 0.506591
vt 0.410217 0.498278
vt 0.406097 0.498278
vt 0.403184 0.495365
vt 0.406097 0.488331
vt 0.413131 0.491245
vt 0.660024 0.839966
vt 0.040377 0.651165
vt 0.398010 0.488331
vt 0.623540 0.786156
vt 0.389424 0.433700
vt 0.826395 0.779038
vt 0.715079 0.299588
vt 0.864309 0.452817
vt 0.660024 0.951121
vt 0.742309 0.914299
vt 0.901175 0.929076
s 1
f 2/1/2 9/2/9 1/3/1
f 2/1/2 11/4/11 10/5/10
f 4/6/4 11/7/11 3/8/3
f 4/9/4 13/10/13 12/11/12
f 6/12/6 13/10/13 5/13/5
f 6/14/6 15/15/15 14/16/14
f 8/17/8 15/15/15 7/18/7
f 8/19/8 9/2/9 16/20/16
f 9/2/9 18/21/18 17/22/17
f 11/7/11 18/23/18 10/24/10
f 11/7/11 20/25/20 19/26/19
f 13/10/13 20/27/20 12/11/12
f 13/10/13 22/28/22 21/29/21
f 15/15/15 22/30/22 14/16/14
f 15/15/15 24/31/24 23/32/23
f 9/33/9 24/31/24 16/34/16
f 18/21/18 25/35/25 17/22/17
f 19/26/19 26/36/26 18/23/18
f 20/25/20 27/37/27 19/26/19
f 21/29/21 28/38/28 20/27/20
f 22/28/22 29/39/29 21/29/21
f 23/32/23 30/40/30 22/30/22
f 24/31/24 31/41/31 23/32/23
f 17/42/17 32/43/32 24/31/24
f 5/44/5 3/45/3 1/46/1
f 28/47/28 30/48/30 32/49/32
f 34/50/34 35/51/35 33/52/33
f 49/53/49 48/54/48 33/55/33
f 35/56/35 48/57/48 49/58/49
f 35/59/35 36/60/36 33/61/33
f 50/62/50 49/63/49 33/64/33
f 35/56/35 50/65/50 36/66/36
f 36/67/36 37/68/37 33/69/33
f 51/70/51 50/71/50 33/72/33
f 37/73/37 50/65/50 51/74/51
f 37/75/37 38/76/38 33/77/33
f 52/78/52 51/79/51 33/80/33
f 37/73/37 52/81/52 38/82/38
f 38/83/38 39/84/39 33/85/33
f 53/86/53 52/87/52 33/88/33
f 39/89/39 52/81/52 53/90/53
f 39/91/39 40/92/40 33/93/33
f 54/94/54 53/95/53 33/96/33
f 39/89/39 54/97/54 40/98/40
f 40/99/40 41/100/41 33/101/33
f 55/102/55 54/103/54 33/104/33
f 41/105/41 54/97/54 55/106/55
f 41/100/41 42/107/42 33/101/33
f 56/108/56 55/102/55 33/104/33
f 41/105/41 56/109/56 42/110/42
f 42/111/42 43/112/43 33/113/33
f 57/114/57 56/115/56 33/116/33
f 43/117/43 56/109/56 57/118/57
f 43/119/43 44/120/44 33/121/33
f 58/122/58 57/123/57 33/124/33
f 43/117/43 58/125/58 44/126/44
f 44/127/44 45/128/45 33/129/33
f 59/130/59 58/131/58 33/132/33
f 45/133/45 58/125/58 59/134/59
f 45/128/45 46/135/46 33/129/33
f 60/136/60 59/130/59 33/132/33
f 45/133/45 60/137/60 46/138/46
f 46/139/46 47/140/47 33/141/33
f 61/142/61 60/143/60 33/144/33
f 47/145/47 60/137/60 61/146/61
f 47/140/47 34/147/34 33/141/33
f 48/148/48 61/149/61 33/150/33
f 47/145/47 48/57/48 34/151/34
f 63/152/63 64/153/64 62/154/62
f 78/155/78 77/156/77 62/157/62
f 64/158/64 77/159/77 78/160/78
f 64/153/64 65/161/65 62/154/62
f 79/162/79 78/155/78 62/157/62
f 64/158/64 79/163/79 65/164/65
f 65/165/65 66/166/66 62/167/62
f 80/168/80 79/169/79 62/170/62
f 66/171/66 79/163/79 80/172/80
f 66/166/66 67/173/67 62/167/62
f 81/174/81 80/168/80 62/170/62
f 66/171/66 81/175/81 67/176/67
f 67/177/67 68/178/68 62/179/62
f 82/180/82 81/181/81 62/182/62
f 68/183/68 81/175/81 82/184/82
f 68/178/68 69/185/69 62/179/62
f 83/186/83 82/187/82 62/188/62
f 68/183/68 83/189/83 69/190/69
f 69/185/69 70/191/70 62/179/62
f 84/192/84 83/193/83 62/194/62
f 70/195/70 83/189/83 84/196/84
f 70/191/70 71/197/71 62/179/62
f 85/198/85 84/192/84 62/194/62
f 70/195/70 85/199/85 71/200/71
f 71/201/71 72/202/72 62/203/62
f 86/204/86 85/205/85 62/206/62
f 72/207/72 85/199/85 86/208/86
f 72/209/72 73/210/73 62/211/62
f 87/212/87 86/213/86 62/214/62
f 72/207/72 87/215/87 73/216/73
f 73/217/73 74/218/74 62/219/62
f 88/220/88 87/221/87 62/222/62
f 74/223/74 87/215/87 88/224/88
f 74/218/74 75/225/75 62/219/62
f 89/226/89 88/227/88 62/228/62
f 74/223/74 89/229/89 75/230/75
f 75/231/75 76/232/76 62/154/62
f 90/233/90 89/234/89 62/157/62
f 76/235/76 89/229/89 90/236/90
f 76/232/76 63/152/63 62/154/62
f 77/156/77 90/233/90 62/157/62
f 76/235/76 77/159/77 63/237/63
f 92/238/92 93/239/93 91/240/91
f 107/241/107 106/242/106 91/243/91
f 93/244/93 106/245/106 107/246/107
f 93/247/93 94/248/94 91/249/91
f 108/250/108 107/251/107 91/252/91
f 93/244/93 108/253/108 94/254/94
f 94/255/94 95/256/95 91/257/91
f 109/258/109 108/259/108 91/260/91
f 95/261/95 108/253/108 109/262/109
f 95/256/95 96/263/96 91/257/91
f 110/264/110 109/258/109 91/260/91
f 95/261/95 110/265/110 96/266/96
f 96/267/96 97/268/97 91/269/91
f 111/270/111 110/271/110 91/272/91
f 97/273/97 110/265/110 111/274/111
f 97/268/97 98/275/98 91/269/91
f 112/276/112 111/277/111 91/278/91
f 97/273/97 112/279/112 98/280/98
f 98/281/98 99/282/99 91/283/91
f 113/284/113 112/285/112 91/286/91
f 99/287/99 112/279/112 113/288/113
f 99/289/99 100/290/100 91/291/91
f 114/292/114 113/293/113 91/294/91
f 99/287/99 114/295/114 100/296/100
f 100/297/100 101/298/101 91/299/91
f 115/300/115 114/301/114 91/302/91
f 101/303/101 114/295/114 115/304/115
f 101/298/101 102/305/102 91/299/91
f 116/306/116 115/300/115 91/302/91
f 101/303/101 116/307/116 102/308/102
f 102/309/102 103/310/103 91/311/91
f 117/312/117 116/313/116 91/314/91
f 103/315/103 116/307/116 117/316/117
f 103/317/103 104/318/104 91/319/91
f 118/320/118 117/321/117 91/322/91
f 103/315/103 118/323/118 104/324/104
f 104/325/104 105/326/105 91/327/91
f 119/328/119 118/329/118 91/330/91
f 105/331/105 118/323/118 119/332/119
f 105/326/105 92/333/92 91/327/91
f 106/334/106 119/328/119 91/330/91
f 105/331/105 106/245/106 92/335/92
f 121/336/121 122/337/122 120/338/120
f 136/339/136 135/340/135 120/341/120
f 122/342/122 135/340/135 136/339/136
f 122/337/122 123/343/123 120/338/120
f 137/344/137 136/339/136 120/341/120
f 122/345/122 137/346/137 123/347/123
f 123/343/123 124/348/124 120/338/120
f 138/349/138 137/350/137 120/351/120
f 124/352/124 137/346/137 138/353/138
f 124/354/124 125/355/125 120/356/120
f 139/357/139 138/349/138 120/351/120
f 124/352/124 139/358/139 125/359/125
f 125/355/125 126/360/126 120/356/120
f 140/361/140 139/357/139 120/351/120
f 126/362/126 139/358/139 140/363/140
f 126/360/126 127/364/127 120/356/120
f 141/365/141 140/361/140 120/351/120
f 126/362/126 141/366/141 127/367/127
f 127/368/127 128/369/128 120/370/120
f 142/371/142 141/372/141 120/373/120
f 128/374/128 141/366/141 142/375/142
f 128/369/128 129/376/129 120/370/120
f 143/377/143 142/371/142 120/373/120
f 128/374/128 143/378/143 129/379/129
f 129/380/129 130/381/130 120/382/120
f 144/383/144 143/384/143 120/385/120
f 130/386/130 143/378/143 144/387/144
f 130/388/130 131/389/131 120/390/120
f 145/391/145 144/392/144 120/393/120
f 130/386/130 145/394/145 131/395/131
f 131/396/131 132/397/132 120/398/120
f 146/399/146 145/400/145 120/401/120
f 132/402/132 145/394/145 146/403/146
f 132/397/132 133/404/133 120/398/120
f 147/405/147 146/399/146 120/401/120
f 132/402/132 147/406/147 133/407/133
f 133/408/133 134/409/134 120/410/120
f 148/411/148 147/412/147 120/413/120
f 134/414/134 147/406/147 148/415/148
f 134/416/134 121/417/121 120/418/120
f 135/419/135 148/420/148 120/421/120
f 134/414/134 135/422/135 121/423/121
f 150/424/150 151/425/151 149/426/149
f 165/427/165 164/428/164 149/429/149
f 151/430/151 164/431/164 165/432/165
f 151/433/151 152/434/152 149/435/149
f 166/436/166 165/437/165 149/438/149
f 151/439/151 166/440/166 152/441/152
f 152/442/152 153/443/153 149/444/149
f 167/445/167 166/446/166 149/447/149
f 153/448/153 166/440/166 167/449/167
f 153/450/153 154/451/154 149/452/149
f 168/453/168 167/449/167 149/454/149
f 153/448/153 168/453/168 154/455/154
f 154/456/154 155/457/155 149/458/149
f 169/459/169 168/460/168 149/461/149
f 155/462/155 168/463/168 169/464/169
f 155/457/155 156/465/156 149/458/149
f 170/466/170 169/459/169 149/461/149
f 155/462/155 170/467/170 156/468/156
f 156/469/156 157/470/157 149/471/149
f 171/472/171 170/473/170 149/474/149
f 157/475/157 170/467/170 171/476/171
f 157/477/157 158/478/158 149/479/149
f 172/480/172 171/481/171 149/482/149
f 157/483/157 172/484/172 158/485/158
f 158/486/158 159/487/159 149/488/149
f 173/489/173 172/484/172 149/490/149
f 159/491/159 172/484/172 173/489/173
f 159/487/159 160/492/160 149/488/149
f 174/493/174 173/489/173 149/490/149
f 159/491/159 174/493/174 160/494/160
f 160/495/160 161/496/161 149/497/149
f 175/498/175 174/499/174 149/500/149
f 161/501/161 174/499/174 175/498/175
f 161/502/161 162/503/162 149/504/149
f 176/505/176 175/506/175 149/507/149
f 161/501/161 176/508/176 162/509/162
f 162/510/162 163/511/163 149/512/149
f 177/513/177 176/508/176 149/500/149
f 163/514/163 176/508/176 177/513/177
f 163/511/163 150/515/150 149/512/149
f 164/516/164 177/513/177 149/500/149
f 163/514/163 164/516/164 150/517/150
f 179/518/179 180/519/180 178/520/178
f 194/521/194 193/522/193 178/523/178
f 180/524/180 193/522/193 194/521/194
f 180/519/180 181/525/181 178/520/178
f 195/526/195 194/521/194 178/523/178
f 180/524/180 195/526/195 181/527/181
f 181/528/181 182/529/182 178/530/178
f 196/531/196 195/532/195 178/533/178
f 182/534/182 195/532/195 196/531/196
f 182/529/182 183/535/183 178/530/178
f 197/536/197 196/537/196 178/538/178
f 182/534/182 197/539/197 183/540/183
f 183/535/183 184/541/184 178/530/178
f 198/542/198 197/539/197 178/533/178
f 184/543/184 197/539/197 198/542/198
f 184/541/184 185/544/185 178/530/178
f 199/545/199 198/542/198 178/533/178
f 184/543/184 199/545/199 185/546/185
f 185/547/185 186/548/186 178/549/178
f 200/550/200 199/551/199 178/552/178
f 186/553/186 199/551/199 200/550/200
f 186/548/186 187/554/187 178/549/178
f 201/555/201 200/556/200 178/557/178
f 186/553/186 201/558/201 187/559/187
f 187/554/187 188/560/188 178/549/178
f 202/561/202 201/562/201 178/563/178
f 188/564/188 201/558/201 202/565/202
f 188/560/188 189/566/189 178/549/178
f 203/567/203 202/568/202 178/569/178
f 188/570/188 203/571/203 189/572/189
f 189/573/189 190/574/190 178/575/178
f 204/576/204 203/571/203 178/577/178
f 190/578/190 203/571/203 204/576/204
f 190/574/190 191/579/191 178/575/178
f 205/580/205 204/576/204 178/577/178
f 190/578/190 205/580/205 191/581/191
f 191/579/191 192/582/192 178/575/178
f 206/583/206 205/584/205 178/585/178
f 192/586/192 205/580/205 206/587/206
f 192/582/192 179/588/179 178/575/178
f 193/589/193 206/590/206 178/591/178
f 192/592/192 193/522/193 179/593/179
f 2/1/2 10/5/10 9/2/9
f 2/1/2 3/594/3 11/4/11
f 4/6/4 12/595/12 11/7/11
f 4/9/4 5/13/5 13/10/13
f 6/12/6 14/596/14 13/10/13
f 6/14/6 7/18/7 15/15/15
f 8/17/8 16/34/16 15/15/15
f 8/19/8 1/3/1 9/2/9
f 9/2/9 10/5/10 18/21/18
f 11/7/11 19/26/19 18/23/18
f 11/7/11 12/595/12 20/25/20
f 13/10/13 21/29/21 20/27/20
f 13/10/13 14/596/14 22/28/22
f 15/15/15 23/32/23 22/30/22
f 15/15/15 16/34/16 24/31/24
f 9/33/9 17/42/17 24/31/24
f 18/21/18 26/597/26 25/35/25
f 19/26/19 27/37/27 26/36/26
f 20/25/20 28/598/28 27/37/27
f 21/29/21 29/39/29 28/38/28
f 22/28/22 30/599/30 29/39/29
f 23/32/23 31/41/31 30/40/30
f 24/31/24 32/43/32 31/41/31
f 17/42/17 25/600/25 32/43/32
f 1/46/1 8/601/8 7/602/7
f 7/602/7 6/603/6 5/44/5
f 5/44/5 4/604/4 3/45/3
f 3/45/3 2/605/2 1/46/1
f 1/46/1 7/602/7 5/44/5
f 32/49/32 25/606/25 26/607/26
f 26/607/26 27/608/27 28/47/28
f 28/47/28 29/609/29 30/48/30
f 30/48/30 31/610/31 32/49/32
f 32/49/32 26/607/26 28/47/28
f 35/56/35 34/151/34 48/57/48
f 35/56/35 49/58/49 50/65/50
f 37/73/37 36/66/36 50/65/50
f 37/73/37 51/74/51 52/81/52
f 39/89/39 38/82/38 52/81/52
f 39/89/39 53/90/53 54/97/54
f 41/105/41 40/98/40 54/97/54
f 41/105/41 55/106/55 56/109/56
f 43/117/43 42/110/42 56/109/56
f 43/117/43 57/118/57 58/125/58
f 45/133/45 44/126/44 58/125/58
f 45/133/45 59/134/59 60/137/60
f 47/145/47 46/138/46 60/137/60
f 47/145/47 61/146/61 48/57/48
f 64/158/64 63/237/63 77/159/77
f 64/158/64 78/160/78 79/163/79
f 66/171/66 65/164/65 79/163/79
f 66/171/66 80/172/80 81/175/81
f 68/183/68 67/176/67 81/175/81
f 68/183/68 82/184/82 83/189/83
f 70/195/70 69/190/69 83/189/83
f 70/195/70 84/196/84 85/199/85
f 72/207/72 71/200/71 85/199/85
f 72/207/72 86/208/86 87/215/87
f 74/223/74 73/216/73 87/215/87
f 74/223/74 88/224/88 89/229/89
f 76/235/76 75/230/75 89/229/89
f 76/235/76 90/236/90 77/159/77
f 93/244/93 92/335/92 106/245/106
f 93/244/93 107/246/107 108/253/108
f 95/261/95 94/254/94 108/253/108
f 95/261/95 109/262/109 110/265/110
f 97/273/97 96/266/96 110/265/110
f 97/273/97 111/274/111 112/279/112
f 99/287/99 98/280/98 112/279/112
f 99/287/99 113/288/113 114/295/114
f 101/303/101 100/296/100 114/295/114
f 101/303/101 115/304/115 116/307/116
f 103/315/103 102/308/102 116/307/116
f 103/315/103 117/316/117 118/323/118
f 105/331/105 104/324/104 118/323/118
f 105/331/105 119/332/119 106/245/106
f 122/342/122 121/611/121 135/340/135
f 122/345/122 136/612/136 137/346/137
f 124/352/124 123/347/123 137/346/137
f 124/352/124 138/353/138 139/358/139
f 126/362/126 125/359/125 139/358/139
f 126/362/126 140/363/140 141/366/141
f 128/374/128 127/367/127 141/366/141
f 128/374/128 142/375/142 143/378/143
f 130/386/130 129/379/129 143/378/143
f 130/386/130 144/387/144 145/394/145
f 132/402/132 131/395/131 145/394/145
f 132/402/132 146/403/146 147/406/147
f 134/414/134 133/407/133 147/406/147
f 134/414/134 148/415/148 135/422/135
f 151/430/151 150/613/150 164/431/164
f 151/439/151 165/614/165 166/440/166
f 153/448/153 152/441/152 166/440/166
f 153/448/153 167/449/167 168/453/168
f 155/462/155 154/615/154 168/463/168
f 155/462/155 169/464/169 170/467/170
f 157/475/157 156/468/156 170/467/170
f 157/483/157 171/616/171 172/484/172
f 159/491/159 158/485/158 172/484/172
f 159/491/159 173/489/173 174/493/174
f 161/501/161 160/617/160 174/499/174
f 161/501/161 175/498/175 176/508/176
f 163/514/163 162/509/162 176/508/176
f 163/514/163 177/513/177 164/516/164
f 180/524/180 179/593/179 193/522/193
f 180/524/180 194/521/194 195/526/195
f 182/534/182 181/618/181 195/532/195
f 182/534/182 196/531/196 197/539/197
f 184/543/184 183/540/183 197/539/197
f 184/543/184 198/542/198 199/545/199
f 186/553/186 185/619/185 199/551/199
f 186/553/186 200/550/200 201/558/201
f 188/564/188 187/559/187 201/558/201
f 188/570/188 202/620/202 203/571/203
f 190/578/190 189/572/189 203/571/203
f 190/578/190 204/576/204 205/580/205
f 192/586/192 191/581/191 205/580/205
f 192/592/192 206/621/206 193/522/193
