# Blender 4.5.13 LTS
# www.blender.org
o bark
v 0.000000 0.000000 -0.090000
v 0.000000 0.910000 -0.060000
v 0.070365 0.000000 -0.056114
v 0.046910 0.910000 -0.037409
v 0.087744 0.000000 0.020027
v 0.058496 0.910000 0.013351
v 0.039050 0.000000 0.081087
v 0.026033 0.910000 0.054058
v -0.039050 0.000000 0.081087
v -0.026033 0.910000 0.054058
v -0.087744 0.000000 0.020027
v -0.058496 0.910000 0.013351
v -0.070365 0.000000 -0.056114
v -0.046910 0.910000 -0.037409
v -0.080376 0.650000 -0.594592
v -0.002679 1.430000 -0.019820
v 0.320625 0.650000 -0.507149
v 0.010687 1.430000 -0.016905
v 0.571602 0.650000 -0.182405
v 0.019053 1.430000 -0.006080
v 0.555120 0.650000 0.227688
v 0.018504 1.430000 0.007590
v 0.278891 0.650000 0.531243
v 0.009296 1.430000 0.017708
v -0.127833 0.650000 0.586224
v -0.004261 1.430000 0.019541
v -0.474744 0.650000 0.366904
v -0.015825 1.430000 0.012230
v -0.599516 0.650000 -0.024095
v -0.019984 1.430000 -0.000803
v -0.443768 0.650000 -0.403819
v -0.014792 1.430000 -0.013461
v -0.359800 1.170000 -0.317716
v -0.014992 1.950000 -0.013238
v -0.071399 1.170000 -0.474660
v -0.002975 1.950000 -0.019778
v 0.250411 1.170000 -0.409505
v 0.010434 1.950000 -0.017063
v 0.455051 1.170000 -0.152738
v 0.018960 1.950000 -0.006364
v 0.446767 1.170000 0.175497
v 0.018615 1.950000 0.007312
v 0.229436 1.170000 0.421615
v 0.009560 1.950000 0.017567
v -0.095250 1.170000 0.470454
v -0.003969 1.950000 0.019602
v -0.375368 1.170000 0.299163
v -0.015640 1.950000 0.012465
v -0.479847 1.170000 -0.012110
v -0.019994 1.950000 -0.000505
v -0.235162 1.638000 -0.245558
v -0.013833 2.418000 -0.014445
v -0.022303 1.638000 -0.339268
v -0.001312 2.418000 -0.019957
v 0.200992 1.638000 -0.274230
v 0.011823 2.418000 -0.016131
v 0.330241 1.638000 -0.080877
v 0.019426 2.418000 -0.004757
v 0.304966 1.638000 0.150319
v 0.017939 2.418000 0.008842
v 0.136994 1.638000 0.311179
v 0.008058 2.418000 0.018305
v -0.095079 1.638000 0.326435
v -0.005593 2.418000 0.019202
v -0.282663 1.638000 0.188948
v -0.016627 2.418000 0.011115
v -0.337986 1.638000 -0.036949
v -0.019882 2.418000 -0.002173
v -0.050462 2.080000 -0.193529
v -0.005046 2.860000 -0.019353
v 0.085742 2.080000 -0.180689
v 0.008574 2.860000 -0.018069
v 0.181826 2.080000 -0.083302
v 0.018183 2.860000 -0.008330
v 0.192832 2.080000 0.053063
v 0.019283 2.860000 0.005306
v 0.113610 2.080000 0.164599
v 0.011361 2.860000 0.016460
v -0.018772 2.080000 0.199117
v -0.001877 2.860000 0.019912
v -0.142370 2.080000 0.140466
v -0.014237 2.860000 0.014047
v -0.199352 2.080000 0.016090
v -0.019935 2.860000 0.001609
v -0.163055 2.080000 -0.115815
v -0.016305 2.860000 -0.011582
vn 0.4337 0.0297 -0.9006
vn 0.9745 0.0297 -0.2224
vn 0.7815 0.0297 0.6232
vn -0.0000 0.0297 0.9996
vn -0.7815 0.0297 0.6232
vn -0.0000 1.0000 -0.0000
vn -0.9745 0.0297 -0.2224
vn -0.4337 0.0297 -0.9006
vn -0.0000 -1.0000 -0.0000
vn 0.1746 0.5728 -0.8009
vn 0.6486 0.5728 -0.5013
vn 0.8191 0.5728 0.0329
vn 0.6063 0.5728 0.5517
vn 0.1098 0.5728 0.8123
vn -0.4380 0.5728 0.6929
vn -0.7809 0.5728 0.2492
vn -0.7584 0.5728 -0.3111
vn -0.3810 0.5728 -0.7258
vn -0.4181 0.4847 -0.7683
vn 0.1736 0.4847 -0.8573
vn 0.6840 0.4847 -0.5451
vn 0.8744 0.4847 0.0221
vn 0.6556 0.4847 0.5790
vn 0.1301 0.4847 0.8649
vn -0.4563 0.4847 0.7462
vn -0.8292 0.4847 0.2783
vn -0.8141 0.4847 -0.3198
vn -0.3760 0.3597 -0.8540
vn 0.2609 0.3597 -0.8958
vn 0.7757 0.3597 -0.5185
vn 0.9275 0.3597 0.1014
vn 0.6454 0.3597 0.6739
vn 0.0612 0.3597 0.9311
vn -0.5516 0.3597 0.7526
vn -0.9063 0.3597 0.2220
vn -0.8369 0.3597 -0.4125
vn 0.0917 0.2119 -0.9730
vn 0.6957 0.2119 -0.6864
vn 0.9741 0.2119 -0.0786
vn 0.7968 0.2119 0.5659
vn 0.2466 0.2119 0.9457
vn -0.4190 0.2119 0.8829
vn -0.8885 0.2119 0.4070
vn -0.9423 0.2119 -0.2593
vn -0.5551 0.2119 -0.8043
vt 0.984307 0.245360
vt 0.977219 0.004262
vt 0.986829 0.001279
vt 0.998721 0.240886
vt 0.963070 0.504154
vt 0.963070 0.265125
vt 0.977248 0.265191
vt 0.984337 0.504252
vt 0.986828 0.261882
vt 0.998707 0.499289
vt 0.973204 0.951490
vt 0.976993 0.710360
vt 0.991204 0.710360
vt 0.994521 0.951490
vt 0.922222 0.498506
vt 0.922601 0.261882
vt 0.934902 0.263881
vt 0.940673 0.501504
vt 0.597485 0.796107
vt 0.597485 0.810318
vt 0.586374 0.819178
vt 0.572519 0.816016
vt 0.566353 0.803212
vt 0.572519 0.790409
vt 0.586374 0.787246
vt 0.948128 0.261882
vt 0.960512 0.498506
vt 0.963044 0.245294
vt 0.963044 0.004218
vt 0.476634 0.816369
vt 0.459968 0.829660
vt 0.439185 0.824916
vt 0.429936 0.805711
vt 0.439185 0.786505
vt 0.459968 0.781762
vt 0.476634 0.795052
vt 0.686110 0.229211
vt 0.581774 0.002676
vt 0.584602 0.001279
vt 0.770953 0.187297
vt 0.566353 0.709308
vt 0.753960 0.525020
vt 0.756886 0.526574
vt 0.654119 0.755909
vt 0.760429 0.527533
vt 0.760429 0.784688
vt 0.321493 0.386475
vt 0.555718 0.261882
vt 0.557581 0.263742
vt 0.377361 0.442259
vt 0.560771 0.265626
vt 0.473054 0.498789
vt 0.563795 0.266653
vt 0.563795 0.529614
vt 0.566354 0.522462
vt 0.566353 0.264365
vt 0.569923 0.263441
vt 0.673426 0.494734
vt 0.208525 0.569817
vt 0.206125 0.566957
vt 0.206125 0.563223
vt 0.208525 0.560362
vt 0.212202 0.559714
vt 0.215436 0.561581
vt 0.216713 0.565090
vt 0.215436 0.568599
vt 0.212202 0.570466
vt 0.572808 0.261882
vt 0.759988 0.447975
vt 0.578176 0.256821
vt 0.578176 0.003597
vt 0.039593 0.267824
vt 0.001279 0.162557
vt 0.039593 0.057290
vt 0.136607 0.001279
vt 0.246928 0.020732
vt 0.318935 0.106546
vt 0.318935 0.218568
vt 0.246928 0.304383
vt 0.136607 0.323835
vt 0.762547 0.505951
vt 0.762547 0.263910
vt 0.766177 0.263156
vt 0.849670 0.487851
vt 0.769093 0.261882
vt 0.919664 0.457285
vt 0.001279 0.774423
vt 0.152768 0.579574
vt 0.155753 0.580953
vt 0.072919 0.807499
vt 0.159355 0.581711
vt 0.159355 0.825712
vt 0.001279 0.479172
vt 0.195138 0.326393
vt 0.197113 0.328076
vt 0.048682 0.519564
vt 0.200442 0.329686
vt 0.128572 0.558206
vt 0.203566 0.330470
vt 0.203566 0.577016
vt 0.221672 0.569817
vt 0.219271 0.566957
vt 0.219271 0.563223
vt 0.221672 0.560362
vt 0.225349 0.559714
vt 0.228583 0.561581
vt 0.229860 0.565090
vt 0.228583 0.568599
vt 0.225349 0.570466
vt 0.321493 0.779203
vt 0.321493 0.534335
vt 0.325095 0.533592
vt 0.407946 0.761366
vt 0.328079 0.532173
vt 0.479550 0.727299
vt 0.429756 0.259324
vt 0.352144 0.214515
vt 0.321493 0.130302
vt 0.352144 0.046088
vt 0.429756 0.001279
vt 0.518012 0.016841
vt 0.575617 0.085493
vt 0.575617 0.175111
vt 0.518012 0.243762
vt 0.206125 0.557156
vt 0.206125 0.327931
vt 0.209822 0.327431
vt 0.268986 0.548667
vt 0.212656 0.326393
vt 0.317163 0.531019
vt 0.773511 0.233035
vt 0.773511 0.002978
vt 0.776898 0.002528
vt 0.831092 0.225373
vt 0.780295 0.001279
vt 0.888835 0.204146
vt 0.161913 0.811886
vt 0.161913 0.582645
vt 0.164695 0.582375
vt 0.209209 0.807295
vt 0.168220 0.581162
vt 0.269129 0.786678
vt 0.170838 0.579574
vt 0.313637 0.759682
vt 0.232418 0.566957
vt 0.232418 0.563223
vt 0.234818 0.560362
vt 0.238496 0.559714
vt 0.241730 0.561581
vt 0.243007 0.565090
vt 0.241730 0.568599
vt 0.238496 0.570466
vt 0.234818 0.569817
vt 0.762988 0.914403
vt 0.869229 0.710360
vt 0.872725 0.711624
vt 0.822421 0.935889
vt 0.875870 0.711933
vt 0.875870 0.941130
vt 0.839674 0.707802
vt 0.784699 0.676063
vt 0.762988 0.616411
vt 0.784699 0.556760
vt 0.839674 0.525021
vt 0.902189 0.536044
vt 0.942993 0.584672
vt 0.942993 0.648151
vt 0.902189 0.696779
vt 0.926876 0.218233
vt 0.957125 0.002106
vt 0.960486 0.002207
vt 0.960486 0.219236
vt 0.878428 0.927539
vt 0.878428 0.712344
vt 0.881524 0.712419
vt 0.909386 0.928289
vt 0.885166 0.711636
vt 0.945806 0.920456
vt 0.887650 0.710360
vt 0.970646 0.907704
vt 0.482109 0.740775
vt 0.544408 0.532173
vt 0.547937 0.533005
vt 0.517398 0.749098
vt 0.551330 0.533119
vt 0.551330 0.750237
vt 0.482109 0.959794
vt 0.544569 0.752796
vt 0.548050 0.753696
vt 0.516919 0.968797
vt 0.246842 0.568599
vt 0.245565 0.565090
vt 0.246842 0.561581
vt 0.250076 0.559714
vt 0.253753 0.560362
vt 0.256153 0.563223
vt 0.256153 0.566957
vt 0.253753 0.569817
vt 0.250076 0.570466
vt 0.551509 0.753759
vt 0.551509 0.969424
vt 0.891393 0.209962
vt 0.953577 0.001279
vt 0.427378 0.835521
vt 0.414607 0.870610
vt 0.382269 0.889280
vt 0.345495 0.882796
vt 0.321493 0.854191
vt 0.321493 0.816850
vt 0.345495 0.788246
vt 0.382269 0.781761
vt 0.414607 0.800432
s 0
f 1/1/1 2/2/1 4/3/1 3/4/1
f 3/5/2 4/6/2 6/7/2 5/8/2
f 5/8/3 6/7/3 8/9/3 7/10/3
f 7/11/4 8/12/4 10/13/4 9/14/4
f 9/15/5 10/16/5 12/17/5 11/18/5
f 4/19/6 2/20/6 14/21/6 12/22/6 10/23/6 8/24/6 6/25/6
f 11/18/7 12/17/7 14/26/7 13/27/7
f 13/28/8 14/29/8 2/2/8 1/1/8
f 1/30/9 3/31/9 5/32/9 7/33/9 9/34/9 11/35/9 13/36/9
f 15/37/10 16/38/10 18/39/10 17/40/10
f 17/41/11 18/42/11 20/43/11 19/44/11
f 19/44/12 20/43/12 22/45/12 21/46/12
f 21/47/13 22/48/13 24/49/13 23/50/13
f 23/50/14 24/49/14 26/51/14 25/52/14
f 25/52/15 26/51/15 28/53/15 27/54/15
f 27/55/16 28/56/16 30/57/16 29/58/16
f 18/59/6 16/60/6 32/61/6 30/62/6 28/63/6 26/64/6 24/65/6 22/66/6 20/67/6
f 29/58/17 30/57/17 32/68/17 31/69/17
f 31/70/18 32/71/18 16/38/18 15/37/18
f 15/72/9 17/73/9 19/74/9 21/75/9 23/76/9 25/77/9 27/78/9 29/79/9 31/80/9
f 33/81/19 34/82/19 36/83/19 35/84/19
f 35/84/20 36/83/20 38/85/20 37/86/20
f 37/87/21 38/88/21 40/89/21 39/90/21
f 39/90/22 40/89/22 42/91/22 41/92/22
f 41/93/23 42/94/23 44/95/23 43/96/23
f 43/96/24 44/95/24 46/97/24 45/98/24
f 45/98/25 46/97/25 48/99/25 47/100/25
f 36/101/6 34/102/6 50/103/6 48/104/6 46/105/6 44/106/6 42/107/6 40/108/6 38/109/6
f 47/110/26 48/111/26 50/112/26 49/113/26
f 49/113/27 50/112/27 34/114/27 33/115/27
f 33/116/9 35/117/9 37/118/9 39/119/9 41/120/9 43/121/9 45/122/9 47/123/9 49/124/9
f 51/125/28 52/126/28 54/127/28 53/128/28
f 53/128/29 54/127/29 56/129/29 55/130/29
f 55/131/30 56/132/30 58/133/30 57/134/30
f 57/134/31 58/133/31 60/135/31 59/136/31
f 59/137/32 60/138/32 62/139/32 61/140/32
f 61/140/33 62/139/33 64/141/33 63/142/33
f 63/142/34 64/141/34 66/143/34 65/144/34
f 54/145/6 52/146/6 68/147/6 66/148/6 64/149/6 62/150/6 60/151/6 58/152/6 56/153/6
f 65/154/35 66/155/35 68/156/35 67/157/35
f 67/157/36 68/156/36 52/158/36 51/159/36
f 51/160/9 53/161/9 55/162/9 57/163/9 59/164/9 61/165/9 63/166/9 65/167/9 67/168/9
f 69/169/37 70/170/37 72/171/37 71/172/37
f 71/173/38 72/174/38 74/175/38 73/176/38
f 73/176/39 74/175/39 76/177/39 75/178/39
f 75/178/40 76/177/40 78/179/40 77/180/40
f 77/181/41 78/182/41 80/183/41 79/184/41
f 79/184/42 80/183/42 82/185/42 81/186/42
f 81/187/43 82/188/43 84/189/43 83/190/43
f 72/191/6 70/192/6 86/193/6 84/194/6 82/195/6 80/196/6 78/197/6 76/198/6 74/199/6
f 83/190/44 84/189/44 86/200/44 85/201/44
f 85/202/45 86/203/45 70/170/45 69/169/45
f 69/204/9 71/205/9 73/206/9 75/207/9 77/208/9 79/209/9 81/210/9 83/211/9 85/212/9
