# Blender 4.5.13 LTS
# www.blender.org
o bark
v 0.000000 0.000000 -0.090000
v 0.000000 0.853288 -0.060000
v 0.070365 0.000000 -0.056114
v 0.046910 0.853288 -0.037409
v 0.087744 0.000000 0.020027
v 0.058496 0.853288 0.013351
v 0.039050 0.000000 0.081087
v 0.026033 0.853288 0.054058
v -0.039050 0.000000 0.081087
v -0.026033 0.853288 0.054058
v -0.087744 0.000000 0.020027
v -0.058496 0.853288 0.013351
v -0.070365 0.000000 -0.056114
v -0.046910 0.853288 -0.037409
v -0.141435 0.609491 -0.583092
v -0.004715 1.340881 -0.019436
v 0.266459 0.609491 -0.537587
v 0.008882 1.340881 -0.017920
v 0.549673 0.609491 -0.240539
v 0.018322 1.340881 -0.008018
v 0.575690 0.609491 0.169060
v 0.019190 1.340881 0.005635
v 0.332335 0.609491 0.499554
v 0.011078 1.340881 0.016652
v -0.066524 0.609491 0.596301
v -0.002217 1.340881 0.019877
v -0.434255 0.609491 0.414032
v -0.014475 1.340881 0.013801
v -0.598793 0.609491 0.038034
v -0.019960 1.340881 0.001268
v -0.483150 0.609491 -0.355762
v -0.016105 1.340881 -0.011859
v -0.248524 1.097084 -0.410653
v -0.010355 1.828473 -0.017111
v 0.073582 1.097084 -0.474327
v 0.003066 1.828473 -0.019764
v 0.361258 1.097084 -0.316058
v 0.015052 1.828473 -0.013169
v 0.479898 1.097084 -0.009902
v 0.019996 1.828473 -0.000413
v 0.373988 1.097084 0.300887
v 0.015583 1.828473 0.012537
v 0.093085 1.097084 0.470888
v 0.003879 1.828473 0.019620
v -0.231374 1.097084 0.420555
v -0.009641 1.828473 0.017523
v -0.447570 1.097084 0.173439
v -0.018649 1.828473 0.007227
v -0.454343 1.097084 -0.154830
v -0.018931 1.828473 -0.006451
v -0.122935 1.535918 -0.316997
v -0.007231 2.267307 -0.018647
v 0.109588 1.535918 -0.321855
v 0.006446 2.267307 -0.018933
v 0.290834 1.535918 -0.176113
v 0.017108 2.267307 -0.010360
v 0.335995 1.535918 0.052034
v 0.019764 2.267307 0.003061
v 0.223940 1.535918 0.255833
v 0.013173 2.267307 0.015049
v 0.007102 1.535918 0.339926
v 0.000418 2.267307 0.019996
v -0.213060 1.535918 0.264963
v -0.012533 2.267307 0.015586
v -0.333528 1.535918 0.066021
v -0.019619 2.267307 0.003884
v -0.297935 1.535918 -0.163813
v -0.017526 2.267307 -0.009636
v -0.113575 1.950372 -0.164623
v -0.011357 2.681761 -0.016462
v 0.018814 1.950372 -0.199113
v 0.001881 2.681761 -0.019911
v 0.142400 1.950372 -0.140436
v 0.014240 2.681761 -0.014044
v 0.199355 1.950372 -0.016047
v 0.019936 2.681761 -0.001605
v 0.163030 1.950372 0.115850
v 0.016303 2.681761 0.011585
v 0.050421 1.950372 0.193540
v 0.005042 2.681761 0.019354
v -0.085781 1.950372 0.180670
v -0.008578 2.681761 0.018067
v -0.181844 1.950372 0.083263
v -0.018184 2.681761 0.008326
v -0.192821 1.950372 -0.053104
v -0.019282 2.681761 -0.005310
v -0.286099 0.000000 -0.318624
v -0.286099 0.960480 -0.288624
v -0.215734 0.000000 -0.284738
v -0.239189 0.960480 -0.266033
v -0.198355 0.000000 -0.208597
v -0.227603 0.960480 -0.215273
v -0.247049 0.000000 -0.147537
v -0.260066 0.960480 -0.174566
v -0.325148 0.000000 -0.147537
v -0.312132 0.960480 -0.174566
v -0.373842 0.000000 -0.208597
v -0.344594 0.960480 -0.215273
v -0.356463 0.000000 -0.284738
v -0.333009 0.960480 -0.266033
v -0.426416 0.686057 -0.811986
v -0.290776 1.509326 -0.248069
v -0.018610 0.686057 -0.765699
v -0.277182 1.509326 -0.246527
v 0.264035 0.686057 -0.468109
v -0.267761 1.509326 -0.236607
v 0.289266 0.686057 -0.058461
v -0.266920 1.509326 -0.222952
v 0.045278 0.686057 0.271565
v -0.275053 1.509326 -0.211951
v -0.353765 0.686057 0.367548
v -0.288354 1.509326 -0.208752
v -0.721146 0.686057 0.184575
v -0.300600 1.509326 -0.214851
v -0.884964 0.686057 -0.191738
v -0.306061 1.509326 -0.227395
v -0.768566 0.686057 -0.585311
v -0.302181 1.509326 -0.240514
v -0.335531 1.234903 -0.706072
v -0.288158 2.058172 -0.248518
v -0.017068 1.234903 -0.626145
v -0.274889 2.058172 -0.245187
v 0.175512 1.234903 -0.360213
v -0.266865 2.058172 -0.234107
v 0.152099 1.234903 -0.032709
v -0.267840 2.058172 -0.220461
v -0.076351 1.234903 0.203123
v -0.277359 2.058172 -0.210635
v -0.402945 1.234903 0.236937
v -0.290967 2.058172 -0.209226
v -0.674865 1.234903 0.052909
v -0.302297 2.058172 -0.216894
v -0.764877 1.234903 -0.262851
v -0.306048 2.058172 -0.230050
v -0.630863 1.234903 -0.562596
v -0.300464 2.058172 -0.242540
v -0.417265 1.728864 -0.542304
v -0.293814 2.552133 -0.247076
v -0.184949 1.728864 -0.553229
v -0.280149 2.552133 -0.247719
v 0.000039 1.728864 -0.412268
v -0.269267 2.552133 -0.239427
v 0.051140 1.728864 -0.185378
v -0.266261 2.552133 -0.226080
v -0.055557 1.728864 0.021277
v -0.272537 2.552133 -0.213924
v -0.270127 1.728864 0.111001
v -0.285159 2.552133 -0.208646
v -0.492170 1.728864 0.041810
v -0.298220 2.552133 -0.212716
v -0.617790 1.728864 -0.153920
v -0.305610 2.552133 -0.224230
v -0.588208 1.728864 -0.384605
v -0.303870 2.552133 -0.237799
v -0.316969 2.195383 -0.426227
v -0.289186 3.018652 -0.248384
v -0.182730 2.195383 -0.399840
v -0.275762 3.018652 -0.245746
v -0.096858 2.195383 -0.293339
v -0.267175 3.018652 -0.235096
v -0.099534 2.195383 -0.156557
v -0.267442 3.018652 -0.221417
v -0.189506 2.195383 -0.053496
v -0.276439 3.018652 -0.211111
v -0.324674 2.195383 -0.032379
v -0.289956 3.018652 -0.209000
v -0.441793 2.195383 -0.103088
v -0.301668 3.018652 -0.216070
v -0.486060 2.195383 -0.232536
v -0.306095 3.018652 -0.229015
v -0.436764 2.195383 -0.360154
v -0.301165 3.018652 -0.241777
v -0.955837 0.000000 0.981030
v -0.955837 0.989002 1.011030
v -0.885472 0.000000 1.014916
v -0.908927 0.989002 1.033621
v -0.868093 0.000000 1.091057
v -0.897341 0.989002 1.084382
v -0.916787 0.000000 1.152118
v -0.929803 0.989002 1.125088
v -0.994886 0.000000 1.152118
v -0.981870 0.989002 1.125088
v -1.043580 0.000000 1.091057
v -1.014332 0.989002 1.084382
v -1.026201 0.000000 1.014916
v -1.002746 0.989002 1.033621
v -1.305873 0.706430 0.583717
v -0.967504 1.554146 1.054787
v -0.910741 0.706430 0.472727
v -0.954333 1.554146 1.051087
v -0.536710 0.706430 0.641690
v -0.941866 1.554146 1.056719
v -0.358792 0.706430 1.011546
v -0.935935 1.554146 1.069048
v -0.460239 0.706430 1.409236
v -0.939317 1.554146 1.082304
v -0.793581 0.706430 1.648675
v -0.950428 1.554146 1.090285
v -1.202844 0.706430 1.617828
v -0.964070 1.554146 1.089257
v -1.496530 0.706430 1.331128
v -0.973860 1.554146 1.079700
v -1.537219 0.706430 0.922726
v -0.975216 1.554146 1.066087
v -1.280128 1.271574 0.717144
v -0.969349 2.119290 1.056285
v -0.976784 1.271574 0.591488
v -0.956709 2.119290 1.051049
v -0.663639 1.271574 0.690214
v -0.943662 2.119290 1.055163
v -0.487217 1.271574 0.967129
v -0.936311 2.119290 1.066701
v -0.530066 1.271574 1.292660
v -0.938096 2.119290 1.080265
v -0.772139 1.271574 1.514488
v -0.948182 2.119290 1.089508
v -1.100165 1.271574 1.528818
v -0.961850 2.119290 1.090105
v -1.360659 1.271574 1.328943
v -0.972704 2.119290 1.081777
v -1.431731 1.271574 1.008388
v -0.975666 2.119290 1.068420
v -1.198596 1.780204 0.832981
v -0.970116 2.627920 1.057027
v -0.988786 1.780204 0.732631
v -0.957775 2.627920 1.051125
v -0.763558 1.780204 0.790622
v -0.944526 2.627920 1.054536
v -0.628299 1.780204 0.979819
v -0.936570 2.627920 1.065665
v -0.646299 1.780204 1.211695
v -0.937628 2.627920 1.079305
v -0.809135 1.780204 1.377753
v -0.947207 2.627920 1.089073
v -1.040614 1.780204 1.400291
v -0.960823 2.627920 1.090399
v -1.232425 1.780204 1.268765
v -0.972106 2.627920 1.082662
v -1.294817 1.780204 1.044716
v -0.975777 2.627920 1.069482
v -1.117637 2.260576 0.953469
v -0.972017 3.108292 1.059274
v -1.004216 2.260576 0.876970
v -0.960674 3.108292 1.051624
v -0.868157 2.260576 0.891274
v -0.947069 3.108292 1.053055
v -0.773125 2.260576 0.989688
v -0.937565 3.108292 1.062896
v -0.763586 2.260576 1.126163
v -0.936611 3.108292 1.076544
v -0.844002 2.260576 1.236841
v -0.944653 3.108292 1.087611
v -0.976748 2.260576 1.269934
v -0.957928 3.108292 1.090921
v -1.099708 2.260576 1.209958
v -0.970224 3.108292 1.084923
v -1.155350 2.260576 1.084976
v -0.975788 3.108292 1.072425
v -0.529421 0.000000 0.494472
v -0.529421 1.063114 0.524472
v -0.459056 0.000000 0.528358
v -0.482511 1.063114 0.547063
v -0.441678 0.000000 0.604499
v -0.470925 1.063114 0.597823
v -0.490372 0.000000 0.665559
v -0.503388 1.063114 0.638530
v -0.568471 0.000000 0.665559
v -0.555454 1.063114 0.638530
v -0.617165 0.000000 0.604499
v -0.587917 1.063114 0.597823
v -0.599786 0.000000 0.528358
v -0.576331 1.063114 0.547063
v -0.957041 0.759367 0.163591
v -0.543675 1.670608 0.570442
v -0.586460 0.759367 -0.012811
v -0.531322 1.670608 0.564562
v -0.189189 0.759367 0.090263
v -0.518080 1.670608 0.567998
v 0.048883 0.759367 0.424583
v -0.510144 1.670608 0.579142
v 0.016360 0.759367 0.833716
v -0.511228 1.670608 0.592780
v -0.271540 0.759367 1.126226
v -0.520825 1.670608 0.602530
v -0.680105 0.759367 1.165242
v -0.534444 1.670608 0.603831
v -1.018164 0.759367 0.932510
v -0.545713 1.670608 0.596073
v -1.127534 0.759367 0.536927
v -0.549358 1.670608 0.582887
v -0.881010 1.366861 0.257692
v -0.544071 2.278102 0.570856
v -0.588704 1.366861 0.108147
v -0.531891 2.278102 0.564625
v -0.268659 1.366861 0.181479
v -0.518556 2.278102 0.567681
v -0.070627 1.366861 0.443377
v -0.510305 2.278102 0.578593
v -0.087270 1.366861 0.771294
v -0.510998 2.278102 0.592256
v -0.310801 1.366861 1.011795
v -0.520312 2.278102 0.602277
v -0.636626 1.366861 1.052347
v -0.533888 2.278102 0.603967
v -0.912289 1.366861 0.873975
v -0.545374 2.278102 0.596534
v -1.008804 1.366861 0.560141
v -0.549395 2.278102 0.583458
v -0.687942 1.913606 0.283688
v -0.538746 2.824846 0.566779
v -0.457515 1.913606 0.252162
v -0.525191 2.824846 0.564924
v -0.260734 1.913606 0.376128
v -0.513616 2.824846 0.572216
v -0.189674 1.913606 0.597580
v -0.509436 2.824846 0.585243
v -0.277586 1.913606 0.812899
v -0.514607 2.824846 0.597909
v -0.483334 1.913606 0.921334
v -0.526710 2.824846 0.604287
v -0.710647 1.913606 0.872147
v -0.540082 2.824846 0.601394
v -0.853163 1.913606 0.688354
v -0.548465 2.824846 0.590583
v -0.844196 1.913606 0.455954
v -0.547937 2.824846 0.576912
v -0.581151 2.429975 0.391277
v -0.534594 3.341216 0.565152
v -0.444865 2.429975 0.403225
v -0.520966 3.341216 0.566347
v -0.348145 2.429975 0.499980
v -0.511293 3.341216 0.576023
v -0.336245 2.429975 0.636270
v -0.510104 3.341216 0.589652
v -0.414735 2.429975 0.748323
v -0.517953 3.341216 0.600857
v -0.546888 2.429975 0.783708
v -0.531168 3.341216 0.604395
v -0.670868 2.429975 0.725868
v -0.543566 3.341216 0.598611
v -0.728663 2.429975 0.601868
v -0.549345 3.341216 0.586211
v -0.693231 2.429975 0.469727
v -0.545802 3.341216 0.572997
v -0.065420 0.000000 -0.830215
v -0.065420 1.118476 -0.800215
v 0.004945 0.000000 -0.796329
v -0.018510 1.118476 -0.777625
v 0.022323 0.000000 -0.720188
v -0.006925 1.118476 -0.726864
v -0.026371 0.000000 -0.659128
v -0.039387 1.118476 -0.686157
v -0.104470 0.000000 -0.659128
v -0.091453 1.118476 -0.686157
v -0.153164 0.000000 -0.720188
v -0.123916 1.118476 -0.726864
v -0.135785 0.000000 -0.796329
v -0.112330 1.118476 -0.777625
v -0.256342 0.798911 -1.309029
v -0.071784 1.757605 -0.759176
v 0.153952 0.798911 -1.298674
v -0.058108 1.757605 -0.758830
v 0.461599 0.798911 -1.027010
v -0.047853 1.757605 -0.749775
v 0.522648 0.798911 -0.621151
v -0.045818 1.757605 -0.736246
v 0.308533 0.798911 -0.271004
v -0.052955 1.757605 -0.724575
v -0.080559 0.798911 -0.140406
v -0.065925 1.757605 -0.720222
v -0.462567 0.798911 -0.290466
v -0.078658 1.757605 -0.725224
v -0.658746 0.798911 -0.650968
v -0.085198 1.757605 -0.737240
v -0.577301 0.798911 -1.053230
v -0.082483 1.757605 -0.750649
v -0.137554 1.438040 -1.214764
v -0.068426 2.396734 -0.759988
v 0.184357 1.438040 -1.150107
v -0.055013 2.396734 -0.757294
v 0.389393 1.438040 -0.893657
v -0.046470 2.396734 -0.746609
v 0.381618 1.438040 -0.565410
v -0.046794 2.396734 -0.732932
v 0.164668 1.438040 -0.318956
v -0.055833 2.396734 -0.722663
v -0.159943 1.438040 -0.269614
v -0.069359 2.396734 -0.720607
v -0.440325 1.438040 -0.440471
v -0.081041 2.396734 -0.727726
v -0.545286 1.438040 -0.751582
v -0.085415 2.396734 -0.740689
v -0.425712 1.438040 -1.057374
v -0.080432 2.396734 -0.753430
v -0.271437 2.013256 -1.010691
v -0.077539 2.971950 -0.756126
v -0.049379 2.013256 -1.079837
v -0.064477 2.971950 -0.760193
v 0.165172 2.013256 -0.990069
v -0.051856 2.971950 -0.754912
v 0.271827 2.013256 -0.783392
v -0.045582 2.971950 -0.742755
v 0.220680 2.013256 -0.556512
v -0.048591 2.971950 -0.729409
v 0.035663 2.013256 -0.415589
v -0.059474 2.971950 -0.721120
v -0.196651 2.013256 -0.426562
v -0.073140 2.971950 -0.721765
v -0.367562 2.013256 -0.584297
v -0.083193 2.971950 -0.731044
v -0.397097 2.013256 -0.814987
v -0.084931 2.971950 -0.744614
v -0.079895 2.556516 -0.939691
v -0.066868 3.515209 -0.760163
v 0.051712 2.556516 -0.902326
v -0.053707 3.515209 -0.756426
v 0.128511 2.556516 -0.789108
v -0.046027 3.515209 -0.745104
v 0.114568 2.556516 -0.653013
v -0.047421 3.515209 -0.731495
v 0.016406 2.556516 -0.557720
v -0.057238 3.515209 -0.721966
v -0.120043 2.556516 -0.547819
v -0.070883 3.515209 -0.720976
v -0.230934 2.556516 -0.627942
v -0.081972 3.515209 -0.728988
v -0.264379 2.556516 -0.760599
v -0.085316 3.515209 -0.742254
v -0.204729 2.556516 -0.883718
v -0.079351 3.515209 -0.754565
vn 0.4337 0.0317 -0.9005
vn 0.9744 0.0317 -0.2224
vn 0.7814 0.0317 0.6232
vn -0.0000 0.0317 0.9995
vn -0.7814 0.0317 0.6232
vn -0.0000 1.0000 -0.0000
vn -0.9744 0.0317 -0.2224
vn -0.4337 0.0317 -0.9005
vn -0.0000 -1.0000 -0.0000
vn 0.0889 0.5975 -0.7969
vn 0.5803 0.5975 -0.5533
vn 0.8002 0.5975 -0.0508
vn 0.6457 0.5975 0.4754
vn 0.1890 0.5975 0.7793
vn -0.3561 0.5975 0.7184
vn -0.7346 0.5975 0.3215
vn -0.7694 0.5975 -0.2259
vn -0.4441 0.5975 -0.6676
vn -0.1669 0.5088 -0.8445
vn 0.4150 0.5088 -0.7543
vn 0.8027 0.5088 -0.3111
vn 0.8149 0.5088 0.2777
vn 0.4457 0.5088 0.7365
vn -0.1320 0.5088 0.8507
vn -0.6479 0.5088 0.5669
vn -0.8607 0.5088 0.0178
vn -0.6708 0.5088 -0.5396
vn -0.0193 0.3803 -0.9247
vn 0.5796 0.3803 -0.7208
vn 0.9073 0.3803 -0.1796
vn 0.8105 0.3803 0.4456
vn 0.3344 0.3803 0.8623
vn -0.2981 0.3803 0.8755
vn -0.7911 0.3803 0.4791
vn -0.9140 0.3803 -0.1415
vn -0.6092 0.3803 -0.6959
vn -0.2456 0.2253 -0.9428
vn 0.4179 0.2253 -0.8801
vn 0.8858 0.2253 -0.4056
vn 0.9393 0.2253 0.2587
vn 0.5533 0.2253 0.8019
vn -0.0917 0.2253 0.9700
vn -0.6937 0.2253 0.6841
vn -0.9711 0.2253 0.0782
vn -0.7942 0.2253 -0.5644
vn 0.4337 0.0281 -0.9006
vn 0.9745 0.0281 -0.2224
vn 0.7815 0.0281 0.6232
vn -0.0000 0.0281 0.9996
vn -0.7815 0.0281 0.6232
vn -0.9745 0.0281 -0.2224
vn -0.4337 0.0281 -0.9006
vn 0.0940 0.5520 -0.8285
vn 0.6046 0.5520 -0.5742
vn 0.8323 0.5520 -0.0513
vn 0.6705 0.5520 0.4957
vn 0.1950 0.5520 0.8107
vn -0.3717 0.5520 0.7464
vn -0.7645 0.5520 0.3328
vn -0.7996 0.5520 -0.2365
vn -0.4605 0.5520 -0.6951
vn 0.2155 0.4649 -0.8587
vn 0.7171 0.4649 -0.5193
vn 0.8831 0.4649 0.0631
vn 0.6359 0.4649 0.6160
vn 0.0912 0.4649 0.8807
vn -0.4962 0.4649 0.7332
vn -0.8515 0.4649 0.2427
vn -0.8083 0.4649 -0.3614
vn -0.3869 0.4649 -0.7964
vn -0.0441 0.3431 -0.9383
vn 0.5693 0.3431 -0.7471
vn 0.9164 0.3431 -0.2064
vn 0.8346 0.3431 0.4309
vn 0.3624 0.3431 0.8666
vn -0.2794 0.3431 0.8968
vn -0.7905 0.3431 0.5073
vn -0.9317 0.3431 -0.1195
vn -0.6369 0.3431 -0.6904
vn 0.1889 0.2013 -0.9611
vn 0.7625 0.2013 -0.6148
vn 0.9794 0.2013 0.0192
vn 0.7379 0.2013 0.6442
vn 0.1512 0.2013 0.9678
vn -0.5063 0.2013 0.8386
vn -0.9268 0.2013 0.3170
vn -0.9137 0.2013 -0.3530
vn -0.4731 0.2013 -0.8577
vn 0.4337 0.0273 -0.9006
vn 0.9746 0.0273 -0.2224
vn 0.7815 0.0273 0.6233
vn -0.0000 0.0273 0.9996
vn -0.7815 0.0273 0.6233
vn -0.9746 0.0273 -0.2224
vn -0.4337 0.0273 -0.9006
vn -0.2275 0.5408 -0.8098
vn 0.3463 0.5408 -0.7666
vn 0.7580 0.5408 -0.3646
vn 0.8151 0.5408 0.2079
vn 0.4907 0.5408 0.6832
vn -0.0632 0.5408 0.8388
vn -0.5876 0.5408 0.6019
vn -0.8370 0.5408 0.0834
vn -0.6948 0.5408 -0.4741
vn -0.3409 0.4543 -0.8230
vn 0.2679 0.4543 -0.8496
vn 0.7513 0.4543 -0.4787
vn 0.8832 0.4543 0.1163
vn 0.6019 0.4543 0.6568
vn 0.0389 0.4543 0.8900
vn -0.5423 0.4543 0.7068
vn -0.8697 0.4543 0.1928
vn -0.7902 0.4543 -0.4113
vn -0.4066 0.3343 -0.8502
vn 0.2350 0.3343 -0.9127
vn 0.7667 0.3343 -0.5481
vn 0.9396 0.3343 0.0729
vn 0.6729 0.3343 0.6599
vn 0.0913 0.3343 0.9380
vn -0.5330 0.3343 0.7773
vn -0.9079 0.3343 0.2528
vn -0.8580 0.3343 -0.3899
vn -0.5484 0.1957 -0.8130
vn 0.1025 0.1957 -0.9753
vn 0.7055 0.1957 -0.6812
vn 0.9783 0.1957 -0.0684
vn 0.7934 0.1957 0.5764
vn 0.2372 0.1957 0.9515
vn -0.4299 0.1957 0.8814
vn -0.8959 0.1957 0.3989
vn -0.9427 0.1957 -0.2703
vn 0.4337 0.0254 -0.9007
vn 0.9746 0.0254 -0.2224
vn 0.7816 0.0254 0.6233
vn -0.0000 0.0254 0.9997
vn -0.7816 0.0254 0.6233
vn -0.9746 0.0254 -0.2224
vn -0.4337 0.0254 -0.9007
vn -0.3689 0.5133 -0.7749
vn 0.2155 0.5133 -0.8307
vn 0.6991 0.5133 -0.4978
vn 0.8555 0.5133 0.0680
vn 0.6116 0.5133 0.6020
vn 0.0816 0.5133 0.8543
vn -0.4866 0.5133 0.7069
vn -0.8272 0.5133 0.2287
vn -0.7807 0.5133 -0.3565
vn -0.4115 0.4286 -0.8043
vn 0.2018 0.4286 -0.8807
vn 0.7207 0.4286 -0.5449
vn 0.9023 0.4286 0.0458
vn 0.6618 0.4286 0.6151
vn 0.1116 0.4286 0.8966
vn -0.4908 0.4286 0.7585
vn -0.8636 0.4286 0.2656
vn -0.8323 0.4286 -0.3517
vn -0.1287 0.3134 -0.9409
vn 0.5062 0.3134 -0.8035
vn 0.9042 0.3134 -0.2901
vn 0.8792 0.3134 0.3590
vn 0.4428 0.3134 0.8401
vn -0.2008 0.3134 0.9282
vn -0.7505 0.3134 0.5819
vn -0.9489 0.3134 -0.0366
vn -0.7034 0.3134 -0.6380
vn 0.0859 0.1825 -0.9794
vn 0.6954 0.1825 -0.6951
vn 0.9795 0.1825 -0.0855
vn 0.8053 0.1825 0.5641
vn 0.2543 0.1825 0.9497
vn -0.4157 0.1825 0.8910
vn -0.8912 0.1825 0.4154
vn -0.9497 0.1825 -0.2546
vn -0.5638 0.1825 -0.8055
vn 0.4338 0.0242 -0.9007
vn 0.9746 0.0242 -0.2225
vn 0.7816 0.0242 0.6233
vn -0.0000 0.0242 0.9997
vn -0.7816 0.0242 0.6233
vn -0.9746 0.0242 -0.2225
vn -0.4338 0.0242 -0.9007
vn 0.0219 0.4942 -0.8691
vn 0.5754 0.4942 -0.6516
vn 0.8597 0.4942 -0.1293
vn 0.7417 0.4942 0.4535
vn 0.2766 0.4942 0.8242
vn -0.3178 0.4942 0.8091
vn -0.7636 0.4942 0.4155
vn -0.8520 0.4942 -0.1725
vn -0.5418 0.4942 -0.6798
vn 0.1795 0.4110 -0.8938
vn 0.7120 0.4110 -0.5693
vn 0.9114 0.4110 0.0216
vn 0.6843 0.4110 0.6024
vn 0.1370 0.4110 0.9013
vn -0.4744 0.4110 0.7785
vn -0.8638 0.4110 0.2914
vn -0.8490 0.4110 -0.3320
vn -0.4370 0.4110 -0.8001
vn -0.2837 0.2993 -0.9110
vn 0.3683 0.2993 -0.8802
vn 0.8479 0.2993 -0.4376
vn 0.9308 0.2993 0.2098
vn 0.5782 0.2993 0.7591
vn -0.0450 0.2993 0.9531
vn -0.6471 0.2993 0.7012
vn -0.9464 0.2993 0.1212
vn -0.8029 0.2993 -0.5155
vn 0.2690 0.1737 -0.9473
vn 0.8150 0.1737 -0.5528
vn 0.9797 0.1737 0.1004
vn 0.6859 0.1737 0.7066
vn 0.0713 0.1737 0.9822
vn -0.5768 0.1737 0.7982
vn -0.9549 0.1737 0.2407
vn -0.8863 0.1737 -0.4294
vn -0.4029 0.1737 -0.8986
vt 0.991322 0.100300
vt 0.988278 0.004313
vt 0.992181 0.002822
vt 0.997178 0.098064
vt 0.828752 0.989161
vt 0.828752 0.892387
vt 0.834842 0.892322
vt 0.837887 0.989063
vt 0.838715 0.890954
vt 0.843696 0.987011
vt 0.097616 0.756450
vt 0.099084 0.659926
vt 0.105176 0.659926
vt 0.106753 0.756450
vt 0.806649 0.986858
vt 0.810240 0.890954
vt 0.815802 0.891746
vt 0.814994 0.988047
vt 0.414034 0.266795
vt 0.414034 0.272887
vt 0.409271 0.276685
vt 0.403332 0.275329
vt 0.400689 0.269841
vt 0.403332 0.264352
vt 0.409271 0.262997
vt 0.821212 0.890954
vt 0.823107 0.986858
vt 0.982188 0.100376
vt 0.982188 0.004364
vt 0.802525 0.546326
vt 0.795381 0.552023
vt 0.786472 0.549990
vt 0.782507 0.541757
vt 0.786472 0.533524
vt 0.795381 0.531491
vt 0.802525 0.537188
vt 0.739623 0.378551
vt 0.695474 0.285892
vt 0.696702 0.285218
vt 0.776474 0.358311
vt 0.002822 0.528123
vt 0.002822 0.420138
vt 0.004119 0.419671
vt 0.041732 0.514106
vt 0.005465 0.418832
vt 0.082122 0.488950
vt 0.006231 0.418015
vt 0.105094 0.464425
vt 0.113826 0.767774
vt 0.113826 0.662591
vt 0.115316 0.662136
vt 0.158545 0.754120
vt 0.116583 0.661431
vt 0.196564 0.732973
vt 0.694383 0.527465
vt 0.694383 0.422748
vt 0.695908 0.422323
vt 0.740127 0.514710
vt 0.479727 0.137404
vt 0.479179 0.135900
vt 0.479727 0.134396
vt 0.481113 0.133595
vt 0.482689 0.133873
vt 0.483718 0.135099
vt 0.483718 0.136700
vt 0.482689 0.137926
vt 0.481113 0.138204
vt 0.697132 0.421658
vt 0.776863 0.494761
vt 0.693951 0.391324
vt 0.693951 0.286318
vt 0.161060 0.260996
vt 0.144636 0.215871
vt 0.161060 0.170747
vt 0.202647 0.146736
vt 0.249938 0.155075
vt 0.280805 0.191861
vt 0.280805 0.239882
vt 0.249938 0.276668
vt 0.202647 0.285006
vt 0.033958 0.863706
vt 0.068997 0.772141
vt 0.070520 0.772494
vt 0.070520 0.872181
vt 0.002822 0.722220
vt 0.084813 0.663361
vt 0.085621 0.664098
vt 0.022198 0.739921
vt 0.087029 0.664816
vt 0.055987 0.757158
vt 0.088378 0.665179
vt 0.088378 0.765866
vt 0.113825 0.850910
vt 0.178301 0.773419
vt 0.179559 0.774007
vt 0.144010 0.865024
vt 0.181104 0.774353
vt 0.181104 0.873326
vt 0.399431 0.846981
vt 0.464351 0.770099
vt 0.465654 0.770731
vt 0.430717 0.862134
vt 0.489910 0.137404
vt 0.489362 0.135900
vt 0.489910 0.134396
vt 0.491296 0.133595
vt 0.492872 0.133873
vt 0.493901 0.135099
vt 0.493901 0.136700
vt 0.492872 0.137926
vt 0.491296 0.138204
vt 0.467173 0.771088
vt 0.467173 0.870709
vt 0.002822 0.848546
vt 0.067699 0.771510
vt 0.463215 0.257352
vt 0.425382 0.250681
vt 0.400689 0.221253
vt 0.400689 0.182836
vt 0.425382 0.153407
vt 0.463215 0.146736
vt 0.496485 0.165945
vt 0.509624 0.202044
vt 0.496485 0.238144
vt 0.934755 0.511895
vt 0.910441 0.422199
vt 0.911825 0.421658
vt 0.958288 0.502689
vt 0.284851 0.847047
vt 0.345661 0.776366
vt 0.346719 0.777063
vt 0.302836 0.858903
vt 0.348220 0.777619
vt 0.328353 0.868354
vt 0.349461 0.777773
vt 0.349461 0.870980
vt 0.908487 0.366192
vt 0.954991 0.285218
vt 0.956393 0.285753
vt 0.932313 0.375303
vt 0.957898 0.285991
vt 0.957898 0.379337
vt 0.910214 0.901082
vt 0.910214 0.807726
vt 0.911737 0.807492
vt 0.936103 0.897106
vt 0.497569 0.267606
vt 0.496183 0.266805
vt 0.495635 0.265301
vt 0.496183 0.263797
vt 0.497569 0.262997
vt 0.499145 0.263275
vt 0.500174 0.264501
vt 0.500174 0.266101
vt 0.499145 0.267328
vt 0.913117 0.806956
vt 0.959563 0.887996
vt 0.908921 0.515809
vt 0.908921 0.422430
vt 0.573682 0.876450
vt 0.546884 0.881175
vt 0.523318 0.867569
vt 0.514011 0.841999
vt 0.523318 0.816428
vt 0.546884 0.802822
vt 0.573682 0.807547
vt 0.591173 0.828393
vt 0.591173 0.855605
vt 0.016840 0.965739
vt 0.004224 0.878760
vt 0.005760 0.878386
vt 0.032198 0.961998
vt 0.006711 0.877826
vt 0.041709 0.956398
vt 0.642503 0.971632
vt 0.669115 0.887897
vt 0.670633 0.888270
vt 0.657686 0.975361
vt 0.672072 0.888321
vt 0.672072 0.975874
vt 0.772048 0.978479
vt 0.772048 0.891312
vt 0.773390 0.891310
vt 0.785463 0.978456
vt 0.774944 0.890954
vt 0.801005 0.974898
vt 0.076164 0.978059
vt 0.076164 0.890850
vt 0.077572 0.890829
vt 0.090241 0.977846
vt 0.499627 0.277058
vt 0.498240 0.277859
vt 0.496664 0.277581
vt 0.495635 0.276355
vt 0.495635 0.274754
vt 0.496664 0.273528
vt 0.498240 0.273250
vt 0.499627 0.274050
vt 0.500174 0.275554
vt 0.079105 0.890455
vt 0.105575 0.974109
vt 0.002822 0.965871
vt 0.002822 0.878773
vt 0.950129 0.944813
vt 0.936267 0.952816
vt 0.920503 0.950037
vt 0.910214 0.937775
vt 0.910214 0.921768
vt 0.920503 0.909506
vt 0.936267 0.906726
vt 0.950129 0.914730
vt 0.955604 0.929771
vt 0.592356 0.996234
vt 0.589311 0.888303
vt 0.593217 0.886819
vt 0.598215 0.994009
vt 0.047353 0.988059
vt 0.047353 0.879241
vt 0.053444 0.879187
vt 0.056489 0.987978
vt 0.057319 0.877826
vt 0.062301 0.985937
vt 0.679398 0.788081
vt 0.680859 0.679546
vt 0.686951 0.679546
vt 0.688536 0.788081
vt 0.489870 0.984223
vt 0.493574 0.876353
vt 0.499137 0.877145
vt 0.498214 0.985411
vt 0.424441 0.276685
vt 0.419678 0.272887
vt 0.419678 0.266795
vt 0.424441 0.262997
vt 0.430380 0.264352
vt 0.433023 0.269841
vt 0.430380 0.275329
vt 0.504546 0.876353
vt 0.506328 0.984223
vt 0.583221 0.996293
vt 0.583221 0.888343
vt 0.814006 0.138485
vt 0.806861 0.132787
vt 0.806861 0.123650
vt 0.814006 0.117952
vt 0.822914 0.119986
vt 0.826879 0.128219
vt 0.822914 0.136451
vt 0.445465 0.752999
vt 0.400966 0.649334
vt 0.402211 0.648695
vt 0.482842 0.733841
vt 0.113826 0.409680
vt 0.113826 0.292622
vt 0.115143 0.292211
vt 0.153352 0.397361
vt 0.116525 0.291433
vt 0.194796 0.374005
vt 0.117323 0.290651
vt 0.218765 0.350540
vt 0.608242 0.673902
vt 0.608242 0.559065
vt 0.609748 0.558658
vt 0.653401 0.661703
vt 0.611036 0.557995
vt 0.692052 0.641817
vt 0.284851 0.770722
vt 0.284851 0.656235
vt 0.286388 0.655853
vt 0.330953 0.759273
vt 0.463352 0.136700
vt 0.462323 0.137926
vt 0.460746 0.138204
vt 0.459360 0.137404
vt 0.458813 0.135900
vt 0.459360 0.134396
vt 0.460746 0.133595
vt 0.462323 0.133873
vt 0.463352 0.135099
vt 0.287630 0.655224
vt 0.368202 0.740392
vt 0.399431 0.764455
vt 0.399431 0.649716
vt 0.202647 0.141092
vt 0.161060 0.117082
vt 0.144636 0.071957
vt 0.161060 0.026832
vt 0.202647 0.002822
vt 0.249938 0.011161
vt 0.280805 0.047947
vt 0.280805 0.095967
vt 0.249938 0.132753
vt 0.810103 0.249705
vt 0.773866 0.147265
vt 0.775046 0.146736
vt 0.838437 0.237017
vt 0.770712 0.646072
vt 0.836386 0.557995
vt 0.837731 0.558590
vt 0.803000 0.660360
vt 0.839241 0.558918
vt 0.839241 0.668218
vt 0.605894 0.258559
vt 0.605894 0.148427
vt 0.607036 0.148227
vt 0.633308 0.253769
vt 0.608482 0.147560
vt 0.668010 0.237749
vt 0.609555 0.146736
vt 0.693761 0.217994
vt 0.781200 0.112308
vt 0.781200 0.003618
vt 0.782776 0.003341
vt 0.819029 0.105665
vt 0.469543 0.137404
vt 0.468996 0.135900
vt 0.469543 0.134396
vt 0.470930 0.133595
vt 0.472506 0.133873
vt 0.473535 0.135099
vt 0.473535 0.136700
vt 0.472506 0.137926
vt 0.470930 0.138204
vt 0.783950 0.002822
vt 0.847202 0.093206
vt 0.772290 0.256391
vt 0.772290 0.147544
vt 0.126965 0.506732
vt 0.113825 0.470632
vt 0.126965 0.434532
vt 0.160234 0.415324
vt 0.198067 0.421995
vt 0.222761 0.451424
vt 0.222761 0.489840
vt 0.198067 0.519269
vt 0.160234 0.525940
vt 0.722104 0.907822
vt 0.745934 0.807450
vt 0.747424 0.807634
vt 0.747424 0.910942
vt 0.782507 0.525847
vt 0.782507 0.422929
vt 0.783746 0.422821
vt 0.803557 0.524025
vt 0.785265 0.422320
vt 0.829393 0.515493
vt 0.786355 0.421658
vt 0.847926 0.504244
vt 0.898717 0.662029
vt 0.898717 0.558694
vt 0.900191 0.558504
vt 0.923774 0.658796
vt 0.901639 0.557995
vt 0.948401 0.650152
vt 0.854855 0.899100
vt 0.901645 0.806956
vt 0.903086 0.807469
vt 0.879351 0.907819
vt 0.513720 0.137404
vt 0.512334 0.138204
vt 0.510757 0.137926
vt 0.509729 0.136700
vt 0.509729 0.135099
vt 0.510757 0.133873
vt 0.512334 0.133595
vt 0.513720 0.134396
vt 0.514268 0.135900
vt 0.904570 0.807655
vt 0.904570 0.910975
vt 0.697697 0.899061
vt 0.744498 0.806935
vt 0.667914 0.877527
vt 0.641115 0.882253
vt 0.617549 0.868647
vt 0.608242 0.843076
vt 0.617549 0.817505
vt 0.641115 0.803900
vt 0.667914 0.808625
vt 0.685405 0.829470
vt 0.685405 0.856682
vt 0.564813 0.984243
vt 0.550482 0.887219
vt 0.551758 0.886819
vt 0.577577 0.980250
vt 0.472817 0.868197
vt 0.472817 0.770468
vt 0.474255 0.770444
vt 0.487198 0.867957
vt 0.475781 0.770099
vt 0.502454 0.864514
vt 0.284851 0.966402
vt 0.320092 0.876624
vt 0.321068 0.877143
vt 0.294618 0.971593
vt 0.322615 0.877480
vt 0.310082 0.974959
vt 0.324007 0.877476
vt 0.324007 0.974925
vt 0.608242 0.986433
vt 0.608242 0.888396
vt 0.609836 0.888290
vt 0.624175 0.985377
vt 0.532029 0.138204
vt 0.530642 0.137404
vt 0.530095 0.135900
vt 0.530642 0.134396
vt 0.532029 0.133595
vt 0.533605 0.133873
vt 0.534634 0.135099
vt 0.534634 0.136700
vt 0.533605 0.137926
vt 0.611104 0.887897
vt 0.636859 0.981440
vt 0.548890 0.985275
vt 0.548890 0.887322
vt 0.737612 0.954672
vt 0.723749 0.962676
vt 0.707986 0.959896
vt 0.697697 0.947634
vt 0.697697 0.931627
vt 0.707986 0.919365
vt 0.723749 0.916586
vt 0.737612 0.924589
vt 0.743086 0.939631
vt 0.980679 0.800801
vt 0.977634 0.689692
vt 0.981541 0.688210
vt 0.986539 0.798578
vt 0.586305 0.791431
vt 0.586305 0.679407
vt 0.592395 0.679355
vt 0.595441 0.791353
vt 0.596271 0.677996
vt 0.601254 0.789314
vt 0.379047 0.646900
vt 0.380506 0.535169
vt 0.386598 0.535169
vt 0.388185 0.646900
vt 0.489779 0.761131
vt 0.493514 0.650077
vt 0.499077 0.650869
vt 0.498123 0.762319
vt 0.487348 0.264352
vt 0.489991 0.269841
vt 0.487348 0.275329
vt 0.481409 0.276685
vt 0.476646 0.272887
vt 0.476646 0.266795
vt 0.481409 0.262997
vt 0.504486 0.650077
vt 0.506237 0.761131
vt 0.971544 0.800856
vt 0.971544 0.689728
vt 0.797252 0.136451
vt 0.788344 0.138485
vt 0.781200 0.132787
vt 0.781200 0.123650
vt 0.788344 0.117952
vt 0.797252 0.119986
vt 0.801217 0.128219
vt 0.042907 0.401106
vt 0.004158 0.292217
vt 0.005545 0.291450
vt 0.084516 0.378094
vt 0.006334 0.290651
vt 0.108181 0.354102
vt 0.604666 0.539947
vt 0.604666 0.422709
vt 0.606170 0.422308
vt 0.649798 0.527926
vt 0.607468 0.421658
vt 0.688739 0.508410
vt 0.618325 0.092272
vt 0.698187 0.002822
vt 0.699383 0.003394
vt 0.654199 0.109442
vt 0.700941 0.003744
vt 0.700941 0.119923
vt 0.604732 0.373502
vt 0.685521 0.285218
vt 0.686769 0.285840
vt 0.642155 0.392173
vt 0.428811 0.137404
vt 0.428263 0.135900
vt 0.428811 0.134396
vt 0.430197 0.133595
vt 0.431773 0.133873
vt 0.432802 0.135099
vt 0.432802 0.136700
vt 0.431773 0.137926
vt 0.430197 0.138204
vt 0.688307 0.286212
vt 0.688307 0.403336
vt 0.002822 0.412370
vt 0.002822 0.292593
vt 0.019246 0.117082
vt 0.002822 0.071957
vt 0.019246 0.026832
vt 0.060833 0.002822
vt 0.108124 0.011161
vt 0.138992 0.047947
vt 0.138992 0.095967
vt 0.108124 0.132753
vt 0.060833 0.141092
vt 0.538275 0.651539
vt 0.599918 0.558798
vt 0.601376 0.559458
vt 0.573261 0.667374
vt 0.602598 0.559666
vt 0.602598 0.672352
vt 0.697697 0.779129
vt 0.763541 0.688210
vt 0.764919 0.688814
vt 0.730764 0.793639
vt 0.766404 0.689133
vt 0.766404 0.801291
vt 0.284851 0.649580
vt 0.284851 0.536837
vt 0.286050 0.536620
vt 0.313625 0.644378
vt 0.287507 0.535962
vt 0.348597 0.628568
vt 0.288541 0.535169
vt 0.373403 0.609548
vt 0.575367 0.136700
vt 0.574338 0.137926
vt 0.572761 0.138204
vt 0.571375 0.137404
vt 0.570828 0.135900
vt 0.571375 0.134396
vt 0.572761 0.133595
vt 0.574338 0.133873
vt 0.575367 0.135099
vt 0.355106 0.886149
vt 0.372828 0.776366
vt 0.374427 0.776366
vt 0.393497 0.886149
vt 0.514011 0.632257
vt 0.598907 0.557995
vt 0.369093 0.522854
vt 0.331260 0.529525
vt 0.297991 0.510317
vt 0.284851 0.474217
vt 0.297991 0.438117
vt 0.331260 0.418909
vt 0.369093 0.425580
vt 0.393787 0.455009
vt 0.393787 0.493425
vt 0.898857 0.242734
vt 0.943758 0.146736
vt 0.945279 0.147233
vt 0.924716 0.251180
vt 0.946564 0.147322
vt 0.946564 0.252682
vt 0.853570 0.528341
vt 0.853570 0.422338
vt 0.855033 0.422154
vt 0.878447 0.525222
vt 0.856494 0.421658
vt 0.903277 0.516783
vt 0.782118 0.391534
vt 0.782118 0.286417
vt 0.783283 0.286366
vt 0.801917 0.390664
vt 0.784804 0.285892
vt 0.827780 0.382609
vt 0.785970 0.285218
vt 0.847607 0.371138
vt 0.603311 0.138204
vt 0.601925 0.137404
vt 0.601377 0.135900
vt 0.601925 0.134396
vt 0.603311 0.133595
vt 0.604887 0.133873
vt 0.605916 0.135099
vt 0.605916 0.136700
vt 0.604887 0.137926
vt 0.908398 0.098860
vt 0.953150 0.002822
vt 0.954672 0.003317
vt 0.934274 0.107274
vt 0.955947 0.003407
vt 0.955947 0.108812
vt 0.911404 0.752957
vt 0.887838 0.766563
vt 0.861040 0.761837
vt 0.843548 0.740992
vt 0.843548 0.713780
vt 0.861040 0.692935
vt 0.887838 0.688210
vt 0.911404 0.701815
vt 0.920711 0.727386
vt 0.149187 0.980003
vt 0.149187 0.879440
vt 0.150764 0.879359
vt 0.164959 0.979193
vt 0.152115 0.878970
vt 0.178470 0.975303
vt 0.444869 0.977413
vt 0.444869 0.877170
vt 0.446243 0.877180
vt 0.458605 0.977513
vt 0.447797 0.876857
vt 0.474148 0.974287
vt 0.448805 0.876353
vt 0.484225 0.969246
vt 0.113826 0.976056
vt 0.140571 0.878970
vt 0.142089 0.879315
vt 0.129002 0.979505
vt 0.143543 0.879334
vt 0.143543 0.979688
vt 0.440380 0.138204
vt 0.438994 0.137404
vt 0.438446 0.135900
vt 0.438994 0.134396
vt 0.440380 0.133595
vt 0.441956 0.133873
vt 0.442985 0.135099
vt 0.442985 0.136700
vt 0.441956 0.137926
vt 0.514011 0.987950
vt 0.514011 0.887289
vt 0.515590 0.887204
vt 0.529803 0.987103
vt 0.516934 0.886819
vt 0.543245 0.983259
vt 0.393497 0.974576
vt 0.383208 0.986838
vt 0.367444 0.989618
vt 0.353582 0.981615
vt 0.348107 0.966573
vt 0.353582 0.951531
vt 0.367444 0.943528
vt 0.383208 0.946308
vt 0.393497 0.958570
vt 0.974342 0.927801
vt 0.971297 0.808435
vt 0.975206 0.806956
vt 0.980205 0.925584
vt 0.963932 0.543410
vt 0.963932 0.423059
vt 0.970023 0.423013
vt 0.973068 0.543342
vt 0.973900 0.421658
vt 0.978884 0.541308
vt 0.984185 0.405253
vt 0.985638 0.285218
vt 0.991730 0.285218
vt 0.993323 0.405253
vt 0.090295 0.653094
vt 0.094110 0.533767
vt 0.099672 0.534559
vt 0.098640 0.654282
vt 0.452012 0.266795
vt 0.452012 0.272887
vt 0.447250 0.276685
vt 0.441310 0.275329
vt 0.438667 0.269841
vt 0.441310 0.264352
vt 0.447250 0.262997
vt 0.105082 0.533767
vt 0.106753 0.653094
vt 0.965208 0.927847
vt 0.965208 0.808465
vt 0.847513 0.790706
vt 0.843548 0.782473
vt 0.847513 0.774240
vt 0.856422 0.772207
vt 0.863566 0.777904
vt 0.863566 0.787042
vt 0.856422 0.792739
vt 0.113826 0.655787
vt 0.113826 0.532443
vt 0.115396 0.532134
vt 0.160931 0.646516
vt 0.116559 0.531584
vt 0.195823 0.630016
vt 0.399431 0.612426
vt 0.481311 0.517738
vt 0.482640 0.518381
vt 0.439289 0.631709
vt 0.484134 0.518759
vt 0.484134 0.643051
vt 0.286449 0.357272
vt 0.390209 0.285218
vt 0.391072 0.286003
vt 0.312356 0.380849
vt 0.392486 0.286741
vt 0.354747 0.402962
vt 0.393787 0.287084
vt 0.393787 0.413265
vt 0.499545 0.135900
vt 0.500093 0.134396
vt 0.501479 0.133595
vt 0.503056 0.133873
vt 0.504084 0.135099
vt 0.504084 0.136700
vt 0.503055 0.137926
vt 0.501479 0.138204
vt 0.500093 0.137404
vt 0.002822 0.657716
vt 0.002822 0.534614
vt 0.004393 0.534307
vt 0.049950 0.648519
vt 0.005550 0.533767
vt 0.084651 0.632327
vt 0.317317 0.132753
vt 0.286449 0.095967
vt 0.286449 0.047947
vt 0.317317 0.011161
vt 0.364608 0.002822
vt 0.406195 0.026832
vt 0.422619 0.071957
vt 0.406195 0.117082
vt 0.364608 0.141092
vt 0.210158 0.784762
vt 0.210158 0.666218
vt 0.211736 0.665960
vt 0.248024 0.778564
vt 0.212941 0.665443
vt 0.276950 0.766162
vt 0.706585 0.102077
vt 0.772682 0.002822
vt 0.774030 0.003379
vt 0.738937 0.115442
vt 0.775555 0.003669
vt 0.775555 0.122406
vt 0.523509 0.123316
vt 0.523509 0.004366
vt 0.524638 0.004220
vt 0.550607 0.119806
vt 0.526106 0.003610
vt 0.585823 0.105169
vt 0.527225 0.002822
vt 0.612681 0.086255
vt 0.542212 0.138204
vt 0.540826 0.137404
vt 0.540278 0.135900
vt 0.540826 0.134396
vt 0.542212 0.133595
vt 0.543788 0.133873
vt 0.544817 0.135099
vt 0.544817 0.136700
vt 0.543788 0.137926
vt 0.514011 0.797178
vt 0.514011 0.678761
vt 0.515589 0.678504
vt 0.551897 0.791004
vt 0.516788 0.677996
vt 0.580661 0.778817
vt 0.495227 0.376625
vt 0.461958 0.395834
vt 0.424125 0.389163
vt 0.399431 0.359734
vt 0.399431 0.321317
vt 0.424125 0.291889
vt 0.461958 0.285218
vt 0.495227 0.304426
vt 0.508367 0.340526
vt 0.877874 0.113787
vt 0.854319 0.003308
vt 0.855782 0.002822
vt 0.902754 0.105522
vt 0.772048 0.801312
vt 0.772048 0.689327
vt 0.773203 0.689294
vt 0.791682 0.800743
vt 0.774733 0.688852
vt 0.817690 0.793239
vt 0.775922 0.688210
vt 0.837904 0.782311
vt 0.853251 0.398641
vt 0.853251 0.285836
vt 0.854675 0.285697
vt 0.877458 0.396271
vt 0.856168 0.285218
vt 0.902843 0.388128
vt 0.228405 0.528806
vt 0.228405 0.415957
vt 0.229882 0.415807
vt 0.253508 0.526247
vt 0.551009 0.137404
vt 0.550461 0.135900
vt 0.551009 0.134396
vt 0.552395 0.133595
vt 0.553971 0.133873
vt 0.555000 0.135099
vt 0.555000 0.136700
vt 0.553971 0.137926
vt 0.552395 0.138204
vt 0.231342 0.415324
vt 0.278330 0.518037
vt 0.852846 0.116246
vt 0.852846 0.003453
vt 0.259458 0.864034
vt 0.232660 0.868759
vt 0.209094 0.855153
vt 0.199787 0.829582
vt 0.209094 0.804012
vt 0.232660 0.790406
vt 0.259458 0.795131
vt 0.276950 0.815976
vt 0.276950 0.843188
vt 0.261149 0.981764
vt 0.246989 0.874781
vt 0.248356 0.874403
vt 0.274819 0.977986
vt 0.926355 0.796217
vt 0.926355 0.688973
vt 0.927715 0.689004
vt 0.939952 0.796527
vt 0.929277 0.688703
vt 0.955570 0.793511
vt 0.930310 0.688210
vt 0.965900 0.788579
vt 0.952208 0.251096
vt 0.979017 0.146736
vt 0.980531 0.147069
vt 0.967346 0.254424
vt 0.981996 0.147078
vt 0.981996 0.254513
vt 0.954045 0.666133
vt 0.954045 0.558439
vt 0.955621 0.558369
vt 0.969802 0.665433
vt 0.582944 0.138204
vt 0.581558 0.137404
vt 0.581011 0.135900
vt 0.581558 0.134396
vt 0.582944 0.133595
vt 0.584521 0.133873
vt 0.585550 0.135099
vt 0.585550 0.136700
vt 0.584521 0.137926
vt 0.956981 0.557995
vt 0.983404 0.661697
vt 0.245416 0.982424
vt 0.245416 0.874847
vt 0.358396 0.935104
vt 0.348107 0.922842
vt 0.348107 0.906835
vt 0.358396 0.894573
vt 0.374160 0.891794
vt 0.388022 0.899797
vt 0.393497 0.914839
vt 0.388022 0.929880
vt 0.374160 0.937884
vt 0.972677 0.412228
vt 0.969632 0.286693
vt 0.973541 0.285218
vt 0.978541 0.410014
vt 0.961591 0.130789
vt 0.961591 0.004217
vt 0.967682 0.004175
vt 0.970727 0.130726
vt 0.971560 0.002822
vt 0.976544 0.128697
vt 0.753068 0.933174
vt 0.754517 0.806935
vt 0.760609 0.806935
vt 0.762206 0.933174
vt 0.489779 0.643245
vt 0.493652 0.517738
vt 0.499215 0.518530
vt 0.498123 0.644433
vt 0.466239 0.276685
vt 0.460300 0.275329
vt 0.457657 0.269841
vt 0.460300 0.264352
vt 0.466239 0.262997
vt 0.471002 0.266795
vt 0.471002 0.272887
vt 0.504624 0.517738
vt 0.506237 0.643245
vt 0.963542 0.412268
vt 0.963542 0.286720
vt 0.812134 0.549990
vt 0.808169 0.541757
vt 0.812134 0.533524
vt 0.821042 0.531491
vt 0.828187 0.537188
vt 0.828187 0.546326
vt 0.821043 0.552023
vt 0.559521 0.542095
vt 0.515528 0.422287
vt 0.516844 0.421658
vt 0.599021 0.523224
vt 0.286449 0.279573
vt 0.286449 0.148547
vt 0.287719 0.148233
vt 0.324545 0.270138
vt 0.289149 0.147518
vt 0.367433 0.248684
vt 0.290069 0.146736
vt 0.395044 0.225249
vt 0.514011 0.416014
vt 0.514011 0.286219
vt 0.515492 0.285863
vt 0.558451 0.405332
vt 0.516847 0.285218
vt 0.599088 0.385966
vt 0.515268 0.277242
vt 0.515268 0.147702
vt 0.516788 0.147358
vt 0.560865 0.266929
vt 0.561673 0.137926
vt 0.560644 0.136700
vt 0.560644 0.135099
vt 0.561673 0.133873
vt 0.563250 0.133595
vt 0.564636 0.134396
vt 0.565183 0.135900
vt 0.564636 0.137404
vt 0.563250 0.138204
vt 0.518101 0.146736
vt 0.600249 0.248283
vt 0.514011 0.552351
vt 0.514011 0.422629
vt 0.108124 0.276668
vt 0.060833 0.285006
vt 0.019246 0.260996
vt 0.002822 0.215871
vt 0.019246 0.170747
vt 0.060833 0.146736
vt 0.108124 0.155075
vt 0.138992 0.191861
vt 0.138992 0.239882
vt 0.735533 0.676568
vt 0.699273 0.558510
vt 0.700504 0.557995
vt 0.765068 0.664212
vt 0.210158 0.640447
vt 0.276330 0.535169
vt 0.277668 0.535704
vt 0.242276 0.653274
vt 0.279207 0.535975
vt 0.279207 0.659799
vt 0.428263 0.127951
vt 0.428263 0.004285
vt 0.429368 0.004173
vt 0.454778 0.125279
vt 0.430842 0.003596
vt 0.490165 0.111417
vt 0.431996 0.002822
vt 0.517865 0.092852
vt 0.699405 0.271190
vt 0.699405 0.147492
vt 0.700983 0.147243
vt 0.737268 0.265200
vt 0.523422 0.137926
vt 0.521845 0.138204
vt 0.520459 0.137404
vt 0.519912 0.135900
vt 0.520459 0.134396
vt 0.521845 0.133595
vt 0.523422 0.133873
vt 0.524451 0.135099
vt 0.524451 0.136700
vt 0.702207 0.146736
vt 0.766646 0.253048
vt 0.697697 0.682565
vt 0.697697 0.558760
vt 0.424125 0.505423
vt 0.399431 0.475994
vt 0.399431 0.437578
vt 0.424125 0.408149
vt 0.461958 0.401478
vt 0.495227 0.420686
vt 0.508367 0.456786
vt 0.495227 0.492886
vt 0.461958 0.512094
vt 0.631431 0.796854
vt 0.609606 0.680633
vt 0.611128 0.680171
vt 0.657304 0.789007
vt 0.612096 0.679546
vt 0.673754 0.778386
vt 0.224409 0.399134
vt 0.271433 0.290651
vt 0.272910 0.291109
vt 0.249513 0.406933
vt 0.274372 0.291253
vt 0.274372 0.409377
vt 0.844885 0.676056
vt 0.844885 0.558516
vt 0.846185 0.558444
vt 0.866980 0.674839
vt 0.847720 0.557995
vt 0.893073 0.667203
vt 0.844081 0.264941
vt 0.844081 0.147288
vt 0.845451 0.147197
vt 0.867369 0.263395
vt 0.453168 0.136700
vt 0.452139 0.137926
vt 0.450563 0.138204
vt 0.449177 0.137404
vt 0.448629 0.135900
vt 0.449177 0.134396
vt 0.450563 0.133595
vt 0.452139 0.133873
vt 0.453168 0.135099
vt 0.846971 0.146736
vt 0.893212 0.255557
vt 0.608242 0.798255
vt 0.608242 0.680715
vt 0.804921 0.885310
vt 0.781355 0.871704
vt 0.772048 0.846133
vt 0.781355 0.820562
vt 0.804921 0.806956
vt 0.831719 0.811682
vt 0.849211 0.832527
vt 0.849211 0.859739
vt 0.831719 0.880584
vt 0.227157 0.987678
vt 0.238510 0.875176
vt 0.239772 0.875066
vt 0.239772 0.986578
vt 0.076164 0.884811
vt 0.076164 0.771853
vt 0.077653 0.771835
vt 0.091054 0.884638
vt 0.079151 0.771510
vt 0.106026 0.881385
vt 0.399431 0.982134
vt 0.435246 0.876353
vt 0.436328 0.876849
vt 0.410254 0.987088
vt 0.437899 0.877130
vt 0.425970 0.989903
vt 0.439225 0.877066
vt 0.439225 0.989262
vt 0.373846 0.768171
vt 0.381180 0.655224
vt 0.382780 0.655224
vt 0.389852 0.768171
vt 0.594704 0.137926
vt 0.593128 0.138204
vt 0.591741 0.137404
vt 0.591194 0.135900
vt 0.591741 0.134396
vt 0.593128 0.133595
vt 0.594704 0.133873
vt 0.595733 0.135099
vt 0.595733 0.136700
vt 0.199787 0.979946
vt 0.235773 0.874403
vt 0.236931 0.874914
vt 0.211366 0.985059
vt 0.880908 0.962709
vt 0.865144 0.959929
vt 0.854855 0.947667
vt 0.854855 0.931660
vt 0.865144 0.919398
vt 0.880908 0.916619
vt 0.894770 0.924622
vt 0.900245 0.939664
vt 0.894770 0.954705
s 0
f 1/1/1 2/2/1 4/3/1 3/4/1
f 3/5/2 4/6/2 6/7/2 5/8/2
f 5/8/3 6/7/3 8/9/3 7/10/3
f 7/11/4 8/12/4 10/13/4 9/14/4
f 9/15/5 10/16/5 12/17/5 11/18/5
f 4/19/6 2/20/6 14/21/6 12/22/6 10/23/6 8/24/6 6/25/6
f 11/18/7 12/17/7 14/26/7 13/27/7
f 13/28/8 14/29/8 2/2/8 1/1/8
f 1/30/9 3/31/9 5/32/9 7/33/9 9/34/9 11/35/9 13/36/9
f 15/37/10 16/38/10 18/39/10 17/40/10
f 17/41/11 18/42/11 20/43/11 19/44/11
f 19/44/12 20/43/12 22/45/12 21/46/12
f 21/46/13 22/45/13 24/47/13 23/48/13
f 23/49/14 24/50/14 26/51/14 25/52/14
f 25/52/15 26/51/15 28/53/15 27/54/15
f 27/55/16 28/56/16 30/57/16 29/58/16
f 18/59/6 16/60/6 32/61/6 30/62/6 28/63/6 26/64/6 24/65/6 22/66/6 20/67/6
f 29/58/17 30/57/17 32/68/17 31/69/17
f 31/70/18 32/71/18 16/38/18 15/37/18
f 15/72/9 17/73/9 19/74/9 21/75/9 23/76/9 25/77/9 27/78/9 29/79/9 31/80/9
f 33/81/19 34/82/19 36/83/19 35/84/19
f 35/85/20 36/86/20 38/87/20 37/88/20
f 37/88/21 38/87/21 40/89/21 39/90/21
f 39/90/22 40/89/22 42/91/22 41/92/22
f 41/93/23 42/94/23 44/95/23 43/96/23
f 43/96/24 44/95/24 46/97/24 45/98/24
f 45/99/25 46/100/25 48/101/25 47/102/25
f 36/103/6 34/104/6 50/105/6 48/106/6 46/107/6 44/108/6 42/109/6 40/110/6 38/111/6
f 47/102/26 48/101/26 50/112/26 49/113/26
f 49/114/27 50/115/27 34/82/27 33/81/27
f 33/116/9 35/117/9 37/118/9 39/119/9 41/120/9 43/121/9 45/122/9 47/123/9 49/124/9
f 51/125/28 52/126/28 54/127/28 53/128/28
f 53/129/29 54/130/29 56/131/29 55/132/29
f 55/132/30 56/131/30 58/133/30 57/134/30
f 57/134/31 58/133/31 60/135/31 59/136/31
f 59/137/32 60/138/32 62/139/32 61/140/32
f 61/140/33 62/139/33 64/141/33 63/142/33
f 63/143/34 64/144/34 66/145/34 65/146/34
f 54/147/6 52/148/6 68/149/6 66/150/6 64/151/6 62/152/6 60/153/6 58/154/6 56/155/6
f 65/146/35 66/145/35 68/156/35 67/157/35
f 67/158/36 68/159/36 52/126/36 51/125/36
f 51/160/9 53/161/9 55/162/9 57/163/9 59/164/9 61/165/9 63/166/9 65/167/9 67/168/9
f 69/169/37 70/170/37 72/171/37 71/172/37
f 71/172/38 72/171/38 74/173/38 73/174/38
f 73/175/39 74/176/39 76/177/39 75/178/39
f 75/178/40 76/177/40 78/179/40 77/180/40
f 77/181/41 78/182/41 80/183/41 79/184/41
f 79/184/42 80/183/42 82/185/42 81/186/42
f 81/187/43 82/188/43 84/189/43 83/190/43
f 72/191/6 70/192/6 86/193/6 84/194/6 82/195/6 80/196/6 78/197/6 76/198/6 74/199/6
f 83/190/44 84/189/44 86/200/44 85/201/44
f 85/202/45 86/203/45 70/170/45 69/169/45
f 69/204/9 71/205/9 73/206/9 75/207/9 77/208/9 79/209/9 81/210/9 83/211/9 85/212/9
f 87/213/46 88/214/46 90/215/46 89/216/46
f 89/217/47 90/218/47 92/219/47 91/220/47
f 91/220/48 92/219/48 94/221/48 93/222/48
f 93/223/49 94/224/49 96/225/49 95/226/49
f 95/227/50 96/228/50 98/229/50 97/230/50
f 90/231/6 88/232/6 100/233/6 98/234/6 96/235/6 94/236/6 92/237/6
f 97/230/51 98/229/51 100/238/51 99/239/51
f 99/240/52 100/241/52 88/214/52 87/213/52
f 87/242/9 89/243/9 91/244/9 93/245/9 95/246/9 97/247/9 99/248/9
f 101/249/53 102/250/53 104/251/53 103/252/53
f 103/253/54 104/254/54 106/255/54 105/256/54
f 105/256/55 106/255/55 108/257/55 107/258/55
f 107/258/56 108/257/56 110/259/56 109/260/56
f 109/261/57 110/262/57 112/263/57 111/264/57
f 111/264/58 112/263/58 114/265/58 113/266/58
f 113/267/59 114/268/59 116/269/59 115/270/59
f 104/271/6 102/272/6 118/273/6 116/274/6 114/275/6 112/276/6 110/277/6 108/278/6 106/279/6
f 115/270/60 116/269/60 118/280/60 117/281/60
f 117/282/61 118/283/61 102/250/61 101/249/61
f 101/284/9 103/285/9 105/286/9 107/287/9 109/288/9 111/289/9 113/290/9 115/291/9 117/292/9
f 119/293/62 120/294/62 122/295/62 121/296/62
f 121/297/63 122/298/63 124/299/63 123/300/63
f 123/300/64 124/299/64 126/301/64 125/302/64
f 125/303/65 126/304/65 128/305/65 127/306/65
f 127/306/66 128/305/66 130/307/66 129/308/66
f 129/308/67 130/307/67 132/309/67 131/310/67
f 131/311/68 132/312/68 134/313/68 133/314/68
f 122/315/6 120/316/6 136/317/6 134/318/6 132/319/6 130/320/6 128/321/6 126/322/6 124/323/6
f 133/314/69 134/313/69 136/324/69 135/325/69
f 135/326/70 136/327/70 120/294/70 119/293/70
f 119/328/9 121/329/9 123/330/9 125/331/9 127/332/9 129/333/9 131/334/9 133/335/9 135/336/9
f 137/337/71 138/338/71 140/339/71 139/340/71
f 139/341/72 140/342/72 142/343/72 141/344/72
f 141/344/73 142/343/73 144/345/73 143/346/73
f 143/346/74 144/345/74 146/347/74 145/348/74
f 145/349/75 146/350/75 148/351/75 147/352/75
f 147/352/76 148/351/76 150/353/76 149/354/76
f 149/355/77 150/356/77 152/357/77 151/358/77
f 140/359/6 138/360/6 154/361/6 152/362/6 150/363/6 148/364/6 146/365/6 144/366/6 142/367/6
f 151/358/78 152/357/78 154/368/78 153/369/78
f 153/370/79 154/371/79 138/338/79 137/337/79
f 137/372/9 139/373/9 141/374/9 143/375/9 145/376/9 147/377/9 149/378/9 151/379/9 153/380/9
f 155/381/80 156/382/80 158/383/80 157/384/80
f 157/385/81 158/386/81 160/387/81 159/388/81
f 159/388/82 160/387/82 162/389/82 161/390/82
f 161/391/83 162/392/83 164/393/83 163/394/83
f 163/394/84 164/393/84 166/395/84 165/396/84
f 165/396/85 166/395/85 168/397/85 167/398/85
f 167/399/86 168/400/86 170/401/86 169/402/86
f 158/403/6 156/404/6 172/405/6 170/406/6 168/407/6 166/408/6 164/409/6 162/410/6 160/411/6
f 169/402/87 170/401/87 172/412/87 171/413/87
f 171/414/88 172/415/88 156/382/88 155/381/88
f 155/416/9 157/417/9 159/418/9 161/419/9 163/420/9 165/421/9 167/422/9 169/423/9 171/424/9
f 173/425/89 174/426/89 176/427/89 175/428/89
f 175/429/90 176/430/90 178/431/90 177/432/90
f 177/432/91 178/431/91 180/433/91 179/434/91
f 179/435/92 180/436/92 182/437/92 181/438/92
f 181/439/93 182/440/93 184/441/93 183/442/93
f 176/443/6 174/444/6 186/445/6 184/446/6 182/447/6 180/448/6 178/449/6
f 183/442/94 184/441/94 186/450/94 185/451/94
f 185/452/95 186/453/95 174/426/95 173/425/95
f 173/454/9 175/455/9 177/456/9 179/457/9 181/458/9 183/459/9 185/460/9
f 187/461/96 188/462/96 190/463/96 189/464/96
f 189/464/97 190/463/97 192/465/97 191/466/97
f 191/467/98 192/468/98 194/469/98 193/470/98
f 193/470/99 194/469/99 196/471/99 195/472/99
f 195/473/100 196/474/100 198/475/100 197/476/100
f 197/476/101 198/475/101 200/477/101 199/478/101
f 199/479/102 200/480/102 202/481/102 201/482/102
f 190/483/6 188/484/6 204/485/6 202/486/6 200/487/6 198/488/6 196/489/6 194/490/6 192/491/6
f 201/482/103 202/481/103 204/492/103 203/493/103
f 203/494/104 204/495/104 188/462/104 187/461/104
f 187/496/9 189/497/9 191/498/9 193/499/9 195/500/9 197/501/9 199/502/9 201/503/9 203/504/9
f 205/505/105 206/506/105 208/507/105 207/508/105
f 207/508/106 208/507/106 210/509/106 209/510/106
f 209/511/107 210/512/107 212/513/107 211/514/107
f 211/514/108 212/513/108 214/515/108 213/516/108
f 213/517/109 214/518/109 216/519/109 215/520/109
f 215/520/110 216/519/110 218/521/110 217/522/110
f 217/522/111 218/521/111 220/523/111 219/524/111
f 208/525/6 206/526/6 222/527/6 220/528/6 218/529/6 216/530/6 214/531/6 212/532/6 210/533/6
f 219/534/112 220/535/112 222/536/112 221/537/112
f 221/538/113 222/539/113 206/506/113 205/505/113
f 205/540/9 207/541/9 209/542/9 211/543/9 213/544/9 215/545/9 217/546/9 219/547/9 221/548/9
f 223/549/114 224/550/114 226/551/114 225/552/114
f 225/552/115 226/551/115 228/553/115 227/554/115
f 227/555/116 228/556/116 230/557/116 229/558/116
f 229/558/117 230/557/117 232/559/117 231/560/117
f 231/561/118 232/562/118 234/563/118 233/564/118
f 233/564/119 234/563/119 236/565/119 235/566/119
f 235/566/120 236/565/120 238/567/120 237/568/120
f 226/569/6 224/570/6 240/571/6 238/572/6 236/573/6 234/574/6 232/575/6 230/576/6 228/577/6
f 237/578/121 238/579/121 240/580/121 239/581/121
f 239/581/122 240/580/122 224/582/122 223/583/122
f 223/584/9 225/585/9 227/586/9 229/587/9 231/588/9 233/589/9 235/590/9 237/591/9 239/592/9
f 241/593/123 242/594/123 244/595/123 243/596/123
f 243/596/124 244/595/124 246/597/124 245/598/124
f 245/599/125 246/600/125 248/601/125 247/602/125
f 247/602/126 248/601/126 250/603/126 249/604/126
f 249/604/127 250/603/127 252/605/127 251/606/127
f 251/607/128 252/608/128 254/609/128 253/610/128
f 253/610/129 254/609/129 256/611/129 255/612/129
f 244/613/6 242/614/6 258/615/6 256/616/6 254/617/6 252/618/6 250/619/6 248/620/6 246/621/6
f 255/622/130 256/623/130 258/624/130 257/625/130
f 257/625/131 258/624/131 242/626/131 241/627/131
f 241/628/9 243/629/9 245/630/9 247/631/9 249/632/9 251/633/9 253/634/9 255/635/9 257/636/9
f 259/637/132 260/638/132 262/639/132 261/640/132
f 261/641/133 262/642/133 264/643/133 263/644/133
f 263/644/134 264/643/134 266/645/134 265/646/134
f 265/647/135 266/648/135 268/649/135 267/650/135
f 267/651/136 268/652/136 270/653/136 269/654/136
f 262/655/6 260/656/6 272/657/6 270/658/6 268/659/6 266/660/6 264/661/6
f 269/654/137 270/653/137 272/662/137 271/663/137
f 271/664/138 272/665/138 260/638/138 259/637/138
f 259/666/9 261/667/9 263/668/9 265/669/9 267/670/9 269/671/9 271/672/9
f 273/673/139 274/674/139 276/675/139 275/676/139
f 275/676/140 276/675/140 278/677/140 277/678/140
f 277/679/141 278/680/141 280/681/141 279/682/141
f 279/682/142 280/681/142 282/683/142 281/684/142
f 281/685/143 282/686/143 284/687/143 283/688/143
f 283/688/144 284/687/144 286/689/144 285/690/144
f 285/690/145 286/689/145 288/691/145 287/692/145
f 276/693/6 274/694/6 290/695/6 288/696/6 286/697/6 284/698/6 282/699/6 280/700/6 278/701/6
f 287/702/146 288/703/146 290/704/146 289/705/146
f 289/705/147 290/704/147 274/706/147 273/707/147
f 273/708/9 275/709/9 277/710/9 279/711/9 281/712/9 283/713/9 285/714/9 287/715/9 289/716/9
f 291/717/148 292/718/148 294/719/148 293/720/148
f 293/720/149 294/719/149 296/721/149 295/722/149
f 295/723/150 296/724/150 298/725/150 297/726/150
f 297/726/151 298/725/151 300/727/151 299/728/151
f 299/729/152 300/730/152 302/731/152 301/732/152
f 301/732/153 302/731/153 304/733/153 303/734/153
f 303/734/154 304/733/154 306/735/154 305/736/154
f 294/737/6 292/738/6 308/739/6 306/740/6 304/741/6 302/742/6 300/743/6 298/744/6 296/745/6
f 305/746/155 306/747/155 308/748/155 307/749/155
f 307/749/156 308/748/156 292/750/156 291/751/156
f 291/752/9 293/753/9 295/754/9 297/755/9 299/756/9 301/757/9 303/758/9 305/759/9 307/760/9
f 309/761/157 310/762/157 312/763/157 311/764/157
f 311/765/158 312/766/158 314/767/158 313/768/158
f 313/768/159 314/767/159 316/769/159 315/770/159
f 315/770/160 316/769/160 318/771/160 317/772/160
f 317/773/161 318/774/161 320/775/161 319/776/161
f 319/776/162 320/775/162 322/777/162 321/778/162
f 321/779/163 322/780/163 324/781/163 323/782/163
f 312/783/6 310/784/6 326/785/6 324/786/6 322/787/6 320/788/6 318/789/6 316/790/6 314/791/6
f 323/782/164 324/781/164 326/792/164 325/793/164
f 325/794/165 326/795/165 310/762/165 309/761/165
f 309/796/9 311/797/9 313/798/9 315/799/9 317/800/9 319/801/9 321/802/9 323/803/9 325/804/9
f 327/805/166 328/806/166 330/807/166 329/808/166
f 329/809/167 330/810/167 332/811/167 331/812/167
f 331/812/168 332/811/168 334/813/168 333/814/168
f 333/814/169 334/813/169 336/815/169 335/816/169
f 335/817/170 336/818/170 338/819/170 337/820/170
f 337/820/171 338/819/171 340/821/171 339/822/171
f 339/823/172 340/824/172 342/825/172 341/826/172
f 330/827/6 328/828/6 344/829/6 342/830/6 340/831/6 338/832/6 336/833/6 334/834/6 332/835/6
f 341/826/173 342/825/173 344/836/173 343/837/173
f 343/838/174 344/839/174 328/806/174 327/805/174
f 327/840/9 329/841/9 331/842/9 333/843/9 335/844/9 337/845/9 339/846/9 341/847/9 343/848/9
f 345/849/175 346/850/175 348/851/175 347/852/175
f 347/853/176 348/854/176 350/855/176 349/856/176
f 349/856/177 350/855/177 352/857/177 351/858/177
f 351/859/178 352/860/178 354/861/178 353/862/178
f 353/863/179 354/864/179 356/865/179 355/866/179
f 348/867/6 346/868/6 358/869/6 356/870/6 354/871/6 352/872/6 350/873/6
f 355/866/180 356/865/180 358/874/180 357/875/180
f 357/876/181 358/877/181 346/850/181 345/849/181
f 345/878/9 347/879/9 349/880/9 351/881/9 353/882/9 355/883/9 357/884/9
f 359/885/182 360/886/182 362/887/182 361/888/182
f 361/889/183 362/890/183 364/891/183 363/892/183
f 363/892/184 364/891/184 366/893/184 365/894/184
f 365/894/185 366/893/185 368/895/185 367/896/185
f 367/897/186 368/898/186 370/899/186 369/900/186
f 369/900/187 370/899/187 372/901/187 371/902/187
f 371/903/188 372/904/188 374/905/188 373/906/188
f 362/907/6 360/908/6 376/909/6 374/910/6 372/911/6 370/912/6 368/913/6 366/914/6 364/915/6
f 373/906/189 374/905/189 376/916/189 375/917/189
f 375/918/190 376/919/190 360/886/190 359/885/190
f 359/920/9 361/921/9 363/922/9 365/923/9 367/924/9 369/925/9 371/926/9 373/927/9 375/928/9
f 377/929/191 378/930/191 380/931/191 379/932/191
f 379/933/192 380/934/192 382/935/192 381/936/192
f 381/936/193 382/935/193 384/937/193 383/938/193
f 383/939/194 384/940/194 386/941/194 385/942/194
f 385/942/195 386/941/195 388/943/195 387/944/195
f 387/944/196 388/943/196 390/945/196 389/946/196
f 389/947/197 390/948/197 392/949/197 391/950/197
f 380/951/6 378/952/6 394/953/6 392/954/6 390/955/6 388/956/6 386/957/6 384/958/6 382/959/6
f 391/950/198 392/949/198 394/960/198 393/961/198
f 393/962/199 394/963/199 378/930/199 377/929/199
f 377/964/9 379/965/9 381/966/9 383/967/9 385/968/9 387/969/9 389/970/9 391/971/9 393/972/9
f 395/973/200 396/974/200 398/975/200 397/976/200
f 397/976/201 398/975/201 400/977/201 399/978/201
f 399/979/202 400/980/202 402/981/202 401/982/202
f 401/982/203 402/981/203 404/983/203 403/984/203
f 403/985/204 404/986/204 406/987/204 405/988/204
f 405/988/205 406/987/205 408/989/205 407/990/205
f 407/991/206 408/992/206 410/993/206 409/994/206
f 398/995/6 396/996/6 412/997/6 410/998/6 408/999/6 406/1000/6 404/1001/6 402/1002/6 400/1003/6
f 409/994/207 410/993/207 412/1004/207 411/1005/207
f 411/1006/208 412/1007/208 396/974/208 395/973/208
f 395/1008/9 397/1009/9 399/1010/9 401/1011/9 403/1012/9 405/1013/9 407/1014/9 409/1015/9 411/1016/9
f 413/1017/209 414/1018/209 416/1019/209 415/1020/209
f 415/1021/210 416/1022/210 418/1023/210 417/1024/210
f 417/1024/211 418/1023/211 420/1025/211 419/1026/211
f 419/1027/212 420/1028/212 422/1029/212 421/1030/212
f 421/1030/213 422/1029/213 424/1031/213 423/1032/213
f 423/1032/214 424/1031/214 426/1033/214 425/1034/214
f 425/1035/215 426/1036/215 428/1037/215 427/1038/215
f 416/1039/6 414/1040/6 430/1041/6 428/1042/6 426/1043/6 424/1044/6 422/1045/6 420/1046/6 418/1047/6
f 427/1048/216 428/1049/216 430/1050/216 429/1051/216
f 429/1051/217 430/1050/217 414/1018/217 413/1017/217
f 413/1052/9 415/1053/9 417/1054/9 419/1055/9 421/1056/9 423/1057/9 425/1058/9 427/1059/9 429/1060/9
