# Blender 4.5.13 LTS
# www.blender.org
o canvas
v 0.000000 0.000000 0.000000
v 0.109611 -0.011776 0.203772
v -0.146788 -0.017140 0.100252
v -0.197151 0.000000 -0.126360
v 0.028952 0.016660 -0.170339
v 0.199145 0.010155 0.012496
v -0.031620 0.041036 0.172016
v -0.221844 0.052138 -0.008116
v -0.106519 0.073941 -0.185871
v 0.155781 0.084039 -0.103150
v 0.203070 0.065768 0.138337
v -0.007775 0.137533 0.012130
v -0.094187 -0.010998 0.064327
v 0.057065 -0.006131 0.106086
v -0.031079 -0.017885 0.182867
v 0.178773 0.000000 0.114581
v 0.135154 0.006892 0.008481
v -0.112951 0.000000 -0.072394
v -0.201959 -0.010299 -0.012672
v 0.018159 0.010449 -0.106837
v -0.090132 0.009683 -0.167562
v 0.134556 0.015711 -0.091896
v 0.176275 -0.006485 0.186513
v 0.249620 0.006660 0.084481
v -0.099516 -0.019320 0.155268
v 0.041205 -0.016606 0.214697
v -0.236331 -0.006305 -0.079983
v -0.225195 -0.017616 0.055403
v -0.045112 0.018181 -0.235051
v -0.163552 0.006017 -0.173051
v 0.217007 0.016976 -0.053388
v 0.100537 0.019518 -0.156861
v 0.097053 0.065634 0.195219
v -0.159023 0.060332 0.112492
v -0.196631 0.075621 -0.116618
v 0.025484 0.091235 -0.168071
v 0.185456 0.077474 0.017858
v -0.023199 0.101047 0.109415
v 0.103871 0.113510 0.080698
v -0.124067 0.104509 0.002354
v -0.062726 0.117565 -0.095058
v 0.088598 0.138332 -0.054205
v -0.015000 0.125000 0.210000
v -0.015000 0.155000 0.210000
v -0.015000 0.125000 -0.210000
v -0.015000 0.155000 -0.210000
v 0.015000 0.125000 0.210000
v 0.015000 0.155000 0.210000
v 0.015000 0.125000 -0.210000
v 0.015000 0.155000 -0.210000
v 0.115290 0.030833 -0.079400
v 0.269244 0.063594 -0.041835
v 0.091417 0.059399 0.034589
v -0.039365 0.080515 -0.030406
v 0.041041 0.099982 -0.155420
v 0.237184 0.092146 -0.160782
v 0.192857 0.138472 0.028046
v -0.004524 0.149598 0.047095
v -0.027156 0.175616 -0.077911
v 0.151868 0.187565 -0.165460
v 0.292109 0.162642 -0.091961
v 0.124976 0.214208 -0.039503
v 0.099554 0.028368 -0.013672
v 0.199674 0.036416 -0.061372
v 0.192641 0.045599 0.013320
v 0.274981 0.071105 -0.108892
v 0.185060 0.050077 -0.130099
v 0.022052 0.043700 -0.053799
v 0.001463 0.056923 0.018245
v 0.068863 0.049558 -0.130754
v -0.023112 0.084283 -0.096010
v 0.144981 0.090926 -0.178911
v 0.310446 0.111704 -0.068107
v 0.289217 0.128116 -0.138388
v 0.148136 0.093300 0.055889
v 0.255701 0.098198 0.007261
v -0.057593 0.111482 0.022268
v 0.037459 0.099950 0.052195
v -0.006378 0.140304 -0.122640
v -0.060235 0.127851 -0.052327
v 0.202784 0.140109 -0.172525
v 0.093098 0.145529 -0.170806
v 0.263695 0.155862 -0.023844
v 0.096721 0.147093 0.050809
v -0.036102 0.169248 -0.010754
v 0.055277 0.186291 -0.125328
v 0.243011 0.185458 -0.141198
v 0.169579 0.188295 0.008598
v 0.217434 0.195899 -0.066169
v 0.055684 0.189123 0.009298
v 0.033729 0.210505 -0.058515
v 0.139819 0.208820 -0.104906
vn 0.0562 -0.9946 -0.0877
vn -0.0335 0.9982 0.0491
vn 0.4844 -0.5546 0.6766
vn -0.3355 -0.6692 0.6630
vn -0.7954 -0.5428 -0.2696
vn 0.0388 -0.3496 -0.9361
vn 0.8376 -0.3933 -0.3791
vn -0.0843 -0.5823 0.8086
vn -0.7496 -0.5690 0.3382
vn -0.4760 -0.5479 -0.6879
vn 0.4377 -0.5331 -0.7241
vn 0.9229 -0.3829 0.0404
vn -0.3107 0.4628 0.8303
vn 0.0985 0.6011 0.7931
vn -0.1725 0.8690 0.4637
vn -0.8160 0.5622 0.1341
vn -0.5587 0.5394 0.6300
vn -0.3521 0.9281 0.1207
vn -0.3081 0.6579 -0.6872
vn -0.6638 0.6471 -0.3750
vn -0.1679 0.9589 -0.2288
vn 0.6335 0.5505 -0.5437
vn 0.2118 0.7049 -0.6770
vn 0.2516 0.9545 -0.1598
vn 0.6444 0.6276 0.4369
vn 0.6521 0.7563 -0.0518
vn 0.2130 0.9462 0.2436
vn -0.1176 0.9844 0.1308
vn -1.0000 -0.0000 -0.0000
vn -0.0000 -0.0000 -1.0000
vn 1.0000 -0.0000 -0.0000
vn -0.0000 -0.0000 1.0000
vn -0.0000 -1.0000 -0.0000
vn -0.0000 1.0000 -0.0000
vn -0.0250 -0.9847 -0.1726
vn 0.2283 -0.9726 -0.0445
vn -0.0527 -0.9714 0.2314
vn 0.6237 -0.7393 0.2538
vn 0.6056 -0.7215 -0.3356
vn -0.3675 -0.9234 -0.1108
vn -0.2415 -0.8058 -0.5408
vn 0.1532 -0.8684 -0.4716
vn 0.9831 -0.1003 0.1531
vn -0.0434 -0.6807 0.7313
vn 0.2956 -0.7769 0.5560
vn 0.1887 -0.1717 0.9669
vn -0.7349 -0.6763 -0.0509
vn -0.3846 -0.7780 0.4969
vn -0.8381 -0.1334 0.5290
vn -0.4373 -0.2310 -0.8692
vn -0.6996 -0.5087 -0.5018
vn -0.6271 0.2247 -0.7458
vn 0.3669 -0.4199 -0.8301
vn -0.0085 -0.3581 -0.9337
vn 0.2148 0.1528 -0.9646
vn 0.6368 -0.1275 0.7604
vn -0.1449 -0.2455 0.9585
vn -0.9716 0.0486 -0.2316
vn -0.2582 0.2557 -0.9316
vn 0.7664 0.0371 -0.6413
vn 0.3747 0.3500 0.8586
vn 0.6151 0.5677 0.5472
vn 0.2549 0.7512 0.6088
vn -0.3321 0.4226 0.8433
vn 0.0467 0.4099 0.9110
vn -0.1089 0.8424 0.5277
vn -0.6680 0.6509 -0.3607
vn -0.6487 0.7170 0.2552
vn -0.2654 0.9636 -0.0303
vn -0.0134 0.6547 -0.7558
vn -0.3158 0.7401 -0.5937
vn 0.0245 0.9773 -0.2104
vn 0.7727 0.6345 -0.0196
vn 0.4139 0.7434 -0.5253
vn 0.3317 0.9334 0.1370
vn 0.0610 0.9801 0.1888
vt 0.182111 0.235800
vt 0.135169 0.337518
vt 0.074560 0.192143
vt 0.091944 0.431181
vt 0.203343 0.441470
vt 0.168696 0.105856
vt 0.275826 0.195218
vt 0.258553 0.350742
vt 0.146220 0.476750
vt 0.014495 0.167762
vt 0.021705 0.305265
vt 0.001007 0.234971
vt 0.158696 0.008988
vt 0.067884 0.064046
vt 0.098796 0.001007
vt 0.331529 0.171096
vt 0.256255 0.075140
vt 0.336058 0.076943
vt 0.294746 0.405163
vt 0.335757 0.298171
vt 0.356630 0.385586
vt 0.361820 0.556541
vt 0.365072 0.485810
vt 0.365072 0.627714
vt 0.001007 0.080363
vt 0.215412 0.012242
vt 0.365072 0.236638
vt 0.270111 0.483796
vt 0.426789 0.240856
vt 0.416975 0.107630
vt 0.508763 0.233449
vt 0.598462 0.442314
vt 0.487331 0.373330
vt 0.610010 0.340741
vt 0.076690 0.722615
vt 0.001007 0.808378
vt 0.001007 0.668543
vt 0.103004 0.485810
vt 0.096401 0.595962
vt 0.009749 0.524341
vt 0.474640 0.001007
vt 0.594084 0.023278
vt 0.544405 0.103987
vt 0.682492 0.124153
vt 0.615778 0.220552
vt 0.711846 0.058027
vt 0.710003 0.281184
vt 0.711846 0.420024
vt 0.820096 0.717726
vt 0.883756 0.632539
vt 0.880476 0.757839
vt 0.819811 0.572031
vt 0.880887 0.504634
vt 0.166190 0.562806
vt 0.169249 0.690002
vt 0.098912 0.807522
vt 0.924902 0.001007
vt 0.931167 0.099951
vt 0.849782 0.055304
vt 0.866417 0.168919
vt 0.933499 0.238801
vt 0.849782 0.289270
vt 0.885770 0.729116
vt 0.899418 0.590795
vt 0.953390 0.629776
vt 0.928655 0.503168
vt 0.367086 0.165644
vt 0.907244 0.291284
vt 0.907244 0.431725
vt 0.849782 0.348584
vt 0.401599 0.028001
vt 0.807692 0.444328
vt 0.885770 0.444328
vt 0.041495 0.380902
vt 0.807692 0.806096
vt 0.315604 0.485813
vt 0.346389 0.485810
vt 0.346389 0.916486
vt 0.315604 0.916489
vt 0.739241 0.383183
vt 0.713860 0.377272
vt 0.713860 0.348313
vt 0.739241 0.354224
vt 0.935512 0.001366
vt 0.966247 0.001007
vt 0.966247 0.423044
vt 0.935512 0.423404
vt 0.713860 0.386339
vt 0.737844 0.385197
vt 0.737844 0.415928
vt 0.713860 0.417070
vt 0.968261 0.001920
vt 0.998993 0.001007
vt 0.998993 0.372750
vt 0.968261 0.373664
vt 0.955404 0.444659
vt 0.986174 0.444328
vt 0.986174 0.848046
vt 0.955404 0.848377
vt 0.686164 0.606198
vt 0.673784 0.692056
vt 0.626595 0.588916
vt 0.671172 0.761649
vt 0.734459 0.768464
vt 0.669451 0.509520
vt 0.740965 0.558701
vt 0.741582 0.677746
vt 0.619899 0.902825
vt 0.612406 0.836481
vt 0.665966 0.872962
vt 0.795463 0.154821
vt 0.796128 0.261884
vt 0.742576 0.202539
vt 0.460309 0.883723
vt 0.472423 0.936298
vt 0.416637 0.929498
vt 0.171263 0.624072
vt 0.172278 0.539305
vt 0.211601 0.565511
vt 0.207000 0.810258
vt 0.175711 0.731406
vt 0.234916 0.782403
vt 0.664262 0.939680
vt 0.765103 0.091821
vt 0.418216 0.851305
vt 0.215199 0.678808
vt 0.261330 0.849304
vt 0.559620 0.697018
vt 0.491267 0.758253
vt 0.527738 0.668061
vt 0.610286 0.500994
vt 0.595871 0.603907
vt 0.549270 0.553264
vt 0.487236 0.454135
vt 0.554537 0.457731
vt 0.481712 0.517805
vt 0.267904 0.731221
vt 0.264421 0.623939
vt 0.313590 0.694426
vt 0.419295 0.774104
vt 0.373791 0.714634
vt 0.445584 0.702266
vt 0.418832 0.616339
vt 0.481361 0.613218
vt 0.367086 0.618139
vt 0.313590 0.575596
vt 0.259645 0.526989
vt 0.663730 0.796173
vt 0.715205 0.770478
vt 0.709130 0.833537
vt 0.299097 0.806555
vt 0.367086 0.881854
vt 0.376931 0.813028
vt 0.610392 0.444328
vt 0.715181 0.144514
vt 0.738812 0.043807
vt 0.610392 0.658750
vt 0.542768 0.758109
vt 0.715205 0.896460
vt 0.223208 0.485810
vt 0.423046 0.776118
vt 0.472423 0.816784
vt 0.796352 0.001007
vt 0.828200 0.068503
vt 0.743915 0.318482
vt 0.713860 0.246045
vt 0.798303 0.346299
vt 0.617292 0.773399
vt 0.805679 0.635626
vt 0.791007 0.729708
vt 0.788768 0.528207
vt 0.727528 0.462074
vt 0.667388 0.444328
vt 0.612406 0.486377
vt 0.847769 0.176574
vt 0.612406 0.682951
vt 0.847769 0.284459
s 1
f 1/1/1 14/2/1 13/3/1
f 2/4/2 14/2/1 16/5/1
f 1/1/1 13/3/1 18/6/1
f 1/1/1 18/6/1 20/7/1
f 1/1/1 20/7/1 17/8/1
f 2/4/2 16/5/1 23/9/3
f 3/10/1 15/11/1 25/12/4
f 4/13/1 19/14/1 27/15/5
f 5/16/1 21/17/1 29/18/6
f 6/19/1 22/20/1 31/21/7
f 2/22/2 23/23/3 26/24/8
f 3/10/1 25/12/4 28/25/9
f 4/13/1 27/15/5 30/26/10
f 5/16/1 29/18/6 32/27/11
f 6/19/1 31/21/7 24/28/12
f 7/29/13 33/30/14 38/31/15
f 8/32/16 34/33/17 40/34/18
f 9/35/19 35/36/20 41/37/21
f 10/38/22 36/39/23 42/40/24
f 11/41/25 37/42/26 39/43/27
f 39/43/27 42/44/24 12/45/28
f 39/43/27 37/42/26 42/44/24
f 37/42/26 10/46/22 42/44/24
f 42/44/24 41/47/21 12/45/28
f 42/40/24 36/39/23 41/37/21
f 36/39/23 9/35/19 41/37/21
f 41/47/21 40/34/18 12/45/28
f 41/47/21 35/48/20 40/34/18
f 35/48/20 8/32/16 40/34/18
f 40/34/18 38/31/15 12/45/28
f 40/34/18 34/33/17 38/31/15
f 34/33/17 7/29/13 38/31/15
f 38/31/15 39/43/27 12/45/28
f 38/31/15 33/30/14 39/43/27
f 33/30/14 11/41/25 39/43/27
f 24/49/12 37/50/26 11/51/25
f 24/49/12 31/52/7 37/50/26
f 31/52/7 10/53/22 37/50/26
f 32/54/11 36/39/23 10/38/22
f 32/54/11 29/55/6 36/39/23
f 29/55/6 9/35/19 36/39/23
f 30/56/10 35/36/20 9/35/19
f 30/57/10 27/58/5 35/59/20
f 27/58/5 8/60/16 35/59/20
f 28/61/9 34/62/17 8/60/16
f 28/63/9 25/64/4 34/65/17
f 25/64/4 7/66/13 34/65/17
f 26/67/8 33/30/14 7/29/13
f 26/68/8 23/69/3 33/70/14
f 23/71/3 11/41/25 33/30/14
f 31/52/7 32/72/11 10/53/22
f 31/21/7 22/20/1 32/27/11
f 22/20/1 5/16/1 32/27/11
f 29/55/6 30/56/10 9/35/19
f 29/18/6 21/17/1 30/26/10
f 21/17/1 4/13/1 30/26/10
f 27/58/5 28/61/9 8/60/16
f 27/15/5 19/14/1 28/25/9
f 19/14/1 3/10/1 28/25/9
f 25/64/4 26/73/8 7/66/13
f 25/12/4 15/11/1 26/74/8
f 15/11/1 2/4/2 26/74/8
f 23/75/3 24/49/12 11/51/25
f 23/9/3 16/5/1 24/28/12
f 16/5/1 6/19/1 24/28/12
f 17/8/1 22/20/1 6/19/1
f 17/8/1 20/7/1 22/20/1
f 20/7/1 5/16/1 22/20/1
f 20/7/1 21/17/1 5/16/1
f 20/7/1 18/6/1 21/17/1
f 18/6/1 4/13/1 21/17/1
f 18/6/1 19/14/1 4/13/1
f 18/6/1 13/3/1 19/14/1
f 13/3/1 3/10/1 19/14/1
f 16/5/1 17/8/1 6/19/1
f 16/5/1 14/2/1 17/8/1
f 14/2/1 1/1/1 17/8/1
f 13/3/1 15/11/1 3/10/1
f 13/3/1 14/2/1 15/11/1
f 14/2/1 2/4/2 15/11/1
s 0
f 43/76/29 44/77/29 46/78/29 45/79/29
f 45/80/30 46/81/30 50/82/30 49/83/30
f 49/84/31 50/85/31 48/86/31 47/87/31
f 47/88/32 48/89/32 44/90/32 43/91/32
f 45/92/33 49/93/33 47/94/33 43/95/33
f 50/96/34 46/97/34 44/98/34 48/99/34
s 1
f 51/100/35 64/101/36 63/102/37
f 52/103/38 64/101/36 66/104/39
f 51/100/35 63/102/37 68/105/40
f 51/100/35 68/105/40 70/106/41
f 51/100/35 70/106/41 67/107/42
f 52/108/38 66/109/39 73/110/43
f 53/111/44 65/112/45 75/113/46
f 54/114/47 69/115/48 77/116/49
f 55/117/50 71/118/51 79/119/52
f 56/120/53 72/121/54 81/122/55
f 52/108/38 73/110/43 76/123/56
f 53/111/44 75/113/46 78/124/57
f 54/114/47 77/116/49 80/125/58
f 55/117/50 79/119/52 82/126/59
f 56/120/53 81/122/55 74/127/60
f 57/128/61 83/129/62 88/130/63
f 58/131/64 84/132/65 90/133/66
f 59/134/67 85/135/68 91/136/69
f 60/137/70 86/138/71 92/139/72
f 61/140/73 87/141/74 89/142/75
f 89/142/75 92/143/72 62/144/76
f 89/142/75 87/141/74 92/143/72
f 87/141/74 60/145/70 92/143/72
f 92/143/72 91/136/69 62/144/76
f 92/139/72 86/138/71 91/146/69
f 86/138/71 59/147/67 91/146/69
f 91/136/69 90/133/66 62/144/76
f 91/136/69 85/135/68 90/133/66
f 85/135/68 58/131/64 90/133/66
f 90/133/66 88/130/63 62/144/76
f 90/133/66 84/132/65 88/130/63
f 84/132/65 57/128/61 88/130/63
f 88/130/63 89/142/75 62/144/76
f 88/130/63 83/129/62 89/142/75
f 83/129/62 61/140/73 89/142/75
f 74/148/60 87/149/74 61/150/73
f 74/127/60 81/122/55 87/151/74
f 81/122/55 60/137/70 87/151/74
f 82/126/59 86/138/71 60/137/70
f 82/126/59 79/119/52 86/138/71
f 79/119/52 59/147/67 86/138/71
f 80/125/58 85/152/68 59/153/67
f 80/125/58 77/116/49 85/152/68
f 77/154/49 58/131/64 85/135/68
f 78/124/57 84/155/65 58/156/64
f 78/124/57 75/113/46 84/155/65
f 75/157/46 57/128/61 84/132/65
f 76/158/56 83/129/62 57/128/61
f 76/123/56 73/110/43 83/159/62
f 73/110/43 61/150/73 83/159/62
f 81/122/55 82/126/59 60/137/70
f 81/122/55 72/121/54 82/126/59
f 72/121/54 55/117/50 82/126/59
f 79/119/52 80/160/58 59/147/67
f 79/161/52 71/162/51 80/125/58
f 71/162/51 54/114/47 80/125/58
f 77/163/49 78/124/57 58/156/64
f 77/163/49 69/164/48 78/124/57
f 69/164/48 53/111/44 78/124/57
f 75/113/46 76/165/56 57/166/61
f 75/113/46 65/112/45 76/165/56
f 65/112/45 52/167/38 76/165/56
f 73/110/43 74/148/60 61/150/73
f 73/110/43 66/109/39 74/148/60
f 66/109/39 56/168/53 74/148/60
f 67/107/42 72/169/54 56/170/53
f 67/107/42 70/106/41 72/169/54
f 70/106/41 55/171/50 72/169/54
f 70/106/41 71/172/51 55/171/50
f 70/106/41 68/105/40 71/172/51
f 68/105/40 54/173/47 71/172/51
f 68/105/40 69/174/48 54/173/47
f 68/105/40 63/102/37 69/174/48
f 63/175/37 53/111/44 69/164/48
f 66/104/39 67/107/42 56/170/53
f 66/104/39 64/101/36 67/107/42
f 64/101/36 51/100/35 67/107/42
f 63/175/37 65/112/45 53/111/44
f 63/102/37 64/101/36 65/176/45
f 64/177/36 52/167/38 65/112/45
