# Blender 4.5.13 LTS
# www.blender.org
o charcoal
v 0.000000 0.000000 -0.300000
v 0.000000 0.050000 -0.300000
v 0.092705 0.000000 -0.285317
v 0.092705 0.050000 -0.285317
v 0.176336 0.000000 -0.242705
v 0.176336 0.050000 -0.242705
v 0.242705 0.000000 -0.176336
v 0.242705 0.050000 -0.176336
v 0.285317 0.000000 -0.092705
v 0.285317 0.050000 -0.092705
v 0.300000 0.000000 0.000000
v 0.300000 0.050000 0.000000
v 0.285317 0.000000 0.092705
v 0.285317 0.050000 0.092705
v 0.242705 0.000000 0.176336
v 0.242705 0.050000 0.176336
v 0.176336 0.000000 0.242705
v 0.176336 0.050000 0.242705
v 0.092705 0.000000 0.285317
v 0.092705 0.050000 0.285317
v 0.000000 0.000000 0.300000
v 0.000000 0.050000 0.300000
v -0.092705 0.000000 0.285317
v -0.092705 0.050000 0.285317
v -0.176336 0.000000 0.242705
v -0.176336 0.050000 0.242705
v -0.242705 0.000000 0.176336
v -0.242705 0.050000 0.176336
v -0.285317 0.000000 0.092705
v -0.285317 0.050000 0.092705
v -0.300000 0.000000 0.000000
v -0.300000 0.050000 0.000000
v -0.285317 0.000000 -0.092705
v -0.285317 0.050000 -0.092705
v -0.242705 0.000000 -0.176336
v -0.242705 0.050000 -0.176336
v -0.176336 0.000000 -0.242705
v -0.176336 0.050000 -0.242705
v -0.092705 0.000000 -0.285317
v -0.092705 0.050000 -0.285317
v 0.230000 0.039952 0.016667
v 0.207223 0.044842 -0.083006
v 0.143403 0.048764 -0.162938
v 0.051180 0.050940 -0.207297
v -0.051180 0.050940 -0.207297
v -0.143403 0.048764 -0.162938
v -0.207223 0.044842 -0.083006
v -0.230000 0.039952 0.016667
v -0.207223 0.035062 0.116341
v -0.143403 0.031140 0.196273
v -0.051180 0.028963 0.240632
v 0.051180 0.028963 0.240632
v 0.143403 0.031140 0.196273
v 0.207223 0.035062 0.116341
v 0.210000 0.349579 0.031859
v 0.189203 0.354045 -0.059147
v 0.130933 0.357625 -0.132128
v 0.046729 0.359612 -0.172630
v -0.046729 0.359612 -0.172630
v -0.130933 0.357625 -0.132128
v -0.189203 0.354045 -0.059147
v -0.210000 0.349579 0.031859
v -0.189203 0.345114 0.122865
v -0.130933 0.341534 0.195846
v -0.046729 0.339547 0.236348
v 0.046729 0.339547 0.236348
v 0.130933 0.341534 0.195846
v 0.189203 0.345114 0.122865
v 0.180000 0.619255 0.045090
v 0.162174 0.623082 -0.032915
v 0.112228 0.626152 -0.095470
v 0.040054 0.627855 -0.130186
v -0.040054 0.627855 -0.130186
v -0.112228 0.626152 -0.095470
v -0.162174 0.623082 -0.032915
v -0.180000 0.619255 0.045090
v -0.162174 0.615428 0.123095
v -0.112228 0.612359 0.185651
v -0.040054 0.610655 0.220366
v 0.040054 0.610655 0.220366
v 0.112228 0.612359 0.185651
v 0.162174 0.615428 0.123095
v 0.170000 0.779063 0.052931
v 0.153165 0.782677 -0.020741
v 0.105993 0.785576 -0.079821
v 0.037829 0.787185 -0.112608
v -0.037829 0.787185 -0.112608
v -0.105993 0.785576 -0.079821
v -0.153165 0.782677 -0.020741
v -0.170000 0.779063 0.052931
v -0.153165 0.775448 0.126603
v -0.105993 0.772550 0.185683
v -0.037829 0.770941 0.218470
v 0.037829 0.770941 0.218470
v 0.105993 0.772550 0.185683
v 0.153165 0.775448 0.126603
v 0.100000 0.858967 0.056851
v 0.090097 0.861093 0.013515
v 0.062349 0.862798 -0.021238
v 0.022252 0.863744 -0.040524
v -0.022252 0.863744 -0.040524
v -0.062349 0.862798 -0.021238
v -0.090097 0.861093 0.013515
v -0.100000 0.858967 0.056851
v -0.090097 0.856841 0.100188
v -0.062349 0.855135 0.134941
v -0.022252 0.854189 0.154227
v 0.022252 0.854189 0.154227
v 0.062349 0.855135 0.134941
v 0.090097 0.856841 0.100188
v 0.000000 0.450291 -0.192589
v 0.000000 0.500231 -0.190139
v 0.091116 0.449272 -0.171818
v 0.091116 0.499212 -0.169367
v 0.164185 0.446416 -0.113617
v 0.164185 0.496356 -0.111167
v 0.204735 0.442290 -0.029515
v 0.204735 0.492230 -0.027065
v 0.204735 0.437710 0.063832
v 0.204735 0.487650 0.066282
v 0.164185 0.433584 0.147934
v 0.164185 0.483524 0.150384
v 0.091116 0.430728 0.206135
v 0.091116 0.480668 0.208585
v 0.000000 0.429709 0.226906
v 0.000000 0.479649 0.229356
v -0.091116 0.430728 0.206135
v -0.091116 0.480668 0.208585
v -0.164185 0.433584 0.147934
v -0.164185 0.483524 0.150384
v -0.204735 0.437710 0.063832
v -0.204735 0.487650 0.066282
v -0.204735 0.442290 -0.029515
v -0.204735 0.492230 -0.027065
v -0.164185 0.446416 -0.113617
v -0.164185 0.496356 -0.111167
v -0.091116 0.449272 -0.171818
v -0.091116 0.499212 -0.169367
v -0.148694 0.471497 -0.039080
v -0.213934 0.541362 -0.038053
v -0.188990 0.538366 -0.106007
v -0.109537 0.543678 -0.079584
v -0.087491 0.544282 -0.002520
v -0.151324 0.543956 0.023222
v -0.211169 0.654524 -0.077449
v -0.148619 0.658492 -0.106781
v -0.083891 0.660633 -0.042807
v -0.112809 0.658791 0.022200
v -0.189833 0.655445 -0.001806
v -0.151349 0.732763 -0.041744
v -0.171727 0.486183 -0.077495
v -0.187454 0.487348 -0.038201
v -0.208643 0.531865 -0.075428
v -0.189734 0.529403 0.000657
v -0.150022 0.488364 -0.000743
v -0.124448 0.488432 -0.063596
v -0.147442 0.530774 -0.101440
v -0.112597 0.492968 -0.017430
v -0.088077 0.532570 -0.041353
v -0.112063 0.530665 0.022577
v -0.213356 0.599617 -0.014773
v -0.174956 0.600370 0.020788
v -0.211559 0.598745 -0.102139
v -0.227873 0.598983 -0.062552
v -0.125810 0.599641 -0.099690
v -0.170476 0.599050 -0.113189
v -0.076768 0.600957 -0.019549
v -0.090807 0.600358 -0.064324
v -0.128260 0.601009 0.036903
v -0.089472 0.601234 0.020324
v -0.212468 0.668023 -0.039419
v -0.188677 0.670687 -0.104584
v -0.112088 0.667359 -0.079555
v -0.092130 0.667237 -0.005815
v -0.152449 0.666268 0.018051
v -0.187814 0.708207 -0.063603
v -0.176181 0.714311 -0.016614
v -0.149978 0.711374 -0.079944
v -0.114738 0.706060 -0.042451
v -0.128918 0.710439 -0.004386
v 0.176028 0.475948 -0.029813
v 0.104971 0.534816 -0.008935
v 0.104162 0.528124 -0.078221
v 0.183943 0.543031 -0.089647
v 0.237310 0.557367 -0.025161
v 0.182863 0.555113 0.021564
v 0.068465 0.639813 -0.054612
v 0.114148 0.648969 -0.107980
v 0.196671 0.667561 -0.072993
v 0.194316 0.669491 -0.003815
v 0.116413 0.656371 0.008350
v 0.122996 0.728703 -0.051364
v 0.137954 0.477986 -0.057153
v 0.139102 0.491103 -0.016218
v 0.093605 0.514953 -0.044122
v 0.142985 0.531538 0.018058
v 0.185022 0.500174 0.003022
v 0.185613 0.491786 -0.062928
v 0.142412 0.521537 -0.093329
v 0.213116 0.504009 -0.025848
v 0.220390 0.541521 -0.061043
v 0.219738 0.548133 0.006503
v 0.105135 0.594479 0.005257
v 0.150313 0.605636 0.024942
v 0.074319 0.581499 -0.071144
v 0.076593 0.585444 -0.030466
v 0.149665 0.593976 -0.110216
v 0.103799 0.585277 -0.099374
v 0.224109 0.614695 -0.050409
v 0.197321 0.605824 -0.088537
v 0.197516 0.615142 0.020272
v 0.224969 0.618327 -0.009926
v 0.082204 0.656324 -0.020498
v 0.080703 0.651540 -0.086987
v 0.157109 0.669385 -0.099627
v 0.201932 0.678316 -0.036954
v 0.157651 0.679121 0.012993
v 0.082383 0.702837 -0.055970
v 0.113855 0.709830 -0.017516
v 0.113101 0.705176 -0.086129
v 0.161237 0.712282 -0.065314
v 0.162105 0.722607 -0.023546
v 0.002611 0.825150 -0.037920
v 0.041574 0.870868 0.031523
v -0.044077 0.871154 0.028507
v -0.064441 0.877582 -0.057227
v 0.005525 0.883423 -0.110575
v 0.072610 0.879543 -0.058902
v -0.005883 0.958947 0.054587
v -0.074708 0.961626 -0.001451
v -0.039501 0.966683 -0.089597
v 0.045212 0.970103 -0.091199
v 0.069406 0.965686 -0.001892
v -0.002801 1.021727 -0.022719
v -0.025786 0.830099 0.001579
v 0.024956 0.835528 -0.000035
v -0.002803 0.863213 0.039620
v 0.064476 0.869583 -0.012020
v 0.043229 0.839888 -0.051233
v -0.037517 0.836708 -0.051201
v -0.067700 0.863126 -0.010580
v 0.005022 0.838722 -0.084420
v -0.035096 0.873072 -0.093841
v 0.044651 0.875263 -0.094140
v 0.063025 0.917734 0.021162
v 0.084427 0.922346 -0.030865
v -0.030022 0.912654 0.053729
v 0.020984 0.913906 0.055698
v -0.083106 0.917691 -0.030310
v -0.071286 0.913864 0.023391
v -0.020504 0.925955 -0.114894
v -0.062657 0.922253 -0.082031
v 0.068959 0.925936 -0.082800
v 0.030815 0.927540 -0.117129
v 0.035403 0.967339 0.033224
v -0.044704 0.964791 0.033045
v -0.068126 0.973271 -0.050202
v 0.002850 0.977739 -0.101967
v 0.066878 0.976183 -0.050347
v -0.004829 0.998159 0.021183
v 0.036419 1.000853 -0.010573
v -0.043094 0.999861 -0.010003
v -0.025325 1.005721 -0.061587
v 0.024191 1.004341 -0.060761
v -0.009460 0.825131 0.020966
v 0.046011 0.886967 -0.074888
v 0.102054 0.885655 0.034926
v 0.012536 0.892843 0.122978
v -0.109446 0.896973 0.072545
v -0.083996 0.896012 -0.055129
v 0.102768 0.999791 -0.030474
v 0.088335 1.006776 0.097809
v -0.044160 1.010497 0.109924
v -0.100220 1.013188 0.004182
v -0.013324 1.010751 -0.090661
v 0.010040 1.082526 0.017768
v 0.058922 0.828557 0.030296
v 0.021559 0.835115 -0.035818
v 0.094743 0.868901 -0.029790
v -0.021321 0.882202 -0.078444
v -0.053260 0.844568 -0.021890
v 0.001807 0.832888 0.085992
v 0.070388 0.875688 0.091892
v -0.063518 0.848907 0.048471
v -0.050700 0.889412 0.106496
v -0.104214 0.892176 0.006396
v 0.020388 0.946938 -0.102765
v -0.057723 0.953030 -0.088696
v 0.118218 0.940803 0.000029
v 0.092047 0.941919 -0.069699
v 0.058659 0.946921 0.129278
v 0.113467 0.942074 0.073408
v -0.089715 0.957876 0.106271
v -0.019685 0.952957 0.137379
v -0.114292 0.957983 -0.034971
v -0.122320 0.959516 0.039473
v 0.056626 1.017670 -0.077845
v 0.111849 1.012060 0.033387
v 0.022212 1.020629 0.121360
v -0.094545 1.030930 0.068517
v -0.074174 1.028309 -0.056961
v 0.067580 1.057557 -0.011500
v -0.001647 1.056753 -0.041274
v 0.055216 1.059305 0.062236
v -0.022652 1.070712 0.077448
v -0.054672 1.062684 0.009318
v 0.019505 0.493852 0.200698
v -0.038117 0.563942 0.095001
v 0.108326 0.559763 0.151923
v 0.119965 0.568828 0.271349
v 0.004163 0.563934 0.294931
v -0.088587 0.569386 0.182121
v 0.035359 0.674373 0.107935
v 0.145565 0.678528 0.220675
v 0.075392 0.673430 0.300076
v -0.061693 0.675714 0.244467
v -0.097099 0.679943 0.116422
v 0.020470 0.739707 0.199338
v 0.063544 0.524011 0.176523
v -0.016806 0.506569 0.134490
v 0.034397 0.553725 0.111554
v -0.075963 0.559551 0.132419
v -0.043869 0.523630 0.189896
v 0.074309 0.529629 0.239283
v 0.117591 0.562884 0.216704
v 0.009859 0.506548 0.259371
v 0.073548 0.556352 0.298207
v -0.061140 0.553261 0.244578
v -0.068641 0.619811 0.103004
v -0.119400 0.620218 0.140445
v 0.078299 0.619317 0.117829
v -0.006260 0.619426 0.077574
v 0.148403 0.619799 0.254857
v 0.145400 0.619420 0.184195
v 0.044489 0.620536 0.314167
v 0.106459 0.620184 0.294607
v -0.105151 0.620579 0.215773
v -0.032899 0.620620 0.274560
v -0.038168 0.689139 0.093321
v 0.096963 0.683304 0.157717
v 0.117749 0.681574 0.268839
v 0.006115 0.683915 0.285296
v -0.085033 0.681471 0.182023
v 0.028174 0.711445 0.152145
v -0.034656 0.710949 0.160466
v 0.080784 0.711716 0.209616
v 0.056397 0.732170 0.264782
v -0.024763 0.718678 0.224135
vn 0.1564 -0.0000 -0.9877
vn 0.4540 -0.0000 -0.8910
vn 0.7071 -0.0000 -0.7071
vn 0.8910 -0.0000 -0.4540
vn 0.9877 -0.0000 -0.1564
vn 0.9877 -0.0000 0.1564
vn 0.8910 -0.0000 0.4540
vn 0.7071 -0.0000 0.7071
vn 0.4540 -0.0000 0.8910
vn 0.1564 -0.0000 0.9877
vn -0.1564 -0.0000 0.9877
vn -0.4540 -0.0000 0.8910
vn -0.7071 -0.0000 0.7071
vn -0.8910 -0.0000 0.4540
vn -0.9877 -0.0000 0.1564
vn -0.9877 -0.0000 -0.1564
vn -0.8910 -0.0000 -0.4540
vn -0.7071 -0.0000 -0.7071
vn -0.0000 1.0000 -0.0000
vn -0.4540 -0.0000 -0.8910
vn -0.1564 -0.0000 -0.9877
vn -0.0000 -1.0000 -0.0000
vn 0.6951 -0.6190 -0.3655
vn 0.9962 0.0870 0.0043
vn 0.7716 -0.6354 -0.0312
vn 0.4811 -0.6058 -0.6337
vn 0.8975 0.1082 -0.4274
vn 0.1717 -0.5985 -0.7825
vn 0.6211 0.1252 -0.7737
vn -0.1717 -0.5985 -0.7825
vn 0.2217 0.1346 -0.9658
vn -0.4811 -0.6058 -0.6337
vn -0.2217 0.1346 -0.9658
vn -0.6951 -0.6190 -0.3655
vn -0.6211 0.1252 -0.7737
vn -0.9962 0.0870 0.0043
vn -0.8975 0.1082 -0.4274
vn -0.7715 -0.6354 -0.0312
vn -0.8975 0.0659 0.4360
vn -0.4810 -0.6650 0.5713
vn -0.6952 -0.6518 0.3032
vn -0.1717 -0.6722 0.7201
vn -0.6211 0.0489 0.7822
vn 0.1717 -0.6723 0.7201
vn -0.2217 0.0394 0.9743
vn 0.6211 0.0489 0.7822
vn 0.2217 0.0394 0.9743
vn 0.6951 -0.6518 0.3032
vn 0.4811 -0.6649 0.5713
vn 0.8975 0.0659 0.4360
vn 0.9962 0.0866 0.0042
vn 0.8976 0.1078 -0.4275
vn 0.6211 0.1248 -0.7737
vn 0.2217 0.1342 -0.9658
vn -0.6211 0.1248 -0.7737
vn -0.2217 0.1342 -0.9658
vn -0.8976 0.1078 -0.4275
vn -0.9962 0.0866 0.0042
vn -0.8976 0.0654 0.4360
vn -0.6211 0.0485 0.7822
vn -0.2217 0.0390 0.9743
vn 0.2217 0.0390 0.9743
vn 0.6211 0.0485 0.7822
vn 0.8976 0.0654 0.4360
vn 0.9308 0.3651 0.0179
vn 0.5803 0.4008 -0.7089
vn 0.8386 0.3849 -0.3855
vn 0.2071 0.4096 -0.8884
vn -0.2071 0.4096 -0.8884
vn -0.5803 0.4008 -0.7089
vn -0.8386 0.3849 -0.3855
vn -0.8386 0.3453 0.4213
vn -0.9308 0.3651 0.0179
vn -0.5803 0.3295 0.7448
vn -0.2071 0.3207 0.9243
vn 0.2071 0.3207 0.9243
vn 0.8386 0.3453 0.4213
vn 0.5803 0.3295 0.7448
vn 0.4142 0.8968 -0.1557
vn 0.4597 0.8870 0.0435
vn 0.2866 0.9046 -0.3155
vn 0.1023 0.9090 -0.4042
vn -0.1023 0.9090 -0.4041
vn -0.4142 0.8968 -0.1557
vn -0.2866 0.9046 -0.3155
vn -0.4597 0.8870 0.0435
vn -0.2866 0.8694 0.4025
vn -0.4142 0.8772 0.2427
vn -0.1023 0.8650 0.4912
vn 0.1023 0.8650 0.4912
vn 0.2866 0.8694 0.4025
vn 0.4142 0.8772 0.2428
vn 0.2225 0.0478 -0.9738
vn 0.6235 0.0383 -0.7809
vn 0.9010 0.0213 -0.4334
vn 1.0000 -0.0000 -0.0000
vn 0.9010 -0.0213 0.4334
vn 0.6235 -0.0383 0.7809
vn 0.2225 -0.0478 0.9738
vn -0.2225 -0.0478 0.9738
vn -0.6235 -0.0383 0.7809
vn -0.9010 -0.0213 0.4334
vn -1.0000 -0.0000 -0.0000
vn -0.9010 0.0213 -0.4334
vn -0.0000 0.9988 0.0490
vn -0.6235 0.0383 -0.7809
vn -0.2225 0.0478 -0.9738
vn -0.0000 -0.9988 -0.0490
vn 0.0520 -0.9981 0.0322
vn -0.6715 -0.7248 0.1542
vn -0.2644 -0.7727 -0.5770
vn -0.9310 -0.2962 0.2132
vn -0.6535 -0.3280 0.6822
vn 0.5425 -0.6931 -0.4746
vn 0.6334 -0.7282 0.2618
vn -0.1116 -0.7317 0.6725
vn -0.8506 0.0146 0.5257
vn -0.3832 -0.3318 -0.8620
vn -0.8584 -0.4009 -0.3200
vn -0.6906 -0.0036 -0.7232
vn 0.6968 -0.2228 -0.6818
vn 0.2907 -0.3246 -0.9000
vn 0.5224 -0.0123 -0.8526
vn 0.8941 -0.3003 0.3322
vn 0.9161 -0.3346 -0.2207
vn 0.9995 0.0031 0.0298
vn -0.2612 -0.2532 0.9315
vn 0.3877 -0.4069 0.8271
vn 0.0317 0.0231 0.9992
vn -0.9977 -0.0033 -0.0680
vn 0.0126 -0.0140 -0.9998
vn 0.8525 -0.0112 -0.5226
vn 0.7419 0.0272 0.6699
vn -0.5062 0.0268 0.8620
vn -0.8910 0.3131 -0.3289
vn -0.9133 0.3514 0.2058
vn -0.6421 0.7122 -0.2836
vn 0.2853 0.2387 -0.9282
vn -0.4246 0.3986 -0.8129
vn 0.1809 0.7204 -0.6696
vn 0.9248 0.3118 -0.2178
vn 0.6732 0.3191 -0.6670
vn 0.7134 0.6806 -0.1669
vn 0.3677 0.3606 0.8572
vn 0.8320 0.4147 0.3685
vn 0.3269 0.7331 0.5964
vn -0.6638 0.2439 0.7070
vn -0.2659 0.3384 0.9026
vn -0.5206 0.6811 0.5148
vn 0.0454 0.9984 -0.0349
vn 0.2228 -0.9614 0.1614
vn -0.3896 -0.7513 0.5326
vn -0.2917 -0.9058 -0.3073
vn -0.6903 -0.3569 0.6294
vn -0.2766 -0.3411 0.8984
vn 0.4540 -0.6826 -0.5727
vn 0.7773 -0.6215 0.0974
vn 0.2559 -0.6261 0.7365
vn -0.6049 -0.0516 0.7946
vn -0.6081 -0.4552 -0.6505
vn -0.8212 -0.5681 0.0531
vn -0.9087 -0.2044 -0.3639
vn 0.4319 -0.2588 -0.8640
vn -0.0714 -0.4453 -0.8925
vn 0.1206 -0.0730 -0.9900
vn 0.9918 -0.1191 0.0464
vn 0.7975 -0.2546 -0.5470
vn 0.9239 0.1963 -0.3286
vn 0.1787 -0.1564 0.9714
vn 0.6778 -0.2174 0.7024
vn 0.4343 0.1594 0.8865
vn -0.9174 -0.1432 0.3712
vn -0.4573 -0.1751 -0.8719
vn 0.6228 0.0548 -0.7805
vn 0.8985 0.2637 0.3509
vn -0.1506 0.0377 0.9879
vn -0.9972 0.0744 0.0041
vn -0.8107 0.1873 0.5546
vn -0.8134 0.5782 -0.0640
vn -0.2379 0.1533 -0.9591
vn -0.7622 0.1514 -0.6293
vn -0.2375 0.6277 -0.7413
vn 0.7315 0.4058 -0.5480
vn 0.3097 0.3463 -0.8855
vn 0.4531 0.7486 -0.4840
vn 0.6641 0.4790 0.5740
vn 0.8406 0.5417 -0.0007
vn 0.3622 0.8712 0.3314
vn -0.4498 0.2144 0.8670
vn 0.0887 0.4351 0.8960
vn -0.4360 0.6466 0.6259
vn -0.1723 0.9796 -0.1033
vn 0.0573 -0.9955 -0.0755
vn 0.3801 -0.8481 0.3692
vn -0.2944 -0.8806 0.3713
vn 0.5604 -0.4710 0.6813
vn 0.8366 -0.4859 0.2531
vn -0.5261 -0.8008 -0.2863
vn 0.0319 -0.7842 -0.6196
vn 0.5763 -0.7962 -0.1843
vn 0.8052 -0.0307 0.5922
vn -0.5291 -0.4813 0.6989
vn -0.0161 -0.5640 0.8256
vn -0.3466 -0.1054 0.9321
vn -0.8414 -0.3876 -0.3766
vn -0.8364 -0.5234 0.1629
vn -0.9945 -0.0507 -0.0915
vn 0.0023 -0.3574 -0.9340
vn -0.5237 -0.4266 -0.7374
vn -0.3412 0.0500 -0.9387
vn 0.8815 -0.3912 -0.2645
vn 0.5496 -0.4333 -0.7143
vn 0.8393 0.0533 -0.5411
vn 0.3201 -0.0693 0.9448
vn -0.8235 -0.0734 0.5625
vn -0.7969 -0.0005 -0.6041
vn 0.3343 0.0590 -0.9406
vn 0.9988 -0.0026 0.0494
vn -0.0319 0.3819 0.9236
vn 0.5085 0.4662 0.7239
vn -0.0210 0.7832 0.6215
vn -0.8747 0.3936 0.2827
vn -0.5436 0.4538 0.7061
vn -0.5676 0.7888 0.2357
vn -0.5514 0.4327 -0.7133
vn -0.8257 0.4852 -0.2878
vn -0.3517 0.8361 -0.4209
vn 0.5523 0.5140 -0.6563
vn -0.0234 0.5842 -0.8113
vn 0.3409 0.8646 -0.3692
vn 0.8276 0.4270 0.3643
vn 0.8064 0.5573 -0.1978
vn 0.5234 0.8101 0.2639
vn -0.0029 0.9963 0.0853
vn -0.1619 -0.9865 -0.0242
vn 0.1028 -0.8650 -0.4912
vn 0.4578 -0.8838 0.0966
vn 0.3040 -0.4801 -0.8228
vn -0.1784 -0.5231 -0.8334
vn -0.0452 -0.8285 0.5581
vn -0.5440 -0.8081 0.2261
vn -0.4621 -0.8209 -0.3355
vn 0.1230 -0.0713 -0.9898
vn 0.8801 -0.4454 0.1646
vn 0.7406 -0.5557 -0.3778
vn 0.9885 -0.0698 -0.1345
vn 0.0599 -0.4064 0.9117
vn 0.5805 -0.5249 0.6225
vn 0.4175 -0.0643 0.9064
vn -0.8103 -0.4239 0.4046
vn -0.3891 -0.4686 0.7931
vn -0.6515 0.0585 0.7564
vn -0.6651 -0.4372 -0.6054
vn -0.8634 -0.4844 -0.1411
vn -0.9111 0.0427 -0.4100
vn 0.7175 -0.0618 -0.6938
vn 0.9082 -0.1087 0.4042
vn -0.1774 0.0030 0.9841
vn -0.9905 0.0781 0.1132
vn -0.4442 -0.0215 -0.8957
vn 0.8598 0.3423 -0.3790
vn 0.4157 0.5042 -0.7570
vn 0.5275 0.8078 -0.2631
vn 0.6680 0.4012 0.6267
vn 0.8989 0.4313 0.0777
vn 0.4525 0.8186 0.3537
vn -0.3439 0.4162 0.8417
vn 0.1213 0.4903 0.8631
vn -0.1823 0.8565 0.4830
vn -0.8551 0.5005 -0.1354
vn -0.7353 0.5682 0.3694
vn -0.4719 0.8699 -0.1433
vn -0.1102 0.4505 -0.8860
vn -0.5737 0.5887 -0.5694
vn -0.0344 0.8545 -0.5183
vn 0.0573 0.9949 -0.0831
vn 0.3779 -0.8486 -0.3702
vn -0.5223 -0.6066 -0.5994
vn 0.5569 -0.8303 -0.0212
vn 0.3956 -0.8820 0.2559
vn -0.4389 -0.8904 0.1205
vn -0.6630 -0.2618 -0.7013
vn 0.4802 -0.2407 -0.8435
vn 0.8752 -0.4836 0.0146
vn -0.0751 -0.2725 0.9592
vn -0.8554 -0.4479 0.2603
vn -0.3769 -0.0736 -0.9233
vn 0.7023 -0.0524 -0.7100
vn 0.6797 -0.1467 0.7187
vn -0.4555 0.0220 0.8900
vn -0.8986 -0.4038 0.1719
vn 0.2702 0.7589 -0.5925
vn 0.4750 0.8258 -0.3040
vn 0.4175 0.5634 0.7130
vn -0.4426 0.6651 0.6015
vn -0.4819 0.8736 0.0683
vn -0.4395 0.8973 -0.0407
vn -0.5127 0.8582 -0.0245
vn -0.6457 0.6997 0.3058
vn -0.2847 0.9220 0.2625
vn -0.4139 0.6858 0.5987
vn -0.1116 0.4850 0.8673
vn 0.4361 0.8894 -0.1370
vn 0.6364 0.7713 -0.0047
vn 0.4223 0.8868 0.1878
vn 0.4407 0.8000 -0.4072
vn 0.3788 0.8564 -0.3508
vn 0.3507 0.7449 -0.5676
vn -0.0758 0.8500 -0.5214
vn -0.0481 0.9507 -0.3063
vn -0.2563 0.9232 -0.2864
vn -0.9029 0.4002 0.1567
vn -0.9041 0.3924 0.1691
vn -0.8158 0.4622 0.3476
vn -0.5233 0.1813 0.8326
vn -0.4517 0.1287 0.8828
vn -0.1480 0.3344 0.9307
vn 0.5468 0.2366 0.8031
vn 0.6781 0.1749 0.7138
vn 0.8320 0.3085 0.4610
vn 0.7562 0.3421 -0.5578
vn 0.6839 0.2318 -0.6918
vn 0.5705 0.3081 -0.7613
vn 0.2460 0.3193 -0.9152
vn -0.3771 0.0365 -0.9255
vn -0.3692 0.0325 -0.9288
vn -0.6284 0.0934 0.7723
vn -0.6290 -0.0804 0.7732
vn -0.5966 -0.1041 0.7958
vn 0.3005 0.0777 0.9506
vn 0.2989 -0.1006 0.9490
vn 0.5329 -0.2288 0.8147
vn 0.9988 0.0235 -0.0426
vn 0.8886 -0.4574 -0.0353
vn 0.8686 -0.4852 -0.1008
vn 0.4237 0.1706 -0.8896
vn 0.4212 -0.1972 -0.8853
vn 0.1555 -0.3762 -0.9134
vn -0.5911 -0.1012 -0.8002
vn -0.5670 -0.3047 -0.7653
vn -0.8153 -0.5713 -0.0940
vn -0.7199 -0.6796 0.1409
vn -0.5680 -0.7854 0.2462
vn -0.4777 -0.4965 0.7248
vn -0.0978 -0.5312 0.8416
vn 0.4146 -0.8267 0.3803
vn 0.4372 -0.8169 0.3761
vn 0.6269 -0.7770 0.0573
vn 0.5987 -0.8003 -0.0311
vn 0.6068 -0.7934 -0.0485
vn -0.7110 -0.7020 -0.0417
vn -0.6623 -0.7432 -0.0946
vn -0.4334 -0.8988 0.0651
vn 0.3448 -0.7855 -0.5139
vn 0.4348 -0.7291 -0.5285
vn 0.1161 -0.5335 -0.8378
vt 0.636419 0.853411
vt 0.609218 0.887269
vt 0.611384 0.853706
vt 0.922525 0.935042
vt 0.948630 0.896056
vt 0.947620 0.935071
vt 0.923534 0.896026
vt 0.949160 0.850774
vt 0.924065 0.850744
vt 0.949160 0.803658
vt 0.924065 0.803628
vt 0.948630 0.759320
vt 0.923534 0.759291
vt 0.947620 0.722102
vt 0.969341 0.422443
vt 0.943285 0.456124
vt 0.944244 0.422574
vt 0.968382 0.455994
vt 0.942782 0.498265
vt 0.967879 0.498135
vt 0.942782 0.544872
vt 0.967879 0.544741
vt 0.943285 0.591382
vt 0.968382 0.591252
vt 0.944244 0.633243
vt 0.952355 0.934789
vt 0.977829 0.895114
vt 0.977465 0.934808
vt 0.952719 0.895094
vt 0.978021 0.849505
vt 0.952911 0.849485
vt 0.978021 0.802445
vt 0.952911 0.802426
vt 0.977829 0.758541
vt 0.952719 0.758522
vt 0.977465 0.722091
vt 0.634253 0.676302
vt 0.611384 0.718446
vt 0.609218 0.676597
vt 0.636419 0.718151
vt 0.612523 0.764950
vt 0.081661 0.016157
vt 0.283433 0.218843
vt 0.126299 0.299230
vt 0.637558 0.764656
vt 0.612523 0.811557
vt 0.637558 0.811263
vt 0.555291 0.043924
vt 0.425790 0.299228
vt 0.301132 0.173934
vt 0.094202 0.715131
vt 0.138857 0.559188
vt 0.143603 0.714985
vt 0.043520 0.714985
vt 0.093751 0.559321
vt 0.001597 0.714577
vt 0.047477 0.559188
vt 0.607265 0.669356
vt 0.642259 0.519217
vt 0.648935 0.673108
vt 0.556659 0.668017
vt 0.604213 0.515791
vt 0.507140 0.669356
vt 0.558007 0.514569
vt 0.477528 0.519217
vt 0.512794 0.515791
vt 0.443556 0.714114
vt 0.386464 0.561249
vt 0.431171 0.558613
vt 0.343760 0.719110
vt 0.394591 0.717001
vt 0.301132 0.720025
vt 0.340053 0.563175
vt 0.746254 0.718877
vt 0.788191 0.561247
vt 0.795014 0.717064
vt 0.697110 0.562902
vt 0.743670 0.562902
vt 0.652129 0.717064
vt 0.695259 0.718877
vt 0.173861 0.558815
vt 0.181941 0.714577
vt 0.131667 0.423422
vt 0.093005 0.423536
vt 0.009199 0.558815
vt 0.053341 0.423422
vt 0.631697 0.385643
vt 0.559482 0.381660
vt 0.599087 0.382707
vt 0.520727 0.382708
vt 0.446461 0.420700
vt 0.465320 0.555790
vt 0.417191 0.423120
vt 0.378871 0.425379
vt 0.301132 0.564010
vt 0.339090 0.427030
vt 0.778963 0.425134
vt 0.740803 0.426552
vt 0.657730 0.561247
vt 0.700894 0.426552
vt 0.161671 0.423102
vt 0.129296 0.343012
vt 0.055321 0.343012
vt 0.092782 0.343120
vt 0.024335 0.342710
vt 0.628374 0.306204
vt 0.597575 0.303431
vt 0.560170 0.302441
vt 0.490499 0.385643
vt 0.523569 0.303431
vt 0.374689 0.344997
vt 0.410881 0.342863
vt 0.337119 0.346556
vt 0.305729 0.427746
vt 0.775525 0.344722
vt 0.739485 0.346062
vt 0.669914 0.344722
vt 0.701793 0.346062
vt 0.157632 0.342710
vt 0.090844 0.302496
vt 0.112323 0.302433
vt 0.598082 0.794518
vt 0.568816 0.753390
vt 0.606023 0.757589
vt 0.574827 0.824469
vt 0.564144 0.775113
vt 0.540865 0.841509
vt 0.550465 0.792731
vt 0.508168 0.803198
vt 0.530487 0.802754
vt 0.468515 0.826581
vt 0.502923 0.842262
vt 0.391226 0.302441
vt 0.347836 0.304614
vt 0.369937 0.303697
vt 0.305611 0.347232
vt 0.756837 0.302442
vt 0.735637 0.303230
vt 0.713465 0.303230
vt 0.538612 0.676302
vt 0.549402 0.714799
vt 0.529162 0.705574
vt 0.824132 0.092212
vt 0.712347 0.231895
vt 0.600562 0.090034
vt 0.487928 0.793973
vt 0.486865 0.716041
vt 0.980057 0.054481
vt 0.954569 0.085809
vt 0.954947 0.054535
vt 0.979679 0.085754
vt 0.954435 0.129172
vt 0.979544 0.129118
vt 0.954569 0.176037
vt 0.979679 0.175983
vt 0.954947 0.217121
vt 0.952672 0.239947
vt 0.975322 0.272398
vt 0.950294 0.272656
vt 0.949445 0.316731
vt 0.974473 0.316473
vt 0.950294 0.363443
vt 0.975322 0.363185
vt 0.952672 0.403540
vt 0.997629 0.553619
vt 0.973309 0.509764
vt 0.998403 0.509840
vt 0.998403 0.463051
vt 0.972535 0.422443
vt 0.997629 0.422520
vt 0.566666 0.976826
vt 0.589222 0.935691
vt 0.591605 0.976966
vt 0.104291 0.927672
vt 0.001597 0.800346
vt 0.149994 0.728407
vt 0.564282 0.935551
vt 0.589222 0.888806
vt 0.564282 0.888666
vt 0.591605 0.845597
vt 0.753879 0.932994
vt 0.652129 0.804262
vt 0.799162 0.732428
vt 0.248194 0.684722
vt 0.260282 0.699831
vt 0.239610 0.704685
vt 0.919721 0.493241
vt 0.913731 0.520371
vt 0.896957 0.499800
vt 0.231718 0.681200
vt 0.247350 0.662928
vt 0.264840 0.673674
vt 0.908770 0.464320
vt 0.545389 0.930511
vt 0.528483 0.934572
vt 0.534530 0.900068
vt 0.819208 0.491170
vt 0.799473 0.492060
vt 0.814302 0.460624
vt 0.857227 0.500912
vt 0.838975 0.502361
vt 0.859926 0.472495
vt 0.503008 0.931869
vt 0.484387 0.939254
vt 0.493409 0.903831
vt 0.933160 0.463962
vt 0.554536 0.900158
vt 0.837522 0.466857
vt 0.874057 0.475638
vt 0.513105 0.903098
vt 0.934685 0.435878
vt 0.918374 0.429633
vt 0.922094 0.409134
vt 0.561088 0.870975
vt 0.543982 0.864320
vt 0.552245 0.845457
vt 0.856268 0.440537
vt 0.835007 0.431093
vt 0.855350 0.416135
vt 0.482924 0.874948
vt 0.468515 0.870756
vt 0.485672 0.848417
vt 0.896491 0.436487
vt 0.878264 0.431352
vt 0.898710 0.406734
vt 0.662121 0.258012
vt 0.670148 0.235089
vt 0.679338 0.253724
vt 0.506192 0.845457
vt 0.501045 0.870415
vt 0.690060 0.239853
vt 0.868913 0.416980
vt 0.871032 0.440663
vt 0.695929 0.264650
vt 0.831967 0.406734
vt 0.813830 0.429559
vt 0.678629 0.276090
vt 0.695929 0.289450
vt 0.527004 0.873048
vt 0.532044 0.847043
vt 0.883608 0.464462
vt 0.472300 0.904235
vt 0.468515 0.932574
vt 0.798209 0.455913
vt 0.561088 0.935133
vt 0.516299 0.901136
vt 0.934685 0.497488
vt 0.877251 0.492832
vt 0.499349 0.959500
vt 0.264840 0.649901
vt 0.478812 0.957680
vt 0.838309 0.522160
vt 0.815292 0.518452
vt 0.798209 0.514294
vt 0.544551 0.957949
vt 0.887989 0.520407
vt 0.526637 0.958552
vt 0.198464 0.666890
vt 0.217778 0.671628
vt 0.205918 0.689082
vt 0.902108 0.612401
vt 0.893844 0.633243
vt 0.880744 0.611154
vt 0.185136 0.676737
vt 0.185136 0.653101
vt 0.204976 0.649901
vt 0.899827 0.581936
vt 0.914886 0.189897
vt 0.899850 0.195672
vt 0.903787 0.161286
vt 0.951240 0.187959
vt 0.934377 0.195817
vt 0.946356 0.160299
vt 0.919331 0.803540
vt 0.900540 0.813850
vt 0.901701 0.776686
vt 0.926066 0.375063
vt 0.907013 0.381943
vt 0.913752 0.346701
vt 0.921773 0.589410
vt 0.924191 0.161470
vt 0.879145 0.815320
vt 0.858823 0.791634
vt 0.879121 0.783786
vt 0.919331 0.772390
vt 0.937435 0.347178
vt 0.937722 0.563916
vt 0.920668 0.553372
vt 0.938896 0.532068
vt 0.934488 0.130502
vt 0.914975 0.126900
vt 0.930802 0.102429
vt 0.882046 0.752078
vt 0.860735 0.753311
vt 0.874122 0.729783
vt 0.906681 0.319832
vt 0.897084 0.316523
vt 0.913998 0.290960
vt 0.946250 0.319298
vt 0.925681 0.311641
vt 0.938674 0.292945
vt 0.711301 0.236934
vt 0.735977 0.235089
vt 0.719397 0.252056
vt 0.739109 0.256147
vt 0.891913 0.722072
vt 0.898380 0.744447
vt 0.717095 0.270986
vt 0.739109 0.275095
vt 0.950491 0.123271
vt 0.699123 0.258968
vt 0.909413 0.101442
vt 0.899850 0.131844
vt 0.914908 0.525354
vt 0.899676 0.550518
vt 0.911498 0.746917
vt 0.895823 0.347898
vt 0.892951 0.379294
vt 0.939587 0.593602
vt 0.918811 0.624580
vt 0.880744 0.573610
vt 0.946250 0.383235
vt 0.926913 0.402622
vt 0.908838 0.403539
vt 0.916351 0.830486
vt 0.894255 0.839201
vt 0.868750 0.826794
vt 0.941156 0.213527
vt 0.919473 0.217121
vt 0.227119 0.654848
vt 0.228524 0.695274
vt 0.639814 0.276944
vt 0.618548 0.269671
vt 0.637466 0.252513
vt 0.600562 0.262161
vt 0.606176 0.286203
vt 0.658927 0.268408
vt 0.653591 0.294914
vt 0.628203 0.294914
vt 0.845690 0.283253
vt 0.829113 0.276749
vt 0.843343 0.256963
vt 0.883445 0.297503
vt 0.865172 0.294987
vt 0.888419 0.277592
vt 0.343444 0.931190
vt 0.322816 0.928813
vt 0.346528 0.910301
vt 0.442781 0.887782
vt 0.425135 0.900928
vt 0.425244 0.871503
vt 0.859441 0.680924
vt 0.850095 0.701246
vt 0.833705 0.679292
vt 0.866223 0.268454
vt 0.304348 0.914626
vt 0.301132 0.889446
vt 0.322294 0.899952
vt 0.403698 0.908584
vt 0.381525 0.896970
vt 0.401552 0.884226
vt 0.445080 0.862952
vt 0.848324 0.657020
vt 0.886353 0.251935
vt 0.866511 0.239410
vt 0.888419 0.231004
vt 0.343733 0.884011
vt 0.324487 0.872115
vt 0.348882 0.864805
vt 0.403229 0.859414
vt 0.380935 0.866428
vt 0.393533 0.843657
vt 0.923558 0.641577
vt 0.935326 0.659667
vt 0.911202 0.655954
vt 0.877564 0.645172
vt 0.900421 0.638049
vt 0.885624 0.658641
vt 0.896960 0.674757
vt 0.818411 0.654636
vt 0.809509 0.676301
vt 0.798209 0.660253
vt 0.919725 0.679215
vt 0.420281 0.846341
vt 0.898551 0.696374
vt 0.922809 0.702001
vt 0.363781 0.887649
vt 0.877564 0.683526
vt 0.879978 0.705025
vt 0.306185 0.865709
vt 0.327946 0.854718
vt 0.866074 0.220381
vt 0.846114 0.231805
vt 0.833560 0.638049
vt 0.820619 0.699853
vt 0.798209 0.687117
vt 0.837805 0.713463
vt 0.827327 0.247341
vt 0.858446 0.642426
vt 0.872589 0.666967
vt 0.874369 0.693816
vt 0.862722 0.714642
vt 0.445080 0.912167
vt 0.420804 0.924228
vt 0.393548 0.922587
vt 0.656062 0.242326
vt 0.301132 0.935984
vt 0.615032 0.244715
vt 0.634009 0.235089
vt 0.839704 0.358544
vt 0.807920 0.354522
vt 0.831203 0.324902
vt 0.914969 0.069988
vt 0.895734 0.098247
vt 0.888674 0.072834
vt 0.868011 0.340878
vt 0.863660 0.377873
vt 0.828940 0.386441
vt 0.910182 0.038781
vt 0.270308 0.600369
vt 0.248288 0.622909
vt 0.247060 0.582332
vt 0.271452 0.804796
vt 0.245066 0.825546
vt 0.241477 0.788678
vt 0.227873 0.899452
vt 0.210180 0.875424
vt 0.244838 0.867316
vt 0.855770 0.067831
vt 0.829862 0.073308
vt 0.835097 0.038297
vt 0.216066 0.630175
vt 0.185136 0.612841
vt 0.214612 0.600148
vt 0.273528 0.565898
vt 0.275523 0.770136
vt 0.263909 0.899296
vt 0.873952 0.037277
vt 0.217605 0.564948
vt 0.185136 0.572533
vt 0.202883 0.539125
vt 0.209761 0.426614
vt 0.244001 0.428758
vt 0.218317 0.446716
vt 0.270406 0.740212
vt 0.241264 0.748023
vt 0.244014 0.718326
vt 0.213736 0.531581
vt 0.185136 0.515116
vt 0.219885 0.507570
vt 0.275075 0.511286
vt 0.246822 0.531473
vt 0.254059 0.493896
vt 0.228978 0.475412
vt 0.195136 0.478713
vt 0.285517 0.864520
vt 0.261587 0.842744
vt 0.292351 0.835246
vt 0.185136 0.451438
vt 0.211761 0.768512
vt 0.210180 0.739590
vt 0.254651 0.456158
vt 0.240792 0.544376
vt 0.283473 0.476406
vt 0.855058 0.001597
vt 0.890369 0.007921
vt 0.827327 0.012743
vt 0.292351 0.894340
vt 0.261362 0.534775
vt 0.914969 0.004481
vt 0.278371 0.925840
vt 0.239451 0.924314
vt 0.227560 0.841178
vt 0.297118 0.794765
vt 0.210180 0.804376
vt 0.220673 0.829944
vt 0.860757 0.095025
vt 0.853635 0.403540
vt 0.885469 0.393414
vt 0.889756 0.359921
vt 0.282587 0.832052
vt 0.859479 0.306729
vt 0.827487 0.302442
vt 0.798209 0.381205
vt 0.273137 0.630905
vt 0.798209 0.318452
vt 0.238269 0.646706
vt 0.422694 0.785092
vt 0.399195 0.813895
vt 0.404497 0.768206
vt 0.882372 0.908207
vt 0.863451 0.932244
vt 0.858823 0.896011
vt 0.431892 0.751467
vt 0.452274 0.778439
vt 0.430674 0.815852
vt 0.885344 0.876307
vt 0.894967 0.156866
vt 0.896655 0.192573
vt 0.864579 0.178706
vt 0.890348 0.101442
vt 0.893420 0.126100
vt 0.865364 0.101442
vt 0.851051 0.613946
vt 0.820388 0.602218
vt 0.850047 0.581728
vt 0.268735 0.356008
vt 0.259579 0.389785
vt 0.241378 0.352897
vt 0.912554 0.894823
vt 0.865671 0.133258
vt 0.800236 0.584022
vt 0.798209 0.553729
vt 0.821234 0.566406
vt 0.236295 0.420820
vt 0.202301 0.423420
vt 0.220173 0.391241
vt 0.258765 0.321075
vt 0.371072 0.811151
vt 0.348275 0.840263
vt 0.353748 0.795216
vt 0.375105 0.732223
vt 0.377740 0.771687
vt 0.354457 0.756247
vt 0.847754 0.550255
vt 0.827707 0.534479
vt 0.865126 0.525354
vt 0.205697 0.360152
vt 0.185136 0.388695
vt 0.186246 0.350172
vt 0.318389 0.851524
vt 0.301132 0.822859
vt 0.327325 0.812902
vt 0.309904 0.785391
vt 0.335220 0.778745
vt 0.218901 0.329778
vt 0.326980 0.742670
vt 0.301132 0.753865
vt 0.877549 0.559646
vt 0.348630 0.723219
vt 0.234535 0.302433
vt 0.808905 0.525354
vt 0.832732 0.156175
vt 0.835920 0.116742
vt 0.836135 0.193058
vt 0.862974 0.216892
vt 0.827327 0.217187
vt 0.916792 0.855743
vt 0.888733 0.842396
vt 0.899218 0.927742
vt 0.858823 0.858988
vt 0.281648 0.342168
vt 0.281648 0.379830
vt 0.460507 0.813041
vt 0.268149 0.422301
vt 0.830296 0.634855
vt 0.460507 0.740250
vt 0.439901 0.723219
vt 0.414704 0.734557
vt 0.386193 0.750903
vt 0.411395 0.840462
vt 0.437242 0.836927
vt 0.380935 0.792987
vt 0.634253 0.886974
vt 0.922525 0.722072
vt 0.969341 0.633113
vt 0.952355 0.722072
vt 0.081661 0.284656
vt 0.043689 0.256941
vt 0.016101 0.218799
vt 0.001597 0.173963
vt 0.001597 0.126823
vt 0.016101 0.081992
vt 0.043689 0.043859
vt 0.126299 0.001597
vt 0.173235 0.001605
vt 0.217873 0.016180
vt 0.255845 0.043894
vt 0.283433 0.082036
vt 0.297937 0.126872
vt 0.297937 0.174012
vt 0.255845 0.256976
vt 0.217873 0.284678
vt 0.173235 0.299238
vt 0.301132 0.126793
vt 0.315631 0.081966
vt 0.343209 0.043840
vt 0.381167 0.016147
vt 0.425790 0.001597
vt 0.472709 0.001616
vt 0.517332 0.016201
vt 0.582869 0.082072
vt 0.597368 0.126911
vt 0.597368 0.174051
vt 0.582869 0.218878
vt 0.555291 0.257004
vt 0.517332 0.284698
vt 0.472709 0.299247
vt 0.381167 0.284644
vt 0.343209 0.256920
vt 0.315631 0.218772
vt 0.468515 0.673108
vt 0.020532 0.423102
vt 0.667140 0.425134
vt 0.495020 0.306204
vt 0.068809 0.302433
vt 0.329302 0.305011
vt 0.694713 0.302442
vt 0.573020 0.691984
vt 0.662598 0.012516
vt 0.712347 0.001597
vt 0.762096 0.013485
vt 0.801992 0.045825
vt 0.824132 0.143458
vt 0.801992 0.189413
vt 0.762096 0.220976
vt 0.662598 0.220007
vt 0.622703 0.187667
vt 0.600562 0.141280
vt 0.622703 0.044079
vt 0.563554 0.731864
vt 0.473776 0.776908
vt 0.468515 0.755382
vt 0.473186 0.733659
vt 0.506843 0.706018
vt 0.980057 0.217067
vt 0.977701 0.239689
vt 0.977701 0.403281
vt 0.972535 0.553543
vt 0.973309 0.462975
vt 0.206985 0.799067
vt 0.206985 0.845651
vt 0.186645 0.887748
vt 0.149994 0.917021
vt 0.058588 0.917590
vt 0.021937 0.888774
vt 0.001597 0.846930
vt 0.021937 0.758249
vt 0.058588 0.728976
vt 0.104291 0.718326
vt 0.186645 0.757223
vt 0.566666 0.845457
vt 0.855629 0.803869
vt 0.855629 0.850803
vt 0.835476 0.893129
vt 0.799162 0.922462
vt 0.708596 0.922637
vt 0.672282 0.893445
vt 0.652129 0.851197
vt 0.672282 0.761937
vt 0.708596 0.732603
vt 0.753879 0.722072
vt 0.835476 0.761621
s 0
f 2/1/1 3/2/1 1/3/1
f 4/4/2 5/5/2 3/6/2
f 6/7/3 7/8/3 5/5/3
f 8/9/4 9/10/4 7/8/4
f 10/11/5 11/12/5 9/10/5
f 12/13/6 13/14/6 11/12/6
f 14/15/7 15/16/7 13/17/7
f 16/18/8 17/19/8 15/16/8
f 18/20/9 19/21/9 17/19/9
f 20/22/10 21/23/10 19/21/10
f 22/24/11 23/25/11 21/23/11
f 24/26/12 25/27/12 23/28/12
f 26/29/13 27/30/13 25/27/13
f 28/31/14 29/32/14 27/30/14
f 30/33/15 31/34/15 29/32/15
f 32/35/16 33/36/16 31/34/16
f 34/37/17 35/38/17 33/39/17
f 36/40/18 37/41/18 35/38/18
f 30/42/19 14/43/19 6/44/19
f 38/45/20 39/46/20 37/41/20
f 40/47/21 1/3/21 39/46/21
f 15/48/22 31/49/22 39/50/22
s 1
f 42/51/23 55/52/24 41/53/25
f 43/54/26 56/55/27 42/51/23
f 44/56/28 57/57/29 43/54/26
f 45/58/30 58/59/31 44/60/28
f 46/61/32 59/62/33 45/58/30
f 47/63/34 60/64/35 46/61/32
f 47/63/34 62/65/36 61/66/37
f 48/67/38 63/68/39 62/69/36
f 50/70/40 63/68/39 49/71/41
f 51/72/42 64/73/43 50/70/40
f 52/74/44 65/75/45 51/76/42
f 52/74/44 67/77/46 66/78/47
f 54/79/48 67/77/46 53/80/49
f 41/53/25 68/81/50 54/82/48
f 56/55/27 69/83/51 55/52/24
f 57/57/29 70/84/52 56/55/27
f 58/85/31 71/86/53 57/57/29
f 59/62/33 72/87/54 58/59/31
f 59/62/33 74/88/55 73/89/56
f 60/64/35 75/90/57 74/88/55
f 62/69/36 75/91/57 61/92/37
f 63/68/39 76/93/58 62/69/36
f 64/73/43 77/94/59 63/68/39
f 65/95/45 78/96/60 64/73/43
f 66/78/47 79/97/61 65/75/45
f 67/77/46 80/98/62 66/78/47
f 68/99/50 81/100/63 67/77/46
f 55/52/24 82/101/64 68/81/50
f 70/84/52 83/102/65 69/83/51
f 70/84/52 85/103/66 84/104/67
f 71/86/53 86/105/68 85/103/66
f 73/89/56 86/106/68 72/87/54
f 74/88/55 87/107/69 73/89/56
f 75/90/57 88/108/70 74/88/55
f 76/109/58 89/110/71 75/90/57
f 76/93/58 91/111/72 90/112/73
f 77/94/59 92/113/74 91/111/72
f 79/114/61 92/113/74 78/96/60
f 80/98/62 93/115/75 79/97/61
f 81/100/63 94/116/76 80/98/62
f 81/100/63 96/117/77 95/118/78
f 69/83/51 96/119/77 82/101/64
f 83/102/65 98/120/79 97/121/80
f 85/103/66 98/120/79 84/104/67
f 86/122/68 99/123/81 85/124/66
f 87/125/69 100/126/82 86/122/68
f 88/127/70 101/128/83 87/125/69
f 88/127/70 103/129/84 102/130/85
f 90/131/73 103/129/84 89/132/71
f 91/111/72 104/133/86 90/112/73
f 91/111/72 106/134/87 105/135/88
f 93/136/75 106/134/87 92/113/74
f 94/116/76 107/137/89 93/115/75
f 95/118/78 108/138/90 94/116/76
f 96/117/77 109/139/91 95/118/78
f 96/140/77 97/141/80 110/142/92
f 51/143/42 47/144/34 43/145/26
f 100/126/82 104/146/86 108/147/90
s 0
f 112/148/93 113/149/93 111/150/93
f 114/151/94 115/152/94 113/149/94
f 116/153/95 117/154/95 115/152/95
f 118/155/96 119/156/96 117/154/96
f 119/157/97 122/158/97 121/159/97
f 122/158/98 123/160/98 121/159/98
f 124/161/99 125/162/99 123/160/99
f 126/163/100 127/164/100 125/162/100
f 127/165/101 130/166/101 129/167/101
f 130/166/102 131/168/102 129/167/102
f 131/168/103 134/169/103 133/170/103
f 134/171/104 135/172/104 133/173/104
f 136/174/105 128/175/105 120/176/105
f 136/177/106 137/178/106 135/172/106
f 138/179/107 111/180/107 137/178/107
f 117/181/108 125/182/108 133/183/108
s 1
f 139/184/109 152/185/110 151/186/111
f 140/187/112 152/188/110 154/189/113
f 139/184/109 151/186/111 156/190/114
f 139/184/109 156/190/114 158/191/115
f 139/184/109 158/191/115 155/192/116
f 140/187/112 154/189/113 161/193/117
f 141/194/118 153/195/119 163/196/120
f 142/197/121 157/198/122 165/199/123
f 143/200/124 159/201/125 167/202/126
f 144/203/127 160/204/128 169/205/129
f 140/187/112 161/193/117 164/206/130
f 141/194/118 163/196/120 166/207/131
f 142/197/121 165/199/123 168/208/132
f 143/200/124 167/202/126 170/209/133
f 144/203/127 169/205/129 162/210/134
f 145/211/135 171/212/136 176/213/137
f 146/214/138 172/215/139 178/216/140
f 147/217/141 173/218/142 179/219/143
f 148/220/144 174/221/145 180/222/146
f 149/223/147 175/224/148 177/225/149
f 177/226/149 180/227/146 150/228/150
f 177/229/149 175/230/148 180/222/146
f 175/230/148 148/220/144 180/222/146
f 180/227/146 179/231/143 150/228/150
f 180/232/146 174/233/145 179/219/143
f 174/233/145 147/217/141 179/219/143
f 179/231/143 178/234/140 150/228/150
f 179/219/143 173/218/142 178/235/140
f 173/218/142 146/236/138 178/235/140
f 178/234/140 176/237/137 150/228/150
f 178/234/140 172/238/139 176/237/137
f 172/215/139 145/239/135 176/240/137
f 176/237/137 177/226/149 150/228/150
f 176/213/137 171/212/136 177/225/149
f 171/212/136 149/223/147 177/225/149
f 162/241/134 175/224/148 149/223/147
f 162/210/134 169/205/129 175/230/148
f 169/205/129 148/220/144 175/230/148
f 170/242/133 174/221/145 148/220/144
f 170/209/133 167/202/126 174/233/145
f 167/202/126 147/217/141 174/233/145
f 168/208/132 173/218/142 147/217/141
f 168/208/132 165/199/123 173/218/142
f 165/199/123 146/236/138 173/218/142
f 166/207/131 172/215/139 146/214/138
f 166/207/131 163/196/120 172/215/139
f 163/196/120 145/239/135 172/215/139
f 164/206/130 171/212/136 145/211/135
f 164/206/130 161/193/117 171/212/136
f 161/193/117 149/223/147 171/212/136
f 169/205/129 170/242/133 148/220/144
f 169/205/129 160/204/128 170/242/133
f 160/204/128 143/243/124 170/242/133
f 167/202/126 168/208/132 147/217/141
f 167/202/126 159/201/125 168/208/132
f 159/201/125 142/197/121 168/208/132
f 165/199/123 166/244/131 146/236/138
f 165/199/123 157/198/122 166/244/131
f 157/245/122 141/194/118 166/207/131
f 163/196/120 164/246/130 145/239/135
f 163/196/120 153/195/119 164/246/130
f 153/247/119 140/187/112 164/206/130
f 161/193/117 162/241/134 149/223/147
f 161/193/117 154/189/113 162/241/134
f 154/189/113 144/248/127 162/241/134
f 155/249/116 160/204/128 144/203/127
f 155/192/116 158/191/115 160/250/128
f 158/251/115 143/243/124 160/204/128
f 158/252/115 159/201/125 143/200/124
f 158/252/115 156/253/114 159/201/125
f 156/253/114 142/197/121 159/201/125
f 156/253/114 157/198/122 142/197/121
f 156/253/114 151/254/111 157/198/122
f 151/255/111 141/194/118 157/245/122
f 154/189/113 155/256/116 144/248/127
f 154/189/113 152/188/110 155/256/116
f 152/185/110 139/184/109 155/192/116
f 151/255/111 153/195/119 141/194/118
f 151/255/111 152/257/110 153/195/119
f 152/188/110 140/187/112 153/247/119
f 181/258/151 194/259/152 193/260/153
f 182/261/154 194/262/152 196/263/155
f 181/258/151 193/260/153 198/264/156
f 181/258/151 198/264/156 200/265/157
f 181/258/151 200/265/157 197/266/158
f 182/261/154 196/263/155 203/267/159
f 183/268/160 195/269/161 205/270/162
f 184/271/163 199/272/164 207/273/165
f 185/274/166 201/275/167 209/276/168
f 186/277/169 202/278/170 211/279/171
f 182/261/154 203/267/159 206/280/172
f 183/268/160 205/270/162 208/281/173
f 184/282/163 207/283/165 210/284/174
f 185/274/166 209/276/168 212/285/175
f 186/277/169 211/279/171 204/286/176
f 187/287/177 213/288/178 218/289/179
f 188/290/180 214/291/181 220/292/182
f 189/293/183 215/294/184 221/295/185
f 190/296/186 216/297/187 222/298/188
f 191/299/189 217/300/190 219/301/191
f 219/302/191 222/303/188 192/304/192
f 219/301/191 217/300/190 222/298/188
f 217/300/190 190/296/186 222/298/188
f 222/303/188 221/305/185 192/304/192
f 222/306/188 216/307/187 221/295/185
f 216/307/187 189/293/183 221/295/185
f 221/305/185 220/308/182 192/304/192
f 221/305/185 215/309/184 220/308/182
f 215/310/184 188/290/180 220/292/182
f 220/308/182 218/311/179 192/304/192
f 220/292/182 214/291/181 218/312/179
f 214/291/181 187/313/177 218/312/179
f 218/311/179 219/302/191 192/304/192
f 218/289/179 213/288/178 219/314/191
f 213/288/178 191/315/189 219/314/191
f 204/286/176 217/300/190 191/299/189
f 204/286/176 211/279/171 217/300/190
f 211/279/171 190/296/186 217/300/190
f 212/285/175 216/307/187 190/316/186
f 212/285/175 209/276/168 216/307/187
f 209/276/168 189/293/183 216/307/187
f 210/284/174 215/294/184 189/293/183
f 210/284/174 207/283/165 215/294/184
f 207/273/165 188/290/180 215/310/184
f 208/281/173 214/291/181 188/290/180
f 208/281/173 205/270/162 214/291/181
f 205/270/162 187/313/177 214/291/181
f 206/280/172 213/288/178 187/287/177
f 206/280/172 203/267/159 213/288/178
f 203/267/159 191/315/189 213/288/178
f 211/279/171 212/317/175 190/296/186
f 211/279/171 202/278/170 212/317/175
f 202/278/170 185/318/166 212/317/175
f 209/276/168 210/284/174 189/293/183
f 209/276/168 201/275/167 210/284/174
f 201/275/167 184/282/163 210/284/174
f 207/273/165 208/281/173 188/290/180
f 207/273/165 199/272/164 208/281/173
f 199/272/164 183/268/160 208/281/173
f 205/319/162 206/280/172 187/287/177
f 205/319/162 195/320/161 206/280/172
f 195/320/161 182/261/154 206/280/172
f 203/267/159 204/321/176 191/315/189
f 203/267/159 196/263/155 204/321/176
f 196/322/155 186/277/169 204/286/176
f 197/323/158 202/278/170 186/277/169
f 197/323/158 200/324/157 202/278/170
f 200/324/157 185/318/166 202/278/170
f 200/325/157 201/275/167 185/274/166
f 200/325/157 198/326/156 201/275/167
f 198/326/156 184/282/163 201/275/167
f 198/326/156 199/327/164 184/282/163
f 198/328/156 193/329/153 199/272/164
f 193/329/153 183/268/160 199/272/164
f 196/322/155 197/323/158 186/277/169
f 196/330/155 194/259/152 197/266/158
f 194/259/152 181/258/151 197/266/158
f 193/329/153 195/269/161 183/268/160
f 193/260/153 194/259/152 195/331/161
f 194/262/152 182/261/154 195/320/161
f 223/332/193 236/333/194 235/334/195
f 224/335/196 236/333/194 238/336/197
f 223/332/193 235/334/195 240/337/198
f 223/332/193 240/337/198 242/338/199
f 223/332/193 242/338/199 239/339/200
f 224/340/196 238/341/197 245/342/201
f 225/343/202 237/344/203 247/345/204
f 226/346/205 241/347/206 249/348/207
f 227/349/208 243/350/209 251/351/210
f 228/352/211 244/353/212 253/354/213
f 224/340/196 245/342/201 248/355/214
f 225/356/202 247/357/204 250/358/215
f 226/359/205 249/360/207 252/361/216
f 227/349/208 251/351/210 254/362/217
f 228/352/211 253/354/213 246/363/218
f 229/364/219 255/365/220 260/366/221
f 230/367/222 256/368/223 262/369/224
f 231/370/225 257/371/226 263/372/227
f 232/373/228 258/374/229 264/375/230
f 233/376/231 259/377/232 261/378/233
f 261/378/233 264/375/230 234/379/234
f 261/378/233 259/377/232 264/375/230
f 259/380/232 232/381/228 264/382/230
f 264/375/230 263/383/227 234/379/234
f 264/375/230 258/374/229 263/383/227
f 258/384/229 231/370/225 263/372/227
f 263/383/227 262/385/224 234/379/234
f 263/383/227 257/386/226 262/385/224
f 257/387/226 230/367/222 262/369/224
f 262/385/224 260/388/221 234/379/234
f 262/385/224 256/389/223 260/388/221
f 256/368/223 229/390/219 260/391/221
f 260/388/221 261/378/233 234/379/234
f 260/366/221 255/365/220 261/392/233
f 255/365/220 233/393/231 261/392/233
f 246/363/218 259/380/232 233/394/231
f 246/363/218 253/354/213 259/380/232
f 253/354/213 232/381/228 259/380/232
f 254/395/217 258/396/229 232/381/228
f 254/362/217 251/351/210 258/384/229
f 251/351/210 231/370/225 258/384/229
f 252/361/216 257/371/226 231/370/225
f 252/361/216 249/360/207 257/371/226
f 249/348/207 230/367/222 257/387/226
f 250/358/215 256/368/223 230/367/222
f 250/358/215 247/357/204 256/368/223
f 247/357/204 229/390/219 256/368/223
f 248/355/214 255/365/220 229/364/219
f 248/355/214 245/342/201 255/365/220
f 245/342/201 233/393/231 255/365/220
f 253/354/213 254/395/217 232/381/228
f 253/354/213 244/353/212 254/395/217
f 244/353/212 227/397/208 254/395/217
f 251/351/210 252/361/216 231/370/225
f 251/351/210 243/350/209 252/361/216
f 243/350/209 226/359/205 252/361/216
f 249/348/207 250/358/215 230/367/222
f 249/348/207 241/347/206 250/358/215
f 241/347/206 225/356/202 250/358/215
f 247/345/204 248/355/214 229/364/219
f 247/345/204 237/344/203 248/355/214
f 237/344/203 224/340/196 248/355/214
f 245/342/201 246/398/218 233/393/231
f 245/399/201 238/400/197 246/363/218
f 238/400/197 228/352/211 246/363/218
f 239/401/200 244/353/212 228/352/211
f 239/401/200 242/402/199 244/353/212
f 242/402/199 227/397/208 244/353/212
f 242/403/199 243/350/209 227/349/208
f 242/403/199 240/404/198 243/350/209
f 240/404/198 226/359/205 243/350/209
f 240/404/198 241/405/206 226/359/205
f 240/337/198 235/334/195 241/406/206
f 235/407/195 225/356/202 241/347/206
f 238/400/197 239/401/200 228/352/211
f 238/336/197 236/333/194 239/339/200
f 236/333/194 223/332/193 239/339/200
f 235/334/195 237/408/203 225/409/202
f 235/334/195 236/333/194 237/408/203
f 236/333/194 224/335/196 237/408/203
f 265/410/235 278/411/236 277/412/237
f 266/413/238 278/414/236 280/415/239
f 265/410/235 277/412/237 282/416/240
f 265/410/235 282/416/240 284/417/241
f 265/410/235 284/417/241 281/418/242
f 266/413/238 280/415/239 287/419/243
f 267/420/244 279/421/245 289/422/246
f 268/423/247 283/424/248 291/425/249
f 269/426/250 285/427/251 293/428/252
f 270/429/253 286/430/254 295/431/255
f 266/432/238 287/433/243 290/434/256
f 267/420/244 289/422/246 292/435/257
f 268/423/247 291/425/249 294/436/258
f 269/426/250 293/428/252 296/437/259
f 270/429/253 295/431/255 288/438/260
f 271/439/261 297/440/262 302/441/263
f 272/442/264 298/443/265 304/444/266
f 273/445/267 299/446/268 305/447/269
f 274/448/270 300/449/271 306/450/272
f 275/451/273 301/452/274 303/453/275
f 303/453/275 306/450/272 276/454/276
f 303/453/275 301/452/274 306/450/272
f 301/452/274 274/448/270 306/450/272
f 306/450/272 305/455/269 276/454/276
f 306/450/272 300/449/271 305/455/269
f 300/456/271 273/457/267 305/458/269
f 305/455/269 304/444/266 276/454/276
f 305/455/269 299/459/268 304/444/266
f 299/446/268 272/460/264 304/461/266
f 304/444/266 302/462/263 276/454/276
f 304/444/266 298/443/265 302/462/263
f 298/463/265 271/439/261 302/441/263
f 302/462/263 303/453/275 276/454/276
f 302/462/263 297/464/262 303/453/275
f 297/464/262 275/451/273 303/453/275
f 288/438/260 301/465/274 275/466/273
f 288/438/260 295/431/255 301/465/274
f 295/431/255 274/467/270 301/465/274
f 296/437/259 300/456/271 274/468/270
f 296/437/259 293/428/252 300/456/271
f 293/428/252 273/457/267 300/456/271
f 294/436/258 299/446/268 273/445/267
f 294/436/258 291/425/249 299/446/268
f 291/425/249 272/460/264 299/446/268
f 292/435/257 298/463/265 272/469/264
f 292/435/257 289/422/246 298/463/265
f 289/422/246 271/439/261 298/463/265
f 290/434/256 297/440/262 271/439/261
f 290/434/256 287/433/243 297/440/262
f 287/419/243 275/466/273 297/470/262
f 295/471/255 296/437/259 274/468/270
f 295/471/255 286/472/254 296/437/259
f 286/472/254 269/426/250 296/437/259
f 293/428/252 294/473/258 273/457/267
f 293/428/252 285/427/251 294/473/258
f 285/474/251 268/423/247 294/436/258
f 291/425/249 292/475/257 272/460/264
f 291/425/249 283/424/248 292/475/257
f 283/424/248 267/476/244 292/475/257
f 289/422/246 290/434/256 271/439/261
f 289/422/246 279/421/245 290/434/256
f 279/421/245 266/432/238 290/434/256
f 287/419/243 288/438/260 275/466/273
f 287/419/243 280/415/239 288/438/260
f 280/415/239 270/429/253 288/438/260
f 281/477/242 286/430/254 270/429/253
f 281/418/242 284/417/241 286/478/254
f 284/417/241 269/479/250 286/478/254
f 284/417/241 285/480/251 269/479/250
f 284/417/241 282/416/240 285/480/251
f 282/481/240 268/423/247 285/474/251
f 282/481/240 283/424/248 268/423/247
f 282/416/240 277/412/237 283/482/248
f 277/412/237 267/483/244 283/482/248
f 280/415/239 281/477/242 270/429/253
f 280/484/239 278/411/236 281/418/242
f 278/411/236 265/410/235 281/418/242
f 277/485/237 279/421/245 267/420/244
f 277/412/237 278/411/236 279/486/245
f 278/487/236 266/432/238 279/421/245
s 0
f 307/488/277 320/489/277 319/490/277
f 308/491/278 320/492/278 322/493/278
f 307/488/279 319/490/279 324/494/279
f 307/488/280 324/494/280 326/495/280
f 307/488/281 326/495/281 323/496/281
f 308/491/282 322/493/282 329/497/282
f 309/498/283 321/499/283 331/500/283
f 310/501/284 325/502/284 333/503/284
f 311/504/285 327/505/285 335/506/285
f 312/507/286 328/508/286 337/509/286
f 308/491/287 329/497/287 332/510/287
f 309/498/288 331/500/288 334/511/288
f 310/512/289 333/513/289 336/514/289
f 311/515/290 335/516/290 338/517/290
f 312/507/291 337/509/291 330/518/291
f 313/519/292 339/520/292 344/521/292
f 314/522/293 340/523/293 346/524/293
f 315/525/294 341/526/294 347/527/294
f 316/528/295 342/529/295 348/530/295
f 317/531/296 343/532/296 345/533/296
f 345/533/297 348/534/297 318/535/297
f 345/533/298 343/532/298 348/534/298
f 343/536/299 316/528/299 348/530/299
f 348/534/300 347/537/300 318/535/300
f 348/534/301 342/538/301 347/537/301
f 342/539/302 315/525/302 347/527/302
f 347/537/303 346/524/303 318/535/303
f 347/537/304 341/540/304 346/524/304
f 341/540/305 314/522/305 346/524/305
f 346/524/306 344/521/306 318/535/306
f 346/524/307 340/523/307 344/521/307
f 340/523/308 313/519/308 344/521/308
f 344/521/309 345/533/309 318/535/309
f 344/521/310 339/520/310 345/533/310
f 339/520/311 317/531/311 345/533/311
f 330/518/312 343/536/312 317/541/312
f 330/518/313 337/509/313 343/536/313
f 337/509/314 316/528/314 343/536/314
f 338/517/315 342/529/315 316/528/315
f 338/517/316 335/516/316 342/529/316
f 335/506/317 315/525/317 342/539/317
f 336/514/318 341/526/318 315/525/318
f 336/514/319 333/513/319 341/526/319
f 333/513/320 314/542/320 341/526/320
f 334/511/321 340/543/321 314/544/321
f 334/511/322 331/500/322 340/543/322
f 331/500/323 313/545/323 340/543/323
f 332/546/324 339/547/324 313/545/324
f 332/510/325 329/497/325 339/548/325
f 329/497/326 317/549/326 339/548/326
f 337/509/327 338/517/327 316/528/327
f 337/509/328 328/508/328 338/517/328
f 328/508/329 311/515/329 338/517/329
f 335/506/330 336/514/330 315/525/330
f 335/506/331 327/505/331 336/514/331
f 327/505/332 310/512/332 336/514/332
f 333/503/333 334/511/333 314/544/333
f 333/503/334 325/502/334 334/511/334
f 325/502/335 309/498/335 334/511/335
f 331/500/336 332/546/336 313/545/336
f 331/500/337 321/499/337 332/546/337
f 321/550/338 308/491/338 332/510/338
f 329/497/339 330/551/339 317/549/339
f 329/497/340 322/493/340 330/551/340
f 322/552/341 312/507/341 330/518/341
f 323/553/342 328/508/342 312/507/342
f 323/496/343 326/495/343 328/554/343
f 326/555/344 311/515/344 328/508/344
f 326/556/345 327/505/345 311/504/345
f 326/495/346 324/494/346 327/557/346
f 324/494/347 310/558/347 327/557/347
f 324/494/348 325/559/348 310/558/348
f 324/494/349 319/490/349 325/559/349
f 319/490/350 309/560/350 325/559/350
f 322/561/351 323/496/351 312/562/351
f 322/561/352 320/489/352 323/496/352
f 320/489/353 307/488/353 323/496/353
f 319/490/354 321/563/354 309/560/354
f 319/490/355 320/489/355 321/563/355
f 320/492/356 308/491/356 321/550/356
f 2/1/1 4/564/1 3/2/1
f 4/4/2 6/7/2 5/5/2
f 6/7/3 8/9/3 7/8/3
f 8/9/4 10/11/4 9/10/4
f 10/11/5 12/13/5 11/12/5
f 12/13/6 14/565/6 13/14/6
f 14/15/7 16/18/7 15/16/7
f 16/18/8 18/20/8 17/19/8
f 18/20/9 20/22/9 19/21/9
f 20/22/10 22/24/10 21/23/10
f 22/24/11 24/566/11 23/25/11
f 24/26/12 26/29/12 25/27/12
f 26/29/13 28/31/13 27/30/13
f 28/31/14 30/33/14 29/32/14
f 30/33/15 32/35/15 31/34/15
f 32/35/16 34/567/16 33/36/16
f 34/37/17 36/40/17 35/38/17
f 36/40/18 38/45/18 37/41/18
f 6/44/19 4/568/19 2/569/19
f 2/569/19 40/570/19 38/571/19
f 38/571/19 36/572/19 34/573/19
f 34/573/19 32/574/19 30/42/19
f 30/42/19 28/575/19 26/576/19
f 26/576/19 24/577/19 22/578/19
f 22/578/19 20/579/19 18/580/19
f 18/580/19 16/581/19 14/43/19
f 14/43/19 12/582/19 10/583/19
f 10/583/19 8/584/19 6/44/19
f 6/44/19 2/569/19 38/571/19
f 38/571/19 34/573/19 30/42/19
f 30/42/19 26/576/19 22/578/19
f 22/578/19 18/580/19 14/43/19
f 14/43/19 10/583/19 6/44/19
f 6/44/19 38/571/19 30/42/19
f 30/42/19 22/578/19 14/43/19
f 38/45/20 40/47/20 39/46/20
f 40/47/21 2/1/21 1/3/21
f 39/50/22 1/585/22 3/586/22
f 3/586/22 5/587/22 7/588/22
f 7/588/22 9/589/22 11/590/22
f 11/590/22 13/591/22 15/48/22
f 15/48/22 17/592/22 19/593/22
f 19/593/22 21/594/22 23/595/22
f 23/595/22 25/596/22 27/597/22
f 27/597/22 29/598/22 31/49/22
f 31/49/22 33/599/22 35/600/22
f 35/600/22 37/601/22 39/50/22
f 39/50/22 3/586/22 7/588/22
f 7/588/22 11/590/22 15/48/22
f 15/48/22 19/593/22 23/595/22
f 23/595/22 27/597/22 31/49/22
f 31/49/22 35/600/22 39/50/22
f 39/50/22 7/588/22 15/48/22
f 15/48/22 23/595/22 31/49/22
s 1
f 42/51/23 56/55/27 55/52/24
f 43/54/26 57/57/29 56/55/27
f 44/56/28 58/85/31 57/57/29
f 45/58/30 59/62/33 58/59/31
f 46/61/32 60/64/35 59/62/33
f 47/63/34 61/66/37 60/64/35
f 47/63/34 48/602/38 62/65/36
f 48/67/38 49/71/41 63/68/39
f 50/70/40 64/73/43 63/68/39
f 51/72/42 65/95/45 64/73/43
f 52/74/44 66/78/47 65/75/45
f 52/74/44 53/80/49 67/77/46
f 54/79/48 68/99/50 67/77/46
f 41/53/25 55/52/24 68/81/50
f 56/55/27 70/84/52 69/83/51
f 57/57/29 71/86/53 70/84/52
f 58/85/31 72/603/54 71/86/53
f 59/62/33 73/89/56 72/87/54
f 59/62/33 60/64/35 74/88/55
f 60/64/35 61/66/37 75/90/57
f 62/69/36 76/93/58 75/91/57
f 63/68/39 77/94/59 76/93/58
f 64/73/43 78/96/60 77/94/59
f 65/95/45 79/114/61 78/96/60
f 66/78/47 80/98/62 79/97/61
f 67/77/46 81/100/63 80/98/62
f 68/99/50 82/604/64 81/100/63
f 55/52/24 69/83/51 82/101/64
f 70/84/52 84/104/67 83/102/65
f 70/84/52 71/86/53 85/103/66
f 71/86/53 72/603/54 86/105/68
f 73/89/56 87/107/69 86/106/68
f 74/88/55 88/108/70 87/107/69
f 75/90/57 89/110/71 88/108/70
f 76/109/58 90/605/73 89/110/71
f 76/93/58 77/94/59 91/111/72
f 77/94/59 78/96/60 92/113/74
f 79/114/61 93/136/75 92/113/74
f 80/98/62 94/116/76 93/115/75
f 81/100/63 95/118/78 94/116/76
f 81/100/63 82/604/64 96/117/77
f 69/83/51 83/102/65 96/119/77
f 83/102/65 84/104/67 98/120/79
f 85/103/66 99/606/81 98/120/79
f 86/122/68 100/126/82 99/123/81
f 87/125/69 101/128/83 100/126/82
f 88/127/70 102/130/85 101/128/83
f 88/127/70 89/132/71 103/129/84
f 90/131/73 104/146/86 103/129/84
f 91/111/72 105/135/88 104/133/86
f 91/111/72 92/113/74 106/134/87
f 93/136/75 107/607/89 106/134/87
f 94/116/76 108/138/90 107/137/89
f 95/118/78 109/139/91 108/138/90
f 96/117/77 110/608/92 109/139/91
f 96/140/77 83/609/65 97/141/80
f 41/610/25 54/611/48 53/612/49
f 53/612/49 52/613/44 51/143/42
f 51/143/42 50/614/40 49/615/41
f 49/615/41 48/616/38 47/144/34
f 47/144/34 46/617/32 45/618/30
f 45/618/30 44/619/28 43/145/26
f 43/145/26 42/620/23 41/610/25
f 41/610/25 53/612/49 51/143/42
f 51/143/42 49/615/41 47/144/34
f 47/144/34 45/618/30 43/145/26
f 43/145/26 41/610/25 51/143/42
f 110/142/92 97/141/80 98/621/79
f 98/621/79 99/123/81 100/126/82
f 100/126/82 101/128/83 102/130/85
f 102/130/85 103/129/84 104/146/86
f 104/146/86 105/622/88 106/623/87
f 106/623/87 107/624/89 108/147/90
f 108/147/90 109/625/91 110/142/92
f 110/142/92 98/621/79 100/126/82
f 100/126/82 102/130/85 104/146/86
f 104/146/86 106/623/87 108/147/90
f 108/147/90 110/142/92 100/126/82
s 0
f 112/148/93 114/151/93 113/149/93
f 114/151/94 116/153/94 115/152/94
f 116/153/95 118/155/95 117/154/95
f 118/155/96 120/626/96 119/156/96
f 119/157/97 120/627/97 122/158/97
f 122/158/98 124/161/98 123/160/98
f 124/161/99 126/163/99 125/162/99
f 126/163/100 128/628/100 127/164/100
f 127/165/101 128/629/101 130/166/101
f 130/166/102 132/630/102 131/168/102
f 131/168/103 132/630/103 134/169/103
f 134/171/104 136/177/104 135/172/104
f 116/631/105 114/632/105 112/633/105
f 112/633/105 138/634/105 136/174/105
f 136/174/105 134/635/105 132/636/105
f 132/636/105 130/637/105 128/175/105
f 128/175/105 126/638/105 124/639/105
f 124/639/105 122/640/105 120/176/105
f 120/176/105 118/641/105 116/631/105
f 116/631/105 112/633/105 136/174/105
f 136/174/105 132/636/105 128/175/105
f 128/175/105 124/639/105 120/176/105
f 120/176/105 116/631/105 136/174/105
f 136/177/106 138/179/106 137/178/106
f 138/179/107 112/642/107 111/180/107
f 137/643/108 111/644/108 113/645/108
f 113/645/108 115/646/108 117/181/108
f 117/181/108 119/647/108 121/648/108
f 121/648/108 123/649/108 125/182/108
f 125/182/108 127/650/108 129/651/108
f 129/651/108 131/652/108 133/183/108
f 133/183/108 135/653/108 137/643/108
f 137/643/108 113/645/108 117/181/108
f 117/181/108 121/648/108 125/182/108
f 125/182/108 129/651/108 133/183/108
f 133/183/108 137/643/108 117/181/108
