# Blender 4.5.13 LTS
# www.blender.org
o charcoal
v 0.000000 0.000000 -0.300000
v 0.000000 0.050000 -0.300000
v 0.092705 0.000000 -0.285317
v 0.092705 0.050000 -0.285317
v 0.176336 0.000000 -0.242705
v 0.176336 0.050000 -0.242705
v 0.242705 0.000000 -0.176336
v 0.242705 0.050000 -0.176336
v 0.285317 0.000000 -0.092705
v 0.285317 0.050000 -0.092705
v 0.300000 0.000000 0.000000
v 0.300000 0.050000 0.000000
v 0.285317 0.000000 0.092705
v 0.285317 0.050000 0.092705
v 0.242705 0.000000 0.176336
v 0.242705 0.050000 0.176336
v 0.176336 0.000000 0.242705
v 0.176336 0.050000 0.242705
v 0.092705 0.000000 0.285317
v 0.092705 0.050000 0.285317
v 0.000000 0.000000 0.300000
v 0.000000 0.050000 0.300000
v -0.092705 0.000000 0.285317
v -0.092705 0.050000 0.285317
v -0.176336 0.000000 0.242705
v -0.176336 0.050000 0.242705
v -0.242705 0.000000 0.176336
v -0.242705 0.050000 0.176336
v -0.285317 0.000000 0.092705
v -0.285317 0.050000 0.092705
v -0.300000 0.000000 0.000000
v -0.300000 0.050000 0.000000
v -0.285317 0.000000 -0.092705
v -0.285317 0.050000 -0.092705
v -0.242705 0.000000 -0.176336
v -0.242705 0.050000 -0.176336
v -0.176336 0.000000 -0.242705
v -0.176336 0.050000 -0.242705
v -0.092705 0.000000 -0.285317
v -0.092705 0.050000 -0.285317
v 0.230000 0.039882 0.026086
v 0.207223 0.047532 -0.073414
v 0.143403 0.053667 -0.153207
v 0.051180 0.057071 -0.197488
v -0.051180 0.057071 -0.197488
v -0.143403 0.053667 -0.153207
v -0.207223 0.047532 -0.073414
v -0.230000 0.039882 0.026086
v -0.207223 0.032233 0.125585
v -0.143403 0.026098 0.205378
v -0.051180 0.022693 0.249659
v 0.051180 0.022693 0.249659
v 0.143403 0.026098 0.205378
v 0.207223 0.032233 0.125585
v 0.210000 0.348970 0.049849
v 0.189203 0.355955 -0.040999
v 0.130933 0.361556 -0.113853
v 0.046729 0.364664 -0.154284
v -0.046729 0.364664 -0.154284
v -0.130933 0.361556 -0.113853
v -0.189203 0.355955 -0.040999
v -0.210000 0.348970 0.049849
v -0.189203 0.341986 0.140696
v -0.130933 0.336384 0.213550
v -0.046729 0.333276 0.253981
v 0.046729 0.333276 0.253981
v 0.130933 0.336384 0.213550
v 0.189203 0.341986 0.140696
v 0.180000 0.618176 0.070546
v 0.162174 0.624162 -0.007323
v 0.112228 0.628964 -0.069770
v 0.040054 0.631628 -0.104425
v -0.040054 0.631628 -0.104425
v -0.112228 0.628964 -0.069770
v -0.162174 0.624162 -0.007323
v -0.180000 0.618176 0.070546
v -0.162174 0.612189 0.148415
v -0.112228 0.607388 0.210862
v -0.040054 0.604724 0.245517
v 0.040054 0.604724 0.245517
v 0.112228 0.607388 0.210862
v 0.162174 0.612189 0.148415
v 0.170000 0.777705 0.082811
v 0.153165 0.783359 0.009268
v 0.105993 0.787893 -0.049709
v 0.037829 0.790410 -0.082439
v -0.037829 0.790410 -0.082439
v -0.105993 0.787893 -0.049709
v -0.153165 0.783359 0.009268
v -0.170000 0.777705 0.082811
v -0.153165 0.772051 0.156354
v -0.105993 0.767516 0.215331
v -0.037829 0.765000 0.248061
v 0.037829 0.765000 0.248061
v 0.105993 0.767516 0.215331
v 0.153165 0.772051 0.156354
v 0.100000 0.857470 0.088943
v 0.090097 0.860796 0.045683
v 0.062349 0.863463 0.010990
v 0.022252 0.864943 -0.008262
v -0.022252 0.864943 -0.008262
v -0.062349 0.863463 0.010990
v -0.090097 0.860796 0.045683
v -0.100000 0.857470 0.088943
v -0.090097 0.854144 0.132204
v -0.062349 0.851476 0.166897
v -0.022252 0.849996 0.186149
v 0.022252 0.849996 0.186149
v 0.062349 0.851476 0.166897
v 0.090097 0.854144 0.132204
v 0.000000 0.456098 -0.182526
v 0.000000 0.505951 -0.178693
v 0.091116 0.454504 -0.161791
v 0.091116 0.504356 -0.157958
v 0.164185 0.450037 -0.103692
v 0.164185 0.499890 -0.099859
v 0.204735 0.443582 -0.019736
v 0.204735 0.493435 -0.015903
v 0.204735 0.436418 0.073448
v 0.204735 0.486271 0.077281
v 0.164185 0.429963 0.157404
v 0.164185 0.479816 0.161236
v 0.091116 0.425496 0.215503
v 0.091116 0.475349 0.219335
v 0.000000 0.423902 0.236238
v 0.000000 0.473755 0.240071
v -0.091116 0.425496 0.215503
v -0.091116 0.475349 0.219335
v -0.164185 0.429963 0.157404
v -0.164185 0.479816 0.161236
v -0.204735 0.436418 0.073448
v -0.204735 0.486271 0.077281
v -0.204735 0.443582 -0.019736
v -0.204735 0.493435 -0.015903
v -0.164185 0.450037 -0.103692
v -0.164185 0.499890 -0.099859
v -0.091116 0.454504 -0.161791
v -0.091116 0.504356 -0.157958
v -0.159719 0.475645 -0.031703
v -0.098554 0.536347 -0.066755
v -0.088631 0.535621 0.004510
v -0.169006 0.540270 0.027725
v -0.230196 0.546617 -0.030142
v -0.186402 0.545416 -0.086894
v -0.067896 0.654653 -0.028454
v -0.114170 0.653726 0.027375
v -0.199977 0.661836 0.007071
v -0.212740 0.665817 -0.063880
v -0.131342 0.658637 -0.085296
v -0.139506 0.734268 -0.026722
v -0.120021 0.485503 -0.010961
v -0.126253 0.485379 -0.052511
v -0.088023 0.529733 -0.030834
v -0.142310 0.533728 -0.082809
v -0.176698 0.494144 -0.063760
v -0.166086 0.494404 0.000444
v -0.125801 0.530396 0.021495
v -0.199956 0.497424 -0.031176
v -0.205654 0.536702 0.002026
v -0.218313 0.536510 -0.063977
v -0.110479 0.597933 -0.082376
v -0.160345 0.602068 -0.094698
v -0.070594 0.593417 -0.009741
v -0.076451 0.594643 -0.049616
v -0.139062 0.597813 0.039836
v -0.092135 0.594434 0.024883
v -0.226125 0.605545 -0.008288
v -0.188745 0.602026 0.022719
v -0.208328 0.605611 -0.083931
v -0.229028 0.606552 -0.048782
v -0.093769 0.663955 -0.060966
v -0.079302 0.665707 0.006573
v -0.158015 0.669079 0.026461
v -0.215295 0.674030 -0.027700
v -0.175322 0.672836 -0.082468
v -0.096184 0.710502 -0.027295
v -0.132745 0.713270 -0.061222
v -0.123467 0.705204 0.004932
v -0.172182 0.707068 -0.007633
v -0.179200 0.711522 -0.047178
v 0.178875 0.474869 -0.032566
v 0.124120 0.530011 0.023294
v 0.091308 0.526897 -0.040816
v 0.156858 0.540701 -0.091344
v 0.233538 0.558172 -0.057466
v 0.208345 0.555693 0.009129
v 0.067591 0.641263 -0.001530
v 0.087544 0.647429 -0.070453
v 0.174748 0.666927 -0.079608
v 0.207157 0.671192 -0.018100
v 0.143359 0.657429 0.030773
v 0.121914 0.721711 -0.026138
v 0.132891 0.483489 -0.037934
v 0.152671 0.486901 -0.001916
v 0.098890 0.514239 -0.005565
v 0.172373 0.530924 0.025902
v 0.201972 0.500597 -0.008009
v 0.171027 0.492275 -0.066072
v 0.120433 0.526315 -0.069541
v 0.217232 0.497788 -0.047959
v 0.203140 0.540870 -0.081988
v 0.231766 0.549920 -0.021686
v 0.131403 0.594011 0.035867
v 0.182557 0.605971 0.029908
v 0.071049 0.581549 -0.020398
v 0.086490 0.584130 0.017317
v 0.117667 0.594070 -0.088115
v 0.077583 0.584105 -0.060656
v 0.212074 0.615511 -0.074877
v 0.167426 0.605612 -0.090378
v 0.219215 0.615192 0.000654
v 0.227860 0.618196 -0.038094
v 0.096559 0.659464 0.023671
v 0.063391 0.653046 -0.037380
v 0.127722 0.668782 -0.084282
v 0.197950 0.680459 -0.051582
v 0.179198 0.672766 0.010424
v 0.082991 0.701872 -0.010718
v 0.128035 0.712533 0.009097
v 0.098974 0.697594 -0.050218
v 0.147321 0.713466 -0.056788
v 0.166480 0.712224 -0.020998
v -0.001151 0.824414 -0.012736
v -0.010641 0.875845 -0.086451
v 0.069111 0.873769 -0.054402
v 0.051081 0.876745 0.035058
v -0.035542 0.878341 0.055620
v -0.078279 0.875051 -0.019213
v 0.036827 0.963165 -0.086059
v 0.075478 0.963341 -0.008897
v 0.011117 0.966127 0.061767
v -0.069867 0.966737 0.026922
v -0.050981 0.963171 -0.062885
v 0.001154 1.015793 -0.015190
v 0.039163 0.835476 -0.036543
v -0.007046 0.835827 -0.056474
v 0.033603 0.866820 -0.080759
v -0.051783 0.867007 -0.061317
v -0.045789 0.835126 -0.016229
v 0.031189 0.832537 0.017443
v 0.068533 0.868866 -0.008121
v -0.022051 0.837240 0.028589
v 0.009085 0.869411 0.056743
v -0.067895 0.867772 0.026327
v -0.036369 0.919521 -0.085501
v -0.073326 0.920477 -0.045627
v 0.061352 0.918423 -0.079284
v 0.015041 0.918727 -0.099086
v 0.073857 0.919519 0.017934
v 0.082851 0.918745 -0.034022
v -0.015648 0.921324 0.074599
v 0.036947 0.920487 0.058714
v -0.086987 0.921318 0.007101
v -0.061853 0.921589 0.051895
v -0.008872 0.969406 -0.083011
v 0.068622 0.972787 -0.054680
v 0.052218 0.973439 0.033793
v -0.034956 0.975321 0.055526
v -0.073223 0.974633 -0.020201
v 0.022845 1.005737 -0.058042
v -0.029225 1.001954 -0.043387
v 0.045111 1.003616 -0.011727
v 0.006927 1.002751 0.027834
v -0.039068 1.004320 0.008566
v -0.002913 0.815305 0.032394
v 0.104458 0.890657 0.032069
v 0.037887 0.890152 0.134135
v -0.089102 0.888240 0.104521
v -0.091200 0.896397 -0.026556
v 0.025503 0.892653 -0.072705
v 0.095412 1.006079 0.101524
v -0.024973 1.006155 0.142521
v -0.108969 1.011906 0.040180
v -0.039806 1.012880 -0.067027
v 0.089555 1.012075 -0.032792
v 0.002752 1.077239 0.039482
v 0.022218 0.832632 0.095868
v 0.059800 0.839994 0.031672
v 0.085663 0.878027 0.093318
v 0.079847 0.879216 -0.030924
v 0.012829 0.841790 -0.027693
v -0.050566 0.840257 0.071590
v -0.027503 0.876301 0.137894
v -0.054044 0.845606 -0.001953
v -0.104792 0.883162 0.036540
v -0.042888 0.880236 -0.071160
v 0.120197 0.948572 -0.007256
v 0.061531 0.951279 -0.060409
v 0.075917 0.945788 0.131016
v 0.115360 0.946570 0.070575
v -0.068224 0.948582 0.142977
v 0.008901 0.946310 0.165305
v -0.124107 0.953690 -0.001116
v -0.111667 0.951327 0.076261
v -0.008162 0.953384 -0.082501
v -0.081772 0.954537 -0.066264
v 0.107892 1.018815 0.035522
v 0.041010 1.016709 0.138543
v -0.082810 1.023411 0.105486
v -0.088350 1.024232 -0.023038
v 0.025119 1.017312 -0.056989
v 0.059134 1.064225 0.077608
v 0.050462 1.059517 0.000560
v -0.013403 1.063045 0.102618
v -0.064988 1.069549 0.040785
v -0.020706 1.059380 -0.019718
v 0.025981 0.501715 0.169197
v 0.107538 0.560661 0.249660
v -0.026888 0.553699 0.251348
v -0.098115 0.570515 0.163693
v -0.003451 0.586105 0.091981
v 0.142327 0.578302 0.155513
v 0.043255 0.653611 0.307114
v -0.105145 0.662659 0.245511
v -0.068961 0.680303 0.149533
v 0.068397 0.688434 0.146999
v 0.132010 0.666927 0.234430
v 0.013741 0.743786 0.232236
v -0.009292 0.498796 0.216810
v 0.078307 0.516116 0.213810
v 0.046685 0.536764 0.266911
v 0.133106 0.564076 0.206849
v 0.097860 0.519546 0.153482
v -0.055395 0.512701 0.156365
v -0.094819 0.538337 0.212007
v 0.010187 0.527201 0.118657
v -0.073169 0.566873 0.112334
v 0.068330 0.583618 0.127036
v 0.156299 0.611962 0.257333
v 0.154272 0.627300 0.198039
v 0.000484 0.592840 0.300508
v 0.093769 0.598641 0.296342
v -0.132131 0.611729 0.202222
v -0.084662 0.598601 0.261852
v -0.044931 0.638800 0.115201
v -0.117871 0.628131 0.142006
v 0.108237 0.638041 0.147855
v 0.039267 0.646814 0.100775
v 0.112701 0.672860 0.287226
v -0.030917 0.658330 0.276871
v -0.112702 0.685612 0.191964
v -0.005687 0.700123 0.135592
v 0.118225 0.689860 0.189729
v 0.029780 0.712480 0.281063
v 0.084796 0.712215 0.237501
v -0.042510 0.700649 0.237347
v -0.035254 0.718445 0.186913
v 0.045714 0.726399 0.185243
vn 0.1564 -0.0000 -0.9877
vn 0.4540 -0.0000 -0.8910
vn 0.7071 -0.0000 -0.7071
vn 0.8910 -0.0000 -0.4540
vn 0.9877 -0.0000 -0.1564
vn 0.9877 -0.0000 0.1564
vn 0.8910 -0.0000 0.4540
vn 0.7071 -0.0000 0.7071
vn 0.4540 -0.0000 0.8910
vn 0.1564 -0.0000 0.9877
vn -0.1564 -0.0000 0.9877
vn -0.4540 -0.0000 0.8910
vn -0.7071 -0.0000 0.7071
vn -0.8910 -0.0000 0.4540
vn -0.9877 -0.0000 0.1564
vn -0.9877 -0.0000 -0.1564
vn -0.8910 -0.0000 -0.4540
vn -0.7071 -0.0000 -0.7071
vn -0.0000 1.0000 -0.0000
vn -0.4540 -0.0000 -0.8910
vn -0.1564 -0.0000 -0.9877
vn -0.0000 -1.0000 -0.0000
vn 0.6951 -0.6086 -0.3825
vn 0.9962 0.0869 0.0067
vn 0.7716 -0.6343 -0.0488
vn 0.4811 -0.5880 -0.6502
vn 0.8975 0.1200 -0.4243
vn 0.1717 -0.5766 -0.7988
vn 0.6211 0.1466 -0.7699
vn -0.1717 -0.5766 -0.7988
vn 0.2217 0.1613 -0.9617
vn -0.6211 0.1466 -0.7699
vn -0.2217 0.1613 -0.9617
vn -0.4810 -0.5881 -0.6502
vn -0.8975 0.1200 -0.4243
vn -0.7715 -0.6343 -0.0488
vn -0.6952 -0.6086 -0.3826
vn -0.6952 -0.6599 0.2850
vn -0.9962 0.0869 0.0067
vn -0.4810 -0.6805 0.5527
vn -0.8975 0.0538 0.4376
vn -0.1717 -0.6919 0.7012
vn -0.6211 0.0272 0.7832
vn 0.1717 -0.6920 0.7012
vn -0.2217 0.0124 0.9750
vn 0.6211 0.0272 0.7832
vn 0.2217 0.0124 0.9750
vn 0.6951 -0.6600 0.2850
vn 0.4811 -0.6805 0.5527
vn 0.8975 0.0538 0.4376
vn 0.9962 0.0865 0.0066
vn 0.8976 0.1196 -0.4243
vn 0.2217 0.1609 -0.9617
vn 0.6211 0.1462 -0.7699
vn -0.2217 0.1609 -0.9617
vn -0.8976 0.1196 -0.4243
vn -0.6211 0.1462 -0.7699
vn -0.9962 0.0865 0.0067
vn -0.8976 0.0533 0.4376
vn -0.6211 0.0268 0.7832
vn -0.2217 0.0120 0.9750
vn 0.6211 0.0268 0.7832
vn 0.2217 0.0120 0.9750
vn 0.8976 0.0533 0.4376
vn 0.9308 0.3645 0.0280
vn 0.8386 0.3954 -0.3746
vn 0.2071 0.4341 -0.8768
vn 0.5803 0.4203 -0.6976
vn -0.2071 0.4340 -0.8768
vn -0.5803 0.4203 -0.6976
vn -0.8386 0.3954 -0.3746
vn -0.9308 0.3645 0.0280
vn -0.5803 0.3087 0.7536
vn -0.8386 0.3335 0.4307
vn -0.2071 0.2949 0.9328
vn 0.5803 0.3087 0.7536
vn 0.2071 0.2949 0.9328
vn 0.8386 0.3335 0.4307
vn 0.4597 0.8854 0.0681
vn 0.4142 0.9007 -0.1308
vn 0.2866 0.9130 -0.2903
vn 0.1023 0.9198 -0.3788
vn -0.1023 0.9198 -0.3788
vn -0.4142 0.9007 -0.1308
vn -0.2866 0.9130 -0.2903
vn -0.4597 0.8854 0.0681
vn -0.4142 0.8702 0.2670
vn -0.2866 0.8579 0.4265
vn -0.1023 0.8511 0.5150
vn 0.2866 0.8579 0.4264
vn 0.1023 0.8511 0.5150
vn 0.4142 0.8701 0.2670
vn 0.2225 0.0747 -0.9721
vn 0.6235 0.0599 -0.7795
vn 0.9010 0.0333 -0.4326
vn 1.0000 -0.0000 -0.0000
vn 0.9010 -0.0333 0.4326
vn 0.6235 -0.0599 0.7795
vn 0.2225 -0.0747 0.9721
vn -0.2225 -0.0747 0.9721
vn -0.6235 -0.0599 0.7795
vn -0.9010 -0.0333 0.4326
vn -1.0000 -0.0000 -0.0000
vn -0.9010 0.0333 -0.4326
vn -0.0000 0.9971 0.0767
vn -0.6235 0.0599 -0.7795
vn -0.2225 0.0747 -0.9721
vn -0.0000 -0.9971 -0.0767
vn -0.1589 -0.9871 0.0218
vn 0.4116 -0.7720 -0.4844
vn 0.4534 -0.8070 0.3783
vn 0.6722 -0.3259 -0.6648
vn 0.1761 -0.3126 -0.9334
vn -0.2543 -0.6940 0.6735
vn -0.6822 -0.7246 0.0979
vn -0.2868 -0.7020 -0.6518
vn 0.4767 -0.0162 -0.8789
vn 0.7654 -0.3973 0.5064
vn 0.8959 -0.4275 -0.1208
vn 0.9723 -0.1200 0.2007
vn -0.2649 -0.3060 0.9144
vn 0.2317 -0.4040 0.8849
vn 0.0094 -0.0196 0.9998
vn -0.9550 -0.2654 0.1323
vn -0.6694 -0.3348 0.6631
vn -0.8844 0.0614 0.4628
vn -0.2590 -0.2595 -0.9304
vn -0.7691 -0.3536 -0.5324
vn -0.5825 0.0482 -0.8114
vn 0.8859 -0.0794 -0.4571
vn 0.5905 -0.0733 0.8037
vn -0.4937 0.0181 0.8694
vn -0.9708 0.0795 -0.2264
vn 0.0096 0.0059 -0.9999
vn 0.9639 0.2092 -0.1647
vn 0.6643 0.2769 -0.6943
vn 0.7006 0.7124 -0.0413
vn 0.2690 0.2581 0.9279
vn 0.7459 0.3293 0.5789
vn 0.2070 0.6476 0.7333
vn -0.6371 0.3364 0.6935
vn -0.1989 0.3661 0.9091
vn -0.4635 0.7100 0.5301
vn -0.7615 0.3969 -0.5125
vn -0.8623 0.4817 0.1565
vn -0.5219 0.7949 -0.3095
vn 0.2698 0.2412 -0.9322
vn -0.2342 0.3967 -0.8876
vn 0.2047 0.6762 -0.7078
vn 0.0053 0.9959 0.0903
vn 0.1989 -0.9799 0.0137
vn -0.0927 -0.8065 0.5840
vn -0.4393 -0.8724 -0.2143
vn -0.3048 -0.3959 0.8662
vn 0.2436 -0.3350 0.9102
vn 0.0238 -0.6938 -0.7198
vn 0.7309 -0.6342 -0.2520
vn 0.5818 -0.5811 0.5691
vn -0.1247 -0.0461 0.9911
vn -0.8118 -0.4971 -0.3064
vn -0.7132 -0.5973 0.3668
vn -0.9674 -0.2302 0.1053
vn -0.0806 -0.2643 -0.9611
vn -0.4834 -0.4541 -0.7484
vn -0.3298 -0.0614 -0.9421
vn 0.9189 -0.0711 -0.3881
vn 0.4387 -0.2211 -0.8710
vn 0.6526 0.1987 -0.7312
vn 0.6547 -0.1539 0.7400
vn 0.9336 -0.1593 0.3210
vn 0.8157 0.1701 0.5528
vn -0.6822 -0.1694 0.7113
vn -0.8090 -0.1940 -0.5549
vn 0.1353 0.0683 -0.9884
vn 0.9663 0.2445 -0.0807
vn 0.3888 0.0697 0.9187
vn -0.8972 0.0701 0.4359
vn -0.4497 0.2249 0.8644
vn -0.7232 0.6529 0.2251
vn -0.6170 0.1913 -0.7634
vn -0.9492 0.2001 -0.2430
vn -0.5458 0.6263 -0.5566
vn 0.3409 0.3773 -0.8611
vn -0.1821 0.3420 -0.9219
vn 0.1248 0.8254 -0.5506
vn 0.8157 0.5122 0.2689
vn 0.7174 0.5837 -0.3803
vn 0.4922 0.8516 0.1803
vn 0.1063 0.2578 0.9603
vn 0.5077 0.4500 0.7346
vn -0.0141 0.7494 0.6620
vn -0.1862 0.9796 -0.0762
vn -0.0244 -0.9997 -0.0089
vn -0.1183 -0.8305 -0.5443
vn 0.4754 -0.8436 -0.2499
vn -0.2070 -0.3959 -0.8947
vn -0.6314 -0.4527 -0.6296
vn 0.4142 -0.8178 0.3996
vn -0.2298 -0.8169 0.5290
vn -0.5296 -0.8447 -0.0774
vn -0.5012 0.0175 -0.8651
vn 0.8138 -0.4311 -0.3897
vn 0.3226 -0.5094 -0.7977
vn 0.6820 -0.0311 -0.7307
vn 0.6866 -0.3629 0.6300
vn 0.8739 -0.4574 0.1649
vn 0.8999 -0.0370 0.4345
vn -0.3483 -0.4173 0.8394
vn 0.1853 -0.4656 0.8653
vn -0.0891 -0.0283 0.9956
vn -0.9093 -0.3795 -0.1707
vn -0.7455 -0.4917 0.4500
vn -0.9900 0.0153 0.1401
vn 0.0638 -0.0129 -0.9979
vn 0.9922 -0.0344 -0.1201
vn 0.5267 -0.0288 0.8496
vn -0.6772 -0.0100 0.7358
vn -0.8737 0.0219 -0.4860
vn 0.3235 0.3776 -0.8676
vn -0.2318 0.4534 -0.8606
vn 0.1822 0.8383 -0.5139
vn 0.9188 0.3614 0.1585
vn 0.7914 0.4645 -0.3973
vn 0.5463 0.8305 0.1092
vn 0.2317 0.4255 0.8748
vn 0.6543 0.4740 0.5892
vn 0.1325 0.8494 0.5108
vn -0.7962 0.4389 0.4164
vn -0.3396 0.5368 0.7724
vn -0.4370 0.8727 0.2178
vn -0.6381 0.3833 -0.6678
vn -0.8429 0.5034 -0.1901
vn -0.4112 0.8077 -0.4225
vn -0.0134 0.9998 0.0114
vn -0.0433 -0.9965 -0.0717
vn 0.5567 -0.8279 -0.0681
vn 0.1949 -0.8497 0.4899
vn 0.8808 -0.4732 -0.0161
vn 0.6549 -0.5225 -0.5459
vn -0.4675 -0.8415 0.2708
vn -0.4917 -0.8198 -0.2937
vn 0.1338 -0.8434 -0.5204
vn 0.9346 -0.0495 -0.3521
vn 0.3571 -0.4463 0.8205
vn 0.7255 -0.5172 0.4541
vn 0.6450 -0.0750 0.7605
vn -0.7363 -0.4462 0.5086
vn -0.2092 -0.5539 0.8059
vn -0.5656 0.0043 0.8247
vn -0.7658 -0.4631 -0.4462
vn -0.8522 -0.5231 0.0027
vn -0.9738 -0.0018 -0.2276
vn 0.2818 -0.3634 -0.8880
vn -0.3122 -0.5131 -0.7995
vn 0.0486 0.0806 -0.9956
vn 0.9555 -0.0670 0.2874
vn 0.0882 -0.0371 0.9954
vn -0.9409 0.0009 0.3388
vn -0.6020 0.0344 -0.7978
vn 0.4938 0.0312 -0.8690
vn 0.7833 0.3411 0.5197
vn 0.8709 0.4912 -0.0170
vn 0.4529 0.8450 0.2845
vn -0.2157 0.4251 0.8791
vn 0.3077 0.4639 0.8308
vn -0.1096 0.8302 0.5466
vn -0.9091 0.4108 0.0686
vn -0.6691 0.4863 0.5619
vn -0.4832 0.8755 0.0074
vn -0.2104 0.4921 -0.8448
vn -0.6795 0.5674 -0.4652
vn -0.0970 0.8549 -0.5097
vn 0.6465 0.4497 -0.6162
vn 0.2303 0.5105 -0.8284
vn 0.3772 0.8537 -0.3592
vn 0.0443 0.9980 -0.0447
vn 0.1961 -0.9769 0.0854
vn 0.6450 -0.6891 0.3303
vn -0.1104 -0.9837 -0.1421
vn -0.0524 -0.8982 -0.4365
vn 0.1126 -0.8726 -0.4752
vn 0.6563 -0.6744 0.3382
vn -0.2978 -0.6591 0.6906
vn -0.8487 -0.4651 -0.2518
vn -0.3174 0.1619 -0.9344
vn 0.3633 0.0884 -0.9275
vn 0.5156 -0.5839 0.6271
vn -0.3579 -0.6231 0.6954
vn -0.8553 -0.4117 -0.3147
vn -0.1875 0.2688 -0.9448
vn 0.7283 0.3392 -0.5954
vn 0.1376 0.4270 0.8937
vn -0.2764 0.6144 0.7390
vn -0.3688 0.7961 -0.4798
vn 0.2146 0.7538 -0.6211
vn 0.6894 0.7085 0.1509
vn 0.4090 0.9107 -0.0587
vn 0.4527 0.8863 -0.0980
vn 0.4128 0.7570 -0.5066
vn -0.0977 0.9099 -0.4031
vn -0.0981 0.9180 -0.3843
vn -0.3570 0.7954 -0.4897
vn -0.5859 0.7870 0.1934
vn -0.3619 0.8942 0.2635
vn -0.4347 0.8039 0.4059
vn -0.4612 0.6703 0.5813
vn -0.5044 0.5115 0.6956
vn -0.3413 0.3139 0.8860
vn 0.3409 0.8383 0.4255
vn 0.3582 0.8194 0.4475
vn 0.6877 0.7053 0.1722
vn 0.8671 0.4980 -0.0119
vn 0.7281 0.3405 -0.5950
vn 0.5760 0.4437 -0.6865
vn 0.2149 0.6546 -0.7248
vn -0.1919 0.4181 -0.8879
vn -0.3297 0.4811 -0.8123
vn -0.5277 0.5838 -0.6171
vn -0.9593 0.2294 -0.1647
vn -0.9272 0.2786 0.2503
vn -0.3812 0.1122 0.9177
vn -0.4021 0.1341 0.9057
vn -0.3643 0.1566 0.9180
vn 0.2617 0.0516 0.9638
vn 0.5340 -0.0324 0.8449
vn 0.8411 0.4775 0.2540
vn 0.5474 0.4205 -0.7236
vn 0.5537 -0.0894 -0.8279
vn 0.4274 -0.1722 -0.8875
vn -0.3648 0.4589 -0.8101
vn -0.3623 0.1787 -0.9148
vn -0.8264 -0.4232 -0.3714
vn -0.7890 -0.0975 0.6066
vn -0.7742 -0.3208 0.5456
vn -0.3089 -0.5747 0.7578
vn 0.0531 -0.1448 0.9880
vn 0.0685 -0.4706 0.8797
vn 0.4309 -0.6336 0.6426
vn 0.8988 0.4308 0.0807
vn 0.9367 -0.3299 -0.1174
vn 0.9483 -0.3055 0.0857
vn 0.3362 -0.2228 -0.9151
vn 0.3437 -0.2186 -0.9133
vn 0.4110 -0.2954 -0.8625
vn -0.1396 -0.4351 -0.8895
vn -0.2601 -0.6590 -0.7058
vn -0.7765 -0.5308 -0.3395
vn -0.7837 -0.5403 -0.3064
vn -0.4222 -0.8992 0.1152
vn -0.3086 -0.5754 0.7574
vn 0.7976 -0.6028 -0.0238
vn 0.6610 -0.7302 0.1727
vn 0.2458 -0.9690 0.0246
vn -0.2938 -0.5747 0.7638
vn 0.1879 -0.8724 0.4512
vn 0.4358 -0.7203 0.5396
vt 0.932481 0.180412
vt 0.958260 0.134781
vt 0.957709 0.180454
vt 0.933032 0.134739
vt 0.958260 0.087434
vt 0.933032 0.087392
vt 0.957709 0.043047
vt 0.932481 0.043006
vt 0.956661 0.005967
vt 0.365027 0.720227
vt 0.340881 0.759500
vt 0.339800 0.720259
vt 0.366109 0.759468
vt 0.341450 0.805033
vt 0.366677 0.805000
vt 0.341450 0.852400
vt 0.366677 0.852367
vt 0.340881 0.896964
vt 0.366109 0.896932
vt 0.339800 0.934365
vt 0.619124 0.933951
vt 0.645470 0.895078
vt 0.644350 0.933972
vt 0.620244 0.895058
vt 0.646059 0.849720
vt 0.620833 0.849700
vt 0.646059 0.802337
vt 0.620833 0.802316
vt 0.645470 0.757567
vt 0.620244 0.757546
vt 0.644350 0.719792
vt 0.963498 0.734647
vt 0.938388 0.773969
vt 0.938252 0.734652
vt 0.963634 0.773965
vt 0.938459 0.819540
vt 0.963705 0.819535
vt 0.938459 0.866902
vt 0.963705 0.866898
vt 0.938388 0.911420
vt 0.001612 0.174922
vt 0.258230 0.044114
vt 0.286074 0.219995
vt 0.963634 0.911416
vt 0.938252 0.948736
vt 0.931432 0.219940
vt 0.956661 0.219982
vt 0.318543 0.219995
vt 0.521516 0.016257
vt 0.602091 0.174922
vt 0.001612 0.717960
vt 0.046602 0.561293
vt 0.042312 0.717761
vt 0.617970 0.715825
vt 0.657465 0.560356
vt 0.664040 0.716548
vt 0.566298 0.715825
vt 0.615401 0.559696
vt 0.519258 0.716548
vt 0.568222 0.559696
vt 0.367995 0.717003
vt 0.323469 0.559723
vt 0.359920 0.560817
vt 0.328073 0.715805
vt 0.277624 0.559333
vt 0.227307 0.715805
vt 0.277862 0.715377
vt 0.186422 0.717003
vt 0.231466 0.559723
vt 0.469361 0.723675
vt 0.509693 0.564775
vt 0.516034 0.721231
vt 0.417678 0.723675
vt 0.467079 0.567007
vt 0.371219 0.721231
vt 0.419890 0.567007
vt 0.183198 0.717960
vt 0.138611 0.561293
vt 0.175237 0.561474
vt 0.092803 0.717690
vt 0.143084 0.717761
vt 0.092702 0.561228
vt 0.009441 0.561474
vt 0.053042 0.425049
vt 0.647671 0.424479
vt 0.571178 0.423913
vt 0.611617 0.423913
vt 0.525273 0.560356
vt 0.347861 0.424932
vt 0.277322 0.423660
vt 0.316617 0.423995
vt 0.237757 0.423995
vt 0.205760 0.424932
vt 0.463708 0.429880
vt 0.500234 0.427966
vt 0.377471 0.564775
vt 0.423259 0.429880
vt 0.131908 0.425049
vt 0.163301 0.425205
vt 0.092557 0.424994
vt 0.021190 0.425205
vt 0.055187 0.344290
vt 0.644382 0.343859
vt 0.572138 0.343325
vt 0.610330 0.343325
vt 0.534364 0.424479
vt 0.343822 0.344317
vt 0.314314 0.343431
vt 0.277202 0.343115
vt 0.239835 0.343431
vt 0.462565 0.349036
vt 0.497062 0.347229
vt 0.386901 0.427966
vt 0.424364 0.349036
vt 0.129671 0.344290
vt 0.159320 0.344438
vt 0.092506 0.344238
vt 0.202926 0.851219
vt 0.251661 0.843766
vt 0.232666 0.874990
vt 0.186422 0.816829
vt 0.234167 0.829782
vt 0.601694 0.304063
vt 0.202926 0.744195
vt 0.224458 0.787085
vt 0.186422 0.778633
vt 0.232666 0.720336
vt 0.234167 0.766827
vt 0.276651 0.304063
vt 0.298482 0.304249
vt 0.254671 0.304249
vt 0.306836 0.720227
vt 0.312784 0.766711
vt 0.295290 0.752728
vt 0.475136 0.304063
vt 0.454844 0.305126
vt 0.390026 0.347229
vt 0.432373 0.305126
vt 0.336576 0.851023
vt 0.295290 0.843702
vt 0.312784 0.829667
vt 0.092182 0.304063
vt 0.114044 0.304094
vt 0.768851 0.222341
vt 0.605315 0.143448
vt 0.718485 0.001612
vt 0.977220 0.556879
vt 0.952325 0.603119
vt 0.951987 0.556896
vt 0.977220 0.648871
vt 0.951987 0.648888
vt 0.951038 0.685138
vt 0.961484 0.005926
vt 0.986857 0.048626
vt 0.961611 0.048627
vt 0.961611 0.095815
vt 0.986857 0.095814
vt 0.961484 0.138144
vt 0.968127 0.414075
vt 0.946239 0.377335
vt 0.971335 0.377322
vt 0.972479 0.331366
vt 0.946239 0.285323
vt 0.971335 0.285309
vt 0.968127 0.248275
vt 0.826764 0.982850
vt 0.851232 0.940018
vt 0.851993 0.982836
vt 0.826003 0.940032
vt 0.851232 0.892833
vt 0.724383 0.529835
vt 0.873112 0.601844
vt 0.770188 0.731423
vt 0.826003 0.892847
vt 0.851993 0.850627
vt 0.951038 0.519374
vt 0.873850 0.386510
vt 0.770557 0.516132
vt 0.667264 0.386495
vt 0.740837 0.257460
vt 0.749133 0.275581
vt 0.727991 0.275581
vt 0.935176 0.608280
vt 0.929409 0.634728
vt 0.912178 0.613112
vt 0.726055 0.251606
vt 0.744410 0.237022
vt 0.758793 0.251117
vt 0.921800 0.579085
vt 0.893657 0.947340
vt 0.877789 0.952255
vt 0.880308 0.919203
vt 0.894323 0.833306
vt 0.875673 0.835703
vt 0.881434 0.802580
vt 0.935028 0.834186
vt 0.916305 0.837468
vt 0.931723 0.804255
vt 0.231026 0.961941
vt 0.213762 0.966480
vt 0.224843 0.931533
vt 0.944235 0.576987
vt 0.900602 0.916680
vt 0.907836 0.803567
vt 0.195715 0.961478
vt 0.186422 0.931803
vt 0.204340 0.931154
vt 0.890365 0.610244
vt 0.876337 0.581457
vt 0.896261 0.580749
vt 0.947814 0.545490
vt 0.928679 0.544068
vt 0.930856 0.519356
vt 0.903386 0.886688
vt 0.885827 0.881982
vt 0.892521 0.862055
vt 0.919756 0.774364
vt 0.896983 0.768083
vt 0.913055 0.750118
vt 0.214566 0.901197
vt 0.197437 0.897171
vt 0.213942 0.878215
vt 0.907015 0.550265
vt 0.886470 0.545799
vt 0.907070 0.521930
vt 0.688962 0.265727
vt 0.706111 0.248273
vt 0.706221 0.270626
vt 0.688961 0.242047
vt 0.231026 0.897632
vt 0.722089 0.260727
vt 0.722831 0.237022
vt 0.935028 0.769403
vt 0.888227 0.748042
vt 0.904096 0.734647
vt 0.876154 0.773140
vt 0.716262 0.285467
vt 0.695522 0.290055
vt 0.871753 0.861301
vt 0.868051 0.889519
vt 0.863402 0.801556
vt 0.909628 0.948857
vt 0.863402 0.920770
vt 0.863402 0.950878
vt 0.222634 0.987918
vt 0.202755 0.986347
vt 0.918833 0.857037
vt 0.896420 0.856306
vt 0.877679 0.858077
vt 0.895986 0.973210
vt 0.903467 0.634066
vt 0.878470 0.975545
vt 0.947814 0.609155
vt 0.668427 0.282629
vt 0.652136 0.270736
vt 0.669029 0.259075
vt 0.393365 0.927788
vt 0.382991 0.947537
vt 0.371219 0.923718
vt 0.685423 0.276583
vt 0.678951 0.300552
vt 0.658242 0.294842
vt 0.391975 0.895123
vt 0.785106 0.940241
vt 0.769860 0.944721
vt 0.775193 0.911066
vt 0.822779 0.938298
vt 0.804248 0.943110
vt 0.816594 0.910211
vt 0.479635 0.924899
vt 0.458582 0.923875
vt 0.481121 0.893124
vt 0.148836 0.929273
vt 0.130260 0.934526
vt 0.138706 0.900214
vt 0.415487 0.903640
vt 0.795017 0.912365
vt 0.438092 0.912938
vt 0.435489 0.880711
vt 0.457813 0.886386
vt 0.495216 0.898447
vt 0.160416 0.902425
vt 0.432265 0.876773
vt 0.415041 0.865195
vt 0.431786 0.845496
vt 0.805766 0.881549
vt 0.786033 0.876052
vt 0.802318 0.855587
vt 0.477272 0.861526
vt 0.457863 0.849906
vt 0.481584 0.836563
vt 0.618529 0.293580
vt 0.605315 0.282097
vt 0.626413 0.274010
vt 0.392342 0.862644
vt 0.381872 0.852605
vt 0.407994 0.836564
vt 0.648420 0.262911
vt 0.633742 0.252462
vt 0.155610 0.849975
vt 0.147876 0.870321
vt 0.133770 0.852607
vt 0.129083 0.873365
vt 0.614189 0.257556
vt 0.495216 0.862928
vt 0.627384 0.237022
vt 0.605315 0.243092
vt 0.821931 0.872891
vt 0.648912 0.238170
vt 0.781299 0.850627
vt 0.769860 0.879956
vt 0.165793 0.876210
vt 0.119130 0.901464
vt 0.115303 0.870930
vt 0.113153 0.932874
vt 0.430538 0.906587
vt 0.409896 0.937926
vt 0.371219 0.885440
vt 0.165793 0.940124
vt 0.146128 0.957936
vt 0.124976 0.962246
vt 0.460691 0.949023
vt 0.437283 0.939767
vt 0.811078 0.961471
vt 0.685737 0.250203
vt 0.789682 0.963053
vt 0.160380 0.963839
vt 0.652136 0.242909
vt 0.669852 0.237022
vt 0.974894 0.455648
vt 0.967668 0.434157
vt 0.992412 0.439737
vt 0.962072 0.418310
vt 0.944206 0.434880
vt 0.993471 0.467309
vt 0.967964 0.477625
vt 0.952153 0.457714
vt 0.940982 0.481564
vt 0.920610 0.485446
vt 0.935631 0.459312
vt 0.293790 0.927147
vt 0.276186 0.940574
vt 0.275706 0.911621
vt 0.922921 0.700658
vt 0.899609 0.705574
vt 0.909390 0.679314
vt 0.021473 0.981022
vt 0.001612 0.974393
vt 0.020711 0.955782
vt 0.895803 0.480738
vt 0.877074 0.484010
vt 0.882497 0.457040
vt 0.254902 0.946348
vt 0.234250 0.932068
vt 0.253125 0.923307
vt 0.292467 0.901923
vt 0.935917 0.678131
vt 0.043329 0.968594
vt 0.909528 0.458126
vt 0.253928 0.897486
vt 0.234250 0.903819
vt 0.243148 0.878215
vt 0.895950 0.657895
vt 0.876337 0.654375
vt 0.900405 0.637952
vt 0.884387 0.224426
vt 0.902125 0.242025
vt 0.878760 0.240556
vt 0.062781 0.953048
vt 0.045607 0.938451
vt 0.063883 0.931120
vt 0.922729 0.436929
vt 0.898606 0.430522
vt 0.918931 0.417313
vt 0.854266 0.272595
vt 0.854139 0.245879
vt 0.871781 0.261265
vt 0.834879 0.257287
vt 0.840976 0.234274
vt 0.860839 0.223206
vt 0.894057 0.263696
vt 0.920242 0.651929
vt 0.878715 0.284622
vt 0.902125 0.287457
vt 0.270270 0.883069
vt 0.861093 0.294428
vt 0.940982 0.434316
vt 0.877650 0.434035
vt 0.024093 0.931120
vt 0.941981 0.655289
vt 0.883751 0.680954
vt 0.062019 0.978785
vt 0.037290 0.995954
vt 0.003179 0.945342
vt 0.941981 0.704201
vt 0.878260 0.704286
vt 0.900839 0.501107
vt 0.944206 0.479751
vt 0.011305 0.998388
vt 0.985114 0.487592
vt 0.919999 0.723590
vt 0.893581 0.723420
vt 0.293663 0.948434
vt 0.984774 0.417313
vt 0.271091 0.960093
vt 0.417088 0.781681
vt 0.443362 0.764910
vt 0.443396 0.802599
vt 0.461095 0.752618
vt 0.434921 0.731645
vt 0.405259 0.810292
vt 0.385035 0.778982
vt 0.407865 0.750890
vt 0.019488 0.774974
vt 0.001612 0.758257
vt 0.033525 0.741658
vt 0.050321 0.827529
vt 0.030648 0.805632
vt 0.070028 0.804548
vt 0.922337 0.068953
vt 0.892545 0.088910
vt 0.893749 0.048938
vt 0.829364 0.821608
vt 0.797673 0.828743
vt 0.810331 0.792880
vt 0.069233 0.897792
vt 0.059547 0.927896
vt 0.033864 0.898693
vt 0.051976 0.773297
vt 0.084926 0.830635
vt 0.924286 0.032884
vt 0.849163 0.791968
vt 0.052277 0.866982
vt 0.087119 0.773705
vt 0.075453 0.742395
vt 0.109929 0.756336
vt 0.863899 0.030020
vt 0.834879 0.036417
vt 0.855087 0.001612
vt 0.794263 0.763771
vt 0.769860 0.758408
vt 0.802968 0.734647
vt 0.838361 0.134675
vt 0.866231 0.116587
vt 0.859422 0.149636
vt 0.033845 0.835916
vt 0.015041 0.865176
vt 0.006778 0.833859
vt 0.860085 0.186985
vt 0.885437 0.168577
vt 0.834879 0.167603
vt 0.894785 0.135786
vt 0.827511 0.757090
vt 0.918196 0.169053
vt 0.928208 0.135996
vt 0.891732 0.007890
vt 0.896597 0.201175
vt 0.928208 0.200764
vt 0.105854 0.795795
vt 0.869291 0.219982
vt 0.838274 0.202235
vt 0.001612 0.894214
vt 0.858061 0.762483
vt 0.917690 0.001612
vt 0.857610 0.066015
vt 0.057726 0.721184
vt 0.018204 0.924824
vt 0.860178 0.829425
vt 0.777573 0.794612
vt 0.769860 0.826650
vt 0.863054 0.093706
vt 0.071086 0.833859
vt 0.090892 0.871153
vt 0.371219 0.745192
vt 0.400210 0.726900
vt 0.826350 0.847403
vt 0.371219 0.807787
vt 0.394989 0.833339
vt 0.430694 0.832545
vt 0.888844 0.113363
vt 0.092773 0.906348
vt 0.017649 0.830635
vt 0.468773 0.784377
vt 0.001711 0.796579
vt 0.918230 0.363095
vt 0.907225 0.395305
vt 0.889332 0.355212
vt 0.570391 0.909320
vt 0.562733 0.933537
vt 0.545286 0.910109
vt 0.909705 0.322146
vt 0.939807 0.345698
vt 0.939241 0.393478
vt 0.560708 0.883373
vt 0.552162 0.812581
vt 0.519258 0.794068
vt 0.547584 0.782839
vt 0.699046 0.900608
vt 0.675484 0.913622
vt 0.677461 0.876363
vt 0.692453 0.816939
vt 0.671850 0.837549
vt 0.667264 0.799235
vt 0.765549 0.783498
vt 0.728801 0.799444
vt 0.736276 0.764577
vt 0.592550 0.887596
vt 0.584640 0.812216
vt 0.708951 0.872593
vt 0.697486 0.780023
vt 0.766636 0.754359
vt 0.552666 0.745873
vt 0.539563 0.719772
vt 0.581558 0.731407
vt 0.615900 0.796677
vt 0.584241 0.771119
vt 0.609307 0.764082
vt 0.124719 0.739866
vt 0.149248 0.721184
vt 0.141161 0.759066
vt 0.113153 0.808131
vt 0.113153 0.770155
vt 0.134283 0.799256
vt 0.151808 0.846751
vt 0.130733 0.836216
vt 0.157296 0.822884
vt 0.160305 0.786650
vt 0.166732 0.759473
vt 0.175209 0.729280
vt 0.606032 0.731126
vt 0.183197 0.798721
vt 0.179671 0.841040
vt 0.533427 0.878970
vt 0.534126 0.847873
vt 0.552655 0.856955
vt 0.735786 0.734647
vt 0.708017 0.750258
vt 0.672786 0.761461
vt 0.737222 0.871442
vt 0.719660 0.847659
vt 0.740742 0.840773
vt 0.691624 0.840773
vt 0.667264 0.848978
vt 0.519258 0.752306
vt 0.580457 0.850947
vt 0.727297 0.906624
vt 0.615345 0.829945
vt 0.576502 0.844649
vt 0.592550 0.920072
vt 0.519258 0.905873
vt 0.760544 0.819142
vt 0.716496 0.837549
vt 0.928663 0.304063
vt 0.707105 0.931387
vt 0.877074 0.312835
vt 0.533906 0.832359
vt 0.530969 0.935267
vt 0.877074 0.389365
vt 0.896963 0.414089
vt 0.931432 0.005925
vt 0.365027 0.934332
vt 0.619124 0.719772
vt 0.258229 0.258337
vt 0.219903 0.286194
vt 0.174848 0.300839
vt 0.127475 0.300839
vt 0.082421 0.286194
vt 0.044096 0.258337
vt 0.016251 0.219995
vt 0.001612 0.127529
vt 0.016252 0.082456
vt 0.044097 0.044114
vt 0.082423 0.016257
vt 0.127477 0.001612
vt 0.174850 0.001612
vt 0.219905 0.016257
vt 0.286075 0.082456
vt 0.300714 0.127529
vt 0.300713 0.174922
vt 0.963498 0.948732
vt 0.587506 0.219995
vt 0.559755 0.258336
vt 0.521556 0.286193
vt 0.476647 0.300838
vt 0.429425 0.300838
vt 0.384513 0.286193
vt 0.346305 0.258336
vt 0.303945 0.174922
vt 0.303938 0.127529
vt 0.318523 0.082456
vt 0.346274 0.044114
vt 0.384473 0.016257
vt 0.429382 0.001612
vt 0.476604 0.001612
vt 0.559724 0.044114
vt 0.587485 0.082456
vt 0.602084 0.127529
vt 0.194135 0.560817
vt 0.025104 0.344438
vt 0.537369 0.343859
vt 0.209616 0.344317
vt 0.224458 0.809553
vt 0.579228 0.304063
vt 0.251661 0.752792
vt 0.336576 0.743998
vt 0.412173 0.304063
vt 0.306836 0.874881
vt 0.070230 0.304094
vt 0.809241 0.045395
vt 0.831655 0.091962
vt 0.831655 0.143628
vt 0.809241 0.190160
vt 0.718485 0.233798
vt 0.668120 0.222261
vt 0.627730 0.190016
vt 0.605315 0.091782
vt 0.627730 0.045250
vt 0.668120 0.013069
vt 0.768851 0.013149
vt 0.273475 0.848733
vt 0.273475 0.747760
vt 0.322493 0.786941
vt 0.322493 0.809409
vt 0.977559 0.603102
vt 0.976271 0.685120
vt 0.986730 0.005925
vt 0.986730 0.138143
vt 0.943031 0.414089
vt 0.947384 0.331379
vt 0.943031 0.248288
vt 0.687649 0.691461
vt 0.667264 0.648936
vt 0.667264 0.601746
vt 0.687649 0.559240
vt 0.770188 0.519356
vt 0.815994 0.529879
vt 0.852727 0.559318
vt 0.873113 0.649033
vt 0.852727 0.691540
vt 0.815994 0.720944
vt 0.724383 0.720901
vt 0.826764 0.850641
vt 0.976271 0.519356
vt 0.724587 0.314560
vt 0.770557 0.304063
vt 0.816527 0.314567
vt 0.853392 0.343992
vt 0.873850 0.433700
vt 0.853392 0.476215
vt 0.816527 0.505635
vt 0.724587 0.505628
vt 0.687722 0.476203
vt 0.667264 0.433685
vt 0.687722 0.343980
s 0
f 2/1/1 3/2/1 1/3/1
f 4/4/2 5/5/2 3/2/2
f 6/6/3 7/7/3 5/5/3
f 8/8/4 9/9/4 7/7/4
f 10/10/5 11/11/5 9/12/5
f 12/13/6 13/14/6 11/11/6
f 14/15/7 15/16/7 13/14/7
f 16/17/8 17/18/8 15/16/8
f 18/19/9 19/20/9 17/18/9
f 20/21/10 21/22/10 19/23/10
f 22/24/11 23/25/11 21/22/11
f 24/26/12 25/27/12 23/25/12
f 26/28/13 27/29/13 25/27/13
f 28/30/14 29/31/14 27/29/14
f 30/32/15 31/33/15 29/34/15
f 32/35/16 33/36/16 31/33/16
f 34/37/17 35/38/17 33/36/17
f 36/39/18 37/40/18 35/38/18
f 30/41/19 14/42/19 6/43/19
f 38/44/20 39/45/20 37/40/20
f 40/46/21 1/3/21 39/47/21
f 15/48/22 31/49/22 39/50/22
s 1
f 42/51/23 55/52/24 41/53/25
f 43/54/26 56/55/27 42/56/23
f 44/57/28 57/58/29 43/54/26
f 45/59/30 58/60/31 44/57/28
f 45/61/30 60/62/32 59/63/33
f 46/64/34 61/65/35 60/62/32
f 48/66/36 61/65/35 47/67/37
f 49/68/38 62/69/39 48/66/36
f 50/70/40 63/71/41 49/72/38
f 51/73/42 64/74/43 50/70/40
f 52/75/44 65/76/45 51/73/42
f 52/77/44 67/78/46 66/79/47
f 54/80/48 67/78/46 53/81/49
f 54/80/48 55/52/24 68/82/50
f 56/83/27 69/84/51 55/52/24
f 57/58/29 70/85/52 56/55/27
f 57/58/29 72/86/53 71/87/54
f 59/88/33 72/86/53 58/60/31
f 60/62/32 73/89/55 59/63/33
f 60/62/32 75/90/56 74/91/57
f 61/65/35 76/92/58 75/90/56
f 62/69/39 77/93/59 76/92/58
f 63/71/41 78/94/60 77/95/59
f 65/76/45 78/94/60 64/74/43
f 66/96/47 79/97/61 65/76/45
f 66/79/47 81/98/62 80/99/63
f 68/82/50 81/98/62 67/78/46
f 55/52/24 82/100/64 68/82/50
f 70/101/52 83/102/65 69/84/51
f 71/87/54 84/103/66 70/85/52
f 71/87/54 86/104/67 85/105/68
f 73/106/55 86/104/67 72/86/53
f 74/91/57 87/107/69 73/89/55
f 75/90/56 88/108/70 74/91/57
f 76/92/58 89/109/71 75/90/56
f 77/93/59 90/110/72 76/92/58
f 77/95/59 92/111/73 91/112/74
f 79/97/61 92/111/73 78/94/60
f 80/113/63 93/114/75 79/97/61
f 80/99/63 95/115/76 94/116/77
f 82/100/64 95/115/76 81/98/62
f 69/84/51 96/117/78 82/100/64
f 84/118/66 97/119/79 83/120/65
f 85/121/68 98/122/80 84/118/66
f 86/104/67 99/123/81 85/105/68
f 87/124/69 100/125/82 86/126/67
f 88/127/70 101/128/83 87/124/69
f 88/108/70 103/129/84 102/130/85
f 89/109/71 104/131/86 103/129/84
f 90/132/72 105/133/87 104/134/86
f 92/111/73 105/135/87 91/112/74
f 93/114/75 106/136/88 92/111/73
f 94/137/77 107/138/89 93/114/75
f 94/139/77 109/140/90 108/141/91
f 95/115/76 110/142/92 109/143/90
f 83/102/65 110/142/92 96/117/78
f 51/144/42 47/145/37 43/146/26
f 100/125/82 104/134/86 108/141/91
s 0
f 112/147/93 113/148/93 111/149/93
f 113/148/94 116/150/94 115/151/94
f 116/150/95 117/152/95 115/151/95
f 117/153/96 120/154/96 119/155/96
f 120/154/97 121/156/97 119/155/97
f 122/157/98 123/158/98 121/156/98
f 123/159/99 126/160/99 125/161/99
f 126/160/100 127/162/100 125/161/100
f 127/162/101 130/163/101 129/164/101
f 130/163/102 131/165/102 129/164/102
f 132/166/103 133/167/103 131/168/103
f 134/169/104 135/170/104 133/167/104
f 136/171/105 128/172/105 120/173/105
f 136/174/106 137/175/106 135/170/106
f 137/176/107 112/147/107 111/149/107
f 117/177/108 125/178/108 133/179/108
s 1
f 139/180/109 152/181/110 151/182/111
f 140/183/112 152/184/110 154/185/113
f 139/180/109 151/182/111 156/186/114
f 139/180/109 156/186/114 158/187/115
f 139/180/109 158/187/115 155/188/116
f 140/183/112 154/185/113 161/189/117
f 141/190/118 153/191/119 163/192/120
f 142/193/121 157/194/122 165/195/123
f 143/196/124 159/197/125 167/198/126
f 144/199/127 160/200/128 169/201/129
f 140/183/112 161/189/117 164/202/130
f 141/190/118 163/192/120 166/203/131
f 142/193/121 165/195/123 168/204/132
f 143/205/124 167/206/126 170/207/133
f 144/208/127 169/209/129 162/210/134
f 145/211/135 171/212/136 176/213/137
f 146/214/138 172/215/139 178/216/140
f 147/217/141 173/218/142 179/219/143
f 148/220/144 174/221/145 180/222/146
f 149/223/147 175/224/148 177/225/149
f 177/226/149 180/227/146 150/228/150
f 177/226/149 175/229/148 180/227/146
f 175/230/148 148/220/144 180/222/146
f 180/227/146 179/231/143 150/228/150
f 180/227/146 174/232/145 179/231/143
f 174/233/145 147/217/141 179/219/143
f 179/219/143 178/234/140 150/235/150
f 179/219/143 173/218/142 178/234/140
f 173/218/142 146/236/138 178/234/140
f 178/237/140 176/238/137 150/228/150
f 178/216/140 172/215/139 176/239/137
f 172/215/139 145/240/135 176/239/137
f 176/238/137 177/226/149 150/228/150
f 176/213/137 171/212/136 177/225/149
f 171/212/136 149/223/147 177/225/149
f 162/210/134 175/224/148 149/223/147
f 162/210/134 169/209/129 175/224/148
f 169/201/129 148/220/144 175/230/148
f 170/207/133 174/221/145 148/220/144
f 170/207/133 167/206/126 174/221/145
f 167/198/126 147/217/141 174/233/145
f 168/204/132 173/218/142 147/217/141
f 168/204/132 165/195/123 173/218/142
f 165/195/123 146/236/138 173/218/142
f 166/203/131 172/215/139 146/214/138
f 166/203/131 163/192/120 172/215/139
f 163/192/120 145/240/135 172/215/139
f 164/202/130 171/212/136 145/211/135
f 164/202/130 161/189/117 171/212/136
f 161/189/117 149/223/147 171/212/136
f 169/201/129 170/207/133 148/220/144
f 169/201/129 160/200/128 170/207/133
f 160/200/128 143/205/124 170/207/133
f 167/198/126 168/204/132 147/217/141
f 167/198/126 159/197/125 168/204/132
f 159/197/125 142/193/121 168/204/132
f 165/195/123 166/241/131 146/236/138
f 165/195/123 157/194/122 166/241/131
f 157/242/122 141/190/118 166/203/131
f 163/192/120 164/243/130 145/240/135
f 163/192/120 153/191/119 164/243/130
f 153/191/119 140/244/112 164/243/130
f 161/189/117 162/210/134 149/223/147
f 161/189/117 154/185/113 162/210/134
f 154/185/113 144/208/127 162/210/134
f 155/245/116 160/200/128 144/199/127
f 155/245/116 158/246/115 160/200/128
f 158/246/115 143/205/124 160/200/128
f 158/247/115 159/197/125 143/196/124
f 158/247/115 156/248/114 159/197/125
f 156/248/114 142/193/121 159/197/125
f 156/248/114 157/194/122 142/193/121
f 156/248/114 151/249/111 157/194/122
f 151/250/111 141/190/118 157/242/122
f 154/185/113 155/251/116 144/208/127
f 154/185/113 152/184/110 155/251/116
f 152/181/110 139/180/109 155/188/116
f 151/250/111 153/191/119 141/190/118
f 151/250/111 152/252/110 153/191/119
f 152/184/110 140/183/112 153/253/119
f 181/254/151 194/255/152 193/256/153
f 182/257/154 194/258/152 196/259/155
f 181/254/151 193/256/153 198/260/156
f 181/254/151 198/260/156 200/261/157
f 181/254/151 200/261/157 197/262/158
f 182/257/154 196/259/155 203/263/159
f 183/264/160 195/265/161 205/266/162
f 184/267/163 199/268/164 207/269/165
f 185/270/166 201/271/167 209/272/168
f 186/273/169 202/274/170 211/275/171
f 182/257/154 203/263/159 206/276/172
f 183/264/160 205/266/162 208/277/173
f 184/278/163 207/279/165 210/280/174
f 185/270/166 209/272/168 212/281/175
f 186/273/169 211/275/171 204/282/176
f 187/283/177 213/284/178 218/285/179
f 188/286/180 214/287/181 220/288/182
f 189/289/183 215/290/184 221/291/185
f 190/292/186 216/293/187 222/294/188
f 191/295/189 217/296/190 219/297/191
f 219/298/191 222/294/188 192/299/192
f 219/300/191 217/301/190 222/302/188
f 217/301/190 190/303/186 222/302/188
f 222/294/188 221/304/185 192/299/192
f 222/294/188 216/293/187 221/304/185
f 216/305/187 189/289/183 221/291/185
f 221/304/185 220/306/182 192/299/192
f 221/304/185 215/307/184 220/306/182
f 215/308/184 188/286/180 220/288/182
f 220/306/182 218/309/179 192/299/192
f 220/288/182 214/287/181 218/310/179
f 214/287/181 187/311/177 218/310/179
f 218/309/179 219/298/191 192/299/192
f 218/285/179 213/284/178 219/297/191
f 213/284/178 191/295/189 219/297/191
f 204/282/176 217/301/190 191/312/189
f 204/282/176 211/275/171 217/301/190
f 211/275/171 190/303/186 217/301/190
f 212/313/175 216/314/187 190/303/186
f 212/281/175 209/272/168 216/305/187
f 209/272/168 189/289/183 216/305/187
f 210/280/174 215/290/184 189/289/183
f 210/280/174 207/279/165 215/290/184
f 207/269/165 188/286/180 215/308/184
f 208/277/173 214/287/181 188/286/180
f 208/277/173 205/266/162 214/287/181
f 205/266/162 187/311/177 214/287/181
f 206/276/172 213/284/178 187/283/177
f 206/276/172 203/263/159 213/284/178
f 203/263/159 191/295/189 213/284/178
f 211/275/171 212/313/175 190/303/186
f 211/275/171 202/274/170 212/313/175
f 202/274/170 185/315/166 212/313/175
f 209/272/168 210/280/174 189/289/183
f 209/272/168 201/271/167 210/280/174
f 201/271/167 184/278/163 210/280/174
f 207/269/165 208/277/173 188/286/180
f 207/269/165 199/268/164 208/277/173
f 199/268/164 183/264/160 208/277/173
f 205/316/162 206/276/172 187/283/177
f 205/316/162 195/317/161 206/276/172
f 195/317/161 182/257/154 206/276/172
f 203/263/159 204/318/176 191/295/189
f 203/263/159 196/259/155 204/318/176
f 196/319/155 186/273/169 204/282/176
f 197/320/158 202/274/170 186/273/169
f 197/320/158 200/321/157 202/274/170
f 200/321/157 185/315/166 202/274/170
f 200/322/157 201/271/167 185/270/166
f 200/322/157 198/323/156 201/271/167
f 198/323/156 184/278/163 201/271/167
f 198/324/156 199/268/164 184/267/163
f 198/260/156 193/256/153 199/325/164
f 193/326/153 183/264/160 199/268/164
f 196/319/155 197/320/158 186/273/169
f 196/319/155 194/327/152 197/320/158
f 194/255/152 181/254/151 197/262/158
f 193/256/153 195/328/161 183/329/160
f 193/256/153 194/255/152 195/328/161
f 194/258/152 182/257/154 195/317/161
f 223/330/193 236/331/194 235/332/195
f 224/333/196 236/331/194 238/334/197
f 223/330/193 235/332/195 240/335/198
f 223/330/193 240/335/198 242/336/199
f 223/330/193 242/336/199 239/337/200
f 224/338/196 238/339/197 245/340/201
f 225/341/202 237/342/203 247/343/204
f 226/344/205 241/345/206 249/346/207
f 227/347/208 243/348/209 251/349/210
f 228/350/211 244/351/212 253/352/213
f 224/353/196 245/354/201 248/355/214
f 225/341/202 247/343/204 250/356/215
f 226/344/205 249/346/207 252/357/216
f 227/347/208 251/349/210 254/358/217
f 228/350/211 253/352/213 246/359/218
f 229/360/219 255/361/220 260/362/221
f 230/363/222 256/364/223 262/365/224
f 231/366/225 257/367/226 263/368/227
f 232/369/228 258/370/229 264/371/230
f 233/372/231 259/373/232 261/374/233
f 261/375/233 264/376/230 234/377/234
f 261/375/233 259/378/232 264/376/230
f 259/378/232 232/379/228 264/376/230
f 264/376/230 263/368/227 234/377/234
f 264/376/230 258/380/229 263/368/227
f 258/380/229 231/366/225 263/368/227
f 263/368/227 262/381/224 234/377/234
f 263/368/227 257/367/226 262/381/224
f 257/382/226 230/363/222 262/365/224
f 262/381/224 260/383/221 234/377/234
f 262/381/224 256/384/223 260/383/221
f 256/385/223 229/360/219 260/362/221
f 260/383/221 261/375/233 234/377/234
f 260/383/221 255/386/220 261/375/233
f 255/387/220 233/372/231 261/374/233
f 246/359/218 259/373/232 233/372/231
f 246/359/218 253/352/213 259/373/232
f 253/352/213 232/388/228 259/373/232
f 254/358/217 258/370/229 232/369/228
f 254/358/217 251/349/210 258/370/229
f 251/349/210 231/389/225 258/370/229
f 252/357/216 257/382/226 231/390/225
f 252/357/216 249/346/207 257/382/226
f 249/346/207 230/363/222 257/382/226
f 250/391/215 256/364/223 230/363/222
f 250/356/215 247/343/204 256/385/223
f 247/343/204 229/360/219 256/385/223
f 248/355/214 255/361/220 229/360/219
f 248/355/214 245/354/201 255/361/220
f 245/340/201 233/372/231 255/387/220
f 253/392/213 254/358/217 232/369/228
f 253/392/213 244/393/212 254/358/217
f 244/393/212 227/347/208 254/358/217
f 251/349/210 252/394/216 231/389/225
f 251/349/210 243/348/209 252/394/216
f 243/395/209 226/344/205 252/357/216
f 249/346/207 250/391/215 230/363/222
f 249/346/207 241/345/206 250/391/215
f 241/345/206 225/396/202 250/391/215
f 247/343/204 248/355/214 229/360/219
f 247/343/204 237/342/203 248/355/214
f 237/342/203 224/353/196 248/355/214
f 245/340/201 246/359/218 233/372/231
f 245/340/201 238/339/197 246/359/218
f 238/339/197 228/350/211 246/359/218
f 239/397/200 244/351/212 228/350/211
f 239/337/200 242/336/199 244/398/212
f 242/399/199 227/347/208 244/393/212
f 242/399/199 243/348/209 227/347/208
f 242/336/199 240/335/198 243/400/209
f 240/401/198 226/344/205 243/395/209
f 240/401/198 241/345/206 226/344/205
f 240/401/198 235/402/195 241/345/206
f 235/402/195 225/396/202 241/345/206
f 238/339/197 239/397/200 228/350/211
f 238/334/197 236/331/194 239/337/200
f 236/331/194 223/330/193 239/337/200
f 235/403/195 237/342/203 225/341/202
f 235/332/195 236/331/194 237/404/203
f 236/405/194 224/353/196 237/342/203
f 265/406/235 278/407/236 277/408/237
f 266/409/238 278/407/236 280/410/239
f 265/406/235 277/408/237 282/411/240
f 265/406/235 282/411/240 284/412/241
f 265/406/235 284/412/241 281/413/242
f 266/414/238 280/415/239 287/416/243
f 267/417/244 279/418/245 289/419/246
f 268/420/247 283/421/248 291/422/249
f 269/423/250 285/424/251 293/425/252
f 270/426/253 286/427/254 295/428/255
f 266/414/238 287/416/243 290/429/256
f 267/417/244 289/419/246 292/430/257
f 268/420/247 291/422/249 294/431/258
f 269/423/250 293/425/252 296/432/259
f 270/426/253 295/428/255 288/433/260
f 271/434/261 297/435/262 302/436/263
f 272/437/264 298/438/265 304/439/266
f 273/440/267 299/441/268 305/442/269
f 274/443/270 300/444/271 306/445/272
f 275/446/273 301/447/274 303/448/275
f 303/449/275 306/445/272 276/450/276
f 303/449/275 301/451/274 306/445/272
f 301/451/274 274/443/270 306/445/272
f 306/445/272 305/452/269 276/450/276
f 306/445/272 300/444/271 305/452/269
f 300/453/271 273/440/267 305/442/269
f 305/452/269 304/454/266 276/450/276
f 305/452/269 299/455/268 304/454/266
f 299/456/268 272/437/264 304/439/266
f 304/454/266 302/457/263 276/450/276
f 304/454/266 298/458/265 302/457/263
f 298/459/265 271/434/261 302/436/263
f 302/457/263 303/449/275 276/450/276
f 302/457/263 297/460/262 303/449/275
f 297/460/262 275/461/273 303/449/275
f 288/433/260 301/447/274 275/446/273
f 288/433/260 295/428/255 301/447/274
f 295/428/255 274/462/270 301/447/274
f 296/432/259 300/453/271 274/463/270
f 296/432/259 293/425/252 300/453/271
f 293/425/252 273/440/267 300/453/271
f 294/431/258 299/456/268 273/464/267
f 294/431/258 291/422/249 299/456/268
f 291/422/249 272/437/264 299/456/268
f 292/465/257 298/438/265 272/437/264
f 292/430/257 289/419/246 298/459/265
f 289/419/246 271/434/261 298/459/265
f 290/429/256 297/435/262 271/434/261
f 290/429/256 287/416/243 297/435/262
f 287/416/243 275/466/273 297/435/262
f 295/428/255 296/467/259 274/462/270
f 295/428/255 286/427/254 296/467/259
f 286/468/254 269/423/250 296/432/259
f 293/425/252 294/469/258 273/440/267
f 293/425/252 285/424/251 294/469/258
f 285/424/251 268/470/247 294/469/258
f 291/422/249 292/465/257 272/437/264
f 291/422/249 283/421/248 292/465/257
f 283/421/248 267/471/244 292/465/257
f 289/419/246 290/429/256 271/434/261
f 289/419/246 279/418/245 290/429/256
f 279/418/245 266/414/238 290/429/256
f 287/472/243 288/433/260 275/446/273
f 287/472/243 280/473/239 288/433/260
f 280/473/239 270/426/253 288/433/260
f 281/413/242 286/474/254 270/475/253
f 281/413/242 284/412/241 286/474/254
f 284/476/241 269/423/250 286/468/254
f 284/476/241 285/424/251 269/423/250
f 284/412/241 282/411/240 285/477/251
f 282/411/240 268/478/247 285/477/251
f 282/411/240 283/479/248 268/478/247
f 282/411/240 277/408/237 283/479/248
f 277/480/237 267/471/244 283/421/248
f 280/473/239 281/481/242 270/426/253
f 280/410/239 278/407/236 281/413/242
f 278/407/236 265/406/235 281/413/242
f 277/482/237 279/418/245 267/417/244
f 277/408/237 278/407/236 279/483/245
f 278/484/236 266/414/238 279/418/245
s 0
f 307/485/277 320/486/277 319/487/277
f 308/488/278 320/489/278 322/490/278
f 307/485/279 319/487/279 324/491/279
f 307/485/280 324/491/280 326/492/280
f 307/485/281 326/492/281 323/493/281
f 308/488/282 322/490/282 329/494/282
f 309/495/283 321/496/283 331/497/283
f 310/498/284 325/499/284 333/500/284
f 311/501/285 327/502/285 335/503/285
f 312/504/286 328/505/286 337/506/286
f 308/488/287 329/494/287 332/507/287
f 309/495/288 331/497/288 334/508/288
f 310/498/289 333/500/289 336/509/289
f 311/501/290 335/503/290 338/510/290
f 312/504/291 337/506/291 330/511/291
f 313/512/292 339/513/292 344/514/292
f 314/515/293 340/516/293 346/517/293
f 315/518/294 341/519/294 347/520/294
f 316/521/295 342/522/295 348/523/295
f 317/524/296 343/525/296 345/526/296
f 345/526/297 348/523/297 318/527/297
f 345/526/298 343/525/298 348/523/298
f 343/525/299 316/521/299 348/523/299
f 348/523/300 347/520/300 318/527/300
f 348/523/301 342/522/301 347/520/301
f 342/522/302 315/518/302 347/520/302
f 347/520/303 346/528/303 318/527/303
f 347/520/304 341/519/304 346/528/304
f 341/519/305 314/529/305 346/528/305
f 346/517/306 344/514/306 318/530/306
f 346/517/307 340/516/307 344/514/307
f 340/516/308 313/512/308 344/514/308
f 344/531/309 345/526/309 318/527/309
f 344/531/310 339/532/310 345/526/310
f 339/532/311 317/524/311 345/526/311
f 330/533/312 343/534/312 317/535/312
f 330/511/313 337/506/313 343/536/313
f 337/506/314 316/537/314 343/536/314
f 338/510/315 342/538/315 316/537/315
f 338/510/316 335/503/316 342/538/316
f 335/539/317 315/540/317 342/541/317
f 336/509/318 341/542/318 315/540/318
f 336/509/319 333/500/319 341/542/319
f 333/500/320 314/543/320 341/542/320
f 334/508/321 340/516/321 314/515/321
f 334/508/322 331/497/322 340/516/322
f 331/497/323 313/512/323 340/516/323
f 332/544/324 339/513/324 313/512/324
f 332/507/325 329/494/325 339/545/325
f 329/494/326 317/535/326 339/545/326
f 337/506/327 338/510/327 316/537/327
f 337/506/328 328/505/328 338/510/328
f 328/505/329 311/501/329 338/510/329
f 335/539/330 336/509/330 315/540/330
f 335/539/331 327/546/331 336/509/331
f 327/546/332 310/498/332 336/509/332
f 333/547/333 334/508/333 314/515/333
f 333/547/334 325/548/334 334/508/334
f 325/548/335 309/495/335 334/508/335
f 331/497/336 332/544/336 313/512/336
f 331/497/337 321/496/337 332/544/337
f 321/549/338 308/488/338 332/507/338
f 329/494/339 330/533/339 317/535/339
f 329/494/340 322/490/340 330/533/340
f 322/490/341 312/550/341 330/533/341
f 323/551/342 328/505/342 312/504/342
f 323/551/343 326/552/343 328/505/343
f 326/552/344 311/501/344 328/505/344
f 326/552/345 327/502/345 311/501/345
f 326/492/346 324/491/346 327/553/346
f 324/554/347 310/498/347 327/546/347
f 324/554/348 325/499/348 310/498/348
f 324/491/349 319/487/349 325/555/349
f 319/556/350 309/495/350 325/548/350
f 322/490/351 323/557/351 312/550/351
f 322/490/352 320/489/352 323/557/352
f 320/486/353 307/485/353 323/493/353
f 319/556/354 321/496/354 309/495/354
f 319/487/355 320/486/355 321/558/355
f 320/486/356 308/559/356 321/558/356
f 2/1/1 4/4/1 3/2/1
f 4/4/2 6/6/2 5/5/2
f 6/6/3 8/8/3 7/7/3
f 8/8/4 10/560/4 9/9/4
f 10/10/5 12/13/5 11/11/5
f 12/13/6 14/15/6 13/14/6
f 14/15/7 16/17/7 15/16/7
f 16/17/8 18/19/8 17/18/8
f 18/19/9 20/561/9 19/20/9
f 20/21/10 22/24/10 21/22/10
f 22/24/11 24/26/11 23/25/11
f 24/26/12 26/28/12 25/27/12
f 26/28/13 28/30/13 27/29/13
f 28/30/14 30/562/14 29/31/14
f 30/32/15 32/35/15 31/33/15
f 32/35/16 34/37/16 33/36/16
f 34/37/17 36/39/17 35/38/17
f 36/39/18 38/44/18 37/40/18
f 6/43/19 4/563/19 2/564/19
f 2/564/19 40/565/19 38/566/19
f 38/566/19 36/567/19 34/568/19
f 34/568/19 32/569/19 30/41/19
f 30/41/19 28/570/19 26/571/19
f 26/571/19 24/572/19 22/573/19
f 22/573/19 20/574/19 18/575/19
f 18/575/19 16/576/19 14/42/19
f 14/42/19 12/577/19 10/578/19
f 10/578/19 8/579/19 6/43/19
f 6/43/19 2/564/19 38/566/19
f 38/566/19 34/568/19 30/41/19
f 30/41/19 26/571/19 22/573/19
f 22/573/19 18/575/19 14/42/19
f 14/42/19 10/578/19 6/43/19
f 6/43/19 38/566/19 30/41/19
f 30/41/19 22/573/19 14/42/19
f 38/44/20 40/580/20 39/45/20
f 40/46/21 2/1/21 1/3/21
f 39/50/22 1/581/22 3/582/22
f 3/582/22 5/583/22 7/584/22
f 7/584/22 9/585/22 11/586/22
f 11/586/22 13/587/22 15/48/22
f 15/48/22 17/588/22 19/589/22
f 19/589/22 21/590/22 23/591/22
f 23/591/22 25/592/22 27/593/22
f 27/593/22 29/594/22 31/49/22
f 31/49/22 33/595/22 35/596/22
f 35/596/22 37/597/22 39/50/22
f 39/50/22 3/582/22 7/584/22
f 7/584/22 11/586/22 15/48/22
f 15/48/22 19/589/22 23/591/22
f 23/591/22 27/593/22 31/49/22
f 31/49/22 35/596/22 39/50/22
f 39/50/22 7/584/22 15/48/22
f 15/48/22 23/591/22 31/49/22
s 1
f 42/51/23 56/83/27 55/52/24
f 43/54/26 57/58/29 56/55/27
f 44/57/28 58/60/31 57/58/29
f 45/59/30 59/88/33 58/60/31
f 45/61/30 46/64/34 60/62/32
f 46/64/34 47/67/37 61/65/35
f 48/66/36 62/69/39 61/65/35
f 49/68/38 63/598/41 62/69/39
f 50/70/40 64/74/43 63/71/41
f 51/73/42 65/76/45 64/74/43
f 52/75/44 66/96/47 65/76/45
f 52/77/44 53/81/49 67/78/46
f 54/80/48 68/82/50 67/78/46
f 54/80/48 41/53/25 55/52/24
f 56/83/27 70/101/52 69/84/51
f 57/58/29 71/87/54 70/85/52
f 57/58/29 58/60/31 72/86/53
f 59/88/33 73/106/55 72/86/53
f 60/62/32 74/91/57 73/89/55
f 60/62/32 61/65/35 75/90/56
f 61/65/35 62/69/39 76/92/58
f 62/69/39 63/598/41 77/93/59
f 63/71/41 64/74/43 78/94/60
f 65/76/45 79/97/61 78/94/60
f 66/96/47 80/113/63 79/97/61
f 66/79/47 67/78/46 81/98/62
f 68/82/50 82/100/64 81/98/62
f 55/52/24 69/84/51 82/100/64
f 70/101/52 84/599/66 83/102/65
f 71/87/54 85/105/68 84/103/66
f 71/87/54 72/86/53 86/104/67
f 73/106/55 87/600/69 86/104/67
f 74/91/57 88/108/70 87/107/69
f 75/90/56 89/109/71 88/108/70
f 76/92/58 90/110/72 89/109/71
f 77/93/59 91/601/74 90/110/72
f 77/95/59 78/94/60 92/111/73
f 79/97/61 93/114/75 92/111/73
f 80/113/63 94/137/77 93/114/75
f 80/99/63 81/98/62 95/115/76
f 82/100/64 96/117/78 95/115/76
f 69/84/51 83/102/65 96/117/78
f 84/118/66 98/122/80 97/119/79
f 85/121/68 99/602/81 98/122/80
f 86/104/67 100/603/82 99/123/81
f 87/124/69 101/128/83 100/125/82
f 88/127/70 102/604/85 101/128/83
f 88/108/70 89/109/71 103/129/84
f 89/109/71 90/110/72 104/131/86
f 90/132/72 91/605/74 105/133/87
f 92/111/73 106/136/88 105/135/87
f 93/114/75 107/138/89 106/136/88
f 94/137/77 108/606/91 107/138/89
f 94/139/77 95/607/76 109/140/90
f 95/115/76 96/117/78 110/142/92
f 83/102/65 97/608/79 110/142/92
f 41/609/25 54/610/48 53/611/49
f 53/611/49 52/612/44 51/144/42
f 51/144/42 50/613/40 49/614/38
f 49/614/38 48/615/36 47/145/37
f 47/145/37 46/616/34 45/617/30
f 45/617/30 44/618/28 43/146/26
f 43/146/26 42/619/23 41/609/25
f 41/609/25 53/611/49 51/144/42
f 51/144/42 49/614/38 47/145/37
f 47/145/37 45/617/30 43/146/26
f 43/146/26 41/609/25 51/144/42
f 110/620/92 97/119/79 98/122/80
f 98/122/80 99/602/81 100/125/82
f 100/125/82 101/128/83 102/604/85
f 102/604/85 103/621/84 104/134/86
f 104/134/86 105/133/87 106/622/88
f 106/622/88 107/623/89 108/141/91
f 108/141/91 109/140/90 110/620/92
f 110/620/92 98/122/80 100/125/82
f 100/125/82 102/604/85 104/134/86
f 104/134/86 106/622/88 108/141/91
f 108/141/91 110/620/92 100/125/82
s 0
f 112/147/93 114/624/93 113/148/93
f 113/148/94 114/624/94 116/150/94
f 116/150/95 118/625/95 117/152/95
f 117/153/96 118/626/96 120/154/96
f 120/154/97 122/157/97 121/156/97
f 122/157/98 124/627/98 123/158/98
f 123/159/99 124/628/99 126/160/99
f 126/160/100 128/629/100 127/162/100
f 127/162/101 128/629/101 130/163/101
f 130/163/102 132/630/102 131/165/102
f 132/166/103 134/169/103 133/167/103
f 134/169/104 136/174/104 135/170/104
f 116/631/105 114/632/105 112/633/105
f 112/633/105 138/634/105 136/171/105
f 136/171/105 134/635/105 132/636/105
f 132/636/105 130/637/105 128/172/105
f 128/172/105 126/638/105 124/639/105
f 124/639/105 122/640/105 120/173/105
f 120/173/105 118/641/105 116/631/105
f 116/631/105 112/633/105 136/171/105
f 136/171/105 132/636/105 128/172/105
f 128/172/105 124/639/105 120/173/105
f 120/173/105 116/631/105 136/171/105
f 136/174/106 138/642/106 137/175/106
f 137/176/107 138/643/107 112/147/107
f 137/644/108 111/645/108 113/646/108
f 113/646/108 115/647/108 117/177/108
f 117/177/108 119/648/108 121/649/108
f 121/649/108 123/650/108 125/178/108
f 125/178/108 127/651/108 129/652/108
f 129/652/108 131/653/108 133/179/108
f 133/179/108 135/654/108 137/644/108
f 137/644/108 113/646/108 117/177/108
f 117/177/108 121/649/108 125/178/108
f 125/178/108 129/652/108 133/179/108
f 133/179/108 137/644/108 117/177/108
