# Blender 4.5.13 LTS
# www.blender.org
o charcoal
v 0.000000 0.000000 -0.300000
v 0.000000 0.050000 -0.300000
v 0.092705 0.000000 -0.285317
v 0.092705 0.050000 -0.285317
v 0.176336 0.000000 -0.242705
v 0.176336 0.050000 -0.242705
v 0.242705 0.000000 -0.176336
v 0.242705 0.050000 -0.176336
v 0.285317 0.000000 -0.092705
v 0.285317 0.050000 -0.092705
v 0.300000 0.000000 0.000000
v 0.300000 0.050000 0.000000
v 0.285317 0.000000 0.092705
v 0.285317 0.050000 0.092705
v 0.242705 0.000000 0.176336
v 0.242705 0.050000 0.176336
v 0.176336 0.000000 0.242705
v 0.176336 0.050000 0.242705
v 0.092705 0.000000 0.285317
v 0.092705 0.050000 0.285317
v 0.000000 0.000000 0.300000
v 0.000000 0.050000 0.300000
v -0.092705 0.000000 0.285317
v -0.092705 0.050000 0.285317
v -0.176336 0.000000 0.242705
v -0.176336 0.050000 0.242705
v -0.242705 0.000000 0.176336
v -0.242705 0.050000 0.176336
v -0.285317 0.000000 0.092705
v -0.285317 0.050000 0.092705
v -0.300000 0.000000 0.000000
v -0.300000 0.050000 0.000000
v -0.285317 0.000000 -0.092705
v -0.285317 0.050000 -0.092705
v -0.242705 0.000000 -0.176336
v -0.242705 0.050000 -0.176336
v -0.176336 0.000000 -0.242705
v -0.176336 0.050000 -0.242705
v -0.092705 0.000000 -0.285317
v -0.092705 0.050000 -0.285317
v 0.230000 0.040000 0.001573
v 0.207223 0.040461 -0.098219
v 0.143403 0.040831 -0.178246
v 0.051180 0.041037 -0.222658
v -0.051180 0.041037 -0.222658
v -0.143403 0.040831 -0.178246
v -0.207223 0.040461 -0.098219
v -0.230000 0.040000 0.001573
v -0.207223 0.039538 0.101365
v -0.143403 0.039168 0.181392
v -0.051180 0.038962 0.225804
v 0.051180 0.038962 0.225804
v 0.143403 0.039168 0.181392
v 0.207223 0.039538 0.101365
v 0.210000 0.349996 0.003007
v 0.189203 0.350418 -0.088108
v 0.130933 0.350756 -0.161176
v 0.046729 0.350943 -0.201726
v -0.046729 0.350943 -0.201726
v -0.130933 0.350756 -0.161176
v -0.189203 0.350418 -0.088108
v -0.210000 0.349996 0.003007
v -0.189203 0.349575 0.094122
v -0.130933 0.349237 0.167190
v -0.046729 0.349049 0.207740
v 0.046729 0.349049 0.207740
v 0.130933 0.349237 0.167190
v 0.189203 0.349575 0.094122
v 0.180000 0.619993 0.004256
v 0.162174 0.620355 -0.073842
v 0.112228 0.620644 -0.136472
v 0.040054 0.620805 -0.171229
v -0.040054 0.620805 -0.171229
v -0.112228 0.620644 -0.136472
v -0.162174 0.620355 -0.073842
v -0.180000 0.619993 0.004256
v -0.162174 0.619632 0.082354
v -0.112228 0.619342 0.144984
v -0.040054 0.619181 0.179741
v 0.040054 0.619181 0.179741
v 0.112228 0.619342 0.144984
v 0.162174 0.619632 0.082354
v 0.170000 0.779992 0.004996
v 0.153165 0.780333 -0.068763
v 0.105993 0.780607 -0.127914
v 0.037829 0.780758 -0.160740
v -0.037829 0.780758 -0.160740
v -0.105993 0.780607 -0.127914
v -0.153165 0.780333 -0.068763
v -0.170000 0.779992 0.004996
v -0.153165 0.779650 0.078756
v -0.105993 0.779377 0.137906
v -0.037829 0.779225 0.170732
v 0.037829 0.779225 0.170732
v 0.105993 0.779377 0.137906
v 0.153165 0.779650 0.078756
v 0.100000 0.859991 0.005366
v 0.090097 0.860192 -0.038021
v 0.062349 0.860352 -0.072816
v 0.022252 0.860442 -0.092125
v -0.022252 0.860442 -0.092125
v -0.062349 0.860352 -0.072816
v -0.090097 0.860192 -0.038021
v -0.100000 0.859991 0.005366
v -0.090097 0.859790 0.048754
v -0.062349 0.859629 0.083549
v -0.022252 0.859540 0.102858
v 0.022252 0.859540 0.102858
v 0.062349 0.859629 0.083549
v 0.090097 0.859790 0.048754
v 0.000000 0.440972 -0.208379
v 0.000000 0.490971 -0.208147
v 0.091116 0.440875 -0.187582
v 0.091116 0.490875 -0.187351
v 0.164185 0.440606 -0.129312
v 0.164185 0.490605 -0.129081
v 0.204735 0.440216 -0.045110
v 0.204735 0.490216 -0.044878
v 0.204735 0.439784 0.048348
v 0.204735 0.489783 0.048579
v 0.164185 0.439394 0.132551
v 0.164185 0.489394 0.132782
v 0.091116 0.439125 0.190821
v 0.091116 0.489124 0.191052
v 0.000000 0.439028 0.211617
v 0.000000 0.489028 0.211848
v -0.091116 0.439125 0.190821
v -0.091116 0.489124 0.191052
v -0.164185 0.439394 0.132551
v -0.164185 0.489394 0.132782
v -0.204735 0.439784 0.048348
v -0.204735 0.489783 0.048579
v -0.204735 0.440216 -0.045110
v -0.204735 0.490216 -0.044878
v -0.164185 0.440606 -0.129312
v -0.164185 0.490605 -0.129081
v -0.091116 0.440875 -0.187582
v -0.091116 0.490875 -0.187351
v -0.168870 0.479488 -0.081185
v -0.097531 0.535847 -0.065064
v -0.127565 0.523060 -0.001160
v -0.205636 0.541646 -0.031213
v -0.215591 0.561600 -0.110446
v -0.149774 0.552435 -0.134981
v -0.082895 0.639286 -0.004646
v -0.150209 0.643967 0.012871
v -0.206829 0.669484 -0.050660
v -0.171666 0.674305 -0.113187
v -0.093859 0.658883 -0.085331
v -0.129884 0.728467 -0.033594
v -0.149028 0.487278 -0.040976
v -0.129107 0.484986 -0.076806
v -0.103828 0.514877 -0.029522
v -0.116325 0.531003 -0.107774
v -0.161294 0.500613 -0.114826
v -0.193370 0.492334 -0.057012
v -0.169384 0.521976 -0.009803
v -0.199272 0.506018 -0.102190
v -0.223458 0.541826 -0.074774
v -0.190329 0.548645 -0.135101
v -0.088989 0.594018 -0.076834
v -0.117952 0.606321 -0.117471
v -0.098702 0.579998 0.004472
v -0.080637 0.584116 -0.031873
v -0.182090 0.593671 0.001249
v -0.136913 0.582832 0.020946
v -0.221984 0.616484 -0.085419
v -0.211415 0.606021 -0.039341
v -0.162494 0.616390 -0.133662
v -0.203435 0.620836 -0.123380
v -0.075783 0.658774 -0.041353
v -0.109929 0.651027 0.018310
v -0.180898 0.663307 -0.012617
v -0.196978 0.686610 -0.087277
v -0.130805 0.677264 -0.106026
v -0.101151 0.693174 -0.014488
v -0.108367 0.703353 -0.059242
v -0.138988 0.696910 -0.002885
v -0.170980 0.715492 -0.039415
v -0.150978 0.713427 -0.075430
v 0.137013 0.468236 -0.057182
v 0.185153 0.537303 -0.108290
v 0.215361 0.536630 -0.045437
v 0.148606 0.541644 0.000757
v 0.071177 0.547118 -0.033518
v 0.097636 0.547436 -0.100598
v 0.224543 0.650010 -0.081443
v 0.201609 0.651807 -0.016312
v 0.116235 0.660221 -0.009988
v 0.080842 0.667052 -0.071601
v 0.151411 0.659049 -0.117756
v 0.163344 0.735385 -0.059144
v 0.182407 0.483858 -0.049796
v 0.163609 0.482216 -0.088158
v 0.208204 0.527340 -0.079144
v 0.139525 0.534109 -0.111083
v 0.112286 0.495566 -0.082276
v 0.141789 0.491230 -0.023669
v 0.190436 0.524297 -0.014110
v 0.099440 0.497020 -0.044085
v 0.104881 0.536407 -0.010118
v 0.077511 0.541399 -0.069130
v 0.170312 0.597553 -0.118722
v 0.119354 0.602580 -0.118140
v 0.234807 0.591595 -0.064469
v 0.215074 0.593269 -0.101352
v 0.181772 0.597325 0.004044
v 0.223233 0.593034 -0.023911
v 0.082064 0.607027 -0.013047
v 0.128512 0.602589 0.005931
v 0.080990 0.606565 -0.090413
v 0.069245 0.608003 -0.052132
v 0.196505 0.665546 -0.107656
v 0.223197 0.659174 -0.047062
v 0.160278 0.664655 -0.006208
v 0.088938 0.676227 -0.036124
v 0.112898 0.669460 -0.098557
v 0.202627 0.707190 -0.072790
v 0.158059 0.706758 -0.091993
v 0.188523 0.706676 -0.033505
v 0.137619 0.707152 -0.030850
v 0.118528 0.712790 -0.066262
v -0.001338 0.819238 -0.057833
v 0.066852 0.874975 -0.091282
v 0.060165 0.874340 -0.005087
v -0.029906 0.876744 0.006941
v -0.082274 0.875360 -0.069236
v -0.019575 0.875935 -0.131254
v 0.081567 0.964256 -0.045316
v 0.019524 0.963951 0.016613
v -0.064218 0.963251 -0.024509
v -0.057931 0.963964 -0.107426
v 0.031542 0.965622 -0.124899
v 0.001336 1.020571 -0.056616
v 0.035492 0.832392 -0.026139
v 0.039676 0.832725 -0.078206
v 0.072792 0.868036 -0.046976
v 0.028940 0.865938 -0.122694
v -0.012259 0.835458 -0.100994
v -0.019108 0.834245 -0.018273
v 0.017185 0.867231 0.011929
v -0.046594 0.838080 -0.064261
v -0.064667 0.868672 -0.025485
v -0.057952 0.869175 -0.106932
v 0.056300 0.919601 -0.114863
v 0.006528 0.920401 -0.137825
v 0.081527 0.918693 -0.020107
v 0.084383 0.918958 -0.070143
v -0.006421 0.919606 0.022054
v 0.047665 0.918912 0.018063
v -0.085012 0.921050 -0.044209
v -0.056610 0.920401 0.000731
v -0.047587 0.921086 -0.132388
v -0.083201 0.921334 -0.095104
v 0.064467 0.971170 -0.088865
v 0.057243 0.970204 -0.008124
v -0.028519 0.973275 0.007292
v -0.072823 0.971986 -0.067477
v -0.017111 0.972543 -0.126082
v 0.047044 1.002710 -0.050120
v 0.019506 1.007539 -0.096986
v 0.011899 1.002056 -0.014741
v -0.038753 1.005244 -0.036731
v -0.034454 1.005047 -0.087400
v 0.026245 0.823766 0.009680
v -0.088516 0.877324 0.038296
v -0.057317 0.867369 -0.083399
v 0.069788 0.892895 -0.089495
v 0.119435 0.917862 0.029550
v 0.018061 0.910551 0.102818
v -0.119816 0.982240 -0.044116
v -0.018925 0.991338 -0.122534
v 0.092572 1.026005 -0.054830
v 0.056129 1.030918 0.067372
v -0.071436 1.008454 0.076989
v -0.025700 1.073613 -0.023777
v -0.018631 0.822909 -0.042967
v -0.037548 0.829082 0.030618
v -0.086720 0.857677 -0.025362
v -0.041167 0.882798 0.087381
v 0.028250 0.844958 0.074962
v 0.055860 0.842846 -0.045014
v 0.006943 0.871643 -0.096059
v 0.082918 0.858025 0.023464
v 0.104098 0.900622 -0.033017
v 0.083877 0.905090 0.086083
v -0.097337 0.940277 0.071291
v -0.028889 0.958994 0.104792
v -0.104418 0.919285 -0.074480
v -0.117089 0.926395 -0.001712
v 0.031302 0.940255 -0.128598
v -0.044536 0.925780 -0.118948
v 0.114963 0.973177 -0.012637
v 0.095088 0.959498 -0.083925
v 0.042748 0.973248 0.100014
v 0.107696 0.981680 0.062142
v -0.115801 1.004929 0.021469
v -0.081213 0.993483 -0.097568
v 0.040003 1.015303 -0.099156
v 0.089109 1.044866 0.011413
v -0.006905 1.027932 0.081128
v -0.080682 1.039496 -0.037085
v -0.055488 1.056441 0.030314
v -0.025425 1.044540 -0.081194
v 0.038399 1.073656 -0.045923
v 0.018564 1.076633 0.028389
v 0.010196 0.511309 0.201353
v 0.051677 0.560180 0.087182
v 0.096339 0.562780 0.227245
v 0.033374 0.564100 0.334145
v -0.059994 0.573930 0.251242
v -0.049259 0.570845 0.103755
v 0.094784 0.663070 0.152095
v 0.093205 0.671956 0.301730
v -0.007119 0.671213 0.296586
v -0.057542 0.678121 0.172326
v 0.008433 0.668344 0.083987
v 0.029708 0.727633 0.198660
v 0.056524 0.526434 0.215803
v 0.031788 0.515077 0.136205
v 0.079022 0.557305 0.157568
v -0.000337 0.562990 0.090605
v -0.026049 0.522636 0.145530
v 0.021231 0.513952 0.279553
v 0.071289 0.557617 0.285816
v -0.035332 0.519031 0.232140
v -0.020023 0.560709 0.306955
v -0.076369 0.558532 0.171195
v 0.031328 0.617110 0.049891
v -0.033649 0.623007 0.052845
v 0.111463 0.611593 0.187378
v 0.091064 0.612306 0.096849
v 0.065924 0.617426 0.325967
v 0.103596 0.613324 0.269456
v -0.043886 0.626917 0.292733
v 0.010664 0.622382 0.323712
v -0.072915 0.627420 0.122802
v -0.065354 0.627845 0.211779
v 0.060539 0.680056 0.091664
v 0.098202 0.669880 0.223375
v 0.042021 0.681731 0.318455
v -0.041873 0.685724 0.244483
v -0.041135 0.694359 0.097710
v 0.070745 0.712599 0.170524
v 0.018861 0.718155 0.126368
v 0.064639 0.714383 0.252803
v 0.009332 0.714955 0.257734
v -0.022813 0.729678 0.181476
vn 0.1564 -0.0000 -0.9877
vn 0.4540 -0.0000 -0.8910
vn 0.7071 -0.0000 -0.7071
vn 0.8910 -0.0000 -0.4540
vn 0.9877 -0.0000 -0.1564
vn 0.9877 -0.0000 0.1564
vn 0.8910 -0.0000 0.4540
vn 0.7071 -0.0000 0.7071
vn 0.4540 -0.0000 0.8910
vn 0.1564 -0.0000 0.9877
vn -0.1564 -0.0000 0.9877
vn -0.4540 -0.0000 0.8910
vn -0.7071 -0.0000 0.7071
vn -0.8910 -0.0000 0.4540
vn -0.9877 -0.0000 0.1564
vn -0.9877 -0.0000 -0.1564
vn -0.8910 -0.0000 -0.4540
vn -0.7071 -0.0000 -0.7071
vn -0.0000 1.0000 -0.0000
vn -0.4540 -0.0000 -0.8910
vn -0.1564 -0.0000 -0.9877
vn -0.0000 -1.0000 -0.0000
vn 0.6951 -0.6346 -0.3377
vn 0.9962 0.0871 0.0004
vn 0.7716 -0.6361 -0.0029
vn 0.4811 -0.6334 -0.6062
vn 0.8975 0.0891 -0.4318
vn 0.1717 -0.6327 -0.7551
vn 0.6211 0.0907 -0.7784
vn -0.1717 -0.6327 -0.7552
vn 0.2217 0.0916 -0.9708
vn -0.4811 -0.6334 -0.6062
vn -0.2217 0.0916 -0.9708
vn -0.6951 -0.6346 -0.3377
vn -0.6211 0.0907 -0.7784
vn -0.9962 0.0871 0.0004
vn -0.8975 0.0891 -0.4318
vn -0.7715 -0.6362 -0.0029
vn -0.8975 0.0851 0.4326
vn -0.4810 -0.6390 0.6003
vn -0.6952 -0.6377 0.3318
vn -0.2217 0.0827 0.9716
vn -0.6211 0.0835 0.7793
vn 0.1717 -0.6396 0.7493
vn -0.1717 -0.6396 0.7493
vn 0.4811 -0.6389 0.6003
vn 0.2217 0.0827 0.9716
vn 0.6951 -0.6377 0.3318
vn 0.6211 0.0835 0.7793
vn 0.8975 0.0851 0.4326
vn 0.9962 0.0867 0.0004
vn 0.8976 0.0887 -0.4318
vn 0.6211 0.0903 -0.7785
vn 0.2217 0.0912 -0.9708
vn -0.2217 0.0912 -0.9708
vn -0.6211 0.0903 -0.7785
vn -0.8976 0.0887 -0.4318
vn -0.9962 0.0867 0.0004
vn -0.8976 0.0847 0.4326
vn -0.6211 0.0831 0.7793
vn 0.2217 0.0822 0.9716
vn -0.2217 0.0822 0.9716
vn 0.6211 0.0831 0.7793
vn 0.8976 0.0847 0.4326
vn 0.9308 0.3656 0.0017
vn 0.8386 0.3674 -0.4022
vn 0.5803 0.3689 -0.7260
vn 0.2071 0.3698 -0.9057
vn -0.5803 0.3689 -0.7260
vn -0.2071 0.3698 -0.9058
vn -0.8386 0.3674 -0.4022
vn -0.8386 0.3637 0.4055
vn -0.9308 0.3656 0.0017
vn -0.5803 0.3622 0.7294
vn -0.2071 0.3614 0.9091
vn 0.2071 0.3614 0.9091
vn 0.5803 0.3622 0.7294
vn 0.8386 0.3637 0.4055
vn 0.4597 0.8881 0.0041
vn 0.2866 0.8897 -0.3553
vn 0.4142 0.8890 -0.1954
vn 0.1023 0.8901 -0.4441
vn -0.2866 0.8897 -0.3553
vn -0.1023 0.8901 -0.4441
vn -0.4597 0.8880 0.0041
vn -0.4142 0.8890 -0.1954
vn -0.4142 0.8871 0.2036
vn -0.1023 0.8860 0.4523
vn -0.2866 0.8864 0.3635
vn 0.1023 0.8860 0.4523
vn 0.4142 0.8871 0.2036
vn 0.2866 0.8864 0.3635
vn 0.2225 0.0045 -0.9749
vn 0.6235 0.0036 -0.7818
vn 0.9010 0.0020 -0.4339
vn 1.0000 -0.0000 -0.0000
vn 0.9010 -0.0020 0.4339
vn 0.6235 -0.0036 0.7818
vn 0.2225 -0.0045 0.9749
vn -0.2225 -0.0045 0.9749
vn -0.6235 -0.0036 0.7818
vn -0.9010 -0.0020 0.4339
vn -1.0000 -0.0000 -0.0000
vn -0.9010 0.0020 -0.4339
vn -0.0000 1.0000 0.0046
vn -0.6235 0.0036 -0.7818
vn -0.2225 0.0045 -0.9749
vn -0.0000 -1.0000 -0.0046
vn -0.1705 -0.9678 -0.1852
vn 0.5162 -0.8319 -0.2035
vn 0.0518 -0.8913 0.4504
vn 0.9166 -0.3377 -0.2138
vn 0.7026 -0.3378 -0.6263
vn -0.6125 -0.7394 0.2793
vn -0.6498 -0.6065 -0.4582
vn 0.0684 -0.6529 -0.7543
vn 0.9119 -0.0903 -0.4004
vn 0.2302 -0.5516 0.8017
vn 0.7442 -0.5932 0.3071
vn 0.6673 -0.2252 0.7099
vn -0.7881 -0.2462 0.5641
vn -0.3849 -0.4922 0.7807
vn -0.6158 -0.0168 0.7877
vn -0.8657 -0.1088 -0.4885
vn -0.9703 -0.2396 0.0331
vn -0.9817 0.1536 -0.1125
vn 0.2827 -0.1654 -0.9448
vn -0.3784 -0.2141 -0.9005
vn 0.0702 0.1886 -0.9795
vn 0.9756 -0.1909 0.1082
vn -0.0370 -0.1553 0.9872
vn -0.8960 0.0745 0.4378
vn -0.6164 0.2249 -0.7546
vn 0.6054 0.0639 -0.7933
vn 0.8569 0.0881 0.5078
vn 0.9650 0.2587 -0.0431
vn 0.6567 0.5942 0.4644
vn -0.3521 0.1994 0.9145
vn 0.3113 0.2311 0.9218
vn -0.1362 0.5577 0.8188
vn -0.8912 0.3624 0.2727
vn -0.6536 0.2966 0.6963
vn -0.5508 0.7951 0.2537
vn -0.1759 0.5291 -0.8301
vn -0.6869 0.6211 -0.3774
vn -0.0276 0.8652 -0.5006
vn 0.7792 0.2728 -0.5643
vn 0.3641 0.4944 -0.7893
vn 0.6576 0.6752 -0.3341
vn 0.2048 0.9601 0.1905
vn -0.1749 -0.9837 0.0421
vn 0.2389 -0.7462 -0.6213
vn 0.5771 -0.7911 0.2028
vn 0.3958 -0.3041 -0.8665
vn -0.1258 -0.3003 -0.9455
vn -0.0596 -0.6693 0.7406
vn -0.6915 -0.6745 0.2586
vn -0.5415 -0.6185 -0.5695
vn 0.1691 -0.0399 -0.9848
vn 0.8879 -0.4060 0.2163
vn 0.8093 -0.4509 -0.3766
vn 0.9903 -0.0996 -0.0965
vn 0.0034 -0.2723 0.9622
vn 0.5118 -0.4276 0.7451
vn 0.3101 0.0122 0.9506
vn -0.9010 -0.2688 0.3406
vn -0.4211 -0.3325 0.8439
vn -0.7109 0.0939 0.6970
vn -0.5881 -0.2498 -0.7692
vn -0.8952 -0.3026 -0.3273
vn -0.8031 0.0529 -0.5934
vn 0.6766 -0.0811 -0.7319
vn 0.8141 -0.0501 0.5786
vn -0.1738 0.0462 0.9837
vn -0.9966 0.0813 0.0089
vn -0.3238 0.0182 -0.9460
vn 0.9012 0.2257 -0.3700
vn 0.4580 0.3064 -0.8345
vn 0.6942 0.6655 -0.2742
vn 0.5604 0.2682 0.7836
vn 0.9066 0.3073 0.2892
vn 0.4758 0.6148 0.6290
vn -0.3243 0.3550 0.8768
vn 0.0884 0.3448 0.9345
vn -0.2589 0.6803 0.6857
vn -0.8617 0.3952 -0.3183
vn -0.7487 0.5021 0.4328
vn -0.5602 0.8044 -0.1978
vn -0.0740 0.2769 -0.9581
vn -0.4810 0.3939 -0.7833
vn -0.0325 0.6402 -0.7675
vn 0.0581 0.9983 0.0073
vn -0.0578 -0.9982 -0.0180
vn 0.4969 -0.8146 -0.2991
vn 0.4098 -0.8238 0.3917
vn 0.8080 -0.3714 -0.4575
vn 0.3644 -0.4478 -0.8165
vn -0.2857 -0.7945 0.5359
vn -0.5698 -0.8196 -0.0599
vn -0.1483 -0.8135 -0.5623
vn 0.6714 0.0007 -0.7411
vn 0.6708 -0.4240 0.6084
vn 0.8789 -0.4724 0.0668
vn 0.9185 -0.0262 0.3946
vn -0.3873 -0.3585 0.8494
vn 0.1060 -0.4615 0.8808
vn -0.1588 -0.0247 0.9870
vn -0.9035 -0.4219 -0.0755
vn -0.7432 -0.4643 0.4817
vn -0.9621 0.0513 0.2679
vn -0.1674 -0.3866 -0.9069
vn -0.6200 -0.5008 -0.6040
vn -0.4566 0.0296 -0.8892
vn 0.9683 -0.0304 -0.2479
vn 0.4541 -0.0044 0.8909
vn -0.6581 0.0018 0.7529
vn -0.9113 0.0517 -0.4085
vn 0.1435 0.0121 -0.9896
vn 0.9098 0.4057 0.0878
vn 0.7699 0.4483 -0.4543
vn 0.5690 0.8173 0.0910
vn 0.1594 0.4036 0.9009
vn 0.6189 0.5004 0.6054
vn 0.1309 0.8087 0.5734
vn -0.7943 0.3895 0.4663
vn -0.3738 0.4634 0.8034
vn -0.5017 0.8082 0.3084
vn -0.6524 0.4484 -0.6111
vn -0.8622 0.5025 -0.0646
vn -0.4357 0.8118 -0.3889
vn 0.3932 0.3593 -0.8463
vn -0.1734 0.4726 -0.8641
vn 0.2555 0.8171 -0.5168
vn 0.0163 0.9986 0.0499
vn 0.2454 -0.9652 0.0907
vn -0.3469 -0.8832 0.3156
vn -0.1263 -0.9329 -0.3373
vn -0.7555 -0.5295 0.3859
vn -0.3573 -0.4472 0.8200
vn 0.4942 -0.7894 -0.3641
vn 0.6980 -0.6993 0.1543
vn 0.1827 -0.7347 0.6533
vn -0.7510 -0.1039 0.6521
vn -0.4173 -0.6173 -0.6670
vn -0.7325 -0.6695 -0.1233
vn -0.8174 -0.2555 -0.5164
vn 0.5825 -0.4598 -0.6703
vn 0.0816 -0.6120 -0.7867
vn 0.2579 -0.0857 -0.9624
vn 0.9596 -0.2336 0.1570
vn 0.8912 -0.3662 -0.2678
vn 0.9833 0.1418 -0.1144
vn 0.0616 -0.2037 0.9771
vn 0.5885 -0.2914 0.7541
vn 0.2460 0.2133 0.9455
vn -0.9713 -0.2247 0.0784
vn -0.3181 -0.2185 -0.9225
vn 0.7919 0.0520 -0.6084
vn 0.8067 0.2653 0.5280
vn -0.1999 0.0831 0.9763
vn -0.9375 0.2230 -0.2670
vn -0.8866 0.3981 0.2354
vn -0.6254 0.7378 -0.2540
vn -0.1068 0.3405 -0.9341
vn -0.5955 0.3462 -0.7249
vn -0.2043 0.7402 -0.6407
vn 0.7610 0.4937 -0.4209
vn 0.3242 0.4943 -0.8066
vn 0.2650 0.8941 -0.3612
vn 0.3788 0.6041 0.7011
vn 0.7245 0.6710 0.1576
vn 0.1022 0.9297 0.3538
vn -0.4928 0.4464 0.7469
vn -0.0584 0.5794 0.8129
vn -0.4431 0.8305 0.3376
vn -0.2824 0.9459 -0.1594
vn 0.2978 -0.9536 0.0435
vn -0.0843 -0.7160 -0.6930
vn 0.3138 -0.9494 -0.0122
vn -0.1326 -0.9898 0.0522
vn -0.2081 -0.9761 -0.0629
vn -0.0846 -0.5670 -0.8194
vn 0.8851 -0.4265 -0.1865
vn 0.7159 -0.3438 0.6077
vn -0.8191 -0.1781 0.5454
vn -0.8859 -0.2360 -0.3992
vn 0.5760 -0.2938 -0.7628
vn 0.9704 -0.2209 0.0977
vn -0.0253 0.1666 0.9857
vn -0.9622 0.0919 0.2562
vn -0.8595 -0.2013 -0.4698
vn 0.8035 0.5064 -0.3130
vn 0.8092 0.5864 0.0361
vn -0.4132 0.6867 0.5982
vn -0.8330 0.5391 0.1241
vn 0.1175 0.6292 -0.7684
vn 0.0849 0.9862 -0.1420
vn -0.2001 0.9177 -0.3432
vn -0.8232 0.5648 -0.0581
vn -0.0275 0.9793 0.2007
vn -0.5309 0.7619 0.3709
vn -0.5193 0.6683 0.5326
vn 0.0297 0.9752 0.2195
vn 0.0501 0.8873 0.4585
vn 0.3188 0.8003 0.5079
vn 0.3473 0.9377 0.0054
vn 0.8124 0.5811 0.0477
vn 0.8833 0.4608 -0.0864
vn 0.2400 0.9573 -0.1615
vn 0.4212 0.8179 -0.3920
vn -0.0349 0.6519 -0.7575
vn 0.0474 0.5353 -0.8434
vn -0.8451 0.2182 -0.4881
vn -0.9134 0.3902 -0.1159
vn -0.9428 0.2837 0.1748
vn -0.9380 0.2384 0.2515
vn -0.6541 0.4930 0.5736
vn -0.4411 0.3077 0.8431
vn -0.0312 0.1045 0.9940
vn 0.3420 0.2335 0.9102
vn 0.9880 0.1425 0.0592
vn 0.9817 0.1674 0.0906
vn 0.9622 0.2629 -0.0712
vn 0.8527 0.3548 -0.3835
vn 0.6139 0.2185 -0.7586
vn -0.0017 0.5535 -0.8329
vn -0.9731 0.2153 0.0817
vn -0.9906 0.1084 0.0837
vn -0.9804 0.0432 0.1922
vn -0.4517 0.3019 0.8395
vn -0.4932 0.0091 0.8698
vn -0.4528 -0.0169 0.8914
vn 0.8157 -0.1612 0.5555
vn 0.7849 -0.2953 0.5447
vn 0.8553 -0.3989 0.3306
vn 0.9626 0.1641 -0.2156
vn 0.8856 -0.4178 -0.2028
vn 0.7824 -0.5308 -0.3257
vn 0.0129 0.5580 -0.8298
vn -0.0886 -0.5652 -0.8202
vn -0.2949 -0.6207 -0.7264
vn -0.6579 -0.6485 -0.3829
vn -0.6106 -0.7858 -0.0982
vn -0.8427 -0.4700 0.2628
vn -0.7592 -0.4901 0.4284
vn -0.4832 -0.7191 0.4995
vn -0.3040 -0.6669 0.6803
vn 0.5298 -0.6800 0.5068
vn 0.6294 -0.7505 0.2015
vn 0.6279 -0.7515 0.2023
vn -0.2877 -0.7025 -0.6509
vn -0.2001 -0.7425 -0.6392
vn -0.1455 -0.9838 -0.1051
vn 0.6875 -0.7171 -0.1145
vn 0.6901 -0.7150 -0.1124
vn 0.7076 -0.6392 -0.3010
vt 0.966122 0.113976
vt 0.939916 0.163162
vt 0.939916 0.113992
vt 0.966122 0.163146
vt 0.940182 0.210463
vt 0.966387 0.210447
vt 0.940687 0.251265
vt 0.966892 0.251249
vt 0.941382 0.281574
vt 0.997830 0.001499
vt 0.971067 0.034974
vt 0.971624 0.001515
vt 0.997273 0.034958
vt 0.970709 0.077942
vt 0.996915 0.077926
vt 0.970586 0.126213
vt 0.996792 0.126198
vt 0.970709 0.175063
vt 0.996915 0.175047
vt 0.971067 0.219709
vt 0.997273 0.219694
vt 0.971624 0.255782
vt 0.941626 0.817352
vt 0.967790 0.792158
vt 0.967836 0.817354
vt 0.941581 0.792155
vt 0.967758 0.755136
vt 0.941548 0.755133
vt 0.967740 0.709912
vt 0.941531 0.709909
vt 0.967740 0.660913
vt 0.941531 0.660911
vt 0.967758 0.612936
vt 0.941548 0.612934
vt 0.967790 0.570677
vt 0.941581 0.570674
vt 0.967836 0.538272
vt 0.967587 0.001499
vt 0.940687 0.029010
vt 0.941382 0.001516
vt 0.267867 0.268017
vt 0.001502 0.132219
vt 0.132159 0.001499
vt 0.966892 0.028993
vt 0.940182 0.067766
vt 0.966387 0.067750
vt 0.330146 0.085459
vt 0.624965 0.132193
vt 0.541213 0.296926
vt 0.001499 0.745110
vt 0.041759 0.583277
vt 0.035261 0.745901
vt 0.680141 0.745739
vt 0.712666 0.582738
vt 0.721000 0.745307
vt 0.628238 0.745893
vt 0.675359 0.583132
vt 0.575573 0.745739
vt 0.627970 0.583273
vt 0.532576 0.745307
vt 0.579885 0.583132
vt 0.503055 0.744998
vt 0.519533 0.582470
vt 0.529577 0.744970
vt 0.455022 0.582514
vt 0.495317 0.582496
vt 0.458922 0.745018
vt 0.406628 0.582520
vt 0.354545 0.745018
vt 0.405920 0.745025
vt 0.323590 0.582496
vt 0.359720 0.582514
vt 0.185597 0.745901
vt 0.209285 0.582555
vt 0.218741 0.745110
vt 0.137427 0.746340
vt 0.179023 0.583277
vt 0.083773 0.746340
vt 0.135042 0.583678
vt 0.086053 0.583678
vt 0.010934 0.582555
vt 0.051493 0.441540
vt 0.700122 0.441092
vt 0.668145 0.441430
vt 0.627526 0.441551
vt 0.540626 0.582738
vt 0.586310 0.441430
vt 0.504470 0.440937
vt 0.483714 0.440959
vt 0.449175 0.440974
vt 0.407694 0.440980
vt 0.367488 0.440975
vt 0.169147 0.441540
vt 0.195086 0.440921
vt 0.131449 0.441883
vt 0.089459 0.441883
vt 0.025071 0.440921
vt 0.054743 0.357607
vt 0.695956 0.357186
vt 0.665756 0.357506
vt 0.627393 0.357620
vt 0.556686 0.357186
vt 0.588467 0.357506
vt 0.479844 0.357087
vt 0.499447 0.357066
vt 0.408048 0.357107
vt 0.447224 0.357102
vt 0.336519 0.440959
vt 0.370076 0.357102
vt 0.190359 0.357022
vt 0.165861 0.357607
vt 0.130257 0.357932
vt 0.090600 0.357932
vt 0.345961 0.756855
vt 0.342185 0.804260
vt 0.314973 0.781586
vt 0.383143 0.784517
vt 0.360413 0.789712
vt 0.648804 0.315147
vt 0.626238 0.315214
vt 0.454230 0.781563
vt 0.434217 0.825262
vt 0.424101 0.804246
vt 0.471427 0.856949
vt 0.471427 0.817291
vt 0.424101 0.869611
vt 0.434217 0.848591
vt 0.410548 0.315150
vt 0.433593 0.315147
vt 0.384602 0.926245
vt 0.360413 0.884166
vt 0.383143 0.889353
vt 0.314973 0.892706
vt 0.345961 0.917427
vt 0.142778 0.315139
vt 0.098507 0.315329
vt 0.121835 0.315329
vt 0.863008 0.148727
vt 0.693184 0.230167
vt 0.651241 0.046695
vt 0.405873 0.789704
vt 0.342185 0.869624
vt 0.967746 0.391706
vt 0.941539 0.440660
vt 0.941539 0.391695
vt 0.967746 0.440671
vt 0.941814 0.484097
vt 0.968021 0.484108
vt 0.942308 0.513402
vt 0.998501 0.315151
vt 0.971720 0.353673
vt 0.972296 0.315147
vt 0.997719 0.401517
vt 0.971514 0.401514
vt 0.971720 0.449194
vt 0.997925 0.449197
vt 0.972296 0.487270
vt 0.970835 0.736166
vt 0.997066 0.708302
vt 0.997044 0.736165
vt 0.970857 0.708303
vt 0.997079 0.665716
vt 0.970869 0.665717
vt 0.997079 0.616839
vt 0.970869 0.616840
vt 0.997066 0.571355
vt 0.970835 0.538271
vt 0.997044 0.538270
vt 0.745245 0.493785
vt 0.783530 0.326021
vt 0.938540 0.400776
vt 0.968516 0.315158
vt 0.941814 0.346900
vt 0.942308 0.315147
vt 0.968021 0.346911
vt 0.831265 0.538270
vt 0.938532 0.672814
vt 0.783527 0.747091
vt 0.645056 0.293242
vt 0.627964 0.280850
vt 0.646257 0.269625
vt 0.237075 0.696300
vt 0.239656 0.715456
vt 0.221740 0.715456
vt 0.662140 0.288274
vt 0.652763 0.310073
vt 0.632349 0.306136
vt 0.934495 0.208667
vt 0.921435 0.214362
vt 0.931400 0.178287
vt 0.511975 0.856533
vt 0.492171 0.857858
vt 0.509502 0.826190
vt 0.257872 0.836393
vt 0.238231 0.841529
vt 0.245748 0.804583
vt 0.299684 0.837453
vt 0.281622 0.843068
vt 0.297061 0.806779
vt 0.899653 0.207649
vt 0.879614 0.213815
vt 0.886481 0.176129
vt 0.477353 0.844333
vt 0.474426 0.813039
vt 0.489246 0.820843
vt 0.528696 0.827450
vt 0.272013 0.805334
vt 0.311975 0.808680
vt 0.911569 0.176184
vt 0.505410 0.794188
vt 0.489739 0.781317
vt 0.511532 0.766379
vt 0.241566 0.775990
vt 0.232487 0.769574
vt 0.254448 0.750815
vt 0.285575 0.774614
vt 0.262025 0.771271
vt 0.280209 0.748023
vt 0.683782 0.304287
vt 0.665714 0.298699
vt 0.684034 0.281187
vt 0.921141 0.145773
vt 0.898552 0.140797
vt 0.911552 0.123706
vt 0.699311 0.263059
vt 0.683180 0.256449
vt 0.700696 0.290559
vt 0.877592 0.146776
vt 0.887437 0.123448
vt 0.665714 0.269761
vt 0.303326 0.770356
vt 0.670853 0.245141
vt 0.528696 0.766827
vt 0.515781 0.748023
vt 0.524355 0.790796
vt 0.496454 0.758396
vt 0.934495 0.142656
vt 0.866362 0.177806
vt 0.866007 0.142337
vt 0.226506 0.805025
vt 0.867863 0.209074
vt 0.226506 0.837616
vt 0.901370 0.234835
vt 0.882868 0.235643
vt 0.284772 0.863505
vt 0.304625 0.845944
vt 0.260557 0.864051
vt 0.662715 0.259907
vt 0.645906 0.245141
vt 0.922933 0.238385
vt 0.627964 0.252110
vt 0.478693 0.871231
vt 0.758434 0.281364
vt 0.739756 0.270470
vt 0.757510 0.256795
vt 0.263447 0.550286
vt 0.247884 0.575996
vt 0.239978 0.546261
vt 0.775159 0.274658
vt 0.769076 0.298293
vt 0.748118 0.295719
vt 0.262434 0.517617
vt 0.126372 0.953813
vt 0.114443 0.957461
vt 0.114723 0.923938
vt 0.167124 0.954444
vt 0.146733 0.962032
vt 0.160229 0.924805
vt 0.941563 0.951652
vt 0.923328 0.956279
vt 0.931233 0.919630
vt 0.969023 0.953034
vt 0.957470 0.955546
vt 0.969023 0.921981
vt 0.285998 0.525562
vt 0.135168 0.925057
vt 0.178452 0.923245
vt 0.952747 0.920310
vt 0.221740 0.534480
vt 0.221740 0.502468
vt 0.237654 0.508801
vt 0.299719 0.498121
vt 0.285020 0.486370
vt 0.296693 0.466431
vt 0.147889 0.895121
vt 0.128623 0.889588
vt 0.147505 0.866050
vt 0.178452 0.892765
vt 0.165964 0.889681
vt 0.165069 0.866972
vt 0.961662 0.889814
vt 0.943115 0.883967
vt 0.953065 0.865346
vt 0.260683 0.483985
vt 0.244639 0.474234
vt 0.272461 0.460886
vt 0.736757 0.269490
vt 0.720967 0.288436
vt 0.719819 0.264312
vt 0.256018 0.453337
vt 0.259142 0.702482
vt 0.242654 0.717004
vt 0.242654 0.696300
vt 0.703694 0.276484
vt 0.703694 0.302649
vt 0.924643 0.891357
vt 0.931982 0.867142
vt 0.708119 0.250153
vt 0.729415 0.245141
vt 0.126852 0.863910
vt 0.113675 0.892965
vt 0.281907 0.447444
vt 0.231009 0.471921
vt 0.912851 0.920965
vt 0.909693 0.952797
vt 0.299322 0.529390
vt 0.276634 0.558629
vt 0.955769 0.979536
vt 0.939751 0.977871
vt 0.921428 0.979915
vt 0.157064 0.979934
vt 0.775015 0.247604
vt 0.132888 0.981886
vt 0.224477 0.562974
vt 0.739756 0.245141
vt 0.570326 0.940262
vt 0.579227 0.917613
vt 0.596123 0.939156
vt 0.865421 0.946048
vt 0.840205 0.948842
vt 0.848021 0.930717
vt 0.578003 0.961546
vt 0.551206 0.953531
vt 0.551257 0.927235
vt 0.879506 0.926038
vt 0.676198 0.939072
vt 0.654967 0.942989
vt 0.662285 0.916363
vt 0.238357 0.933068
vt 0.226506 0.937447
vt 0.227655 0.910000
vt 0.285520 0.936327
vt 0.260646 0.938496
vt 0.275180 0.911777
vt 0.836970 0.906799
vt 0.824102 0.894776
vt 0.847479 0.881061
vt 0.890723 0.941290
vt 0.688962 0.915287
vt 0.247800 0.910646
vt 0.299569 0.912956
vt 0.863230 0.903363
vt 0.787597 0.894696
vt 0.791599 0.918799
vt 0.773704 0.905539
vt 0.696638 0.891204
vt 0.674130 0.888835
vt 0.685482 0.871398
vt 0.262755 0.888960
vt 0.240642 0.882518
vt 0.264928 0.867050
vt 0.741310 0.959952
vt 0.723999 0.945804
vt 0.746953 0.944076
vt 0.890776 0.900712
vt 0.878875 0.878248
vt 0.906695 0.884814
vt 0.773866 0.933954
vt 0.755014 0.920421
vt 0.764785 0.957342
vt 0.731473 0.922376
vt 0.285556 0.885610
vt 0.748397 0.898981
vt 0.723999 0.900245
vt 0.743071 0.883345
vt 0.766750 0.884339
vt 0.651045 0.892731
vt 0.659524 0.872014
vt 0.905498 0.915401
vt 0.864121 0.865346
vt 0.301847 0.890717
vt 0.226506 0.886675
vt 0.640735 0.916739
vt 0.638500 0.889207
vt 0.839272 0.868993
vt 0.298935 0.940319
vt 0.708086 0.913916
vt 0.697241 0.941867
vt 0.638500 0.939659
vt 0.824102 0.924680
vt 0.532576 0.940588
vt 0.536817 0.963637
vt 0.275112 0.955354
vt 0.558941 0.974349
vt 0.247310 0.955872
vt 0.603639 0.959710
vt 0.584055 0.974349
vt 0.676272 0.960797
vt 0.560251 0.903712
vt 0.604076 0.917260
vt 0.586243 0.902186
vt 0.880516 0.808036
vt 0.884149 0.842830
vt 0.848522 0.825052
vt 0.192708 0.837593
vt 0.204350 0.860911
vt 0.165599 0.856813
vt 0.856108 0.786142
vt 0.894405 0.779574
vt 0.914450 0.813722
vt 0.160430 0.821671
vt 0.824102 0.838880
vt 0.850375 0.860753
vt 0.824102 0.862347
vt 0.093127 0.807099
vt 0.079592 0.839165
vt 0.059031 0.808630
vt 0.754591 0.802766
vt 0.743104 0.783380
vt 0.781264 0.782825
vt 0.760055 0.865657
vt 0.752863 0.838190
vt 0.791132 0.851944
vt 0.195182 0.801780
vt 0.060051 0.864325
vt 0.024085 0.863694
vt 0.039359 0.842025
vt 0.075950 0.773809
vt 0.790061 0.815078
vt 0.787763 0.877855
vt 0.192421 0.765766
vt 0.159773 0.777816
vt 0.164611 0.750016
vt 0.022153 0.809721
vt 0.001499 0.830897
vt 0.001499 0.790406
vt 0.050703 0.749339
vt 0.034286 0.776856
vt 0.013992 0.752907
vt 0.242602 0.588982
vt 0.275183 0.578995
vt 0.257580 0.612205
vt 0.221740 0.653042
vt 0.227687 0.619367
vt 0.247353 0.649974
vt 0.278572 0.641320
vt 0.297899 0.611497
vt 0.309385 0.585871
vt 0.307912 0.648884
vt 0.278535 0.671539
vt 0.309385 0.680185
vt 0.277365 0.693302
vt 0.244427 0.682639
vt 0.131376 0.799462
vt 0.130096 0.767607
vt 0.131497 0.833359
vt 0.113675 0.801120
vt 0.821103 0.856014
vt 0.818598 0.830023
vt 0.821103 0.795570
vt 0.807589 0.768794
vt 0.222748 0.783347
vt 0.202749 0.749339
vt 0.771396 0.761059
vt 0.105194 0.786648
vt 0.222748 0.825666
vt 0.141683 0.858043
vt 0.723999 0.855909
vt 0.725144 0.816413
vt 0.868461 0.761059
vt 0.835596 0.772457
vt 0.110676 0.826214
vt 0.824891 0.804485
vt 0.747948 0.880346
vt 0.913542 0.849422
vt 0.268279 0.385311
vt 0.256301 0.419249
vt 0.243670 0.377249
vt 0.243984 0.444445
vt 0.271127 0.443054
vt 0.263092 0.344219
vt 0.292103 0.369489
vt 0.286384 0.414777
vt 0.052364 0.949597
vt 0.025898 0.949597
vt 0.036402 0.920969
vt 0.641082 0.801148
vt 0.638500 0.778055
vt 0.666599 0.779609
vt 0.642160 0.865595
vt 0.638500 0.833425
vt 0.669822 0.851458
vt 0.607190 0.843162
vt 0.600186 0.878046
vt 0.572582 0.854025
vt 0.635502 0.779460
vt 0.630848 0.807358
vt 0.606315 0.772362
vt 0.071913 0.921030
vt 0.667429 0.815983
vt 0.672934 0.868399
vt 0.588887 0.813608
vt 0.618631 0.748892
vt 0.936918 0.089022
vt 0.919029 0.120449
vt 0.925174 0.078930
vt 0.698195 0.832402
vt 0.697204 0.798493
vt 0.720784 0.821301
vt 0.884171 0.012849
vt 0.910163 0.001499
vt 0.893346 0.032973
vt 0.571363 0.787162
vt 0.553009 0.820865
vt 0.542119 0.787136
vt 0.026418 0.894323
vt 0.001499 0.881958
vt 0.034419 0.867324
vt 0.897920 0.101840
vt 0.876465 0.072719
vt 0.904012 0.063925
vt 0.866007 0.116798
vt 0.576258 0.753324
vt 0.866007 0.039926
vt 0.547692 0.853449
vt 0.532576 0.830144
vt 0.922297 0.035770
vt 0.936765 0.010526
vt 0.719943 0.785414
vt 0.693797 0.770245
vt 0.053578 0.886557
vt 0.003133 0.919740
vt 0.564922 0.878672
vt 0.534855 0.869998
vt 0.703759 0.855827
vt 0.077720 0.893535
vt 0.589485 0.899187
vt 0.667327 0.748892
vt 0.230381 0.407356
vt 0.221740 0.438672
vt 0.001829 0.946722
vt 0.311738 0.401471
vt 0.296570 0.436503
vt 0.635502 0.850079
vt 0.283359 0.329848
vt 0.255550 0.315138
vt 0.235517 0.340206
vt 0.221740 0.370659
vt 0.967587 0.281557
vt 0.997830 0.255766
vt 0.941626 0.538270
vt 0.181333 0.001499
vt 0.228100 0.016703
vt 0.267880 0.045623
vt 0.296782 0.085427
vt 0.311975 0.132219
vt 0.311972 0.181420
vt 0.296773 0.228212
vt 0.228083 0.296936
vt 0.181315 0.312140
vt 0.132141 0.312140
vt 0.085374 0.296936
vt 0.045594 0.268017
vt 0.016692 0.228212
vt 0.001499 0.181420
vt 0.016701 0.085427
vt 0.045607 0.045623
vt 0.085391 0.016703
vt 0.494518 0.312139
vt 0.445420 0.312149
vt 0.398726 0.296954
vt 0.359005 0.268043
vt 0.330146 0.228244
vt 0.314973 0.181455
vt 0.314973 0.132254
vt 0.359005 0.045649
vt 0.398726 0.016722
vt 0.445420 0.001509
vt 0.494518 0.001499
vt 0.541213 0.016694
vt 0.580934 0.045605
vt 0.609793 0.085404
vt 0.624965 0.181394
vt 0.609793 0.228189
vt 0.580934 0.267999
vt 0.314973 0.744998
vt 0.552660 0.441092
vt 0.029789 0.357022
vt 0.340827 0.357087
vt 0.384602 0.748023
vt 0.603340 0.315147
vt 0.454230 0.892683
vt 0.388211 0.315147
vt 0.077415 0.315138
vt 0.745486 0.001499
vt 0.797788 0.013474
vt 0.839731 0.046908
vt 0.863008 0.095179
vt 0.839731 0.196946
vt 0.797788 0.230285
vt 0.745486 0.242142
vt 0.651241 0.196734
vt 0.627964 0.148462
vt 0.627964 0.094914
vt 0.693184 0.013356
vt 0.332070 0.825279
vt 0.405873 0.884158
vt 0.332070 0.848608
vt 0.968516 0.513413
vt 0.997925 0.353676
vt 0.998501 0.487274
vt 0.970857 0.571356
vt 0.917294 0.493878
vt 0.879010 0.524397
vt 0.831270 0.535271
vt 0.783530 0.524345
vt 0.723999 0.449642
vt 0.723999 0.400660
vt 0.745245 0.356540
vt 0.831270 0.315147
vt 0.879010 0.326073
vt 0.917294 0.356633
vt 0.938540 0.449758
vt 0.723999 0.672424
vt 0.723999 0.623516
vt 0.745244 0.579490
vt 0.783527 0.549066
vt 0.879003 0.549239
vt 0.917286 0.579803
vt 0.938532 0.623906
vt 0.917286 0.716840
vt 0.879003 0.747264
vt 0.831265 0.758061
vt 0.745244 0.716527
s 0
f 2/1/1 3/2/1 1/3/1
f 4/4/2 5/5/2 3/2/2
f 6/6/3 7/7/3 5/5/3
f 8/8/4 9/9/4 7/7/4
f 10/10/5 11/11/5 9/12/5
f 12/13/6 13/14/6 11/11/6
f 14/15/7 15/16/7 13/14/7
f 16/17/8 17/18/8 15/16/8
f 18/19/9 19/20/9 17/18/9
f 20/21/10 21/22/10 19/20/10
f 22/23/11 23/24/11 21/25/11
f 24/26/12 25/27/12 23/24/12
f 26/28/13 27/29/13 25/27/13
f 28/30/14 29/31/14 27/29/14
f 30/32/15 31/33/15 29/31/15
f 32/34/16 33/35/16 31/33/16
f 34/36/17 35/37/17 33/35/17
f 36/38/18 37/39/18 35/40/18
f 30/41/19 14/42/19 6/43/19
f 38/44/20 39/45/20 37/39/20
f 40/46/21 1/3/21 39/45/21
f 15/47/22 31/48/22 39/49/22
s 1
f 42/50/23 55/51/24 41/52/25
f 43/53/26 56/54/27 42/55/23
f 44/56/28 57/57/29 43/53/26
f 45/58/30 58/59/31 44/56/28
f 46/60/32 59/61/33 45/58/30
f 47/62/34 60/63/35 46/64/32
f 47/62/34 62/65/36 61/66/37
f 48/67/38 63/68/39 62/65/36
f 50/69/40 63/68/39 49/70/41
f 50/69/40 65/71/42 64/72/43
f 52/73/44 65/74/42 51/75/45
f 53/76/46 66/77/47 52/73/44
f 54/78/48 67/79/49 53/76/46
f 41/52/25 68/80/50 54/78/48
f 56/81/27 69/82/51 55/51/24
f 57/57/29 70/83/52 56/54/27
f 58/59/31 71/84/53 57/57/29
f 59/61/33 72/85/54 58/59/31
f 60/86/35 73/87/55 59/61/33
f 61/66/37 74/88/56 60/63/35
f 62/65/36 75/89/57 61/66/37
f 63/68/39 76/90/58 62/65/36
f 64/72/43 77/91/59 63/68/39
f 65/71/42 78/92/60 64/72/43
f 65/74/42 80/93/61 79/94/62
f 67/79/49 80/93/61 66/77/47
f 68/80/50 81/95/63 67/79/49
f 55/51/24 82/96/64 68/80/50
f 70/97/52 83/98/65 69/82/51
f 71/84/53 84/99/66 70/83/52
f 72/85/54 85/100/67 71/84/53
f 73/87/55 86/101/68 72/85/54
f 73/87/55 88/102/69 87/103/70
f 74/88/56 89/104/71 88/105/69
f 76/90/58 89/104/71 75/89/57
f 76/90/58 91/106/72 90/107/73
f 78/92/60 91/106/72 77/91/59
f 79/108/62 92/109/74 78/92/60
f 80/93/61 93/110/75 79/94/62
f 81/95/63 94/111/76 80/93/61
f 82/96/64 95/112/77 81/95/63
f 69/82/51 96/113/78 82/96/64
f 84/114/66 97/115/79 83/116/65
f 84/114/66 99/117/80 98/118/81
f 86/101/68 99/119/80 85/100/67
f 87/103/70 100/120/82 86/101/68
f 87/121/70 102/122/83 101/123/84
f 89/124/71 102/122/83 88/125/69
f 89/124/71 104/126/85 103/127/86
f 90/107/73 105/128/87 104/129/85
f 92/109/74 105/128/87 91/106/72
f 92/130/74 107/131/88 106/132/89
f 94/133/76 107/131/88 93/134/75
f 95/112/77 108/135/90 94/111/76
f 95/112/77 110/136/91 109/137/92
f 83/98/65 110/136/91 96/113/78
f 51/138/45 47/139/34 43/140/26
f 100/141/82 104/126/85 108/142/90
s 0
f 112/143/93 113/144/93 111/145/93
f 114/146/94 115/147/94 113/144/94
f 116/148/95 117/149/95 115/147/95
f 118/150/96 119/151/96 117/152/96
f 119/151/97 122/153/97 121/154/97
f 122/153/98 123/155/98 121/154/98
f 124/156/99 125/157/99 123/155/99
f 126/158/100 127/159/100 125/160/100
f 128/161/101 129/162/101 127/159/101
f 130/163/102 131/164/102 129/162/102
f 132/165/103 133/166/103 131/164/103
f 133/166/104 136/167/104 135/168/104
f 136/169/105 128/170/105 120/171/105
f 136/172/106 137/173/106 135/174/106
f 138/175/107 111/145/107 137/173/107
f 117/176/108 125/177/108 133/178/108
s 1
f 139/179/109 152/180/110 151/181/111
f 140/182/112 152/183/110 154/184/113
f 139/179/109 151/181/111 156/185/114
f 139/179/109 156/185/114 158/186/115
f 139/179/109 158/186/115 155/187/116
f 140/188/112 154/189/113 161/190/117
f 141/191/118 153/192/119 163/193/120
f 142/194/121 157/195/122 165/196/123
f 143/197/124 159/198/125 167/199/126
f 144/200/127 160/201/128 169/202/129
f 140/203/112 161/204/117 164/205/130
f 141/191/118 163/193/120 166/206/131
f 142/194/121 165/196/123 168/207/132
f 143/197/124 167/199/126 170/208/133
f 144/200/127 169/202/129 162/209/134
f 145/210/135 171/211/136 176/212/137
f 146/213/138 172/214/139 178/215/140
f 147/216/141 173/217/142 179/218/143
f 148/219/144 174/220/145 180/221/146
f 149/222/147 175/223/148 177/224/149
f 177/225/149 180/221/146 150/226/150
f 177/225/149 175/227/148 180/221/146
f 175/223/148 148/228/144 180/229/146
f 180/221/146 179/230/143 150/226/150
f 180/221/146 174/220/145 179/230/143
f 174/231/145 147/216/141 179/218/143
f 179/230/143 178/232/140 150/226/150
f 179/218/143 173/217/142 178/215/140
f 173/217/142 146/213/138 178/215/140
f 178/233/140 176/212/137 150/234/150
f 178/233/140 172/235/139 176/212/137
f 172/235/139 145/210/135 176/212/137
f 176/212/137 177/236/149 150/234/150
f 176/212/137 171/211/136 177/236/149
f 171/237/136 149/222/147 177/224/149
f 162/209/134 175/223/148 149/222/147
f 162/209/134 169/202/129 175/223/148
f 169/202/129 148/228/144 175/223/148
f 170/238/133 174/239/145 148/228/144
f 170/208/133 167/199/126 174/231/145
f 167/199/126 147/216/141 174/231/145
f 168/207/132 173/217/142 147/216/141
f 168/207/132 165/196/123 173/217/142
f 165/196/123 146/213/138 173/217/142
f 166/240/131 172/214/139 146/213/138
f 166/206/131 163/193/120 172/235/139
f 163/193/120 145/210/135 172/235/139
f 164/205/130 171/211/136 145/210/135
f 164/205/130 161/204/117 171/211/136
f 161/190/117 149/222/147 171/237/136
f 169/202/129 170/238/133 148/228/144
f 169/202/129 160/201/128 170/238/133
f 160/201/128 143/241/124 170/238/133
f 167/199/126 168/207/132 147/216/141
f 167/199/126 159/198/125 168/207/132
f 159/198/125 142/194/121 168/207/132
f 165/196/123 166/240/131 146/213/138
f 165/196/123 157/195/122 166/240/131
f 157/195/122 141/242/118 166/240/131
f 163/193/120 164/205/130 145/210/135
f 163/193/120 153/192/119 164/205/130
f 153/192/119 140/203/112 164/205/130
f 161/190/117 162/209/134 149/222/147
f 161/190/117 154/189/113 162/209/134
f 154/189/113 144/200/127 162/209/134
f 155/243/116 160/201/128 144/200/127
f 155/243/116 158/244/115 160/201/128
f 158/245/115 143/197/124 160/246/128
f 158/245/115 159/198/125 143/197/124
f 158/245/115 156/247/114 159/198/125
f 156/247/114 142/194/121 159/198/125
f 156/247/114 157/195/122 142/194/121
f 156/185/114 151/181/111 157/248/122
f 151/181/111 141/249/118 157/248/122
f 154/189/113 155/243/116 144/200/127
f 154/189/113 152/250/110 155/243/116
f 152/180/110 139/179/109 155/187/116
f 151/181/111 153/251/119 141/249/118
f 151/181/111 152/180/110 153/251/119
f 152/252/110 140/203/112 153/192/119
f 181/253/151 194/254/152 193/255/153
f 182/256/154 194/257/152 196/258/155
f 181/253/151 193/255/153 198/259/156
f 181/253/151 198/259/156 200/260/157
f 181/253/151 200/260/157 197/261/158
f 182/256/154 196/258/155 203/262/159
f 183/263/160 195/264/161 205/265/162
f 184/266/163 199/267/164 207/268/165
f 185/269/166 201/270/167 209/271/168
f 186/272/169 202/273/170 211/274/171
f 182/256/154 203/262/159 206/275/172
f 183/263/160 205/265/162 208/276/173
f 184/266/163 207/268/165 210/277/174
f 185/269/166 209/271/168 212/278/175
f 186/279/169 211/280/171 204/281/176
f 187/282/177 213/283/178 218/284/179
f 188/285/180 214/286/181 220/287/182
f 189/288/183 215/289/184 221/290/185
f 190/291/186 216/292/187 222/293/188
f 191/294/189 217/295/190 219/296/191
f 219/297/191 222/298/188 192/299/192
f 219/296/191 217/295/190 222/300/188
f 217/301/190 190/302/186 222/303/188
f 222/298/188 221/304/185 192/299/192
f 222/298/188 216/305/187 221/304/185
f 216/292/187 189/306/183 221/307/185
f 221/304/185 220/308/182 192/299/192
f 221/290/185 215/289/184 220/287/182
f 215/289/184 188/285/180 220/287/182
f 220/308/182 218/309/179 192/299/192
f 220/287/182 214/286/181 218/310/179
f 214/286/181 187/311/177 218/310/179
f 218/284/179 219/296/191 192/312/192
f 218/284/179 213/283/178 219/296/191
f 213/283/178 191/294/189 219/296/191
f 204/281/176 217/295/190 191/294/189
f 204/281/176 211/280/171 217/295/190
f 211/280/171 190/313/186 217/295/190
f 212/278/175 216/292/187 190/291/186
f 212/278/175 209/271/168 216/292/187
f 209/271/168 189/306/183 216/292/187
f 210/277/174 215/289/184 189/288/183
f 210/277/174 207/268/165 215/289/184
f 207/268/165 188/285/180 215/289/184
f 208/276/173 214/286/181 188/285/180
f 208/276/173 205/265/162 214/286/181
f 205/265/162 187/311/177 214/286/181
f 206/275/172 213/283/178 187/282/177
f 206/275/172 203/262/159 213/283/178
f 203/262/159 191/294/189 213/283/178
f 211/274/171 212/278/175 190/291/186
f 211/274/171 202/273/170 212/278/175
f 202/273/170 185/269/166 212/278/175
f 209/271/168 210/314/174 189/306/183
f 209/271/168 201/270/167 210/314/174
f 201/270/167 184/315/163 210/314/174
f 207/268/165 208/276/173 188/285/180
f 207/268/165 199/267/164 208/276/173
f 199/267/164 183/263/160 208/276/173
f 205/316/162 206/275/172 187/282/177
f 205/316/162 195/317/161 206/275/172
f 195/317/161 182/256/154 206/275/172
f 203/262/159 204/281/176 191/294/189
f 203/262/159 196/258/155 204/281/176
f 196/258/155 186/279/169 204/281/176
f 197/318/158 202/273/170 186/272/169
f 197/318/158 200/319/157 202/273/170
f 200/319/157 185/269/166 202/273/170
f 200/319/157 201/270/167 185/269/166
f 200/319/157 198/320/156 201/270/167
f 198/320/156 184/315/163 201/270/167
f 198/321/156 199/267/164 184/266/163
f 198/259/156 193/255/153 199/322/164
f 193/323/153 183/263/160 199/267/164
f 196/258/155 197/324/158 186/279/169
f 196/258/155 194/257/152 197/324/158
f 194/254/152 181/253/151 197/261/158
f 193/323/153 195/264/161 183/263/160
f 193/255/153 194/254/152 195/325/161
f 194/257/152 182/256/154 195/317/161
f 223/326/193 236/327/194 235/328/195
f 224/329/196 236/330/194 238/331/197
f 223/326/193 235/328/195 240/332/198
f 223/326/193 240/332/198 242/333/199
f 223/326/193 242/333/199 239/334/200
f 224/329/196 238/331/197 245/335/201
f 225/336/202 237/337/203 247/338/204
f 226/339/205 241/340/206 249/341/207
f 227/342/208 243/343/209 251/344/210
f 228/345/211 244/346/212 253/347/213
f 224/329/196 245/335/201 248/348/214
f 225/336/202 247/338/204 250/349/215
f 226/339/205 249/341/207 252/350/216
f 227/342/208 251/344/210 254/351/217
f 228/345/211 253/347/213 246/352/218
f 229/353/219 255/354/220 260/355/221
f 230/356/222 256/357/223 262/358/224
f 231/359/225 257/360/226 263/361/227
f 232/362/228 258/363/229 264/364/230
f 233/365/231 259/366/232 261/367/233
f 261/368/233 264/364/230 234/369/234
f 261/368/233 259/370/232 264/364/230
f 259/370/232 232/362/228 264/364/230
f 264/364/230 263/371/227 234/369/234
f 264/364/230 258/363/229 263/371/227
f 258/372/229 231/359/225 263/361/227
f 263/371/227 262/373/224 234/369/234
f 263/371/227 257/374/226 262/373/224
f 257/374/226 230/375/222 262/373/224
f 262/373/224 260/355/221 234/369/234
f 262/373/224 256/376/223 260/355/221
f 256/357/223 229/377/219 260/378/221
f 260/355/221 261/368/233 234/369/234
f 260/355/221 255/354/220 261/368/233
f 255/379/220 233/365/231 261/367/233
f 246/352/218 259/366/232 233/365/231
f 246/352/218 253/347/213 259/366/232
f 253/347/213 232/380/228 259/366/232
f 254/351/217 258/372/229 232/381/228
f 254/351/217 251/344/210 258/372/229
f 251/344/210 231/359/225 258/372/229
f 252/350/216 257/360/226 231/359/225
f 252/350/216 249/341/207 257/360/226
f 249/341/207 230/382/222 257/360/226
f 250/349/215 256/357/223 230/356/222
f 250/349/215 247/338/204 256/357/223
f 247/338/204 229/377/219 256/357/223
f 248/383/214 255/384/220 229/377/219
f 248/348/214 245/335/201 255/379/220
f 245/335/201 233/365/231 255/379/220
f 253/347/213 254/385/217 232/380/228
f 253/347/213 244/346/212 254/385/217
f 244/386/212 227/342/208 254/351/217
f 251/344/210 252/350/216 231/359/225
f 251/344/210 243/343/209 252/350/216
f 243/343/209 226/339/205 252/350/216
f 249/387/207 250/349/215 230/356/222
f 249/387/207 241/388/206 250/349/215
f 241/388/206 225/336/202 250/349/215
f 247/338/204 248/383/214 229/377/219
f 247/338/204 237/337/203 248/383/214
f 237/337/203 224/389/196 248/383/214
f 245/335/201 246/352/218 233/365/231
f 245/335/201 238/331/197 246/352/218
f 238/331/197 228/345/211 246/352/218
f 239/390/200 244/346/212 228/345/211
f 239/334/200 242/333/199 244/391/212
f 242/333/199 227/392/208 244/391/212
f 242/393/199 243/343/209 227/342/208
f 242/333/199 240/332/198 243/394/209
f 240/395/198 226/339/205 243/343/209
f 240/332/198 241/396/206 226/397/205
f 240/332/198 235/328/195 241/396/206
f 235/398/195 225/336/202 241/388/206
f 238/331/197 239/390/200 228/345/211
f 238/399/197 236/327/194 239/334/200
f 236/327/194 223/326/193 239/334/200
f 235/398/195 237/337/203 225/336/202
f 235/328/195 236/327/194 237/400/203
f 236/327/194 224/401/196 237/400/203
f 265/402/235 278/403/236 277/404/237
f 266/405/238 278/406/236 280/407/239
f 265/402/235 277/404/237 282/408/240
f 265/402/235 282/408/240 284/409/241
f 265/402/235 284/409/241 281/410/242
f 266/405/238 280/407/239 287/411/243
f 267/412/244 279/413/245 289/414/246
f 268/415/247 283/416/248 291/417/249
f 269/418/250 285/419/251 293/420/252
f 270/421/253 286/422/254 295/423/255
f 266/405/238 287/411/243 290/424/256
f 267/425/244 289/426/246 292/427/257
f 268/415/247 291/417/249 294/428/258
f 269/418/250 293/420/252 296/429/259
f 270/421/253 295/423/255 288/430/260
f 271/431/261 297/432/262 302/433/263
f 272/434/264 298/435/265 304/436/266
f 273/437/267 299/438/268 305/439/269
f 274/440/270 300/441/271 306/442/272
f 275/443/273 301/444/274 303/445/275
f 303/445/275 306/442/272 276/446/276
f 303/445/275 301/444/274 306/442/272
f 301/444/274 274/440/270 306/442/272
f 306/442/272 305/447/269 276/446/276
f 306/442/272 300/441/271 305/447/269
f 300/441/271 273/448/267 305/447/269
f 305/447/269 304/449/266 276/446/276
f 305/439/269 299/438/268 304/436/266
f 299/438/268 272/434/264 304/436/266
f 304/449/266 302/450/263 276/446/276
f 304/449/266 298/451/265 302/450/263
f 298/451/265 271/452/261 302/450/263
f 302/450/263 303/445/275 276/446/276
f 302/450/263 297/453/262 303/445/275
f 297/432/262 275/454/273 303/455/275
f 288/456/260 301/457/274 275/454/273
f 288/430/260 295/423/255 301/458/274
f 295/423/255 274/459/270 301/458/274
f 296/429/259 300/460/271 274/459/270
f 296/429/259 293/420/252 300/460/271
f 293/420/252 273/461/267 300/460/271
f 294/428/258 299/438/268 273/437/267
f 294/428/258 291/417/249 299/438/268
f 291/417/249 272/434/264 299/438/268
f 292/427/257 298/435/265 272/434/264
f 292/427/257 289/426/246 298/435/265
f 289/462/246 271/431/261 298/463/265
f 290/424/256 297/432/262 271/431/261
f 290/424/256 287/411/243 297/432/262
f 287/411/243 275/454/273 297/432/262
f 295/423/255 296/429/259 274/459/270
f 295/423/255 286/422/254 296/429/259
f 286/422/254 269/418/250 296/429/259
f 293/420/252 294/464/258 273/461/267
f 293/420/252 285/419/251 294/464/258
f 285/465/251 268/415/247 294/428/258
f 291/417/249 292/427/257 272/434/264
f 291/417/249 283/416/248 292/427/257
f 283/416/248 267/425/244 292/427/257
f 289/462/246 290/424/256 271/431/261
f 289/462/246 279/466/245 290/424/256
f 279/466/245 266/405/238 290/424/256
f 287/411/243 288/456/260 275/454/273
f 287/411/243 280/407/239 288/456/260
f 280/407/239 270/467/253 288/456/260
f 281/468/242 286/422/254 270/421/253
f 281/468/242 284/469/241 286/422/254
f 284/469/241 269/418/250 286/422/254
f 284/469/241 285/419/251 269/418/250
f 284/409/241 282/408/240 285/470/251
f 282/408/240 268/471/247 285/470/251
f 282/472/240 283/416/248 268/415/247
f 282/408/240 277/404/237 283/473/248
f 277/404/237 267/412/244 283/473/248
f 280/474/239 281/468/242 270/421/253
f 280/475/239 278/403/236 281/410/242
f 278/403/236 265/402/235 281/410/242
f 277/404/237 279/413/245 267/412/244
f 277/404/237 278/403/236 279/413/245
f 278/406/236 266/405/238 279/466/245
s 0
f 307/476/277 320/477/277 319/478/277
f 308/479/278 320/477/278 322/480/278
f 307/476/279 319/478/279 324/481/279
f 307/476/280 324/481/280 326/482/280
f 307/476/281 326/482/281 323/483/281
f 308/484/282 322/485/282 329/486/282
f 309/487/283 321/488/283 331/489/283
f 310/490/284 325/491/284 333/492/284
f 311/493/285 327/494/285 335/495/285
f 312/496/286 328/497/286 337/498/286
f 308/484/287 329/486/287 332/499/287
f 309/487/288 331/489/288 334/500/288
f 310/490/289 333/492/289 336/501/289
f 311/493/290 335/495/290 338/502/290
f 312/496/291 337/498/291 330/503/291
f 313/504/292 339/505/292 344/506/292
f 314/507/293 340/508/293 346/509/293
f 315/510/294 341/511/294 347/512/294
f 316/513/295 342/514/295 348/515/295
f 317/516/296 343/517/296 345/518/296
f 345/519/297 348/520/297 318/521/297
f 345/519/298 343/522/298 348/520/298
f 343/523/299 316/513/299 348/515/299
f 348/520/300 347/512/300 318/521/300
f 348/520/301 342/524/301 347/512/301
f 342/514/302 315/525/302 347/526/302
f 347/512/303 346/527/303 318/521/303
f 347/512/304 341/511/304 346/527/304
f 341/511/305 314/528/305 346/527/305
f 346/527/306 344/506/306 318/521/306
f 346/509/307 340/508/307 344/529/307
f 340/508/308 313/530/308 344/529/308
f 344/506/309 345/519/309 318/521/309
f 344/506/310 339/505/310 345/519/310
f 339/531/311 317/516/311 345/518/311
f 330/532/312 343/517/312 317/516/312
f 330/503/313 337/498/313 343/523/313
f 337/498/314 316/513/314 343/523/314
f 338/502/315 342/514/315 316/513/315
f 338/502/316 335/495/316 342/514/316
f 335/495/317 315/525/317 342/514/317
f 336/533/318 341/534/318 315/525/318
f 336/501/319 333/492/319 341/535/319
f 333/492/320 314/507/320 341/535/320
f 334/500/321 340/508/321 314/507/321
f 334/500/322 331/489/322 340/508/322
f 331/489/323 313/530/323 340/508/323
f 332/499/324 339/531/324 313/536/324
f 332/499/325 329/486/325 339/531/325
f 329/486/326 317/516/326 339/531/326
f 337/498/327 338/502/327 316/513/327
f 337/498/328 328/497/328 338/502/328
f 328/497/329 311/493/329 338/502/329
f 335/495/330 336/533/330 315/525/330
f 335/495/331 327/494/331 336/533/331
f 327/494/332 310/537/332 336/533/332
f 333/492/333 334/500/333 314/507/333
f 333/492/334 325/491/334 334/500/334
f 325/491/335 309/487/335 334/500/335
f 331/489/336 332/538/336 313/530/336
f 331/489/337 321/488/337 332/538/337
f 321/539/338 308/479/338 332/540/338
f 329/486/339 330/532/339 317/516/339
f 329/486/340 322/485/340 330/532/340
f 322/485/341 312/541/341 330/532/341
f 323/483/342 328/542/342 312/543/342
f 323/483/343 326/482/343 328/542/343
f 326/544/344 311/493/344 328/497/344
f 326/544/345 327/494/345 311/493/345
f 326/482/346 324/481/346 327/545/346
f 324/481/347 310/546/347 327/545/347
f 324/481/348 325/547/348 310/546/348
f 324/481/349 319/478/349 325/547/349
f 319/478/350 309/548/350 325/547/350
f 322/480/351 323/483/351 312/543/351
f 322/480/352 320/477/352 323/483/352
f 320/477/353 307/476/353 323/483/353
f 319/478/354 321/539/354 309/548/354
f 319/478/355 320/477/355 321/539/355
f 320/477/356 308/479/356 321/539/356
f 2/1/1 4/4/1 3/2/1
f 4/4/2 6/6/2 5/5/2
f 6/6/3 8/8/3 7/7/3
f 8/8/4 10/549/4 9/9/4
f 10/10/5 12/13/5 11/11/5
f 12/13/6 14/15/6 13/14/6
f 14/15/7 16/17/7 15/16/7
f 16/17/8 18/19/8 17/18/8
f 18/19/9 20/21/9 19/20/9
f 20/21/10 22/550/10 21/22/10
f 22/23/11 24/26/11 23/24/11
f 24/26/12 26/28/12 25/27/12
f 26/28/13 28/30/13 27/29/13
f 28/30/14 30/32/14 29/31/14
f 30/32/15 32/34/15 31/33/15
f 32/34/16 34/36/16 33/35/16
f 34/36/17 36/551/17 35/37/17
f 36/38/18 38/44/18 37/39/18
f 6/43/19 4/552/19 2/553/19
f 2/553/19 40/554/19 38/555/19
f 38/555/19 36/556/19 34/557/19
f 34/557/19 32/558/19 30/41/19
f 30/41/19 28/559/19 26/560/19
f 26/560/19 24/561/19 22/562/19
f 22/562/19 20/563/19 18/564/19
f 18/564/19 16/565/19 14/42/19
f 14/42/19 12/566/19 10/567/19
f 10/567/19 8/568/19 6/43/19
f 6/43/19 2/553/19 38/555/19
f 38/555/19 34/557/19 30/41/19
f 30/41/19 26/560/19 22/562/19
f 22/562/19 18/564/19 14/42/19
f 14/42/19 10/567/19 6/43/19
f 6/43/19 38/555/19 30/41/19
f 30/41/19 22/562/19 14/42/19
f 38/44/20 40/46/20 39/45/20
f 40/46/21 2/1/21 1/3/21
f 39/49/22 1/569/22 3/570/22
f 3/570/22 5/571/22 7/572/22
f 7/572/22 9/573/22 11/574/22
f 11/574/22 13/575/22 15/47/22
f 15/47/22 17/576/22 19/577/22
f 19/577/22 21/578/22 23/579/22
f 23/579/22 25/580/22 27/581/22
f 27/581/22 29/582/22 31/48/22
f 31/48/22 33/583/22 35/584/22
f 35/584/22 37/585/22 39/49/22
f 39/49/22 3/570/22 7/572/22
f 7/572/22 11/574/22 15/47/22
f 15/47/22 19/577/22 23/579/22
f 23/579/22 27/581/22 31/48/22
f 31/48/22 35/584/22 39/49/22
f 39/49/22 7/572/22 15/47/22
f 15/47/22 23/579/22 31/48/22
s 1
f 42/50/23 56/81/27 55/51/24
f 43/53/26 57/57/29 56/54/27
f 44/56/28 58/59/31 57/57/29
f 45/58/30 59/61/33 58/59/31
f 46/60/32 60/86/35 59/61/33
f 47/62/34 61/66/37 60/63/35
f 47/62/34 48/67/38 62/65/36
f 48/67/38 49/70/41 63/68/39
f 50/69/40 64/72/43 63/68/39
f 50/69/40 51/586/45 65/71/42
f 52/73/44 66/77/47 65/74/42
f 53/76/46 67/79/49 66/77/47
f 54/78/48 68/80/50 67/79/49
f 41/52/25 55/51/24 68/80/50
f 56/81/27 70/97/52 69/82/51
f 57/57/29 71/84/53 70/83/52
f 58/59/31 72/85/54 71/84/53
f 59/61/33 73/87/55 72/85/54
f 60/86/35 74/587/56 73/87/55
f 61/66/37 75/89/57 74/88/56
f 62/65/36 76/90/58 75/89/57
f 63/68/39 77/91/59 76/90/58
f 64/72/43 78/92/60 77/91/59
f 65/71/42 79/108/62 78/92/60
f 65/74/42 66/77/47 80/93/61
f 67/79/49 81/95/63 80/93/61
f 68/80/50 82/96/64 81/95/63
f 55/51/24 69/82/51 82/96/64
f 70/97/52 84/588/66 83/98/65
f 71/84/53 85/100/67 84/99/66
f 72/85/54 86/101/68 85/100/67
f 73/87/55 87/103/70 86/101/68
f 73/87/55 74/587/56 88/102/69
f 74/88/56 75/89/57 89/104/71
f 76/90/58 90/107/73 89/104/71
f 76/90/58 77/91/59 91/106/72
f 78/92/60 92/109/74 91/106/72
f 79/108/62 93/589/75 92/109/74
f 80/93/61 94/111/76 93/110/75
f 81/95/63 95/112/77 94/111/76
f 82/96/64 96/113/78 95/112/77
f 69/82/51 83/98/65 96/113/78
f 84/114/66 98/118/81 97/115/79
f 84/114/66 85/590/67 99/117/80
f 86/101/68 100/120/82 99/119/80
f 87/103/70 101/591/84 100/120/82
f 87/121/70 88/125/69 102/122/83
f 89/124/71 103/127/86 102/122/83
f 89/124/71 90/592/73 104/126/85
f 90/107/73 91/106/72 105/128/87
f 92/109/74 106/593/89 105/128/87
f 92/130/74 93/134/75 107/131/88
f 94/133/76 108/142/90 107/131/88
f 95/112/77 109/137/92 108/135/90
f 95/112/77 96/113/78 110/136/91
f 83/98/65 97/594/79 110/136/91
f 41/595/25 54/596/48 53/597/46
f 53/597/46 52/598/44 51/138/45
f 51/138/45 50/599/40 49/600/41
f 49/600/41 48/601/38 47/139/34
f 47/139/34 46/602/32 45/603/30
f 45/603/30 44/604/28 43/140/26
f 43/140/26 42/605/23 41/595/25
f 41/595/25 53/597/46 51/138/45
f 51/138/45 49/600/41 47/139/34
f 47/139/34 45/603/30 43/140/26
f 43/140/26 41/595/25 51/138/45
f 110/606/91 97/115/79 98/118/81
f 98/118/81 99/117/80 100/141/82
f 100/141/82 101/123/84 102/122/83
f 102/122/83 103/127/86 104/126/85
f 104/126/85 105/607/87 106/132/89
f 106/132/89 107/131/88 108/142/90
f 108/142/90 109/608/92 110/606/91
f 110/606/91 98/118/81 100/141/82
f 100/141/82 102/122/83 104/126/85
f 104/126/85 106/132/89 108/142/90
f 108/142/90 110/606/91 100/141/82
s 0
f 112/143/93 114/146/93 113/144/93
f 114/146/94 116/148/94 115/147/94
f 116/148/95 118/609/95 117/149/95
f 118/150/96 120/610/96 119/151/96
f 119/151/97 120/610/97 122/153/97
f 122/153/98 124/156/98 123/155/98
f 124/156/99 126/611/99 125/157/99
f 126/158/100 128/161/100 127/159/100
f 128/161/101 130/163/101 129/162/101
f 130/163/102 132/165/102 131/164/102
f 132/165/103 134/612/103 133/166/103
f 133/166/104 134/612/104 136/167/104
f 116/613/105 114/614/105 112/615/105
f 112/615/105 138/616/105 136/169/105
f 136/169/105 134/617/105 132/618/105
f 132/618/105 130/619/105 128/170/105
f 128/170/105 126/620/105 124/621/105
f 124/621/105 122/622/105 120/171/105
f 120/171/105 118/623/105 116/613/105
f 116/613/105 112/615/105 136/169/105
f 136/169/105 132/618/105 128/170/105
f 128/170/105 124/621/105 120/171/105
f 120/171/105 116/613/105 136/169/105
f 136/172/106 138/175/106 137/173/106
f 138/175/107 112/143/107 111/145/107
f 137/624/108 111/625/108 113/626/108
f 113/626/108 115/627/108 117/176/108
f 117/176/108 119/628/108 121/629/108
f 121/629/108 123/630/108 125/177/108
f 125/177/108 127/631/108 129/632/108
f 129/632/108 131/633/108 133/178/108
f 133/178/108 135/634/108 137/624/108
f 137/624/108 113/626/108 117/176/108
f 117/176/108 121/629/108 125/177/108
f 125/177/108 129/632/108 133/178/108
f 133/178/108 137/624/108 117/176/108
