# Blender 4.5.13 LTS
# www.blender.org
o charcoal
v 0.000000 0.000000 -0.300000
v 0.000000 0.050000 -0.300000
v 0.092705 0.000000 -0.285317
v 0.092705 0.050000 -0.285317
v 0.176336 0.000000 -0.242705
v 0.176336 0.050000 -0.242705
v 0.242705 0.000000 -0.176336
v 0.242705 0.050000 -0.176336
v 0.285317 0.000000 -0.092705
v 0.285317 0.050000 -0.092705
v 0.300000 0.000000 0.000000
v 0.300000 0.050000 0.000000
v 0.285317 0.000000 0.092705
v 0.285317 0.050000 0.092705
v 0.242705 0.000000 0.176336
v 0.242705 0.050000 0.176336
v 0.176336 0.000000 0.242705
v 0.176336 0.050000 0.242705
v 0.092705 0.000000 0.285317
v 0.092705 0.050000 0.285317
v 0.000000 0.000000 0.300000
v 0.000000 0.050000 0.300000
v -0.092705 0.000000 0.285317
v -0.092705 0.050000 0.285317
v -0.176336 0.000000 0.242705
v -0.176336 0.050000 0.242705
v -0.242705 0.000000 0.176336
v -0.242705 0.050000 0.176336
v -0.285317 0.000000 0.092705
v -0.285317 0.050000 0.092705
v -0.300000 0.000000 0.000000
v -0.300000 0.050000 0.000000
v -0.285317 0.000000 -0.092705
v -0.285317 0.050000 -0.092705
v -0.242705 0.000000 -0.176336
v -0.242705 0.050000 -0.176336
v -0.176336 0.000000 -0.242705
v -0.176336 0.050000 -0.242705
v -0.092705 0.000000 -0.285317
v -0.092705 0.050000 -0.285317
v 0.230000 0.039958 0.015545
v 0.207223 0.044519 -0.084144
v 0.143403 0.048177 -0.164088
v 0.051180 0.050207 -0.208454
v -0.051180 0.050207 -0.208454
v -0.143403 0.048177 -0.164088
v -0.207223 0.044519 -0.084144
v -0.230000 0.039958 0.015545
v -0.207223 0.035397 0.115234
v -0.143403 0.031739 0.195178
v -0.051180 0.029709 0.239544
v 0.051180 0.029709 0.239544
v 0.143403 0.031739 0.195178
v 0.207223 0.035397 0.115234
v 0.210000 0.349634 0.029714
v 0.189203 0.353799 -0.061306
v 0.130933 0.357139 -0.134299
v 0.046729 0.358992 -0.174807
v -0.046729 0.358992 -0.174807
v -0.130933 0.357139 -0.134299
v -0.189203 0.353799 -0.061306
v -0.210000 0.349634 0.029714
v -0.189203 0.345470 0.120734
v -0.130933 0.342130 0.193727
v -0.046729 0.340276 0.234235
v 0.046729 0.340276 0.234235
v 0.130933 0.342130 0.193727
v 0.189203 0.345470 0.120734
v 0.180000 0.619352 0.042055
v 0.162174 0.622922 -0.035963
v 0.112228 0.625784 -0.098528
v 0.040054 0.627373 -0.133249
v -0.040054 0.627373 -0.133249
v -0.112228 0.625784 -0.098528
v -0.162174 0.622922 -0.035963
v -0.180000 0.619352 0.042055
v -0.162174 0.615782 0.120072
v -0.112228 0.612920 0.182637
v -0.040054 0.611331 0.217358
v 0.040054 0.611331 0.217358
v 0.112228 0.612920 0.182637
v 0.162174 0.615782 0.120072
v 0.170000 0.779185 0.049368
v 0.153165 0.782556 -0.024315
v 0.105993 0.785260 -0.083405
v 0.037829 0.786760 -0.116197
v -0.037829 0.786760 -0.116197
v -0.105993 0.785260 -0.083405
v -0.153165 0.782556 -0.024315
v -0.170000 0.779185 0.049368
v -0.153165 0.775813 0.123051
v -0.105993 0.773110 0.182140
v -0.037829 0.771609 0.214932
v 0.037829 0.771609 0.214932
v 0.105993 0.773110 0.182140
v 0.153165 0.775813 0.123051
v 0.100000 0.859101 0.053024
v 0.090097 0.861084 0.009681
v 0.062349 0.862675 -0.025077
v 0.022252 0.863557 -0.044367
v -0.022252 0.863557 -0.044367
v -0.062349 0.862675 -0.025077
v -0.090097 0.861084 0.009681
v -0.100000 0.859101 0.053024
v -0.090097 0.857118 0.096367
v -0.062349 0.855528 0.131126
v -0.022252 0.854645 0.150415
v 0.022252 0.854645 0.150415
v 0.062349 0.855528 0.131126
v 0.090097 0.857118 0.096367
v 0.000000 0.449598 -0.193778
v 0.000000 0.499546 -0.191492
v 0.091116 0.448648 -0.173003
v 0.091116 0.498596 -0.170718
v 0.164185 0.445984 -0.114793
v 0.164185 0.495932 -0.112508
v 0.204735 0.442136 -0.030678
v 0.204735 0.492084 -0.028392
v 0.204735 0.437864 0.062683
v 0.204735 0.487812 0.064969
v 0.164185 0.434016 0.146799
v 0.164185 0.483963 0.149084
v 0.091116 0.431352 0.205009
v 0.091116 0.481300 0.207294
v 0.000000 0.430402 0.225783
v 0.000000 0.480349 0.228069
v -0.091116 0.431352 0.205009
v -0.091116 0.481300 0.207294
v -0.164185 0.434016 0.146799
v -0.164185 0.483963 0.149084
v -0.204735 0.437864 0.062683
v -0.204735 0.487812 0.064969
v -0.204735 0.442136 -0.030678
v -0.204735 0.492084 -0.028392
v -0.164185 0.445984 -0.114793
v -0.164185 0.495932 -0.112508
v -0.091116 0.448648 -0.173003
v -0.091116 0.498596 -0.170718
v -0.130994 0.470329 -0.018937
v -0.203468 0.535916 -0.035125
v -0.173184 0.526061 -0.098006
v -0.099049 0.545458 -0.067982
v -0.080235 0.557675 0.012687
v -0.150058 0.552348 0.033012
v -0.220212 0.642597 -0.096458
v -0.149946 0.644680 -0.111775
v -0.095461 0.665368 -0.048429
v -0.126930 0.673575 0.014307
v -0.203515 0.657287 -0.014118
v -0.167984 0.722698 -0.063260
v -0.152578 0.478232 -0.061919
v -0.172487 0.482439 -0.024014
v -0.195137 0.519757 -0.069659
v -0.181528 0.535734 0.003749
v -0.138933 0.496312 0.015420
v -0.108353 0.493200 -0.044646
v -0.131991 0.522712 -0.091086
v -0.099737 0.501687 0.002047
v -0.080243 0.543398 -0.027205
v -0.112536 0.551077 0.028571
v -0.211443 0.594390 -0.022376
v -0.181023 0.605799 0.017195
v -0.203984 0.580727 -0.106396
v -0.221497 0.584869 -0.068196
v -0.118086 0.594035 -0.102309
v -0.163420 0.584695 -0.117656
v -0.075228 0.615824 -0.014013
v -0.085240 0.605913 -0.062090
v -0.136872 0.614973 0.032585
v -0.099127 0.618162 0.019247
v -0.217437 0.654719 -0.055734
v -0.187535 0.649015 -0.112125
v -0.116130 0.669040 -0.090548
v -0.102223 0.684936 -0.012129
v -0.168165 0.677958 0.008092
v -0.198332 0.694536 -0.083788
v -0.192711 0.709530 -0.038700
v -0.160479 0.698181 -0.095808
v -0.127420 0.718044 -0.059481
v -0.147480 0.719044 -0.021955
v 0.160881 0.474672 -0.045218
v 0.126972 0.537035 0.015952
v 0.084374 0.538379 -0.038611
v 0.137528 0.543624 -0.097169
v 0.218100 0.548287 -0.082663
v 0.209440 0.547995 -0.013157
v 0.083510 0.650490 -0.001727
v 0.090109 0.652400 -0.070482
v 0.173050 0.663024 -0.099428
v 0.215998 0.661970 -0.044828
v 0.163446 0.660778 0.018077
v 0.138649 0.730741 -0.038052
v 0.115557 0.483606 -0.041940
v 0.143258 0.486909 -0.010339
v 0.096367 0.525743 -0.006475
v 0.173948 0.528733 0.011398
v 0.194477 0.488002 -0.025857
v 0.149048 0.486327 -0.078464
v 0.104390 0.531479 -0.071799
v 0.196783 0.492759 -0.067984
v 0.183656 0.532938 -0.101634
v 0.226998 0.537291 -0.048329
v 0.144208 0.597625 0.025191
v 0.194369 0.602408 0.009911
v 0.072494 0.592572 -0.016729
v 0.095716 0.593648 0.016842
v 0.105045 0.597561 -0.094014
v 0.076760 0.594056 -0.056526
v 0.203127 0.606216 -0.099016
v 0.155840 0.602395 -0.109163
v 0.225385 0.606118 -0.026462
v 0.231548 0.607816 -0.067996
v 0.116408 0.666935 0.018098
v 0.070968 0.664366 -0.034918
v 0.127568 0.666755 -0.091457
v 0.201777 0.671687 -0.075727
v 0.199554 0.674446 -0.009021
v 0.103113 0.707480 -0.015379
v 0.150953 0.713756 -0.004931
v 0.105629 0.711731 -0.057527
v 0.156559 0.710019 -0.072231
v 0.184019 0.714962 -0.041485
v 0.005086 0.824214 -0.040101
v 0.024873 0.870850 0.036648
v -0.059001 0.868563 0.014730
v -0.055525 0.877591 -0.074901
v 0.027109 0.882203 -0.113780
v 0.075858 0.881120 -0.042106
v -0.025418 0.955440 0.043582
v -0.078921 0.960450 -0.022642
v -0.025015 0.969429 -0.102175
v 0.058318 0.970841 -0.079315
v 0.056260 0.962970 0.010329
v -0.005244 1.018770 -0.024797
v -0.031736 0.831301 -0.009232
v 0.017782 0.832224 0.003601
v -0.020137 0.861354 0.035293
v 0.060186 0.867904 0.002093
v 0.049353 0.837355 -0.043017
v -0.030079 0.838244 -0.062231
v -0.066764 0.865366 -0.030745
v 0.018585 0.840513 -0.083591
v -0.018763 0.871470 -0.106432
v 0.062429 0.873976 -0.086075
v 0.049729 0.917298 0.035347
v 0.078954 0.922615 -0.012514
v -0.050984 0.911351 0.042966
v -0.001057 0.913337 0.051418
v -0.078635 0.917396 -0.052538
v -0.077243 0.913359 -0.000282
v 0.001120 0.927064 -0.121609
v -0.050295 0.922733 -0.101254
v 0.081102 0.926973 -0.066464
v 0.051139 0.928675 -0.108329
v 0.018201 0.967077 0.039087
v -0.062391 0.965996 0.020909
v -0.057874 0.970095 -0.065895
v 0.019945 0.978087 -0.099780
v 0.067697 0.975398 -0.034413
v -0.019150 1.001904 0.020009
v 0.030038 1.001644 -0.002943
v -0.047174 0.998996 -0.022578
v -0.016941 1.003625 -0.067024
v 0.032383 1.010506 -0.056376
v 0.002034 0.814999 0.014790
v 0.030728 0.886408 0.126774
v -0.087982 0.890218 0.079021
v -0.087323 0.888771 -0.051689
v 0.041179 0.891916 -0.092097
v 0.110388 0.892466 0.016764
v -0.038492 1.004293 0.119816
v -0.112270 1.008515 0.018115
v -0.028539 1.009060 -0.084116
v 0.088035 1.009818 -0.044191
v 0.087734 1.011517 0.086881
v -0.001934 1.078327 0.019946
v -0.049620 0.841757 0.051501
v 0.019158 0.832093 0.079690
v -0.038259 0.873837 0.121926
v 0.080022 0.882244 0.076915
v 0.065127 0.839979 0.015544
v -0.048560 0.837148 -0.023462
v -0.105931 0.876916 0.015557
v 0.023215 0.845783 -0.042817
v -0.026443 0.880976 -0.086009
v 0.085380 0.885278 -0.043428
v 0.070131 0.948989 0.123062
v 0.113011 0.950952 0.055804
v -0.080926 0.946722 0.122572
v -0.006225 0.947497 0.140469
v -0.116305 0.949020 -0.022055
v -0.111505 0.947622 0.053072
v 0.006039 0.952428 -0.101926
v -0.065066 0.950938 -0.080567
v 0.116200 0.952478 -0.019706
v 0.073816 0.952990 -0.078467
v 0.025735 1.017178 0.118109
v -0.083840 1.013554 0.077197
v -0.082587 1.019928 -0.043955
v 0.038121 1.025888 -0.086681
v 0.107218 1.023972 0.019333
v -0.025019 1.062316 0.082366
v 0.051094 1.068741 0.060463
v -0.067685 1.064342 0.019397
v -0.018692 1.065037 -0.043307
v 0.051904 1.063225 -0.018203
v 0.010261 0.488897 0.198088
v 0.085789 0.562405 0.106222
v 0.088444 0.560165 0.254102
v -0.010076 0.564084 0.331247
v -0.066915 0.575046 0.221447
v -0.010764 0.574065 0.095823
v 0.122200 0.672859 0.174781
v 0.051447 0.666955 0.306489
v -0.041867 0.674161 0.288187
v -0.048137 0.679568 0.146141
v 0.045939 0.668225 0.086806
v 0.028939 0.740339 0.201755
v 0.052053 0.523185 0.228188
v 0.055890 0.507756 0.139699
v 0.090723 0.558130 0.179178
v 0.040293 0.552531 0.070104
v -0.003415 0.525978 0.136453
v -0.003674 0.511177 0.277836
v 0.044880 0.548667 0.313163
v -0.045485 0.511108 0.213591
v -0.045204 0.565345 0.280304
v -0.061911 0.556318 0.140859
v 0.070725 0.617950 0.082181
v 0.017447 0.622159 0.064918
v 0.102827 0.613610 0.216258
v 0.112164 0.614146 0.131959
v 0.022382 0.617985 0.326031
v 0.080487 0.614059 0.299280
v -0.081891 0.626472 0.275222
v -0.039152 0.622391 0.337391
v -0.041807 0.626071 0.098553
v -0.064707 0.626535 0.183373
v 0.098985 0.686207 0.102723
v 0.090994 0.675194 0.251259
v -0.000962 0.689694 0.334182
v -0.051928 0.682925 0.221177
v -0.002086 0.683322 0.099546
v 0.085377 0.728712 0.186431
v 0.043456 0.727821 0.122881
v 0.042925 0.712055 0.262217
v -0.012924 0.722968 0.255317
v -0.015254 0.726482 0.168997
vn 0.1564 -0.0000 -0.9877
vn 0.4540 -0.0000 -0.8910
vn 0.7071 -0.0000 -0.7071
vn 0.8910 -0.0000 -0.4540
vn 0.9877 -0.0000 -0.1564
vn 0.9877 -0.0000 0.1564
vn 0.8910 -0.0000 0.4540
vn 0.7071 -0.0000 0.7071
vn 0.4540 -0.0000 0.8910
vn 0.1564 -0.0000 0.9877
vn -0.1564 -0.0000 0.9877
vn -0.4540 -0.0000 0.8910
vn -0.7071 -0.0000 0.7071
vn -0.8910 -0.0000 0.4540
vn -0.9877 -0.0000 0.1564
vn -0.9877 -0.0000 -0.1564
vn -0.8910 -0.0000 -0.4540
vn -0.7071 -0.0000 -0.7071
vn -0.0000 1.0000 -0.0000
vn -0.4540 -0.0000 -0.8910
vn -0.1564 -0.0000 -0.9877
vn -0.0000 -1.0000 -0.0000
vn 0.6951 -0.6202 -0.3635
vn 0.9962 0.0871 0.0040
vn 0.7716 -0.6355 -0.0291
vn 0.4811 -0.6079 -0.6317
vn 0.8975 0.1068 -0.4278
vn 0.1717 -0.6011 -0.7805
vn 0.6211 0.1227 -0.7741
vn -0.1717 -0.6011 -0.7805
vn 0.2217 0.1314 -0.9662
vn -0.4811 -0.6079 -0.6317
vn -0.2217 0.1314 -0.9662
vn -0.6952 -0.6202 -0.3635
vn -0.6211 0.1227 -0.7741
vn -0.7715 -0.6355 -0.0291
vn -0.8975 0.1068 -0.4278
vn -0.6952 -0.6508 0.3053
vn -0.9962 0.0871 0.0040
vn -0.4810 -0.6631 0.5735
vn -0.8975 0.0673 0.4358
vn -0.2217 0.0427 0.9742
vn -0.6211 0.0515 0.7820
vn 0.1717 -0.6699 0.7223
vn -0.1717 -0.6699 0.7224
vn 0.4811 -0.6631 0.5735
vn 0.2217 0.0427 0.9742
vn 0.8975 0.0673 0.4358
vn 0.6211 0.0515 0.7820
vn 0.6951 -0.6508 0.3053
vn 0.9962 0.0866 0.0040
vn 0.8976 0.1064 -0.4278
vn 0.6211 0.1222 -0.7741
vn 0.2217 0.1310 -0.9663
vn -0.6211 0.1222 -0.7741
vn -0.2217 0.1310 -0.9663
vn -0.8976 0.1064 -0.4278
vn -0.9962 0.0866 0.0040
vn -0.8976 0.0669 0.4358
vn -0.6211 0.0510 0.7820
vn -0.2217 0.0422 0.9742
vn 0.2217 0.0422 0.9742
vn 0.6211 0.0510 0.7820
vn 0.8976 0.0669 0.4358
vn 0.8386 0.3836 -0.3867
vn 0.9308 0.3652 0.0167
vn 0.5803 0.3984 -0.7102
vn 0.2071 0.4067 -0.8898
vn -0.2071 0.4067 -0.8898
vn -0.5803 0.3984 -0.7102
vn -0.9308 0.3652 0.0167
vn -0.8386 0.3836 -0.3867
vn -0.8386 0.3467 0.4201
vn -0.2071 0.3237 0.9232
vn -0.5803 0.3319 0.7437
vn 0.2071 0.3237 0.9232
vn 0.5803 0.3319 0.7437
vn 0.8386 0.3467 0.4201
vn 0.4142 0.8962 -0.1587
vn 0.4597 0.8871 0.0406
vn 0.2866 0.9036 -0.3185
vn 0.1023 0.9076 -0.4072
vn -0.1023 0.9076 -0.4071
vn -0.2866 0.9036 -0.3185
vn -0.4142 0.8962 -0.1587
vn -0.4142 0.8780 0.2399
vn -0.4597 0.8871 0.0406
vn -0.2866 0.8707 0.3997
vn -0.1023 0.8666 0.4883
vn 0.2866 0.8707 0.3996
vn 0.1023 0.8666 0.4883
vn 0.4142 0.8780 0.2399
vn 0.2225 0.0446 -0.9739
vn 0.6235 0.0357 -0.7810
vn 0.9010 0.0198 -0.4334
vn 1.0000 -0.0000 -0.0000
vn 0.9010 -0.0198 0.4334
vn 0.6235 -0.0357 0.7810
vn 0.2225 -0.0446 0.9739
vn -0.2225 -0.0446 0.9739
vn -0.6235 -0.0357 0.7810
vn -0.9010 -0.0198 0.4334
vn -1.0000 -0.0000 -0.0000
vn -0.9010 0.0198 -0.4334
vn -0.0000 0.9990 0.0457
vn -0.6235 0.0357 -0.7810
vn -0.2225 0.0446 -0.9739
vn -0.0000 -0.9990 -0.0457
vn 0.2002 -0.9635 0.1779
vn -0.6209 -0.7463 0.2399
vn -0.0946 -0.8651 -0.4926
vn -0.9078 -0.3499 0.2314
vn -0.7121 -0.2903 0.6392
vn 0.7000 -0.6206 -0.3534
vn 0.6887 -0.5692 0.4492
vn -0.1057 -0.5783 0.8089
vn -0.9029 -0.0674 0.4246
vn -0.2681 -0.5045 -0.8208
vn -0.7786 -0.5406 -0.3187
vn -0.6227 -0.2249 -0.7494
vn 0.7896 -0.2578 -0.5569
vn 0.4085 -0.4352 -0.8023
vn 0.5750 -0.0607 -0.8159
vn 0.8228 -0.1342 0.5523
vn 0.9540 -0.2566 -0.1554
vn 0.9708 0.1784 0.1603
vn -0.2609 -0.1670 0.9508
vn 0.3056 -0.1610 0.9384
vn -0.0071 0.1497 0.9887
vn -0.9810 -0.1795 -0.0735
vn 0.0423 -0.1283 -0.9908
vn 0.9015 0.0399 -0.4310
vn 0.5774 0.2064 0.7900
vn -0.5962 0.0416 0.8018
vn -0.8445 0.1772 -0.5054
vn -0.9647 0.2297 0.1292
vn -0.6527 0.5920 -0.4727
vn 0.2325 0.1781 -0.9562
vn -0.2428 0.2242 -0.9438
vn 0.0528 0.5877 -0.8074
vn 0.9042 0.3601 -0.2298
vn 0.6473 0.3306 -0.6868
vn 0.5203 0.8152 -0.2543
vn 0.2407 0.4687 0.8499
vn 0.7419 0.5647 0.3616
vn 0.0647 0.8820 0.4668
vn -0.8103 0.2311 0.5385
vn -0.3670 0.4413 0.8188
vn -0.6671 0.6947 0.2690
vn -0.1930 0.9489 -0.2497
vn 0.0795 -0.9967 -0.0160
vn -0.1203 -0.7656 0.6320
vn -0.5975 -0.8002 -0.0525
vn -0.2088 -0.3297 0.9207
vn 0.3345 -0.3268 0.8839
vn -0.1704 -0.7201 -0.6727
vn 0.5711 -0.7052 -0.4202
vn 0.5742 -0.7192 0.3911
vn 0.0572 -0.0298 0.9979
vn -0.9270 -0.3547 -0.1218
vn -0.7134 -0.4581 0.5303
vn -0.9600 -0.1101 0.2575
vn -0.3243 -0.2565 -0.9105
vn -0.6929 -0.3581 -0.6258
vn -0.5668 -0.0350 -0.8231
vn 0.7681 -0.2269 -0.5988
vn 0.2348 -0.3076 -0.9221
vn 0.5073 0.0888 -0.8572
vn 0.7554 -0.1981 0.6246
vn 0.9510 -0.3001 0.0739
vn 0.9103 0.0648 0.4088
vn -0.5424 -0.0730 0.8370
vn -0.9169 -0.0968 -0.3872
vn -0.0597 0.0255 -0.9979
vn 0.9486 0.1209 -0.2925
vn 0.5598 0.0058 0.8286
vn -0.7674 0.2027 0.6083
vn -0.2864 0.3071 0.9075
vn -0.5820 0.6827 0.4419
vn -0.7235 0.2011 -0.6604
vn -0.9573 0.2868 -0.0371
vn -0.5677 0.6886 -0.4511
vn 0.2030 0.3582 -0.9113
vn -0.3259 0.3236 -0.8883
vn 0.1321 0.7101 -0.6916
vn 0.9210 0.3886 0.0268
vn 0.6928 0.4711 -0.5459
vn 0.6092 0.7927 -0.0217
vn 0.2761 0.2510 0.9278
vn 0.7166 0.3965 0.5738
vn 0.1541 0.7180 0.6787
vn -0.0615 0.9980 -0.0127
vn 0.0216 -0.9943 -0.1048
vn 0.2470 -0.8563 0.4536
vn -0.4124 -0.8805 0.2338
vn 0.3459 -0.4380 0.8298
vn 0.7720 -0.4579 0.4409
vn -0.4586 -0.8020 -0.3828
vn 0.1528 -0.8032 -0.5757
vn 0.6056 -0.7932 -0.0634
vn 0.6257 -0.0056 0.7800
vn -0.7309 -0.4872 0.4779
vn -0.1901 -0.5571 0.8084
vn -0.5454 -0.0860 0.8337
vn -0.7573 -0.4166 -0.5029
vn -0.8590 -0.5071 -0.0704
vn -0.9578 -0.0519 -0.2828
vn 0.2476 -0.3495 -0.9037
vn -0.3353 -0.4655 -0.8191
vn -0.0613 0.0924 -0.9938
vn 0.9418 -0.3361 -0.0013
vn 0.7332 -0.4236 -0.5320
vn 0.9567 0.0833 -0.2791
vn 0.0613 -0.0502 0.9969
vn -0.9559 -0.0991 0.2766
vn -0.6654 0.0209 -0.7462
vn 0.5630 0.1237 -0.8171
vn 0.9554 0.0376 0.2929
vn -0.2044 0.3034 0.9307
vn 0.3035 0.4231 0.8537
vn -0.1728 0.7775 0.6047
vn -0.9357 0.3527 -0.0010
vn -0.7161 0.4091 0.5656
vn -0.6180 0.7862 0.0044
vn -0.3695 0.5025 -0.7816
vn -0.7496 0.4937 -0.4408
vn -0.3000 0.8337 -0.4636
vn 0.7072 0.4987 -0.5012
vn 0.1893 0.5861 -0.7878
vn 0.3933 0.8799 -0.2666
vn 0.7383 0.4162 0.5308
vn 0.8524 0.5181 0.0711
vn 0.4734 0.7811 0.4071
vn -0.0754 0.9954 0.0585
vn 0.0022 -0.9979 -0.0649
vn 0.1816 -0.8637 0.4702
vn -0.4695 -0.8408 0.2694
vn 0.3090 -0.4269 0.8499
vn 0.7252 -0.4971 0.4764
vn -0.3885 -0.8571 -0.3382
vn 0.2174 -0.8265 -0.5192
vn 0.5809 -0.8129 -0.0417
vn 0.5785 -0.0094 0.8156
vn -0.7741 -0.4614 0.4335
vn -0.3194 -0.5525 0.7699
vn -0.6481 0.0254 0.7611
vn -0.7027 -0.4070 -0.5836
vn -0.8526 -0.5221 0.0224
vn -0.9443 0.0083 -0.3291
vn 0.3325 -0.4157 -0.8465
vn -0.2286 -0.4922 -0.8399
vn -0.0071 0.0302 -0.9995
vn 0.9084 -0.4174 0.0240
vn 0.7185 -0.4971 -0.4864
vn 0.9521 0.0030 -0.3057
vn -0.0156 0.0469 0.9988
vn -0.9609 -0.0086 0.2768
vn -0.5395 0.0395 -0.8411
vn 0.6300 0.0157 -0.7764
vn 0.9475 -0.0352 0.3177
vn -0.3002 0.4354 0.8487
vn 0.1882 0.4767 0.8587
vn -0.2294 0.8036 0.5491
vn -0.9224 0.3848 0.0339
vn -0.7260 0.4700 0.5020
vn -0.5536 0.8326 0.0182
vn -0.3112 0.3837 -0.8694
vn -0.6787 0.4800 -0.5558
vn -0.1786 0.8501 -0.4954
vn 0.7604 0.4096 -0.5039
vn 0.2871 0.5026 -0.8154
vn 0.4259 0.8561 -0.2928
vn 0.7133 0.3997 0.5757
vn 0.8716 0.4902 -0.0097
vn 0.3847 0.8584 0.3393
vn -0.0188 0.9998 -0.0062
vn 0.5510 -0.8177 0.1665
vn 0.5608 -0.6334 -0.5332
vn 0.4578 -0.8323 0.3125
vn -0.3127 -0.9276 0.2045
vn -0.4325 -0.8118 -0.3924
vn 0.6347 -0.1555 -0.7570
vn 0.9711 -0.2359 0.0359
vn 0.2905 -0.0827 0.9533
vn -0.8426 -0.4866 0.2307
vn -0.5697 -0.2999 -0.7652
vn 0.7640 -0.0704 -0.6414
vn 0.9628 -0.0754 0.2595
vn 0.1806 -0.0136 0.9835
vn -0.9786 -0.0935 -0.1832
vn -0.4905 -0.2489 -0.8351
vn 0.8094 0.5662 -0.1559
vn 0.5921 0.6187 0.5163
vn -0.6655 0.6462 0.3736
vn -0.8014 0.5944 -0.0671
vn -0.0649 0.5148 -0.8549
vn -0.1670 0.9686 -0.1844
vn -0.4354 0.7253 -0.5333
vn -0.5681 0.6464 -0.5094
vn -0.3306 0.9426 0.0473
vn -0.7354 0.6760 0.0474
vn -0.7805 0.5941 0.1949
vn 0.1288 0.9093 0.3956
vn 0.1344 0.9201 0.3678
vn 0.5582 0.6326 0.5369
vn 0.2798 0.8928 0.3530
vn 0.6006 0.6413 0.4774
vn 0.8202 0.4740 0.3202
vn 0.1677 0.9780 -0.1243
vn 0.4857 0.8088 -0.3317
vn 0.0796 0.5186 -0.8513
vn -0.0852 0.4701 -0.8785
vn -0.4502 0.3267 -0.8310
vn -0.6494 0.4611 -0.6047
vn -0.9640 0.2589 -0.0603
vn -0.9290 0.3269 -0.1736
vn -0.7767 0.5989 0.1950
vn -0.7389 0.4435 0.5073
vn 0.1776 -0.0539 0.9826
vn 0.4863 0.0592 0.8718
vn 0.7438 0.3291 0.5817
vn 0.9650 0.0380 0.2595
vn 0.9248 -0.0374 0.3785
vn 0.9533 0.0538 -0.2972
vn 0.7583 -0.1212 -0.6405
vn 0.2201 0.1964 -0.9555
vn -0.9586 0.1174 -0.2594
vn -0.9584 0.1189 -0.2594
vn -0.9981 -0.0026 -0.0614
vn -0.7174 0.4598 0.5234
vn -0.7619 -0.4160 0.4965
vn -0.7493 -0.4270 0.5061
vn 0.4218 0.1089 0.9001
vn 0.4161 -0.0336 0.9087
vn 0.7911 -0.3201 0.5212
vn 0.9646 -0.2417 0.1053
vn 0.9550 -0.2779 0.1040
vn 0.9042 -0.4183 -0.0857
vn 0.3164 0.2404 -0.9177
vn 0.3103 0.0311 -0.9501
vn -0.5135 -0.2300 -0.8267
vn -0.3781 -0.6305 -0.6779
vn -0.4459 -0.8019 -0.3978
vn -0.9475 -0.3195 0.0154
vn -0.9004 -0.3358 0.2768
vn -0.6969 -0.5550 0.4542
vn -0.6927 -0.5522 0.4640
vn 0.0335 -0.7080 0.7054
vn 0.4426 -0.8480 0.2916
vn 0.5797 -0.7657 0.2786
vn -0.5478 -0.5872 -0.5959
vn -0.2316 -0.8409 -0.4891
vn -0.2374 -0.8548 -0.4616
vn 0.6978 -0.7152 0.0406
vn 0.7576 -0.6366 0.1439
vn 0.8502 -0.5190 -0.0879
vt 0.965610 0.653580
vt 0.941808 0.698455
vt 0.940278 0.653786
vt 0.969689 0.001623
vt 0.943811 0.039370
vt 0.944298 0.001636
vt 0.969202 0.039358
vt 0.943555 0.084261
vt 0.968946 0.084248
vt 0.943555 0.131912
vt 0.968946 0.131900
vt 0.943811 0.177662
vt 0.969202 0.177649
vt 0.944298 0.217030
vt 0.914920 0.247821
vt 0.939513 0.215970
vt 0.940308 0.247853
vt 0.914125 0.215938
vt 0.939002 0.174696
vt 0.913614 0.174664
vt 0.938826 0.128070
vt 0.913438 0.128038
vt 0.939002 0.080657
vt 0.913614 0.080625
vt 0.939513 0.037097
vt 0.914125 0.037065
vt 0.940308 0.001655
vt 0.941405 0.516926
vt 0.965697 0.482595
vt 0.966781 0.517058
vt 0.940321 0.482463
vt 0.965127 0.439640
vt 0.939751 0.439509
vt 0.965127 0.392399
vt 0.939751 0.392267
vt 0.965697 0.345495
vt 0.940321 0.345363
vt 0.966781 0.303520
vt 0.967140 0.520305
vt 0.940278 0.560235
vt 0.941808 0.520510
vt 0.221128 0.016355
vt 0.175813 0.302613
vt 0.016341 0.221293
vt 0.965610 0.560029
vt 0.939751 0.606158
vt 0.965083 0.605953
vt 0.562560 0.044304
vt 0.431646 0.302643
vt 0.305626 0.176095
vt 0.542023 0.722225
vt 0.588356 0.564798
vt 0.592781 0.722225
vt 0.491413 0.722276
vt 0.542011 0.564798
vt 0.142760 0.723721
vt 0.176347 0.565335
vt 0.184227 0.722896
vt 0.091795 0.724015
vt 0.138487 0.566089
vt 0.041423 0.723721
vt 0.091953 0.566357
vt 0.001623 0.722896
vt 0.045961 0.566089
vt 0.729258 0.719621
vt 0.776205 0.563445
vt 0.779644 0.720479
vt 0.678307 0.719621
vt 0.730200 0.562662
vt 0.636882 0.720479
vt 0.683680 0.562662
vt 0.488166 0.722841
vt 0.444120 0.565904
vt 0.480116 0.565293
vt 0.398518 0.723748
vt 0.448742 0.723509
vt 0.347440 0.723509
vt 0.398263 0.566122
vt 0.313449 0.565293
vt 0.351627 0.565904
vt 0.625657 0.564844
vt 0.633635 0.722276
vt 0.581766 0.427697
vt 0.495802 0.564844
vt 0.542042 0.427697
vt 0.164593 0.428004
vt 0.132141 0.428650
vt 0.052833 0.428650
vt 0.092254 0.428880
vt 0.021686 0.428004
vt 0.770297 0.426863
vt 0.730865 0.426192
vt 0.645856 0.563445
vt 0.690990 0.426192
vt 0.467965 0.427993
vt 0.437111 0.428516
vt 0.397805 0.428703
vt 0.357832 0.428516
vt 0.613739 0.427737
vt 0.542035 0.346444
vt 0.579553 0.346444
vt 0.504628 0.346482
vt 0.160651 0.346685
vt 0.130002 0.347295
vt 0.092332 0.347513
vt 0.055101 0.347295
vt 0.731355 0.345175
vt 0.768597 0.345809
vt 0.658570 0.426863
vt 0.693695 0.345175
vt 0.434802 0.347174
vt 0.463942 0.346680
vt 0.397680 0.347351
vt 0.325108 0.427993
vt 0.359927 0.347174
vt 0.609749 0.346482
vt 0.542244 0.305890
vt 0.564313 0.305890
vt 0.520239 0.305912
vt 0.133247 0.743933
vt 0.124872 0.789255
vt 0.110779 0.771583
vt 0.093219 0.305988
vt 0.115378 0.305860
vt 0.133247 0.878944
vt 0.124872 0.833329
vt 0.157205 0.848900
vt 0.752700 0.306263
vt 0.708641 0.305890
vt 0.730793 0.305890
vt 0.025581 0.878947
vt 0.067811 0.860810
vt 0.060201 0.895618
vt 0.001623 0.848905
vt 0.047446 0.851003
vt 0.418237 0.305890
vt 0.374193 0.305890
vt 0.396400 0.305994
vt 0.025581 0.743935
vt 0.033353 0.789257
vt 0.001623 0.773979
vt 0.060201 0.727262
vt 0.047446 0.771585
vt 0.630891 0.190938
vt 0.671521 0.013110
vt 0.836029 0.092498
vt 0.090414 0.860809
vt 0.028323 0.811294
vt 0.965014 0.885167
vt 0.989877 0.841868
vt 0.990401 0.885151
vt 0.972936 0.001623
vt 0.998377 0.044258
vt 0.972982 0.044258
vt 0.972982 0.091725
vt 0.998377 0.091725
vt 0.972936 0.134623
vt 0.996618 0.520305
vt 0.970608 0.551351
vt 0.971229 0.520404
vt 0.995998 0.551252
vt 0.970387 0.594850
vt 0.995776 0.594751
vt 0.970608 0.642285
vt 0.995998 0.642186
vt 0.971229 0.684262
vt 0.971556 0.466840
vt 0.995807 0.436539
vt 0.996932 0.467032
vt 0.970430 0.436347
vt 0.995405 0.393283
vt 0.970028 0.393091
vt 0.995807 0.345830
vt 0.970430 0.345638
vt 0.996932 0.303580
vt 0.787145 0.734289
vt 0.824257 0.896883
vt 0.657477 0.896880
vt 0.964490 0.974843
vt 0.990401 0.932603
vt 0.989877 0.974827
vt 0.455688 0.929760
vt 0.305626 0.857259
vt 0.409472 0.726994
vt 0.626144 0.286162
vt 0.608343 0.274363
vt 0.625532 0.261473
vt 0.884060 0.810245
vt 0.883640 0.838622
vt 0.864560 0.814670
vt 0.642475 0.278148
vt 0.636621 0.300973
vt 0.859414 0.963950
vt 0.850355 0.945491
vt 0.870372 0.952349
vt 0.871932 0.782246
vt 0.210725 0.958309
vt 0.196935 0.960593
vt 0.196381 0.931046
vt 0.894968 0.389785
vt 0.875201 0.397152
vt 0.880737 0.361449
vt 0.936504 0.392256
vt 0.917039 0.395621
vt 0.931795 0.361171
vt 0.883733 0.925872
vt 0.865010 0.922624
vt 0.883738 0.893376
vt 0.895772 0.782211
vt 0.217718 0.929258
vt 0.907011 0.361068
vt 0.848099 0.915821
vt 0.848136 0.885986
vt 0.864199 0.887753
vt 0.901981 0.902195
vt 0.904071 0.750702
vt 0.882563 0.748779
vt 0.892416 0.726583
vt 0.224001 0.898599
vt 0.205332 0.896580
vt 0.217301 0.870973
vt 0.917376 0.332282
vt 0.894481 0.325421
vt 0.911324 0.303388
vt 0.663148 0.299456
vt 0.645722 0.293085
vt 0.663484 0.277563
vt 0.861482 0.751938
vt 0.848099 0.744615
vt 0.868427 0.723726
vt 0.680128 0.259646
vt 0.663107 0.254096
vt 0.680274 0.286991
vt 0.901981 0.864859
vt 0.882553 0.862942
vt 0.892313 0.841868
vt 0.645722 0.265311
vt 0.934367 0.325592
vt 0.652440 0.241559
vt 0.885898 0.308084
vt 0.238776 0.885356
vt 0.672366 0.238242
vt 0.197239 0.872558
vt 0.187474 0.899418
vt 0.850866 0.781154
vt 0.868393 0.854382
vt 0.875201 0.333716
vt 0.238776 0.923783
vt 0.230532 0.959581
vt 0.915078 0.780846
vt 0.902808 0.815029
vt 0.848099 0.809985
vt 0.921607 0.418007
vt 0.897892 0.417401
vt 0.642049 0.250402
vt 0.217236 0.981170
vt 0.893315 0.936894
vt 0.862373 0.836356
vt 0.615619 0.298951
vt 0.608343 0.246819
vt 0.624622 0.238242
vt 0.700533 0.271193
vt 0.683521 0.262204
vt 0.699305 0.248140
vt 0.840219 0.607094
vt 0.831642 0.633891
vt 0.817161 0.613764
vt 0.717921 0.265131
vt 0.712983 0.289353
vt 0.691450 0.288210
vt 0.829654 0.577139
vt 0.936782 0.808792
vt 0.919090 0.810097
vt 0.934780 0.779021
vt 0.924910 0.929917
vt 0.905356 0.933181
vt 0.911672 0.900987
vt 0.263466 0.956629
vt 0.247830 0.965308
vt 0.250718 0.927957
vt 0.795602 0.606459
vt 0.783080 0.613650
vt 0.782891 0.578265
vt 0.852464 0.576923
vt 0.954180 0.784541
vt 0.938567 0.901819
vt 0.271039 0.925861
vt 0.802933 0.577642
vt 0.936296 0.748862
vt 0.928701 0.738334
vt 0.951379 0.723726
vt 0.969724 0.758703
vt 0.954700 0.747114
vt 0.972373 0.728246
vt 0.949706 0.871724
vt 0.926631 0.867182
vt 0.941682 0.845982
vt 0.276386 0.897718
vt 0.258815 0.893978
vt 0.269129 0.870973
vt 0.815858 0.546413
vt 0.793979 0.542029
vt 0.816058 0.519637
vt 0.721168 0.262857
vt 0.738836 0.245111
vt 0.738618 0.268156
vt 0.721168 0.238242
vt 0.288770 0.890253
vt 0.755053 0.258241
vt 0.249259 0.874746
vt 0.242023 0.899397
vt 0.748992 0.284457
vt 0.915146 0.841868
vt 0.905228 0.871544
vt 0.727614 0.286867
vt 0.838405 0.520669
vt 0.838480 0.540940
vt 0.288770 0.925305
vt 0.852884 0.548097
vt 0.281498 0.960932
vt 0.961243 0.901812
vt 0.947562 0.937829
vt 0.972373 0.789087
vt 0.951426 0.817576
vt 0.918325 0.773644
vt 0.852884 0.611832
vt 0.804578 0.636315
vt 0.286426 0.985339
vt 0.267479 0.984393
vt 0.948493 0.957154
vt 0.925474 0.958467
vt 0.905228 0.956454
vt 0.929400 0.836256
vt 0.683521 0.238242
vt 0.105341 0.930817
vt 0.116743 0.950331
vt 0.090792 0.950096
vt 0.798624 0.688447
vt 0.782891 0.700852
vt 0.783012 0.673040
vt 0.085110 0.923548
vt 0.106496 0.907041
vt 0.126610 0.923367
vt 0.808484 0.663650
vt 0.822320 0.718555
vt 0.809139 0.708299
vt 0.838906 0.703983
vt 0.042880 0.964160
vt 0.021401 0.955718
vt 0.046229 0.940949
vt 0.920813 0.485205
vt 0.897017 0.489669
vt 0.909651 0.462421
vt 0.908173 0.696174
vt 0.885368 0.701397
vt 0.896605 0.673745
vt 0.824608 0.685431
vt 0.003640 0.940750
vt 0.004845 0.914825
vt 0.023650 0.926831
vt 0.067138 0.953733
vt 0.933268 0.461825
vt 0.920985 0.674109
vt 0.847813 0.679878
vt 0.838013 0.659299
vt 0.861483 0.659980
vt 0.047009 0.914340
vt 0.030560 0.899072
vt 0.057945 0.898865
vt 0.895665 0.439825
vt 0.875741 0.437574
vt 0.896971 0.421253
vt 0.884282 0.652110
vt 0.866327 0.649396
vt 0.887800 0.631392
vt 0.543013 0.978347
vt 0.542353 0.954670
vt 0.557556 0.973922
vt 0.562364 0.947027
vt 0.577505 0.966689
vt 0.906722 0.648193
vt 0.587979 0.947388
vt 0.573304 0.927572
vt 0.917998 0.436015
vt 0.597999 0.972856
vt 0.608076 0.953179
vt 0.067138 0.923651
vt 0.579372 0.990761
vt 0.600634 0.996744
vt 0.861483 0.688124
vt 0.558675 0.996744
vt 0.821628 0.643783
vt 0.843592 0.639562
vt 0.925140 0.653024
vt 0.870870 0.674522
vt 0.881953 0.463050
vt 0.864729 0.698414
vt 0.875741 0.484785
vt 0.796731 0.646561
vt 0.925450 0.701451
vt 0.903481 0.718555
vt 0.127287 0.898865
vt 0.878112 0.718555
vt 0.912659 0.504993
vt 0.084835 0.898865
vt 0.886277 0.504580
vt 0.025318 0.976626
vt 0.070385 0.942139
vt 0.001623 0.963442
vt 0.136907 0.942701
vt 0.101404 0.969075
vt 0.079645 0.963356
vt 0.243418 0.595536
vt 0.276300 0.598997
vt 0.249967 0.626305
vt 0.215524 0.515830
vt 0.201328 0.540155
vt 0.187474 0.503030
vt 0.215055 0.612208
vt 0.218632 0.574542
vt 0.254086 0.565406
vt 0.213796 0.478352
vt 0.805758 0.391889
vt 0.782891 0.399799
vt 0.785310 0.362054
vt 0.871955 0.396659
vt 0.837745 0.400246
vt 0.859126 0.364679
vt 0.872494 0.483272
vt 0.845032 0.504593
vt 0.843735 0.464579
vt 0.256823 0.735956
vt 0.224254 0.742752
vt 0.238541 0.707268
vt 0.248090 0.498466
vt 0.820946 0.363165
vt 0.813052 0.516390
vt 0.782891 0.496985
vt 0.810888 0.482776
vt 0.870646 0.448348
vt 0.272404 0.704510
vt 0.273465 0.480011
vt 0.249058 0.458639
vt 0.277614 0.449016
vt 0.840521 0.333377
vt 0.810372 0.329538
vt 0.841006 0.305890
vt 0.813246 0.447944
vt 0.782891 0.456817
vt 0.799841 0.421254
vt 0.218485 0.679795
vt 0.187473 0.674313
vt 0.219938 0.652025
vt 0.191756 0.787284
vt 0.220967 0.766368
vt 0.211650 0.799805
vt 0.249032 0.786100
vt 0.240220 0.818209
vt 0.250976 0.669393
vt 0.273082 0.815601
vt 0.283456 0.781402
vt 0.838509 0.424286
vt 0.251420 0.849708
vt 0.283456 0.846481
vt 0.871955 0.330063
vt 0.214011 0.840010
vt 0.225618 0.867726
vt 0.197355 0.853352
vt 0.187474 0.822208
vt 0.217454 0.444429
vt 0.244108 0.426533
vt 0.278192 0.672742
vt 0.202483 0.710325
vt 0.787922 0.333768
vt 0.192115 0.742258
vt 0.277614 0.515953
vt 0.241252 0.537864
vt 0.187911 0.463453
vt 0.278192 0.738663
vt 0.248969 0.763121
vt 0.227777 0.544387
vt 0.196432 0.556362
vt 0.187474 0.589676
vt 0.192137 0.624663
vt 0.221009 0.645913
vt 0.817755 0.418007
vt 0.283666 0.568906
vt 0.260367 0.543402
vt 0.283666 0.633281
vt 0.253551 0.648778
vt 0.867850 0.057033
vt 0.901681 0.039183
vt 0.881278 0.078140
vt 0.576909 0.816165
vt 0.599750 0.833687
vt 0.557827 0.835120
vt 0.844791 0.089493
vt 0.839276 0.051111
vt 0.875404 0.024104
vt 0.549107 0.801027
vt 0.633635 0.777824
vt 0.606472 0.798152
vt 0.606652 0.763766
vt 0.619874 0.895104
vt 0.596223 0.914163
vt 0.593599 0.876753
vt 0.266519 0.371965
vt 0.255041 0.400330
vt 0.229732 0.380951
vt 0.898962 0.602136
vt 0.874206 0.620764
vt 0.874419 0.583893
vt 0.576519 0.784666
vt 0.633635 0.744308
vt 0.621696 0.861949
vt 0.254663 0.341765
vt 0.905858 0.573884
vt 0.577547 0.747655
vt 0.542353 0.763770
vt 0.559082 0.725523
vt 0.568211 0.860939
vt 0.542353 0.868361
vt 0.557681 0.841145
vt 0.901436 0.224628
vt 0.876314 0.242874
vt 0.890570 0.204296
vt 0.242066 0.311799
vt 0.220339 0.343099
vt 0.216061 0.309656
vt 0.907668 0.546845
vt 0.881424 0.549283
vt 0.891184 0.519637
vt 0.876428 0.132529
vt 0.900774 0.161604
vt 0.875401 0.172965
vt 0.901436 0.126602
vt 0.856131 0.560366
vt 0.859683 0.532072
vt 0.194310 0.347782
vt 0.206137 0.374486
vt 0.862075 0.202093
vt 0.853133 0.224090
vt 0.848939 0.159679
vt 0.839276 0.192358
vt 0.599900 0.730167
vt 0.850877 0.117539
vt 0.926774 0.528099
vt 0.215163 0.409648
vt 0.187473 0.390907
vt 0.590321 0.838367
vt 0.565172 0.891642
vt 0.929215 0.565495
vt 0.277985 0.305860
vt 0.296369 0.342440
vt 0.242208 0.423286
vt 0.567447 0.921102
vt 0.929215 0.602039
vt 0.848084 0.012122
vt 0.881579 0.001623
vt 0.296369 0.386231
vt 0.279445 0.414685
vt 0.621696 0.924325
vt 0.860272 0.114292
vt 0.893162 0.096043
vt 0.907302 0.623458
vt 0.910192 0.001829
vt 0.910192 0.062323
vt 0.967140 0.698249
vt 0.969689 0.217017
vt 0.914920 0.001623
vt 0.941405 0.303388
vt 0.001623 0.175955
vt 0.001625 0.128282
vt 0.016347 0.082943
vt 0.044348 0.044376
vt 0.082886 0.016355
vt 0.128190 0.001623
vt 0.175825 0.001623
vt 0.259664 0.044376
vt 0.287661 0.082943
vt 0.302380 0.128282
vt 0.302378 0.175954
vt 0.287656 0.221293
vt 0.259655 0.259861
vt 0.221117 0.287882
vt 0.128178 0.302613
vt 0.082875 0.287882
vt 0.044339 0.259861
vt 0.305626 0.128425
vt 0.320283 0.083075
vt 0.348163 0.044485
vt 0.386536 0.016433
vt 0.431646 0.001664
vt 0.479077 0.001623
vt 0.524187 0.016316
vt 0.590439 0.082846
vt 0.605096 0.128171
vt 0.605096 0.175842
vt 0.590439 0.221191
vt 0.562560 0.259781
vt 0.524187 0.287834
vt 0.479077 0.302603
vt 0.386536 0.287950
vt 0.348163 0.259963
vt 0.320283 0.221420
vt 0.009622 0.565335
vt 0.305626 0.722841
vt 0.502434 0.427737
vt 0.025684 0.346685
vt 0.663077 0.345809
vt 0.329021 0.346680
vt 0.157205 0.773975
vt 0.071319 0.305860
vt 0.110779 0.851002
vt 0.033353 0.833331
vt 0.067811 0.761777
vt 0.813481 0.191185
vt 0.772851 0.223508
vt 0.722186 0.234995
vt 0.671521 0.223371
vt 0.608343 0.144120
vt 0.608343 0.092190
vt 0.630891 0.045433
vt 0.722186 0.001623
vt 0.772851 0.013247
vt 0.813481 0.045680
vt 0.836029 0.144428
vt 0.090414 0.761776
vt 0.129901 0.811292
vt 0.964490 0.841885
vt 0.998331 0.001624
vt 0.998331 0.134624
vt 0.996618 0.684162
vt 0.971556 0.303388
vt 0.636882 0.806648
vt 0.657477 0.763882
vt 0.694589 0.734288
vt 0.740867 0.723726
vt 0.824257 0.763884
vt 0.844852 0.806651
vt 0.844852 0.854117
vt 0.787145 0.926477
vt 0.740867 0.937039
vt 0.694589 0.926476
vt 0.636882 0.854114
vt 0.965014 0.932620
vt 0.492750 0.767229
vt 0.513318 0.810009
vt 0.513318 0.857468
vt 0.492750 0.900207
vt 0.409472 0.940274
vt 0.363256 0.929666
vt 0.326194 0.900039
vt 0.305626 0.809800
vt 0.326194 0.767061
vt 0.363256 0.737508
vt 0.455688 0.737602
s 0
f 2/1/1 3/2/1 1/3/1
f 4/4/2 5/5/2 3/6/2
f 6/7/3 7/8/3 5/5/3
f 8/9/4 9/10/4 7/8/4
f 10/11/5 11/12/5 9/10/5
f 12/13/6 13/14/6 11/12/6
f 14/15/7 15/16/7 13/17/7
f 16/18/8 17/19/8 15/16/8
f 18/20/9 19/21/9 17/19/9
f 20/22/10 21/23/10 19/21/10
f 22/24/11 23/25/11 21/23/11
f 24/26/12 25/27/12 23/25/12
f 26/28/13 27/29/13 25/30/13
f 28/31/14 29/32/14 27/29/14
f 30/33/15 31/34/15 29/32/15
f 32/35/16 33/36/16 31/34/16
f 34/37/17 35/38/17 33/36/17
f 36/39/18 37/40/18 35/41/18
f 30/42/19 14/43/19 6/44/19
f 38/45/20 39/46/20 37/40/20
f 40/47/21 1/3/21 39/46/21
f 15/48/22 31/49/22 39/50/22
s 1
f 42/51/23 55/52/24 41/53/25
f 43/54/26 56/55/27 42/51/23
f 44/56/28 57/57/29 43/58/26
f 45/59/30 58/60/31 44/56/28
f 46/61/32 59/62/33 45/59/30
f 47/63/34 60/64/35 46/61/32
f 48/65/36 61/66/37 47/67/34
f 49/68/38 62/69/39 48/65/36
f 50/70/40 63/71/41 49/68/38
f 50/72/40 65/73/42 64/74/43
f 52/75/44 65/73/42 51/76/45
f 53/77/46 66/78/47 52/75/44
f 53/77/46 68/79/48 67/80/49
f 41/53/25 68/81/48 54/82/50
f 56/55/27 69/83/51 55/52/24
f 57/84/29 70/85/52 56/55/27
f 58/60/31 71/86/53 57/57/29
f 59/62/33 72/87/54 58/60/31
f 59/62/33 74/88/55 73/89/56
f 60/64/35 75/90/57 74/88/55
f 62/69/39 75/91/57 61/66/37
f 63/71/41 76/92/58 62/69/39
f 64/93/43 77/94/59 63/71/41
f 65/73/42 78/95/60 64/74/43
f 66/78/47 79/96/61 65/73/42
f 67/80/49 80/97/62 66/78/47
f 68/79/48 81/98/63 67/80/49
f 55/52/24 82/99/64 68/81/48
f 69/83/51 84/100/65 83/101/66
f 70/85/52 85/102/67 84/100/65
f 72/87/54 85/103/67 71/86/53
f 73/89/56 86/104/68 72/87/54
f 74/88/55 87/105/69 73/89/56
f 75/90/57 88/106/70 74/88/55
f 75/91/57 90/107/71 89/108/72
f 77/94/59 90/107/71 76/92/58
f 78/109/60 91/110/73 77/94/59
f 78/95/60 93/111/74 92/112/75
f 80/97/62 93/111/74 79/96/61
f 81/98/63 94/113/76 80/97/62
f 82/114/64 95/115/77 81/98/63
f 82/99/64 83/101/66 96/116/78
f 83/101/66 98/117/79 97/118/80
f 84/100/65 99/119/81 98/117/79
f 85/120/67 100/121/82 99/122/81
f 86/104/68 101/123/83 100/124/82
f 88/106/70 101/123/83 87/105/69
f 89/125/72 102/126/84 88/127/70
f 90/107/71 103/128/85 89/108/72
f 90/107/71 105/129/86 104/130/87
f 92/131/75 105/132/86 91/133/73
f 93/134/74 106/135/88 92/131/75
f 94/113/76 107/136/89 93/111/74
f 94/113/76 109/137/90 108/138/91
f 96/139/78 109/140/90 95/141/77
f 83/142/66 110/143/92 96/139/78
f 51/144/45 47/145/34 43/146/26
f 100/121/82 104/147/87 108/148/91
s 0
f 112/149/93 113/150/93 111/151/93
f 113/152/94 116/153/94 115/154/94
f 116/153/95 117/155/95 115/154/95
f 118/156/96 119/157/96 117/155/96
f 120/158/97 121/159/97 119/160/97
f 122/161/98 123/162/98 121/159/98
f 124/163/99 125/164/99 123/162/99
f 126/165/100 127/166/100 125/164/100
f 128/167/101 129/168/101 127/169/101
f 130/170/102 131/171/102 129/168/102
f 132/172/103 133/173/103 131/171/103
f 134/174/104 135/175/104 133/173/104
f 136/176/105 128/177/105 120/178/105
f 136/179/106 137/180/106 135/181/106
f 137/180/107 112/149/107 111/151/107
f 117/182/108 125/183/108 133/184/108
s 1
f 139/185/109 152/186/110 151/187/111
f 140/188/112 152/189/110 154/190/113
f 139/185/109 151/187/111 156/191/114
f 139/185/109 156/191/114 158/192/115
f 139/193/109 158/194/115 155/195/116
f 140/188/112 154/190/113 161/196/117
f 141/197/118 153/198/119 163/199/120
f 142/200/121 157/201/122 165/202/123
f 143/203/124 159/204/125 167/205/126
f 144/206/127 160/207/128 169/208/129
f 140/188/112 161/196/117 164/209/130
f 141/197/118 163/199/120 166/210/131
f 142/200/121 165/202/123 168/211/132
f 143/212/124 167/213/126 170/214/133
f 144/206/127 169/208/129 162/215/134
f 145/216/135 171/217/136 176/218/137
f 146/219/138 172/220/139 178/221/140
f 147/222/141 173/223/142 179/224/143
f 148/225/144 174/226/145 180/227/146
f 149/228/147 175/229/148 177/230/149
f 177/231/149 180/227/146 150/232/150
f 177/231/149 175/233/148 180/227/146
f 175/234/148 148/235/144 180/236/146
f 180/227/146 179/237/143 150/232/150
f 180/227/146 174/226/145 179/237/143
f 174/238/145 147/222/141 179/224/143
f 179/237/143 178/239/140 150/232/150
f 179/224/143 173/223/142 178/240/140
f 173/241/142 146/219/138 178/221/140
f 178/239/140 176/242/137 150/232/150
f 178/221/140 172/220/139 176/243/137
f 172/220/139 145/244/135 176/243/137
f 176/242/137 177/231/149 150/232/150
f 176/218/137 171/217/136 177/230/149
f 171/217/136 149/228/147 177/230/149
f 162/245/134 175/229/148 149/228/147
f 162/215/134 169/208/129 175/234/148
f 169/208/129 148/235/144 175/234/148
f 170/214/133 174/246/145 148/235/144
f 170/214/133 167/213/126 174/246/145
f 167/205/126 147/222/141 174/238/145
f 168/211/132 173/223/142 147/222/141
f 168/211/132 165/202/123 173/223/142
f 165/202/123 146/247/138 173/223/142
f 166/210/131 172/220/139 146/219/138
f 166/210/131 163/199/120 172/220/139
f 163/199/120 145/244/135 172/220/139
f 164/209/130 171/217/136 145/216/135
f 164/209/130 161/196/117 171/217/136
f 161/196/117 149/228/147 171/217/136
f 169/208/129 170/214/133 148/235/144
f 169/208/129 160/207/128 170/214/133
f 160/207/128 143/212/124 170/214/133
f 167/205/126 168/211/132 147/222/141
f 167/205/126 159/204/125 168/211/132
f 159/204/125 142/200/121 168/211/132
f 165/248/123 166/210/131 146/219/138
f 165/248/123 157/249/122 166/210/131
f 157/249/122 141/197/118 166/210/131
f 163/250/120 164/209/130 145/216/135
f 163/250/120 153/251/119 164/209/130
f 153/251/119 140/188/112 164/209/130
f 161/196/117 162/245/134 149/228/147
f 161/196/117 154/190/113 162/245/134
f 154/190/113 144/252/127 162/245/134
f 155/195/116 160/207/128 144/206/127
f 155/195/116 158/194/115 160/207/128
f 158/194/115 143/212/124 160/207/128
f 158/253/115 159/204/125 143/203/124
f 158/253/115 156/254/114 159/204/125
f 156/254/114 142/200/121 159/204/125
f 156/254/114 157/201/122 142/200/121
f 156/191/114 151/187/111 157/255/122
f 151/256/111 141/197/118 157/249/122
f 154/257/113 155/195/116 144/206/127
f 154/190/113 152/189/110 155/258/116
f 152/186/110 139/185/109 155/259/116
f 151/187/111 153/260/119 141/261/118
f 151/187/111 152/186/110 153/260/119
f 152/189/110 140/188/112 153/251/119
f 181/262/151 194/263/152 193/264/153
f 182/265/154 194/266/152 196/267/155
f 181/262/151 193/264/153 198/268/156
f 181/262/151 198/268/156 200/269/157
f 181/262/151 200/269/157 197/270/158
f 182/265/154 196/267/155 203/271/159
f 183/272/160 195/273/161 205/274/162
f 184/275/163 199/276/164 207/277/165
f 185/278/166 201/279/167 209/280/168
f 186/281/169 202/282/170 211/283/171
f 182/265/154 203/271/159 206/284/172
f 183/272/160 205/274/162 208/285/173
f 184/275/163 207/277/165 210/286/174
f 185/278/166 209/280/168 212/287/175
f 186/281/169 211/283/171 204/288/176
f 187/289/177 213/290/178 218/291/179
f 188/292/180 214/293/181 220/294/182
f 189/295/183 215/296/184 221/297/185
f 190/298/186 216/299/187 222/300/188
f 191/301/189 217/302/190 219/303/191
f 219/304/191 222/305/188 192/306/192
f 219/304/191 217/307/190 222/305/188
f 217/308/190 190/298/186 222/300/188
f 222/305/188 221/309/185 192/306/192
f 222/300/188 216/299/187 221/310/185
f 216/299/187 189/311/183 221/310/185
f 221/309/185 220/312/182 192/306/192
f 221/297/185 215/296/184 220/313/182
f 215/296/184 188/314/180 220/313/182
f 220/312/182 218/315/179 192/306/192
f 220/294/182 214/293/181 218/291/179
f 214/293/181 187/289/177 218/291/179
f 218/315/179 219/304/191 192/306/192
f 218/316/179 213/317/178 219/303/191
f 213/317/178 191/301/189 219/303/191
f 204/288/176 217/302/190 191/301/189
f 204/288/176 211/283/171 217/302/190
f 211/318/171 190/298/186 217/308/190
f 212/287/175 216/299/187 190/298/186
f 212/287/175 209/280/168 216/299/187
f 209/280/168 189/311/183 216/299/187
f 210/286/174 215/296/184 189/295/183
f 210/286/174 207/277/165 215/296/184
f 207/277/165 188/314/180 215/296/184
f 208/285/173 214/293/181 188/292/180
f 208/285/173 205/274/162 214/293/181
f 205/274/162 187/289/177 214/293/181
f 206/284/172 213/317/178 187/319/177
f 206/284/172 203/271/159 213/317/178
f 203/271/159 191/301/189 213/317/178
f 211/318/171 212/287/175 190/298/186
f 211/318/171 202/320/170 212/287/175
f 202/320/170 185/278/166 212/287/175
f 209/321/168 210/286/174 189/295/183
f 209/321/168 201/322/167 210/286/174
f 201/322/167 184/275/163 210/286/174
f 207/323/165 208/285/173 188/292/180
f 207/323/165 199/324/164 208/285/173
f 199/324/164 183/272/160 208/285/173
f 205/274/162 206/325/172 187/289/177
f 205/274/162 195/273/161 206/325/172
f 195/326/161 182/265/154 206/284/172
f 203/271/159 204/288/176 191/301/189
f 203/271/159 196/267/155 204/288/176
f 196/267/155 186/281/169 204/288/176
f 197/327/158 202/282/170 186/281/169
f 197/328/158 200/329/157 202/320/170
f 200/329/157 185/278/166 202/320/170
f 200/329/157 201/279/167 185/278/166
f 200/330/157 198/331/156 201/322/167
f 198/331/156 184/275/163 201/322/167
f 198/331/156 199/276/164 184/275/163
f 198/331/156 193/332/153 199/276/164
f 193/333/153 183/272/160 199/324/164
f 196/267/155 197/327/158 186/281/169
f 196/267/155 194/266/152 197/327/158
f 194/263/152 181/262/151 197/270/158
f 193/333/153 195/273/161 183/272/160
f 193/264/153 194/263/152 195/334/161
f 194/266/152 182/265/154 195/326/161
f 223/335/193 236/336/194 235/337/195
f 224/338/196 236/339/194 238/340/197
f 223/335/193 235/337/195 240/341/198
f 223/335/193 240/341/198 242/342/199
f 223/335/193 242/342/199 239/343/200
f 224/338/196 238/340/197 245/344/201
f 225/345/202 237/346/203 247/347/204
f 226/348/205 241/349/206 249/350/207
f 227/351/208 243/352/209 251/353/210
f 228/354/211 244/355/212 253/356/213
f 224/338/196 245/344/201 248/357/214
f 225/358/202 247/359/204 250/360/215
f 226/348/205 249/350/207 252/361/216
f 227/351/208 251/353/210 254/362/217
f 228/354/211 253/356/213 246/363/218
f 229/364/219 255/365/220 260/366/221
f 230/367/222 256/368/223 262/369/224
f 231/370/225 257/371/226 263/372/227
f 232/373/228 258/374/229 264/375/230
f 233/376/231 259/377/232 261/378/233
f 261/378/233 264/379/230 234/380/234
f 261/378/233 259/377/232 264/379/230
f 259/381/232 232/373/228 264/375/230
f 264/379/230 263/382/227 234/380/234
f 264/379/230 258/383/229 263/382/227
f 258/384/229 231/370/225 263/372/227
f 263/382/227 262/385/224 234/380/234
f 263/382/227 257/386/226 262/385/224
f 257/387/226 230/367/222 262/369/224
f 262/385/224 260/388/221 234/380/234
f 262/385/224 256/389/223 260/388/221
f 256/390/223 229/364/219 260/366/221
f 260/388/221 261/378/233 234/380/234
f 260/388/221 255/391/220 261/378/233
f 255/365/220 233/392/231 261/393/233
f 246/363/218 259/381/232 233/394/231
f 246/363/218 253/356/213 259/381/232
f 253/356/213 232/373/228 259/381/232
f 254/395/217 258/374/229 232/373/228
f 254/362/217 251/353/210 258/384/229
f 251/353/210 231/370/225 258/384/229
f 252/396/216 257/371/226 231/370/225
f 252/361/216 249/350/207 257/387/226
f 249/350/207 230/367/222 257/387/226
f 250/360/215 256/368/223 230/367/222
f 250/360/215 247/359/204 256/368/223
f 247/347/204 229/364/219 256/390/223
f 248/357/214 255/365/220 229/364/219
f 248/357/214 245/344/201 255/365/220
f 245/344/201 233/392/231 255/365/220
f 253/356/213 254/395/217 232/373/228
f 253/356/213 244/355/212 254/395/217
f 244/355/212 227/397/208 254/395/217
f 251/353/210 252/396/216 231/370/225
f 251/353/210 243/352/209 252/396/216
f 243/352/209 226/398/205 252/396/216
f 249/350/207 250/360/215 230/367/222
f 249/350/207 241/349/206 250/360/215
f 241/349/206 225/358/202 250/360/215
f 247/347/204 248/357/214 229/364/219
f 247/347/204 237/346/203 248/357/214
f 237/346/203 224/338/196 248/357/214
f 245/344/201 246/399/218 233/392/231
f 245/344/201 238/340/197 246/399/218
f 238/400/197 228/354/211 246/363/218
f 239/401/200 244/355/212 228/354/211
f 239/343/200 242/342/199 244/402/212
f 242/403/199 227/397/208 244/355/212
f 242/404/199 243/352/209 227/351/208
f 242/342/199 240/341/198 243/405/209
f 240/406/198 226/398/205 243/352/209
f 240/407/198 241/349/206 226/348/205
f 240/341/198 235/337/195 241/408/206
f 235/409/195 225/358/202 241/349/206
f 238/400/197 239/401/200 228/354/211
f 238/410/197 236/336/194 239/343/200
f 236/336/194 223/335/193 239/343/200
f 235/337/195 237/411/203 225/412/202
f 235/337/195 236/336/194 237/411/203
f 236/339/194 224/338/196 237/346/203
f 265/413/235 278/414/236 277/415/237
f 266/416/238 278/417/236 280/418/239
f 265/413/235 277/415/237 282/419/240
f 265/413/235 282/419/240 284/420/241
f 265/413/235 284/420/241 281/421/242
f 266/416/238 280/418/239 287/422/243
f 267/423/244 279/424/245 289/425/246
f 268/426/247 283/427/248 291/428/249
f 269/429/250 285/430/251 293/431/252
f 270/432/253 286/433/254 295/434/255
f 266/416/238 287/422/243 290/435/256
f 267/423/244 289/425/246 292/436/257
f 268/437/247 291/438/249 294/439/258
f 269/429/250 293/431/252 296/440/259
f 270/432/253 295/434/255 288/441/260
f 271/442/261 297/443/262 302/444/263
f 272/445/264 298/446/265 304/447/266
f 273/448/267 299/449/268 305/450/269
f 274/451/270 300/452/271 306/453/272
f 275/454/273 301/455/274 303/456/275
f 303/456/275 306/457/272 276/458/276
f 303/456/275 301/455/274 306/457/272
f 301/459/274 274/451/270 306/453/272
f 306/457/272 305/460/269 276/458/276
f 306/457/272 300/461/271 305/460/269
f 300/462/271 273/448/267 305/450/269
f 305/460/269 304/463/266 276/458/276
f 305/460/269 299/464/268 304/463/266
f 299/465/268 272/445/264 304/447/266
f 304/463/266 302/466/263 276/458/276
f 304/463/266 298/467/265 302/466/263
f 298/467/265 271/468/261 302/466/263
f 302/466/263 303/456/275 276/458/276
f 302/466/263 297/469/262 303/456/275
f 297/443/262 275/470/273 303/471/275
f 288/441/260 301/459/274 275/472/273
f 288/441/260 295/434/255 301/459/274
f 295/434/255 274/451/270 301/459/274
f 296/473/259 300/452/271 274/451/270
f 296/440/259 293/431/252 300/462/271
f 293/431/252 273/448/267 300/462/271
f 294/439/258 299/449/268 273/448/267
f 294/439/258 291/438/249 299/449/268
f 291/428/249 272/445/264 299/465/268
f 292/436/257 298/446/265 272/445/264
f 292/436/257 289/425/246 298/446/265
f 289/425/246 271/474/261 298/446/265
f 290/435/256 297/443/262 271/442/261
f 290/435/256 287/422/243 297/443/262
f 287/422/243 275/470/273 297/443/262
f 295/434/255 296/473/259 274/451/270
f 295/434/255 286/433/254 296/473/259
f 286/433/254 269/475/250 296/473/259
f 293/431/252 294/439/258 273/448/267
f 293/431/252 285/430/251 294/439/258
f 285/430/251 268/437/247 294/439/258
f 291/428/249 292/436/257 272/445/264
f 291/428/249 283/427/248 292/436/257
f 283/427/248 267/423/244 292/436/257
f 289/476/246 290/435/256 271/442/261
f 289/476/246 279/477/245 290/435/256
f 279/477/245 266/416/238 290/435/256
f 287/422/243 288/478/260 275/470/273
f 287/422/243 280/418/239 288/478/260
f 280/479/239 270/432/253 288/441/260
f 281/480/242 286/433/254 270/432/253
f 281/421/242 284/420/241 286/481/254
f 284/420/241 269/482/250 286/481/254
f 284/420/241 285/483/251 269/482/250
f 284/420/241 282/419/240 285/483/251
f 282/419/240 268/484/247 285/483/251
f 282/419/240 283/485/248 268/484/247
f 282/419/240 277/415/237 283/485/248
f 277/486/237 267/423/244 283/427/248
f 280/487/239 281/421/242 270/488/253
f 280/487/239 278/414/236 281/421/242
f 278/414/236 265/413/235 281/421/242
f 277/415/237 279/489/245 267/490/244
f 277/415/237 278/414/236 279/489/245
f 278/417/236 266/416/238 279/477/245
s 0
f 307/491/277 320/492/277 319/493/277
f 308/494/278 320/495/278 322/496/278
f 307/491/279 319/493/279 324/497/279
f 307/491/280 324/497/280 326/498/280
f 307/491/281 326/498/281 323/499/281
f 308/494/282 322/496/282 329/500/282
f 309/501/283 321/502/283 331/503/283
f 310/504/284 325/505/284 333/506/284
f 311/507/285 327/508/285 335/509/285
f 312/510/286 328/511/286 337/512/286
f 308/494/287 329/500/287 332/513/287
f 309/501/288 331/503/288 334/514/288
f 310/504/289 333/506/289 336/515/289
f 311/507/290 335/509/290 338/516/290
f 312/510/291 337/512/291 330/517/291
f 313/518/292 339/519/292 344/520/292
f 314/521/293 340/522/293 346/523/293
f 315/524/294 341/525/294 347/526/294
f 316/527/295 342/528/295 348/529/295
f 317/530/296 343/531/296 345/532/296
f 345/533/297 348/534/297 318/535/297
f 345/533/298 343/536/298 348/534/298
f 343/531/299 316/537/299 348/538/299
f 348/534/300 347/526/300 318/535/300
f 348/529/301 342/528/301 347/539/301
f 342/528/302 315/540/302 347/539/302
f 347/526/303 346/541/303 318/535/303
f 347/526/304 341/525/304 346/541/304
f 341/525/305 314/542/305 346/541/305
f 346/541/306 344/543/306 318/535/306
f 346/541/307 340/544/307 344/543/307
f 340/545/308 313/518/308 344/520/308
f 344/543/309 345/533/309 318/535/309
f 344/543/310 339/546/310 345/533/310
f 339/547/311 317/530/311 345/532/311
f 330/517/312 343/531/312 317/530/312
f 330/517/313 337/512/313 343/531/313
f 337/512/314 316/537/314 343/531/314
f 338/516/315 342/528/315 316/527/315
f 338/516/316 335/509/316 342/528/316
f 335/509/317 315/540/317 342/528/317
f 336/548/318 341/549/318 315/540/318
f 336/515/319 333/506/319 341/550/319
f 333/506/320 314/521/320 341/550/320
f 334/551/321 340/522/321 314/521/321
f 334/514/322 331/503/322 340/545/322
f 331/503/323 313/518/323 340/545/323
f 332/513/324 339/519/324 313/518/324
f 332/513/325 329/500/325 339/519/325
f 329/552/326 317/530/326 339/547/326
f 337/553/327 338/516/327 316/527/327
f 337/553/328 328/554/328 338/516/328
f 328/554/329 311/507/329 338/516/329
f 335/509/330 336/548/330 315/540/330
f 335/509/331 327/508/331 336/548/331
f 327/508/332 310/555/332 336/548/332
f 333/506/333 334/551/333 314/521/333
f 333/506/334 325/505/334 334/551/334
f 325/505/335 309/556/335 334/551/335
f 331/503/336 332/513/336 313/518/336
f 331/503/337 321/502/337 332/513/337
f 321/502/338 308/494/338 332/513/338
f 329/552/339 330/517/339 317/530/339
f 329/552/340 322/557/340 330/517/340
f 322/557/341 312/510/341 330/517/341
f 323/499/342 328/558/342 312/559/342
f 323/499/343 326/498/343 328/558/343
f 326/560/344 311/507/344 328/554/344
f 326/560/345 327/508/345 311/507/345
f 326/560/346 324/561/346 327/508/346
f 324/561/347 310/555/347 327/508/347
f 324/562/348 325/505/348 310/504/348
f 324/497/349 319/493/349 325/563/349
f 319/493/350 309/564/350 325/563/350
f 322/557/351 323/565/351 312/510/351
f 322/566/352 320/492/352 323/499/352
f 320/492/353 307/491/353 323/499/353
f 319/493/354 321/567/354 309/564/354
f 319/493/355 320/492/355 321/567/355
f 320/495/356 308/494/356 321/502/356
f 2/1/1 4/568/1 3/2/1
f 4/4/2 6/7/2 5/5/2
f 6/7/3 8/9/3 7/8/3
f 8/9/4 10/11/4 9/10/4
f 10/11/5 12/13/5 11/12/5
f 12/13/6 14/569/6 13/14/6
f 14/15/7 16/18/7 15/16/7
f 16/18/8 18/20/8 17/19/8
f 18/20/9 20/22/9 19/21/9
f 20/22/10 22/24/10 21/23/10
f 22/24/11 24/26/11 23/25/11
f 24/26/12 26/570/12 25/27/12
f 26/28/13 28/31/13 27/29/13
f 28/31/14 30/33/14 29/32/14
f 30/33/15 32/35/15 31/34/15
f 32/35/16 34/37/16 33/36/16
f 34/37/17 36/571/17 35/38/17
f 36/39/18 38/45/18 37/40/18
f 6/44/19 4/572/19 2/573/19
f 2/573/19 40/574/19 38/575/19
f 38/575/19 36/576/19 34/577/19
f 34/577/19 32/578/19 30/42/19
f 30/42/19 28/579/19 26/580/19
f 26/580/19 24/581/19 22/582/19
f 22/582/19 20/583/19 18/584/19
f 18/584/19 16/585/19 14/43/19
f 14/43/19 12/586/19 10/587/19
f 10/587/19 8/588/19 6/44/19
f 6/44/19 2/573/19 38/575/19
f 38/575/19 34/577/19 30/42/19
f 30/42/19 26/580/19 22/582/19
f 22/582/19 18/584/19 14/43/19
f 14/43/19 10/587/19 6/44/19
f 6/44/19 38/575/19 30/42/19
f 30/42/19 22/582/19 14/43/19
f 38/45/20 40/47/20 39/46/20
f 40/47/21 2/1/21 1/3/21
f 39/50/22 1/589/22 3/590/22
f 3/590/22 5/591/22 7/592/22
f 7/592/22 9/593/22 11/594/22
f 11/594/22 13/595/22 15/48/22
f 15/48/22 17/596/22 19/597/22
f 19/597/22 21/598/22 23/599/22
f 23/599/22 25/600/22 27/601/22
f 27/601/22 29/602/22 31/49/22
f 31/49/22 33/603/22 35/604/22
f 35/604/22 37/605/22 39/50/22
f 39/50/22 3/590/22 7/592/22
f 7/592/22 11/594/22 15/48/22
f 15/48/22 19/597/22 23/599/22
f 23/599/22 27/601/22 31/49/22
f 31/49/22 35/604/22 39/50/22
f 39/50/22 7/592/22 15/48/22
f 15/48/22 23/599/22 31/49/22
s 1
f 42/51/23 56/55/27 55/52/24
f 43/54/26 57/84/29 56/55/27
f 44/56/28 58/60/31 57/57/29
f 45/59/30 59/62/33 58/60/31
f 46/61/32 60/64/35 59/62/33
f 47/63/34 61/606/37 60/64/35
f 48/65/36 62/69/39 61/66/37
f 49/68/38 63/71/41 62/69/39
f 50/70/40 64/93/43 63/71/41
f 50/72/40 51/76/45 65/73/42
f 52/75/44 66/78/47 65/73/42
f 53/77/46 67/80/49 66/78/47
f 53/77/46 54/607/50 68/79/48
f 41/53/25 55/52/24 68/81/48
f 56/55/27 70/85/52 69/83/51
f 57/84/29 71/608/53 70/85/52
f 58/60/31 72/87/54 71/86/53
f 59/62/33 73/89/56 72/87/54
f 59/62/33 60/64/35 74/88/55
f 60/64/35 61/606/37 75/90/57
f 62/69/39 76/92/58 75/91/57
f 63/71/41 77/94/59 76/92/58
f 64/93/43 78/109/60 77/94/59
f 65/73/42 79/96/61 78/95/60
f 66/78/47 80/97/62 79/96/61
f 67/80/49 81/98/63 80/97/62
f 68/79/48 82/114/64 81/98/63
f 55/52/24 69/83/51 82/99/64
f 69/83/51 70/85/52 84/100/65
f 70/85/52 71/608/53 85/102/67
f 72/87/54 86/104/68 85/103/67
f 73/89/56 87/105/69 86/104/68
f 74/88/55 88/106/70 87/105/69
f 75/90/57 89/609/72 88/106/70
f 75/91/57 76/92/58 90/107/71
f 77/94/59 91/110/73 90/107/71
f 78/109/60 92/610/75 91/110/73
f 78/95/60 79/96/61 93/111/74
f 80/97/62 94/113/76 93/111/74
f 81/98/63 95/115/77 94/113/76
f 82/114/64 96/611/78 95/115/77
f 82/99/64 69/83/51 83/101/66
f 83/101/66 84/100/65 98/117/79
f 84/100/65 85/102/67 99/119/81
f 85/120/67 86/612/68 100/121/82
f 86/104/68 87/105/69 101/123/83
f 88/106/70 102/613/84 101/123/83
f 89/125/72 103/614/85 102/126/84
f 90/107/71 104/130/87 103/128/85
f 90/107/71 91/110/73 105/129/86
f 92/131/75 106/135/88 105/132/86
f 93/134/74 107/615/89 106/135/88
f 94/113/76 108/138/91 107/136/89
f 94/113/76 95/115/77 109/137/90
f 96/139/78 110/143/92 109/140/90
f 83/142/66 97/616/80 110/143/92
f 41/617/25 54/618/50 53/619/46
f 53/619/46 52/620/44 51/144/45
f 51/144/45 50/621/40 49/622/38
f 49/622/38 48/623/36 47/145/34
f 47/145/34 46/624/32 45/625/30
f 45/625/30 44/626/28 43/146/26
f 43/146/26 42/627/23 41/617/25
f 41/617/25 53/619/46 51/144/45
f 51/144/45 49/622/38 47/145/34
f 47/145/34 45/625/30 43/146/26
f 43/146/26 41/617/25 51/144/45
f 110/143/92 97/616/80 98/628/79
f 98/628/79 99/122/81 100/121/82
f 100/121/82 101/629/83 102/126/84
f 102/126/84 103/614/85 104/147/87
f 104/147/87 105/132/86 106/135/88
f 106/135/88 107/615/89 108/148/91
f 108/148/91 109/140/90 110/143/92
f 110/143/92 98/628/79 100/121/82
f 100/121/82 102/126/84 104/147/87
f 104/147/87 106/135/88 108/148/91
f 108/148/91 110/143/92 100/121/82
s 0
f 112/149/93 114/630/93 113/150/93
f 113/152/94 114/631/94 116/153/94
f 116/153/95 118/156/95 117/155/95
f 118/156/96 120/632/96 119/157/96
f 120/158/97 122/161/97 121/159/97
f 122/161/98 124/163/98 123/162/98
f 124/163/99 126/165/99 125/164/99
f 126/165/100 128/633/100 127/166/100
f 128/167/101 130/170/101 129/168/101
f 130/170/102 132/172/102 131/171/102
f 132/172/103 134/174/103 133/173/103
f 134/174/104 136/634/104 135/175/104
f 116/635/105 114/636/105 112/637/105
f 112/637/105 138/638/105 136/176/105
f 136/176/105 134/639/105 132/640/105
f 132/640/105 130/641/105 128/177/105
f 128/177/105 126/642/105 124/643/105
f 124/643/105 122/644/105 120/178/105
f 120/178/105 118/645/105 116/635/105
f 116/635/105 112/637/105 136/176/105
f 136/176/105 132/640/105 128/177/105
f 128/177/105 124/643/105 120/178/105
f 120/178/105 116/635/105 136/176/105
f 136/179/106 138/646/106 137/180/106
f 137/180/107 138/646/107 112/149/107
f 137/647/108 111/648/108 113/649/108
f 113/649/108 115/650/108 117/182/108
f 117/182/108 119/651/108 121/652/108
f 121/652/108 123/653/108 125/183/108
f 125/183/108 127/654/108 129/655/108
f 129/655/108 131/656/108 133/184/108
f 133/184/108 135/657/108 137/647/108
f 137/647/108 113/649/108 117/182/108
f 117/182/108 121/652/108 125/183/108
f 125/183/108 129/655/108 133/184/108
f 133/184/108 137/647/108 117/182/108
