# The Giants of Holst prop, from CC0 kits by KayKit (Kay Lousberg) and Kenney
v -0.2108 0.0000 -0.4480
vt 0.2685 0.3180
vn 0.1254 0.3246 -0.9375
v -0.1083 0.4710 -0.2712
vt 0.2704 0.3899
vn 0.1254 0.3246 -0.9375
v 0.1517 0.4710 -0.2364
vt 0.2752 0.3899
vn 0.4841 0.3517 -0.8013
v 0.2445 0.0000 -0.3871
vt 0.2769 0.3180
vn 0.4852 0.3517 -0.8006
f 1/1/1 2/2/2 3/3/3 4/4/4
v -0.4969 0.0000 0.0481
vt 0.2631 0.3180
vn -0.8373 0.5463 -0.0234
v -0.3463 0.0000 0.4261
vt 0.2659 0.3180
vn -0.7457 0.5963 0.2971
v -0.2400 0.1989 0.2937
vt 0.2679 0.3484
vn -0.7457 0.5963 0.2971
v -0.3457 0.1989 0.0284
vt 0.2659 0.3484
vn -0.8604 0.4738 -0.1878
f 5/5/5 6/6/6 7/7/7 8/8/8
v -0.3463 0.0000 0.4261
vt 0.2659 0.3180
vn 0.0000 0.5540 0.8325
v 0.2988 0.0000 0.4261
vt 0.2780 0.3180
vn 0.0000 0.5540 0.8325
v 0.2129 0.1989 0.2937
vt 0.2764 0.3484
vn 0.0000 0.5540 0.8325
v -0.2400 0.1989 0.2937
vt 0.2679 0.3484
vn 0.0000 0.5540 0.8325
f 9/9/9 10/10/10 11/11/11 12/12/12
v 0.2445 0.0000 -0.3871
vt 0.2769 0.3180
vn 0.4852 0.3517 -0.8006
v 0.1517 0.4710 -0.2364
vt 0.2752 0.3899
vn 0.4841 0.3517 -0.8013
v 0.3012 0.4710 -0.0249
vt 0.2780 0.3899
vn 0.7718 0.3265 -0.5456
v 0.5062 0.0000 -0.0168
vt 0.2818 0.3180
vn 0.7718 0.3265 -0.5456
f 13/13/13 14/14/14 15/15/15 16/16/16
v 0.3012 0.4710 -0.0249
vt 0.2780 0.3899
vn 0.8288 0.3409 0.4437
v 0.1827 0.4710 0.2281
vt 0.2758 0.3899
vn 0.8875 0.1987 0.4157
v 0.2129 0.1989 0.2937
vt 0.2764 0.3484
vn 0.8058 0.3846 0.4504
f 17/17/17 18/18/18 19/19/19
v 0.5062 0.0000 -0.0168
vt 0.2818 0.3180
vn 0.7771 0.4331 0.4566
v 0.3012 0.4710 -0.0249
vt 0.2780 0.3899
vn 0.8288 0.3409 0.4437
v 0.2129 0.1989 0.2937
vt 0.2764 0.3484
vn 0.8058 0.3846 0.4504
v 0.2988 0.0000 0.4261
vt 0.2780 0.3180
vn 0.7771 0.4331 0.4566
f 20/20/20 21/21/21 22/22/22 23/23/23
v -0.2400 0.1989 0.2937
vt 0.2679 0.3952
vn 0.0000 1.0000 0.0000
v 0.2129 0.1989 0.2937
vt 0.2764 0.3952
vn 0.0000 1.0000 0.0000
v -0.3457 0.1989 0.0284
vt 0.2659 0.3952
vn 0.0000 1.0000 0.0000
f 24/24/24 25/25/25 26/26/26
v 0.3012 0.4710 -0.0249
vt 0.2780 0.4368
vn 0.0000 1.0000 0.0000
v 0.1517 0.4710 -0.2364
vt 0.2752 0.4368
vn 0.0000 1.0000 0.0000
v -0.1083 0.4710 -0.2712
vt 0.2704 0.4368
vn 0.0000 1.0000 0.0000
f 27/27/27 28/28/28 29/29/29
v -0.4969 0.0000 0.0481
vt 0.2631 0.3180
vn -0.8373 0.5463 -0.0234
v -0.3457 0.1989 0.0284
vt 0.2659 0.3484
vn -0.8604 0.4738 -0.1878
v -0.1083 0.4710 -0.2712
vt 0.2704 0.3899
vn -0.8358 0.3346 -0.4354
v -0.2108 0.0000 -0.4480
vt 0.2685 0.3180
vn -0.8213 0.4052 -0.4017
f 30/30/30 31/31/31 32/32/32 33/33/33
v 0.1827 0.4710 0.2281
vt 0.2758 0.4368
vn 0.0000 1.0000 0.0000
v 0.3012 0.4710 -0.0249
vt 0.2780 0.4368
vn 0.0000 1.0000 0.0000
v -0.1083 0.4710 -0.2712
vt 0.2704 0.4368
vn 0.0000 1.0000 0.0000
v -0.2717 0.4710 0.0122
vt 0.2673 0.4368
vn 0.0000 1.0000 0.0000
f 34/34/34 35/35/35 36/36/36 37/37/37
v -0.3457 0.1989 0.0284
vt 0.2659 0.3484
vn -0.4230 0.1680 0.8904
v 0.2129 0.1989 0.2937
vt 0.2764 0.3484
vn -0.4230 0.1680 0.8904
v 0.1827 0.4710 0.2281
vt 0.2758 0.3899
vn -0.4230 0.1680 0.8904
v -0.2717 0.4710 0.0122
vt 0.2673 0.3899
vn -0.4230 0.1680 0.8904
f 38/38/38 39/39/39 40/40/40 41/41/41
v -0.3457 0.1989 0.0284
vt 0.2659 0.3484
vn -0.8604 0.4738 -0.1878
v -0.2717 0.4710 0.0122
vt 0.2673 0.3899
vn -0.8485 0.2016 -0.4893
v -0.1083 0.4710 -0.2712
vt 0.2704 0.3899
vn -0.8358 0.3346 -0.4354
f 42/42/42 43/43/43 44/44/44
v -0.0013 0.0000 0.0111
vt 0.2798 0.3180
vn 0.0000 -1.0000 0.0000
v 0.5062 0.0000 -0.0168
vt 0.2818 0.3180
vn 0.0000 -1.0000 0.0000
v 0.2988 0.0000 0.4261
vt 0.2780 0.3180
vn 0.0000 -1.0000 0.0000
f 45/45/45 46/46/46 47/47/47
v -0.0013 0.0000 0.0111
vt 0.2769 0.3180
vn 0.0000 -1.0000 0.0000
v 0.2988 0.0000 0.4261
vt 0.2780 0.3180
vn 0.0000 -1.0000 0.0000
v -0.3463 0.0000 0.4261
vt 0.2659 0.3180
vn 0.0000 -1.0000 0.0000
f 48/48/48 49/49/49 50/50/50
v -0.0013 0.0000 0.0111
vt 0.2671 0.3180
vn 0.0000 -1.0000 0.0000
v -0.3463 0.0000 0.4261
vt 0.2659 0.3180
vn 0.0000 -1.0000 0.0000
v -0.4969 0.0000 0.0481
vt 0.2631 0.3180
vn 0.0000 -1.0000 0.0000
f 51/51/51 52/52/52 53/53/53
v -0.0013 0.0000 0.0111
vt 0.2694 0.3180
vn 0.0000 -1.0000 0.0000
v -0.2108 0.0000 -0.4480
vt 0.2685 0.3180
vn 0.0000 -1.0000 0.0000
v 0.2445 0.0000 -0.3871
vt 0.2769 0.3180
vn 0.0000 -1.0000 0.0000
f 54/54/54 55/55/55 56/56/56
v -0.0013 0.0000 0.0111
vt 0.2760 0.3180
vn 0.0000 -1.0000 0.0000
v 0.2445 0.0000 -0.3871
vt 0.2769 0.3180
vn 0.0000 -1.0000 0.0000
v 0.5062 0.0000 -0.0168
vt 0.2818 0.3180
vn 0.0000 -1.0000 0.0000
f 57/57/57 58/58/58 59/59/59
v -0.0013 0.0000 0.0111
vt 0.2650 0.3180
vn 0.0000 -1.0000 0.0000
v -0.4969 0.0000 0.0481
vt 0.2631 0.3180
vn 0.0000 -1.0000 0.0000
v -0.2108 0.0000 -0.4480
vt 0.2685 0.3180
vn 0.0000 -1.0000 0.0000
f 60/60/60 61/61/61 62/62/62
