# Blender 4.5.13 LTS
# www.blender.org
o rock
v -0.023633 0.005151 0.052075
v -0.328209 0.092937 -0.432994
v 0.401447 0.019805 -0.374026
v 0.539219 0.140856 0.280438
v -0.040221 0.232731 0.521627
v -0.658547 0.179056 0.110984
v 0.058840 0.447669 -0.763103
v 0.779352 0.486799 -0.131343
v 0.444033 0.627193 0.585796
v -0.369215 0.596093 0.343995
v -0.645991 0.534617 -0.335968
v 0.031966 0.745868 -0.070437
v 0.196002 -0.046858 -0.162701
v -0.209154 -0.025893 -0.219815
v 0.011844 0.016951 -0.471031
v -0.758391 0.025008 -0.285330
v -0.476122 0.048138 0.106625
v 0.411034 0.005151 0.249333
v 0.703035 -0.029907 -0.040805
v -0.040844 0.057716 0.362071
v 0.315642 0.148159 0.525249
v -0.458053 0.161642 0.472030
v -0.669377 0.278617 -0.553978
v -0.899724 0.363412 -0.145840
v 0.322722 0.178157 -0.711132
v -0.167325 0.239564 -0.562251
v 0.814526 0.280699 0.132030
v 0.701130 0.214259 -0.321128
v 0.205051 0.418571 0.689017
v 0.521289 0.352228 0.431420
v -0.644305 0.417171 0.295102
v -0.226530 0.419564 0.499167
v -0.410329 0.543390 -0.682815
v 0.503580 0.494098 -0.518946
v 0.651708 0.573495 0.245193
v -0.012356 0.636141 0.491379
v -0.732658 0.684651 0.042525
v 0.051643 0.671838 -0.438303
v -0.412190 0.789320 -0.280669
v 0.490588 0.739961 -0.131574
v 0.255499 0.760911 0.263398
v -0.217862 0.764989 0.177483
vn -0.0739 -0.9839 0.1627
vn -0.0247 -0.8790 -0.4762
vn -0.1310 -0.6989 -0.7032
vn 0.1172 -0.8881 -0.4445
vn 0.5952 -0.5432 0.5922
vn -0.1401 -0.5542 0.8205
vn -0.8402 -0.2994 0.4521
vn -0.0612 -0.6214 -0.7811
vn 0.5394 -0.7067 -0.4579
vn 0.5885 -0.4363 0.6807
vn -0.3870 -0.2804 0.8784
vn -0.7950 -0.3406 0.5020
vn 0.0709 0.8217 -0.5655
vn 0.6002 0.6843 -0.4142
vn 0.4290 0.8952 0.1204
vn -0.3063 0.7933 0.5262
vn -0.6272 0.6641 -0.4069
vn 0.0906 0.9958 0.0145
vn -0.1862 0.9738 0.1307
vn -0.2684 0.7875 0.5548
vn 0.0191 0.9981 -0.0578
vn -0.0678 0.9066 0.4165
vn -0.0683 0.9068 0.4160
vn 0.0063 0.9988 -0.0492
vn 0.4261 0.8807 0.2069
vn 0.6584 0.7510 0.0503
vn -0.0138 0.9801 -0.1980
vn 0.2323 0.8247 -0.5156
vn 0.2184 0.8054 -0.5510
vn 0.1819 0.9658 -0.1846
vn 0.0388 0.8526 -0.5212
vn -0.6264 0.6637 -0.4088
vn -0.6988 0.5957 -0.3961
vn -0.8618 0.1674 0.4788
vn -0.4661 0.5212 0.7150
vn -0.3869 0.4123 0.8248
vn -0.3691 0.3953 0.8411
vn -0.1549 0.5750 0.8034
vn 0.8484 -0.0571 0.5263
vn 0.7239 0.1416 0.6752
vn 0.8869 0.4138 0.2054
vn 0.8050 0.1656 -0.5696
vn 0.7170 0.0135 -0.6969
vn 0.4420 0.2677 -0.8561
vn -0.2462 -0.5212 -0.8172
vn -0.0462 -0.4002 -0.9153
vn -0.7314 0.4797 -0.4848
vn -0.4047 0.3970 0.8238
vn -0.4216 0.2880 0.8598
vn -0.1181 0.0016 0.9930
vn 0.5724 -0.2732 0.7731
vn 0.5847 -0.2317 0.7775
vn 0.6739 -0.3908 0.6271
vn 0.9670 -0.1214 -0.2242
vn 0.9519 -0.2277 -0.2048
vn 0.5172 -0.6436 -0.5641
vn -0.3102 -0.4638 -0.8299
vn -0.3042 -0.5605 -0.7702
vn -0.2072 -0.5091 -0.8354
vn -0.7097 0.4932 -0.5030
vn -0.8724 -0.1765 -0.4557
vn -0.7835 -0.4865 0.3865
vn -0.5569 -0.7850 0.2714
vn -0.1554 -0.9412 0.3000
vn 0.0269 -0.6735 0.7387
vn -0.1653 -0.6641 0.7291
vn 0.0126 -0.8860 0.4636
vn 0.5548 -0.6446 0.5259
vn 0.5137 -0.6209 0.5920
vn 0.0035 -0.9923 0.1234
vn 0.0860 -0.9711 -0.2227
vn -0.5225 -0.7420 0.4200
vn -0.1074 -0.9849 0.1355
vn 0.0669 -0.9684 -0.2404
vn -0.0242 -0.9817 -0.1887
vn -0.2417 -0.8987 -0.3659
vt 0.630579 0.186296
vt 0.588569 0.288142
vt 0.529790 0.164755
vt 0.513250 0.667118
vt 0.444966 0.707460
vt 0.450093 0.527106
vt 0.605660 0.028829
vt 0.720704 0.133886
vt 0.729415 0.302262
vt 0.573581 0.547130
vt 0.510285 0.907938
vt 0.512956 0.784158
vt 0.614456 0.881817
vt 0.149467 0.709998
vt 0.190636 0.834698
vt 0.086598 0.798828
vt 0.781064 0.102207
vt 0.710200 0.003232
vt 0.801406 0.000555
vt 0.723806 0.788039
vt 0.696662 0.652703
vt 0.796740 0.719958
vt 0.583902 0.713548
vt 0.564606 0.990844
vt 0.084002 0.657423
vt 0.688516 0.569108
vt 0.727985 0.472390
vt 0.763278 0.595104
vt 0.806239 0.890805
vt 0.388287 0.338250
vt 0.281855 0.460405
vt 0.274537 0.283468
vt 0.324773 0.025529
vt 0.386858 0.168146
vt 0.252729 0.104554
vt 0.059810 0.005429
vt 0.191982 0.000555
vt 0.104662 0.109409
vt 0.000555 0.282493
vt 0.012461 0.153730
vt 0.052791 0.261407
vt 0.150020 0.473781
vt 0.016607 0.435175
vt 0.145422 0.391189
vt 0.162570 0.228610
vt 0.075293 0.521037
vt 0.895050 0.793207
vt 0.834065 0.653328
vt 0.818367 0.552518
vt 0.780514 0.454034
vt 0.000555 0.721679
vt 0.000555 0.588497
vt 0.014560 0.848898
vt 0.392878 0.084628
vt 0.670687 0.913614
vt 0.443857 0.258538
vt 0.680041 0.617557
vt 0.687407 0.779264
vt 0.232864 0.521037
vt 0.083319 0.522146
vt 0.163424 0.600232
vt 0.104044 0.894228
vt 0.444966 0.999446
vt 0.510037 0.454034
vt 0.688516 0.926765
vt 0.834324 0.229045
vt 0.776637 0.350652
vt 0.199797 0.697678
vt 0.474059 0.000555
vt 0.444966 0.144906
vt 0.673759 0.452925
vt 0.487987 0.271544
s 0
f 1/1/1 14/2/1 13/3/1
f 2/4/2 14/5/2 16/6/2
f 1/1/1 13/3/1 18/7/1
f 1/1/1 18/7/1 20/8/1
f 1/1/1 20/8/1 17/9/1
f 2/4/3 16/6/3 23/10/3
f 3/11/4 15/12/4 25/13/4
f 4/14/5 19/15/5 27/16/5
f 5/17/6 21/18/6 29/19/6
f 6/20/7 22/21/7 31/22/7
f 2/4/8 23/10/8 26/23/8
f 3/11/9 25/13/9 28/24/9
f 4/14/10 27/16/10 30/25/10
f 5/26/11 29/27/11 32/28/11
f 6/20/12 31/22/12 24/29/12
f 7/30/13 33/31/13 38/32/13
f 8/33/14 34/34/14 40/35/14
f 9/36/15 35/37/15 41/38/15
f 10/39/16 36/40/16 42/41/16
f 11/42/17 37/43/17 39/44/17
f 39/44/18 42/41/18 12/45/18
f 39/44/19 37/43/19 42/41/19
f 37/43/20 10/39/20 42/41/20
f 42/41/21 41/38/21 12/45/21
f 42/41/22 36/40/22 41/38/22
f 36/40/23 9/36/23 41/38/23
f 41/38/24 40/35/24 12/45/24
f 41/38/25 35/37/25 40/35/25
f 35/37/26 8/33/26 40/35/26
f 40/35/27 38/32/27 12/45/27
f 40/35/28 34/34/28 38/32/28
f 34/34/29 7/30/29 38/32/29
f 38/32/30 39/44/30 12/45/30
f 38/32/31 33/31/31 39/44/31
f 33/31/32 11/42/32 39/44/32
f 24/46/33 37/43/33 11/42/33
f 24/29/34 31/22/34 37/47/34
f 31/22/35 10/48/35 37/47/35
f 32/28/36 36/49/36 10/48/36
f 32/28/37 29/27/37 36/49/37
f 29/27/38 9/50/38 36/49/38
f 30/25/39 35/51/39 9/52/39
f 30/25/40 27/16/40 35/51/40
f 27/16/41 8/53/41 35/51/41
f 28/54/42 34/34/42 8/33/42
f 28/24/43 25/13/43 34/55/43
f 25/56/44 7/30/44 34/34/44
f 26/23/45 33/57/45 7/58/45
f 26/23/46 23/10/46 33/57/46
f 23/59/47 11/42/47 33/31/47
f 31/22/48 32/28/48 10/48/48
f 31/22/49 22/21/49 32/28/49
f 22/21/50 5/26/50 32/28/50
f 29/60/51 30/25/51 9/52/51
f 29/60/52 21/61/52 30/25/52
f 21/61/53 4/14/53 30/25/53
f 27/16/54 28/62/54 8/53/54
f 27/16/55 19/15/55 28/62/55
f 19/63/56 3/11/56 28/24/56
f 25/13/57 26/23/57 7/58/57
f 25/13/58 15/12/58 26/23/58
f 15/12/59 2/4/59 26/23/59
f 23/59/60 24/46/60 11/42/60
f 23/10/61 16/6/61 24/64/61
f 16/65/62 6/20/62 24/29/62
f 17/9/63 22/66/63 6/67/63
f 17/9/64 20/8/64 22/66/64
f 20/8/65 5/17/65 22/66/65
f 20/8/66 21/18/66 5/17/66
f 20/8/67 18/7/67 21/18/67
f 18/68/68 4/14/68 21/61/68
f 18/68/69 19/15/69 4/14/69
f 18/7/70 13/3/70 19/69/70
f 13/3/71 3/70/71 19/69/71
f 16/71/72 17/9/72 6/67/72
f 16/71/73 14/2/73 17/9/73
f 14/2/1 1/1/1 17/9/1
f 13/3/74 15/72/74 3/70/74
f 13/3/75 14/2/75 15/72/75
f 14/5/76 2/4/76 15/12/76
