# The Giants of Holst prop, from Kenney CC0 kits (www.kenney.nl)
v -0.0753 0.1508 0.1531
vt 0.5000 0.8333
vn 0.4093 0.5743 0.7090
v -0.0891 0.0918 0.2088
vt 0.5000 0.8333
vn 0.4191 0.5452 0.7260
v -0.0381 0.0918 0.1794
vt 0.5000 0.8333
vn 0.4178 0.5493 0.7237
f 1/1/1 2/2/2 3/3/3
v -0.0891 0.0918 0.2088
vt 0.5000 0.8333
vn 0.4191 0.5452 0.7260
v -0.0753 0.1508 0.1531
vt 0.5000 0.8333
vn 0.4093 0.5743 0.7090
v -0.1075 0.1508 0.1717
vt 0.5000 0.8333
vn 0.4093 0.5743 0.7090
f 4/4/4 5/5/5 6/6/6
v 0.0312 0.6792 -0.0032
vt 0.5000 0.8333
vn -0.9594 0.0559 0.2765
v -0.0115 0.9959 -0.2153
vt 0.5000 0.8333
vn -0.9594 0.0559 0.2765
v -0.0343 0.6792 -0.2305
vt 0.5000 0.8333
vn -0.9594 0.0559 0.2765
f 7/7/7 8/8/8 9/9/9
v -0.0115 0.9959 -0.2153
vt 0.5000 0.8333
vn -0.9594 0.0559 0.2765
v 0.0312 0.6792 -0.0032
vt 0.5000 0.8333
vn -0.9594 0.0559 0.2765
v 0.0429 0.9959 -0.0266
vt 0.5000 0.8333
vn -0.9594 0.0559 0.2765
f 10/10/10 11/11/11 12/12/12
v -0.1783 0.3229 0.0213
vt 0.5000 0.8333
vn -0.4131 0.1720 0.8943
v -0.2323 0.1508 0.0295
vt 0.5000 0.8333
vn -0.4131 0.1720 0.8943
v -0.1908 0.1508 0.0487
vt 0.5000 0.8333
vn -0.4131 0.1720 0.8943
f 13/13/13 14/14/14 15/15/15
v -0.2323 0.1508 0.0295
vt 0.5000 0.8333
vn -0.4131 0.1720 0.8943
v -0.1783 0.3229 0.0213
vt 0.5000 0.8333
vn -0.4131 0.1720 0.8943
v -0.2239 0.3229 0.0003
vt 0.5000 0.8333
vn -0.4131 0.1720 0.8943
f 16/16/16 17/17/17 18/18/18
v -0.0381 0.0918 0.1794
vt 0.5000 0.8333
vn 0.4178 0.5493 0.7237
v -0.2041 0.0000 0.3416
vt 0.5000 0.8333
vn 0.4237 0.5308 0.7339
v 0.0127 0.0000 0.2164
vt 0.5000 0.8333
vn 0.4237 0.5308 0.7339
f 19/19/19 20/20/20 21/21/21
v -0.2041 0.0000 0.3416
vt 0.5000 0.8333
vn 0.4237 0.5308 0.7339
v -0.0381 0.0918 0.1794
vt 0.5000 0.8333
vn 0.4178 0.5493 0.7237
v -0.2041 0.0918 0.2752
vt 0.5000 0.8333
vn 0.4237 0.5308 0.7339
f 22/22/22 23/23/23 24/24/24
v -0.2041 0.0918 0.2752
vt 0.5000 0.8333
vn 0.4237 0.5308 0.7339
v -0.0381 0.0918 0.1794
vt 0.5000 0.8333
vn 0.4178 0.5493 0.7237
v -0.0891 0.0918 0.2088
vt 0.5000 0.8333
vn 0.4191 0.5452 0.7260
f 25/25/25 26/26/26 27/27/27
v -0.1363 0.6792 -0.1716
vt 0.5000 0.8333
vn -0.4975 0.1002 -0.8617
v 0.0491 0.4865 -0.3011
vt 0.5000 0.8333
vn -0.4975 0.1002 -0.8617
v -0.1665 0.4865 -0.1766
vt 0.5000 0.8333
vn -0.4975 0.1002 -0.8617
f 28/28/28 29/29/29 30/30/30
v 0.0491 0.4865 -0.3011
vt 0.5000 0.8333
vn -0.4975 0.1002 -0.8617
v -0.1363 0.6792 -0.1716
vt 0.5000 0.8333
vn -0.4975 0.1002 -0.8617
v 0.0491 0.6792 -0.2787
vt 0.5000 0.8333
vn -0.4975 0.1002 -0.8617
f 31/31/31 32/32/32 33/33/33
v 0.0491 0.6792 -0.2787
vt 0.5000 0.8333
vn -0.4975 0.1002 -0.8617
v -0.1363 0.6792 -0.1716
vt 0.5000 0.8333
vn -0.4975 0.1002 -0.8617
v -0.0343 0.6792 -0.2305
vt 0.5000 0.8333
vn -0.4975 0.1002 -0.8617
f 34/34/34 35/35/35 36/36/36
v -0.4340 0.0918 -0.0474
vt 0.5000 0.8333
vn -0.8485 0.5291 0.0000
v -0.3972 0.1508 -0.1072
vt 0.5000 0.8333
vn -0.8485 0.5291 0.0000
v -0.4340 0.0918 -0.1231
vt 0.5000 0.8333
vn -0.8485 0.5291 0.0000
f 37/37/37 38/38/38 39/39/39
v -0.3972 0.1508 -0.1072
vt 0.5000 0.8333
vn -0.8485 0.5291 0.0000
v -0.4340 0.0918 -0.0474
vt 0.5000 0.8333
vn -0.8485 0.5291 0.0000
v -0.3972 0.1508 -0.0435
vt 0.5000 0.8333
vn -0.8485 0.5291 0.0000
f 40/40/40 41/41/41 42/42/42
v -0.2041 0.0918 -0.2559
vt 0.5000 0.8333
vn 0.4237 0.5308 -0.7339
v -0.0942 0.0000 -0.2589
vt 0.5000 0.8333
vn 0.4237 0.5308 -0.7339
v -0.2041 0.0000 -0.3223
vt 0.5000 0.8333
vn 0.4237 0.5308 -0.7339
f 43/43/43 44/44/44 45/45/45
v -0.0942 0.0000 -0.2589
vt 0.5000 0.8333
vn 0.4237 0.5308 -0.7339
v -0.2041 0.0918 -0.2559
vt 0.5000 0.8333
vn 0.4237 0.5308 -0.7339
v -0.1451 0.0918 -0.2218
vt 0.5000 0.8333
vn 0.4237 0.5308 -0.7339
f 46/46/46 47/47/47 48/48/48
v 0.2051 0.0000 0.1473
vt 0.5000 0.8333
vn -0.6488 0.3975 0.6488
v 0.3218 0.2312 0.1224
vt 0.5000 0.8333
vn -0.6488 0.3975 0.6488
v 0.2827 0.2312 0.0833
vt 0.5000 0.8333
vn -0.6488 0.3975 0.6488
f 49/49/49 50/50/50 51/51/51
v 0.3218 0.2312 0.1224
vt 0.5000 0.8333
vn -0.6488 0.3975 0.6488
v 0.2051 0.0000 0.1473
vt 0.5000 0.8333
vn -0.6488 0.3975 0.6488
v 0.3111 0.0000 0.2533
vt 0.5000 0.8333
vn -0.6488 0.3975 0.6488
f 52/52/52 53/53/53 54/54/54
v 0.3499 0.2312 -0.0073
vt 0.5000 0.8333
vn 0.8823 0.3975 -0.2520
v 0.4915 0.0000 0.1239
vt 0.5000 0.8333
vn 0.8823 0.3975 -0.2520
v 0.4255 0.0000 -0.1075
vt 0.5000 0.8333
vn 0.8823 0.3975 -0.2520
f 55/55/55 56/56/56 57/57/57
v 0.4915 0.0000 0.1239
vt 0.5000 0.8333
vn 0.8823 0.3975 -0.2520
v 0.3499 0.2312 -0.0073
vt 0.5000 0.8333
vn 0.8823 0.3975 -0.2520
v 0.3759 0.2312 0.0836
vt 0.5000 0.8333
vn 0.8823 0.3975 -0.2520
f 58/58/58 59/59/59 60/60/60
v -0.4915 0.0000 0.1756
vt 0.5000 0.8333
vn -0.8475 0.5308 0.0000
v -0.4340 0.0918 -0.1231
vt 0.5000 0.8333
vn -0.8475 0.5308 0.0000
v -0.4915 0.0000 -0.1563
vt 0.5000 0.8333
vn -0.8475 0.5308 0.0000
f 61/61/61 62/62/62 63/63/63
v -0.4340 0.0918 -0.1231
vt 0.5000 0.8333
vn -0.8475 0.5308 0.0000
v -0.4915 0.0000 0.1756
vt 0.5000 0.8333
vn -0.8475 0.5308 0.0000
v -0.4340 0.0918 -0.0474
vt 0.5000 0.8333
vn -0.8475 0.5308 0.0000
f 64/64/64 65/65/65 66/66/66
v -0.4340 0.0918 -0.0474
vt 0.5000 0.8333
vn -0.8475 0.5308 0.0000
v -0.4915 0.0000 0.1756
vt 0.5000 0.8333
vn -0.8475 0.5308 0.0000
v -0.4340 0.0918 0.1424
vt 0.5000 0.8333
vn -0.8475 0.5308 0.0000
f 67/67/67 68/68/68 69/69/69
v 0.0491 0.4865 0.1969
vt 0.5000 0.8333
vn -0.4987 0.0720 0.8638
v 0.0127 0.0000 0.2164
vt 0.5000 0.8333
vn -0.4987 0.0720 0.8638
v 0.0491 0.0000 0.2374
vt 0.5000 0.8333
vn -0.4987 0.0720 0.8638
f 70/70/70 71/71/71 72/72/72
v 0.0127 0.0000 0.2164
vt 0.5000 0.8333
vn -0.4987 0.0720 0.8638
v 0.0491 0.4865 0.1969
vt 0.5000 0.8333
vn -0.4987 0.0720 0.8638
v -0.0381 0.0918 0.1794
vt 0.5000 0.8333
vn -0.4987 0.0720 0.8638
f 73/73/73 74/74/74 75/75/75
v -0.0381 0.0918 0.1794
vt 0.5000 0.8333
vn -0.4987 0.0720 0.8638
v 0.0491 0.4865 0.1969
vt 0.5000 0.8333
vn -0.4987 0.0720 0.8638
v -0.0753 0.1508 0.1531
vt 0.5000 0.8333
vn -0.4987 0.0720 0.8638
f 76/76/76 77/77/77 78/78/78
v -0.0753 0.1508 0.1531
vt 0.5000 0.8333
vn -0.4987 0.0720 0.8638
v 0.0491 0.4865 0.1969
vt 0.5000 0.8333
vn -0.4987 0.0720 0.8638
v -0.1908 0.1508 0.0864
vt 0.5000 0.8333
vn -0.4987 0.0720 0.8638
f 79/79/79 80/80/80 81/81/81
v -0.1908 0.1508 0.0864
vt 0.5000 0.8333
vn -0.4987 0.0720 0.8638
v 0.0491 0.4865 0.1969
vt 0.5000 0.8333
vn -0.4987 0.0720 0.8638
v -0.1665 0.4865 0.0724
vt 0.5000 0.8333
vn -0.4987 0.0720 0.8638
f 82/82/82 83/83/83 84/84/84
v 0.0491 0.6792 -0.2787
vt 0.5000 0.8333
vn 0.4975 0.1002 -0.8617
v 0.2647 0.4865 -0.1766
vt 0.5000 0.8333
vn 0.4975 0.1002 -0.8617
v 0.0491 0.4865 -0.3011
vt 0.5000 0.8333
vn 0.4975 0.1002 -0.8617
f 85/85/85 86/86/86 87/87/87
v 0.2647 0.4865 -0.1766
vt 0.5000 0.8333
vn 0.4975 0.1002 -0.8617
v 0.0491 0.6792 -0.2787
vt 0.5000 0.8333
vn 0.4975 0.1002 -0.8617
v 0.2345 0.6792 -0.1716
vt 0.5000 0.8333
vn 0.4975 0.1002 -0.8617
f 88/88/88 89/89/89 90/90/90
v -0.3972 0.1508 -0.0435
vt 0.5000 0.8333
vn -0.9477 0.3191 0.0000
v -0.3393 0.3229 -0.0954
vt 0.5000 0.8333
vn -0.9477 0.3191 0.0000
v -0.3972 0.1508 -0.1072
vt 0.5000 0.8333
vn -0.9477 0.3191 0.0000
f 91/91/91 92/92/92 93/93/93
v -0.3393 0.3229 -0.0954
vt 0.5000 0.8333
vn -0.9477 0.3191 0.0000
v -0.3972 0.1508 -0.0435
vt 0.5000 0.8333
vn -0.9477 0.3191 0.0000
v -0.3393 0.3229 -0.0508
vt 0.5000 0.8333
vn -0.9477 0.3191 0.0000
f 94/94/94 95/95/95 96/96/96
v 0.2117 0.9959 -0.0775
vt 0.5000 0.8333
vn 0.2882 0.0600 0.9557
v 0.0312 0.6792 -0.0032
vt 0.5000 0.8333
vn 0.2882 0.0600 0.9557
v 0.2345 0.6792 -0.0645
vt 0.5000 0.8333
vn 0.2882 0.0600 0.9557
f 97/97/97 98/98/98 99/99/99
v 0.0312 0.6792 -0.0032
vt 0.5000 0.8333
vn 0.2882 0.0600 0.9557
v 0.2117 0.9959 -0.0775
vt 0.5000 0.8333
vn 0.2882 0.0600 0.9557
v 0.0429 0.9959 -0.0266
vt 0.5000 0.8333
vn 0.2882 0.0600 0.9557
f 100/100/100 101/101/101 102/102/102
v -0.2537 0.0918 0.1265
vt 0.5000 0.8333
vn -0.9819 0.0588 -0.1800
v -0.2190 0.1508 -0.0435
vt 0.5000 0.8333
vn -0.9819 0.0588 -0.1800
v -0.2218 0.0918 -0.0474
vt 0.5000 0.8333
vn -0.9819 0.0588 -0.1800
f 103/103/103 104/104/104 105/105/105
v -0.2190 0.1508 -0.0435
vt 0.5000 0.8333
vn -0.9819 0.0588 -0.1800
v -0.2537 0.0918 0.1265
vt 0.5000 0.8333
vn -0.9819 0.0588 -0.1800
v -0.2323 0.1508 0.0295
vt 0.5000 0.8333
vn -0.9819 0.0588 -0.1800
f 106/106/106 107/107/107 108/108/108
v -0.2323 0.1508 0.0295
vt 0.5000 0.8333
vn -0.9819 0.0588 -0.1800
v -0.2537 0.0918 0.1265
vt 0.5000 0.8333
vn -0.9819 0.0588 -0.1800
v -0.2457 0.1508 0.1025
vt 0.5000 0.8333
vn -0.9819 0.0588 -0.1800
f 109/109/109 110/110/110 111/111/111
v 0.0491 0.4865 -0.3011
vt 0.5000 0.8333
vn 0.4987 0.0720 -0.8638
v 0.2998 0.0000 -0.1969
vt 0.5000 0.8333
vn 0.4987 0.0720 -0.8638
v 0.0491 0.0000 -0.3416
vt 0.5000 0.8333
vn 0.4987 0.0720 -0.8638
f 112/112/112 113/113/113 114/114/114
v 0.2998 0.0000 -0.1969
vt 0.5000 0.8333
vn 0.4987 0.0720 -0.8638
v 0.0491 0.4865 -0.3011
vt 0.5000 0.8333
vn 0.4987 0.0720 -0.8638
v 0.2647 0.4865 -0.1766
vt 0.5000 0.8333
vn 0.4987 0.0720 -0.8638
f 115/115/115 116/116/116 117/117/117
v 0.2647 0.4865 0.0724
vt 0.5000 0.8333
vn 0.4987 0.0720 0.8638
v 0.2827 0.2312 0.0833
vt 0.5000 0.8333
vn 0.4987 0.0720 0.8638
v 0.2831 0.2312 0.0830
vt 0.5000 0.8333
vn 0.4987 0.0720 0.8638
f 118/118/118 119/119/119 120/120/120
v 0.0491 0.4865 0.1969
vt 0.5000 0.8333
vn 0.4987 0.0720 0.8638
v 0.2827 0.2312 0.0833
vt 0.5000 0.8333
vn 0.4987 0.0720 0.8638
v 0.2647 0.4865 0.0724
vt 0.5000 0.8333
vn 0.4987 0.0720 0.8638
f 121/121/121 122/122/122 123/123/123
v 0.0491 0.0000 0.2374
vt 0.5000 0.8333
vn 0.4987 0.0720 0.8638
v 0.2827 0.2312 0.0833
vt 0.5000 0.8333
vn 0.4987 0.0720 0.8638
v 0.0491 0.4865 0.1969
vt 0.5000 0.8333
vn 0.4987 0.0720 0.8638
f 124/124/124 125/125/125 126/126/126
v 0.2827 0.2312 0.0833
vt 0.5000 0.8333
vn 0.4987 0.0720 0.8638
v 0.0491 0.0000 0.2374
vt 0.5000 0.8333
vn 0.4987 0.0720 0.8638
v 0.2051 0.0000 0.1473
vt 0.5000 0.8333
vn 0.4987 0.0720 0.8638
f 127/127/127 128/128/128 129/129/129
v 0.0312 0.6792 -0.0032
vt 0.5000 0.8333
vn -0.3414 0.1137 0.9330
v -0.1665 0.4865 -0.0521
vt 0.5000 0.8333
vn -0.3414 0.1137 0.9330
v 0.0283 0.4865 0.0192
vt 0.5000 0.8333
vn -0.3414 0.1137 0.9330
f 130/130/130 131/131/131 132/132/132
v -0.1665 0.4865 -0.0521
vt 0.5000 0.8333
vn -0.3414 0.1137 0.9330
v 0.0312 0.6792 -0.0032
vt 0.5000 0.8333
vn -0.3414 0.1137 0.9330
v -0.1363 0.6792 -0.0645
vt 0.5000 0.8333
vn -0.3414 0.1137 0.9330
f 133/133/133 134/134/134 135/135/135
v -0.2145 0.3229 -0.0508
vt 0.5000 0.8333
vn 0.0000 0.0422 0.9991
v -0.3972 0.1508 -0.0435
vt 0.5000 0.8333
vn 0.0000 0.0422 0.9991
v -0.2190 0.1508 -0.0435
vt 0.5000 0.8333
vn 0.0000 0.0422 0.9991
f 136/136/136 137/137/137 138/138/138
v -0.3972 0.1508 -0.0435
vt 0.5000 0.8333
vn 0.0000 0.0422 0.9991
v -0.2145 0.3229 -0.0508
vt 0.5000 0.8333
vn 0.0000 0.0422 0.9991
v -0.3393 0.3229 -0.0508
vt 0.5000 0.8333
vn 0.0000 0.0422 0.9991
f 139/139/139 140/140/140 141/141/141
v -0.1451 0.0918 -0.2218
vt 0.5000 0.8333
vn -0.4987 0.0720 -0.8638
v 0.0491 0.0000 -0.3416
vt 0.5000 0.8333
vn -0.4987 0.0720 -0.8638
v -0.0942 0.0000 -0.2589
vt 0.5000 0.8333
vn -0.4987 0.0720 -0.8638
f 142/142/142 143/143/143 144/144/144
v 0.0491 0.0000 -0.3416
vt 0.5000 0.8333
vn -0.4987 0.0720 -0.8638
v -0.1451 0.0918 -0.2218
vt 0.5000 0.8333
vn -0.4987 0.0720 -0.8638
v 0.0491 0.4865 -0.3011
vt 0.5000 0.8333
vn -0.4987 0.0720 -0.8638
f 145/145/145 146/146/146 147/147/147
v 0.0491 0.4865 -0.3011
vt 0.5000 0.8333
vn -0.4987 0.0720 -0.8638
v -0.1451 0.0918 -0.2218
vt 0.5000 0.8333
vn -0.4987 0.0720 -0.8638
v -0.1731 0.1508 -0.2008
vt 0.5000 0.8333
vn -0.4987 0.0720 -0.8638
f 148/148/148 149/149/149 150/150/150
v 0.0491 0.4865 -0.3011
vt 0.5000 0.8333
vn -0.4987 0.0720 -0.8638
v -0.1731 0.1508 -0.2008
vt 0.5000 0.8333
vn -0.4987 0.0720 -0.8638
v -0.1851 0.2285 -0.1873
vt 0.5000 0.8333
vn -0.4987 0.0720 -0.8638
f 151/151/151 152/152/152 153/153/153
v 0.0491 0.4865 -0.3011
vt 0.5000 0.8333
vn -0.4987 0.0720 -0.8638
v -0.1851 0.2285 -0.1873
vt 0.5000 0.8333
vn -0.4987 0.0720 -0.8638
v -0.1665 0.4865 -0.1766
vt 0.5000 0.8333
vn -0.4987 0.0720 -0.8638
f 154/154/154 155/155/155 156/156/156
v 0.3759 0.2312 0.0836
vt 0.5000 0.8333
vn 0.5350 0.3975 0.7455
v 0.3111 0.0000 0.2533
vt 0.5000 0.8333
vn 0.5350 0.3975 0.7455
v 0.4915 0.0000 0.1239
vt 0.5000 0.8333
vn 0.5350 0.3975 0.7455
f 157/157/157 158/158/158 159/159/159
v 0.3111 0.0000 0.2533
vt 0.5000 0.8333
vn 0.5350 0.3975 0.7455
v 0.3759 0.2312 0.0836
vt 0.5000 0.8333
vn 0.5350 0.3975 0.7455
v 0.3218 0.2312 0.1224
vt 0.5000 0.8333
vn 0.5350 0.3975 0.7455
f 160/160/160 161/161/161 162/162/162
v 0.2345 0.6792 -0.1716
vt 0.5000 0.8333
vn 0.9880 0.1547 0.0000
v 0.2647 0.4865 -0.0521
vt 0.5000 0.8333
vn 0.9880 0.1547 0.0000
v 0.2647 0.4865 -0.1766
vt 0.5000 0.8333
vn 0.9880 0.1547 0.0000
f 163/163/163 164/164/164 165/165/165
v 0.2647 0.4865 -0.0521
vt 0.5000 0.8333
vn 0.9880 0.1547 0.0000
v 0.2345 0.6792 -0.1716
vt 0.5000 0.8333
vn 0.9880 0.1547 0.0000
v 0.2345 0.6792 -0.0645
vt 0.5000 0.8333
vn 0.9880 0.1547 0.0000
f 166/166/166 167/167/167 168/168/168
v -0.4340 0.0918 -0.1231
vt 0.5000 0.8333
vn -0.4237 0.5308 -0.7339
v -0.2041 0.0000 -0.3223
vt 0.5000 0.8333
vn -0.4237 0.5308 -0.7339
v -0.4915 0.0000 -0.1563
vt 0.5000 0.8333
vn -0.4237 0.5308 -0.7339
f 169/169/169 170/170/170 171/171/171
v -0.2041 0.0000 -0.3223
vt 0.5000 0.8333
vn -0.4237 0.5308 -0.7339
v -0.4340 0.0918 -0.1231
vt 0.5000 0.8333
vn -0.4237 0.5308 -0.7339
v -0.2041 0.0918 -0.2559
vt 0.5000 0.8333
vn -0.4237 0.5308 -0.7339
f 172/172/172 173/173/173 174/174/174
v 0.2345 0.6792 -0.0645
vt 0.5000 0.8333
vn 0.2871 0.1064 0.9520
v 0.0283 0.4865 0.0192
vt 0.5000 0.8333
vn 0.2871 0.1064 0.9520
v 0.2647 0.4865 -0.0521
vt 0.5000 0.8333
vn 0.2871 0.1064 0.9520
f 175/175/175 176/176/176 177/177/177
v 0.0283 0.4865 0.0192
vt 0.5000 0.8333
vn 0.2871 0.1064 0.9520
v 0.2345 0.6792 -0.0645
vt 0.5000 0.8333
vn 0.2871 0.1064 0.9520
v 0.0312 0.6792 -0.0032
vt 0.5000 0.8333
vn 0.2871 0.1064 0.9520
f 178/178/178 179/179/179 180/180/180
v -0.1783 0.3229 -0.1586
vt 0.5000 0.8333
vn -0.9974 0.0720 0.0000
v -0.1665 0.4865 -0.1766
vt 0.5000 0.8333
vn -0.9974 0.0720 0.0000
v -0.1851 0.2285 -0.1873
vt 0.5000 0.8333
vn -0.9974 0.0720 0.0000
f 181/181/181 182/182/182 183/183/183
v -0.1665 0.4865 -0.1766
vt 0.5000 0.8333
vn -0.9974 0.0720 0.0000
v -0.1783 0.3229 -0.1586
vt 0.5000 0.8333
vn -0.9974 0.0720 0.0000
v -0.1665 0.4865 -0.0521
vt 0.5000 0.8333
vn -0.9974 0.0720 0.0000
f 184/184/184 185/185/185 186/186/186
v -0.1665 0.4865 -0.0521
vt 0.5000 0.8333
vn -0.9974 0.0720 0.0000
v -0.1783 0.3229 -0.1586
vt 0.5000 0.8333
vn -0.9974 0.0720 0.0000
v -0.1783 0.3229 0.0213
vt 0.5000 0.8333
vn -0.9974 0.0720 0.0000
f 187/187/187 188/188/188 189/189/189
v -0.1665 0.4865 -0.0521
vt 0.5000 0.8333
vn -0.9974 0.0720 0.0000
v -0.1783 0.3229 0.0213
vt 0.5000 0.8333
vn -0.9974 0.0720 0.0000
v -0.1665 0.4865 0.0724
vt 0.5000 0.8333
vn -0.9974 0.0720 0.0000
f 190/190/190 191/191/191 192/192/192
v -0.1665 0.4865 0.0724
vt 0.5000 0.8333
vn -0.9974 0.0720 0.0000
v -0.1783 0.3229 0.0213
vt 0.5000 0.8333
vn -0.9974 0.0720 0.0000
v -0.1908 0.1508 0.0487
vt 0.5000 0.8333
vn -0.9974 0.0720 0.0000
f 193/193/193 194/194/194 195/195/195
v -0.1665 0.4865 0.0724
vt 0.5000 0.8333
vn -0.9974 0.0720 0.0000
v -0.1908 0.1508 0.0487
vt 0.5000 0.8333
vn -0.9974 0.0720 0.0000
v -0.1908 0.1508 0.0864
vt 0.5000 0.8333
vn -0.9974 0.0720 0.0000
f 196/196/196 197/197/197 198/198/198
v -0.2041 0.1508 -0.2187
vt 0.5000 0.8333
vn 0.4389 0.4790 -0.7602
v -0.1451 0.0918 -0.2218
vt 0.5000 0.8333
vn 0.4389 0.4790 -0.7602
v -0.2041 0.0918 -0.2559
vt 0.5000 0.8333
vn 0.4389 0.4790 -0.7602
f 199/199/199 200/200/200 201/201/201
v -0.1451 0.0918 -0.2218
vt 0.5000 0.8333
vn 0.4389 0.4790 -0.7602
v -0.2041 0.1508 -0.2187
vt 0.5000 0.8333
vn 0.4389 0.4790 -0.7602
v -0.1731 0.1508 -0.2008
vt 0.5000 0.8333
vn 0.4389 0.4790 -0.7602
f 202/202/202 203/203/203 204/204/204
v -0.2041 0.0918 0.2752
vt 0.5000 0.8333
vn -0.4237 0.5308 0.7339
v -0.4915 0.0000 0.1756
vt 0.5000 0.8333
vn -0.4237 0.5308 0.7339
v -0.2041 0.0000 0.3416
vt 0.5000 0.8333
vn -0.4237 0.5308 0.7339
f 205/205/205 206/206/206 207/207/207
v -0.4915 0.0000 0.1756
vt 0.5000 0.8333
vn -0.4237 0.5308 0.7339
v -0.2041 0.0918 0.2752
vt 0.5000 0.8333
vn -0.4237 0.5308 0.7339
v -0.4340 0.0918 0.1424
vt 0.5000 0.8333
vn -0.4237 0.5308 0.7339
f 208/208/208 209/209/209 210/210/210
v 0.2117 0.9959 -0.1664
vt 0.5000 0.8333
vn 0.9974 0.0720 0.0000
v 0.2345 0.6792 -0.0645
vt 0.5000 0.8333
vn 0.9974 0.0720 0.0000
v 0.2345 0.6792 -0.1716
vt 0.5000 0.8333
vn 0.9974 0.0720 0.0000
f 211/211/211 212/212/212 213/213/213
v 0.2345 0.6792 -0.0645
vt 0.5000 0.8333
vn 0.9974 0.0720 0.0000
v 0.2117 0.9959 -0.1664
vt 0.5000 0.8333
vn 0.9974 0.0720 0.0000
v 0.2117 0.9959 -0.0775
vt 0.5000 0.8333
vn 0.9974 0.0720 0.0000
f 214/214/214 215/215/215 216/216/216
v -0.1665 0.4865 -0.0521
vt 0.5000 0.8333
vn -0.9880 0.1547 0.0000
v -0.1363 0.6792 -0.1716
vt 0.5000 0.8333
vn -0.9880 0.1547 0.0000
v -0.1665 0.4865 -0.1766
vt 0.5000 0.8333
vn -0.9880 0.1547 0.0000
f 217/217/217 218/218/218 219/219/219
v -0.1363 0.6792 -0.1716
vt 0.5000 0.8333
vn -0.9880 0.1547 0.0000
v -0.1665 0.4865 -0.0521
vt 0.5000 0.8333
vn -0.9880 0.1547 0.0000
v -0.1363 0.6792 -0.0645
vt 0.5000 0.8333
vn -0.9880 0.1547 0.0000
f 220/220/220 221/221/221 222/222/222
v -0.3393 0.3229 -0.0954
vt 0.5000 0.8333
vn -0.4875 0.2221 -0.8444
v -0.2041 0.1508 -0.2187
vt 0.5000 0.8333
vn -0.4875 0.2221 -0.8444
v -0.3972 0.1508 -0.1072
vt 0.5000 0.8333
vn -0.4875 0.2221 -0.8444
f 223/223/223 224/224/224 225/225/225
v -0.2041 0.1508 -0.2187
vt 0.5000 0.8333
vn -0.4875 0.2221 -0.8444
v -0.3393 0.3229 -0.0954
vt 0.5000 0.8333
vn -0.4875 0.2221 -0.8444
v -0.2041 0.3229 -0.1734
vt 0.5000 0.8333
vn -0.4875 0.2221 -0.8444
f 226/226/226 227/227/227 228/228/228
v 0.2647 0.4865 -0.1766
vt 0.5000 0.8333
vn 0.9974 0.0720 0.0000
v 0.2998 0.0000 -0.1075
vt 0.5000 0.8333
vn 0.9974 0.0720 0.0000
v 0.2998 0.0000 -0.1969
vt 0.5000 0.8333
vn 0.9974 0.0720 0.0000
f 229/229/229 230/230/230 231/231/231
v 0.2998 0.0000 -0.1075
vt 0.5000 0.8333
vn 0.9974 0.0720 0.0000
v 0.2647 0.4865 -0.1766
vt 0.5000 0.8333
vn 0.9974 0.0720 0.0000
v 0.2647 0.4865 -0.0521
vt 0.5000 0.8333
vn 0.9974 0.0720 0.0000
f 232/232/232 233/233/233 234/234/234
v 0.2998 0.0000 -0.1075
vt 0.5000 0.8333
vn 0.9974 0.0720 0.0000
v 0.2647 0.4865 -0.0521
vt 0.5000 0.8333
vn 0.9974 0.0720 0.0000
v 0.2831 0.2312 -0.0073
vt 0.5000 0.8333
vn 0.9974 0.0720 0.0000
f 235/235/235 236/236/236 237/237/237
v 0.2831 0.2312 -0.0073
vt 0.5000 0.8333
vn 0.9974 0.0720 0.0000
v 0.2647 0.4865 -0.0521
vt 0.5000 0.8333
vn 0.9974 0.0720 0.0000
v 0.2647 0.4865 0.0724
vt 0.5000 0.8333
vn 0.9974 0.0720 0.0000
f 238/238/238 239/239/239 240/240/240
v 0.2831 0.2312 -0.0073
vt 0.5000 0.8333
vn 0.9974 0.0720 0.0000
v 0.2647 0.4865 0.0724
vt 0.5000 0.8333
vn 0.9974 0.0720 0.0000
v 0.2831 0.2312 0.0830
vt 0.5000 0.8333
vn 0.9974 0.0720 0.0000
f 241/241/241 242/242/242 243/243/243
v 0.0578 0.9959 -0.2552
vt 0.5000 0.8333
vn 0.4994 0.0503 -0.8649
v 0.2345 0.6792 -0.1716
vt 0.5000 0.8333
vn 0.4994 0.0503 -0.8649
v 0.0491 0.6792 -0.2787
vt 0.5000 0.8333
vn 0.4994 0.0503 -0.8649
f 244/244/244 245/245/245 246/246/246
v 0.2345 0.6792 -0.1716
vt 0.5000 0.8333
vn 0.4994 0.0503 -0.8649
v 0.0578 0.9959 -0.2552
vt 0.5000 0.8333
vn 0.4994 0.0503 -0.8649
v 0.2117 0.9959 -0.1664
vt 0.5000 0.8333
vn 0.4994 0.0503 -0.8649
f 247/247/247 248/248/248 249/249/249
v -0.3972 0.1508 -0.1072
vt 0.5000 0.8333
vn -0.4389 0.4790 -0.7602
v -0.2041 0.0918 -0.2559
vt 0.5000 0.8333
vn -0.4389 0.4790 -0.7602
v -0.4340 0.0918 -0.1231
vt 0.5000 0.8333
vn -0.4389 0.4790 -0.7602
f 250/250/250 251/251/251 252/252/252
v -0.2041 0.0918 -0.2559
vt 0.5000 0.8333
vn -0.4389 0.4790 -0.7602
v -0.3972 0.1508 -0.1072
vt 0.5000 0.8333
vn -0.4389 0.4790 -0.7602
v -0.2041 0.1508 -0.2187
vt 0.5000 0.8333
vn -0.4389 0.4790 -0.7602
f 253/253/253 254/254/254 255/255/255
v -0.1075 0.1508 0.1717
vt 0.5000 0.8333
vn -0.4118 0.3904 0.8234
v -0.2537 0.0918 0.1265
vt 0.5000 0.8333
vn -0.4118 0.3904 0.8234
v -0.0891 0.0918 0.2088
vt 0.5000 0.8333
vn -0.4118 0.3904 0.8234
f 256/256/256 257/257/257 258/258/258
v -0.2537 0.0918 0.1265
vt 0.5000 0.8333
vn -0.4118 0.3904 0.8234
v -0.1075 0.1508 0.1717
vt 0.5000 0.8333
vn -0.4118 0.3904 0.8234
v -0.2457 0.1508 0.1025
vt 0.5000 0.8333
vn -0.4118 0.3904 0.8234
f 259/259/259 260/260/260 261/261/261
v 0.2831 0.2312 -0.0073
vt 0.5000 0.8333
vn 0.0000 0.3975 -0.9176
v 0.4255 0.0000 -0.1075
vt 0.5000 0.8333
vn 0.0000 0.3975 -0.9176
v 0.2998 0.0000 -0.1075
vt 0.5000 0.8333
vn 0.0000 0.3975 -0.9176
f 262/262/262 263/263/263 264/264/264
v 0.4255 0.0000 -0.1075
vt 0.5000 0.8333
vn 0.0000 0.3975 -0.9176
v 0.2831 0.2312 -0.0073
vt 0.5000 0.8333
vn 0.0000 0.3975 -0.9176
v 0.3499 0.2312 -0.0073
vt 0.5000 0.8333
vn 0.0000 0.3975 -0.9176
f 265/265/265 266/266/266 267/267/267
v -0.0115 0.9959 -0.2153
vt 0.5000 0.8333
vn -0.4985 0.0775 -0.8634
v 0.0491 0.6792 -0.2787
vt 0.5000 0.8333
vn -0.4985 0.0775 -0.8634
v -0.0343 0.6792 -0.2305
vt 0.5000 0.8333
vn -0.4985 0.0775 -0.8634
f 268/268/268 269/269/269 270/270/270
v 0.0491 0.6792 -0.2787
vt 0.5000 0.8333
vn -0.4985 0.0775 -0.8634
v -0.0115 0.9959 -0.2153
vt 0.5000 0.8333
vn -0.4985 0.0775 -0.8634
v 0.0578 0.9959 -0.2552
vt 0.5000 0.8333
vn -0.4985 0.0775 -0.8634
f 271/271/271 272/272/272 273/273/273
v -0.2041 0.3229 -0.1734
vt 0.5000 0.8333
vn 0.4875 0.2221 -0.8444
v -0.1731 0.1508 -0.2008
vt 0.5000 0.8333
vn 0.4875 0.2221 -0.8444
v -0.2041 0.1508 -0.2187
vt 0.5000 0.8333
vn 0.4875 0.2221 -0.8444
f 274/274/274 275/275/275 276/276/276
v -0.1731 0.1508 -0.2008
vt 0.5000 0.8333
vn 0.4875 0.2221 -0.8444
v -0.2041 0.3229 -0.1734
vt 0.5000 0.8333
vn 0.4875 0.2221 -0.8444
v -0.1851 0.2285 -0.1873
vt 0.5000 0.8333
vn 0.4875 0.2221 -0.8444
f 277/277/277 278/278/278 279/279/279
v -0.1851 0.2285 -0.1873
vt 0.5000 0.8333
vn 0.4875 0.2221 -0.8444
v -0.2041 0.3229 -0.1734
vt 0.5000 0.8333
vn 0.4875 0.2221 -0.8444
v -0.1783 0.3229 -0.1586
vt 0.5000 0.8333
vn 0.4875 0.2221 -0.8444
f 280/280/280 281/281/281 282/282/282
v -0.2190 0.1508 -0.0435
vt 0.5000 0.8333
vn -0.9835 0.0179 -0.1803
v -0.2239 0.3229 0.0003
vt 0.5000 0.8333
vn -0.9835 0.0179 -0.1803
v -0.2145 0.3229 -0.0508
vt 0.5000 0.8333
vn -0.9835 0.0179 -0.1803
f 283/283/283 284/284/284 285/285/285
v -0.2239 0.3229 0.0003
vt 0.5000 0.8333
vn -0.9835 0.0179 -0.1803
v -0.2190 0.1508 -0.0435
vt 0.5000 0.8333
vn -0.9835 0.0179 -0.1803
v -0.2323 0.1508 0.0295
vt 0.5000 0.8333
vn -0.9835 0.0179 -0.1803
f 286/286/286 287/287/287 288/288/288
v -0.2190 0.1508 -0.0435
vt 0.5000 0.8333
vn 0.0000 -0.0645 0.9979
v -0.4340 0.0918 -0.0474
vt 0.5000 0.8333
vn 0.0000 -0.0645 0.9979
v -0.2218 0.0918 -0.0474
vt 0.5000 0.8333
vn 0.0000 -0.0645 0.9979
f 289/289/289 290/290/290 291/291/291
v -0.4340 0.0918 -0.0474
vt 0.5000 0.8333
vn 0.0000 -0.0645 0.9979
v -0.2190 0.1508 -0.0435
vt 0.5000 0.8333
vn 0.0000 -0.0645 0.9979
v -0.3972 0.1508 -0.0435
vt 0.5000 0.8333
vn 0.0000 -0.0645 0.9979
f 292/292/292 293/293/293 294/294/294
v -0.0343 0.6792 -0.2305
vt 0.8333 0.8333
vn 0.0000 1.0000 0.0000
v -0.1363 0.6792 -0.0645
vt 0.8333 0.8333
vn 0.0000 1.0000 0.0000
v 0.0312 0.6792 -0.0032
vt 0.8333 0.8333
vn 0.0000 1.0000 0.0000
f 295/295/295 296/296/296 297/297/297
v -0.1363 0.6792 -0.0645
vt 0.8333 0.8333
vn 0.0000 1.0000 0.0000
v -0.0343 0.6792 -0.2305
vt 0.8333 0.8333
vn 0.0000 1.0000 0.0000
v -0.1363 0.6792 -0.1716
vt 0.8333 0.8333
vn 0.0000 1.0000 0.0000
f 298/298/298 299/299/299 300/300/300
v 0.0283 0.4865 0.0192
vt 0.8333 0.8333
vn 0.0000 1.0000 0.0000
v 0.2647 0.4865 0.0724
vt 0.8333 0.8333
vn 0.0000 1.0000 0.0000
v 0.2647 0.4865 -0.0521
vt 0.8333 0.8333
vn 0.0000 1.0000 0.0000
f 301/301/301 302/302/302 303/303/303
v 0.2647 0.4865 0.0724
vt 0.8333 0.8333
vn 0.0000 1.0000 0.0000
v 0.0283 0.4865 0.0192
vt 0.8333 0.8333
vn 0.0000 1.0000 0.0000
v 0.0491 0.4865 0.1969
vt 0.8333 0.8333
vn 0.0000 1.0000 0.0000
f 304/304/304 305/305/305 306/306/306
v 0.0491 0.4865 0.1969
vt 0.8333 0.8333
vn 0.0000 1.0000 0.0000
v 0.0283 0.4865 0.0192
vt 0.8333 0.8333
vn 0.0000 1.0000 0.0000
v -0.1665 0.4865 0.0724
vt 0.8333 0.8333
vn 0.0000 1.0000 0.0000
f 307/307/307 308/308/308 309/309/309
v -0.1665 0.4865 0.0724
vt 0.8333 0.8333
vn 0.0000 1.0000 0.0000
v 0.0283 0.4865 0.0192
vt 0.8333 0.8333
vn 0.0000 1.0000 0.0000
v -0.1665 0.4865 -0.0521
vt 0.8333 0.8333
vn 0.0000 1.0000 0.0000
f 310/310/310 311/311/311 312/312/312
v -0.3393 0.3229 -0.0954
vt 0.8333 0.8333
vn 0.0000 1.0000 0.0000
v -0.2145 0.3229 -0.0508
vt 0.8333 0.8333
vn 0.0000 1.0000 0.0000
v -0.2041 0.3229 -0.1734
vt 0.8333 0.8333
vn 0.0000 1.0000 0.0000
f 313/313/313 314/314/314 315/315/315
v -0.2145 0.3229 -0.0508
vt 0.8333 0.8333
vn 0.0000 1.0000 0.0000
v -0.3393 0.3229 -0.0954
vt 0.8333 0.8333
vn 0.0000 1.0000 0.0000
v -0.3393 0.3229 -0.0508
vt 0.8333 0.8333
vn 0.0000 1.0000 0.0000
f 316/316/316 317/317/317 318/318/318
v -0.1783 0.3229 0.0213
vt 0.8333 0.8333
vn 0.0000 1.0000 0.0000
v -0.2041 0.3229 -0.1734
vt 0.8333 0.8333
vn 0.0000 1.0000 0.0000
v -0.2145 0.3229 -0.0508
vt 0.8333 0.8333
vn 0.0000 1.0000 0.0000
f 319/319/319 320/320/320 321/321/321
v -0.2041 0.3229 -0.1734
vt 0.8333 0.8333
vn 0.0000 1.0000 0.0000
v -0.1783 0.3229 0.0213
vt 0.8333 0.8333
vn 0.0000 1.0000 0.0000
v -0.1783 0.3229 -0.1586
vt 0.8333 0.8333
vn 0.0000 1.0000 0.0000
f 322/322/322 323/323/323 324/324/324
v -0.1783 0.3229 0.0213
vt 0.8333 0.8333
vn 0.0000 1.0000 0.0000
v -0.2145 0.3229 -0.0508
vt 0.8333 0.8333
vn 0.0000 1.0000 0.0000
v -0.2239 0.3229 0.0003
vt 0.8333 0.8333
vn 0.0000 1.0000 0.0000
f 325/325/325 326/326/326 327/327/327
v 0.0578 0.9959 -0.2552
vt 0.8333 0.8333
vn 0.0000 1.0000 0.0000
v 0.2117 0.9959 -0.0775
vt 0.8333 0.8333
vn 0.0000 1.0000 0.0000
v 0.2117 0.9959 -0.1664
vt 0.8333 0.8333
vn 0.0000 1.0000 0.0000
f 328/328/328 329/329/329 330/330/330
v 0.2117 0.9959 -0.0775
vt 0.8333 0.8333
vn 0.0000 1.0000 0.0000
v 0.0578 0.9959 -0.2552
vt 0.8333 0.8333
vn 0.0000 1.0000 0.0000
v 0.0429 0.9959 -0.0266
vt 0.8333 0.8333
vn 0.0000 1.0000 0.0000
f 331/331/331 332/332/332 333/333/333
v 0.0429 0.9959 -0.0266
vt 0.8333 0.8333
vn 0.0000 1.0000 0.0000
v 0.0578 0.9959 -0.2552
vt 0.8333 0.8333
vn 0.0000 1.0000 0.0000
v -0.0115 0.9959 -0.2153
vt 0.8333 0.8333
vn 0.0000 1.0000 0.0000
f 334/334/334 335/335/335 336/336/336
v 0.3499 0.2312 -0.0073
vt 0.8333 0.8333
vn 0.0000 1.0000 0.0000
v 0.3218 0.2312 0.1224
vt 0.8333 0.8333
vn 0.0000 1.0000 0.0000
v 0.3759 0.2312 0.0836
vt 0.8333 0.8333
vn 0.0000 1.0000 0.0000
f 337/337/337 338/338/338 339/339/339
v 0.3218 0.2312 0.1224
vt 0.8333 0.8333
vn 0.0000 1.0000 0.0000
v 0.3499 0.2312 -0.0073
vt 0.8333 0.8333
vn 0.0000 1.0000 0.0000
v 0.2831 0.2312 -0.0073
vt 0.8333 0.8333
vn 0.0000 1.0000 0.0000
f 340/340/340 341/341/341 342/342/342
v 0.3218 0.2312 0.1224
vt 0.8333 0.8333
vn 0.0000 1.0000 0.0000
v 0.2831 0.2312 -0.0073
vt 0.8333 0.8333
vn 0.0000 1.0000 0.0000
v 0.2831 0.2312 0.0830
vt 0.8333 0.8333
vn 0.0000 1.0000 0.0000
f 343/343/343 344/344/344 345/345/345
v 0.3218 0.2312 0.1224
vt 0.8333 0.8333
vn 0.0000 1.0000 0.0000
v 0.2831 0.2312 0.0830
vt 0.8333 0.8333
vn 0.0000 1.0000 0.0000
v 0.2827 0.2312 0.0833
vt 0.8333 0.8333
vn 0.0000 1.0000 0.0000
f 346/346/346 347/347/347 348/348/348
v -0.4340 0.0918 -0.0474
vt 0.8333 0.8333
vn 0.0000 1.0000 0.0000
v -0.2537 0.0918 0.1265
vt 0.8333 0.8333
vn 0.0000 1.0000 0.0000
v -0.2218 0.0918 -0.0474
vt 0.8333 0.8333
vn 0.0000 1.0000 0.0000
f 349/349/349 350/350/350 351/351/351
v -0.4340 0.0918 0.1424
vt 0.8333 0.8333
vn 0.0000 1.0000 0.0000
v -0.2537 0.0918 0.1265
vt 0.8333 0.8333
vn 0.0000 1.0000 0.0000
v -0.4340 0.0918 -0.0474
vt 0.8333 0.8333
vn 0.0000 1.0000 0.0000
f 352/352/352 353/353/353 354/354/354
v -0.2041 0.0918 0.2752
vt 0.8333 0.8333
vn 0.0000 1.0000 0.0000
v -0.2537 0.0918 0.1265
vt 0.8333 0.8333
vn 0.0000 1.0000 0.0000
v -0.4340 0.0918 0.1424
vt 0.8333 0.8333
vn 0.0000 1.0000 0.0000
f 355/355/355 356/356/356 357/357/357
v -0.2537 0.0918 0.1265
vt 0.8333 0.8333
vn 0.0000 1.0000 0.0000
v -0.2041 0.0918 0.2752
vt 0.8333 0.8333
vn 0.0000 1.0000 0.0000
v -0.0891 0.0918 0.2088
vt 0.8333 0.8333
vn 0.0000 1.0000 0.0000
f 358/358/358 359/359/359 360/360/360
v -0.2323 0.1508 0.0295
vt 0.8333 0.8333
vn 0.0000 1.0000 0.0000
v -0.1908 0.1508 0.0864
vt 0.8333 0.8333
vn 0.0000 1.0000 0.0000
v -0.1908 0.1508 0.0487
vt 0.8333 0.8333
vn 0.0000 1.0000 0.0000
f 361/361/361 362/362/362 363/363/363
v -0.2457 0.1508 0.1025
vt 0.8333 0.8333
vn 0.0000 1.0000 0.0000
v -0.1908 0.1508 0.0864
vt 0.8333 0.8333
vn 0.0000 1.0000 0.0000
v -0.2323 0.1508 0.0295
vt 0.8333 0.8333
vn 0.0000 1.0000 0.0000
f 364/364/364 365/365/365 366/366/366
v -0.1075 0.1508 0.1717
vt 0.8333 0.8333
vn 0.0000 1.0000 0.0000
v -0.1908 0.1508 0.0864
vt 0.8333 0.8333
vn 0.0000 1.0000 0.0000
v -0.2457 0.1508 0.1025
vt 0.8333 0.8333
vn 0.0000 1.0000 0.0000
f 367/367/367 368/368/368 369/369/369
v -0.1908 0.1508 0.0864
vt 0.8333 0.8333
vn 0.0000 1.0000 0.0000
v -0.1075 0.1508 0.1717
vt 0.8333 0.8333
vn 0.0000 1.0000 0.0000
v -0.0753 0.1508 0.1531
vt 0.8333 0.8333
vn 0.0000 1.0000 0.0000
f 370/370/370 371/371/371 372/372/372
v 0.3111 0.0000 0.2533
vt 0.1667 0.8333
vn 0.0000 -1.0000 0.0000
v 0.4255 0.0000 -0.1075
vt 0.1667 0.8333
vn 0.0000 -1.0000 0.0000
v 0.4915 0.0000 0.1239
vt 0.1667 0.8333
vn 0.0000 -1.0000 0.0000
f 373/373/373 374/374/374 375/375/375
v 0.4255 0.0000 -0.1075
vt 0.1667 0.8333
vn 0.0000 -1.0000 0.0000
v 0.3111 0.0000 0.2533
vt 0.1667 0.8333
vn 0.0000 -1.0000 0.0000
v 0.2998 0.0000 -0.1075
vt 0.1667 0.8333
vn 0.0000 -1.0000 0.0000
f 376/376/376 377/377/377 378/378/378
v 0.2998 0.0000 -0.1075
vt 0.1667 0.8333
vn 0.0000 -1.0000 0.0000
v 0.3111 0.0000 0.2533
vt 0.1667 0.8333
vn 0.0000 -1.0000 0.0000
v 0.2051 0.0000 0.1473
vt 0.1667 0.8333
vn 0.0000 -1.0000 0.0000
f 379/379/379 380/380/380 381/381/381
v 0.2998 0.0000 -0.1075
vt 0.1667 0.8333
vn 0.0000 -1.0000 0.0000
v 0.2051 0.0000 0.1473
vt 0.1667 0.8333
vn 0.0000 -1.0000 0.0000
v 0.2998 0.0000 -0.1969
vt 0.1667 0.8333
vn 0.0000 -1.0000 0.0000
f 382/382/382 383/383/383 384/384/384
v 0.2998 0.0000 -0.1969
vt 0.1667 0.8333
vn 0.0000 -1.0000 0.0000
v 0.2051 0.0000 0.1473
vt 0.1667 0.8333
vn 0.0000 -1.0000 0.0000
v 0.0491 0.0000 -0.3416
vt 0.1667 0.8333
vn 0.0000 -1.0000 0.0000
f 385/385/385 386/386/386 387/387/387
v 0.0491 0.0000 -0.3416
vt 0.1667 0.8333
vn 0.0000 -1.0000 0.0000
v 0.2051 0.0000 0.1473
vt 0.1667 0.8333
vn 0.0000 -1.0000 0.0000
v 0.0491 0.0000 0.2374
vt 0.1667 0.8333
vn 0.0000 -1.0000 0.0000
f 388/388/388 389/389/389 390/390/390
v 0.0491 0.0000 -0.3416
vt 0.1667 0.8333
vn 0.0000 -1.0000 0.0000
v 0.0491 0.0000 0.2374
vt 0.1667 0.8333
vn 0.0000 -1.0000 0.0000
v 0.0127 0.0000 0.2164
vt 0.1667 0.8333
vn 0.0000 -1.0000 0.0000
f 391/391/391 392/392/392 393/393/393
v 0.0491 0.0000 -0.3416
vt 0.1667 0.8333
vn 0.0000 -1.0000 0.0000
v 0.0127 0.0000 0.2164
vt 0.1667 0.8333
vn 0.0000 -1.0000 0.0000
v -0.0942 0.0000 -0.2589
vt 0.1667 0.8333
vn 0.0000 -1.0000 0.0000
f 394/394/394 395/395/395 396/396/396
v -0.0942 0.0000 -0.2589
vt 0.1667 0.8333
vn 0.0000 -1.0000 0.0000
v 0.0127 0.0000 0.2164
vt 0.1667 0.8333
vn 0.0000 -1.0000 0.0000
v -0.2041 0.0000 0.3416
vt 0.1667 0.8333
vn 0.0000 -1.0000 0.0000
f 397/397/397 398/398/398 399/399/399
v -0.0942 0.0000 -0.2589
vt 0.1667 0.8333
vn 0.0000 -1.0000 0.0000
v -0.2041 0.0000 0.3416
vt 0.1667 0.8333
vn 0.0000 -1.0000 0.0000
v -0.2041 0.0000 -0.3223
vt 0.1667 0.8333
vn 0.0000 -1.0000 0.0000
f 400/400/400 401/401/401 402/402/402
v -0.2041 0.0000 -0.3223
vt 0.1667 0.8333
vn 0.0000 -1.0000 0.0000
v -0.2041 0.0000 0.3416
vt 0.1667 0.8333
vn 0.0000 -1.0000 0.0000
v -0.4915 0.0000 0.1756
vt 0.1667 0.8333
vn 0.0000 -1.0000 0.0000
f 403/403/403 404/404/404 405/405/405
v -0.2041 0.0000 -0.3223
vt 0.1667 0.8333
vn 0.0000 -1.0000 0.0000
v -0.4915 0.0000 0.1756
vt 0.1667 0.8333
vn 0.0000 -1.0000 0.0000
v -0.4915 0.0000 -0.1563
vt 0.1667 0.8333
vn 0.0000 -1.0000 0.0000
f 406/406/406 407/407/407 408/408/408
