# The Giants of Holst prop, from Kenney CC0 kits (www.kenney.nl)
v -0.0533 0.2598 -0.2862
vt 0.5000 0.8333
vn 0.6635 0.4911 -0.5644
v 0.3343 0.1443 0.0688
vt 0.5000 0.8333
vn 0.6635 0.4911 -0.5644
v -0.0772 0.1443 -0.4148
vt 0.5000 0.8333
vn 0.6635 0.4911 -0.5644
f 1/1/1 2/2/2 3/3/3
v 0.3343 0.1443 0.0688
vt 0.5000 0.8333
vn 0.6635 0.4911 -0.5644
v -0.0533 0.2598 -0.2862
vt 0.5000 0.8333
vn 0.6635 0.4911 -0.5644
v 0.2306 0.2598 0.0475
vt 0.5000 0.8333
vn 0.6635 0.4911 -0.5644
f 4/4/4 5/5/5 6/6/6
v 0.1825 0.2020 0.4290
vt 0.5000 0.8333
vn -0.0842 0.7861 0.6124
v -0.2094 0.1443 0.4493
vt 0.5000 0.8333
vn -0.0842 0.7861 0.6124
v 0.2159 0.1443 0.5077
vt 0.5000 0.8333
vn -0.0842 0.7861 0.6124
f 7/7/7 8/8/8 9/9/9
v -0.2094 0.1443 0.4493
vt 0.5000 0.8333
vn -0.0842 0.7861 0.6124
v 0.1825 0.2020 0.4290
vt 0.5000 0.8333
vn -0.0842 0.7861 0.6124
v 0.0022 0.2598 0.3302
vt 0.5000 0.8333
vn -0.0842 0.7861 0.6124
f 10/10/10 11/11/11 12/12/12
v -0.2094 0.1443 0.4493
vt 0.5000 0.8333
vn -0.0842 0.7861 0.6124
v 0.0022 0.2598 0.3302
vt 0.5000 0.8333
vn -0.0842 0.7861 0.6124
v -0.1445 0.2598 0.3100
vt 0.5000 0.8333
vn -0.0842 0.7861 0.6124
f 13/13/13 14/14/14 15/15/15
v 0.3343 0.0758 0.0688
vt 0.5000 0.8333
vn 0.7232 -0.6636 -0.1915
v 0.3061 0.0000 0.2251
vt 0.5000 0.8333
vn 0.7232 -0.6636 -0.1915
v 0.2607 0.0000 0.0537
vt 0.5000 0.8333
vn 0.7232 -0.6636 -0.1915
f 16/16/16 17/17/17 18/18/18
v 0.3061 0.0000 0.2251
vt 0.5000 0.8333
vn 0.7232 -0.6636 -0.1915
v 0.3343 0.0758 0.0688
vt 0.5000 0.8333
vn 0.7232 -0.6636 -0.1915
v 0.3925 0.0758 0.2886
vt 0.5000 0.8333
vn 0.7232 -0.6636 -0.1915
f 19/19/19 20/20/20 21/21/21
v 0.1684 0.0000 0.3960
vt 0.5000 0.8333
vn 0.0000 -1.0000 0.0000
v 0.2607 0.0000 0.0537
vt 0.5000 0.8333
vn 0.0000 -1.0000 0.0000
v 0.3061 0.0000 0.2251
vt 0.5000 0.8333
vn 0.0000 -1.0000 0.0000
f 22/22/22 23/23/23 24/24/24
v 0.2607 0.0000 0.0537
vt 0.5000 0.8333
vn 0.0000 -1.0000 0.0000
v 0.1684 0.0000 0.3960
vt 0.5000 0.8333
vn 0.0000 -1.0000 0.0000
v -0.0602 0.0000 -0.3236
vt 0.5000 0.8333
vn 0.0000 -1.0000 0.0000
f 25/25/25 26/26/26 27/27/27
v -0.0602 0.0000 -0.3236
vt 0.5000 0.8333
vn 0.0000 -1.0000 0.0000
v 0.1684 0.0000 0.3960
vt 0.5000 0.8333
vn 0.0000 -1.0000 0.0000
v -0.1634 0.0000 0.3504
vt 0.5000 0.8333
vn 0.0000 -1.0000 0.0000
f 28/28/28 29/29/29 30/30/30
v -0.0602 0.0000 -0.3236
vt 0.5000 0.8333
vn 0.0000 -1.0000 0.0000
v -0.1634 0.0000 0.3504
vt 0.5000 0.8333
vn 0.0000 -1.0000 0.0000
v -0.1732 0.0000 -0.3960
vt 0.5000 0.8333
vn 0.0000 -1.0000 0.0000
f 31/31/31 32/32/32 33/33/33
v -0.1732 0.0000 -0.3960
vt 0.5000 0.8333
vn 0.0000 -1.0000 0.0000
v -0.1634 0.0000 0.3504
vt 0.5000 0.8333
vn 0.0000 -1.0000 0.0000
v -0.2343 0.0000 -0.0243
vt 0.5000 0.8333
vn 0.0000 -1.0000 0.0000
f 34/34/34 35/35/35 36/36/36
v -0.2343 0.0000 -0.0243
vt 0.5000 0.8333
vn 0.0000 -1.0000 0.0000
v -0.1634 0.0000 0.3504
vt 0.5000 0.8333
vn 0.0000 -1.0000 0.0000
v -0.3061 0.0000 0.1378
vt 0.5000 0.8333
vn 0.0000 -1.0000 0.0000
f 37/37/37 38/38/38 39/39/39
v -0.2343 0.0000 -0.2631
vt 0.5000 0.8333
vn 0.0000 -1.0000 0.0000
v -0.1732 0.0000 -0.3960
vt 0.5000 0.8333
vn 0.0000 -1.0000 0.0000
v -0.2343 0.0000 -0.0243
vt 0.5000 0.8333
vn 0.0000 -1.0000 0.0000
f 40/40/40 41/41/41 42/42/42
v -0.1732 0.0000 -0.3960
vt 0.5000 0.8333
vn 0.0000 -1.0000 0.0000
v -0.2343 0.0000 -0.2631
vt 0.5000 0.8333
vn 0.0000 -1.0000 0.0000
v -0.2858 0.0000 -0.3601
vt 0.5000 0.8333
vn 0.0000 -1.0000 0.0000
f 43/43/43 44/44/44 45/45/45
v 0.2159 0.1443 0.5077
vt 0.5000 0.8333
vn -0.1362 0.0000 0.9907
v -0.2094 0.0758 0.4493
vt 0.5000 0.8333
vn -0.1362 0.0000 0.9907
v 0.2159 0.0758 0.5077
vt 0.5000 0.8333
vn -0.1362 0.0000 0.9907
f 46/46/46 47/47/47 48/48/48
v -0.2094 0.0758 0.4493
vt 0.5000 0.8333
vn -0.1362 0.0000 0.9907
v 0.2159 0.1443 0.5077
vt 0.5000 0.8333
vn -0.1362 0.0000 0.9907
v -0.2094 0.1443 0.4493
vt 0.5000 0.8333
vn -0.1362 0.0000 0.9907
f 49/49/49 50/50/50 51/51/51
v 0.3925 0.1443 0.2886
vt 0.5000 0.8333
vn 0.9667 0.0000 -0.2560
v 0.3343 0.0758 0.0688
vt 0.5000 0.8333
vn 0.9667 0.0000 -0.2560
v 0.3343 0.1443 0.0688
vt 0.5000 0.8333
vn 0.9667 0.0000 -0.2560
f 52/52/52 53/53/53 54/54/54
v 0.3343 0.0758 0.0688
vt 0.5000 0.8333
vn 0.9667 0.0000 -0.2560
v 0.3925 0.1443 0.2886
vt 0.5000 0.8333
vn 0.9667 0.0000 -0.2560
v 0.3925 0.0758 0.2886
vt 0.5000 0.8333
vn 0.9667 0.0000 -0.2560
f 55/55/55 56/56/56 57/57/57
v -0.3925 0.0758 0.1767
vt 0.5000 0.8333
vn -0.9142 0.0000 -0.4052
v -0.3004 0.1443 -0.0311
vt 0.5000 0.8333
vn -0.9142 0.0000 -0.4052
v -0.3004 0.0758 -0.0311
vt 0.5000 0.8333
vn -0.9142 0.0000 -0.4052
f 58/58/58 59/59/59 60/60/60
v -0.3004 0.1443 -0.0311
vt 0.5000 0.8333
vn -0.9142 0.0000 -0.4052
v -0.3925 0.0758 0.1767
vt 0.5000 0.8333
vn -0.9142 0.0000 -0.4052
v -0.3925 0.1443 0.1767
vt 0.5000 0.8333
vn -0.9142 0.0000 -0.4052
f 61/61/61 62/62/62 63/63/63
v -0.2094 0.0758 0.4493
vt 0.5000 0.8333
vn -0.5232 -0.7764 0.3513
v -0.3061 0.0000 0.1378
vt 0.5000 0.8333
vn -0.5232 -0.7764 0.3513
v -0.1634 0.0000 0.3504
vt 0.5000 0.8333
vn -0.5232 -0.7764 0.3513
f 64/64/64 65/65/65 66/66/66
v -0.3061 0.0000 0.1378
vt 0.5000 0.8333
vn -0.5232 -0.7764 0.3513
v -0.2094 0.0758 0.4493
vt 0.5000 0.8333
vn -0.5232 -0.7764 0.3513
v -0.3925 0.0758 0.1767
vt 0.5000 0.8333
vn -0.5232 -0.7764 0.3513
f 67/67/67 68/68/68 69/69/69
v -0.1732 0.0000 -0.3960
vt 0.5000 0.8333
vn 0.4027 -0.6660 -0.6279
v -0.0772 0.0758 -0.4148
vt 0.5000 0.8333
vn 0.4027 -0.6660 -0.6279
v -0.0602 0.0000 -0.3236
vt 0.5000 0.8333
vn 0.4027 -0.6660 -0.6279
f 70/70/70 71/71/71 72/72/72
v -0.0772 0.0758 -0.4148
vt 0.5000 0.8333
vn 0.4027 -0.6660 -0.6279
v -0.1732 0.0000 -0.3960
vt 0.5000 0.8333
vn 0.4027 -0.6660 -0.6279
v -0.2221 0.0758 -0.5077
vt 0.5000 0.8333
vn 0.4027 -0.6660 -0.6279
f 73/73/73 74/74/74 75/75/75
v 0.0022 0.2598 0.3302
vt 0.5000 0.8333
vn 0.0971 0.9264 0.3638
v 0.1825 0.2020 0.4290
vt 0.5000 0.8333
vn 0.0971 0.9264 0.3638
v 0.2099 0.2598 0.2747
vt 0.5000 0.8333
vn 0.0971 0.9264 0.3638
f 76/76/76 77/77/77 78/78/78
v 0.2708 0.2598 0.1991
vt 0.5000 0.8333
vn 0.4733 0.7941 0.3812
v 0.2159 0.1443 0.5077
vt 0.5000 0.8333
vn 0.4733 0.7941 0.3812
v 0.3925 0.1443 0.2886
vt 0.5000 0.8333
vn 0.4733 0.7941 0.3812
f 79/79/79 80/80/80 81/81/81
v 0.2159 0.1443 0.5077
vt 0.5000 0.8333
vn 0.4733 0.7941 0.3812
v 0.2708 0.2598 0.1991
vt 0.5000 0.8333
vn 0.4733 0.7941 0.3812
v 0.2099 0.2598 0.2747
vt 0.5000 0.8333
vn 0.4733 0.7941 0.3812
f 82/82/82 83/83/83 84/84/84
v 0.2159 0.1443 0.5077
vt 0.5000 0.8333
vn 0.4733 0.7941 0.3812
v 0.2099 0.2598 0.2747
vt 0.5000 0.8333
vn 0.4733 0.7941 0.3812
v 0.1825 0.2020 0.4290
vt 0.5000 0.8333
vn 0.4733 0.7941 0.3812
f 85/85/85 86/86/86 87/87/87
v 0.3343 0.1443 0.0688
vt 0.5000 0.8333
vn 0.7617 0.0000 -0.6480
v -0.0772 0.0758 -0.4148
vt 0.5000 0.8333
vn 0.7617 0.0000 -0.6480
v -0.0772 0.1443 -0.4148
vt 0.5000 0.8333
vn 0.7617 0.0000 -0.6480
f 88/88/88 89/89/89 90/90/90
v -0.0772 0.0758 -0.4148
vt 0.5000 0.8333
vn 0.7617 0.0000 -0.6480
v 0.3343 0.1443 0.0688
vt 0.5000 0.8333
vn 0.7617 0.0000 -0.6480
v 0.3343 0.0758 0.0688
vt 0.5000 0.8333
vn 0.7617 0.0000 -0.6480
f 91/91/91 92/92/92 93/93/93
v -0.2343 0.0000 -0.0243
vt 0.5000 0.8333
vn -0.7021 -0.6405 -0.3112
v -0.3925 0.0758 0.1767
vt 0.5000 0.8333
vn -0.7021 -0.6405 -0.3112
v -0.3004 0.0758 -0.0311
vt 0.5000 0.8333
vn -0.7021 -0.6405 -0.3112
f 94/94/94 95/95/95 96/96/96
v -0.3925 0.0758 0.1767
vt 0.5000 0.8333
vn -0.7021 -0.6405 -0.3112
v -0.2343 0.0000 -0.0243
vt 0.5000 0.8333
vn -0.7021 -0.6405 -0.3112
v -0.3061 0.0000 0.1378
vt 0.5000 0.8333
vn -0.7021 -0.6405 -0.3112
f 97/97/97 98/98/98 99/99/99
v -0.2858 0.0000 -0.3601
vt 0.5000 0.8333
vn -0.1613 -0.8481 -0.5047
v -0.2221 0.0758 -0.5077
vt 0.5000 0.8333
vn -0.1613 -0.8481 -0.5047
v -0.1732 0.0000 -0.3960
vt 0.5000 0.8333
vn -0.1613 -0.8481 -0.5047
f 100/100/100 101/101/101 102/102/102
v -0.2221 0.0758 -0.5077
vt 0.5000 0.8333
vn -0.1613 -0.8481 -0.5047
v -0.2858 0.0000 -0.3601
vt 0.5000 0.8333
vn -0.1613 -0.8481 -0.5047
v -0.3664 0.0758 -0.4616
vt 0.5000 0.8333
vn -0.1613 -0.8481 -0.5047
f 103/103/103 104/104/104 105/105/105
v -0.2708 0.2598 0.1219
vt 0.5000 0.8333
vn -0.5477 0.7515 0.3677
v -0.2094 0.1443 0.4493
vt 0.5000 0.8333
vn -0.5477 0.7515 0.3677
v -0.1445 0.2598 0.3100
vt 0.5000 0.8333
vn -0.5477 0.7515 0.3677
f 106/106/106 107/107/107 108/108/108
v -0.2094 0.1443 0.4493
vt 0.5000 0.8333
vn -0.5477 0.7515 0.3677
v -0.2708 0.2598 0.1219
vt 0.5000 0.8333
vn -0.5477 0.7515 0.3677
v -0.3925 0.1443 0.1767
vt 0.5000 0.8333
vn -0.5477 0.7515 0.3677
f 109/109/109 110/110/110 111/111/111
v -0.3004 0.1443 -0.3374
vt 0.5000 0.8333
vn -0.8703 0.1688 0.4627
v -0.2528 0.2598 -0.3185
vt 0.5000 0.8333
vn -0.8487 0.2758 0.4512
v -0.3664 0.1443 -0.4616
vt 0.5000 0.8333
vn -0.8804 0.0758 0.4680
f 112/112/112 113/113/113 114/114/114
v -0.2528 0.2598 -0.3185
vt 0.5000 0.8333
vn -0.8487 0.2758 0.4512
v -0.3004 0.1443 -0.3374
vt 0.5000 0.8333
vn -0.8703 0.1688 0.4627
v -0.2072 0.2598 -0.2328
vt 0.5000 0.8333
vn -0.8487 0.2758 0.4512
f 115/115/115 116/116/116 117/117/117
v -0.2094 0.0758 0.4493
vt 0.5000 0.8333
vn -0.0801 -0.8088 0.5827
v 0.1684 0.0000 0.3960
vt 0.5000 0.8333
vn -0.0801 -0.8088 0.5827
v 0.2159 0.0758 0.5077
vt 0.5000 0.8333
vn -0.0801 -0.8088 0.5827
f 118/118/118 119/119/119 120/120/120
v 0.1684 0.0000 0.3960
vt 0.5000 0.8333
vn -0.0801 -0.8088 0.5827
v -0.2094 0.0758 0.4493
vt 0.5000 0.8333
vn -0.0801 -0.8088 0.5827
v -0.1634 0.0000 0.3504
vt 0.5000 0.8333
vn -0.0801 -0.8088 0.5827
f 121/121/121 122/122/122 123/123/123
v -0.2221 0.1443 -0.5077
vt 0.5000 0.8333
vn -0.1704 0.8286 -0.5333
v -0.2528 0.2598 -0.3185
vt 0.5000 0.8333
vn -0.1704 0.8286 -0.5333
v -0.1532 0.2598 -0.3503
vt 0.5000 0.8333
vn -0.1704 0.8286 -0.5333
f 124/124/124 125/125/125 126/126/126
v -0.2528 0.2598 -0.3185
vt 0.5000 0.8333
vn -0.1704 0.8286 -0.5333
v -0.2221 0.1443 -0.5077
vt 0.5000 0.8333
vn -0.1704 0.8286 -0.5333
v -0.3664 0.1443 -0.4616
vt 0.5000 0.8333
vn -0.1704 0.8286 -0.5333
f 127/127/127 128/128/128 129/129/129
v 0.3343 0.0758 0.0688
vt 0.5000 0.8333
vn 0.6503 -0.5206 -0.5532
v -0.0602 0.0000 -0.3236
vt 0.5000 0.8333
vn 0.6503 -0.5206 -0.5532
v -0.0772 0.0758 -0.4148
vt 0.5000 0.8333
vn 0.6503 -0.5206 -0.5532
f 130/130/130 131/131/131 132/132/132
v -0.0602 0.0000 -0.3236
vt 0.5000 0.8333
vn 0.6503 -0.5206 -0.5532
v 0.3343 0.0758 0.0688
vt 0.5000 0.8333
vn 0.6503 -0.5206 -0.5532
v 0.2607 0.0000 0.0537
vt 0.5000 0.8333
vn 0.6503 -0.5206 -0.5532
f 133/133/133 134/134/134 135/135/135
v -0.3004 0.0758 -0.3374
vt 0.5000 0.8333
vn -0.8681 -0.1826 0.4615
v -0.3664 0.1443 -0.4616
vt 0.5000 0.8333
vn -0.8804 0.0758 0.4680
v -0.3664 0.0758 -0.4616
vt 0.5000 0.8333
vn -0.8803 -0.0782 0.4680
f 136/136/136 137/137/137 138/138/138
v -0.3664 0.1443 -0.4616
vt 0.5000 0.8333
vn -0.8804 0.0758 0.4680
v -0.3004 0.0758 -0.3374
vt 0.5000 0.8333
vn -0.8681 -0.1826 0.4615
v -0.3004 0.1443 -0.3374
vt 0.5000 0.8333
vn -0.8703 0.1688 0.4627
f 139/139/139 140/140/140 141/141/141
v -0.2858 0.0000 -0.3601
vt 0.5000 0.8333
vn -0.8433 -0.2963 0.4483
v -0.3004 0.0758 -0.3374
vt 0.5000 0.8333
vn -0.8681 -0.1826 0.4615
v -0.3664 0.0758 -0.4616
vt 0.5000 0.8333
vn -0.8803 -0.0782 0.4680
f 142/142/142 143/143/143 144/144/144
v -0.3004 0.0758 -0.3374
vt 0.5000 0.8333
vn -0.8681 -0.1826 0.4615
v -0.2858 0.0000 -0.3601
vt 0.5000 0.8333
vn -0.8433 -0.2963 0.4483
v -0.2343 0.0000 -0.2631
vt 0.5000 0.8333
vn -0.8433 -0.2963 0.4483
f 145/145/145 146/146/146 147/147/147
v -0.2221 0.1443 -0.5077
vt 0.5000 0.8333
vn 0.5399 0.0000 -0.8418
v -0.0772 0.0758 -0.4148
vt 0.5000 0.8333
vn 0.5399 0.0000 -0.8418
v -0.2221 0.0758 -0.5077
vt 0.5000 0.8333
vn 0.5399 0.0000 -0.8418
f 148/148/148 149/149/149 150/150/150
v -0.0772 0.0758 -0.4148
vt 0.5000 0.8333
vn 0.5399 0.0000 -0.8418
v -0.2221 0.1443 -0.5077
vt 0.5000 0.8333
vn 0.5399 0.0000 -0.8418
v -0.0772 0.1443 -0.4148
vt 0.5000 0.8333
vn 0.5399 0.0000 -0.8418
f 151/151/151 152/152/152 153/153/153
v -0.3004 0.1443 -0.0311
vt 0.5000 0.8333
vn -0.7784 0.6278 0.0000
v -0.2072 0.2598 -0.2328
vt 0.5000 0.8333
vn -0.7784 0.6278 0.0000
v -0.3004 0.1443 -0.3374
vt 0.5000 0.8333
vn -0.7784 0.6278 0.0000
f 154/154/154 155/155/155 156/156/156
v -0.2072 0.2598 -0.2328
vt 0.5000 0.8333
vn -0.7784 0.6278 0.0000
v -0.3004 0.1443 -0.0311
vt 0.5000 0.8333
vn -0.7784 0.6278 0.0000
v -0.2072 0.2598 -0.0215
vt 0.5000 0.8333
vn -0.7784 0.6278 0.0000
f 157/157/157 158/158/158 159/159/159
v -0.3925 0.1443 0.1767
vt 0.5000 0.8333
vn -0.7240 0.6107 -0.3208
v -0.2072 0.2598 -0.0215
vt 0.5000 0.8333
vn -0.7240 0.6107 -0.3208
v -0.3004 0.1443 -0.0311
vt 0.5000 0.8333
vn -0.7240 0.6107 -0.3208
f 160/160/160 161/161/161 162/162/162
v -0.2072 0.2598 -0.0215
vt 0.5000 0.8333
vn -0.7240 0.6107 -0.3208
v -0.3925 0.1443 0.1767
vt 0.5000 0.8333
vn -0.7240 0.6107 -0.3208
v -0.2708 0.2598 0.1219
vt 0.5000 0.8333
vn -0.7240 0.6107 -0.3208
f 163/163/163 164/164/164 165/165/165
v -0.3664 0.1443 -0.4616
vt 0.5000 0.8333
vn -0.3044 0.0000 -0.9526
v -0.2221 0.0758 -0.5077
vt 0.5000 0.8333
vn -0.3044 0.0000 -0.9526
v -0.3664 0.0758 -0.4616
vt 0.5000 0.8333
vn -0.3044 0.0000 -0.9526
f 166/166/166 167/167/167 168/168/168
v -0.2221 0.0758 -0.5077
vt 0.5000 0.8333
vn -0.3044 0.0000 -0.9526
v -0.3664 0.1443 -0.4616
vt 0.5000 0.8333
vn -0.3044 0.0000 -0.9526
v -0.2221 0.1443 -0.5077
vt 0.5000 0.8333
vn -0.3044 0.0000 -0.9526
f 169/169/169 170/170/170 171/171/171
v -0.2094 0.0758 0.4493
vt 0.5000 0.8333
vn -0.8302 0.0000 0.5575
v -0.3925 0.1443 0.1767
vt 0.5000 0.8333
vn -0.8302 0.0000 0.5575
v -0.3925 0.0758 0.1767
vt 0.5000 0.8333
vn -0.8302 0.0000 0.5575
f 172/172/172 173/173/173 174/174/174
v -0.3925 0.1443 0.1767
vt 0.5000 0.8333
vn -0.8302 0.0000 0.5575
v -0.2094 0.0758 0.4493
vt 0.5000 0.8333
vn -0.8302 0.0000 0.5575
v -0.2094 0.1443 0.4493
vt 0.5000 0.8333
vn -0.8302 0.0000 0.5575
f 175/175/175 176/176/176 177/177/177
v -0.2343 0.0000 -0.2631
vt 0.5000 0.8333
vn -0.7537 -0.6573 0.0000
v -0.3004 0.0758 -0.0311
vt 0.5000 0.8333
vn -0.7537 -0.6573 0.0000
v -0.3004 0.0758 -0.3374
vt 0.5000 0.8333
vn -0.7537 -0.6573 0.0000
f 178/178/178 179/179/179 180/180/180
v -0.3004 0.0758 -0.0311
vt 0.5000 0.8333
vn -0.7537 -0.6573 0.0000
v -0.2343 0.0000 -0.2631
vt 0.5000 0.8333
vn -0.7537 -0.6573 0.0000
v -0.2343 0.0000 -0.0243
vt 0.5000 0.8333
vn -0.7537 -0.6573 0.0000
f 181/181/181 182/182/182 183/183/183
v 0.2159 0.1443 0.5077
vt 0.5000 0.8333
vn 0.7788 0.0000 0.6273
v 0.3925 0.0758 0.2886
vt 0.5000 0.8333
vn 0.7788 0.0000 0.6273
v 0.3925 0.1443 0.2886
vt 0.5000 0.8333
vn 0.7788 0.0000 0.6273
f 184/184/184 185/185/185 186/186/186
v 0.3925 0.0758 0.2886
vt 0.5000 0.8333
vn 0.7788 0.0000 0.6273
v 0.2159 0.1443 0.5077
vt 0.5000 0.8333
vn 0.7788 0.0000 0.6273
v 0.2159 0.0758 0.5077
vt 0.5000 0.8333
vn 0.7788 0.0000 0.6273
f 187/187/187 188/188/188 189/189/189
v -0.3004 0.0758 -0.0311
vt 0.5000 0.8333
vn -1.0000 0.0000 0.0000
v -0.3004 0.1443 -0.3374
vt 0.5000 0.8333
vn -1.0000 0.0000 0.0000
v -0.3004 0.0758 -0.3374
vt 0.5000 0.8333
vn -1.0000 0.0000 0.0000
f 190/190/190 191/191/191 192/192/192
v -0.3004 0.1443 -0.3374
vt 0.5000 0.8333
vn -1.0000 0.0000 0.0000
v -0.3004 0.0758 -0.0311
vt 0.5000 0.8333
vn -1.0000 0.0000 0.0000
v -0.3004 0.1443 -0.0311
vt 0.5000 0.8333
vn -1.0000 0.0000 0.0000
f 193/193/193 194/194/194 195/195/195
v 0.2708 0.2598 0.1991
vt 0.5000 0.8333
vn 0.7474 0.6342 -0.1980
v 0.3343 0.1443 0.0688
vt 0.5000 0.8333
vn 0.7474 0.6342 -0.1980
v 0.2306 0.2598 0.0475
vt 0.5000 0.8333
vn 0.7474 0.6342 -0.1980
f 196/196/196 197/197/197 198/198/198
v 0.3343 0.1443 0.0688
vt 0.5000 0.8333
vn 0.7474 0.6342 -0.1980
v 0.2708 0.2598 0.1991
vt 0.5000 0.8333
vn 0.7474 0.6342 -0.1980
v 0.3925 0.1443 0.2886
vt 0.5000 0.8333
vn 0.7474 0.6342 -0.1980
f 199/199/199 200/200/200 201/201/201
v -0.1532 0.2598 -0.3503
vt 0.5000 0.8333
vn 0.4163 0.6367 -0.6491
v -0.0772 0.1443 -0.4148
vt 0.5000 0.8333
vn 0.4163 0.6367 -0.6491
v -0.2221 0.1443 -0.5077
vt 0.5000 0.8333
vn 0.4163 0.6367 -0.6491
f 202/202/202 203/203/203 204/204/204
v -0.0772 0.1443 -0.4148
vt 0.5000 0.8333
vn 0.4163 0.6367 -0.6491
v -0.1532 0.2598 -0.3503
vt 0.5000 0.8333
vn 0.4163 0.6367 -0.6491
v -0.0533 0.2598 -0.2862
vt 0.5000 0.8333
vn 0.4163 0.6367 -0.6491
f 205/205/205 206/206/206 207/207/207
v 0.2159 0.0758 0.5077
vt 0.5000 0.8333
vn 0.4499 -0.8163 0.3624
v 0.3061 0.0000 0.2251
vt 0.5000 0.8333
vn 0.4499 -0.8163 0.3624
v 0.3925 0.0758 0.2886
vt 0.5000 0.8333
vn 0.4499 -0.8163 0.3624
f 208/208/208 209/209/209 210/210/210
v 0.3061 0.0000 0.2251
vt 0.5000 0.8333
vn 0.4499 -0.8163 0.3624
v 0.2159 0.0758 0.5077
vt 0.5000 0.8333
vn 0.4499 -0.8163 0.3624
v 0.1684 0.0000 0.3960
vt 0.5000 0.8333
vn 0.4499 -0.8163 0.3624
f 211/211/211 212/212/212 213/213/213
v -0.2528 0.2598 -0.3185
vt 0.8333 0.8333
vn 0.0000 1.0000 0.0000
v -0.2072 0.2598 -0.2328
vt 0.8333 0.8333
vn 0.0000 1.0000 0.0000
v -0.1532 0.2598 -0.3503
vt 0.8333 0.8333
vn 0.0000 1.0000 0.0000
f 214/214/214 215/215/215 216/216/216
v -0.2072 0.2598 -0.0215
vt 0.8333 0.8333
vn 0.0000 1.0000 0.0000
v -0.1532 0.2598 -0.3503
vt 0.8333 0.8333
vn 0.0000 1.0000 0.0000
v -0.2072 0.2598 -0.2328
vt 0.8333 0.8333
vn 0.0000 1.0000 0.0000
f 217/217/217 218/218/218 219/219/219
v -0.1445 0.2598 0.3100
vt 0.8333 0.8333
vn 0.0000 1.0000 0.0000
v -0.1532 0.2598 -0.3503
vt 0.8333 0.8333
vn 0.0000 1.0000 0.0000
v -0.2072 0.2598 -0.0215
vt 0.8333 0.8333
vn 0.0000 1.0000 0.0000
f 220/220/220 221/221/221 222/222/222
v -0.1445 0.2598 0.3100
vt 0.8333 0.8333
vn 0.0000 1.0000 0.0000
v -0.0533 0.2598 -0.2862
vt 0.8333 0.8333
vn 0.0000 1.0000 0.0000
v -0.1532 0.2598 -0.3503
vt 0.8333 0.8333
vn 0.0000 1.0000 0.0000
f 223/223/223 224/224/224 225/225/225
v 0.0022 0.2598 0.3302
vt 0.8333 0.8333
vn 0.0000 1.0000 0.0000
v -0.0533 0.2598 -0.2862
vt 0.8333 0.8333
vn 0.0000 1.0000 0.0000
v -0.1445 0.2598 0.3100
vt 0.8333 0.8333
vn 0.0000 1.0000 0.0000
f 226/226/226 227/227/227 228/228/228
v 0.2099 0.2598 0.2747
vt 0.8333 0.8333
vn 0.0000 1.0000 0.0000
v -0.0533 0.2598 -0.2862
vt 0.8333 0.8333
vn 0.0000 1.0000 0.0000
v 0.0022 0.2598 0.3302
vt 0.8333 0.8333
vn 0.0000 1.0000 0.0000
f 229/229/229 230/230/230 231/231/231
v 0.2099 0.2598 0.2747
vt 0.8333 0.8333
vn 0.0000 1.0000 0.0000
v 0.2306 0.2598 0.0475
vt 0.8333 0.8333
vn 0.0000 1.0000 0.0000
v -0.0533 0.2598 -0.2862
vt 0.8333 0.8333
vn 0.0000 1.0000 0.0000
f 232/232/232 233/233/233 234/234/234
v 0.2306 0.2598 0.0475
vt 0.8333 0.8333
vn 0.0000 1.0000 0.0000
v 0.2099 0.2598 0.2747
vt 0.8333 0.8333
vn 0.0000 1.0000 0.0000
v 0.2708 0.2598 0.1991
vt 0.8333 0.8333
vn 0.0000 1.0000 0.0000
f 235/235/235 236/236/236 237/237/237
v -0.1445 0.2598 0.3100
vt 0.8333 0.8333
vn 0.0000 1.0000 0.0000
v -0.2072 0.2598 -0.0215
vt 0.8333 0.8333
vn 0.0000 1.0000 0.0000
v -0.2708 0.2598 0.1219
vt 0.8333 0.8333
vn 0.0000 1.0000 0.0000
f 238/238/238 239/239/239 240/240/240
