# The Giants of Holst prop, from Kenney CC0 kits (www.kenney.nl)
v -0.7106 0.1377 0.3574
vt 0.2188 0.3257
vn -0.5503 0.7713 0.3196
v -0.4612 0.2755 0.4545
vt 0.2188 0.3419
vn -0.5503 0.7713 0.3196
v -0.5887 0.2755 0.2348
vt 0.2188 0.3419
vn -0.5503 0.7713 0.3196
f 1/1/1 2/2/2 3/3/3
v -0.1407 0.2755 0.4256
vt 0.2188 0.3419
vn 0.5269 0.4431 0.7253
v -0.3208 0.0000 0.7247
vt 0.2188 0.3096
vn 0.5269 0.4431 0.7253
v -0.0569 0.0000 0.5329
vt 0.2188 0.3096
vn 0.5269 0.4431 0.7253
f 4/4/4 5/5/5 6/6/6
v -0.3208 0.0000 0.7247
vt 0.2188 0.3096
vn 0.5269 0.4431 0.7253
v -0.1407 0.2755 0.4256
vt 0.2188 0.3419
vn 0.5269 0.4431 0.7253
v -0.3208 0.2755 0.5564
vt 0.2188 0.3419
vn 0.5269 0.4431 0.7253
f 7/7/7 8/8/8 9/9/9
v -0.3208 0.2755 0.5564
vt 0.2188 0.3419
vn -0.5269 0.4431 0.7253
v -0.7991 0.0000 0.3773
vt 0.2188 0.3096
vn -0.5269 0.4431 0.7253
v -0.3208 0.0000 0.7247
vt 0.2188 0.3096
vn -0.5269 0.4431 0.7253
f 10/10/10 11/11/11 12/12/12
v -0.7991 0.0000 0.3773
vt 0.2188 0.3096
vn -0.5269 0.4431 0.7253
v -0.3208 0.2755 0.5564
vt 0.2188 0.3419
vn -0.5269 0.4431 0.7253
v -0.7106 0.1377 0.3574
vt 0.2188 0.3257
vn -0.5269 0.4431 0.7253
f 13/13/13 14/14/14 15/15/15
v -0.7106 0.1377 0.3574
vt 0.2188 0.3257
vn -0.5269 0.4431 0.7253
v -0.3208 0.2755 0.5564
vt 0.2188 0.3419
vn -0.5269 0.4431 0.7253
v -0.4612 0.2755 0.4545
vt 0.2188 0.3419
vn -0.5269 0.4431 0.7253
f 16/16/16 17/17/17 18/18/18
v -0.7991 0.0000 0.3773
vt 0.2188 0.3096
vn -0.8276 0.4928 -0.2689
v -0.5070 0.2755 -0.0166
vt 0.2188 0.3419
vn -0.8276 0.4928 -0.2689
v -0.6164 0.0000 -0.1849
vt 0.2188 0.3096
vn -0.8276 0.4928 -0.2689
f 19/19/19 20/20/20 21/21/21
v -0.5070 0.2755 -0.0166
vt 0.2188 0.3419
vn -0.8276 0.4928 -0.2689
v -0.7991 0.0000 0.3773
vt 0.2188 0.3096
vn -0.8276 0.4928 -0.2689
v -0.5887 0.2755 0.2348
vt 0.2188 0.3419
vn -0.8276 0.4928 -0.2689
f 22/22/22 23/23/23 24/24/24
v -0.5887 0.2755 0.2348
vt 0.2188 0.3419
vn -0.8276 0.4928 -0.2689
v -0.7991 0.0000 0.3773
vt 0.2188 0.3096
vn -0.8276 0.4928 -0.2689
v -0.7106 0.1377 0.3574
vt 0.2188 0.3257
vn -0.8276 0.4928 -0.2689
f 25/25/25 26/26/26 27/27/27
v -0.5070 0.2755 -0.0166
vt 0.2188 0.3419
vn 0.0000 1.0000 0.0000
v -0.3897 0.2755 0.0487
vt 0.2188 0.3419
vn 0.0000 1.0000 0.0000
v -0.3684 0.2755 -0.0166
vt 0.2188 0.3419
vn 0.0000 1.0000 0.0000
f 28/28/28 29/29/29 30/30/30
v -0.3897 0.2755 0.0487
vt 0.2188 0.3419
vn 0.0000 1.0000 0.0000
v -0.5070 0.2755 -0.0166
vt 0.2188 0.3419
vn 0.0000 1.0000 0.0000
v -0.4612 0.2755 0.4545
vt 0.2188 0.3419
vn 0.0000 1.0000 0.0000
f 31/31/31 32/32/32 33/33/33
v -0.4612 0.2755 0.4545
vt 0.2188 0.3419
vn 0.0000 1.0000 0.0000
v -0.5070 0.2755 -0.0166
vt 0.2188 0.3419
vn 0.0000 1.0000 0.0000
v -0.5887 0.2755 0.2348
vt 0.2188 0.3419
vn 0.0000 1.0000 0.0000
f 34/34/34 35/35/35 36/36/36
v -0.3208 0.2755 0.5564
vt 0.2188 0.3419
vn 0.0000 1.0000 0.0000
v -0.3897 0.2755 0.0487
vt 0.2188 0.3419
vn 0.0000 1.0000 0.0000
v -0.4612 0.2755 0.4545
vt 0.2188 0.3419
vn 0.0000 1.0000 0.0000
f 37/37/37 38/38/38 39/39/39
v -0.2061 0.2755 0.3781
vt 0.2188 0.3419
vn 0.0000 1.0000 0.0000
v -0.3897 0.2755 0.0487
vt 0.2188 0.3419
vn 0.0000 1.0000 0.0000
v -0.3208 0.2755 0.5564
vt 0.2188 0.3419
vn 0.0000 1.0000 0.0000
f 40/40/40 41/41/41 42/42/42
v -0.3208 0.2755 0.5564
vt 0.2188 0.3419
vn 0.0000 1.0000 0.0000
v -0.1407 0.2755 0.4256
vt 0.2188 0.3419
vn 0.0000 1.0000 0.0000
v -0.2061 0.2755 0.3781
vt 0.2188 0.3419
vn 0.0000 1.0000 0.0000
f 43/43/43 44/44/44 45/45/45
v -0.3897 0.2755 0.0487
vt 0.2188 0.3419
vn 0.0000 1.0000 0.0000
v -0.2061 0.2755 0.3781
vt 0.2188 0.3419
vn 0.0000 1.0000 0.0000
v -0.1546 0.2755 0.2195
vt 0.2188 0.3419
vn 0.0000 1.0000 0.0000
f 46/46/46 47/47/47 48/48/48
v -0.6164 0.0000 -0.1849
vt 0.2188 0.3096
vn 0.0000 0.5213 -0.8534
v -0.3537 0.0921 -0.1286
vt 0.2188 0.3204
vn 0.0000 0.5213 -0.8534
v -0.4622 0.0000 -0.1849
vt 0.2188 0.3096
vn 0.0000 0.5213 -0.8534
f 49/49/49 50/50/50 51/51/51
v -0.3537 0.0921 -0.1286
vt 0.2188 0.3204
vn 0.0000 0.5213 -0.8534
v -0.6164 0.0000 -0.1849
vt 0.2188 0.3096
vn 0.0000 0.5213 -0.8534
v -0.5070 0.2755 -0.0166
vt 0.2188 0.3419
vn 0.0000 0.5213 -0.8534
f 52/52/52 53/53/53 54/54/54
v -0.3537 0.0921 -0.1286
vt 0.2188 0.3204
vn 0.0000 0.5213 -0.8534
v -0.5070 0.2755 -0.0166
vt 0.2188 0.3419
vn 0.0000 0.5213 -0.8534
v -0.3684 0.2755 -0.0166
vt 0.2188 0.3419
vn 0.0000 0.5213 -0.8534
f 55/55/55 56/56/56 57/57/57
v 0.2523 0.7619 0.0884
vt 0.2188 0.4188
vn 0.0000 0.1663 -0.9861
v 0.2696 0.6036 0.0617
vt 0.2188 0.3897
vn 0.0000 0.1663 -0.9861
v 0.2064 0.7619 0.0884
vt 0.2188 0.4188
vn 0.0000 0.1663 -0.9861
f 58/58/58 59/59/59 60/60/60
v 0.2785 0.7619 0.4035
vt 0.2188 0.4188
vn 0.9221 0.2449 0.2996
v 0.4508 0.1377 0.3836
vt 0.2188 0.3041
vn 0.9221 0.2449 0.2996
v 0.3166 0.7619 0.2863
vt 0.2188 0.4188
vn 0.9221 0.2449 0.2996
f 61/61/61 62/62/62 63/63/63
v -0.1546 0.2755 0.2195
vt 0.2188 0.3294
vn -0.9396 0.1544 -0.3053
v -0.1199 0.7619 0.3587
vt 0.2188 0.4188
vn -0.9396 0.1544 -0.3053
v -0.0744 0.7619 0.2187
vt 0.2188 0.4188
vn -0.9396 0.1544 -0.3053
f 64/64/64 65/65/65 66/66/66
v -0.1199 0.7619 0.3587
vt 0.2188 0.4188
vn -0.9396 0.1544 -0.3053
v -0.1546 0.2755 0.2195
vt 0.2188 0.3294
vn -0.9396 0.1544 -0.3053
v -0.2061 0.2755 0.3781
vt 0.2188 0.3294
vn -0.9396 0.1544 -0.3053
f 67/67/67 68/68/68 69/69/69
v 0.2523 0.7619 0.0884
vt 0.2188 0.4188
vn 0.0000 1.0000 0.0000
v 0.2785 0.7619 0.4035
vt 0.2188 0.4188
vn 0.0000 1.0000 0.0000
v 0.3166 0.7619 0.2863
vt 0.2188 0.4188
vn 0.0000 1.0000 0.0000
f 70/70/70 71/71/71 72/72/72
v 0.2785 0.7619 0.4035
vt 0.2188 0.4188
vn 0.0000 1.0000 0.0000
v 0.2523 0.7619 0.0884
vt 0.2188 0.4188
vn 0.0000 1.0000 0.0000
v 0.1101 0.7619 0.5258
vt 0.2188 0.4188
vn 0.0000 1.0000 0.0000
f 73/73/73 74/74/74 75/75/75
v 0.1101 0.7619 0.5258
vt 0.2188 0.4188
vn 0.0000 1.0000 0.0000
v 0.2523 0.7619 0.0884
vt 0.2188 0.4188
vn 0.0000 1.0000 0.0000
v 0.2064 0.7619 0.0884
vt 0.2188 0.4188
vn 0.0000 1.0000 0.0000
f 76/76/76 77/77/77 78/78/78
v 0.1101 0.7619 0.5258
vt 0.2188 0.4188
vn 0.0000 1.0000 0.0000
v 0.2064 0.7619 0.0884
vt 0.2188 0.4188
vn 0.0000 1.0000 0.0000
v -0.0237 0.7619 0.2555
vt 0.2188 0.4188
vn 0.0000 1.0000 0.0000
f 79/79/79 80/80/80 81/81/81
v 0.1101 0.7619 0.5258
vt 0.2188 0.4188
vn 0.0000 1.0000 0.0000
v -0.0237 0.7619 0.2555
vt 0.2188 0.4188
vn 0.0000 1.0000 0.0000
v -0.1199 0.7619 0.3587
vt 0.2188 0.4188
vn 0.0000 1.0000 0.0000
f 82/82/82 83/83/83 84/84/84
v -0.1199 0.7619 0.3587
vt 0.2188 0.4188
vn 0.0000 1.0000 0.0000
v -0.0237 0.7619 0.2555
vt 0.2188 0.4188
vn 0.0000 1.0000 0.0000
v -0.0744 0.7619 0.2187
vt 0.2188 0.4188
vn 0.0000 1.0000 0.0000
f 85/85/85 86/86/86 87/87/87
v 0.1101 0.7619 0.5258
vt 0.2188 0.4188
vn -0.5824 0.1352 0.8016
v -0.0569 0.0000 0.5329
vt 0.2188 0.2788
vn -0.5824 0.1352 0.8016
v 0.1101 0.0000 0.6543
vt 0.2188 0.2788
vn -0.5824 0.1352 0.8016
f 88/88/88 89/89/89 90/90/90
v -0.0569 0.0000 0.5329
vt 0.2188 0.2788
vn -0.5824 0.1352 0.8016
v 0.1101 0.7619 0.5258
vt 0.2188 0.4188
vn -0.5824 0.1352 0.8016
v -0.1407 0.2755 0.4256
vt 0.2188 0.3294
vn -0.5824 0.1352 0.8016
f 91/91/91 92/92/92 93/93/93
v -0.1199 0.7619 0.3587
vt 0.2188 0.4188
vn -0.5824 0.1352 0.8016
v -0.1407 0.2755 0.4256
vt 0.2188 0.3294
vn -0.5824 0.1352 0.8016
v 0.1101 0.7619 0.5258
vt 0.2188 0.4188
vn -0.5824 0.1352 0.8016
f 94/94/94 95/95/95 96/96/96
v -0.1407 0.2755 0.4256
vt 0.2188 0.3294
vn -0.5824 0.1352 0.8016
v -0.1199 0.7619 0.3587
vt 0.2188 0.4188
vn -0.5824 0.1352 0.8016
v -0.2061 0.2755 0.3781
vt 0.2188 0.3294
vn -0.5824 0.1352 0.8016
f 97/97/97 98/98/98 99/99/99
v 0.4508 0.1377 0.3836
vt 0.2188 0.3041
vn 0.5824 0.1352 0.8016
v 0.1101 0.0000 0.6543
vt 0.2188 0.2788
vn 0.5824 0.1352 0.8016
v 0.4752 0.0000 0.3891
vt 0.2188 0.2788
vn 0.5824 0.1352 0.8016
f 100/100/100 101/101/101 102/102/102
v 0.1101 0.0000 0.6543
vt 0.2188 0.2788
vn 0.5824 0.1352 0.8016
v 0.4508 0.1377 0.3836
vt 0.2188 0.3041
vn 0.5824 0.1352 0.8016
v 0.1101 0.7619 0.5258
vt 0.2188 0.4188
vn 0.5824 0.1352 0.8016
f 103/103/103 104/104/104 105/105/105
v 0.1101 0.7619 0.5258
vt 0.2188 0.4188
vn 0.5824 0.1352 0.8016
v 0.4508 0.1377 0.3836
vt 0.2188 0.3041
vn 0.5824 0.1352 0.8016
v 0.2785 0.7619 0.4035
vt 0.2188 0.4188
vn 0.5824 0.1352 0.8016
f 106/106/106 107/107/107 108/108/108
v 0.2523 0.7619 0.0884
vt 0.2188 0.4188
vn 0.9396 0.1544 -0.3053
v 0.2975 0.4342 0.0620
vt 0.2188 0.3585
vn 0.9396 0.1544 -0.3053
v 0.2696 0.6036 0.0617
vt 0.2188 0.3897
vn 0.9396 0.1544 -0.3053
f 109/109/109 110/110/110 111/111/111
v 0.2975 0.4342 0.0620
vt 0.2188 0.3585
vn 0.9396 0.1544 -0.3053
v 0.2523 0.7619 0.0884
vt 0.2188 0.4188
vn 0.9396 0.1544 -0.3053
v 0.3274 0.4342 0.1540
vt 0.2188 0.3585
vn 0.9396 0.1544 -0.3053
f 112/112/112 113/113/113 114/114/114
v 0.3274 0.4342 0.1540
vt 0.2188 0.3585
vn 0.9396 0.1544 -0.3053
v 0.2523 0.7619 0.0884
vt 0.2188 0.4188
vn 0.9396 0.1544 -0.3053
v 0.3166 0.7619 0.2863
vt 0.2188 0.4188
vn 0.9396 0.1544 -0.3053
f 115/115/115 116/116/116 117/117/117
v 0.3274 0.4342 0.1540
vt 0.2188 0.3585
vn 0.9396 0.1544 -0.3053
v 0.3166 0.7619 0.2863
vt 0.2188 0.4188
vn 0.9396 0.1544 -0.3053
v 0.4343 0.0000 0.2632
vt 0.2188 0.2788
vn 0.9396 0.1544 -0.3053
f 118/118/118 119/119/119 120/120/120
v 0.4343 0.0000 0.2632
vt 0.2188 0.2788
vn 0.9396 0.1544 -0.3053
v 0.3166 0.7619 0.2863
vt 0.2188 0.4188
vn 0.9396 0.1544 -0.3053
v 0.4752 0.0000 0.3891
vt 0.2188 0.2788
vn 0.9396 0.1544 -0.3053
f 121/121/121 122/122/122 123/123/123
v 0.4752 0.0000 0.3891
vt 0.2188 0.2788
vn 0.9396 0.1544 -0.3053
v 0.3166 0.7619 0.2863
vt 0.2188 0.4188
vn 0.9396 0.1544 -0.3053
v 0.4508 0.1377 0.3836
vt 0.2188 0.3041
vn 0.9396 0.1544 -0.3053
f 124/124/124 125/125/125 126/126/126
v 0.5369 0.4342 -0.2485
vt 0.2188 0.4403
vn 0.6401 0.5827 -0.5008
v 0.5578 0.1377 -0.5666
vt 0.2188 0.3925
vn 0.6401 0.5827 -0.5008
v 0.3877 0.4342 -0.4391
vt 0.2188 0.4403
vn 0.6401 0.5827 -0.5008
f 127/127/127 128/128/128 129/129/129
v -0.0094 0.1803 -0.5483
vt 0.2188 0.3993
vn 0.0000 0.3952 -0.9186
v 0.5963 0.0000 -0.6259
vt 0.2188 0.3702
vn 0.0000 0.3952 -0.9186
v 0.0083 0.0000 -0.6259
vt 0.2188 0.3702
vn 0.0000 0.3952 -0.9186
f 130/130/130 131/131/131 132/132/132
v 0.5963 0.0000 -0.6259
vt 0.2188 0.3702
vn 0.0000 0.3952 -0.9186
v -0.0094 0.1803 -0.5483
vt 0.2188 0.3993
vn 0.0000 0.3952 -0.9186
v 0.5578 0.1377 -0.5666
vt 0.2188 0.3925
vn 0.0000 0.3952 -0.9186
f 133/133/133 134/134/134 135/135/135
v 0.5578 0.1377 -0.5666
vt 0.2188 0.3925
vn 0.0000 0.3952 -0.9186
v -0.0094 0.1803 -0.5483
vt 0.2188 0.3993
vn 0.0000 0.3952 -0.9186
v 0.3877 0.4342 -0.4391
vt 0.2188 0.4403
vn 0.0000 0.3952 -0.9186
f 136/136/136 137/137/137 138/138/138
v 0.3877 0.4342 -0.4391
vt 0.2188 0.4403
vn 0.0000 0.3952 -0.9186
v -0.0094 0.1803 -0.5483
vt 0.2188 0.3993
vn 0.0000 0.3952 -0.9186
v 0.0616 0.4342 -0.4391
vt 0.2188 0.4403
vn 0.0000 0.3952 -0.9186
f 139/139/139 140/140/140 141/141/141
v 0.5369 0.4342 -0.2485
vt 0.2188 0.4403
vn 0.0000 1.0000 0.0000
v 0.3274 0.4342 0.1540
vt 0.2188 0.4403
vn 0.0000 1.0000 0.0000
v 0.6027 0.4342 -0.0460
vt 0.2188 0.4403
vn 0.0000 1.0000 0.0000
f 142/142/142 143/143/143 144/144/144
v 0.3274 0.4342 0.1540
vt 0.2188 0.4403
vn 0.0000 1.0000 0.0000
v 0.5369 0.4342 -0.2485
vt 0.2188 0.4403
vn 0.0000 1.0000 0.0000
v 0.3877 0.4342 -0.4391
vt 0.2188 0.4403
vn 0.0000 1.0000 0.0000
f 145/145/145 146/146/146 147/147/147
v 0.3274 0.4342 0.1540
vt 0.2188 0.4403
vn 0.0000 1.0000 0.0000
v 0.3877 0.4342 -0.4391
vt 0.2188 0.4403
vn 0.0000 1.0000 0.0000
v 0.3221 0.4342 0.0441
vt 0.2188 0.4403
vn 0.0000 1.0000 0.0000
f 148/148/148 149/149/149 150/150/150
v 0.2975 0.4342 0.0620
vt 0.2188 0.4403
vn 0.0000 1.0000 0.0000
v 0.3274 0.4342 0.1540
vt 0.2188 0.4403
vn 0.0000 1.0000 0.0000
v 0.3221 0.4342 0.0441
vt 0.2188 0.4403
vn 0.0000 1.0000 0.0000
f 151/151/151 152/152/152 153/153/153
v 0.3221 0.4342 0.0441
vt 0.2188 0.4403
vn 0.0000 1.0000 0.0000
v 0.3877 0.4342 -0.4391
vt 0.2188 0.4403
vn 0.0000 1.0000 0.0000
v 0.1900 0.4342 -0.3623
vt 0.2188 0.4403
vn 0.0000 1.0000 0.0000
f 154/154/154 155/155/155 156/156/156
v 0.1900 0.4342 -0.3623
vt 0.2188 0.4403
vn 0.0000 1.0000 0.0000
v 0.3877 0.4342 -0.4391
vt 0.2188 0.4403
vn 0.0000 1.0000 0.0000
v 0.0616 0.4342 -0.4391
vt 0.2188 0.4403
vn 0.0000 1.0000 0.0000
f 157/157/157 158/158/158 159/159/159
v 0.1900 0.4342 -0.3623
vt 0.2188 0.4403
vn 0.0000 1.0000 0.0000
v 0.0616 0.4342 -0.4391
vt 0.2188 0.4403
vn 0.0000 1.0000 0.0000
v 0.0366 0.4342 -0.3623
vt 0.2188 0.4403
vn 0.0000 1.0000 0.0000
f 160/160/160 161/161/161 162/162/162
v 0.0064 0.3546 -0.3720
vt 0.2188 0.4275
vn -0.8834 0.3705 -0.2870
v 0.0616 0.4342 -0.4391
vt 0.2188 0.4403
vn -0.8834 0.3705 -0.2870
v -0.0094 0.1803 -0.5483
vt 0.2188 0.3993
vn -0.8834 0.3705 -0.2870
f 163/163/163 164/164/164 165/165/165
v 0.0616 0.4342 -0.4391
vt 0.2188 0.4403
vn -0.8834 0.3705 -0.2870
v 0.0064 0.3546 -0.3720
vt 0.2188 0.4275
vn -0.8834 0.3705 -0.2870
v 0.0366 0.4342 -0.3623
vt 0.2188 0.4403
vn -0.8834 0.3705 -0.2870
f 166/166/166 167/167/167 168/168/168
v 0.5578 0.1377 -0.5666
vt 0.2188 0.3925
vn 0.8834 0.3705 -0.2870
v 0.7991 0.0000 -0.0019
vt 0.2188 0.3702
vn 0.8834 0.3705 -0.2870
v 0.5963 0.0000 -0.6259
vt 0.2188 0.3702
vn 0.8834 0.3705 -0.2870
f 169/169/169 170/170/170 171/171/171
v 0.7991 0.0000 -0.0019
vt 0.2188 0.3702
vn 0.8834 0.3705 -0.2870
v 0.5578 0.1377 -0.5666
vt 0.2188 0.3925
vn 0.8834 0.3705 -0.2870
v 0.5369 0.4342 -0.2485
vt 0.2188 0.4403
vn 0.8834 0.3705 -0.2870
f 172/172/172 173/173/173 174/174/174
v 0.7991 0.0000 -0.0019
vt 0.2188 0.3702
vn 0.8834 0.3705 -0.2870
v 0.5369 0.4342 -0.2485
vt 0.2188 0.4403
vn 0.8834 0.3705 -0.2870
v 0.6027 0.4342 -0.0460
vt 0.2188 0.4403
vn 0.8834 0.3705 -0.2870
f 175/175/175 176/176/176 177/177/177
v 0.6027 0.4342 -0.0460
vt 0.2188 0.4403
vn 0.5551 0.3287 0.7641
v 0.4343 0.0000 0.2632
vt 0.2188 0.3702
vn 0.5551 0.3287 0.7641
v 0.7991 0.0000 -0.0019
vt 0.2188 0.3702
vn 0.5551 0.3287 0.7641
f 178/178/178 179/179/179 180/180/180
v 0.4343 0.0000 0.2632
vt 0.2188 0.3702
vn 0.5551 0.3287 0.7641
v 0.6027 0.4342 -0.0460
vt 0.2188 0.4403
vn 0.5551 0.3287 0.7641
v 0.3274 0.4342 0.1540
vt 0.2188 0.4403
vn 0.5551 0.3287 0.7641
f 181/181/181 182/182/182 183/183/183
v -0.2714 0.5257 -0.5962
vt 0.2188 0.3740
vn -0.5356 0.4120 -0.7372
v -0.4612 0.0872 -0.7034
vt 0.2188 0.3464
vn -0.5356 0.4120 -0.7372
v -0.4287 0.5257 -0.4820
vt 0.2188 0.3740
vn -0.5356 0.4120 -0.7372
f 184/184/184 185/185/185 186/186/186
v -0.4622 0.0000 -0.1849
vt 0.2188 0.3409
vn -0.5766 0.1939 0.7937
v -0.4794 0.5257 -0.3259
vt 0.2188 0.3740
vn -0.5766 0.1939 0.7937
v -0.6145 0.0000 -0.2956
vt 0.2188 0.3409
vn -0.5766 0.1939 0.7937
f 187/187/187 188/188/188 189/189/189
v -0.4794 0.5257 -0.3259
vt 0.2188 0.3740
vn -0.5766 0.1939 0.7937
v -0.4622 0.0000 -0.1849
vt 0.2188 0.3409
vn -0.5766 0.1939 0.7937
v -0.3537 0.0921 -0.1286
vt 0.2188 0.3467
vn -0.5766 0.1939 0.7937
f 190/190/190 191/191/191 192/192/192
v -0.4794 0.5257 -0.3259
vt 0.2188 0.3740
vn -0.5766 0.1939 0.7937
v -0.3537 0.0921 -0.1286
vt 0.2188 0.3467
vn -0.5766 0.1939 0.7937
v -0.2844 0.5257 -0.1842
vt 0.2188 0.3740
vn -0.5766 0.1939 0.7937
f 193/193/193 194/194/194 195/195/195
v -0.6145 0.0000 -0.2956
vt 0.2188 0.3409
vn -0.9276 0.2209 -0.3014
v -0.4612 0.0872 -0.7034
vt 0.2188 0.3464
vn -0.9276 0.2209 -0.3014
v -0.4750 0.0000 -0.7247
vt 0.2188 0.3409
vn -0.9276 0.2209 -0.3014
f 196/196/196 197/197/197 198/198/198
v -0.4612 0.0872 -0.7034
vt 0.2188 0.3464
vn -0.9276 0.2209 -0.3014
v -0.6145 0.0000 -0.2956
vt 0.2188 0.3409
vn -0.9276 0.2209 -0.3014
v -0.4287 0.5257 -0.4820
vt 0.2188 0.3740
vn -0.9276 0.2209 -0.3014
f 199/199/199 200/200/200 201/201/201
v -0.4287 0.5257 -0.4820
vt 0.2188 0.3740
vn -0.9276 0.2209 -0.3014
v -0.6145 0.0000 -0.2956
vt 0.2188 0.3409
vn -0.9276 0.2209 -0.3014
v -0.4794 0.5257 -0.3259
vt 0.2188 0.3740
vn -0.9276 0.2209 -0.3014
f 202/202/202 203/203/203 204/204/204
v -0.1073 0.5257 -0.5962
vt 0.2188 0.3740
vn 0.9276 0.2209 -0.3014
v 0.0083 0.0000 -0.6259
vt 0.2188 0.3409
vn 0.9276 0.2209 -0.3014
v -0.0238 0.0000 -0.7247
vt 0.2188 0.3409
vn 0.9276 0.2209 -0.3014
f 205/205/205 206/206/206 207/207/207
v 0.0083 0.0000 -0.6259
vt 0.2188 0.3409
vn 0.9276 0.2209 -0.3014
v -0.1073 0.5257 -0.5962
vt 0.2188 0.3740
vn 0.9276 0.2209 -0.3014
v -0.0094 0.1803 -0.5483
vt 0.2188 0.3523
vn 0.9276 0.2209 -0.3014
f 208/208/208 209/209/209 210/210/210
v -0.0094 0.1803 -0.5483
vt 0.2188 0.3523
vn 0.9276 0.2209 -0.3014
v -0.1073 0.5257 -0.5962
vt 0.2188 0.3740
vn 0.9276 0.2209 -0.3014
v -0.0277 0.5257 -0.3512
vt 0.2188 0.3740
vn 0.9276 0.2209 -0.3014
f 211/211/211 212/212/212 213/213/213
v -0.0094 0.1803 -0.5483
vt 0.2188 0.3523
vn 0.9276 0.2209 -0.3014
v -0.0277 0.5257 -0.3512
vt 0.2188 0.3740
vn 0.9276 0.2209 -0.3014
v 0.0064 0.3546 -0.3720
vt 0.2188 0.3632
vn 0.9276 0.2209 -0.3014
f 214/214/214 215/215/215 216/216/216
v -0.1073 0.5257 -0.5962
vt 0.2188 0.3740
vn 0.0000 1.0000 0.0000
v -0.2301 0.5257 -0.3512
vt 0.2188 0.3740
vn 0.0000 1.0000 0.0000
v -0.0277 0.5257 -0.3512
vt 0.2188 0.3740
vn 0.0000 1.0000 0.0000
f 217/217/217 218/218/218 219/219/219
v -0.2301 0.5257 -0.3512
vt 0.2188 0.3740
vn 0.0000 1.0000 0.0000
v -0.1073 0.5257 -0.5962
vt 0.2188 0.3740
vn 0.0000 1.0000 0.0000
v -0.2714 0.5257 -0.5962
vt 0.2188 0.3740
vn 0.0000 1.0000 0.0000
f 220/220/220 221/221/221 222/222/222
v -0.2301 0.5257 -0.3512
vt 0.2188 0.3740
vn 0.0000 1.0000 0.0000
v -0.2714 0.5257 -0.5962
vt 0.2188 0.3740
vn 0.0000 1.0000 0.0000
v -0.2844 0.5257 -0.1842
vt 0.2188 0.3740
vn 0.0000 1.0000 0.0000
f 223/223/223 224/224/224 225/225/225
v -0.2844 0.5257 -0.1842
vt 0.2188 0.3740
vn 0.0000 1.0000 0.0000
v -0.2714 0.5257 -0.5962
vt 0.2188 0.3740
vn 0.0000 1.0000 0.0000
v -0.4287 0.5257 -0.4820
vt 0.2188 0.3740
vn 0.0000 1.0000 0.0000
f 226/226/226 227/227/227 228/228/228
v -0.2844 0.5257 -0.1842
vt 0.2188 0.3740
vn 0.0000 1.0000 0.0000
v -0.4287 0.5257 -0.4820
vt 0.2188 0.3740
vn 0.0000 1.0000 0.0000
v -0.4794 0.5257 -0.3259
vt 0.2188 0.3740
vn 0.0000 1.0000 0.0000
f 229/229/229 230/230/230 231/231/231
v -0.4612 0.0872 -0.7034
vt 0.2188 0.3464
vn 0.0000 0.2374 -0.9714
v -0.0238 0.0000 -0.7247
vt 0.2188 0.3409
vn 0.0000 0.2374 -0.9714
v -0.4750 0.0000 -0.7247
vt 0.2188 0.3409
vn 0.0000 0.2374 -0.9714
f 232/232/232 233/233/233 234/234/234
v -0.0238 0.0000 -0.7247
vt 0.2188 0.3409
vn 0.0000 0.2374 -0.9714
v -0.4612 0.0872 -0.7034
vt 0.2188 0.3464
vn 0.0000 0.2374 -0.9714
v -0.1073 0.5257 -0.5962
vt 0.2188 0.3740
vn 0.0000 0.2374 -0.9714
f 235/235/235 236/236/236 237/237/237
v -0.1073 0.5257 -0.5962
vt 0.2188 0.3740
vn 0.0000 0.2374 -0.9714
v -0.4612 0.0872 -0.7034
vt 0.2188 0.3464
vn 0.0000 0.2374 -0.9714
v -0.2714 0.5257 -0.5962
vt 0.2188 0.3740
vn 0.0000 0.2374 -0.9714
f 238/238/238 239/239/239 240/240/240
v -0.2153 1.1628 0.0676
vt 0.2188 0.4488
vn -0.9759 0.2181 0.0000
v -0.2153 1.1628 -0.1648
vt 0.2188 0.4488
vn -0.9697 0.1559 -0.1879
v -0.3577 0.5257 0.0415
vt 0.2188 0.4063
vn -0.9533 0.1240 -0.2752
f 241/241/241 242/242/242 243/243/243
v 0.1325 1.1628 -0.2738
vt 0.2188 0.4488
vn 0.9451 0.1118 -0.3071
v 0.3221 0.4342 0.0441
vt 0.2188 0.4001
vn 0.9451 0.1118 -0.3071
v 0.1900 0.4342 -0.3623
vt 0.2188 0.4001
vn 0.9451 0.1118 -0.3071
f 244/244/244 245/245/245 246/246/246
v 0.3221 0.4342 0.0441
vt 0.2188 0.4001
vn 0.9451 0.1118 -0.3071
v 0.1325 1.1628 -0.2738
vt 0.2188 0.4488
vn 0.9451 0.1118 -0.3071
v 0.2291 1.1628 0.0233
vt 0.2188 0.4488
vn 0.9451 0.1118 -0.3071
f 247/247/247 248/248/248 249/249/249
v -0.0277 0.5257 -0.3512
vt 0.2188 0.4063
vn 0.0000 0.1205 -0.9927
v 0.0366 0.4342 -0.3623
vt 0.2188 0.4001
vn 0.0000 0.1205 -0.9927
v 0.0064 0.3546 -0.3720
vt 0.2188 0.3948
vn 0.0000 0.1205 -0.9927
f 250/250/250 251/251/251 252/252/252
v 0.0366 0.4342 -0.3623
vt 0.2188 0.4001
vn 0.0000 0.1205 -0.9927
v -0.0277 0.5257 -0.3512
vt 0.2188 0.4063
vn 0.0000 0.1205 -0.9927
v 0.1900 0.4342 -0.3623
vt 0.2188 0.4001
vn 0.0000 0.1205 -0.9927
f 253/253/253 254/254/254 255/255/255
v 0.1900 0.4342 -0.3623
vt 0.2188 0.4001
vn 0.0000 0.1205 -0.9927
v -0.0277 0.5257 -0.3512
vt 0.2188 0.4063
vn 0.0000 0.1205 -0.9927
v 0.1325 1.1628 -0.2738
vt 0.2188 0.4488
vn 0.0000 0.1205 -0.9927
f 256/256/256 257/257/257 258/258/258
v 0.1325 1.1628 -0.2738
vt 0.2188 0.4488
vn 0.0000 0.1205 -0.9927
v -0.0277 0.5257 -0.3512
vt 0.2188 0.4063
vn 0.0000 0.1205 -0.9927
v -0.2301 0.5257 -0.3512
vt 0.2188 0.4063
vn 0.0000 0.1205 -0.9927
f 259/259/259 260/260/260 261/261/261
v 0.1325 1.1628 -0.2738
vt 0.2188 0.4488
vn 0.0000 0.1205 -0.9927
v -0.2301 0.5257 -0.3512
vt 0.2188 0.4063
vn 0.0000 0.1205 -0.9927
v -0.1799 1.1628 -0.2738
vt 0.2188 0.4488
vn 0.0000 0.1205 -0.9927
f 262/262/262 263/263/263 264/264/264
v -0.0237 1.1628 0.2069
vt 0.2188 0.4488
vn -0.5850 0.0977 0.8051
v -0.0744 0.7619 0.2187
vt 0.2188 0.4220
vn -0.5850 0.0977 0.8051
v -0.0237 0.7619 0.2555
vt 0.2188 0.4220
vn -0.5850 0.0977 0.8051
f 265/265/265 266/266/266 267/267/267
v -0.2153 1.1628 0.0676
vt 0.2188 0.4488
vn -0.5850 0.0977 0.8051
v -0.0744 0.7619 0.2187
vt 0.2188 0.4220
vn -0.5850 0.0977 0.8051
v -0.0237 1.1628 0.2069
vt 0.2188 0.4488
vn -0.5850 0.0977 0.8051
f 268/268/268 269/269/269 270/270/270
v -0.3577 0.5257 0.0415
vt 0.2188 0.4063
vn -0.5850 0.0977 0.8051
v -0.0744 0.7619 0.2187
vt 0.2188 0.4220
vn -0.5850 0.0977 0.8051
v -0.2153 1.1628 0.0676
vt 0.2188 0.4488
vn -0.5850 0.0977 0.8051
f 271/271/271 272/272/272 273/273/273
v -0.3577 0.5257 0.0415
vt 0.2188 0.4063
vn -0.5850 0.0977 0.8051
v -0.1546 0.2755 0.2195
vt 0.2188 0.3895
vn -0.5850 0.0977 0.8051
v -0.0744 0.7619 0.2187
vt 0.2188 0.4220
vn -0.5850 0.0977 0.8051
f 274/274/274 275/275/275 276/276/276
v -0.1546 0.2755 0.2195
vt 0.2188 0.3895
vn -0.5850 0.0977 0.8051
v -0.3577 0.5257 0.0415
vt 0.2188 0.4063
vn -0.5850 0.0977 0.8051
v -0.3897 0.2755 0.0487
vt 0.2188 0.3895
vn -0.5850 0.0977 0.8051
f 277/277/277 278/278/278 279/279/279
v 0.2291 1.1628 0.0233
vt 0.2188 0.4488
vn 0.5850 0.0977 0.8051
v 0.2975 0.4342 0.0620
vt 0.2188 0.4001
vn 0.5850 0.0977 0.8051
v 0.3221 0.4342 0.0441
vt 0.2188 0.4001
vn 0.5850 0.0977 0.8051
f 280/280/280 281/281/281 282/282/282
v 0.2975 0.4342 0.0620
vt 0.2188 0.4001
vn 0.5850 0.0977 0.8051
v 0.2291 1.1628 0.0233
vt 0.2188 0.4488
vn 0.5850 0.0977 0.8051
v 0.2696 0.6036 0.0617
vt 0.2188 0.4115
vn 0.5850 0.0977 0.8051
f 283/283/283 284/284/284 285/285/285
v 0.2696 0.6036 0.0617
vt 0.2188 0.4115
vn 0.5850 0.0977 0.8051
v 0.2291 1.1628 0.0233
vt 0.2188 0.4488
vn 0.5850 0.0977 0.8051
v 0.2064 0.7619 0.0884
vt 0.2188 0.4220
vn 0.5850 0.0977 0.8051
f 286/286/286 287/287/287 288/288/288
v 0.2064 0.7619 0.0884
vt 0.2188 0.4220
vn 0.5850 0.0977 0.8051
v 0.2291 1.1628 0.0233
vt 0.2188 0.4488
vn 0.5850 0.0977 0.8051
v -0.0237 0.7619 0.2555
vt 0.2188 0.4220
vn 0.5850 0.0977 0.8051
f 289/289/289 290/290/290 291/291/291
v -0.0237 0.7619 0.2555
vt 0.2188 0.4220
vn 0.5850 0.0977 0.8051
v 0.2291 1.1628 0.0233
vt 0.2188 0.4488
vn 0.5850 0.0977 0.8051
v -0.0237 1.1628 0.2069
vt 0.2188 0.4488
vn 0.5850 0.0977 0.8051
f 292/292/292 293/293/293 294/294/294
v 0.1325 1.1628 -0.2738
vt 0.2188 0.4488
vn 0.0000 1.0000 0.0000
v -0.0237 1.1628 0.2069
vt 0.2188 0.4488
vn 0.0000 1.0000 0.0000
v 0.2291 1.1628 0.0233
vt 0.2188 0.4488
vn 0.0000 1.0000 0.0000
f 295/295/295 296/296/296 297/297/297
v -0.0237 1.1628 0.2069
vt 0.2188 0.4488
vn 0.0000 1.0000 0.0000
v 0.1325 1.1628 -0.2738
vt 0.2188 0.4488
vn 0.0000 1.0000 0.0000
v -0.1799 1.1628 -0.2738
vt 0.2188 0.4488
vn 0.0000 1.0000 0.0000
f 298/298/298 299/299/299 300/300/300
v -0.0237 1.1628 0.2069
vt 0.2188 0.4488
vn 0.0000 1.0000 0.0000
v -0.1799 1.1628 -0.2738
vt 0.2188 0.4488
vn 0.0000 1.0000 0.0000
v -0.2153 1.1628 0.0676
vt 0.2188 0.4488
vn 0.0000 1.0000 0.0000
f 301/301/301 302/302/302 303/303/303
v -0.2153 1.1628 0.0676
vt 0.2188 0.4488
vn 0.0000 1.0000 0.0000
v -0.1799 1.1628 -0.2738
vt 0.2188 0.4488
vn 0.0000 1.0000 0.0000
v -0.2153 1.1628 -0.1648
vt 0.2188 0.4488
vn 0.0000 1.0000 0.0000
f 304/304/304 305/305/305 306/306/306
v -0.2844 0.5257 -0.1842
vt 0.2188 0.4063
vn -0.9451 0.1118 -0.3071
v -0.1799 1.1628 -0.2738
vt 0.2188 0.4488
vn -0.9451 0.1118 -0.3071
v -0.2301 0.5257 -0.3512
vt 0.2188 0.4063
vn -0.9451 0.1118 -0.3071
f 307/307/307 308/308/308 309/309/309
v -0.1799 1.1628 -0.2738
vt 0.2188 0.4488
vn -0.9451 0.1118 -0.3071
v -0.2844 0.5257 -0.1842
vt 0.2188 0.4063
vn -0.9451 0.1118 -0.3071
v -0.2153 1.1628 -0.1648
vt 0.2188 0.4488
vn -0.9697 0.1559 -0.1879
f 310/310/310 311/311/311 312/312/312
v -0.2153 1.1628 -0.1648
vt 0.2188 0.4488
vn -0.9697 0.1559 -0.1879
v -0.2844 0.5257 -0.1842
vt 0.2188 0.4063
vn -0.9451 0.1118 -0.3071
v -0.3537 0.0921 -0.1286
vt 0.2188 0.3773
vn -0.9451 0.1118 -0.3071
f 313/313/313 314/314/314 315/315/315
v -0.2153 1.1628 -0.1648
vt 0.2188 0.4488
vn -0.9697 0.1559 -0.1879
v -0.3537 0.0921 -0.1286
vt 0.2188 0.3773
vn -0.9451 0.1118 -0.3071
v -0.3577 0.5257 0.0415
vt 0.2188 0.4063
vn -0.9533 0.1240 -0.2752
f 316/316/316 317/317/317 318/318/318
v -0.3577 0.5257 0.0415
vt 0.2188 0.4063
vn -0.9533 0.1240 -0.2752
v -0.3537 0.0921 -0.1286
vt 0.2188 0.3773
vn -0.9451 0.1118 -0.3071
v -0.3684 0.2755 -0.0166
vt 0.2188 0.3895
vn -0.9451 0.1118 -0.3071
f 319/319/319 320/320/320 321/321/321
v -0.3577 0.5257 0.0415
vt 0.2188 0.4063
vn -0.9533 0.1240 -0.2752
v -0.3684 0.2755 -0.0166
vt 0.2188 0.3895
vn -0.9451 0.1118 -0.3071
v -0.3897 0.2755 0.0487
vt 0.2188 0.3895
vn -0.9451 0.1118 -0.3071
f 322/322/322 323/323/323 324/324/324
v 0.1101 0.0000 0.6543
vt 0.2188 0.3901
vn 0.0000 -1.0000 0.0000
v 0.4343 0.0000 0.2632
vt 0.2188 0.3902
vn 0.0000 -1.0000 0.0000
v 0.4752 0.0000 0.3891
vt 0.2188 0.3901
vn 0.0000 -1.0000 0.0000
f 325/325/325 326/326/326 327/327/327
v 0.0083 0.0000 -0.6259
vt 0.2188 0.3901
vn 0.0000 -1.0000 0.0000
v 0.4343 0.0000 0.2632
vt 0.2188 0.3902
vn 0.0000 -1.0000 0.0000
v 0.1101 0.0000 0.6543
vt 0.2188 0.3901
vn 0.0000 -1.0000 0.0000
f 328/328/328 329/329/329 330/330/330
v 0.0083 0.0000 -0.6259
vt 0.2188 0.3901
vn 0.0000 -1.0000 0.0000
v 0.1101 0.0000 0.6543
vt 0.2188 0.3901
vn 0.0000 -1.0000 0.0000
v -0.0569 0.0000 0.5329
vt 0.2188 0.4212
vn 0.0000 -1.0000 0.0000
f 331/331/331 332/332/332 333/333/333
v 0.5963 0.0000 -0.6259
vt 0.2188 0.3901
vn 0.0000 -1.0000 0.0000
v 0.4343 0.0000 0.2632
vt 0.2188 0.3902
vn 0.0000 -1.0000 0.0000
v 0.0083 0.0000 -0.6259
vt 0.2188 0.3901
vn 0.0000 -1.0000 0.0000
f 334/334/334 335/335/335 336/336/336
v 0.4343 0.0000 0.2632
vt 0.2188 0.3902
vn 0.0000 -1.0000 0.0000
v 0.5963 0.0000 -0.6259
vt 0.2188 0.3901
vn 0.0000 -1.0000 0.0000
v 0.7991 0.0000 -0.0019
vt 0.2188 0.3901
vn 0.0000 -1.0000 0.0000
f 337/337/337 338/338/338 339/339/339
v 0.0083 0.0000 -0.6259
vt 0.2188 0.3901
vn 0.0000 -1.0000 0.0000
v -0.0569 0.0000 0.5329
vt 0.2188 0.4212
vn 0.0000 -1.0000 0.0000
v -0.0238 0.0000 -0.7247
vt 0.2188 0.3901
vn 0.0000 -1.0000 0.0000
f 340/340/340 341/341/341 342/342/342
v -0.0238 0.0000 -0.7247
vt 0.2188 0.3901
vn 0.0000 -1.0000 0.0000
v -0.0569 0.0000 0.5329
vt 0.2188 0.4212
vn 0.0000 -1.0000 0.0000
v -0.4750 0.0000 -0.7247
vt 0.2188 0.3901
vn 0.0000 -1.0000 0.0000
f 343/343/343 344/344/344 345/345/345
v -0.4750 0.0000 -0.7247
vt 0.2188 0.3901
vn 0.0000 -1.0000 0.0000
v -0.0569 0.0000 0.5329
vt 0.2188 0.4212
vn 0.0000 -1.0000 0.0000
v -0.3208 0.0000 0.7247
vt 0.2188 0.4524
vn 0.0000 -1.0000 0.0000
f 346/346/346 347/347/347 348/348/348
v -0.4750 0.0000 -0.7247
vt 0.2188 0.3901
vn 0.0000 -1.0000 0.0000
v -0.3208 0.0000 0.7247
vt 0.2188 0.4524
vn 0.0000 -1.0000 0.0000
v -0.4622 0.0000 -0.1849
vt 0.2188 0.4212
vn 0.0000 -1.0000 0.0000
f 349/349/349 350/350/350 351/351/351
v -0.4750 0.0000 -0.7247
vt 0.2188 0.3901
vn 0.0000 -1.0000 0.0000
v -0.4622 0.0000 -0.1849
vt 0.2188 0.4212
vn 0.0000 -1.0000 0.0000
v -0.6145 0.0000 -0.2956
vt 0.2188 0.3901
vn 0.0000 -1.0000 0.0000
f 352/352/352 353/353/353 354/354/354
v -0.7991 0.0000 0.3773
vt 0.2188 0.4524
vn 0.0000 -1.0000 0.0000
v -0.4622 0.0000 -0.1849
vt 0.2188 0.4212
vn 0.0000 -1.0000 0.0000
v -0.3208 0.0000 0.7247
vt 0.2188 0.4524
vn 0.0000 -1.0000 0.0000
f 355/355/355 356/356/356 357/357/357
v -0.4622 0.0000 -0.1849
vt 0.2188 0.4212
vn 0.0000 -1.0000 0.0000
v -0.7991 0.0000 0.3773
vt 0.2188 0.4524
vn 0.0000 -1.0000 0.0000
v -0.6164 0.0000 -0.1849
vt 0.2188 0.4524
vn 0.0000 -1.0000 0.0000
f 358/358/358 359/359/359 360/360/360
v -0.7844 0.0000 -0.1553
vt 0.2188 0.3250
vn 0.0000 -1.0000 0.0000
v -0.6977 0.0000 -0.3053
vt 0.2188 0.3250
vn 0.0000 -1.0000 0.0000
v -0.6977 0.0000 -0.2053
vt 0.2188 0.3250
vn 0.0000 -1.0000 0.0000
f 361/361/361 362/362/362 363/363/363
v -0.6977 0.0000 -0.3053
vt 0.2188 0.3250
vn 0.0000 -1.0000 0.0000
v -0.7844 0.0000 -0.1553
vt 0.2188 0.3250
vn 0.0000 -1.0000 0.0000
v -0.7844 0.0000 -0.3553
vt 0.2188 0.3250
vn 0.0000 -1.0000 0.0000
f 364/364/364 365/365/365 366/366/366
v -0.7844 0.0000 -0.3553
vt 0.2188 0.3250
vn 0.0000 -1.0000 0.0000
v -0.7844 0.0000 -0.1553
vt 0.2188 0.3250
vn 0.0000 -1.0000 0.0000
v -0.8710 0.0000 -0.2053
vt 0.2188 0.3250
vn 0.0000 -1.0000 0.0000
f 367/367/367 368/368/368 369/369/369
v -0.7844 0.0000 -0.3553
vt 0.2188 0.3250
vn 0.0000 -1.0000 0.0000
v -0.8710 0.0000 -0.2053
vt 0.2188 0.3250
vn 0.0000 -1.0000 0.0000
v -0.8710 0.0000 -0.3053
vt 0.2188 0.3250
vn 0.0000 -1.0000 0.0000
f 370/370/370 371/371/371 372/372/372
v -0.7844 0.1000 -0.3173
vt 0.2188 0.4250
vn 0.0000 1.0000 0.0000
v -0.7307 0.1000 -0.2243
vt 0.2188 0.4250
vn 0.0000 1.0000 0.0000
v -0.7307 0.1000 -0.2863
vt 0.2188 0.4250
vn 0.0000 1.0000 0.0000
f 373/373/373 374/374/374 375/375/375
v -0.7307 0.1000 -0.2243
vt 0.2188 0.4250
vn 0.0000 1.0000 0.0000
v -0.7844 0.1000 -0.3173
vt 0.2188 0.4250
vn 0.0000 1.0000 0.0000
v -0.7844 0.1000 -0.1933
vt 0.2188 0.4250
vn 0.0000 1.0000 0.0000
f 376/376/376 377/377/377 378/378/378
v -0.7844 0.1000 -0.1933
vt 0.2188 0.4250
vn 0.0000 1.0000 0.0000
v -0.7844 0.1000 -0.3173
vt 0.2188 0.4250
vn 0.0000 1.0000 0.0000
v -0.8380 0.1000 -0.2863
vt 0.2188 0.4250
vn 0.0000 1.0000 0.0000
f 379/379/379 380/380/380 381/381/381
v -0.7844 0.1000 -0.1933
vt 0.2188 0.4250
vn 0.0000 1.0000 0.0000
v -0.8380 0.1000 -0.2863
vt 0.2188 0.4250
vn 0.0000 1.0000 0.0000
v -0.8380 0.1000 -0.2243
vt 0.2188 0.4250
vn 0.0000 1.0000 0.0000
f 382/382/382 383/383/383 384/384/384
v -0.7307 0.1000 -0.2863
vt 0.2188 0.4250
vn 0.8095 0.3552 -0.4674
v -0.6977 0.0000 -0.2053
vt 0.2188 0.3250
vn 0.8095 0.3552 0.4674
v -0.6977 0.0000 -0.3053
vt 0.2188 0.3250
vn 0.8095 0.3552 -0.4674
f 385/385/385 386/386/386 387/387/387
v -0.6977 0.0000 -0.2053
vt 0.2188 0.3250
vn 0.8095 0.3552 0.4674
v -0.7307 0.1000 -0.2863
vt 0.2188 0.4250
vn 0.8095 0.3552 -0.4674
v -0.7307 0.1000 -0.2243
vt 0.2188 0.4250
vn 0.8095 0.3552 0.4674
f 388/388/388 389/389/389 390/390/390
v -0.7844 0.1000 -0.3173
vt 0.2188 0.4250
vn 0.0000 0.3552 -0.9348
v -0.6977 0.0000 -0.3053
vt 0.2188 0.3250
vn 0.8095 0.3552 -0.4674
v -0.7844 0.0000 -0.3553
vt 0.2188 0.3250
vn 0.0000 0.3552 -0.9348
f 391/391/391 392/392/392 393/393/393
v -0.6977 0.0000 -0.3053
vt 0.2188 0.3250
vn 0.8095 0.3552 -0.4674
v -0.7844 0.1000 -0.3173
vt 0.2188 0.4250
vn 0.0000 0.3552 -0.9348
v -0.7307 0.1000 -0.2863
vt 0.2188 0.4250
vn 0.8095 0.3552 -0.4674
f 394/394/394 395/395/395 396/396/396
v -0.7844 0.1000 -0.1933
vt 0.2188 0.4250
vn 0.0000 0.3552 0.9348
v -0.8710 0.0000 -0.2053
vt 0.2188 0.3250
vn -0.8095 0.3552 0.4674
v -0.7844 0.0000 -0.1553
vt 0.2188 0.3250
vn 0.0000 0.3552 0.9348
f 397/397/397 398/398/398 399/399/399
v -0.8710 0.0000 -0.2053
vt 0.2188 0.3250
vn -0.8095 0.3552 0.4674
v -0.7844 0.1000 -0.1933
vt 0.2188 0.4250
vn 0.0000 0.3552 0.9348
v -0.8380 0.1000 -0.2243
vt 0.2188 0.4250
vn -0.8095 0.3552 0.4674
f 400/400/400 401/401/401 402/402/402
v -0.8710 0.0000 -0.2053
vt 0.2188 0.3250
vn -0.8095 0.3552 0.4674
v -0.8380 0.1000 -0.2863
vt 0.2188 0.4250
vn -0.8095 0.3552 -0.4674
v -0.8710 0.0000 -0.3053
vt 0.2188 0.3250
vn -0.8095 0.3552 -0.4674
f 403/403/403 404/404/404 405/405/405
v -0.8380 0.1000 -0.2863
vt 0.2188 0.4250
vn -0.8095 0.3552 -0.4674
v -0.8710 0.0000 -0.2053
vt 0.2188 0.3250
vn -0.8095 0.3552 0.4674
v -0.8380 0.1000 -0.2243
vt 0.2188 0.4250
vn -0.8095 0.3552 0.4674
f 406/406/406 407/407/407 408/408/408
v -0.7307 0.1000 -0.2243
vt 0.2188 0.4250
vn 0.8095 0.3552 0.4674
v -0.7844 0.0000 -0.1553
vt 0.2188 0.3250
vn 0.0000 0.3552 0.9348
v -0.6977 0.0000 -0.2053
vt 0.2188 0.3250
vn 0.8095 0.3552 0.4674
f 409/409/409 410/410/410 411/411/411
v -0.7844 0.0000 -0.1553
vt 0.2188 0.3250
vn 0.0000 0.3552 0.9348
v -0.7307 0.1000 -0.2243
vt 0.2188 0.4250
vn 0.8095 0.3552 0.4674
v -0.7844 0.1000 -0.1933
vt 0.2188 0.4250
vn 0.0000 0.3552 0.9348
f 412/412/412 413/413/413 414/414/414
v -0.8380 0.1000 -0.2863
vt 0.2188 0.4250
vn -0.8095 0.3552 -0.4674
v -0.7844 0.0000 -0.3553
vt 0.2188 0.3250
vn 0.0000 0.3552 -0.9348
v -0.8710 0.0000 -0.3053
vt 0.2188 0.3250
vn -0.8095 0.3552 -0.4674
f 415/415/415 416/416/416 417/417/417
v -0.7844 0.0000 -0.3553
vt 0.2188 0.3250
vn 0.0000 0.3552 -0.9348
v -0.8380 0.1000 -0.2863
vt 0.2188 0.4250
vn -0.8095 0.3552 -0.4674
v -0.7844 0.1000 -0.3173
vt 0.2188 0.4250
vn 0.0000 0.3552 -0.9348
f 418/418/418 419/419/419 420/420/420
v -0.0867 0.0000 0.8239
vt 0.2188 0.3250
vn 0.0000 -1.0000 0.0000
v -0.0001 0.0000 0.6739
vt 0.2188 0.3250
vn 0.0000 -1.0000 0.0000
v -0.0001 0.0000 0.7739
vt 0.2188 0.3250
vn 0.0000 -1.0000 0.0000
f 421/421/421 422/422/422 423/423/423
v -0.0001 0.0000 0.6739
vt 0.2188 0.3250
vn 0.0000 -1.0000 0.0000
v -0.0867 0.0000 0.8239
vt 0.2188 0.3250
vn 0.0000 -1.0000 0.0000
v -0.0867 0.0000 0.6239
vt 0.2188 0.3250
vn 0.0000 -1.0000 0.0000
f 424/424/424 425/425/425 426/426/426
v -0.0867 0.0000 0.6239
vt 0.2188 0.3250
vn 0.0000 -1.0000 0.0000
v -0.0867 0.0000 0.8239
vt 0.2188 0.3250
vn 0.0000 -1.0000 0.0000
v -0.1733 0.0000 0.7739
vt 0.2188 0.3250
vn 0.0000 -1.0000 0.0000
f 427/427/427 428/428/428 429/429/429
v -0.0867 0.0000 0.6239
vt 0.2188 0.3250
vn 0.0000 -1.0000 0.0000
v -0.1733 0.0000 0.7739
vt 0.2188 0.3250
vn 0.0000 -1.0000 0.0000
v -0.1733 0.0000 0.6739
vt 0.2188 0.3250
vn 0.0000 -1.0000 0.0000
f 430/430/430 431/431/431 432/432/432
v -0.0867 0.1000 0.6619
vt 0.2188 0.4250
vn 0.0000 1.0000 0.0000
v -0.0330 0.1000 0.7549
vt 0.2188 0.4250
vn 0.0000 1.0000 0.0000
v -0.0330 0.1000 0.6929
vt 0.2188 0.4250
vn 0.0000 1.0000 0.0000
f 433/433/433 434/434/434 435/435/435
v -0.0330 0.1000 0.7549
vt 0.2188 0.4250
vn 0.0000 1.0000 0.0000
v -0.0867 0.1000 0.6619
vt 0.2188 0.4250
vn 0.0000 1.0000 0.0000
v -0.0867 0.1000 0.7859
vt 0.2188 0.4250
vn 0.0000 1.0000 0.0000
f 436/436/436 437/437/437 438/438/438
v -0.0867 0.1000 0.7859
vt 0.2188 0.4250
vn 0.0000 1.0000 0.0000
v -0.0867 0.1000 0.6619
vt 0.2188 0.4250
vn 0.0000 1.0000 0.0000
v -0.1404 0.1000 0.6929
vt 0.2188 0.4250
vn 0.0000 1.0000 0.0000
f 439/439/439 440/440/440 441/441/441
v -0.0867 0.1000 0.7859
vt 0.2188 0.4250
vn 0.0000 1.0000 0.0000
v -0.1404 0.1000 0.6929
vt 0.2188 0.4250
vn 0.0000 1.0000 0.0000
v -0.1404 0.1000 0.7549
vt 0.2188 0.4250
vn 0.0000 1.0000 0.0000
f 442/442/442 443/443/443 444/444/444
v -0.0330 0.1000 0.6929
vt 0.2188 0.4250
vn 0.8095 0.3552 -0.4674
v -0.0001 0.0000 0.7739
vt 0.2188 0.3250
vn 0.8095 0.3552 0.4674
v -0.0001 0.0000 0.6739
vt 0.2188 0.3250
vn 0.8095 0.3552 -0.4674
f 445/445/445 446/446/446 447/447/447
v -0.0001 0.0000 0.7739
vt 0.2188 0.3250
vn 0.8095 0.3552 0.4674
v -0.0330 0.1000 0.6929
vt 0.2188 0.4250
vn 0.8095 0.3552 -0.4674
v -0.0330 0.1000 0.7549
vt 0.2188 0.4250
vn 0.8095 0.3552 0.4674
f 448/448/448 449/449/449 450/450/450
v -0.0867 0.1000 0.6619
vt 0.2188 0.4250
vn 0.0000 0.3552 -0.9348
v -0.0001 0.0000 0.6739
vt 0.2188 0.3250
vn 0.8095 0.3552 -0.4674
v -0.0867 0.0000 0.6239
vt 0.2188 0.3250
vn 0.0000 0.3552 -0.9348
f 451/451/451 452/452/452 453/453/453
v -0.0001 0.0000 0.6739
vt 0.2188 0.3250
vn 0.8095 0.3552 -0.4674
v -0.0867 0.1000 0.6619
vt 0.2188 0.4250
vn 0.0000 0.3552 -0.9348
v -0.0330 0.1000 0.6929
vt 0.2188 0.4250
vn 0.8095 0.3552 -0.4674
f 454/454/454 455/455/455 456/456/456
v -0.0867 0.1000 0.7859
vt 0.2188 0.4250
vn 0.0000 0.3552 0.9348
v -0.1733 0.0000 0.7739
vt 0.2188 0.3250
vn -0.8095 0.3552 0.4674
v -0.0867 0.0000 0.8239
vt 0.2188 0.3250
vn 0.0000 0.3552 0.9348
f 457/457/457 458/458/458 459/459/459
v -0.1733 0.0000 0.7739
vt 0.2188 0.3250
vn -0.8095 0.3552 0.4674
v -0.0867 0.1000 0.7859
vt 0.2188 0.4250
vn 0.0000 0.3552 0.9348
v -0.1404 0.1000 0.7549
vt 0.2188 0.4250
vn -0.8095 0.3552 0.4674
f 460/460/460 461/461/461 462/462/462
v -0.1733 0.0000 0.7739
vt 0.2188 0.3250
vn -0.8095 0.3552 0.4674
v -0.1404 0.1000 0.6929
vt 0.2188 0.4250
vn -0.8095 0.3552 -0.4674
v -0.1733 0.0000 0.6739
vt 0.2188 0.3250
vn -0.8095 0.3552 -0.4674
f 463/463/463 464/464/464 465/465/465
v -0.1404 0.1000 0.6929
vt 0.2188 0.4250
vn -0.8095 0.3552 -0.4674
v -0.1733 0.0000 0.7739
vt 0.2188 0.3250
vn -0.8095 0.3552 0.4674
v -0.1404 0.1000 0.7549
vt 0.2188 0.4250
vn -0.8095 0.3552 0.4674
f 466/466/466 467/467/467 468/468/468
v -0.0330 0.1000 0.7549
vt 0.2188 0.4250
vn 0.8095 0.3552 0.4674
v -0.0867 0.0000 0.8239
vt 0.2188 0.3250
vn 0.0000 0.3552 0.9348
v -0.0001 0.0000 0.7739
vt 0.2188 0.3250
vn 0.8095 0.3552 0.4674
f 469/469/469 470/470/470 471/471/471
v -0.0867 0.0000 0.8239
vt 0.2188 0.3250
vn 0.0000 0.3552 0.9348
v -0.0330 0.1000 0.7549
vt 0.2188 0.4250
vn 0.8095 0.3552 0.4674
v -0.0867 0.1000 0.7859
vt 0.2188 0.4250
vn 0.0000 0.3552 0.9348
f 472/472/472 473/473/473 474/474/474
v -0.1404 0.1000 0.6929
vt 0.2188 0.4250
vn -0.8095 0.3552 -0.4674
v -0.0867 0.0000 0.6239
vt 0.2188 0.3250
vn 0.0000 0.3552 -0.9348
v -0.1733 0.0000 0.6739
vt 0.2188 0.3250
vn -0.8095 0.3552 -0.4674
f 475/475/475 476/476/476 477/477/477
v -0.0867 0.0000 0.6239
vt 0.2188 0.3250
vn 0.0000 0.3552 -0.9348
v -0.1404 0.1000 0.6929
vt 0.2188 0.4250
vn -0.8095 0.3552 -0.4674
v -0.0867 0.1000 0.6619
vt 0.2188 0.4250
vn 0.0000 0.3552 -0.9348
f 478/478/478 479/479/479 480/480/480
v 0.6285 0.0000 0.3916
vt 0.2188 0.3250
vn 0.0000 -1.0000 0.0000
v 0.7151 0.0000 0.2416
vt 0.2188 0.3250
vn 0.0000 -1.0000 0.0000
v 0.7151 0.0000 0.3416
vt 0.2188 0.3250
vn 0.0000 -1.0000 0.0000
f 481/481/481 482/482/482 483/483/483
v 0.7151 0.0000 0.2416
vt 0.2188 0.3250
vn 0.0000 -1.0000 0.0000
v 0.6285 0.0000 0.3916
vt 0.2188 0.3250
vn 0.0000 -1.0000 0.0000
v 0.6285 0.0000 0.1916
vt 0.2188 0.3250
vn 0.0000 -1.0000 0.0000
f 484/484/484 485/485/485 486/486/486
v 0.6285 0.0000 0.1916
vt 0.2188 0.3250
vn 0.0000 -1.0000 0.0000
v 0.6285 0.0000 0.3916
vt 0.2188 0.3250
vn 0.0000 -1.0000 0.0000
v 0.5419 0.0000 0.3416
vt 0.2188 0.3250
vn 0.0000 -1.0000 0.0000
f 487/487/487 488/488/488 489/489/489
v 0.6285 0.0000 0.1916
vt 0.2188 0.3250
vn 0.0000 -1.0000 0.0000
v 0.5419 0.0000 0.3416
vt 0.2188 0.3250
vn 0.0000 -1.0000 0.0000
v 0.5419 0.0000 0.2416
vt 0.2188 0.3250
vn 0.0000 -1.0000 0.0000
f 490/490/490 491/491/491 492/492/492
v 0.6285 0.1000 0.2296
vt 0.2188 0.4250
vn 0.0000 1.0000 0.0000
v 0.6822 0.1000 0.3226
vt 0.2188 0.4250
vn 0.0000 1.0000 0.0000
v 0.6822 0.1000 0.2606
vt 0.2188 0.4250
vn 0.0000 1.0000 0.0000
f 493/493/493 494/494/494 495/495/495
v 0.6822 0.1000 0.3226
vt 0.2188 0.4250
vn 0.0000 1.0000 0.0000
v 0.6285 0.1000 0.2296
vt 0.2188 0.4250
vn 0.0000 1.0000 0.0000
v 0.6285 0.1000 0.3536
vt 0.2188 0.4250
vn 0.0000 1.0000 0.0000
f 496/496/496 497/497/497 498/498/498
v 0.6285 0.1000 0.3536
vt 0.2188 0.4250
vn 0.0000 1.0000 0.0000
v 0.6285 0.1000 0.2296
vt 0.2188 0.4250
vn 0.0000 1.0000 0.0000
v 0.5748 0.1000 0.2606
vt 0.2188 0.4250
vn 0.0000 1.0000 0.0000
f 499/499/499 500/500/500 501/501/501
v 0.6285 0.1000 0.3536
vt 0.2188 0.4250
vn 0.0000 1.0000 0.0000
v 0.5748 0.1000 0.2606
vt 0.2188 0.4250
vn 0.0000 1.0000 0.0000
v 0.5748 0.1000 0.3226
vt 0.2188 0.4250
vn 0.0000 1.0000 0.0000
f 502/502/502 503/503/503 504/504/504
v 0.6822 0.1000 0.2606
vt 0.2188 0.4250
vn 0.8095 0.3552 -0.4674
v 0.7151 0.0000 0.3416
vt 0.2188 0.3250
vn 0.8095 0.3552 0.4674
v 0.7151 0.0000 0.2416
vt 0.2188 0.3250
vn 0.8095 0.3552 -0.4674
f 505/505/505 506/506/506 507/507/507
v 0.7151 0.0000 0.3416
vt 0.2188 0.3250
vn 0.8095 0.3552 0.4674
v 0.6822 0.1000 0.2606
vt 0.2188 0.4250
vn 0.8095 0.3552 -0.4674
v 0.6822 0.1000 0.3226
vt 0.2188 0.4250
vn 0.8095 0.3552 0.4674
f 508/508/508 509/509/509 510/510/510
v 0.6285 0.1000 0.2296
vt 0.2188 0.4250
vn 0.0000 0.3552 -0.9348
v 0.7151 0.0000 0.2416
vt 0.2188 0.3250
vn 0.8095 0.3552 -0.4674
v 0.6285 0.0000 0.1916
vt 0.2188 0.3250
vn 0.0000 0.3552 -0.9348
f 511/511/511 512/512/512 513/513/513
v 0.7151 0.0000 0.2416
vt 0.2188 0.3250
vn 0.8095 0.3552 -0.4674
v 0.6285 0.1000 0.2296
vt 0.2188 0.4250
vn 0.0000 0.3552 -0.9348
v 0.6822 0.1000 0.2606
vt 0.2188 0.4250
vn 0.8095 0.3552 -0.4674
f 514/514/514 515/515/515 516/516/516
v 0.6285 0.1000 0.3536
vt 0.2188 0.4250
vn 0.0000 0.3552 0.9348
v 0.5419 0.0000 0.3416
vt 0.2188 0.3250
vn -0.8095 0.3552 0.4674
v 0.6285 0.0000 0.3916
vt 0.2188 0.3250
vn 0.0000 0.3552 0.9348
f 517/517/517 518/518/518 519/519/519
v 0.5419 0.0000 0.3416
vt 0.2188 0.3250
vn -0.8095 0.3552 0.4674
v 0.6285 0.1000 0.3536
vt 0.2188 0.4250
vn 0.0000 0.3552 0.9348
v 0.5748 0.1000 0.3226
vt 0.2188 0.4250
vn -0.8095 0.3552 0.4674
f 520/520/520 521/521/521 522/522/522
v 0.5419 0.0000 0.3416
vt 0.2188 0.3250
vn -0.8095 0.3552 0.4674
v 0.5748 0.1000 0.2606
vt 0.2188 0.4250
vn -0.8095 0.3552 -0.4674
v 0.5419 0.0000 0.2416
vt 0.2188 0.3250
vn -0.8095 0.3552 -0.4674
f 523/523/523 524/524/524 525/525/525
v 0.5748 0.1000 0.2606
vt 0.2188 0.4250
vn -0.8095 0.3552 -0.4674
v 0.5419 0.0000 0.3416
vt 0.2188 0.3250
vn -0.8095 0.3552 0.4674
v 0.5748 0.1000 0.3226
vt 0.2188 0.4250
vn -0.8095 0.3552 0.4674
f 526/526/526 527/527/527 528/528/528
v 0.6822 0.1000 0.3226
vt 0.2188 0.4250
vn 0.8095 0.3552 0.4674
v 0.6285 0.0000 0.3916
vt 0.2188 0.3250
vn 0.0000 0.3552 0.9348
v 0.7151 0.0000 0.3416
vt 0.2188 0.3250
vn 0.8095 0.3552 0.4674
f 529/529/529 530/530/530 531/531/531
v 0.6285 0.0000 0.3916
vt 0.2188 0.3250
vn 0.0000 0.3552 0.9348
v 0.6822 0.1000 0.3226
vt 0.2188 0.4250
vn 0.8095 0.3552 0.4674
v 0.6285 0.1000 0.3536
vt 0.2188 0.4250
vn 0.0000 0.3552 0.9348
f 532/532/532 533/533/533 534/534/534
v 0.5748 0.1000 0.2606
vt 0.2188 0.4250
vn -0.8095 0.3552 -0.4674
v 0.6285 0.0000 0.1916
vt 0.2188 0.3250
vn 0.0000 0.3552 -0.9348
v 0.5419 0.0000 0.2416
vt 0.2188 0.3250
vn -0.8095 0.3552 -0.4674
f 535/535/535 536/536/536 537/537/537
v 0.6285 0.0000 0.1916
vt 0.2188 0.3250
vn 0.0000 0.3552 -0.9348
v 0.5748 0.1000 0.2606
vt 0.2188 0.4250
vn -0.8095 0.3552 -0.4674
v 0.6285 0.1000 0.2296
vt 0.2188 0.4250
vn 0.0000 0.3552 -0.9348
f 538/538/538 539/539/539 540/540/540
v -0.2566 0.2755 0.2848
vt 0.2188 0.3250
vn 0.0000 -1.0000 0.0000
v -0.1700 0.2755 0.1348
vt 0.2188 0.3250
vn 0.0000 -1.0000 0.0000
v -0.1700 0.2755 0.2348
vt 0.2188 0.3250
vn 0.0000 -1.0000 0.0000
f 541/541/541 542/542/542 543/543/543
v -0.1700 0.2755 0.1348
vt 0.2188 0.3250
vn 0.0000 -1.0000 0.0000
v -0.2566 0.2755 0.2848
vt 0.2188 0.3250
vn 0.0000 -1.0000 0.0000
v -0.2566 0.2755 0.0848
vt 0.2188 0.3250
vn 0.0000 -1.0000 0.0000
f 544/544/544 545/545/545 546/546/546
v -0.2566 0.2755 0.0848
vt 0.2188 0.3250
vn 0.0000 -1.0000 0.0000
v -0.2566 0.2755 0.2848
vt 0.2188 0.3250
vn 0.0000 -1.0000 0.0000
v -0.3432 0.2755 0.2348
vt 0.2188 0.3250
vn 0.0000 -1.0000 0.0000
f 547/547/547 548/548/548 549/549/549
v -0.2566 0.2755 0.0848
vt 0.2188 0.3250
vn 0.0000 -1.0000 0.0000
v -0.3432 0.2755 0.2348
vt 0.2188 0.3250
vn 0.0000 -1.0000 0.0000
v -0.3432 0.2755 0.1348
vt 0.2188 0.3250
vn 0.0000 -1.0000 0.0000
f 550/550/550 551/551/551 552/552/552
v -0.2566 0.3755 0.1228
vt 0.2188 0.4250
vn 0.0000 1.0000 0.0000
v -0.2029 0.3755 0.2158
vt 0.2188 0.4250
vn 0.0000 1.0000 0.0000
v -0.2029 0.3755 0.1538
vt 0.2188 0.4250
vn 0.0000 1.0000 0.0000
f 553/553/553 554/554/554 555/555/555
v -0.2029 0.3755 0.2158
vt 0.2188 0.4250
vn 0.0000 1.0000 0.0000
v -0.2566 0.3755 0.1228
vt 0.2188 0.4250
vn 0.0000 1.0000 0.0000
v -0.2566 0.3755 0.2468
vt 0.2188 0.4250
vn 0.0000 1.0000 0.0000
f 556/556/556 557/557/557 558/558/558
v -0.2566 0.3755 0.2468
vt 0.2188 0.4250
vn 0.0000 1.0000 0.0000
v -0.2566 0.3755 0.1228
vt 0.2188 0.4250
vn 0.0000 1.0000 0.0000
v -0.3103 0.3755 0.1538
vt 0.2188 0.4250
vn 0.0000 1.0000 0.0000
f 559/559/559 560/560/560 561/561/561
v -0.2566 0.3755 0.2468
vt 0.2188 0.4250
vn 0.0000 1.0000 0.0000
v -0.3103 0.3755 0.1538
vt 0.2188 0.4250
vn 0.0000 1.0000 0.0000
v -0.3103 0.3755 0.2158
vt 0.2188 0.4250
vn 0.0000 1.0000 0.0000
f 562/562/562 563/563/563 564/564/564
v -0.2029 0.3755 0.1538
vt 0.2188 0.4250
vn 0.8095 0.3552 -0.4674
v -0.1700 0.2755 0.2348
vt 0.2188 0.3250
vn 0.8095 0.3552 0.4674
v -0.1700 0.2755 0.1348
vt 0.2188 0.3250
vn 0.8095 0.3552 -0.4674
f 565/565/565 566/566/566 567/567/567
v -0.1700 0.2755 0.2348
vt 0.2188 0.3250
vn 0.8095 0.3552 0.4674
v -0.2029 0.3755 0.1538
vt 0.2188 0.4250
vn 0.8095 0.3552 -0.4674
v -0.2029 0.3755 0.2158
vt 0.2188 0.4250
vn 0.8095 0.3552 0.4674
f 568/568/568 569/569/569 570/570/570
v -0.2566 0.3755 0.1228
vt 0.2188 0.4250
vn 0.0000 0.3552 -0.9348
v -0.1700 0.2755 0.1348
vt 0.2188 0.3250
vn 0.8095 0.3552 -0.4674
v -0.2566 0.2755 0.0848
vt 0.2188 0.3250
vn 0.0000 0.3552 -0.9348
f 571/571/571 572/572/572 573/573/573
v -0.1700 0.2755 0.1348
vt 0.2188 0.3250
vn 0.8095 0.3552 -0.4674
v -0.2566 0.3755 0.1228
vt 0.2188 0.4250
vn 0.0000 0.3552 -0.9348
v -0.2029 0.3755 0.1538
vt 0.2188 0.4250
vn 0.8095 0.3552 -0.4674
f 574/574/574 575/575/575 576/576/576
v -0.2566 0.3755 0.2468
vt 0.2188 0.4250
vn 0.0000 0.3552 0.9348
v -0.3432 0.2755 0.2348
vt 0.2188 0.3250
vn -0.8095 0.3552 0.4674
v -0.2566 0.2755 0.2848
vt 0.2188 0.3250
vn 0.0000 0.3552 0.9348
f 577/577/577 578/578/578 579/579/579
v -0.3432 0.2755 0.2348
vt 0.2188 0.3250
vn -0.8095 0.3552 0.4674
v -0.2566 0.3755 0.2468
vt 0.2188 0.4250
vn 0.0000 0.3552 0.9348
v -0.3103 0.3755 0.2158
vt 0.2188 0.4250
vn -0.8095 0.3552 0.4674
f 580/580/580 581/581/581 582/582/582
v -0.3432 0.2755 0.2348
vt 0.2188 0.3250
vn -0.8095 0.3552 0.4674
v -0.3103 0.3755 0.1538
vt 0.2188 0.4250
vn -0.8095 0.3552 -0.4674
v -0.3432 0.2755 0.1348
vt 0.2188 0.3250
vn -0.8095 0.3552 -0.4674
f 583/583/583 584/584/584 585/585/585
v -0.3103 0.3755 0.1538
vt 0.2188 0.4250
vn -0.8095 0.3552 -0.4674
v -0.3432 0.2755 0.2348
vt 0.2188 0.3250
vn -0.8095 0.3552 0.4674
v -0.3103 0.3755 0.2158
vt 0.2188 0.4250
vn -0.8095 0.3552 0.4674
f 586/586/586 587/587/587 588/588/588
v -0.2029 0.3755 0.2158
vt 0.2188 0.4250
vn 0.8095 0.3552 0.4674
v -0.2566 0.2755 0.2848
vt 0.2188 0.3250
vn 0.0000 0.3552 0.9348
v -0.1700 0.2755 0.2348
vt 0.2188 0.3250
vn 0.8095 0.3552 0.4674
f 589/589/589 590/590/590 591/591/591
v -0.2566 0.2755 0.2848
vt 0.2188 0.3250
vn 0.0000 0.3552 0.9348
v -0.2029 0.3755 0.2158
vt 0.2188 0.4250
vn 0.8095 0.3552 0.4674
v -0.2566 0.3755 0.2468
vt 0.2188 0.4250
vn 0.0000 0.3552 0.9348
f 592/592/592 593/593/593 594/594/594
v -0.3103 0.3755 0.1538
vt 0.2188 0.4250
vn -0.8095 0.3552 -0.4674
v -0.2566 0.2755 0.0848
vt 0.2188 0.3250
vn 0.0000 0.3552 -0.9348
v -0.3432 0.2755 0.1348
vt 0.2188 0.3250
vn -0.8095 0.3552 -0.4674
f 595/595/595 596/596/596 597/597/597
v -0.2566 0.2755 0.0848
vt 0.2188 0.3250
vn 0.0000 0.3552 -0.9348
v -0.3103 0.3755 0.1538
vt 0.2188 0.4250
vn -0.8095 0.3552 -0.4674
v -0.2566 0.3755 0.1228
vt 0.2188 0.4250
vn 0.0000 0.3552 -0.9348
f 598/598/598 599/599/599 600/600/600
v -0.7106 0.1377 0.3574
vt 0.2188 0.3257
vn -0.5503 0.7713 0.3196
v -0.4612 0.2755 0.4545
vt 0.2188 0.3419
vn -0.5503 0.7713 0.3196
v -0.5887 0.2755 0.2348
vt 0.2188 0.3419
vn -0.5503 0.7713 0.3196
f 601/601/601 602/602/602 603/603/603
v -0.1407 0.2755 0.4256
vt 0.2188 0.3419
vn 0.5269 0.4431 0.7253
v -0.3208 0.0000 0.7247
vt 0.2188 0.3096
vn 0.5269 0.4431 0.7253
v -0.0569 0.0000 0.5329
vt 0.2188 0.3096
vn 0.5269 0.4431 0.7253
f 604/604/604 605/605/605 606/606/606
v -0.3208 0.0000 0.7247
vt 0.2188 0.3096
vn 0.5269 0.4431 0.7253
v -0.1407 0.2755 0.4256
vt 0.2188 0.3419
vn 0.5269 0.4431 0.7253
v -0.3208 0.2755 0.5564
vt 0.2188 0.3419
vn 0.5269 0.4431 0.7253
f 607/607/607 608/608/608 609/609/609
v -0.3208 0.2755 0.5564
vt 0.2188 0.3419
vn -0.5269 0.4431 0.7253
v -0.7991 0.0000 0.3773
vt 0.2188 0.3096
vn -0.5269 0.4431 0.7253
v -0.3208 0.0000 0.7247
vt 0.2188 0.3096
vn -0.5269 0.4431 0.7253
f 610/610/610 611/611/611 612/612/612
v -0.7991 0.0000 0.3773
vt 0.2188 0.3096
vn -0.5269 0.4431 0.7253
v -0.3208 0.2755 0.5564
vt 0.2188 0.3419
vn -0.5269 0.4431 0.7253
v -0.7106 0.1377 0.3574
vt 0.2188 0.3257
vn -0.5269 0.4431 0.7253
f 613/613/613 614/614/614 615/615/615
v -0.7106 0.1377 0.3574
vt 0.2188 0.3257
vn -0.5269 0.4431 0.7253
v -0.3208 0.2755 0.5564
vt 0.2188 0.3419
vn -0.5269 0.4431 0.7253
v -0.4612 0.2755 0.4545
vt 0.2188 0.3419
vn -0.5269 0.4431 0.7253
f 616/616/616 617/617/617 618/618/618
v -0.7991 0.0000 0.3773
vt 0.2188 0.3096
vn -0.8276 0.4928 -0.2689
v -0.5070 0.2755 -0.0166
vt 0.2188 0.3419
vn -0.8276 0.4928 -0.2689
v -0.6164 0.0000 -0.1849
vt 0.2188 0.3096
vn -0.8276 0.4928 -0.2689
f 619/619/619 620/620/620 621/621/621
v -0.5070 0.2755 -0.0166
vt 0.2188 0.3419
vn -0.8276 0.4928 -0.2689
v -0.7991 0.0000 0.3773
vt 0.2188 0.3096
vn -0.8276 0.4928 -0.2689
v -0.5887 0.2755 0.2348
vt 0.2188 0.3419
vn -0.8276 0.4928 -0.2689
f 622/622/622 623/623/623 624/624/624
v -0.5887 0.2755 0.2348
vt 0.2188 0.3419
vn -0.8276 0.4928 -0.2689
v -0.7991 0.0000 0.3773
vt 0.2188 0.3096
vn -0.8276 0.4928 -0.2689
v -0.7106 0.1377 0.3574
vt 0.2188 0.3257
vn -0.8276 0.4928 -0.2689
f 625/625/625 626/626/626 627/627/627
v -0.5070 0.2755 -0.0166
vt 0.2188 0.3419
vn 0.0000 1.0000 0.0000
v -0.3897 0.2755 0.0487
vt 0.2188 0.3419
vn 0.0000 1.0000 0.0000
v -0.3684 0.2755 -0.0166
vt 0.2188 0.3419
vn 0.0000 1.0000 0.0000
f 628/628/628 629/629/629 630/630/630
v -0.3897 0.2755 0.0487
vt 0.2188 0.3419
vn 0.0000 1.0000 0.0000
v -0.5070 0.2755 -0.0166
vt 0.2188 0.3419
vn 0.0000 1.0000 0.0000
v -0.4612 0.2755 0.4545
vt 0.2188 0.3419
vn 0.0000 1.0000 0.0000
f 631/631/631 632/632/632 633/633/633
v -0.4612 0.2755 0.4545
vt 0.2188 0.3419
vn 0.0000 1.0000 0.0000
v -0.5070 0.2755 -0.0166
vt 0.2188 0.3419
vn 0.0000 1.0000 0.0000
v -0.5887 0.2755 0.2348
vt 0.2188 0.3419
vn 0.0000 1.0000 0.0000
f 634/634/634 635/635/635 636/636/636
v -0.3208 0.2755 0.5564
vt 0.2188 0.3419
vn 0.0000 1.0000 0.0000
v -0.3897 0.2755 0.0487
vt 0.2188 0.3419
vn 0.0000 1.0000 0.0000
v -0.4612 0.2755 0.4545
vt 0.2188 0.3419
vn 0.0000 1.0000 0.0000
f 637/637/637 638/638/638 639/639/639
v -0.2061 0.2755 0.3781
vt 0.2188 0.3419
vn 0.0000 1.0000 0.0000
v -0.3897 0.2755 0.0487
vt 0.2188 0.3419
vn 0.0000 1.0000 0.0000
v -0.3208 0.2755 0.5564
vt 0.2188 0.3419
vn 0.0000 1.0000 0.0000
f 640/640/640 641/641/641 642/642/642
v -0.3208 0.2755 0.5564
vt 0.2188 0.3419
vn 0.0000 1.0000 0.0000
v -0.1407 0.2755 0.4256
vt 0.2188 0.3419
vn 0.0000 1.0000 0.0000
v -0.2061 0.2755 0.3781
vt 0.2188 0.3419
vn 0.0000 1.0000 0.0000
f 643/643/643 644/644/644 645/645/645
v -0.3897 0.2755 0.0487
vt 0.2188 0.3419
vn 0.0000 1.0000 0.0000
v -0.2061 0.2755 0.3781
vt 0.2188 0.3419
vn 0.0000 1.0000 0.0000
v -0.1546 0.2755 0.2195
vt 0.2188 0.3419
vn 0.0000 1.0000 0.0000
f 646/646/646 647/647/647 648/648/648
v -0.6164 0.0000 -0.1849
vt 0.2188 0.3096
vn 0.0000 0.5213 -0.8534
v -0.3537 0.0921 -0.1286
vt 0.2188 0.3204
vn 0.0000 0.5213 -0.8534
v -0.4622 0.0000 -0.1849
vt 0.2188 0.3096
vn 0.0000 0.5213 -0.8534
f 649/649/649 650/650/650 651/651/651
v -0.3537 0.0921 -0.1286
vt 0.2188 0.3204
vn 0.0000 0.5213 -0.8534
v -0.6164 0.0000 -0.1849
vt 0.2188 0.3096
vn 0.0000 0.5213 -0.8534
v -0.5070 0.2755 -0.0166
vt 0.2188 0.3419
vn 0.0000 0.5213 -0.8534
f 652/652/652 653/653/653 654/654/654
v -0.3537 0.0921 -0.1286
vt 0.2188 0.3204
vn 0.0000 0.5213 -0.8534
v -0.5070 0.2755 -0.0166
vt 0.2188 0.3419
vn 0.0000 0.5213 -0.8534
v -0.3684 0.2755 -0.0166
vt 0.2188 0.3419
vn 0.0000 0.5213 -0.8534
f 655/655/655 656/656/656 657/657/657
v 0.2523 0.7619 0.0884
vt 0.2188 0.4188
vn 0.0000 0.1663 -0.9861
v 0.2696 0.6036 0.0617
vt 0.2188 0.3897
vn 0.0000 0.1663 -0.9861
v 0.2064 0.7619 0.0884
vt 0.2188 0.4188
vn 0.0000 0.1663 -0.9861
f 658/658/658 659/659/659 660/660/660
v 0.2785 0.7619 0.4035
vt 0.2188 0.4188
vn 0.9221 0.2449 0.2996
v 0.4508 0.1377 0.3836
vt 0.2188 0.3041
vn 0.9221 0.2449 0.2996
v 0.3166 0.7619 0.2863
vt 0.2188 0.4188
vn 0.9221 0.2449 0.2996
f 661/661/661 662/662/662 663/663/663
v -0.1546 0.2755 0.2195
vt 0.2188 0.3294
vn -0.9396 0.1544 -0.3053
v -0.1199 0.7619 0.3587
vt 0.2188 0.4188
vn -0.9396 0.1544 -0.3053
v -0.0744 0.7619 0.2187
vt 0.2188 0.4188
vn -0.9396 0.1544 -0.3053
f 664/664/664 665/665/665 666/666/666
v -0.1199 0.7619 0.3587
vt 0.2188 0.4188
vn -0.9396 0.1544 -0.3053
v -0.1546 0.2755 0.2195
vt 0.2188 0.3294
vn -0.9396 0.1544 -0.3053
v -0.2061 0.2755 0.3781
vt 0.2188 0.3294
vn -0.9396 0.1544 -0.3053
f 667/667/667 668/668/668 669/669/669
v 0.2523 0.7619 0.0884
vt 0.2188 0.4188
vn 0.0000 1.0000 0.0000
v 0.2785 0.7619 0.4035
vt 0.2188 0.4188
vn 0.0000 1.0000 0.0000
v 0.3166 0.7619 0.2863
vt 0.2188 0.4188
vn 0.0000 1.0000 0.0000
f 670/670/670 671/671/671 672/672/672
v 0.2785 0.7619 0.4035
vt 0.2188 0.4188
vn 0.0000 1.0000 0.0000
v 0.2523 0.7619 0.0884
vt 0.2188 0.4188
vn 0.0000 1.0000 0.0000
v 0.1101 0.7619 0.5258
vt 0.2188 0.4188
vn 0.0000 1.0000 0.0000
f 673/673/673 674/674/674 675/675/675
v 0.1101 0.7619 0.5258
vt 0.2188 0.4188
vn 0.0000 1.0000 0.0000
v 0.2523 0.7619 0.0884
vt 0.2188 0.4188
vn 0.0000 1.0000 0.0000
v 0.2064 0.7619 0.0884
vt 0.2188 0.4188
vn 0.0000 1.0000 0.0000
f 676/676/676 677/677/677 678/678/678
v 0.1101 0.7619 0.5258
vt 0.2188 0.4188
vn 0.0000 1.0000 0.0000
v 0.2064 0.7619 0.0884
vt 0.2188 0.4188
vn 0.0000 1.0000 0.0000
v -0.0237 0.7619 0.2555
vt 0.2188 0.4188
vn 0.0000 1.0000 0.0000
f 679/679/679 680/680/680 681/681/681
v 0.1101 0.7619 0.5258
vt 0.2188 0.4188
vn 0.0000 1.0000 0.0000
v -0.0237 0.7619 0.2555
vt 0.2188 0.4188
vn 0.0000 1.0000 0.0000
v -0.1199 0.7619 0.3587
vt 0.2188 0.4188
vn 0.0000 1.0000 0.0000
f 682/682/682 683/683/683 684/684/684
v -0.1199 0.7619 0.3587
vt 0.2188 0.4188
vn 0.0000 1.0000 0.0000
v -0.0237 0.7619 0.2555
vt 0.2188 0.4188
vn 0.0000 1.0000 0.0000
v -0.0744 0.7619 0.2187
vt 0.2188 0.4188
vn 0.0000 1.0000 0.0000
f 685/685/685 686/686/686 687/687/687
v 0.1101 0.7619 0.5258
vt 0.2188 0.4188
vn -0.5824 0.1352 0.8016
v -0.0569 0.0000 0.5329
vt 0.2188 0.2788
vn -0.5824 0.1352 0.8016
v 0.1101 0.0000 0.6543
vt 0.2188 0.2788
vn -0.5824 0.1352 0.8016
f 688/688/688 689/689/689 690/690/690
v -0.0569 0.0000 0.5329
vt 0.2188 0.2788
vn -0.5824 0.1352 0.8016
v 0.1101 0.7619 0.5258
vt 0.2188 0.4188
vn -0.5824 0.1352 0.8016
v -0.1407 0.2755 0.4256
vt 0.2188 0.3294
vn -0.5824 0.1352 0.8016
f 691/691/691 692/692/692 693/693/693
v -0.1199 0.7619 0.3587
vt 0.2188 0.4188
vn -0.5824 0.1352 0.8016
v -0.1407 0.2755 0.4256
vt 0.2188 0.3294
vn -0.5824 0.1352 0.8016
v 0.1101 0.7619 0.5258
vt 0.2188 0.4188
vn -0.5824 0.1352 0.8016
f 694/694/694 695/695/695 696/696/696
v -0.1407 0.2755 0.4256
vt 0.2188 0.3294
vn -0.5824 0.1352 0.8016
v -0.1199 0.7619 0.3587
vt 0.2188 0.4188
vn -0.5824 0.1352 0.8016
v -0.2061 0.2755 0.3781
vt 0.2188 0.3294
vn -0.5824 0.1352 0.8016
f 697/697/697 698/698/698 699/699/699
v 0.4508 0.1377 0.3836
vt 0.2188 0.3041
vn 0.5824 0.1352 0.8016
v 0.1101 0.0000 0.6543
vt 0.2188 0.2788
vn 0.5824 0.1352 0.8016
v 0.4752 0.0000 0.3891
vt 0.2188 0.2788
vn 0.5824 0.1352 0.8016
f 700/700/700 701/701/701 702/702/702
v 0.1101 0.0000 0.6543
vt 0.2188 0.2788
vn 0.5824 0.1352 0.8016
v 0.4508 0.1377 0.3836
vt 0.2188 0.3041
vn 0.5824 0.1352 0.8016
v 0.1101 0.7619 0.5258
vt 0.2188 0.4188
vn 0.5824 0.1352 0.8016
f 703/703/703 704/704/704 705/705/705
v 0.1101 0.7619 0.5258
vt 0.2188 0.4188
vn 0.5824 0.1352 0.8016
v 0.4508 0.1377 0.3836
vt 0.2188 0.3041
vn 0.5824 0.1352 0.8016
v 0.2785 0.7619 0.4035
vt 0.2188 0.4188
vn 0.5824 0.1352 0.8016
f 706/706/706 707/707/707 708/708/708
v 0.2523 0.7619 0.0884
vt 0.2188 0.4188
vn 0.9396 0.1544 -0.3053
v 0.2975 0.4342 0.0620
vt 0.2188 0.3585
vn 0.9396 0.1544 -0.3053
v 0.2696 0.6036 0.0617
vt 0.2188 0.3897
vn 0.9396 0.1544 -0.3053
f 709/709/709 710/710/710 711/711/711
v 0.2975 0.4342 0.0620
vt 0.2188 0.3585
vn 0.9396 0.1544 -0.3053
v 0.2523 0.7619 0.0884
vt 0.2188 0.4188
vn 0.9396 0.1544 -0.3053
v 0.3274 0.4342 0.1540
vt 0.2188 0.3585
vn 0.9396 0.1544 -0.3053
f 712/712/712 713/713/713 714/714/714
v 0.3274 0.4342 0.1540
vt 0.2188 0.3585
vn 0.9396 0.1544 -0.3053
v 0.2523 0.7619 0.0884
vt 0.2188 0.4188
vn 0.9396 0.1544 -0.3053
v 0.3166 0.7619 0.2863
vt 0.2188 0.4188
vn 0.9396 0.1544 -0.3053
f 715/715/715 716/716/716 717/717/717
v 0.3274 0.4342 0.1540
vt 0.2188 0.3585
vn 0.9396 0.1544 -0.3053
v 0.3166 0.7619 0.2863
vt 0.2188 0.4188
vn 0.9396 0.1544 -0.3053
v 0.4343 0.0000 0.2632
vt 0.2188 0.2788
vn 0.9396 0.1544 -0.3053
f 718/718/718 719/719/719 720/720/720
v 0.4343 0.0000 0.2632
vt 0.2188 0.2788
vn 0.9396 0.1544 -0.3053
v 0.3166 0.7619 0.2863
vt 0.2188 0.4188
vn 0.9396 0.1544 -0.3053
v 0.4752 0.0000 0.3891
vt 0.2188 0.2788
vn 0.9396 0.1544 -0.3053
f 721/721/721 722/722/722 723/723/723
v 0.4752 0.0000 0.3891
vt 0.2188 0.2788
vn 0.9396 0.1544 -0.3053
v 0.3166 0.7619 0.2863
vt 0.2188 0.4188
vn 0.9396 0.1544 -0.3053
v 0.4508 0.1377 0.3836
vt 0.2188 0.3041
vn 0.9396 0.1544 -0.3053
f 724/724/724 725/725/725 726/726/726
v 0.5369 0.4342 -0.2485
vt 0.2188 0.4403
vn 0.6401 0.5827 -0.5008
v 0.5578 0.1377 -0.5666
vt 0.2188 0.3925
vn 0.6401 0.5827 -0.5008
v 0.3877 0.4342 -0.4391
vt 0.2188 0.4403
vn 0.6401 0.5827 -0.5008
f 727/727/727 728/728/728 729/729/729
v -0.0094 0.1803 -0.5483
vt 0.2188 0.3993
vn 0.0000 0.3952 -0.9186
v 0.5963 0.0000 -0.6259
vt 0.2188 0.3702
vn 0.0000 0.3952 -0.9186
v 0.0083 0.0000 -0.6259
vt 0.2188 0.3702
vn 0.0000 0.3952 -0.9186
f 730/730/730 731/731/731 732/732/732
v 0.5963 0.0000 -0.6259
vt 0.2188 0.3702
vn 0.0000 0.3952 -0.9186
v -0.0094 0.1803 -0.5483
vt 0.2188 0.3993
vn 0.0000 0.3952 -0.9186
v 0.5578 0.1377 -0.5666
vt 0.2188 0.3925
vn 0.0000 0.3952 -0.9186
f 733/733/733 734/734/734 735/735/735
v 0.5578 0.1377 -0.5666
vt 0.2188 0.3925
vn 0.0000 0.3952 -0.9186
v -0.0094 0.1803 -0.5483
vt 0.2188 0.3993
vn 0.0000 0.3952 -0.9186
v 0.3877 0.4342 -0.4391
vt 0.2188 0.4403
vn 0.0000 0.3952 -0.9186
f 736/736/736 737/737/737 738/738/738
v 0.3877 0.4342 -0.4391
vt 0.2188 0.4403
vn 0.0000 0.3952 -0.9186
v -0.0094 0.1803 -0.5483
vt 0.2188 0.3993
vn 0.0000 0.3952 -0.9186
v 0.0616 0.4342 -0.4391
vt 0.2188 0.4403
vn 0.0000 0.3952 -0.9186
f 739/739/739 740/740/740 741/741/741
v 0.5369 0.4342 -0.2485
vt 0.2188 0.4403
vn 0.0000 1.0000 0.0000
v 0.3274 0.4342 0.1540
vt 0.2188 0.4403
vn 0.0000 1.0000 0.0000
v 0.6027 0.4342 -0.0460
vt 0.2188 0.4403
vn 0.0000 1.0000 0.0000
f 742/742/742 743/743/743 744/744/744
v 0.3274 0.4342 0.1540
vt 0.2188 0.4403
vn 0.0000 1.0000 0.0000
v 0.5369 0.4342 -0.2485
vt 0.2188 0.4403
vn 0.0000 1.0000 0.0000
v 0.3877 0.4342 -0.4391
vt 0.2188 0.4403
vn 0.0000 1.0000 0.0000
f 745/745/745 746/746/746 747/747/747
v 0.3274 0.4342 0.1540
vt 0.2188 0.4403
vn 0.0000 1.0000 0.0000
v 0.3877 0.4342 -0.4391
vt 0.2188 0.4403
vn 0.0000 1.0000 0.0000
v 0.3221 0.4342 0.0441
vt 0.2188 0.4403
vn 0.0000 1.0000 0.0000
f 748/748/748 749/749/749 750/750/750
v 0.2975 0.4342 0.0620
vt 0.2188 0.4403
vn 0.0000 1.0000 0.0000
v 0.3274 0.4342 0.1540
vt 0.2188 0.4403
vn 0.0000 1.0000 0.0000
v 0.3221 0.4342 0.0441
vt 0.2188 0.4403
vn 0.0000 1.0000 0.0000
f 751/751/751 752/752/752 753/753/753
v 0.3221 0.4342 0.0441
vt 0.2188 0.4403
vn 0.0000 1.0000 0.0000
v 0.3877 0.4342 -0.4391
vt 0.2188 0.4403
vn 0.0000 1.0000 0.0000
v 0.1900 0.4342 -0.3623
vt 0.2188 0.4403
vn 0.0000 1.0000 0.0000
f 754/754/754 755/755/755 756/756/756
v 0.1900 0.4342 -0.3623
vt 0.2188 0.4403
vn 0.0000 1.0000 0.0000
v 0.3877 0.4342 -0.4391
vt 0.2188 0.4403
vn 0.0000 1.0000 0.0000
v 0.0616 0.4342 -0.4391
vt 0.2188 0.4403
vn 0.0000 1.0000 0.0000
f 757/757/757 758/758/758 759/759/759
v 0.1900 0.4342 -0.3623
vt 0.2188 0.4403
vn 0.0000 1.0000 0.0000
v 0.0616 0.4342 -0.4391
vt 0.2188 0.4403
vn 0.0000 1.0000 0.0000
v 0.0366 0.4342 -0.3623
vt 0.2188 0.4403
vn 0.0000 1.0000 0.0000
f 760/760/760 761/761/761 762/762/762
v 0.0064 0.3546 -0.3720
vt 0.2188 0.4275
vn -0.8834 0.3705 -0.2870
v 0.0616 0.4342 -0.4391
vt 0.2188 0.4403
vn -0.8834 0.3705 -0.2870
v -0.0094 0.1803 -0.5483
vt 0.2188 0.3993
vn -0.8834 0.3705 -0.2870
f 763/763/763 764/764/764 765/765/765
v 0.0616 0.4342 -0.4391
vt 0.2188 0.4403
vn -0.8834 0.3705 -0.2870
v 0.0064 0.3546 -0.3720
vt 0.2188 0.4275
vn -0.8834 0.3705 -0.2870
v 0.0366 0.4342 -0.3623
vt 0.2188 0.4403
vn -0.8834 0.3705 -0.2870
f 766/766/766 767/767/767 768/768/768
v 0.5578 0.1377 -0.5666
vt 0.2188 0.3925
vn 0.8834 0.3705 -0.2870
v 0.7991 0.0000 -0.0019
vt 0.2188 0.3702
vn 0.8834 0.3705 -0.2870
v 0.5963 0.0000 -0.6259
vt 0.2188 0.3702
vn 0.8834 0.3705 -0.2870
f 769/769/769 770/770/770 771/771/771
v 0.7991 0.0000 -0.0019
vt 0.2188 0.3702
vn 0.8834 0.3705 -0.2870
v 0.5578 0.1377 -0.5666
vt 0.2188 0.3925
vn 0.8834 0.3705 -0.2870
v 0.5369 0.4342 -0.2485
vt 0.2188 0.4403
vn 0.8834 0.3705 -0.2870
f 772/772/772 773/773/773 774/774/774
v 0.7991 0.0000 -0.0019
vt 0.2188 0.3702
vn 0.8834 0.3705 -0.2870
v 0.5369 0.4342 -0.2485
vt 0.2188 0.4403
vn 0.8834 0.3705 -0.2870
v 0.6027 0.4342 -0.0460
vt 0.2188 0.4403
vn 0.8834 0.3705 -0.2870
f 775/775/775 776/776/776 777/777/777
v 0.6027 0.4342 -0.0460
vt 0.2188 0.4403
vn 0.5551 0.3287 0.7641
v 0.4343 0.0000 0.2632
vt 0.2188 0.3702
vn 0.5551 0.3287 0.7641
v 0.7991 0.0000 -0.0019
vt 0.2188 0.3702
vn 0.5551 0.3287 0.7641
f 778/778/778 779/779/779 780/780/780
v 0.4343 0.0000 0.2632
vt 0.2188 0.3702
vn 0.5551 0.3287 0.7641
v 0.6027 0.4342 -0.0460
vt 0.2188 0.4403
vn 0.5551 0.3287 0.7641
v 0.3274 0.4342 0.1540
vt 0.2188 0.4403
vn 0.5551 0.3287 0.7641
f 781/781/781 782/782/782 783/783/783
v -0.2714 0.5257 -0.5962
vt 0.2188 0.3740
vn -0.5356 0.4120 -0.7372
v -0.4612 0.0872 -0.7034
vt 0.2188 0.3464
vn -0.5356 0.4120 -0.7372
v -0.4287 0.5257 -0.4820
vt 0.2188 0.3740
vn -0.5356 0.4120 -0.7372
f 784/784/784 785/785/785 786/786/786
v -0.4622 0.0000 -0.1849
vt 0.2188 0.3409
vn -0.5766 0.1939 0.7937
v -0.4794 0.5257 -0.3259
vt 0.2188 0.3740
vn -0.5766 0.1939 0.7937
v -0.6145 0.0000 -0.2956
vt 0.2188 0.3409
vn -0.5766 0.1939 0.7937
f 787/787/787 788/788/788 789/789/789
v -0.4794 0.5257 -0.3259
vt 0.2188 0.3740
vn -0.5766 0.1939 0.7937
v -0.4622 0.0000 -0.1849
vt 0.2188 0.3409
vn -0.5766 0.1939 0.7937
v -0.3537 0.0921 -0.1286
vt 0.2188 0.3467
vn -0.5766 0.1939 0.7937
f 790/790/790 791/791/791 792/792/792
v -0.4794 0.5257 -0.3259
vt 0.2188 0.3740
vn -0.5766 0.1939 0.7937
v -0.3537 0.0921 -0.1286
vt 0.2188 0.3467
vn -0.5766 0.1939 0.7937
v -0.2844 0.5257 -0.1842
vt 0.2188 0.3740
vn -0.5766 0.1939 0.7937
f 793/793/793 794/794/794 795/795/795
v -0.6145 0.0000 -0.2956
vt 0.2188 0.3409
vn -0.9276 0.2209 -0.3014
v -0.4612 0.0872 -0.7034
vt 0.2188 0.3464
vn -0.9276 0.2209 -0.3014
v -0.4750 0.0000 -0.7247
vt 0.2188 0.3409
vn -0.9276 0.2209 -0.3014
f 796/796/796 797/797/797 798/798/798
v -0.4612 0.0872 -0.7034
vt 0.2188 0.3464
vn -0.9276 0.2209 -0.3014
v -0.6145 0.0000 -0.2956
vt 0.2188 0.3409
vn -0.9276 0.2209 -0.3014
v -0.4287 0.5257 -0.4820
vt 0.2188 0.3740
vn -0.9276 0.2209 -0.3014
f 799/799/799 800/800/800 801/801/801
v -0.4287 0.5257 -0.4820
vt 0.2188 0.3740
vn -0.9276 0.2209 -0.3014
v -0.6145 0.0000 -0.2956
vt 0.2188 0.3409
vn -0.9276 0.2209 -0.3014
v -0.4794 0.5257 -0.3259
vt 0.2188 0.3740
vn -0.9276 0.2209 -0.3014
f 802/802/802 803/803/803 804/804/804
v -0.1073 0.5257 -0.5962
vt 0.2188 0.3740
vn 0.9276 0.2209 -0.3014
v 0.0083 0.0000 -0.6259
vt 0.2188 0.3409
vn 0.9276 0.2209 -0.3014
v -0.0238 0.0000 -0.7247
vt 0.2188 0.3409
vn 0.9276 0.2209 -0.3014
f 805/805/805 806/806/806 807/807/807
v 0.0083 0.0000 -0.6259
vt 0.2188 0.3409
vn 0.9276 0.2209 -0.3014
v -0.1073 0.5257 -0.5962
vt 0.2188 0.3740
vn 0.9276 0.2209 -0.3014
v -0.0094 0.1803 -0.5483
vt 0.2188 0.3523
vn 0.9276 0.2209 -0.3014
f 808/808/808 809/809/809 810/810/810
v -0.0094 0.1803 -0.5483
vt 0.2188 0.3523
vn 0.9276 0.2209 -0.3014
v -0.1073 0.5257 -0.5962
vt 0.2188 0.3740
vn 0.9276 0.2209 -0.3014
v -0.0277 0.5257 -0.3512
vt 0.2188 0.3740
vn 0.9276 0.2209 -0.3014
f 811/811/811 812/812/812 813/813/813
v -0.0094 0.1803 -0.5483
vt 0.2188 0.3523
vn 0.9276 0.2209 -0.3014
v -0.0277 0.5257 -0.3512
vt 0.2188 0.3740
vn 0.9276 0.2209 -0.3014
v 0.0064 0.3546 -0.3720
vt 0.2188 0.3632
vn 0.9276 0.2209 -0.3014
f 814/814/814 815/815/815 816/816/816
v -0.1073 0.5257 -0.5962
vt 0.2188 0.3740
vn 0.0000 1.0000 0.0000
v -0.2301 0.5257 -0.3512
vt 0.2188 0.3740
vn 0.0000 1.0000 0.0000
v -0.0277 0.5257 -0.3512
vt 0.2188 0.3740
vn 0.0000 1.0000 0.0000
f 817/817/817 818/818/818 819/819/819
v -0.2301 0.5257 -0.3512
vt 0.2188 0.3740
vn 0.0000 1.0000 0.0000
v -0.1073 0.5257 -0.5962
vt 0.2188 0.3740
vn 0.0000 1.0000 0.0000
v -0.2714 0.5257 -0.5962
vt 0.2188 0.3740
vn 0.0000 1.0000 0.0000
f 820/820/820 821/821/821 822/822/822
v -0.2301 0.5257 -0.3512
vt 0.2188 0.3740
vn 0.0000 1.0000 0.0000
v -0.2714 0.5257 -0.5962
vt 0.2188 0.3740
vn 0.0000 1.0000 0.0000
v -0.2844 0.5257 -0.1842
vt 0.2188 0.3740
vn 0.0000 1.0000 0.0000
f 823/823/823 824/824/824 825/825/825
v -0.2844 0.5257 -0.1842
vt 0.2188 0.3740
vn 0.0000 1.0000 0.0000
v -0.2714 0.5257 -0.5962
vt 0.2188 0.3740
vn 0.0000 1.0000 0.0000
v -0.4287 0.5257 -0.4820
vt 0.2188 0.3740
vn 0.0000 1.0000 0.0000
f 826/826/826 827/827/827 828/828/828
v -0.2844 0.5257 -0.1842
vt 0.2188 0.3740
vn 0.0000 1.0000 0.0000
v -0.4287 0.5257 -0.4820
vt 0.2188 0.3740
vn 0.0000 1.0000 0.0000
v -0.4794 0.5257 -0.3259
vt 0.2188 0.3740
vn 0.0000 1.0000 0.0000
f 829/829/829 830/830/830 831/831/831
v -0.4612 0.0872 -0.7034
vt 0.2188 0.3464
vn 0.0000 0.2374 -0.9714
v -0.0238 0.0000 -0.7247
vt 0.2188 0.3409
vn 0.0000 0.2374 -0.9714
v -0.4750 0.0000 -0.7247
vt 0.2188 0.3409
vn 0.0000 0.2374 -0.9714
f 832/832/832 833/833/833 834/834/834
v -0.0238 0.0000 -0.7247
vt 0.2188 0.3409
vn 0.0000 0.2374 -0.9714
v -0.4612 0.0872 -0.7034
vt 0.2188 0.3464
vn 0.0000 0.2374 -0.9714
v -0.1073 0.5257 -0.5962
vt 0.2188 0.3740
vn 0.0000 0.2374 -0.9714
f 835/835/835 836/836/836 837/837/837
v -0.1073 0.5257 -0.5962
vt 0.2188 0.3740
vn 0.0000 0.2374 -0.9714
v -0.4612 0.0872 -0.7034
vt 0.2188 0.3464
vn 0.0000 0.2374 -0.9714
v -0.2714 0.5257 -0.5962
vt 0.2188 0.3740
vn 0.0000 0.2374 -0.9714
f 838/838/838 839/839/839 840/840/840
v -0.2153 1.1628 0.0676
vt 0.2188 0.4488
vn -0.9759 0.2181 0.0000
v -0.2153 1.1628 -0.1648
vt 0.2188 0.4488
vn -0.9697 0.1559 -0.1879
v -0.3577 0.5257 0.0415
vt 0.2188 0.4063
vn -0.9533 0.1240 -0.2752
f 841/841/841 842/842/842 843/843/843
v 0.1325 1.1628 -0.2738
vt 0.2188 0.4488
vn 0.9451 0.1118 -0.3071
v 0.3221 0.4342 0.0441
vt 0.2188 0.4001
vn 0.9451 0.1118 -0.3071
v 0.1900 0.4342 -0.3623
vt 0.2188 0.4001
vn 0.9451 0.1118 -0.3071
f 844/844/844 845/845/845 846/846/846
v 0.3221 0.4342 0.0441
vt 0.2188 0.4001
vn 0.9451 0.1118 -0.3071
v 0.1325 1.1628 -0.2738
vt 0.2188 0.4488
vn 0.9451 0.1118 -0.3071
v 0.2291 1.1628 0.0233
vt 0.2188 0.4488
vn 0.9451 0.1118 -0.3071
f 847/847/847 848/848/848 849/849/849
v -0.0277 0.5257 -0.3512
vt 0.2188 0.4063
vn 0.0000 0.1205 -0.9927
v 0.0366 0.4342 -0.3623
vt 0.2188 0.4001
vn 0.0000 0.1205 -0.9927
v 0.0064 0.3546 -0.3720
vt 0.2188 0.3948
vn 0.0000 0.1205 -0.9927
f 850/850/850 851/851/851 852/852/852
v 0.0366 0.4342 -0.3623
vt 0.2188 0.4001
vn 0.0000 0.1205 -0.9927
v -0.0277 0.5257 -0.3512
vt 0.2188 0.4063
vn 0.0000 0.1205 -0.9927
v 0.1900 0.4342 -0.3623
vt 0.2188 0.4001
vn 0.0000 0.1205 -0.9927
f 853/853/853 854/854/854 855/855/855
v 0.1900 0.4342 -0.3623
vt 0.2188 0.4001
vn 0.0000 0.1205 -0.9927
v -0.0277 0.5257 -0.3512
vt 0.2188 0.4063
vn 0.0000 0.1205 -0.9927
v 0.1325 1.1628 -0.2738
vt 0.2188 0.4488
vn 0.0000 0.1205 -0.9927
f 856/856/856 857/857/857 858/858/858
v 0.1325 1.1628 -0.2738
vt 0.2188 0.4488
vn 0.0000 0.1205 -0.9927
v -0.0277 0.5257 -0.3512
vt 0.2188 0.4063
vn 0.0000 0.1205 -0.9927
v -0.2301 0.5257 -0.3512
vt 0.2188 0.4063
vn 0.0000 0.1205 -0.9927
f 859/859/859 860/860/860 861/861/861
v 0.1325 1.1628 -0.2738
vt 0.2188 0.4488
vn 0.0000 0.1205 -0.9927
v -0.2301 0.5257 -0.3512
vt 0.2188 0.4063
vn 0.0000 0.1205 -0.9927
v -0.1799 1.1628 -0.2738
vt 0.2188 0.4488
vn 0.0000 0.1205 -0.9927
f 862/862/862 863/863/863 864/864/864
v -0.0237 1.1628 0.2069
vt 0.2188 0.4488
vn -0.5850 0.0977 0.8051
v -0.0744 0.7619 0.2187
vt 0.2188 0.4220
vn -0.5850 0.0977 0.8051
v -0.0237 0.7619 0.2555
vt 0.2188 0.4220
vn -0.5850 0.0977 0.8051
f 865/865/865 866/866/866 867/867/867
v -0.2153 1.1628 0.0676
vt 0.2188 0.4488
vn -0.5850 0.0977 0.8051
v -0.0744 0.7619 0.2187
vt 0.2188 0.4220
vn -0.5850 0.0977 0.8051
v -0.0237 1.1628 0.2069
vt 0.2188 0.4488
vn -0.5850 0.0977 0.8051
f 868/868/868 869/869/869 870/870/870
v -0.3577 0.5257 0.0415
vt 0.2188 0.4063
vn -0.5850 0.0977 0.8051
v -0.0744 0.7619 0.2187
vt 0.2188 0.4220
vn -0.5850 0.0977 0.8051
v -0.2153 1.1628 0.0676
vt 0.2188 0.4488
vn -0.5850 0.0977 0.8051
f 871/871/871 872/872/872 873/873/873
v -0.3577 0.5257 0.0415
vt 0.2188 0.4063
vn -0.5850 0.0977 0.8051
v -0.1546 0.2755 0.2195
vt 0.2188 0.3895
vn -0.5850 0.0977 0.8051
v -0.0744 0.7619 0.2187
vt 0.2188 0.4220
vn -0.5850 0.0977 0.8051
f 874/874/874 875/875/875 876/876/876
v -0.1546 0.2755 0.2195
vt 0.2188 0.3895
vn -0.5850 0.0977 0.8051
v -0.3577 0.5257 0.0415
vt 0.2188 0.4063
vn -0.5850 0.0977 0.8051
v -0.3897 0.2755 0.0487
vt 0.2188 0.3895
vn -0.5850 0.0977 0.8051
f 877/877/877 878/878/878 879/879/879
v 0.2291 1.1628 0.0233
vt 0.2188 0.4488
vn 0.5850 0.0977 0.8051
v 0.2975 0.4342 0.0620
vt 0.2188 0.4001
vn 0.5850 0.0977 0.8051
v 0.3221 0.4342 0.0441
vt 0.2188 0.4001
vn 0.5850 0.0977 0.8051
f 880/880/880 881/881/881 882/882/882
v 0.2975 0.4342 0.0620
vt 0.2188 0.4001
vn 0.5850 0.0977 0.8051
v 0.2291 1.1628 0.0233
vt 0.2188 0.4488
vn 0.5850 0.0977 0.8051
v 0.2696 0.6036 0.0617
vt 0.2188 0.4115
vn 0.5850 0.0977 0.8051
f 883/883/883 884/884/884 885/885/885
v 0.2696 0.6036 0.0617
vt 0.2188 0.4115
vn 0.5850 0.0977 0.8051
v 0.2291 1.1628 0.0233
vt 0.2188 0.4488
vn 0.5850 0.0977 0.8051
v 0.2064 0.7619 0.0884
vt 0.2188 0.4220
vn 0.5850 0.0977 0.8051
f 886/886/886 887/887/887 888/888/888
v 0.2064 0.7619 0.0884
vt 0.2188 0.4220
vn 0.5850 0.0977 0.8051
v 0.2291 1.1628 0.0233
vt 0.2188 0.4488
vn 0.5850 0.0977 0.8051
v -0.0237 0.7619 0.2555
vt 0.2188 0.4220
vn 0.5850 0.0977 0.8051
f 889/889/889 890/890/890 891/891/891
v -0.0237 0.7619 0.2555
vt 0.2188 0.4220
vn 0.5850 0.0977 0.8051
v 0.2291 1.1628 0.0233
vt 0.2188 0.4488
vn 0.5850 0.0977 0.8051
v -0.0237 1.1628 0.2069
vt 0.2188 0.4488
vn 0.5850 0.0977 0.8051
f 892/892/892 893/893/893 894/894/894
v 0.1325 1.1628 -0.2738
vt 0.2188 0.4488
vn 0.0000 1.0000 0.0000
v -0.0237 1.1628 0.2069
vt 0.2188 0.4488
vn 0.0000 1.0000 0.0000
v 0.2291 1.1628 0.0233
vt 0.2188 0.4488
vn 0.0000 1.0000 0.0000
f 895/895/895 896/896/896 897/897/897
v -0.0237 1.1628 0.2069
vt 0.2188 0.4488
vn 0.0000 1.0000 0.0000
v 0.1325 1.1628 -0.2738
vt 0.2188 0.4488
vn 0.0000 1.0000 0.0000
v -0.1799 1.1628 -0.2738
vt 0.2188 0.4488
vn 0.0000 1.0000 0.0000
f 898/898/898 899/899/899 900/900/900
v -0.0237 1.1628 0.2069
vt 0.2188 0.4488
vn 0.0000 1.0000 0.0000
v -0.1799 1.1628 -0.2738
vt 0.2188 0.4488
vn 0.0000 1.0000 0.0000
v -0.2153 1.1628 0.0676
vt 0.2188 0.4488
vn 0.0000 1.0000 0.0000
f 901/901/901 902/902/902 903/903/903
v -0.2153 1.1628 0.0676
vt 0.2188 0.4488
vn 0.0000 1.0000 0.0000
v -0.1799 1.1628 -0.2738
vt 0.2188 0.4488
vn 0.0000 1.0000 0.0000
v -0.2153 1.1628 -0.1648
vt 0.2188 0.4488
vn 0.0000 1.0000 0.0000
f 904/904/904 905/905/905 906/906/906
v -0.2844 0.5257 -0.1842
vt 0.2188 0.4063
vn -0.9451 0.1118 -0.3071
v -0.1799 1.1628 -0.2738
vt 0.2188 0.4488
vn -0.9451 0.1118 -0.3071
v -0.2301 0.5257 -0.3512
vt 0.2188 0.4063
vn -0.9451 0.1118 -0.3071
f 907/907/907 908/908/908 909/909/909
v -0.1799 1.1628 -0.2738
vt 0.2188 0.4488
vn -0.9451 0.1118 -0.3071
v -0.2844 0.5257 -0.1842
vt 0.2188 0.4063
vn -0.9451 0.1118 -0.3071
v -0.2153 1.1628 -0.1648
vt 0.2188 0.4488
vn -0.9697 0.1559 -0.1879
f 910/910/910 911/911/911 912/912/912
v -0.2153 1.1628 -0.1648
vt 0.2188 0.4488
vn -0.9697 0.1559 -0.1879
v -0.2844 0.5257 -0.1842
vt 0.2188 0.4063
vn -0.9451 0.1118 -0.3071
v -0.3537 0.0921 -0.1286
vt 0.2188 0.3773
vn -0.9451 0.1118 -0.3071
f 913/913/913 914/914/914 915/915/915
v -0.2153 1.1628 -0.1648
vt 0.2188 0.4488
vn -0.9697 0.1559 -0.1879
v -0.3537 0.0921 -0.1286
vt 0.2188 0.3773
vn -0.9451 0.1118 -0.3071
v -0.3577 0.5257 0.0415
vt 0.2188 0.4063
vn -0.9533 0.1240 -0.2752
f 916/916/916 917/917/917 918/918/918
v -0.3577 0.5257 0.0415
vt 0.2188 0.4063
vn -0.9533 0.1240 -0.2752
v -0.3537 0.0921 -0.1286
vt 0.2188 0.3773
vn -0.9451 0.1118 -0.3071
v -0.3684 0.2755 -0.0166
vt 0.2188 0.3895
vn -0.9451 0.1118 -0.3071
f 919/919/919 920/920/920 921/921/921
v -0.3577 0.5257 0.0415
vt 0.2188 0.4063
vn -0.9533 0.1240 -0.2752
v -0.3684 0.2755 -0.0166
vt 0.2188 0.3895
vn -0.9451 0.1118 -0.3071
v -0.3897 0.2755 0.0487
vt 0.2188 0.3895
vn -0.9451 0.1118 -0.3071
f 922/922/922 923/923/923 924/924/924
v 0.1101 0.0000 0.6543
vt 0.2188 0.3901
vn 0.0000 -1.0000 0.0000
v 0.4343 0.0000 0.2632
vt 0.2188 0.3902
vn 0.0000 -1.0000 0.0000
v 0.4752 0.0000 0.3891
vt 0.2188 0.3901
vn 0.0000 -1.0000 0.0000
f 925/925/925 926/926/926 927/927/927
v 0.0083 0.0000 -0.6259
vt 0.2188 0.3901
vn 0.0000 -1.0000 0.0000
v 0.4343 0.0000 0.2632
vt 0.2188 0.3902
vn 0.0000 -1.0000 0.0000
v 0.1101 0.0000 0.6543
vt 0.2188 0.3901
vn 0.0000 -1.0000 0.0000
f 928/928/928 929/929/929 930/930/930
v 0.0083 0.0000 -0.6259
vt 0.2188 0.3901
vn 0.0000 -1.0000 0.0000
v 0.1101 0.0000 0.6543
vt 0.2188 0.3901
vn 0.0000 -1.0000 0.0000
v -0.0569 0.0000 0.5329
vt 0.2188 0.4212
vn 0.0000 -1.0000 0.0000
f 931/931/931 932/932/932 933/933/933
v 0.5963 0.0000 -0.6259
vt 0.2188 0.3901
vn 0.0000 -1.0000 0.0000
v 0.4343 0.0000 0.2632
vt 0.2188 0.3902
vn 0.0000 -1.0000 0.0000
v 0.0083 0.0000 -0.6259
vt 0.2188 0.3901
vn 0.0000 -1.0000 0.0000
f 934/934/934 935/935/935 936/936/936
v 0.4343 0.0000 0.2632
vt 0.2188 0.3902
vn 0.0000 -1.0000 0.0000
v 0.5963 0.0000 -0.6259
vt 0.2188 0.3901
vn 0.0000 -1.0000 0.0000
v 0.7991 0.0000 -0.0019
vt 0.2188 0.3901
vn 0.0000 -1.0000 0.0000
f 937/937/937 938/938/938 939/939/939
v 0.0083 0.0000 -0.6259
vt 0.2188 0.3901
vn 0.0000 -1.0000 0.0000
v -0.0569 0.0000 0.5329
vt 0.2188 0.4212
vn 0.0000 -1.0000 0.0000
v -0.0238 0.0000 -0.7247
vt 0.2188 0.3901
vn 0.0000 -1.0000 0.0000
f 940/940/940 941/941/941 942/942/942
v -0.0238 0.0000 -0.7247
vt 0.2188 0.3901
vn 0.0000 -1.0000 0.0000
v -0.0569 0.0000 0.5329
vt 0.2188 0.4212
vn 0.0000 -1.0000 0.0000
v -0.4750 0.0000 -0.7247
vt 0.2188 0.3901
vn 0.0000 -1.0000 0.0000
f 943/943/943 944/944/944 945/945/945
v -0.4750 0.0000 -0.7247
vt 0.2188 0.3901
vn 0.0000 -1.0000 0.0000
v -0.0569 0.0000 0.5329
vt 0.2188 0.4212
vn 0.0000 -1.0000 0.0000
v -0.3208 0.0000 0.7247
vt 0.2188 0.4524
vn 0.0000 -1.0000 0.0000
f 946/946/946 947/947/947 948/948/948
v -0.4750 0.0000 -0.7247
vt 0.2188 0.3901
vn 0.0000 -1.0000 0.0000
v -0.3208 0.0000 0.7247
vt 0.2188 0.4524
vn 0.0000 -1.0000 0.0000
v -0.4622 0.0000 -0.1849
vt 0.2188 0.4212
vn 0.0000 -1.0000 0.0000
f 949/949/949 950/950/950 951/951/951
v -0.4750 0.0000 -0.7247
vt 0.2188 0.3901
vn 0.0000 -1.0000 0.0000
v -0.4622 0.0000 -0.1849
vt 0.2188 0.4212
vn 0.0000 -1.0000 0.0000
v -0.6145 0.0000 -0.2956
vt 0.2188 0.3901
vn 0.0000 -1.0000 0.0000
f 952/952/952 953/953/953 954/954/954
v -0.7991 0.0000 0.3773
vt 0.2188 0.4524
vn 0.0000 -1.0000 0.0000
v -0.4622 0.0000 -0.1849
vt 0.2188 0.4212
vn 0.0000 -1.0000 0.0000
v -0.3208 0.0000 0.7247
vt 0.2188 0.4524
vn 0.0000 -1.0000 0.0000
f 955/955/955 956/956/956 957/957/957
v -0.4622 0.0000 -0.1849
vt 0.2188 0.4212
vn 0.0000 -1.0000 0.0000
v -0.7991 0.0000 0.3773
vt 0.2188 0.4524
vn 0.0000 -1.0000 0.0000
v -0.6164 0.0000 -0.1849
vt 0.2188 0.4524
vn 0.0000 -1.0000 0.0000
f 958/958/958 959/959/959 960/960/960
v -0.7844 0.0000 -0.1553
vt 0.2188 0.3250
vn 0.0000 -1.0000 0.0000
v -0.6977 0.0000 -0.3053
vt 0.2188 0.3250
vn 0.0000 -1.0000 0.0000
v -0.6977 0.0000 -0.2053
vt 0.2188 0.3250
vn 0.0000 -1.0000 0.0000
f 961/961/961 962/962/962 963/963/963
v -0.6977 0.0000 -0.3053
vt 0.2188 0.3250
vn 0.0000 -1.0000 0.0000
v -0.7844 0.0000 -0.1553
vt 0.2188 0.3250
vn 0.0000 -1.0000 0.0000
v -0.7844 0.0000 -0.3553
vt 0.2188 0.3250
vn 0.0000 -1.0000 0.0000
f 964/964/964 965/965/965 966/966/966
v -0.7844 0.0000 -0.3553
vt 0.2188 0.3250
vn 0.0000 -1.0000 0.0000
v -0.7844 0.0000 -0.1553
vt 0.2188 0.3250
vn 0.0000 -1.0000 0.0000
v -0.8710 0.0000 -0.2053
vt 0.2188 0.3250
vn 0.0000 -1.0000 0.0000
f 967/967/967 968/968/968 969/969/969
v -0.7844 0.0000 -0.3553
vt 0.2188 0.3250
vn 0.0000 -1.0000 0.0000
v -0.8710 0.0000 -0.2053
vt 0.2188 0.3250
vn 0.0000 -1.0000 0.0000
v -0.8710 0.0000 -0.3053
vt 0.2188 0.3250
vn 0.0000 -1.0000 0.0000
f 970/970/970 971/971/971 972/972/972
v -0.7844 0.1000 -0.3173
vt 0.2188 0.4250
vn 0.0000 1.0000 0.0000
v -0.7307 0.1000 -0.2243
vt 0.2188 0.4250
vn 0.0000 1.0000 0.0000
v -0.7307 0.1000 -0.2863
vt 0.2188 0.4250
vn 0.0000 1.0000 0.0000
f 973/973/973 974/974/974 975/975/975
v -0.7307 0.1000 -0.2243
vt 0.2188 0.4250
vn 0.0000 1.0000 0.0000
v -0.7844 0.1000 -0.3173
vt 0.2188 0.4250
vn 0.0000 1.0000 0.0000
v -0.7844 0.1000 -0.1933
vt 0.2188 0.4250
vn 0.0000 1.0000 0.0000
f 976/976/976 977/977/977 978/978/978
v -0.7844 0.1000 -0.1933
vt 0.2188 0.4250
vn 0.0000 1.0000 0.0000
v -0.7844 0.1000 -0.3173
vt 0.2188 0.4250
vn 0.0000 1.0000 0.0000
v -0.8380 0.1000 -0.2863
vt 0.2188 0.4250
vn 0.0000 1.0000 0.0000
f 979/979/979 980/980/980 981/981/981
v -0.7844 0.1000 -0.1933
vt 0.2188 0.4250
vn 0.0000 1.0000 0.0000
v -0.8380 0.1000 -0.2863
vt 0.2188 0.4250
vn 0.0000 1.0000 0.0000
v -0.8380 0.1000 -0.2243
vt 0.2188 0.4250
vn 0.0000 1.0000 0.0000
f 982/982/982 983/983/983 984/984/984
v -0.7307 0.1000 -0.2863
vt 0.2188 0.4250
vn 0.8095 0.3552 -0.4674
v -0.6977 0.0000 -0.2053
vt 0.2188 0.3250
vn 0.8095 0.3552 0.4674
v -0.6977 0.0000 -0.3053
vt 0.2188 0.3250
vn 0.8095 0.3552 -0.4674
f 985/985/985 986/986/986 987/987/987
v -0.6977 0.0000 -0.2053
vt 0.2188 0.3250
vn 0.8095 0.3552 0.4674
v -0.7307 0.1000 -0.2863
vt 0.2188 0.4250
vn 0.8095 0.3552 -0.4674
v -0.7307 0.1000 -0.2243
vt 0.2188 0.4250
vn 0.8095 0.3552 0.4674
f 988/988/988 989/989/989 990/990/990
v -0.7844 0.1000 -0.3173
vt 0.2188 0.4250
vn 0.0000 0.3552 -0.9348
v -0.6977 0.0000 -0.3053
vt 0.2188 0.3250
vn 0.8095 0.3552 -0.4674
v -0.7844 0.0000 -0.3553
vt 0.2188 0.3250
vn 0.0000 0.3552 -0.9348
f 991/991/991 992/992/992 993/993/993
v -0.6977 0.0000 -0.3053
vt 0.2188 0.3250
vn 0.8095 0.3552 -0.4674
v -0.7844 0.1000 -0.3173
vt 0.2188 0.4250
vn 0.0000 0.3552 -0.9348
v -0.7307 0.1000 -0.2863
vt 0.2188 0.4250
vn 0.8095 0.3552 -0.4674
f 994/994/994 995/995/995 996/996/996
v -0.7844 0.1000 -0.1933
vt 0.2188 0.4250
vn 0.0000 0.3552 0.9348
v -0.8710 0.0000 -0.2053
vt 0.2188 0.3250
vn -0.8095 0.3552 0.4674
v -0.7844 0.0000 -0.1553
vt 0.2188 0.3250
vn 0.0000 0.3552 0.9348
f 997/997/997 998/998/998 999/999/999
v -0.8710 0.0000 -0.2053
vt 0.2188 0.3250
vn -0.8095 0.3552 0.4674
v -0.7844 0.1000 -0.1933
vt 0.2188 0.4250
vn 0.0000 0.3552 0.9348
v -0.8380 0.1000 -0.2243
vt 0.2188 0.4250
vn -0.8095 0.3552 0.4674
f 1000/1000/1000 1001/1001/1001 1002/1002/1002
v -0.8710 0.0000 -0.2053
vt 0.2188 0.3250
vn -0.8095 0.3552 0.4674
v -0.8380 0.1000 -0.2863
vt 0.2188 0.4250
vn -0.8095 0.3552 -0.4674
v -0.8710 0.0000 -0.3053
vt 0.2188 0.3250
vn -0.8095 0.3552 -0.4674
f 1003/1003/1003 1004/1004/1004 1005/1005/1005
v -0.8380 0.1000 -0.2863
vt 0.2188 0.4250
vn -0.8095 0.3552 -0.4674
v -0.8710 0.0000 -0.2053
vt 0.2188 0.3250
vn -0.8095 0.3552 0.4674
v -0.8380 0.1000 -0.2243
vt 0.2188 0.4250
vn -0.8095 0.3552 0.4674
f 1006/1006/1006 1007/1007/1007 1008/1008/1008
v -0.7307 0.1000 -0.2243
vt 0.2188 0.4250
vn 0.8095 0.3552 0.4674
v -0.7844 0.0000 -0.1553
vt 0.2188 0.3250
vn 0.0000 0.3552 0.9348
v -0.6977 0.0000 -0.2053
vt 0.2188 0.3250
vn 0.8095 0.3552 0.4674
f 1009/1009/1009 1010/1010/1010 1011/1011/1011
v -0.7844 0.0000 -0.1553
vt 0.2188 0.3250
vn 0.0000 0.3552 0.9348
v -0.7307 0.1000 -0.2243
vt 0.2188 0.4250
vn 0.8095 0.3552 0.4674
v -0.7844 0.1000 -0.1933
vt 0.2188 0.4250
vn 0.0000 0.3552 0.9348
f 1012/1012/1012 1013/1013/1013 1014/1014/1014
v -0.8380 0.1000 -0.2863
vt 0.2188 0.4250
vn -0.8095 0.3552 -0.4674
v -0.7844 0.0000 -0.3553
vt 0.2188 0.3250
vn 0.0000 0.3552 -0.9348
v -0.8710 0.0000 -0.3053
vt 0.2188 0.3250
vn -0.8095 0.3552 -0.4674
f 1015/1015/1015 1016/1016/1016 1017/1017/1017
v -0.7844 0.0000 -0.3553
vt 0.2188 0.3250
vn 0.0000 0.3552 -0.9348
v -0.8380 0.1000 -0.2863
vt 0.2188 0.4250
vn -0.8095 0.3552 -0.4674
v -0.7844 0.1000 -0.3173
vt 0.2188 0.4250
vn 0.0000 0.3552 -0.9348
f 1018/1018/1018 1019/1019/1019 1020/1020/1020
v -0.0867 0.0000 0.8239
vt 0.2188 0.3250
vn 0.0000 -1.0000 0.0000
v -0.0001 0.0000 0.6739
vt 0.2188 0.3250
vn 0.0000 -1.0000 0.0000
v -0.0001 0.0000 0.7739
vt 0.2188 0.3250
vn 0.0000 -1.0000 0.0000
f 1021/1021/1021 1022/1022/1022 1023/1023/1023
v -0.0001 0.0000 0.6739
vt 0.2188 0.3250
vn 0.0000 -1.0000 0.0000
v -0.0867 0.0000 0.8239
vt 0.2188 0.3250
vn 0.0000 -1.0000 0.0000
v -0.0867 0.0000 0.6239
vt 0.2188 0.3250
vn 0.0000 -1.0000 0.0000
f 1024/1024/1024 1025/1025/1025 1026/1026/1026
v -0.0867 0.0000 0.6239
vt 0.2188 0.3250
vn 0.0000 -1.0000 0.0000
v -0.0867 0.0000 0.8239
vt 0.2188 0.3250
vn 0.0000 -1.0000 0.0000
v -0.1733 0.0000 0.7739
vt 0.2188 0.3250
vn 0.0000 -1.0000 0.0000
f 1027/1027/1027 1028/1028/1028 1029/1029/1029
v -0.0867 0.0000 0.6239
vt 0.2188 0.3250
vn 0.0000 -1.0000 0.0000
v -0.1733 0.0000 0.7739
vt 0.2188 0.3250
vn 0.0000 -1.0000 0.0000
v -0.1733 0.0000 0.6739
vt 0.2188 0.3250
vn 0.0000 -1.0000 0.0000
f 1030/1030/1030 1031/1031/1031 1032/1032/1032
v -0.0867 0.1000 0.6619
vt 0.2188 0.4250
vn 0.0000 1.0000 0.0000
v -0.0330 0.1000 0.7549
vt 0.2188 0.4250
vn 0.0000 1.0000 0.0000
v -0.0330 0.1000 0.6929
vt 0.2188 0.4250
vn 0.0000 1.0000 0.0000
f 1033/1033/1033 1034/1034/1034 1035/1035/1035
v -0.0330 0.1000 0.7549
vt 0.2188 0.4250
vn 0.0000 1.0000 0.0000
v -0.0867 0.1000 0.6619
vt 0.2188 0.4250
vn 0.0000 1.0000 0.0000
v -0.0867 0.1000 0.7859
vt 0.2188 0.4250
vn 0.0000 1.0000 0.0000
f 1036/1036/1036 1037/1037/1037 1038/1038/1038
v -0.0867 0.1000 0.7859
vt 0.2188 0.4250
vn 0.0000 1.0000 0.0000
v -0.0867 0.1000 0.6619
vt 0.2188 0.4250
vn 0.0000 1.0000 0.0000
v -0.1404 0.1000 0.6929
vt 0.2188 0.4250
vn 0.0000 1.0000 0.0000
f 1039/1039/1039 1040/1040/1040 1041/1041/1041
v -0.0867 0.1000 0.7859
vt 0.2188 0.4250
vn 0.0000 1.0000 0.0000
v -0.1404 0.1000 0.6929
vt 0.2188 0.4250
vn 0.0000 1.0000 0.0000
v -0.1404 0.1000 0.7549
vt 0.2188 0.4250
vn 0.0000 1.0000 0.0000
f 1042/1042/1042 1043/1043/1043 1044/1044/1044
v -0.0330 0.1000 0.6929
vt 0.2188 0.4250
vn 0.8095 0.3552 -0.4674
v -0.0001 0.0000 0.7739
vt 0.2188 0.3250
vn 0.8095 0.3552 0.4674
v -0.0001 0.0000 0.6739
vt 0.2188 0.3250
vn 0.8095 0.3552 -0.4674
f 1045/1045/1045 1046/1046/1046 1047/1047/1047
v -0.0001 0.0000 0.7739
vt 0.2188 0.3250
vn 0.8095 0.3552 0.4674
v -0.0330 0.1000 0.6929
vt 0.2188 0.4250
vn 0.8095 0.3552 -0.4674
v -0.0330 0.1000 0.7549
vt 0.2188 0.4250
vn 0.8095 0.3552 0.4674
f 1048/1048/1048 1049/1049/1049 1050/1050/1050
v -0.0867 0.1000 0.6619
vt 0.2188 0.4250
vn 0.0000 0.3552 -0.9348
v -0.0001 0.0000 0.6739
vt 0.2188 0.3250
vn 0.8095 0.3552 -0.4674
v -0.0867 0.0000 0.6239
vt 0.2188 0.3250
vn 0.0000 0.3552 -0.9348
f 1051/1051/1051 1052/1052/1052 1053/1053/1053
v -0.0001 0.0000 0.6739
vt 0.2188 0.3250
vn 0.8095 0.3552 -0.4674
v -0.0867 0.1000 0.6619
vt 0.2188 0.4250
vn 0.0000 0.3552 -0.9348
v -0.0330 0.1000 0.6929
vt 0.2188 0.4250
vn 0.8095 0.3552 -0.4674
f 1054/1054/1054 1055/1055/1055 1056/1056/1056
v -0.0867 0.1000 0.7859
vt 0.2188 0.4250
vn 0.0000 0.3552 0.9348
v -0.1733 0.0000 0.7739
vt 0.2188 0.3250
vn -0.8095 0.3552 0.4674
v -0.0867 0.0000 0.8239
vt 0.2188 0.3250
vn 0.0000 0.3552 0.9348
f 1057/1057/1057 1058/1058/1058 1059/1059/1059
v -0.1733 0.0000 0.7739
vt 0.2188 0.3250
vn -0.8095 0.3552 0.4674
v -0.0867 0.1000 0.7859
vt 0.2188 0.4250
vn 0.0000 0.3552 0.9348
v -0.1404 0.1000 0.7549
vt 0.2188 0.4250
vn -0.8095 0.3552 0.4674
f 1060/1060/1060 1061/1061/1061 1062/1062/1062
v -0.1733 0.0000 0.7739
vt 0.2188 0.3250
vn -0.8095 0.3552 0.4674
v -0.1404 0.1000 0.6929
vt 0.2188 0.4250
vn -0.8095 0.3552 -0.4674
v -0.1733 0.0000 0.6739
vt 0.2188 0.3250
vn -0.8095 0.3552 -0.4674
f 1063/1063/1063 1064/1064/1064 1065/1065/1065
v -0.1404 0.1000 0.6929
vt 0.2188 0.4250
vn -0.8095 0.3552 -0.4674
v -0.1733 0.0000 0.7739
vt 0.2188 0.3250
vn -0.8095 0.3552 0.4674
v -0.1404 0.1000 0.7549
vt 0.2188 0.4250
vn -0.8095 0.3552 0.4674
f 1066/1066/1066 1067/1067/1067 1068/1068/1068
v -0.0330 0.1000 0.7549
vt 0.2188 0.4250
vn 0.8095 0.3552 0.4674
v -0.0867 0.0000 0.8239
vt 0.2188 0.3250
vn 0.0000 0.3552 0.9348
v -0.0001 0.0000 0.7739
vt 0.2188 0.3250
vn 0.8095 0.3552 0.4674
f 1069/1069/1069 1070/1070/1070 1071/1071/1071
v -0.0867 0.0000 0.8239
vt 0.2188 0.3250
vn 0.0000 0.3552 0.9348
v -0.0330 0.1000 0.7549
vt 0.2188 0.4250
vn 0.8095 0.3552 0.4674
v -0.0867 0.1000 0.7859
vt 0.2188 0.4250
vn 0.0000 0.3552 0.9348
f 1072/1072/1072 1073/1073/1073 1074/1074/1074
v -0.1404 0.1000 0.6929
vt 0.2188 0.4250
vn -0.8095 0.3552 -0.4674
v -0.0867 0.0000 0.6239
vt 0.2188 0.3250
vn 0.0000 0.3552 -0.9348
v -0.1733 0.0000 0.6739
vt 0.2188 0.3250
vn -0.8095 0.3552 -0.4674
f 1075/1075/1075 1076/1076/1076 1077/1077/1077
v -0.0867 0.0000 0.6239
vt 0.2188 0.3250
vn 0.0000 0.3552 -0.9348
v -0.1404 0.1000 0.6929
vt 0.2188 0.4250
vn -0.8095 0.3552 -0.4674
v -0.0867 0.1000 0.6619
vt 0.2188 0.4250
vn 0.0000 0.3552 -0.9348
f 1078/1078/1078 1079/1079/1079 1080/1080/1080
v 0.6285 0.0000 0.3916
vt 0.2188 0.3250
vn 0.0000 -1.0000 0.0000
v 0.7151 0.0000 0.2416
vt 0.2188 0.3250
vn 0.0000 -1.0000 0.0000
v 0.7151 0.0000 0.3416
vt 0.2188 0.3250
vn 0.0000 -1.0000 0.0000
f 1081/1081/1081 1082/1082/1082 1083/1083/1083
v 0.7151 0.0000 0.2416
vt 0.2188 0.3250
vn 0.0000 -1.0000 0.0000
v 0.6285 0.0000 0.3916
vt 0.2188 0.3250
vn 0.0000 -1.0000 0.0000
v 0.6285 0.0000 0.1916
vt 0.2188 0.3250
vn 0.0000 -1.0000 0.0000
f 1084/1084/1084 1085/1085/1085 1086/1086/1086
v 0.6285 0.0000 0.1916
vt 0.2188 0.3250
vn 0.0000 -1.0000 0.0000
v 0.6285 0.0000 0.3916
vt 0.2188 0.3250
vn 0.0000 -1.0000 0.0000
v 0.5419 0.0000 0.3416
vt 0.2188 0.3250
vn 0.0000 -1.0000 0.0000
f 1087/1087/1087 1088/1088/1088 1089/1089/1089
v 0.6285 0.0000 0.1916
vt 0.2188 0.3250
vn 0.0000 -1.0000 0.0000
v 0.5419 0.0000 0.3416
vt 0.2188 0.3250
vn 0.0000 -1.0000 0.0000
v 0.5419 0.0000 0.2416
vt 0.2188 0.3250
vn 0.0000 -1.0000 0.0000
f 1090/1090/1090 1091/1091/1091 1092/1092/1092
v 0.6285 0.1000 0.2296
vt 0.2188 0.4250
vn 0.0000 1.0000 0.0000
v 0.6822 0.1000 0.3226
vt 0.2188 0.4250
vn 0.0000 1.0000 0.0000
v 0.6822 0.1000 0.2606
vt 0.2188 0.4250
vn 0.0000 1.0000 0.0000
f 1093/1093/1093 1094/1094/1094 1095/1095/1095
v 0.6822 0.1000 0.3226
vt 0.2188 0.4250
vn 0.0000 1.0000 0.0000
v 0.6285 0.1000 0.2296
vt 0.2188 0.4250
vn 0.0000 1.0000 0.0000
v 0.6285 0.1000 0.3536
vt 0.2188 0.4250
vn 0.0000 1.0000 0.0000
f 1096/1096/1096 1097/1097/1097 1098/1098/1098
v 0.6285 0.1000 0.3536
vt 0.2188 0.4250
vn 0.0000 1.0000 0.0000
v 0.6285 0.1000 0.2296
vt 0.2188 0.4250
vn 0.0000 1.0000 0.0000
v 0.5748 0.1000 0.2606
vt 0.2188 0.4250
vn 0.0000 1.0000 0.0000
f 1099/1099/1099 1100/1100/1100 1101/1101/1101
v 0.6285 0.1000 0.3536
vt 0.2188 0.4250
vn 0.0000 1.0000 0.0000
v 0.5748 0.1000 0.2606
vt 0.2188 0.4250
vn 0.0000 1.0000 0.0000
v 0.5748 0.1000 0.3226
vt 0.2188 0.4250
vn 0.0000 1.0000 0.0000
f 1102/1102/1102 1103/1103/1103 1104/1104/1104
v 0.6822 0.1000 0.2606
vt 0.2188 0.4250
vn 0.8095 0.3552 -0.4674
v 0.7151 0.0000 0.3416
vt 0.2188 0.3250
vn 0.8095 0.3552 0.4674
v 0.7151 0.0000 0.2416
vt 0.2188 0.3250
vn 0.8095 0.3552 -0.4674
f 1105/1105/1105 1106/1106/1106 1107/1107/1107
v 0.7151 0.0000 0.3416
vt 0.2188 0.3250
vn 0.8095 0.3552 0.4674
v 0.6822 0.1000 0.2606
vt 0.2188 0.4250
vn 0.8095 0.3552 -0.4674
v 0.6822 0.1000 0.3226
vt 0.2188 0.4250
vn 0.8095 0.3552 0.4674
f 1108/1108/1108 1109/1109/1109 1110/1110/1110
v 0.6285 0.1000 0.2296
vt 0.2188 0.4250
vn 0.0000 0.3552 -0.9348
v 0.7151 0.0000 0.2416
vt 0.2188 0.3250
vn 0.8095 0.3552 -0.4674
v 0.6285 0.0000 0.1916
vt 0.2188 0.3250
vn 0.0000 0.3552 -0.9348
f 1111/1111/1111 1112/1112/1112 1113/1113/1113
v 0.7151 0.0000 0.2416
vt 0.2188 0.3250
vn 0.8095 0.3552 -0.4674
v 0.6285 0.1000 0.2296
vt 0.2188 0.4250
vn 0.0000 0.3552 -0.9348
v 0.6822 0.1000 0.2606
vt 0.2188 0.4250
vn 0.8095 0.3552 -0.4674
f 1114/1114/1114 1115/1115/1115 1116/1116/1116
v 0.6285 0.1000 0.3536
vt 0.2188 0.4250
vn 0.0000 0.3552 0.9348
v 0.5419 0.0000 0.3416
vt 0.2188 0.3250
vn -0.8095 0.3552 0.4674
v 0.6285 0.0000 0.3916
vt 0.2188 0.3250
vn 0.0000 0.3552 0.9348
f 1117/1117/1117 1118/1118/1118 1119/1119/1119
v 0.5419 0.0000 0.3416
vt 0.2188 0.3250
vn -0.8095 0.3552 0.4674
v 0.6285 0.1000 0.3536
vt 0.2188 0.4250
vn 0.0000 0.3552 0.9348
v 0.5748 0.1000 0.3226
vt 0.2188 0.4250
vn -0.8095 0.3552 0.4674
f 1120/1120/1120 1121/1121/1121 1122/1122/1122
v 0.5419 0.0000 0.3416
vt 0.2188 0.3250
vn -0.8095 0.3552 0.4674
v 0.5748 0.1000 0.2606
vt 0.2188 0.4250
vn -0.8095 0.3552 -0.4674
v 0.5419 0.0000 0.2416
vt 0.2188 0.3250
vn -0.8095 0.3552 -0.4674
f 1123/1123/1123 1124/1124/1124 1125/1125/1125
v 0.5748 0.1000 0.2606
vt 0.2188 0.4250
vn -0.8095 0.3552 -0.4674
v 0.5419 0.0000 0.3416
vt 0.2188 0.3250
vn -0.8095 0.3552 0.4674
v 0.5748 0.1000 0.3226
vt 0.2188 0.4250
vn -0.8095 0.3552 0.4674
f 1126/1126/1126 1127/1127/1127 1128/1128/1128
v 0.6822 0.1000 0.3226
vt 0.2188 0.4250
vn 0.8095 0.3552 0.4674
v 0.6285 0.0000 0.3916
vt 0.2188 0.3250
vn 0.0000 0.3552 0.9348
v 0.7151 0.0000 0.3416
vt 0.2188 0.3250
vn 0.8095 0.3552 0.4674
f 1129/1129/1129 1130/1130/1130 1131/1131/1131
v 0.6285 0.0000 0.3916
vt 0.2188 0.3250
vn 0.0000 0.3552 0.9348
v 0.6822 0.1000 0.3226
vt 0.2188 0.4250
vn 0.8095 0.3552 0.4674
v 0.6285 0.1000 0.3536
vt 0.2188 0.4250
vn 0.0000 0.3552 0.9348
f 1132/1132/1132 1133/1133/1133 1134/1134/1134
v 0.5748 0.1000 0.2606
vt 0.2188 0.4250
vn -0.8095 0.3552 -0.4674
v 0.6285 0.0000 0.1916
vt 0.2188 0.3250
vn 0.0000 0.3552 -0.9348
v 0.5419 0.0000 0.2416
vt 0.2188 0.3250
vn -0.8095 0.3552 -0.4674
f 1135/1135/1135 1136/1136/1136 1137/1137/1137
v 0.6285 0.0000 0.1916
vt 0.2188 0.3250
vn 0.0000 0.3552 -0.9348
v 0.5748 0.1000 0.2606
vt 0.2188 0.4250
vn -0.8095 0.3552 -0.4674
v 0.6285 0.1000 0.2296
vt 0.2188 0.4250
vn 0.0000 0.3552 -0.9348
f 1138/1138/1138 1139/1139/1139 1140/1140/1140
v -0.2566 0.2755 0.2848
vt 0.2188 0.3250
vn 0.0000 -1.0000 0.0000
v -0.1700 0.2755 0.1348
vt 0.2188 0.3250
vn 0.0000 -1.0000 0.0000
v -0.1700 0.2755 0.2348
vt 0.2188 0.3250
vn 0.0000 -1.0000 0.0000
f 1141/1141/1141 1142/1142/1142 1143/1143/1143
v -0.1700 0.2755 0.1348
vt 0.2188 0.3250
vn 0.0000 -1.0000 0.0000
v -0.2566 0.2755 0.2848
vt 0.2188 0.3250
vn 0.0000 -1.0000 0.0000
v -0.2566 0.2755 0.0848
vt 0.2188 0.3250
vn 0.0000 -1.0000 0.0000
f 1144/1144/1144 1145/1145/1145 1146/1146/1146
v -0.2566 0.2755 0.0848
vt 0.2188 0.3250
vn 0.0000 -1.0000 0.0000
v -0.2566 0.2755 0.2848
vt 0.2188 0.3250
vn 0.0000 -1.0000 0.0000
v -0.3432 0.2755 0.2348
vt 0.2188 0.3250
vn 0.0000 -1.0000 0.0000
f 1147/1147/1147 1148/1148/1148 1149/1149/1149
v -0.2566 0.2755 0.0848
vt 0.2188 0.3250
vn 0.0000 -1.0000 0.0000
v -0.3432 0.2755 0.2348
vt 0.2188 0.3250
vn 0.0000 -1.0000 0.0000
v -0.3432 0.2755 0.1348
vt 0.2188 0.3250
vn 0.0000 -1.0000 0.0000
f 1150/1150/1150 1151/1151/1151 1152/1152/1152
v -0.2566 0.3755 0.1228
vt 0.2188 0.4250
vn 0.0000 1.0000 0.0000
v -0.2029 0.3755 0.2158
vt 0.2188 0.4250
vn 0.0000 1.0000 0.0000
v -0.2029 0.3755 0.1538
vt 0.2188 0.4250
vn 0.0000 1.0000 0.0000
f 1153/1153/1153 1154/1154/1154 1155/1155/1155
v -0.2029 0.3755 0.2158
vt 0.2188 0.4250
vn 0.0000 1.0000 0.0000
v -0.2566 0.3755 0.1228
vt 0.2188 0.4250
vn 0.0000 1.0000 0.0000
v -0.2566 0.3755 0.2468
vt 0.2188 0.4250
vn 0.0000 1.0000 0.0000
f 1156/1156/1156 1157/1157/1157 1158/1158/1158
v -0.2566 0.3755 0.2468
vt 0.2188 0.4250
vn 0.0000 1.0000 0.0000
v -0.2566 0.3755 0.1228
vt 0.2188 0.4250
vn 0.0000 1.0000 0.0000
v -0.3103 0.3755 0.1538
vt 0.2188 0.4250
vn 0.0000 1.0000 0.0000
f 1159/1159/1159 1160/1160/1160 1161/1161/1161
v -0.2566 0.3755 0.2468
vt 0.2188 0.4250
vn 0.0000 1.0000 0.0000
v -0.3103 0.3755 0.1538
vt 0.2188 0.4250
vn 0.0000 1.0000 0.0000
v -0.3103 0.3755 0.2158
vt 0.2188 0.4250
vn 0.0000 1.0000 0.0000
f 1162/1162/1162 1163/1163/1163 1164/1164/1164
v -0.2029 0.3755 0.1538
vt 0.2188 0.4250
vn 0.8095 0.3552 -0.4674
v -0.1700 0.2755 0.2348
vt 0.2188 0.3250
vn 0.8095 0.3552 0.4674
v -0.1700 0.2755 0.1348
vt 0.2188 0.3250
vn 0.8095 0.3552 -0.4674
f 1165/1165/1165 1166/1166/1166 1167/1167/1167
v -0.1700 0.2755 0.2348
vt 0.2188 0.3250
vn 0.8095 0.3552 0.4674
v -0.2029 0.3755 0.1538
vt 0.2188 0.4250
vn 0.8095 0.3552 -0.4674
v -0.2029 0.3755 0.2158
vt 0.2188 0.4250
vn 0.8095 0.3552 0.4674
f 1168/1168/1168 1169/1169/1169 1170/1170/1170
v -0.2566 0.3755 0.1228
vt 0.2188 0.4250
vn 0.0000 0.3552 -0.9348
v -0.1700 0.2755 0.1348
vt 0.2188 0.3250
vn 0.8095 0.3552 -0.4674
v -0.2566 0.2755 0.0848
vt 0.2188 0.3250
vn 0.0000 0.3552 -0.9348
f 1171/1171/1171 1172/1172/1172 1173/1173/1173
v -0.1700 0.2755 0.1348
vt 0.2188 0.3250
vn 0.8095 0.3552 -0.4674
v -0.2566 0.3755 0.1228
vt 0.2188 0.4250
vn 0.0000 0.3552 -0.9348
v -0.2029 0.3755 0.1538
vt 0.2188 0.4250
vn 0.8095 0.3552 -0.4674
f 1174/1174/1174 1175/1175/1175 1176/1176/1176
v -0.2566 0.3755 0.2468
vt 0.2188 0.4250
vn 0.0000 0.3552 0.9348
v -0.3432 0.2755 0.2348
vt 0.2188 0.3250
vn -0.8095 0.3552 0.4674
v -0.2566 0.2755 0.2848
vt 0.2188 0.3250
vn 0.0000 0.3552 0.9348
f 1177/1177/1177 1178/1178/1178 1179/1179/1179
v -0.3432 0.2755 0.2348
vt 0.2188 0.3250
vn -0.8095 0.3552 0.4674
v -0.2566 0.3755 0.2468
vt 0.2188 0.4250
vn 0.0000 0.3552 0.9348
v -0.3103 0.3755 0.2158
vt 0.2188 0.4250
vn -0.8095 0.3552 0.4674
f 1180/1180/1180 1181/1181/1181 1182/1182/1182
v -0.3432 0.2755 0.2348
vt 0.2188 0.3250
vn -0.8095 0.3552 0.4674
v -0.3103 0.3755 0.1538
vt 0.2188 0.4250
vn -0.8095 0.3552 -0.4674
v -0.3432 0.2755 0.1348
vt 0.2188 0.3250
vn -0.8095 0.3552 -0.4674
f 1183/1183/1183 1184/1184/1184 1185/1185/1185
v -0.3103 0.3755 0.1538
vt 0.2188 0.4250
vn -0.8095 0.3552 -0.4674
v -0.3432 0.2755 0.2348
vt 0.2188 0.3250
vn -0.8095 0.3552 0.4674
v -0.3103 0.3755 0.2158
vt 0.2188 0.4250
vn -0.8095 0.3552 0.4674
f 1186/1186/1186 1187/1187/1187 1188/1188/1188
v -0.2029 0.3755 0.2158
vt 0.2188 0.4250
vn 0.8095 0.3552 0.4674
v -0.2566 0.2755 0.2848
vt 0.2188 0.3250
vn 0.0000 0.3552 0.9348
v -0.1700 0.2755 0.2348
vt 0.2188 0.3250
vn 0.8095 0.3552 0.4674
f 1189/1189/1189 1190/1190/1190 1191/1191/1191
v -0.2566 0.2755 0.2848
vt 0.2188 0.3250
vn 0.0000 0.3552 0.9348
v -0.2029 0.3755 0.2158
vt 0.2188 0.4250
vn 0.8095 0.3552 0.4674
v -0.2566 0.3755 0.2468
vt 0.2188 0.4250
vn 0.0000 0.3552 0.9348
f 1192/1192/1192 1193/1193/1193 1194/1194/1194
v -0.3103 0.3755 0.1538
vt 0.2188 0.4250
vn -0.8095 0.3552 -0.4674
v -0.2566 0.2755 0.0848
vt 0.2188 0.3250
vn 0.0000 0.3552 -0.9348
v -0.3432 0.2755 0.1348
vt 0.2188 0.3250
vn -0.8095 0.3552 -0.4674
f 1195/1195/1195 1196/1196/1196 1197/1197/1197
v -0.2566 0.2755 0.0848
vt 0.2188 0.3250
vn 0.0000 0.3552 -0.9348
v -0.3103 0.3755 0.1538
vt 0.2188 0.4250
vn -0.8095 0.3552 -0.4674
v -0.2566 0.3755 0.1228
vt 0.2188 0.4250
vn 0.0000 0.3552 -0.9348
f 1198/1198/1198 1199/1199/1199 1200/1200/1200
