# Blender 4.5.13 LTS
# www.blender.org
o rock
v -0.007536 0.000205 0.002485
v 0.068763 0.008491 -0.314179
v 0.274406 0.010564 0.015321
v 0.100788 0.016853 0.328271
v -0.200237 0.050089 0.160511
v -0.228921 0.039432 -0.185658
v 0.200230 0.243606 -0.133259
v 0.168269 0.248551 0.140449
v -0.061155 0.270679 0.252091
v -0.279343 0.294896 -0.010639
v -0.085609 0.268804 -0.291942
v 0.020305 0.441583 0.001714
v 0.237268 -0.011604 0.014013
v 0.167561 -0.008242 0.010730
v 0.075281 -0.003790 0.006385
v 0.013366 -0.002235 -0.085148
v 0.039001 -0.005228 -0.192632
v 0.058634 -0.007520 -0.274948
v 0.135525 -0.006821 -0.253603
v 0.212853 -0.013497 -0.177223
v 0.251588 -0.006987 -0.071514
v -0.177830 0.019154 -0.238492
v -0.102992 0.003245 -0.287520
v -0.013613 -0.002002 -0.317795
v -0.075698 0.002617 -0.054889
v -0.139568 0.004878 -0.108649
v -0.200374 0.007031 -0.159830
v 0.079356 0.000205 0.266012
v 0.055278 0.000205 0.192990
v 0.021649 0.000205 0.090997
v 0.257376 -0.002946 0.099981
v 0.222434 -0.007936 0.196052
v 0.160817 0.001116 0.271875
v -0.175232 0.010630 0.139223
v -0.124065 0.007449 0.097502
v -0.065984 0.003838 0.050143
v 0.017800 0.009109 0.318527
v -0.070379 0.019396 0.268195
v -0.142887 0.035430 0.210453
v -0.227601 0.037004 0.085091
v -0.253880 0.024690 -0.009352
v -0.247857 0.028878 -0.106947
v -0.056856 0.218671 -0.316713
v -0.017174 0.149227 -0.347514
v 0.027438 0.076266 -0.329196
v -0.230276 0.088410 -0.252015
v -0.196744 0.158868 -0.295361
v -0.141015 0.225456 -0.301021
v 0.252552 0.202279 -0.129513
v 0.287837 0.138363 -0.094907
v 0.289569 0.067203 -0.036980
v 0.118546 0.069809 -0.303353
v 0.157484 0.130997 -0.256959
v 0.182743 0.189392 -0.190577
v 0.164296 0.198439 0.196617
v 0.159708 0.140624 0.261432
v 0.147415 0.079301 0.314683
v 0.267962 0.065279 0.054038
v 0.231849 0.129706 0.087141
v 0.197673 0.192913 0.116415
v -0.115572 0.223169 0.271605
v -0.160587 0.166154 0.265251
v -0.187588 0.100419 0.212945
v 0.060778 0.084868 0.338562
v 0.017460 0.158122 0.348625
v -0.024056 0.216571 0.298328
v -0.294438 0.239287 -0.067086
v -0.302493 0.166816 -0.124132
v -0.274911 0.093382 -0.166150
v -0.235552 0.102858 0.130298
v -0.286374 0.169557 0.094424
v -0.298566 0.243493 0.038129
v -0.029419 0.275215 -0.273147
v 0.048395 0.264135 -0.226053
v 0.129931 0.252823 -0.176459
v 0.240188 0.272915 -0.080229
v 0.219135 0.273752 -0.012650
v 0.190362 0.260960 0.072607
v 0.135198 0.272512 0.202939
v 0.099602 0.296964 0.271430
v 0.016355 0.283532 0.262031
v -0.131254 0.297516 0.216626
v -0.209831 0.327981 0.174916
v -0.258158 0.319191 0.073381
v -0.241652 0.283362 -0.080814
v -0.189549 0.274185 -0.161636
v -0.133711 0.269745 -0.235343
v 0.077252 0.439880 -0.056094
v 0.124949 0.375030 -0.079336
v 0.167004 0.304903 -0.106746
v -0.054645 0.307667 -0.233957
v -0.024582 0.355566 -0.153339
v 0.006402 0.405574 -0.068719
v 0.083929 0.445862 0.053751
v 0.133390 0.387407 0.102052
v 0.151704 0.311381 0.125075
v -0.006794 0.456880 0.085336
v -0.029610 0.407984 0.165222
v -0.047080 0.334621 0.211488
v -0.046803 0.415311 0.014688
v -0.132817 0.376411 0.018811
v -0.213801 0.332130 0.004382
v -0.074721 0.367158 -0.068961
v -0.106174 0.314533 -0.159315
v -0.165906 0.323000 -0.071573
v -0.095825 0.426128 0.095951
v -0.192725 0.380552 0.096403
v -0.123446 0.373275 0.166370
v 0.064433 0.417027 0.152080
v 0.042072 0.355545 0.218694
v 0.110405 0.351192 0.194033
v 0.154470 0.409255 0.002437
v 0.176616 0.334885 0.039842
v 0.206143 0.343268 -0.046844
v 0.046943 0.386036 -0.126631
v 0.085264 0.320589 -0.152882
v 0.007219 0.325660 -0.205097
v -0.210029 0.228529 -0.247713
v -0.253840 0.162986 -0.213660
v -0.266249 0.238637 -0.160014
v -0.266593 0.252192 0.142340
v -0.232404 0.168449 0.189502
v -0.196440 0.247587 0.235195
v 0.062345 0.226962 0.312118
v 0.108272 0.154000 0.328370
v 0.127966 0.219261 0.270316
v 0.228477 0.199829 0.031362
v 0.266284 0.131728 -0.002694
v 0.260387 0.209014 -0.058597
v 0.102161 0.196490 -0.242955
v 0.071975 0.140150 -0.311203
v 0.016809 0.209254 -0.294110
v -0.317749 0.169327 -0.014966
v -0.285766 0.091299 -0.066619
v -0.270525 0.094948 0.041239
v -0.078437 0.159519 0.324419
v -0.122849 0.088118 0.284551
v -0.030788 0.079749 0.343384
v 0.196935 0.131970 0.174266
v 0.195476 0.061131 0.243045
v 0.235811 0.057297 0.143512
v 0.236904 0.139038 -0.192943
v 0.264551 0.056560 -0.141250
v 0.201321 0.056869 -0.243609
v -0.109782 0.154000 -0.332950
v -0.062661 0.073060 -0.333504
v -0.152721 0.079553 -0.297088
v -0.204223 0.008828 -0.060280
v -0.137475 0.006472 -0.003636
v -0.188476 0.009750 0.044542
v -0.103913 0.008024 0.194183
v -0.042347 0.004268 0.148438
v -0.012012 0.004474 0.253183
v 0.144280 -0.004040 0.200190
v 0.119673 -0.004299 0.109557
v 0.204653 -0.008460 0.109721
v -0.134641 0.002856 -0.218868
v -0.038317 -0.002565 -0.262272
v -0.061626 0.000205 -0.161564
v 0.200102 -0.011422 -0.087421
v 0.107442 -0.006944 -0.091270
v 0.136221 -0.010059 -0.196808
v -0.183474 0.000560 0.271181
v -0.161043 -0.002235 0.224914
v -0.140256 -0.006203 0.284944
v -0.178172 0.002978 0.329319
v -0.228243 0.012873 0.294408
v -0.210838 0.010187 0.229652
v -0.132336 0.026695 0.248626
v -0.147125 0.029494 0.310819
v -0.196365 0.042097 0.316828
v -0.220366 0.048274 0.255541
v -0.178635 0.036331 0.222987
v -0.170767 0.053278 0.270150
v -0.160926 -0.004731 0.278525
v -0.172030 -0.002682 0.246444
v -0.146996 -0.007421 0.252457
v -0.186621 0.001882 0.227587
v -0.199973 0.004061 0.246813
v -0.180806 0.000560 0.304078
v -0.156072 -0.004646 0.311434
v -0.208856 0.006935 0.284290
v -0.206589 0.007109 0.321143
v -0.229568 0.011377 0.256168
v -0.168023 0.016926 0.223743
v -0.197204 0.024144 0.226526
v -0.128008 0.007679 0.266682
v -0.143019 0.010610 0.231499
v -0.159605 0.015554 0.326552
v -0.135418 0.010219 0.305199
v -0.216740 0.029963 0.312500
v -0.188781 0.023571 0.330249
v -0.224238 0.030250 0.234754
v -0.232566 0.033048 0.275163
v -0.152869 0.033579 0.224595
v -0.131733 0.030065 0.284168
v -0.171521 0.037475 0.317000
v -0.211693 0.048380 0.289786
v -0.201476 0.044615 0.230219
v -0.148059 0.045013 0.258168
v -0.173948 0.051158 0.237280
v -0.154417 0.047130 0.295256
v -0.183967 0.053556 0.297058
v -0.196971 0.058174 0.261732
v -0.340046 0.000079 -0.067500
v -0.374483 0.002608 -0.034125
v -0.376237 -0.000275 -0.095211
v -0.325376 0.003193 -0.121799
v -0.298334 0.008016 -0.072611
v -0.326235 0.004788 -0.014052
v -0.391691 0.033782 -0.062634
v -0.355964 0.033928 -0.117336
v -0.307128 0.037924 -0.101845
v -0.308088 0.039795 -0.041374
v -0.357268 0.035919 -0.016986
v -0.344727 0.055628 -0.066728
v -0.359038 -0.001896 -0.082117
v -0.360260 -0.001186 -0.047613
v -0.378868 -0.000757 -0.062962
v -0.354572 0.000079 -0.014764
v -0.331558 0.001573 -0.035073
v -0.332215 0.000079 -0.095926
v -0.352723 -0.001991 -0.115886
v -0.315212 0.002140 -0.070453
v -0.307657 0.003995 -0.099566
v -0.302268 0.004007 -0.038424
v -0.371753 0.018658 -0.015837
v -0.342750 0.021437 -0.003556
v -0.391480 0.015410 -0.081668
v -0.390730 0.016387 -0.043062
v -0.341382 0.017927 -0.128573
v -0.369100 0.016629 -0.111324
v -0.300290 0.023059 -0.089059
v -0.311877 0.020537 -0.118619
v -0.309199 0.024013 -0.016357
v -0.294196 0.024390 -0.054870
v -0.379373 0.037658 -0.033113
v -0.379648 0.036818 -0.096263
v -0.332061 0.036271 -0.109762
v -0.304577 0.040793 -0.072988
v -0.331334 0.040892 -0.022449
v -0.374434 0.052295 -0.064937
v -0.353032 0.051288 -0.037516
v -0.351977 0.047847 -0.096976
v -0.321803 0.053143 -0.090382
v -0.322978 0.054341 -0.052158
vn -0.0489 -0.9987 0.0161
vn 0.2680 -0.5621 -0.7825
vn 0.8651 -0.4973 0.0651
vn 0.2099 -0.5800 0.7871
vn -0.7383 -0.4841 0.4696
vn -0.6959 -0.6417 -0.3224
vn 0.4870 0.5555 -0.6740
vn 0.8831 0.3174 0.3456
vn -0.1958 0.5560 0.8078
vn -0.7375 0.6515 -0.1781
vn -0.1649 0.6952 -0.6997
vn -0.2213 0.9442 -0.2440
vn 0.2306 -0.9730 0.0122
vn 0.0336 -0.9857 -0.1653
vn 0.3311 -0.8164 -0.4731
vn 0.4768 -0.8243 -0.3052
vn 0.5934 -0.7963 -0.1178
vn -0.4883 -0.7496 -0.4469
vn -0.3152 -0.7917 -0.5233
vn -0.0594 -0.7428 -0.6668
vn -0.3572 -0.9251 -0.1289
vn -0.0143 -0.9923 0.1229
vn 0.7552 -0.6170 0.2213
vn 0.6501 -0.6753 0.3483
vn 0.4548 -0.7439 0.4897
vn -0.4007 -0.8827 0.2456
vn -0.1388 -0.7649 0.6290
vn -0.4005 -0.7861 0.4708
vn -0.5559 -0.6604 0.5048
vn -0.7218 -0.6327 0.2807
vn -0.6806 -0.7252 0.1038
vn -0.6838 -0.7213 -0.1102
vn 0.0751 0.4441 -0.8928
vn 0.1383 0.1821 -0.9735
vn 0.1887 -0.0900 -0.9779
vn -0.7296 -0.3136 -0.6077
vn -0.6019 0.0739 -0.7952
vn -0.3722 0.5123 -0.7740
vn 0.7615 0.4424 -0.4737
vn 0.9776 0.1548 -0.1426
vn 0.9957 -0.0898 0.0225
vn 0.4916 -0.0347 -0.8701
vn 0.5452 0.3877 -0.7432
vn 0.8456 0.2975 0.4432
vn 0.6429 0.0229 0.7656
vn 0.9465 0.1501 0.2857
vn -0.3034 0.4490 0.8404
vn -0.6279 -0.0075 0.7782
vn -0.7400 -0.3475 0.5758
vn 0.1306 -0.1057 0.9858
vn -0.0243 0.2455 0.9691
vn -0.8739 0.4381 -0.2106
vn -0.9609 0.0117 -0.2768
vn -0.8914 -0.3250 -0.3159
vn -0.8325 -0.3665 0.4154
vn -0.9122 -0.1919 0.3621
vn -0.9572 0.2476 0.1500
vn 0.2781 0.6449 -0.7119
vn 0.8303 0.4954 -0.2555
vn 0.8895 0.3255 0.3205
vn 0.4396 0.5239 0.7296
vn -0.1906 0.5571 0.8083
vn -0.2004 0.5577 0.8055
vn -0.5557 0.5900 0.5858
vn -0.7763 0.6234 0.0930
vn -0.4995 0.7943 -0.3458
vn -0.3995 0.8458 -0.3536
vn -0.4083 0.8237 -0.3934
vn 0.1743 0.8920 -0.4172
vn 0.5126 0.6100 -0.6042
vn -0.1702 0.8553 -0.4894
vn -0.2657 0.8570 -0.4416
vn -0.3455 0.8493 -0.3992
vn 0.3405 0.9318 0.1254
vn 0.7526 0.5602 0.3462
vn -0.1241 0.9860 0.1113
vn -0.1533 0.7497 0.6438
vn -0.3897 0.8570 -0.3371
vn -0.4490 0.8421 -0.2987
vn -0.3746 0.9235 0.0825
vn -0.5299 0.8456 0.0643
vn -0.2866 0.7062 0.6474
vn 0.2976 0.8023 0.5175
vn 0.0133 0.6610 0.7502
vn 0.6508 0.5665 0.5054
vn 0.7007 0.7131 -0.0214
vn 0.8764 0.3539 0.3267
vn 0.7978 0.5729 -0.1881
vn 0.1473 0.7645 -0.6276
vn 0.2400 0.7292 -0.6409
vn -0.6023 0.5773 -0.5513
vn -0.8478 0.1045 -0.5198
vn -0.7176 0.5684 -0.4024
vn -0.8753 0.1997 0.4404
vn -0.8015 -0.1854 0.5686
vn -0.5447 0.2850 0.7887
vn 0.1352 0.4778 0.8680
vn 0.4923 0.2321 0.8389
vn 0.7693 0.3234 0.5510
vn 0.9181 0.2708 0.2893
vn 0.9356 0.3257 0.1364
vn 0.4333 0.3284 -0.8393
vn 0.4100 0.5300 -0.7423
vn -0.9940 -0.0936 0.0574
vn -0.9186 -0.3942 -0.0282
vn -0.8800 -0.3955 0.2632
vn -0.4013 0.2268 0.8874
vn -0.6199 -0.3449 0.7048
vn -0.2817 -0.2673 0.9215
vn 0.8664 0.0965 0.4899
vn 0.9144 0.2018 0.3510
vn 0.7284 0.2720 -0.6288
vn 0.8978 -0.2393 -0.3697
vn 0.6867 -0.1576 -0.7097
vn -0.2757 0.0717 -0.9586
vn -0.1916 -0.2426 -0.9510
vn -0.4538 -0.3339 -0.8262
vn -0.2095 -0.9778 -0.0006
vn -0.2280 -0.9705 0.0787
vn -0.2248 -0.9542 0.1974
vn -0.1125 -0.9888 0.0986
vn -0.0394 -0.9984 0.0395
vn 0.0163 -0.9997 0.0181
vn -0.1529 -0.9855 -0.0737
vn -0.0594 -0.9981 -0.0143
vn 0.0068 -0.9999 0.0132
vn -0.0345 -0.9993 -0.0141
vn -0.2343 -0.9720 0.0190
vn 0.1502 -0.6540 -0.7415
vn 0.4697 -0.8732 0.1302
vn -0.0252 -0.6359 0.7713
vn -0.8106 -0.5120 0.2842
vn -0.4325 -0.5483 -0.7158
vn 0.8874 0.3208 -0.3310
vn 0.6086 0.4889 0.6250
vn -0.2164 0.7197 0.6597
vn -0.6205 0.7634 -0.1794
vn -0.0296 0.3226 -0.9461
vn 0.2485 0.9686 0.0005
vn -0.1654 -0.9859 0.0258
vn -0.1997 -0.9789 -0.0429
vn 0.3305 -0.9229 -0.1974
vn -0.2341 -0.7033 -0.6712
vn -0.2641 -0.9629 -0.0554
vn -0.2214 -0.9735 0.0568
vn 0.2321 -0.8722 0.4306
vn -0.2512 -0.9676 0.0257
vn -0.5169 -0.6017 0.6089
vn -0.7807 -0.6024 -0.1661
vn 0.0476 -0.0742 -0.9961
vn -0.2002 0.0048 -0.9797
vn 0.9449 -0.3143 -0.0918
vn 0.6818 -0.2587 -0.6843
vn 0.4479 0.0334 0.8935
vn 0.8338 -0.1923 0.5176
vn -0.7034 0.3305 0.6293
vn -0.1359 0.2468 0.9595
vn -0.7374 0.1794 -0.6512
vn -0.9398 0.3260 0.1026
vn 0.4494 0.3903 -0.8036
vn 0.8754 0.4494 0.1783
vn 0.2449 0.6723 0.6986
vn -0.4887 0.8237 0.2876
vn -0.2767 0.6120 -0.7409
vn 0.5381 0.8322 -0.1341
vn 0.1737 0.8843 -0.4335
vn 0.4401 0.8421 0.3118
vn 0.0296 0.9453 0.3250
vn -0.1308 0.9886 -0.0744
vn 0.0855 -0.9961 0.0235
vn -0.5144 -0.7941 0.3237
vn -0.5577 -0.7553 -0.3444
vn 0.3155 -0.6745 -0.6675
vn 0.8037 -0.5856 -0.1053
vn 0.3094 -0.7085 0.6342
vn -0.9187 0.3947 0.0159
vn -0.2852 0.5629 -0.7758
vn 0.6790 0.5528 -0.4831
vn 0.6613 0.6785 0.3199
vn -0.2593 0.6432 0.7204
vn -0.0569 0.9976 -0.0402
vn 0.0032 -1.0000 0.0057
vn -0.0272 -0.9980 0.0565
vn -0.4704 -0.8813 0.0445
vn -0.1939 -0.7953 0.5744
vn 0.1013 -0.9929 0.0622
vn 0.1229 -0.9922 -0.0214
vn -0.2431 -0.8005 -0.5478
vn 0.1915 -0.9815 -0.0026
vn 0.6523 -0.7115 -0.2613
vn 0.6641 -0.6996 0.2637
vn -0.6286 -0.0465 0.7763
vn -0.0054 0.1218 0.9925
vn -0.9398 -0.2126 -0.2674
vn -0.9212 -0.2220 0.3196
vn -0.0755 0.1041 -0.9917
vn -0.6632 -0.0847 -0.7437
vn 0.9660 0.0684 -0.2494
vn 0.6364 0.1404 -0.7585
vn 0.6669 0.1826 0.7224
vn 0.9802 0.1696 0.1025
vn -0.6571 0.5721 0.4908
vn -0.6893 0.5128 -0.5118
vn 0.1357 0.7099 -0.6911
vn 0.7817 0.6214 -0.0528
vn 0.2066 0.7680 0.6062
vn -0.4567 0.8893 -0.0220
vn -0.1334 0.9142 0.3827
vn -0.1488 0.8859 -0.4393
vn 0.2754 0.9028 -0.3304
vn 0.3306 0.9232 0.1960
vt 0.176395 0.226909
vt 0.212439 0.170746
vt 0.233400 0.249844
vt 0.306252 0.024029
vt 0.290507 0.049107
vt 0.250272 0.001504
vt 0.175187 0.295908
vt 0.123843 0.245963
vt 0.142714 0.170167
vt 0.597736 0.690259
vt 0.564702 0.741758
vt 0.538722 0.682420
vt 0.385878 0.172525
vt 0.378223 0.115400
vt 0.425524 0.130898
vt 0.411354 0.429683
vt 0.391789 0.378073
vt 0.449695 0.409415
vt 0.304291 0.570360
vt 0.312975 0.626187
vt 0.274819 0.593542
vt 0.776733 0.288675
vt 0.755332 0.232160
vt 0.809350 0.259434
vt 0.587198 0.632233
vt 0.425795 0.200138
vt 0.304455 0.826720
vt 0.250678 0.847516
vt 0.264603 0.799657
vt 0.731315 0.045814
vt 0.760075 0.001922
vt 0.771713 0.053425
vt 0.822456 0.327163
vt 0.540247 0.489410
vt 0.498635 0.528067
vt 0.491940 0.476634
vt 0.572229 0.276987
vt 0.579059 0.223951
vt 0.620547 0.267770
vt 0.140086 0.676863
vt 0.119884 0.729520
vt 0.086401 0.666936
vt 0.733778 0.715651
vt 0.690259 0.666520
vt 0.750208 0.667324
vt 0.987419 0.715402
vt 0.932782 0.721263
vt 0.963140 0.670290
vt 0.883211 0.559056
vt 0.809680 0.556431
vt 0.844355 0.519362
vt 0.924253 0.615843
vt 0.851322 0.610839
vt 0.895789 0.670434
vt 0.773110 0.609418
vt 0.816950 0.670069
vt 0.864319 0.724561
vt 0.792850 0.722367
vt 0.781334 0.500391
vt 0.739151 0.552080
vt 0.700592 0.613609
vt 0.725510 0.483898
vt 0.060022 0.528709
vt 0.064642 0.598821
vt 0.011958 0.587845
vt 0.024639 0.656513
vt 0.110449 0.482685
vt 0.112038 0.549330
vt 0.127131 0.617073
vt 0.839038 0.458674
vt 0.772387 0.431395
vt 0.058179 0.725559
vt 0.709928 0.301607
vt 0.678827 0.253125
vt 0.729602 0.226927
vt 0.000856 0.711920
vt 0.046269 0.761235
vt 0.654456 0.324127
vt 0.098252 0.785649
vt 0.323691 0.763598
vt 0.370498 0.790603
vt 0.323691 0.817421
vt 0.615438 0.382762
vt 0.593516 0.327492
vt 0.903463 0.508641
vt 0.693221 0.177383
vt 0.635295 0.201509
vt 0.901573 0.438881
vt 0.940723 0.492721
vt 0.638411 0.133663
vt 0.956416 0.431395
vt 0.493230 0.431395
vt 0.434548 0.464530
vt 0.585459 0.157169
vt 0.582849 0.104834
vt 0.546523 0.448600
vt 0.387981 0.507001
vt 0.377173 0.458452
vt 0.441056 0.518873
vt 0.936394 0.559386
vt 0.397455 0.564604
vt 0.970539 0.619531
vt 0.450058 0.572564
vt 0.403556 0.614875
vt 0.999144 0.672924
vt 0.971904 0.755410
vt 0.882357 0.350515
vt 0.924034 0.303183
vt 0.934987 0.350893
vt 0.868452 0.284168
vt 0.910427 0.775295
vt 0.913548 0.231698
vt 0.833003 0.772710
vt 0.853668 0.213488
vt 0.897325 0.161956
vt 0.764571 0.751355
vt 0.929414 0.114667
vt 0.934829 0.171451
vt 0.883344 0.086216
vt 0.934987 0.053997
vt 0.821987 0.060558
vt 0.875210 0.015375
vt 0.809739 0.000856
vt 0.169750 0.506547
vt 0.223877 0.482685
vt 0.230529 0.551391
vt 0.175881 0.585163
vt 0.232114 0.624839
vt 0.185514 0.652069
vt 0.179339 0.721129
vt 0.221560 0.770001
vt 0.160015 0.781072
vt 0.206492 0.821740
vt 0.509540 0.425074
vt 0.554840 0.378253
vt 0.569704 0.420725
vt 0.493189 0.367560
vt 0.535529 0.319037
vt 0.527866 0.255395
vt 0.477386 0.229308
vt 0.529696 0.188500
vt 0.475202 0.158406
vt 0.533088 0.117834
vt 0.478372 0.088212
vt 0.530687 0.068895
vt 0.588554 0.479431
vt 0.558317 0.529836
vt 0.574402 0.577372
vt 0.512362 0.576039
vt 0.524822 0.625515
vt 0.461048 0.622116
vt 0.474968 0.674233
vt 0.419341 0.660839
vt 0.379330 0.651016
vt 0.837083 0.133712
vt 0.791288 0.187858
vt 0.777802 0.112997
vt 0.736390 0.162972
vt 0.732026 0.097652
vt 0.232509 0.699380
vt 0.283980 0.661666
vt 0.283927 0.742612
vt 0.029474 0.339085
vt 0.066834 0.397242
vt 0.022538 0.395397
vt 0.321357 0.694671
vt 0.321979 0.770228
vt 0.482797 0.298268
vt 0.430474 0.349317
vt 0.423320 0.270477
vt 0.377173 0.312127
vt 0.377173 0.236604
vt 0.488420 0.028152
vt 0.423522 0.061594
vt 0.612132 0.523636
vt 0.435264 0.000856
vt 0.638069 0.586966
vt 0.381339 0.047649
vt 0.675907 0.543074
vt 0.688546 0.608442
vt 0.642493 0.655031
vt 0.377173 0.703492
vt 0.429883 0.722677
vt 0.497875 0.734839
vt 0.389187 0.765980
vt 0.454710 0.779204
vt 0.416753 0.814704
vt 0.522087 0.786849
vt 0.370321 0.761886
vt 0.323691 0.751970
vt 0.370321 0.707242
vt 0.481716 0.817136
vt 0.774005 0.336504
vt 0.081109 0.066381
vt 0.033940 0.091629
vt 0.065736 0.041133
vt 0.111155 0.116999
vt 0.054086 0.135035
vt 0.086955 0.190922
vt 0.006202 0.158430
vt 0.039487 0.212157
vt 0.000856 0.230779
vt 0.071621 0.264898
vt 0.025616 0.281579
vt 0.000856 0.290086
vt 0.062096 0.337403
vt 0.116362 0.320447
vt 0.111992 0.401075
vt 0.116612 0.453995
vt 0.173796 0.375415
vt 0.172799 0.432339
vt 0.171676 0.480973
vt 0.228115 0.456281
vt 0.234322 0.402167
vt 0.239252 0.332802
vt 0.290028 0.418345
vt 0.298684 0.353654
vt 0.337513 0.359650
vt 0.296918 0.275400
vt 0.344900 0.294704
vt 0.369269 0.304508
vt 0.115323 0.016786
vt 0.180302 0.000856
vt 0.141539 0.041149
vt 0.219558 0.034310
vt 0.178633 0.099026
vt 0.256649 0.101862
vt 0.375460 0.238360
vt 0.343680 0.214725
vt 0.279774 0.189423
vt 0.374551 0.155057
vt 0.325707 0.122666
vt 0.338877 0.082762
vt 0.774555 0.387832
vt 0.791986 0.398176
vt 0.767560 0.404173
vt 0.807064 0.407756
vt 0.806901 0.388541
vt 0.750119 0.387459
vt 0.766674 0.367898
vt 0.793675 0.377243
vt 0.842641 0.828054
vt 0.836119 0.810578
vt 0.852358 0.816464
vt 0.761358 0.418992
vt 0.785790 0.416409
vt 0.773859 0.428534
vt 0.354573 0.562640
vt 0.362014 0.580075
vt 0.347878 0.568103
vt 0.406283 0.832201
vt 0.407428 0.856518
vt 0.393429 0.843080
vt 0.453101 0.880094
vt 0.453101 0.858067
vt 0.467400 0.874125
vt 0.857796 0.835446
vt 0.363622 0.602192
vt 0.354087 0.617348
vt 0.353727 0.588376
vt 0.403841 0.877773
vt 0.390171 0.885981
vt 0.392484 0.868025
vt 0.454002 0.830505
vt 0.466953 0.818849
vt 0.468887 0.843540
vt 0.832754 0.792365
vt 0.841041 0.777007
vt 0.846525 0.795572
vt 0.831042 0.796522
vt 0.831042 0.819380
vt 0.817025 0.797686
vt 0.338499 0.581507
vt 0.338496 0.603599
vt 0.323691 0.590647
vt 0.761675 0.788894
vt 0.775600 0.777007
vt 0.777814 0.793059
vt 0.777872 0.834130
vt 0.766060 0.810926
vt 0.787578 0.818660
vt 0.817363 0.832634
vt 0.800835 0.839203
vt 0.812535 0.821460
vt 0.798263 0.801560
vt 0.795384 0.780094
vt 0.329714 0.571916
vt 0.323691 0.618376
vt 0.338532 0.628833
vt 0.868621 0.820050
vt 0.860932 0.802520
vt 0.872909 0.801504
vt 0.858322 0.785715
vt 0.786417 0.848715
vt 0.762040 0.830197
vt 0.391563 0.818849
vt 0.377173 0.834500
vt 0.380321 0.855130
vt 0.377173 0.871279
vt 0.872909 0.838062
vt 0.480735 0.859368
vt 0.742958 0.405401
vt 0.745988 0.420216
vt 0.347571 0.639219
vt 0.800846 0.419838
vt 0.788856 0.354427
vt 0.807064 0.370141
vt 0.760570 0.352605
vt 0.739350 0.366940
vt 0.731315 0.387472
vt 0.726768 0.817923
vt 0.725349 0.797072
vt 0.744083 0.814476
vt 0.724758 0.782422
vt 0.704219 0.784303
vt 0.738922 0.836045
vt 0.716484 0.833127
vt 0.704529 0.806911
vt 0.451388 0.835752
vt 0.443451 0.854081
vt 0.440163 0.837871
vt 0.759775 0.811121
vt 0.742953 0.794079
vt 0.759963 0.795305
vt 0.507089 0.836792
vt 0.509170 0.856403
vt 0.495041 0.848205
vt 0.325470 0.513688
vt 0.323691 0.496422
vt 0.336423 0.501470
vt 0.328472 0.560928
vt 0.323691 0.539061
vt 0.339576 0.555000
vt 0.450748 0.818849
vt 0.324124 0.686695
vt 0.335181 0.674499
vt 0.336874 0.699331
vt 0.495259 0.825403
vt 0.336881 0.524659
vt 0.428021 0.866538
vt 0.409140 0.866538
vt 0.425243 0.855884
vt 0.348773 0.660539
vt 0.352102 0.640932
vt 0.363087 0.664652
vt 0.824379 0.420496
vt 0.808776 0.402860
vt 0.829354 0.404963
vt 0.861676 0.413007
vt 0.842644 0.416810
vt 0.852226 0.402321
vt 0.350446 0.536045
vt 0.350154 0.512757
vt 0.363210 0.530332
vt 0.423546 0.837825
vt 0.409210 0.846602
vt 0.413173 0.825961
vt 0.833573 0.361089
vt 0.854546 0.374145
vt 0.837384 0.382887
vt 0.850501 0.352606
vt 0.866007 0.368508
vt 0.866007 0.391890
vt 0.348087 0.492794
vt 0.361616 0.502888
vt 0.815598 0.379291
vt 0.351433 0.686703
vt 0.814209 0.356575
vt 0.432835 0.819969
vt 0.355263 0.553870
vt 0.482448 0.838023
vt 0.483032 0.818849
vt 0.482448 0.856456
vt 0.350138 0.705530
vt 0.335954 0.646602
vt 0.336057 0.482685
vt 0.508048 0.821312
vt 0.494417 0.866536
vt 0.323691 0.705199
vt 0.323691 0.662914
vt 0.737984 0.777007
vt 0.692326 0.824779
vt 0.690259 0.799566
vt 0.709699 0.843319
vt 0.729206 0.851338
vt 0.750207 0.852230
vt 0.759963 0.834339
s 1
f 1/1/1 16/2/1 15/3/1
f 2/4/2 18/5/14 24/6/20
f 1/1/1 15/3/1 30/7/1
f 1/1/1 30/7/1 36/8/1
f 1/1/1 36/8/1 25/9/1
f 2/10/2 24/11/20 45/12/35
f 3/13/3 21/14/17 51/15/41
f 4/16/4 33/17/25 57/18/45
f 5/19/5 39/20/29 63/21/49
f 6/22/6 42/23/32 69/24/54
f 2/10/2 45/12/35 52/25/42
f 3/13/3 51/15/41 58/26/46
f 4/27/4 57/28/45 64/29/50
f 5/30/5 63/31/49 70/32/55
f 6/22/6 69/24/54 46/33/36
f 7/34/7 75/35/7 90/36/7
f 8/37/8 78/38/8 96/39/8
f 9/40/9 81/41/62 99/42/9
f 10/43/10 84/44/65 102/45/79
f 11/46/11 87/47/68 91/48/71
f 93/49/73 100/50/78 12/51/12
f 92/52/72 103/53/67 93/49/73
f 91/48/71 104/54/67 92/52/72
f 93/49/73 103/53/67 100/50/78
f 103/53/67 101/55/67 100/50/78
f 92/52/72 104/54/67 103/53/67
f 104/54/67 105/56/67 103/53/67
f 103/53/67 105/56/67 101/55/67
f 105/56/67 102/45/79 101/55/67
f 91/48/71 87/47/68 104/54/67
f 87/47/68 86/57/67 104/54/67
f 104/54/67 86/57/67 105/56/67
f 86/57/67 85/58/66 105/56/67
f 105/56/67 85/58/66 102/45/79
f 85/58/66 10/43/10 102/45/79
f 100/50/78 97/59/76 12/51/12
f 101/55/67 106/60/80 100/50/78
f 102/45/79 107/61/81 101/55/67
f 100/50/78 106/60/80 97/59/76
f 106/60/80 98/62/77 97/59/76
f 101/55/67 107/61/81 106/60/80
f 107/63/81 108/64/82 106/65/80
f 106/65/80 108/64/82 98/66/77
f 108/64/82 99/42/9 98/66/77
f 102/45/79 84/44/65 107/61/81
f 84/67/65 83/68/64 107/63/81
f 107/63/81 83/68/64 108/64/82
f 83/68/64 82/69/63 108/64/82
f 108/64/82 82/69/63 99/42/9
f 82/69/63 9/40/9 99/42/9
f 97/59/76 94/70/74 12/51/12
f 98/62/77 109/71/83 97/59/76
f 99/42/9 110/72/84 98/66/77
f 97/59/76 109/71/83 94/70/74
f 109/73/83 95/74/75 94/75/74
f 98/66/77 110/72/84 109/76/83
f 110/72/84 111/77/85 109/76/83
f 109/73/83 111/78/85 95/74/75
f 111/78/85 96/39/8 95/74/75
f 99/42/9 81/41/62 110/72/84
f 81/41/62 80/79/61 110/72/84
f 110/80/84 80/81/61 111/82/85
f 80/83/61 79/84/8 111/78/85
f 111/78/85 79/84/8 96/39/8
f 79/84/8 8/37/8 96/39/8
f 94/70/74 88/85/69 12/51/12
f 95/74/75 112/86/86 94/75/74
f 96/39/8 113/87/87 95/74/75
f 94/70/74 112/88/86 88/85/69
f 112/88/86 89/89/70 88/85/69
f 95/74/75 113/87/87 112/86/86
f 113/87/87 114/90/88 112/86/86
f 112/88/86 114/91/88 89/89/70
f 114/92/88 90/36/7 89/93/70
f 96/39/8 78/38/8 113/87/87
f 78/38/8 77/94/60 113/87/87
f 113/87/87 77/94/60 114/90/88
f 77/94/60 76/95/59 114/90/88
f 114/92/88 76/96/59 90/36/7
f 76/96/59 7/34/7 90/36/7
f 88/85/69 93/49/73 12/51/12
f 89/93/70 115/97/89 88/98/69
f 90/36/7 116/99/7 89/93/70
f 88/85/69 115/100/89 93/49/73
f 115/100/89 92/52/72 93/49/73
f 89/93/70 116/99/7 115/97/89
f 116/99/7 117/101/90 115/97/89
f 115/100/89 117/102/90 92/52/72
f 117/102/90 91/48/71 92/52/72
f 90/36/7 75/35/7 116/99/7
f 75/35/7 74/103/7 116/99/7
f 116/99/7 74/103/7 117/101/90
f 74/103/7 73/104/58 117/101/90
f 117/102/90 73/105/58 91/48/71
f 73/105/58 11/46/11 91/48/71
f 48/106/38 87/47/68 11/46/11
f 47/107/37 118/108/91 48/109/38
f 46/33/36 119/110/92 47/107/37
f 48/106/38 118/111/91 87/47/68
f 118/111/91 86/57/67 87/47/68
f 47/107/37 119/110/92 118/108/91
f 119/110/92 120/112/93 118/108/91
f 118/111/91 120/113/93 86/57/67
f 120/113/93 85/58/66 86/57/67
f 46/33/36 69/24/54 119/110/92
f 69/24/54 68/114/53 119/110/92
f 119/110/92 68/114/53 120/112/93
f 68/114/53 67/115/52 120/112/93
f 120/113/93 67/116/52 85/58/66
f 67/115/52 10/117/10 85/118/66
f 72/119/57 84/120/65 10/117/10
f 71/121/56 121/122/94 72/119/57
f 70/32/55 122/123/95 71/121/56
f 72/119/57 121/122/94 84/120/65
f 121/124/94 83/68/64 84/67/65
f 71/125/56 122/126/95 121/124/94
f 122/126/95 123/127/96 121/124/94
f 121/124/94 123/127/96 83/68/64
f 123/127/96 82/69/63 83/68/64
f 70/32/55 63/31/49 122/123/95
f 63/21/49 62/128/48 122/126/95
f 122/126/95 62/128/48 123/127/96
f 62/128/48 61/129/47 123/127/96
f 123/127/96 61/129/47 82/69/63
f 61/129/47 9/40/9 82/69/63
f 66/130/9 81/41/62 9/40/9
f 65/131/51 124/132/97 66/130/9
f 64/29/50 125/133/98 65/131/51
f 66/130/9 124/132/97 81/41/62
f 124/132/97 80/79/61 81/41/62
f 65/131/51 125/133/98 124/132/97
f 125/134/98 126/135/99 124/136/97
f 124/136/97 126/135/99 80/83/61
f 126/135/99 79/84/8 80/83/61
f 64/29/50 57/28/45 125/133/98
f 57/18/45 56/137/44 125/134/98
f 125/134/98 56/137/44 126/135/99
f 56/137/44 55/138/8 126/135/99
f 126/135/99 55/138/8 79/84/8
f 55/138/8 8/37/8 79/84/8
f 60/139/8 78/38/8 8/37/8
f 59/140/8 127/141/8 60/139/8
f 58/26/46 128/142/100 59/140/8
f 60/139/8 127/141/8 78/38/8
f 127/141/8 77/94/60 78/38/8
f 59/140/8 128/142/100 127/141/8
f 128/142/100 129/143/101 127/141/8
f 127/141/8 129/143/101 77/94/60
f 129/143/101 76/95/59 77/94/60
f 58/26/46 51/15/41 128/142/100
f 51/15/41 50/144/40 128/142/100
f 128/142/100 50/144/40 129/143/101
f 50/144/40 49/145/39 129/143/101
f 129/143/101 49/145/39 76/95/59
f 49/146/39 7/34/7 76/96/59
f 54/147/7 75/35/7 7/34/7
f 53/148/43 130/149/7 54/147/7
f 52/25/42 131/150/102 53/148/43
f 54/147/7 130/149/7 75/35/7
f 130/149/7 74/103/7 75/35/7
f 53/148/43 131/150/102 130/149/7
f 131/150/102 132/151/103 130/149/7
f 130/149/7 132/151/103 74/103/7
f 132/151/103 73/104/58 74/103/7
f 52/25/42 45/12/35 131/150/102
f 45/12/35 44/152/34 131/150/102
f 131/150/102 44/152/34 132/151/103
f 44/152/34 43/153/33 132/151/103
f 132/151/103 43/153/33 73/104/58
f 43/153/33 11/154/11 73/104/58
f 67/115/52 72/119/57 10/117/10
f 68/114/53 133/155/104 67/115/52
f 69/24/54 134/156/105 68/114/53
f 67/115/52 133/155/104 72/119/57
f 133/155/104 71/121/56 72/119/57
f 68/114/53 134/156/105 133/155/104
f 134/156/105 135/157/106 133/155/104
f 133/155/104 135/157/106 71/121/56
f 135/157/106 70/32/55 71/121/56
f 69/24/54 42/23/32 134/156/105
f 42/23/32 41/158/31 134/156/105
f 134/156/105 41/158/31 135/157/106
f 41/158/31 40/159/30 135/157/106
f 135/157/106 40/159/30 70/32/55
f 40/159/30 5/30/5 70/32/55
f 61/129/47 66/130/9 9/40/9
f 62/128/48 136/160/107 61/129/47
f 63/21/49 137/161/108 62/128/48
f 61/129/47 136/160/107 66/130/9
f 136/160/107 65/131/51 66/130/9
f 62/128/48 137/161/108 136/160/107
f 137/161/108 138/162/109 136/160/107
f 136/160/107 138/162/109 65/131/51
f 138/162/109 64/29/50 65/131/51
f 63/21/49 39/20/29 137/161/108
f 39/163/29 38/164/28 137/165/108
f 137/161/108 38/166/28 138/162/109
f 38/166/28 37/167/27 138/162/109
f 138/162/109 37/167/27 64/29/50
f 37/167/27 4/27/4 64/29/50
f 55/138/8 60/139/8 8/37/8
f 56/137/44 139/168/8 55/138/8
f 57/18/45 140/169/110 56/137/44
f 55/138/8 139/168/8 60/139/8
f 139/168/8 59/140/8 60/139/8
f 56/137/44 140/169/110 139/168/8
f 140/169/110 141/170/111 139/168/8
f 139/168/8 141/170/111 59/140/8
f 141/170/111 58/26/46 59/140/8
f 57/18/45 33/17/25 140/169/110
f 33/17/25 32/171/24 140/169/110
f 140/169/110 32/171/24 141/170/111
f 32/171/24 31/172/23 141/170/111
f 141/170/111 31/172/23 58/26/46
f 31/172/23 3/13/3 58/26/46
f 49/146/39 54/147/7 7/34/7
f 50/144/40 142/173/112 49/145/39
f 51/15/41 143/174/113 50/144/40
f 49/146/39 142/175/112 54/147/7
f 142/175/112 53/148/43 54/147/7
f 50/144/40 143/174/113 142/173/112
f 143/174/113 144/176/114 142/173/112
f 142/175/112 144/177/114 53/148/43
f 144/177/114 52/25/42 53/148/43
f 51/15/41 21/14/17 143/174/113
f 21/14/17 20/178/16 143/174/113
f 143/179/113 20/180/16 144/177/114
f 20/180/16 19/181/15 144/177/114
f 144/177/114 19/181/15 52/25/42
f 19/181/15 2/10/2 52/25/42
f 43/153/33 48/182/38 11/154/11
f 44/152/34 145/183/115 43/153/33
f 45/12/35 146/184/116 44/152/34
f 43/153/33 145/183/115 48/182/38
f 145/183/115 47/185/37 48/182/38
f 44/152/34 146/184/116 145/183/115
f 146/184/116 147/186/117 145/183/115
f 145/183/115 147/186/117 47/185/37
f 147/186/117 46/187/36 47/185/37
f 45/12/35 24/11/20 146/184/116
f 24/11/20 23/188/19 146/184/116
f 146/184/116 23/188/19 147/186/117
f 23/189/19 22/190/18 147/191/117
f 147/186/117 22/192/18 46/187/36
f 22/193/18 6/22/6 46/33/36
f 27/194/21 42/195/32 6/196/6
f 26/197/1 148/198/118 27/194/21
f 25/9/1 149/199/1 26/197/1
f 27/194/21 148/198/118 42/195/32
f 148/198/118 41/200/31 42/195/32
f 26/197/1 149/199/1 148/198/118
f 149/199/1 150/201/119 148/198/118
f 148/198/118 150/201/119 41/200/31
f 150/201/119 40/202/30 41/200/31
f 25/9/1 36/8/1 149/199/1
f 36/8/1 35/203/1 149/199/1
f 149/199/1 35/203/1 150/201/119
f 35/203/1 34/204/26 150/201/119
f 150/201/119 34/204/26 40/202/30
f 34/204/26 5/205/5 40/202/30
f 34/204/26 39/163/29 5/205/5
f 35/203/1 151/206/120 34/204/26
f 36/8/1 152/207/1 35/203/1
f 34/204/26 151/206/120 39/163/29
f 151/206/120 38/164/28 39/163/29
f 35/203/1 152/207/1 151/206/120
f 152/207/1 153/208/121 151/206/120
f 151/206/120 153/208/121 38/164/28
f 153/208/121 37/209/27 38/164/28
f 36/8/1 30/7/1 152/207/1
f 30/7/1 29/210/1 152/207/1
f 152/207/1 29/210/1 153/208/121
f 29/210/1 28/211/22 153/208/121
f 153/208/121 28/211/22 37/209/27
f 28/211/22 4/212/4 37/209/27
f 28/211/22 33/213/25 4/212/4
f 29/210/1 154/214/122 28/211/22
f 30/7/1 155/215/1 29/210/1
f 28/211/22 154/214/122 33/213/25
f 154/214/122 32/216/24 33/213/25
f 29/210/1 155/215/1 154/214/122
f 155/215/1 156/217/123 154/214/122
f 154/214/122 156/217/123 32/216/24
f 156/217/123 31/218/23 32/216/24
f 30/7/1 15/3/1 155/215/1
f 15/3/1 14/219/1 155/215/1
f 155/215/1 14/219/1 156/217/123
f 14/219/1 13/220/13 156/217/123
f 156/217/123 13/220/13 31/218/23
f 13/220/13 3/221/3 31/218/23
f 22/222/18 27/194/21 6/196/6
f 23/223/19 157/224/124 22/222/18
f 24/6/20 158/225/125 23/223/19
f 22/222/18 157/224/124 27/194/21
f 157/224/124 26/197/1 27/194/21
f 23/223/19 158/225/125 157/224/124
f 158/225/125 159/226/1 157/224/124
f 157/224/124 159/226/1 26/197/1
f 159/226/1 25/9/1 26/197/1
f 24/6/20 18/5/14 158/225/125
f 18/5/14 17/227/1 158/225/125
f 158/225/125 17/227/1 159/226/1
f 17/227/1 16/2/1 159/226/1
f 159/226/1 16/2/1 25/9/1
f 16/2/1 1/1/1 25/9/1
f 13/220/13 21/228/17 3/221/3
f 14/219/1 160/229/126 13/220/13
f 15/3/1 161/230/1 14/219/1
f 13/220/13 160/229/126 21/228/17
f 160/229/126 20/231/16 21/228/17
f 14/219/1 161/230/1 160/229/126
f 161/230/1 162/232/127 160/229/126
f 160/229/126 162/232/127 20/231/16
f 162/232/127 19/233/15 20/231/16
f 15/3/1 16/2/1 161/230/1
f 16/2/1 17/227/1 161/230/1
f 161/230/1 17/227/1 162/232/127
f 17/227/1 18/5/14 162/232/127
f 162/232/127 18/5/14 19/233/15
f 18/5/14 2/4/2 19/233/15
f 163/234/128 176/235/141 175/236/140
f 164/237/129 176/235/141 178/238/143
f 163/234/128 175/236/140 180/239/145
f 163/234/128 180/239/145 182/240/147
f 163/234/128 182/240/147 179/241/144
f 164/242/129 178/243/143 185/244/150
f 165/245/130 177/246/142 187/247/152
f 166/248/131 181/249/146 189/250/154
f 167/251/132 183/252/148 191/253/156
f 168/254/133 184/255/149 193/256/158
f 164/242/129 185/244/150 188/257/153
f 165/258/130 187/259/152 190/260/155
f 166/261/131 189/262/154 192/263/157
f 167/264/132 191/265/156 194/266/159
f 168/267/133 193/268/158 186/269/151
f 169/270/134 195/271/160 200/272/165
f 170/273/135 196/274/161 202/275/167
f 171/276/136 197/277/162 203/278/168
f 172/279/137 198/280/163 204/281/169
f 173/282/138 199/283/164 201/284/166
f 201/284/166 204/281/169 174/285/139
f 201/284/166 199/283/164 204/281/169
f 199/283/164 172/279/137 204/281/169
f 204/281/169 203/278/168 174/285/139
f 204/281/169 198/280/163 203/278/168
f 198/280/163 171/276/136 203/278/168
f 203/278/168 202/286/167 174/285/139
f 203/278/168 197/277/162 202/286/167
f 197/287/162 170/273/135 202/275/167
f 202/286/167 200/272/165 174/285/139
f 202/275/167 196/274/161 200/288/165
f 196/274/161 169/289/134 200/288/165
f 200/272/165 201/284/166 174/285/139
f 200/272/165 195/271/160 201/284/166
f 195/290/160 173/291/138 201/292/166
f 186/269/151 199/293/164 173/291/138
f 186/269/151 193/268/158 199/293/164
f 193/294/158 172/279/137 199/283/164
f 194/295/159 198/280/163 172/279/137
f 194/296/159 191/253/156 198/297/163
f 191/253/156 171/298/136 198/297/163
f 192/263/157 197/299/162 171/298/136
f 192/263/157 189/262/154 197/299/162
f 189/250/154 170/273/135 197/287/162
f 190/260/155 196/274/161 170/273/135
f 190/260/155 187/259/152 196/274/161
f 187/259/152 169/289/134 196/274/161
f 188/257/153 195/290/160 169/300/134
f 188/257/153 185/244/150 195/290/160
f 185/244/150 173/291/138 195/290/160
f 193/256/158 194/266/159 172/301/137
f 193/256/158 184/255/149 194/266/159
f 184/255/149 167/264/132 194/266/159
f 191/253/156 192/263/157 171/298/136
f 191/253/156 183/252/148 192/263/157
f 183/252/148 166/261/131 192/263/157
f 189/250/154 190/260/155 170/273/135
f 189/250/154 181/249/146 190/260/155
f 181/302/146 165/245/130 190/303/155
f 187/259/152 188/304/153 169/289/134
f 187/247/152 177/246/142 188/305/153
f 177/246/142 164/237/129 188/305/153
f 185/244/150 186/269/151 173/291/138
f 185/244/150 178/243/143 186/269/151
f 178/243/143 168/267/133 186/269/151
f 179/241/144 184/306/149 168/307/133
f 179/241/144 182/240/147 184/306/149
f 182/240/147 167/308/132 184/306/149
f 182/240/147 183/309/148 167/308/132
f 182/240/147 180/239/145 183/309/148
f 180/239/145 166/310/131 183/309/148
f 180/239/145 181/302/146 166/310/131
f 180/239/145 175/236/140 181/302/146
f 175/236/140 165/245/130 181/302/146
f 178/238/143 179/241/144 168/307/133
f 178/238/143 176/235/141 179/241/144
f 176/235/141 163/234/128 179/241/144
f 175/236/140 177/246/142 165/245/130
f 175/236/140 176/235/141 177/246/142
f 176/235/141 164/237/129 177/246/142
f 205/311/170 218/312/183 217/313/182
f 206/314/171 218/312/183 220/315/185
f 205/311/170 217/313/182 222/316/187
f 205/311/170 222/316/187 224/317/189
f 205/311/170 224/317/189 221/318/186
f 206/319/171 220/320/185 227/321/192
f 207/322/172 219/323/184 229/324/194
f 208/325/173 223/326/188 231/327/196
f 209/328/174 225/329/190 233/330/198
f 210/331/175 226/332/191 235/333/200
f 206/319/171 227/321/192 230/334/195
f 207/335/172 229/336/194 232/337/197
f 208/325/173 231/327/196 234/338/199
f 209/328/174 233/330/198 236/339/201
f 210/340/175 235/341/200 228/342/193
f 211/343/176 237/344/202 242/345/207
f 212/346/177 238/347/203 244/348/209
f 213/349/178 239/350/204 245/351/210
f 214/352/179 240/353/205 246/354/211
f 215/355/180 241/356/206 243/357/208
f 243/358/208 246/359/211 216/360/181
f 243/358/208 241/361/206 246/359/211
f 241/361/206 214/362/179 246/359/211
f 246/359/211 245/351/210 216/360/181
f 246/359/211 240/363/205 245/351/210
f 240/353/205 213/364/178 245/365/210
f 245/351/210 244/348/209 216/360/181
f 245/351/210 239/350/204 244/348/209
f 239/350/204 212/346/177 244/348/209
f 244/348/209 242/366/207 216/360/181
f 244/348/209 238/347/203 242/366/207
f 238/367/203 211/343/176 242/345/207
f 242/366/207 243/358/208 216/360/181
f 242/366/207 237/368/202 243/358/208
f 237/369/202 215/355/180 243/357/208
f 228/342/193 241/356/206 215/355/180
f 228/342/193 235/341/200 241/356/206
f 235/333/200 214/352/179 241/370/206
f 236/339/201 240/353/205 214/352/179
f 236/339/201 233/330/198 240/353/205
f 233/330/198 213/364/178 240/353/205
f 234/338/199 239/371/204 213/372/178
f 234/338/199 231/327/196 239/371/204
f 231/327/196 212/373/177 239/371/204
f 232/337/197 238/367/203 212/374/177
f 232/337/197 229/336/194 238/367/203
f 229/336/194 211/343/176 238/367/203
f 230/375/195 237/344/202 211/343/176
f 230/334/195 227/321/192 237/369/202
f 227/321/192 215/355/180 237/369/202
f 235/333/200 236/339/201 214/352/179
f 235/333/200 226/332/191 236/339/201
f 226/332/191 209/328/174 236/339/201
f 233/330/198 234/376/199 213/364/178
f 233/330/198 225/329/190 234/376/199
f 225/377/190 208/325/173 234/338/199
f 231/327/196 232/378/197 212/373/177
f 231/327/196 223/326/188 232/378/197
f 223/379/188 207/335/172 232/337/197
f 229/336/194 230/375/195 211/343/176
f 229/336/194 219/380/184 230/375/195
f 219/323/184 206/314/171 230/381/195
f 227/321/192 228/342/193 215/355/180
f 227/321/192 220/320/185 228/342/193
f 220/320/185 210/340/175 228/342/193
f 221/318/186 226/382/191 210/383/175
f 221/318/186 224/317/189 226/382/191
f 224/317/189 209/384/174 226/382/191
f 224/317/189 225/385/190 209/384/174
f 224/317/189 222/316/187 225/385/190
f 222/316/187 208/386/173 225/385/190
f 222/316/187 223/387/188 208/386/173
f 222/316/187 217/313/182 223/387/188
f 217/313/182 207/322/172 223/387/188
f 220/315/185 221/318/186 210/383/175
f 220/315/185 218/312/183 221/318/186
f 218/312/183 205/311/170 221/318/186
f 217/313/182 219/323/184 207/322/172
f 217/313/182 218/312/183 219/323/184
f 218/312/183 206/314/171 219/323/184
