# Blender 4.5.13 LTS
# www.blender.org
o rock
v -0.007843 0.000164 0.004545
v 0.007534 0.047442 -0.486448
v 0.420334 0.048321 -0.065313
v 0.195362 0.100466 0.347963
v -0.248074 0.095822 0.303148
v -0.371412 0.094049 -0.193644
v 0.265153 0.414793 -0.324019
v 0.428110 0.429758 0.223205
v -0.005367 0.394301 0.346543
v -0.298464 0.393204 0.046376
v -0.251307 0.442356 -0.447608
v 0.011417 0.613667 -0.006616
v 0.242525 -0.008430 -0.035821
v -0.002401 -0.002667 -0.190549
v 0.219803 0.045545 -0.275624
v -0.240820 0.033774 -0.399943
v -0.201744 0.004358 -0.099548
v 0.149771 0.000164 0.276544
v 0.411907 0.009113 0.229248
v -0.121319 0.006278 0.144790
v -0.013771 0.100214 0.322631
v -0.376110 0.062082 0.063268
v -0.148987 0.244318 -0.569461
v -0.333576 0.254513 -0.327574
v 0.321658 0.236511 -0.186390
v 0.144811 0.237960 -0.411942
v 0.279037 0.246225 0.274016
v 0.390199 0.239060 0.071968
v -0.145851 0.262126 0.414902
v 0.124630 0.254753 0.476365
v -0.392428 0.261003 -0.072379
v -0.323965 0.263585 0.187726
v 0.015252 0.415891 -0.357320
v 0.362814 0.431275 -0.061032
v 0.199134 0.428798 0.330712
v -0.177797 0.415382 0.222950
v -0.402072 0.485135 -0.223775
v 0.156823 0.568808 -0.187085
v -0.129410 0.588744 -0.247841
v 0.198374 0.520625 0.096867
v 0.003740 0.643666 0.296884
v -0.248422 0.628199 0.035204
vn -0.0321 -0.9994 0.0136
vn -0.0039 -0.9859 -0.1671
vn -0.0314 -0.9993 0.0182
vn -0.2506 -0.5385 -0.8045
vn 0.7227 -0.0639 -0.6882
vn 0.5185 0.1310 0.8450
vn -0.0603 -0.5309 0.8453
vn -0.9942 -0.1027 -0.0310
vn 0.4726 0.0041 -0.8813
vn 0.9145 0.3214 -0.2458
vn 0.7838 -0.1435 0.6042
vn -0.7849 0.0686 0.6158
vn -0.9734 0.0413 -0.2255
vn 0.0975 0.6987 -0.7087
vn 0.4083 0.9085 -0.0889
vn 0.0432 0.1936 0.9801
vn -0.8204 0.2002 0.5355
vn -0.3561 0.8440 -0.4012
vn 0.0356 0.9917 -0.1233
vn -0.3626 0.8900 -0.2765
vn -0.8873 0.2085 0.4113
vn 0.0400 0.9945 -0.0973
vn -0.6875 0.3386 0.6424
vn -0.5581 0.1816 0.8096
vn 0.4770 0.8757 -0.0745
vn 0.6933 0.6716 0.2615
vn 0.1652 0.9182 0.3600
vn 0.4004 0.9113 0.0961
vn 0.5253 0.8483 0.0671
vn 0.6466 0.7078 -0.2845
vn 0.1026 0.9816 -0.1613
vn 0.2020 0.6391 -0.7421
vn 0.2959 0.6754 -0.6755
vn -0.8289 0.0056 -0.5594
vn -0.9582 -0.1873 -0.2162
vn -0.8743 0.2453 0.4188
vn -0.7032 0.5826 0.4074
vn -0.6695 0.5221 0.5283
vn -0.3576 0.6999 0.6183
vn -0.0519 0.6539 0.7548
vn 0.7880 0.1602 0.5945
vn 0.4234 -0.0945 0.9010
vn 0.9745 -0.0161 -0.2239
vn 0.9659 -0.0394 -0.2559
vn 0.9366 0.0270 -0.3495
vn 0.1242 0.3727 -0.9196
vn 0.4103 0.5272 -0.7441
vn 0.3080 0.6089 -0.7310
vn -0.8785 0.4204 0.2270
vn -0.9631 0.0932 0.2526
vn -0.8762 -0.0680 0.4772
vn -0.1644 0.5854 0.7939
vn -0.1928 -0.5998 0.7766
vn -0.0894 -0.6610 0.7450
vn 0.7547 -0.4932 0.4327
vn 0.8175 0.3757 0.4365
vn 0.9912 0.1243 0.0449
vn 0.7666 -0.2221 -0.6025
vn 0.7799 -0.1298 -0.6123
vn 0.6859 -0.2234 -0.6926
vn -0.7952 -0.0385 -0.6052
vn -0.7903 -0.1362 -0.5974
vn -0.8532 -0.2007 -0.4815
vn -0.4112 -0.9036 -0.1200
vn -0.2395 -0.9671 0.0864
vn -0.2909 -0.9137 0.2838
vn -0.0233 -0.8781 0.4779
vn -0.2994 -0.7569 0.5809
vn -0.1000 -0.5465 0.8314
vn 0.1598 -0.6197 0.7684
vn 0.0412 -0.9984 0.0397
vn 0.2840 -0.9515 -0.1185
vn -0.4550 -0.8901 -0.0280
vn -0.0750 -0.9933 -0.0875
vn -0.0290 -0.9995 0.0137
vn 0.2599 -0.9365 -0.2354
vn 0.1219 -0.9658 -0.2289
vn 0.1504 -0.9756 -0.1602
vt 0.214153 0.251939
vt 0.284643 0.172165
vt 0.332948 0.322624
vt 0.389604 0.051069
vt 0.256631 0.000695
vt 0.184882 0.420932
vt 0.117645 0.270949
vt 0.169508 0.140536
vt 0.419101 0.889916
vt 0.415929 0.785845
vt 0.534529 0.886076
vt 0.794294 0.406566
vt 0.784395 0.250375
vt 0.892530 0.317707
vt 0.985413 0.636602
vt 0.985413 0.779438
vt 0.889288 0.664374
vt 0.403528 0.546570
vt 0.341638 0.618489
vt 0.341638 0.493994
vt 0.444058 0.651833
vt 0.415929 0.527196
vt 0.530229 0.584075
vt 0.776438 0.090262
vt 0.876097 0.000695
vt 0.886271 0.161794
vt 0.895133 0.455200
vt 0.937468 0.539133
vt 0.000695 0.735371
vt 0.039890 0.620085
vt 0.113473 0.758745
vt 0.535674 0.722410
vt 0.415929 0.247711
vt 0.501191 0.141474
vt 0.522736 0.257656
vt 0.556544 0.525807
vt 0.476789 0.388296
vt 0.607477 0.387521
vt 0.754336 0.660802
vt 0.660065 0.660802
vt 0.716796 0.527196
vt 0.214402 0.767526
vt 0.168200 0.659710
vt 0.323159 0.695524
vt 0.574095 0.005643
vt 0.719725 0.037507
vt 0.613681 0.126448
vt 0.768574 0.193793
vt 0.650385 0.274187
vt 0.340248 0.873937
vt 0.768574 0.391349
vt 0.245066 0.515977
vt 0.117184 0.564517
vt 0.685656 0.483479
vt 0.658675 0.649666
vt 0.640149 0.796834
vt 0.192593 0.873937
vt 0.011567 0.511081
vt 0.132785 0.493994
vt 0.816241 0.578565
vt 0.769963 0.705097
vt 0.999305 0.382686
vt 0.999305 0.530951
vt 0.987687 0.234492
vt 0.975802 0.142987
vt 0.471287 0.000695
vt 0.060976 0.870927
vt 0.000695 0.372258
vt 0.095802 0.381820
vt 0.092271 0.492605
vt 0.174061 0.465501
vt 0.845740 0.771283
vt 0.769963 0.537744
vt 0.037244 0.147069
vt 0.127303 0.040702
vt 0.005219 0.291847
vt 0.310142 0.492605
vt 0.414540 0.371680
vt 0.404541 0.213562
s 0
f 1/1/1 14/2/1 13/3/1
f 2/4/2 14/2/2 16/5/2
f 1/1/3 13/3/3 18/6/3
f 1/1/3 18/6/3 20/7/3
f 1/1/3 20/7/3 17/8/3
f 2/9/4 16/10/4 23/11/4
f 3/12/5 15/13/5 25/14/5
f 4/15/6 19/16/6 27/17/6
f 5/18/7 21/19/7 29/20/7
f 6/21/8 22/22/8 31/23/8
f 2/24/9 23/25/9 26/26/9
f 3/12/10 25/14/10 28/27/10
f 4/15/11 27/17/11 30/28/11
f 5/29/12 29/30/12 32/31/12
f 6/21/13 31/23/13 24/32/13
f 7/33/14 33/34/14 38/35/14
f 8/36/15 34/37/15 40/38/15
f 9/39/16 35/40/16 41/41/16
f 10/42/17 36/43/17 42/44/17
f 11/45/18 37/46/18 39/47/18
f 39/47/19 42/48/19 12/49/19
f 39/47/20 37/46/20 42/48/20
f 37/50/21 10/42/21 42/44/21
f 42/48/22 41/51/22 12/49/22
f 42/44/23 36/43/23 41/52/23
f 36/43/24 9/53/24 41/52/24
f 41/51/25 40/38/25 12/49/25
f 41/51/26 35/54/26 40/38/26
f 35/54/27 8/36/27 40/38/27
f 40/38/28 38/35/28 12/49/28
f 40/38/29 34/37/29 38/35/29
f 34/37/30 7/33/30 38/35/30
f 38/35/31 39/47/31 12/49/31
f 38/35/32 33/34/32 39/47/32
f 33/34/33 11/45/33 39/47/33
f 24/32/34 37/55/34 11/56/34
f 24/32/35 31/23/35 37/55/35
f 31/57/36 10/42/36 37/50/36
f 32/31/37 36/43/37 10/42/37
f 32/31/38 29/30/38 36/43/38
f 29/30/39 9/53/39 36/43/39
f 30/58/40 35/59/40 9/53/40
f 30/28/41 27/17/41 35/60/41
f 27/17/42 8/61/42 35/60/42
f 28/27/43 34/62/43 8/63/43
f 28/27/44 25/14/44 34/62/44
f 25/14/45 7/64/45 34/62/45
f 26/26/46 33/65/46 7/64/46
f 26/26/47 23/25/47 33/65/47
f 23/66/48 11/45/48 33/34/48
f 31/57/49 32/31/49 10/42/49
f 31/57/50 22/67/50 32/31/50
f 22/67/51 5/29/51 32/31/51
f 29/30/52 30/58/52 9/53/52
f 29/68/53 21/69/53 30/70/53
f 21/69/54 4/71/54 30/70/54
f 27/17/55 28/72/55 8/61/55
f 27/17/56 19/16/56 28/72/56
f 19/73/57 3/12/57 28/27/57
f 25/14/58 26/26/58 7/64/58
f 25/14/59 15/13/59 26/26/59
f 15/13/60 2/24/60 26/26/60
f 23/11/61 24/32/61 11/56/61
f 23/11/62 16/10/62 24/32/62
f 16/10/63 6/21/63 24/32/63
f 17/8/64 22/74/64 6/75/64
f 17/8/65 20/7/65 22/74/65
f 20/7/66 5/76/66 22/74/66
f 20/7/67 21/69/67 5/76/67
f 20/7/68 18/6/68 21/69/68
f 18/6/69 4/71/69 21/69/69
f 18/6/70 19/77/70 4/71/70
f 18/6/71 13/3/71 19/77/71
f 13/3/72 3/78/72 19/77/72
f 16/5/73 17/8/73 6/75/73
f 16/5/74 14/2/74 17/8/74
f 14/2/75 1/1/75 17/8/75
f 13/3/76 15/79/76 3/78/76
f 13/3/77 14/2/77 15/79/77
f 14/2/78 2/4/78 15/79/78
