# The Giants of Holst prop, from Kenney CC0 kits (www.kenney.nl)
v 0.0107 0.1912 -0.0495
vt 0.8333 0.8333
vn 0.0000 1.0000 0.0000
v 0.0388 0.1912 0.0803
vt 0.8333 0.8333
vn 0.0000 1.0000 0.0000
v 0.0648 0.1912 -0.0107
vt 0.8333 0.8333
vn 0.0000 1.0000 0.0000
f 1/1/1 2/2/2 3/3/3
v 0.0388 0.1912 0.0803
vt 0.8333 0.8333
vn 0.0000 1.0000 0.0000
v 0.0107 0.1912 -0.0495
vt 0.8333 0.8333
vn 0.0000 1.0000 0.0000
v -0.0525 0.1912 0.0803
vt 0.8333 0.8333
vn 0.0000 1.0000 0.0000
f 4/4/4 5/5/5 6/6/6
v -0.0525 0.1912 0.0803
vt 0.8333 0.8333
vn 0.0000 1.0000 0.0000
v 0.0107 0.1912 -0.0495
vt 0.8333 0.8333
vn 0.0000 1.0000 0.0000
v -0.0676 0.1912 0.0288
vt 0.8333 0.8333
vn 0.0000 1.0000 0.0000
f 7/7/7 8/8/8 9/9/9
v -0.1804 0.0000 0.0000
vt 0.5000 0.8333
vn -0.6264 0.4639 -0.6264
v 0.0107 0.1912 -0.0495
vt 0.5000 0.8333
vn -0.6264 0.4639 -0.6264
v 0.0000 0.0000 -0.1804
vt 0.5000 0.8333
vn -0.6264 0.4639 -0.6264
f 10/10/10 11/11/11 12/12/12
v 0.0107 0.1912 -0.0495
vt 0.5000 0.8333
vn -0.6264 0.4639 -0.6264
v -0.1804 0.0000 0.0000
vt 0.5000 0.8333
vn -0.6264 0.4639 -0.6264
v -0.0676 0.1912 0.0288
vt 0.5000 0.8333
vn -0.6264 0.4639 -0.6264
f 13/13/13 14/14/14 15/15/15
v 0.0388 0.1912 0.0803
vt 0.5000 0.8333
vn 0.0000 0.4639 0.8859
v -0.1275 0.0000 0.1804
vt 0.5000 0.8333
vn 0.0000 0.4639 0.8859
v 0.1143 0.0000 0.1804
vt 0.5000 0.8333
vn 0.0000 0.4639 0.8859
f 16/16/16 17/17/17 18/18/18
v -0.1275 0.0000 0.1804
vt 0.5000 0.8333
vn 0.0000 0.4639 0.8859
v 0.0388 0.1912 0.0803
vt 0.5000 0.8333
vn 0.0000 0.4639 0.8859
v -0.0525 0.1912 0.0803
vt 0.5000 0.8333
vn 0.0000 0.4639 0.8859
f 19/19/19 20/20/20 21/21/21
v 0.0648 0.1912 -0.0107
vt 0.5000 0.8333
vn 0.8518 0.4639 0.2433
v 0.1143 0.0000 0.1804
vt 0.5000 0.8333
vn 0.8518 0.4639 0.2433
v 0.1804 0.0000 -0.0510
vt 0.5000 0.8333
vn 0.8518 0.4639 0.2433
f 22/22/22 23/23/23 24/24/24
v 0.1143 0.0000 0.1804
vt 0.5000 0.8333
vn 0.8518 0.4639 0.2433
v 0.0648 0.1912 -0.0107
vt 0.5000 0.8333
vn 0.8518 0.4639 0.2433
v 0.0388 0.1912 0.0803
vt 0.5000 0.8333
vn 0.8518 0.4639 0.2433
f 25/25/25 26/26/26 27/27/27
v 0.0107 0.1912 -0.0495
vt 0.5000 0.8333
vn 0.5165 0.4639 -0.7198
v 0.1804 0.0000 -0.0510
vt 0.5000 0.8333
vn 0.5165 0.4639 -0.7198
v 0.0000 0.0000 -0.1804
vt 0.5000 0.8333
vn 0.5165 0.4639 -0.7198
f 28/28/28 29/29/29 30/30/30
v 0.1804 0.0000 -0.0510
vt 0.5000 0.8333
vn 0.5165 0.4639 -0.7198
v 0.0107 0.1912 -0.0495
vt 0.5000 0.8333
vn 0.5165 0.4639 -0.7198
v 0.0648 0.1912 -0.0107
vt 0.5000 0.8333
vn 0.5165 0.4639 -0.7198
f 31/31/31 32/32/32 33/33/33
v 0.1143 0.0000 0.1804
vt 0.5000 0.8333
vn 0.0000 -1.0000 0.0000
v 0.0000 0.0000 -0.1804
vt 0.5000 0.8333
vn 0.0000 -1.0000 0.0000
v 0.1804 0.0000 -0.0510
vt 0.5000 0.8333
vn 0.0000 -1.0000 0.0000
f 34/34/34 35/35/35 36/36/36
v 0.0000 0.0000 -0.1804
vt 0.5000 0.8333
vn 0.0000 -1.0000 0.0000
v 0.1143 0.0000 0.1804
vt 0.5000 0.8333
vn 0.0000 -1.0000 0.0000
v -0.1275 0.0000 0.1804
vt 0.5000 0.8333
vn 0.0000 -1.0000 0.0000
f 37/37/37 38/38/38 39/39/39
v 0.0000 0.0000 -0.1804
vt 0.5000 0.8333
vn 0.0000 -1.0000 0.0000
v -0.1275 0.0000 0.1804
vt 0.5000 0.8333
vn 0.0000 -1.0000 0.0000
v -0.1804 0.0000 0.0000
vt 0.5000 0.8333
vn 0.0000 -1.0000 0.0000
f 40/40/40 41/41/41 42/42/42
v -0.1275 0.0000 0.1804
vt 0.5000 0.8333
vn -0.8500 0.4639 0.2494
v -0.0676 0.1912 0.0288
vt 0.5000 0.8333
vn -0.8500 0.4639 0.2494
v -0.1804 0.0000 0.0000
vt 0.5000 0.8333
vn -0.8500 0.4639 0.2494
f 43/43/43 44/44/44 45/45/45
v -0.0676 0.1912 0.0288
vt 0.5000 0.8333
vn -0.8500 0.4639 0.2494
v -0.1275 0.0000 0.1804
vt 0.5000 0.8333
vn -0.8500 0.4639 0.2494
v -0.0525 0.1912 0.0803
vt 0.5000 0.8333
vn -0.8500 0.4639 0.2494
f 46/46/46 47/47/47 48/48/48
