# Blender 4.5.13 LTS
# www.blender.org
o rock
v -0.046315 0.002903 -0.026843
v 0.420311 0.100360 -0.265329
v 0.265243 0.073417 0.352252
v -0.331821 0.100625 0.486960
v -0.496776 0.177588 -0.093678
v -0.050867 0.135063 -0.574958
v 0.356224 0.722607 0.067174
v 0.042247 0.793942 0.477526
v -0.454004 0.921275 0.286599
v -0.250140 0.892578 -0.332194
v 0.326743 0.883340 -0.479508
v 0.057649 1.107521 0.033413
v 0.107803 -0.022032 0.164349
v 0.168307 -0.010978 -0.142681
v 0.368236 0.057768 0.043101
v 0.204527 0.094305 -0.439810
v -0.051777 0.015179 -0.242464
v -0.173238 0.002903 0.192146
v -0.022822 0.121758 0.381807
v -0.337208 0.032813 -0.073249
v -0.477343 0.089792 0.211971
v -0.245997 0.199828 -0.284654
v 0.437094 0.477334 -0.430302
v 0.116103 0.508140 -0.441202
v 0.422883 0.441829 0.245097
v 0.407358 0.460816 -0.076183
v -0.107782 0.482802 0.409582
v 0.189868 0.447414 0.544762
v -0.425106 0.530673 0.079503
v -0.338162 0.508667 0.332907
v -0.197839 0.544584 -0.567635
v -0.467991 0.553842 -0.271241
v 0.387755 0.824158 -0.172188
v 0.348080 0.912662 0.402779
v -0.201501 0.889767 0.433303
v -0.389548 0.957538 -0.045595
v 0.021992 0.854656 -0.367909
v 0.364121 1.214556 0.087728
v 0.221211 1.175575 -0.234030
v 0.079608 1.232978 0.372023
v -0.214071 1.250019 0.193148
v -0.088547 1.090357 -0.145450
vn -0.0936 -0.9941 -0.0542
vn 0.2632 -0.9190 -0.2936
vn 0.5962 -0.3440 -0.7254
vn 0.9022 -0.2943 0.3155
vn 0.3220 0.0029 0.9467
vn -0.9834 0.1481 0.1051
vn -0.8235 -0.2868 -0.4895
vn 0.9965 -0.0079 0.0833
vn 0.7783 -0.1562 0.6081
vn -0.2630 0.3372 0.9040
vn -0.9823 0.1361 0.1291
vn 0.3845 0.1543 -0.9102
vn 0.9923 -0.0210 0.1218
vn 0.1507 0.2188 0.9641
vn -0.3867 0.5021 0.7735
vn -0.4785 0.7771 -0.4089
vn -0.3348 0.5322 -0.7776
vn -0.2370 0.9663 0.1010
vn -0.3655 0.5425 -0.7564
vn 0.0002 0.6864 -0.7272
vn 0.2856 0.9033 -0.3201
vn -0.4832 0.7091 -0.5135
vn -0.8168 0.5688 -0.0964
vn 0.2653 0.8984 -0.3501
vn -0.4327 0.4896 0.7570
vn -0.0814 0.2394 0.9675
vn -0.2612 0.9105 -0.3204
vn 0.6034 0.5602 0.5675
vn 0.9993 -0.0175 0.0341
vn -0.3350 0.9416 0.0347
vn 0.8478 0.3285 -0.4163
vn 0.9058 0.4116 -0.1006
vn -0.3505 0.1017 -0.9310
vn 0.3863 0.2901 -0.8756
vn -0.0313 0.5569 -0.8300
vn -0.7776 0.4151 -0.4723
vn -0.9845 0.1196 0.1283
vn -0.9819 0.0268 -0.1876
vn -0.5061 -0.0454 0.8613
vn -0.3262 -0.1297 0.9364
vn -0.2180 -0.1067 0.9701
vn 0.1392 0.2454 0.9594
vn 0.7861 -0.0803 0.6128
vn 0.9800 0.1823 -0.0795
vn 0.9804 0.0980 0.1707
vn 0.9933 0.0766 0.0870
vn 0.9593 0.2433 -0.1436
vn -0.6925 0.3299 -0.6415
vn -0.6821 -0.4047 -0.6091
vn -0.5560 -0.3196 -0.7673
vn -0.9271 -0.2268 0.2984
vn -0.9192 0.2091 0.3336
vn -0.8752 0.1589 0.4569
vn -0.4135 0.0005 0.9105
vn -0.4241 -0.1683 0.8898
vn 0.0149 -0.4552 0.8902
vn 0.9771 0.2099 -0.0348
vn 0.9922 -0.1125 -0.0546
vn 0.9860 -0.0484 0.1598
vn 0.0228 -0.1142 -0.9932
vn 0.0343 0.0040 -0.9994
vn 0.4777 0.0991 -0.8729
vn -0.6339 -0.7270 -0.2639
vn -0.4326 -0.6073 -0.6664
vn -0.4535 -0.5937 -0.6647
vn -0.6499 -0.7405 -0.1714
vn -0.2707 -0.9609 0.0590
vn -0.2599 -0.9496 0.1750
vn 0.1982 -0.8936 0.4028
vn -0.0208 -0.8397 0.5427
vn -0.0911 -0.8550 0.5106
vn 0.0293 -0.9403 -0.3390
vn 0.0374 -0.9433 -0.3297
vn 0.3587 -0.9186 0.1660
vn 0.3037 -0.9524 0.0256
vn 0.3771 -0.9240 -0.0639
vt 0.142269 0.640061
vt 0.172018 0.553263
vt 0.234026 0.654055
vt 0.210736 0.452417
vt 0.106080 0.459492
vt 0.163285 0.733252
vt 0.049761 0.701123
vt 0.085435 0.581470
vt 0.899505 0.849126
vt 0.809022 0.833759
vt 0.928432 0.716212
vt 0.681336 0.435210
vt 0.558083 0.435210
vt 0.630055 0.290094
vt 0.619440 0.873283
vt 0.510966 0.858093
vt 0.549043 0.723875
vt 0.206792 0.375888
vt 0.102440 0.434720
vt 0.111692 0.259985
vt 0.387830 0.335751
vt 0.275215 0.343519
vt 0.348329 0.190682
vt 0.442726 0.415210
vt 0.389164 0.271736
vt 0.518366 0.281402
vt 0.766439 0.298657
vt 0.639989 0.719259
vt 0.238358 0.221471
vt 0.711333 0.796762
vt 0.696425 0.632999
vt 0.814966 0.674227
vt 0.580781 0.185814
vt 0.493696 0.144866
vt 0.596395 0.000666
vt 0.496073 0.603181
vt 0.389164 0.551297
vt 0.498167 0.436543
vt 0.695092 0.566181
vt 0.591648 0.572529
vt 0.618529 0.436543
vt 0.884322 0.299197
vt 0.773566 0.256245
vt 0.884158 0.190502
vt 0.922406 0.558306
vt 0.817957 0.537334
vt 0.928432 0.436940
vt 0.991157 0.124063
vt 0.872208 0.104858
vt 0.815390 0.436543
vt 0.726005 0.496600
vt 0.767772 0.121696
vt 0.119473 0.091518
vt 0.000667 0.136257
vt 0.005842 0.000667
vt 0.790890 0.000667
vt 0.940000 0.000667
vt 0.734177 0.006218
vt 0.704558 0.116875
vt 0.499787 0.018513
vt 0.393563 0.122846
vt 0.230681 0.085753
vt 0.429368 0.730639
vt 0.999334 0.594415
vt 0.929765 0.552443
vt 0.999334 0.436543
vt 0.020715 0.288131
vt 0.000667 0.451084
vt 0.404286 0.869706
vt 0.021255 0.615739
vt 0.000667 0.486649
vt 0.000667 0.733363
vt 0.084275 0.814874
vt 0.195260 0.853548
vt 0.254025 0.744805
vt 0.326196 0.663803
vt 0.275353 0.552087
s 0
f 1/1/1 14/2/1 13/3/1
f 2/4/2 14/2/2 16/5/2
f 1/1/1 13/3/1 18/6/1
f 1/1/1 18/6/1 20/7/1
f 1/1/1 20/7/1 17/8/1
f 2/9/3 16/10/3 23/11/3
f 3/12/4 15/13/4 25/14/4
f 4/15/5 19/16/5 27/17/5
f 5/18/6 21/19/6 29/20/6
f 6/21/7 22/22/7 31/23/7
f 2/24/8 23/25/8 26/26/8
f 3/12/9 25/14/9 28/27/9
f 4/15/10 27/17/10 30/28/10
f 5/18/11 29/20/11 32/29/11
f 6/30/12 31/31/12 24/32/12
f 7/33/13 33/34/13 38/35/13
f 8/36/14 34/37/14 40/38/14
f 9/39/15 35/40/15 41/41/15
f 10/42/16 36/43/16 42/44/16
f 11/45/17 37/46/17 39/47/17
f 39/48/18 42/44/18 12/49/18
f 39/47/19 37/46/19 42/50/19
f 37/46/20 10/51/20 42/50/20
f 42/44/21 41/52/21 12/49/21
f 42/44/22 36/43/22 41/52/22
f 36/53/23 9/54/23 41/55/23
f 41/52/24 40/56/24 12/49/24
f 41/41/25 35/40/25 40/38/25
f 35/40/26 8/36/26 40/38/26
f 40/56/27 38/57/27 12/49/27
f 40/58/28 34/59/28 38/35/28
f 34/59/29 7/33/29 38/35/29
f 38/57/30 39/48/30 12/49/30
f 38/35/31 33/34/31 39/60/31
f 33/34/32 11/61/32 39/60/32
f 24/32/33 37/46/33 11/45/33
f 24/32/34 31/31/34 37/46/34
f 31/31/35 10/51/35 37/46/35
f 32/29/36 36/53/36 10/62/36
f 32/29/37 29/20/37 36/53/37
f 29/20/38 9/54/38 36/53/38
f 30/28/39 35/40/39 9/39/39
f 30/28/40 27/17/40 35/40/40
f 27/17/41 8/36/41 35/40/41
f 28/63/42 34/37/42 8/36/42
f 28/27/43 25/14/43 34/59/43
f 25/14/44 7/33/44 34/59/44
f 26/26/45 33/34/45 7/33/45
f 26/26/46 23/25/46 33/34/46
f 23/25/47 11/61/47 33/34/47
f 31/23/48 32/29/48 10/62/48
f 31/23/49 22/22/49 32/29/49
f 22/64/50 5/65/50 32/66/50
f 29/20/51 30/67/51 9/54/51
f 29/20/52 21/19/52 30/67/52
f 21/19/53 4/68/53 30/67/53
f 27/17/54 28/63/54 8/36/54
f 27/17/55 19/16/55 28/63/55
f 19/16/56 3/69/56 28/63/56
f 25/14/57 26/26/57 7/33/57
f 25/14/58 15/13/58 26/26/58
f 15/13/59 2/24/59 26/26/59
f 23/11/60 24/32/60 11/45/60
f 23/11/61 16/10/61 24/32/61
f 16/10/62 6/30/62 24/32/62
f 17/8/63 22/70/63 6/71/63
f 17/8/64 20/7/64 22/70/64
f 20/7/65 5/72/65 22/70/65
f 20/7/66 21/73/66 5/72/66
f 20/7/67 18/6/67 21/73/67
f 18/6/68 4/74/68 21/73/68
f 18/6/69 19/75/69 4/74/69
f 18/6/70 13/3/70 19/75/70
f 13/3/71 3/76/71 19/75/71
f 16/5/72 17/8/72 6/71/72
f 16/5/73 14/2/73 17/8/73
f 14/2/1 1/1/1 17/8/1
f 13/3/74 15/77/74 3/76/74
f 13/3/75 14/2/75 15/77/75
f 14/2/76 2/4/76 15/77/76
