# Blender 4.5.13 LTS
# www.blender.org
o stone
v 0.372470 0.024553 0.586664
v 0.398926 0.089357 0.556742
v 0.279358 0.047083 0.553133
v 0.305813 0.111887 0.523211
v 0.397081 -0.035764 0.477793
v 0.423537 0.029040 0.447871
v 0.303969 -0.013234 0.444262
v 0.330425 0.051570 0.414340
v 0.090217 0.106453 0.304972
v 0.121568 0.199088 0.207337
v -0.086125 0.109955 0.251671
v -0.054774 0.202591 0.154036
v 0.131786 -0.064399 0.156217
v 0.163137 0.028236 0.058582
v -0.044556 -0.060897 0.102916
v -0.013205 0.031738 0.005281
v 0.542577 -0.015985 0.015680
v 0.548104 0.094777 -0.087497
v 0.468080 0.113946 0.151171
v 0.473607 0.224708 0.047995
v 0.308103 -0.073235 -0.058339
v 0.313630 0.037527 -0.161516
v 0.233607 0.056696 0.077153
v 0.239134 0.167458 -0.026024
v 0.050540 0.120523 0.176924
v 0.177608 0.205622 0.106970
v -0.085713 0.188755 0.012432
v 0.041355 0.273855 -0.057522
v 0.119109 -0.105683 0.026295
v 0.246177 -0.020584 -0.043659
v -0.017144 -0.037451 -0.138197
v 0.109924 0.047648 -0.208151
v -0.038163 0.023979 0.050509
v -0.016359 0.099952 0.016637
v -0.148734 0.046811 0.030544
v -0.126930 0.122784 -0.003329
v -0.027355 -0.036792 -0.078837
v -0.005551 0.039181 -0.112710
v -0.137927 -0.013960 -0.098803
v -0.116123 0.062012 -0.132676
v -0.056297 0.002225 -0.212438
v -0.031301 0.077779 -0.174947
v -0.048233 0.052086 -0.318299
v -0.023237 0.127640 -0.280809
v 0.083915 -0.039670 -0.221490
v 0.108911 0.035884 -0.183999
v 0.091979 0.010191 -0.327351
v 0.116975 0.085745 -0.289861
v -0.304167 0.138347 0.185789
v -0.400161 0.224564 0.090316
v -0.444237 0.159968 0.346147
v -0.540230 0.246185 0.250673
v -0.427911 -0.085675 0.107906
v -0.523905 0.000541 0.012432
v -0.567981 -0.064055 0.268263
v -0.663974 0.022162 0.172790
v -0.298780 0.051322 -0.413949
v -0.238754 0.084774 -0.442742
v -0.354921 0.089752 -0.486339
v -0.294894 0.123205 -0.515132
v -0.276717 -0.048698 -0.484159
v -0.216690 -0.015245 -0.512952
v -0.332857 -0.010267 -0.556549
v -0.272831 0.023185 -0.585342
v 0.027540 0.102862 0.334862
v -0.006782 0.187245 0.203808
v -0.147946 0.177801 0.429071
v -0.182267 0.262183 0.298017
v -0.111637 -0.102579 0.239032
v -0.145959 -0.018196 0.107978
v -0.287122 -0.027641 0.333241
v -0.321444 0.056742 0.202187
v -0.061272 0.077846 0.190341
v -0.006839 0.159646 0.120353
v -0.200177 0.104853 0.113875
v -0.145745 0.186654 0.043887
v -0.016045 -0.066019 0.057371
v 0.038388 0.015781 -0.012618
v -0.154950 -0.039012 -0.019095
v -0.100518 0.042788 -0.089084
v -0.540256 0.004372 0.257259
v -0.485639 0.063072 0.247583
v -0.615479 0.066953 0.212311
v -0.560863 0.125653 0.202634
v -0.508791 -0.044892 0.136013
v -0.454175 0.013808 0.126337
v -0.584014 0.017689 0.091065
v -0.529398 0.076389 0.081388
v -0.047123 0.031338 0.492427
v 0.009353 0.129975 0.533958
v -0.031361 0.085899 0.341405
v 0.025114 0.184537 0.382935
v 0.130160 -0.063526 0.476657
v 0.186636 0.035112 0.518187
v 0.145921 -0.008964 0.325634
v 0.202397 0.089674 0.367164
v -0.349372 0.006035 1.034971
v -0.313452 0.055977 1.056627
v -0.368376 0.050928 0.962963
v -0.332456 0.100870 0.984619
v -0.261812 -0.035652 0.985874
v -0.225892 0.014290 1.007529
v -0.280816 0.009241 0.913866
v -0.244896 0.059183 0.935521
v 0.533982 0.075590 0.185538
v 0.633623 0.142886 0.182761
v 0.493631 0.129329 0.039941
v 0.593271 0.196624 0.037164
v 0.634266 -0.076355 0.101664
v 0.733907 -0.009060 0.098887
v 0.593915 -0.022617 -0.043934
v 0.693555 0.044678 -0.046711
v 0.506359 0.000588 0.257223
v 0.558006 0.105712 0.224345
v 0.359945 0.069881 0.248783
v 0.411591 0.175005 0.215906
v 0.492067 -0.053352 0.062298
v 0.543713 0.051772 0.029421
v 0.345652 0.015941 0.053859
v 0.397299 0.121065 0.020982
v 0.765682 0.108685 0.130613
v 0.811499 0.184081 -0.020351
v 0.559173 0.216527 0.121798
v 0.604990 0.291924 -0.029166
v 0.654048 -0.117070 -0.016017
v 0.699865 -0.041673 -0.166981
v 0.447539 -0.009227 -0.024832
v 0.493356 0.066169 -0.175796
v -0.779645 0.021783 0.153178
v -0.783141 0.101704 0.153772
v -0.793051 0.021783 0.074309
v -0.796547 0.101704 0.074903
v 0.031566 0.058296 0.015289
v 0.028069 0.138217 0.015883
v 0.018160 0.058296 -0.063580
v 0.014663 0.138217 -0.062986
v -0.190624 0.041201 0.511186
v -0.190598 0.121201 0.510961
v -0.270086 0.041201 0.501925
v -0.270060 0.121201 0.501700
v -0.092458 0.038799 -0.331114
v -0.092432 0.118799 -0.331339
v -0.171920 0.038799 -0.340375
v -0.171894 0.118799 -0.340600
v -0.087996 0.063899 -0.005654
v -0.089555 0.143679 -0.011367
v -0.165170 0.063899 0.015420
v -0.166730 0.143679 0.009707
v -0.256832 0.016321 -0.623969
v -0.258392 0.096101 -0.629682
v -0.334007 0.016321 -0.602896
v -0.335567 0.096101 -0.608609
vn -0.1940 0.4754 0.8581
vn -0.9174 0.2220 -0.3304
vn 0.1940 -0.4754 -0.8581
vn 0.9174 -0.2220 0.3304
vn -0.3475 -0.8513 0.3931
vn 0.3475 0.8513 -0.3931
vn -0.1805 0.7418 0.6459
vn -0.9571 0.0190 -0.2893
vn 0.1805 -0.7418 -0.6459
vn 0.9571 -0.0190 0.2893
vn -0.2269 -0.6703 0.7065
vn 0.2269 0.6703 -0.7065
vn 0.9288 0.2268 0.2932
vn -0.3689 0.6433 0.6709
vn -0.9288 -0.2268 -0.2932
vn 0.3689 -0.6433 -0.6709
vn -0.0365 -0.7312 0.6812
vn 0.0365 0.7312 -0.6812
vn -0.2446 0.8071 0.5374
vn -0.6077 0.3043 -0.7336
vn 0.2446 -0.8071 -0.5374
vn 0.6077 -0.3043 0.7336
vn -0.7556 -0.5060 0.4160
vn 0.7556 0.5060 -0.4160
vn -0.0754 0.4240 0.9025
vn -0.9644 0.1991 -0.1741
vn 0.0754 -0.4240 -0.9025
vn 0.9644 -0.1991 0.1741
vn -0.2536 -0.8835 0.3939
vn 0.2536 0.8835 -0.3939
vn -0.9563 0.2857 0.0617
vn 0.0688 0.4251 -0.9025
vn 0.9563 -0.2857 -0.0617
vn -0.0688 -0.4251 0.9025
vn -0.2841 -0.8589 -0.4262
vn 0.2841 0.8589 0.4262
vn 0.4626 0.8374 0.2911
vn -0.6545 0.1010 0.7493
vn -0.4626 -0.8374 -0.2911
vn 0.6545 -0.1010 -0.7493
vn 0.5981 -0.5371 0.5948
vn -0.5981 0.5371 -0.5948
vn -0.1777 0.8055 0.5654
vn -0.5651 0.3868 -0.7287
vn 0.1777 -0.8055 -0.5654
vn 0.5651 -0.3869 0.7287
vn -0.8056 -0.4490 0.3864
vn 0.8056 0.4490 -0.3864
vn 0.5232 0.7723 0.3603
vn -0.8246 0.3521 0.4427
vn -0.5232 -0.7723 -0.3603
vn 0.8246 -0.3521 -0.4427
vn 0.2150 -0.5287 0.8211
vn -0.2150 0.5287 -0.8211
vn -0.2249 0.7155 0.6614
vn -0.8636 0.1679 -0.4754
vn 0.2249 -0.7155 -0.6614
vn 0.8636 -0.1679 0.4754
vn -0.4512 -0.6781 0.5802
vn 0.4512 0.6781 -0.5802
vn -0.2338 0.3660 0.9008
vn -0.6986 0.5812 -0.4174
vn 0.2338 -0.3660 -0.9008
vn 0.6986 -0.5812 0.4174
vn -0.6763 -0.7268 0.1198
vn 0.6763 0.7268 -0.1198
vn -0.8790 0.4704 0.0782
vn 0.0977 0.3382 -0.9360
vn 0.8790 -0.4704 -0.0782
vn -0.0977 -0.3382 0.9360
vn -0.4667 -0.8151 -0.3432
vn 0.4667 0.8151 0.3432
vn -0.8055 0.3835 0.4517
vn -0.2185 0.5163 -0.8281
vn 0.8055 -0.3835 -0.4517
vn 0.2185 -0.5163 0.8281
vn -0.5508 -0.7658 -0.3321
vn 0.5508 0.7658 0.3321
vn -0.5003 0.7580 0.4184
vn -0.2516 0.3351 -0.9080
vn 0.5003 -0.7580 -0.4184
vn 0.2516 -0.3351 0.9080
vn -0.8285 -0.5595 0.0231
vn 0.8285 0.5595 -0.0231
vn 0.0705 0.2660 0.9614
vn -0.9027 0.4272 -0.0520
vn -0.0705 -0.2660 -0.9614
vn 0.9027 -0.4272 0.0520
vn -0.4245 -0.8641 0.2703
vn 0.4245 0.8641 -0.2703
vn 0.3831 0.7747 0.5032
vn -0.8858 0.4626 -0.0378
vn -0.3831 -0.7747 -0.5032
vn 0.8858 -0.4626 0.0378
vn -0.2620 -0.4312 0.8634
vn 0.2620 0.4312 -0.8634
vn -0.9849 -0.0443 0.1674
vn -0.1676 -0.0000 -0.9859
vn 0.9849 0.0443 -0.1674
vn 0.1676 -0.0000 0.9859
vn 0.0437 -0.9990 -0.0074
vn -0.0437 0.9990 0.0074
vn -0.1158 0.0028 0.9933
vn -0.9933 -0.0000 -0.1158
vn 0.1158 -0.0028 -0.9933
vn 0.9933 -0.0000 0.1158
vn -0.0003 -1.0000 0.0028
vn 0.0003 1.0000 -0.0028
vn 0.2627 0.0740 0.9620
vn -0.9647 -0.0000 0.2634
vn -0.2627 -0.0740 -0.9620
vn 0.9647 -0.0000 -0.2634
vn 0.0195 -0.9973 0.0714
vn -0.0195 0.9973 -0.0714
vn -0.5651 0.3869 -0.7287
vt 0.139953 0.427279
vt 0.111818 0.373257
vt 0.139953 0.376208
vt 0.948061 0.145770
vt 0.986146 0.207849
vt 0.948061 0.208934
vt 0.139953 0.314003
vt 0.111818 0.368025
vt 0.111818 0.316954
vt 0.952096 0.387758
vt 0.990268 0.328128
vt 0.990268 0.389375
vt 0.970237 0.307333
vt 0.923125 0.263350
vt 0.970237 0.252597
vt 0.941801 0.055897
vt 0.988144 0.015031
vt 0.988144 0.068312
vt 0.002616 0.914450
vt 0.067169 0.832775
vt 0.067169 0.922175
vt 0.553863 0.711287
vt 0.623800 0.824019
vt 0.553863 0.824567
vt 0.136954 0.825049
vt 0.072401 0.922175
vt 0.072401 0.832775
vt 0.800337 0.863262
vt 0.870174 0.755689
vt 0.870174 0.864809
vt 0.426153 0.690863
vt 0.334877 0.580781
vt 0.426153 0.576774
vt 0.002616 0.591222
vt 0.093272 0.709665
vt 0.002616 0.704178
vt 0.468100 0.917832
vt 0.543763 0.823554
vt 0.543763 0.911393
vt 0.726960 0.750667
vt 0.795105 0.657861
vt 0.795105 0.768365
vt 0.804962 0.144685
vt 0.880445 0.243778
vt 0.804962 0.238301
vt 0.792154 0.449359
vt 0.724009 0.577561
vt 0.724009 0.467056
vt 0.100488 0.585990
vt 0.002616 0.456062
vt 0.100488 0.458641
vt 0.468100 0.578641
vt 0.564802 0.701422
vt 0.468100 0.705507
vt 0.723473 0.257188
vt 0.799730 0.149799
vt 0.799730 0.262301
vt 0.002616 0.009375
vt 0.068490 0.143424
vt 0.002616 0.150183
vt 0.724009 0.331624
vt 0.800266 0.439013
vt 0.724009 0.444127
vt 0.145673 0.146527
vt 0.209775 0.009879
vt 0.209775 0.151291
vt 0.284518 0.144028
vt 0.284518 0.002616
vt 0.068490 0.002616
vt 0.140441 0.154425
vt 0.553863 0.994959
vt 0.585319 0.939515
vt 0.585319 0.997384
vt 0.462375 0.812917
vt 0.418896 0.885511
vt 0.418896 0.813041
vt 0.121652 0.927408
vt 0.090197 0.987701
vt 0.090197 0.929832
vt 0.418896 0.962203
vt 0.462413 0.891002
vt 0.462413 0.962461
vt 0.853829 0.621404
vt 0.797386 0.570181
vt 0.853829 0.562295
vt 0.804962 0.249010
vt 0.860973 0.315555
vt 0.804962 0.306132
vt 0.941801 0.132634
vt 0.985659 0.074330
vt 0.985659 0.133419
vt 0.939672 0.556983
vt 0.984209 0.631205
vt 0.939672 0.631176
vt 0.468100 0.923177
vt 0.512536 0.982418
vt 0.468100 0.982531
vt 0.334877 0.985314
vt 0.379315 0.911015
vt 0.379315 0.985225
vt 0.934440 0.557209
vt 0.875098 0.630913
vt 0.875098 0.556983
vt 0.723210 0.879152
vt 0.782552 0.952857
vt 0.723210 0.953082
vt 0.415408 0.700102
vt 0.334877 0.807685
vt 0.334877 0.702902
vt 0.280826 0.168027
vt 0.227800 0.289598
vt 0.227800 0.156523
vt 0.548631 0.818322
vt 0.468100 0.710739
vt 0.548631 0.713539
vt 0.560833 0.553045
vt 0.616121 0.436596
vt 0.616121 0.567822
vt 0.145673 0.302803
vt 0.145673 0.169727
vt 0.239038 0.461559
vt 0.320966 0.605400
vt 0.239038 0.595761
vt 0.724009 0.633032
vt 0.758390 0.583576
vt 0.758390 0.633815
vt 0.461979 0.576774
vt 0.431385 0.642231
vt 0.431385 0.580048
vt 0.105720 0.533211
vt 0.140100 0.582667
vt 0.105720 0.583450
vt 0.517768 0.985589
vt 0.547701 0.925499
vt 0.547701 0.988023
vt 0.977231 0.649385
vt 0.942348 0.700972
vt 0.942348 0.640163
vt 0.098504 0.603907
vt 0.134922 0.649749
vt 0.098504 0.662434
vt 0.002616 0.819817
vt 0.082883 0.714897
vt 0.082883 0.816743
vt 0.796554 0.002616
vt 0.723473 0.139453
vt 0.723473 0.016976
vt 0.239038 0.732940
vt 0.319306 0.837860
vt 0.239038 0.834786
vt 0.145673 0.737837
vt 0.221214 0.619610
vt 0.221214 0.747103
vt 0.106586 0.448044
vt 0.002616 0.316788
vt 0.106586 0.314003
vt 0.334877 0.435627
vt 0.438665 0.571542
vt 0.334877 0.570171
vt 0.853884 0.955805
vt 0.800337 0.870041
vt 0.853884 0.876120
vt 0.936569 0.002616
vt 0.877824 0.105101
vt 0.877824 0.007223
vt 0.633661 0.872901
vt 0.687208 0.946506
vt 0.633661 0.952585
vt 0.239038 0.936848
vt 0.297343 0.850192
vt 0.297343 0.943948
vt 0.869866 0.548279
vt 0.797386 0.458142
vt 0.869866 0.449359
vt 0.800337 0.738008
vt 0.871583 0.651065
vt 0.871583 0.748910
vt 0.153488 0.937086
vt 0.198827 0.908704
vt 0.206642 0.935085
vt 0.140288 0.456062
vt 0.105720 0.527196
vt 0.105720 0.460390
vt 0.084965 0.941794
vt 0.051648 0.970752
vt 0.051648 0.927407
vt 0.420640 0.764809
vt 0.455878 0.706621
vt 0.455878 0.771328
vt 0.917893 0.252597
vt 0.866205 0.315555
vt 0.866205 0.262363
vt 0.153488 0.858686
vt 0.206642 0.856686
vt 0.889517 0.408059
vt 0.946864 0.327827
vt 0.946864 0.409376
vt 0.614942 0.830327
vt 0.553863 0.931331
vt 0.553863 0.829799
vt 0.875406 0.863077
vt 0.934615 0.944973
vt 0.875406 0.944770
vt 0.875098 0.551751
vt 0.935840 0.449359
vt 0.935840 0.550864
vt 0.715275 0.860540
vt 0.633661 0.763520
vt 0.715275 0.762471
vt 0.145673 0.752335
vt 0.227287 0.851454
vt 0.145673 0.850405
vt 0.413529 0.957734
vt 0.384547 0.911015
vt 0.413529 0.917192
vt 0.145673 0.942950
vt 0.178609 0.995439
vt 0.145673 0.996071
vt 0.462030 0.647463
vt 0.431385 0.693068
vt 0.431385 0.651609
vt 0.590551 0.990344
vt 0.623314 0.938137
vt 0.623314 0.991391
vt 0.046416 0.980345
vt 0.002616 0.927408
vt 0.046416 0.929041
vt 0.723473 0.320471
vt 0.767273 0.267533
vt 0.767273 0.318837
vt 0.986753 0.534341
vt 0.941072 0.449359
vt 0.986753 0.453592
vt 0.628017 0.574555
vt 0.570034 0.676875
vt 0.570034 0.575510
vt 0.986127 0.754142
vt 0.940446 0.839125
vt 0.940446 0.758376
vt 0.942828 0.246607
vt 0.885677 0.144685
vt 0.942828 0.145131
vt 0.872592 0.108430
vt 0.801786 0.002616
vt 0.872592 0.025571
vt 0.795105 0.796917
vt 0.723210 0.850374
vt 0.723210 0.773597
vt 0.939847 0.952181
vt 0.983869 0.863077
vt 0.983869 0.943542
vt 0.935214 0.755965
vt 0.875406 0.856022
vt 0.875406 0.754142
vt 0.134343 0.723178
vt 0.088115 0.795314
vt 0.088115 0.714897
vt 0.876815 0.742895
vt 0.937116 0.640163
vt 0.937116 0.742828
vt 0.805498 0.338654
vt 0.884285 0.407235
vt 0.805498 0.419378
vt 0.413664 0.825059
vt 0.334877 0.893641
vt 0.334877 0.812917
vt 0.721728 0.755184
vt 0.633661 0.642218
vt 0.721728 0.640163
vt 0.233806 0.464044
vt 0.145673 0.602626
vt 0.145673 0.461559
vt 0.239038 0.610632
vt 0.327106 0.727708
vt 0.239038 0.725653
vt 0.555600 0.566806
vt 0.468100 0.424336
vt 0.555600 0.421819
vt 0.261177 0.455519
vt 0.145673 0.308842
vt 0.261177 0.308035
vt 0.002616 0.159657
vt 0.118085 0.308771
vt 0.002616 0.306693
vt 0.098504 0.667666
vt 0.137466 0.709612
vt 0.098504 0.707225
vt 0.587996 0.002616
vt 0.551856 0.414365
vt 0.551856 0.006422
vt 0.183841 0.982282
vt 0.222654 0.944213
vt 0.222654 0.984177
vt 0.628429 0.413351
vt 0.593228 0.002616
vt 0.628429 0.007165
vt 0.504746 0.416587
vt 0.468100 0.002616
vt 0.504746 0.005538
vt 0.509978 0.005538
vt 0.546624 0.413665
vt 0.509978 0.416587
vt 0.910617 0.950205
vt 0.875406 0.991489
vt 0.875406 0.951013
vt 0.329645 0.002685
vt 0.289750 0.431990
vt 0.289750 0.002616
vt 0.277403 0.989605
vt 0.313496 0.950360
vt 0.313496 0.990786
vt 0.374187 0.002616
vt 0.334877 0.430395
vt 0.334877 0.003714
vt 0.379419 0.006516
vt 0.418528 0.401647
vt 0.379419 0.405547
vt 0.462868 0.405547
vt 0.423760 0.002616
vt 0.462868 0.006516
vt 0.272171 0.994677
vt 0.239038 0.949180
vt 0.272171 0.955876
vt 0.673244 0.326511
vt 0.633661 0.634931
vt 0.633661 0.329483
vt 0.986384 0.394607
vt 0.952096 0.439465
vt 0.952096 0.400493
vt 0.672708 0.321279
vt 0.633661 0.002616
vt 0.672708 0.005182
vt 0.678476 0.611129
vt 0.718777 0.326511
vt 0.718777 0.609098
vt 0.718241 0.287233
vt 0.677940 0.002616
vt 0.718241 0.004647
vt 0.111818 0.424328
vt 0.986146 0.144685
vt 0.139953 0.365074
vt 0.952096 0.326511
vt 0.923125 0.318086
vt 0.941801 0.002616
vt 0.002616 0.825050
vt 0.623800 0.710739
vt 0.136954 0.914450
vt 0.800337 0.754142
vt 0.334877 0.694870
vt 0.093272 0.596710
vt 0.468100 0.829993
vt 0.726960 0.640163
vt 0.880445 0.150162
vt 0.792154 0.559863
vt 0.002616 0.583412
vt 0.564802 0.574555
vt 0.723473 0.144685
vt 0.800266 0.326511
vt 0.145673 0.005115
vt 0.140441 0.013617
vt 0.553863 0.937091
vt 0.462375 0.885387
vt 0.121652 0.985276
vt 0.418896 0.890743
vt 0.797386 0.629291
vt 0.860973 0.258432
vt 0.941801 0.073544
vt 0.984209 0.557013
vt 0.512536 0.923064
vt 0.334877 0.911104
vt 0.934440 0.631139
vt 0.782552 0.878927
vt 0.415408 0.804885
vt 0.280826 0.301102
vt 0.468100 0.815522
vt 0.560833 0.421819
vt 0.320966 0.471197
vt 0.724009 0.582793
vt 0.461979 0.638957
vt 0.140100 0.532428
vt 0.517768 0.923064
vt 0.977231 0.710194
vt 0.134922 0.591222
vt 0.002616 0.717972
vt 0.796554 0.125093
vt 0.319306 0.736014
vt 0.145673 0.610343
vt 0.002616 0.450830
vt 0.438665 0.436997
vt 0.800337 0.949726
vt 0.936569 0.100495
vt 0.687208 0.866821
vt 0.239038 0.843092
vt 0.797386 0.557062
vt 0.800337 0.640163
vt 0.145673 0.910705
vt 0.140288 0.522869
vt 0.084965 0.985139
vt 0.420640 0.700102
vt 0.917893 0.305789
vt 0.889517 0.326511
vt 0.614942 0.931859
vt 0.934615 0.863279
vt 0.875098 0.450246
vt 0.633661 0.861589
vt 0.227287 0.753384
vt 0.384547 0.951556
vt 0.178609 0.942318
vt 0.462030 0.688922
vt 0.590551 0.937091
vt 0.002616 0.978712
vt 0.723473 0.269166
vt 0.941072 0.530108
vt 0.628017 0.675920
vt 0.986127 0.834891
vt 0.885677 0.246161
vt 0.801786 0.085474
vt 0.795105 0.873694
vt 0.939847 0.871715
vt 0.935214 0.857845
vt 0.134343 0.803595
vt 0.876815 0.640229
vt 0.884285 0.326511
vt 0.413664 0.905783
vt 0.633661 0.757239
vt 0.233806 0.605111
vt 0.327106 0.612687
vt 0.468100 0.569323
vt 0.145673 0.456326
vt 0.118085 0.161734
vt 0.137466 0.670053
vt 0.587996 0.410559
vt 0.183841 0.942318
vt 0.593228 0.408802
vt 0.468100 0.413665
vt 0.546624 0.002616
vt 0.910617 0.990681
vt 0.329645 0.432060
vt 0.277403 0.949180
vt 0.374187 0.429297
vt 0.418528 0.002616
vt 0.423760 0.401647
vt 0.239038 0.987981
vt 0.673244 0.631959
vt 0.986384 0.433579
vt 0.633661 0.318713
vt 0.678476 0.328542
vt 0.677940 0.285203
s 0
f 1/1/1 4/2/1 3/3/1
f 3/4/2 8/5/2 7/6/2
f 8/7/3 5/8/3 7/9/3
f 6/10/4 1/11/4 5/12/4
f 7/13/5 1/14/5 3/15/5
f 8/16/6 2/17/6 6/18/6
f 10/19/7 11/20/7 9/21/7
f 11/22/8 16/23/8 15/24/8
f 16/25/9 13/26/9 15/27/9
f 14/28/10 9/29/10 13/30/10
f 15/31/11 9/32/11 11/33/11
f 12/34/12 14/35/12 16/36/12
f 18/37/13 19/38/13 17/39/13
f 20/40/14 23/41/14 19/42/14
f 23/43/15 22/44/15 21/45/15
f 22/46/16 17/47/16 21/48/16
f 23/49/17 17/50/17 19/51/17
f 20/52/18 22/53/18 24/54/18
f 26/55/19 27/56/19 25/57/19
f 27/58/20 32/59/20 31/60/20
f 31/61/21 30/62/21 29/63/21
f 30/64/22 25/65/22 29/66/22
f 31/67/23 25/65/23 27/68/23
f 28/69/24 30/70/24 32/59/24
f 34/71/25 35/72/25 33/73/25
f 36/74/26 39/75/26 35/76/26
f 40/77/27 37/78/27 39/79/27
f 38/80/28 33/81/28 37/82/28
f 39/83/29 33/84/29 35/85/29
f 36/86/30 38/87/30 40/88/30
f 42/89/31 43/90/31 41/91/31
f 43/92/32 48/93/32 47/94/32
f 47/95/33 46/96/33 45/97/33
f 46/98/34 41/99/34 45/100/34
f 43/101/35 45/102/35 41/103/35
f 44/104/36 46/105/36 48/106/36
f 50/107/37 51/108/37 49/109/37
f 52/110/38 55/111/38 51/112/38
f 55/113/39 54/114/39 53/115/39
f 54/116/40 49/117/40 53/118/40
f 51/112/41 53/119/41 49/120/41
f 52/121/42 54/122/42 56/123/42
f 58/124/43 59/125/43 57/126/43
f 60/127/44 63/128/44 59/129/44
f 63/130/45 62/131/45 61/132/45
f 62/133/46 57/134/46 61/135/46
f 59/136/47 61/137/47 57/138/47
f 60/139/48 62/140/48 64/141/48
f 66/142/49 67/143/49 65/144/49
f 68/145/50 71/146/50 67/147/50
f 71/148/51 70/149/51 69/150/51
f 70/151/52 65/152/52 69/153/52
f 71/154/53 65/155/53 67/156/53
f 68/157/54 70/158/54 72/159/54
f 73/160/55 76/161/55 75/162/55
f 76/163/56 79/164/56 75/165/56
f 79/166/57 78/167/57 77/168/57
f 78/169/58 73/170/58 77/171/58
f 79/172/59 73/173/59 75/174/59
f 80/175/60 74/176/60 78/177/60
f 81/178/61 84/179/61 83/180/61
f 84/181/62 87/182/62 83/183/62
f 88/184/63 85/185/63 87/186/63
f 86/187/64 81/188/64 85/189/64
f 87/190/65 81/191/65 83/192/65
f 84/179/66 86/193/66 88/194/66
f 90/195/67 91/196/67 89/197/67
f 92/198/68 95/199/68 91/200/68
f 95/201/69 94/202/69 93/203/69
f 94/204/70 89/205/70 93/206/70
f 95/207/71 89/208/71 91/209/71
f 92/210/72 94/211/72 96/212/72
f 97/213/73 100/214/73 99/215/73
f 99/216/74 104/217/74 103/218/74
f 104/219/75 101/220/75 103/221/75
f 102/222/76 97/223/76 101/224/76
f 103/225/77 97/226/77 99/227/77
f 104/228/78 98/229/78 102/230/78
f 105/231/79 108/232/79 107/233/79
f 108/234/80 111/235/80 107/236/80
f 112/237/81 109/238/81 111/239/81
f 109/240/82 106/241/82 105/242/82
f 111/243/83 105/244/83 107/245/83
f 108/246/84 110/247/84 112/248/84
f 114/249/85 115/250/85 113/251/85
f 116/252/86 119/253/86 115/254/86
f 120/255/87 117/256/87 119/257/87
f 118/258/88 113/259/88 117/260/88
f 115/261/89 117/262/89 113/263/89
f 116/264/90 118/265/90 120/266/90
f 121/267/91 124/268/91 123/269/91
f 124/270/92 127/271/92 123/272/92
f 127/273/93 126/274/93 125/275/93
f 125/276/94 122/277/94 121/278/94
f 127/279/95 121/280/95 123/281/95
f 124/282/96 126/283/96 128/284/96
f 130/285/97 131/286/97 129/287/97
f 132/288/98 135/289/98 131/290/98
f 136/291/99 133/292/99 135/293/99
f 133/294/100 130/295/100 129/296/100
f 135/297/101 129/298/101 131/299/101
f 132/300/102 134/301/102 136/302/102
f 138/303/103 139/304/103 137/305/103
f 140/306/104 143/307/104 139/308/104
f 144/309/105 141/310/105 143/311/105
f 142/312/106 137/313/106 141/314/106
f 143/315/107 137/316/107 139/317/107
f 140/318/108 142/319/108 144/320/108
f 145/321/109 148/322/109 147/323/109
f 148/324/110 151/325/110 147/326/110
f 152/327/111 149/328/111 151/329/111
f 149/330/112 146/331/112 145/332/112
f 147/333/113 149/334/113 145/335/113
f 148/336/114 150/337/114 152/338/114
f 1/1/1 2/339/1 4/2/1
f 3/4/2 4/340/2 8/5/2
f 8/7/3 6/341/3 5/8/3
f 6/10/4 2/342/4 1/11/4
f 7/13/5 5/343/5 1/14/5
f 8/16/6 4/344/6 2/17/6
f 10/19/7 12/345/7 11/20/7
f 11/22/8 12/346/8 16/23/8
f 16/25/9 14/347/9 13/26/9
f 14/28/10 10/348/10 9/29/10
f 15/31/11 13/349/11 9/32/11
f 12/34/12 10/350/12 14/35/12
f 18/37/13 20/351/13 19/38/13
f 20/40/14 24/352/14 23/41/14
f 23/43/15 24/353/15 22/44/15
f 22/46/16 18/354/16 17/47/16
f 23/49/17 21/355/17 17/50/17
f 20/52/18 18/356/18 22/53/18
f 26/55/19 28/357/19 27/56/19
f 27/58/20 28/69/20 32/59/20
f 31/61/21 32/358/21 30/62/21
f 30/64/22 26/359/22 25/65/22
f 31/67/23 29/66/23 25/65/23
f 28/69/24 26/360/24 30/70/24
f 34/71/25 36/361/25 35/72/25
f 36/74/26 40/362/26 39/75/26
f 40/77/27 38/363/27 37/78/27
f 38/80/28 34/364/28 33/81/28
f 39/83/29 37/365/29 33/84/29
f 36/86/30 34/366/30 38/87/30
f 42/89/31 44/367/31 43/90/31
f 43/92/32 44/368/32 48/93/32
f 47/95/33 48/369/33 46/96/33
f 46/98/34 42/370/34 41/99/34
f 43/101/35 47/371/35 45/102/35
f 44/104/36 42/372/36 46/105/36
f 50/107/37 52/373/37 51/108/37
f 52/110/38 56/374/38 55/111/38
f 55/113/39 56/375/39 54/114/39
f 54/116/40 50/376/40 49/117/40
f 51/112/41 55/111/41 53/119/41
f 52/121/42 50/377/42 54/122/42
f 58/124/43 60/378/43 59/125/43
f 60/127/115 64/379/115 63/128/115
f 63/130/45 64/380/45 62/131/45
f 62/133/46 58/381/46 57/134/46
f 59/136/47 63/382/47 61/137/47
f 60/139/48 58/383/48 62/140/48
f 66/142/49 68/384/49 67/143/49
f 68/145/50 72/385/50 71/146/50
f 71/148/51 72/386/51 70/149/51
f 70/151/52 66/387/52 65/152/52
f 71/154/53 69/388/53 65/155/53
f 68/157/54 66/389/54 70/158/54
f 73/160/55 74/390/55 76/161/55
f 76/163/56 80/391/56 79/164/56
f 79/166/57 80/392/57 78/167/57
f 78/169/58 74/393/58 73/170/58
f 79/172/59 77/394/59 73/173/59
f 80/175/60 76/395/60 74/176/60
f 81/178/61 82/396/61 84/179/61
f 84/181/62 88/397/62 87/182/62
f 88/184/63 86/398/63 85/185/63
f 86/187/64 82/399/64 81/188/64
f 87/190/65 85/400/65 81/191/65
f 84/179/66 82/396/66 86/193/66
f 90/195/67 92/401/67 91/196/67
f 92/198/68 96/402/68 95/199/68
f 95/201/69 96/403/69 94/202/69
f 94/204/70 90/404/70 89/205/70
f 95/207/71 93/405/71 89/208/71
f 92/210/72 90/406/72 94/211/72
f 97/213/73 98/407/73 100/214/73
f 99/216/74 100/408/74 104/217/74
f 104/219/75 102/409/75 101/220/75
f 102/222/76 98/410/76 97/223/76
f 103/225/77 101/411/77 97/226/77
f 104/228/78 100/412/78 98/229/78
f 105/231/79 106/413/79 108/232/79
f 108/234/80 112/414/80 111/235/80
f 112/237/81 110/415/81 109/238/81
f 109/240/82 110/416/82 106/241/82
f 111/243/83 109/417/83 105/244/83
f 108/246/84 106/418/84 110/247/84
f 114/249/85 116/419/85 115/250/85
f 116/252/86 120/420/86 119/253/86
f 120/255/87 118/421/87 117/256/87
f 118/258/88 114/422/88 113/259/88
f 115/261/89 119/423/89 117/262/89
f 116/264/90 114/424/90 118/265/90
f 121/267/91 122/425/91 124/268/91
f 124/270/92 128/426/92 127/271/92
f 127/273/93 128/427/93 126/274/93
f 125/276/94 126/428/94 122/277/94
f 127/279/95 125/429/95 121/280/95
f 124/282/96 122/430/96 126/283/96
f 130/285/97 132/431/97 131/286/97
f 132/288/98 136/432/98 135/289/98
f 136/291/99 134/433/99 133/292/99
f 133/294/100 134/434/100 130/295/100
f 135/297/101 133/435/101 129/298/101
f 132/300/102 130/436/102 134/301/102
f 138/303/103 140/437/103 139/304/103
f 140/306/104 144/438/104 143/307/104
f 144/309/105 142/439/105 141/310/105
f 142/312/106 138/440/106 137/313/106
f 143/315/107 141/441/107 137/316/107
f 140/318/108 138/442/108 142/319/108
f 145/321/109 146/443/109 148/322/109
f 148/324/110 152/444/110 151/325/110
f 152/327/111 150/445/111 149/328/111
f 149/330/112 150/446/112 146/331/112
f 147/333/113 151/447/113 149/334/113
f 148/336/114 146/448/114 150/337/114
