# The Giants of Holst prop, from CC0 kits by KayKit (Kay Lousberg) and Kenney
v 0.0000 1.4631 0.2001
vt 0.9321 0.8347
vn -1.0000 0.0000 0.0000
v 0.0000 1.0242 -0.1969
vt 0.9321 0.8216
vn -1.0000 0.0000 0.0000
v 0.0000 1.0242 0.2001
vt 0.9321 0.8216
vn -1.0000 0.0000 0.0000
f 1/1/1 2/2/2 3/3/3
v 1.2496 1.3135 -0.3806
vt 0.9321 0.8347
vn 0.5719 -0.0181 -0.8201
v 1.4995 0.8632 -0.1963
vt 0.9321 0.8216
vn 0.5795 0.0027 -0.8150
v 1.2496 0.9967 -0.3736
vt 0.9321 0.8216
vn 0.5802 -0.0053 -0.8144
f 4/4/4 5/5/5 6/6/6
v 0.4997 1.4430 -0.1839
vt 0.9321 0.8770
vn 0.0479 0.8713 -0.4884
v 0.2498 1.3523 -0.3812
vt 0.9321 0.8770
vn 0.0478 0.8833 -0.4664
v 0.0000 1.4631 -0.1969
vt 0.9321 0.8770
vn -0.1359 0.9366 -0.3231
f 7/7/7 8/8/8 9/9/9
v 0.7497 1.3180 0.1009
vt 0.9321 0.8734
vn 0.3173 0.9483 -0.0099
v 0.3732 1.4163 0.1183
vt 0.9321 0.8755
vn 0.2502 0.9671 -0.0451
v 0.7494 1.3252 0.2526
vt 0.9321 0.8593
vn 0.2971 0.9538 -0.0444
f 10/10/10 11/11/11 12/12/12
v 0.2409 1.5750 0.0147
vt 0.9321 0.9104
vn 0.4154 0.7140 0.5636
v 0.0000 1.4631 0.2001
vt 0.9321 0.8770
vn 0.2349 0.2156 0.9478
v 0.3732 1.4163 0.1183
vt 0.9321 0.8755
vn 0.3420 0.7497 0.5666
f 13/13/13 14/14/14 15/15/15
v 1.2667 1.4070 0.0219
vt 0.9321 0.9098
vn 0.9193 0.3936 0.0000
v 1.4995 0.8632 0.2049
vt 0.9321 0.8770
vn 0.9837 0.1797 0.0000
v 1.4995 0.8632 -0.1963
vt 0.9321 0.8770
vn 0.9847 0.1744 -0.0003
f 16/16/16 17/17/17 18/18/18
v 0.8330 1.2979 0.0210
vt 0.9321 0.8734
vn 0.2779 0.9168 0.2867
v 0.9996 1.2220 0.0811
vt 0.9321 0.8734
vn 0.0182 0.9417 0.3361
v 0.9996 1.3533 -0.1849
vt 0.9321 0.8770
vn -0.0801 0.9076 0.4120
f 19/19/19 20/20/20 21/21/21
v 0.9022 1.0118 0.1704
vt 0.9321 0.8164
vn -0.5994 -0.6137 0.5139
v 0.8888 1.0911 0.2291
vt 0.9321 0.8208
vn -0.5074 -0.3820 0.7724
v 0.8423 1.0953 0.1390
vt 0.9321 0.8207
vn -0.8099 -0.4317 0.3971
f 22/22/22 23/23/23 24/24/24
v 1.3152 0.9001 0.1900
vt 0.9321 0.8217
vn 0.0030 0.0284 0.9996
v 0.9979 0.9665 0.1722
vt 0.9321 0.8150
vn 0.1207 0.4169 0.9009
v 1.0077 0.8676 0.2237
vt 0.9321 0.8093
vn -0.0163 0.2907 0.9567
f 25/25/25 26/26/26 27/27/27
v 0.2498 0.9921 0.3936
vt 0.9321 0.8136
vn -0.6145 -0.0294 0.7884
v 0.2466 1.1850 0.3108
vt 0.9321 0.8224
vn -0.5540 0.3206 0.7683
v 0.0000 1.0242 0.2001
vt 0.9321 0.8216
vn -0.4968 -0.0610 0.8657
f 28/28/28 29/29/29 30/30/30
v 0.5125 1.1679 0.2487
vt 0.9321 0.8083
vn -0.3275 -0.3291 0.8857
v 0.4985 0.8775 0.1356
vt 0.9321 0.7941
vn -0.3275 -0.3291 0.8857
v 0.7609 0.9018 0.2416
vt 0.9321 0.7954
vn -0.3275 -0.3291 0.8857
f 31/31/31 32/32/32 33/33/33
v 0.0000 1.4631 -0.1969
vt 0.9321 0.8347
vn -0.5882 -0.0088 -0.8087
v 0.2498 1.1699 -0.3754
vt 0.9321 0.8216
vn -0.5825 -0.0173 -0.8126
v 0.0000 1.0242 -0.1969
vt 0.9321 0.8216
vn -0.5685 -0.0107 -0.8226
f 34/34/34 35/35/35 36/36/36
v 0.2498 1.3523 -0.3812
vt 0.9321 0.8347
vn 0.6290 -0.0288 -0.7768
v 0.4997 1.1531 -0.1715
vt 0.9321 0.8216
vn 0.6309 -0.0014 -0.7759
v 0.2498 1.1699 -0.3754
vt 0.9321 0.8216
vn 0.6208 -0.0123 -0.7839
f 37/37/37 38/38/38 39/39/39
v 0.4997 1.4430 -0.1839
vt 0.9321 0.8347
vn -0.5169 -0.0047 -0.8560
v 0.7511 1.1271 -0.3340
vt 0.9321 0.8210
vn -0.2650 -0.0352 -0.9636
v 0.4997 1.1531 -0.1715
vt 0.9321 0.8216
vn -0.4900 -0.0694 -0.8689
f 40/40/40 41/41/41 42/42/42
v 0.7511 1.3058 -0.3221
vt 0.9321 0.8347
vn -0.0214 0.4392 -0.8981
v 0.9972 1.0781 -0.2965
vt 0.9321 0.8210
vn 0.0769 0.3241 -0.9429
v 0.7511 1.1271 -0.3340
vt 0.9321 0.8210
vn -0.2650 -0.0352 -0.9636
f 43/43/43 44/44/44 45/45/45
v 0.9996 1.3533 -0.1849
vt 0.9321 0.8347
vn 0.0098 0.4187 -0.9081
v 1.2496 0.9967 -0.3736
vt 0.9321 0.8216
vn -0.3432 0.0903 -0.9349
v 0.9972 1.0781 -0.2965
vt 0.9321 0.8210
vn 0.0769 0.3241 -0.9429
f 46/46/46 47/47/47 48/48/48
v 0.9870 0.3054 -0.5898
vt 0.9321 0.7824
vn 0.2572 -0.3185 -0.9123
v 1.2460 0.0000 -0.4497
vt 0.9321 0.7693
vn 0.4605 -0.1578 -0.8735
v 0.9872 0.0000 -0.4290
vt 0.9321 0.7693
vn 0.1235 -0.4620 -0.8782
f 49/49/49 50/50/50 51/51/51
v 0.9966 0.5941 -0.2410
vt 0.9321 0.7954
vn 0.2830 0.7351 -0.6160
v 1.2447 0.2841 -0.4598
vt 0.9321 0.7824
vn 0.3619 0.7133 -0.6002
v 0.9870 0.3054 -0.5898
vt 0.9321 0.7824
vn 0.3247 0.7243 -0.6082
f 52/52/52 53/53/53 54/54/54
v 0.9993 0.8530 -0.3910
vt 0.9321 0.8085
vn -0.6276 -0.3854 -0.6765
v 1.2463 0.5088 -0.4241
vt 0.9321 0.7954
vn -0.5949 -0.0161 -0.8037
v 0.9966 0.5941 -0.2410
vt 0.9321 0.7954
vn -0.6274 -0.2652 -0.7321
f 55/55/55 56/56/56 57/57/57
v 0.9972 1.0781 -0.2965
vt 0.9321 0.8210
vn 0.0769 0.3241 -0.9429
v 1.2490 0.7510 -0.3825
vt 0.9321 0.8085
vn 0.3579 0.1216 -0.9258
v 0.9993 0.8530 -0.3910
vt 0.9321 0.8085
vn 0.1787 0.3452 -0.9214
f 58/58/58 59/59/59 60/60/60
v 0.7480 0.0000 -0.5238
vt 0.9321 0.7693
vn 0.0224 0.3147 -0.9489
v 0.7454 0.3063 -0.4556
vt 0.9321 0.7824
vn -0.1867 0.2938 -0.9375
v 0.9870 0.3054 -0.5898
vt 0.9321 0.7824
vn -0.4675 0.2651 -0.8433
f 61/61/61 62/62/62 63/63/63
v 0.7477 0.6035 -0.3270
vt 0.9321 0.7954
vn 0.0446 0.5157 -0.8556
v 0.9870 0.3054 -0.5898
vt 0.9321 0.7824
vn -0.4675 0.2651 -0.8433
v 0.7454 0.3063 -0.4556
vt 0.9321 0.7824
vn -0.1867 0.2938 -0.9375
f 64/64/64 65/65/65 66/66/66
v 0.9993 0.8530 -0.3910
vt 0.9321 0.8085
vn -0.4790 -0.2590 -0.8388
v 0.7680 0.8753 -0.2658
vt 0.9321 0.8085
vn -0.4464 -0.1695 -0.8787
v 0.7511 1.1271 -0.3340
vt 0.9321 0.8210
vn -0.2650 -0.0352 -0.9636
f 67/67/67 68/68/68 69/69/69
v 0.5006 0.2979 -0.4792
vt 0.9321 0.7824
vn -0.0727 0.2966 -0.9522
v 0.7454 0.3063 -0.4556
vt 0.9321 0.7824
vn -0.1867 0.2938 -0.9375
v 0.7480 0.0000 -0.5238
vt 0.9321 0.7693
vn 0.0224 0.3147 -0.9489
f 70/70/70 71/71/71 72/72/72
v 0.4995 0.5916 -0.3878
vt 0.9321 0.7954
vn 0.1273 0.4337 -0.8920
v 0.7454 0.3063 -0.4556
vt 0.9321 0.7824
vn -0.1867 0.2938 -0.9375
v 0.5006 0.2979 -0.4792
vt 0.9321 0.7824
vn -0.0727 0.2966 -0.9522
f 73/73/73 74/74/74 75/75/75
v 0.4997 0.7790 -0.1840
vt 0.9321 0.8037
vn 0.5386 0.4382 -0.7197
v 0.7477 0.6035 -0.3270
vt 0.9321 0.7954
vn 0.0446 0.5157 -0.8556
v 0.4995 0.5916 -0.3878
vt 0.9321 0.7954
vn 0.1273 0.4337 -0.8920
f 76/76/76 77/77/77 78/78/78
v 0.4997 1.1531 -0.1715
vt 0.9321 0.8216
vn -0.4900 -0.0694 -0.8689
v 0.7680 0.8753 -0.2658
vt 0.9321 0.8085
vn -0.4464 -0.1695 -0.8787
v 0.4997 0.7790 -0.1840
vt 0.9321 0.8037
vn -0.3021 0.0319 -0.9527
f 79/79/79 80/80/80 81/81/81
v 0.2524 0.0000 -0.4886
vt 0.9321 0.7693
vn -0.5155 0.2348 -0.8241
v 0.5006 0.2979 -0.4792
vt 0.9321 0.7824
vn -0.0727 0.2966 -0.9522
v 0.5094 0.0000 -0.6267
vt 0.9321 0.7693
vn -0.4360 0.3889 -0.8116
f 82/82/82 83/83/83 84/84/84
v 0.2498 0.5864 -0.3600
vt 0.9321 0.7954
vn -0.3734 0.0782 -0.9243
v 0.5006 0.2979 -0.4792
vt 0.9321 0.7824
vn -0.0727 0.2966 -0.9522
v 0.2507 0.2937 -0.4067
vt 0.9321 0.7824
vn -0.4268 0.1989 -0.8822
f 85/85/85 86/86/86 87/87/87
v 0.2498 0.8779 -0.3648
vt 0.9321 0.8085
vn -0.4896 -0.0191 -0.8717
v 0.4995 0.5916 -0.3878
vt 0.9321 0.7954
vn 0.1273 0.4337 -0.8920
v 0.2498 0.5864 -0.3600
vt 0.9321 0.7954
vn -0.3734 0.0782 -0.9243
f 88/88/88 89/89/89 90/90/90
v 0.2498 1.1699 -0.3754
vt 0.9321 0.8216
vn 0.6208 -0.0123 -0.7839
v 0.4997 0.7790 -0.1840
vt 0.9321 0.8037
vn 0.5386 0.4382 -0.7197
v 0.2498 0.8779 -0.3648
vt 0.9321 0.8085
vn 0.6188 0.1571 -0.7696
f 91/91/91 92/92/92 93/93/93
v 0.0000 0.4389 -0.1971
vt 0.9321 0.7824
vn -0.8983 0.0398 -0.4376
v 0.2524 0.0000 -0.4886
vt 0.9321 0.7693
vn -0.5155 0.2348 -0.8241
v 0.0000 0.0000 -0.2097
vt 0.9321 0.7693
vn -0.9309 0.0104 -0.3651
f 94/94/94 95/95/95 96/96/96
v 0.0000 1.0242 -0.1969
vt 0.9321 0.8085
vn -0.5685 -0.0107 -0.8226
v 0.2498 0.5864 -0.3600
vt 0.9321 0.7954
vn -0.3734 0.0782 -0.9243
v 0.0000 0.4389 -0.1971
vt 0.9321 0.7954
vn -0.8983 0.0398 -0.4376
f 97/97/97 98/98/98 99/99/99
v 0.2501 0.0000 0.2404
vt 0.9321 0.7693
vn 0.7890 -0.6144 0.0026
v 0.5001 0.3207 0.1804
vt 0.9321 0.7683
vn 0.7890 -0.6144 0.0026
v 0.4998 0.3207 0.2803
vt 0.9321 0.7824
vn 0.7890 -0.6144 0.0026
f 100/100/100 101/101/101 102/102/102
v 0.4901 0.6196 0.1172
vt 0.9321 0.8380
vn -0.0811 0.9966 0.0124
v 0.2498 0.5948 0.2137
vt 0.9321 0.8377
vn -0.1047 0.9945 -0.0044
v 0.3867 0.6091 0.2071
vt 0.9321 0.8380
vn -0.1007 0.9949 0.0002
f 103/103/103 104/104/104 105/105/105
v 0.7416 1.1124 0.1526
vt 0.9321 0.8067
vn 0.2898 0.3780 0.8793
v 0.5125 1.1679 0.2487
vt 0.9321 0.8083
vn 0.4349 0.3844 0.8143
v 0.7609 0.9018 0.2416
vt 0.9321 0.7954
vn 0.2295 0.4058 0.8847
f 106/106/106 107/107/107 108/108/108
v 0.7494 0.0000 0.3297
vt 0.9321 0.7693
vn 0.0402 0.3720 0.9274
v 0.7493 0.4347 0.1406
vt 0.9321 0.7861
vn 0.1798 0.2203 0.9587
v 0.5001 0.3207 0.1804
vt 0.9321 0.7683
vn 0.0742 0.2243 0.9717
f 109/109/109 110/110/110 111/111/111
v 0.4901 0.6196 0.1172
vt 0.9321 0.8380
vn -0.0811 0.9966 0.0124
v 0.3867 0.6091 0.2071
vt 0.9321 0.8380
vn -0.1007 0.9949 0.0002
v 0.5843 0.6262 0.1674
vt 0.9321 0.8239
vn -0.0636 0.9979 -0.0119
f 112/112/112 113/113/113 114/114/114
v 0.7609 0.9018 0.2416
vt 0.9321 0.8377
vn -0.0057 0.9994 -0.0332
v 0.7609 0.9036 0.3473
vt 0.9321 0.8800
vn 0.0121 0.9998 -0.0164
v 0.9375 0.8903 0.3246
vt 0.9321 0.8516
vn 0.1136 0.9880 -0.1048
f 115/115/115 116/116/116 117/117/117
v 0.3732 1.4163 0.1183
vt 0.9321 0.8332
vn -0.1842 0.4829 0.8561
v 0.2900 1.1827 0.2653
vt 0.9321 0.8224
vn -0.2658 0.5793 0.7705
v 0.5125 1.1679 0.2487
vt 0.9321 0.8083
vn -0.1012 0.4172 0.9032
f 118/118/118 119/119/119 120/120/120
v 1.0077 0.3378 0.0692
vt 0.9321 0.7823
vn 0.3740 0.3700 0.8504
v 0.7493 0.4347 0.1406
vt 0.9321 0.7861
vn 0.1798 0.2203 0.9587
v 0.7494 0.0000 0.3297
vt 0.9321 0.7693
vn 0.0402 0.3720 0.9274
f 121/121/121 122/122/122 123/123/123
v 1.0077 0.8676 0.2237
vt 0.9321 0.8093
vn -0.0163 0.2907 0.9567
v 0.7503 0.6354 0.1398
vt 0.9321 0.7814
vn -0.4369 0.1363 0.8891
v 1.0000 0.6200 0.2221
vt 0.9321 0.7955
vn -0.1271 -0.1084 0.9859
f 124/124/124 125/125/125 126/126/126
v 0.7416 1.1124 0.1526
vt 0.9321 0.8067
vn 0.2898 0.3780 0.8793
v 0.9935 1.1585 0.1049
vt 0.9321 0.8270
vn -0.1640 0.3516 0.9217
v 0.9996 1.2220 0.0811
vt 0.9321 0.8311
vn -0.1013 0.3584 0.9280
f 127/127/127 128/128/128 129/129/129
v 0.8768 0.5252 0.2397
vt 0.9321 0.7749
vn 0.2229 -0.5662 0.7936
v 0.7493 0.4347 0.1406
vt 0.9321 0.7720
vn -0.0629 -0.6953 0.7160
v 1.0077 0.3378 0.0692
vt 0.9321 0.7682
vn -0.2433 -0.3028 0.9215
f 130/130/130 131/131/131 132/132/132
v 1.2496 0.5057 0.2425
vt 0.9321 0.7954
vn -0.0178 -0.0364 0.9992
v 1.0000 0.6200 0.2221
vt 0.9321 0.7955
vn -0.1271 -0.1084 0.9859
v 1.0077 0.3378 0.0692
vt 0.9321 0.7823
vn -0.2433 -0.3028 0.9215
f 133/133/133 134/134/134 135/135/135
v 1.4995 0.4054 0.2049
vt 0.9321 0.8085
vn 0.1389 0.0465 0.9892
v 1.3783 0.6507 0.1616
vt 0.9321 0.8089
vn 0.0827 0.2126 0.9736
v 1.3435 0.5773 0.1806
vt 0.9321 0.8038
vn 0.2391 0.2532 0.9374
f 136/136/136 137/137/137 138/138/138
v 1.4995 0.4054 0.2049
vt 0.9321 0.7954
vn 0.1389 0.0465 0.9892
v 1.3435 0.5773 0.1806
vt 0.9321 0.8038
vn 0.2391 0.2532 0.9374
v 1.2504 0.6076 0.2439
vt 0.9321 0.8016
vn 0.0014 -0.3227 0.9465
v 1.2496 0.5057 0.2425
vt 0.9321 0.7954
vn -0.0178 -0.0364 0.9992
f 139/139/139 140/140/140 141/141/141 142/142/142
v 1.4995 0.0000 0.2039
vt 0.9321 0.7693
vn 0.3260 0.2217 0.9190
v 1.2492 0.2954 0.2214
vt 0.9321 0.7824
vn -0.1725 0.1328 0.9760
v 1.2494 0.0000 0.3597
vt 0.9321 0.7693
vn 0.4912 0.3693 0.7888
f 143/143/143 144/144/144 145/145/145
v 1.4995 0.4054 0.2049
vt 0.9321 0.7954
vn 0.1389 0.0465 0.9892
v 1.2492 0.2954 0.2214
vt 0.9321 0.7824
vn -0.1725 0.1328 0.9760
v 1.4995 0.2539 0.2049
vt 0.9321 0.7824
vn 0.0655 -0.0022 0.9978
f 146/146/146 147/147/147 148/148/148
v 1.1473 0.7007 0.2437
vt 0.9321 0.8033
vn -0.3496 -0.1885 0.9178
v 1.0867 0.8292 0.2325
vt 0.9321 0.8089
vn -0.0738 0.1032 0.9919
v 1.0077 0.8676 0.2237
vt 0.9321 0.8093
vn -0.0163 0.2907 0.9567
v 1.0000 0.6200 0.2221
vt 0.9321 0.7955
vn -0.1271 -0.1084 0.9859
f 149/149/149 150/150/150 151/151/151 152/152/152
v 1.2504 0.6076 0.2439
vt 0.9321 0.8016
vn 0.0014 -0.3227 0.9465
v 1.1473 0.7007 0.2437
vt 0.9321 0.8033
vn -0.3496 -0.1885 0.9178
v 1.0000 0.6200 0.2221
vt 0.9321 0.7955
vn -0.1271 -0.1084 0.9859
v 1.2496 0.5057 0.2425
vt 0.9321 0.7954
vn -0.0178 -0.0364 0.9992
f 153/153/153 154/154/154 155/155/155 156/156/156
v 0.2498 0.3020 0.2990
vt 0.9321 0.7824
vn -0.0213 0.0346 0.9992
v 0.0000 0.0000 0.2001
vt 0.9321 0.7693
vn -0.2555 -0.1034 0.9613
v 0.2501 0.0000 0.2404
vt 0.9321 0.7693
vn -0.0853 -0.1901 0.9781
f 157/157/157 158/158/158 159/159/159
v 0.2498 0.5948 0.2137
vt 0.9321 0.7954
vn -0.0744 0.0438 0.9963
v 0.0000 1.0242 0.2001
vt 0.9321 0.8085
vn -0.4968 -0.0610 0.8657
v 0.0000 0.4389 0.2001
vt 0.9321 0.7954
vn -0.2226 0.0935 0.9704
f 160/160/160 161/161/161 162/162/162
v 1.4990 0.2539 -0.2025
vt 0.9321 0.7824
vn 1.0000 -0.0005 -0.0015
v 1.4995 0.0000 0.2039
vt 0.9321 0.7693
vn 1.0000 -0.0004 -0.0015
v 1.4988 0.0000 -0.2066
vt 0.9321 0.7693
vn 1.0000 -0.0008 -0.0018
f 163/163/163 164/164/164 165/165/165
v 1.4990 0.4054 -0.2015
vt 0.9321 0.7954
vn 1.0000 -0.0007 -0.0013
v 1.4995 0.2539 0.2049
vt 0.9321 0.7824
vn 1.0000 -0.0001 -0.0013
v 1.4990 0.2539 -0.2025
vt 0.9321 0.7824
vn 1.0000 -0.0005 -0.0015
f 166/166/166 167/167/167 168/168/168
v 1.4995 0.8632 -0.1963
vt 0.9321 0.8216
vn 0.9847 0.1744 -0.0003
v 1.4995 0.4054 0.2049
vt 0.9321 0.8085
vn 1.0000 -0.0003 -0.0009
v 1.4990 0.4054 -0.2015
vt 0.9321 0.8085
vn 1.0000 -0.0007 -0.0013
f 169/169/169 170/170/170 171/171/171
v 1.2460 0.0000 -0.4497
vt 0.9321 0.7693
vn 0.4605 -0.1578 -0.8735
v 1.4990 0.2539 -0.2025
vt 0.9321 0.7824
vn 0.6923 0.0190 -0.7213
v 1.4988 0.0000 -0.2066
vt 0.9321 0.7693
vn 0.6932 0.0110 -0.7206
f 172/172/172 173/173/173 174/174/174
v 1.2463 0.5088 -0.4241
vt 0.9321 0.7954
vn 0.6102 0.1150 -0.7838
v 1.4990 0.2539 -0.2025
vt 0.9321 0.7824
vn 0.6923 0.0190 -0.7213
v 1.2447 0.2841 -0.4598
vt 0.9321 0.7824
vn 0.6265 0.0175 -0.7792
f 175/175/175 176/176/176 177/177/177
v 1.2490 0.7510 -0.3825
vt 0.9321 0.8085
vn 0.3579 0.1216 -0.9258
v 1.4990 0.4054 -0.2015
vt 0.9321 0.7954
vn 0.6505 0.0268 -0.7590
v 1.2463 0.5088 -0.4241
vt 0.9321 0.7954
vn 0.6102 0.1150 -0.7838
f 178/178/178 179/179/179 180/180/180
v 1.2496 0.9967 -0.3736
vt 0.9321 0.8216
vn 0.5802 -0.0053 -0.8144
v 1.4990 0.4054 -0.2015
vt 0.9321 0.8085
vn 0.6505 0.0268 -0.7590
v 1.2490 0.7510 -0.3825
vt 0.9321 0.8085
vn 0.3579 0.1216 -0.9258
f 181/181/181 182/182/182 183/183/183
v 0.0000 0.4389 0.2001
vt 0.9321 0.7824
vn -1.0000 0.0000 0.0000
v 0.0000 0.0000 -0.2097
vt 0.9321 0.7693
vn -0.9309 0.0104 -0.3651
v 0.0000 0.0000 0.2001
vt 0.9321 0.7693
vn -1.0000 0.0000 0.0000
f 184/184/184 185/185/185 186/186/186
v 0.0000 1.0242 0.2001
vt 0.9321 0.8085
vn -1.0000 0.0000 0.0000
v 0.0000 0.4389 -0.1971
vt 0.9321 0.7954
vn -0.8983 0.0398 -0.4376
v 0.0000 0.4389 0.2001
vt 0.9321 0.7954
vn -1.0000 0.0000 0.0000
f 187/187/187 188/188/188 189/189/189
v 0.7511 1.3058 -0.3221
vt 0.9321 0.8770
vn -0.0214 0.4392 -0.8981
v 0.4997 1.4430 -0.1839
vt 0.9321 0.8770
vn 0.1816 0.8430 -0.5063
v 0.7508 1.3892 -0.1833
vt 0.9321 0.8734
vn 0.1525 0.8472 -0.5089
f 190/190/190 191/191/191 192/192/192
v 1.2496 1.3135 -0.3806
vt 0.9321 0.8770
vn 0.5638 0.5610 0.6061
v 0.9996 1.3533 -0.1849
vt 0.9321 0.8770
vn 0.5638 0.5610 0.6061
v 1.4995 0.8632 -0.1963
vt 0.9321 0.8770
vn 0.5638 0.5610 0.6061
f 193/193/193 194/194/194 195/195/195
v 0.2498 0.3020 0.2990
vt 0.9321 0.7824
vn -0.0213 0.0346 0.9992
v 0.5001 0.3207 0.1804
vt 0.9321 0.7683
vn 0.0742 0.2243 0.9717
v 0.2498 0.5948 0.2137
vt 0.9321 0.7954
vn -0.0744 0.0438 0.9963
f 196/196/196 197/197/197 198/198/198
v 0.7493 0.4347 0.1406
vt 0.9321 0.7861
vn 0.1798 0.2203 0.9587
v 0.7503 0.6354 0.1398
vt 0.9321 0.7814
vn 0.1605 -0.0004 0.9870
v 0.5001 0.3207 0.1804
vt 0.9321 0.7683
vn 0.0742 0.2243 0.9717
f 199/199/199 200/200/200 201/201/201
v 0.5001 0.0000 0.2953
vt 0.9321 0.7693
vn -0.1645 0.3327 0.9286
v 0.7494 0.0000 0.3297
vt 0.9321 0.7693
vn 0.0402 0.3720 0.9274
v 0.5001 0.3207 0.1804
vt 0.9321 0.7683
vn 0.0742 0.2243 0.9717
f 202/202/202 203/203/203 204/204/204
v 0.5001 0.0000 0.2953
vt 0.9321 0.7693
vn -0.1645 0.3327 0.9286
v 0.5001 0.3207 0.1804
vt 0.9321 0.7683
vn 0.0742 0.2243 0.9717
v 0.2501 0.0000 0.2404
vt 0.9321 0.7693
vn -0.2026 0.3303 0.9219
f 205/205/205 206/206/206 207/207/207
v 0.8330 1.2979 0.0210
vt 0.9321 0.8734
vn 0.2779 0.9168 0.2867
v 0.7497 1.3180 0.1009
vt 0.9321 0.8734
vn 0.3173 0.9483 -0.0099
v 0.9996 1.2220 0.0811
vt 0.9321 0.8734
vn 0.0182 0.9417 0.3361
f 208/208/208 209/209/209 210/210/210
v 0.9022 1.0118 0.1704
vt 0.9321 0.8164
vn 0.1529 0.4259 0.8918
v 1.0077 0.8676 0.2237
vt 0.9321 0.8093
vn -0.0163 0.2907 0.9567
v 0.9979 0.9665 0.1722
vt 0.9321 0.8150
vn 0.1207 0.4169 0.9009
f 211/211/211 212/212/212 213/213/213
v 0.9996 1.2220 0.0811
vt 0.9321 0.8311
vn 0.3991 -0.4019 0.8241
v 0.7494 1.3252 0.2526
vt 0.9321 0.8170
vn 0.3338 -0.4109 0.8484
v 0.7416 1.1124 0.1526
vt 0.9321 0.8067
vn 0.3339 -0.4109 0.8483
f 214/214/214 215/215/215 216/216/216
v 0.5125 1.1679 0.2487
vt 0.9321 0.8083
vn 0.6106 -0.3128 0.7275
v 0.2498 0.9921 0.3936
vt 0.9321 0.8136
vn 0.6064 -0.3214 0.7273
v 0.4985 0.8775 0.1356
vt 0.9321 0.7941
vn 0.2496 -0.3236 0.9127
f 217/217/217 218/218/218 219/219/219
v 0.2498 1.3523 -0.3812
vt 0.9321 0.8347
vn 0.6290 -0.0288 -0.7768
v 0.4997 1.4430 -0.1839
vt 0.9321 0.8347
vn 0.6268 -0.0334 -0.7785
v 0.4997 1.1531 -0.1715
vt 0.9321 0.8216
vn 0.6309 -0.0014 -0.7759
f 220/220/220 221/221/221 222/222/222
v 0.4997 1.4430 -0.1839
vt 0.9321 0.8347
vn -0.5169 -0.0047 -0.8560
v 0.7511 1.3058 -0.3221
vt 0.9321 0.8347
vn -0.0214 0.4392 -0.8981
v 0.7511 1.1271 -0.3340
vt 0.9321 0.8210
vn -0.2650 -0.0352 -0.9636
f 223/223/223 224/224/224 225/225/225
v 0.7511 1.3058 -0.3221
vt 0.9321 0.8347
vn -0.0214 0.4392 -0.8981
v 0.9996 1.3533 -0.1849
vt 0.9321 0.8347
vn 0.0098 0.4187 -0.9081
v 0.9972 1.0781 -0.2965
vt 0.9321 0.8210
vn 0.0769 0.3241 -0.9429
f 226/226/226 227/227/227 228/228/228
v 0.9996 1.3533 -0.1849
vt 0.9321 0.8347
vn 0.0098 0.4187 -0.9081
v 1.2496 1.3135 -0.3806
vt 0.9321 0.8347
vn -0.6180 -0.0174 -0.7860
v 1.2496 0.9967 -0.3736
vt 0.9321 0.8216
vn -0.3432 0.0903 -0.9349
f 229/229/229 230/230/230 231/231/231
v 0.9966 0.5941 -0.2410
vt 0.9321 0.7954
vn -0.6274 -0.2652 -0.7321
v 1.2463 0.5088 -0.4241
vt 0.9321 0.7954
vn -0.5949 -0.0161 -0.8037
v 1.2447 0.2841 -0.4598
vt 0.9321 0.7824
vn -0.5558 0.1342 -0.8204
f 232/232/232 233/233/233 234/234/234
v 0.9993 0.8530 -0.3910
vt 0.9321 0.8085
vn 0.1787 0.3452 -0.9214
v 1.2490 0.7510 -0.3825
vt 0.9321 0.8085
vn 0.3579 0.1216 -0.9258
v 1.2463 0.5088 -0.4241
vt 0.9321 0.7954
vn 0.6102 0.1150 -0.7838
f 235/235/235 236/236/236 237/237/237
v 0.9972 1.0781 -0.2965
vt 0.9321 0.8210
vn 0.0769 0.3241 -0.9429
v 1.2496 0.9967 -0.3736
vt 0.9321 0.8216
vn -0.3432 0.0903 -0.9349
v 1.2490 0.7510 -0.3825
vt 0.9321 0.8085
vn 0.3579 0.1216 -0.9258
f 238/238/238 239/239/239 240/240/240
v 0.7477 0.6035 -0.3270
vt 0.9321 0.7954
vn 0.2434 0.7440 -0.6223
v 0.9966 0.5941 -0.2410
vt 0.9321 0.7954
vn 0.2830 0.7351 -0.6160
v 0.9870 0.3054 -0.5898
vt 0.9321 0.7824
vn 0.3247 0.7243 -0.6082
f 241/241/241 242/242/242 243/243/243
v 0.4995 0.5916 -0.3878
vt 0.9321 0.7954
vn 0.1273 0.4337 -0.8920
v 0.7477 0.6035 -0.3270
vt 0.9321 0.7954
vn 0.0446 0.5157 -0.8556
v 0.7454 0.3063 -0.4556
vt 0.9321 0.7824
vn -0.1867 0.2938 -0.9375
f 244/244/244 245/245/245 246/246/246
v 0.7680 0.8753 -0.2658
vt 0.9321 0.8085
vn -0.1661 0.9860 0.0158
v 0.9993 0.8530 -0.3910
vt 0.9321 0.8085
vn 0.0926 0.9957 -0.0062
v 0.7497 0.8756 -0.4803
vt 0.9321 0.8085
vn -0.0849 0.9963 0.0089
f 247/247/247 248/248/248 249/249/249
v 0.4997 1.1531 -0.1715
vt 0.9321 0.8216
vn -0.4900 -0.0694 -0.8689
v 0.7511 1.1271 -0.3340
vt 0.9321 0.8210
vn -0.2650 -0.0352 -0.9636
v 0.7680 0.8753 -0.2658
vt 0.9321 0.8085
vn -0.4464 -0.1695 -0.8787
f 250/250/250 251/251/251 252/252/252
v 0.2498 0.5864 -0.3600
vt 0.9321 0.7954
vn -0.3734 0.0782 -0.9243
v 0.4995 0.5916 -0.3878
vt 0.9321 0.7954
vn 0.1273 0.4337 -0.8920
v 0.5006 0.2979 -0.4792
vt 0.9321 0.7824
vn -0.0727 0.2966 -0.9522
f 253/253/253 254/254/254 255/255/255
v 0.2498 0.8779 -0.3648
vt 0.9321 0.8085
vn 0.6188 0.1571 -0.7696
v 0.4997 0.7790 -0.1840
vt 0.9321 0.8037
vn 0.5386 0.4382 -0.7197
v 0.4995 0.5916 -0.3878
vt 0.9321 0.7954
vn 0.1273 0.4337 -0.8920
f 256/256/256 257/257/257 258/258/258
v 0.2498 1.1699 -0.3754
vt 0.9321 0.8216
vn 0.6208 -0.0123 -0.7839
v 0.4997 1.1531 -0.1715
vt 0.9321 0.8216
vn 0.6309 -0.0014 -0.7759
v 0.4997 0.7790 -0.1840
vt 0.9321 0.8037
vn 0.5386 0.4382 -0.7197
f 259/259/259 260/260/260 261/261/261
v 0.4985 0.8775 0.1356
vt 0.9321 0.7941
vn 0.2496 -0.3236 0.9127
v 0.2498 0.9921 0.3936
vt 0.9321 0.8136
vn 0.6064 -0.3214 0.7273
v 0.2498 0.5948 0.2137
vt 0.9321 0.7954
vn 0.5144 -0.2237 0.8279
f 262/262/262 263/263/263 264/264/264
v 0.7494 1.3252 0.2526
vt 0.9321 0.8170
vn 0.3338 -0.4109 0.8484
v 0.5125 1.1679 0.2487
vt 0.9321 0.8083
vn 0.2636 -0.4182 0.8693
v 0.7416 1.1124 0.1526
vt 0.9321 0.8067
vn 0.3339 -0.4109 0.8483
f 265/265/265 266/266/266 267/267/267
v 0.7609 0.9036 0.3473
vt 0.9321 0.8236
vn -0.1916 -0.5957 0.7800
v 0.4985 0.8775 0.1356
vt 0.9321 0.7800
vn 0.2496 -0.3236 0.9127
v 0.7503 0.6354 0.1398
vt 0.9321 0.7673
vn -0.1616 -0.4710 0.8672
f 268/268/268 269/269/269 270/270/270
v 0.7503 0.6354 0.1398
vt 0.9321 0.7814
vn -0.4369 0.1363 0.8891
v 0.7493 0.4347 0.1406
vt 0.9321 0.7861
vn -0.6163 0.0060 0.7875
v 0.8768 0.5252 0.2397
vt 0.9321 0.7890
vn -0.4128 0.3040 0.8586
f 271/271/271 272/272/272 273/273/273
v 0.7503 0.6354 0.1398
vt 0.9321 0.7814
vn -0.1616 -0.4710 0.8672
v 1.0077 0.8676 0.2237
vt 0.9321 0.8093
vn 0.4849 -0.7180 0.4995
v 0.9375 0.8903 0.3246
vt 0.9321 0.8093
vn 0.2936 -0.6928 0.6586
f 274/274/274 275/275/275 276/276/276
v 0.9022 1.0118 0.1704
vt 0.9321 0.8164
vn 0.1529 0.4259 0.8918
v 0.7416 1.1124 0.1526
vt 0.9321 0.8067
vn 0.2898 0.3780 0.8793
v 0.7609 0.9018 0.2416
vt 0.9321 0.7954
vn 0.2295 0.4058 0.8847
f 277/277/277 278/278/278 279/279/279
v 0.7497 0.8756 -0.4803
vt 0.9321 0.8085
vn 0.2624 -0.4810 -0.8365
v 0.9966 0.5941 -0.2410
vt 0.9321 0.7954
vn 0.2638 -0.4799 -0.8367
v 0.7477 0.6035 -0.3270
vt 0.9321 0.7954
vn 0.2715 -0.4740 -0.8376
f 280/280/280 281/281/281 282/282/282
v 0.7497 0.8756 -0.4803
vt 0.9321 0.8085
vn 0.2624 -0.4810 -0.8365
v 0.9993 0.8530 -0.3910
vt 0.9321 0.8085
vn 0.2545 -0.4871 -0.8355
v 0.9966 0.5941 -0.2410
vt 0.9321 0.7954
vn 0.2638 -0.4799 -0.8367
f 283/283/283 284/284/284 285/285/285
v 0.4997 0.7790 -0.1840
vt 0.9321 0.8037
vn -0.6468 -0.3708 -0.6665
v 0.7497 0.8756 -0.4803
vt 0.9321 0.8085
vn -0.6468 -0.3708 -0.6665
v 0.7477 0.6035 -0.3270
vt 0.9321 0.7954
vn -0.6468 -0.3708 -0.6665
f 286/286/286 287/287/287 288/288/288
v 0.4997 0.7790 -0.1840
vt 0.9321 0.8037
vn -0.3297 0.9436 0.0297
v 0.7680 0.8753 -0.2658
vt 0.9321 0.8085
vn -0.1661 0.9860 0.0158
v 0.7497 0.8756 -0.4803
vt 0.9321 0.8085
vn -0.0849 0.9963 0.0089
f 289/289/289 290/290/290 291/291/291
v 0.9375 0.8903 0.3246
vt 0.9321 0.8093
vn 0.2936 -0.6928 0.6586
v 0.7609 0.9036 0.3473
vt 0.9321 0.8377
vn -0.1916 -0.5957 0.7800
v 0.7503 0.6354 0.1398
vt 0.9321 0.7814
vn -0.1616 -0.4710 0.8672
f 292/292/292 293/293/293 294/294/294
v 0.7609 0.9018 0.2416
vt 0.9321 0.8377
vn -0.0057 0.9994 -0.0332
v 0.4985 0.8775 0.1356
vt 0.9321 0.8364
vn -0.0859 0.9962 -0.0164
v 0.7609 0.9036 0.3473
vt 0.9321 0.8800
vn 0.0121 0.9998 -0.0164
f 295/295/295 296/296/296 297/297/297
v 1.0077 0.8676 0.2237
vt 0.9321 0.8516
vn 0.1266 0.9830 -0.1332
v 0.7609 0.9018 0.2416
vt 0.9321 0.8377
vn -0.0057 0.9994 -0.0332
v 0.9375 0.8903 0.3246
vt 0.9321 0.8516
vn 0.1136 0.9880 -0.1048
f 298/298/298 299/299/299 300/300/300
v 0.4985 0.8775 0.1356
vt 0.9321 0.7941
vn 0.2496 -0.3236 0.9127
v 0.4901 0.6196 0.1172
vt 0.9321 0.7816
vn 0.1672 -0.0756 0.9830
v 0.7503 0.6354 0.1398
vt 0.9321 0.7814
vn -0.1616 -0.4710 0.8672
f 301/301/301 302/302/302 303/303/303
v 0.9996 1.3533 -0.1849
vt 0.9321 0.8770
vn -0.0801 0.9076 0.4120
v 0.9996 1.2220 0.0811
vt 0.9321 0.8734
vn 0.0182 0.9417 0.3361
v 1.2667 1.4070 0.0219
vt 0.9321 0.9098
vn -0.4635 0.7946 0.3922
f 304/304/304 305/305/305 306/306/306
v 1.1269 1.0136 0.1742
vt 0.9321 0.8212
vn 0.2621 -0.8168 0.5139
v 0.9955 0.9998 0.2192
vt 0.9321 0.8169
vn -0.0793 -0.6355 0.7680
v 0.9979 0.9665 0.1722
vt 0.9321 0.8150
vn -0.0395 -0.8160 0.5766
f 307/307/307 308/308/308 309/309/309
v 0.8888 1.0911 0.2291
vt 0.9321 0.8208
vn -0.5074 -0.3820 0.7724
v 1.0839 1.0372 0.2376
vt 0.9321 0.8211
vn -0.0897 -0.1715 0.9811
v 1.0503 1.1012 0.2430
vt 0.9321 0.8240
vn -0.0770 -0.1294 0.9886
f 310/310/310 311/311/311 312/312/312
v 0.8888 1.0911 0.2291
vt 0.9321 0.8208
vn -0.5074 -0.3820 0.7724
v 0.9298 1.0323 0.2193
vt 0.9321 0.8178
vn -0.3592 -0.5142 0.7788
v 0.9955 0.9998 0.2192
vt 0.9321 0.8169
vn -0.0793 -0.6355 0.7680
f 313/313/313 314/314/314 315/315/315
v 1.0779 1.1077 0.1702
vt 0.9321 0.8254
vn 0.6608 0.7007 0.2690
v 0.9924 1.1387 0.2440
vt 0.9321 0.8251
vn 0.4763 0.8583 0.1912
v 1.0503 1.1012 0.2430
vt 0.9321 0.8240
vn 0.6758 0.6616 0.3249
f 316/316/316 317/317/317 318/318/318
v 1.1269 1.0136 0.1742
vt 0.9321 0.8212
vn 0.8237 0.4241 0.3764
v 1.0503 1.1012 0.2430
vt 0.9321 0.8240
vn 0.6758 0.6616 0.3249
v 1.0839 1.0372 0.2376
vt 0.9321 0.8211
vn 0.8217 0.3965 0.4093
f 319/319/319 320/320/320 321/321/321
v 0.9979 0.9665 0.1722
vt 0.9321 0.8150
vn -0.0395 -0.8160 0.5766
v 0.9298 1.0323 0.2193
vt 0.9321 0.8178
vn -0.3592 -0.5142 0.7788
v 0.9022 1.0118 0.1704
vt 0.9321 0.8164
vn -0.5994 -0.6137 0.5139
f 322/322/322 323/323/323 324/324/324
v 0.8423 1.0953 0.1390
vt 0.9321 0.8207
vn -0.3900 0.9021 0.1848
v 0.9924 1.1387 0.2440
vt 0.9321 0.8251
vn -0.3830 0.9075 0.1726
v 0.9935 1.1585 0.1049
vt 0.9321 0.8270
vn -0.3577 0.9249 0.1291
f 325/325/325 326/326/326 327/327/327
v 0.9924 1.1387 0.2440
vt 0.9321 0.8251
vn -0.0761 -0.1416 0.9870
v 0.8888 1.0911 0.2291
vt 0.9321 0.8208
vn -0.5074 -0.3820 0.7724
v 1.0503 1.1012 0.2430
vt 0.9321 0.8240
vn -0.0770 -0.1294 0.9886
f 328/328/328 329/329/329 330/330/330
v 1.0839 1.0372 0.2376
vt 0.9321 0.8211
vn -0.0897 -0.1715 0.9811
v 0.8888 1.0911 0.2291
vt 0.9321 0.8208
vn -0.5074 -0.3820 0.7724
v 0.9955 0.9998 0.2192
vt 0.9321 0.8169
vn -0.0793 -0.6355 0.7680
f 331/331/331 332/332/332 333/333/333
v 0.5094 0.0000 -0.6267
vt 0.9321 0.7693
vn 0.3587 0.4226 -0.8323
v 0.5006 0.2979 -0.4792
vt 0.9321 0.7824
vn -0.0727 0.2966 -0.9522
v 0.7480 0.0000 -0.5238
vt 0.9321 0.7693
vn 0.0224 0.3147 -0.9489
f 334/334/334 335/335/335 336/336/336
v 0.9872 0.0000 -0.4290
vt 0.9321 0.7693
vn 0.1235 -0.4620 -0.8782
v 0.7480 0.0000 -0.5238
vt 0.9321 0.7693
vn 0.3310 -0.4393 -0.8351
v 0.9870 0.3054 -0.5898
vt 0.9321 0.7824
vn 0.2572 -0.3185 -0.9123
f 337/337/337 338/338/338 339/339/339
v 0.0000 1.4631 0.2001
vt 0.9321 0.8347
vn -1.0000 0.0000 0.0000
v 0.0000 1.4631 -0.1969
vt 0.9321 0.8347
vn -1.0000 0.0000 0.0000
v 0.0000 1.0242 -0.1969
vt 0.9321 0.8216
vn -1.0000 0.0000 0.0000
f 340/340/340 341/341/341 342/342/342
v 0.3732 1.4163 0.1183
vt 0.9321 0.8332
vn 0.3420 0.7497 0.5666
v 0.0000 1.4631 0.2001
vt 0.9321 0.8347
vn 0.2349 0.2156 0.9478
v 0.0000 1.0242 0.2001
vt 0.9321 0.8216
vn 0.2141 0.0000 0.9768
f 343/343/343 344/344/344 345/345/345
v 0.0000 1.4631 -0.1969
vt 0.9321 0.8770
vn -0.1359 0.9366 -0.3231
v 0.0000 1.4631 0.2001
vt 0.9321 0.8770
vn -0.4211 0.9070 0.0000
v 0.2409 1.5750 0.0147
vt 0.9321 0.9104
vn -0.1699 0.9379 -0.3025
f 346/346/346 347/347/347 348/348/348
v 0.9996 1.2220 0.0811
vt 0.9321 0.8734
vn 0.0997 0.4459 0.8895
v 1.4995 0.8632 0.2049
vt 0.9321 0.8770
vn 0.0805 0.4236 0.9023
v 1.2667 1.4070 0.0219
vt 0.9321 0.9098
vn -0.0084 0.3158 0.9488
f 349/349/349 350/350/350 351/351/351
v 1.0779 1.1077 0.1702
vt 0.9321 0.8254
vn -0.0829 0.0002 0.9966
v 1.3152 0.9001 0.1900
vt 0.9321 0.8217
vn 0.0030 0.0284 0.9996
v 1.4995 0.8632 0.2049
vt 0.9321 0.8259
vn -0.0805 0.0006 0.9968
f 352/352/352 353/353/353 354/354/354
v 0.9022 1.0118 0.1704
vt 0.9321 0.8164
vn -0.5994 -0.6137 0.5139
v 0.9298 1.0323 0.2193
vt 0.9321 0.8178
vn -0.3592 -0.5142 0.7788
v 0.8888 1.0911 0.2291
vt 0.9321 0.8208
vn -0.5074 -0.3820 0.7724
f 355/355/355 356/356/356 357/357/357
v 1.3152 0.9001 0.1900
vt 0.9321 0.8217
vn 0.0030 0.0284 0.9996
v 1.1269 1.0136 0.1742
vt 0.9321 0.8212
vn -0.0645 0.0317 0.9974
v 0.9979 0.9665 0.1722
vt 0.9321 0.8150
vn 0.1207 0.4169 0.9009
f 358/358/358 359/359/359 360/360/360
v 0.0000 1.4631 -0.1969
vt 0.9321 0.8347
vn -0.5882 -0.0088 -0.8087
v 0.2498 1.3523 -0.3812
vt 0.9321 0.8347
vn -0.6011 -0.0257 -0.7988
v 0.2498 1.1699 -0.3754
vt 0.9321 0.8216
vn -0.5825 -0.0173 -0.8126
f 361/361/361 362/362/362 363/363/363
v 0.9870 0.3054 -0.5898
vt 0.9321 0.7824
vn 0.2572 -0.3185 -0.9123
v 1.2447 0.2841 -0.4598
vt 0.9321 0.7824
vn 0.6265 0.0175 -0.7792
v 1.2460 0.0000 -0.4497
vt 0.9321 0.7693
vn 0.4605 -0.1578 -0.8735
f 364/364/364 365/365/365 366/366/366
v 0.2524 0.0000 -0.4886
vt 0.9321 0.7693
vn -0.5155 0.2348 -0.8241
v 0.2507 0.2937 -0.4067
vt 0.9321 0.7824
vn -0.4268 0.1989 -0.8822
v 0.5006 0.2979 -0.4792
vt 0.9321 0.7824
vn -0.0727 0.2966 -0.9522
f 367/367/367 368/368/368 369/369/369
v 0.0000 0.4389 -0.1971
vt 0.9321 0.7824
vn -0.8983 0.0398 -0.4376
v 0.2507 0.2937 -0.4067
vt 0.9321 0.7824
vn -0.4268 0.1989 -0.8822
v 0.2524 0.0000 -0.4886
vt 0.9321 0.7693
vn -0.5155 0.2348 -0.8241
f 370/370/370 371/371/371 372/372/372
v 0.0000 0.4389 -0.1971
vt 0.9321 0.7954
vn -0.8983 0.0398 -0.4376
v 0.2498 0.5864 -0.3600
vt 0.9321 0.7954
vn -0.3734 0.0782 -0.9243
v 0.2507 0.2937 -0.4067
vt 0.9321 0.7824
vn -0.4268 0.1989 -0.8822
f 373/373/373 374/374/374 375/375/375
v 0.0000 1.0242 -0.1969
vt 0.9321 0.8085
vn -0.5685 -0.0107 -0.8226
v 0.2498 0.8779 -0.3648
vt 0.9321 0.8085
vn -0.4896 -0.0191 -0.8717
v 0.2498 0.5864 -0.3600
vt 0.9321 0.7954
vn -0.3734 0.0782 -0.9243
f 376/376/376 377/377/377 378/378/378
v 0.0000 1.0242 -0.1969
vt 0.9321 0.8216
vn -0.5685 -0.0107 -0.8226
v 0.2498 1.1699 -0.3754
vt 0.9321 0.8216
vn -0.5825 -0.0173 -0.8126
v 0.2498 0.8779 -0.3648
vt 0.9321 0.8085
vn -0.4896 -0.0191 -0.8717
f 379/379/379 380/380/380 381/381/381
v 1.2496 0.5057 0.2425
vt 0.9321 0.7954
vn -0.0178 -0.0364 0.9992
v 1.0077 0.3378 0.0692
vt 0.9321 0.7823
vn -0.2433 -0.3028 0.9215
v 1.2492 0.2954 0.2214
vt 0.9321 0.7824
vn -0.1725 0.1328 0.9760
f 382/382/382 383/383/383 384/384/384
v 0.7416 1.1124 0.1526
vt 0.9321 0.8067
vn 0.2898 0.3780 0.8793
v 0.8423 1.0953 0.1390
vt 0.9321 0.8207
vn 0.1769 0.3020 0.9367
v 0.9935 1.1585 0.1049
vt 0.9321 0.8270
vn -0.1640 0.3516 0.9217
f 385/385/385 386/386/386 387/387/387
v 1.2494 0.0000 0.3597
vt 0.9321 0.8116
vn 0.5895 0.7261 0.3540
v 1.0077 0.3378 0.0692
vt 0.9321 0.8246
vn 0.5895 0.7261 0.3540
v 0.9828 0.2556 0.2791
vt 0.9321 0.8210
vn 0.5895 0.7261 0.3540
f 388/388/388 389/389/389 390/390/390
v 1.4995 0.0000 0.2039
vt 0.9321 0.7693
vn 0.3260 0.2217 0.9190
v 1.4995 0.2539 0.2049
vt 0.9321 0.7824
vn 0.0655 -0.0022 0.9978
v 1.2492 0.2954 0.2214
vt 0.9321 0.7824
vn -0.1725 0.1328 0.9760
f 391/391/391 392/392/392 393/393/393
v 1.4995 0.4054 0.2049
vt 0.9321 0.7954
vn 0.1389 0.0465 0.9892
v 1.2496 0.5057 0.2425
vt 0.9321 0.7954
vn -0.0178 -0.0364 0.9992
v 1.2492 0.2954 0.2214
vt 0.9321 0.7824
vn -0.1725 0.1328 0.9760
f 394/394/394 395/395/395 396/396/396
v 1.3152 0.9001 0.1900
vt 0.9321 0.8217
vn 0.0030 0.0284 0.9996
v 1.0077 0.8676 0.2237
vt 0.9321 0.8093
vn -0.0163 0.2907 0.9567
v 1.0867 0.8292 0.2325
vt 0.9321 0.8089
vn -0.0738 0.1032 0.9919
f 397/397/397 398/398/398 399/399/399
v 1.4995 0.4054 0.2049
vt 0.9321 0.8085
vn -0.0807 0.0000 0.9967
v 1.4995 0.8632 0.2049
vt 0.9321 0.8216
vn -0.0805 0.0006 0.9968
v 1.3152 0.9001 0.1900
vt 0.9321 0.8217
vn 0.0030 0.0284 0.9996
f 400/400/400 401/401/401 402/402/402
v 0.2498 0.3020 0.2990
vt 0.9321 0.7824
vn -0.0213 0.0346 0.9992
v 0.0000 0.4389 0.2001
vt 0.9321 0.7824
vn -0.2226 0.0935 0.9704
v 0.0000 0.0000 0.2001
vt 0.9321 0.7693
vn -0.2555 -0.1034 0.9613
f 403/403/403 404/404/404 405/405/405
v 0.2498 0.5948 0.2137
vt 0.9321 0.7813
vn -0.0744 0.0438 0.9963
v 0.2498 0.9921 0.3936
vt 0.9321 0.7995
vn -0.6145 -0.0294 0.7884
v 0.0000 1.0242 0.2001
vt 0.9321 0.7944
vn -0.4968 -0.0610 0.8657
f 406/406/406 407/407/407 408/408/408
v 0.0000 1.0242 0.2001
vt 0.9321 0.8639
vn -0.3704 0.8405 -0.3955
v 0.2466 1.1850 0.3108
vt 0.9321 0.8647
vn -0.2754 0.9105 -0.3085
v 0.2900 1.1827 0.2653
vt 0.9321 0.8647
vn -0.0748 0.9898 -0.1212
f 409/409/409 410/410/410 411/411/411
v 1.4990 0.2539 -0.2025
vt 0.9321 0.7824
vn 1.0000 -0.0005 -0.0015
v 1.4995 0.2539 0.2049
vt 0.9321 0.7824
vn 1.0000 -0.0001 -0.0013
v 1.4995 0.0000 0.2039
vt 0.9321 0.7693
vn 1.0000 -0.0004 -0.0015
f 412/412/412 413/413/413 414/414/414
v 1.4990 0.4054 -0.2015
vt 0.9321 0.7954
vn 1.0000 -0.0007 -0.0013
v 1.4995 0.4054 0.2049
vt 0.9321 0.7954
vn 1.0000 -0.0003 -0.0009
v 1.4995 0.2539 0.2049
vt 0.9321 0.7824
vn 1.0000 -0.0001 -0.0013
f 415/415/415 416/416/416 417/417/417
v 1.4995 0.8632 -0.1963
vt 0.9321 0.8216
vn 0.9847 0.1744 -0.0003
v 1.4995 0.8632 0.2049
vt 0.9321 0.8216
vn 0.9837 0.1797 0.0000
v 1.4995 0.4054 0.2049
vt 0.9321 0.8085
vn 1.0000 -0.0003 -0.0009
f 418/418/418 419/419/419 420/420/420
v 1.2460 0.0000 -0.4497
vt 0.9321 0.7693
vn 0.4605 -0.1578 -0.8735
v 1.2447 0.2841 -0.4598
vt 0.9321 0.7824
vn 0.6265 0.0175 -0.7792
v 1.4990 0.2539 -0.2025
vt 0.9321 0.7824
vn 0.6923 0.0190 -0.7213
f 421/421/421 422/422/422 423/423/423
v 1.2463 0.5088 -0.4241
vt 0.9321 0.7954
vn 0.6102 0.1150 -0.7838
v 1.4990 0.4054 -0.2015
vt 0.9321 0.7954
vn 0.6505 0.0268 -0.7590
v 1.4990 0.2539 -0.2025
vt 0.9321 0.7824
vn 0.6923 0.0190 -0.7213
f 424/424/424 425/425/425 426/426/426
v 1.2496 0.9967 -0.3736
vt 0.9321 0.8216
vn 0.5802 -0.0053 -0.8144
v 1.4995 0.8632 -0.1963
vt 0.9321 0.8216
vn 0.5795 0.0027 -0.8150
v 1.4990 0.4054 -0.2015
vt 0.9321 0.8085
vn 0.6505 0.0268 -0.7590
f 427/427/427 428/428/428 429/429/429
v 0.0000 0.4389 0.2001
vt 0.9321 0.7824
vn -1.0000 0.0000 0.0000
v 0.0000 0.4389 -0.1971
vt 0.9321 0.7824
vn -0.8983 0.0398 -0.4376
v 0.0000 0.0000 -0.2097
vt 0.9321 0.7693
vn -0.9309 0.0104 -0.3651
f 430/430/430 431/431/431 432/432/432
v 0.0000 1.0242 0.2001
vt 0.9321 0.8085
vn -1.0000 0.0000 0.0000
v 0.0000 1.0242 -0.1969
vt 0.9321 0.8085
vn -1.0000 0.0000 0.0000
v 0.0000 0.4389 -0.1971
vt 0.9321 0.7954
vn -0.8983 0.0398 -0.4376
f 433/433/433 434/434/434 435/435/435
v 0.9022 1.0118 0.1704
vt 0.9321 0.8164
vn 0.1529 0.4259 0.8918
v 0.7609 0.9018 0.2416
vt 0.9321 0.7954
vn 0.2295 0.4058 0.8847
v 1.0077 0.8676 0.2237
vt 0.9321 0.8093
vn -0.0163 0.2907 0.9567
f 436/436/436 437/437/437 438/438/438
v 1.0779 1.1077 0.1702
vt 0.9321 0.8254
vn -0.0829 0.0002 0.9966
v 1.1269 1.0136 0.1742
vt 0.9321 0.8212
vn -0.0645 0.0317 0.9974
v 1.3152 0.9001 0.1900
vt 0.9321 0.8217
vn 0.0030 0.0284 0.9996
f 439/439/439 440/440/440 441/441/441
v 0.9022 1.0118 0.1704
vt 0.9321 0.8164
vn 0.1529 0.4259 0.8918
v 0.8423 1.0953 0.1390
vt 0.9321 0.8207
vn 0.1769 0.3020 0.9367
v 0.7416 1.1124 0.1526
vt 0.9321 0.8067
vn 0.2898 0.3780 0.8793
f 442/442/442 443/443/443 444/444/444
v 0.4985 0.8775 0.1356
vt 0.9321 0.7941
vn 0.2496 -0.3236 0.9127
v 0.2498 0.5948 0.2137
vt 0.9321 0.7954
vn 0.5144 -0.2237 0.8279
v 0.4901 0.6196 0.1172
vt 0.9321 0.7957
vn 0.1672 -0.0756 0.9830
f 445/445/445 446/446/446 447/447/447
v 1.1269 1.0136 0.1742
vt 0.9321 0.8212
vn 0.2621 -0.8168 0.5139
v 1.0839 1.0372 0.2376
vt 0.9321 0.8211
vn 0.2542 -0.8368 0.4849
v 0.9955 0.9998 0.2192
vt 0.9321 0.8169
vn -0.0793 -0.6355 0.7680
f 448/448/448 449/449/449 450/450/450
v 0.9996 1.2220 0.0811
vt 0.9321 0.8311
vn -0.1013 0.3584 0.9280
v 0.9935 1.1585 0.1049
vt 0.9321 0.8270
vn -0.1640 0.3516 0.9217
v 1.0779 1.1077 0.1702
vt 0.9321 0.8254
vn -0.4297 0.3533 0.8310
f 451/451/451 452/452/452 453/453/453
v 1.0779 1.1077 0.1702
vt 0.9321 0.8254
vn 0.6608 0.7007 0.2690
v 0.9935 1.1585 0.1049
vt 0.9321 0.8270
vn 0.4355 0.8907 0.1303
v 0.9924 1.1387 0.2440
vt 0.9321 0.8251
vn 0.4763 0.8583 0.1912
f 454/454/454 455/455/455 456/456/456
v 1.1269 1.0136 0.1742
vt 0.9321 0.8212
vn 0.8237 0.4241 0.3764
v 1.0779 1.1077 0.1702
vt 0.9321 0.8254
vn 0.6608 0.7007 0.2690
v 1.0503 1.1012 0.2430
vt 0.9321 0.8240
vn 0.6758 0.6616 0.3249
f 457/457/457 458/458/458 459/459/459
v 0.9979 0.9665 0.1722
vt 0.9321 0.8150
vn -0.0395 -0.8160 0.5766
v 0.9955 0.9998 0.2192
vt 0.9321 0.8169
vn -0.0793 -0.6355 0.7680
v 0.9298 1.0323 0.2193
vt 0.9321 0.8178
vn -0.3592 -0.5142 0.7788
f 460/460/460 461/461/461 462/462/462
v 0.8423 1.0953 0.1390
vt 0.9321 0.8207
vn -0.3900 0.9021 0.1848
v 0.8888 1.0911 0.2291
vt 0.9321 0.8208
vn -0.4336 0.8615 0.2640
v 0.9924 1.1387 0.2440
vt 0.9321 0.8251
vn -0.3830 0.9075 0.1726
f 463/463/463 464/464/464 465/465/465
v 0.3732 1.4163 0.1183
vt 0.9321 0.8332
vn 0.0362 -0.0386 0.9986
v 0.7497 1.3180 0.1009
vt 0.9321 0.8311
vn 0.4415 -0.0314 0.8967
v 0.7497 1.4341 0.1054
vt 0.9321 0.8361
vn 0.3749 -0.0331 0.9265
f 466/466/466 467/467/467 468/468/468
v 0.7508 1.3892 -0.1833
vt 0.9321 0.8311
vn 0.0097 0.0342 -0.9994
v 0.4997 1.4430 -0.1839
vt 0.9321 0.8347
vn 0.0097 0.0342 -0.9994
v 0.7508 1.4663 -0.1807
vt 0.9321 0.8368
vn 0.0097 0.0342 -0.9994
f 469/469/469 470/470/470 471/471/471
v 0.9996 1.2220 0.0811
vt 0.9321 0.8734
vn 0.0182 0.9417 0.3361
v 0.7497 1.3180 0.1009
vt 0.9321 0.8734
vn 0.3173 0.9483 -0.0099
v 0.7494 1.3252 0.2526
vt 0.9321 0.8593
vn 0.2971 0.9538 -0.0444
f 472/472/472 473/473/473 474/474/474
v 0.9996 1.3533 -0.1849
vt 0.9321 0.8770
vn 0.0098 0.4187 -0.9081
v 0.7511 1.3058 -0.3221
vt 0.9321 0.8770
vn -0.0214 0.4392 -0.8981
v 0.7508 1.3892 -0.1833
vt 0.9321 0.8734
vn 0.1525 0.8472 -0.5089
f 475/475/475 476/476/476 477/477/477
v 0.7508 1.3892 -0.1833
vt 0.9321 0.8734
vn 0.1356 0.9237 0.3583
v 0.8330 1.2979 0.0210
vt 0.9321 0.8734
vn 0.2779 0.9168 0.2867
v 0.9996 1.3533 -0.1849
vt 0.9321 0.8770
vn -0.0801 0.9076 0.4120
f 478/478/478 479/479/479 480/480/480
v 0.4997 1.4430 -0.1839
vt 0.9321 0.8770
vn 0.1571 0.9669 0.2012
v 0.8330 1.4170 0.0239
vt 0.9321 0.9066
vn -0.0400 0.9980 0.0480
v 0.7508 1.4663 -0.1807
vt 0.9321 0.8791
vn -0.0927 0.9588 0.2686
f 481/481/481 482/482/482 483/483/483
v 0.3732 1.4163 0.1183
vt 0.9321 0.8755
vn 0.3420 0.7497 0.5666
v 0.7497 1.4341 0.1054
vt 0.9321 0.8784
vn -0.0545 0.9646 -0.2582
v 0.8330 1.4170 0.0239
vt 0.9321 0.9066
vn -0.0400 0.9980 0.0480
f 484/484/484 485/485/485 486/486/486
v 0.8330 1.2979 0.0210
vt 0.9321 0.8311
vn 0.9289 0.0104 -0.3701
v 0.7508 1.3892 -0.1833
vt 0.9321 0.8311
vn 0.9289 0.0104 -0.3701
v 0.7508 1.4663 -0.1807
vt 0.9321 0.8368
vn 0.9289 0.0104 -0.3701
v 0.8330 1.4170 0.0239
vt 0.9321 0.8643
vn 0.9289 0.0104 -0.3701
f 487/487/487 488/488/488 489/489/489 490/490/490
v 0.4997 1.4430 -0.1839
vt 0.9321 0.8770
vn 0.1571 0.9669 0.2012
v 0.3732 1.4163 0.1183
vt 0.9321 0.8755
vn 0.3420 0.7497 0.5666
v 0.8330 1.4170 0.0239
vt 0.9321 0.9066
vn -0.0400 0.9980 0.0480
f 491/491/491 492/492/492 493/493/493
v 0.7497 1.3180 0.1009
vt 0.9321 0.8311
vn 0.4415 -0.0314 0.8967
v 0.8330 1.2979 0.0210
vt 0.9321 0.8311
vn 0.6929 -0.0225 0.7207
v 0.8330 1.4170 0.0239
vt 0.9321 0.8643
vn 0.6929 -0.0225 0.7207
v 0.7497 1.4341 0.1054
vt 0.9321 0.8361
vn 0.3749 -0.0331 0.9265
f 494/494/494 495/495/495 496/496/496 497/497/497
v 0.9996 1.2220 0.0811
vt 0.9321 0.8272
vn 0.0997 0.4459 0.8895
v 1.0779 1.1077 0.1702
vt 0.9321 0.8254
vn 0.3656 0.7150 0.5959
v 1.4995 0.8632 0.2049
vt 0.9321 0.8259
vn 0.0805 0.4236 0.9023
f 498/498/498 499/499/499 500/500/500
v 0.2498 0.5948 0.2137
vt 0.9321 0.7954
vn -0.0744 0.0438 0.9963
v 0.0000 0.4389 0.2001
vt 0.9321 0.7824
vn -0.2226 0.0935 0.9704
v 0.2498 0.3020 0.2990
vt 0.9321 0.7824
vn -0.0213 0.0346 0.9992
f 501/501/501 502/502/502 503/503/503
v 0.5125 1.1679 0.2487
vt 0.9321 0.8506
vn 0.0673 0.9976 0.0138
v 0.2900 1.1827 0.2653
vt 0.9321 0.8647
vn -0.0748 0.9898 -0.1212
v 0.2466 1.1850 0.3108
vt 0.9321 0.8929
vn -0.2754 0.9105 -0.3085
f 504/504/504 505/505/505 506/506/506
v 0.7494 1.3252 0.2526
vt 0.9321 0.8170
vn -0.2415 0.3413 0.9084
v 0.3732 1.4163 0.1183
vt 0.9321 0.8332
vn -0.1842 0.4829 0.8561
v 0.5125 1.1679 0.2487
vt 0.9321 0.8083
vn -0.1012 0.4172 0.9032
f 507/507/507 508/508/508 509/509/509
v 0.5125 1.1679 0.2487
vt 0.9321 0.8083
vn 0.2333 0.3869 0.8921
v 0.2466 1.1850 0.3108
vt 0.9321 0.8506
vn 0.2333 0.3869 0.8921
v 0.2498 0.9921 0.3936
vt 0.9321 0.8136
vn 0.2333 0.3869 0.8921
f 510/510/510 511/511/511 512/512/512
v 0.3732 1.4163 0.1183
vt 0.9321 0.8332
vn -0.1842 0.4829 0.8561
v 0.0000 1.0242 0.2001
vt 0.9321 0.8216
vn -0.4681 0.5839 0.6633
v 0.2900 1.1827 0.2653
vt 0.9321 0.8224
vn -0.2658 0.5793 0.7705
f 513/513/513 514/514/514 515/515/515
v 0.9996 1.3533 -0.1849
vt 0.9321 0.8770
vn 0.4679 0.4943 -0.7326
v 1.2667 1.4070 0.0219
vt 0.9321 0.9098
vn 0.4679 0.4943 -0.7326
v 1.4995 0.8632 -0.1963
vt 0.9321 0.8770
vn 0.4679 0.4943 -0.7326
f 516/516/516 517/517/517 518/518/518
v 0.4997 1.4430 -0.1839
vt 0.9321 0.8770
vn 0.1571 0.9669 0.2012
v 0.2409 1.5750 0.0147
vt 0.9321 0.9104
vn 0.4154 0.7140 0.5636
v 0.3732 1.4163 0.1183
vt 0.9321 0.8755
vn 0.3420 0.7497 0.5666
f 519/519/519 520/520/520 521/521/521
v 0.4997 1.4430 -0.1839
vt 0.9321 0.8770
vn 0.0479 0.8713 -0.4884
v 0.0000 1.4631 -0.1969
vt 0.9321 0.8770
vn -0.1359 0.9366 -0.3231
v 0.2409 1.5750 0.0147
vt 0.9321 0.9104
vn -0.1699 0.9379 -0.3025
f 522/522/522 523/523/523 524/524/524
v 1.2494 0.0000 0.3597
vt 0.9321 0.7693
vn -0.4449 0.3794 0.8112
v 1.2492 0.2954 0.2214
vt 0.9321 0.7824
vn -0.1725 0.1328 0.9760
v 1.0077 0.3378 0.0692
vt 0.9321 0.7823
vn -0.2433 -0.3028 0.9215
f 525/525/525 526/526/526 527/527/527
v 1.0077 0.3378 0.0692
vt 0.9321 0.7964
vn -0.7076 0.6825 0.1832
v 0.7494 0.0000 0.3297
vt 0.9321 0.7834
vn -0.7076 0.6825 0.1832
v 0.9828 0.2556 0.2791
vt 0.9321 0.7928
vn -0.7076 0.6825 0.1832
f 528/528/528 529/529/529 530/530/530
v 0.9993 0.0000 0.3925
vt 0.9321 0.7693
vn -0.0445 0.4025 0.9144
v 0.9828 0.2556 0.2791
vt 0.9321 0.7787
vn -0.0634 0.4010 0.9139
v 0.7494 0.0000 0.3297
vt 0.9321 0.7693
vn -0.2249 0.3827 0.8961
f 531/531/531 532/532/532 533/533/533
v 0.9993 0.0000 0.3925
vt 0.9321 0.7693
vn -0.0445 0.4025 0.9144
v 1.2494 0.0000 0.3597
vt 0.9321 0.7693
vn 0.1187 0.4087 0.9049
v 0.9828 0.2556 0.2791
vt 0.9321 0.7787
vn -0.0634 0.4010 0.9139
f 534/534/534 535/535/535 536/536/536
v 0.3867 0.6091 0.2071
vt 0.9321 0.7957
vn 0.1141 -0.0471 0.9924
v 0.5001 0.3207 0.1804
vt 0.9321 0.7683
vn 0.0742 0.2243 0.9717
v 0.5843 0.6262 0.1674
vt 0.9321 0.7816
vn 0.1773 -0.0070 0.9841
f 537/537/537 538/538/538 539/539/539
v 0.7503 0.6354 0.1398
vt 0.9321 0.7814
vn 0.1605 -0.0004 0.9870
v 0.5843 0.6262 0.1674
vt 0.9321 0.7816
vn 0.1773 -0.0070 0.9841
v 0.5001 0.3207 0.1804
vt 0.9321 0.7683
vn 0.0742 0.2243 0.9717
f 540/540/540 541/541/541 542/542/542
v 0.5001 0.3207 0.1804
vt 0.9321 0.7683
vn 0.0742 0.2243 0.9717
v 0.3867 0.6091 0.2071
vt 0.9321 0.7957
vn 0.1141 -0.0471 0.9924
v 0.2498 0.5948 0.2137
vt 0.9321 0.7954
vn -0.0744 0.0438 0.9963
f 543/543/543 544/544/544 545/545/545
v 0.7503 0.6354 0.1398
vt 0.9321 0.8237
vn -0.0586 0.9981 -0.0213
v 0.4901 0.6196 0.1172
vt 0.9321 0.8239
vn -0.0811 0.9966 0.0124
v 0.5843 0.6262 0.1674
vt 0.9321 0.8239
vn -0.0636 0.9979 -0.0119
f 546/546/546 547/547/547 548/548/548
v 1.4995 0.4054 0.2049
vt 0.9321 0.8085
vn -0.7430 -0.2581 0.6175
v 1.3152 0.9001 0.1900
vt 0.9321 0.8217
vn -0.7430 -0.2581 0.6175
v 1.3783 0.6507 0.1616
vt 0.9321 0.8089
vn -0.7430 -0.2581 0.6175
f 549/549/549 550/550/550 551/551/551
v 1.3152 0.9001 0.1900
vt 0.9321 0.8217
vn 0.0030 0.0284 0.9996
v 1.0867 0.8292 0.2325
vt 0.9321 0.8089
vn -0.0738 0.1032 0.9919
v 1.3783 0.6507 0.1616
vt 0.9321 0.8089
vn 0.2005 -0.0605 0.9778
f 552/552/552 553/553/553 554/554/554
v 1.3783 0.6581 0.2718
vt 0.9321 0.7948
vn 0.1363 -0.7212 0.6792
v 1.2504 0.6076 0.2439
vt 0.9321 0.7875
vn 0.0014 -0.3227 0.9465
v 1.3435 0.5773 0.1806
vt 0.9321 0.7897
vn 0.1689 -0.7691 0.6164
f 555/555/555 556/556/556 557/557/557
v 1.0867 0.8292 0.2325
vt 0.9321 0.7948
vn -0.0738 0.1032 0.9919
v 1.1473 0.7007 0.2437
vt 0.9321 0.7891
vn -0.3496 -0.1885 0.9178
v 1.2577 0.7183 0.3458
vt 0.9321 0.8210
vn -0.3334 -0.5662 0.7538
f 558/558/558 559/559/559 560/560/560
v 1.3435 0.5773 0.1806
vt 0.9321 0.8038
vn 0.9062 -0.4219 0.0281
v 1.3783 0.6507 0.1616
vt 0.9321 0.8089
vn 0.9062 -0.4219 0.0281
v 1.3783 0.6581 0.2718
vt 0.9321 0.8089
vn 0.9062 -0.4219 0.0281
f 561/561/561 562/562/562 563/563/563
v 1.0867 0.8292 0.2325
vt 0.9321 0.8512
vn 0.5028 0.8639 0.0297
v 1.2577 0.7183 0.3458
vt 0.9321 0.8774
vn 0.4934 0.8640 0.1003
v 1.3783 0.6581 0.2718
vt 0.9321 0.8512
vn 0.5071 0.8618 -0.0108
f 564/564/564 565/565/565 566/566/566
v 1.2577 0.7183 0.3458
vt 0.9321 0.8210
vn -0.3334 -0.5662 0.7538
v 1.1473 0.7007 0.2437
vt 0.9321 0.7891
vn -0.3496 -0.1885 0.9178
v 1.2504 0.6076 0.2439
vt 0.9321 0.7875
vn 0.0014 -0.3227 0.9465
f 567/567/567 568/568/568 569/569/569
v 1.3783 0.6581 0.2718
vt 0.9321 0.7948
vn 0.1363 -0.7212 0.6792
v 1.2577 0.7183 0.3458
vt 0.9321 0.8210
vn -0.3334 -0.5662 0.7538
v 1.2504 0.6076 0.2439
vt 0.9321 0.7875
vn 0.0014 -0.3227 0.9465
f 570/570/570 571/571/571 572/572/572
v 1.3783 0.6507 0.1616
vt 0.9321 0.8512
vn 0.5109 0.8577 -0.0571
v 1.0867 0.8292 0.2325
vt 0.9321 0.8512
vn 0.5028 0.8639 0.0297
v 1.3783 0.6581 0.2718
vt 0.9321 0.8512
vn 0.5071 0.8618 -0.0108
f 573/573/573 574/574/574 575/575/575
v 1.0000 0.6200 0.2221
vt 0.9321 0.7955
vn -0.1271 -0.1084 0.9859
v 0.8768 0.5252 0.2397
vt 0.9321 0.7890
vn 0.2229 -0.5662 0.7936
v 1.0077 0.3378 0.0692
vt 0.9321 0.7823
vn -0.2433 -0.3028 0.9215
f 576/576/576 577/577/577 578/578/578
v 1.0000 0.6200 0.2221
vt 0.9321 0.7955
vn -0.1271 -0.1084 0.9859
v 0.7503 0.6354 0.1398
vt 0.9321 0.7814
vn -0.4369 0.1363 0.8891
v 0.8768 0.5252 0.2397
vt 0.9321 0.7890
vn -0.4128 0.3040 0.8586
f 579/579/579 580/580/580 581/581/581
v 0.4998 0.3207 0.2803
vt 0.9321 0.7824
vn 0.0874 -0.1899 0.9779
v 0.2498 0.3020 0.2990
vt 0.9321 0.7824
vn -0.0213 0.0346 0.9992
v 0.2501 0.0000 0.2404
vt 0.9321 0.7693
vn -0.0853 -0.1901 0.9781
f 582/582/582 583/583/583 584/584/584
v 0.5001 0.3207 0.1804
vt 0.9321 0.8106
vn -0.0750 0.9972 -0.0008
v 0.2498 0.3020 0.2990
vt 0.9321 0.8247
vn -0.0750 0.9972 -0.0008
v 0.4998 0.3207 0.2803
vt 0.9321 0.8247
vn -0.0750 0.9972 -0.0008
f 585/585/585 586/586/586 587/587/587
v 1.0483 0.5879 0.0216
vt 0.9321 0.8206
vn -0.1855 0.7187 -0.6702
v 1.1786 0.6711 0.1375
vt 0.9321 0.8422
vn 0.1547 0.7043 -0.6929
v 1.1558 0.5282 0.0288
vt 0.9321 0.7852
vn 0.3296 0.5379 -0.7759
f 588/588/588 589/589/589 590/590/590
v 1.1558 0.5282 0.0288
vt 0.9321 0.7636
vn -0.0635 -0.6833 -0.7273
v 1.3189 0.5086 0.0805
vt 0.9321 0.7828
vn 0.1617 -0.6398 -0.7513
v 1.3139 0.4143 0.1598
vt 0.9321 0.7828
vn 0.0694 -0.7099 -0.7009
f 591/591/591 592/592/592 593/593/593
v 1.1558 0.5282 0.0288
vt 0.9321 0.7852
vn 0.3296 0.5379 -0.7759
v 1.1786 0.6711 0.1375
vt 0.9321 0.8422
vn 0.1547 0.7043 -0.6929
v 1.3189 0.5086 0.0805
vt 0.9321 0.8206
vn 0.3124 0.5433 -0.7793
f 594/594/594 595/595/595 596/596/596
v 0.9614 0.5244 0.0724
vt 0.9321 0.7828
vn -0.2915 -0.7349 -0.6124
v 1.1654 0.3500 0.2279
vt 0.9321 0.7636
vn -0.2010 -0.8060 -0.5567
v 0.9829 0.4556 0.2735
vt 0.9321 0.7828
vn -0.5295 -0.8184 -0.2233
f 597/597/597 598/598/598 599/599/599
v 1.1786 0.6711 0.1375
vt 0.9321 0.8961
vn 0.1547 0.7043 -0.6929
v 1.0483 0.5879 0.0216
vt 0.9321 0.8745
vn -0.1855 0.7187 -0.6702
v 0.9913 0.6703 0.1828
vt 0.9321 0.8973
vn -0.3513 0.7773 -0.5219
f 600/600/600 601/601/601 602/602/602
v 1.1558 0.5282 0.0288
vt 0.9321 0.7636
vn -0.0635 -0.6833 -0.7273
v 1.1654 0.3500 0.2279
vt 0.9321 0.7636
vn -0.2010 -0.8060 -0.5567
v 0.9614 0.5244 0.0724
vt 0.9321 0.7828
vn -0.2915 -0.7349 -0.6124
f 603/603/603 604/604/604 605/605/605
v 1.1933 0.5245 0.3608
vt 0.9321 0.9189
vn 0.2423 0.8184 0.5211
v 0.9913 0.6703 0.1828
vt 0.9321 0.8973
vn 0.1267 0.8331 0.5384
v 1.0060 0.5590 0.3516
vt 0.9321 0.8973
vn 0.1267 0.8331 0.5384
f 606/606/606 607/607/607 608/608/608
v 0.9829 0.4556 0.2735
vt 0.9321 0.8044
vn -0.9840 0.1006 0.1471
v 1.0060 0.5590 0.3516
vt 0.9321 0.8434
vn -0.9827 0.1034 0.1539
v 0.9913 0.6703 0.1828
vt 0.9321 0.8434
vn -0.9845 0.0994 0.1442
f 609/609/609 610/610/610 611/611/611
v 0.9829 0.4556 0.2735
vt 0.9321 0.8044
vn -0.1422 -0.5807 0.8016
v 1.1654 0.3500 0.2279
vt 0.9321 0.7852
vn 0.2458 -0.6117 0.7520
v 1.1933 0.5245 0.3608
vt 0.9321 0.8649
vn 0.1752 -0.6120 0.7713
f 612/612/612 613/613/613 614/614/614
v 1.0483 0.5879 0.0216
vt 0.9321 0.8206
vn -0.1855 0.7187 -0.6702
v 0.9614 0.5244 0.0724
vt 0.9321 0.8044
vn -0.6812 0.5254 -0.5098
v 0.9913 0.6703 0.1828
vt 0.9321 0.8434
vn -0.3513 0.7773 -0.5219
f 615/615/615 616/616/616 617/617/617
v 1.3139 0.4143 0.1598
vt 0.9321 0.8044
vn 0.9919 -0.1082 -0.0661
v 1.3189 0.5086 0.0805
vt 0.9321 0.8206
vn 0.9919 -0.1082 -0.0661
v 1.3319 0.5273 0.2457
vt 0.9321 0.8434
vn 0.9919 -0.1082 -0.0661
f 618/618/618 619/619/619 620/620/620
v 1.1786 0.6711 0.1375
vt 0.9321 0.8961
vn 0.3751 0.8444 0.3825
v 1.1933 0.5245 0.3608
vt 0.9321 0.9189
vn 0.2423 0.8184 0.5211
v 1.3319 0.5273 0.2457
vt 0.9321 0.8973
vn 0.5784 0.7847 0.2230
f 621/621/621 622/622/622 623/623/623
v 1.1933 0.5245 0.3608
vt 0.9321 0.8649
vn 0.1752 -0.6120 0.7713
v 1.1654 0.3500 0.2279
vt 0.9321 0.7852
vn 0.2458 -0.6117 0.7520
v 1.3139 0.4143 0.1598
vt 0.9321 0.8044
vn 0.5335 -0.5646 0.6297
f 624/624/624 625/625/625 626/626/626
v 1.1933 0.5245 0.3608
vt 0.9321 0.9189
vn 0.2423 0.8184 0.5211
v 1.1786 0.6711 0.1375
vt 0.9321 0.8961
vn 0.3751 0.8444 0.3825
v 0.9913 0.6703 0.1828
vt 0.9321 0.8973
vn 0.1267 0.8331 0.5384
f 627/627/627 628/628/628 629/629/629
v 1.3189 0.5086 0.0805
vt 0.9321 0.8745
vn 0.7264 0.6742 -0.1334
v 1.1786 0.6711 0.1375
vt 0.9321 0.8961
vn 0.3751 0.8444 0.3825
v 1.3319 0.5273 0.2457
vt 0.9321 0.8973
vn 0.5784 0.7847 0.2230
f 630/630/630 631/631/631 632/632/632
v 1.1654 0.3500 0.2279
vt 0.9321 0.7636
vn -0.2010 -0.8060 -0.5567
v 1.1558 0.5282 0.0288
vt 0.9321 0.7636
vn -0.0635 -0.6833 -0.7273
v 1.3139 0.4143 0.1598
vt 0.9321 0.7828
vn 0.0694 -0.7099 -0.7009
f 633/633/633 634/634/634 635/635/635
v 1.0060 0.5590 0.3516
vt 0.9321 0.8434
vn -0.1453 -0.5752 0.8050
v 0.9829 0.4556 0.2735
vt 0.9321 0.8044
vn -0.1422 -0.5807 0.8016
v 1.1933 0.5245 0.3608
vt 0.9321 0.8649
vn 0.1752 -0.6120 0.7713
f 636/636/636 637/637/637 638/638/638
v 1.3319 0.5273 0.2457
vt 0.9321 0.8434
vn 0.5335 -0.5646 0.6297
v 1.1933 0.5245 0.3608
vt 0.9321 0.8649
vn 0.1752 -0.6120 0.7713
v 1.3139 0.4143 0.1598
vt 0.9321 0.8044
vn 0.5335 -0.5646 0.6297
f 639/639/639 640/640/640 641/641/641
v 1.0483 0.5879 0.0216
vt 0.9321 0.7828
vn -0.1880 -0.4436 -0.8763
v 1.1558 0.5282 0.0288
vt 0.9321 0.7636
vn -0.0635 -0.6833 -0.7273
v 0.9614 0.5244 0.0724
vt 0.9321 0.7828
vn -0.2915 -0.7349 -0.6124
f 642/642/642 643/643/643 644/644/644
v 0.9614 0.5244 0.0724
vt 0.9321 0.8044
vn -0.9856 0.0971 0.1386
v 0.9829 0.4556 0.2735
vt 0.9321 0.8044
vn -0.9840 0.1006 0.1471
v 0.9913 0.6703 0.1828
vt 0.9321 0.8434
vn -0.9845 0.0994 0.1442
f 645/645/645 646/646/646 647/647/647
v 0.4424 0.0002 0.5709
vt 0.9321 0.8206
vn -0.5454 0.4972 0.6748
v 0.5747 0.0002 0.6677
vt 0.9321 0.8206
vn -0.5210 0.4697 0.7127
v 0.7139 0.2699 0.5917
vt 0.9321 0.8422
vn -0.5767 0.5330 0.6192
f 648/648/648 649/649/649 650/650/650
v 0.2071 0.1912 0.4233
vt 0.9321 0.8434
vn -0.5522 -0.0206 0.8335
v 0.4424 0.0002 0.5709
vt 0.9321 0.8206
vn -0.5520 -0.0358 0.8331
v 0.3607 0.5464 0.5178
vt 0.9321 0.8870
vn -0.5613 0.0226 0.8273
f 651/651/651 652/652/652 653/653/653
v 0.6928 0.2913 0.1231
vt 0.9321 0.8434
vn 0.7792 0.0531 -0.6245
v 0.7010 0.8046 0.1104
vt 0.9321 0.8434
vn 0.7839 -0.0279 -0.6202
v 0.7287 0.6900 0.2679
vt 0.9321 0.8870
vn 0.9713 -0.0011 -0.2379
f 654/654/654 655/655/655 656/656/656
v 0.4595 0.0002 -0.0770
vt 0.9321 0.8044
vn 0.5741 0.0986 -0.8128
v 0.4456 0.2913 -0.0553
vt 0.9321 0.8434
vn 0.5850 0.0293 -0.8105
v 0.6928 0.2913 0.1231
vt 0.9321 0.8434
vn 0.7792 0.0531 -0.6245
f 657/657/657 658/658/658 659/659/659
v 0.4595 0.0002 -0.0770
vt 0.9321 0.8044
vn -0.7042 0.0199 -0.7097
v 0.2482 0.0002 0.1323
vt 0.9321 0.7852
vn -0.8902 -0.0095 -0.4555
v 0.2341 0.2704 0.1542
vt 0.9321 0.8649
vn -0.9075 -0.0016 -0.4201
f 660/660/660 661/661/661 662/662/662
v 0.8104 0.0002 0.3211
vt 0.9321 0.8206
vn 0.9066 0.0852 -0.4133
v 0.7102 0.0002 0.0961
vt 0.9321 0.8044
vn 0.7617 0.1049 -0.6394
v 0.6928 0.2913 0.1231
vt 0.9321 0.8434
vn 0.7792 0.0531 -0.6245
f 663/663/663 664/664/664 665/665/665
v 0.2161 0.0002 0.4092
vt 0.9321 0.8044
vn -0.5793 -0.0870 0.8104
v 0.4424 0.0002 0.5709
vt 0.9321 0.8206
vn -0.5520 -0.0358 0.8331
v 0.2071 0.1912 0.4233
vt 0.9321 0.8434
vn -0.5522 -0.0206 0.8335
f 666/666/666 667/667/667 668/668/668
v 0.2341 0.2704 0.1542
vt 0.9321 0.8649
vn -0.9075 -0.0016 -0.4201
v 0.2071 0.1912 0.4233
vt 0.9321 0.8434
vn -0.9943 -0.0171 -0.1051
v 0.2153 0.7044 0.4105
vt 0.9321 0.8434
vn -0.9953 0.0135 -0.0962
f 669/669/669 670/670/670 671/671/671
v 0.2341 0.2704 0.1542
vt 0.9321 0.8649
vn -0.9075 -0.0016 -0.4201
v 0.2482 0.0002 0.1323
vt 0.9321 0.7852
vn -0.8902 -0.0095 -0.4555
v 0.2161 0.0002 0.4092
vt 0.9321 0.8044
vn -0.9927 -0.0406 -0.1132
f 672/672/672 673/673/673 674/674/674
v 0.6928 0.2913 0.1231
vt 0.9321 0.8434
vn 0.7792 0.0531 -0.6245
v 0.4456 0.2913 -0.0553
vt 0.9321 0.8434
vn 0.5850 0.0293 -0.8105
v 0.4538 0.8046 -0.0681
vt 0.9321 0.8434
vn 0.5850 -0.0295 -0.8105
f 675/675/675 676/676/676 677/677/677
v 0.6461 0.3653 0.4360
vt 0.9321 0.8422
vn 0.5852 0.1109 0.8032
v 0.8104 0.0002 0.3211
vt 0.9321 0.8206
vn 0.7560 0.1388 0.6397
v 0.7287 0.6900 0.2679
vt 0.9321 0.8870
vn 0.7563 0.4468 0.4779
f 678/678/678 679/679/679 680/680/680
v 0.4456 0.2913 -0.0553
vt 0.9321 0.8434
vn -0.7042 0.0060 -0.7100
v 0.4595 0.0002 -0.0770
vt 0.9321 0.8044
vn -0.7042 0.0199 -0.7097
v 0.2341 0.2704 0.1542
vt 0.9321 0.8649
vn -0.9075 -0.0016 -0.4201
f 681/681/681 682/682/682 683/683/683
v 0.2071 0.1912 0.4233
vt 0.9321 0.8434
vn -0.9943 -0.0171 -0.1051
v 0.2341 0.2704 0.1542
vt 0.9321 0.8649
vn -0.9075 -0.0016 -0.4201
v 0.2161 0.0002 0.4092
vt 0.9321 0.8044
vn -0.9927 -0.0406 -0.1132
f 684/684/684 685/685/685 686/686/686
v 0.7102 0.0002 0.0961
vt 0.9321 0.8044
vn 0.7617 0.1049 -0.6394
v 0.4595 0.0002 -0.0770
vt 0.9321 0.8044
vn 0.5741 0.0986 -0.8128
v 0.6928 0.2913 0.1231
vt 0.9321 0.8434
vn 0.7792 0.0531 -0.6245
f 687/687/687 688/688/688 689/689/689
v 0.5643 0.7831 0.3831
vt 0.9321 0.9019
vn 0.6437 0.6624 0.3832
v 0.7287 0.6900 0.2679
vt 0.9321 0.8870
vn 0.7563 0.4468 0.4779
v 0.7010 0.8046 0.1104
vt 0.9321 0.8973
vn 0.6415 0.6697 0.3741
f 690/690/690 691/691/691 692/692/692
v 0.2423 0.7837 0.1415
vt 0.9321 0.9189
vn -0.1067 0.9838 0.1444
v 0.7010 0.8046 0.1104
vt 0.9321 0.8973
vn -0.0415 0.9975 0.0575
v 0.4538 0.8046 -0.0681
vt 0.9321 0.8973
vn -0.0415 0.9975 0.0575
f 693/693/693 694/694/694 695/695/695
v 0.5643 0.7831 0.3831
vt 0.9321 0.9019
vn -0.0953 0.9870 0.1292
v 0.2423 0.7837 0.1415
vt 0.9321 0.9189
vn -0.1067 0.9838 0.1444
v 0.2153 0.7044 0.4105
vt 0.9321 0.8973
vn -0.1931 0.9463 0.2593
f 696/696/696 697/697/697 698/698/698
v 0.2423 0.7837 0.1415
vt 0.9321 0.9189
vn -0.1067 0.9838 0.1444
v 0.5643 0.7831 0.3831
vt 0.9321 0.9019
vn -0.0953 0.9870 0.1292
v 0.7010 0.8046 0.1104
vt 0.9321 0.8973
vn -0.0415 0.9975 0.0575
f 699/699/699 700/700/700 701/701/701
v 0.3607 0.5464 0.5178
vt 0.9321 0.8870
vn -0.0442 0.5327 0.8452
v 0.6239 0.6907 0.4406
vt 0.9321 0.8870
vn -0.0456 0.5159 0.8555
v 0.2153 0.7044 0.4105
vt 0.9321 0.8973
vn -0.0448 0.5257 0.8495
f 702/702/702 703/703/703 704/704/704
v 0.4456 0.2913 -0.0553
vt 0.9321 0.8434
vn -0.7042 0.0060 -0.7100
v 0.2341 0.2704 0.1542
vt 0.9321 0.8649
vn -0.9075 -0.0016 -0.4201
v 0.2423 0.7837 0.1415
vt 0.9321 0.8649
vn -0.8805 0.0023 -0.4741
f 705/705/705 706/706/706 707/707/707
v 0.8104 0.0002 0.3211
vt 0.9321 0.8206
vn 0.9066 0.0852 -0.4133
v 0.6928 0.2913 0.1231
vt 0.9321 0.8434
vn 0.7792 0.0531 -0.6245
v 0.7287 0.6900 0.2679
vt 0.9321 0.8870
vn 0.9713 -0.0011 -0.2379
f 708/708/708 709/709/709 710/710/710
v 0.6239 0.6907 0.4406
vt 0.9321 0.8870
vn 0.6910 0.2782 0.6671
v 0.6461 0.3653 0.4360
vt 0.9321 0.8422
vn 0.5852 0.1109 0.8032
v 0.7287 0.6900 0.2679
vt 0.9321 0.8870
vn 0.7563 0.4468 0.4779
f 711/711/711 712/712/712 713/713/713
v 0.4424 0.0002 0.5709
vt 0.9321 0.8206
vn 0.3552 0.1431 0.9238
v 0.6461 0.3653 0.4360
vt 0.9321 0.8422
vn 0.5852 0.1109 0.8032
v 0.3607 0.5464 0.5178
vt 0.9321 0.8870
vn 0.3156 0.0704 0.9463
f 714/714/714 715/715/715 716/716/716
v 0.2153 0.7044 0.4105
vt 0.9321 0.8434
vn -0.5723 0.0295 0.8195
v 0.2071 0.1912 0.4233
vt 0.9321 0.8434
vn -0.5522 -0.0206 0.8335
v 0.3607 0.5464 0.5178
vt 0.9321 0.8870
vn -0.5613 0.0226 0.8273
f 717/717/717 718/718/718 719/719/719
v 0.2423 0.7837 0.1415
vt 0.9321 0.8649
vn -0.8805 0.0023 -0.4741
v 0.2341 0.2704 0.1542
vt 0.9321 0.8649
vn -0.9075 -0.0016 -0.4201
v 0.2153 0.7044 0.4105
vt 0.9321 0.8434
vn -0.9953 0.0135 -0.0962
f 720/720/720 721/721/721 722/722/722
v 0.4538 0.8046 -0.0681
vt 0.9321 0.8434
vn -0.7036 -0.0064 -0.7106
v 0.4456 0.2913 -0.0553
vt 0.9321 0.8434
vn -0.7042 0.0060 -0.7100
v 0.2423 0.7837 0.1415
vt 0.9321 0.8649
vn -0.8805 0.0023 -0.4741
f 723/723/723 724/724/724 725/725/725
v 0.7010 0.8046 0.1104
vt 0.9321 0.8434
vn 0.7839 -0.0279 -0.6202
v 0.6928 0.2913 0.1231
vt 0.9321 0.8434
vn 0.7792 0.0531 -0.6245
v 0.4538 0.8046 -0.0681
vt 0.9321 0.8434
vn 0.5850 -0.0295 -0.8105
f 726/726/726 727/727/727 728/728/728
v 0.8409 0.0002 0.4569
vt 0.9321 0.8206
vn 0.9123 0.4070 0.0453
v 0.7139 0.2699 0.5917
vt 0.9321 0.8422
vn 0.9212 0.3864 0.0453
v 0.7354 0.0002 0.6426
vt 0.9321 0.7852
vn 0.8581 0.1604 0.4877
f 729/729/729 730/730/730 731/731/731
v 0.7354 0.0002 0.6426
vt 0.9321 0.7852
vn 0.1513 0.1949 0.9691
v 0.7139 0.2699 0.5917
vt 0.9321 0.8422
vn 0.1513 0.1949 0.9691
v 0.5747 0.0002 0.6677
vt 0.9321 0.8206
vn 0.1513 0.1949 0.9691
f 732/732/732 733/733/733 734/734/734
v 0.8104 0.0002 0.3211
vt 0.9321 0.8206
vn 0.8640 0.4755 -0.1656
v 0.6461 0.3653 0.4360
vt 0.9321 0.8422
vn 0.8909 0.4383 -0.1190
v 0.7139 0.2699 0.5917
vt 0.9321 0.8422
vn 0.9212 0.3864 0.0453
f 735/735/735 736/736/736 737/737/737
v 0.6461 0.3653 0.4360
vt 0.9321 0.8422
vn -0.5899 0.5483 0.5927
v 0.4424 0.0002 0.5709
vt 0.9321 0.8206
vn -0.5454 0.4972 0.6748
v 0.7139 0.2699 0.5917
vt 0.9321 0.8422
vn -0.5767 0.5330 0.6192
f 738/738/738 739/739/739 740/740/740
v 0.8409 0.0002 0.4569
vt 0.9321 0.8206
vn 0.9123 0.4070 0.0453
v 0.8104 0.0002 0.3211
vt 0.9321 0.8206
vn 0.8640 0.4755 -0.1656
v 0.7139 0.2699 0.5917
vt 0.9321 0.8422
vn 0.9212 0.3864 0.0453
f 741/741/741 742/742/742 743/743/743
v 0.5643 0.7831 0.3831
vt 0.9321 0.9019
vn 0.6437 0.6624 0.3832
v 0.6239 0.6907 0.4406
vt 0.9321 0.8870
vn 0.6910 0.2782 0.6671
v 0.7287 0.6900 0.2679
vt 0.9321 0.8870
vn 0.7563 0.4468 0.4779
f 744/744/744 745/745/745 746/746/746
v 0.6461 0.3653 0.4360
vt 0.9321 0.8422
vn 0.5852 0.1109 0.8032
v 0.6239 0.6907 0.4406
vt 0.9321 0.8870
vn 0.6910 0.2782 0.6671
v 0.3607 0.5464 0.5178
vt 0.9321 0.8870
vn 0.3156 0.0704 0.9463
f 747/747/747 748/748/748 749/749/749
v 0.6239 0.6907 0.4406
vt 0.9321 0.8870
vn -0.0456 0.5159 0.8555
v 0.5643 0.7831 0.3831
vt 0.9321 0.9019
vn -0.0464 0.5054 0.8617
v 0.2153 0.7044 0.4105
vt 0.9321 0.8973
vn -0.0448 0.5257 0.8495
f 750/750/750 751/751/751 752/752/752
v 0.4003 0.4301 -0.6647
vt 0.9321 0.8206
vn -0.2578 -0.5905 -0.7647
v 0.6502 0.4880 -0.6823
vt 0.9321 0.8422
vn 0.0916 -0.0945 -0.9913
v 0.6596 0.4507 -0.6779
vt 0.9321 0.7852
vn 0.0997 -0.1335 -0.9860
f 753/753/753 754/754/754 755/755/755
v 0.6596 0.4507 -0.6779
vt 0.9321 0.7636
vn 0.2298 -0.9680 0.1008
v 0.9595 0.5242 -0.6018
vt 0.9321 0.7828
vn 0.2137 -0.9721 0.0969
v 0.9415 0.5557 -0.2461
vt 0.9321 0.7828
vn 0.2129 -0.9722 0.0974
f 756/756/756 757/757/757 758/758/758
v 0.6596 0.4507 -0.6779
vt 0.9321 0.7852
vn 0.0997 -0.1335 -0.9860
v 0.6502 0.4880 -0.6823
vt 0.9321 0.8422
vn 0.0916 -0.0945 -0.9913
v 0.9801 0.5738 -0.6116
vt 0.9321 0.8206
vn 0.2961 -0.2788 -0.9136
f 759/759/759 760/760/760 761/761/761
v 0.1757 0.3551 -0.4227
vt 0.9321 0.8044
vn -0.5837 -0.4447 -0.6793
v 0.4003 0.4301 -0.6647
vt 0.9321 0.8206
vn -0.2578 -0.5905 -0.7647
v 0.4168 0.3911 -0.6368
vt 0.9321 0.8044
vn -0.2450 -0.6306 -0.7365
f 762/762/762 763/763/763 764/764/764
v 0.1757 0.3551 -0.4227
vt 0.9321 0.7828
vn 0.2457 -0.9643 0.0988
v 0.6539 0.5080 -0.0950
vt 0.9321 0.7636
vn 0.2305 -0.9684 0.0955
v 0.3354 0.4226 -0.1306
vt 0.9321 0.7828
vn 0.2487 -0.9647 0.0870
f 765/765/765 766/766/766 767/767/767
v 0.6502 0.4880 -0.6823
vt 0.9321 0.8961
vn -0.2033 0.9487 -0.2421
v 0.4003 0.4301 -0.6647
vt 0.9321 0.8745
vn -0.2341 0.8968 -0.3753
v 0.1302 0.4522 -0.4434
vt 0.9321 0.8973
vn -0.1922 0.9606 -0.2009
f 768/768/768 769/769/769 770/770/770
v 0.6596 0.4507 -0.6779
vt 0.9321 0.7636
vn 0.2298 -0.9680 0.1008
v 0.6539 0.5080 -0.0950
vt 0.9321 0.7636
vn 0.2305 -0.9684 0.0955
v 0.1757 0.3551 -0.4227
vt 0.9321 0.7828
vn 0.2457 -0.9643 0.0988
f 771/771/771 772/772/772 773/773/773
v 0.6295 0.6053 -0.1065
vt 0.9321 0.9189
vn -0.2255 0.9572 -0.1814
v 0.1302 0.4522 -0.4434
vt 0.9321 0.8973
vn -0.1922 0.9606 -0.2009
v 0.2852 0.5211 -0.1258
vt 0.9321 0.8973
vn -0.2310 0.9681 -0.0974
f 774/774/774 775/775/775 776/776/776
v 0.3354 0.4226 -0.1306
vt 0.9321 0.8044
vn -0.7855 -0.3930 0.4781
v 0.2852 0.5211 -0.1258
vt 0.9321 0.8434
vn -0.7769 -0.4191 0.4700
v 0.1302 0.4522 -0.4434
vt 0.9321 0.8434
vn -0.8092 -0.3056 0.5019
f 777/777/777 778/778/778 779/779/779
v 0.3354 0.4226 -0.1306
vt 0.9321 0.8044
vn -0.0549 -0.0433 0.9976
v 0.6539 0.5080 -0.0950
vt 0.9321 0.7852
vn 0.1551 0.1545 0.9757
v 0.6295 0.6053 -0.1065
vt 0.9321 0.8649
vn 0.1617 0.1378 0.9772
f 780/780/780 781/781/781 782/782/782
v 0.4003 0.4301 -0.6647
vt 0.9321 0.8206
vn -0.2578 -0.5905 -0.7647
v 0.1757 0.3551 -0.4227
vt 0.9321 0.8044
vn -0.5837 -0.4447 -0.6793
v 0.1302 0.4522 -0.4434
vt 0.9321 0.8434
vn -0.5943 -0.4247 -0.6829
f 783/783/783 784/784/784 785/785/785
v 0.9595 0.5242 -0.6018
vt 0.9321 0.7828
vn 0.9263 -0.3682 0.0796
v 0.9801 0.5738 -0.6116
vt 0.9321 0.7990
vn 0.9608 -0.2627 0.0885
v 0.9415 0.5557 -0.2461
vt 0.9321 0.7828
vn 0.9734 0.1995 0.1128
f 786/786/786 787/787/787 788/788/788
v 0.9415 0.5557 -0.2461
vt 0.9321 0.8044
vn 0.9734 0.1995 0.1128
v 0.9801 0.5738 -0.6116
vt 0.9321 0.8206
vn 0.9608 -0.2627 0.0885
v 0.9157 0.6583 -0.2582
vt 0.9321 0.8434
vn 0.9604 0.2543 0.1141
f 789/789/789 790/790/790 791/791/791
v 0.6502 0.4880 -0.6823
vt 0.9321 0.8961
vn -0.2033 0.9487 -0.2421
v 0.6295 0.6053 -0.1065
vt 0.9321 0.9189
vn -0.2255 0.9572 -0.1814
v 0.9157 0.6583 -0.2582
vt 0.9321 0.8973
vn -0.2511 0.9423 -0.2212
f 792/792/792 793/793/793 794/794/794
v 0.6295 0.6053 -0.1065
vt 0.9321 0.8649
vn 0.1617 0.1378 0.9772
v 0.6539 0.5080 -0.0950
vt 0.9321 0.7852
vn 0.1551 0.1545 0.9757
v 0.9415 0.5557 -0.2461
vt 0.9321 0.8044
vn 0.4270 0.2112 0.8792
f 795/795/795 796/796/796 797/797/797
v 0.6295 0.6053 -0.1065
vt 0.9321 0.9189
vn -0.2255 0.9572 -0.1814
v 0.6502 0.4880 -0.6823
vt 0.9321 0.8961
vn -0.2033 0.9487 -0.2421
v 0.1302 0.4522 -0.4434
vt 0.9321 0.8973
vn -0.1922 0.9606 -0.2009
f 798/798/798 799/799/799 800/800/800
v 0.9801 0.5738 -0.6116
vt 0.9321 0.8745
vn -0.1904 0.9464 -0.2609
v 0.6502 0.4880 -0.6823
vt 0.9321 0.8961
vn -0.2033 0.9487 -0.2421
v 0.9157 0.6583 -0.2582
vt 0.9321 0.8973
vn -0.2511 0.9423 -0.2212
f 801/801/801 802/802/802 803/803/803
v 0.6539 0.5080 -0.0950
vt 0.9321 0.7636
vn 0.2305 -0.9684 0.0955
v 0.6596 0.4507 -0.6779
vt 0.9321 0.7636
vn 0.2298 -0.9680 0.1008
v 0.9415 0.5557 -0.2461
vt 0.9321 0.7828
vn 0.2129 -0.9722 0.0974
f 804/804/804 805/805/805 806/806/806
v 0.2852 0.5211 -0.1258
vt 0.9321 0.8434
vn -0.0392 -0.0685 0.9969
v 0.3354 0.4226 -0.1306
vt 0.9321 0.8044
vn -0.0549 -0.0433 0.9976
v 0.6295 0.6053 -0.1065
vt 0.9321 0.8649
vn 0.1617 0.1378 0.9772
f 807/807/807 808/808/808 809/809/809
v 0.9157 0.6583 -0.2582
vt 0.9321 0.8434
vn 0.4270 0.2112 0.8792
v 0.6295 0.6053 -0.1065
vt 0.9321 0.8649
vn 0.1617 0.1378 0.9772
v 0.9415 0.5557 -0.2461
vt 0.9321 0.8044
vn 0.4270 0.2112 0.8792
f 810/810/810 811/811/811 812/812/812
v 0.4168 0.3911 -0.6368
vt 0.9321 0.7828
vn 0.2565 -0.9581 0.1278
v 0.6596 0.4507 -0.6779
vt 0.9321 0.7636
vn 0.2298 -0.9680 0.1008
v 0.1757 0.3551 -0.4227
vt 0.9321 0.7828
vn 0.2457 -0.9643 0.0988
f 813/813/813 814/814/814 815/815/815
v 0.9595 0.5242 -0.6018
vt 0.9321 0.8044
vn 0.3039 -0.3051 -0.9025
v 0.6596 0.4507 -0.6779
vt 0.9321 0.7852
vn 0.0997 -0.1335 -0.9860
v 0.9801 0.5738 -0.6116
vt 0.9321 0.8206
vn 0.2961 -0.2788 -0.9136
f 816/816/816 817/817/817 818/818/818
v 0.4168 0.3911 -0.6368
vt 0.9321 0.8044
vn -0.2450 -0.6306 -0.7365
v 0.4003 0.4301 -0.6647
vt 0.9321 0.8206
vn -0.2578 -0.5905 -0.7647
v 0.6596 0.4507 -0.6779
vt 0.9321 0.7852
vn 0.0997 -0.1335 -0.9860
f 819/819/819 820/820/820 821/821/821
v 0.1757 0.3551 -0.4227
vt 0.9321 0.8044
vn -0.8159 -0.2738 0.5093
v 0.3354 0.4226 -0.1306
vt 0.9321 0.8044
vn -0.7855 -0.3930 0.4781
v 0.1302 0.4522 -0.4434
vt 0.9321 0.8434
vn -0.8092 -0.3056 0.5019
f 822/822/822 823/823/823 824/824/824
v 0.2658 0.4896 -0.3939
vt 0.9321 0.8206
vn -0.6440 -0.5189 -0.5622
v 0.4669 0.5589 -0.6317
vt 0.9321 0.8422
vn -0.7016 -0.2519 -0.6666
v 0.4879 0.4517 -0.6134
vt 0.9321 0.7852
vn -0.6972 -0.2899 -0.6556
f 825/825/825 826/826/826 827/827/827
v 0.7901 0.5120 -0.5495
vt 0.9321 0.7828
vn 0.1348 0.3189 -0.9382
v 0.4879 0.4517 -0.6134
vt 0.9321 0.7852
vn 0.3502 0.0364 -0.9360
v 0.7215 0.6305 -0.5191
vt 0.9321 0.8434
vn 0.1986 0.2418 -0.9498
f 828/828/828 829/829/829 830/830/830
v 0.4879 0.4517 -0.6134
vt 0.9321 0.7852
vn 0.3502 0.0364 -0.9360
v 0.4669 0.5589 -0.6317
vt 0.9321 0.8422
vn 0.4204 -0.0719 -0.9045
v 0.7215 0.6305 -0.5191
vt 0.9321 0.8434
vn 0.1986 0.2418 -0.9498
f 831/831/831 832/832/832 833/833/833
v 0.4073 0.4944 -0.1928
vt 0.9321 0.8044
vn -0.5513 -0.0676 0.8316
v 0.2658 0.4896 -0.3939
vt 0.9321 0.8206
vn -0.7940 -0.2268 0.5640
v 0.2934 0.4447 -0.3768
vt 0.9321 0.8044
vn -0.7850 -0.2678 0.5587
f 834/834/834 835/835/835 836/836/836
v 0.4669 0.5589 -0.6317
vt 0.9321 0.8961
vn -0.3457 0.8545 -0.3877
v 0.2658 0.4896 -0.3939
vt 0.9321 0.8745
vn -0.6585 0.6582 -0.3649
v 0.3528 0.6753 -0.2158
vt 0.9321 0.8973
vn -0.3385 0.9226 -0.1850
f 837/837/837 838/838/838 839/839/839
v 0.7515 0.7277 -0.3651
vt 0.9321 0.9189
vn -0.1342 0.9603 -0.2444
v 0.3528 0.6753 -0.2158
vt 0.9321 0.8973
vn -0.3385 0.9226 -0.1850
v 0.5756 0.6613 -0.1390
vt 0.9321 0.8973
vn -0.0293 0.9650 0.2605
f 840/840/840 841/841/841 842/842/842
v 0.6053 0.5393 -0.1440
vt 0.9321 0.8044
vn -0.2958 -0.0448 0.9542
v 0.5756 0.6613 -0.1390
vt 0.9321 0.8434
vn -0.3302 -0.1181 0.9365
v 0.3528 0.6753 -0.2158
vt 0.9321 0.8434
vn -0.5597 -0.0911 0.8237
f 843/843/843 844/844/844 845/845/845
v 0.6053 0.5393 -0.1440
vt 0.9321 0.8044
vn 0.7360 0.1911 0.6494
v 0.7863 0.5508 -0.3349
vt 0.9321 0.7852
vn 0.9034 0.2385 0.3564
v 0.7515 0.7277 -0.3651
vt 0.9321 0.8649
vn 0.9092 0.2977 0.2909
f 846/846/846 847/847/847 848/848/848
v 0.2658 0.4896 -0.3939
vt 0.9321 0.8206
vn -0.7940 -0.2268 0.5640
v 0.4073 0.4944 -0.1928
vt 0.9321 0.8044
vn -0.5513 -0.0676 0.8316
v 0.3528 0.6753 -0.2158
vt 0.9321 0.8434
vn -0.5597 -0.0911 0.8237
f 849/849/849 850/850/850 851/851/851
v 0.4669 0.5589 -0.6317
vt 0.9321 0.8961
vn -0.3457 0.8545 -0.3877
v 0.7515 0.7277 -0.3651
vt 0.9321 0.9189
vn -0.1342 0.9603 -0.2444
v 0.7215 0.6305 -0.5191
vt 0.9321 0.8973
vn -0.0023 0.8460 -0.5331
f 852/852/852 853/853/853 854/854/854
v 0.7515 0.7277 -0.3651
vt 0.9321 0.8649
vn 0.9092 0.2977 0.2909
v 0.7863 0.5508 -0.3349
vt 0.9321 0.7852
vn 0.9034 0.2385 0.3564
v 0.7901 0.5120 -0.5495
vt 0.9321 0.8044
vn 0.9025 0.3615 -0.2340
f 855/855/855 856/856/856 857/857/857
v 0.7515 0.7277 -0.3651
vt 0.9321 0.9189
vn -0.1342 0.9603 -0.2444
v 0.4669 0.5589 -0.6317
vt 0.9321 0.8961
vn -0.3457 0.8545 -0.3877
v 0.3528 0.6753 -0.2158
vt 0.9321 0.8973
vn -0.3385 0.9226 -0.1850
f 858/858/858 859/859/859 860/860/860
v 0.5756 0.6613 -0.1390
vt 0.9321 0.8434
vn 0.7561 0.1585 0.6350
v 0.6053 0.5393 -0.1440
vt 0.9321 0.8044
vn 0.7360 0.1911 0.6494
v 0.7515 0.7277 -0.3651
vt 0.9321 0.8649
vn 0.9092 0.2977 0.2909
f 861/861/861 862/862/862 863/863/863
v 0.7215 0.6305 -0.5191
vt 0.9321 0.8434
vn 0.7056 0.5292 -0.4713
v 0.7515 0.7277 -0.3651
vt 0.9321 0.8649
vn 0.9092 0.2977 0.2909
v 0.7901 0.5120 -0.5495
vt 0.9321 0.8044
vn 0.9025 0.3615 -0.2340
f 864/864/864 865/865/865 866/866/866
v 0.2934 0.4447 -0.3768
vt 0.9321 0.8044
vn -0.6197 -0.5818 -0.5268
v 0.2658 0.4896 -0.3939
vt 0.9321 0.8206
vn -0.6440 -0.5189 -0.5622
v 0.4879 0.4517 -0.6134
vt 0.9321 0.7852
vn -0.6972 -0.2899 -0.6556
f 867/867/867 868/868/868 869/869/869
v 0.4073 0.4944 -0.1928
vt 0.9321 0.8044
vn -0.5513 -0.0676 0.8316
v 0.6053 0.5393 -0.1440
vt 0.9321 0.8044
vn -0.2958 -0.0448 0.9542
v 0.3528 0.6753 -0.2158
vt 0.9321 0.8434
vn -0.5597 -0.0911 0.8237
f 870/870/870 871/871/871 872/872/872
v 0.7654 1.5112 -0.2305
vt 0.9321 0.8147
vn -0.1171 0.0370 -0.9924
v 1.1614 1.4097 -0.2350
vt 0.9321 0.8300
vn 0.0878 0.3834 -0.9194
v 1.1120 1.3163 -0.2787
vt 0.9321 0.7897
vn 0.0669 0.3499 -0.9344
f 873/873/873 874/874/874 875/875/875
v 1.2569 1.1099 0.0584
vt 0.9321 0.7880
vn 0.9928 0.0241 0.1175
v 1.1120 1.3163 -0.2787
vt 0.9321 0.7897
vn 0.9300 -0.1896 -0.3149
v 1.2317 1.2472 0.1163
vt 0.9321 0.8309
vn 0.9892 0.0822 0.1217
f 876/876/876 877/877/877 878/878/878
v 1.1120 1.3163 -0.2787
vt 0.9321 0.7897
vn 0.9300 -0.1896 -0.3149
v 1.1614 1.4097 -0.2350
vt 0.9321 0.8300
vn 0.8902 -0.3189 -0.3255
v 1.2317 1.2472 0.1163
vt 0.9321 0.8309
vn 0.9892 0.0822 0.1217
f 879/879/879 880/880/880 881/881/881
v 0.6480 1.3887 0.0632
vt 0.9321 0.8033
vn -0.9473 0.2928 0.1296
v 0.7654 1.5112 -0.2305
vt 0.9321 0.8147
vn -0.9148 0.3349 -0.2259
v 0.7465 1.4564 -0.2257
vt 0.9321 0.8033
vn -0.9229 0.2971 -0.2449
f 882/882/882 883/883/883 884/884/884
v 0.6480 1.3887 0.0632
vt 0.9321 0.7880
vn -0.3794 -0.8618 -0.3366
v 1.0500 1.1285 0.2743
vt 0.9321 0.7744
vn -0.3939 -0.8552 -0.3368
v 0.7380 1.2569 0.2941
vt 0.9321 0.7880
vn -0.3759 -0.8602 -0.3446
f 885/885/885 886/886/886 887/887/887
v 1.1614 1.4097 -0.2350
vt 0.9321 0.8682
vn 0.4370 0.8932 0.1064
v 0.7654 1.5112 -0.2305
vt 0.9321 0.8529
vn 0.2460 0.9643 -0.0978
v 0.7117 1.5614 0.1290
vt 0.9321 0.8691
vn 0.3416 0.9077 0.2436
f 888/888/888 889/889/889 890/890/890
v 1.1120 1.3163 -0.2787
vt 0.9321 0.7744
vn -0.3919 -0.8573 -0.3338
v 1.0500 1.1285 0.2743
vt 0.9321 0.7744
vn -0.3939 -0.8552 -0.3368
v 0.6480 1.3887 0.0632
vt 0.9321 0.7880
vn -0.3794 -0.8618 -0.3366
f 891/891/891 892/892/892 893/893/893
v 1.1316 1.2827 0.3464
vt 0.9321 0.8844
vn 0.4601 0.8286 0.3190
v 0.7117 1.5614 0.1290
vt 0.9321 0.8691
vn 0.3416 0.9077 0.2436
v 0.7643 1.3665 0.3623
vt 0.9321 0.8691
vn 0.2024 0.7736 0.6005
f 894/894/894 895/895/895 896/896/896
v 0.7380 1.2569 0.2941
vt 0.9321 0.8033
vn -0.9387 0.0981 0.3305
v 0.7643 1.3665 0.3623
vt 0.9321 0.8309
vn -0.9609 0.0632 0.2696
v 0.7117 1.5614 0.1290
vt 0.9321 0.8309
vn -0.9538 0.2729 0.1257
f 897/897/897 898/898/898 899/899/899
v 0.7380 1.2569 0.2941
vt 0.9321 0.8033
vn -0.0852 -0.4758 0.8754
v 1.0500 1.1285 0.2743
vt 0.9321 0.7897
vn -0.0976 -0.3787 0.9203
v 1.1316 1.2827 0.3464
vt 0.9321 0.8462
vn -0.0934 -0.4131 0.9059
f 900/900/900 901/901/901 902/902/902
v 0.7654 1.5112 -0.2305
vt 0.9321 0.8147
vn -0.9148 0.3349 -0.2259
v 0.6480 1.3887 0.0632
vt 0.9321 0.8033
vn -0.9473 0.2928 0.1296
v 0.7117 1.5614 0.1290
vt 0.9321 0.8309
vn -0.9538 0.2729 0.1257
f 903/903/903 904/904/904 905/905/905
v 1.1614 1.4097 -0.2350
vt 0.9321 0.8682
vn 0.4370 0.8932 0.1064
v 1.1316 1.2827 0.3464
vt 0.9321 0.8844
vn 0.4601 0.8286 0.3190
v 1.2317 1.2472 0.1163
vt 0.9321 0.8691
vn 0.6842 0.7044 0.1890
f 906/906/906 907/907/907 908/908/908
v 1.1316 1.2827 0.3464
vt 0.9321 0.8462
vn 0.6940 -0.4430 0.5676
v 1.0500 1.1285 0.2743
vt 0.9321 0.7897
vn 0.5652 -0.5755 0.5910
v 1.2569 1.1099 0.0584
vt 0.9321 0.8033
vn 0.9928 0.0241 0.1175
f 909/909/909 910/910/910 911/911/911
v 1.1316 1.2827 0.3464
vt 0.9321 0.8844
vn 0.4601 0.8286 0.3190
v 1.1614 1.4097 -0.2350
vt 0.9321 0.8682
vn 0.4370 0.8932 0.1064
v 0.7117 1.5614 0.1290
vt 0.9321 0.8691
vn 0.3416 0.9077 0.2436
f 912/912/912 913/913/913 914/914/914
v 1.0500 1.1285 0.2743
vt 0.9321 0.7744
vn -0.3939 -0.8552 -0.3368
v 1.1120 1.3163 -0.2787
vt 0.9321 0.7744
vn -0.3919 -0.8573 -0.3338
v 1.2569 1.1099 0.0584
vt 0.9321 0.7880
vn -0.4239 -0.8421 -0.3335
f 915/915/915 916/916/916 917/917/917
v 0.7643 1.3665 0.3623
vt 0.9321 0.8309
vn -0.0801 -0.5127 0.8548
v 0.7380 1.2569 0.2941
vt 0.9321 0.8033
vn -0.0852 -0.4758 0.8754
v 1.1316 1.2827 0.3464
vt 0.9321 0.8462
vn -0.0934 -0.4131 0.9059
f 918/918/918 919/919/919 920/920/920
v 1.2317 1.2472 0.1163
vt 0.9321 0.8309
vn 0.9892 0.0822 0.1217
v 1.1316 1.2827 0.3464
vt 0.9321 0.8462
vn 0.6940 -0.4430 0.5676
v 1.2569 1.1099 0.0584
vt 0.9321 0.8033
vn 0.9928 0.0241 0.1175
f 921/921/921 922/922/922 923/923/923
v 0.7465 1.4564 -0.2257
vt 0.9321 0.7880
vn -0.3792 -0.8639 -0.3315
v 1.1120 1.3163 -0.2787
vt 0.9321 0.7744
vn -0.3919 -0.8573 -0.3338
v 0.6480 1.3887 0.0632
vt 0.9321 0.7880
vn -0.3794 -0.8618 -0.3366
f 924/924/924 925/925/925 926/926/926
v 0.7465 1.4564 -0.2257
vt 0.9321 0.8033
vn -0.1561 -0.0335 -0.9872
v 0.7654 1.5112 -0.2305
vt 0.9321 0.8147
vn -0.1171 0.0370 -0.9924
v 1.1120 1.3163 -0.2787
vt 0.9321 0.7897
vn 0.0669 0.3499 -0.9344
f 927/927/927 928/928/928 929/929/929
v 0.6480 1.3887 0.0632
vt 0.9321 0.8033
vn -0.9473 0.2928 0.1296
v 0.7380 1.2569 0.2941
vt 0.9321 0.8033
vn -0.9387 0.0981 0.3305
v 0.7117 1.5614 0.1290
vt 0.9321 0.8309
vn -0.9538 0.2729 0.1257
f 930/930/930 931/931/931 932/932/932
v 0.9748 1.4181 0.0738
vt 0.9321 0.8147
vn -0.4594 0.5509 -0.6968
v 1.0539 1.4780 0.1009
vt 0.9321 0.8300
vn -0.1471 0.5512 -0.8213
v 1.0351 1.3904 0.0645
vt 0.9321 0.7897
vn 0.0124 0.3807 -0.9246
f 933/933/933 934/934/934 935/935/935
v 1.0351 1.3904 0.0645
vt 0.9321 0.7744
vn -0.2018 -0.8161 -0.5415
v 1.1282 1.3902 0.0639
vt 0.9321 0.7880
vn -0.0056 -0.7710 -0.6368
v 1.1436 1.3481 0.1148
vt 0.9321 0.7880
vn -0.0687 -0.8313 -0.5515
f 936/936/936 937/937/937 938/938/938
v 1.0351 1.3904 0.0645
vt 0.9321 0.7897
vn 0.0124 0.3807 -0.9246
v 1.0539 1.4780 0.1009
vt 0.9321 0.8300
vn -0.1471 0.5512 -0.8213
v 1.1282 1.3902 0.0639
vt 0.9321 0.8147
vn -0.0056 0.3840 -0.9233
f 939/939/939 940/940/940 941/941/941
v 0.9417 1.3869 0.1215
vt 0.9321 0.7880
vn -0.3750 -0.8556 -0.3569
v 1.0814 1.3163 0.1824
vt 0.9321 0.7744
vn -0.2691 -0.9075 -0.3226
v 0.9873 1.3715 0.2270
vt 0.9321 0.7880
vn -0.4762 -0.8758 0.0780
f 942/942/942 943/943/943 944/944/944
v 1.0539 1.4780 0.1009
vt 0.9321 0.8682
vn -0.1471 0.5512 -0.8213
v 0.9748 1.4181 0.0738
vt 0.9321 0.8529
vn -0.4594 0.5509 -0.6968
v 0.9641 1.4765 0.1571
vt 0.9321 0.8691
vn -0.5913 0.6230 -0.5121
f 945/945/945 946/946/946 947/947/947
v 1.0351 1.3904 0.0645
vt 0.9321 0.7744
vn -0.2018 -0.8161 -0.5415
v 1.0814 1.3163 0.1824
vt 0.9321 0.7744
vn -0.2691 -0.9075 -0.3226
v 0.9417 1.3869 0.1215
vt 0.9321 0.7880
vn -0.3750 -0.8556 -0.3569
f 948/948/948 949/949/949 950/950/950
v 1.1043 1.4234 0.2268
vt 0.9321 0.8844
vn 0.2913 0.9147 0.2801
v 0.9641 1.4765 0.1571
vt 0.9321 0.8691
vn 0.1889 0.9263 0.3261
v 1.0042 1.4350 0.2518
vt 0.9321 0.8691
vn 0.1889 0.9263 0.3261
f 951/951/951 952/952/952 953/953/953
v 0.9873 1.3715 0.2270
vt 0.9321 0.8033
vn -0.9084 0.0735 0.4115
v 1.0042 1.4350 0.2518
vt 0.9321 0.8309
vn -0.9055 0.0779 0.4171
v 0.9641 1.4765 0.1571
vt 0.9321 0.8309
vn -0.9097 0.0715 0.4090
f 954/954/954 955/955/955 956/956/956
v 0.9873 1.3715 0.2270
vt 0.9321 0.8033
vn 0.1806 -0.4043 0.8966
v 1.0814 1.3163 0.1824
vt 0.9321 0.7897
vn 0.5351 -0.4189 0.7337
v 1.1043 1.4234 0.2268
vt 0.9321 0.8462
vn 0.4734 -0.4198 0.7744
f 957/957/957 958/958/958 959/959/959
v 0.9748 1.4181 0.0738
vt 0.9321 0.8147
vn -0.4594 0.5509 -0.6968
v 0.9417 1.3869 0.1215
vt 0.9321 0.8033
vn -0.8601 0.3595 -0.3619
v 0.9641 1.4765 0.1571
vt 0.9321 0.8309
vn -0.5913 0.6230 -0.5121
f 960/960/960 961/961/961 962/962/962
v 1.1436 1.3481 0.1148
vt 0.9321 0.8033
vn 0.9400 -0.0623 -0.3354
v 1.1282 1.3902 0.0639
vt 0.9321 0.8147
vn 0.9400 -0.0623 -0.3354
v 1.1585 1.4173 0.1435
vt 0.9321 0.8309
vn 0.9400 -0.0623 -0.3354
f 963/963/963 964/964/964 965/965/965
v 1.0539 1.4780 0.1009
vt 0.9321 0.8682
vn 0.3767 0.9202 0.1062
v 1.1043 1.4234 0.2268
vt 0.9321 0.8844
vn 0.2913 0.9147 0.2801
v 1.1585 1.4173 0.1435
vt 0.9321 0.8691
vn 0.5276 0.8445 -0.0925
f 966/966/966 967/967/967 968/968/968
v 1.1043 1.4234 0.2268
vt 0.9321 0.8462
vn 0.4734 -0.4198 0.7744
v 1.0814 1.3163 0.1824
vt 0.9321 0.7897
vn 0.5351 -0.4189 0.7337
v 1.1436 1.3481 0.1148
vt 0.9321 0.8033
vn 0.7626 -0.3803 0.5232
f 969/969/969 970/970/970 971/971/971
v 1.1043 1.4234 0.2268
vt 0.9321 0.8844
vn 0.2913 0.9147 0.2801
v 1.0539 1.4780 0.1009
vt 0.9321 0.8682
vn 0.3767 0.9202 0.1062
v 0.9641 1.4765 0.1571
vt 0.9321 0.8691
vn 0.1889 0.9263 0.3261
f 972/972/972 973/973/973 974/974/974
v 1.1282 1.3902 0.0639
vt 0.9321 0.8529
vn 0.5784 0.6799 -0.4508
v 1.0539 1.4780 0.1009
vt 0.9321 0.8682
vn 0.3767 0.9202 0.1062
v 1.1585 1.4173 0.1435
vt 0.9321 0.8691
vn 0.5276 0.8445 -0.0925
f 975/975/975 976/976/976 977/977/977
v 1.0814 1.3163 0.1824
vt 0.9321 0.7744
vn -0.2691 -0.9075 -0.3226
v 1.0351 1.3904 0.0645
vt 0.9321 0.7744
vn -0.2018 -0.8161 -0.5415
v 1.1436 1.3481 0.1148
vt 0.9321 0.7880
vn -0.0687 -0.8313 -0.5515
f 978/978/978 979/979/979 980/980/980
v 1.0042 1.4350 0.2518
vt 0.9321 0.8309
vn 0.1780 -0.3984 0.8998
v 0.9873 1.3715 0.2270
vt 0.9321 0.8033
vn 0.1806 -0.4043 0.8966
v 1.1043 1.4234 0.2268
vt 0.9321 0.8462
vn 0.4734 -0.4198 0.7744
f 981/981/981 982/982/982 983/983/983
v 1.1585 1.4173 0.1435
vt 0.9321 0.8309
vn 0.7626 -0.3803 0.5232
v 1.1043 1.4234 0.2268
vt 0.9321 0.8462
vn 0.4734 -0.4198 0.7744
v 1.1436 1.3481 0.1148
vt 0.9321 0.8033
vn 0.7626 -0.3803 0.5232
f 984/984/984 985/985/985 986/986/986
v 0.9748 1.4181 0.0738
vt 0.9321 0.7880
vn -0.3897 -0.6240 -0.6773
v 1.0351 1.3904 0.0645
vt 0.9321 0.7744
vn -0.2018 -0.8161 -0.5415
v 0.9417 1.3869 0.1215
vt 0.9321 0.7880
vn -0.3750 -0.8556 -0.3569
f 987/987/987 988/988/988 989/989/989
v 0.9417 1.3869 0.1215
vt 0.9321 0.8033
vn -0.9120 0.0680 0.4045
v 0.9873 1.3715 0.2270
vt 0.9321 0.8033
vn -0.9084 0.0735 0.4115
v 0.9641 1.4765 0.1571
vt 0.9321 0.8309
vn -0.9097 0.0715 0.4090
f 990/990/990 991/991/991 992/992/992
v 1.6698 0.0000 -0.1215
vt 0.9321 0.8101
vn 0.4947 0.6745 0.5480
v 1.7879 0.0000 -0.2371
vt 0.9321 0.8101
vn 0.7002 0.5743 0.4241
v 1.7483 0.1668 -0.3975
vt 0.9321 0.8252
vn 0.6601 0.6132 0.4337
f 993/993/993 994/994/994 995/995/995
v 1.4824 0.1084 0.0894
vt 0.9321 0.8261
vn 0.7258 -0.0479 0.6863
v 1.6698 0.0000 -0.1215
vt 0.9321 0.8101
vn 0.7367 -0.0392 0.6751
v 1.6030 0.3716 -0.0487
vt 0.9321 0.8568
vn 0.7269 0.0269 0.6862
f 996/996/996 997/997/997 998/998/998
v 1.3118 0.1826 -0.4781
vt 0.9321 0.8261
vn -0.4761 0.0853 -0.8752
v 1.3019 0.5630 -0.4893
vt 0.9321 0.8261
vn 0.0217 -0.0290 -0.9993
v 1.4531 0.4781 -0.4836
vt 0.9321 0.8568
vn -0.0564 0.0083 -0.9984
f 999/999/999 1000/1000/1000 1001/1001/1001
v 1.0765 0.0000 -0.2807
vt 0.9321 0.7987
vn -0.7010 0.1497 -0.6973
v 1.0934 0.1826 -0.2616
vt 0.9321 0.8261
vn -0.7031 0.0494 -0.7094
v 1.3118 0.1826 -0.4781
vt 0.9321 0.8261
vn -0.4761 0.0853 -0.8752
f 1002/1002/1002 1003/1003/1003 1004/1004/1004
v 1.0765 0.0000 -0.2807
vt 0.9321 0.7987
vn -0.8731 0.0309 0.4866
v 1.2232 0.0000 -0.0167
vt 0.9321 0.7852
vn -0.6783 -0.0156 0.7346
v 1.2403 0.1672 0.0027
vt 0.9321 0.8413
vn -0.6328 -0.0062 0.7743
f 1005/1005/1005 1006/1006/1006 1007/1007/1007
v 1.5200 0.0000 -0.5564
vt 0.9321 0.8101
vn -0.2467 0.1304 -0.9603
v 1.2907 0.0000 -0.5020
vt 0.9321 0.7987
vn -0.4926 0.1686 -0.8538
v 1.3118 0.1826 -0.4781
vt 0.9321 0.8261
vn -0.4761 0.0853 -0.8752
f 1008/1008/1008 1009/1009/1009 1010/1010/1010
v 1.4714 0.0000 0.0770
vt 0.9321 0.7987
vn 0.6991 -0.1507 0.6990
v 1.6698 0.0000 -0.1215
vt 0.9321 0.8101
vn 0.7367 -0.0392 0.6751
v 1.4824 0.1084 0.0894
vt 0.9321 0.8261
vn 0.7258 -0.0479 0.6863
f 1011/1011/1011 1012/1012/1012 1013/1013/1013
v 1.2403 0.1672 0.0027
vt 0.9321 0.8413
vn -0.6328 -0.0062 0.7743
v 1.4824 0.1084 0.0894
vt 0.9321 0.8261
vn -0.3439 -0.0314 0.9385
v 1.4724 0.4888 0.0781
vt 0.9321 0.8261
vn -0.3331 0.0192 0.9427
f 1014/1014/1014 1015/1015/1015 1016/1016/1016
v 1.2403 0.1672 0.0027
vt 0.9321 0.8413
vn -0.6328 -0.0062 0.7743
v 1.2232 0.0000 -0.0167
vt 0.9321 0.7852
vn -0.6783 -0.0156 0.7346
v 1.4714 0.0000 0.0770
vt 0.9321 0.7987
vn -0.3519 -0.0715 0.9333
f 1017/1017/1017 1018/1018/1018 1019/1019/1019
v 1.3118 0.1826 -0.4781
vt 0.9321 0.8261
vn -0.4761 0.0853 -0.8752
v 1.0934 0.1826 -0.2616
vt 0.9321 0.8261
vn -0.7031 0.0494 -0.7094
v 1.0834 0.5630 -0.2728
vt 0.9321 0.8261
vn -0.7034 -0.0394 -0.7097
f 1020/1020/1020 1021/1021/1021 1022/1022/1022
v 1.5900 0.2375 -0.3615
vt 0.9321 0.8252
vn 0.9218 0.1417 -0.3609
v 1.5200 0.0000 -0.5564
vt 0.9321 0.8101
vn 0.8219 0.1963 -0.5347
v 1.4531 0.4781 -0.4836
vt 0.9321 0.8568
vn 0.7727 0.1237 -0.6226
f 1023/1023/1023 1024/1024/1024 1025/1025/1025
v 1.0934 0.1826 -0.2616
vt 0.9321 0.8261
vn -0.8737 0.0106 0.4864
v 1.0765 0.0000 -0.2807
vt 0.9321 0.7987
vn -0.8731 0.0309 0.4866
v 1.2403 0.1672 0.0027
vt 0.9321 0.8413
vn -0.6328 -0.0062 0.7743
f 1026/1026/1026 1027/1027/1027 1028/1028/1028
v 1.4824 0.1084 0.0894
vt 0.9321 0.8261
vn -0.3439 -0.0314 0.9385
v 1.2403 0.1672 0.0027
vt 0.9321 0.8413
vn -0.6328 -0.0062 0.7743
v 1.4714 0.0000 0.0770
vt 0.9321 0.7987
vn -0.3519 -0.0715 0.9333
f 1029/1029/1029 1030/1030/1030 1031/1031/1031
v 1.2907 0.0000 -0.5020
vt 0.9321 0.7987
vn -0.4926 0.1686 -0.8538
v 1.0765 0.0000 -0.2807
vt 0.9321 0.7987
vn -0.7010 0.1497 -0.6973
v 1.3118 0.1826 -0.4781
vt 0.9321 0.8261
vn -0.4761 0.0853 -0.8752
f 1032/1032/1032 1033/1033/1033 1034/1034/1034
v 1.5234 0.5471 -0.2885
vt 0.9321 0.8672
vn 0.4746 0.8795 -0.0339
v 1.4531 0.4781 -0.4836
vt 0.9321 0.8568
vn 0.4563 0.7744 -0.4384
v 1.3019 0.5630 -0.4893
vt 0.9321 0.8640
vn 0.1845 0.9747 -0.1264
f 1035/1035/1035 1036/1036/1036 1037/1037/1037
v 1.2303 0.5475 -0.0086
vt 0.9321 0.8792
vn 0.0994 0.9897 0.1027
v 1.3019 0.5630 -0.4893
vt 0.9321 0.8640
vn 0.1845 0.9747 -0.1264
v 1.0834 0.5630 -0.2728
vt 0.9321 0.8640
vn 0.0374 0.9986 0.0377
f 1038/1038/1038 1039/1039/1039 1040/1040/1040
v 1.5234 0.5471 -0.2885
vt 0.9321 0.8672
vn 0.4746 0.8795 -0.0339
v 1.2303 0.5475 -0.0086
vt 0.9321 0.8792
vn 0.0994 0.9897 0.1027
v 1.4724 0.4888 0.0781
vt 0.9321 0.8640
vn 0.4431 0.8743 0.1980
f 1041/1041/1041 1042/1042/1042 1043/1043/1043
v 1.2303 0.5475 -0.0086
vt 0.9321 0.8792
vn 0.0994 0.9897 0.1027
v 1.5234 0.5471 -0.2885
vt 0.9321 0.8672
vn 0.4746 0.8795 -0.0339
v 1.3019 0.5630 -0.4893
vt 0.9321 0.8640
vn 0.1845 0.9747 -0.1264
f 1044/1044/1044 1045/1045/1045 1046/1046/1046
v 1.6030 0.3716 -0.0487
vt 0.9321 0.8568
vn 0.7536 0.6272 0.1966
v 1.5893 0.4786 -0.3376
vt 0.9321 0.8568
vn 0.6571 0.7407 -0.1399
v 1.4724 0.4888 0.0781
vt 0.9321 0.8640
vn 0.4431 0.8743 0.1980
f 1047/1047/1047 1048/1048/1048 1049/1049/1049
v 1.0934 0.1826 -0.2616
vt 0.9321 0.8261
vn -0.8737 0.0106 0.4864
v 1.2403 0.1672 0.0027
vt 0.9321 0.8413
vn -0.6328 -0.0062 0.7743
v 1.2303 0.5475 -0.0086
vt 0.9321 0.8413
vn -0.6788 0.0040 0.7343
f 1050/1050/1050 1051/1051/1051 1052/1052/1052
v 1.5200 0.0000 -0.5564
vt 0.9321 0.8101
vn -0.2467 0.1304 -0.9603
v 1.3118 0.1826 -0.4781
vt 0.9321 0.8261
vn -0.4761 0.0853 -0.8752
v 1.4531 0.4781 -0.4836
vt 0.9321 0.8568
vn -0.0564 0.0083 -0.9984
f 1053/1053/1053 1054/1054/1054 1055/1055/1055
v 1.5893 0.4786 -0.3376
vt 0.9321 0.8568
vn 0.9117 0.0431 -0.4085
v 1.5900 0.2375 -0.3615
vt 0.9321 0.8252
vn 0.9218 0.1417 -0.3609
v 1.4531 0.4781 -0.4836
vt 0.9321 0.8568
vn 0.7727 0.1237 -0.6226
f 1056/1056/1056 1057/1057/1057 1058/1058/1058
v 1.6698 0.0000 -0.1215
vt 0.9321 0.8101
vn 0.9718 0.1994 -0.1259
v 1.5900 0.2375 -0.3615
vt 0.9321 0.8252
vn 0.9218 0.1417 -0.3609
v 1.6030 0.3716 -0.0487
vt 0.9321 0.8568
vn 0.9890 0.1167 -0.0911
f 1059/1059/1059 1060/1060/1060 1061/1061/1061
v 1.4724 0.4888 0.0781
vt 0.9321 0.8261
vn 0.7142 0.0393 0.6989
v 1.4824 0.1084 0.0894
vt 0.9321 0.8261
vn 0.7258 -0.0479 0.6863
v 1.6030 0.3716 -0.0487
vt 0.9321 0.8568
vn 0.7269 0.0269 0.6862
f 1062/1062/1062 1063/1063/1063 1064/1064/1064
v 1.2303 0.5475 -0.0086
vt 0.9321 0.8413
vn -0.6788 0.0040 0.7343
v 1.2403 0.1672 0.0027
vt 0.9321 0.8413
vn -0.6328 -0.0062 0.7743
v 1.4724 0.4888 0.0781
vt 0.9321 0.8261
vn -0.3331 0.0192 0.9427
f 1065/1065/1065 1066/1066/1066 1067/1067/1067
v 1.0834 0.5630 -0.2728
vt 0.9321 0.8261
vn -0.8742 -0.0085 0.4856
v 1.0934 0.1826 -0.2616
vt 0.9321 0.8261
vn -0.8737 0.0106 0.4864
v 1.2303 0.5475 -0.0086
vt 0.9321 0.8413
vn -0.6788 0.0040 0.7343
f 1068/1068/1068 1069/1069/1069 1070/1070/1070
v 1.3019 0.5630 -0.4893
vt 0.9321 0.8261
vn -0.7034 -0.0394 -0.7097
v 1.3118 0.1826 -0.4781
vt 0.9321 0.8261
vn -0.4761 0.0853 -0.8752
v 1.0834 0.5630 -0.2728
vt 0.9321 0.8261
vn -0.7034 -0.0394 -0.7097
f 1071/1071/1071 1072/1072/1072 1073/1073/1073
v 1.6518 0.0000 -0.5582
vt 0.9321 0.8101
vn 0.6867 0.2576 -0.6797
v 1.7483 0.1668 -0.3975
vt 0.9321 0.8252
vn 0.6867 0.2576 -0.6797
v 1.7998 0.0000 -0.4086
vt 0.9321 0.7852
vn 0.6867 0.2576 -0.6797
f 1074/1074/1074 1075/1075/1075 1076/1076/1076
v 1.7998 0.0000 -0.4086
vt 0.9321 0.7852
vn 0.9545 0.2908 0.0666
v 1.7483 0.1668 -0.3975
vt 0.9321 0.8252
vn 0.6601 0.6132 0.4337
v 1.7879 0.0000 -0.2371
vt 0.9321 0.8101
vn 0.7002 0.5743 0.4241
f 1077/1077/1077 1078/1078/1078 1079/1079/1079
v 1.5200 0.0000 -0.5564
vt 0.9321 0.8101
vn 0.0340 0.6645 -0.7465
v 1.5900 0.2375 -0.3615
vt 0.9321 0.8252
vn 0.0963 0.6142 -0.7832
v 1.7483 0.1668 -0.3975
vt 0.9321 0.8252
vn 0.0712 0.6351 -0.7691
f 1080/1080/1080 1081/1081/1081 1082/1082/1082
v 1.5900 0.2375 -0.3615
vt 0.9321 0.8252
vn 0.4415 0.7070 0.5525
v 1.6698 0.0000 -0.1215
vt 0.9321 0.8101
vn 0.4947 0.6745 0.5480
v 1.7483 0.1668 -0.3975
vt 0.9321 0.8252
vn 0.6601 0.6132 0.4337
f 1083/1083/1083 1084/1084/1084 1085/1085/1085
v 1.6518 0.0000 -0.5582
vt 0.9321 0.8101
vn -0.0098 0.6967 -0.7173
v 1.5200 0.0000 -0.5564
vt 0.9321 0.8101
vn 0.0340 0.6645 -0.7465
v 1.7483 0.1668 -0.3975
vt 0.9321 0.8252
vn 0.0712 0.6351 -0.7691
f 1086/1086/1086 1087/1087/1087 1088/1088/1088
v 1.5234 0.5471 -0.2885
vt 0.9321 0.8672
vn 0.4746 0.8795 -0.0339
v 1.5893 0.4786 -0.3376
vt 0.9321 0.8568
vn 0.6571 0.7407 -0.1399
v 1.4531 0.4781 -0.4836
vt 0.9321 0.8568
vn 0.4563 0.7744 -0.4384
f 1089/1089/1089 1090/1090/1090 1091/1091/1091
v 1.5900 0.2375 -0.3615
vt 0.9321 0.8252
vn 0.9218 0.1417 -0.3609
v 1.5893 0.4786 -0.3376
vt 0.9321 0.8568
vn 0.9117 0.0431 -0.4085
v 1.6030 0.3716 -0.0487
vt 0.9321 0.8568
vn 0.9890 0.1167 -0.0911
f 1092/1092/1092 1093/1093/1093 1094/1094/1094
v 1.5893 0.4786 -0.3376
vt 0.9321 0.8568
vn 0.6571 0.7407 -0.1399
v 1.5234 0.5471 -0.2885
vt 0.9321 0.8672
vn 0.4746 0.8795 -0.0339
v 1.4724 0.4888 0.0781
vt 0.9321 0.8640
vn 0.4431 0.8743 0.1980
f 1095/1095/1095 1096/1096/1096 1097/1097/1097
v 0.6813 0.8417 -0.3677
vt 0.9321 0.8147
vn -0.6993 -0.1779 -0.6924
v 0.7494 0.9011 -0.4188
vt 0.9321 0.8300
vn -0.4115 -0.2871 -0.8650
v 0.7435 0.8170 -0.3701
vt 0.9321 0.7897
vn -0.2399 -0.4743 -0.8470
f 1098/1098/1098 1099/1099/1099 1100/1100/1100
v 0.7435 0.8170 -0.3701
vt 0.9321 0.7744
vn -0.1325 -0.9657 0.2232
v 0.8330 0.8170 -0.3974
vt 0.9321 0.7880
vn 0.0251 -0.9962 0.0835
v 0.8654 0.8229 -0.3363
vt 0.9321 0.7880
vn -0.0060 -0.9811 0.1933
f 1101/1101/1101 1102/1102/1102 1103/1103/1103
v 0.7435 0.8170 -0.3701
vt 0.9321 0.7897
vn -0.2399 -0.4743 -0.8470
v 0.7494 0.9011 -0.4188
vt 0.9321 0.8300
vn -0.4115 -0.2871 -0.8650
v 0.8330 0.8170 -0.3974
vt 0.9321 0.8147
vn -0.2576 -0.4711 -0.8436
f 1104/1104/1104 1105/1105/1105 1106/1106/1106
v 0.6642 0.8527 -0.3030
vt 0.9321 0.7880
vn -0.2587 -0.8663 0.4274
v 0.8238 0.8468 -0.2497
vt 0.9321 0.7744
vn -0.1419 -0.8794 0.4544
v 0.7294 0.9139 -0.2355
vt 0.9321 0.7880
vn -0.2808 -0.5604 0.7792
f 1107/1107/1107 1108/1108/1108 1109/1109/1109
v 0.7494 0.9011 -0.4188
vt 0.9321 0.8682
vn -0.4115 -0.2871 -0.8650
v 0.6813 0.8417 -0.3677
vt 0.9321 0.8529
vn -0.6993 -0.1779 -0.6924
v 0.6731 0.9377 -0.3548
vt 0.9321 0.8691
vn -0.8021 0.0116 -0.5971
f 1110/1110/1110 1111/1111/1111 1112/1112/1112
v 0.7435 0.8170 -0.3701
vt 0.9321 0.7744
vn -0.1325 -0.9657 0.2232
v 0.8238 0.8468 -0.2497
vt 0.9321 0.7744
vn -0.1419 -0.8794 0.4544
v 0.6642 0.8527 -0.3030
vt 0.9321 0.7880
vn -0.2587 -0.8663 0.4274
f 1113/1113/1113 1114/1114/1114 1115/1115/1115
v 0.8310 0.9496 -0.3093
vt 0.9321 0.8844
vn 0.1552 0.8554 -0.4942
v 0.6731 0.9377 -0.3548
vt 0.9321 0.8691
vn 0.0598 0.8956 -0.4409
v 0.7365 0.9738 -0.2728
vt 0.9321 0.8691
vn 0.0598 0.8956 -0.4409
f 1116/1116/1116 1117/1117/1117 1118/1118/1118
v 0.7294 0.9139 -0.2355
vt 0.9321 0.8033
vn -0.8085 0.3722 0.4558
v 0.7365 0.9738 -0.2728
vt 0.9321 0.8309
vn -0.8050 0.3798 0.4557
v 0.6731 0.9377 -0.3548
vt 0.9321 0.8309
vn -0.8098 0.3694 0.4559
f 1119/1119/1119 1120/1120/1120 1121/1121/1121
v 0.7294 0.9139 -0.2355
vt 0.9321 0.8033
vn 0.4228 0.4370 0.7939
v 0.8238 0.8468 -0.2497
vt 0.9321 0.7897
vn 0.7228 0.3080 0.6186
v 0.8310 0.9496 -0.3093
vt 0.9321 0.8462
vn 0.6951 0.3256 0.6410
f 1122/1122/1122 1123/1123/1123 1124/1124/1124
v 0.6813 0.8417 -0.3677
vt 0.9321 0.8147
vn -0.6993 -0.1779 -0.6924
v 0.6642 0.8527 -0.3030
vt 0.9321 0.8033
vn -0.9677 -0.0494 -0.2474
v 0.6731 0.9377 -0.3548
vt 0.9321 0.8309
vn -0.8021 0.0116 -0.5971
f 1125/1125/1125 1126/1126/1126 1127/1127/1127
v 0.8654 0.8229 -0.3363
vt 0.9321 0.8033
vn 0.8534 -0.3050 -0.4227
v 0.8330 0.8170 -0.3974
vt 0.9321 0.8147
vn 0.8534 -0.3050 -0.4227
v 0.8700 0.8894 -0.3748
vt 0.9321 0.8309
vn 0.8534 -0.3050 -0.4227
f 1128/1128/1128 1129/1129/1129 1130/1130/1130
v 0.7494 0.9011 -0.4188
vt 0.9321 0.8682
vn 0.1347 0.8651 -0.4832
v 0.8310 0.9496 -0.3093
vt 0.9321 0.8844
vn 0.1552 0.8554 -0.4942
v 0.8700 0.8894 -0.3748
vt 0.9321 0.8691
vn 0.2783 0.7843 -0.5544
f 1131/1131/1131 1132/1132/1132 1133/1133/1133
v 0.8310 0.9496 -0.3093
vt 0.9321 0.8462
vn 0.6951 0.3256 0.6410
v 0.8238 0.8468 -0.2497
vt 0.9321 0.7897
vn 0.7228 0.3080 0.6186
v 0.8654 0.8229 -0.3363
vt 0.9321 0.8033
vn 0.9062 0.1627 0.3902
f 1134/1134/1134 1135/1135/1135 1136/1136/1136
v 0.8310 0.9496 -0.3093
vt 0.9321 0.8844
vn 0.1552 0.8554 -0.4942
v 0.7494 0.9011 -0.4188
vt 0.9321 0.8682
vn 0.1347 0.8651 -0.4832
v 0.6731 0.9377 -0.3548
vt 0.9321 0.8691
vn 0.0598 0.8956 -0.4409
f 1137/1137/1137 1138/1138/1138 1139/1139/1139
v 0.8330 0.8170 -0.3974
vt 0.9321 0.8529
vn 0.3500 0.1104 -0.9302
v 0.7494 0.9011 -0.4188
vt 0.9321 0.8682
vn 0.3500 0.1104 -0.9302
v 0.8700 0.8894 -0.3748
vt 0.9321 0.8691
vn 0.3500 0.1104 -0.9302
f 1140/1140/1140 1141/1141/1141 1142/1142/1142
v 0.8238 0.8468 -0.2497
vt 0.9321 0.7744
vn -0.1419 -0.8794 0.4544
v 0.7435 0.8170 -0.3701
vt 0.9321 0.7744
vn -0.1325 -0.9657 0.2232
v 0.8654 0.8229 -0.3363
vt 0.9321 0.7880
vn -0.0060 -0.9811 0.1933
f 1143/1143/1143 1144/1144/1144 1145/1145/1145
v 0.7365 0.9738 -0.2728
vt 0.9321 0.8309
vn 0.4195 0.4431 0.7922
v 0.7294 0.9139 -0.2355
vt 0.9321 0.8033
vn 0.4228 0.4370 0.7939
v 0.8310 0.9496 -0.3093
vt 0.9321 0.8462
vn 0.6951 0.3256 0.6410
f 1146/1146/1146 1147/1147/1147 1148/1148/1148
v 0.8700 0.8894 -0.3748
vt 0.9321 0.8309
vn 0.9062 0.1627 0.3902
v 0.8310 0.9496 -0.3093
vt 0.9321 0.8462
vn 0.6951 0.3256 0.6410
v 0.8654 0.8229 -0.3363
vt 0.9321 0.8033
vn 0.9062 0.1627 0.3902
f 1149/1149/1149 1150/1150/1150 1151/1151/1151
v 0.6813 0.8417 -0.3677
vt 0.9321 0.7880
vn -0.3661 -0.9286 0.0613
v 0.7435 0.8170 -0.3701
vt 0.9321 0.7744
vn -0.1325 -0.9657 0.2232
v 0.6642 0.8527 -0.3030
vt 0.9321 0.7880
vn -0.2587 -0.8663 0.4274
f 1152/1152/1152 1153/1153/1153 1154/1154/1154
v 0.6642 0.8527 -0.3030
vt 0.9321 0.8033
vn -0.8125 0.3633 0.4559
v 0.7294 0.9139 -0.2355
vt 0.9321 0.8033
vn -0.8085 0.3722 0.4558
v 0.6731 0.9377 -0.3548
vt 0.9321 0.8309
vn -0.8098 0.3694 0.4559
f 1155/1155/1155 1156/1156/1156 1157/1157/1157
v 0.9972 1.0781 -0.2965
vt 0.9321 0.8210
vn 0.0769 0.3241 -0.9429
v 0.9993 0.8530 -0.3910
vt 0.9321 0.8085
vn 0.1787 0.3452 -0.9214
v 0.7511 1.1271 -0.3340
vt 0.9321 0.8210
vn -0.2650 -0.0352 -0.9636
f 1158/1158/1158 1159/1159/1159 1160/1160/1160
