# Blender 4.5.13 LTS
# www.blender.org
o cloth_red
v -1.505850 0.003000 1.631691
v -1.505850 0.009000 1.631691
v -2.022390 0.003000 -0.916482
v -2.022390 0.009000 -0.916482
v 2.022390 0.003000 0.916482
v 2.022390 0.009000 0.916482
v 1.505850 0.003000 -1.631691
v 1.505850 0.009000 -1.631691
v -1.509823 0.008000 1.612090
v -1.509823 0.012000 1.612090
v -1.525717 0.008000 1.533685
v -1.525717 0.012000 1.533685
v 2.018417 0.008000 0.896880
v 2.018417 0.012000 0.896880
v 2.002523 0.008000 0.818475
v 2.002523 0.012000 0.818475
v -2.002523 0.008000 -0.818475
v -2.002523 0.012000 -0.818475
v -2.018417 0.008000 -0.896880
v -2.018417 0.012000 -0.896880
v 1.525717 0.008000 -1.533685
v 1.525717 0.012000 -1.533685
v 1.509823 0.008000 -1.612090
v 1.509823 0.012000 -1.612090
v -1.769821 0.011000 1.057229
v -1.769821 0.017000 1.057229
v -0.672548 0.011000 -1.948763
v -0.672548 0.017000 -1.948763
v 0.672548 0.011000 1.948763
v 0.672548 0.017000 1.948763
v 1.769821 0.011000 -1.057229
v 1.769821 0.017000 -1.057229
v -1.762963 0.016000 1.038442
v -1.762963 0.020000 1.038442
v -1.735531 0.016000 0.963292
v -1.735531 0.020000 0.963292
v 0.679406 0.016000 1.929976
v 0.679406 0.020000 1.929976
v 0.706838 0.016000 1.854826
v 0.706838 0.020000 1.854826
v -0.706838 0.016000 -1.854826
v -0.706838 0.020000 -1.854826
v -0.679406 0.016000 -1.929976
v -0.679406 0.020000 -1.929976
v 1.735531 0.016000 -0.963292
v 1.735531 0.020000 -0.963292
v 1.762963 0.016000 -1.038442
v 1.762963 0.020000 -1.038442
v -0.057110 0.019000 1.358948
v -0.057110 0.025000 1.358948
v -1.310433 0.019000 0.364371
v -1.310433 0.025000 0.364371
v 1.310433 0.019000 -0.364371
v 1.310433 0.025000 -0.364371
v 0.057110 0.019000 -1.358948
v 0.057110 0.025000 -1.358948
v -0.072776 0.024000 1.346515
v -0.072776 0.028000 1.346515
v -0.135442 0.024000 1.296787
v -0.135442 0.028000 1.296787
v 1.294766 0.024000 -0.376804
v 1.294766 0.028000 -0.376804
v 1.232100 0.024000 -0.426533
v 1.232100 0.028000 -0.426533
v -1.232100 0.024000 0.426533
v -1.232100 0.028000 0.426533
v -1.294766 0.024000 0.376804
v -1.294766 0.028000 0.376804
v 0.135442 0.024000 -1.296787
v 0.135442 0.028000 -1.296787
v 0.072776 0.024000 -1.346515
v 0.072776 0.028000 -1.346515
vn -0.9801 -0.0000 0.1987
vn -0.1987 -0.0000 -0.9801
vn 0.9801 -0.0000 -0.1987
vn 0.1987 -0.0000 0.9801
vn -0.0000 -1.0000 -0.0000
vn -0.0000 1.0000 -0.0000
vn -0.9394 -0.0000 -0.3429
vn 0.3429 -0.0000 -0.9394
vn 0.9394 -0.0000 0.3429
vn -0.3429 -0.0000 0.9394
vn -0.6216 -0.0000 0.7833
vn -0.7833 -0.0000 -0.6216
vn 0.6216 -0.0000 -0.7833
vn 0.7833 -0.0000 0.6216
vt 0.927079 0.705374
vt 0.926314 0.705374
vt 0.926314 0.410753
vt 0.927079 0.410753
vt 0.358332 0.809708
vt 0.357567 0.809708
vt 0.357567 0.461751
vt 0.358332 0.461751
vt 0.929688 0.705374
vt 0.928923 0.705374
vt 0.928923 0.410753
vt 0.929688 0.410753
vt 0.355723 0.809708
vt 0.354958 0.809708
vt 0.354958 0.461751
vt 0.355723 0.461751
vt 0.332411 0.000922
vt 0.332411 0.459907
vt 0.000922 0.459907
vt 0.000922 0.000922
vt 0.334256 0.459907
vt 0.334256 0.000922
vt 0.665744 0.000922
vt 0.665744 0.459907
vt 0.696865 0.702153
vt 0.696355 0.702153
vt 0.696355 0.693088
vt 0.696865 0.693088
vt 0.347893 0.809708
vt 0.347383 0.809708
vt 0.347383 0.461751
vt 0.347893 0.461751
vt 0.692156 0.702153
vt 0.691646 0.702153
vt 0.691646 0.693088
vt 0.692156 0.693088
vt 0.343184 0.809708
vt 0.342674 0.809708
vt 0.342674 0.461751
vt 0.343184 0.461751
vt 0.883627 0.410753
vt 0.883627 0.869737
vt 0.873427 0.869737
vt 0.873427 0.410753
vt 0.885471 0.869737
vt 0.885471 0.410753
vt 0.895671 0.410753
vt 0.895671 0.869737
vt 0.694511 0.702153
vt 0.694001 0.702153
vt 0.694001 0.693088
vt 0.694511 0.693088
vt 0.340829 0.809708
vt 0.340319 0.809708
vt 0.340319 0.461751
vt 0.340829 0.461751
vt 0.699220 0.702153
vt 0.698710 0.702153
vt 0.698710 0.693088
vt 0.699220 0.693088
vt 0.345539 0.809708
vt 0.345029 0.809708
vt 0.345029 0.461751
vt 0.345539 0.461751
vt 0.907715 0.410753
vt 0.907715 0.869737
vt 0.897516 0.869737
vt 0.897516 0.410753
vt 0.909560 0.869737
vt 0.909560 0.410753
vt 0.919760 0.410753
vt 0.919760 0.869737
vt 0.363552 0.868624
vt 0.362787 0.868624
vt 0.362787 0.461751
vt 0.363552 0.461751
vt 0.353113 0.788985
vt 0.352348 0.788985
vt 0.352348 0.461751
vt 0.353113 0.461751
vt 0.360942 0.868624
vt 0.360177 0.868624
vt 0.360177 0.461751
vt 0.360942 0.461751
vt 0.350503 0.788985
vt 0.349738 0.788985
vt 0.349738 0.461751
vt 0.350503 0.461751
vt 0.999078 0.408908
vt 0.667589 0.408908
vt 0.667589 0.000922
vt 0.999077 0.000922
vt 0.332411 0.869737
vt 0.000922 0.869737
vt 0.000922 0.461751
vt 0.332411 0.461751
vt 0.678028 0.703260
vt 0.677518 0.703260
vt 0.677518 0.693088
vt 0.678028 0.693088
vt 0.922114 0.737987
vt 0.921604 0.737987
vt 0.921604 0.410753
vt 0.922114 0.410753
vt 0.673318 0.703260
vt 0.672808 0.703260
vt 0.672808 0.693088
vt 0.673318 0.693088
vt 0.338474 0.788985
vt 0.337965 0.788985
vt 0.337965 0.461751
vt 0.338475 0.461751
vt 0.449707 0.793240
vt 0.449707 0.461751
vt 0.459907 0.461751
vt 0.459907 0.793240
vt 0.447862 0.461751
vt 0.447862 0.793240
vt 0.437663 0.793240
vt 0.437663 0.461751
vt 0.675673 0.703260
vt 0.675163 0.703260
vt 0.675163 0.693088
vt 0.675673 0.693088
vt 0.336120 0.788985
vt 0.335610 0.788985
vt 0.335610 0.461751
vt 0.336120 0.461751
vt 0.680382 0.703260
vt 0.679872 0.703260
vt 0.679872 0.693088
vt 0.680382 0.693088
vt 0.924469 0.737987
vt 0.923959 0.737987
vt 0.923959 0.410753
vt 0.924469 0.410753
vt 0.425618 0.793240
vt 0.425618 0.461751
vt 0.435818 0.461751
vt 0.435818 0.793240
vt 0.423773 0.461751
vt 0.423774 0.793240
vt 0.413574 0.793240
vt 0.413574 0.461751
vt 0.668354 0.894463
vt 0.667589 0.894463
vt 0.667589 0.693088
vt 0.668354 0.693088
vt 0.932298 0.669679
vt 0.931533 0.669679
vt 0.931533 0.410753
vt 0.932298 0.410753
vt 0.670964 0.894463
vt 0.670199 0.894463
vt 0.670199 0.693088
vt 0.670964 0.693088
vt 0.932298 0.930450
vt 0.931533 0.930450
vt 0.931533 0.671524
vt 0.932298 0.671524
vt 0.665744 0.461751
vt 0.665744 0.742242
vt 0.461751 0.742242
vt 0.461751 0.461751
vt 0.667589 0.691244
vt 0.667589 0.410753
vt 0.871582 0.410753
vt 0.871582 0.691244
vt 0.687447 0.703157
vt 0.686936 0.703157
vt 0.686937 0.693088
vt 0.687447 0.693088
vt 0.934653 0.669679
vt 0.934143 0.669679
vt 0.934143 0.410753
vt 0.934653 0.410753
vt 0.682737 0.703157
vt 0.682227 0.703157
vt 0.682227 0.693088
vt 0.682737 0.693088
vt 0.934653 0.930450
vt 0.934143 0.930450
vt 0.934143 0.671524
vt 0.934653 0.671524
vt 0.411729 0.461751
vt 0.411729 0.742242
vt 0.401529 0.742242
vt 0.401529 0.461751
vt 0.389485 0.742242
vt 0.389485 0.461751
vt 0.399685 0.461751
vt 0.399685 0.742242
vt 0.685092 0.703157
vt 0.684582 0.703157
vt 0.684582 0.693088
vt 0.685092 0.693088
vt 0.937008 0.669679
vt 0.936498 0.669679
vt 0.936498 0.410753
vt 0.937008 0.410753
vt 0.689801 0.703157
vt 0.689291 0.703157
vt 0.689291 0.693088
vt 0.689801 0.693088
vt 0.937008 0.930450
vt 0.936498 0.930450
vt 0.936498 0.671524
vt 0.937008 0.671524
vt 0.387640 0.461751
vt 0.387640 0.742242
vt 0.377441 0.742242
vt 0.377441 0.461751
vt 0.365396 0.742242
vt 0.365396 0.461751
vt 0.375596 0.461751
vt 0.375596 0.742242
s 0
f 1/1/1 2/2/1 4/3/1 3/4/1
f 3/5/2 4/6/2 8/7/2 7/8/2
f 7/9/3 8/10/3 6/11/3 5/12/3
f 5/13/4 6/14/4 2/15/4 1/16/4
f 3/17/5 7/18/5 5/19/5 1/20/5
f 8/21/6 4/22/6 2/23/6 6/24/6
f 9/25/1 10/26/1 12/27/1 11/28/1
f 11/29/2 12/30/2 16/31/2 15/32/2
f 15/33/3 16/34/3 14/35/3 13/36/3
f 13/37/4 14/38/4 10/39/4 9/40/4
f 11/41/5 15/42/5 13/43/5 9/44/5
f 16/45/6 12/46/6 10/47/6 14/48/6
f 17/49/1 18/50/1 20/51/1 19/52/1
f 19/53/2 20/54/2 24/55/2 23/56/2
f 23/57/3 24/58/3 22/59/3 21/60/3
f 21/61/4 22/62/4 18/63/4 17/64/4
f 19/65/5 23/66/5 21/67/5 17/68/5
f 24/69/6 20/70/6 18/71/6 22/72/6
f 25/73/7 26/74/7 28/75/7 27/76/7
f 27/77/8 28/78/8 32/79/8 31/80/8
f 31/81/9 32/82/9 30/83/9 29/84/9
f 29/85/10 30/86/10 26/87/10 25/88/10
f 27/89/5 31/90/5 29/91/5 25/92/5
f 32/93/6 28/94/6 26/95/6 30/96/6
f 33/97/7 34/98/7 36/99/7 35/100/7
f 35/101/8 36/102/8 40/103/8 39/104/8
f 39/105/9 40/106/9 38/107/9 37/108/9
f 37/109/10 38/110/10 34/111/10 33/112/10
f 35/113/5 39/114/5 37/115/5 33/116/5
f 40/117/6 36/118/6 34/119/6 38/120/6
f 41/121/7 42/122/7 44/123/7 43/124/7
f 43/125/8 44/126/8 48/127/8 47/128/8
f 47/129/9 48/130/9 46/131/9 45/132/9
f 45/133/10 46/134/10 42/135/10 41/136/10
f 43/137/5 47/138/5 45/139/5 41/140/5
f 48/141/6 44/142/6 42/143/6 46/144/6
f 49/145/11 50/146/11 52/147/11 51/148/11
f 51/149/12 52/150/12 56/151/12 55/152/12
f 55/153/13 56/154/13 54/155/13 53/156/13
f 53/157/14 54/158/14 50/159/14 49/160/14
f 51/161/5 55/162/5 53/163/5 49/164/5
f 56/165/6 52/166/6 50/167/6 54/168/6
f 57/169/11 58/170/11 60/171/11 59/172/11
f 59/173/12 60/174/12 64/175/12 63/176/12
f 63/177/13 64/178/13 62/179/13 61/180/13
f 61/181/14 62/182/14 58/183/14 57/184/14
f 59/185/5 63/186/5 61/187/5 57/188/5
f 64/189/6 60/190/6 58/191/6 62/192/6
f 65/193/11 66/194/11 68/195/11 67/196/11
f 67/197/12 68/198/12 72/199/12 71/200/12
f 71/201/13 72/202/13 70/203/13 69/204/13
f 69/205/14 70/206/14 66/207/14 65/208/14
f 67/209/5 71/210/5 69/211/5 65/212/5
f 72/213/6 68/214/6 66/215/6 70/216/6
