# Blender 4.5.13 LTS
# www.blender.org
o stone
v -1.280000 0.000000 1.180000
v -1.280000 0.180000 1.180000
v -1.280000 0.000000 -1.180000
v -1.280000 0.180000 -1.180000
v 1.280000 0.000000 1.180000
v 1.280000 0.180000 1.180000
v 1.280000 0.000000 -1.180000
v 1.280000 0.180000 -1.180000
v -1.201000 0.180000 1.170000
v -1.201000 1.023467 1.170000
v -1.201000 0.180000 1.030000
v -1.201000 1.023467 1.030000
v -1.039000 0.180000 1.170000
v -1.039000 1.023467 1.170000
v -1.039000 0.180000 1.030000
v -1.039000 1.023467 1.030000
v -1.041000 0.180000 1.170000
v -1.041000 1.043137 1.170000
v -1.041000 0.180000 1.030000
v -1.041000 1.043137 1.030000
v -0.879000 0.180000 1.170000
v -0.879000 1.043137 1.170000
v -0.879000 0.180000 1.030000
v -0.879000 1.043137 1.030000
v -0.881000 0.180000 1.170000
v -0.881000 1.020026 1.170000
v -0.881000 0.180000 1.030000
v -0.881000 1.020026 1.030000
v -0.719000 0.180000 1.170000
v -0.719000 1.020026 1.170000
v -0.719000 0.180000 1.030000
v -0.719000 1.020026 1.030000
v -0.721000 0.180000 1.170000
v -0.721000 0.776256 1.170000
v -0.721000 0.180000 1.030000
v -0.721000 0.776256 1.030000
v -0.559000 0.180000 1.170000
v -0.559000 0.776256 1.170000
v -0.559000 0.180000 1.030000
v -0.559000 0.776256 1.030000
v -0.561000 0.180000 1.170000
v -0.561000 0.802702 1.170000
v -0.561000 0.180000 1.030000
v -0.561000 0.802702 1.030000
v -0.399000 0.180000 1.170000
v -0.399000 0.802702 1.170000
v -0.399000 0.180000 1.030000
v -0.399000 0.802702 1.030000
v -0.401000 0.180000 1.170000
v -0.401000 0.793624 1.170000
v -0.401000 0.180000 1.030000
v -0.401000 0.793624 1.030000
v -0.239000 0.180000 1.170000
v -0.239000 0.793624 1.170000
v -0.239000 0.180000 1.030000
v -0.239000 0.793624 1.030000
v -0.241000 0.180000 1.170000
v -0.241000 0.758323 1.170000
v -0.241000 0.180000 1.030000
v -0.241000 0.758323 1.030000
v -0.079000 0.180000 1.170000
v -0.079000 0.758323 1.170000
v -0.079000 0.180000 1.030000
v -0.079000 0.758323 1.030000
v -0.081000 0.180000 1.170000
v -0.081000 0.627347 1.170000
v -0.081000 0.180000 1.030000
v -0.081000 0.627347 1.030000
v 0.081000 0.180000 1.170000
v 0.081000 0.627347 1.170000
v 0.081000 0.180000 1.030000
v 0.081000 0.627347 1.030000
v 0.079000 0.180000 1.170000
v 0.079000 0.575164 1.170000
v 0.079000 0.180000 1.030000
v 0.079000 0.575164 1.030000
v 0.241000 0.180000 1.170000
v 0.241000 0.575164 1.170000
v 0.241000 0.180000 1.030000
v 0.241000 0.575164 1.030000
v 0.239000 0.180000 1.170000
v 0.239000 0.293702 1.170000
v 0.239000 0.180000 1.030000
v 0.239000 0.293702 1.030000
v 0.401000 0.180000 1.170000
v 0.401000 0.293702 1.170000
v 0.401000 0.180000 1.030000
v 0.401000 0.293702 1.030000
v 0.399000 0.180000 1.170000
v 0.399000 0.245000 1.170000
v 0.399000 0.180000 1.030000
v 0.399000 0.245000 1.030000
v 0.561000 0.180000 1.170000
v 0.561000 0.245000 1.170000
v 0.561000 0.180000 1.030000
v 0.561000 0.245000 1.030000
v 0.559000 0.180000 1.170000
v 0.559000 0.245000 1.170000
v 0.559000 0.180000 1.030000
v 0.559000 0.245000 1.030000
v 0.721000 0.180000 1.170000
v 0.721000 0.245000 1.170000
v 0.721000 0.180000 1.030000
v 0.721000 0.245000 1.030000
v 0.719000 0.180000 1.170000
v 0.719000 0.245000 1.170000
v 0.719000 0.180000 1.030000
v 0.719000 0.245000 1.030000
v 0.881000 0.180000 1.170000
v 0.881000 0.245000 1.170000
v 0.881000 0.180000 1.030000
v 0.881000 0.245000 1.030000
v 0.879000 0.180000 1.170000
v 0.879000 0.245000 1.170000
v 0.879000 0.180000 1.030000
v 0.879000 0.245000 1.030000
v 1.041000 0.180000 1.170000
v 1.041000 0.245000 1.170000
v 1.041000 0.180000 1.030000
v 1.041000 0.245000 1.030000
v 1.039000 0.180000 1.170000
v 1.039000 0.245000 1.170000
v 1.039000 0.180000 1.030000
v 1.039000 0.245000 1.030000
v 1.201000 0.180000 1.170000
v 1.201000 0.245000 1.170000
v 1.201000 0.180000 1.030000
v 1.201000 0.245000 1.030000
v -1.201000 0.180000 -1.030000
v -1.201000 1.216607 -1.030000
v -1.201000 0.180000 -1.170000
v -1.201000 1.216607 -1.170000
v -1.039000 0.180000 -1.030000
v -1.039000 1.216607 -1.030000
v -1.039000 0.180000 -1.170000
v -1.039000 1.216607 -1.170000
v -1.041000 0.180000 -1.030000
v -1.041000 1.033994 -1.030000
v -1.041000 0.180000 -1.170000
v -1.041000 1.033994 -1.170000
v -0.879000 0.180000 -1.030000
v -0.879000 1.033994 -1.030000
v -0.879000 0.180000 -1.170000
v -0.879000 1.033994 -1.170000
v -0.881000 0.180000 -1.030000
v -0.881000 1.089979 -1.030000
v -0.881000 0.180000 -1.170000
v -0.881000 1.089979 -1.170000
v -0.719000 0.180000 -1.030000
v -0.719000 1.089979 -1.030000
v -0.719000 0.180000 -1.170000
v -0.719000 1.089979 -1.170000
v -0.721000 0.180000 -1.030000
v -0.721000 1.084215 -1.030000
v -0.721000 0.180000 -1.170000
v -0.721000 1.084215 -1.170000
v -0.559000 0.180000 -1.030000
v -0.559000 1.084215 -1.030000
v -0.559000 0.180000 -1.170000
v -0.559000 1.084215 -1.170000
v -0.561000 0.180000 -1.030000
v -0.561000 0.915766 -1.030000
v -0.561000 0.180000 -1.170000
v -0.561000 0.915766 -1.170000
v -0.399000 0.180000 -1.030000
v -0.399000 0.915766 -1.030000
v -0.399000 0.180000 -1.170000
v -0.399000 0.915766 -1.170000
v -0.401000 0.180000 -1.030000
v -0.401000 0.536238 -1.030000
v -0.401000 0.180000 -1.170000
v -0.401000 0.536238 -1.170000
v -0.239000 0.180000 -1.030000
v -0.239000 0.536238 -1.030000
v -0.239000 0.180000 -1.170000
v -0.239000 0.536238 -1.170000
v -0.241000 0.180000 -1.030000
v -0.241000 0.772011 -1.030000
v -0.241000 0.180000 -1.170000
v -0.241000 0.772011 -1.170000
v -0.079000 0.180000 -1.030000
v -0.079000 0.772011 -1.030000
v -0.079000 0.180000 -1.170000
v -0.079000 0.772011 -1.170000
v -0.081000 0.180000 -1.030000
v -0.081000 0.551127 -1.030000
v -0.081000 0.180000 -1.170000
v -0.081000 0.551127 -1.170000
v 0.081000 0.180000 -1.030000
v 0.081000 0.551127 -1.030000
v 0.081000 0.180000 -1.170000
v 0.081000 0.551127 -1.170000
v 0.079000 0.180000 -1.030000
v 0.079000 0.341457 -1.030000
v 0.079000 0.180000 -1.170000
v 0.079000 0.341457 -1.170000
v 0.241000 0.180000 -1.030000
v 0.241000 0.341457 -1.030000
v 0.241000 0.180000 -1.170000
v 0.241000 0.341457 -1.170000
v 0.239000 0.180000 -1.030000
v 0.239000 0.245000 -1.030000
v 0.239000 0.180000 -1.170000
v 0.239000 0.245000 -1.170000
v 0.401000 0.180000 -1.030000
v 0.401000 0.245000 -1.030000
v 0.401000 0.180000 -1.170000
v 0.401000 0.245000 -1.170000
v 0.399000 0.180000 -1.030000
v 0.399000 0.245000 -1.030000
v 0.399000 0.180000 -1.170000
v 0.399000 0.245000 -1.170000
v 0.561000 0.180000 -1.030000
v 0.561000 0.245000 -1.030000
v 0.561000 0.180000 -1.170000
v 0.561000 0.245000 -1.170000
v 0.559000 0.180000 -1.030000
v 0.559000 0.303726 -1.030000
v 0.559000 0.180000 -1.170000
v 0.559000 0.303726 -1.170000
v 0.721000 0.180000 -1.030000
v 0.721000 0.303726 -1.030000
v 0.721000 0.180000 -1.170000
v 0.721000 0.303726 -1.170000
v 0.719000 0.180000 -1.030000
v 0.719000 0.578203 -1.030000
v 0.719000 0.180000 -1.170000
v 0.719000 0.578203 -1.170000
v 0.881000 0.180000 -1.030000
v 0.881000 0.578203 -1.030000
v 0.881000 0.180000 -1.170000
v 0.881000 0.578203 -1.170000
v 0.879000 0.180000 -1.030000
v 0.879000 0.680174 -1.030000
v 0.879000 0.180000 -1.170000
v 0.879000 0.680174 -1.170000
v 1.041000 0.180000 -1.030000
v 1.041000 0.680174 -1.030000
v 1.041000 0.180000 -1.170000
v 1.041000 0.680174 -1.170000
v 1.039000 0.180000 -1.030000
v 1.039000 0.840090 -1.030000
v 1.039000 0.180000 -1.170000
v 1.039000 0.840090 -1.170000
v 1.201000 0.180000 -1.030000
v 1.201000 0.840090 -1.030000
v 1.201000 0.180000 -1.170000
v 1.201000 0.840090 -1.170000
v -1.271000 0.180000 1.030000
v -1.271000 1.286047 1.030000
v -1.271000 0.180000 0.871538
v -1.271000 1.286047 0.871538
v -1.129000 0.180000 1.030000
v -1.129000 1.286047 1.030000
v -1.129000 0.180000 0.871538
v -1.129000 1.286047 0.871538
v -1.271000 0.180000 0.871538
v -1.271000 1.451339 0.871538
v -1.271000 0.180000 0.713077
v -1.271000 1.451339 0.713077
v -1.129000 0.180000 0.871538
v -1.129000 1.451339 0.871538
v -1.129000 0.180000 0.713077
v -1.129000 1.451339 0.713077
v -1.271000 0.180000 0.713077
v -1.271000 1.449610 0.713077
v -1.271000 0.180000 0.554615
v -1.271000 1.449610 0.554615
v -1.129000 0.180000 0.713077
v -1.129000 1.449610 0.713077
v -1.129000 0.180000 0.554615
v -1.129000 1.449610 0.554615
v -1.271000 0.180000 0.554615
v -1.271000 1.480000 0.554615
v -1.271000 0.180000 0.396154
v -1.271000 1.480000 0.396154
v -1.129000 0.180000 0.554615
v -1.129000 1.480000 0.554615
v -1.129000 0.180000 0.396154
v -1.129000 1.480000 0.396154
v -1.271000 0.180000 0.396154
v -1.271000 1.222813 0.396154
v -1.271000 0.180000 0.237692
v -1.271000 1.222813 0.237692
v -1.129000 0.180000 0.396154
v -1.129000 1.222813 0.396154
v -1.129000 0.180000 0.237692
v -1.129000 1.222813 0.237692
v -1.271000 0.180000 0.237692
v -1.271000 1.293145 0.237692
v -1.271000 0.180000 0.079231
v -1.271000 1.293145 0.079231
v -1.129000 0.180000 0.237692
v -1.129000 1.293145 0.237692
v -1.129000 0.180000 0.079231
v -1.129000 1.293145 0.079231
v -1.271000 0.180000 0.079231
v -1.271000 1.192067 0.079231
v -1.271000 0.180000 -0.079231
v -1.271000 1.192067 -0.079231
v -1.129000 0.180000 0.079231
v -1.129000 1.192067 0.079231
v -1.129000 0.180000 -0.079231
v -1.129000 1.192067 -0.079231
v -1.271000 0.180000 -0.079231
v -1.271000 0.965399 -0.079231
v -1.271000 0.180000 -0.237692
v -1.271000 0.965399 -0.237692
v -1.129000 0.180000 -0.079231
v -1.129000 0.965399 -0.079231
v -1.129000 0.180000 -0.237692
v -1.129000 0.965399 -0.237692
v -1.271000 0.180000 -0.237692
v -1.271000 0.596154 -0.237692
v -1.271000 0.180000 -0.396154
v -1.271000 0.596154 -0.396154
v -1.129000 0.180000 -0.237692
v -1.129000 0.596154 -0.237692
v -1.129000 0.180000 -0.396154
v -1.129000 0.596154 -0.396154
v -1.271000 0.180000 -0.396154
v -1.271000 0.896337 -0.396154
v -1.271000 0.180000 -0.554615
v -1.271000 0.896337 -0.554615
v -1.129000 0.180000 -0.396154
v -1.129000 0.896337 -0.396154
v -1.129000 0.180000 -0.554615
v -1.129000 0.896337 -0.554615
v -1.271000 0.180000 -0.554615
v -1.271000 0.908664 -0.554615
v -1.271000 0.180000 -0.713077
v -1.271000 0.908664 -0.713077
v -1.129000 0.180000 -0.554615
v -1.129000 0.908664 -0.554615
v -1.129000 0.180000 -0.713077
v -1.129000 0.908664 -0.713077
v -1.271000 0.180000 -0.713077
v -1.271000 0.656530 -0.713077
v -1.271000 0.180000 -0.871538
v -1.271000 0.656530 -0.871538
v -1.129000 0.180000 -0.713077
v -1.129000 0.656530 -0.713077
v -1.129000 0.180000 -0.871538
v -1.129000 0.656530 -0.871538
v -1.271000 0.180000 -0.871538
v -1.271000 0.660870 -0.871538
v -1.271000 0.180000 -1.030000
v -1.271000 0.660870 -1.030000
v -1.129000 0.180000 -0.871538
v -1.129000 0.660870 -0.871538
v -1.129000 0.180000 -1.030000
v -1.129000 0.660870 -1.030000
v 1.129000 0.180000 1.030000
v 1.129000 1.140530 1.030000
v 1.129000 0.180000 0.871538
v 1.129000 1.140530 0.871538
v 1.271000 0.180000 1.030000
v 1.271000 1.140530 1.030000
v 1.271000 0.180000 0.871538
v 1.271000 1.140530 0.871538
v 1.129000 0.180000 0.871538
v 1.129000 1.480000 0.871538
v 1.129000 0.180000 0.713077
v 1.129000 1.480000 0.713077
v 1.271000 0.180000 0.871538
v 1.271000 1.480000 0.871538
v 1.271000 0.180000 0.713077
v 1.271000 1.480000 0.713077
v 1.129000 0.180000 0.713077
v 1.129000 1.480000 0.713077
v 1.129000 0.180000 0.554615
v 1.129000 1.480000 0.554615
v 1.271000 0.180000 0.713077
v 1.271000 1.480000 0.713077
v 1.271000 0.180000 0.554615
v 1.271000 1.480000 0.554615
v 1.129000 0.180000 0.554615
v 1.129000 1.480000 0.554615
v 1.129000 0.180000 0.396154
v 1.129000 1.480000 0.396154
v 1.271000 0.180000 0.554615
v 1.271000 1.480000 0.554615
v 1.271000 0.180000 0.396154
v 1.271000 1.480000 0.396154
v 1.129000 0.180000 0.396154
v 1.129000 1.396220 0.396154
v 1.129000 0.180000 0.237692
v 1.129000 1.396220 0.237692
v 1.271000 0.180000 0.396154
v 1.271000 1.396220 0.396154
v 1.271000 0.180000 0.237692
v 1.271000 1.396220 0.237692
v 1.129000 0.180000 0.237692
v 1.129000 1.308478 0.237692
v 1.129000 0.180000 0.079231
v 1.129000 1.308478 0.079231
v 1.271000 0.180000 0.237692
v 1.271000 1.308478 0.237692
v 1.271000 0.180000 0.079231
v 1.271000 1.308478 0.079231
v 1.129000 0.180000 0.079231
v 1.129000 1.117425 0.079231
v 1.129000 0.180000 -0.079231
v 1.129000 1.117425 -0.079231
v 1.271000 0.180000 0.079231
v 1.271000 1.117425 0.079231
v 1.271000 0.180000 -0.079231
v 1.271000 1.117425 -0.079231
v 1.129000 0.180000 -0.079231
v 1.129000 0.990991 -0.079231
v 1.129000 0.180000 -0.237692
v 1.129000 0.990991 -0.237692
v 1.271000 0.180000 -0.079231
v 1.271000 0.990991 -0.079231
v 1.271000 0.180000 -0.237692
v 1.271000 0.990991 -0.237692
v 1.129000 0.180000 -0.237692
v 1.129000 0.797690 -0.237692
v 1.129000 0.180000 -0.396154
v 1.129000 0.797690 -0.396154
v 1.271000 0.180000 -0.237692
v 1.271000 0.797690 -0.237692
v 1.271000 0.180000 -0.396154
v 1.271000 0.797690 -0.396154
v 1.129000 0.180000 -0.396154
v 1.129000 0.738149 -0.396154
v 1.129000 0.180000 -0.554615
v 1.129000 0.738149 -0.554615
v 1.271000 0.180000 -0.396154
v 1.271000 0.738149 -0.396154
v 1.271000 0.180000 -0.554615
v 1.271000 0.738149 -0.554615
v 1.129000 0.180000 -0.554615
v 1.129000 0.775164 -0.554615
v 1.129000 0.180000 -0.713077
v 1.129000 0.775164 -0.713077
v 1.271000 0.180000 -0.554615
v 1.271000 0.775164 -0.554615
v 1.271000 0.180000 -0.713077
v 1.271000 0.775164 -0.713077
v 1.129000 0.180000 -0.713077
v 1.129000 0.816519 -0.713077
v 1.129000 0.180000 -0.871538
v 1.129000 0.816519 -0.871538
v 1.271000 0.180000 -0.713077
v 1.271000 0.816519 -0.713077
v 1.271000 0.180000 -0.871538
v 1.271000 0.816519 -0.871538
v 1.129000 0.180000 -0.871538
v 1.129000 1.100207 -0.871538
v 1.129000 0.180000 -1.030000
v 1.129000 1.100207 -1.030000
v 1.271000 0.180000 -0.871538
v 1.271000 1.100207 -0.871538
v 1.271000 0.180000 -1.030000
v 1.271000 1.100207 -1.030000
v -1.033878 0.187323 -0.034509
v -1.049278 0.286004 -0.029522
v -1.052097 0.189448 -0.132813
v -1.067497 0.288129 -0.127825
v 0.508856 0.442256 -0.314916
v 0.493456 0.540937 -0.309929
v 0.490637 0.444381 -0.413219
v 0.475237 0.543062 -0.408232
v 0.414660 0.244863 0.537124
v 0.408718 0.341465 0.562277
v 0.359795 0.220652 0.617146
v 0.353852 0.317254 0.642299
v -1.093859 0.408486 -0.447660
v -1.099802 0.505088 -0.422507
v -1.148725 0.384274 -0.367638
v -1.154667 0.480877 -0.342484
v 0.442317 1.017695 -0.158052
v 0.455120 1.116821 -0.161226
v 0.431403 1.022284 -0.058755
v 0.444206 1.121410 -0.061929
v -0.887023 1.184466 -0.311875
v -0.874220 1.283592 -0.315049
v -0.897938 1.189055 -0.212579
v -0.885135 1.288181 -0.215752
v 0.814900 0.250436 0.605596
v 0.820010 0.345258 0.636945
v 0.754745 0.228302 0.682352
v 0.759856 0.323124 0.713701
v -0.186306 0.536535 -0.096555
v -0.181196 0.631357 -0.065206
v -0.246461 0.514401 -0.019799
v -0.241350 0.609223 0.011550
v 0.069203 0.229423 -0.187879
v 0.117865 0.300472 -0.164060
v 0.070598 0.266428 -0.301110
v 0.119260 0.337477 -0.277291
v 0.194085 0.151872 -0.211684
v 0.242746 0.222922 -0.187865
v 0.195479 0.188877 -0.324916
v 0.244141 0.259927 -0.301097
v -0.519428 0.204808 -0.245439
v -0.491793 0.272071 -0.272873
v -0.614557 0.245678 -0.241060
v -0.586921 0.312941 -0.268495
v -0.542197 0.164781 -0.366513
v -0.514562 0.232044 -0.393947
v -0.637326 0.205651 -0.362135
v -0.609690 0.272914 -0.389569
v -0.345288 0.190038 -0.406703
v -0.275074 0.275835 -0.439112
v -0.465449 0.286196 -0.412468
v -0.395235 0.371993 -0.444878
v -0.373660 0.143512 -0.591338
v -0.303446 0.229310 -0.623747
v -0.493821 0.239671 -0.597104
v -0.423607 0.325468 -0.629513
v 0.624316 0.300354 -0.303444
v 0.727816 0.365720 -0.304652
v 0.606144 0.326166 -0.463587
v 0.709644 0.391532 -0.464796
v 0.730884 0.130887 -0.342852
v 0.834384 0.196252 -0.344060
v 0.712712 0.156699 -0.502995
v 0.816212 0.222065 -0.504204
v 0.570346 0.175183 0.683570
v 0.616508 0.274106 0.657907
v 0.449419 0.245360 0.736561
v 0.495581 0.344283 0.710898
v 0.491840 0.167857 0.514117
v 0.538002 0.266780 0.488454
v 0.370913 0.238034 0.567107
v 0.417075 0.336957 0.541444
v 0.241386 0.274250 -0.522554
v 0.266582 0.380446 -0.618618
v 0.053048 0.320193 -0.521165
v 0.078245 0.426389 -0.617229
v 0.202175 0.119010 -0.704453
v 0.227372 0.225206 -0.800517
v 0.013837 0.164952 -0.703064
v 0.039034 0.271149 -0.799128
v -0.027156 0.217764 -0.466910
v 0.053256 0.284327 -0.540414
v -0.143945 0.340486 -0.483540
v -0.063533 0.407049 -0.557045
v -0.104638 0.120621 -0.639642
v -0.024226 0.187184 -0.713146
v -0.221427 0.243343 -0.656273
v -0.141015 0.309906 -0.729777
v 0.323488 0.242357 -0.192739
v 0.393086 0.271291 -0.173361
v 0.322614 0.301538 -0.277969
v 0.392212 0.330472 -0.258592
v 0.381517 0.147352 -0.259302
v 0.451115 0.176286 -0.239924
v 0.380643 0.206533 -0.344532
v 0.450241 0.235467 -0.325155
v 0.240988 0.189668 0.914091
v 0.273032 0.285913 0.954078
v 0.206369 0.253518 0.788153
v 0.238414 0.349763 0.828140
v 0.409213 0.159273 0.852439
v 0.441257 0.255518 0.892426
v 0.374594 0.223123 0.726500
v 0.406639 0.319368 0.766487
v 0.603758 0.216954 0.656972
v 0.588543 0.286564 0.626086
v 0.544883 0.240418 0.738856
v 0.529668 0.310028 0.707970
v 0.500347 0.167632 0.596753
v 0.485132 0.237242 0.565866
v 0.441472 0.191095 0.678637
v 0.426257 0.260705 0.647751
v -0.015993 0.243095 -0.040466
v -0.015324 0.277639 -0.112328
v -0.102428 0.299196 -0.014304
v -0.101758 0.333740 -0.086165
v -0.093362 0.145996 -0.087863
v -0.092692 0.180540 -0.159724
v -0.179797 0.202097 -0.061701
v -0.179127 0.236641 -0.133562
v -0.264103 0.269360 0.301868
v -0.184670 0.305371 0.348139
v -0.225728 0.327939 0.190403
v -0.146296 0.363949 0.236674
v -0.178966 0.134779 0.260451
v -0.099533 0.170789 0.306723
v -0.140591 0.193358 0.148986
v -0.061158 0.229368 0.195258
v -0.561826 0.229952 0.561763
v -0.501614 0.295356 0.559996
v -0.614549 0.275903 0.466033
v -0.554337 0.341307 0.464266
v -0.474949 0.147610 0.474391
v -0.414737 0.213014 0.472624
v -0.527672 0.193561 0.378661
v -0.467460 0.258965 0.376894
v -0.098074 0.252688 0.290900
v -0.087906 0.288070 0.228566
v -0.189796 0.282683 0.292963
v -0.179628 0.318064 0.230629
v -0.131618 0.154329 0.229599
v -0.121449 0.189710 0.167265
v -0.223340 0.184323 0.231661
v -0.213171 0.219704 0.169327
v -0.780000 0.590000 1.205000
v -0.780000 1.010000 1.205000
v -0.780000 0.590000 1.155000
v -0.780000 1.010000 1.155000
v -0.420000 0.590000 1.205000
v -0.420000 1.010000 1.205000
v -0.420000 0.590000 1.155000
v -0.420000 1.010000 1.155000
v 0.390000 0.180000 1.205000
v 0.390000 0.960000 1.205000
v 0.390000 0.180000 1.155000
v 0.390000 0.960000 1.155000
v 0.810000 0.180000 1.205000
v 0.810000 0.960000 1.205000
v 0.810000 0.180000 1.155000
v 0.810000 0.960000 1.155000
v -0.780000 0.590000 -1.155000
v -0.780000 1.010000 -1.155000
v -0.780000 0.590000 -1.205000
v -0.780000 1.010000 -1.205000
v -0.420000 0.590000 -1.155000
v -0.420000 1.010000 -1.155000
v -0.420000 0.590000 -1.205000
v -0.420000 1.010000 -1.205000
v 0.420000 0.590000 -1.155000
v 0.420000 1.010000 -1.155000
v 0.420000 0.590000 -1.205000
v 0.420000 1.010000 -1.205000
v 0.780000 0.590000 -1.155000
v 0.780000 1.010000 -1.155000
v 0.780000 0.590000 -1.205000
v 0.780000 1.010000 -1.205000
v -1.305000 0.590000 0.180000
v -1.305000 1.010000 0.180000
v -1.305000 0.590000 -0.180000
v -1.305000 1.010000 -0.180000
v -1.255000 0.590000 0.180000
v -1.255000 1.010000 0.180000
v -1.255000 0.590000 -0.180000
v -1.255000 1.010000 -0.180000
vn -1.0000 -0.0000 -0.0000
vn -0.0000 -0.0000 -1.0000
vn 1.0000 -0.0000 -0.0000
vn -0.0000 -0.0000 1.0000
vn -0.0000 -1.0000 -0.0000
vn -0.0000 1.0000 -0.0000
vn -0.9711 -0.1605 0.1765
vn -0.1822 0.0212 -0.9830
vn 0.9711 0.1605 -0.1765
vn 0.1822 -0.0212 0.9830
vn 0.1540 -0.9868 -0.0499
vn -0.1540 0.9868 0.0499
vn 0.8339 -0.0905 0.5444
vn -0.5487 -0.2421 0.8002
vn -0.8339 0.0905 -0.5444
vn 0.5487 0.2421 -0.8002
vn 0.0594 -0.9660 -0.2515
vn -0.0594 0.9660 0.2515
vn 0.9857 -0.1237 0.1141
vn -0.1091 0.0459 0.9930
vn -0.9857 0.1237 -0.1141
vn 0.1091 -0.0459 -0.9930
vn -0.1280 -0.9913 0.0317
vn 0.1280 0.9913 -0.0317
vn 0.7972 -0.2278 0.5591
vn -0.6015 -0.2213 0.7676
vn -0.7972 0.2278 -0.5591
vn 0.6015 0.2213 -0.7676
vn -0.0511 -0.9482 -0.3135
vn 0.0511 0.9482 0.3135
vn -0.8386 0.5208 0.1599
vn 0.0117 0.3106 -0.9505
vn 0.8386 -0.5208 -0.1599
vn -0.0117 -0.3106 0.9505
vn -0.5446 -0.7952 -0.2666
vn 0.5446 0.7952 0.2666
vn 0.1758 0.3090 0.9347
vn -0.9180 0.3944 0.0422
vn -0.1758 -0.3090 -0.9347
vn 0.9180 -0.3944 -0.0422
vn -0.3556 -0.8654 0.3530
vn 0.3556 0.8654 -0.3530
vn 0.1474 0.2417 0.9591
vn -0.7802 0.6244 -0.0374
vn -0.1474 -0.2417 -0.9591
vn 0.7802 -0.6244 0.0374
vn -0.6079 -0.7428 0.2806
vn 0.6079 0.7428 -0.2806
vn -0.5223 0.8306 0.1931
vn -0.1113 0.1581 -0.9811
vn 0.5223 -0.8306 -0.1931
vn 0.1113 -0.1581 0.9811
vn -0.8455 -0.5340 0.0099
vn 0.8455 0.5340 -0.0099
vn 0.4200 0.0392 0.9067
vn -0.8088 0.4693 0.3544
vn -0.4200 -0.0392 -0.9067
vn 0.8088 -0.4693 -0.3544
vn -0.4116 -0.8821 0.2288
vn 0.4116 0.8821 -0.2288
vn 0.1618 0.6406 0.7506
vn -0.9715 0.2370 0.0072
vn -0.1618 -0.6406 -0.7506
vn 0.9715 -0.2370 -0.0072
vn -0.1733 -0.7304 0.6607
vn 0.1733 0.7304 -0.6607
vn 0.3641 0.4565 0.8118
vn -0.6861 0.7209 -0.0977
vn -0.3641 -0.4565 -0.8118
vn 0.6861 -0.7209 0.0977
vn -0.6298 -0.5214 0.5757
vn 0.6298 0.5214 -0.5757
vn -0.4474 0.7325 0.5132
vn -0.0084 0.5703 -0.8214
vn 0.4474 -0.7325 -0.5132
vn 0.0084 -0.5703 0.8214
vn -0.8943 -0.3718 -0.2490
vn 0.8943 0.3718 0.2490
vn -0.9257 0.1673 0.3393
vn -0.2381 0.4392 -0.8663
vn 0.9257 -0.1673 -0.3393
vn 0.2381 -0.4392 0.8663
vn -0.2939 -0.8827 -0.3667
vn 0.2939 0.8827 0.3667
vn 0.7990 0.3811 0.4653
vn -0.5686 0.2266 0.7908
vn -0.7990 -0.3811 -0.4653
vn 0.5686 -0.2266 -0.7908
vn 0.1959 -0.8963 0.3977
vn -0.1959 0.8963 -0.3977
vn 0.5822 0.7307 0.3567
vn -0.8130 0.5277 0.2461
vn -0.5822 -0.7307 -0.3567
vn 0.8130 -0.5277 -0.2461
vn -0.0084 -0.4332 0.9012
vn 0.0084 0.4332 -0.9012
vn -0.5174 0.8179 0.2517
vn 0.2915 0.4450 -0.8468
vn 0.5174 -0.8179 -0.2517
vn -0.2915 -0.4450 0.8468
vn -0.8046 -0.3647 -0.4687
vn 0.8046 0.3647 0.4687
vn -0.5862 0.5556 0.5896
vn -0.4447 0.3876 -0.8075
vn 0.5862 -0.5556 -0.5896
vn 0.4447 -0.3876 0.8075
vn -0.6772 -0.7356 0.0199
vn 0.6772 0.7356 -0.0199
vn 0.2780 0.8152 0.5081
vn -0.9503 0.3107 0.0214
vn -0.2780 -0.8152 -0.5081
vn 0.9503 -0.3107 -0.0214
vn -0.1405 -0.4887 0.8611
vn 0.1405 0.4887 -0.8611
vt 0.053695 0.580734
vt 0.032890 0.580734
vt 0.032890 0.307961
vt 0.053695 0.307961
vt 0.024829 0.603842
vt 0.004030 0.603837
vt 0.004030 0.307961
vt 0.024829 0.307966
vt 0.061755 0.307961
vt 0.082560 0.307961
vt 0.082560 0.580734
vt 0.061755 0.580734
vt 0.565699 0.004035
vt 0.586498 0.004030
vt 0.586498 0.299906
vt 0.565699 0.299911
vt 0.276804 0.004030
vt 0.276804 0.299899
vt 0.004030 0.299901
vt 0.004030 0.004032
vt 0.284864 0.299899
vt 0.284864 0.004030
vt 0.557638 0.004032
vt 0.557638 0.299901
vt 0.816689 0.405461
vt 0.816689 0.307971
vt 0.832870 0.307971
vt 0.832870 0.405461
vt 0.692275 0.757483
vt 0.692275 0.660019
vt 0.710998 0.660015
vt 0.710998 0.757479
vt 0.201922 0.832957
vt 0.201922 0.735468
vt 0.218103 0.735468
vt 0.218103 0.832957
vt 0.414830 0.758015
vt 0.414830 0.660551
vt 0.433553 0.660556
vt 0.433553 0.758020
vt 0.871877 0.724162
vt 0.871877 0.742885
vt 0.855696 0.742885
vt 0.855696 0.724162
vt 0.882710 0.928622
vt 0.882710 0.909899
vt 0.898891 0.909899
vt 0.898891 0.928622
vt 0.800494 0.103793
vt 0.800494 0.004030
vt 0.816675 0.004030
vt 0.816675 0.103793
vt 0.614235 0.732647
vt 0.614235 0.632910
vt 0.632958 0.632906
vt 0.632958 0.732643
vt 0.801806 0.596770
vt 0.801806 0.497007
vt 0.817987 0.497007
vt 0.817987 0.596770
vt 0.665491 0.735205
vt 0.665491 0.635468
vt 0.684214 0.635472
vt 0.684214 0.735209
vt 0.132769 0.907531
vt 0.132769 0.926254
vt 0.116587 0.926254
vt 0.116587 0.907531
vt 0.143371 0.926254
vt 0.143371 0.907531
vt 0.159553 0.907531
vt 0.159553 0.926254
vt 0.506085 0.832558
vt 0.506085 0.735467
vt 0.522266 0.735467
vt 0.522266 0.832558
vt 0.749468 0.101101
vt 0.749468 0.004034
vt 0.768192 0.004030
vt 0.768192 0.101097
vt 0.453334 0.837393
vt 0.453334 0.740301
vt 0.469515 0.740302
vt 0.469515 0.837393
vt 0.750780 0.594073
vt 0.750780 0.497007
vt 0.769503 0.497011
vt 0.769503 0.594077
vt 0.708456 0.913512
vt 0.708456 0.932235
vt 0.692275 0.932235
vt 0.692275 0.913512
vt 0.170155 0.932369
vt 0.170155 0.913646
vt 0.186336 0.913646
vt 0.186336 0.932369
vt 0.887941 0.235701
vt 0.887941 0.166785
vt 0.904123 0.166784
vt 0.904123 0.235701
vt 0.309327 0.858148
vt 0.309327 0.789249
vt 0.328051 0.789245
vt 0.328051 0.858144
vt 0.665491 0.905270
vt 0.665491 0.836353
vt 0.681672 0.836353
vt 0.681672 0.905270
vt 0.542815 0.859270
vt 0.542815 0.790371
vt 0.561538 0.790376
vt 0.561538 0.859274
vt 0.630417 0.910627
vt 0.630417 0.929350
vt 0.614235 0.929350
vt 0.614235 0.910627
vt 0.934622 0.262484
vt 0.934622 0.243761
vt 0.950803 0.243761
vt 0.950803 0.262484
vt 0.875583 0.157175
vt 0.875583 0.085202
vt 0.891765 0.085202
vt 0.891765 0.157175
vt 0.358272 0.850638
vt 0.358272 0.778684
vt 0.376995 0.778680
vt 0.376995 0.850634
vt 0.882071 0.719285
vt 0.882071 0.647312
vt 0.898253 0.647312
vt 0.898253 0.719285
vt 0.057362 0.845913
vt 0.057362 0.773959
vt 0.076085 0.773963
vt 0.076085 0.845917
vt 0.952330 0.608145
vt 0.952330 0.626868
vt 0.936149 0.626868
vt 0.936149 0.608145
vt 0.931193 0.772801
vt 0.931193 0.754078
vt 0.947375 0.754079
vt 0.947375 0.772802
vt 0.004030 0.898074
vt 0.004030 0.827151
vt 0.020212 0.827150
vt 0.020212 0.898074
vt 0.385056 0.849589
vt 0.385056 0.778684
vt 0.403779 0.778680
vt 0.403779 0.849585
vt 0.882710 0.825002
vt 0.882710 0.754079
vt 0.898891 0.754079
vt 0.898891 0.825002
vt 0.840931 0.378877
vt 0.840931 0.307971
vt 0.859654 0.307976
vt 0.859654 0.378881
vt 0.325509 0.919935
vt 0.325509 0.938658
vt 0.309327 0.938658
vt 0.309327 0.919935
vt 0.639115 0.928046
vt 0.639115 0.909324
vt 0.655297 0.909324
vt 0.655297 0.928047
vt 0.506085 0.907463
vt 0.506085 0.840619
vt 0.522266 0.840619
vt 0.522266 0.907462
vt 0.855926 0.820909
vt 0.855926 0.754083
vt 0.874649 0.754078
vt 0.874649 0.820905
vt 0.201922 0.907861
vt 0.201922 0.841017
vt 0.218103 0.841018
vt 0.218103 0.907861
vt 0.861157 0.233611
vt 0.861157 0.166784
vt 0.879881 0.166789
vt 0.879881 0.233615
vt 0.940249 0.138937
vt 0.940249 0.157660
vt 0.924067 0.157660
vt 0.924067 0.138937
vt 0.931193 0.822037
vt 0.931193 0.803313
vt 0.947375 0.803314
vt 0.947375 0.822037
vt 0.824736 0.157511
vt 0.824736 0.105806
vt 0.840917 0.105806
vt 0.840917 0.157511
vt 0.143371 0.899471
vt 0.143371 0.847779
vt 0.162095 0.847775
vt 0.162095 0.899466
vt 0.358272 0.910404
vt 0.358272 0.858699
vt 0.374453 0.858699
vt 0.374453 0.910404
vt 0.116587 0.899466
vt 0.116587 0.847775
vt 0.135311 0.847779
vt 0.135311 0.899471
vt 0.937219 0.469673
vt 0.937219 0.488396
vt 0.921038 0.488396
vt 0.921038 0.469673
vt 0.358272 0.937187
vt 0.358272 0.918464
vt 0.374453 0.918464
vt 0.374453 0.937187
vt 0.684195 0.299778
vt 0.684195 0.254105
vt 0.700376 0.254104
vt 0.700376 0.299778
vt 0.030578 0.910463
vt 0.030578 0.864801
vt 0.049302 0.864797
vt 0.049302 0.910458
vt 0.899825 0.130876
vt 0.899825 0.085202
vt 0.916007 0.085202
vt 0.916007 0.130876
vt 0.309327 0.911870
vt 0.309327 0.866208
vt 0.328051 0.866212
vt 0.328051 0.911874
vt 0.299541 0.922785
vt 0.299541 0.941508
vt 0.283360 0.941508
vt 0.283360 0.922785
vt 0.931424 0.938370
vt 0.931424 0.919647
vt 0.947605 0.919647
vt 0.947605 0.938370
vt 0.970016 0.405461
vt 0.956874 0.405461
vt 0.956874 0.389279
vt 0.970016 0.389279
vt 0.153968 0.979416
vt 0.140829 0.979414
vt 0.140829 0.960690
vt 0.153968 0.960693
vt 0.414830 0.966418
vt 0.427971 0.966418
vt 0.427971 0.982600
vt 0.414830 0.982600
vt 0.477806 0.960684
vt 0.490944 0.960681
vt 0.490944 0.979404
vt 0.477806 0.979407
vt 0.847635 0.912212
vt 0.847635 0.930935
vt 0.831454 0.930935
vt 0.831454 0.912212
vt 0.926022 0.185507
vt 0.926022 0.166784
vt 0.942204 0.166785
vt 0.942204 0.185508
vt 0.064875 0.986446
vt 0.057362 0.986446
vt 0.057362 0.970264
vt 0.064875 0.970265
vt 0.986492 0.326696
vt 0.978981 0.326695
vt 0.978981 0.307971
vt 0.986492 0.307973
vt 0.072935 0.970265
vt 0.080448 0.970264
vt 0.080448 0.986446
vt 0.072935 0.986446
vt 0.977325 0.413523
vt 0.984836 0.413521
vt 0.984836 0.432245
vt 0.977325 0.432246
vt 0.942204 0.193568
vt 0.942204 0.212291
vt 0.926022 0.212291
vt 0.926022 0.193568
vt 0.030578 0.937246
vt 0.030578 0.918523
vt 0.046760 0.918523
vt 0.046760 0.937246
vt 0.986781 0.717064
vt 0.979268 0.717064
vt 0.979268 0.700883
vt 0.986781 0.700883
vt 0.986812 0.908381
vt 0.979302 0.908380
vt 0.979302 0.889656
vt 0.986812 0.889658
vt 0.978076 0.389279
vt 0.985589 0.389279
vt 0.985589 0.405461
vt 0.978076 0.405461
vt 0.979268 0.647313
vt 0.986779 0.647312
vt 0.986779 0.666035
vt 0.979268 0.666037
vt 0.951042 0.833063
vt 0.951042 0.851786
vt 0.934861 0.851786
vt 0.934861 0.833063
vt 0.414830 0.931982
vt 0.414830 0.913259
vt 0.431011 0.913259
vt 0.431011 0.931982
vt 0.550327 0.987624
vt 0.542815 0.987624
vt 0.542815 0.971442
vt 0.550327 0.971442
vt 0.984836 0.459032
vt 0.977325 0.459030
vt 0.977325 0.440307
vt 0.984836 0.440308
vt 0.979499 0.727662
vt 0.987011 0.727662
vt 0.987011 0.743843
vt 0.979499 0.743843
vt 0.436032 0.966420
vt 0.443543 0.966418
vt 0.443543 0.985142
vt 0.436032 0.985144
vt 0.774449 0.909185
vt 0.774449 0.927908
vt 0.758268 0.927908
vt 0.758268 0.909185
vt 0.385055 0.932533
vt 0.385055 0.913810
vt 0.401237 0.913810
vt 0.401237 0.932533
vt 0.577111 0.987134
vt 0.569598 0.987133
vt 0.569598 0.970952
vt 0.577111 0.970952
vt 0.392566 0.985694
vt 0.385056 0.985693
vt 0.385056 0.966969
vt 0.392566 0.966971
vt 0.256576 0.971087
vt 0.264089 0.971087
vt 0.264089 0.987269
vt 0.256576 0.987269
vt 0.597504 0.905519
vt 0.605015 0.905518
vt 0.605015 0.924241
vt 0.597504 0.924243
vt 0.522267 0.915523
vt 0.522267 0.934246
vt 0.506085 0.934246
vt 0.506085 0.915523
vt 0.201922 0.934644
vt 0.201922 0.915921
vt 0.218103 0.915922
vt 0.218103 0.934645
vt 0.460847 0.987353
vt 0.453334 0.987353
vt 0.453334 0.971172
vt 0.460847 0.971172
vt 0.986925 0.293824
vt 0.979414 0.293822
vt 0.979414 0.275099
vt 0.986925 0.275101
vt 0.979907 0.754079
vt 0.987420 0.754078
vt 0.987420 0.770260
vt 0.979907 0.770260
vt 0.979335 0.361580
vt 0.986846 0.361579
vt 0.986846 0.380302
vt 0.979335 0.380304
vt 0.952415 0.004030
vt 0.952415 0.022753
vt 0.936233 0.022753
vt 0.936233 0.004030
vt 0.761826 0.299903
vt 0.761826 0.281180
vt 0.778008 0.281180
vt 0.778008 0.299903
vt 0.256576 0.724583
vt 0.256576 0.604770
vt 0.272758 0.604770
vt 0.272758 0.724583
vt 0.641019 0.616793
vt 0.641019 0.497011
vt 0.659742 0.497007
vt 0.659742 0.616788
vt 0.282952 0.724583
vt 0.282952 0.604770
vt 0.299133 0.604770
vt 0.299133 0.724583
vt 0.090620 0.674578
vt 0.090620 0.554796
vt 0.109343 0.554801
vt 0.109343 0.674582
vt 0.493988 0.933897
vt 0.493988 0.952620
vt 0.477806 0.952620
vt 0.477806 0.933897
vt 0.806982 0.934748
vt 0.806982 0.916025
vt 0.823163 0.916025
vt 0.823163 0.934748
vt 0.812674 0.265491
vt 0.812674 0.166785
vt 0.828855 0.166784
vt 0.828855 0.265491
vt 0.731484 0.745996
vt 0.731484 0.647316
vt 0.750207 0.647312
vt 0.750207 0.745992
vt 0.806982 0.746018
vt 0.806982 0.647312
vt 0.823163 0.647312
vt 0.823163 0.746018
vt 0.735042 0.265465
vt 0.735042 0.166784
vt 0.753766 0.166789
vt 0.753766 0.265469
vt 0.244479 0.916550
vt 0.244479 0.935273
vt 0.228297 0.935274
vt 0.228297 0.916551
vt 0.092206 0.935581
vt 0.092206 0.916858
vt 0.108388 0.916858
vt 0.108388 0.935581
vt 0.766072 0.413148
vt 0.766072 0.307971
vt 0.782253 0.307971
vt 0.782253 0.413148
vt 0.477806 0.723089
vt 0.477806 0.617939
vt 0.496529 0.617935
vt 0.496529 0.723084
vt 0.776252 0.109207
vt 0.776252 0.004030
vt 0.792434 0.004030
vt 0.792434 0.109207
vt 0.619031 0.298215
vt 0.619031 0.193066
vt 0.637754 0.193070
vt 0.637754 0.298219
vt 0.798691 0.909185
vt 0.798691 0.927908
vt 0.782509 0.927908
vt 0.782509 0.909185
vt 0.057362 0.935828
vt 0.057362 0.917105
vt 0.073544 0.917105
vt 0.073544 0.935828
vt 0.782740 0.751823
vt 0.782740 0.647312
vt 0.798921 0.647312
vt 0.798921 0.751823
vt 0.532461 0.725535
vt 0.532461 0.621051
vt 0.551184 0.621047
vt 0.551184 0.725530
vt 0.777564 0.601518
vt 0.777564 0.497007
vt 0.793745 0.497007
vt 0.793745 0.601518
vt 0.565699 0.725705
vt 0.565699 0.621222
vt 0.584422 0.621226
vt 0.584422 0.725710
vt 0.951042 0.859846
vt 0.951042 0.878569
vt 0.934861 0.878569
vt 0.934861 0.859846
vt 0.899825 0.157660
vt 0.899825 0.138937
vt 0.916007 0.138937
vt 0.916007 0.157660
vt 0.414830 0.851121
vt 0.414830 0.766080
vt 0.431011 0.766080
vt 0.431011 0.851121
vt 0.665491 0.828293
vt 0.665491 0.743274
vt 0.684214 0.743270
vt 0.684214 0.828288
vt 0.836916 0.251826
vt 0.836916 0.166784
vt 0.853097 0.166785
vt 0.853097 0.251826
vt 0.614235 0.825726
vt 0.614235 0.740707
vt 0.632958 0.740712
vt 0.632958 0.825731
vt 0.951728 0.275099
vt 0.951728 0.293822
vt 0.935546 0.293822
vt 0.935546 0.275099
vt 0.907182 0.938370
vt 0.907182 0.919647
vt 0.923363 0.919647
vt 0.923363 0.938370
vt 0.906952 0.795253
vt 0.906952 0.754079
vt 0.923133 0.754079
vt 0.923133 0.795253
vt 0.776252 0.158436
vt 0.776252 0.117272
vt 0.794975 0.117268
vt 0.794975 0.158432
vt 0.906313 0.739442
vt 0.906313 0.698268
vt 0.922494 0.698268
vt 0.922494 0.739443
vt 0.256576 0.909863
vt 0.256576 0.868699
vt 0.275300 0.868704
vt 0.275300 0.909868
vt 0.747665 0.909476
vt 0.747665 0.928199
vt 0.731484 0.928199
vt 0.731484 0.909476
vt 0.931933 0.515730
vt 0.931933 0.497007
vt 0.948115 0.497007
vt 0.948115 0.515730
vt 0.892187 0.376397
vt 0.892187 0.307971
vt 0.908368 0.307971
vt 0.908368 0.376397
vt 0.569598 0.858784
vt 0.569598 0.790376
vt 0.588322 0.790371
vt 0.588322 0.858779
vt 0.092206 0.908798
vt 0.092206 0.840372
vt 0.108388 0.840372
vt 0.108388 0.908798
vt 0.843065 0.481929
vt 0.843065 0.413521
vt 0.861788 0.413525
vt 0.861788 0.481933
vt 0.946449 0.307971
vt 0.946449 0.326694
vt 0.930268 0.326694
vt 0.930268 0.307971
vt 0.932632 0.432244
vt 0.932632 0.413521
vt 0.948814 0.413521
vt 0.948814 0.432244
vt 0.673048 0.487557
vt 0.673048 0.444661
vt 0.689229 0.444661
vt 0.689229 0.487557
vt 0.542815 0.910223
vt 0.542815 0.867339
vt 0.561538 0.867334
vt 0.561538 0.910219
vt 0.906313 0.690207
vt 0.906313 0.647312
vt 0.922494 0.647312
vt 0.922494 0.690207
vt 0.569598 0.909728
vt 0.569598 0.866844
vt 0.588322 0.866848
vt 0.588322 0.909733
vt 0.585780 0.917793
vt 0.585780 0.936516
vt 0.569598 0.936516
vt 0.569598 0.917793
vt 0.932632 0.459028
vt 0.932632 0.440305
vt 0.948814 0.440305
vt 0.948814 0.459028
vt 0.882071 0.746007
vt 0.882071 0.727345
vt 0.898253 0.727345
vt 0.898253 0.746007
vt 0.910843 0.403185
vt 0.892187 0.403181
vt 0.892187 0.384458
vt 0.910843 0.384462
vt 0.116587 0.952976
vt 0.116587 0.934314
vt 0.132769 0.934314
vt 0.132769 0.952976
vt 0.894321 0.469677
vt 0.912977 0.469673
vt 0.912977 0.488396
vt 0.894321 0.488400
vt 0.948925 0.361578
vt 0.948925 0.380301
vt 0.932743 0.380302
vt 0.932743 0.361579
vt 0.855926 0.950255
vt 0.855926 0.931532
vt 0.872108 0.931532
vt 0.872108 0.950255
vt 0.987420 0.819495
vt 0.979907 0.819495
vt 0.979907 0.803313
vt 0.987420 0.803313
vt 0.986779 0.692822
vt 0.979268 0.692821
vt 0.979268 0.674097
vt 0.986779 0.674099
vt 0.091976 0.970017
vt 0.099489 0.970017
vt 0.099489 0.986199
vt 0.091976 0.986199
vt 0.979080 0.004032
vt 0.986591 0.004030
vt 0.986591 0.022754
vt 0.979080 0.022755
vt 0.946449 0.334755
vt 0.946449 0.353478
vt 0.930268 0.353478
vt 0.930268 0.334755
vt 0.256576 0.936651
vt 0.256576 0.917928
vt 0.272758 0.917928
vt 0.272758 0.936651
vt 0.987650 0.935828
vt 0.980138 0.935828
vt 0.980138 0.919646
vt 0.987650 0.919646
vt 0.602120 0.986271
vt 0.594609 0.986269
vt 0.594609 0.967546
vt 0.602120 0.967547
vt 0.980162 0.581362
vt 0.987675 0.581361
vt 0.987675 0.597543
vt 0.980162 0.597543
vt 0.978981 0.334758
vt 0.986492 0.334757
vt 0.986492 0.353480
vt 0.978981 0.353482
vt 0.952330 0.581362
vt 0.952330 0.600084
vt 0.936149 0.600085
vt 0.936149 0.581362
vt 0.930555 0.666035
vt 0.930555 0.647312
vt 0.946736 0.647312
vt 0.946736 0.666035
vt 0.912222 0.076363
vt 0.897922 0.076363
vt 0.897922 0.060182
vt 0.912222 0.060182
vt 0.973399 0.878577
vt 0.959103 0.878573
vt 0.959103 0.859850
vt 0.973399 0.859853
vt 0.932743 0.388362
vt 0.947044 0.388362
vt 0.947044 0.404543
vt 0.932743 0.404543
vt 0.959103 0.833066
vt 0.973399 0.833063
vt 0.973399 0.851786
vt 0.959103 0.851790
vt 0.681672 0.913330
vt 0.681672 0.932053
vt 0.665491 0.932053
vt 0.665491 0.913330
vt 0.922394 0.072420
vt 0.922394 0.053697
vt 0.938576 0.053697
vt 0.938576 0.072420
vt 0.898067 0.627387
vt 0.898067 0.581362
vt 0.914249 0.581362
vt 0.914249 0.627387
vt 0.414830 0.905199
vt 0.414830 0.859186
vt 0.433553 0.859181
vt 0.433553 0.905194
vt 0.283360 0.914724
vt 0.283360 0.868699
vt 0.299541 0.868700
vt 0.299541 0.914725
vt 0.228297 0.908486
vt 0.228297 0.862473
vt 0.247021 0.862477
vt 0.247021 0.908490
vt 0.469515 0.918013
vt 0.469515 0.936736
vt 0.453334 0.936736
vt 0.453334 0.918013
vt 0.542815 0.937006
vt 0.542815 0.918283
vt 0.558996 0.918283
vt 0.558996 0.937006
vt 0.831454 0.904152
vt 0.831454 0.846341
vt 0.847635 0.846341
vt 0.847635 0.904152
vt 0.861157 0.299475
vt 0.861157 0.241679
vt 0.879881 0.241675
vt 0.879881 0.299471
vt 0.170155 0.905586
vt 0.170155 0.847775
vt 0.186336 0.847775
vt 0.186336 0.905586
vt 0.844908 0.639157
vt 0.844908 0.581362
vt 0.863632 0.581366
vt 0.863632 0.639162
vt 0.946736 0.674095
vt 0.946736 0.692818
vt 0.930555 0.692818
vt 0.930555 0.674095
vt 0.930555 0.719602
vt 0.930555 0.700879
vt 0.946736 0.700879
vt 0.946736 0.719602
vt 0.844908 0.573301
vt 0.844908 0.497007
vt 0.861090 0.497007
vt 0.861090 0.573301
vt 0.758268 0.837986
vt 0.758268 0.761712
vt 0.776991 0.761707
vt 0.776991 0.837982
vt 0.849208 0.080325
vt 0.849208 0.004030
vt 0.865389 0.004030
vt 0.865389 0.080325
vt 0.692275 0.841818
vt 0.692275 0.765544
vt 0.710998 0.765548
vt 0.710998 0.841823
vt 0.923133 0.803314
vt 0.923133 0.822037
vt 0.906952 0.822037
vt 0.906952 0.803314
vt 0.930588 0.908379
vt 0.930588 0.889656
vt 0.946769 0.889656
vt 0.946769 0.908379
vt 0.614643 0.624846
vt 0.614643 0.497007
vt 0.632958 0.497007
vt 0.632958 0.624845
vt 0.143371 0.692253
vt 0.143371 0.564448
vt 0.159783 0.564444
vt 0.159783 0.692249
vt 0.414830 0.652491
vt 0.414830 0.524652
vt 0.433145 0.524652
vt 0.433145 0.652491
vt 0.167843 0.692249
vt 0.167843 0.564444
vt 0.184255 0.564448
vt 0.184255 0.692253
vt 0.708686 0.958611
vt 0.692275 0.958611
vt 0.692275 0.940296
vt 0.708686 0.940296
vt 0.971438 0.745977
vt 0.955027 0.745977
vt 0.955027 0.727662
vt 0.971438 0.727662
vt 0.453334 0.454905
vt 0.453334 0.307961
vt 0.471649 0.307961
vt 0.471649 0.454905
vt 0.565699 0.613161
vt 0.565699 0.466256
vt 0.582111 0.466252
vt 0.582111 0.613158
vt 0.479709 0.454905
vt 0.479709 0.307961
vt 0.498025 0.307961
vt 0.498025 0.454905
vt 0.477806 0.609871
vt 0.477806 0.462965
vt 0.494218 0.462969
vt 0.494218 0.609874
vt 0.325739 0.965033
vt 0.309327 0.965033
vt 0.309327 0.946718
vt 0.325739 0.946718
vt 0.186566 0.958745
vt 0.170155 0.958745
vt 0.170155 0.940430
vt 0.186566 0.940430
vt 0.506085 0.454705
vt 0.506085 0.307961
vt 0.524400 0.307961
vt 0.524400 0.454705
vt 0.590171 0.612962
vt 0.590171 0.466256
vt 0.606583 0.466252
vt 0.606583 0.612958
vt 0.532461 0.454705
vt 0.532461 0.307961
vt 0.550776 0.307961
vt 0.550776 0.454705
vt 0.203825 0.612984
vt 0.203825 0.466278
vt 0.220237 0.466282
vt 0.220237 0.612987
vt 0.401467 0.958909
vt 0.385055 0.958909
vt 0.385055 0.940593
vt 0.401467 0.940593
vt 0.946966 0.745977
vt 0.930555 0.745977
vt 0.930555 0.727662
vt 0.946966 0.727662
vt 0.335703 0.458218
vt 0.335703 0.307961
vt 0.354018 0.307961
vt 0.354018 0.458218
vt 0.143371 0.556384
vt 0.143371 0.406166
vt 0.159783 0.406163
vt 0.159783 0.556380
vt 0.362078 0.458218
vt 0.362078 0.307961
vt 0.380394 0.307961
vt 0.380394 0.458218
vt 0.167843 0.556380
vt 0.167843 0.406163
vt 0.184255 0.406166
vt 0.184255 0.556384
vt 0.522496 0.960622
vt 0.506085 0.960622
vt 0.506085 0.942306
vt 0.522496 0.942306
vt 0.374683 0.963563
vt 0.358272 0.963563
vt 0.358272 0.945248
vt 0.374683 0.945248
vt 0.657819 0.124561
vt 0.657819 0.004030
vt 0.676134 0.004030
vt 0.676134 0.124561
vt 0.032890 0.709297
vt 0.032890 0.588798
vt 0.049302 0.588794
vt 0.049302 0.709293
vt 0.657819 0.253151
vt 0.657819 0.132621
vt 0.676134 0.132621
vt 0.676134 0.253152
vt 0.061755 0.709293
vt 0.061755 0.588794
vt 0.078167 0.588798
vt 0.078167 0.709297
vt 0.655527 0.954422
vt 0.639115 0.954422
vt 0.639115 0.936107
vt 0.655527 0.936107
vt 0.971208 0.719194
vt 0.954797 0.719194
vt 0.954797 0.700879
vt 0.971208 0.700879
vt 0.358272 0.594938
vt 0.358272 0.466278
vt 0.376587 0.466278
vt 0.376587 0.594937
vt 0.117404 0.683426
vt 0.117404 0.554800
vt 0.133816 0.554796
vt 0.133816 0.683422
vt 0.384647 0.594938
vt 0.384647 0.466278
vt 0.402963 0.466278
vt 0.402963 0.594938
vt 0.673048 0.436597
vt 0.673048 0.307971
vt 0.689460 0.307975
vt 0.689460 0.436601
vt 0.020442 0.954417
vt 0.004030 0.954417
vt 0.004030 0.936101
vt 0.020442 0.936101
vt 0.157241 0.952630
vt 0.140829 0.952630
vt 0.140829 0.934314
vt 0.157241 0.934314
vt 0.684195 0.121007
vt 0.684195 0.004030
vt 0.702510 0.004030
vt 0.702510 0.121007
vt 0.717127 0.424921
vt 0.717127 0.307975
vt 0.733539 0.307971
vt 0.733539 0.424917
vt 0.684195 0.246044
vt 0.684195 0.129067
vt 0.702510 0.129067
vt 0.702510 0.246044
vt 0.710570 0.283730
vt 0.710570 0.166784
vt 0.726982 0.166788
vt 0.726982 0.283734
vt 0.971847 0.821629
vt 0.955435 0.821629
vt 0.955435 0.803313
vt 0.971847 0.803314
vt 0.469745 0.963112
vt 0.453334 0.963112
vt 0.453334 0.944796
vt 0.469745 0.944796
vt 0.004030 0.819090
vt 0.004030 0.728312
vt 0.022345 0.728312
vt 0.022345 0.819090
vt 0.118582 0.838849
vt 0.118582 0.748095
vt 0.134994 0.748091
vt 0.134994 0.838845
vt 0.477806 0.821927
vt 0.477806 0.731149
vt 0.496121 0.731149
vt 0.496121 0.821927
vt 0.806982 0.844833
vt 0.806982 0.754078
vt 0.823393 0.754082
vt 0.823393 0.844836
vt 0.350211 0.963563
vt 0.333800 0.963563
vt 0.333800 0.945248
vt 0.350211 0.945248
vt 0.046990 0.963622
vt 0.030578 0.963622
vt 0.030578 0.945306
vt 0.046990 0.945306
vt 0.385056 0.905750
vt 0.385056 0.857650
vt 0.403371 0.857650
vt 0.403371 0.905750
vt 0.894320 0.461612
vt 0.894320 0.413525
vt 0.910732 0.413521
vt 0.910732 0.461608
vt 0.749468 0.157261
vt 0.749468 0.109161
vt 0.767784 0.109161
vt 0.767784 0.157261
vt 0.897922 0.052117
vt 0.897922 0.004030
vt 0.914334 0.004034
vt 0.914334 0.052121
vt 0.431241 0.958358
vt 0.414830 0.958358
vt 0.414830 0.940042
vt 0.431241 0.940043
vt 0.971847 0.772394
vt 0.955435 0.772394
vt 0.955435 0.754079
vt 0.971847 0.754078
vt 0.143371 0.839714
vt 0.143371 0.756919
vt 0.161686 0.756919
vt 0.161686 0.839714
vt 0.228297 0.854413
vt 0.228297 0.771639
vt 0.244709 0.771635
vt 0.244709 0.854409
vt 0.169747 0.839714
vt 0.169747 0.756919
vt 0.188062 0.756919
vt 0.188062 0.839714
vt 0.032890 0.856732
vt 0.032890 0.773959
vt 0.049302 0.773962
vt 0.049302 0.856736
vt 0.966676 0.185100
vt 0.950264 0.185100
vt 0.950264 0.166784
vt 0.966676 0.166785
vt 0.964721 0.157252
vt 0.948309 0.157252
vt 0.948309 0.138937
vt 0.964721 0.138936
vt 0.092206 0.832312
vt 0.092206 0.748091
vt 0.110521 0.748091
vt 0.110521 0.832312
vt 0.831223 0.731514
vt 0.831223 0.647315
vt 0.847635 0.647312
vt 0.847635 0.731510
vt 0.731484 0.838277
vt 0.731484 0.754057
vt 0.749799 0.754057
vt 0.749799 0.838277
vt 0.831454 0.838277
vt 0.831454 0.754079
vt 0.847866 0.754082
vt 0.847866 0.838281
vt 0.899121 0.954998
vt 0.882710 0.954998
vt 0.882710 0.936682
vt 0.899121 0.936683
vt 0.630646 0.955726
vt 0.614235 0.955726
vt 0.614235 0.937411
vt 0.630646 0.937411
vt 0.758268 0.901125
vt 0.758268 0.846047
vt 0.776583 0.846046
vt 0.776583 0.901125
vt 0.806982 0.907964
vt 0.806982 0.852900
vt 0.823393 0.852897
vt 0.823393 0.907961
vt 0.731484 0.901416
vt 0.731484 0.846338
vt 0.749799 0.846338
vt 0.749799 0.901416
vt 0.057362 0.909041
vt 0.057362 0.853977
vt 0.073774 0.853981
vt 0.073774 0.909045
vt 0.966676 0.211883
vt 0.950264 0.211883
vt 0.950264 0.193568
vt 0.966676 0.193568
vt 0.218333 0.961020
vt 0.201922 0.961020
vt 0.201922 0.942705
vt 0.218333 0.942705
vt 0.871692 0.636941
vt 0.871692 0.581362
vt 0.890007 0.581361
vt 0.890007 0.636941
vt 0.692275 0.905452
vt 0.692275 0.849887
vt 0.708687 0.849883
vt 0.708687 0.905448
vt 0.639115 0.901263
vt 0.639115 0.845683
vt 0.657431 0.845683
vt 0.657431 0.901263
vt 0.887941 0.299327
vt 0.887941 0.243761
vt 0.904353 0.243765
vt 0.904353 0.299330
vt 0.847865 0.957311
vt 0.831454 0.957311
vt 0.831454 0.938996
vt 0.847865 0.938996
vt 0.299771 0.967884
vt 0.283360 0.967884
vt 0.283360 0.949568
vt 0.299771 0.949568
vt 0.358272 0.714018
vt 0.358272 0.602998
vt 0.376587 0.602998
vt 0.376587 0.714018
vt 0.453334 0.732241
vt 0.453334 0.621250
vt 0.469746 0.621247
vt 0.469746 0.732237
vt 0.384647 0.714018
vt 0.384647 0.602998
vt 0.402963 0.602998
vt 0.402963 0.714018
vt 0.641019 0.735844
vt 0.641019 0.624853
vt 0.657431 0.624857
vt 0.657431 0.735847
vt 0.774679 0.954284
vt 0.758268 0.954284
vt 0.758268 0.935969
vt 0.774679 0.935969
vt 0.823393 0.961123
vt 0.806982 0.961123
vt 0.806982 0.942808
vt 0.823393 0.942808
vt 0.256576 0.458218
vt 0.256576 0.307961
vt 0.274891 0.307961
vt 0.274891 0.458218
vt 0.565699 0.458192
vt 0.565699 0.307975
vt 0.582111 0.307971
vt 0.582111 0.458188
vt 0.282952 0.458218
vt 0.282952 0.307961
vt 0.301267 0.307961
vt 0.301267 0.458218
vt 0.530557 0.612983
vt 0.530557 0.462766
vt 0.546969 0.462769
vt 0.546969 0.612986
vt 0.970921 0.326287
vt 0.954509 0.326287
vt 0.954509 0.307971
vt 0.970921 0.307971
vt 0.244709 0.961649
vt 0.228297 0.961649
vt 0.228297 0.943334
vt 0.244709 0.943334
vt 0.203825 0.458218
vt 0.203825 0.307961
vt 0.222140 0.307961
vt 0.222140 0.458218
vt 0.590171 0.458192
vt 0.590171 0.307975
vt 0.606583 0.307971
vt 0.606583 0.458188
vt 0.230201 0.458218
vt 0.230201 0.307961
vt 0.248516 0.307961
vt 0.248516 0.458218
vt 0.594558 0.154247
vt 0.594558 0.004030
vt 0.610970 0.004034
vt 0.610970 0.154251
vt 0.961691 0.487988
vt 0.945279 0.487988
vt 0.945279 0.469673
vt 0.961691 0.469673
vt 0.857342 0.405256
vt 0.840931 0.405257
vt 0.840931 0.386941
vt 0.857342 0.386941
vt 0.388454 0.458218
vt 0.388454 0.307961
vt 0.406769 0.307961
vt 0.406769 0.458218
vt 0.453334 0.613186
vt 0.453334 0.462969
vt 0.469746 0.462965
vt 0.469746 0.613182
vt 0.309327 0.458218
vt 0.309327 0.307961
vt 0.327643 0.307961
vt 0.327643 0.458218
vt 0.506085 0.612983
vt 0.506085 0.462766
vt 0.522497 0.462769
vt 0.522497 0.612987
vt 0.971241 0.907972
vt 0.954830 0.907972
vt 0.954830 0.889656
vt 0.971241 0.889656
vt 0.923593 0.964745
vt 0.907182 0.964745
vt 0.907182 0.946430
vt 0.923593 0.946430
vt 0.116996 0.546736
vt 0.116996 0.406163
vt 0.135311 0.406163
vt 0.135311 0.546736
vt 0.309327 0.606818
vt 0.309327 0.466282
vt 0.325739 0.466278
vt 0.325739 0.606814
vt 0.090620 0.546736
vt 0.090620 0.406163
vt 0.108935 0.406163
vt 0.108935 0.546736
vt 0.333800 0.606814
vt 0.333800 0.466278
vt 0.350211 0.466282
vt 0.350211 0.606818
vt 0.681903 0.958429
vt 0.665491 0.958429
vt 0.665491 0.940113
vt 0.681903 0.940114
vt 0.972077 0.937962
vt 0.955666 0.937962
vt 0.955666 0.919647
vt 0.972077 0.919647
vt 0.256576 0.596710
vt 0.256576 0.466278
vt 0.274891 0.466278
vt 0.274891 0.596710
vt 0.667803 0.627408
vt 0.667803 0.497010
vt 0.684214 0.497007
vt 0.684214 0.627404
vt 0.282952 0.596710
vt 0.282952 0.466278
vt 0.301267 0.466278
vt 0.301267 0.596710
vt 0.594558 0.292709
vt 0.594558 0.162311
vt 0.610970 0.162315
vt 0.610970 0.292713
vt 0.972587 0.515322
vt 0.956175 0.515322
vt 0.956175 0.497007
vt 0.972587 0.497007
vt 0.970921 0.353070
vt 0.954509 0.353070
vt 0.954509 0.334755
vt 0.970921 0.334755
vt 0.004030 0.720252
vt 0.004030 0.611902
vt 0.022345 0.611902
vt 0.022345 0.720252
vt 0.741599 0.416296
vt 0.741599 0.307975
vt 0.758011 0.307971
vt 0.758011 0.416292
vt 0.309327 0.723228
vt 0.309327 0.614878
vt 0.327643 0.614879
vt 0.327643 0.723228
vt 0.228297 0.763571
vt 0.228297 0.655250
vt 0.244709 0.655254
vt 0.244709 0.763575
vt 0.972537 0.964745
vt 0.956126 0.964745
vt 0.956126 0.946430
vt 0.972537 0.946430
vt 0.559226 0.963382
vt 0.542815 0.963382
vt 0.542815 0.945067
vt 0.559226 0.945067
vt 0.790313 0.401707
vt 0.790313 0.307971
vt 0.808629 0.307971
vt 0.808629 0.401707
vt 0.641019 0.837623
vt 0.641019 0.743911
vt 0.657431 0.743908
vt 0.657431 0.837619
vt 0.786298 0.260520
vt 0.786298 0.166784
vt 0.804614 0.166785
vt 0.804614 0.260520
vt 0.824736 0.097742
vt 0.824736 0.004030
vt 0.841147 0.004034
vt 0.841147 0.097745
vt 0.954414 0.564992
vt 0.938003 0.564992
vt 0.938003 0.546677
vt 0.954414 0.546677
vt 0.954318 0.103518
vt 0.937906 0.103518
vt 0.937906 0.085202
vt 0.954318 0.085202
vt 0.256576 0.860639
vt 0.256576 0.789245
vt 0.274891 0.789245
vt 0.274891 0.860639
vt 0.869848 0.484900
vt 0.869848 0.413525
vt 0.886260 0.413521
vt 0.886260 0.484896
vt 0.282952 0.860639
vt 0.282952 0.789245
vt 0.301267 0.789245
vt 0.301267 0.860639
vt 0.873450 0.075405
vt 0.873450 0.004030
vt 0.889861 0.004034
vt 0.889861 0.075409
vt 0.747895 0.954575
vt 0.731484 0.954575
vt 0.731484 0.936260
vt 0.747895 0.936260
vt 0.971208 0.665627
vt 0.954796 0.665627
vt 0.954796 0.647312
vt 0.971208 0.647312
vt 0.855926 0.893481
vt 0.855926 0.828969
vt 0.874241 0.828969
vt 0.874241 0.893481
vt 0.453334 0.909952
vt 0.453334 0.845457
vt 0.469746 0.845454
vt 0.469746 0.909949
vt 0.477806 0.894499
vt 0.477806 0.829987
vt 0.496121 0.829987
vt 0.496121 0.894499
vt 0.893622 0.561502
vt 0.893622 0.497007
vt 0.910034 0.497010
vt 0.910034 0.561505
vt 0.948065 0.964745
vt 0.931654 0.964745
vt 0.931654 0.946430
vt 0.948065 0.946430
vt 0.108388 0.961957
vt 0.091976 0.961957
vt 0.091976 0.943642
vt 0.108388 0.943642
vt 0.849208 0.157175
vt 0.849208 0.088385
vt 0.867523 0.088385
vt 0.867523 0.157175
vt 0.614235 0.902567
vt 0.614235 0.833795
vt 0.630647 0.833791
vt 0.630647 0.902563
vt 0.855696 0.716102
vt 0.855696 0.647312
vt 0.874011 0.647312
vt 0.874011 0.716102
vt 0.882710 0.901835
vt 0.882710 0.833063
vt 0.899122 0.833067
vt 0.899122 0.901839
vt 0.073774 0.962204
vt 0.057362 0.962204
vt 0.057362 0.943889
vt 0.073774 0.943889
vt 0.954318 0.129893
vt 0.937906 0.129893
vt 0.937906 0.111578
vt 0.954318 0.111578
vt 0.790313 0.483338
vt 0.790313 0.409768
vt 0.808629 0.409768
vt 0.808629 0.483338
vt 0.867715 0.381526
vt 0.867715 0.307975
vt 0.884126 0.307971
vt 0.884126 0.381522
vt 0.816689 0.487091
vt 0.816689 0.413521
vt 0.835004 0.413521
vt 0.835004 0.487091
vt 0.869150 0.570557
vt 0.869150 0.497007
vt 0.885562 0.497010
vt 0.885562 0.570561
vt 0.586010 0.962892
vt 0.569598 0.962892
vt 0.569598 0.944576
vt 0.586010 0.944576
vt 0.272988 0.963027
vt 0.256576 0.963027
vt 0.256576 0.944711
vt 0.272988 0.944711
vt 0.201922 0.727407
vt 0.201922 0.621048
vt 0.220237 0.621048
vt 0.220237 0.727407
vt 0.758268 0.753647
vt 0.758268 0.647316
vt 0.774679 0.647312
vt 0.774679 0.753643
vt 0.506085 0.727406
vt 0.506085 0.621047
vt 0.524400 0.621047
vt 0.524400 0.727406
vt 0.761826 0.273116
vt 0.761826 0.166784
vt 0.778238 0.166788
vt 0.778238 0.273120
vt 0.963047 0.072013
vt 0.946636 0.072012
vt 0.946636 0.053697
vt 0.963047 0.053697
vt 0.971208 0.692410
vt 0.954797 0.692411
vt 0.954797 0.674095
vt 0.971208 0.674095
vt 0.228297 0.981125
vt 0.228297 0.969710
vt 0.239664 0.970038
vt 0.239664 0.981453
vt 0.630585 0.185005
vt 0.619031 0.184954
vt 0.619031 0.004030
vt 0.630585 0.004081
vt 0.806982 0.980927
vt 0.806982 0.969512
vt 0.818349 0.969184
vt 0.818349 0.980600
vt 0.614643 0.308023
vt 0.626198 0.307971
vt 0.626198 0.488895
vt 0.614643 0.488946
vt 0.645814 0.307971
vt 0.645814 0.488843
vt 0.634258 0.488883
vt 0.634258 0.308011
vt 0.228297 0.647150
vt 0.228297 0.466278
vt 0.239853 0.466317
vt 0.239853 0.647190
vt 0.973869 0.984341
vt 0.973869 0.972806
vt 0.983508 0.973205
vt 0.983508 0.984740
vt 0.664987 0.483717
vt 0.653874 0.481956
vt 0.653874 0.307971
vt 0.664987 0.309732
vt 0.309327 0.985029
vt 0.309327 0.973493
vt 0.318966 0.973094
vt 0.318966 0.984629
vt 0.638645 0.005791
vt 0.649759 0.004030
vt 0.649759 0.178015
vt 0.638645 0.179776
vt 0.414830 0.516359
vt 0.414830 0.307961
vt 0.426021 0.308194
vt 0.426021 0.516592
vt 0.445273 0.307961
vt 0.445273 0.516358
vt 0.434082 0.516592
vt 0.434082 0.308194
vt 0.213387 0.980730
vt 0.201922 0.980565
vt 0.201922 0.969081
vt 0.213387 0.969245
vt 0.722112 0.158646
vt 0.710570 0.158724
vt 0.710570 0.004109
vt 0.722112 0.004030
vt 0.506085 0.968847
vt 0.517550 0.968682
vt 0.517550 0.980167
vt 0.506085 0.980331
vt 0.711882 0.497007
vt 0.723423 0.497085
vt 0.723423 0.651700
vt 0.711882 0.651622
vt 0.692275 0.651955
vt 0.692275 0.497064
vt 0.703822 0.497007
vt 0.703822 0.651897
vt 0.709067 0.308029
vt 0.709067 0.462919
vt 0.697520 0.462862
vt 0.697520 0.307971
vt 0.283360 0.987823
vt 0.283360 0.976278
vt 0.292569 0.975944
vt 0.292569 0.987489
vt 0.836848 0.618426
vt 0.826047 0.616072
vt 0.826047 0.497007
vt 0.836848 0.499361
vt 0.979080 0.042361
vt 0.979080 0.030816
vt 0.988289 0.031149
vt 0.988289 0.042694
vt 0.592482 0.623576
vt 0.603283 0.621222
vt 0.603283 0.740287
vt 0.592483 0.742642
vt 0.731484 0.638659
vt 0.731484 0.497007
vt 0.742720 0.497599
vt 0.742720 0.639251
vt 0.741408 0.004030
vt 0.741408 0.145683
vt 0.730172 0.146275
vt 0.730172 0.004622
vt 0.915862 0.986574
vt 0.907182 0.986653
vt 0.907182 0.972885
vt 0.915862 0.972806
vt 0.697520 0.470980
vt 0.707503 0.471349
vt 0.707503 0.488392
vt 0.697520 0.488023
vt 0.030578 0.971682
vt 0.039258 0.971761
vt 0.039258 0.985530
vt 0.030578 0.985450
vt 0.702258 0.983715
vt 0.692275 0.984084
vt 0.692275 0.967040
vt 0.702258 0.966671
vt 0.651952 0.965027
vt 0.651952 0.979826
vt 0.639115 0.977282
vt 0.639115 0.962483
vt 0.731484 0.979979
vt 0.731484 0.965180
vt 0.744320 0.962636
vt 0.744320 0.977435
vt 0.989562 0.255815
vt 0.981214 0.255735
vt 0.981214 0.243761
vt 0.989562 0.243841
vt 0.974736 0.194613
vt 0.983117 0.195169
vt 0.983117 0.209918
vt 0.974736 0.209362
vt 0.980982 0.085282
vt 0.989330 0.085202
vt 0.989330 0.097176
vt 0.980982 0.097256
vt 0.533991 0.983431
vt 0.525611 0.983987
vt 0.525611 0.969238
vt 0.533991 0.968682
vt 0.970251 0.234175
vt 0.970251 0.219944
vt 0.981212 0.221444
vt 0.981212 0.235676
vt 0.967834 0.444078
vt 0.967834 0.458309
vt 0.956874 0.459810
vt 0.956874 0.445579
vt 0.771036 0.980114
vt 0.758268 0.980345
vt 0.758268 0.962577
vt 0.771036 0.962344
vt 0.962378 0.085202
vt 0.972922 0.086378
vt 0.972922 0.108398
vt 0.962378 0.107222
vt 0.004030 0.962477
vt 0.016798 0.962709
vt 0.016798 0.980478
vt 0.004030 0.980246
vt 0.971019 0.026050
vt 0.960476 0.027226
vt 0.960476 0.005206
vt 0.971019 0.004030
vt 0.837675 0.296956
vt 0.837675 0.275373
vt 0.851440 0.278115
vt 0.851440 0.299699
vt 0.798817 0.874917
vt 0.798817 0.896500
vt 0.785051 0.899243
vt 0.785051 0.877659
vt 0.981560 0.486762
vt 0.969751 0.487988
vt 0.969751 0.469357
vt 0.981560 0.468131
vt 0.912413 0.243795
vt 0.926561 0.243761
vt 0.926561 0.267005
vt 0.912413 0.267039
vt 0.116587 0.961036
vt 0.128396 0.962262
vt 0.128396 0.980893
vt 0.116587 0.979668
vt 0.491954 0.925837
vt 0.477806 0.925804
vt 0.477806 0.902560
vt 0.491954 0.902593
vt 0.829614 0.276634
vt 0.829614 0.296706
vt 0.810902 0.295444
vt 0.810902 0.275373
vt 0.735042 0.294863
vt 0.735042 0.274791
vt 0.753754 0.273529
vt 0.753754 0.293601
vt 0.626750 0.981197
vt 0.614235 0.980066
vt 0.614235 0.963786
vt 0.626750 0.964917
vt 0.594609 0.937411
vt 0.606175 0.939850
vt 0.606175 0.959485
vt 0.594609 0.957046
vt 0.882710 0.964189
vt 0.895225 0.963058
vt 0.895225 0.979338
vt 0.882710 0.980469
vt 0.971354 0.294734
vt 0.959788 0.297174
vt 0.959788 0.277538
vt 0.971354 0.275099
vt 0.907182 0.911238
vt 0.907182 0.889656
vt 0.922527 0.890005
vt 0.922527 0.911586
vt 0.871272 0.901542
vt 0.871272 0.923123
vt 0.855926 0.923472
vt 0.855926 0.901890
vt 0.795130 0.958375
vt 0.782739 0.958465
vt 0.782739 0.936058
vt 0.795130 0.935969
vt 0.786298 0.268581
vt 0.802842 0.269047
vt 0.802842 0.296706
vt 0.786298 0.296239
vt 0.956874 0.413521
vt 0.969264 0.413611
vt 0.969264 0.436017
vt 0.956874 0.435928
vt 0.796447 0.638785
vt 0.779904 0.639251
vt 0.779904 0.611593
vt 0.796447 0.611126
vt 0.645814 0.276388
vt 0.666878 0.272228
vt 0.666878 0.294059
vt 0.645814 0.298219
vt 0.750780 0.613260
vt 0.771844 0.617420
vt 0.771844 0.639251
vt 0.750780 0.635091
vt 0.867887 0.977846
vt 0.855926 0.978892
vt 0.855926 0.959361
vt 0.867887 0.958315
vt 0.929943 0.572558
vt 0.918094 0.568507
vt 0.918094 0.546677
vt 0.929943 0.550727
vt 0.962475 0.546677
vt 0.974436 0.547722
vt 0.974436 0.567253
vt 0.962475 0.566207
vt 0.336111 0.906505
vt 0.347959 0.902455
vt 0.347959 0.924286
vt 0.336111 0.928336
vt 0.816335 0.117268
vt 0.816335 0.140210
vt 0.803036 0.145434
vt 0.803036 0.122492
vt 0.804508 0.634027
vt 0.804508 0.611085
vt 0.817806 0.616309
vt 0.817806 0.639251
vt 0.981460 0.855752
vt 0.989420 0.853362
vt 0.989420 0.863212
vt 0.981460 0.865602
vt 0.975859 0.523382
vt 0.984478 0.524648
vt 0.984478 0.537702
vt 0.975859 0.536436
vt 0.989420 0.845302
vt 0.981460 0.842913
vt 0.981460 0.833063
vt 0.989420 0.835452
vt 0.342419 0.984677
vt 0.333800 0.985943
vt 0.333800 0.972889
vt 0.342419 0.971623
vt 0.943187 0.780904
vt 0.943187 0.794286
vt 0.931193 0.794243
vt 0.931193 0.780862
vt 0.931933 0.537214
vt 0.931933 0.523833
vt 0.943927 0.523790
vt 0.943927 0.537172
vt 0.677517 0.983707
vt 0.665491 0.982817
vt 0.665491 0.966489
vt 0.677517 0.967379
vt 0.960391 0.581361
vt 0.972102 0.582880
vt 0.972102 0.602736
vt 0.960391 0.601217
vt 0.782739 0.967415
vt 0.794765 0.966525
vt 0.794765 0.982853
vt 0.782739 0.983743
vt 0.972102 0.630652
vt 0.960391 0.632170
vt 0.960391 0.612315
vt 0.972102 0.610796
vt 0.927486 0.276258
vt 0.927486 0.297005
vt 0.912413 0.295846
vt 0.912413 0.275099
vt 0.004030 0.928041
vt 0.004030 0.907294
vt 0.019102 0.906135
vt 0.019102 0.926882
vt 0.990309 0.126277
vt 0.981595 0.127508
vt 0.981595 0.117689
vt 0.990309 0.116458
vt 0.350479 0.973600
vt 0.358381 0.971624
vt 0.358381 0.984874
vt 0.350479 0.986851
vt 0.335703 0.713093
vt 0.344417 0.714323
vt 0.344417 0.724142
vt 0.335703 0.722911
vt 0.374343 0.986851
vt 0.366441 0.984874
vt 0.366441 0.971624
vt 0.374343 0.973600
vt 0.926022 0.234124
vt 0.926022 0.220351
vt 0.937645 0.221465
vt 0.937645 0.235238
vt 0.967798 0.523382
vt 0.967798 0.537155
vt 0.956175 0.538269
vt 0.956175 0.524496
vt 0.988542 0.956942
vt 0.980598 0.959361
vt 0.980598 0.948849
vt 0.988542 0.946430
vt 0.923922 0.972806
vt 0.933137 0.972874
vt 0.933137 0.985395
vt 0.923922 0.985327
vt 0.980647 0.497007
vt 0.988591 0.499426
vt 0.988591 0.509938
vt 0.980647 0.507519
vt 0.835082 0.639183
vt 0.825867 0.639251
vt 0.825867 0.626731
vt 0.835082 0.626662
vt 0.962191 0.220965
vt 0.962191 0.235379
vt 0.950264 0.234358
vt 0.950264 0.219944
vt 0.865403 0.405257
vt 0.865403 0.390842
vt 0.877330 0.389821
vt 0.877330 0.404235
vt 0.710318 0.968816
vt 0.720681 0.966671
vt 0.720681 0.980268
vt 0.710318 0.982412
vt 0.972781 0.138937
vt 0.982787 0.140186
vt 0.982787 0.158705
vt 0.972781 0.157456
vt 0.180518 0.982546
vt 0.170155 0.980402
vt 0.170155 0.966805
vt 0.180518 0.968949
vt 0.984742 0.185304
vt 0.974736 0.186553
vt 0.974736 0.168034
vt 0.984742 0.166784
vt 0.973153 0.243761
vt 0.973153 0.260004
vt 0.958864 0.262722
vt 0.958864 0.246479
vt 0.956985 0.377821
vt 0.956985 0.361579
vt 0.971275 0.364297
vt 0.971275 0.380539
vt 0.723274 0.929227
vt 0.716517 0.925798
vt 0.716517 0.913512
vt 0.723274 0.916942
vt 0.936234 0.031029
vt 0.946504 0.030814
vt 0.946504 0.044877
vt 0.936234 0.045092
vt 0.980162 0.614226
vt 0.986920 0.610796
vt 0.986920 0.623082
vt 0.980162 0.626511
vt 0.961517 0.795141
vt 0.951247 0.794926
vt 0.951247 0.780862
vt 0.961517 0.781077
vt 0.843639 0.968809
vt 0.843639 0.983133
vt 0.831454 0.979696
vt 0.831454 0.965372
vt 0.971108 0.071459
vt 0.971108 0.057135
vt 0.983293 0.053697
vt 0.983293 0.068021
vt 0.995970 0.791507
vt 0.988794 0.792795
vt 0.988794 0.782150
vt 0.995970 0.780862
vt 0.941198 0.972806
vt 0.949473 0.973145
vt 0.949473 0.986556
vt 0.941198 0.986216
vt 0.982497 0.546677
vt 0.989672 0.547965
vt 0.989672 0.558610
vt 0.982497 0.557321
vt 0.965809 0.986216
vt 0.957533 0.986556
vt 0.957533 0.973145
vt 0.965809 0.972806
vt 0.973535 0.116489
vt 0.973535 0.128631
vt 0.962378 0.128600
vt 0.962378 0.116458
vt 0.969577 0.793034
vt 0.969577 0.780892
vt 0.980734 0.780862
vt 0.980734 0.793003
vt 0.785051 0.810252
vt 0.785051 0.761707
vt 0.790830 0.761707
vt 0.790830 0.810252
vt 0.256576 0.781185
vt 0.256576 0.732653
vt 0.298184 0.732644
vt 0.298184 0.781175
vt 0.336111 0.837789
vt 0.336111 0.789245
vt 0.341890 0.789245
vt 0.341890 0.837789
vt 0.717127 0.481513
vt 0.717127 0.432981
vt 0.758735 0.432991
vt 0.758735 0.481523
vt 0.928173 0.004030
vt 0.928173 0.045637
vt 0.922394 0.045637
vt 0.922394 0.004030
vt 0.918793 0.455128
vt 0.918793 0.413521
vt 0.924572 0.413521
vt 0.924572 0.455128
vt 0.335703 0.705032
vt 0.335703 0.614879
vt 0.341482 0.614878
vt 0.341482 0.705032
vt 0.147223 0.398102
vt 0.147223 0.307972
vt 0.195765 0.307961
vt 0.195765 0.398091
vt 0.597504 0.840856
vt 0.597504 0.750702
vt 0.603283 0.750702
vt 0.603283 0.840856
vt 0.090620 0.398091
vt 0.090620 0.307961
vt 0.139162 0.307972
vt 0.139162 0.398102
vt 0.603283 0.848916
vt 0.603283 0.897457
vt 0.597504 0.897457
vt 0.597504 0.848916
vt 0.716747 0.898424
vt 0.716747 0.849883
vt 0.722526 0.849883
vt 0.722526 0.898424
vt 0.785051 0.866857
vt 0.785051 0.818312
vt 0.790830 0.818312
vt 0.790830 0.866856
vt 0.032890 0.765898
vt 0.032890 0.717366
vt 0.074497 0.717357
vt 0.074497 0.765889
vt 0.336111 0.894394
vt 0.336111 0.845850
vt 0.341890 0.845850
vt 0.341890 0.894394
vt 0.307194 0.781175
vt 0.307194 0.732644
vt 0.348801 0.732653
vt 0.348801 0.781185
vt 0.924683 0.361578
vt 0.924683 0.403185
vt 0.918904 0.403185
vt 0.918904 0.361578
vt 0.921021 0.874669
vt 0.921021 0.833063
vt 0.926800 0.833063
vt 0.926800 0.874669
vt 0.439071 0.814624
vt 0.439071 0.766080
vt 0.444851 0.766080
vt 0.444851 0.814624
vt 0.542815 0.782311
vt 0.542815 0.733779
vt 0.584422 0.733770
vt 0.584422 0.782302
vt 0.766795 0.481526
vt 0.766795 0.432981
vt 0.772574 0.432981
vt 0.772574 0.481526
vt 0.358272 0.770610
vt 0.358272 0.722078
vt 0.399879 0.722088
vt 0.399879 0.770620
vt 0.929846 0.085202
vt 0.929846 0.126809
vt 0.924067 0.126809
vt 0.924067 0.085202
vt 0.922309 0.622968
vt 0.922309 0.581361
vt 0.928088 0.581362
vt 0.928088 0.622968
vt 0.143371 0.748858
vt 0.143371 0.700314
vt 0.184981 0.700314
vt 0.184981 0.748858
vt 0.907182 0.881596
vt 0.907182 0.833064
vt 0.912961 0.833063
vt 0.912961 0.881595
vt 0.092206 0.740031
vt 0.092206 0.691486
vt 0.133816 0.691486
vt 0.133816 0.740031
vt 0.912183 0.215316
vt 0.912183 0.166784
vt 0.917962 0.166786
vt 0.917962 0.215317
vt 0.923873 0.538616
vt 0.918094 0.538616
vt 0.918094 0.497007
vt 0.923873 0.497007
vt 0.922207 0.349581
vt 0.916429 0.349581
vt 0.916429 0.307971
vt 0.922207 0.307971
s 0
f 1/1/1 2/2/1 4/3/1 3/4/1
f 3/5/2 4/6/2 8/7/2 7/8/2
f 7/9/3 8/10/3 6/11/3 5/12/3
f 5/13/4 6/14/4 2/15/4 1/16/4
f 3/17/5 7/18/5 5/19/5 1/20/5
f 8/21/6 4/22/6 2/23/6 6/24/6
f 9/25/1 10/26/1 12/27/1 11/28/1
f 11/29/2 12/30/2 16/31/2 15/32/2
f 15/33/3 16/34/3 14/35/3 13/36/3
f 13/37/4 14/38/4 10/39/4 9/40/4
f 11/41/5 15/42/5 13/43/5 9/44/5
f 16/45/6 12/46/6 10/47/6 14/48/6
f 17/49/1 18/50/1 20/51/1 19/52/1
f 19/53/2 20/54/2 24/55/2 23/56/2
f 23/57/3 24/58/3 22/59/3 21/60/3
f 21/61/4 22/62/4 18/63/4 17/64/4
f 19/65/5 23/66/5 21/67/5 17/68/5
f 24/69/6 20/70/6 18/71/6 22/72/6
f 25/73/1 26/74/1 28/75/1 27/76/1
f 27/77/2 28/78/2 32/79/2 31/80/2
f 31/81/3 32/82/3 30/83/3 29/84/3
f 29/85/4 30/86/4 26/87/4 25/88/4
f 27/89/5 31/90/5 29/91/5 25/92/5
f 32/93/6 28/94/6 26/95/6 30/96/6
f 33/97/1 34/98/1 36/99/1 35/100/1
f 35/101/2 36/102/2 40/103/2 39/104/2
f 39/105/3 40/106/3 38/107/3 37/108/3
f 37/109/4 38/110/4 34/111/4 33/112/4
f 35/113/5 39/114/5 37/115/5 33/116/5
f 40/117/6 36/118/6 34/119/6 38/120/6
f 41/121/1 42/122/1 44/123/1 43/124/1
f 43/125/2 44/126/2 48/127/2 47/128/2
f 47/129/3 48/130/3 46/131/3 45/132/3
f 45/133/4 46/134/4 42/135/4 41/136/4
f 43/137/5 47/138/5 45/139/5 41/140/5
f 48/141/6 44/142/6 42/143/6 46/144/6
f 49/145/1 50/146/1 52/147/1 51/148/1
f 51/149/2 52/150/2 56/151/2 55/152/2
f 55/153/3 56/154/3 54/155/3 53/156/3
f 53/157/4 54/158/4 50/159/4 49/160/4
f 51/161/5 55/162/5 53/163/5 49/164/5
f 56/165/6 52/166/6 50/167/6 54/168/6
f 57/169/1 58/170/1 60/171/1 59/172/1
f 59/173/2 60/174/2 64/175/2 63/176/2
f 63/177/3 64/178/3 62/179/3 61/180/3
f 61/181/4 62/182/4 58/183/4 57/184/4
f 59/185/5 63/186/5 61/187/5 57/188/5
f 64/189/6 60/190/6 58/191/6 62/192/6
f 65/193/1 66/194/1 68/195/1 67/196/1
f 67/197/2 68/198/2 72/199/2 71/200/2
f 71/201/3 72/202/3 70/203/3 69/204/3
f 69/205/4 70/206/4 66/207/4 65/208/4
f 67/209/5 71/210/5 69/211/5 65/212/5
f 72/213/6 68/214/6 66/215/6 70/216/6
f 73/217/1 74/218/1 76/219/1 75/220/1
f 75/221/2 76/222/2 80/223/2 79/224/2
f 79/225/3 80/226/3 78/227/3 77/228/3
f 77/229/4 78/230/4 74/231/4 73/232/4
f 75/233/5 79/234/5 77/235/5 73/236/5
f 80/237/6 76/238/6 74/239/6 78/240/6
f 81/241/1 82/242/1 84/243/1 83/244/1
f 83/245/2 84/246/2 88/247/2 87/248/2
f 87/249/3 88/250/3 86/251/3 85/252/3
f 85/253/4 86/254/4 82/255/4 81/256/4
f 83/257/5 87/258/5 85/259/5 81/260/5
f 88/261/6 84/262/6 82/263/6 86/264/6
f 89/265/1 90/266/1 92/267/1 91/268/1
f 91/269/2 92/270/2 96/271/2 95/272/2
f 95/273/3 96/274/3 94/275/3 93/276/3
f 93/277/4 94/278/4 90/279/4 89/280/4
f 91/281/5 95/282/5 93/283/5 89/284/5
f 96/285/6 92/286/6 90/287/6 94/288/6
f 97/289/1 98/290/1 100/291/1 99/292/1
f 99/293/2 100/294/2 104/295/2 103/296/2
f 103/297/3 104/298/3 102/299/3 101/300/3
f 101/301/4 102/302/4 98/303/4 97/304/4
f 99/305/5 103/306/5 101/307/5 97/308/5
f 104/309/6 100/310/6 98/311/6 102/312/6
f 105/313/1 106/314/1 108/315/1 107/316/1
f 107/317/2 108/318/2 112/319/2 111/320/2
f 111/321/3 112/322/3 110/323/3 109/324/3
f 109/325/4 110/326/4 106/327/4 105/328/4
f 107/329/5 111/330/5 109/331/5 105/332/5
f 112/333/6 108/334/6 106/335/6 110/336/6
f 113/337/1 114/338/1 116/339/1 115/340/1
f 115/341/2 116/342/2 120/343/2 119/344/2
f 119/345/3 120/346/3 118/347/3 117/348/3
f 117/349/4 118/350/4 114/351/4 113/352/4
f 115/353/5 119/354/5 117/355/5 113/356/5
f 120/357/6 116/358/6 114/359/6 118/360/6
f 121/361/1 122/362/1 124/363/1 123/364/1
f 123/365/2 124/366/2 128/367/2 127/368/2
f 127/369/3 128/370/3 126/371/3 125/372/3
f 125/373/4 126/374/4 122/375/4 121/376/4
f 123/377/5 127/378/5 125/379/5 121/380/5
f 128/381/6 124/382/6 122/383/6 126/384/6
f 129/385/1 130/386/1 132/387/1 131/388/1
f 131/389/2 132/390/2 136/391/2 135/392/2
f 135/393/3 136/394/3 134/395/3 133/396/3
f 133/397/4 134/398/4 130/399/4 129/400/4
f 131/401/5 135/402/5 133/403/5 129/404/5
f 136/405/6 132/406/6 130/407/6 134/408/6
f 137/409/1 138/410/1 140/411/1 139/412/1
f 139/413/2 140/414/2 144/415/2 143/416/2
f 143/417/3 144/418/3 142/419/3 141/420/3
f 141/421/4 142/422/4 138/423/4 137/424/4
f 139/425/5 143/426/5 141/427/5 137/428/5
f 144/429/6 140/430/6 138/431/6 142/432/6
f 145/433/1 146/434/1 148/435/1 147/436/1
f 147/437/2 148/438/2 152/439/2 151/440/2
f 151/441/3 152/442/3 150/443/3 149/444/3
f 149/445/4 150/446/4 146/447/4 145/448/4
f 147/449/5 151/450/5 149/451/5 145/452/5
f 152/453/6 148/454/6 146/455/6 150/456/6
f 153/457/1 154/458/1 156/459/1 155/460/1
f 155/461/2 156/462/2 160/463/2 159/464/2
f 159/465/3 160/466/3 158/467/3 157/468/3
f 157/469/4 158/470/4 154/471/4 153/472/4
f 155/473/5 159/474/5 157/475/5 153/476/5
f 160/477/6 156/478/6 154/479/6 158/480/6
f 161/481/1 162/482/1 164/483/1 163/484/1
f 163/485/2 164/486/2 168/487/2 167/488/2
f 167/489/3 168/490/3 166/491/3 165/492/3
f 165/493/4 166/494/4 162/495/4 161/496/4
f 163/497/5 167/498/5 165/499/5 161/500/5
f 168/501/6 164/502/6 162/503/6 166/504/6
f 169/505/1 170/506/1 172/507/1 171/508/1
f 171/509/2 172/510/2 176/511/2 175/512/2
f 175/513/3 176/514/3 174/515/3 173/516/3
f 173/517/4 174/518/4 170/519/4 169/520/4
f 171/521/5 175/522/5 173/523/5 169/524/5
f 176/525/6 172/526/6 170/527/6 174/528/6
f 177/529/1 178/530/1 180/531/1 179/532/1
f 179/533/2 180/534/2 184/535/2 183/536/2
f 183/537/3 184/538/3 182/539/3 181/540/3
f 181/541/4 182/542/4 178/543/4 177/544/4
f 179/545/5 183/546/5 181/547/5 177/548/5
f 184/549/6 180/550/6 178/551/6 182/552/6
f 185/553/1 186/554/1 188/555/1 187/556/1
f 187/557/2 188/558/2 192/559/2 191/560/2
f 191/561/3 192/562/3 190/563/3 189/564/3
f 189/565/4 190/566/4 186/567/4 185/568/4
f 187/569/5 191/570/5 189/571/5 185/572/5
f 192/573/6 188/574/6 186/575/6 190/576/6
f 193/577/1 194/578/1 196/579/1 195/580/1
f 195/581/2 196/582/2 200/583/2 199/584/2
f 199/585/3 200/586/3 198/587/3 197/588/3
f 197/589/4 198/590/4 194/591/4 193/592/4
f 195/593/5 199/594/5 197/595/5 193/596/5
f 200/597/6 196/598/6 194/599/6 198/600/6
f 201/601/1 202/602/1 204/603/1 203/604/1
f 203/605/2 204/606/2 208/607/2 207/608/2
f 207/609/3 208/610/3 206/611/3 205/612/3
f 205/613/4 206/614/4 202/615/4 201/616/4
f 203/617/5 207/618/5 205/619/5 201/620/5
f 208/621/6 204/622/6 202/623/6 206/624/6
f 209/625/1 210/626/1 212/627/1 211/628/1
f 211/629/2 212/630/2 216/631/2 215/632/2
f 215/633/3 216/634/3 214/635/3 213/636/3
f 213/637/4 214/638/4 210/639/4 209/640/4
f 211/641/5 215/642/5 213/643/5 209/644/5
f 216/645/6 212/646/6 210/647/6 214/648/6
f 217/649/1 218/650/1 220/651/1 219/652/1
f 219/653/2 220/654/2 224/655/2 223/656/2
f 223/657/3 224/658/3 222/659/3 221/660/3
f 221/661/4 222/662/4 218/663/4 217/664/4
f 219/665/5 223/666/5 221/667/5 217/668/5
f 224/669/6 220/670/6 218/671/6 222/672/6
f 225/673/1 226/674/1 228/675/1 227/676/1
f 227/677/2 228/678/2 232/679/2 231/680/2
f 231/681/3 232/682/3 230/683/3 229/684/3
f 229/685/4 230/686/4 226/687/4 225/688/4
f 227/689/5 231/690/5 229/691/5 225/692/5
f 232/693/6 228/694/6 226/695/6 230/696/6
f 233/697/1 234/698/1 236/699/1 235/700/1
f 235/701/2 236/702/2 240/703/2 239/704/2
f 239/705/3 240/706/3 238/707/3 237/708/3
f 237/709/4 238/710/4 234/711/4 233/712/4
f 235/713/5 239/714/5 237/715/5 233/716/5
f 240/717/6 236/718/6 234/719/6 238/720/6
f 241/721/1 242/722/1 244/723/1 243/724/1
f 243/725/2 244/726/2 248/727/2 247/728/2
f 247/729/3 248/730/3 246/731/3 245/732/3
f 245/733/4 246/734/4 242/735/4 241/736/4
f 243/737/5 247/738/5 245/739/5 241/740/5
f 248/741/6 244/742/6 242/743/6 246/744/6
f 249/745/1 250/746/1 252/747/1 251/748/1
f 251/749/2 252/750/2 256/751/2 255/752/2
f 255/753/3 256/754/3 254/755/3 253/756/3
f 253/757/4 254/758/4 250/759/4 249/760/4
f 251/761/5 255/762/5 253/763/5 249/764/5
f 256/765/6 252/766/6 250/767/6 254/768/6
f 257/769/1 258/770/1 260/771/1 259/772/1
f 259/773/2 260/774/2 264/775/2 263/776/2
f 263/777/3 264/778/3 262/779/3 261/780/3
f 261/781/4 262/782/4 258/783/4 257/784/4
f 259/785/5 263/786/5 261/787/5 257/788/5
f 264/789/6 260/790/6 258/791/6 262/792/6
f 265/793/1 266/794/1 268/795/1 267/796/1
f 267/797/2 268/798/2 272/799/2 271/800/2
f 271/801/3 272/802/3 270/803/3 269/804/3
f 269/805/4 270/806/4 266/807/4 265/808/4
f 267/809/5 271/810/5 269/811/5 265/812/5
f 272/813/6 268/814/6 266/815/6 270/816/6
f 273/817/1 274/818/1 276/819/1 275/820/1
f 275/821/2 276/822/2 280/823/2 279/824/2
f 279/825/3 280/826/3 278/827/3 277/828/3
f 277/829/4 278/830/4 274/831/4 273/832/4
f 275/833/5 279/834/5 277/835/5 273/836/5
f 280/837/6 276/838/6 274/839/6 278/840/6
f 281/841/1 282/842/1 284/843/1 283/844/1
f 283/845/2 284/846/2 288/847/2 287/848/2
f 287/849/3 288/850/3 286/851/3 285/852/3
f 285/853/4 286/854/4 282/855/4 281/856/4
f 283/857/5 287/858/5 285/859/5 281/860/5
f 288/861/6 284/862/6 282/863/6 286/864/6
f 289/865/1 290/866/1 292/867/1 291/868/1
f 291/869/2 292/870/2 296/871/2 295/872/2
f 295/873/3 296/874/3 294/875/3 293/876/3
f 293/877/4 294/878/4 290/879/4 289/880/4
f 291/881/5 295/882/5 293/883/5 289/884/5
f 296/885/6 292/886/6 290/887/6 294/888/6
f 297/889/1 298/890/1 300/891/1 299/892/1
f 299/893/2 300/894/2 304/895/2 303/896/2
f 303/897/3 304/898/3 302/899/3 301/900/3
f 301/901/4 302/902/4 298/903/4 297/904/4
f 299/905/5 303/906/5 301/907/5 297/908/5
f 304/909/6 300/910/6 298/911/6 302/912/6
f 305/913/1 306/914/1 308/915/1 307/916/1
f 307/917/2 308/918/2 312/919/2 311/920/2
f 311/921/3 312/922/3 310/923/3 309/924/3
f 309/925/4 310/926/4 306/927/4 305/928/4
f 307/929/5 311/930/5 309/931/5 305/932/5
f 312/933/6 308/934/6 306/935/6 310/936/6
f 313/937/1 314/938/1 316/939/1 315/940/1
f 315/941/2 316/942/2 320/943/2 319/944/2
f 319/945/3 320/946/3 318/947/3 317/948/3
f 317/949/4 318/950/4 314/951/4 313/952/4
f 315/953/5 319/954/5 317/955/5 313/956/5
f 320/957/6 316/958/6 314/959/6 318/960/6
f 321/961/1 322/962/1 324/963/1 323/964/1
f 323/965/2 324/966/2 328/967/2 327/968/2
f 327/969/3 328/970/3 326/971/3 325/972/3
f 325/973/4 326/974/4 322/975/4 321/976/4
f 323/977/5 327/978/5 325/979/5 321/980/5
f 328/981/6 324/982/6 322/983/6 326/984/6
f 329/985/1 330/986/1 332/987/1 331/988/1
f 331/989/2 332/990/2 336/991/2 335/992/2
f 335/993/3 336/994/3 334/995/3 333/996/3
f 333/997/4 334/998/4 330/999/4 329/1000/4
f 331/1001/5 335/1002/5 333/1003/5 329/1004/5
f 336/1005/6 332/1006/6 330/1007/6 334/1008/6
f 337/1009/1 338/1010/1 340/1011/1 339/1012/1
f 339/1013/2 340/1014/2 344/1015/2 343/1016/2
f 343/1017/3 344/1018/3 342/1019/3 341/1020/3
f 341/1021/4 342/1022/4 338/1023/4 337/1024/4
f 339/1025/5 343/1026/5 341/1027/5 337/1028/5
f 344/1029/6 340/1030/6 338/1031/6 342/1032/6
f 345/1033/1 346/1034/1 348/1035/1 347/1036/1
f 347/1037/2 348/1038/2 352/1039/2 351/1040/2
f 351/1041/3 352/1042/3 350/1043/3 349/1044/3
f 349/1045/4 350/1046/4 346/1047/4 345/1048/4
f 347/1049/5 351/1050/5 349/1051/5 345/1052/5
f 352/1053/6 348/1054/6 346/1055/6 350/1056/6
f 353/1057/1 354/1058/1 356/1059/1 355/1060/1
f 355/1061/2 356/1062/2 360/1063/2 359/1064/2
f 359/1065/3 360/1066/3 358/1067/3 357/1068/3
f 357/1069/4 358/1070/4 354/1071/4 353/1072/4
f 355/1073/5 359/1074/5 357/1075/5 353/1076/5
f 360/1077/6 356/1078/6 354/1079/6 358/1080/6
f 361/1081/1 362/1082/1 364/1083/1 363/1084/1
f 363/1085/2 364/1086/2 368/1087/2 367/1088/2
f 367/1089/3 368/1090/3 366/1091/3 365/1092/3
f 365/1093/4 366/1094/4 362/1095/4 361/1096/4
f 363/1097/5 367/1098/5 365/1099/5 361/1100/5
f 368/1101/6 364/1102/6 362/1103/6 366/1104/6
f 369/1105/1 370/1106/1 372/1107/1 371/1108/1
f 371/1109/2 372/1110/2 376/1111/2 375/1112/2
f 375/1113/3 376/1114/3 374/1115/3 373/1116/3
f 373/1117/4 374/1118/4 370/1119/4 369/1120/4
f 371/1121/5 375/1122/5 373/1123/5 369/1124/5
f 376/1125/6 372/1126/6 370/1127/6 374/1128/6
f 377/1129/1 378/1130/1 380/1131/1 379/1132/1
f 379/1133/2 380/1134/2 384/1135/2 383/1136/2
f 383/1137/3 384/1138/3 382/1139/3 381/1140/3
f 381/1141/4 382/1142/4 378/1143/4 377/1144/4
f 379/1145/5 383/1146/5 381/1147/5 377/1148/5
f 384/1149/6 380/1150/6 378/1151/6 382/1152/6
f 385/1153/1 386/1154/1 388/1155/1 387/1156/1
f 387/1157/2 388/1158/2 392/1159/2 391/1160/2
f 391/1161/3 392/1162/3 390/1163/3 389/1164/3
f 389/1165/4 390/1166/4 386/1167/4 385/1168/4
f 387/1169/5 391/1170/5 389/1171/5 385/1172/5
f 392/1173/6 388/1174/6 386/1175/6 390/1176/6
f 393/1177/1 394/1178/1 396/1179/1 395/1180/1
f 395/1181/2 396/1182/2 400/1183/2 399/1184/2
f 399/1185/3 400/1186/3 398/1187/3 397/1188/3
f 397/1189/4 398/1190/4 394/1191/4 393/1192/4
f 395/1193/5 399/1194/5 397/1195/5 393/1196/5
f 400/1197/6 396/1198/6 394/1199/6 398/1200/6
f 401/1201/1 402/1202/1 404/1203/1 403/1204/1
f 403/1205/2 404/1206/2 408/1207/2 407/1208/2
f 407/1209/3 408/1210/3 406/1211/3 405/1212/3
f 405/1213/4 406/1214/4 402/1215/4 401/1216/4
f 403/1217/5 407/1218/5 405/1219/5 401/1220/5
f 408/1221/6 404/1222/6 402/1223/6 406/1224/6
f 409/1225/1 410/1226/1 412/1227/1 411/1228/1
f 411/1229/2 412/1230/2 416/1231/2 415/1232/2
f 415/1233/3 416/1234/3 414/1235/3 413/1236/3
f 413/1237/4 414/1238/4 410/1239/4 409/1240/4
f 411/1241/5 415/1242/5 413/1243/5 409/1244/5
f 416/1245/6 412/1246/6 410/1247/6 414/1248/6
f 417/1249/1 418/1250/1 420/1251/1 419/1252/1
f 419/1253/2 420/1254/2 424/1255/2 423/1256/2
f 423/1257/3 424/1258/3 422/1259/3 421/1260/3
f 421/1261/4 422/1262/4 418/1263/4 417/1264/4
f 419/1265/5 423/1266/5 421/1267/5 417/1268/5
f 424/1269/6 420/1270/6 418/1271/6 422/1272/6
f 425/1273/1 426/1274/1 428/1275/1 427/1276/1
f 427/1277/2 428/1278/2 432/1279/2 431/1280/2
f 431/1281/3 432/1282/3 430/1283/3 429/1284/3
f 429/1285/4 430/1286/4 426/1287/4 425/1288/4
f 427/1289/5 431/1290/5 429/1291/5 425/1292/5
f 432/1293/6 428/1294/6 426/1295/6 430/1296/6
f 433/1297/1 434/1298/1 436/1299/1 435/1300/1
f 435/1301/2 436/1302/2 440/1303/2 439/1304/2
f 439/1305/3 440/1306/3 438/1307/3 437/1308/3
f 437/1309/4 438/1310/4 434/1311/4 433/1312/4
f 435/1313/5 439/1314/5 437/1315/5 433/1316/5
f 440/1317/6 436/1318/6 434/1319/6 438/1320/6
f 441/1321/1 442/1322/1 444/1323/1 443/1324/1
f 443/1325/2 444/1326/2 448/1327/2 447/1328/2
f 447/1329/3 448/1330/3 446/1331/3 445/1332/3
f 445/1333/4 446/1334/4 442/1335/4 441/1336/4
f 443/1337/5 447/1338/5 445/1339/5 441/1340/5
f 448/1341/6 444/1342/6 442/1343/6 446/1344/6
f 449/1345/1 450/1346/1 452/1347/1 451/1348/1
f 451/1349/2 452/1350/2 456/1351/2 455/1352/2
f 455/1353/3 456/1354/3 454/1355/3 453/1356/3
f 453/1357/4 454/1358/4 450/1359/4 449/1360/4
f 451/1361/5 455/1362/5 453/1363/5 449/1364/5
f 456/1365/6 452/1366/6 450/1367/6 454/1368/6
f 457/1369/7 458/1370/7 460/1371/7 459/1372/7
f 459/1373/8 460/1374/8 464/1375/8 463/1376/8
f 463/1377/9 464/1378/9 462/1379/9 461/1380/9
f 461/1381/10 462/1382/10 458/1383/10 457/1384/10
f 459/1385/11 463/1386/11 461/1387/11 457/1388/11
f 464/1389/12 460/1390/12 458/1391/12 462/1392/12
f 465/1393/13 466/1394/13 468/1395/13 467/1396/13
f 467/1397/14 468/1398/14 472/1399/14 471/1400/14
f 471/1401/15 472/1402/15 470/1403/15 469/1404/15
f 469/1405/16 470/1406/16 466/1407/16 465/1408/16
f 467/1409/17 471/1410/17 469/1411/17 465/1412/17
f 472/1413/18 468/1414/18 466/1415/18 470/1416/18
f 473/1417/19 474/1418/19 476/1419/19 475/1420/19
f 475/1421/20 476/1422/20 480/1423/20 479/1424/20
f 479/1425/21 480/1426/21 478/1427/21 477/1428/21
f 477/1429/22 478/1430/22 474/1431/22 473/1432/22
f 475/1433/23 479/1434/23 477/1435/23 473/1436/23
f 480/1437/24 476/1438/24 474/1439/24 478/1440/24
f 481/1441/25 482/1442/25 484/1443/25 483/1444/25
f 483/1445/26 484/1446/26 488/1447/26 487/1448/26
f 487/1449/27 488/1450/27 486/1451/27 485/1452/27
f 485/1453/28 486/1454/28 482/1455/28 481/1456/28
f 483/1457/29 487/1458/29 485/1459/29 481/1460/29
f 488/1461/30 484/1462/30 482/1463/30 486/1464/30
f 489/1465/31 490/1466/31 492/1467/31 491/1468/31
f 491/1469/32 492/1470/32 496/1471/32 495/1472/32
f 495/1473/33 496/1474/33 494/1475/33 493/1476/33
f 493/1477/34 494/1478/34 490/1479/34 489/1480/34
f 491/1481/35 495/1482/35 493/1483/35 489/1484/35
f 496/1485/36 492/1486/36 490/1487/36 494/1488/36
f 497/1489/37 498/1490/37 500/1491/37 499/1492/37
f 499/1493/38 500/1494/38 504/1495/38 503/1496/38
f 503/1497/39 504/1498/39 502/1499/39 501/1500/39
f 501/1501/40 502/1502/40 498/1503/40 497/1504/40
f 499/1505/41 503/1506/41 501/1507/41 497/1508/41
f 504/1509/42 500/1510/42 498/1511/42 502/1512/42
f 505/1513/43 506/1514/43 508/1515/43 507/1516/43
f 507/1517/44 508/1518/44 512/1519/44 511/1520/44
f 511/1521/45 512/1522/45 510/1523/45 509/1524/45
f 509/1525/46 510/1526/46 506/1527/46 505/1528/46
f 507/1529/47 511/1530/47 509/1531/47 505/1532/47
f 512/1533/48 508/1534/48 506/1535/48 510/1536/48
f 513/1537/49 514/1538/49 516/1539/49 515/1540/49
f 515/1541/50 516/1542/50 520/1543/50 519/1544/50
f 519/1545/51 520/1546/51 518/1547/51 517/1548/51
f 517/1549/52 518/1550/52 514/1551/52 513/1552/52
f 515/1553/53 519/1554/53 517/1555/53 513/1556/53
f 520/1557/54 516/1558/54 514/1559/54 518/1560/54
f 521/1561/55 522/1562/55 524/1563/55 523/1564/55
f 523/1565/56 524/1566/56 528/1567/56 527/1568/56
f 527/1569/57 528/1570/57 526/1571/57 525/1572/57
f 525/1573/58 526/1574/58 522/1575/58 521/1576/58
f 523/1577/59 527/1578/59 525/1579/59 521/1580/59
f 528/1581/60 524/1582/60 522/1583/60 526/1584/60
f 529/1585/61 530/1586/61 532/1587/61 531/1588/61
f 531/1589/62 532/1590/62 536/1591/62 535/1592/62
f 535/1593/63 536/1594/63 534/1595/63 533/1596/63
f 533/1597/64 534/1598/64 530/1599/64 529/1600/64
f 531/1601/65 535/1602/65 533/1603/65 529/1604/65
f 536/1605/66 532/1606/66 530/1607/66 534/1608/66
f 537/1609/67 538/1610/67 540/1611/67 539/1612/67
f 539/1613/68 540/1614/68 544/1615/68 543/1616/68
f 543/1617/69 544/1618/69 542/1619/69 541/1620/69
f 541/1621/70 542/1622/70 538/1623/70 537/1624/70
f 539/1625/71 543/1626/71 541/1627/71 537/1628/71
f 544/1629/72 540/1630/72 538/1631/72 542/1632/72
f 545/1633/73 546/1634/73 548/1635/73 547/1636/73
f 547/1637/74 548/1638/74 552/1639/74 551/1640/74
f 551/1641/75 552/1642/75 550/1643/75 549/1644/75
f 549/1645/76 550/1646/76 546/1647/76 545/1648/76
f 547/1649/77 551/1650/77 549/1651/77 545/1652/77
f 552/1653/78 548/1654/78 546/1655/78 550/1656/78
f 553/1657/79 554/1658/79 556/1659/79 555/1660/79
f 555/1661/80 556/1662/80 560/1663/80 559/1664/80
f 559/1665/81 560/1666/81 558/1667/81 557/1668/81
f 557/1669/82 558/1670/82 554/1671/82 553/1672/82
f 555/1673/83 559/1674/83 557/1675/83 553/1676/83
f 560/1677/84 556/1678/84 554/1679/84 558/1680/84
f 561/1681/85 562/1682/85 564/1683/85 563/1684/85
f 563/1685/86 564/1686/86 568/1687/86 567/1688/86
f 567/1689/87 568/1690/87 566/1691/87 565/1692/87
f 565/1693/88 566/1694/88 562/1695/88 561/1696/88
f 563/1697/89 567/1698/89 565/1699/89 561/1700/89
f 568/1701/90 564/1702/90 562/1703/90 566/1704/90
f 569/1705/91 570/1706/91 572/1707/91 571/1708/91
f 571/1709/92 572/1710/92 576/1711/92 575/1712/92
f 575/1713/93 576/1714/93 574/1715/93 573/1716/93
f 573/1717/94 574/1718/94 570/1719/94 569/1720/94
f 571/1721/95 575/1722/95 573/1723/95 569/1724/95
f 576/1725/96 572/1726/96 570/1727/96 574/1728/96
f 577/1729/97 578/1730/97 580/1731/97 579/1732/97
f 579/1733/98 580/1734/98 584/1735/98 583/1736/98
f 583/1737/99 584/1738/99 582/1739/99 581/1740/99
f 581/1741/100 582/1742/100 578/1743/100 577/1744/100
f 579/1745/101 583/1746/101 581/1747/101 577/1748/101
f 584/1749/102 580/1750/102 578/1751/102 582/1752/102
f 585/1753/103 586/1754/103 588/1755/103 587/1756/103
f 587/1757/104 588/1758/104 592/1759/104 591/1760/104
f 591/1761/105 592/1762/105 590/1763/105 589/1764/105
f 589/1765/106 590/1766/106 586/1767/106 585/1768/106
f 587/1769/107 591/1770/107 589/1771/107 585/1772/107
f 592/1773/108 588/1774/108 586/1775/108 590/1776/108
f 593/1777/109 594/1778/109 596/1779/109 595/1780/109
f 595/1781/110 596/1782/110 600/1783/110 599/1784/110
f 599/1785/111 600/1786/111 598/1787/111 597/1788/111
f 597/1789/112 598/1790/112 594/1791/112 593/1792/112
f 595/1793/113 599/1794/113 597/1795/113 593/1796/113
f 600/1797/114 596/1798/114 594/1799/114 598/1800/114
f 601/1801/1 602/1802/1 604/1803/1 603/1804/1
f 603/1805/2 604/1806/2 608/1807/2 607/1808/2
f 607/1809/3 608/1810/3 606/1811/3 605/1812/3
f 605/1813/4 606/1814/4 602/1815/4 601/1816/4
f 603/1817/5 607/1818/5 605/1819/5 601/1820/5
f 608/1821/6 604/1822/6 602/1823/6 606/1824/6
f 609/1825/1 610/1826/1 612/1827/1 611/1828/1
f 611/1829/2 612/1830/2 616/1831/2 615/1832/2
f 615/1833/3 616/1834/3 614/1835/3 613/1836/3
f 613/1837/4 614/1838/4 610/1839/4 609/1840/4
f 611/1841/5 615/1842/5 613/1843/5 609/1844/5
f 616/1845/6 612/1846/6 610/1847/6 614/1848/6
f 617/1849/1 618/1850/1 620/1851/1 619/1852/1
f 619/1853/2 620/1854/2 624/1855/2 623/1856/2
f 623/1857/3 624/1858/3 622/1859/3 621/1860/3
f 621/1861/4 622/1862/4 618/1863/4 617/1864/4
f 619/1865/5 623/1866/5 621/1867/5 617/1868/5
f 624/1869/6 620/1870/6 618/1871/6 622/1872/6
f 625/1873/1 626/1874/1 628/1875/1 627/1876/1
f 627/1877/2 628/1878/2 632/1879/2 631/1880/2
f 631/1881/3 632/1882/3 630/1883/3 629/1884/3
f 629/1885/4 630/1886/4 626/1887/4 625/1888/4
f 627/1889/5 631/1890/5 629/1891/5 625/1892/5
f 632/1893/6 628/1894/6 626/1895/6 630/1896/6
f 633/1897/1 634/1898/1 636/1899/1 635/1900/1
f 635/1901/2 636/1902/2 640/1903/2 639/1904/2
f 639/1905/3 640/1906/3 638/1907/3 637/1908/3
f 637/1909/4 638/1910/4 634/1911/4 633/1912/4
f 635/1913/5 639/1914/5 637/1915/5 633/1916/5
f 640/1917/6 636/1918/6 634/1919/6 638/1920/6
