# Blender 4.5.13 LTS
# www.blender.org
o stone
v -1.580000 0.000000 1.280000
v -1.580000 0.180000 1.280000
v -1.580000 0.000000 -1.280000
v -1.580000 0.180000 -1.280000
v 1.580000 0.000000 1.280000
v 1.580000 0.180000 1.280000
v 1.580000 0.000000 -1.280000
v 1.580000 0.180000 -1.280000
v -1.500000 0.180000 1.270000
v -1.500000 1.480000 1.270000
v -1.500000 0.180000 1.130000
v -1.500000 1.480000 1.130000
v 1.500000 0.180000 1.270000
v 1.500000 1.480000 1.270000
v 1.500000 0.180000 1.130000
v 1.500000 1.480000 1.130000
v -1.500000 0.180000 -1.130000
v -1.500000 1.480000 -1.130000
v -1.500000 0.180000 -1.270000
v -1.500000 1.480000 -1.270000
v 1.500000 0.180000 -1.130000
v 1.500000 1.480000 -1.130000
v 1.500000 0.180000 -1.270000
v 1.500000 1.480000 -1.270000
v -1.570000 0.180000 1.130000
v -1.570000 1.480000 1.130000
v -1.570000 0.180000 -1.130000
v -1.570000 1.480000 -1.130000
v -1.430000 0.180000 1.130000
v -1.430000 1.480000 1.130000
v -1.430000 0.180000 -1.130000
v -1.430000 1.480000 -1.130000
v 1.430000 0.180000 1.130000
v 1.430000 1.480000 1.130000
v 1.430000 0.180000 -1.130000
v 1.430000 1.480000 -1.130000
v 1.570000 0.180000 1.130000
v 1.570000 1.480000 1.130000
v 1.570000 0.180000 -1.130000
v 1.570000 1.480000 -1.130000
v -1.501000 1.480000 1.270000
v -1.501000 2.650347 1.270000
v -1.501000 1.480000 1.130000
v -1.501000 2.650347 1.130000
v -1.341105 1.480000 1.270000
v -1.341105 2.650347 1.270000
v -1.341105 1.480000 1.130000
v -1.341105 2.650347 1.130000
v -1.343105 1.480000 1.270000
v -1.343105 2.452473 1.270000
v -1.343105 1.480000 1.130000
v -1.343105 2.452473 1.130000
v -1.183210 1.480000 1.270000
v -1.183210 2.452473 1.270000
v -1.183210 1.480000 1.130000
v -1.183210 2.452473 1.130000
v -1.185210 1.480000 1.270000
v -1.185210 2.525278 1.270000
v -1.185210 1.480000 1.130000
v -1.185210 2.525278 1.130000
v -1.025316 1.480000 1.270000
v -1.025316 2.525278 1.270000
v -1.025316 1.480000 1.130000
v -1.025316 2.525278 1.130000
v -1.027316 1.480000 1.270000
v -1.027316 2.387269 1.270000
v -1.027316 1.480000 1.130000
v -1.027316 2.387269 1.130000
v -0.867421 1.480000 1.270000
v -0.867421 2.387269 1.270000
v -0.867421 1.480000 1.130000
v -0.867421 2.387269 1.130000
v -0.869421 1.480000 1.270000
v -0.869421 2.591179 1.270000
v -0.869421 1.480000 1.130000
v -0.869421 2.591179 1.130000
v -0.709526 1.480000 1.270000
v -0.709526 2.591179 1.270000
v -0.709526 1.480000 1.130000
v -0.709526 2.591179 1.130000
v -0.711526 1.480000 1.270000
v -0.711526 2.514656 1.270000
v -0.711526 1.480000 1.130000
v -0.711526 2.514656 1.130000
v -0.551632 1.480000 1.270000
v -0.551632 2.514656 1.270000
v -0.551632 1.480000 1.130000
v -0.551632 2.514656 1.130000
v -0.553632 1.480000 1.270000
v -0.553632 2.483649 1.270000
v -0.553632 1.480000 1.130000
v -0.553632 2.483649 1.130000
v -0.393737 1.480000 1.270000
v -0.393737 2.483649 1.270000
v -0.393737 1.480000 1.130000
v -0.393737 2.483649 1.130000
v -0.395737 1.480000 1.270000
v -0.395737 2.152485 1.270000
v -0.395737 1.480000 1.130000
v -0.395737 2.152485 1.130000
v -0.235842 1.480000 1.270000
v -0.235842 2.152485 1.270000
v -0.235842 1.480000 1.130000
v -0.235842 2.152485 1.130000
v -0.237842 1.480000 1.270000
v -0.237842 2.257988 1.270000
v -0.237842 1.480000 1.130000
v -0.237842 2.257988 1.130000
v -0.077947 1.480000 1.270000
v -0.077947 2.257988 1.270000
v -0.077947 1.480000 1.130000
v -0.077947 2.257988 1.130000
v -0.079947 1.480000 1.270000
v -0.079947 2.169297 1.270000
v -0.079947 1.480000 1.130000
v -0.079947 2.169297 1.130000
v 0.079947 1.480000 1.270000
v 0.079947 2.169297 1.270000
v 0.079947 1.480000 1.130000
v 0.079947 2.169297 1.130000
v 0.077947 1.480000 1.270000
v 0.077947 1.949765 1.270000
v 0.077947 1.480000 1.130000
v 0.077947 1.949765 1.130000
v 0.237842 1.480000 1.270000
v 0.237842 1.949765 1.270000
v 0.237842 1.480000 1.130000
v 0.237842 1.949765 1.130000
v 0.235842 1.480000 1.270000
v 0.235842 2.138827 1.270000
v 0.235842 1.480000 1.130000
v 0.235842 2.138827 1.130000
v 0.395737 1.480000 1.270000
v 0.395737 2.138827 1.270000
v 0.395737 1.480000 1.130000
v 0.395737 2.138827 1.130000
v 0.393737 1.480000 1.270000
v 0.393737 1.852128 1.270000
v 0.393737 1.480000 1.130000
v 0.393737 1.852128 1.130000
v 0.553632 1.480000 1.270000
v 0.553632 1.852128 1.270000
v 0.553632 1.480000 1.130000
v 0.553632 1.852128 1.130000
v 0.551632 1.480000 1.270000
v 0.551632 1.671295 1.270000
v 0.551632 1.480000 1.130000
v 0.551632 1.671295 1.130000
v 0.711526 1.480000 1.270000
v 0.711526 1.671295 1.270000
v 0.711526 1.480000 1.130000
v 0.711526 1.671295 1.130000
v 0.709526 1.480000 1.270000
v 0.709526 1.545000 1.270000
v 0.709526 1.480000 1.130000
v 0.709526 1.545000 1.130000
v 0.869421 1.480000 1.270000
v 0.869421 1.545000 1.270000
v 0.869421 1.480000 1.130000
v 0.869421 1.545000 1.130000
v 0.867421 1.480000 1.270000
v 0.867421 1.860615 1.270000
v 0.867421 1.480000 1.130000
v 0.867421 1.860615 1.130000
v 1.027316 1.480000 1.270000
v 1.027316 1.860615 1.270000
v 1.027316 1.480000 1.130000
v 1.027316 1.860615 1.130000
v 1.025316 1.480000 1.270000
v 1.025316 2.124969 1.270000
v 1.025316 1.480000 1.130000
v 1.025316 2.124969 1.130000
v 1.185210 1.480000 1.270000
v 1.185210 2.124969 1.270000
v 1.185210 1.480000 1.130000
v 1.185210 2.124969 1.130000
v 1.183210 1.480000 1.270000
v 1.183210 2.249575 1.270000
v 1.183210 1.480000 1.130000
v 1.183210 2.249575 1.130000
v 1.343105 1.480000 1.270000
v 1.343105 2.249575 1.270000
v 1.343105 1.480000 1.130000
v 1.343105 2.249575 1.130000
v 1.341105 1.480000 1.270000
v 1.341105 2.324571 1.270000
v 1.341105 1.480000 1.130000
v 1.341105 2.324571 1.130000
v 1.501000 1.480000 1.270000
v 1.501000 2.324571 1.270000
v 1.501000 1.480000 1.130000
v 1.501000 2.324571 1.130000
v -1.501000 1.480000 -1.130000
v -1.501000 2.744214 -1.130000
v -1.501000 1.480000 -1.270000
v -1.501000 2.744214 -1.270000
v -1.341105 1.480000 -1.130000
v -1.341105 2.744214 -1.130000
v -1.341105 1.480000 -1.270000
v -1.341105 2.744214 -1.270000
v -1.343105 1.480000 -1.130000
v -1.343105 2.780000 -1.130000
v -1.343105 1.480000 -1.270000
v -1.343105 2.780000 -1.270000
v -1.183210 1.480000 -1.130000
v -1.183210 2.780000 -1.130000
v -1.183210 1.480000 -1.270000
v -1.183210 2.780000 -1.270000
v -1.185210 1.480000 -1.130000
v -1.185210 2.780000 -1.130000
v -1.185210 1.480000 -1.270000
v -1.185210 2.780000 -1.270000
v -1.025316 1.480000 -1.130000
v -1.025316 2.780000 -1.130000
v -1.025316 1.480000 -1.270000
v -1.025316 2.780000 -1.270000
v -1.027316 1.480000 -1.130000
v -1.027316 2.705710 -1.130000
v -1.027316 1.480000 -1.270000
v -1.027316 2.705710 -1.270000
v -0.867421 1.480000 -1.130000
v -0.867421 2.705710 -1.130000
v -0.867421 1.480000 -1.270000
v -0.867421 2.705710 -1.270000
v -0.869421 1.480000 -1.130000
v -0.869421 2.774505 -1.130000
v -0.869421 1.480000 -1.270000
v -0.869421 2.774505 -1.270000
v -0.709526 1.480000 -1.130000
v -0.709526 2.774505 -1.130000
v -0.709526 1.480000 -1.270000
v -0.709526 2.774505 -1.270000
v -0.711526 1.480000 -1.130000
v -0.711526 2.780000 -1.130000
v -0.711526 1.480000 -1.270000
v -0.711526 2.780000 -1.270000
v -0.551632 1.480000 -1.130000
v -0.551632 2.780000 -1.130000
v -0.551632 1.480000 -1.270000
v -0.551632 2.780000 -1.270000
v -0.553632 1.480000 -1.130000
v -0.553632 2.780000 -1.130000
v -0.553632 1.480000 -1.270000
v -0.553632 2.780000 -1.270000
v -0.393737 1.480000 -1.130000
v -0.393737 2.780000 -1.130000
v -0.393737 1.480000 -1.270000
v -0.393737 2.780000 -1.270000
v -0.395737 1.480000 -1.130000
v -0.395737 2.780000 -1.130000
v -0.395737 1.480000 -1.270000
v -0.395737 2.780000 -1.270000
v -0.235842 1.480000 -1.130000
v -0.235842 2.780000 -1.130000
v -0.235842 1.480000 -1.270000
v -0.235842 2.780000 -1.270000
v -0.237842 1.480000 -1.130000
v -0.237842 2.691606 -1.130000
v -0.237842 1.480000 -1.270000
v -0.237842 2.691606 -1.270000
v -0.077947 1.480000 -1.130000
v -0.077947 2.691606 -1.130000
v -0.077947 1.480000 -1.270000
v -0.077947 2.691606 -1.270000
v -0.079947 1.480000 -1.130000
v -0.079947 2.704330 -1.130000
v -0.079947 1.480000 -1.270000
v -0.079947 2.704330 -1.270000
v 0.079947 1.480000 -1.130000
v 0.079947 2.704330 -1.130000
v 0.079947 1.480000 -1.270000
v 0.079947 2.704330 -1.270000
v 0.077947 1.480000 -1.130000
v 0.077947 2.740043 -1.130000
v 0.077947 1.480000 -1.270000
v 0.077947 2.740043 -1.270000
v 0.237842 1.480000 -1.130000
v 0.237842 2.740043 -1.130000
v 0.237842 1.480000 -1.270000
v 0.237842 2.740043 -1.270000
v 0.235842 1.480000 -1.130000
v 0.235842 2.780000 -1.130000
v 0.235842 1.480000 -1.270000
v 0.235842 2.780000 -1.270000
v 0.395737 1.480000 -1.130000
v 0.395737 2.780000 -1.130000
v 0.395737 1.480000 -1.270000
v 0.395737 2.780000 -1.270000
v 0.393737 1.480000 -1.130000
v 0.393737 2.630767 -1.130000
v 0.393737 1.480000 -1.270000
v 0.393737 2.630767 -1.270000
v 0.553632 1.480000 -1.130000
v 0.553632 2.630767 -1.130000
v 0.553632 1.480000 -1.270000
v 0.553632 2.630767 -1.270000
v 0.551632 1.480000 -1.130000
v 0.551632 2.780000 -1.130000
v 0.551632 1.480000 -1.270000
v 0.551632 2.780000 -1.270000
v 0.711526 1.480000 -1.130000
v 0.711526 2.780000 -1.130000
v 0.711526 1.480000 -1.270000
v 0.711526 2.780000 -1.270000
v 0.709526 1.480000 -1.130000
v 0.709526 2.315894 -1.130000
v 0.709526 1.480000 -1.270000
v 0.709526 2.315894 -1.270000
v 0.869421 1.480000 -1.130000
v 0.869421 2.315894 -1.130000
v 0.869421 1.480000 -1.270000
v 0.869421 2.315894 -1.270000
v 0.867421 1.480000 -1.130000
v 0.867421 2.107536 -1.130000
v 0.867421 1.480000 -1.270000
v 0.867421 2.107536 -1.270000
v 1.027316 1.480000 -1.130000
v 1.027316 2.107536 -1.130000
v 1.027316 1.480000 -1.270000
v 1.027316 2.107536 -1.270000
v 1.025316 1.480000 -1.130000
v 1.025316 2.086977 -1.130000
v 1.025316 1.480000 -1.270000
v 1.025316 2.086977 -1.270000
v 1.185210 1.480000 -1.130000
v 1.185210 2.086977 -1.130000
v 1.185210 1.480000 -1.270000
v 1.185210 2.086977 -1.270000
v 1.183210 1.480000 -1.130000
v 1.183210 2.081640 -1.130000
v 1.183210 1.480000 -1.270000
v 1.183210 2.081640 -1.270000
v 1.343105 1.480000 -1.130000
v 1.343105 2.081640 -1.130000
v 1.343105 1.480000 -1.270000
v 1.343105 2.081640 -1.270000
v 1.341105 1.480000 -1.130000
v 1.341105 2.277347 -1.130000
v 1.341105 1.480000 -1.270000
v 1.341105 2.277347 -1.270000
v 1.501000 1.480000 -1.130000
v 1.501000 2.277347 -1.130000
v 1.501000 1.480000 -1.270000
v 1.501000 2.277347 -1.270000
v -1.571000 1.480000 1.130000
v -1.571000 2.780000 1.130000
v -1.571000 1.480000 0.968571
v -1.571000 2.780000 0.968571
v -1.429000 1.480000 1.130000
v -1.429000 2.780000 1.130000
v -1.429000 1.480000 0.968571
v -1.429000 2.780000 0.968571
v -1.571000 1.480000 0.968571
v -1.571000 2.708730 0.968571
v -1.571000 1.480000 0.807143
v -1.571000 2.708730 0.807143
v -1.429000 1.480000 0.968571
v -1.429000 2.708730 0.968571
v -1.429000 1.480000 0.807143
v -1.429000 2.708730 0.807143
v -1.571000 1.480000 0.807143
v -1.571000 2.698664 0.807143
v -1.571000 1.480000 0.645714
v -1.571000 2.698664 0.645714
v -1.429000 1.480000 0.807143
v -1.429000 2.698664 0.807143
v -1.429000 1.480000 0.645714
v -1.429000 2.698664 0.645714
v -1.571000 1.480000 0.645714
v -1.571000 2.291408 0.645714
v -1.571000 1.480000 0.484286
v -1.571000 2.291408 0.484286
v -1.429000 1.480000 0.645714
v -1.429000 2.291408 0.645714
v -1.429000 1.480000 0.484286
v -1.429000 2.291408 0.484286
v -1.571000 1.480000 0.484286
v -1.571000 2.396224 0.484286
v -1.571000 1.480000 0.322857
v -1.571000 2.396224 0.322857
v -1.429000 1.480000 0.484286
v -1.429000 2.396224 0.484286
v -1.429000 1.480000 0.322857
v -1.429000 2.396224 0.322857
v -1.571000 1.480000 0.322857
v -1.571000 2.132581 0.322857
v -1.571000 1.480000 0.161429
v -1.571000 2.132581 0.161429
v -1.429000 1.480000 0.322857
v -1.429000 2.132581 0.322857
v -1.429000 1.480000 0.161429
v -1.429000 2.132581 0.161429
v -1.571000 1.480000 0.161429
v -1.571000 2.027761 0.161429
v -1.571000 1.480000 0.000000
v -1.571000 2.027761 0.000000
v -1.429000 1.480000 0.161429
v -1.429000 2.027761 0.161429
v -1.429000 1.480000 0.000000
v -1.429000 2.027761 0.000000
v -1.571000 1.480000 0.000000
v -1.571000 1.977062 0.000000
v -1.571000 1.480000 -0.161429
v -1.571000 1.977062 -0.161429
v -1.429000 1.480000 0.000000
v -1.429000 1.977062 0.000000
v -1.429000 1.480000 -0.161429
v -1.429000 1.977062 -0.161429
v -1.571000 1.480000 -0.161429
v -1.571000 1.695258 -0.161429
v -1.571000 1.480000 -0.322857
v -1.571000 1.695258 -0.322857
v -1.429000 1.480000 -0.161429
v -1.429000 1.695258 -0.161429
v -1.429000 1.480000 -0.322857
v -1.429000 1.695258 -0.322857
v -1.571000 1.480000 -0.322857
v -1.571000 1.917562 -0.322857
v -1.571000 1.480000 -0.484286
v -1.571000 1.917562 -0.484286
v -1.429000 1.480000 -0.322857
v -1.429000 1.917562 -0.322857
v -1.429000 1.480000 -0.484286
v -1.429000 1.917562 -0.484286
v -1.571000 1.480000 -0.484286
v -1.571000 1.634471 -0.484286
v -1.571000 1.480000 -0.645714
v -1.571000 1.634471 -0.645714
v -1.429000 1.480000 -0.484286
v -1.429000 1.634471 -0.484286
v -1.429000 1.480000 -0.645714
v -1.429000 1.634471 -0.645714
v -1.571000 1.480000 -0.645714
v -1.571000 1.706208 -0.645714
v -1.571000 1.480000 -0.807143
v -1.571000 1.706208 -0.807143
v -1.429000 1.480000 -0.645714
v -1.429000 1.706208 -0.645714
v -1.429000 1.480000 -0.807143
v -1.429000 1.706208 -0.807143
v -1.571000 1.480000 -0.807143
v -1.571000 1.665488 -0.807143
v -1.571000 1.480000 -0.968571
v -1.571000 1.665488 -0.968571
v -1.429000 1.480000 -0.807143
v -1.429000 1.665488 -0.807143
v -1.429000 1.480000 -0.968571
v -1.429000 1.665488 -0.968571
v -1.571000 1.480000 -0.968571
v -1.571000 2.009778 -0.968571
v -1.571000 1.480000 -1.130000
v -1.571000 2.009778 -1.130000
v -1.429000 1.480000 -0.968571
v -1.429000 2.009778 -0.968571
v -1.429000 1.480000 -1.130000
v -1.429000 2.009778 -1.130000
v 1.429000 1.480000 1.130000
v 1.429000 2.552562 1.130000
v 1.429000 1.480000 0.968571
v 1.429000 2.552562 0.968571
v 1.571000 1.480000 1.130000
v 1.571000 2.552562 1.130000
v 1.571000 1.480000 0.968571
v 1.571000 2.552562 0.968571
v 1.429000 1.480000 0.968571
v 1.429000 2.201496 0.968571
v 1.429000 1.480000 0.807143
v 1.429000 2.201496 0.807143
v 1.571000 1.480000 0.968571
v 1.571000 2.201496 0.968571
v 1.571000 1.480000 0.807143
v 1.571000 2.201496 0.807143
v 1.429000 1.480000 0.807143
v 1.429000 2.443031 0.807143
v 1.429000 1.480000 0.645714
v 1.429000 2.443031 0.645714
v 1.571000 1.480000 0.807143
v 1.571000 2.443031 0.807143
v 1.571000 1.480000 0.645714
v 1.571000 2.443031 0.645714
v 1.429000 1.480000 0.645714
v 1.429000 2.447478 0.645714
v 1.429000 1.480000 0.484286
v 1.429000 2.447478 0.484286
v 1.571000 1.480000 0.645714
v 1.571000 2.447478 0.645714
v 1.571000 1.480000 0.484286
v 1.571000 2.447478 0.484286
v 1.429000 1.480000 0.484286
v 1.429000 2.780000 0.484286
v 1.429000 1.480000 0.322857
v 1.429000 2.780000 0.322857
v 1.571000 1.480000 0.484286
v 1.571000 2.780000 0.484286
v 1.571000 1.480000 0.322857
v 1.571000 2.780000 0.322857
v 1.429000 1.480000 0.322857
v 1.429000 2.780000 0.322857
v 1.429000 1.480000 0.161429
v 1.429000 2.780000 0.161429
v 1.571000 1.480000 0.322857
v 1.571000 2.780000 0.322857
v 1.571000 1.480000 0.161429
v 1.571000 2.780000 0.161429
v 1.429000 1.480000 0.161429
v 1.429000 2.780000 0.161429
v 1.429000 1.480000 0.000000
v 1.429000 2.780000 0.000000
v 1.571000 1.480000 0.161429
v 1.571000 2.780000 0.161429
v 1.571000 1.480000 0.000000
v 1.571000 2.780000 0.000000
v 1.429000 1.480000 0.000000
v 1.429000 2.780000 0.000000
v 1.429000 1.480000 -0.161429
v 1.429000 2.780000 -0.161429
v 1.571000 1.480000 0.000000
v 1.571000 2.780000 0.000000
v 1.571000 1.480000 -0.161429
v 1.571000 2.780000 -0.161429
v 1.429000 1.480000 -0.161429
v 1.429000 2.780000 -0.161429
v 1.429000 1.480000 -0.322857
v 1.429000 2.780000 -0.322857
v 1.571000 1.480000 -0.161429
v 1.571000 2.780000 -0.161429
v 1.571000 1.480000 -0.322857
v 1.571000 2.780000 -0.322857
v 1.429000 1.480000 -0.322857
v 1.429000 2.596951 -0.322857
v 1.429000 1.480000 -0.484286
v 1.429000 2.596951 -0.484286
v 1.571000 1.480000 -0.322857
v 1.571000 2.596951 -0.322857
v 1.571000 1.480000 -0.484286
v 1.571000 2.596951 -0.484286
v 1.429000 1.480000 -0.484286
v 1.429000 2.774320 -0.484286
v 1.429000 1.480000 -0.645714
v 1.429000 2.774320 -0.645714
v 1.571000 1.480000 -0.484286
v 1.571000 2.774320 -0.484286
v 1.571000 1.480000 -0.645714
v 1.571000 2.774320 -0.645714
v 1.429000 1.480000 -0.645714
v 1.429000 2.762198 -0.645714
v 1.429000 1.480000 -0.807143
v 1.429000 2.762198 -0.807143
v 1.571000 1.480000 -0.645714
v 1.571000 2.762198 -0.645714
v 1.571000 1.480000 -0.807143
v 1.571000 2.762198 -0.807143
v 1.429000 1.480000 -0.807143
v 1.429000 2.780000 -0.807143
v 1.429000 1.480000 -0.968571
v 1.429000 2.780000 -0.968571
v 1.571000 1.480000 -0.807143
v 1.571000 2.780000 -0.807143
v 1.571000 1.480000 -0.968571
v 1.571000 2.780000 -0.968571
v 1.429000 1.480000 -0.968571
v 1.429000 2.780000 -0.968571
v 1.429000 1.480000 -1.130000
v 1.429000 2.780000 -1.130000
v 1.571000 1.480000 -0.968571
v 1.571000 2.780000 -0.968571
v 1.571000 1.480000 -1.130000
v 1.571000 2.780000 -1.130000
v -0.840790 1.662001 -0.336583
v -0.791661 1.748528 -0.326610
v -0.842743 1.674542 -0.435774
v -0.793613 1.761069 -0.425801
v 1.180473 0.535342 -0.518818
v 1.229602 0.621868 -0.508845
v 1.178520 0.547883 -0.618010
v 1.227650 0.634409 -0.608037
v -0.337750 1.035860 0.508903
v -0.356274 1.133112 0.494800
v -0.404487 1.012876 0.438066
v -0.423011 1.110128 0.423963
v 1.132382 1.111492 -0.900682
v 1.113858 1.208745 -0.914784
v 1.065645 1.088508 -0.971519
v 1.047120 1.185760 -0.985621
v 0.800888 0.979252 1.417095
v 0.757560 1.066262 1.393600
v 0.736584 0.967672 1.492797
v 0.693256 1.054682 1.469302
v -0.574950 -0.064568 0.088733
v -0.618278 0.022441 0.065238
v -0.639254 -0.076148 0.164435
v -0.682582 0.010861 0.140940
v 0.800098 0.406007 0.776728
v 0.840282 0.486596 0.820210
v 0.747237 0.387649 0.859605
v 0.787421 0.468238 0.903087
v -0.311986 1.243177 0.252857
v -0.271802 1.323766 0.296339
v -0.364847 1.224818 0.335735
v -0.324663 1.305407 0.379216
v -0.589481 0.194496 -0.906050
v -0.587880 0.251258 -0.978570
v -0.635516 0.284645 -0.836506
v -0.633914 0.341407 -0.909027
v -0.731776 0.150700 -0.943471
v -0.730175 0.207463 -1.015991
v -0.777811 0.240850 -0.873927
v -0.776209 0.297612 -0.946448
v 0.567426 0.248090 0.602975
v 0.546299 0.304282 0.494744
v 0.461663 0.350888 0.676992
v 0.440536 0.407080 0.568761
v 0.413051 0.116686 0.564886
v 0.391924 0.172878 0.456655
v 0.307287 0.219483 0.638903
v 0.286160 0.275676 0.530671
v -0.606478 0.203806 0.383456
v -0.579251 0.357788 0.404640
v -0.641822 0.238195 0.178918
v -0.614594 0.392177 0.200102
v -0.351219 0.165622 0.332929
v -0.323992 0.319604 0.354113
v -0.386562 0.200011 0.128390
v -0.359335 0.353993 0.149574
v 0.200498 0.201449 1.051178
v 0.266819 0.275616 1.068140
v 0.133213 0.281079 0.966078
v 0.199535 0.355246 0.983040
v 0.295393 0.145685 0.923969
v 0.361715 0.219851 0.940931
v 0.228109 0.225315 0.838868
v 0.294430 0.299481 0.855831
v -0.203461 0.270333 0.435770
v -0.106398 0.372019 0.489736
v -0.174427 0.341128 0.250153
v -0.077364 0.442814 0.304119
v -0.015059 0.107764 0.403235
v 0.082004 0.209450 0.457201
v 0.013975 0.178559 0.217618
v 0.111038 0.280245 0.271584
v -1.037123 0.147781 -0.389068
v -0.951574 0.257698 -0.478656
v -1.142165 0.312898 -0.286790
v -1.056616 0.422815 -0.376378
v -1.233629 0.142794 -0.582834
v -1.148080 0.252711 -0.672423
v -1.338671 0.307911 -0.480557
v -1.253122 0.417829 -0.570145
v 0.301567 0.213717 0.903050
v 0.284401 0.319007 0.892985
v 0.261513 0.220281 1.040035
v 0.244347 0.325571 1.029970
v 0.132544 0.181582 0.855169
v 0.115377 0.286872 0.845104
v 0.092490 0.188147 0.992154
v 0.075323 0.293437 0.982089
v 0.565820 0.199730 -0.740797
v 0.638837 0.250034 -0.720929
v 0.519554 0.291962 -0.804288
v 0.592571 0.342266 -0.784420
v 0.634964 0.148600 -0.865456
v 0.707981 0.198904 -0.845589
v 0.588698 0.240832 -0.928947
v 0.661715 0.291136 -0.909080
v 0.792126 0.264029 0.813474
v 0.782267 0.326681 0.708821
v 0.661171 0.341602 0.872253
v 0.651312 0.404255 0.767600
v 0.671583 0.118117 0.737477
v 0.661723 0.180770 0.632824
v 0.540628 0.195690 0.796256
v 0.530768 0.258343 0.691603
v 1.158643 0.230917 0.783509
v 1.130377 0.289222 0.744723
v 1.104928 0.258482 0.864090
v 1.076662 0.316786 0.825303
v 1.063179 0.158730 0.744566
v 1.034913 0.217035 0.705780
v 1.009464 0.186294 0.825146
v 0.981198 0.244599 0.786360
v 0.953101 0.211799 0.009984
v 0.996154 0.306414 0.021950
v 0.897219 0.252550 -0.111181
v 0.940271 0.347166 -0.099215
v 1.095877 0.157471 -0.074138
v 1.138930 0.252086 -0.062172
v 1.039995 0.198222 -0.195303
v 1.083047 0.292837 -0.183337
v -0.918602 0.185174 -0.356729
v -0.902042 0.227788 -0.291682
v -0.912793 0.273030 -0.415766
v -0.896233 0.315645 -0.350719
v -0.789201 0.163862 -0.375712
v -0.772640 0.206476 -0.310665
v -0.783392 0.251719 -0.434748
v -0.766831 0.294333 -0.369702
v 0.272928 0.272312 0.218718
v 0.225551 0.406607 0.132018
v 0.116934 0.315626 0.371053
v 0.069557 0.449921 0.284353
v 0.091390 0.116802 0.077037
v 0.044014 0.251097 -0.009663
v -0.064604 0.160116 0.229372
v -0.111980 0.294411 0.142672
v -0.195662 0.164632 0.952293
v -0.104018 0.235076 0.958257
v -0.288896 0.286979 0.939848
v -0.197251 0.357423 0.945813
v -0.178314 0.158321 0.760272
v -0.086669 0.228765 0.766236
v -0.271547 0.280668 0.747827
v -0.179903 0.351112 0.753792
v -1.180000 0.590000 1.305000
v -1.180000 1.010000 1.305000
v -1.180000 0.590000 1.255000
v -1.180000 1.010000 1.255000
v -0.820000 0.590000 1.305000
v -0.820000 1.010000 1.305000
v -0.820000 0.590000 1.255000
v -0.820000 1.010000 1.255000
v -0.210000 0.180000 1.305000
v -0.210000 0.960000 1.305000
v -0.210000 0.180000 1.255000
v -0.210000 0.960000 1.255000
v 0.210000 0.180000 1.305000
v 0.210000 0.960000 1.305000
v 0.210000 0.180000 1.255000
v 0.210000 0.960000 1.255000
v 0.820000 0.590000 1.305000
v 0.820000 1.010000 1.305000
v 0.820000 0.590000 1.255000
v 0.820000 1.010000 1.255000
v 1.180000 0.590000 1.305000
v 1.180000 1.010000 1.305000
v 1.180000 0.590000 1.255000
v 1.180000 1.010000 1.255000
v -1.180000 0.590000 -1.255000
v -1.180000 1.010000 -1.255000
v -1.180000 0.590000 -1.305000
v -1.180000 1.010000 -1.305000
v -0.820000 0.590000 -1.255000
v -0.820000 1.010000 -1.255000
v -0.820000 0.590000 -1.305000
v -0.820000 1.010000 -1.305000
v 0.820000 0.590000 -1.255000
v 0.820000 1.010000 -1.255000
v 0.820000 0.590000 -1.305000
v 0.820000 1.010000 -1.305000
v 1.180000 0.590000 -1.255000
v 1.180000 1.010000 -1.255000
v 1.180000 0.590000 -1.305000
v 1.180000 1.010000 -1.305000
v 1.555000 0.590000 0.180000
v 1.555000 1.010000 0.180000
v 1.555000 0.590000 -0.180000
v 1.555000 1.010000 -0.180000
v 1.605000 0.590000 0.180000
v 1.605000 1.010000 0.180000
v 1.605000 0.590000 -0.180000
v 1.605000 1.010000 -0.180000
vn -1.0000 -0.0000 -0.0000
vn -0.0000 -0.0000 -1.0000
vn 1.0000 -0.0000 -0.0000
vn -0.0000 -0.0000 1.0000
vn -0.0000 -1.0000 -0.0000
vn -0.0000 1.0000 -0.0000
vn -0.8708 0.4854 0.0785
vn -0.0195 0.1254 -0.9919
vn 0.8708 -0.4854 -0.0785
vn 0.0195 -0.1254 0.9919
vn -0.4913 -0.8653 -0.0997
vn 0.4913 0.8653 0.0997
vn -0.7213 -0.0371 0.6916
vn -0.6674 -0.2298 -0.7084
vn 0.7213 0.0371 -0.6916
vn 0.6674 0.2298 0.7084
vn 0.1852 -0.9725 0.1410
vn -0.1852 0.9725 -0.1410
vn 0.6315 0.4791 0.6097
vn -0.6430 -0.1158 0.7570
vn -0.6315 -0.4791 -0.6097
vn 0.6430 0.1158 -0.7570
vn 0.4333 -0.8701 0.2350
vn -0.4333 0.8701 -0.2350
vn 0.7477 -0.5629 0.3522
vn -0.5286 -0.1836 0.8288
vn -0.7477 0.5629 -0.3522
vn 0.5286 0.1836 -0.8288
vn -0.4018 -0.8059 -0.4348
vn 0.4018 0.8059 0.4348
vn 0.9269 0.2853 0.2438
vn -0.3748 0.7341 0.5663
vn -0.9269 -0.2853 -0.2438
vn 0.3748 -0.7341 -0.5663
vn -0.0174 -0.6163 0.7873
vn 0.0174 0.6163 -0.7873
vn 0.7484 0.6370 0.1847
vn -0.6409 0.6229 0.4485
vn -0.7484 -0.6370 -0.1847
vn 0.6409 -0.6229 -0.4485
vn 0.1707 -0.4540 0.8745
vn -0.1707 0.4540 -0.8745
vn -0.9706 0.1452 0.1921
vn -0.1680 0.1634 -0.9721
vn 0.9706 -0.1452 -0.1921
vn 0.1680 -0.1634 0.9721
vn -0.1725 -0.9758 -0.1342
vn 0.1725 0.9758 0.1342
vn -0.5641 0.3315 0.7562
vn -0.5000 0.5917 -0.6324
vn 0.5641 -0.3315 -0.7562
vn 0.5000 -0.5917 0.6324
vn -0.6571 -0.7348 -0.1681
vn 0.6571 0.7348 0.1681
vn -0.7507 0.6478 0.1296
vn 0.1446 0.3526 -0.9245
vn 0.7507 -0.6478 -0.1296
vn -0.1446 -0.3526 0.9245
vn -0.6446 -0.6753 -0.3584
vn 0.6446 0.6753 0.3584
vn 0.7119 0.0181 0.7020
vn -0.4757 0.7478 0.4632
vn -0.7119 -0.0181 -0.7020
vn 0.4757 -0.7478 -0.4632
vn -0.5166 -0.6637 0.5410
vn 0.5166 0.6637 -0.5410
vn 0.9464 0.1799 0.2681
vn -0.2803 0.0459 0.9588
vn -0.9464 -0.1799 -0.2681
vn 0.2803 -0.0459 -0.9588
vn 0.1602 -0.9826 0.0939
vn -0.1602 0.9826 -0.0939
vn -0.4566 0.3376 0.8231
vn -0.3819 0.7613 -0.5241
vn 0.4566 -0.3376 -0.8231
vn 0.3819 -0.7613 0.5241
vn -0.8036 -0.5536 -0.2186
vn 0.8036 0.5536 0.2186
vn 0.5910 0.7154 0.3726
vn -0.8026 0.4754 0.3602
vn -0.5910 -0.7154 -0.3726
vn 0.8026 -0.4754 -0.3602
vn 0.0806 -0.5120 0.8552
vn -0.0806 0.5120 -0.8552
vn 0.7585 0.5735 0.3094
vn -0.5335 0.2738 0.8003
vn -0.7585 -0.5735 -0.3094
vn 0.5335 -0.2738 -0.8003
vn 0.3743 -0.7721 0.5136
vn -0.3743 0.7721 -0.5136
vn -0.8187 0.3115 0.4824
vn -0.4005 0.2921 -0.8685
vn 0.8187 -0.3115 -0.4824
vn 0.4005 -0.2921 0.8685
vn -0.4115 -0.9042 -0.1144
vn 0.4115 0.9042 0.1144
vn -0.9765 0.1608 0.1433
vn 0.0548 0.8288 -0.5569
vn 0.9765 -0.1608 -0.1433
vn -0.0548 -0.8288 0.5569
vn -0.2083 -0.5360 -0.8181
vn 0.2083 0.5360 0.8181
vn 0.6533 0.5596 0.5099
vn -0.7017 0.1948 0.6853
vn -0.6533 -0.5596 -0.5099
vn 0.7017 -0.1948 -0.6853
vn 0.2842 -0.8055 0.5200
vn -0.2842 0.8055 -0.5200
vn -0.0899 0.0327 0.9954
vn -0.6041 0.7928 -0.0806
vn 0.0899 -0.0327 -0.9954
vn 0.6041 -0.7928 0.0806
vn -0.7918 -0.6086 -0.0515
vn 0.7918 0.6086 0.0515
vt 0.657079 0.469255
vt 0.671201 0.469255
vt 0.671201 0.670105
vt 0.657079 0.670106
vt 0.569050 0.508137
vt 0.554931 0.508136
vt 0.554931 0.260212
vt 0.569050 0.260213
vt 0.671201 0.461063
vt 0.657079 0.461063
vt 0.657079 0.260212
vt 0.671201 0.260212
vt 0.577242 0.260213
vt 0.591361 0.260212
vt 0.591361 0.508136
vt 0.577242 0.508137
vt 0.204947 0.004096
vt 0.204947 0.252020
vt 0.004096 0.252021
vt 0.004096 0.004097
vt 0.213138 0.252020
vt 0.213138 0.004096
vt 0.413989 0.004097
vt 0.413989 0.252021
vt 0.618728 0.791274
vt 0.618728 0.689280
vt 0.629712 0.689280
vt 0.629712 0.791274
vt 0.106067 0.495591
vt 0.004096 0.495583
vt 0.004096 0.260212
vt 0.106067 0.260221
vt 0.637903 0.791274
vt 0.637903 0.689280
vt 0.648888 0.689280
vt 0.648888 0.791273
vt 0.114258 0.260221
vt 0.216229 0.260212
vt 0.216229 0.495583
vt 0.114258 0.495591
vt 0.648888 0.260212
vt 0.648888 0.495583
vt 0.637903 0.495583
vt 0.637903 0.260212
vt 0.599552 0.495583
vt 0.599552 0.260212
vt 0.610536 0.260212
vt 0.610536 0.495583
vt 0.780372 0.106090
vt 0.780372 0.004096
vt 0.791356 0.004096
vt 0.791356 0.106090
vt 0.326392 0.495591
vt 0.224421 0.495583
vt 0.224421 0.260212
vt 0.326392 0.260221
vt 0.780372 0.216275
vt 0.780372 0.114281
vt 0.791356 0.114281
vt 0.791356 0.216275
vt 0.334583 0.260221
vt 0.436554 0.260212
vt 0.436554 0.495583
vt 0.334583 0.495591
vt 0.653535 0.004096
vt 0.653535 0.239466
vt 0.642551 0.239467
vt 0.642551 0.004096
vt 0.618728 0.495583
vt 0.618728 0.260212
vt 0.629712 0.260212
vt 0.629712 0.495583
vt 0.422180 0.004096
vt 0.524174 0.004096
vt 0.524174 0.181409
vt 0.422180 0.181410
vt 0.799548 0.106068
vt 0.799548 0.004097
vt 0.810532 0.004096
vt 0.810532 0.106067
vt 0.546740 0.437526
vt 0.444746 0.437526
vt 0.444746 0.260212
vt 0.546740 0.260213
vt 0.799548 0.216252
vt 0.799548 0.114281
vt 0.810532 0.114282
vt 0.810532 0.216253
vt 0.672711 0.181409
vt 0.661727 0.181409
vt 0.661727 0.004096
vt 0.672711 0.004096
vt 0.629712 0.681088
vt 0.618728 0.681088
vt 0.618728 0.503775
vt 0.629712 0.503775
vt 0.444746 0.445718
vt 0.546739 0.445718
vt 0.546739 0.623031
vt 0.444746 0.623032
vt 0.422876 0.820534
vt 0.422876 0.718563
vt 0.433860 0.718562
vt 0.433860 0.820533
vt 0.634360 0.181410
vt 0.532366 0.181409
vt 0.532366 0.004096
vt 0.634360 0.004096
vt 0.381403 0.822968
vt 0.381403 0.720997
vt 0.392387 0.720998
vt 0.392387 0.822969
vt 0.610536 0.681088
vt 0.599552 0.681088
vt 0.599552 0.503774
vt 0.610536 0.503775
vt 0.648888 0.681088
vt 0.637904 0.681088
vt 0.637904 0.503775
vt 0.648888 0.503775
vt 0.831436 0.668233
vt 0.831436 0.576412
vt 0.842420 0.576412
vt 0.842420 0.668234
vt 0.298217 0.814559
vt 0.298217 0.722758
vt 0.310762 0.722757
vt 0.310762 0.814558
vt 0.486459 0.827381
vt 0.486459 0.735560
vt 0.497443 0.735560
vt 0.497443 0.827381
vt 0.319074 0.814558
vt 0.319074 0.722757
vt 0.331618 0.722758
vt 0.331618 0.814559
vt 0.455730 0.976027
vt 0.455730 0.988572
vt 0.444746 0.988572
vt 0.444746 0.976027
vt 0.792928 0.977951
vt 0.792928 0.965406
vt 0.803912 0.965406
vt 0.803912 0.977951
vt 0.173076 0.898887
vt 0.173076 0.822589
vt 0.184060 0.822590
vt 0.184060 0.898887
vt 0.715755 0.873042
vt 0.715755 0.796762
vt 0.728300 0.796761
vt 0.728300 0.873041
vt 0.886388 0.426698
vt 0.886388 0.350401
vt 0.897372 0.350401
vt 0.897372 0.426698
vt 0.736491 0.873041
vt 0.736491 0.796761
vt 0.749036 0.796762
vt 0.749036 0.873042
vt 0.823087 0.978126
vt 0.823087 0.990671
vt 0.812103 0.990671
vt 0.812103 0.978126
vt 0.975684 0.016641
vt 0.975684 0.004096
vt 0.986668 0.004096
vt 0.986668 0.016641
vt 0.657079 0.870024
vt 0.657079 0.788015
vt 0.668063 0.788015
vt 0.668063 0.870024
vt 0.836202 0.562580
vt 0.836202 0.480589
vt 0.848747 0.480588
vt 0.848747 0.562579
vt 0.867212 0.432410
vt 0.867212 0.350401
vt 0.878196 0.350401
vt 0.878196 0.432410
vt 0.834560 0.190335
vt 0.834560 0.108344
vt 0.847105 0.108345
vt 0.847105 0.190336
vt 0.745915 0.982248
vt 0.745915 0.994793
vt 0.734931 0.994793
vt 0.734931 0.982248
vt 0.620409 0.978037
vt 0.620409 0.965493
vt 0.631393 0.965493
vt 0.631393 0.978038
vt 0.888963 0.743398
vt 0.888963 0.672217
vt 0.899947 0.672217
vt 0.899947 0.743398
vt 0.876579 0.327960
vt 0.876579 0.256794
vt 0.889124 0.256793
vt 0.889124 0.327959
vt 0.889119 0.647593
vt 0.889119 0.576412
vt 0.900103 0.576412
vt 0.900103 0.647593
vt 0.876271 0.551753
vt 0.876271 0.480588
vt 0.888816 0.480589
vt 0.888816 0.551754
vt 0.588226 0.974917
vt 0.588226 0.987462
vt 0.577242 0.987462
vt 0.577242 0.974917
vt 0.975684 0.037498
vt 0.975684 0.024953
vt 0.986668 0.024953
vt 0.986668 0.037498
vt 0.850611 0.854768
vt 0.850611 0.767588
vt 0.861595 0.767588
vt 0.861595 0.854768
vt 0.526251 0.822613
vt 0.526251 0.735453
vt 0.538796 0.735452
vt 0.538796 0.822612
vt 0.850611 0.759397
vt 0.850611 0.672217
vt 0.861595 0.672217
vt 0.861595 0.759396
vt 0.794609 0.567748
vt 0.794609 0.480588
vt 0.807154 0.480589
vt 0.807154 0.567749
vt 0.987972 0.536401
vt 0.987972 0.548946
vt 0.976988 0.548946
vt 0.976988 0.536401
vt 0.967269 0.879932
vt 0.967269 0.867387
vt 0.978253 0.867387
vt 0.978253 0.879932
vt 0.620409 0.880641
vt 0.620409 0.799465
vt 0.631393 0.799465
vt 0.631393 0.880641
vt 0.836510 0.340925
vt 0.836510 0.259767
vt 0.849055 0.259766
vt 0.849055 0.340924
vt 0.869787 0.753393
vt 0.869787 0.672217
vt 0.880771 0.672217
vt 0.880771 0.753393
vt 0.837899 0.085253
vt 0.837899 0.004096
vt 0.850444 0.004097
vt 0.850444 0.085254
vt 0.309201 0.977087
vt 0.309201 0.989632
vt 0.298217 0.989632
vt 0.298217 0.977087
vt 0.967269 0.900669
vt 0.967269 0.888124
vt 0.978253 0.888124
vt 0.978253 0.900669
vt 0.870493 0.187087
vt 0.870493 0.108344
vt 0.881477 0.108344
vt 0.881477 0.187088
vt 0.036116 0.860519
vt 0.036116 0.781794
vt 0.048661 0.781793
vt 0.048661 0.860518
vt 0.869944 0.655155
vt 0.869944 0.576412
vt 0.880928 0.576412
vt 0.880928 0.655155
vt 0.068025 0.860710
vt 0.068025 0.781985
vt 0.080570 0.781986
vt 0.080570 0.860711
vt 0.184060 0.977683
vt 0.184060 0.990228
vt 0.173076 0.990228
vt 0.173076 0.977683
vt 0.968089 0.141626
vt 0.968089 0.129081
vt 0.979073 0.129081
vt 0.979073 0.141626
vt 0.599552 0.935974
vt 0.599552 0.883213
vt 0.610536 0.883213
vt 0.610536 0.935974
vt 0.834560 0.251278
vt 0.834560 0.198529
vt 0.847105 0.198528
vt 0.847105 0.251277
vt 0.792928 0.933292
vt 0.792928 0.880531
vt 0.803912 0.880531
vt 0.803912 0.933292
vt 0.905563 0.471708
vt 0.905563 0.418959
vt 0.918108 0.418960
vt 0.918108 0.471709
vt 0.204796 0.978336
vt 0.204796 0.990881
vt 0.193812 0.990881
vt 0.193812 0.978336
vt 0.968089 0.203835
vt 0.968089 0.191290
vt 0.979073 0.191290
vt 0.979073 0.203835
vt 0.917744 0.541626
vt 0.917744 0.480588
vt 0.928728 0.480588
vt 0.928728 0.541626
vt 0.613776 0.250627
vt 0.613776 0.189602
vt 0.626320 0.189601
vt 0.626320 0.250626
vt 0.918000 0.065134
vt 0.918000 0.004096
vt 0.928984 0.004096
vt 0.928984 0.065134
vt 0.897007 0.541613
vt 0.897007 0.480588
vt 0.909552 0.480589
vt 0.909552 0.541614
vt 0.765247 0.982248
vt 0.765247 0.994793
vt 0.754263 0.994793
vt 0.754263 0.982248
vt 0.967383 0.684762
vt 0.967383 0.672217
vt 0.978367 0.672217
vt 0.978367 0.684762
vt 0.510551 0.933920
vt 0.510551 0.879840
vt 0.521535 0.879840
vt 0.521535 0.933920
vt 0.381403 0.926368
vt 0.381403 0.872300
vt 0.393948 0.872299
vt 0.393948 0.926367
vt 0.773752 0.934611
vt 0.773752 0.880531
vt 0.784736 0.880531
vt 0.784736 0.934611
vt 0.256744 0.926284
vt 0.256744 0.872217
vt 0.269289 0.872218
vt 0.269289 0.926286
vt 0.957396 0.975813
vt 0.957396 0.988358
vt 0.946412 0.988358
vt 0.946412 0.975813
vt 0.966332 0.410128
vt 0.966332 0.397583
vt 0.977316 0.397583
vt 0.977316 0.410128
vt 0.946412 0.946765
vt 0.946412 0.909909
vt 0.957396 0.909909
vt 0.957396 0.946765
vt 0.444746 0.946979
vt 0.444746 0.910131
vt 0.457291 0.910130
vt 0.457291 0.946978
vt 0.946427 0.798441
vt 0.946427 0.761584
vt 0.957412 0.761584
vt 0.957412 0.798441
vt 0.869787 0.945374
vt 0.869787 0.908526
vt 0.882332 0.908527
vt 0.882332 0.945375
vt 0.226014 0.979396
vt 0.226014 0.991941
vt 0.215030 0.991941
vt 0.215030 0.979396
vt 0.773752 0.979270
vt 0.773752 0.966725
vt 0.784736 0.966725
vt 0.784736 0.979270
vt 0.926300 0.402091
vt 0.926300 0.350401
vt 0.937284 0.350401
vt 0.937284 0.402091
vt 0.152340 0.923999
vt 0.152340 0.872321
vt 0.164884 0.872320
vt 0.164884 0.923998
vt 0.926300 0.461972
vt 0.926300 0.410282
vt 0.937284 0.410282
vt 0.937284 0.461972
vt 0.131603 0.923998
vt 0.131603 0.872320
vt 0.144148 0.872321
vt 0.144148 0.923999
vt 0.079010 0.981074
vt 0.079010 0.993619
vt 0.068026 0.993619
vt 0.068026 0.981074
vt 0.966332 0.430864
vt 0.966332 0.418319
vt 0.977316 0.418319
vt 0.977316 0.430864
vt 0.948913 0.212981
vt 0.948913 0.183785
vt 0.959897 0.183785
vt 0.959897 0.212981
vt 0.946646 0.701407
vt 0.946646 0.672218
vt 0.959191 0.672217
vt 0.959191 0.701406
vt 0.948913 0.175594
vt 0.948913 0.146398
vt 0.959897 0.146398
vt 0.959897 0.175594
vt 0.946646 0.738788
vt 0.946646 0.709599
vt 0.959191 0.709600
vt 0.959191 0.738789
vt 0.860695 0.979399
vt 0.860695 0.991944
vt 0.849711 0.991944
vt 0.849711 0.979399
vt 0.965979 0.588957
vt 0.965979 0.576412
vt 0.976963 0.576412
vt 0.976963 0.588957
vt 0.489815 0.953632
vt 0.489815 0.938624
vt 0.500799 0.938624
vt 0.500799 0.953632
vt 0.657079 0.952005
vt 0.657079 0.937000
vt 0.669624 0.936999
vt 0.669624 0.952004
vt 0.715755 0.953658
vt 0.715755 0.938649
vt 0.726739 0.938649
vt 0.726739 0.953658
vt 0.402140 0.952090
vt 0.402140 0.937085
vt 0.414684 0.937086
vt 0.414684 0.952091
vt 0.995124 0.350401
vt 0.995124 0.362946
vt 0.984140 0.362946
vt 0.984140 0.350401
vt 0.968089 0.162362
vt 0.968089 0.149817
vt 0.979073 0.149817
vt 0.979073 0.162362
vt 0.985508 0.418319
vt 0.990607 0.418319
vt 0.990607 0.429303
vt 0.985508 0.429303
vt 0.990486 0.452649
vt 0.985387 0.452649
vt 0.985387 0.440104
vt 0.990486 0.440105
vt 0.991544 0.878371
vt 0.986445 0.878371
vt 0.986445 0.867387
vt 0.991544 0.867387
vt 0.985359 0.224565
vt 0.990457 0.224564
vt 0.990457 0.237109
vt 0.985359 0.237110
vt 0.704321 0.966945
vt 0.704321 0.979490
vt 0.693337 0.979490
vt 0.693337 0.966945
vt 0.965745 0.988358
vt 0.965745 0.975813
vt 0.976729 0.975813
vt 0.976729 0.988358
vt 0.948913 0.138206
vt 0.948913 0.108344
vt 0.959897 0.108344
vt 0.959897 0.138206
vt 0.936919 0.566257
vt 0.936919 0.536402
vt 0.949464 0.536401
vt 0.949464 0.566256
vt 0.927080 0.956630
vt 0.927080 0.926768
vt 0.938064 0.926768
vt 0.938064 0.956629
vt 0.945475 0.469959
vt 0.945475 0.440104
vt 0.958020 0.440105
vt 0.958020 0.469960
vt 0.995124 0.371258
vt 0.995124 0.383803
vt 0.984140 0.383803
vt 0.984140 0.371258
vt 0.965880 0.850371
vt 0.965880 0.837826
vt 0.976864 0.837826
vt 0.976864 0.850371
vt 0.927471 0.627014
vt 0.927471 0.576412
vt 0.938455 0.576412
vt 0.938455 0.627014
vt 0.489815 0.930432
vt 0.489815 0.879841
vt 0.502360 0.879840
vt 0.502360 0.930431
vt 0.929738 0.158947
vt 0.929738 0.108344
vt 0.940722 0.108344
vt 0.940722 0.158947
vt 0.657079 0.928807
vt 0.657079 0.878216
vt 0.669624 0.878217
vt 0.669624 0.928808
vt 0.413124 0.981140
vt 0.413124 0.993684
vt 0.402140 0.993684
vt 0.402140 0.981140
vt 0.967383 0.705498
vt 0.967383 0.692953
vt 0.978367 0.692954
vt 0.978367 0.705498
vt 0.036116 0.929089
vt 0.036116 0.868711
vt 0.047100 0.868711
vt 0.047100 0.929089
vt 0.905563 0.410767
vt 0.905563 0.350402
vt 0.918108 0.350401
vt 0.918108 0.410766
vt 0.068025 0.929281
vt 0.068025 0.868903
vt 0.079009 0.868903
vt 0.079009 0.929281
vt 0.904955 0.821949
vt 0.904955 0.761584
vt 0.917500 0.761585
vt 0.917500 0.821950
vt 0.982434 0.635206
vt 0.982434 0.647751
vt 0.971450 0.647751
vt 0.971450 0.635206
vt 0.152460 0.990412
vt 0.152460 0.977867
vt 0.163444 0.977867
vt 0.163444 0.990412
vt 0.898825 0.070358
vt 0.898825 0.004096
vt 0.909809 0.004096
vt 0.909809 0.070358
vt 0.235767 0.894953
vt 0.235767 0.828706
vt 0.248312 0.828705
vt 0.248312 0.894952
vt 0.897315 0.323056
vt 0.897315 0.256793
vt 0.908299 0.256793
vt 0.908299 0.323055
vt 0.215030 0.894952
vt 0.215030 0.828705
vt 0.227575 0.828706
vt 0.227575 0.894953
vt 0.995904 0.975813
vt 0.995904 0.988358
vt 0.984920 0.988358
vt 0.984920 0.975814
vt 0.975427 0.493133
vt 0.975427 0.480588
vt 0.986412 0.480588
vt 0.986412 0.493133
vt 0.256744 0.822887
vt 0.256744 0.723701
vt 0.267728 0.723701
vt 0.267728 0.822887
vt 0.339930 0.713133
vt 0.339930 0.613969
vt 0.352475 0.613968
vt 0.352475 0.713132
vt 0.275920 0.822887
vt 0.275920 0.723701
vt 0.286904 0.723701
vt 0.286904 0.822887
vt 0.360667 0.713132
vt 0.360667 0.613968
vt 0.373212 0.613969
vt 0.373212 0.713133
vt 0.995904 0.909909
vt 0.995904 0.922454
vt 0.984920 0.922454
vt 0.984920 0.909909
vt 0.968089 0.183099
vt 0.968089 0.170554
vt 0.979073 0.170554
vt 0.979073 0.183099
vt 0.004096 0.795746
vt 0.004096 0.693752
vt 0.015080 0.693752
vt 0.015080 0.795746
vt 0.695019 0.582087
vt 0.695019 0.480117
vt 0.707563 0.480115
vt 0.707563 0.582086
vt 0.773752 0.678406
vt 0.773752 0.576412
vt 0.784736 0.576412
vt 0.784736 0.678406
vt 0.235767 0.715939
vt 0.235767 0.613968
vt 0.248312 0.613969
vt 0.248312 0.715940
vt 0.995904 0.930766
vt 0.995904 0.943310
vt 0.984920 0.943310
vt 0.984920 0.930766
vt 0.975841 0.072454
vt 0.975841 0.059909
vt 0.986825 0.059909
vt 0.986825 0.072454
vt 0.695019 0.802436
vt 0.695019 0.700442
vt 0.706003 0.700443
vt 0.706003 0.802436
vt 0.695019 0.692251
vt 0.695019 0.590280
vt 0.707563 0.590279
vt 0.707563 0.692250
vt 0.775156 0.471946
vt 0.775156 0.369952
vt 0.786140 0.369952
vt 0.786140 0.471946
vt 0.131603 0.715939
vt 0.131603 0.613968
vt 0.144148 0.613969
vt 0.144148 0.715940
vt 0.500799 0.982680
vt 0.500799 0.995225
vt 0.489815 0.995225
vt 0.489815 0.982680
vt 0.975841 0.093311
vt 0.975841 0.080766
vt 0.986825 0.080766
vt 0.986825 0.093311
vt 0.554931 0.826483
vt 0.554931 0.730318
vt 0.565915 0.730318
vt 0.565915 0.826483
vt 0.486339 0.727368
vt 0.486339 0.631225
vt 0.498884 0.631223
vt 0.498884 0.727367
vt 0.577242 0.826827
vt 0.577242 0.730662
vt 0.588226 0.730662
vt 0.588226 0.826827
vt 0.465602 0.727367
vt 0.465602 0.631223
vt 0.478147 0.631225
vt 0.478147 0.727368
vt 0.110658 0.979964
vt 0.110658 0.992509
vt 0.099674 0.992509
vt 0.099674 0.979964
vt 0.965979 0.609693
vt 0.965979 0.597148
vt 0.976963 0.597148
vt 0.976963 0.609693
vt 0.400579 0.822560
vt 0.400579 0.720997
vt 0.411563 0.720997
vt 0.411563 0.822560
vt 0.277480 0.715509
vt 0.277480 0.613969
vt 0.290025 0.613968
vt 0.290025 0.715508
vt 0.339930 0.822887
vt 0.339930 0.721325
vt 0.350914 0.721325
vt 0.350914 0.822887
vt 0.256744 0.715508
vt 0.256744 0.613968
vt 0.269289 0.613969
vt 0.269289 0.715509
vt 0.985159 0.256793
vt 0.985158 0.269338
vt 0.974174 0.269338
vt 0.974174 0.256793
vt 0.967383 0.726235
vt 0.967383 0.713690
vt 0.978367 0.713690
vt 0.978367 0.726235
vt 0.715755 0.788569
vt 0.715755 0.686575
vt 0.726739 0.686575
vt 0.726739 0.788569
vt 0.152340 0.715940
vt 0.152340 0.613969
vt 0.164884 0.613968
vt 0.164884 0.715939
vt 0.792928 0.678406
vt 0.792928 0.576412
vt 0.803912 0.576412
vt 0.803912 0.678406
vt 0.700250 0.361759
vt 0.700250 0.259788
vt 0.712794 0.259789
vt 0.712794 0.361760
vt 0.726582 0.982706
vt 0.726582 0.995251
vt 0.715598 0.995251
vt 0.715598 0.982706
vt 0.967383 0.746971
vt 0.967383 0.734426
vt 0.978367 0.734426
vt 0.978367 0.746971
vt 0.735087 0.788569
vt 0.735087 0.686575
vt 0.746071 0.686575
vt 0.746071 0.788569
vt 0.680902 0.216231
vt 0.680902 0.114260
vt 0.693447 0.114259
vt 0.693447 0.216230
vt 0.754420 0.788569
vt 0.754420 0.686575
vt 0.765404 0.686575
vt 0.765404 0.788569
vt 0.680902 0.106067
vt 0.680902 0.004096
vt 0.693447 0.004097
vt 0.693447 0.106068
vt 0.267728 0.980168
vt 0.267728 0.992713
vt 0.256744 0.992713
vt 0.256744 0.980168
vt 0.966183 0.237109
vt 0.966183 0.224564
vt 0.977167 0.224564
vt 0.977167 0.237109
vt 0.792928 0.788591
vt 0.792928 0.686597
vt 0.803912 0.686597
vt 0.803912 0.788591
vt 0.173076 0.715940
vt 0.173076 0.613969
vt 0.185621 0.613968
vt 0.185621 0.715939
vt 0.773752 0.788591
vt 0.773752 0.686597
vt 0.784736 0.686597
vt 0.784736 0.788591
vt 0.193812 0.715939
vt 0.193812 0.613968
vt 0.206357 0.613969
vt 0.206357 0.715940
vt 0.392387 0.980534
vt 0.392387 0.993078
vt 0.381403 0.993078
vt 0.381403 0.980534
vt 0.975856 0.326764
vt 0.975856 0.314219
vt 0.986840 0.314219
vt 0.986840 0.326764
vt 0.507075 0.830510
vt 0.507075 0.735451
vt 0.518059 0.735452
vt 0.518059 0.830510
vt 0.715755 0.464990
vt 0.715755 0.369953
vt 0.728300 0.369952
vt 0.728300 0.464989
vt 0.444746 0.830086
vt 0.444746 0.735028
vt 0.455730 0.735028
vt 0.455730 0.830086
vt 0.715755 0.568219
vt 0.715755 0.473182
vt 0.728300 0.473183
vt 0.728300 0.568220
vt 0.568478 0.981138
vt 0.568478 0.993683
vt 0.557494 0.993683
vt 0.557494 0.981138
vt 0.974174 0.290195
vt 0.974174 0.277650
vt 0.985159 0.277650
vt 0.985159 0.290195
vt 0.817334 0.355823
vt 0.817334 0.259766
vt 0.828318 0.259766
vt 0.828318 0.355823
vt 0.507075 0.727260
vt 0.507075 0.631225
vt 0.519620 0.631223
vt 0.519620 0.727259
vt 0.818723 0.100153
vt 0.818723 0.004096
vt 0.829707 0.004096
vt 0.829707 0.100153
vt 0.527812 0.727259
vt 0.527812 0.631223
vt 0.540357 0.631225
vt 0.540357 0.727260
vt 0.246751 0.973758
vt 0.246751 0.986303
vt 0.235767 0.986303
vt 0.235767 0.973758
vt 0.927080 0.977366
vt 0.927080 0.964821
vt 0.938064 0.964821
vt 0.938064 0.977366
vt 0.131603 0.822991
vt 0.131603 0.724132
vt 0.142587 0.724132
vt 0.142587 0.822991
vt 0.402140 0.712806
vt 0.402140 0.613969
vt 0.414684 0.613968
vt 0.414684 0.712805
vt 0.152340 0.822991
vt 0.152340 0.724132
vt 0.163324 0.724132
vt 0.163324 0.822990
vt 0.381403 0.712805
vt 0.381403 0.613968
vt 0.393948 0.613969
vt 0.393948 0.712806
vt 0.015080 0.982731
vt 0.015080 0.995276
vt 0.004096 0.995276
vt 0.004096 0.982731
vt 0.908295 0.662730
vt 0.908295 0.650185
vt 0.919279 0.650185
vt 0.919279 0.662730
vt 0.778983 0.361760
vt 0.778983 0.259766
vt 0.789967 0.259766
vt 0.789967 0.361760
vt 0.695019 0.471924
vt 0.695019 0.369953
vt 0.707563 0.369952
vt 0.707563 0.471923
vt 0.794332 0.471946
vt 0.794332 0.369952
vt 0.805316 0.369952
vt 0.805316 0.471946
vt 0.701639 0.106067
vt 0.701639 0.004096
vt 0.714183 0.004097
vt 0.714183 0.106068
vt 0.047100 0.980882
vt 0.047100 0.993427
vt 0.036116 0.993427
vt 0.036116 0.980882
vt 0.869787 0.986968
vt 0.869787 0.974423
vt 0.880771 0.974423
vt 0.880771 0.986968
vt 0.831436 0.766711
vt 0.831436 0.676425
vt 0.842420 0.676425
vt 0.842420 0.766711
vt 0.193812 0.814398
vt 0.193812 0.724133
vt 0.206357 0.724132
vt 0.206357 0.814397
vt 0.832840 0.460238
vt 0.832840 0.369952
vt 0.843824 0.369952
vt 0.843824 0.460238
vt 0.173076 0.814397
vt 0.173076 0.724132
vt 0.185621 0.724133
vt 0.185621 0.814398
vt 0.288464 0.982937
vt 0.288464 0.995481
vt 0.277480 0.995481
vt 0.277480 0.982937
vt 0.599552 0.977567
vt 0.599552 0.965023
vt 0.610536 0.965023
vt 0.610536 0.977567
vt 0.798159 0.361760
vt 0.798159 0.259766
vt 0.809143 0.259766
vt 0.809143 0.361760
vt 0.215030 0.715940
vt 0.215030 0.613969
vt 0.227575 0.613968
vt 0.227575 0.715939
vt 0.599552 0.791274
vt 0.599552 0.689280
vt 0.610536 0.689280
vt 0.610536 0.791274
vt 0.701639 0.216230
vt 0.701639 0.114259
vt 0.714184 0.114260
vt 0.714184 0.216231
vt 0.668063 0.981054
vt 0.668063 0.993598
vt 0.657079 0.993598
vt 0.657079 0.981054
vt 0.975427 0.513990
vt 0.975427 0.501445
vt 0.986411 0.501445
vt 0.986411 0.513990
vt 0.908295 0.641993
vt 0.908295 0.576412
vt 0.919279 0.576412
vt 0.919279 0.641993
vt 0.422876 0.894293
vt 0.422876 0.828726
vt 0.435421 0.828725
vt 0.435421 0.894292
vt 0.908138 0.737798
vt 0.908138 0.672217
vt 0.919122 0.672217
vt 0.919122 0.737798
vt 0.359106 0.895658
vt 0.359106 0.830092
vt 0.371651 0.830093
vt 0.371651 0.895659
vt 0.350758 0.978066
vt 0.350758 0.990611
vt 0.339774 0.990611
vt 0.339774 0.978066
vt 0.966212 0.452649
vt 0.966212 0.440104
vt 0.977196 0.440104
vt 0.977196 0.452649
vt 0.929738 0.216373
vt 0.929738 0.167138
vt 0.940722 0.167138
vt 0.940722 0.216373
vt 0.715755 0.930458
vt 0.715755 0.881234
vt 0.728300 0.881233
vt 0.728300 0.930457
vt 0.935666 0.306028
vt 0.935666 0.256793
vt 0.946650 0.256793
vt 0.946650 0.306028
vt 0.736491 0.930457
vt 0.736491 0.881233
vt 0.749036 0.881234
vt 0.749036 0.930458
vt 0.370090 0.975866
vt 0.370090 0.988411
vt 0.359106 0.988411
vt 0.359106 0.975866
vt 0.422876 0.987053
vt 0.422876 0.974509
vt 0.433860 0.974509
vt 0.433860 0.987053
vt 0.936919 0.528209
vt 0.936919 0.480588
vt 0.947903 0.480588
vt 0.947903 0.528209
vt 0.004096 0.931625
vt 0.004096 0.884014
vt 0.016641 0.884013
vt 0.016641 0.931624
vt 0.937176 0.051717
vt 0.937176 0.004096
vt 0.948160 0.004096
vt 0.948160 0.051717
vt 0.620409 0.936443
vt 0.620409 0.888832
vt 0.632954 0.888833
vt 0.632954 0.936444
vt 0.142587 0.978128
vt 0.142587 0.990672
vt 0.131603 0.990672
vt 0.131603 0.978128
vt 0.318953 0.987380
vt 0.318953 0.974835
vt 0.329937 0.974835
vt 0.329937 0.987380
vt 0.339930 0.949017
vt 0.339930 0.901815
vt 0.350914 0.901815
vt 0.350914 0.949017
vt 0.925691 0.808777
vt 0.925691 0.761585
vt 0.938236 0.761584
vt 0.938236 0.808776
vt 0.215030 0.950347
vt 0.215030 0.903145
vt 0.226014 0.903145
vt 0.226014 0.950347
vt 0.693337 0.937896
vt 0.693337 0.890704
vt 0.705882 0.890705
vt 0.705882 0.937897
vt 0.476587 0.976008
vt 0.476587 0.988553
vt 0.465602 0.988553
vt 0.465603 0.976008
vt 0.968089 0.120889
vt 0.968089 0.108344
vt 0.979073 0.108344
vt 0.979073 0.120889
vt 0.850611 0.925516
vt 0.850611 0.862959
vt 0.861595 0.862959
vt 0.861595 0.925516
vt 0.889669 0.170889
vt 0.889669 0.108345
vt 0.902214 0.108344
vt 0.902214 0.170888
vt 0.916491 0.319351
vt 0.916491 0.256793
vt 0.927475 0.256793
vt 0.927475 0.319350
vt 0.338370 0.893622
vt 0.338370 0.831079
vt 0.350914 0.831080
vt 0.350914 0.893623
vt 0.917207 0.978122
vt 0.917207 0.990667
vt 0.906223 0.990667
vt 0.906223 0.978122
vt 0.537671 0.993723
vt 0.537671 0.981178
vt 0.548655 0.981178
vt 0.548655 0.993723
vt 0.131603 0.605777
vt 0.131603 0.503783
vt 0.144268 0.503783
vt 0.144268 0.605777
vt 0.722375 0.106068
vt 0.722375 0.004097
vt 0.733516 0.004096
vt 0.733516 0.106067
vt 0.152460 0.605777
vt 0.152460 0.503783
vt 0.165125 0.503783
vt 0.165125 0.605776
vt 0.741707 0.216230
vt 0.741707 0.114259
vt 0.752848 0.114260
vt 0.752848 0.216231
vt 0.965983 0.290315
vt 0.954842 0.290315
vt 0.954842 0.277650
vt 0.965983 0.277650
vt 0.967492 0.037618
vt 0.956351 0.037618
vt 0.956351 0.024953
vt 0.967492 0.024953
vt 0.422876 0.710370
vt 0.422876 0.613968
vt 0.435541 0.613968
vt 0.435541 0.710370
vt 0.215030 0.820513
vt 0.215030 0.724132
vt 0.226171 0.724132
vt 0.226171 0.820512
vt 0.577242 0.722471
vt 0.577242 0.626068
vt 0.589907 0.626068
vt 0.589907 0.722470
vt 0.234363 0.820512
vt 0.234363 0.724132
vt 0.245504 0.724132
vt 0.245504 0.820513
vt 0.957553 0.967622
vt 0.946412 0.967622
vt 0.946412 0.954957
vt 0.957553 0.954957
vt 0.047257 0.972690
vt 0.036116 0.972690
vt 0.036116 0.960025
vt 0.047257 0.960025
vt 0.554931 0.722126
vt 0.554931 0.626514
vt 0.567596 0.626514
vt 0.567596 0.722126
vt 0.813507 0.465544
vt 0.813507 0.369953
vt 0.824648 0.369952
vt 0.824648 0.465543
vt 0.444746 0.726836
vt 0.444746 0.631224
vt 0.457411 0.631223
vt 0.457411 0.726836
vt 0.812103 0.780770
vt 0.812103 0.685179
vt 0.823244 0.685180
vt 0.823244 0.780771
vt 0.967649 0.072574
vt 0.956508 0.072574
vt 0.956508 0.059909
vt 0.967649 0.059909
vt 0.880928 0.966232
vt 0.869787 0.966232
vt 0.869787 0.953566
vt 0.880928 0.953566
vt 0.577242 0.898679
vt 0.577242 0.835019
vt 0.589907 0.835019
vt 0.589907 0.898679
vt 0.910405 0.171991
vt 0.910405 0.108345
vt 0.921546 0.108344
vt 0.921546 0.171991
vt 0.444746 0.901938
vt 0.444746 0.838278
vt 0.457411 0.838278
vt 0.457411 0.901938
vt 0.910405 0.243829
vt 0.910405 0.180183
vt 0.921546 0.180184
vt 0.921546 0.243830
vt 0.226171 0.971204
vt 0.215030 0.971204
vt 0.215030 0.958539
vt 0.226171 0.958539
vt 0.668220 0.972862
vt 0.657079 0.972862
vt 0.657079 0.960197
vt 0.668220 0.960197
vt 0.004096 0.875822
vt 0.004096 0.803938
vt 0.016761 0.803938
vt 0.016761 0.875822
vt 0.318953 0.894619
vt 0.318953 0.822751
vt 0.330094 0.822751
vt 0.330094 0.894618
vt 0.693337 0.882512
vt 0.693337 0.810628
vt 0.706003 0.810628
vt 0.706003 0.882512
vt 0.465602 0.899769
vt 0.465602 0.827901
vt 0.476743 0.827902
vt 0.476743 0.899770
vt 0.967649 0.093431
vt 0.956508 0.093431
vt 0.956508 0.080766
vt 0.967649 0.080766
vt 0.434017 0.966317
vt 0.422876 0.966317
vt 0.422876 0.953652
vt 0.434017 0.953652
vt 0.537671 0.927013
vt 0.537671 0.875813
vt 0.550336 0.875813
vt 0.550336 0.927013
vt 0.927080 0.918576
vt 0.927080 0.867388
vt 0.938221 0.867387
vt 0.938221 0.918575
vt 0.812103 0.924259
vt 0.812103 0.873059
vt 0.824769 0.873059
vt 0.824769 0.924259
vt 0.927314 0.723405
vt 0.927314 0.672217
vt 0.938455 0.672218
vt 0.938455 0.723406
vt 0.963259 0.647871
vt 0.952118 0.647871
vt 0.952118 0.635206
vt 0.963259 0.635206
vt 0.079166 0.972882
vt 0.068025 0.972882
vt 0.068025 0.960217
vt 0.079166 0.960217
vt 0.422876 0.945460
vt 0.422876 0.902485
vt 0.435541 0.902485
vt 0.435541 0.945460
vt 0.359106 0.946818
vt 0.359106 0.903852
vt 0.370247 0.903851
vt 0.370247 0.946817
vt 0.318953 0.945786
vt 0.318953 0.902811
vt 0.331618 0.902811
vt 0.331618 0.945786
vt 0.193812 0.949287
vt 0.193812 0.906321
vt 0.204953 0.906322
vt 0.204953 0.949288
vt 0.967664 0.326885
vt 0.956523 0.326884
vt 0.956523 0.314219
vt 0.967664 0.314219
vt 0.370247 0.967675
vt 0.359106 0.967675
vt 0.359106 0.955010
vt 0.370247 0.955009
vt 0.577242 0.945869
vt 0.577242 0.906871
vt 0.589907 0.906871
vt 0.589907 0.945869
vt 0.937176 0.098899
vt 0.937176 0.059910
vt 0.948317 0.059909
vt 0.948317 0.098898
vt 0.465602 0.946959
vt 0.465602 0.907962
vt 0.478268 0.907962
vt 0.478268 0.946959
vt 0.945475 0.389390
vt 0.945475 0.350401
vt 0.956616 0.350402
vt 0.956616 0.389391
vt 0.860852 0.971207
vt 0.849711 0.971207
vt 0.849711 0.958542
vt 0.860852 0.958542
vt 0.413280 0.972948
vt 0.402140 0.972948
vt 0.402140 0.960283
vt 0.413280 0.960283
vt 0.131603 0.949079
vt 0.131603 0.932191
vt 0.144268 0.932191
vt 0.144268 0.949079
vt 0.557494 0.952090
vt 0.557494 0.935205
vt 0.568634 0.935204
vt 0.568634 0.952089
vt 0.906223 0.949074
vt 0.906223 0.932185
vt 0.918888 0.932185
vt 0.918888 0.949074
vt 0.277480 0.953887
vt 0.277480 0.937003
vt 0.288621 0.937003
vt 0.288621 0.953888
vt 0.246908 0.965566
vt 0.235767 0.965566
vt 0.235767 0.952901
vt 0.246908 0.952901
vt 0.568634 0.972947
vt 0.557494 0.972947
vt 0.557494 0.960281
vt 0.568634 0.960281
vt 0.945475 0.431913
vt 0.945475 0.397583
vt 0.958141 0.397583
vt 0.958141 0.431913
vt 0.946548 0.851292
vt 0.946548 0.816970
vt 0.957689 0.816969
vt 0.957689 0.851291
vt 0.946412 0.901717
vt 0.946412 0.867387
vt 0.959078 0.867387
vt 0.959078 0.901717
vt 0.946646 0.610734
vt 0.946646 0.576412
vt 0.957787 0.576413
vt 0.957787 0.610735
vt 0.476743 0.967816
vt 0.465602 0.967816
vt 0.465602 0.955151
vt 0.476743 0.955151
vt 0.455887 0.967836
vt 0.444746 0.967836
vt 0.444746 0.955171
vt 0.455887 0.955171
vt 0.599552 0.944166
vt 0.611672 0.944166
vt 0.611672 0.956831
vt 0.599552 0.956831
vt 0.876579 0.248602
vt 0.876579 0.236485
vt 0.887720 0.236484
vt 0.887720 0.248601
vt 0.632528 0.957301
vt 0.620409 0.957301
vt 0.620409 0.944636
vt 0.632528 0.944636
vt 0.857246 0.248601
vt 0.857246 0.236484
vt 0.868387 0.236485
vt 0.868387 0.248602
vt 0.110815 0.971773
vt 0.099674 0.971773
vt 0.099674 0.959107
vt 0.110815 0.959108
vt 0.976744 0.774250
vt 0.965603 0.774250
vt 0.965603 0.761584
vt 0.976744 0.761584
vt 0.908295 0.568220
vt 0.908295 0.550473
vt 0.920960 0.550473
vt 0.920960 0.568220
vt 0.815228 0.251317
vt 0.815228 0.233573
vt 0.826369 0.233572
vt 0.826369 0.251316
vt 0.935667 0.331967
vt 0.935667 0.314219
vt 0.948332 0.314219
vt 0.948332 0.331967
vt 0.099674 0.950915
vt 0.099674 0.933171
vt 0.110815 0.933172
vt 0.110815 0.950916
vt 0.267885 0.971976
vt 0.256744 0.971976
vt 0.256744 0.959311
vt 0.267885 0.959311
vt 0.548811 0.972987
vt 0.537671 0.972987
vt 0.537671 0.960322
vt 0.548811 0.960322
vt 0.036116 0.951833
vt 0.036116 0.937281
vt 0.048781 0.937281
vt 0.048781 0.951833
vt 0.754263 0.953200
vt 0.754263 0.938650
vt 0.765404 0.938649
vt 0.765404 0.953199
vt 0.068025 0.952025
vt 0.068025 0.937473
vt 0.080691 0.937473
vt 0.080691 0.952025
vt 0.734931 0.953199
vt 0.734931 0.938649
vt 0.746071 0.938650
vt 0.746071 0.953200
vt 0.330094 0.966643
vt 0.318953 0.966643
vt 0.318953 0.953978
vt 0.330094 0.953978
vt 0.746071 0.974056
vt 0.734930 0.974056
vt 0.734930 0.961391
vt 0.746071 0.961391
vt 0.235767 0.944709
vt 0.235767 0.903145
vt 0.248432 0.903145
vt 0.248432 0.944709
vt 0.298217 0.948039
vt 0.298217 0.906483
vt 0.309358 0.906482
vt 0.309358 0.948038
vt 0.925691 0.858534
vt 0.925691 0.816969
vt 0.938356 0.816969
vt 0.938356 0.858534
vt 0.173076 0.948633
vt 0.173076 0.907078
vt 0.184217 0.907079
vt 0.184217 0.948634
vt 0.765404 0.974057
vt 0.754263 0.974056
vt 0.754263 0.961391
vt 0.765404 0.961391
vt 0.500956 0.974489
vt 0.489815 0.974489
vt 0.489815 0.961824
vt 0.500956 0.961824
vt 0.465602 0.819710
vt 0.465602 0.735560
vt 0.478268 0.735560
vt 0.478268 0.819710
vt 0.856939 0.564720
vt 0.856939 0.480589
vt 0.868079 0.480588
vt 0.868079 0.564719
vt 0.815345 0.564738
vt 0.815345 0.480588
vt 0.828011 0.480588
vt 0.828011 0.564738
vt 0.857246 0.340924
vt 0.857246 0.256793
vt 0.868387 0.256794
vt 0.868387 0.340925
vt 0.977021 0.829634
vt 0.965880 0.829634
vt 0.965880 0.816969
vt 0.977021 0.816969
vt 0.968797 0.549066
vt 0.957656 0.549066
vt 0.957656 0.536401
vt 0.968797 0.536401
vt 0.906223 0.923994
vt 0.906223 0.867387
vt 0.918888 0.867387
vt 0.918888 0.923994
vt 0.277480 0.928811
vt 0.277480 0.872217
vt 0.288621 0.872217
vt 0.288621 0.928810
vt 0.099674 0.924980
vt 0.099674 0.868374
vt 0.112339 0.868374
vt 0.112339 0.924980
vt 0.402140 0.928893
vt 0.402140 0.872299
vt 0.413280 0.872300
vt 0.413280 0.928893
vt 0.896763 0.858330
vt 0.885622 0.858330
vt 0.885622 0.845665
vt 0.896763 0.845665
vt 0.965983 0.269458
vt 0.954842 0.269458
vt 0.954842 0.256793
vt 0.965983 0.256793
vt 0.773752 0.872339
vt 0.773752 0.796783
vt 0.786418 0.796783
vt 0.786418 0.872339
vt 0.193812 0.898130
vt 0.193812 0.822590
vt 0.204953 0.822589
vt 0.204953 0.898129
vt 0.599552 0.875022
vt 0.599552 0.799465
vt 0.612217 0.799465
vt 0.612217 0.875021
vt 0.298217 0.898290
vt 0.298217 0.822751
vt 0.309358 0.822751
vt 0.309358 0.898291
vt 0.309358 0.968895
vt 0.298217 0.968895
vt 0.298217 0.956230
vt 0.309358 0.956230
vt 0.184217 0.969491
vt 0.173076 0.969491
vt 0.173076 0.956826
vt 0.184217 0.956826
vt 0.812103 0.864868
vt 0.812103 0.788962
vt 0.824769 0.788962
vt 0.824769 0.864868
vt 0.885622 0.837473
vt 0.885622 0.761585
vt 0.896763 0.761584
vt 0.896763 0.837472
vt 0.858635 0.080001
vt 0.858635 0.004096
vt 0.871301 0.004096
vt 0.871301 0.080001
vt 0.879492 0.079984
vt 0.879492 0.004096
vt 0.890633 0.004097
vt 0.890633 0.079985
vt 0.392544 0.972342
vt 0.381403 0.972342
vt 0.381403 0.959677
vt 0.392544 0.959677
vt 0.976744 0.795106
vt 0.965603 0.795107
vt 0.965603 0.782441
vt 0.976744 0.782441
vt 0.319314 0.605776
vt 0.319314 0.503783
vt 0.331980 0.503783
vt 0.331980 0.605777
vt 0.099674 0.764377
vt 0.099674 0.662406
vt 0.110815 0.662405
vt 0.110815 0.764376
vt 0.340171 0.605776
vt 0.340171 0.503783
vt 0.352837 0.503783
vt 0.352837 0.605776
vt 0.754420 0.678383
vt 0.754420 0.576412
vt 0.765561 0.576413
vt 0.765561 0.678384
vt 0.726739 0.974515
vt 0.715598 0.974515
vt 0.715598 0.961849
vt 0.726739 0.961849
vt 0.163601 0.969676
vt 0.152460 0.969676
vt 0.152460 0.957010
vt 0.163601 0.957010
vt 0.361028 0.605776
vt 0.361028 0.503783
vt 0.373693 0.503783
vt 0.373693 0.605777
vt 0.722375 0.216231
vt 0.722375 0.114260
vt 0.733516 0.114259
vt 0.733516 0.216230
vt 0.381885 0.605777
vt 0.381885 0.503783
vt 0.394550 0.503783
vt 0.394550 0.605776
vt 0.755824 0.471923
vt 0.755824 0.369952
vt 0.766965 0.369953
vt 0.766965 0.471924
vt 0.204953 0.970145
vt 0.193812 0.970145
vt 0.193812 0.957480
vt 0.204953 0.957480
vt 0.015237 0.974539
vt 0.004096 0.974539
vt 0.004096 0.961874
vt 0.015237 0.961874
vt 0.215030 0.605776
vt 0.215030 0.503783
vt 0.227696 0.503783
vt 0.227696 0.605776
vt 0.735087 0.678384
vt 0.735087 0.576413
vt 0.746228 0.576412
vt 0.746228 0.678383
vt 0.235887 0.605777
vt 0.235887 0.503783
vt 0.248553 0.503783
vt 0.248553 0.605776
vt 0.736491 0.471923
vt 0.736491 0.369952
vt 0.747632 0.369953
vt 0.747632 0.471924
vt 0.350914 0.969874
vt 0.339774 0.969874
vt 0.339774 0.957209
vt 0.350914 0.957209
vt 0.288621 0.974745
vt 0.277480 0.974745
vt 0.277480 0.962080
vt 0.288621 0.962080
vt 0.256744 0.605776
vt 0.256744 0.503783
vt 0.269409 0.503783
vt 0.269409 0.605777
vt 0.715755 0.678384
vt 0.715755 0.576413
vt 0.726896 0.576412
vt 0.726896 0.678383
vt 0.277601 0.605777
vt 0.277601 0.503783
vt 0.290266 0.503783
vt 0.290266 0.605776
vt 0.740318 0.361759
vt 0.740318 0.259788
vt 0.751459 0.259789
vt 0.751459 0.361760
vt 0.704478 0.958754
vt 0.693338 0.958754
vt 0.693337 0.946088
vt 0.704478 0.946088
vt 0.142744 0.969936
vt 0.131603 0.969936
vt 0.131603 0.957271
vt 0.142744 0.957271
vt 0.298458 0.605776
vt 0.298458 0.503783
vt 0.311123 0.503783
vt 0.311123 0.605776
vt 0.759651 0.361760
vt 0.759651 0.259789
vt 0.770792 0.259788
vt 0.770792 0.361759
vt 0.402742 0.605777
vt 0.402742 0.503783
vt 0.415407 0.503783
vt 0.415407 0.605776
vt 0.720986 0.361759
vt 0.720986 0.259788
vt 0.732127 0.259789
vt 0.732127 0.361760
vt 0.588383 0.966726
vt 0.577242 0.966726
vt 0.577242 0.954061
vt 0.588383 0.954061
vt 0.967236 0.493253
vt 0.956095 0.493253
vt 0.956095 0.480588
vt 0.967236 0.480588
vt 0.736491 0.567748
vt 0.736491 0.480115
vt 0.749157 0.480115
vt 0.749157 0.567748
vt 0.099674 0.860182
vt 0.099674 0.772569
vt 0.110815 0.772568
vt 0.110815 0.860181
vt 0.773752 0.568220
vt 0.773752 0.480588
vt 0.786417 0.480588
vt 0.786417 0.568220
vt 0.850611 0.664024
vt 0.850611 0.576412
vt 0.861752 0.576413
vt 0.861752 0.664025
vt 0.975949 0.363066
vt 0.964808 0.363066
vt 0.964808 0.350401
vt 0.975949 0.350401
vt 0.975949 0.383923
vt 0.964808 0.383923
vt 0.964808 0.371258
vt 0.975949 0.371258
vt 0.577242 0.617877
vt 0.577242 0.516329
vt 0.589907 0.516329
vt 0.589907 0.617877
vt 0.036116 0.773601
vt 0.036116 0.672076
vt 0.047257 0.672075
vt 0.047257 0.773600
vt 0.679393 0.361760
vt 0.679393 0.260212
vt 0.692058 0.260212
vt 0.692058 0.361760
vt 0.657079 0.779822
vt 0.657079 0.678297
vt 0.668220 0.678298
vt 0.668220 0.779823
vt 0.521692 0.976835
vt 0.510551 0.976834
vt 0.510551 0.964169
vt 0.521692 0.964169
vt 0.917364 0.969930
vt 0.906223 0.969930
vt 0.906223 0.957265
vt 0.917364 0.957265
vt 0.298217 0.714565
vt 0.298217 0.613968
vt 0.310882 0.613968
vt 0.310882 0.714565
vt 0.359106 0.821900
vt 0.359106 0.721326
vt 0.370247 0.721325
vt 0.370247 0.821899
vt 0.319074 0.714565
vt 0.319074 0.613968
vt 0.331739 0.613968
vt 0.331739 0.714565
vt 0.812103 0.676986
vt 0.812103 0.576412
vt 0.823244 0.576413
vt 0.823244 0.676987
vt 0.976885 0.967622
vt 0.965744 0.967622
vt 0.965744 0.954957
vt 0.976885 0.954957
vt 0.823244 0.969935
vt 0.812104 0.969935
vt 0.812104 0.957270
vt 0.823244 0.957270
vt 0.423599 0.605776
vt 0.423599 0.503783
vt 0.436264 0.503783
vt 0.436264 0.605777
vt 0.761040 0.106068
vt 0.761040 0.004097
vt 0.772181 0.004096
vt 0.772181 0.106067
vt 0.554931 0.618322
vt 0.554931 0.516329
vt 0.567596 0.516329
vt 0.567596 0.618322
vt 0.741707 0.106067
vt 0.741707 0.004096
vt 0.752848 0.004097
vt 0.752848 0.106068
vt 0.967236 0.514110
vt 0.956095 0.514110
vt 0.956095 0.501445
vt 0.967236 0.501445
vt 0.976729 0.922574
vt 0.965588 0.922574
vt 0.965588 0.909909
vt 0.976729 0.909909
vt 0.173317 0.605776
vt 0.173317 0.503783
vt 0.185982 0.503783
vt 0.185982 0.605776
vt 0.761040 0.216231
vt 0.761040 0.114260
vt 0.772181 0.114259
vt 0.772181 0.216230
vt 0.194174 0.605777
vt 0.194174 0.503783
vt 0.206839 0.503783
vt 0.206839 0.605776
vt 0.068025 0.773792
vt 0.068025 0.671821
vt 0.079166 0.671822
vt 0.079166 0.773793
vt 0.967492 0.016761
vt 0.956351 0.016761
vt 0.956351 0.004096
vt 0.967492 0.004096
vt 0.976729 0.943431
vt 0.965588 0.943431
vt 0.965588 0.930766
vt 0.976729 0.930766
vt 0.895967 0.663710
vt 0.889119 0.663629
vt 0.889119 0.655785
vt 0.895967 0.655866
vt 0.020106 0.503783
vt 0.027925 0.503825
vt 0.027925 0.685561
vt 0.020106 0.685518
vt 0.876271 0.560027
vt 0.883119 0.559946
vt 0.883119 0.567790
vt 0.876271 0.567871
vt 0.011914 0.685518
vt 0.004096 0.685561
vt 0.004096 0.503825
vt 0.011914 0.503783
vt 0.043879 0.504330
vt 0.043879 0.663883
vt 0.036116 0.663336
vt 0.036116 0.503783
vt 0.052071 0.663883
vt 0.052071 0.504330
vt 0.059834 0.503783
vt 0.059834 0.663336
vt 0.986558 0.752004
vt 0.986558 0.744300
vt 0.992314 0.745309
vt 0.992314 0.753013
vt 0.684057 0.794119
vt 0.676412 0.795333
vt 0.676412 0.679512
vt 0.684057 0.678297
vt 0.987265 0.134752
vt 0.987265 0.127048
vt 0.993020 0.126039
vt 0.993020 0.133743
vt 0.818723 0.108344
vt 0.826369 0.109559
vt 0.826369 0.225381
vt 0.818723 0.224166
vt 0.075658 0.503857
vt 0.075658 0.663630
vt 0.068025 0.663556
vt 0.068025 0.503783
vt 0.083850 0.663630
vt 0.083850 0.503857
vt 0.091483 0.503783
vt 0.091483 0.663556
vt 0.986558 0.733662
vt 0.986558 0.726605
vt 0.992056 0.729052
vt 0.992056 0.736108
vt 0.679393 0.371461
vt 0.686827 0.369952
vt 0.686827 0.506494
vt 0.679393 0.508003
vt 0.987265 0.117847
vt 0.987265 0.110791
vt 0.992763 0.108344
vt 0.992763 0.115401
vt 0.686827 0.654246
vt 0.679393 0.652737
vt 0.679393 0.516195
vt 0.686827 0.517703
vt 0.099674 0.654213
vt 0.099674 0.504295
vt 0.107447 0.503783
vt 0.107447 0.653701
vt 0.123412 0.504295
vt 0.123412 0.654213
vt 0.115639 0.653701
vt 0.115639 0.503783
vt 0.986445 0.897117
vt 0.986445 0.889923
vt 0.992866 0.888124
vt 0.992866 0.895318
vt 0.859020 0.460238
vt 0.852015 0.458940
vt 0.852015 0.350401
vt 0.859020 0.351698
vt 0.986558 0.679411
vt 0.986558 0.672217
vt 0.992979 0.674016
vt 0.992979 0.681210
vt 0.855297 0.109642
vt 0.862302 0.108344
vt 0.862302 0.216884
vt 0.855297 0.218181
vt 0.869787 0.858204
vt 0.869787 0.761584
vt 0.877431 0.762576
vt 0.877431 0.859196
vt 0.842420 0.774902
vt 0.842420 0.871522
vt 0.834776 0.872514
vt 0.834776 0.775894
vt 0.973204 0.626850
vt 0.965979 0.626809
vt 0.965979 0.617885
vt 0.973204 0.617926
vt 0.683339 0.935379
vt 0.677815 0.934036
vt 0.677815 0.922503
vt 0.683339 0.923846
vt 0.973302 0.557299
vt 0.980527 0.557258
vt 0.980527 0.566182
vt 0.973302 0.566223
vt 0.641539 0.922734
vt 0.647062 0.921391
vt 0.647062 0.932924
vt 0.641539 0.934267
vt 0.993023 0.955933
vt 0.993023 0.967622
vt 0.985077 0.966308
vt 0.985077 0.954619
vt 0.985154 0.589415
vt 0.985154 0.577726
vt 0.993101 0.576412
vt 0.993101 0.588101
vt 0.908383 0.088615
vt 0.898825 0.088305
vt 0.900609 0.078550
vt 0.910167 0.078860
vt 0.906739 0.830452
vt 0.916297 0.830142
vt 0.914513 0.840769
vt 0.904955 0.841080
vt 0.916297 0.850525
vt 0.906739 0.850835
vt 0.910167 0.099243
vt 0.900609 0.098933
vt 0.549302 0.936192
vt 0.549302 0.952130
vt 0.537671 0.951142
vt 0.537671 0.935204
vt 0.381403 0.951485
vt 0.381403 0.935548
vt 0.393035 0.934560
vt 0.393035 0.950497
vt 0.824301 0.949078
vt 0.812103 0.948718
vt 0.812103 0.932450
vt 0.824301 0.932810
vt 0.794456 0.229693
vt 0.806753 0.229958
vt 0.806753 0.250235
vt 0.794456 0.249970
vt 0.152460 0.932551
vt 0.164658 0.932191
vt 0.164658 0.948458
vt 0.152460 0.948819
vt 0.786265 0.249970
vt 0.773967 0.250235
vt 0.773967 0.229958
vt 0.786265 0.229693
vt 0.571066 0.231132
vt 0.571066 0.251559
vt 0.554787 0.251172
vt 0.554787 0.230745
vt 0.579257 0.251559
vt 0.579257 0.231132
vt 0.595536 0.230745
vt 0.595536 0.251172
vt 0.842420 0.888652
vt 0.834600 0.888875
vt 0.833303 0.880928
vt 0.841123 0.880705
vt 0.833303 0.905748
vt 0.841123 0.905971
vt 0.842420 0.914653
vt 0.834600 0.914430
vt 0.841123 0.922600
vt 0.833303 0.922377
vt 0.841123 0.897334
vt 0.833303 0.897557
vt 0.684649 0.846830
vt 0.684649 0.859296
vt 0.676412 0.857127
vt 0.676412 0.844661
vt 0.757228 0.925411
vt 0.757228 0.912945
vt 0.765465 0.910776
vt 0.765465 0.923242
vt 0.957992 0.240156
vt 0.949003 0.241246
vt 0.949003 0.225654
vt 0.957992 0.224564
vt 0.927314 0.731597
vt 0.938387 0.732061
vt 0.938387 0.751626
vt 0.927314 0.751162
vt 0.832492 0.932450
vt 0.841481 0.933540
vt 0.841481 0.949132
vt 0.832492 0.948042
vt 0.940811 0.244129
vt 0.929738 0.244593
vt 0.929738 0.225029
vt 0.940811 0.224564
vt 0.743629 0.234404
vt 0.743629 0.249453
vt 0.729674 0.244741
vt 0.729674 0.229693
vt 0.751821 0.249453
vt 0.751821 0.234404
vt 0.765776 0.229693
vt 0.765776 0.244741
vt 0.928902 0.097396
vt 0.918358 0.093765
vt 0.918358 0.078550
vt 0.928902 0.082180
vt 0.692058 0.251937
vt 0.682371 0.251768
vt 0.682371 0.230116
vt 0.692058 0.230286
vt 0.661727 0.193232
vt 0.672270 0.189601
vt 0.672270 0.204817
vt 0.661727 0.208447
vt 0.711796 0.229946
vt 0.721483 0.229776
vt 0.721483 0.251427
vt 0.711796 0.251597
vt 0.700250 0.251344
vt 0.700250 0.229693
vt 0.670825 0.252021
vt 0.670825 0.230369
vt 0.866919 0.098956
vt 0.858635 0.099357
vt 0.858635 0.088594
vt 0.866919 0.088193
vt 0.889119 0.953837
vt 0.897466 0.953566
vt 0.897466 0.967066
vt 0.889119 0.967337
vt 0.875110 0.088193
vt 0.883393 0.088594
vt 0.883393 0.099357
vt 0.875110 0.098956
vt 0.684758 0.973967
vt 0.676412 0.973697
vt 0.676412 0.960197
vt 0.684758 0.960467
vt 0.004096 0.953592
vt 0.004096 0.939817
vt 0.015294 0.939907
vt 0.015294 0.953683
vt 0.521750 0.942112
vt 0.521750 0.955887
vt 0.510551 0.955978
vt 0.510551 0.942203
vt 0.683315 0.991112
vt 0.676411 0.990148
vt 0.676411 0.982159
vt 0.683315 0.983123
vt 0.836510 0.349116
vt 0.842265 0.350525
vt 0.842265 0.361721
vt 0.836510 0.360313
vt 0.981858 0.462430
vt 0.988761 0.461467
vt 0.988761 0.469456
vt 0.981858 0.470420
vt 0.683570 0.912903
vt 0.677815 0.914311
vt 0.677815 0.903115
vt 0.683570 0.901707
vt 0.993622 0.839708
vt 0.993622 0.850277
vt 0.985056 0.848395
vt 0.985056 0.837826
vt 0.889119 0.987980
vt 0.889119 0.977411
vt 0.897686 0.975528
vt 0.897686 0.986097
vt 0.648528 0.955921
vt 0.640720 0.958558
vt 0.640720 0.947273
vt 0.648528 0.944636
vt 0.831932 0.957908
vt 0.841481 0.957323
vt 0.841481 0.970259
vt 0.831932 0.970844
vt 0.640720 0.966750
vt 0.648528 0.969386
vt 0.648528 0.980672
vt 0.640720 0.978035
vt 0.841481 0.992556
vt 0.831932 0.991971
vt 0.831932 0.979035
vt 0.841481 0.979620
vt 0.861595 0.935418
vt 0.861595 0.950350
vt 0.849711 0.948640
vt 0.849711 0.933708
vt 0.256744 0.951119
vt 0.256744 0.936187
vt 0.268628 0.934477
vt 0.268628 0.949410
vt 0.896611 0.566627
vt 0.891310 0.568040
vt 0.891310 0.561359
vt 0.896611 0.559946
vt 0.986558 0.690392
vt 0.991478 0.689402
vt 0.991478 0.698822
vt 0.986558 0.699812
vt 0.987265 0.142944
vt 0.992565 0.144357
vt 0.992565 0.151038
vt 0.987265 0.149625
vt 0.991478 0.718414
vt 0.986558 0.717424
vt 0.986558 0.708004
vt 0.991478 0.708994
vt 0.966212 0.468914
vt 0.966212 0.460841
vt 0.973666 0.462346
vt 0.973666 0.470420
vt 0.965110 0.557258
vt 0.965110 0.565331
vt 0.957656 0.566837
vt 0.957656 0.558764
vt 0.897872 0.920018
vt 0.890523 0.918545
vt 0.890523 0.908526
vt 0.897872 0.909999
vt 0.985213 0.816969
vt 0.993373 0.817393
vt 0.993373 0.829453
vt 0.985213 0.829028
vt 0.641539 0.903180
vt 0.648887 0.901707
vt 0.648887 0.911726
vt 0.641539 0.913199
vt 0.993314 0.609666
vt 0.985154 0.610090
vt 0.985154 0.598030
vt 0.993314 0.597606
vt 0.568945 0.913283
vt 0.568945 0.926301
vt 0.558527 0.925267
vt 0.558527 0.912249
vt 0.916491 0.341594
vt 0.916491 0.328576
vt 0.926909 0.327542
vt 0.926909 0.340560
vt 0.987498 0.626784
vt 0.981396 0.626850
vt 0.981396 0.618544
vt 0.987498 0.618478
vt 0.895911 0.236484
vt 0.901152 0.237016
vt 0.901152 0.247283
vt 0.895911 0.246752
vt 0.677815 0.943571
vt 0.683918 0.943637
vt 0.683918 0.951943
vt 0.677815 0.951877
vt 0.990749 0.407850
vt 0.985508 0.408382
vt 0.985508 0.398114
vt 0.990749 0.397583
vt 0.904092 0.331247
vt 0.904092 0.341547
vt 0.897315 0.342203
vt 0.897315 0.331903
vt 0.890523 0.938510
vt 0.890523 0.928210
vt 0.897300 0.928866
vt 0.897300 0.939166
vt 0.879736 0.452656
vt 0.867212 0.452390
vt 0.871144 0.440602
vt 0.883668 0.440868
vt 0.931403 0.635472
vt 0.943926 0.635206
vt 0.939994 0.651267
vt 0.927471 0.651534
vt 0.943926 0.663055
vt 0.931403 0.663321
vt 0.883668 0.468718
vt 0.871144 0.468451
vt 0.504467 0.248789
vt 0.504467 0.230745
vt 0.521436 0.233008
vt 0.521436 0.251051
vt 0.546596 0.230745
vt 0.546596 0.248789
vt 0.529627 0.251051
vt 0.529627 0.233008
vt 0.994009 0.773669
vt 0.984935 0.773631
vt 0.984935 0.761584
vt 0.994009 0.761622
vt 0.641703 0.878216
vt 0.648887 0.878387
vt 0.648887 0.893515
vt 0.641703 0.893343
vt 0.984935 0.782479
vt 0.994008 0.782441
vt 0.994008 0.794488
vt 0.984935 0.794526
vt 0.685000 0.893343
vt 0.677815 0.893515
vt 0.677815 0.878387
vt 0.685000 0.878216
vt 0.802524 0.942139
vt 0.802524 0.957214
vt 0.792928 0.956558
vt 0.792928 0.941483
vt 0.773752 0.958534
vt 0.773752 0.943458
vt 0.783348 0.942802
vt 0.783348 0.957877
vt 0.757348 0.554211
vt 0.757348 0.521259
vt 0.761271 0.521259
vt 0.761271 0.554211
vt 0.381403 0.864108
vt 0.381403 0.831163
vt 0.409648 0.831161
vt 0.409648 0.864105
vt 0.757228 0.829713
vt 0.757228 0.796761
vt 0.761151 0.796761
vt 0.761151 0.829713
vt 0.870493 0.228224
vt 0.870493 0.195279
vt 0.898738 0.195281
vt 0.898738 0.228226
vt 0.761151 0.837904
vt 0.761151 0.866149
vt 0.757228 0.866149
vt 0.757228 0.837904
vt 0.757228 0.902585
vt 0.757228 0.874340
vt 0.761151 0.874340
vt 0.761151 0.902585
vt 0.119007 0.723601
vt 0.119007 0.662405
vt 0.122929 0.662405
vt 0.122929 0.723601
vt 0.422180 0.250787
vt 0.422180 0.189604
vt 0.455132 0.189601
vt 0.455132 0.250784
vt 0.087358 0.733017
vt 0.087358 0.671821
vt 0.091281 0.671821
vt 0.091281 0.733017
vt 0.463324 0.250784
vt 0.463324 0.189601
vt 0.496276 0.189604
vt 0.496276 0.250787
vt 0.059371 0.672075
vt 0.059371 0.705027
vt 0.055448 0.705027
vt 0.055448 0.672075
vt 0.023271 0.726704
vt 0.023271 0.693752
vt 0.027194 0.693752
vt 0.027194 0.726704
vt 0.794609 0.829735
vt 0.794609 0.796783
vt 0.798532 0.796783
vt 0.798532 0.829735
vt 0.869787 0.900334
vt 0.869787 0.867390
vt 0.898031 0.867387
vt 0.898031 0.900332
vt 0.119007 0.764745
vt 0.119007 0.731793
vt 0.122929 0.731793
vt 0.122929 0.764745
vt 0.577340 0.222546
vt 0.577340 0.189601
vt 0.605584 0.189604
vt 0.605584 0.222548
vt 0.798532 0.837926
vt 0.798532 0.866171
vt 0.794609 0.866171
vt 0.794609 0.837926
vt 0.087201 0.897147
vt 0.087201 0.868903
vt 0.091124 0.868903
vt 0.091124 0.897147
vt 0.023271 0.767848
vt 0.023271 0.734896
vt 0.027194 0.734896
vt 0.027194 0.767848
vt 0.256744 0.864025
vt 0.256744 0.831081
vt 0.284988 0.831078
vt 0.284988 0.864023
vt 0.055448 0.746170
vt 0.055448 0.713218
vt 0.059371 0.713218
vt 0.059371 0.746170
vt 0.537671 0.867619
vt 0.537671 0.834675
vt 0.565915 0.834677
vt 0.565915 0.867622
vt 0.643507 0.840601
vt 0.643507 0.868846
vt 0.639585 0.868846
vt 0.639585 0.840601
vt 0.055292 0.896955
vt 0.055292 0.868711
vt 0.059215 0.868711
vt 0.059215 0.896955
vt 0.757348 0.513067
vt 0.757348 0.480115
vt 0.761271 0.480115
vt 0.761271 0.513067
vt 0.489815 0.871649
vt 0.489815 0.838704
vt 0.518059 0.838702
vt 0.518059 0.871646
vt 0.119007 0.805888
vt 0.119007 0.772936
vt 0.122929 0.772936
vt 0.122929 0.805888
vt 0.131603 0.864127
vt 0.131603 0.831182
vt 0.159848 0.831184
vt 0.159848 0.864129
vt 0.895782 0.440602
vt 0.895782 0.468846
vt 0.891859 0.468846
vt 0.891859 0.440602
vt 0.558527 0.904058
vt 0.558527 0.875813
vt 0.562450 0.875813
vt 0.562450 0.904058
vt 0.540903 0.222553
vt 0.540903 0.189601
vt 0.569148 0.189602
vt 0.569148 0.222553
vt 0.639585 0.832410
vt 0.639585 0.799466
vt 0.643507 0.799465
vt 0.643507 0.832410
vt 0.504467 0.222553
vt 0.504467 0.189602
vt 0.532712 0.189601
vt 0.532712 0.222553
vt 0.676412 0.836469
vt 0.676412 0.803525
vt 0.680334 0.803525
vt 0.680334 0.836470
vt 0.091281 0.769454
vt 0.087358 0.769454
vt 0.087358 0.741209
vt 0.091281 0.741209
vt 0.122929 0.842324
vt 0.119007 0.842324
vt 0.119007 0.814080
vt 0.122929 0.814080
s 0
f 1/1/1 2/2/1 4/3/1 3/4/1
f 3/5/2 4/6/2 8/7/2 7/8/2
f 7/9/3 8/10/3 6/11/3 5/12/3
f 5/13/4 6/14/4 2/15/4 1/16/4
f 3/17/5 7/18/5 5/19/5 1/20/5
f 8/21/6 4/22/6 2/23/6 6/24/6
f 9/25/1 10/26/1 12/27/1 11/28/1
f 11/29/2 12/30/2 16/31/2 15/32/2
f 15/33/3 16/34/3 14/35/3 13/36/3
f 13/37/4 14/38/4 10/39/4 9/40/4
f 11/41/5 15/42/5 13/43/5 9/44/5
f 16/45/6 12/46/6 10/47/6 14/48/6
f 17/49/1 18/50/1 20/51/1 19/52/1
f 19/53/2 20/54/2 24/55/2 23/56/2
f 23/57/3 24/58/3 22/59/3 21/60/3
f 21/61/4 22/62/4 18/63/4 17/64/4
f 19/65/5 23/66/5 21/67/5 17/68/5
f 24/69/6 20/70/6 18/71/6 22/72/6
f 25/73/1 26/74/1 28/75/1 27/76/1
f 27/77/2 28/78/2 32/79/2 31/80/2
f 31/81/3 32/82/3 30/83/3 29/84/3
f 29/85/4 30/86/4 26/87/4 25/88/4
f 27/89/5 31/90/5 29/91/5 25/92/5
f 32/93/6 28/94/6 26/95/6 30/96/6
f 33/97/1 34/98/1 36/99/1 35/100/1
f 35/101/2 36/102/2 40/103/2 39/104/2
f 39/105/3 40/106/3 38/107/3 37/108/3
f 37/109/4 38/110/4 34/111/4 33/112/4
f 35/113/5 39/114/5 37/115/5 33/116/5
f 40/117/6 36/118/6 34/119/6 38/120/6
f 41/121/1 42/122/1 44/123/1 43/124/1
f 43/125/2 44/126/2 48/127/2 47/128/2
f 47/129/3 48/130/3 46/131/3 45/132/3
f 45/133/4 46/134/4 42/135/4 41/136/4
f 43/137/5 47/138/5 45/139/5 41/140/5
f 48/141/6 44/142/6 42/143/6 46/144/6
f 49/145/1 50/146/1 52/147/1 51/148/1
f 51/149/2 52/150/2 56/151/2 55/152/2
f 55/153/3 56/154/3 54/155/3 53/156/3
f 53/157/4 54/158/4 50/159/4 49/160/4
f 51/161/5 55/162/5 53/163/5 49/164/5
f 56/165/6 52/166/6 50/167/6 54/168/6
f 57/169/1 58/170/1 60/171/1 59/172/1
f 59/173/2 60/174/2 64/175/2 63/176/2
f 63/177/3 64/178/3 62/179/3 61/180/3
f 61/181/4 62/182/4 58/183/4 57/184/4
f 59/185/5 63/186/5 61/187/5 57/188/5
f 64/189/6 60/190/6 58/191/6 62/192/6
f 65/193/1 66/194/1 68/195/1 67/196/1
f 67/197/2 68/198/2 72/199/2 71/200/2
f 71/201/3 72/202/3 70/203/3 69/204/3
f 69/205/4 70/206/4 66/207/4 65/208/4
f 67/209/5 71/210/5 69/211/5 65/212/5
f 72/213/6 68/214/6 66/215/6 70/216/6
f 73/217/1 74/218/1 76/219/1 75/220/1
f 75/221/2 76/222/2 80/223/2 79/224/2
f 79/225/3 80/226/3 78/227/3 77/228/3
f 77/229/4 78/230/4 74/231/4 73/232/4
f 75/233/5 79/234/5 77/235/5 73/236/5
f 80/237/6 76/238/6 74/239/6 78/240/6
f 81/241/1 82/242/1 84/243/1 83/244/1
f 83/245/2 84/246/2 88/247/2 87/248/2
f 87/249/3 88/250/3 86/251/3 85/252/3
f 85/253/4 86/254/4 82/255/4 81/256/4
f 83/257/5 87/258/5 85/259/5 81/260/5
f 88/261/6 84/262/6 82/263/6 86/264/6
f 89/265/1 90/266/1 92/267/1 91/268/1
f 91/269/2 92/270/2 96/271/2 95/272/2
f 95/273/3 96/274/3 94/275/3 93/276/3
f 93/277/4 94/278/4 90/279/4 89/280/4
f 91/281/5 95/282/5 93/283/5 89/284/5
f 96/285/6 92/286/6 90/287/6 94/288/6
f 97/289/1 98/290/1 100/291/1 99/292/1
f 99/293/2 100/294/2 104/295/2 103/296/2
f 103/297/3 104/298/3 102/299/3 101/300/3
f 101/301/4 102/302/4 98/303/4 97/304/4
f 99/305/5 103/306/5 101/307/5 97/308/5
f 104/309/6 100/310/6 98/311/6 102/312/6
f 105/313/1 106/314/1 108/315/1 107/316/1
f 107/317/2 108/318/2 112/319/2 111/320/2
f 111/321/3 112/322/3 110/323/3 109/324/3
f 109/325/4 110/326/4 106/327/4 105/328/4
f 107/329/5 111/330/5 109/331/5 105/332/5
f 112/333/6 108/334/6 106/335/6 110/336/6
f 113/337/1 114/338/1 116/339/1 115/340/1
f 115/341/2 116/342/2 120/343/2 119/344/2
f 119/345/3 120/346/3 118/347/3 117/348/3
f 117/349/4 118/350/4 114/351/4 113/352/4
f 115/353/5 119/354/5 117/355/5 113/356/5
f 120/357/6 116/358/6 114/359/6 118/360/6
f 121/361/1 122/362/1 124/363/1 123/364/1
f 123/365/2 124/366/2 128/367/2 127/368/2
f 127/369/3 128/370/3 126/371/3 125/372/3
f 125/373/4 126/374/4 122/375/4 121/376/4
f 123/377/5 127/378/5 125/379/5 121/380/5
f 128/381/6 124/382/6 122/383/6 126/384/6
f 129/385/1 130/386/1 132/387/1 131/388/1
f 131/389/2 132/390/2 136/391/2 135/392/2
f 135/393/3 136/394/3 134/395/3 133/396/3
f 133/397/4 134/398/4 130/399/4 129/400/4
f 131/401/5 135/402/5 133/403/5 129/404/5
f 136/405/6 132/406/6 130/407/6 134/408/6
f 137/409/1 138/410/1 140/411/1 139/412/1
f 139/413/2 140/414/2 144/415/2 143/416/2
f 143/417/3 144/418/3 142/419/3 141/420/3
f 141/421/4 142/422/4 138/423/4 137/424/4
f 139/425/5 143/426/5 141/427/5 137/428/5
f 144/429/6 140/430/6 138/431/6 142/432/6
f 145/433/1 146/434/1 148/435/1 147/436/1
f 147/437/2 148/438/2 152/439/2 151/440/2
f 151/441/3 152/442/3 150/443/3 149/444/3
f 149/445/4 150/446/4 146/447/4 145/448/4
f 147/449/5 151/450/5 149/451/5 145/452/5
f 152/453/6 148/454/6 146/455/6 150/456/6
f 153/457/1 154/458/1 156/459/1 155/460/1
f 155/461/2 156/462/2 160/463/2 159/464/2
f 159/465/3 160/466/3 158/467/3 157/468/3
f 157/469/4 158/470/4 154/471/4 153/472/4
f 155/473/5 159/474/5 157/475/5 153/476/5
f 160/477/6 156/478/6 154/479/6 158/480/6
f 161/481/1 162/482/1 164/483/1 163/484/1
f 163/485/2 164/486/2 168/487/2 167/488/2
f 167/489/3 168/490/3 166/491/3 165/492/3
f 165/493/4 166/494/4 162/495/4 161/496/4
f 163/497/5 167/498/5 165/499/5 161/500/5
f 168/501/6 164/502/6 162/503/6 166/504/6
f 169/505/1 170/506/1 172/507/1 171/508/1
f 171/509/2 172/510/2 176/511/2 175/512/2
f 175/513/3 176/514/3 174/515/3 173/516/3
f 173/517/4 174/518/4 170/519/4 169/520/4
f 171/521/5 175/522/5 173/523/5 169/524/5
f 176/525/6 172/526/6 170/527/6 174/528/6
f 177/529/1 178/530/1 180/531/1 179/532/1
f 179/533/2 180/534/2 184/535/2 183/536/2
f 183/537/3 184/538/3 182/539/3 181/540/3
f 181/541/4 182/542/4 178/543/4 177/544/4
f 179/545/5 183/546/5 181/547/5 177/548/5
f 184/549/6 180/550/6 178/551/6 182/552/6
f 185/553/1 186/554/1 188/555/1 187/556/1
f 187/557/2 188/558/2 192/559/2 191/560/2
f 191/561/3 192/562/3 190/563/3 189/564/3
f 189/565/4 190/566/4 186/567/4 185/568/4
f 187/569/5 191/570/5 189/571/5 185/572/5
f 192/573/6 188/574/6 186/575/6 190/576/6
f 193/577/1 194/578/1 196/579/1 195/580/1
f 195/581/2 196/582/2 200/583/2 199/584/2
f 199/585/3 200/586/3 198/587/3 197/588/3
f 197/589/4 198/590/4 194/591/4 193/592/4
f 195/593/5 199/594/5 197/595/5 193/596/5
f 200/597/6 196/598/6 194/599/6 198/600/6
f 201/601/1 202/602/1 204/603/1 203/604/1
f 203/605/2 204/606/2 208/607/2 207/608/2
f 207/609/3 208/610/3 206/611/3 205/612/3
f 205/613/4 206/614/4 202/615/4 201/616/4
f 203/617/5 207/618/5 205/619/5 201/620/5
f 208/621/6 204/622/6 202/623/6 206/624/6
f 209/625/1 210/626/1 212/627/1 211/628/1
f 211/629/2 212/630/2 216/631/2 215/632/2
f 215/633/3 216/634/3 214/635/3 213/636/3
f 213/637/4 214/638/4 210/639/4 209/640/4
f 211/641/5 215/642/5 213/643/5 209/644/5
f 216/645/6 212/646/6 210/647/6 214/648/6
f 217/649/1 218/650/1 220/651/1 219/652/1
f 219/653/2 220/654/2 224/655/2 223/656/2
f 223/657/3 224/658/3 222/659/3 221/660/3
f 221/661/4 222/662/4 218/663/4 217/664/4
f 219/665/5 223/666/5 221/667/5 217/668/5
f 224/669/6 220/670/6 218/671/6 222/672/6
f 225/673/1 226/674/1 228/675/1 227/676/1
f 227/677/2 228/678/2 232/679/2 231/680/2
f 231/681/3 232/682/3 230/683/3 229/684/3
f 229/685/4 230/686/4 226/687/4 225/688/4
f 227/689/5 231/690/5 229/691/5 225/692/5
f 232/693/6 228/694/6 226/695/6 230/696/6
f 233/697/1 234/698/1 236/699/1 235/700/1
f 235/701/2 236/702/2 240/703/2 239/704/2
f 239/705/3 240/706/3 238/707/3 237/708/3
f 237/709/4 238/710/4 234/711/4 233/712/4
f 235/713/5 239/714/5 237/715/5 233/716/5
f 240/717/6 236/718/6 234/719/6 238/720/6
f 241/721/1 242/722/1 244/723/1 243/724/1
f 243/725/2 244/726/2 248/727/2 247/728/2
f 247/729/3 248/730/3 246/731/3 245/732/3
f 245/733/4 246/734/4 242/735/4 241/736/4
f 243/737/5 247/738/5 245/739/5 241/740/5
f 248/741/6 244/742/6 242/743/6 246/744/6
f 249/745/1 250/746/1 252/747/1 251/748/1
f 251/749/2 252/750/2 256/751/2 255/752/2
f 255/753/3 256/754/3 254/755/3 253/756/3
f 253/757/4 254/758/4 250/759/4 249/760/4
f 251/761/5 255/762/5 253/763/5 249/764/5
f 256/765/6 252/766/6 250/767/6 254/768/6
f 257/769/1 258/770/1 260/771/1 259/772/1
f 259/773/2 260/774/2 264/775/2 263/776/2
f 263/777/3 264/778/3 262/779/3 261/780/3
f 261/781/4 262/782/4 258/783/4 257/784/4
f 259/785/5 263/786/5 261/787/5 257/788/5
f 264/789/6 260/790/6 258/791/6 262/792/6
f 265/793/1 266/794/1 268/795/1 267/796/1
f 267/797/2 268/798/2 272/799/2 271/800/2
f 271/801/3 272/802/3 270/803/3 269/804/3
f 269/805/4 270/806/4 266/807/4 265/808/4
f 267/809/5 271/810/5 269/811/5 265/812/5
f 272/813/6 268/814/6 266/815/6 270/816/6
f 273/817/1 274/818/1 276/819/1 275/820/1
f 275/821/2 276/822/2 280/823/2 279/824/2
f 279/825/3 280/826/3 278/827/3 277/828/3
f 277/829/4 278/830/4 274/831/4 273/832/4
f 275/833/5 279/834/5 277/835/5 273/836/5
f 280/837/6 276/838/6 274/839/6 278/840/6
f 281/841/1 282/842/1 284/843/1 283/844/1
f 283/845/2 284/846/2 288/847/2 287/848/2
f 287/849/3 288/850/3 286/851/3 285/852/3
f 285/853/4 286/854/4 282/855/4 281/856/4
f 283/857/5 287/858/5 285/859/5 281/860/5
f 288/861/6 284/862/6 282/863/6 286/864/6
f 289/865/1 290/866/1 292/867/1 291/868/1
f 291/869/2 292/870/2 296/871/2 295/872/2
f 295/873/3 296/874/3 294/875/3 293/876/3
f 293/877/4 294/878/4 290/879/4 289/880/4
f 291/881/5 295/882/5 293/883/5 289/884/5
f 296/885/6 292/886/6 290/887/6 294/888/6
f 297/889/1 298/890/1 300/891/1 299/892/1
f 299/893/2 300/894/2 304/895/2 303/896/2
f 303/897/3 304/898/3 302/899/3 301/900/3
f 301/901/4 302/902/4 298/903/4 297/904/4
f 299/905/5 303/906/5 301/907/5 297/908/5
f 304/909/6 300/910/6 298/911/6 302/912/6
f 305/913/1 306/914/1 308/915/1 307/916/1
f 307/917/2 308/918/2 312/919/2 311/920/2
f 311/921/3 312/922/3 310/923/3 309/924/3
f 309/925/4 310/926/4 306/927/4 305/928/4
f 307/929/5 311/930/5 309/931/5 305/932/5
f 312/933/6 308/934/6 306/935/6 310/936/6
f 313/937/1 314/938/1 316/939/1 315/940/1
f 315/941/2 316/942/2 320/943/2 319/944/2
f 319/945/3 320/946/3 318/947/3 317/948/3
f 317/949/4 318/950/4 314/951/4 313/952/4
f 315/953/5 319/954/5 317/955/5 313/956/5
f 320/957/6 316/958/6 314/959/6 318/960/6
f 321/961/1 322/962/1 324/963/1 323/964/1
f 323/965/2 324/966/2 328/967/2 327/968/2
f 327/969/3 328/970/3 326/971/3 325/972/3
f 325/973/4 326/974/4 322/975/4 321/976/4
f 323/977/5 327/978/5 325/979/5 321/980/5
f 328/981/6 324/982/6 322/983/6 326/984/6
f 329/985/1 330/986/1 332/987/1 331/988/1
f 331/989/2 332/990/2 336/991/2 335/992/2
f 335/993/3 336/994/3 334/995/3 333/996/3
f 333/997/4 334/998/4 330/999/4 329/1000/4
f 331/1001/5 335/1002/5 333/1003/5 329/1004/5
f 336/1005/6 332/1006/6 330/1007/6 334/1008/6
f 337/1009/1 338/1010/1 340/1011/1 339/1012/1
f 339/1013/2 340/1014/2 344/1015/2 343/1016/2
f 343/1017/3 344/1018/3 342/1019/3 341/1020/3
f 341/1021/4 342/1022/4 338/1023/4 337/1024/4
f 339/1025/5 343/1026/5 341/1027/5 337/1028/5
f 344/1029/6 340/1030/6 338/1031/6 342/1032/6
f 345/1033/1 346/1034/1 348/1035/1 347/1036/1
f 347/1037/2 348/1038/2 352/1039/2 351/1040/2
f 351/1041/3 352/1042/3 350/1043/3 349/1044/3
f 349/1045/4 350/1046/4 346/1047/4 345/1048/4
f 347/1049/5 351/1050/5 349/1051/5 345/1052/5
f 352/1053/6 348/1054/6 346/1055/6 350/1056/6
f 353/1057/1 354/1058/1 356/1059/1 355/1060/1
f 355/1061/2 356/1062/2 360/1063/2 359/1064/2
f 359/1065/3 360/1066/3 358/1067/3 357/1068/3
f 357/1069/4 358/1070/4 354/1071/4 353/1072/4
f 355/1073/5 359/1074/5 357/1075/5 353/1076/5
f 360/1077/6 356/1078/6 354/1079/6 358/1080/6
f 361/1081/1 362/1082/1 364/1083/1 363/1084/1
f 363/1085/2 364/1086/2 368/1087/2 367/1088/2
f 367/1089/3 368/1090/3 366/1091/3 365/1092/3
f 365/1093/4 366/1094/4 362/1095/4 361/1096/4
f 363/1097/5 367/1098/5 365/1099/5 361/1100/5
f 368/1101/6 364/1102/6 362/1103/6 366/1104/6
f 369/1105/1 370/1106/1 372/1107/1 371/1108/1
f 371/1109/2 372/1110/2 376/1111/2 375/1112/2
f 375/1113/3 376/1114/3 374/1115/3 373/1116/3
f 373/1117/4 374/1118/4 370/1119/4 369/1120/4
f 371/1121/5 375/1122/5 373/1123/5 369/1124/5
f 376/1125/6 372/1126/6 370/1127/6 374/1128/6
f 377/1129/1 378/1130/1 380/1131/1 379/1132/1
f 379/1133/2 380/1134/2 384/1135/2 383/1136/2
f 383/1137/3 384/1138/3 382/1139/3 381/1140/3
f 381/1141/4 382/1142/4 378/1143/4 377/1144/4
f 379/1145/5 383/1146/5 381/1147/5 377/1148/5
f 384/1149/6 380/1150/6 378/1151/6 382/1152/6
f 385/1153/1 386/1154/1 388/1155/1 387/1156/1
f 387/1157/2 388/1158/2 392/1159/2 391/1160/2
f 391/1161/3 392/1162/3 390/1163/3 389/1164/3
f 389/1165/4 390/1166/4 386/1167/4 385/1168/4
f 387/1169/5 391/1170/5 389/1171/5 385/1172/5
f 392/1173/6 388/1174/6 386/1175/6 390/1176/6
f 393/1177/1 394/1178/1 396/1179/1 395/1180/1
f 395/1181/2 396/1182/2 400/1183/2 399/1184/2
f 399/1185/3 400/1186/3 398/1187/3 397/1188/3
f 397/1189/4 398/1190/4 394/1191/4 393/1192/4
f 395/1193/5 399/1194/5 397/1195/5 393/1196/5
f 400/1197/6 396/1198/6 394/1199/6 398/1200/6
f 401/1201/1 402/1202/1 404/1203/1 403/1204/1
f 403/1205/2 404/1206/2 408/1207/2 407/1208/2
f 407/1209/3 408/1210/3 406/1211/3 405/1212/3
f 405/1213/4 406/1214/4 402/1215/4 401/1216/4
f 403/1217/5 407/1218/5 405/1219/5 401/1220/5
f 408/1221/6 404/1222/6 402/1223/6 406/1224/6
f 409/1225/1 410/1226/1 412/1227/1 411/1228/1
f 411/1229/2 412/1230/2 416/1231/2 415/1232/2
f 415/1233/3 416/1234/3 414/1235/3 413/1236/3
f 413/1237/4 414/1238/4 410/1239/4 409/1240/4
f 411/1241/5 415/1242/5 413/1243/5 409/1244/5
f 416/1245/6 412/1246/6 410/1247/6 414/1248/6
f 417/1249/1 418/1250/1 420/1251/1 419/1252/1
f 419/1253/2 420/1254/2 424/1255/2 423/1256/2
f 423/1257/3 424/1258/3 422/1259/3 421/1260/3
f 421/1261/4 422/1262/4 418/1263/4 417/1264/4
f 419/1265/5 423/1266/5 421/1267/5 417/1268/5
f 424/1269/6 420/1270/6 418/1271/6 422/1272/6
f 425/1273/1 426/1274/1 428/1275/1 427/1276/1
f 427/1277/2 428/1278/2 432/1279/2 431/1280/2
f 431/1281/3 432/1282/3 430/1283/3 429/1284/3
f 429/1285/4 430/1286/4 426/1287/4 425/1288/4
f 427/1289/5 431/1290/5 429/1291/5 425/1292/5
f 432/1293/6 428/1294/6 426/1295/6 430/1296/6
f 433/1297/1 434/1298/1 436/1299/1 435/1300/1
f 435/1301/2 436/1302/2 440/1303/2 439/1304/2
f 439/1305/3 440/1306/3 438/1307/3 437/1308/3
f 437/1309/4 438/1310/4 434/1311/4 433/1312/4
f 435/1313/5 439/1314/5 437/1315/5 433/1316/5
f 440/1317/6 436/1318/6 434/1319/6 438/1320/6
f 441/1321/1 442/1322/1 444/1323/1 443/1324/1
f 443/1325/2 444/1326/2 448/1327/2 447/1328/2
f 447/1329/3 448/1330/3 446/1331/3 445/1332/3
f 445/1333/4 446/1334/4 442/1335/4 441/1336/4
f 443/1337/5 447/1338/5 445/1339/5 441/1340/5
f 448/1341/6 444/1342/6 442/1343/6 446/1344/6
f 449/1345/1 450/1346/1 452/1347/1 451/1348/1
f 451/1349/2 452/1350/2 456/1351/2 455/1352/2
f 455/1353/3 456/1354/3 454/1355/3 453/1356/3
f 453/1357/4 454/1358/4 450/1359/4 449/1360/4
f 451/1361/5 455/1362/5 453/1363/5 449/1364/5
f 456/1365/6 452/1366/6 450/1367/6 454/1368/6
f 457/1369/1 458/1370/1 460/1371/1 459/1372/1
f 459/1373/2 460/1374/2 464/1375/2 463/1376/2
f 463/1377/3 464/1378/3 462/1379/3 461/1380/3
f 461/1381/4 462/1382/4 458/1383/4 457/1384/4
f 459/1385/5 463/1386/5 461/1387/5 457/1388/5
f 464/1389/6 460/1390/6 458/1391/6 462/1392/6
f 465/1393/1 466/1394/1 468/1395/1 467/1396/1
f 467/1397/2 468/1398/2 472/1399/2 471/1400/2
f 471/1401/3 472/1402/3 470/1403/3 469/1404/3
f 469/1405/4 470/1406/4 466/1407/4 465/1408/4
f 467/1409/5 471/1410/5 469/1411/5 465/1412/5
f 472/1413/6 468/1414/6 466/1415/6 470/1416/6
f 473/1417/1 474/1418/1 476/1419/1 475/1420/1
f 475/1421/2 476/1422/2 480/1423/2 479/1424/2
f 479/1425/3 480/1426/3 478/1427/3 477/1428/3
f 477/1429/4 478/1430/4 474/1431/4 473/1432/4
f 475/1433/5 479/1434/5 477/1435/5 473/1436/5
f 480/1437/6 476/1438/6 474/1439/6 478/1440/6
f 481/1441/1 482/1442/1 484/1443/1 483/1444/1
f 483/1445/2 484/1446/2 488/1447/2 487/1448/2
f 487/1449/3 488/1450/3 486/1451/3 485/1452/3
f 485/1453/4 486/1454/4 482/1455/4 481/1456/4
f 483/1457/5 487/1458/5 485/1459/5 481/1460/5
f 488/1461/6 484/1462/6 482/1463/6 486/1464/6
f 489/1465/1 490/1466/1 492/1467/1 491/1468/1
f 491/1469/2 492/1470/2 496/1471/2 495/1472/2
f 495/1473/3 496/1474/3 494/1475/3 493/1476/3
f 493/1477/4 494/1478/4 490/1479/4 489/1480/4
f 491/1481/5 495/1482/5 493/1483/5 489/1484/5
f 496/1485/6 492/1486/6 490/1487/6 494/1488/6
f 497/1489/1 498/1490/1 500/1491/1 499/1492/1
f 499/1493/2 500/1494/2 504/1495/2 503/1496/2
f 503/1497/3 504/1498/3 502/1499/3 501/1500/3
f 501/1501/4 502/1502/4 498/1503/4 497/1504/4
f 499/1505/5 503/1506/5 501/1507/5 497/1508/5
f 504/1509/6 500/1510/6 498/1511/6 502/1512/6
f 505/1513/1 506/1514/1 508/1515/1 507/1516/1
f 507/1517/2 508/1518/2 512/1519/2 511/1520/2
f 511/1521/3 512/1522/3 510/1523/3 509/1524/3
f 509/1525/4 510/1526/4 506/1527/4 505/1528/4
f 507/1529/5 511/1530/5 509/1531/5 505/1532/5
f 512/1533/6 508/1534/6 506/1535/6 510/1536/6
f 513/1537/1 514/1538/1 516/1539/1 515/1540/1
f 515/1541/2 516/1542/2 520/1543/2 519/1544/2
f 519/1545/3 520/1546/3 518/1547/3 517/1548/3
f 517/1549/4 518/1550/4 514/1551/4 513/1552/4
f 515/1553/5 519/1554/5 517/1555/5 513/1556/5
f 520/1557/6 516/1558/6 514/1559/6 518/1560/6
f 521/1561/1 522/1562/1 524/1563/1 523/1564/1
f 523/1565/2 524/1566/2 528/1567/2 527/1568/2
f 527/1569/3 528/1570/3 526/1571/3 525/1572/3
f 525/1573/4 526/1574/4 522/1575/4 521/1576/4
f 523/1577/5 527/1578/5 525/1579/5 521/1580/5
f 528/1581/6 524/1582/6 522/1583/6 526/1584/6
f 529/1585/1 530/1586/1 532/1587/1 531/1588/1
f 531/1589/2 532/1590/2 536/1591/2 535/1592/2
f 535/1593/3 536/1594/3 534/1595/3 533/1596/3
f 533/1597/4 534/1598/4 530/1599/4 529/1600/4
f 531/1601/5 535/1602/5 533/1603/5 529/1604/5
f 536/1605/6 532/1606/6 530/1607/6 534/1608/6
f 537/1609/1 538/1610/1 540/1611/1 539/1612/1
f 539/1613/2 540/1614/2 544/1615/2 543/1616/2
f 543/1617/3 544/1618/3 542/1619/3 541/1620/3
f 541/1621/4 542/1622/4 538/1623/4 537/1624/4
f 539/1625/5 543/1626/5 541/1627/5 537/1628/5
f 544/1629/6 540/1630/6 538/1631/6 542/1632/6
f 545/1633/1 546/1634/1 548/1635/1 547/1636/1
f 547/1637/2 548/1638/2 552/1639/2 551/1640/2
f 551/1641/3 552/1642/3 550/1643/3 549/1644/3
f 549/1645/4 550/1646/4 546/1647/4 545/1648/4
f 547/1649/5 551/1650/5 549/1651/5 545/1652/5
f 552/1653/6 548/1654/6 546/1655/6 550/1656/6
f 553/1657/1 554/1658/1 556/1659/1 555/1660/1
f 555/1661/2 556/1662/2 560/1663/2 559/1664/2
f 559/1665/3 560/1666/3 558/1667/3 557/1668/3
f 557/1669/4 558/1670/4 554/1671/4 553/1672/4
f 555/1673/5 559/1674/5 557/1675/5 553/1676/5
f 560/1677/6 556/1678/6 554/1679/6 558/1680/6
f 561/1681/1 562/1682/1 564/1683/1 563/1684/1
f 563/1685/2 564/1686/2 568/1687/2 567/1688/2
f 567/1689/3 568/1690/3 566/1691/3 565/1692/3
f 565/1693/4 566/1694/4 562/1695/4 561/1696/4
f 563/1697/5 567/1698/5 565/1699/5 561/1700/5
f 568/1701/6 564/1702/6 562/1703/6 566/1704/6
f 569/1705/7 570/1706/7 572/1707/7 571/1708/7
f 571/1709/8 572/1710/8 576/1711/8 575/1712/8
f 575/1713/9 576/1714/9 574/1715/9 573/1716/9
f 573/1717/10 574/1718/10 570/1719/10 569/1720/10
f 571/1721/11 575/1722/11 573/1723/11 569/1724/11
f 576/1725/12 572/1726/12 570/1727/12 574/1728/12
f 577/1729/13 578/1730/13 580/1731/13 579/1732/13
f 579/1733/14 580/1734/14 584/1735/14 583/1736/14
f 583/1737/15 584/1738/15 582/1739/15 581/1740/15
f 581/1741/16 582/1742/16 578/1743/16 577/1744/16
f 579/1745/17 583/1746/17 581/1747/17 577/1748/17
f 584/1749/18 580/1750/18 578/1751/18 582/1752/18
f 585/1753/19 586/1754/19 588/1755/19 587/1756/19
f 587/1757/20 588/1758/20 592/1759/20 591/1760/20
f 591/1761/21 592/1762/21 590/1763/21 589/1764/21
f 589/1765/22 590/1766/22 586/1767/22 585/1768/22
f 587/1769/23 591/1770/23 589/1771/23 585/1772/23
f 592/1773/24 588/1774/24 586/1775/24 590/1776/24
f 593/1777/25 594/1778/25 596/1779/25 595/1780/25
f 595/1781/26 596/1782/26 600/1783/26 599/1784/26
f 599/1785/27 600/1786/27 598/1787/27 597/1788/27
f 597/1789/28 598/1790/28 594/1791/28 593/1792/28
f 595/1793/29 599/1794/29 597/1795/29 593/1796/29
f 600/1797/30 596/1798/30 594/1799/30 598/1800/30
f 601/1801/31 602/1802/31 604/1803/31 603/1804/31
f 603/1805/32 604/1806/32 608/1807/32 607/1808/32
f 607/1809/33 608/1810/33 606/1811/33 605/1812/33
f 605/1813/34 606/1814/34 602/1815/34 601/1816/34
f 603/1817/35 607/1818/35 605/1819/35 601/1820/35
f 608/1821/36 604/1822/36 602/1823/36 606/1824/36
f 609/1825/37 610/1826/37 612/1827/37 611/1828/37
f 611/1829/38 612/1830/38 616/1831/38 615/1832/38
f 615/1832/39 616/1831/39 614/1833/39 613/1834/39
f 613/1835/40 614/1836/40 610/1826/40 609/1825/40
f 611/1837/41 615/1838/41 613/1839/41 609/1840/41
f 616/1841/42 612/1842/42 610/1843/42 614/1844/42
f 617/1845/43 618/1846/43 620/1847/43 619/1848/43
f 619/1849/44 620/1850/44 624/1851/44 623/1852/44
f 623/1853/45 624/1854/45 622/1855/45 621/1856/45
f 621/1857/46 622/1858/46 618/1859/46 617/1860/46
f 619/1861/47 623/1862/47 621/1863/47 617/1864/47
f 624/1865/48 620/1866/48 618/1867/48 622/1868/48
f 625/1869/49 626/1870/49 628/1871/49 627/1872/49
f 627/1873/50 628/1874/50 632/1875/50 631/1876/50
f 631/1876/51 632/1875/51 630/1877/51 629/1878/51
f 629/1879/52 630/1880/52 626/1870/52 625/1869/52
f 627/1881/53 631/1882/53 629/1883/53 625/1884/53
f 632/1885/54 628/1886/54 626/1887/54 630/1888/54
f 633/1889/55 634/1890/55 636/1891/55 635/1892/55
f 635/1893/56 636/1894/56 640/1895/56 639/1896/56
f 639/1897/57 640/1898/57 638/1899/57 637/1900/57
f 637/1901/58 638/1902/58 634/1903/58 633/1904/58
f 635/1905/59 639/1906/59 637/1907/59 633/1908/59
f 640/1909/60 636/1910/60 634/1911/60 638/1912/60
f 641/1913/61 642/1914/61 644/1915/61 643/1916/61
f 643/1917/62 644/1918/62 648/1919/62 647/1920/62
f 647/1921/63 648/1922/63 646/1923/63 645/1924/63
f 645/1925/64 646/1926/64 642/1927/64 641/1928/64
f 643/1929/65 647/1930/65 645/1925/65 641/1928/65
f 648/1919/66 644/1918/66 642/1931/66 646/1932/66
f 649/1933/67 650/1934/67 652/1935/67 651/1936/67
f 651/1937/68 652/1938/68 656/1939/68 655/1940/68
f 655/1941/69 656/1942/69 654/1943/69 653/1944/69
f 653/1945/70 654/1946/70 650/1947/70 649/1948/70
f 651/1949/71 655/1950/71 653/1951/71 649/1952/71
f 656/1953/72 652/1954/72 650/1955/72 654/1956/72
f 657/1957/73 658/1958/73 660/1959/73 659/1960/73
f 659/1961/74 660/1962/74 664/1963/74 663/1964/74
f 663/1965/75 664/1966/75 662/1967/75 661/1968/75
f 661/1969/76 662/1970/76 658/1971/76 657/1972/76
f 659/1973/77 663/1974/77 661/1975/77 657/1976/77
f 664/1977/78 660/1978/78 658/1979/78 662/1980/78
f 665/1981/79 666/1982/79 668/1983/79 667/1984/79
f 667/1985/80 668/1986/80 672/1987/80 671/1988/80
f 671/1989/81 672/1990/81 670/1991/81 669/1992/81
f 669/1993/82 670/1994/82 666/1995/82 665/1996/82
f 667/1997/83 671/1998/83 669/1999/83 665/2000/83
f 672/2001/84 668/2002/84 666/2003/84 670/2004/84
f 673/2005/85 674/2006/85 676/2007/85 675/2008/85
f 675/2009/86 676/2010/86 680/2011/86 679/2012/86
f 679/2013/87 680/2014/87 678/2015/87 677/2016/87
f 677/2017/88 678/2018/88 674/2019/88 673/2020/88
f 675/2021/89 679/2022/89 677/2023/89 673/2024/89
f 680/2025/90 676/2026/90 674/2027/90 678/2028/90
f 681/2029/91 682/2030/91 684/2031/91 683/2032/91
f 683/2033/92 684/2034/92 688/2035/92 687/2036/92
f 687/2037/93 688/2038/93 686/2039/93 685/2040/93
f 685/2041/94 686/2042/94 682/2043/94 681/2044/94
f 683/2045/95 687/2046/95 685/2047/95 681/2048/95
f 688/2049/96 684/2050/96 682/2051/96 686/2052/96
f 689/2053/97 690/2054/97 692/2055/97 691/2056/97
f 691/2057/98 692/2058/98 696/2059/98 695/2060/98
f 695/2061/99 696/2062/99 694/2063/99 693/2064/99
f 693/2065/100 694/2066/100 690/2067/100 689/2068/100
f 691/2069/101 695/2070/101 693/2071/101 689/2072/101
f 696/2073/102 692/2074/102 690/2075/102 694/2076/102
f 697/2077/103 698/2078/103 700/2079/103 699/2080/103
f 699/2081/104 700/2082/104 704/2083/104 703/2084/104
f 703/2084/105 704/2083/105 702/2085/105 701/2086/105
f 701/2087/106 702/2088/106 698/2078/106 697/2077/106
f 699/2089/107 703/2090/107 701/2091/107 697/2092/107
f 704/2093/108 700/2094/108 698/2095/108 702/2096/108
f 705/2097/109 706/2098/109 708/2099/109 707/2100/109
f 707/2101/110 708/2102/110 712/2103/110 711/2104/110
f 711/2105/111 712/2106/111 710/2107/111 709/2108/111
f 709/2109/112 710/2110/112 706/2111/112 705/2112/112
f 707/2113/113 711/2114/113 709/2115/113 705/2116/113
f 712/2117/114 708/2118/114 706/2119/114 710/2120/114
f 713/2121/1 714/2122/1 716/2123/1 715/2124/1
f 715/2125/2 716/2126/2 720/2127/2 719/2128/2
f 719/2129/3 720/2130/3 718/2131/3 717/2132/3
f 717/2133/4 718/2134/4 714/2135/4 713/2136/4
f 715/2137/5 719/2138/5 717/2139/5 713/2140/5
f 720/2141/6 716/2142/6 714/2143/6 718/2144/6
f 721/2145/1 722/2146/1 724/2147/1 723/2148/1
f 723/2149/2 724/2150/2 728/2151/2 727/2152/2
f 727/2153/3 728/2154/3 726/2155/3 725/2156/3
f 725/2157/4 726/2158/4 722/2159/4 721/2160/4
f 723/2161/5 727/2162/5 725/2163/5 721/2164/5
f 728/2165/6 724/2166/6 722/2167/6 726/2168/6
f 729/2169/1 730/2170/1 732/2171/1 731/2172/1
f 731/2173/2 732/2174/2 736/2175/2 735/2176/2
f 735/2177/3 736/2178/3 734/2179/3 733/2180/3
f 733/2181/4 734/2182/4 730/2183/4 729/2184/4
f 731/2185/5 735/2186/5 733/2187/5 729/2188/5
f 736/2189/6 732/2190/6 730/2191/6 734/2192/6
f 737/2193/1 738/2194/1 740/2195/1 739/2196/1
f 739/2197/2 740/2198/2 744/2199/2 743/2200/2
f 743/2201/3 744/2202/3 742/2203/3 741/2204/3
f 741/2205/4 742/2206/4 738/2207/4 737/2208/4
f 739/2209/5 743/2210/5 741/2211/5 737/2212/5
f 744/2213/6 740/2214/6 738/2215/6 742/2216/6
f 745/2217/1 746/2218/1 748/2219/1 747/2220/1
f 747/2221/2 748/2222/2 752/2223/2 751/2224/2
f 751/2225/3 752/2226/3 750/2227/3 749/2228/3
f 749/2229/4 750/2230/4 746/2231/4 745/2232/4
f 747/2233/5 751/2234/5 749/2235/5 745/2236/5
f 752/2237/6 748/2238/6 746/2239/6 750/2240/6
f 753/2241/1 754/2242/1 756/2243/1 755/2244/1
f 755/2245/2 756/2246/2 760/2247/2 759/2248/2
f 759/2249/3 760/2250/3 758/2251/3 757/2252/3
f 757/2253/4 758/2254/4 754/2255/4 753/2256/4
f 755/2257/5 759/2258/5 757/2259/5 753/2260/5
f 760/2261/6 756/2262/6 754/2263/6 758/2264/6
