# Blender 4.5.13 LTS
# www.blender.org
o stone
v -1.900000 0.000000 1.200000
v -1.900000 0.140000 1.200000
v -1.900000 0.000000 -1.200000
v -1.900000 0.140000 -1.200000
v 1.900000 0.000000 1.200000
v 1.900000 0.140000 1.200000
v 1.900000 0.000000 -1.200000
v 1.900000 0.140000 -1.200000
v -1.800000 0.140000 1.170000
v -1.800000 1.590000 1.170000
v -1.800000 0.140000 1.030000
v -1.800000 1.590000 1.030000
v 1.800000 0.140000 1.170000
v 1.800000 1.590000 1.170000
v 1.800000 0.140000 1.030000
v 1.800000 1.590000 1.030000
v -1.800000 0.140000 -1.030000
v -1.800000 1.590000 -1.030000
v -1.800000 0.140000 -1.170000
v -1.800000 1.590000 -1.170000
v 1.800000 0.140000 -1.030000
v 1.800000 1.590000 -1.030000
v 1.800000 0.140000 -1.170000
v 1.800000 1.590000 -1.170000
v -1.870000 0.140000 1.030000
v -1.870000 1.590000 1.030000
v -1.870000 0.140000 -1.030000
v -1.870000 1.590000 -1.030000
v -1.730000 0.140000 1.030000
v -1.730000 1.590000 1.030000
v -1.730000 0.140000 -1.030000
v -1.730000 1.590000 -1.030000
v 1.730000 0.140000 1.030000
v 1.730000 1.590000 1.030000
v 1.730000 0.140000 -1.030000
v 1.730000 1.590000 -1.030000
v 1.870000 0.140000 1.030000
v 1.870000 1.590000 1.030000
v 1.870000 0.140000 -1.030000
v 1.870000 1.590000 -1.030000
v -1.800000 1.590000 1.170000
v -1.800000 2.383285 1.170000
v -1.575000 1.590000 1.170000
v -1.575000 2.522762 1.170000
v -1.350000 1.590000 1.170000
v -1.350000 2.311376 1.170000
v -1.125000 1.590000 1.170000
v -1.125000 2.340595 1.170000
v -0.900000 1.590000 1.170000
v -0.900000 2.165145 1.170000
v -0.675000 1.590000 1.170000
v -0.675000 2.093673 1.170000
v -0.450000 1.590000 1.170000
v -0.450000 2.023668 1.170000
v -0.225000 1.590000 1.170000
v -0.225000 2.142539 1.170000
v 0.000000 1.590000 1.170000
v 0.000000 2.132995 1.170000
v 0.225000 1.590000 1.170000
v 0.225000 2.045166 1.170000
v 0.450000 1.590000 1.170000
v 0.450000 2.283179 1.170000
v 0.675000 1.590000 1.170000
v 0.675000 2.534264 1.170000
v 0.900000 1.590000 1.170000
v 0.900000 2.110387 1.170000
v 1.125000 1.590000 1.170000
v 1.125000 1.923784 1.170000
v 1.350000 1.590000 1.170000
v 1.350000 2.049317 1.170000
v 1.575000 1.590000 1.170000
v 1.575000 1.972336 1.170000
v 1.800000 1.590000 1.170000
v 1.800000 1.774613 1.170000
v -1.800000 1.590000 1.030000
v -1.800000 2.383285 1.030000
v -1.575000 1.590000 1.030000
v -1.575000 2.522762 1.030000
v -1.350000 1.590000 1.030000
v -1.350000 2.311376 1.030000
v -1.125000 1.590000 1.030000
v -1.125000 2.340595 1.030000
v -0.900000 1.590000 1.030000
v -0.900000 2.165145 1.030000
v -0.675000 1.590000 1.030000
v -0.675000 2.093673 1.030000
v -0.450000 1.590000 1.030000
v -0.450000 2.023668 1.030000
v -0.225000 1.590000 1.030000
v -0.225000 2.142539 1.030000
v 0.000000 1.590000 1.030000
v 0.000000 2.132995 1.030000
v 0.225000 1.590000 1.030000
v 0.225000 2.045166 1.030000
v 0.450000 1.590000 1.030000
v 0.450000 2.283179 1.030000
v 0.675000 1.590000 1.030000
v 0.675000 2.534264 1.030000
v 0.900000 1.590000 1.030000
v 0.900000 2.110387 1.030000
v 1.125000 1.590000 1.030000
v 1.125000 1.923784 1.030000
v 1.350000 1.590000 1.030000
v 1.350000 2.049317 1.030000
v 1.575000 1.590000 1.030000
v 1.575000 1.972336 1.030000
v 1.800000 1.590000 1.030000
v 1.800000 1.774613 1.030000
v -1.800000 1.590000 -1.030000
v -1.800000 2.211248 -1.030000
v -1.575000 1.590000 -1.030000
v -1.575000 2.521266 -1.030000
v -1.350000 1.590000 -1.030000
v -1.350000 2.443749 -1.030000
v -1.125000 1.590000 -1.030000
v -1.125000 2.386860 -1.030000
v -0.900000 1.590000 -1.030000
v -0.900000 2.254160 -1.030000
v -0.675000 1.590000 -1.030000
v -0.675000 1.994754 -1.030000
v -0.450000 1.590000 -1.030000
v -0.450000 1.927963 -1.030000
v -0.225000 1.590000 -1.030000
v -0.225000 2.048982 -1.030000
v 0.000000 1.590000 -1.030000
v 0.000000 2.218086 -1.030000
v 0.225000 1.590000 -1.030000
v 0.225000 2.134809 -1.030000
v 0.450000 1.590000 -1.030000
v 0.450000 2.037297 -1.030000
v 0.675000 1.590000 -1.030000
v 0.675000 2.245472 -1.030000
v 0.900000 1.590000 -1.030000
v 0.900000 2.212751 -1.030000
v 1.125000 1.590000 -1.030000
v 1.125000 2.339382 -1.030000
v 1.350000 1.590000 -1.030000
v 1.350000 2.263104 -1.030000
v 1.575000 1.590000 -1.030000
v 1.575000 2.142712 -1.030000
v 1.800000 1.590000 -1.030000
v 1.800000 2.167844 -1.030000
v -1.800000 1.590000 -1.170000
v -1.800000 2.211248 -1.170000
v -1.575000 1.590000 -1.170000
v -1.575000 2.521266 -1.170000
v -1.350000 1.590000 -1.170000
v -1.350000 2.443749 -1.170000
v -1.125000 1.590000 -1.170000
v -1.125000 2.386860 -1.170000
v -0.900000 1.590000 -1.170000
v -0.900000 2.254160 -1.170000
v -0.675000 1.590000 -1.170000
v -0.675000 1.994754 -1.170000
v -0.450000 1.590000 -1.170000
v -0.450000 1.927963 -1.170000
v -0.225000 1.590000 -1.170000
v -0.225000 2.048982 -1.170000
v 0.000000 1.590000 -1.170000
v 0.000000 2.218086 -1.170000
v 0.225000 1.590000 -1.170000
v 0.225000 2.134809 -1.170000
v 0.450000 1.590000 -1.170000
v 0.450000 2.037297 -1.170000
v 0.675000 1.590000 -1.170000
v 0.675000 2.245472 -1.170000
v 0.900000 1.590000 -1.170000
v 0.900000 2.212751 -1.170000
v 1.125000 1.590000 -1.170000
v 1.125000 2.339382 -1.170000
v 1.350000 1.590000 -1.170000
v 1.350000 2.263104 -1.170000
v 1.575000 1.590000 -1.170000
v 1.575000 2.142712 -1.170000
v 1.800000 1.590000 -1.170000
v 1.800000 2.167844 -1.170000
v -1.730000 1.590000 1.030000
v -1.730000 1.652500 1.030000
v -1.730000 1.590000 0.801111
v -1.730000 1.656506 0.801111
v -1.730000 1.590000 0.572222
v -1.730000 1.738499 0.572222
v -1.730000 1.590000 0.343333
v -1.730000 1.988907 0.343333
v -1.730000 1.590000 0.114444
v -1.730000 2.274107 0.114444
v -1.730000 1.590000 -0.114444
v -1.730000 2.176521 -0.114444
v -1.730000 1.590000 -0.343333
v -1.730000 2.102515 -0.343333
v -1.730000 1.590000 -0.572222
v -1.730000 2.317881 -0.572222
v -1.730000 1.590000 -0.801111
v -1.730000 2.109926 -0.801111
v -1.730000 1.590000 -1.030000
v -1.730000 2.397738 -1.030000
v -1.870000 1.590000 1.030000
v -1.870000 1.652500 1.030000
v -1.870000 1.590000 0.801111
v -1.870000 1.656506 0.801111
v -1.870000 1.590000 0.572222
v -1.870000 1.738499 0.572222
v -1.870000 1.590000 0.343333
v -1.870000 1.988907 0.343333
v -1.870000 1.590000 0.114444
v -1.870000 2.274107 0.114444
v -1.870000 1.590000 -0.114444
v -1.870000 2.176521 -0.114444
v -1.870000 1.590000 -0.343333
v -1.870000 2.102515 -0.343333
v -1.870000 1.590000 -0.572222
v -1.870000 2.317881 -0.572222
v -1.870000 1.590000 -0.801111
v -1.870000 2.109926 -0.801111
v -1.870000 1.590000 -1.030000
v -1.870000 2.397738 -1.030000
v 1.870000 1.590000 1.030000
v 1.870000 2.515037 1.030000
v 1.870000 1.590000 0.801111
v 1.870000 2.462239 0.801111
v 1.870000 1.590000 0.572222
v 1.870000 2.586919 0.572222
v 1.870000 1.590000 0.343333
v 1.870000 2.586660 0.343333
v 1.870000 1.590000 0.114444
v 1.870000 2.664005 0.114444
v 1.870000 1.590000 -0.114444
v 1.870000 2.300952 -0.114444
v 1.870000 1.590000 -0.343333
v 1.870000 2.013364 -0.343333
v 1.870000 1.590000 -0.572222
v 1.870000 2.169678 -0.572222
v 1.870000 1.590000 -0.801111
v 1.870000 2.024561 -0.801111
v 1.870000 1.590000 -1.030000
v 1.870000 1.981619 -1.030000
v 1.730000 1.590000 1.030000
v 1.730000 2.515037 1.030000
v 1.730000 1.590000 0.801111
v 1.730000 2.462239 0.801111
v 1.730000 1.590000 0.572222
v 1.730000 2.586919 0.572222
v 1.730000 1.590000 0.343333
v 1.730000 2.586660 0.343333
v 1.730000 1.590000 0.114444
v 1.730000 2.664005 0.114444
v 1.730000 1.590000 -0.114444
v 1.730000 2.300952 -0.114444
v 1.730000 1.590000 -0.343333
v 1.730000 2.013364 -0.343333
v 1.730000 1.590000 -0.572222
v 1.730000 2.169678 -0.572222
v 1.730000 1.590000 -0.801111
v 1.730000 2.024561 -0.801111
v 1.730000 1.590000 -1.030000
v 1.730000 1.981619 -1.030000
v -1.880000 0.140000 1.100000
v -1.880000 2.840000 1.100000
v -1.880000 0.140000 -1.100000
v -1.880000 2.840000 -1.100000
v -1.720000 0.140000 1.100000
v -1.720000 2.840000 1.100000
v -1.720000 0.140000 -1.100000
v -1.720000 2.840000 -1.100000
v -1.720000 2.840000 1.100000
v -1.720000 2.840000 -1.100000
v -1.720000 3.940000 0.000000
v -1.880000 2.840000 1.100000
v -1.880000 2.840000 -1.100000
v -1.880000 3.940000 -0.000000
v -1.700000 0.135000 1.000000
v -1.700000 0.165000 1.000000
v -1.700000 0.135000 -1.000000
v -1.700000 0.165000 -1.000000
v 1.700000 0.135000 1.000000
v 1.700000 0.165000 1.000000
v 1.700000 0.135000 -1.000000
v 1.700000 0.165000 -1.000000
v -1.761267 2.966011 0.924587
v -1.745266 3.054575 0.925173
v -1.754734 2.965425 0.834827
v -1.738733 3.053989 0.835413
v 0.172217 2.615740 1.067614
v 0.188218 2.704304 1.068200
v 0.178751 2.615154 0.977854
v 0.194752 2.703718 0.978440
v -1.781107 3.418296 0.485576
v -1.716073 3.480498 0.484371
v -1.783927 3.419501 0.395629
v -1.718893 3.481704 0.394424
v 1.324756 0.168296 0.344675
v 1.389790 0.230499 0.343470
v 1.321937 0.169502 0.254727
v 1.386971 0.231704 0.253522
v -1.766751 3.849334 0.045996
v -1.723247 3.928079 0.043409
v -1.776753 3.851922 -0.043409
v -1.733249 3.930666 -0.045996
v -0.351367 3.061439 -0.135153
v -0.307864 3.140184 -0.137741
v -0.361369 3.064027 -0.224558
v -0.317866 3.142771 -0.227146
v -1.755745 3.405391 -0.394977
v -1.743548 3.494561 -0.395025
v -1.756452 3.405439 -0.484975
v -1.744255 3.494609 -0.485023
v 1.216052 2.998865 -0.418528
v 1.228250 3.088035 -0.418576
v 1.215345 2.998913 -0.508525
v 1.227543 3.088083 -0.508573
v -1.756309 2.965533 -0.834913
v -1.741217 3.054258 -0.835122
v -1.758783 2.965742 -0.924878
v -1.743691 3.054467 -0.925087
v 0.611167 2.562667 -0.900941
v 0.626259 2.651393 -0.901150
v 0.608693 2.562876 -0.990907
v 0.623786 2.651602 -0.991116
v -1.435483 0.151272 -0.206691
v -1.386660 0.214009 -0.145581
v -1.421355 0.238229 -0.307252
v -1.372532 0.300967 -0.246143
v -1.290587 0.079303 -0.248567
v -1.241764 0.142041 -0.187457
v -1.276459 0.166261 -0.349128
v -1.227636 0.228998 -0.288018
v 0.360952 0.162566 1.044869
v 0.421776 0.202963 1.085703
v 0.365786 0.238106 0.962937
v 0.426610 0.278503 1.003771
v 0.456495 0.085157 0.979136
v 0.517319 0.125554 1.019970
v 0.461329 0.160697 0.897204
v 0.522153 0.201094 0.938038
v -0.399128 0.165639 -0.423207
v -0.311712 0.239758 -0.501235
v -0.530759 0.292636 -0.450040
v -0.443343 0.366755 -0.528068
v -0.470536 0.051894 -0.611253
v -0.383121 0.126012 -0.689281
v -0.602167 0.178891 -0.638086
v -0.514751 0.253010 -0.716114
v 1.123176 0.184476 -0.562993
v 1.115348 0.318886 -0.613356
v 0.936382 0.189571 -0.520359
v 0.928553 0.323981 -0.570722
v 1.071115 0.099768 -0.780970
v 1.063287 0.234179 -0.831333
v 0.884321 0.104863 -0.738336
v 0.876492 0.239274 -0.788699
v 0.189892 0.159080 1.523051
v 0.244395 0.212281 1.582338
v 0.208458 0.244902 1.428969
v 0.262961 0.298104 1.488256
v 0.320610 0.078415 1.475265
v 0.375113 0.131617 1.534552
v 0.339177 0.164238 1.381183
v 0.393680 0.217439 1.440470
v -0.689737 0.121749 1.339183
v -0.637780 0.244092 1.381619
v -0.777092 0.207451 1.199059
v -0.725134 0.329794 1.241496
v -0.503574 0.089735 1.203547
v -0.451617 0.212078 1.245983
v -0.590929 0.175437 1.063423
v -0.538971 0.297780 1.105860
v 0.590641 0.089245 1.797253
v 0.688423 0.205946 1.857844
v 0.461212 0.242578 1.710804
v 0.558994 0.359278 1.771396
v 0.738471 0.084587 1.567660
v 0.836253 0.201287 1.628252
v 0.609041 0.237919 1.481212
v 0.706823 0.354619 1.541804
v 0.258023 0.166767 1.088374
v 0.336281 0.311724 1.123961
v 0.209613 0.243382 0.882751
v 0.287871 0.388339 0.918338
v 0.499320 0.060193 0.991856
v 0.577578 0.205150 1.027443
v 0.450910 0.136809 0.786233
v 0.529168 0.281766 0.821820
v -1.263306 0.152072 0.683076
v -1.289368 0.273900 0.553178
v -1.359952 0.302283 0.843347
v -1.386014 0.424111 0.713449
v -1.534422 0.035874 0.628493
v -1.560485 0.157702 0.498595
v -1.631068 0.186085 0.788764
v -1.657131 0.307913 0.658866
v 1.563542 0.197215 -0.366616
v 1.630014 0.241358 -0.407013
v 1.485605 0.243866 -0.443882
v 1.552077 0.288008 -0.484279
v 1.584872 0.081429 -0.458038
v 1.651344 0.125572 -0.498436
v 1.506935 0.128079 -0.535304
v 1.573407 0.172222 -0.575702
v 0.964042 0.215252 0.630874
v 1.063391 0.323614 0.568361
v 0.806437 0.288814 0.507915
v 0.905785 0.397176 0.445402
v 1.032316 0.042575 0.440056
v 1.131665 0.150938 0.377543
v 0.874711 0.116137 0.317097
v 0.974060 0.224499 0.254584
v 0.750455 0.178988 1.113828
v 0.804864 0.222970 1.120821
v 0.736537 0.210091 1.026491
v 0.790947 0.254074 1.033485
v 0.822612 0.096238 1.072859
v 0.877021 0.140220 1.079853
v 0.808694 0.127342 0.985523
v 0.863104 0.171324 0.992516
v -1.218077 0.141939 0.331974
v -1.193283 0.198613 0.322213
v -1.292770 0.170473 0.307913
v -1.267976 0.227146 0.298152
v -1.196418 0.115479 0.233359
v -1.171624 0.172152 0.223598
v -1.271111 0.144012 0.209298
v -1.246318 0.200685 0.199537
v -0.935605 0.190993 0.848817
v -0.797028 0.280399 0.895192
v -0.970316 0.334987 0.674936
v -0.831738 0.424393 0.721311
v -0.773447 0.026919 0.680574
v -0.634869 0.116325 0.726949
v -0.808157 0.170913 0.506693
v -0.669580 0.260319 0.553068
v 0.051738 0.148562 1.394408
v 0.055962 0.252252 1.340451
v -0.057577 0.203378 1.491191
v -0.053352 0.307068 1.437234
v -0.087120 0.089897 1.270798
v -0.082895 0.193587 1.216842
v -0.196434 0.144713 1.367581
v -0.192210 0.248403 1.313625
v 0.546712 0.143057 -0.558474
v 0.618113 0.198508 -0.598349
v 0.460362 0.240776 -0.577203
v 0.531762 0.296227 -0.617078
v 0.510557 0.082580 -0.707317
v 0.581957 0.138031 -0.747192
v 0.424206 0.180299 -0.726046
v 0.495606 0.235750 -0.765921
v -0.397861 0.207113 0.606933
v -0.308384 0.248013 0.609452
v -0.419901 0.262530 0.490051
v -0.330425 0.303430 0.492571
v -0.335369 0.074983 0.532502
v -0.245892 0.115883 0.535022
v -0.357409 0.130401 0.415620
v -0.267932 0.171301 0.418140
v -0.207689 0.183148 1.617627
v -0.167042 0.226585 1.605349
v -0.232805 0.184893 1.540649
v -0.192158 0.228330 1.528371
v -0.139322 0.112413 1.593718
v -0.098674 0.155850 1.581440
v -0.164438 0.114158 1.516739
v -0.123790 0.157595 1.504462
v 0.683706 0.131008 0.701535
v 0.692617 0.180200 0.700650
v -0.184193 0.279700 0.227570
v -0.175282 0.328892 0.226684
v 0.961908 0.071108 0.173316
v 0.970819 0.120300 0.172431
v 0.094009 0.219800 -0.300650
v 0.102920 0.268992 -0.301535
vn -1.0000 -0.0000 -0.0000
vn -0.0000 -0.0000 -1.0000
vn 1.0000 -0.0000 -0.0000
vn -0.0000 -0.0000 1.0000
vn -0.0000 -1.0000 -0.0000
vn -0.0000 1.0000 -0.0000
vn -0.5269 0.8499 -0.0000
vn 0.6847 0.7288 -0.0000
vn -0.1288 0.9917 -0.0000
vn 0.6149 0.7886 -0.0000
vn 0.3027 0.9531 -0.0000
vn 0.2971 0.9549 -0.0000
vn -0.4671 0.8842 -0.0000
vn 0.0424 0.9991 -0.0000
vn 0.3636 0.9315 -0.0000
vn -0.7267 0.6870 -0.0000
vn -0.7447 0.6674 -0.0000
vn 0.8833 0.4689 -0.0000
vn 0.6384 0.7697 -0.0000
vn -0.4872 0.8733 -0.0000
vn 0.3237 0.9462 -0.0000
vn 0.6601 0.7512 -0.0000
vn -0.8093 0.5874 -0.0000
vn 0.3257 0.9455 -0.0000
vn 0.2451 0.9695 -0.0000
vn 0.5080 0.8614 -0.0000
vn 0.7554 0.6552 -0.0000
vn 0.2846 0.9587 -0.0000
vn -0.4737 0.8807 -0.0000
vn -0.6008 0.7994 -0.0000
vn 0.3471 0.9378 -0.0000
vn 0.3976 0.9175 -0.0000
vn -0.6791 0.7340 -0.0000
vn 0.1439 0.9896 -0.0000
vn -0.4905 0.8715 -0.0000
vn 0.3211 0.9471 -0.0000
vn 0.4718 0.8817 -0.0000
vn -0.1110 0.9938 -0.0000
vn -0.0000 0.9998 0.0175
vn -0.0000 0.9414 0.3372
vn -0.0000 0.6747 0.7381
vn -0.0000 0.6259 0.7799
vn -0.0000 0.9199 -0.3922
vn -0.0000 0.9515 -0.3076
vn -0.0000 0.7283 0.6853
vn -0.0000 0.7401 -0.6724
vn -0.0000 0.6224 0.7827
vn -0.0000 0.9744 -0.2248
vn -0.0000 0.8782 0.4784
vn -0.0000 1.0000 -0.0011
vn -0.0000 0.9474 0.3201
vn -0.0000 0.5333 -0.8459
vn -0.0000 0.6227 -0.7824
vn -0.0000 0.8258 0.5640
vn -0.0000 0.8446 -0.5355
vn -0.0000 0.9829 -0.1844
vn -0.0000 0.7071 -0.7071
vn -0.0000 0.7071 0.7071
vn -0.9814 0.1778 -0.0726
vn 0.0726 -0.0065 -0.9973
vn 0.9814 -0.1778 0.0726
vn -0.0726 0.0065 0.9973
vn -0.1778 -0.9840 -0.0065
vn 0.1778 0.9840 0.0065
vn -0.6906 0.7226 0.0313
vn -0.0313 0.0134 -0.9994
vn 0.6906 -0.7226 -0.0313
vn 0.0313 -0.0134 0.9994
vn -0.7226 -0.6911 0.0134
vn 0.7226 0.6911 -0.0134
vn -0.8683 0.4834 0.1111
vn -0.1111 0.0288 -0.9934
vn 0.8683 -0.4834 -0.1111
vn 0.1111 -0.0288 0.9934
vn -0.4834 -0.8749 0.0288
vn 0.4834 0.8749 -0.0288
vn -0.9907 0.1355 0.0079
vn -0.0079 0.0005 -1.0000
vn 0.9907 -0.1355 -0.0079
vn 0.0079 -0.0005 1.0000
vn -0.1355 -0.9908 0.0005
vn 0.1355 0.9908 -0.0005
vn -0.9855 0.1677 0.0275
vn -0.0275 0.0023 -0.9996
vn 0.9855 -0.1677 -0.0275
vn 0.0275 -0.0023 0.9996
vn -0.1677 -0.9858 0.0023
vn 0.1677 0.9858 -0.0023
vn -0.8670 0.4306 0.2506
vn 0.1057 0.6504 -0.7522
vn 0.8670 -0.4306 -0.2506
vn -0.1057 -0.6504 0.7522
vn -0.4869 -0.6257 -0.6095
vn 0.4869 0.6257 0.6095
vn -0.6852 0.5552 0.4714
vn 0.0433 0.6772 -0.7345
vn 0.6852 -0.5552 -0.4714
vn -0.0433 -0.6772 0.7345
vn -0.7270 -0.4829 -0.4881
vn 0.7270 0.4829 0.4881
vn 0.3090 0.4922 0.8138
vn -0.7120 0.6870 -0.1451
vn -0.3090 -0.4922 -0.8138
vn 0.7120 -0.6870 0.1451
vn -0.6305 -0.5346 0.5628
vn 0.6305 0.5346 -0.5628
vn 0.2173 0.3536 0.9098
vn -0.9746 0.0266 0.2224
vn -0.2173 -0.3536 -0.9098
vn 0.9746 -0.0266 -0.2224
vn 0.0545 -0.9350 0.3504
vn -0.0545 0.9350 -0.3504
vn -0.8126 0.5014 0.2971
vn 0.1443 0.6669 -0.7311
vn 0.8126 -0.5014 -0.2971
vn -0.1443 -0.6669 0.7311
vn -0.5647 -0.5512 -0.6142
vn 0.5647 0.5512 0.6142
vn -0.8005 0.1377 0.5833
vn -0.4696 0.4607 -0.7532
vn 0.8005 -0.1377 -0.5833
vn 0.4696 -0.4607 0.7532
vn -0.3724 -0.8768 -0.3041
vn 0.3724 0.8768 0.3041
vn -0.5413 0.0171 0.8407
vn -0.5924 0.7018 -0.3957
vn 0.5413 -0.0171 -0.8407
vn 0.5924 -0.7018 0.3957
vn -0.5967 -0.7122 -0.3698
vn 0.5967 0.7122 0.3698
vn -0.8591 0.3794 0.3436
vn -0.2154 0.3410 -0.9151
vn 0.8591 -0.3794 -0.3436
vn 0.2154 -0.3410 0.9151
vn -0.4643 -0.8601 -0.2112
vn 0.4643 0.8601 0.2112
vn 0.9038 0.3874 0.1820
vn -0.4027 0.6259 0.6678
vn -0.9038 -0.3874 -0.1820
vn 0.4027 -0.6259 -0.6678
vn 0.1448 -0.6769 0.7217
vn -0.1448 0.6769 -0.7217
vn -0.1431 0.7768 0.6133
vn -0.6536 0.3912 -0.6479
vn 0.1431 -0.7768 -0.6133
vn 0.6536 -0.3912 0.6479
vn -0.7432 -0.4936 0.4517
vn 0.7432 0.4936 -0.4517
vn -0.2564 0.6485 0.7167
vn -0.7399 0.3454 -0.5773
vn 0.2564 -0.6485 -0.7167
vn 0.7399 -0.3454 0.5773
vn -0.6219 -0.6783 0.3913
vn 0.6219 0.6783 -0.3913
vn -0.6157 0.7061 0.3496
vn -0.1485 0.3318 -0.9316
vn 0.6157 -0.7061 -0.3496
vn 0.1485 -0.3318 0.9316
vn -0.7738 -0.6255 -0.0995
vn 0.7738 0.6255 0.0995
vn -0.2075 0.2535 0.9448
vn -0.8945 0.3417 -0.2882
vn 0.2075 -0.2535 -0.9448
vn 0.8945 -0.3417 0.2882
vn -0.3959 -0.9050 0.1559
vn 0.3959 0.9050 -0.1559
vn -0.5679 0.5747 0.5893
vn -0.1520 0.6304 -0.7612
vn 0.5679 -0.5747 -0.5893
vn 0.1520 -0.6304 0.7612
vn -0.8089 -0.5219 -0.2707
vn 0.8089 0.5219 0.2707
vn 0.7123 0.3009 0.6341
vn -0.7009 0.3515 0.6206
vn -0.7123 -0.3009 -0.6341
vn 0.7009 -0.3515 -0.6206
vn -0.0361 -0.8865 0.4613
vn 0.0361 0.8865 -0.4613
vn 0.2196 0.3672 0.9038
vn -0.6554 0.7417 -0.1422
vn -0.2196 -0.3672 -0.9038
vn 0.6554 -0.7417 0.1422
vn -0.7226 -0.5612 0.4036
vn 0.7226 0.5612 -0.4036
vn -0.3810 0.8056 0.4538
vn -0.1680 0.4223 -0.8907
vn 0.3810 -0.8056 -0.4538
vn 0.1680 -0.4223 0.8907
vn -0.9092 -0.4156 -0.0256
vn 0.9092 0.4156 0.0256
vn -0.6753 0.6987 0.2362
vn -0.3101 0.0215 -0.9505
vn 0.6753 -0.6987 -0.2362
vn 0.3101 -0.0215 0.9505
vn -0.6692 -0.7151 0.2021
vn 0.6692 0.7151 -0.2021
vn -0.4637 0.0998 0.8804
vn -0.8679 0.1487 -0.4740
vn 0.4637 -0.0998 -0.8804
vn 0.8679 -0.1487 0.4740
vn -0.1782 -0.9838 0.0177
vn 0.1782 0.9838 -0.0177
vt 0.193846 0.500022
vt 0.182731 0.500009
vt 0.182731 0.308430
vt 0.193846 0.308443
vt 0.903582 0.452281
vt 0.892406 0.452280
vt 0.892406 0.148954
vt 0.903582 0.148956
vt 0.378987 0.305739
vt 0.390131 0.305729
vt 0.390131 0.497307
vt 0.378987 0.497317
vt 0.908326 0.148958
vt 0.919502 0.148954
vt 0.919502 0.452054
vt 0.908326 0.452058
vt 0.193884 0.002372
vt 0.193884 0.302944
vt 0.002372 0.303685
vt 0.002372 0.003113
vt 0.198629 0.300604
vt 0.198629 0.002372
vt 0.390208 0.002753
vt 0.390208 0.300984
vt 0.046142 0.934807
vt 0.046142 0.819684
vt 0.057317 0.819671
vt 0.057317 0.934794
vt 0.675092 0.564045
vt 0.559347 0.564028
vt 0.559347 0.276667
vt 0.675092 0.276684
vt 0.014302 0.935097
vt 0.014302 0.819671
vt 0.025477 0.819681
vt 0.025477 0.935107
vt 0.198629 0.525592
vt 0.314378 0.525556
vt 0.314378 0.812703
vt 0.198629 0.812739
vt 0.935419 0.148954
vt 0.935419 0.433706
vt 0.924247 0.433750
vt 0.924247 0.148997
vt 0.940163 0.431489
vt 0.940163 0.148954
vt 0.951339 0.148976
vt 0.951339 0.431511
vt 0.062062 0.934807
vt 0.062062 0.819684
vt 0.073237 0.819671
vt 0.073237 0.934794
vt 0.795582 0.564045
vt 0.679837 0.564028
vt 0.679837 0.276667
vt 0.795582 0.276684
vt 0.030222 0.935097
vt 0.030222 0.819671
vt 0.041397 0.819681
vt 0.041397 0.935107
vt 0.002372 0.527779
vt 0.118122 0.527743
vt 0.118122 0.814891
vt 0.002372 0.814926
vt 0.938794 0.568790
vt 0.938794 0.853542
vt 0.927622 0.853586
vt 0.927622 0.568833
vt 0.943538 0.851325
vt 0.943538 0.568790
vt 0.954714 0.568812
vt 0.954714 0.851347
vt 0.832638 0.733361
vt 0.717514 0.733229
vt 0.717514 0.568790
vt 0.832638 0.568922
vt 0.907862 0.118119
vt 0.907862 0.002374
vt 0.919037 0.002372
vt 0.919037 0.118118
vt 0.559291 0.002472
vt 0.674717 0.002372
vt 0.674717 0.166810
vt 0.559291 0.166909
vt 0.923781 0.118122
vt 0.923781 0.002372
vt 0.934948 0.002376
vt 0.934948 0.118125
vt 0.225806 0.981909
vt 0.214732 0.981867
vt 0.214732 0.817484
vt 0.225806 0.817527
vt 0.273088 0.981923
vt 0.262101 0.981945
vt 0.262101 0.817506
vt 0.273088 0.817484
vt 0.832638 0.902676
vt 0.717514 0.902544
vt 0.717514 0.738105
vt 0.832638 0.738237
vt 0.891942 0.118119
vt 0.891942 0.002374
vt 0.903117 0.002372
vt 0.903117 0.118118
vt 0.679462 0.002472
vt 0.794888 0.002372
vt 0.794888 0.166810
vt 0.679462 0.166909
vt 0.924247 0.554244
vt 0.924247 0.438494
vt 0.935414 0.438498
vt 0.935414 0.554247
vt 0.241624 0.981909
vt 0.230550 0.981867
vt 0.230550 0.817484
vt 0.241624 0.817527
vt 0.257356 0.981923
vt 0.246369 0.981945
vt 0.246369 0.817506
vt 0.257356 0.817484
vt 0.475073 0.835720
vt 0.475073 0.817773
vt 0.549532 0.817750
vt 0.538398 0.835700
vt 0.470328 0.817971
vt 0.470328 0.835931
vt 0.407005 0.835921
vt 0.395871 0.817960
vt 0.209826 0.817484
vt 0.209987 0.833105
vt 0.198812 0.833112
vt 0.198650 0.817491
vt 0.475073 0.799826
vt 0.532658 0.799808
vt 0.470328 0.800011
vt 0.412745 0.800002
vt 0.209858 0.853851
vt 0.198683 0.853858
vt 0.475073 0.781880
vt 0.534991 0.781861
vt 0.470328 0.782051
vt 0.410412 0.782042
vt 0.209929 0.871083
vt 0.198753 0.871090
vt 0.475073 0.763933
vt 0.520985 0.763919
vt 0.470328 0.764091
vt 0.424418 0.764084
vt 0.209829 0.891304
vt 0.198654 0.891311
vt 0.475073 0.745986
vt 0.515280 0.745974
vt 0.470328 0.746131
vt 0.430123 0.746125
vt 0.209816 0.910006
vt 0.198641 0.910013
vt 0.475073 0.728039
vt 0.509691 0.728029
vt 0.470328 0.728171
vt 0.435711 0.728165
vt 0.209805 0.928687
vt 0.198629 0.928694
vt 0.475073 0.710093
vt 0.519180 0.710079
vt 0.470328 0.710211
vt 0.426222 0.710204
vt 0.209949 0.944609
vt 0.198774 0.944616
vt 0.475073 0.692146
vt 0.518419 0.692133
vt 0.470328 0.692250
vt 0.426984 0.692244
vt 0.209987 0.962407
vt 0.198812 0.962414
vt 0.475073 0.674199
vt 0.511407 0.674188
vt 0.470328 0.674290
vt 0.433995 0.674285
vt 0.209961 0.981348
vt 0.198785 0.981355
vt 0.475073 0.656253
vt 0.530407 0.656235
vt 0.470328 0.656330
vt 0.414996 0.656322
vt 0.857548 0.559258
vt 0.857543 0.538490
vt 0.868718 0.538581
vt 0.868723 0.559349
vt 0.475073 0.638306
vt 0.550451 0.638283
vt 0.470328 0.638370
vt 0.394953 0.638359
vt 0.857548 0.516683
vt 0.868723 0.516774
vt 0.475073 0.620359
vt 0.516614 0.620346
vt 0.470328 0.620410
vt 0.428789 0.620404
vt 0.507826 0.840545
vt 0.507826 0.872940
vt 0.496651 0.872859
vt 0.496651 0.840464
vt 0.475073 0.602412
vt 0.501718 0.602404
vt 0.470328 0.602450
vt 0.443684 0.602446
vt 0.778837 0.171654
vt 0.778723 0.192038
vt 0.767547 0.192042
vt 0.767662 0.171658
vt 0.475073 0.584466
vt 0.511739 0.584454
vt 0.470328 0.584490
vt 0.433663 0.584485
vt 0.778869 0.207863
vt 0.767693 0.207867
vt 0.475073 0.566519
vt 0.505594 0.566510
vt 0.470328 0.566530
vt 0.439808 0.566525
vt 0.778846 0.226646
vt 0.767671 0.226650
vt 0.475073 0.548572
vt 0.489810 0.548568
vt 0.470328 0.548570
vt 0.455592 0.548568
vt 0.778723 0.247192
vt 0.767547 0.247196
vt 0.826728 0.245713
vt 0.815552 0.245726
vt 0.815552 0.182743
vt 0.826728 0.182730
vt 0.637269 0.270933
vt 0.626093 0.270923
vt 0.626093 0.256227
vt 0.637269 0.256237
vt 0.638429 0.855952
vt 0.638429 0.838005
vt 0.712770 0.837982
vt 0.688022 0.855936
vt 0.633685 0.838198
vt 0.633685 0.856158
vt 0.584094 0.856150
vt 0.559347 0.838187
vt 0.751627 0.198139
vt 0.751499 0.171654
vt 0.762674 0.171671
vt 0.762803 0.198155
vt 0.638429 0.820058
vt 0.706582 0.820037
vt 0.633685 0.820238
vt 0.565535 0.820228
vt 0.089310 0.819671
vt 0.089316 0.838462
vt 0.078141 0.838483
vt 0.078135 0.819692
vt 0.638429 0.802111
vt 0.702040 0.802092
vt 0.633685 0.802278
vt 0.570076 0.802268
vt 0.089338 0.856951
vt 0.078163 0.856972
vt 0.638429 0.784165
vt 0.691447 0.784148
vt 0.633685 0.784318
vt 0.580669 0.784310
vt 0.089299 0.876548
vt 0.078124 0.876569
vt 0.638429 0.766218
vt 0.670740 0.766208
vt 0.633685 0.766357
vt 0.601375 0.766353
vt 0.089158 0.897995
vt 0.077982 0.898016
vt 0.638429 0.748271
vt 0.665408 0.748263
vt 0.633685 0.748397
vt 0.606707 0.748393
vt 0.089172 0.916629
vt 0.077996 0.916650
vt 0.638429 0.730325
vt 0.675068 0.730313
vt 0.633685 0.730437
vt 0.597047 0.730432
vt 0.089338 0.932520
vt 0.078163 0.932541
vt 0.638429 0.712378
vt 0.688567 0.712362
vt 0.633685 0.712477
vt 0.583548 0.712470
vt 0.610174 0.271525
vt 0.610174 0.256227
vt 0.621349 0.256359
vt 0.621349 0.271657
vt 0.638429 0.694431
vt 0.681920 0.694418
vt 0.633685 0.694517
vt 0.590196 0.694511
vt 0.867691 0.233483
vt 0.867697 0.252358
vt 0.856521 0.252382
vt 0.856516 0.233507
vt 0.638429 0.676484
vt 0.674136 0.676473
vt 0.633685 0.676557
vt 0.597979 0.676552
vt 0.867691 0.271441
vt 0.856516 0.271465
vt 0.638429 0.658538
vt 0.690754 0.658522
vt 0.633685 0.658597
vt 0.581362 0.658589
vt 0.378987 0.520461
vt 0.378987 0.502061
vt 0.390162 0.502169
vt 0.390162 0.520568
vt 0.638429 0.640591
vt 0.688142 0.640576
vt 0.633685 0.640637
vt 0.583974 0.640630
vt 0.710767 0.171664
vt 0.710759 0.189800
vt 0.699583 0.189790
vt 0.699591 0.171654
vt 0.638429 0.622644
vt 0.698250 0.622626
vt 0.633685 0.622677
vt 0.573866 0.622668
vt 0.710886 0.205609
vt 0.699711 0.205599
vt 0.638429 0.604698
vt 0.692161 0.604681
vt 0.633685 0.604717
vt 0.579955 0.604709
vt 0.710841 0.224382
vt 0.699666 0.224372
vt 0.638429 0.586751
vt 0.682551 0.586737
vt 0.633685 0.586757
vt 0.589565 0.586750
vt 0.710759 0.243798
vt 0.699583 0.243789
vt 0.638429 0.568804
vt 0.684557 0.568790
vt 0.633685 0.568797
vt 0.587559 0.568790
vt 0.710800 0.261090
vt 0.699625 0.261080
vt 0.762674 0.247479
vt 0.751499 0.247463
vt 0.842648 0.228739
vt 0.831473 0.228729
vt 0.831473 0.182730
vt 0.842648 0.182740
vt 0.319123 0.690049
vt 0.319123 0.671779
vt 0.324417 0.671774
vt 0.324098 0.690045
vt 0.186997 0.673984
vt 0.186997 0.692255
vt 0.182035 0.692250
vt 0.181717 0.673978
vt 0.870313 0.457026
vt 0.870883 0.475285
vt 0.859903 0.475685
vt 0.859333 0.457426
vt 0.319123 0.653508
vt 0.330944 0.653498
vt 0.186997 0.655713
vt 0.175207 0.655700
vt 0.870313 0.493518
vt 0.859333 0.493918
vt 0.319123 0.635237
vt 0.350878 0.635210
vt 0.186997 0.637443
vt 0.155326 0.637406
vt 0.847441 0.225235
vt 0.847393 0.205371
vt 0.858553 0.205765
vt 0.858601 0.225630
vt 0.319123 0.616966
vt 0.373581 0.616919
vt 0.186997 0.619172
vt 0.132682 0.619109
vt 0.847441 0.182730
vt 0.858601 0.183125
vt 0.319123 0.598695
vt 0.365813 0.598655
vt 0.186997 0.600901
vt 0.140430 0.600847
vt 0.727096 0.171654
vt 0.728575 0.190003
vt 0.717588 0.190057
vt 0.716108 0.171709
vt 0.319123 0.580424
vt 0.359921 0.580389
vt 0.186997 0.582630
vt 0.146306 0.582583
vt 0.729711 0.208332
vt 0.718723 0.208387
vt 0.319123 0.562153
vt 0.377065 0.562104
vt 0.186997 0.564359
vt 0.129207 0.564292
vt 0.726619 0.226432
vt 0.715631 0.226487
vt 0.319123 0.543883
vt 0.360511 0.543847
vt 0.186997 0.546088
vt 0.145717 0.546040
vt 0.729711 0.244868
vt 0.718723 0.244923
vt 0.319123 0.525612
vt 0.383422 0.525556
vt 0.186997 0.527817
vt 0.122866 0.527743
vt 0.656051 0.883545
vt 0.656051 0.860696
vt 0.667212 0.861064
vt 0.667212 0.883912
vt 0.464977 0.878230
vt 0.464977 0.867063
vt 0.469966 0.867062
vt 0.469966 0.878228
vt 0.810808 0.247207
vt 0.799632 0.247209
vt 0.799632 0.182732
vt 0.810808 0.182730
vt 0.837382 0.733255
vt 0.837382 0.714984
vt 0.906816 0.714924
vt 0.911019 0.733191
vt 0.922653 0.884309
vt 0.922653 0.902580
vt 0.849210 0.902495
vt 0.853402 0.884229
vt 0.745437 0.171654
vt 0.746754 0.189938
vt 0.735772 0.190288
vt 0.734455 0.172003
vt 0.837382 0.696713
vt 0.916741 0.696645
vt 0.922653 0.866038
vt 0.843503 0.865947
vt 0.745475 0.208151
vt 0.734493 0.208500
vt 0.837382 0.678442
vt 0.916721 0.678374
vt 0.922653 0.847767
vt 0.843523 0.847676
vt 0.746024 0.226414
vt 0.735042 0.226763
vt 0.837382 0.660171
vt 0.922878 0.660098
vt 0.922653 0.829496
vt 0.837382 0.829398
vt 0.745437 0.244646
vt 0.734455 0.244995
vt 0.837382 0.641900
vt 0.893977 0.641852
vt 0.922653 0.811225
vt 0.866207 0.811160
vt 0.829697 0.457127
vt 0.829670 0.486316
vt 0.818495 0.486215
vt 0.818523 0.457026
vt 0.837382 0.623629
vt 0.871084 0.623600
vt 0.922653 0.792954
vt 0.889040 0.792915
vt 0.829697 0.509480
vt 0.818523 0.509379
vt 0.837382 0.605359
vt 0.883527 0.605319
vt 0.922653 0.774683
vt 0.876630 0.774630
vt 0.813750 0.457097
vt 0.811314 0.475217
vt 0.800327 0.475146
vt 0.802763 0.457026
vt 0.837382 0.587088
vt 0.871975 0.587058
vt 0.922653 0.756412
vt 0.888151 0.756372
vt 0.813278 0.493627
vt 0.802291 0.493556
vt 0.837382 0.568817
vt 0.868557 0.568790
vt 0.922653 0.738141
vt 0.891560 0.738105
vt 0.813750 0.511939
vt 0.802763 0.511868
vt 0.794780 0.245501
vt 0.783614 0.245497
vt 0.783614 0.171654
vt 0.794780 0.171658
vt 0.523746 0.871725
vt 0.512571 0.871727
vt 0.512571 0.840466
vt 0.523746 0.840464
vt 0.002372 0.522999
vt 0.002372 0.308631
vt 0.177986 0.308430
vt 0.177986 0.522797
vt 0.319123 0.910322
vt 0.319123 0.694796
vt 0.331895 0.694794
vt 0.331895 0.910320
vt 0.198629 0.520660
vt 0.198629 0.305729
vt 0.374242 0.305880
vt 0.374242 0.520812
vt 0.336639 0.910327
vt 0.336639 0.694794
vt 0.349401 0.694798
vt 0.349401 0.910331
vt 0.378723 0.870397
vt 0.366067 0.870348
vt 0.366067 0.694794
vt 0.378723 0.694843
vt 0.152824 0.872615
vt 0.140267 0.872640
vt 0.140267 0.697025
vt 0.152824 0.697000
vt 0.799632 0.177986
vt 0.799632 0.002372
vt 0.887197 0.090104
vt 0.800327 0.364374
vt 0.887662 0.276667
vt 0.887662 0.452281
vt 0.122866 0.872554
vt 0.122866 0.697000
vt 0.135522 0.697049
vt 0.135522 0.872603
vt 0.677343 0.171818
vt 0.677343 0.260628
vt 0.664572 0.260464
vt 0.664572 0.171654
vt 0.682088 0.258872
vt 0.682088 0.171654
vt 0.694839 0.172181
vt 0.694839 0.259399
vt 0.997628 0.728442
vt 0.995246 0.728439
vt 0.995246 0.568790
vt 0.997628 0.568793
vt 0.385862 0.966191
vt 0.383468 0.966191
vt 0.383468 0.694794
vt 0.385862 0.694794
vt 0.971388 0.812716
vt 0.973776 0.812714
vt 0.973776 0.972363
vt 0.971388 0.972365
vt 0.991869 0.148955
vt 0.994264 0.148954
vt 0.994264 0.420149
vt 0.991869 0.420150
vt 0.554546 0.002372
vt 0.554546 0.271305
vt 0.394953 0.271922
vt 0.394953 0.002990
vt 0.394953 0.543506
vt 0.394953 0.276667
vt 0.554602 0.276984
vt 0.554602 0.543823
vt 0.682088 0.271309
vt 0.682088 0.264144
vt 0.689247 0.264189
vt 0.689247 0.271354
vt 0.301687 0.817484
vt 0.308872 0.817486
vt 0.308872 0.974158
vt 0.301687 0.974157
vt 0.147413 0.907524
vt 0.140267 0.907462
vt 0.140267 0.900303
vt 0.147413 0.900365
vt 0.009557 0.975930
vt 0.002372 0.975925
vt 0.002372 0.819671
vt 0.009557 0.819676
vt 0.296943 0.817495
vt 0.296943 0.974607
vt 0.289761 0.974597
vt 0.289761 0.817484
vt 0.277833 0.974759
vt 0.277833 0.817484
vt 0.285017 0.817485
vt 0.285017 0.974760
vt 0.630406 0.912235
vt 0.624928 0.912135
vt 0.624928 0.904952
vt 0.630406 0.905052
vt 0.959459 0.568791
vt 0.966643 0.568790
vt 0.966643 0.927798
vt 0.959459 0.927799
vt 0.611164 0.905474
vt 0.616505 0.905374
vt 0.616505 0.912557
vt 0.611164 0.912657
vt 0.963268 0.507997
vt 0.956084 0.507997
vt 0.956084 0.148954
vt 0.963268 0.148955
vt 0.361323 0.695007
vt 0.361323 0.976279
vt 0.354146 0.976066
vt 0.354146 0.694794
vt 0.968012 0.440583
vt 0.968012 0.149048
vt 0.975195 0.148954
vt 0.975195 0.440490
vt 0.910777 0.144067
vt 0.904168 0.143778
vt 0.904168 0.136632
vt 0.910777 0.136921
vt 0.094083 0.819693
vt 0.101264 0.819671
vt 0.101264 0.949214
vt 0.094083 0.949236
vt 0.559347 0.904163
vt 0.565871 0.903857
vt 0.565871 0.911004
vt 0.559347 0.911310
vt 0.946877 0.132165
vt 0.939693 0.132156
vt 0.939693 0.002372
vt 0.946877 0.002380
vt 0.947336 0.438609
vt 0.947336 0.560092
vt 0.940159 0.559977
vt 0.940159 0.438495
vt 0.106009 0.943207
vt 0.106009 0.819715
vt 0.113192 0.819671
vt 0.113192 0.943163
vt 0.697930 0.908532
vt 0.690749 0.908533
vt 0.690749 0.901348
vt 0.697930 0.901347
vt 0.157568 0.697000
vt 0.164753 0.697001
vt 0.164753 0.936449
vt 0.157568 0.936448
vt 0.544034 0.902991
vt 0.551206 0.902991
vt 0.551207 0.910175
vt 0.544036 0.910175
vt 0.188609 0.936319
vt 0.181424 0.936320
vt 0.181424 0.697001
vt 0.188609 0.697000
vt 0.176679 0.697000
vt 0.176679 0.936454
vt 0.169497 0.936454
vt 0.169497 0.697000
vt 0.971388 0.807966
vt 0.971388 0.568790
vt 0.978572 0.568793
vt 0.978572 0.807970
vt 0.712596 0.908853
vt 0.705426 0.908845
vt 0.705426 0.901661
vt 0.712596 0.901669
vt 0.979940 0.345465
vt 0.987124 0.345464
vt 0.987124 0.537232
vt 0.979940 0.537233
vt 0.577859 0.903867
vt 0.585012 0.903856
vt 0.585012 0.911040
vt 0.577859 0.911051
vt 0.987125 0.340719
vt 0.979940 0.340719
vt 0.979940 0.148955
vt 0.987125 0.148954
vt 0.990499 0.765302
vt 0.990499 0.956985
vt 0.983317 0.956979
vt 0.983317 0.765295
vt 0.983317 0.760550
vt 0.983317 0.568790
vt 0.990501 0.568791
vt 0.990501 0.760551
vt 0.420557 0.901786
vt 0.413267 0.901937
vt 0.413267 0.891275
vt 0.420557 0.891125
vt 0.846458 0.547545
vt 0.852699 0.548719
vt 0.852699 0.561689
vt 0.846458 0.560515
vt 0.475073 0.892355
vt 0.482290 0.892581
vt 0.482290 0.903231
vt 0.475073 0.903005
vt 0.887336 0.214721
vt 0.881176 0.215803
vt 0.881176 0.202765
vt 0.887336 0.201683
vt 0.899423 0.125165
vt 0.899423 0.137882
vt 0.891942 0.135580
vt 0.891942 0.122864
vt 0.559347 0.899112
vt 0.559347 0.886238
vt 0.567063 0.884305
vt 0.567063 0.897180
vt 0.611164 0.893145
vt 0.611280 0.888173
vt 0.620183 0.888226
vt 0.620067 0.893198
vt 0.898688 0.457026
vt 0.904253 0.458710
vt 0.904253 0.468616
vt 0.898688 0.466932
vt 0.596121 0.900777
vt 0.596125 0.895900
vt 0.605030 0.895902
vt 0.605026 0.900779
vt 0.436570 0.905154
vt 0.431090 0.906830
vt 0.431090 0.896828
vt 0.436570 0.895153
vt 0.620183 0.900629
vt 0.611281 0.900576
vt 0.596121 0.888296
vt 0.605026 0.888298
vt 0.897624 0.551271
vt 0.888377 0.552361
vt 0.888377 0.537842
vt 0.897624 0.536752
vt 0.884363 0.481663
vt 0.893251 0.483293
vt 0.893251 0.501168
vt 0.884363 0.499538
vt 0.671957 0.883866
vt 0.681067 0.884886
vt 0.681067 0.899448
vt 0.671957 0.898428
vt 0.893078 0.523716
vt 0.884363 0.525503
vt 0.884363 0.507700
vt 0.893078 0.505913
vt 0.528491 0.883766
vt 0.528491 0.867856
vt 0.539281 0.872952
vt 0.539281 0.888861
vt 0.460232 0.867062
vt 0.460232 0.882685
vt 0.448960 0.887749
vt 0.448960 0.872127
vt 0.826415 0.563354
vt 0.815733 0.562589
vt 0.815733 0.547545
vt 0.826415 0.548310
vt 0.475073 0.868761
vt 0.486419 0.868470
vt 0.486419 0.887319
vt 0.475073 0.887610
vt 0.800327 0.548433
vt 0.810989 0.547545
vt 0.810989 0.562507
vt 0.800327 0.563395
vt 0.377456 0.894209
vt 0.366067 0.893956
vt 0.366067 0.875142
vt 0.377456 0.875394
vt 0.823739 0.253102
vt 0.823739 0.270991
vt 0.808547 0.271637
vt 0.808547 0.253747
vt 0.803802 0.254066
vt 0.803802 0.271776
vt 0.788716 0.270811
vt 0.788716 0.253102
vt 0.535168 0.903845
vt 0.528491 0.904160
vt 0.528491 0.893922
vt 0.535168 0.893606
vt 0.599516 0.256227
vt 0.605429 0.257614
vt 0.605429 0.269939
vt 0.599516 0.268553
vt 0.897996 0.481663
vt 0.904589 0.482070
vt 0.904589 0.492290
vt 0.897996 0.491883
vt 0.886998 0.251553
vt 0.881176 0.252865
vt 0.881176 0.240464
vt 0.886998 0.239153
vt 0.592930 0.270766
vt 0.592930 0.258440
vt 0.626252 0.875546
vt 0.626252 0.863474
vt 0.633232 0.860902
vt 0.633232 0.872974
vt 0.841713 0.562154
vt 0.831160 0.560349
vt 0.831160 0.547545
vt 0.841713 0.549350
vt 0.513373 0.876471
vt 0.523746 0.878789
vt 0.523746 0.894028
vt 0.513373 0.891711
vt 0.642013 0.258139
vt 0.652458 0.256227
vt 0.652458 0.269139
vt 0.642013 0.271051
vt 0.193062 0.520281
vt 0.182731 0.522567
vt 0.182731 0.507052
vt 0.193062 0.504766
vt 0.591376 0.860974
vt 0.591376 0.879537
vt 0.577859 0.879465
vt 0.577859 0.860902
vt 0.559347 0.879464
vt 0.559347 0.860902
vt 0.573114 0.860999
vt 0.573114 0.879560
vt 0.152083 0.895558
vt 0.140267 0.893174
vt 0.140267 0.877384
vt 0.152083 0.879768
vt 0.606420 0.879121
vt 0.596121 0.883551
vt 0.596121 0.865333
vt 0.606420 0.860902
vt 0.122866 0.879529
vt 0.134825 0.877348
vt 0.134825 0.893245
vt 0.122866 0.895427
vt 0.431090 0.867572
vt 0.441101 0.872208
vt 0.441101 0.890408
vt 0.431090 0.885772
vt 0.408522 0.840676
vt 0.408522 0.862408
vt 0.394953 0.863285
vt 0.394953 0.841553
vt 0.528491 0.862175
vt 0.528491 0.840464
vt 0.542596 0.841400
vt 0.542596 0.863111
vt 0.425706 0.886380
vt 0.413267 0.885151
vt 0.413267 0.867736
vt 0.425706 0.868965
vt 0.431090 0.840676
vt 0.444215 0.841645
vt 0.444215 0.862828
vt 0.431090 0.861858
vt 0.394953 0.869289
vt 0.407242 0.868030
vt 0.407242 0.885487
vt 0.394953 0.886746
vt 0.426345 0.862027
vt 0.413267 0.862991
vt 0.413267 0.841640
vt 0.426345 0.840676
vt 0.491906 0.842014
vt 0.491906 0.863725
vt 0.475073 0.862175
vt 0.475073 0.840464
vt 0.834442 0.511683
vt 0.834442 0.489770
vt 0.851481 0.488581
vt 0.851481 0.510493
vt 0.686005 0.877744
vt 0.671957 0.879121
vt 0.671957 0.862073
vt 0.686005 0.860696
vt 0.814690 0.519417
vt 0.824198 0.517094
vt 0.824198 0.540477
vt 0.814690 0.542801
vt 0.690749 0.860696
vt 0.704717 0.862290
vt 0.704717 0.879169
vt 0.690749 0.877575
vt 0.852798 0.542223
vt 0.843209 0.540197
vt 0.843209 0.516683
vt 0.852798 0.518710
vt 0.800327 0.540067
vt 0.800327 0.516683
vt 0.828943 0.542619
vt 0.828943 0.519105
vt 0.907791 0.561124
vt 0.902369 0.562387
vt 0.902369 0.553226
vt 0.907791 0.551963
vt 0.864319 0.500358
vt 0.869334 0.499190
vt 0.869334 0.510770
vt 0.864319 0.511939
vt 0.902369 0.536752
vt 0.907885 0.538191
vt 0.907885 0.547218
vt 0.902369 0.545779
vt 0.903871 0.517704
vt 0.897823 0.515423
vt 0.897823 0.505913
vt 0.903871 0.508194
vt 0.857543 0.510401
vt 0.857543 0.498821
vt 0.705694 0.896917
vt 0.705694 0.885277
vt 0.712596 0.883914
vt 0.712596 0.895553
vt 0.507923 0.891165
vt 0.496651 0.894801
vt 0.496651 0.881320
vt 0.507923 0.877685
vt 0.611164 0.863367
vt 0.621508 0.860903
vt 0.621508 0.880964
vt 0.611164 0.883428
vt 0.751499 0.252224
vt 0.762656 0.255873
vt 0.762656 0.269592
vt 0.751499 0.265943
vt 0.883632 0.559349
vt 0.873468 0.556942
vt 0.873468 0.536752
vt 0.883632 0.539159
vt 0.746754 0.252930
vt 0.746754 0.270132
vt 0.730641 0.266942
vt 0.730641 0.249740
vt 0.767547 0.271776
vt 0.767547 0.254507
vt 0.783972 0.251941
vt 0.783972 0.269210
vt 0.685336 0.912255
vt 0.681406 0.911565
vt 0.681406 0.904193
vt 0.685336 0.904882
vt 0.904168 0.122864
vt 0.909747 0.123067
vt 0.909747 0.131887
vt 0.904168 0.131683
vt 0.466454 0.841343
vt 0.470270 0.840676
vt 0.470270 0.848060
vt 0.466454 0.848728
vt 0.128429 0.909038
vt 0.122866 0.909276
vt 0.122866 0.900410
vt 0.128429 0.900171
vt 0.520161 0.900684
vt 0.520161 0.908123
vt 0.513373 0.906212
vt 0.513373 0.898773
vt 0.897823 0.531721
vt 0.897823 0.524085
vt 0.904750 0.522449
vt 0.904750 0.530084
vt 0.893316 0.563405
vt 0.888377 0.563658
vt 0.888377 0.557359
vt 0.893316 0.557105
vt 0.487035 0.892732
vt 0.491787 0.892355
vt 0.491787 0.900437
vt 0.487035 0.900815
vt 0.842680 0.265084
vt 0.847607 0.265340
vt 0.847607 0.271691
vt 0.842680 0.271434
vt 0.676662 0.912689
vt 0.671957 0.912288
vt 0.671957 0.904193
vt 0.676662 0.904593
vt 0.503138 0.899846
vt 0.503138 0.908017
vt 0.496651 0.907715
vt 0.496651 0.899545
vt 0.366067 0.907355
vt 0.366067 0.899193
vt 0.372626 0.898953
vt 0.372626 0.907115
vt 0.831473 0.242229
vt 0.833948 0.233483
vt 0.851771 0.234087
vt 0.849296 0.242833
vt 0.638429 0.860696
vt 0.651307 0.863344
vt 0.651307 0.881990
vt 0.638429 0.879342
vt 0.836693 0.483836
vt 0.834442 0.475309
vt 0.852338 0.474836
vt 0.854588 0.483363
vt 0.461709 0.859540
vt 0.448960 0.862317
vt 0.448960 0.843453
vt 0.461709 0.840676
vt 0.851771 0.260339
vt 0.833948 0.259736
vt 0.836693 0.457499
vt 0.854588 0.457026
vt 0.893697 0.465517
vt 0.884363 0.465499
vt 0.884609 0.457026
vt 0.893944 0.457043
vt 0.716131 0.249697
vt 0.725456 0.249667
vt 0.724956 0.261208
vt 0.715631 0.261237
vt 0.725456 0.269560
vt 0.716131 0.269589
vt 0.893944 0.476918
vt 0.884609 0.476901
vt 0.559291 0.270646
vt 0.559291 0.256227
vt 0.571330 0.257420
vt 0.571330 0.271838
vt 0.588185 0.256227
vt 0.588185 0.270355
vt 0.576075 0.271566
vt 0.576075 0.257439
vt 0.551318 0.897718
vt 0.544035 0.898246
vt 0.544035 0.887890
vt 0.551318 0.887362
vt 0.881176 0.220548
vt 0.886999 0.221454
vt 0.886999 0.234408
vt 0.881176 0.233502
vt 0.394953 0.891491
vt 0.402163 0.892000
vt 0.402163 0.902383
vt 0.394953 0.901874
vt 0.886851 0.270538
vt 0.881176 0.271530
vt 0.881176 0.258601
vt 0.886851 0.257610
vt 0.645949 0.889438
vt 0.645949 0.901663
vt 0.638429 0.898959
vt 0.638429 0.886734
vt 0.585725 0.884282
vt 0.585725 0.896378
vt 0.577859 0.899112
vt 0.577859 0.887015
vt 0.466189 0.902122
vt 0.460057 0.904057
vt 0.460057 0.894429
vt 0.466189 0.892494
vt 0.656051 0.888657
vt 0.663903 0.888783
vt 0.663903 0.900544
vt 0.656051 0.900418
vt 0.448960 0.892494
vt 0.455313 0.894440
vt 0.455313 0.903942
vt 0.448960 0.901996
vt 0.632767 0.899984
vt 0.624928 0.900207
vt 0.624928 0.888397
vt 0.632767 0.888173
vt 0.700949 0.885029
vt 0.700949 0.896602
vt 0.690749 0.895487
vt 0.690749 0.883914
vt 0.872054 0.195438
vt 0.872054 0.183715
vt 0.882293 0.182730
vt 0.882293 0.194453
vt 0.466454 0.853473
vt 0.470251 0.854378
vt 0.470251 0.860546
vt 0.466454 0.859640
vt 0.656052 0.905509
vt 0.660796 0.905289
vt 0.660796 0.913174
vt 0.656052 0.913394
vt 0.599824 0.911691
vt 0.596121 0.912630
vt 0.596121 0.906463
vt 0.599824 0.905524
vt 0.913382 0.514007
vt 0.908615 0.513826
vt 0.908615 0.505913
vt 0.913382 0.506094
vt 0.671037 0.265404
vt 0.671037 0.271905
vt 0.664572 0.271874
vt 0.664572 0.265373
vt 0.831473 0.271775
vt 0.831473 0.265084
vt 0.837935 0.265195
vt 0.837935 0.271886
vt 0.879618 0.525692
vt 0.875628 0.525734
vt 0.875628 0.457068
vt 0.879618 0.457026
vt 0.547341 0.840629
vt 0.551318 0.840464
vt 0.551318 0.882453
vt 0.547341 0.882617
vt 0.872442 0.201683
vt 0.876431 0.201742
vt 0.876431 0.271465
vt 0.872442 0.271406
vt 0.867309 0.224979
vt 0.863346 0.224752
vt 0.863346 0.182730
vt 0.867309 0.182957
vt 0.611933 0.171678
vt 0.659828 0.171654
vt 0.659828 0.251408
vt 0.611933 0.251432
vt 0.559291 0.171656
vt 0.607188 0.171654
vt 0.607188 0.251481
vt 0.559291 0.251483
s 0
f 1/1/1 2/2/1 4/3/1 3/4/1
f 3/5/2 4/6/2 8/7/2 7/8/2
f 7/9/3 8/10/3 6/11/3 5/12/3
f 5/13/4 6/14/4 2/15/4 1/16/4
f 3/17/5 7/18/5 5/19/5 1/20/5
f 8/21/6 4/22/6 2/23/6 6/24/6
f 9/25/1 10/26/1 12/27/1 11/28/1
f 11/29/2 12/30/2 16/31/2 15/32/2
f 15/33/3 16/34/3 14/35/3 13/36/3
f 13/37/4 14/38/4 10/39/4 9/40/4
f 11/41/5 15/42/5 13/43/5 9/44/5
f 16/45/6 12/46/6 10/47/6 14/48/6
f 17/49/1 18/50/1 20/51/1 19/52/1
f 19/53/2 20/54/2 24/55/2 23/56/2
f 23/57/3 24/58/3 22/59/3 21/60/3
f 21/61/4 22/62/4 18/63/4 17/64/4
f 19/65/5 23/66/5 21/67/5 17/68/5
f 24/69/6 20/70/6 18/71/6 22/72/6
f 25/73/1 26/74/1 28/75/1 27/76/1
f 27/77/2 28/78/2 32/79/2 31/80/2
f 31/81/3 32/82/3 30/83/3 29/84/3
f 29/85/4 30/86/4 26/87/4 25/88/4
f 27/89/5 31/90/5 29/91/5 25/92/5
f 32/93/6 28/94/6 26/95/6 30/96/6
f 33/97/1 34/98/1 36/99/1 35/100/1
f 35/101/2 36/102/2 40/103/2 39/104/2
f 39/105/3 40/106/3 38/107/3 37/108/3
f 37/109/4 38/110/4 34/111/4 33/112/4
f 35/113/5 39/114/5 37/115/5 33/116/5
f 40/117/6 36/118/6 34/119/6 38/120/6
f 41/121/4 43/122/4 44/123/4 42/124/4
f 77/125/2 75/126/2 76/127/2 78/128/2
f 42/129/7 44/130/7 78/131/7 76/132/7
f 43/122/4 45/133/4 46/134/4 44/123/4
f 79/135/2 77/125/2 78/128/2 80/136/2
f 44/130/8 46/137/8 80/138/8 78/131/8
f 45/133/4 47/139/4 48/140/4 46/134/4
f 81/141/2 79/135/2 80/136/2 82/142/2
f 46/137/9 48/143/9 82/144/9 80/138/9
f 47/139/4 49/145/4 50/146/4 48/140/4
f 83/147/2 81/141/2 82/142/2 84/148/2
f 48/143/10 50/149/10 84/150/10 82/144/10
f 49/145/4 51/151/4 52/152/4 50/146/4
f 85/153/2 83/147/2 84/148/2 86/154/2
f 50/149/11 52/155/11 86/156/11 84/150/11
f 51/151/4 53/157/4 54/158/4 52/152/4
f 87/159/2 85/153/2 86/154/2 88/160/2
f 52/155/12 54/161/12 88/162/12 86/156/12
f 53/157/4 55/163/4 56/164/4 54/158/4
f 89/165/2 87/159/2 88/160/2 90/166/2
f 54/161/13 56/167/13 90/168/13 88/162/13
f 55/163/4 57/169/4 58/170/4 56/164/4
f 91/171/2 89/165/2 90/166/2 92/172/2
f 56/167/14 58/173/14 92/174/14 90/168/14
f 57/169/4 59/175/4 60/176/4 58/170/4
f 93/177/2 91/171/2 92/172/2 94/178/2
f 58/173/15 60/179/15 94/180/15 92/174/15
f 59/175/4 61/181/4 62/182/4 60/176/4
f 95/183/2 93/177/2 94/178/2 96/184/2
f 60/185/16 62/186/16 96/187/16 94/188/16
f 61/181/4 63/189/4 64/190/4 62/182/4
f 97/191/2 95/183/2 96/184/2 98/192/2
f 62/186/17 64/193/17 98/194/17 96/187/17
f 63/189/4 65/195/4 66/196/4 64/190/4
f 99/197/2 97/191/2 98/192/2 100/198/2
f 64/199/18 66/200/18 100/201/18 98/202/18
f 65/195/4 67/203/4 68/204/4 66/196/4
f 101/205/2 99/197/2 100/198/2 102/206/2
f 66/207/19 68/208/19 102/209/19 100/210/19
f 67/203/4 69/211/4 70/212/4 68/204/4
f 103/213/2 101/205/2 102/206/2 104/214/2
f 68/208/20 70/215/20 104/216/20 102/209/20
f 69/211/4 71/217/4 72/218/4 70/212/4
f 105/219/2 103/213/2 104/214/2 106/220/2
f 70/215/21 72/221/21 106/222/21 104/216/21
f 71/217/4 73/223/4 74/224/4 72/218/4
f 107/225/2 105/219/2 106/220/2 108/226/2
f 72/221/22 74/227/22 108/228/22 106/222/22
f 75/229/1 41/230/1 42/231/1 76/232/1
f 73/233/3 107/234/3 108/235/3 74/236/3
f 109/237/4 111/238/4 112/239/4 110/240/4
f 145/241/2 143/242/2 144/243/2 146/244/2
f 110/245/23 112/246/23 146/247/23 144/248/23
f 111/238/4 113/249/4 114/250/4 112/239/4
f 147/251/2 145/241/2 146/244/2 148/252/2
f 112/253/24 114/254/24 148/255/24 146/256/24
f 113/249/4 115/257/4 116/258/4 114/250/4
f 149/259/2 147/251/2 148/252/2 150/260/2
f 114/254/25 116/261/25 150/262/25 148/255/25
f 115/257/4 117/263/4 118/264/4 116/258/4
f 151/265/2 149/259/2 150/260/2 152/266/2
f 116/261/26 118/267/26 152/268/26 150/262/26
f 117/263/4 119/269/4 120/270/4 118/264/4
f 153/271/2 151/265/2 152/266/2 154/272/2
f 118/267/27 120/273/27 154/274/27 152/268/27
f 119/269/4 121/275/4 122/276/4 120/270/4
f 155/277/2 153/271/2 154/272/2 156/278/2
f 120/273/28 122/279/28 156/280/28 154/274/28
f 121/275/4 123/281/4 124/282/4 122/276/4
f 157/283/2 155/277/2 156/278/2 158/284/2
f 122/279/29 124/285/29 158/286/29 156/280/29
f 123/281/4 125/287/4 126/288/4 124/282/4
f 159/289/2 157/283/2 158/284/2 160/290/2
f 124/291/30 126/292/30 160/293/30 158/294/30
f 125/287/4 127/295/4 128/296/4 126/288/4
f 161/297/2 159/289/2 160/290/2 162/298/2
f 126/299/31 128/300/31 162/301/31 160/302/31
f 127/295/4 129/303/4 130/304/4 128/296/4
f 163/305/2 161/297/2 162/298/2 164/306/2
f 128/300/32 130/307/32 164/308/32 162/301/32
f 129/303/4 131/309/4 132/310/4 130/304/4
f 165/311/2 163/305/2 164/306/2 166/312/2
f 130/313/33 132/314/33 166/315/33 164/316/33
f 131/309/4 133/317/4 134/318/4 132/310/4
f 167/319/2 165/311/2 166/312/2 168/320/2
f 132/321/34 134/322/34 168/323/34 166/324/34
f 133/317/4 135/325/4 136/326/4 134/318/4
f 169/327/2 167/319/2 168/320/2 170/328/2
f 134/322/35 136/329/35 170/330/35 168/323/35
f 135/325/4 137/331/4 138/332/4 136/326/4
f 171/333/2 169/327/2 170/328/2 172/334/2
f 136/329/36 138/335/36 172/336/36 170/330/36
f 137/331/4 139/337/4 140/338/4 138/332/4
f 173/339/2 171/333/2 172/334/2 174/340/2
f 138/335/37 140/341/37 174/342/37 172/336/37
f 139/337/4 141/343/4 142/344/4 140/338/4
f 175/345/2 173/339/2 174/340/2 176/346/2
f 140/341/38 142/347/38 176/348/38 174/342/38
f 143/349/1 109/350/1 110/245/1 144/248/1
f 141/351/3 175/352/3 176/353/3 142/354/3
f 177/355/3 179/356/3 180/357/3 178/358/3
f 199/359/1 197/360/1 198/361/1 200/362/1
f 178/363/39 180/364/39 200/365/39 198/366/39
f 179/356/3 181/367/3 182/368/3 180/357/3
f 201/369/1 199/359/1 200/362/1 202/370/1
f 180/364/40 182/371/40 202/372/40 200/365/40
f 181/367/3 183/373/3 184/374/3 182/368/3
f 203/375/1 201/369/1 202/370/1 204/376/1
f 182/377/41 184/378/41 204/379/41 202/380/41
f 183/373/3 185/381/3 186/382/3 184/374/3
f 205/383/1 203/375/1 204/376/1 206/384/1
f 184/378/42 186/385/42 206/386/42 204/379/42
f 185/381/3 187/387/3 188/388/3 186/382/3
f 207/389/1 205/383/1 206/384/1 208/390/1
f 186/391/43 188/392/43 208/393/43 206/394/43
f 187/387/3 189/395/3 190/396/3 188/388/3
f 209/397/1 207/389/1 208/390/1 210/398/1
f 188/392/44 190/399/44 210/400/44 208/393/44
f 189/395/3 191/401/3 192/402/3 190/396/3
f 211/403/1 209/397/1 210/398/1 212/404/1
f 190/399/45 192/405/45 212/406/45 210/400/45
f 191/401/3 193/407/3 194/408/3 192/402/3
f 213/409/1 211/403/1 212/404/1 214/410/1
f 192/405/46 194/411/46 214/412/46 212/406/46
f 193/407/3 195/413/3 196/414/3 194/408/3
f 215/415/1 213/409/1 214/410/1 216/416/1
f 194/417/47 196/418/47 216/419/47 214/420/47
f 197/421/4 177/422/4 178/423/4 198/424/4
f 195/425/2 215/426/2 216/427/2 196/428/2
f 217/429/3 219/430/3 220/431/3 218/432/3
f 239/433/1 237/434/1 238/435/1 240/436/1
f 218/437/48 220/438/48 240/439/48 238/440/48
f 219/430/3 221/441/3 222/442/3 220/431/3
f 241/443/1 239/433/1 240/436/1 242/444/1
f 220/438/49 222/445/49 242/446/49 240/439/49
f 221/441/3 223/447/3 224/448/3 222/442/3
f 243/449/1 241/443/1 242/444/1 244/450/1
f 222/445/50 224/451/50 244/452/50 242/446/50
f 223/447/3 225/453/3 226/454/3 224/448/3
f 245/455/1 243/449/1 244/450/1 246/456/1
f 224/451/51 226/457/51 246/458/51 244/452/51
f 225/453/3 227/459/3 228/460/3 226/454/3
f 247/461/1 245/455/1 246/456/1 248/462/1
f 226/463/52 228/464/52 248/465/52 246/466/52
f 227/459/3 229/467/3 230/468/3 228/460/3
f 249/469/1 247/461/1 248/462/1 250/470/1
f 228/464/53 230/471/53 250/472/53 248/465/53
f 229/467/3 231/473/3 232/474/3 230/468/3
f 251/475/1 249/469/1 250/470/1 252/476/1
f 230/477/54 232/478/54 252/479/54 250/480/54
f 231/473/3 233/481/3 234/482/3 232/474/3
f 253/483/1 251/475/1 252/476/1 254/484/1
f 232/478/55 234/485/55 254/486/55 252/479/55
f 233/481/3 235/487/3 236/488/3 234/482/3
f 255/489/1 253/483/1 254/484/1 256/490/1
f 234/485/56 236/491/56 256/492/56 254/486/56
f 237/493/4 217/494/4 218/495/4 238/496/4
f 235/497/2 255/498/2 256/499/2 236/500/2
f 257/501/1 258/502/1 260/503/1 259/504/1
f 259/505/2 260/506/2 264/507/2 263/508/2
f 263/509/3 264/510/3 262/511/3 261/512/3
f 261/513/4 262/514/4 258/515/4 257/516/4
f 259/517/5 263/518/5 261/519/5 257/520/5
f 264/521/6 260/522/6 258/523/6 262/524/6
f 265/525/3 266/526/3 267/527/3
f 270/528/1 269/529/1 268/530/1
f 266/531/5 265/532/5 268/533/5 269/534/5
f 267/535/57 266/536/57 269/537/57 270/538/57
f 265/539/58 267/540/58 270/541/58 268/542/58
f 271/543/1 272/544/1 274/545/1 273/546/1
f 273/547/2 274/548/2 278/549/2 277/550/2
f 277/551/3 278/552/3 276/553/3 275/554/3
f 275/555/4 276/556/4 272/557/4 271/558/4
f 273/559/5 277/560/5 275/561/5 271/562/5
f 278/563/6 274/564/6 272/565/6 276/566/6
f 279/567/59 280/568/59 282/569/59 281/570/59
f 281/571/60 282/572/60 286/573/60 285/574/60
f 285/575/61 286/576/61 284/577/61 283/578/61
f 283/579/62 284/580/62 280/581/62 279/582/62
f 281/583/63 285/584/63 283/585/63 279/586/63
f 286/587/64 282/588/64 280/589/64 284/590/64
f 287/591/65 288/592/65 290/593/65 289/594/65
f 289/595/66 290/596/66 294/597/66 293/598/66
f 293/599/67 294/600/67 292/601/67 291/602/67
f 291/603/68 292/604/68 288/605/68 287/606/68
f 289/607/69 293/608/69 291/609/69 287/610/69
f 294/611/70 290/612/70 288/613/70 292/614/70
f 295/615/71 296/616/71 298/617/71 297/618/71
f 297/619/72 298/620/72 302/621/72 301/622/72
f 301/623/73 302/624/73 300/625/73 299/626/73
f 299/627/74 300/628/74 296/629/74 295/630/74
f 297/631/75 301/632/75 299/633/75 295/634/75
f 302/635/76 298/636/76 296/637/76 300/638/76
f 303/639/77 304/640/77 306/641/77 305/642/77
f 305/643/78 306/644/78 310/645/78 309/646/78
f 309/647/79 310/648/79 308/649/79 307/650/79
f 307/651/80 308/652/80 304/653/80 303/654/80
f 305/655/81 309/656/81 307/657/81 303/658/81
f 310/659/82 306/660/82 304/661/82 308/662/82
f 311/663/83 312/664/83 314/665/83 313/666/83
f 313/667/84 314/668/84 318/669/84 317/670/84
f 317/671/85 318/672/85 316/673/85 315/674/85
f 315/675/86 316/676/86 312/677/86 311/678/86
f 313/679/87 317/680/87 315/681/87 311/682/87
f 318/683/88 314/684/88 312/685/88 316/686/88
f 319/687/89 320/688/89 322/689/89 321/690/89
f 321/691/90 322/692/90 326/693/90 325/694/90
f 325/695/91 326/696/91 324/697/91 323/698/91
f 323/699/92 324/700/92 320/701/92 319/702/92
f 321/703/93 325/704/93 323/705/93 319/706/93
f 326/707/94 322/708/94 320/709/94 324/710/94
f 327/711/95 328/712/95 330/713/95 329/714/95
f 329/715/96 330/716/96 334/717/96 333/718/96
f 333/719/97 334/720/97 332/721/97 331/722/97
f 331/723/98 332/724/98 328/725/98 327/726/98
f 329/714/99 333/727/99 331/728/99 327/711/99
f 334/720/100 330/729/100 328/730/100 332/721/100
f 335/731/101 336/732/101 338/733/101 337/734/101
f 337/735/102 338/736/102 342/737/102 341/738/102
f 341/739/103 342/740/103 340/741/103 339/742/103
f 339/743/104 340/744/104 336/745/104 335/746/104
f 337/747/105 341/748/105 339/749/105 335/750/105
f 342/751/106 338/752/106 336/753/106 340/754/106
f 343/755/107 344/756/107 346/757/107 345/758/107
f 345/759/108 346/760/108 350/761/108 349/762/108
f 349/763/109 350/764/109 348/765/109 347/766/109
f 347/767/110 348/768/110 344/769/110 343/770/110
f 345/771/111 349/772/111 347/773/111 343/774/111
f 350/775/112 346/776/112 344/777/112 348/778/112
f 351/779/113 352/780/113 354/781/113 353/782/113
f 353/783/114 354/784/114 358/785/114 357/786/114
f 357/787/115 358/788/115 356/789/115 355/790/115
f 355/791/116 356/792/116 352/793/116 351/794/116
f 353/783/117 357/786/117 355/795/117 351/796/117
f 358/797/118 354/798/118 352/799/118 356/800/118
f 359/801/119 360/802/119 362/803/119 361/804/119
f 361/805/120 362/806/120 366/807/120 365/808/120
f 365/809/121 366/810/121 364/811/121 363/812/121
f 363/813/122 364/814/122 360/815/122 359/816/122
f 361/817/123 365/818/123 363/819/123 359/820/123
f 366/821/124 362/822/124 360/823/124 364/824/124
f 367/825/125 368/826/125 370/827/125 369/828/125
f 369/829/126 370/830/126 374/831/126 373/832/126
f 373/833/127 374/834/127 372/835/127 371/836/127
f 371/837/128 372/838/128 368/839/128 367/840/128
f 369/841/129 373/842/129 371/843/129 367/844/129
f 374/845/130 370/846/130 368/847/130 372/848/130
f 375/849/131 376/850/131 378/851/131 377/852/131
f 377/853/132 378/854/132 382/855/132 381/856/132
f 381/857/133 382/858/133 380/859/133 379/860/133
f 379/861/134 380/862/134 376/863/134 375/864/134
f 377/865/135 381/866/135 379/867/135 375/868/135
f 382/869/136 378/870/136 376/871/136 380/872/136
f 383/873/137 384/874/137 386/875/137 385/876/137
f 385/877/138 386/878/138 390/879/138 389/880/138
f 389/881/139 390/882/139 388/883/139 387/884/139
f 387/885/140 388/886/140 384/887/140 383/888/140
f 385/877/141 389/880/141 387/889/141 383/890/141
f 390/891/142 386/892/142 384/887/142 388/886/142
f 391/893/143 392/894/143 394/895/143 393/896/143
f 393/897/144 394/898/144 398/899/144 397/900/144
f 397/901/145 398/902/145 396/903/145 395/904/145
f 395/905/146 396/906/146 392/907/146 391/908/146
f 393/897/147 397/900/147 395/909/147 391/910/147
f 398/911/148 394/912/148 392/913/148 396/914/148
f 399/915/149 400/916/149 402/917/149 401/918/149
f 401/919/150 402/920/150 406/921/150 405/922/150
f 405/923/151 406/924/151 404/925/151 403/926/151
f 403/927/152 404/928/152 400/929/152 399/930/152
f 401/931/153 405/932/153 403/933/153 399/934/153
f 406/935/154 402/936/154 400/937/154 404/938/154
f 407/939/155 408/940/155 410/941/155 409/942/155
f 409/943/156 410/944/156 414/945/156 413/946/156
f 413/947/157 414/948/157 412/949/157 411/950/157
f 411/951/158 412/952/158 408/953/158 407/954/158
f 409/955/159 413/956/159 411/957/159 407/958/159
f 414/959/160 410/960/160 408/961/160 412/962/160
f 415/963/161 416/964/161 418/965/161 417/966/161
f 417/967/162 418/968/162 422/969/162 421/970/162
f 421/971/163 422/972/163 420/973/163 419/974/163
f 419/975/164 420/976/164 416/977/164 415/978/164
f 417/979/165 421/980/165 419/981/165 415/982/165
f 422/983/166 418/984/166 416/985/166 420/986/166
f 423/987/167 424/988/167 426/989/167 425/990/167
f 425/991/168 426/992/168 430/993/168 429/994/168
f 429/995/169 430/996/169 428/997/169 427/998/169
f 427/999/170 428/1000/170 424/1001/170 423/1002/170
f 425/990/171 429/1003/171 427/1004/171 423/987/171
f 430/996/172 426/1005/172 424/1006/172 428/997/172
f 431/1007/173 432/1008/173 434/1009/173 433/1010/173
f 433/1011/174 434/1012/174 438/1013/174 437/1014/174
f 437/1014/175 438/1013/175 436/1015/175 435/1016/175
f 435/1017/176 436/1018/176 432/1008/176 431/1007/176
f 433/1019/177 437/1020/177 435/1021/177 431/1022/177
f 438/1023/178 434/1024/178 432/1025/178 436/1026/178
f 439/1027/179 440/1028/179 442/1029/179 441/1030/179
f 441/1031/180 442/1032/180 446/1033/180 445/1034/180
f 445/1035/181 446/1036/181 444/1037/181 443/1038/181
f 443/1039/182 444/1040/182 440/1041/182 439/1042/182
f 441/1043/183 445/1044/183 443/1045/183 439/1046/183
f 446/1047/184 442/1048/184 440/1049/184 444/1050/184
f 447/1051/185 448/1052/185 450/1053/185 449/1054/185
f 449/1055/186 450/1056/186 454/1057/186 453/1058/186
f 453/1059/187 454/1060/187 452/1061/187 451/1062/187
f 451/1063/188 452/1064/188 448/1065/188 447/1066/188
f 449/1067/189 453/1068/189 451/1069/189 447/1070/189
f 454/1071/190 450/1072/190 448/1073/190 452/1074/190
f 455/1075/191 456/1076/191 458/1077/191 457/1078/191
f 457/1079/192 458/1080/192 462/1081/192 461/1082/192
f 461/1083/193 462/1084/193 460/1085/193 459/1086/193
f 459/1087/194 460/1088/194 456/1089/194 455/1090/194
f 457/1091/195 461/1092/195 459/1093/195 455/1094/195
f 462/1095/196 458/1096/196 456/1097/196 460/1098/196
f 463/1099/197 464/1100/197 466/1101/197 465/1102/197
f 465/1103/198 466/1104/198 470/1105/198 469/1106/198
f 469/1107/199 470/1108/199 468/1109/199 467/1110/199
f 467/1111/200 468/1112/200 464/1113/200 463/1114/200
f 465/1115/201 469/1116/201 467/1117/201 463/1118/201
f 470/1119/202 466/1120/202 464/1121/202 468/1122/202
