# The Giants of Holst prop, from CC0 kits by KayKit (Kay Lousberg) and Kenney
v 0.1483 0.0785 0.2586
vt 0.7176 0.5943
vn 0.3078 -0.2612 0.9149
v 0.1483 0.1901 0.2586
vt 0.7176 0.6733
vn 0.3285 0.3881 0.8611
v -0.1493 0.1901 0.2580
vt 0.6738 0.6733
vn -0.3319 0.3881 0.8598
v -0.1493 0.0785 0.2580
vt 0.6738 0.5943
vn -0.3113 -0.2612 0.9137
f 1/1/1 2/2/2 3/3/3 4/4/4
v 0.1857 0.0415 0.1191
vt 0.7231 0.5888
vn 1.0000 0.0000 0.0020
v 0.1857 0.1530 0.1191
vt 0.7231 0.6678
vn 1.0000 0.0000 0.0019
v 0.1855 0.1806 0.2262
vt 0.7231 0.6719
vn 1.0000 0.0000 0.0019
v 0.1855 0.0691 0.2262
vt 0.7231 0.5929
vn 1.0000 0.0000 0.0019
f 5/5/5 6/6/6 7/7/7 8/8/8
v 0.1485 0.1902 0.1190
vt 0.7177 0.7045
vn 0.3849 0.9074 -0.1686
v -0.1490 0.1902 0.1184
vt 0.6738 0.7045
vn -0.3843 0.9074 -0.1701
v -0.1492 0.2178 0.2255
vt 0.6738 0.7086
vn -0.3447 0.9174 0.1987
v 0.1483 0.2178 0.2261
vt 0.7176 0.7086
vn 0.3439 0.9174 0.2000
f 9/9/9 10/10/10 11/11/11 12/12/12
v -0.1857 0.0415 -0.1234
vt 0.6684 0.5888
vn -1.0000 0.0000 -0.0020
v -0.1857 0.1530 -0.1234
vt 0.6684 0.6678
vn -1.0000 0.0000 -0.0020
v -0.1854 0.1806 -0.2580
vt 0.6684 0.6719
vn -0.8943 0.3614 -0.2638
v -0.1854 0.0691 -0.2580
vt 0.6684 0.5929
vn -0.8712 -0.3249 -0.3679
f 13/13/13 14/14/14 15/15/15 16/16/16
v -0.1482 0.0785 -0.2999
vt 0.6739 0.5943
vn -0.3555 -0.3077 -0.8826
v -0.1482 0.1901 -0.2999
vt 0.6739 0.6733
vn 0.0020 0.0000 -1.0000
v 0.1493 0.1901 -0.2993
vt 0.7178 0.6733
vn 0.0020 0.0000 -1.0000
v 0.1493 0.0785 -0.2993
vt 0.7178 0.5943
vn 0.3589 -0.3077 -0.8812
f 17/17/17 18/18/18 19/19/19 20/20/20
v -0.1492 0.0319 0.2255
vt 0.6738 0.5562
vn -0.3268 -0.7924 0.5150
v -0.1493 0.0785 0.2580
vt 0.6738 0.5631
vn -0.3113 -0.2612 0.9137
v -0.1864 0.0691 0.2254
vt 0.6683 0.5617
vn -0.6841 -0.4305 0.5888
f 21/21/21 22/22/22 23/23/23
v -0.1493 0.1901 0.2580
vt 0.6738 0.7045
vn -0.3319 0.3881 0.8598
v -0.1492 0.2178 0.2255
vt 0.6738 0.7086
vn -0.3447 0.9174 0.1987
v -0.1864 0.1806 0.2254
vt 0.6683 0.7031
vn -0.7882 0.4722 0.3947
f 24/24/24 25/25/25 26/26/26
v -0.1483 0.0319 -0.2580
vt 0.6739 0.5562
vn -0.3348 -0.8283 -0.4493
v -0.1854 0.0691 -0.2580
vt 0.6684 0.5617
vn -0.8712 -0.3249 -0.3679
v -0.1482 0.0785 -0.2999
vt 0.6739 0.5631
vn -0.3555 -0.3077 -0.8826
f 27/27/27 28/28/28 29/29/29
v -0.1483 0.2178 -0.2580
vt 0.6739 0.7086
vn -0.3501 0.9212 -0.1696
v -0.1482 0.1901 -0.2999
vt 0.6739 0.7045
vn -0.4960 0.5732 -0.6523
v -0.1854 0.1806 -0.2580
vt 0.6684 0.7031
vn -0.8943 0.3614 -0.2638
f 30/30/30 31/31/31 32/32/32
v 0.1483 0.0319 0.2261
vt 0.7176 0.5562
vn 0.3247 -0.7924 0.5163
v 0.1855 0.0691 0.2262
vt 0.7231 0.5617
vn 0.6818 -0.4305 0.5915
v 0.1483 0.0785 0.2586
vt 0.7176 0.5631
vn 0.3078 -0.2612 0.9149
f 33/33/33 34/34/34 35/35/35
v 0.1483 0.2178 0.2261
vt 0.7176 0.7086
vn 0.3439 0.9174 0.2000
v 0.1483 0.1901 0.2586
vt 0.7176 0.7045
vn 0.3285 0.3881 0.8611
v 0.1855 0.1806 0.2262
vt 0.7231 0.7031
vn 0.7866 0.4722 0.3978
f 36/36/36 37/37/37 38/38/38
v 0.1493 0.0319 -0.2574
vt 0.7178 0.5562
vn 0.3365 -0.8283 -0.4480
v 0.1493 0.0785 -0.2993
vt 0.7178 0.5631
vn 0.3589 -0.3077 -0.8812
v 0.1864 0.0691 -0.2573
vt 0.7233 0.5617
vn 0.8727 -0.3249 -0.3645
f 39/39/39 40/40/40 41/41/41
v 0.1493 0.2178 -0.2574
vt 0.7178 0.7086
vn 0.3508 0.9212 -0.1682
v 0.1864 0.1806 -0.2573
vt 0.7233 0.7031
vn 0.8953 0.3614 -0.2603
v 0.1493 0.1901 -0.2993
vt 0.7178 0.7045
vn 0.4986 0.5732 -0.6503
f 42/42/42 43/43/43 44/44/44
v -0.1490 0.0043 0.1184
vt 0.6738 0.5521
vn -0.3736 -0.9128 0.1651
v -0.1492 0.0319 0.2255
vt 0.6738 0.5562
vn -0.3268 -0.7924 0.5150
v -0.1864 0.0691 0.2254
vt 0.6683 0.5617
vn -0.6841 -0.4305 0.5888
v -0.1862 0.0415 0.1184
vt 0.6683 0.5576
vn -0.7011 -0.7008 0.1319
f 45/45/45 46/46/46 47/47/47 48/48/48
v -0.1493 0.0785 0.2580
vt 0.6738 0.5943
vn -0.3113 -0.2612 0.9137
v -0.1493 0.1901 0.2580
vt 0.6738 0.6733
vn -0.3319 0.3881 0.8598
v -0.1864 0.1806 0.2254
vt 0.6683 0.6719
vn -0.7882 0.4722 0.3947
v -0.1864 0.0691 0.2254
vt 0.6683 0.5929
vn -0.6841 -0.4305 0.5888
f 49/49/49 50/50/50 51/51/51 52/52/52
v -0.1485 0.1902 -0.1233
vt 0.6739 0.7045
vn -0.3845 0.9125 0.1398
v -0.1483 0.2178 -0.2580
vt 0.6739 0.7086
vn -0.3501 0.9212 -0.1696
v -0.1854 0.1806 -0.2580
vt 0.6684 0.7031
vn -0.8943 0.3614 -0.2638
v -0.1857 0.1530 -0.1234
vt 0.6684 0.6990
vn -0.7034 0.7032 0.1035
f 53/53/53 54/54/54 55/55/55 56/56/56
v -0.1482 0.1901 -0.2999
vt 0.6739 0.6733
vn -0.4960 0.5732 -0.6523
v -0.1482 0.0785 -0.2999
vt 0.6739 0.5943
vn -0.3555 -0.3077 -0.8826
v -0.1854 0.0691 -0.2580
vt 0.6684 0.5929
vn -0.8712 -0.3249 -0.3679
v -0.1854 0.1806 -0.2580
vt 0.6684 0.6719
vn -0.8943 0.3614 -0.2638
f 57/57/57 58/58/58 59/59/59 60/60/60
v 0.1493 0.0319 -0.2574
vt 0.7178 0.5562
vn 0.3365 -0.8283 -0.4480
v -0.1483 0.0319 -0.2580
vt 0.6739 0.5562
vn -0.3348 -0.8283 -0.4493
v -0.1482 0.0785 -0.2999
vt 0.6739 0.5631
vn -0.3555 -0.3077 -0.8826
v 0.1493 0.0785 -0.2993
vt 0.7178 0.5631
vn 0.3589 -0.3077 -0.8812
f 61/61/61 62/62/62 63/63/63 64/64/64
v -0.1483 0.2178 -0.2580
vt 0.6739 0.7086
vn -0.3501 0.9212 -0.1696
v 0.1493 0.2178 -0.2574
vt 0.7178 0.7086
vn 0.3508 0.9212 -0.1682
v 0.1493 0.1901 -0.2993
vt 0.7178 0.7045
vn 0.4986 0.5732 -0.6503
v -0.1482 0.1901 -0.2999
vt 0.6739 0.7045
vn -0.4960 0.5732 -0.6523
f 65/65/65 66/66/66 67/67/67 68/68/68
v 0.1864 0.1806 -0.2573
vt 0.7233 0.6719
vn 0.8953 0.3614 -0.2603
v 0.1864 0.0691 -0.2573
vt 0.7233 0.5929
vn 0.8727 -0.3249 -0.3645
v 0.1493 0.0785 -0.2993
vt 0.7178 0.5943
vn 0.3589 -0.3077 -0.8812
v 0.1493 0.1901 -0.2993
vt 0.7178 0.6733
vn 0.4986 0.5732 -0.6503
f 69/69/69 70/70/70 71/71/71 72/72/72
v 0.1490 0.0043 -0.1227
vt 0.7177 0.5521
vn 0.3762 -0.9163 -0.1377
v 0.1493 0.0319 -0.2574
vt 0.7178 0.5562
vn 0.3365 -0.8283 -0.4480
v 0.1864 0.0691 -0.2573
vt 0.7233 0.5617
vn 0.8727 -0.3249 -0.3645
v 0.1862 0.0415 -0.1226
vt 0.7232 0.5576
vn 0.7030 -0.7028 -0.1084
f 73/73/73 74/74/74 75/75/75 76/76/76
v 0.1485 0.1902 0.1190
vt 0.7177 0.7045
vn 0.3849 0.9074 -0.1686
v 0.1483 0.2178 0.2261
vt 0.7176 0.7086
vn 0.3439 0.9174 0.2000
v 0.1855 0.1806 0.2262
vt 0.7231 0.7031
vn 0.7866 0.4722 0.3978
v 0.1857 0.1530 0.1191
vt 0.7231 0.6990
vn 0.7018 0.7015 -0.1238
f 77/77/77 78/78/78 79/79/79 80/80/80
v 0.1483 0.1901 0.2586
vt 0.7176 0.6733
vn 0.3285 0.3881 0.8611
v 0.1483 0.0785 0.2586
vt 0.7176 0.5943
vn 0.3078 -0.2612 0.9149
v 0.1855 0.0691 0.2262
vt 0.7231 0.5929
vn 0.6818 -0.4305 0.5915
v 0.1855 0.1806 0.2262
vt 0.7231 0.6719
vn 0.7866 0.4722 0.3978
f 81/81/81 82/82/82 83/83/83 84/84/84
v -0.1492 0.0319 0.2255
vt 0.6738 0.5562
vn -0.3268 -0.7924 0.5150
v 0.1483 0.0319 0.2261
vt 0.7176 0.5562
vn 0.3247 -0.7924 0.5163
v 0.1483 0.0785 0.2586
vt 0.7176 0.5631
vn 0.3078 -0.2612 0.9149
v -0.1493 0.0785 0.2580
vt 0.6738 0.5631
vn -0.3113 -0.2612 0.9137
f 85/85/85 86/86/86 87/87/87 88/88/88
v 0.1483 0.2178 0.2261
vt 0.7176 0.7086
vn 0.3439 0.9174 0.2000
v -0.1492 0.2178 0.2255
vt 0.6738 0.7086
vn -0.3447 0.9174 0.1987
v -0.1493 0.1901 0.2580
vt 0.6738 0.7045
vn -0.3319 0.3881 0.8598
v 0.1483 0.1901 0.2586
vt 0.7176 0.7045
vn 0.3285 0.3881 0.8611
f 89/89/89 90/90/90 91/91/91 92/92/92
v -0.1490 0.0043 0.1184
vt 0.6738 0.5521
vn -0.3736 -0.9128 0.1651
v 0.1485 0.0043 0.1190
vt 0.7177 0.5521
vn 0.3729 -0.9128 0.1666
v 0.1483 0.0319 0.2261
vt 0.7176 0.5562
vn 0.3247 -0.7924 0.5163
v -0.1492 0.0319 0.2255
vt 0.6738 0.5562
vn -0.3268 -0.7924 0.5150
f 93/93/93 94/94/94 95/95/95 96/96/96
v -0.1483 0.0319 -0.2580
vt 0.6739 0.5562
vn -0.3348 -0.8283 -0.4493
v 0.1493 0.0319 -0.2574
vt 0.7178 0.5562
vn 0.3365 -0.8283 -0.4480
v 0.1490 0.0043 -0.1227
vt 0.7177 0.5521
vn 0.3762 -0.9163 -0.1377
v -0.1485 0.0043 -0.1233
vt 0.6739 0.5521
vn -0.3756 -0.9163 -0.1392
f 97/97/97 98/98/98 99/99/99 100/100/100
v -0.1485 0.0043 -0.1233
vt 0.6739 0.5521
vn -0.3756 -0.9163 -0.1392
v 0.1490 0.0043 -0.1227
vt 0.7177 0.5521
vn 0.3762 -0.9163 -0.1377
v 0.1488 -0.0086 0.0046
vt 0.7177 0.5346
vn 0.3738 -0.9275 0.0058
v -0.1488 -0.0086 0.0040
vt 0.6738 0.5346
vn -0.3738 -0.9275 0.0044
f 101/101/101 102/102/102 103/103/103 104/104/104
v -0.1488 -0.0086 0.0040
vt 0.6738 0.5346
vn -0.3738 -0.9275 0.0044
v 0.1488 -0.0086 0.0046
vt 0.7177 0.5346
vn 0.3738 -0.9275 0.0058
v 0.1485 0.0043 0.1190
vt 0.7177 0.5521
vn 0.3729 -0.9128 0.1666
v -0.1490 0.0043 0.1184
vt 0.6738 0.5521
vn -0.3736 -0.9128 0.1651
f 105/105/105 106/106/106 107/107/107 108/108/108
v 0.1493 0.2178 -0.2574
vt 0.7178 0.7086
vn 0.3508 0.9212 -0.1682
v 0.1490 0.1902 -0.1227
vt 0.7177 0.7045
vn 0.3840 0.9125 0.1413
v 0.1862 0.1530 -0.1226
vt 0.7232 0.6990
vn 0.7030 0.7032 0.1062
v 0.1864 0.1806 -0.2573
vt 0.7233 0.7031
vn 0.8953 0.3614 -0.2603
f 109/109/109 110/110/110 111/111/111 112/112/112
v 0.1490 0.1902 -0.1227
vt 0.7177 0.7045
vn 0.3840 0.9125 0.1413
v 0.1488 0.1774 0.0046
vt 0.7177 0.6714
vn 0.3921 0.9199 -0.0045
v 0.1859 0.1402 0.0047
vt 0.7232 0.6659
vn 0.7071 0.7071 -0.0024
v 0.1862 0.1530 -0.1226
vt 0.7232 0.6990
vn 0.7030 0.7032 0.1062
f 113/113/113 114/114/114 115/115/115 116/116/116
v 0.1488 0.1774 0.0046
vt 0.7177 0.7026
vn 0.3921 0.9199 -0.0045
v 0.1485 0.1902 0.1190
vt 0.7177 0.7045
vn 0.3849 0.9074 -0.1686
v 0.1857 0.1530 0.1191
vt 0.7231 0.6990
vn 0.7018 0.7015 -0.1238
v 0.1859 0.1402 0.0047
vt 0.7232 0.6659
vn 0.7071 0.7071 -0.0024
f 117/117/117 118/118/118 119/119/119 120/120/120
v 0.1483 0.0319 0.2261
vt 0.7176 0.5562
vn 0.3247 -0.7924 0.5163
v 0.1485 0.0043 0.1190
vt 0.7177 0.5521
vn 0.3729 -0.9128 0.1666
v 0.1857 0.0415 0.1191
vt 0.7231 0.5576
vn 0.7005 -0.7008 0.1347
v 0.1855 0.0691 0.2262
vt 0.7231 0.5617
vn 0.6818 -0.4305 0.5915
f 121/121/121 122/122/122 123/123/123 124/124/124
v 0.1485 0.0043 0.1190
vt 0.7177 0.5521
vn 0.3729 -0.9128 0.1666
v 0.1488 -0.0086 0.0046
vt 0.7177 0.5346
vn 0.3738 -0.9275 0.0058
v 0.1859 0.0286 0.0047
vt 0.7232 0.5557
vn 0.7071 -0.7071 0.0056
v 0.1857 0.0415 0.1191
vt 0.7231 0.5576
vn 0.7005 -0.7008 0.1347
f 125/125/125 126/126/126 127/127/127 128/128/128
v 0.1488 -0.0086 0.0046
vt 0.7177 0.5346
vn 0.3738 -0.9275 0.0058
v 0.1490 0.0043 -0.1227
vt 0.7177 0.5521
vn 0.3762 -0.9163 -0.1377
v 0.1862 0.0415 -0.1226
vt 0.7232 0.5576
vn 0.7030 -0.7028 -0.1084
v 0.1859 0.0286 0.0047
vt 0.7232 0.5557
vn 0.7071 -0.7071 0.0056
f 129/129/129 130/130/130 131/131/131 132/132/132
v -0.1492 0.2178 0.2255
vt 0.6738 0.7086
vn -0.3447 0.9174 0.1987
v -0.1490 0.1902 0.1184
vt 0.6738 0.7045
vn -0.3843 0.9074 -0.1701
v -0.1862 0.1530 0.1184
vt 0.6683 0.6990
vn -0.7013 0.7015 -0.1265
v -0.1864 0.1806 0.2254
vt 0.6683 0.7031
vn -0.7882 0.4722 0.3947
f 133/133/133 134/134/134 135/135/135 136/136/136
v -0.1490 0.1902 0.1184
vt 0.6738 0.7045
vn -0.3843 0.9074 -0.1701
v -0.1488 0.1774 0.0040
vt 0.6738 0.7026
vn -0.3921 0.9199 -0.0060
v -0.1860 0.1402 0.0039
vt 0.6683 0.6659
vn -0.7071 0.7071 -0.0052
v -0.1862 0.1530 0.1184
vt 0.6683 0.6990
vn -0.7013 0.7015 -0.1265
f 137/137/137 138/138/138 139/139/139 140/140/140
v -0.1488 0.1774 0.0040
vt 0.6738 0.6714
vn -0.3921 0.9199 -0.0060
v -0.1485 0.1902 -0.1233
vt 0.6739 0.7045
vn -0.3845 0.9125 0.1398
v -0.1857 0.1530 -0.1234
vt 0.6684 0.6990
vn -0.7034 0.7032 0.1035
v -0.1860 0.1402 0.0039
vt 0.6683 0.6659
vn -0.7071 0.7071 -0.0052
f 141/141/141 142/142/142 143/143/143 144/144/144
v -0.1483 0.0319 -0.2580
vt 0.6739 0.5562
vn -0.3348 -0.8283 -0.4493
v -0.1485 0.0043 -0.1233
vt 0.6739 0.5521
vn -0.3756 -0.9163 -0.1392
v -0.1857 0.0415 -0.1234
vt 0.6684 0.5576
vn -0.7026 -0.7028 -0.1111
v -0.1854 0.0691 -0.2580
vt 0.6684 0.5617
vn -0.8712 -0.3249 -0.3679
f 145/145/145 146/146/146 147/147/147 148/148/148
v -0.1485 0.0043 -0.1233
vt 0.6739 0.5521
vn -0.3756 -0.9163 -0.1392
v -0.1488 -0.0086 0.0040
vt 0.6738 0.5346
vn -0.3738 -0.9275 0.0044
v -0.1860 0.0286 0.0039
vt 0.6683 0.5557
vn -0.7071 -0.7071 0.0028
v -0.1857 0.0415 -0.1234
vt 0.6684 0.5576
vn -0.7026 -0.7028 -0.1111
f 149/149/149 150/150/150 151/151/151 152/152/152
v -0.1488 -0.0086 0.0040
vt 0.6738 0.5346
vn -0.3738 -0.9275 0.0044
v -0.1490 0.0043 0.1184
vt 0.6738 0.5521
vn -0.3736 -0.9128 0.1651
v -0.1862 0.0415 0.1184
vt 0.6683 0.5576
vn -0.7011 -0.7008 0.1319
v -0.1860 0.0286 0.0039
vt 0.6683 0.5557
vn -0.7071 -0.7071 0.0028
f 153/153/153 154/154/154 155/155/155 156/156/156
v -0.1864 0.0691 0.2254
vt 0.6683 0.5929
vn -1.0000 0.0000 -0.0019
v -0.1864 0.1806 0.2254
vt 0.6683 0.6719
vn -1.0000 0.0000 -0.0019
v -0.1862 0.1530 0.1184
vt 0.6683 0.6678
vn -1.0000 0.0000 -0.0020
v -0.1862 0.0415 0.1184
vt 0.6683 0.5888
vn -1.0000 0.0000 -0.0020
f 157/157/157 158/158/158 159/159/159 160/160/160
v -0.1862 0.0415 0.1184
vt 0.6683 0.5888
vn -1.0000 0.0000 -0.0020
v -0.1862 0.1530 0.1184
vt 0.6683 0.6678
vn -1.0000 0.0000 -0.0020
v -0.1860 0.1402 0.0039
vt 0.6683 0.6659
vn -1.0000 0.0000 -0.0020
v -0.1860 0.0286 0.0039
vt 0.6683 0.5557
vn -1.0000 0.0000 -0.0020
f 161/161/161 162/162/162 163/163/163 164/164/164
v -0.1860 0.0286 0.0039
vt 0.6683 0.5557
vn -1.0000 0.0000 -0.0020
v -0.1860 0.1402 0.0039
vt 0.6683 0.6659
vn -1.0000 0.0000 -0.0020
v -0.1857 0.1530 -0.1234
vt 0.6684 0.6678
vn -1.0000 0.0000 -0.0020
v -0.1857 0.0415 -0.1234
vt 0.6684 0.5888
vn -1.0000 0.0000 -0.0020
f 165/165/165 166/166/166 167/167/167 168/168/168
v 0.1493 0.2178 -0.2574
vt 0.7178 0.7086
vn 0.3508 0.9212 -0.1682
v -0.1483 0.2178 -0.2580
vt 0.6739 0.7086
vn -0.3501 0.9212 -0.1696
v -0.1485 0.1902 -0.1233
vt 0.6739 0.7045
vn -0.3845 0.9125 0.1398
v 0.1490 0.1902 -0.1227
vt 0.7177 0.7045
vn 0.3840 0.9125 0.1413
f 169/169/169 170/170/170 171/171/171 172/172/172
v 0.1490 0.1902 -0.1227
vt 0.7177 0.7045
vn 0.3840 0.9125 0.1413
v -0.1485 0.1902 -0.1233
vt 0.6739 0.7045
vn -0.3845 0.9125 0.1398
v -0.1488 0.1774 0.0040
vt 0.6738 0.6714
vn -0.3921 0.9199 -0.0060
v 0.1488 0.1774 0.0046
vt 0.7177 0.6714
vn 0.3921 0.9199 -0.0045
f 173/173/173 174/174/174 175/175/175 176/176/176
v 0.1488 0.1774 0.0046
vt 0.7177 0.7026
vn 0.3921 0.9199 -0.0045
v -0.1488 0.1774 0.0040
vt 0.6738 0.7026
vn -0.3921 0.9199 -0.0060
v -0.1490 0.1902 0.1184
vt 0.6738 0.7045
vn -0.3843 0.9074 -0.1701
v 0.1485 0.1902 0.1190
vt 0.7177 0.7045
vn 0.3849 0.9074 -0.1686
f 177/177/177 178/178/178 179/179/179 180/180/180
v 0.1864 0.0691 -0.2573
vt 0.7233 0.5929
vn 0.8727 -0.3249 -0.3645
v 0.1864 0.1806 -0.2573
vt 0.7233 0.6719
vn 0.8953 0.3614 -0.2603
v 0.1862 0.1530 -0.1226
vt 0.7232 0.6678
vn 1.0000 0.0000 0.0020
v 0.1862 0.0415 -0.1226
vt 0.7232 0.5888
vn 1.0000 0.0000 0.0019
f 181/181/181 182/182/182 183/183/183 184/184/184
v 0.1862 0.0415 -0.1226
vt 0.7232 0.5888
vn 1.0000 0.0000 0.0019
v 0.1862 0.1530 -0.1226
vt 0.7232 0.6678
vn 1.0000 0.0000 0.0020
v 0.1859 0.1402 0.0047
vt 0.7232 0.6659
vn 1.0000 0.0000 0.0020
v 0.1859 0.0286 0.0047
vt 0.7232 0.5557
vn 1.0000 0.0000 0.0020
f 185/185/185 186/186/186 187/187/187 188/188/188
v 0.1859 0.0286 0.0047
vt 0.7232 0.5557
vn 1.0000 0.0000 0.0020
v 0.1859 0.1402 0.0047
vt 0.7232 0.6659
vn 1.0000 0.0000 0.0020
v 0.1857 0.1530 0.1191
vt 0.7231 0.6678
vn 1.0000 0.0000 0.0019
v 0.1857 0.0415 0.1191
vt 0.7231 0.5888
vn 1.0000 0.0000 0.0020
f 189/189/189 190/190/190 191/191/191 192/192/192
