# The Giants of Holst prop, from CC0 kits by KayKit (Kay Lousberg) and Kenney
v 0.4500 0.4612 0.3375
vt 0.5993 0.8276
vn 0.0000 0.0000 1.0000
v 0.4500 0.5288 0.3375
vt 0.5993 0.8314
vn 0.0000 0.0000 1.0000
v 0.2952 0.5288 0.3375
vt 0.5768 0.8314
vn 0.0000 0.0000 1.0000
v 0.2952 0.4612 0.3375
vt 0.5768 0.8276
vn 0.0000 0.0000 1.0000
f 1/1/1 2/2/2 3/3/3 4/4/4
v -0.4500 0.4500 0.1125
vt 0.5146 0.7957
vn 0.0000 -1.0000 0.0000
v 0.4500 0.4500 0.1125
vt 0.5993 0.7957
vn 0.0000 -1.0000 0.0000
v 0.1797 0.4500 0.3069
vt 0.5659 0.7957
vn 0.0000 -1.0000 0.0000
f 5/5/5 6/6/6 7/7/7
v -0.4500 0.4500 0.1125
vt 0.5146 0.8270
vn 0.0000 0.0000 -1.0000
v -0.4500 0.5400 0.1125
vt 0.5146 0.8320
vn 0.0000 0.0000 -1.0000
v 0.4500 0.5400 0.1125
vt 0.5993 0.8320
vn 0.0000 0.0000 -1.0000
v 0.4500 0.4500 0.1125
vt 0.5993 0.8270
vn 0.0000 0.0000 -1.0000
f 8/8/8 9/9/9 10/10/10 11/11/11
v -0.4500 0.4500 0.3262
vt 0.5146 0.8270
vn -1.0000 0.0000 0.0000
v -0.4500 0.4612 0.3375
vt 0.5146 0.8276
vn -1.0000 0.0000 0.0000
v -0.4500 0.5288 0.3375
vt 0.5146 0.8314
vn -1.0000 0.0000 0.0000
v -0.4500 0.5400 0.3262
vt 0.5146 0.8320
vn -1.0000 0.0000 0.0000
f 12/12/12 13/13/13 14/14/14 15/15/15
v 0.4500 0.4500 0.3262
vt 0.5993 0.8270
vn 1.0000 0.0000 0.0000
v 0.4500 0.5400 0.3262
vt 0.5993 0.8320
vn 1.0000 0.0000 0.0000
v 0.4500 0.5288 0.3375
vt 0.5993 0.8314
vn 1.0000 0.0000 0.0000
v 0.4500 0.4612 0.3375
vt 0.5993 0.8276
vn 1.0000 0.0000 0.0000
f 16/16/16 17/17/17 18/18/18 19/19/19
v -0.4500 0.4500 0.3262
vt 0.5146 0.7957
vn 0.0000 -0.7071 0.7071
v 0.1253 0.4500 0.3262
vt 0.5608 0.7957
vn 0.0000 -0.7071 0.7071
v 0.1253 0.4612 0.3375
vt 0.5608 0.7964
vn 0.0000 -0.7071 0.7071
v -0.4500 0.4612 0.3375
vt 0.5146 0.7964
vn 0.0000 -0.7071 0.7071
f 20/20/20 21/21/21 22/22/22 23/23/23
v -0.4500 0.4500 0.1125
vt 0.5146 0.8270
vn -1.0000 0.0000 0.0000
v -0.4500 0.4500 0.3262
vt 0.5146 0.8270
vn -1.0000 0.0000 0.0000
v -0.4500 0.5400 0.3262
vt 0.5146 0.8320
vn -1.0000 0.0000 0.0000
v -0.4500 0.5400 0.1125
vt 0.5146 0.8320
vn -1.0000 0.0000 0.0000
f 24/24/24 25/25/25 26/26/26 27/27/27
v 0.4500 0.4500 0.1125
vt 0.5993 0.8270
vn 1.0000 0.0000 0.0000
v 0.4500 0.5400 0.1125
vt 0.5993 0.8320
vn 1.0000 0.0000 0.0000
v 0.4500 0.5400 0.3262
vt 0.5993 0.8320
vn 1.0000 0.0000 0.0000
v 0.4500 0.4500 0.3262
vt 0.5993 0.8270
vn 1.0000 0.0000 0.0000
f 28/28/28 29/29/29 30/30/30 31/31/31
v 0.1253 0.4612 0.3375
vt 0.5608 0.8276
vn 0.0000 0.0000 1.0000
v 0.1253 0.5288 0.3375
vt 0.5608 0.8314
vn 0.0000 0.0000 1.0000
v -0.4500 0.5288 0.3375
vt 0.5146 0.8314
vn 0.0000 0.0000 1.0000
v -0.4500 0.4612 0.3375
vt 0.5146 0.8276
vn 0.0000 0.0000 1.0000
f 32/32/32 33/33/33 34/34/34 35/35/35
v -0.4500 0.5400 0.1125
vt 0.5146 0.8633
vn 0.0000 1.0000 -0.0000
v -0.4500 0.5400 0.3262
vt 0.5146 0.8633
vn 0.0000 1.0000 -0.0000
v 0.1253 0.5400 0.3262
vt 0.5608 0.8633
vn 0.0000 1.0000 -0.0000
v 0.1797 0.5400 0.3069
vt 0.5659 0.8633
vn 0.0000 1.0000 -0.0000
f 36/36/36 37/37/37 38/38/38 39/39/39
v 0.2952 0.4500 0.3262
vt 0.5768 0.7957
vn 0.0000 -0.7071 0.7071
v 0.4500 0.4500 0.3262
vt 0.5993 0.7957
vn 0.0000 -0.7071 0.7071
v 0.4500 0.4612 0.3375
vt 0.5993 0.7964
vn 0.0000 -0.7071 0.7071
v 0.2952 0.4612 0.3375
vt 0.5768 0.7964
vn 0.0000 -0.7071 0.7071
f 40/40/40 41/41/41 42/42/42 43/43/43
v 0.4500 0.5400 0.3262
vt 0.5993 0.8633
vn 0.0000 0.7071 0.7071
v 0.2952 0.5400 0.3262
vt 0.5768 0.8633
vn 0.0000 0.7071 0.7071
v 0.2952 0.5288 0.3375
vt 0.5768 0.8627
vn 0.0000 0.7071 0.7071
v 0.4500 0.5288 0.3375
vt 0.5993 0.8627
vn 0.0000 0.7071 0.7071
f 44/44/44 45/45/45 46/46/46 47/47/47
v 0.1253 0.5400 0.3262
vt 0.5608 0.8633
vn 0.0000 0.7071 0.7071
v -0.4500 0.5400 0.3262
vt 0.5146 0.8633
vn 0.0000 0.7071 0.7071
v -0.4500 0.5288 0.3375
vt 0.5146 0.8627
vn 0.0000 0.7071 0.7071
v 0.1253 0.5288 0.3375
vt 0.5608 0.8627
vn 0.0000 0.7071 0.7071
f 48/48/48 49/49/49 50/50/50 51/51/51
v 0.4500 0.5400 0.1125
vt 0.5993 0.8633
vn 0.0000 1.0000 -0.0000
v -0.4500 0.5400 0.1125
vt 0.5146 0.8633
vn 0.0000 1.0000 -0.0000
v 0.1797 0.5400 0.3069
vt 0.5659 0.8633
vn 0.0000 1.0000 -0.0000
f 52/52/52 53/53/53 54/54/54
v -0.4500 0.4500 0.3262
vt 0.5146 0.7957
vn 0.0000 -1.0000 0.0000
v -0.4500 0.4500 0.1125
vt 0.5146 0.7957
vn 0.0000 -1.0000 0.0000
v 0.1797 0.4500 0.3069
vt 0.5659 0.7957
vn 0.0000 -1.0000 0.0000
v 0.1253 0.4500 0.3262
vt 0.5608 0.7957
vn 0.0000 -1.0000 0.0000
f 55/55/55 56/56/56 57/57/57 58/58/58
v 0.4500 0.5400 0.3262
vt 0.5993 0.8633
vn 0.0000 1.0000 -0.0000
v 0.4500 0.5400 0.1125
vt 0.5993 0.8633
vn 0.0000 1.0000 -0.0000
v 0.1797 0.5400 0.3069
vt 0.5659 0.8633
vn 0.0000 1.0000 -0.0000
v 0.2952 0.5400 0.3262
vt 0.5768 0.8633
vn 0.0000 1.0000 -0.0000
f 59/59/59 60/60/60 61/61/61 62/62/62
v 0.1253 0.5400 0.3262
vt 0.5608 0.8477
vn 0.2452 0.6840 0.6870
v 0.1253 0.5288 0.3375
vt 0.5608 0.8470
vn 0.2452 0.6840 0.6870
v 0.1797 0.5288 0.3180
vt 0.5659 0.8470
vn 0.2452 0.6840 0.6870
v 0.1797 0.5400 0.3069
vt 0.5659 0.8477
vn 0.2452 0.6840 0.6870
f 63/63/63 64/64/64 65/65/65 66/66/66
v 0.1797 0.5400 0.3069
vt 0.5659 0.8789
vn -0.1183 0.7006 0.7037
v 0.1797 0.5288 0.3180
vt 0.5659 0.8783
vn -0.1183 0.7006 0.7037
v 0.2952 0.5288 0.3375
vt 0.5768 0.8783
vn -0.1183 0.7006 0.7037
v 0.2952 0.5400 0.3262
vt 0.5768 0.8789
vn -0.1183 0.7006 0.7037
f 67/67/67 68/68/68 69/69/69 70/70/70
v 0.2952 0.4500 0.3262
vt 0.5768 0.8114
vn -0.1182 -0.7006 0.7037
v 0.2952 0.4612 0.3375
vt 0.5768 0.8120
vn -0.1182 -0.7006 0.7037
v 0.1797 0.4612 0.3180
vt 0.5659 0.8120
vn -0.1182 -0.7006 0.7037
v 0.1797 0.4500 0.3069
vt 0.5659 0.8114
vn -0.1182 -0.7006 0.7037
f 71/71/71 72/72/72 73/73/73 74/74/74
v 0.1797 0.4500 0.3069
vt 0.5659 0.7801
vn 0.2452 -0.6840 0.6870
v 0.1797 0.4612 0.3180
vt 0.5659 0.7807
vn 0.2452 -0.6840 0.6870
v 0.1253 0.4612 0.3375
vt 0.5608 0.7807
vn 0.2452 -0.6840 0.6870
v 0.1253 0.4500 0.3262
vt 0.5608 0.7801
vn 0.2452 -0.6840 0.6870
f 75/75/75 76/76/76 77/77/77 78/78/78
v 0.1253 0.5288 0.3375
vt 0.5608 0.8158
vn 0.3369 0.0000 0.9416
v 0.1253 0.4612 0.3375
vt 0.5608 0.8120
vn 0.3369 0.0000 0.9416
v 0.1797 0.4612 0.3180
vt 0.5659 0.8120
vn 0.3369 0.0000 0.9416
v 0.1797 0.5288 0.3180
vt 0.5659 0.8158
vn 0.3369 0.0000 0.9416
f 79/79/79 80/80/80 81/81/81 82/82/82
v 0.1797 0.5288 0.3180
vt 0.5659 0.8470
vn -0.1661 0.0000 0.9861
v 0.1797 0.4612 0.3180
vt 0.5659 0.8432
vn -0.1661 0.0000 0.9861
v 0.2952 0.4612 0.3375
vt 0.5768 0.8432
vn -0.1661 0.0000 0.9861
v 0.2952 0.5288 0.3375
vt 0.5768 0.8470
vn -0.1661 0.0000 0.9861
f 83/83/83 84/84/84 85/85/85 86/86/86
v 0.4500 0.4500 0.1125
vt 0.5993 0.7957
vn 0.0000 -1.0000 0.0000
v 0.4500 0.4500 0.3262
vt 0.5993 0.7957
vn 0.0000 -1.0000 0.0000
v 0.2952 0.4500 0.3262
vt 0.5768 0.7957
vn 0.0000 -1.0000 0.0000
v 0.1797 0.4500 0.3069
vt 0.5659 0.7957
vn 0.0000 -1.0000 0.0000
f 87/87/87 88/88/88 89/89/89 90/90/90
v -0.4500 1.1362 0.3375
vt 0.5993 0.8793
vn 0.0000 0.0000 1.0000
v -0.2106 1.1362 0.3375
vt 0.5768 0.8793
vn 0.0000 0.0000 1.0000
v -0.2106 1.2037 0.3375
vt 0.5768 0.8831
vn 0.0000 0.0000 1.0000
v -0.4500 1.2037 0.3375
vt 0.5993 0.8831
vn 0.0000 0.0000 1.0000
f 91/91/91 92/92/92 93/93/93 94/94/94
v 0.4500 1.1250 0.1125
vt 0.5146 0.8474
vn 0.0000 -1.0000 0.0000
v -0.0951 1.1250 0.3069
vt 0.5659 0.8474
vn 0.0000 -1.0000 0.0000
v -0.4500 1.1250 0.1125
vt 0.5993 0.8474
vn 0.0000 -1.0000 0.0000
f 95/95/95 96/96/96 97/97/97
v 0.4500 1.1250 0.1125
vt 0.5146 0.8787
vn 0.0000 0.0000 -1.0000
v -0.4500 1.1250 0.1125
vt 0.5993 0.8787
vn 0.0000 0.0000 -1.0000
v -0.4500 1.2150 0.1125
vt 0.5993 0.8837
vn 0.0000 0.0000 -1.0000
v 0.4500 1.2150 0.1125
vt 0.5146 0.8837
vn 0.0000 0.0000 -1.0000
f 98/98/98 99/99/99 100/100/100 101/101/101
v 0.4500 1.1250 0.3262
vt 0.5146 0.8787
vn 1.0000 0.0000 0.0000
v 0.4500 1.2150 0.3262
vt 0.5146 0.8837
vn 1.0000 0.0000 0.0000
v 0.4500 1.2037 0.3375
vt 0.5146 0.8831
vn 1.0000 0.0000 0.0000
v 0.4500 1.1362 0.3375
vt 0.5146 0.8793
vn 1.0000 0.0000 0.0000
f 102/102/102 103/103/103 104/104/104 105/105/105
v -0.4500 1.1250 0.3262
vt 0.5993 0.8787
vn -1.0000 0.0000 0.0000
v -0.4500 1.1362 0.3375
vt 0.5993 0.8793
vn -1.0000 0.0000 0.0000
v -0.4500 1.2037 0.3375
vt 0.5993 0.8831
vn -1.0000 0.0000 0.0000
v -0.4500 1.2150 0.3262
vt 0.5993 0.8837
vn -1.0000 0.0000 0.0000
f 106/106/106 107/107/107 108/108/108 109/109/109
v 0.4500 1.1250 0.3262
vt 0.5146 0.8474
vn 0.0000 -0.7071 0.7071
v 0.4500 1.1362 0.3375
vt 0.5146 0.8480
vn 0.0000 -0.7071 0.7071
v -0.0407 1.1362 0.3375
vt 0.5608 0.8480
vn 0.0000 -0.7071 0.7071
v -0.0407 1.1250 0.3262
vt 0.5608 0.8474
vn 0.0000 -0.7071 0.7071
f 110/110/110 111/111/111 112/112/112 113/113/113
v 0.4500 1.1250 0.1125
vt 0.5146 0.8787
vn 1.0000 0.0000 0.0000
v 0.4500 1.2150 0.1125
vt 0.5146 0.8837
vn 1.0000 0.0000 0.0000
v 0.4500 1.2150 0.3262
vt 0.5146 0.8837
vn 1.0000 0.0000 0.0000
v 0.4500 1.1250 0.3262
vt 0.5146 0.8787
vn 1.0000 0.0000 0.0000
f 114/114/114 115/115/115 116/116/116 117/117/117
v -0.4500 1.1250 0.1125
vt 0.5993 0.8787
vn -1.0000 0.0000 0.0000
v -0.4500 1.1250 0.3262
vt 0.5993 0.8787
vn -1.0000 0.0000 0.0000
v -0.4500 1.2150 0.3262
vt 0.5993 0.8837
vn -1.0000 0.0000 0.0000
v -0.4500 1.2150 0.1125
vt 0.5993 0.8837
vn -1.0000 0.0000 0.0000
f 118/118/118 119/119/119 120/120/120 121/121/121
v -0.0407 1.1362 0.3375
vt 0.5608 0.8793
vn 0.0000 0.0000 1.0000
v 0.4500 1.1362 0.3375
vt 0.5146 0.8793
vn 0.0000 0.0000 1.0000
v 0.4500 1.2037 0.3375
vt 0.5146 0.8831
vn 0.0000 0.0000 1.0000
v -0.0407 1.2037 0.3375
vt 0.5608 0.8831
vn 0.0000 0.0000 1.0000
f 122/122/122 123/123/123 124/124/124 125/125/125
v 0.4500 1.2150 0.1125
vt 0.5146 0.9150
vn 0.0000 1.0000 -0.0000
v -0.0951 1.2150 0.3069
vt 0.5659 0.9150
vn 0.0000 1.0000 -0.0000
v -0.0407 1.2150 0.3262
vt 0.5608 0.9150
vn 0.0000 1.0000 -0.0000
v 0.4500 1.2150 0.3262
vt 0.5146 0.9150
vn 0.0000 1.0000 -0.0000
f 126/126/126 127/127/127 128/128/128 129/129/129
v -0.2106 1.1250 0.3262
vt 0.5768 0.8474
vn 0.0000 -0.7071 0.7071
v -0.2106 1.1362 0.3375
vt 0.5768 0.8480
vn 0.0000 -0.7071 0.7071
v -0.4500 1.1362 0.3375
vt 0.5993 0.8480
vn 0.0000 -0.7071 0.7071
v -0.4500 1.1250 0.3262
vt 0.5993 0.8474
vn 0.0000 -0.7071 0.7071
f 130/130/130 131/131/131 132/132/132 133/133/133
v -0.4500 1.2150 0.3262
vt 0.5993 0.9150
vn 0.0000 0.7071 0.7071
v -0.4500 1.2037 0.3375
vt 0.5993 0.9143
vn 0.0000 0.7071 0.7071
v -0.2106 1.2037 0.3375
vt 0.5768 0.9143
vn 0.0000 0.7071 0.7071
v -0.2106 1.2150 0.3262
vt 0.5768 0.9150
vn 0.0000 0.7071 0.7071
f 134/134/134 135/135/135 136/136/136 137/137/137
v -0.0407 1.2150 0.3262
vt 0.5608 0.9150
vn 0.0000 0.7071 0.7071
v -0.0407 1.2037 0.3375
vt 0.5608 0.9143
vn 0.0000 0.7071 0.7071
v 0.4500 1.2037 0.3375
vt 0.5146 0.9143
vn 0.0000 0.7071 0.7071
v 0.4500 1.2150 0.3262
vt 0.5146 0.9150
vn 0.0000 0.7071 0.7071
f 138/138/138 139/139/139 140/140/140 141/141/141
v -0.4500 1.2150 0.1125
vt 0.5993 0.9150
vn 0.0000 1.0000 -0.0000
v -0.0951 1.2150 0.3069
vt 0.5659 0.9150
vn 0.0000 1.0000 -0.0000
v 0.4500 1.2150 0.1125
vt 0.5146 0.9150
vn 0.0000 1.0000 -0.0000
f 142/142/142 143/143/143 144/144/144
v 0.4500 1.1250 0.3262
vt 0.5146 0.8474
vn 0.0000 -1.0000 0.0000
v -0.0407 1.1250 0.3262
vt 0.5608 0.8474
vn 0.0000 -1.0000 0.0000
v -0.0951 1.1250 0.3069
vt 0.5659 0.8474
vn 0.0000 -1.0000 0.0000
v 0.4500 1.1250 0.1125
vt 0.5146 0.8474
vn 0.0000 -1.0000 0.0000
f 145/145/145 146/146/146 147/147/147 148/148/148
v -0.4500 1.2150 0.3262
vt 0.5993 0.9150
vn 0.0000 1.0000 -0.0000
v -0.2106 1.2150 0.3262
vt 0.5768 0.9150
vn 0.0000 1.0000 -0.0000
v -0.0951 1.2150 0.3069
vt 0.5659 0.9150
vn 0.0000 1.0000 -0.0000
v -0.4500 1.2150 0.1125
vt 0.5993 0.9150
vn 0.0000 1.0000 -0.0000
f 149/149/149 150/150/150 151/151/151 152/152/152
v -0.0407 1.2150 0.3262
vt 0.5608 0.8993
vn -0.2452 0.6840 0.6870
v -0.0951 1.2150 0.3069
vt 0.5659 0.8993
vn -0.2452 0.6840 0.6870
v -0.0951 1.2037 0.3180
vt 0.5659 0.8987
vn -0.2452 0.6840 0.6870
v -0.0407 1.2037 0.3375
vt 0.5608 0.8987
vn -0.2452 0.6840 0.6870
f 153/153/153 154/154/154 155/155/155 156/156/156
v -0.0951 1.2150 0.3069
vt 0.5659 0.9306
vn 0.1182 0.7006 0.7037
v -0.2106 1.2150 0.3262
vt 0.5768 0.9306
vn 0.1182 0.7006 0.7037
v -0.2106 1.2037 0.3375
vt 0.5768 0.9300
vn 0.1182 0.7006 0.7037
v -0.0951 1.2037 0.3180
vt 0.5659 0.9300
vn 0.1182 0.7006 0.7037
f 157/157/157 158/158/158 159/159/159 160/160/160
v -0.2106 1.1250 0.3262
vt 0.5768 0.8630
vn 0.1182 -0.7006 0.7037
v -0.0951 1.1250 0.3069
vt 0.5659 0.8630
vn 0.1182 -0.7006 0.7037
v -0.0951 1.1362 0.3180
vt 0.5659 0.8637
vn 0.1182 -0.7006 0.7037
v -0.2106 1.1362 0.3375
vt 0.5768 0.8637
vn 0.1182 -0.7006 0.7037
f 161/161/161 162/162/162 163/163/163 164/164/164
v -0.0951 1.1250 0.3069
vt 0.5659 0.8318
vn -0.2452 -0.6840 0.6870
v -0.0407 1.1250 0.3262
vt 0.5608 0.8318
vn -0.2452 -0.6840 0.6870
v -0.0407 1.1362 0.3375
vt 0.5608 0.8324
vn -0.2452 -0.6840 0.6870
v -0.0951 1.1362 0.3180
vt 0.5659 0.8324
vn -0.2452 -0.6840 0.6870
f 165/165/165 166/166/166 167/167/167 168/168/168
v -0.0407 1.2037 0.3375
vt 0.5608 0.8675
vn -0.3369 0.0000 0.9416
v -0.0951 1.2037 0.3180
vt 0.5659 0.8675
vn -0.3369 0.0000 0.9416
v -0.0951 1.1362 0.3180
vt 0.5659 0.8637
vn -0.3369 0.0000 0.9416
v -0.0407 1.1362 0.3375
vt 0.5608 0.8637
vn -0.3369 0.0000 0.9416
f 169/169/169 170/170/170 171/171/171 172/172/172
v -0.0951 1.2037 0.3180
vt 0.5659 0.8987
vn 0.1661 0.0000 0.9861
v -0.2106 1.2037 0.3375
vt 0.5768 0.8987
vn 0.1661 0.0000 0.9861
v -0.2106 1.1362 0.3375
vt 0.5768 0.8949
vn 0.1661 0.0000 0.9861
v -0.0951 1.1362 0.3180
vt 0.5659 0.8949
vn 0.1661 0.0000 0.9861
f 173/173/173 174/174/174 175/175/175 176/176/176
v -0.4500 1.1250 0.1125
vt 0.5993 0.8474
vn 0.0000 -1.0000 0.0000
v -0.0951 1.1250 0.3069
vt 0.5659 0.8474
vn 0.0000 -1.0000 0.0000
v -0.2106 1.1250 0.3262
vt 0.5768 0.8474
vn 0.0000 -1.0000 0.0000
v -0.4500 1.1250 0.3262
vt 0.5993 0.8474
vn 0.0000 -1.0000 0.0000
f 177/177/177 178/178/178 179/179/179 180/180/180
v -0.3600 0.3375 0.1125
vt 0.5188 0.7932
vn 0.0000 -1.0000 0.0000
v -0.2700 0.3375 0.1125
vt 0.5273 0.7932
vn 0.0000 -1.0000 0.0000
v -0.2700 0.3375 0.1688
vt 0.5273 0.7932
vn 0.0000 -1.0000 0.0000
v -0.3600 0.3375 0.1688
vt 0.5188 0.7932
vn 0.0000 -1.0000 0.0000
f 181/181/181 182/182/182 183/183/183 184/184/184
v -0.2812 0.3488 0.1800
vt 0.5262 0.8251
vn 0.1663 -0.6632 0.7298
v -0.2812 0.4500 0.2700
vt 0.5262 0.8951
vn 0.1687 -0.6472 0.7434
v -0.3488 0.4500 0.2700
vt 0.5199 0.8951
vn -0.1687 -0.6472 0.7434
v -0.3488 0.3488 0.1800
vt 0.5199 0.8251
vn -0.1663 -0.6632 0.7298
f 185/185/185 186/186/186 187/187/187 188/188/188
v -0.3600 0.3375 0.1125
vt 0.5188 0.8245
vn 0.0000 0.0000 -1.0000
v -0.3600 0.4500 0.1125
vt 0.5188 0.8951
vn 0.0000 0.0000 -1.0000
v -0.2700 0.4500 0.1125
vt 0.5273 0.8951
vn 0.0000 0.0000 -1.0000
v -0.2700 0.3375 0.1125
vt 0.5273 0.8245
vn 0.0000 0.0000 -1.0000
f 189/189/189 190/190/190 191/191/191 192/192/192
v 0.2700 0.3375 0.1125
vt 0.5185 0.7932
vn 0.0000 -1.0000 0.0000
v 0.3600 0.3375 0.1125
vt 0.5270 0.7932
vn 0.0000 -1.0000 0.0000
v 0.3600 0.3375 0.1688
vt 0.5270 0.7932
vn 0.0000 -1.0000 0.0000
v 0.2700 0.3375 0.1688
vt 0.5185 0.7932
vn 0.0000 -1.0000 0.0000
f 193/193/193 194/194/194 195/195/195 196/196/196
v -0.3600 0.3375 0.1688
vt 0.5188 0.8245
vn -1.0000 0.0000 0.0000
v -0.3600 0.4500 0.2587
vt 0.5188 0.8951
vn -1.0000 0.0000 0.0000
v -0.3600 0.4500 0.1125
vt 0.5188 0.8951
vn -1.0000 0.0000 0.0000
v -0.3600 0.3375 0.1125
vt 0.5188 0.8245
vn -1.0000 0.0000 0.0000
f 197/197/197 198/198/198 199/199/199 200/200/200
v -0.2700 0.3375 0.1125
vt 0.5273 0.8245
vn 1.0000 0.0000 0.0000
v -0.2700 0.4500 0.1125
vt 0.5273 0.8951
vn 1.0000 0.0000 0.0000
v -0.2700 0.4500 0.2587
vt 0.5273 0.8951
vn 1.0000 0.0000 0.0000
v -0.2700 0.3375 0.1688
vt 0.5273 0.8245
vn 1.0000 0.0000 0.0000
f 201/201/201 202/202/202 203/203/203 204/204/204
v 0.3488 0.3488 0.1800
vt 0.5259 0.8251
vn 0.1663 -0.6632 0.7298
v 0.3488 0.4500 0.2700
vt 0.5259 0.8951
vn 0.1687 -0.6472 0.7434
v 0.2812 0.4500 0.2700
vt 0.5196 0.8951
vn -0.1687 -0.6472 0.7434
v 0.2812 0.3488 0.1800
vt 0.5196 0.8251
vn -0.1663 -0.6632 0.7298
f 205/205/205 206/206/206 207/207/207 208/208/208
v 0.2700 0.3375 0.1125
vt 0.5185 0.8245
vn 0.0000 0.0000 -1.0000
v 0.2700 0.4500 0.1125
vt 0.5185 0.8951
vn 0.0000 0.0000 -1.0000
v 0.3600 0.4500 0.1125
vt 0.5270 0.8951
vn 0.0000 0.0000 -1.0000
v 0.3600 0.3375 0.1125
vt 0.5270 0.8245
vn 0.0000 0.0000 -1.0000
f 209/209/209 210/210/210 211/211/211 212/212/212
v 0.2700 0.3375 0.1688
vt 0.5185 0.8245
vn -1.0000 0.0000 0.0000
v 0.2700 0.4500 0.2587
vt 0.5185 0.8951
vn -1.0000 0.0000 0.0000
v 0.2700 0.4500 0.1125
vt 0.5185 0.8951
vn -1.0000 0.0000 0.0000
v 0.2700 0.3375 0.1125
vt 0.5185 0.8245
vn -1.0000 0.0000 0.0000
f 213/213/213 214/214/214 215/215/215 216/216/216
v 0.3600 0.3375 0.1125
vt 0.5270 0.8245
vn 1.0000 0.0000 0.0000
v 0.3600 0.4500 0.1125
vt 0.5270 0.8951
vn 1.0000 0.0000 0.0000
v 0.3600 0.4500 0.2587
vt 0.5270 0.8951
vn 1.0000 0.0000 0.0000
v 0.3600 0.3375 0.1688
vt 0.5270 0.8245
vn 1.0000 0.0000 0.0000
f 217/217/217 218/218/218 219/219/219 220/220/220
v -0.3488 0.3488 0.1800
vt 0.5199 0.8407
vn -0.1663 -0.6632 0.7298
v -0.3488 0.4500 0.2700
vt 0.5199 0.9107
vn -0.1687 -0.6472 0.7434
v -0.3600 0.4500 0.2587
vt 0.5188 0.9107
vn -0.4049 -0.5890 0.6994
v -0.3600 0.3375 0.1688
vt 0.5188 0.8401
vn -0.1635 -0.6749 0.7195
f 221/221/221 222/222/222 223/223/223 224/224/224
v -0.2812 0.4500 0.2700
vt 0.5262 0.9107
vn 0.1687 -0.6472 0.7434
v -0.2812 0.3488 0.1800
vt 0.5262 0.8407
vn 0.1663 -0.6632 0.7298
v -0.2700 0.3375 0.1688
vt 0.5273 0.8401
vn 0.1635 -0.6749 0.7195
v -0.2700 0.4500 0.2587
vt 0.5273 0.9107
vn 0.4049 -0.5890 0.6994
f 225/225/225 226/226/226 227/227/227 228/228/228
v -0.3600 0.3375 0.1688
vt 0.5188 0.8088
vn -0.1635 -0.6749 0.7195
v -0.2700 0.3375 0.1688
vt 0.5273 0.8088
vn 0.1635 -0.6749 0.7195
v -0.2812 0.3488 0.1800
vt 0.5262 0.8095
vn 0.1663 -0.6632 0.7298
v -0.3488 0.3488 0.1800
vt 0.5199 0.8095
vn -0.1663 -0.6632 0.7298
f 229/229/229 230/230/230 231/231/231 232/232/232
v 0.2812 0.3488 0.1800
vt 0.5196 0.8407
vn -0.1663 -0.6632 0.7298
v 0.2812 0.4500 0.2700
vt 0.5196 0.9107
vn -0.1687 -0.6472 0.7434
v 0.2700 0.4500 0.2587
vt 0.5185 0.9107
vn -0.4049 -0.5890 0.6994
v 0.2700 0.3375 0.1688
vt 0.5185 0.8401
vn -0.1635 -0.6749 0.7195
f 233/233/233 234/234/234 235/235/235 236/236/236
v 0.3488 0.4500 0.2700
vt 0.5259 0.9107
vn 0.1687 -0.6472 0.7434
v 0.3488 0.3488 0.1800
vt 0.5259 0.8407
vn 0.1663 -0.6632 0.7298
v 0.3600 0.3375 0.1688
vt 0.5270 0.8401
vn 0.1635 -0.6749 0.7195
v 0.3600 0.4500 0.2587
vt 0.5270 0.9107
vn 0.4049 -0.5890 0.6994
f 237/237/237 238/238/238 239/239/239 240/240/240
v 0.2700 0.3375 0.1688
vt 0.5185 0.8088
vn -0.1635 -0.6749 0.7195
v 0.3600 0.3375 0.1688
vt 0.5270 0.8088
vn 0.1635 -0.6749 0.7195
v 0.3488 0.3488 0.1800
vt 0.5259 0.8095
vn 0.1663 -0.6632 0.7298
v 0.2812 0.3488 0.1800
vt 0.5196 0.8095
vn -0.1663 -0.6632 0.7298
f 241/241/241 242/242/242 243/243/243 244/244/244
v -0.3600 1.0125 0.1125
vt 0.5188 0.7932
vn 0.0000 -1.0000 0.0000
v -0.2700 1.0125 0.1125
vt 0.5273 0.7932
vn 0.0000 -1.0000 0.0000
v -0.2700 1.0125 0.1688
vt 0.5273 0.7932
vn 0.0000 -1.0000 0.0000
v -0.3600 1.0125 0.1688
vt 0.5188 0.7932
vn 0.0000 -1.0000 0.0000
f 245/245/245 246/246/246 247/247/247 248/248/248
v -0.2812 1.0237 0.1800
vt 0.5262 0.8251
vn 0.1663 -0.6632 0.7298
v -0.2812 1.1250 0.2700
vt 0.5262 0.8951
vn 0.1687 -0.6472 0.7434
v -0.3488 1.1250 0.2700
vt 0.5199 0.8951
vn -0.1687 -0.6472 0.7434
v -0.3488 1.0237 0.1800
vt 0.5199 0.8251
vn -0.1663 -0.6632 0.7298
f 249/249/249 250/250/250 251/251/251 252/252/252
v -0.3600 1.0125 0.1125
vt 0.5188 0.8245
vn 0.0000 0.0000 -1.0000
v -0.3600 1.1250 0.1125
vt 0.5188 0.8951
vn 0.0000 0.0000 -1.0000
v -0.2700 1.1250 0.1125
vt 0.5273 0.8951
vn 0.0000 0.0000 -1.0000
v -0.2700 1.0125 0.1125
vt 0.5273 0.8245
vn 0.0000 0.0000 -1.0000
f 253/253/253 254/254/254 255/255/255 256/256/256
v 0.2700 1.0125 0.1125
vt 0.5185 0.7932
vn 0.0000 -1.0000 0.0000
v 0.3600 1.0125 0.1125
vt 0.5270 0.7932
vn 0.0000 -1.0000 0.0000
v 0.3600 1.0125 0.1688
vt 0.5270 0.7932
vn 0.0000 -1.0000 0.0000
v 0.2700 1.0125 0.1688
vt 0.5185 0.7932
vn 0.0000 -1.0000 0.0000
f 257/257/257 258/258/258 259/259/259 260/260/260
v -0.3600 1.0125 0.1688
vt 0.5188 0.8245
vn -1.0000 0.0000 0.0000
v -0.3600 1.1250 0.2587
vt 0.5188 0.8951
vn -1.0000 0.0000 0.0000
v -0.3600 1.1250 0.1125
vt 0.5188 0.8951
vn -1.0000 0.0000 0.0000
v -0.3600 1.0125 0.1125
vt 0.5188 0.8245
vn -1.0000 0.0000 0.0000
f 261/261/261 262/262/262 263/263/263 264/264/264
v -0.2700 1.0125 0.1125
vt 0.5273 0.8245
vn 1.0000 0.0000 0.0000
v -0.2700 1.1250 0.1125
vt 0.5273 0.8951
vn 1.0000 0.0000 0.0000
v -0.2700 1.1250 0.2587
vt 0.5273 0.8951
vn 1.0000 0.0000 0.0000
v -0.2700 1.0125 0.1688
vt 0.5273 0.8245
vn 1.0000 0.0000 0.0000
f 265/265/265 266/266/266 267/267/267 268/268/268
v 0.3488 1.0237 0.1800
vt 0.5259 0.8251
vn 0.1663 -0.6632 0.7298
v 0.3488 1.1250 0.2700
vt 0.5259 0.8951
vn 0.1687 -0.6472 0.7434
v 0.2812 1.1250 0.2700
vt 0.5196 0.8951
vn -0.1687 -0.6472 0.7434
v 0.2812 1.0237 0.1800
vt 0.5196 0.8251
vn -0.1663 -0.6632 0.7298
f 269/269/269 270/270/270 271/271/271 272/272/272
v 0.2700 1.0125 0.1125
vt 0.5185 0.8245
vn 0.0000 0.0000 -1.0000
v 0.2700 1.1250 0.1125
vt 0.5185 0.8951
vn 0.0000 0.0000 -1.0000
v 0.3600 1.1250 0.1125
vt 0.5270 0.8951
vn 0.0000 0.0000 -1.0000
v 0.3600 1.0125 0.1125
vt 0.5270 0.8245
vn 0.0000 0.0000 -1.0000
f 273/273/273 274/274/274 275/275/275 276/276/276
v 0.2700 1.0125 0.1688
vt 0.5185 0.8245
vn -1.0000 0.0000 0.0000
v 0.2700 1.1250 0.2587
vt 0.5185 0.8951
vn -1.0000 0.0000 0.0000
v 0.2700 1.1250 0.1125
vt 0.5185 0.8951
vn -1.0000 0.0000 0.0000
v 0.2700 1.0125 0.1125
vt 0.5185 0.8245
vn -1.0000 0.0000 0.0000
f 277/277/277 278/278/278 279/279/279 280/280/280
v 0.3600 1.0125 0.1125
vt 0.5270 0.8245
vn 1.0000 0.0000 0.0000
v 0.3600 1.1250 0.1125
vt 0.5270 0.8951
vn 1.0000 0.0000 0.0000
v 0.3600 1.1250 0.2587
vt 0.5270 0.8951
vn 1.0000 0.0000 0.0000
v 0.3600 1.0125 0.1688
vt 0.5270 0.8245
vn 1.0000 0.0000 0.0000
f 281/281/281 282/282/282 283/283/283 284/284/284
v -0.3488 1.0237 0.1800
vt 0.5199 0.8407
vn -0.1663 -0.6632 0.7298
v -0.3488 1.1250 0.2700
vt 0.5199 0.9107
vn -0.1687 -0.6472 0.7434
v -0.3600 1.1250 0.2587
vt 0.5188 0.9107
vn -0.4049 -0.5890 0.6994
v -0.3600 1.0125 0.1688
vt 0.5188 0.8401
vn -0.1635 -0.6749 0.7195
f 285/285/285 286/286/286 287/287/287 288/288/288
v -0.2812 1.1250 0.2700
vt 0.5262 0.9107
vn 0.1687 -0.6472 0.7434
v -0.2812 1.0237 0.1800
vt 0.5262 0.8407
vn 0.1663 -0.6632 0.7298
v -0.2700 1.0125 0.1688
vt 0.5273 0.8401
vn 0.1635 -0.6749 0.7195
v -0.2700 1.1250 0.2587
vt 0.5273 0.9107
vn 0.4049 -0.5890 0.6994
f 289/289/289 290/290/290 291/291/291 292/292/292
v -0.3600 1.0125 0.1688
vt 0.5188 0.8088
vn -0.1635 -0.6749 0.7195
v -0.2700 1.0125 0.1688
vt 0.5273 0.8088
vn 0.1635 -0.6749 0.7195
v -0.2812 1.0237 0.1800
vt 0.5262 0.8095
vn 0.1663 -0.6632 0.7298
v -0.3488 1.0237 0.1800
vt 0.5199 0.8095
vn -0.1663 -0.6632 0.7298
f 293/293/293 294/294/294 295/295/295 296/296/296
v 0.2812 1.0237 0.1800
vt 0.5196 0.8407
vn -0.1663 -0.6632 0.7298
v 0.2812 1.1250 0.2700
vt 0.5196 0.9107
vn -0.1687 -0.6472 0.7434
v 0.2700 1.1250 0.2587
vt 0.5185 0.9107
vn -0.4049 -0.5890 0.6994
v 0.2700 1.0125 0.1688
vt 0.5185 0.8401
vn -0.1635 -0.6749 0.7195
f 297/297/297 298/298/298 299/299/299 300/300/300
v 0.3488 1.1250 0.2700
vt 0.5259 0.9107
vn 0.1687 -0.6472 0.7434
v 0.3488 1.0237 0.1800
vt 0.5259 0.8407
vn 0.1663 -0.6632 0.7298
v 0.3600 1.0125 0.1688
vt 0.5270 0.8401
vn 0.1635 -0.6749 0.7195
v 0.3600 1.1250 0.2587
vt 0.5270 0.9107
vn 0.4049 -0.5890 0.6994
f 301/301/301 302/302/302 303/303/303 304/304/304
v 0.2700 1.0125 0.1688
vt 0.5185 0.8088
vn -0.1635 -0.6749 0.7195
v 0.3600 1.0125 0.1688
vt 0.5270 0.8088
vn 0.1635 -0.6749 0.7195
v 0.3488 1.0237 0.1800
vt 0.5259 0.8095
vn 0.1663 -0.6632 0.7298
v 0.2812 1.0237 0.1800
vt 0.5196 0.8095
vn -0.1663 -0.6632 0.7298
f 305/305/305 306/306/306 307/307/307 308/308/308
