# Blender 4.5.13 LTS
# www.blender.org
o timber
v -0.735000 0.000000 0.435000
v -0.735000 1.000000 0.435000
v -0.735000 0.000000 0.365000
v -0.735000 1.000000 0.365000
v -0.665000 0.000000 0.435000
v -0.665000 1.000000 0.435000
v -0.665000 0.000000 0.365000
v -0.665000 1.000000 0.365000
v -0.735000 0.000000 -0.365000
v -0.735000 1.250000 -0.365000
v -0.735000 0.000000 -0.435000
v -0.735000 1.250000 -0.435000
v -0.665000 0.000000 -0.365000
v -0.665000 1.250000 -0.365000
v -0.665000 0.000000 -0.435000
v -0.665000 1.250000 -0.435000
v 0.665000 0.000000 0.435000
v 0.665000 1.000000 0.435000
v 0.665000 0.000000 0.365000
v 0.665000 1.000000 0.365000
v 0.735000 0.000000 0.435000
v 0.735000 1.000000 0.435000
v 0.735000 0.000000 0.365000
v 0.735000 1.000000 0.365000
v 0.665000 0.000000 -0.365000
v 0.665000 1.250000 -0.365000
v 0.665000 0.000000 -0.435000
v 0.665000 1.250000 -0.435000
v 0.735000 0.000000 -0.365000
v 0.735000 1.250000 -0.365000
v 0.735000 0.000000 -0.435000
v 0.735000 1.250000 -0.435000
v -0.750000 0.565000 0.425000
v -0.750000 0.635000 0.425000
v -0.750000 0.565000 -0.425000
v -0.750000 0.635000 -0.425000
v 0.750000 0.565000 0.425000
v 0.750000 0.635000 0.425000
v 0.750000 0.565000 -0.425000
v 0.750000 0.635000 -0.425000
v -0.750000 0.000000 0.455000
v -0.750000 0.600000 0.455000
v -0.750000 0.000000 0.405000
v -0.750000 0.600000 0.405000
v 0.750000 0.000000 0.455000
v 0.750000 0.600000 0.455000
v 0.750000 0.000000 0.405000
v 0.750000 0.600000 0.405000
v -0.850000 1.005692 0.499027
v -0.850000 1.044134 0.510081
v -0.850000 1.295866 -0.510081
v -0.850000 1.334308 -0.499027
v 0.850000 1.005692 0.499027
v 0.850000 1.044134 0.510081
v 0.850000 1.295866 -0.510081
v 0.850000 1.334308 -0.499027
v -0.496217 0.624498 -0.102165
v -0.506437 0.658332 -0.023447
v -0.563063 0.663322 -0.087475
v -0.535140 0.662819 -0.165710
v -0.454362 0.670842 -0.149488
v -0.436396 0.668388 -0.073076
v -0.554735 0.734969 -0.040648
v -0.563094 0.731359 -0.126708
v -0.493941 0.739224 -0.172062
v -0.432401 0.739316 -0.113426
v -0.466559 0.735383 -0.037468
v -0.503998 0.779787 -0.097712
v -0.162927 0.627037 -0.095672
v -0.229094 0.661845 -0.071900
v -0.208593 0.660918 -0.147045
v -0.131113 0.666110 -0.156179
v -0.098679 0.672651 -0.081806
v -0.160406 0.666724 -0.020809
v -0.240905 0.727190 -0.118088
v -0.178194 0.728420 -0.167634
v -0.110605 0.738350 -0.128244
v -0.123111 0.747483 -0.042842
v -0.207226 0.732442 -0.046222
v -0.177891 0.781399 -0.104828
v 0.173282 0.623750 -0.098398
v 0.116475 0.655867 -0.044712
v 0.102270 0.653023 -0.129225
v 0.175149 0.663706 -0.172403
v 0.241379 0.674637 -0.114242
v 0.200989 0.671573 -0.035797
v 0.090060 0.721798 -0.087760
v 0.123182 0.725534 -0.157669
v 0.205661 0.746299 -0.158001
v 0.217627 0.746893 -0.070827
v 0.146192 0.733081 -0.034006
v 0.145050 0.785826 -0.101804
v 0.485862 0.614056 -0.102984
v 0.553355 0.663431 -0.122622
v 0.529286 0.661392 -0.045189
v 0.443132 0.661585 -0.038909
v 0.425341 0.670631 -0.121359
v 0.487987 0.665022 -0.176595
v 0.554138 0.729132 -0.078813
v 0.491985 0.734486 -0.024483
v 0.421131 0.739751 -0.075410
v 0.445914 0.743324 -0.161507
v 0.536567 0.738168 -0.160698
v 0.493848 0.779917 -0.097225
vn -1.0000 -0.0000 -0.0000
vn -0.0000 -0.0000 -1.0000
vn 1.0000 -0.0000 -0.0000
vn -0.0000 -0.0000 1.0000
vn -0.0000 -1.0000 -0.0000
vn -0.0000 1.0000 -0.0000
vn -0.0000 0.2764 -0.9611
vn -0.0000 -0.2764 0.9611
vn -0.0000 -0.9611 -0.2764
vn -0.0000 0.9611 0.2764
vn -0.4256 -0.8501 0.3101
vn 0.4047 -0.8199 0.4049
vn -0.5234 -0.8325 -0.1815
vn 0.1965 -0.7818 -0.5918
vn 0.6361 -0.7518 -0.1737
vn 0.5859 -0.1586 0.7947
vn -0.7225 -0.3175 0.6142
vn -0.9250 -0.1901 -0.3289
vn 0.2116 -0.1938 -0.9580
vn 0.9553 -0.1850 -0.2306
vn -0.0363 0.1970 0.9797
vn -0.9941 0.0539 0.0943
vn -0.5518 0.2309 -0.8013
vn 0.6810 0.1581 -0.7150
vn 0.8929 0.1835 0.4111
vn -0.0255 0.7971 0.6033
vn -0.6424 0.7658 0.0303
vn -0.4032 0.7793 -0.4797
vn 0.3820 0.8320 -0.4022
vn 0.5181 0.8099 0.2749
vn -0.4967 -0.8589 -0.1249
vn -0.2799 -0.8443 0.4570
vn -0.0081 -0.8381 -0.5455
vn 0.5953 -0.7805 -0.1910
vn 0.4713 -0.7857 0.4006
vn -0.5882 -0.1092 0.8013
vn -0.9094 -0.3368 -0.2440
vn -0.0968 -0.2502 -0.9633
vn 0.9146 -0.1091 -0.3893
vn 0.7030 -0.1341 0.6984
vn -0.9015 0.1290 0.4131
vn -0.6199 0.0401 -0.7836
vn 0.4716 0.1984 -0.8592
vn 0.9604 0.2545 0.1134
vn -0.0920 0.3014 0.9490
vn -0.6607 0.7049 0.2581
vn -0.4636 0.6784 -0.5700
vn 0.2552 0.7384 -0.6241
vn 0.5360 0.8442 -0.0118
vn -0.1657 0.7961 0.5820
vn -0.4161 -0.9038 0.1003
vn 0.0895 -0.8102 0.5793
vn -0.1527 -0.8680 -0.4725
vn 0.4845 -0.7748 -0.4061
vn 0.6153 -0.7337 0.2882
vn -0.0851 -0.1046 0.9909
vn -0.9481 -0.2699 0.1684
vn -0.4780 -0.1978 -0.8558
vn 0.6662 -0.1177 -0.7365
vn 0.8887 0.0168 0.4582
vn -0.6991 0.1729 0.6938
vn -0.9016 0.0944 -0.4221
vn -0.0518 0.1901 -0.9804
vn 0.9167 0.3785 -0.1284
vn 0.3851 0.3179 0.8664
vn -0.6015 0.6256 0.4968
vn -0.7514 0.5740 -0.3253
vn -0.1797 0.7029 -0.6882
vn 0.4957 0.8653 -0.0739
vn 0.1607 0.7803 0.6044
vn 0.6136 -0.7710 0.1704
vn 0.4048 -0.7572 -0.5126
vn 0.0430 -0.7885 0.6135
vn -0.6926 -0.7179 0.0707
vn -0.5048 -0.7028 -0.5012
vn 0.6138 -0.2445 -0.7506
vn 0.9368 -0.2018 0.2859
vn 0.0701 -0.2386 0.9686
vn -0.9648 -0.1838 0.1880
vn -0.6568 -0.2135 -0.7232
vn 0.9734 0.1189 -0.1958
vn 0.6590 0.1263 0.7415
vn -0.5592 0.2163 0.8003
vn -0.9552 0.1213 -0.2699
vn 0.0201 0.1996 -0.9797
vn 0.6533 0.7550 -0.0569
vn 0.4781 0.7394 0.4741
vn -0.2990 0.8128 0.5000
vn -0.5057 0.8557 -0.1100
vn 0.0530 0.8503 -0.5236
vt 0.908407 0.779963
vt 0.908407 0.492678
vt 0.927767 0.492799
vt 0.927767 0.780084
vt 0.944772 0.287960
vt 0.944772 0.002989
vt 0.961058 0.001471
vt 0.961058 0.286442
vt 0.257719 0.780487
vt 0.257719 0.493274
vt 0.277829 0.493288
vt 0.277829 0.780501
vt 0.885364 0.779951
vt 0.885364 0.492678
vt 0.905465 0.492696
vt 0.905465 0.779969
vt 0.752733 0.874238
vt 0.752733 0.894339
vt 0.733095 0.894179
vt 0.733095 0.874077
vt 0.526974 0.915033
vt 0.526974 0.894948
vt 0.546327 0.894648
vt 0.546327 0.914733
vt 0.174658 0.852381
vt 0.174658 0.493274
vt 0.194018 0.493395
vt 0.194018 0.852502
vt 0.219262 0.851005
vt 0.219262 0.494792
vt 0.235548 0.493274
vt 0.235548 0.849487
vt 0.480869 0.851266
vt 0.480869 0.492250
vt 0.500979 0.492264
vt 0.500979 0.851280
vt 0.526974 0.851342
vt 0.526974 0.492250
vt 0.547075 0.492268
vt 0.547075 0.851360
vt 0.797894 0.874237
vt 0.797894 0.894339
vt 0.778256 0.894179
vt 0.778256 0.874077
vt 0.219262 0.915090
vt 0.219262 0.895005
vt 0.238615 0.894705
vt 0.238615 0.914790
vt 0.922470 0.288757
vt 0.922470 0.001471
vt 0.941829 0.001592
vt 0.941829 0.288878
vt 0.953757 0.779166
vt 0.953757 0.494196
vt 0.970043 0.492678
vt 0.970043 0.777648
vt 0.280772 0.780487
vt 0.280772 0.493274
vt 0.300882 0.493288
vt 0.300882 0.780501
vt 0.899427 0.288745
vt 0.899427 0.001471
vt 0.919527 0.001490
vt 0.919527 0.288763
vt 0.820474 0.874238
vt 0.820474 0.894339
vt 0.800837 0.894179
vt 0.800837 0.874077
vt 0.823417 0.894463
vt 0.823417 0.874378
vt 0.842770 0.874077
vt 0.842770 0.894162
vt 0.196960 0.852381
vt 0.196960 0.493274
vt 0.216320 0.493395
vt 0.216320 0.852502
vt 0.238491 0.851005
vt 0.238491 0.494792
vt 0.254777 0.493274
vt 0.254777 0.849487
vt 0.503922 0.851266
vt 0.503922 0.492250
vt 0.524032 0.492264
vt 0.524032 0.851280
vt 0.550017 0.851341
vt 0.550017 0.492250
vt 0.570118 0.492268
vt 0.570118 0.851360
vt 0.775314 0.874237
vt 0.775314 0.894339
vt 0.755676 0.894179
vt 0.755676 0.874077
vt 0.480869 0.915734
vt 0.480869 0.895650
vt 0.500222 0.895349
vt 0.500222 0.915434
vt 0.964000 0.001597
vt 0.984110 0.001471
vt 0.984110 0.236556
vt 0.964000 0.236681
vt 0.592922 0.844596
vt 0.573060 0.842744
vt 0.573060 0.492250
vt 0.592922 0.494101
vt 0.930709 0.492692
vt 0.950814 0.492678
vt 0.950814 0.736869
vt 0.930709 0.736883
vt 0.848167 0.437119
vt 0.868276 0.437100
vt 0.868276 0.867824
vt 0.848167 0.867842
vt 0.848686 0.003414
vt 0.848686 0.434158
vt 0.610227 0.432215
vt 0.610227 0.001471
vt 0.610227 0.871135
vt 0.610227 0.440747
vt 0.845224 0.437100
vt 0.845224 0.867488
vt 0.922470 0.464192
vt 0.922470 0.291821
vt 0.936298 0.291907
vt 0.936298 0.464278
vt 0.171716 0.859638
vt 0.001471 0.843768
vt 0.001471 0.493274
vt 0.171716 0.509143
vt 0.899427 0.464033
vt 0.899427 0.291706
vt 0.913791 0.291716
vt 0.913791 0.464044
vt 0.305563 0.492407
vt 0.477927 0.492250
vt 0.477927 0.922973
vt 0.305563 0.923131
vt 0.865656 0.001586
vt 0.865656 0.432329
vt 0.851629 0.432215
vt 0.851629 0.001471
vt 0.868598 0.432074
vt 0.868598 0.001686
vt 0.882422 0.001471
vt 0.882422 0.431859
vt 0.998529 0.292415
vt 0.987052 0.292244
vt 0.987052 0.001471
vt 0.998529 0.001642
vt 0.607285 0.889477
vt 0.595875 0.890286
vt 0.595875 0.493059
vt 0.607285 0.492250
vt 0.972985 0.492683
vt 0.984472 0.492678
vt 0.984472 0.794377
vt 0.972985 0.794382
vt 0.885364 0.001471
vt 0.896484 0.001582
vt 0.896484 0.489735
vt 0.885364 0.489625
vt 0.302620 0.001471
vt 0.302620 0.489647
vt 0.001471 0.490331
vt 0.001471 0.002156
vt 0.305563 0.489244
vt 0.305563 0.001471
vt 0.607285 0.001534
vt 0.607285 0.489307
vt 0.235095 0.876657
vt 0.219263 0.889325
vt 0.219263 0.864928
vt 0.243974 0.891762
vt 0.239928 0.853948
vt 0.254527 0.872273
vt 0.891734 0.896396
vt 0.871921 0.902770
vt 0.871921 0.881288
vt 0.588165 0.873740
vt 0.589186 0.895904
vt 0.567162 0.886730
vt 0.589186 0.854302
vt 0.569013 0.862321
vt 0.273644 0.903951
vt 0.257719 0.898980
vt 0.278914 0.885959
vt 0.281856 0.895308
vt 0.281912 0.873454
vt 0.301745 0.882928
vt 0.894922 0.870785
vt 0.257719 0.875005
vt 0.301666 0.866472
vt 0.301745 0.904986
vt 0.564219 0.857063
vt 0.564219 0.882358
vt 0.544469 0.870534
vt 0.540789 0.854303
vt 0.273846 0.866472
vt 0.542586 0.891706
vt 0.526974 0.873768
vt 0.022609 0.882506
vt 0.012221 0.899514
vt 0.001471 0.880454
vt 0.035934 0.895387
vt 0.014978 0.862580
vt 0.035934 0.870436
vt 0.151847 0.882098
vt 0.151847 0.862580
vt 0.171526 0.872197
vt 0.152377 0.901281
vt 0.171334 0.894745
vt 0.904026 0.821577
vt 0.885872 0.813725
vt 0.904990 0.802890
vt 0.630556 0.887744
vt 0.629793 0.908945
vt 0.610227 0.898842
vt 0.709414 0.892405
vt 0.707416 0.874077
vt 0.730153 0.877523
vt 0.885364 0.790999
vt 0.611250 0.909901
vt 0.610227 0.874077
vt 0.730153 0.902031
vt 0.055656 0.862580
vt 0.073177 0.875135
vt 0.052056 0.879412
vt 0.904990 0.782912
vt 0.045474 0.898612
vt 0.038876 0.878056
vt 0.068732 0.898612
vt 0.280266 0.842761
vt 0.275743 0.863529
vt 0.257719 0.847916
vt 0.295227 0.849284
vt 0.265613 0.824711
vt 0.290045 0.824711
vt 0.659415 0.907748
vt 0.659415 0.883144
vt 0.679714 0.895321
vt 0.682657 0.904638
vt 0.682657 0.880141
vt 0.702173 0.893417
vt 0.494581 0.892407
vt 0.480869 0.872144
vt 0.503319 0.871845
vt 0.097638 0.885320
vt 0.099330 0.901709
vt 0.076120 0.896577
vt 0.099330 0.862580
vt 0.077350 0.871641
vt 0.704473 0.874077
vt 0.494971 0.854223
vt 0.518735 0.885700
vt 0.679475 0.874077
vt 0.124142 0.901962
vt 0.103886 0.896336
vt 0.123565 0.884643
vt 0.518735 0.859408
vt 0.102273 0.873050
vt 0.124142 0.862580
vt 0.191923 0.879189
vt 0.211398 0.871963
vt 0.202807 0.893260
vt 0.193855 0.855445
vt 0.177989 0.893260
vt 0.174658 0.869273
vt 0.848167 0.885905
vt 0.848167 0.870785
vt 0.868979 0.873584
vt 0.849356 0.908278
vt 0.867857 0.897132
vt 0.148904 0.869769
vt 0.147550 0.894540
vt 0.127085 0.882403
vt 0.905598 0.847252
vt 0.885364 0.860757
vt 0.885364 0.835321
vt 0.656472 0.898055
vt 0.633499 0.904879
vt 0.637107 0.882098
vt 0.127915 0.900922
vt 0.127085 0.862580
vt 0.904404 0.824519
vt 0.656472 0.874077
vt 0.280943 0.821768
vt 0.257719 0.816381
vt 0.272309 0.803567
vt 0.295976 0.803977
vt 0.281974 0.783444
vt 0.257719 0.790288
s 0
f 1/1/1 2/2/1 4/3/1 3/4/1
f 3/5/2 4/6/2 8/7/2 7/8/2
f 7/9/3 8/10/3 6/11/3 5/12/3
f 5/13/4 6/14/4 2/15/4 1/16/4
f 3/17/5 7/18/5 5/19/5 1/20/5
f 8/21/6 4/22/6 2/23/6 6/24/6
f 9/25/1 10/26/1 12/27/1 11/28/1
f 11/29/2 12/30/2 16/31/2 15/32/2
f 15/33/3 16/34/3 14/35/3 13/36/3
f 13/37/4 14/38/4 10/39/4 9/40/4
f 11/41/5 15/42/5 13/43/5 9/44/5
f 16/45/6 12/46/6 10/47/6 14/48/6
f 17/49/1 18/50/1 20/51/1 19/52/1
f 19/53/2 20/54/2 24/55/2 23/56/2
f 23/57/3 24/58/3 22/59/3 21/60/3
f 21/61/4 22/62/4 18/63/4 17/64/4
f 19/65/5 23/66/5 21/67/5 17/68/5
f 24/69/6 20/70/6 18/71/6 22/72/6
f 25/73/1 26/74/1 28/75/1 27/76/1
f 27/77/2 28/78/2 32/79/2 31/80/2
f 31/81/3 32/82/3 30/83/3 29/84/3
f 29/85/4 30/86/4 26/87/4 25/88/4
f 27/89/5 31/90/5 29/91/5 25/92/5
f 32/93/6 28/94/6 26/95/6 30/96/6
f 33/97/1 34/98/1 36/99/1 35/100/1
f 35/101/2 36/102/2 40/103/2 39/104/2
f 39/105/3 40/106/3 38/107/3 37/108/3
f 37/109/4 38/110/4 34/111/4 33/112/4
f 35/113/5 39/114/5 37/115/5 33/116/5
f 40/117/6 36/118/6 34/119/6 38/120/6
f 41/121/1 42/122/1 44/123/1 43/124/1
f 43/125/2 44/126/2 48/127/2 47/128/2
f 47/129/3 48/130/3 46/131/3 45/132/3
f 45/133/4 46/134/4 42/135/4 41/136/4
f 43/137/5 47/138/5 45/139/5 41/140/5
f 48/141/6 44/142/6 42/143/6 46/144/6
f 49/145/1 50/146/1 52/147/1 51/148/1
f 51/149/7 52/150/7 56/151/7 55/152/7
f 55/153/3 56/154/3 54/155/3 53/156/3
f 53/157/8 54/158/8 50/159/8 49/160/8
f 51/161/9 55/162/9 53/163/9 49/164/9
f 56/165/10 52/166/10 50/167/10 54/168/10
f 57/169/11 58/170/11 59/171/11
f 58/170/12 57/169/12 62/172/12
f 57/169/13 59/171/13 60/173/13
f 57/169/14 60/173/14 61/174/14
f 57/169/15 61/174/15 62/172/15
f 58/175/16 62/176/16 67/177/16
f 59/178/17 58/179/17 63/180/17
f 60/181/18 59/178/18 64/182/18
f 61/183/19 60/184/19 65/185/19
f 62/186/20 61/187/20 66/188/20
f 58/175/21 67/177/21 63/189/21
f 59/178/22 63/180/22 64/182/22
f 60/184/23 64/190/23 65/185/23
f 61/187/24 65/191/24 66/188/24
f 62/186/25 66/188/25 67/192/25
f 63/193/26 67/194/26 68/195/26
f 64/196/27 63/193/27 68/195/27
f 65/185/28 64/190/28 68/197/28
f 66/198/29 65/199/29 68/195/29
f 67/194/30 66/198/30 68/195/30
f 69/200/31 70/201/31 71/202/31
f 70/201/32 69/200/32 74/203/32
f 69/200/33 71/202/33 72/204/33
f 69/200/34 72/204/34 73/205/34
f 69/200/35 73/205/35 74/203/35
f 70/206/36 74/207/36 79/208/36
f 71/209/37 70/206/37 75/210/37
f 72/211/38 71/212/38 76/213/38
f 73/214/39 72/215/39 77/216/39
f 74/217/40 73/218/40 78/219/40
f 70/206/41 79/208/41 75/210/41
f 71/212/42 75/220/42 76/213/42
f 72/215/43 76/221/43 77/216/43
f 73/214/44 77/216/44 78/222/44
f 74/217/45 78/219/45 79/223/45
f 75/224/46 79/225/46 80/226/46
f 76/213/47 75/220/47 80/227/47
f 77/228/48 76/229/48 80/226/48
f 78/230/49 77/228/49 80/226/49
f 79/225/50 78/230/50 80/226/50
f 81/231/51 82/232/51 83/233/51
f 82/232/52 81/231/52 86/234/52
f 81/231/53 83/233/53 84/235/53
f 81/231/54 84/235/54 85/236/54
f 81/231/55 85/236/55 86/234/55
f 82/237/56 86/238/56 91/239/56
f 83/240/57 82/241/57 87/242/57
f 84/243/58 83/244/58 88/245/58
f 85/246/59 84/247/59 89/248/59
f 86/249/60 85/246/60 90/250/60
f 82/241/61 91/251/61 87/242/61
f 83/244/62 87/252/62 88/245/62
f 84/243/63 88/245/63 89/253/63
f 85/246/64 89/248/64 90/250/64
f 86/238/65 90/254/65 91/239/65
f 87/255/66 91/256/66 92/257/66
f 88/245/67 87/252/67 92/258/67
f 89/253/68 88/245/68 92/258/68
f 90/259/69 89/260/69 92/257/69
f 91/256/70 90/259/70 92/257/70
f 93/261/71 94/262/71 95/263/71
f 94/262/72 93/261/72 98/264/72
f 93/261/73 95/263/73 96/265/73
f 93/261/74 96/265/74 97/266/74
f 93/261/75 97/266/75 98/264/75
f 94/267/76 98/268/76 103/269/76
f 95/270/77 94/267/77 99/271/77
f 96/272/78 95/273/78 100/274/78
f 97/275/79 96/276/79 101/277/79
f 98/278/80 97/279/80 102/280/80
f 94/267/81 103/269/81 99/271/81
f 95/273/82 99/281/82 100/274/82
f 96/272/83 100/274/83 101/282/83
f 97/275/84 101/277/84 102/283/84
f 98/278/85 102/280/85 103/284/85
f 99/285/86 103/286/86 104/287/86
f 100/288/87 99/285/87 104/287/87
f 101/289/88 100/288/88 104/287/88
f 102/290/89 101/289/89 104/287/89
f 103/286/90 102/290/90 104/287/90
