# Blender 4.5.13 LTS
# www.blender.org
o rock
v 0.398610 -0.033315 0.000000
v 0.320766 -0.047486 -0.234209
v 0.120401 -0.043519 -0.378959
v -0.125954 -0.022930 -0.378959
v -0.324199 0.006419 -0.234209
v -0.398610 0.033315 -0.000000
v -0.320766 0.047486 0.234209
v -0.120401 0.043519 0.378959
v 0.125954 0.022930 0.378959
v 0.324199 -0.006419 0.234209
v 0.328180 0.084529 -0.009816
v 0.265905 0.073192 -0.197183
v 0.105613 0.076366 -0.312983
v -0.091471 0.092838 -0.312983
v -0.250067 0.116316 -0.197183
v -0.309596 0.137833 -0.009816
v -0.247321 0.149170 0.177552
v -0.087028 0.145997 0.293351
v 0.110056 0.129525 0.293351
v 0.268651 0.106047 0.177552
v 0.274012 0.396941 -0.036809
v 0.227306 0.388439 -0.177334
v 0.107086 0.390819 -0.264184
v -0.040726 0.403173 -0.264184
v -0.159673 0.420781 -0.177334
v -0.204320 0.436919 -0.036809
v -0.157614 0.445422 0.103717
v -0.037394 0.443042 0.190566
v 0.110419 0.430688 0.190566
v 0.229365 0.413079 0.103717
v 0.223329 0.751046 -0.067483
v 0.192191 0.745378 -0.161167
v 0.112045 0.746964 -0.219066
v 0.013503 0.755200 -0.219066
v -0.065795 0.766940 -0.161167
v -0.095560 0.777698 -0.067483
v -0.064422 0.783367 0.026201
v 0.015724 0.781780 0.084101
v 0.114266 0.773544 0.084101
v 0.193564 0.761805 0.026201
v 0.182212 1.104352 -0.098157
v 0.164775 1.101177 -0.150620
v 0.119893 1.102066 -0.183044
v 0.064709 1.106678 -0.183044
v 0.020303 1.113252 -0.150620
v 0.003634 1.119277 -0.098157
v 0.021071 1.122451 -0.045694
v 0.065953 1.121562 -0.013270
v 0.121137 1.116950 -0.013270
v 0.165543 1.110376 -0.045694
v 0.128909 1.388702 -0.122696
v 0.126418 1.388248 -0.130191
v 0.120007 1.388375 -0.134823
v 0.112123 1.389034 -0.134823
v 0.105779 1.389973 -0.130191
v 0.103398 1.390834 -0.122696
v 0.105889 1.391287 -0.115201
v 0.112301 1.391160 -0.110569
v 0.120184 1.390501 -0.110569
v 0.126528 1.389562 -0.115201
v 0.524611 0.013219 -0.120000
v 0.481223 0.019046 -0.251987
v 0.368613 0.017599 -0.333559
v 0.229796 0.009429 -0.333559
v 0.117794 -0.002342 -0.251987
v 0.075389 -0.013219 -0.120000
v 0.118777 -0.019046 0.011987
v 0.231387 -0.017599 0.093559
v 0.370204 -0.009429 0.093559
v 0.482206 0.002342 0.011987
v 0.476171 0.070351 -0.116204
v 0.441460 0.075014 -0.221794
v 0.351373 0.073856 -0.287051
v 0.240319 0.067320 -0.287051
v 0.150717 0.057903 -0.221794
v 0.116793 0.049201 -0.116204
v 0.151504 0.044539 -0.010615
v 0.241591 0.045697 0.054643
v 0.352645 0.052233 0.054643
v 0.442247 0.061650 -0.010615
v 0.421575 0.232093 -0.105766
v 0.395542 0.235589 -0.184958
v 0.327976 0.234721 -0.233901
v 0.244685 0.229819 -0.233901
v 0.177484 0.222756 -0.184958
v 0.152041 0.216230 -0.105766
v 0.178074 0.212734 -0.026574
v 0.245640 0.213602 0.022370
v 0.328930 0.218504 0.022370
v 0.396131 0.225567 -0.026574
v 0.365659 0.416250 -0.093904
v 0.348303 0.418581 -0.146698
v 0.303260 0.418002 -0.179327
v 0.247733 0.414734 -0.179327
v 0.202932 0.410026 -0.146698
v 0.185970 0.405675 -0.093904
v 0.203325 0.403344 -0.041109
v 0.248369 0.403923 -0.008480
v 0.303896 0.407191 -0.008480
v 0.348697 0.411899 -0.041109
v 0.315134 0.600725 -0.082042
v 0.305415 0.602030 -0.111607
v 0.280190 0.601706 -0.129879
v 0.249095 0.599876 -0.129879
v 0.224007 0.597239 -0.111607
v 0.214508 0.594803 -0.082042
v 0.224227 0.593497 -0.052477
v 0.249451 0.593822 -0.034205
v 0.280547 0.595652 -0.034205
v 0.305635 0.598288 -0.052477
v 0.263214 0.747628 -0.072552
v 0.261825 0.747814 -0.076776
v 0.258222 0.747768 -0.079386
v 0.253779 0.747506 -0.079386
v 0.250195 0.747130 -0.076776
v 0.248838 0.746782 -0.072552
v 0.250227 0.746595 -0.068329
v 0.253830 0.746642 -0.065718
v 0.258273 0.746903 -0.065718
v 0.261857 0.747280 -0.068329
v -0.050011 0.001818 -0.220000
v -0.078655 0.001374 -0.308168
v -0.153649 0.000406 -0.362658
v -0.246347 -0.000718 -0.362658
v -0.321342 -0.001568 -0.308168
v -0.349989 -0.001818 -0.220000
v -0.321345 -0.001374 -0.131832
v -0.246351 -0.000406 -0.077342
v -0.153653 0.000718 -0.077342
v -0.078658 0.001568 -0.131832
v -0.080445 0.037452 -0.220039
v -0.103361 0.037097 -0.290574
v -0.163356 0.036322 -0.334166
v -0.237514 0.035423 -0.334166
v -0.297510 0.034743 -0.290574
v -0.320428 0.034543 -0.220039
v -0.297512 0.034898 -0.149505
v -0.237517 0.035673 -0.105913
v -0.163359 0.036572 -0.105913
v -0.103362 0.037251 -0.149505
v -0.111643 0.136081 -0.220148
v -0.128830 0.135815 -0.273049
v -0.173826 0.135233 -0.305743
v -0.229445 0.134559 -0.305743
v -0.274442 0.134049 -0.273049
v -0.291630 0.133899 -0.220148
v -0.274443 0.134165 -0.167247
v -0.229447 0.134747 -0.134553
v -0.173828 0.135421 -0.134553
v -0.128831 0.135931 -0.167247
v -0.143005 0.248209 -0.220271
v -0.154462 0.248031 -0.255538
v -0.184460 0.247644 -0.277335
v -0.221539 0.247194 -0.277335
v -0.251537 0.246855 -0.255538
v -0.262996 0.246754 -0.220271
v -0.251538 0.246932 -0.185004
v -0.221541 0.247319 -0.163208
v -0.184461 0.247769 -0.163208
v -0.154463 0.248109 -0.185004
v -0.170766 0.360381 -0.220394
v -0.177183 0.360281 -0.240144
v -0.193981 0.360064 -0.252350
v -0.214746 0.359812 -0.252350
v -0.231545 0.359622 -0.240144
v -0.237961 0.359566 -0.220394
v -0.231545 0.359665 -0.200645
v -0.214747 0.359882 -0.188439
v -0.193982 0.360134 -0.188439
v -0.177183 0.360324 -0.200645
v -0.200655 0.450025 -0.220493
v -0.201572 0.450011 -0.223314
v -0.203972 0.449980 -0.225058
v -0.206938 0.449944 -0.225058
v -0.209338 0.449916 -0.223314
v -0.210254 0.449908 -0.220493
v -0.209338 0.449923 -0.217672
v -0.206938 0.449954 -0.215928
v -0.203972 0.449990 -0.215928
v -0.201572 0.450017 -0.217672
vn 0.8808 -0.4721 0.0349
vn 0.7024 -0.5046 -0.5020
vn 0.2430 -0.4955 -0.8339
vn -0.3219 -0.4483 -0.8339
vn -0.7764 -0.3810 -0.5020
vn -0.9470 -0.3194 0.0349
vn -0.7685 -0.2869 0.5719
vn -0.3091 -0.2960 0.9038
vn 0.2557 -0.3432 0.9038
vn 0.7102 -0.4105 0.5719
vn 0.9323 0.3597 -0.0384
vn 0.7573 0.3279 -0.5648
vn 0.3069 0.3368 -0.8901
vn -0.2468 0.3831 -0.8901
vn -0.6924 0.4490 -0.5648
vn -0.8596 0.5095 -0.0384
vn -0.6847 0.5413 0.4881
vn -0.2343 0.5324 0.8134
vn 0.3194 0.4861 0.8134
vn 0.7650 0.4202 0.4881
vn 0.9877 0.1552 -0.0208
vn 0.7986 0.1208 -0.5896
vn 0.3121 0.1304 -0.9411
vn -0.2861 0.1804 -0.9411
vn -0.7675 0.2517 -0.5896
vn -0.9482 0.3170 -0.0208
vn -0.7592 0.3514 0.5479
vn -0.2726 0.3417 0.8994
vn 0.3256 0.2917 0.8994
vn 0.8070 0.2205 0.5479
vn 0.9917 0.1276 -0.0185
vn 0.8014 0.0930 -0.5909
vn 0.3117 0.1027 -0.9446
vn -0.2904 0.1530 -0.9446
vn -0.7749 0.2247 -0.5909
vn -0.9567 0.2904 -0.0185
vn -0.7665 0.3251 0.5539
vn -0.2768 0.3154 0.9077
vn 0.3253 0.2651 0.9077
vn 0.8098 0.1933 0.5539
vn 0.9890 0.1467 -0.0201
vn 0.7996 0.1123 -0.5900
vn 0.3120 0.1219 -0.9422
vn -0.2874 0.1720 -0.9422
vn -0.7698 0.2434 -0.5900
vn -0.9509 0.3089 -0.0201
vn -0.7615 0.3433 0.5498
vn -0.2739 0.3337 0.9020
vn 0.3255 0.2836 0.9020
vn 0.8079 0.2122 0.5498
vn 0.7315 0.6787 -0.0649
vn 0.6007 0.6549 -0.4586
vn 0.2638 0.6615 -0.7020
vn -0.1504 0.6962 -0.7020
vn -0.4836 0.7455 -0.4586
vn -0.6087 0.7907 -0.0649
vn -0.4779 0.8145 0.3289
vn -0.1410 0.8079 0.5722
vn 0.2732 0.7733 0.5722
vn 0.6064 0.7239 0.3289
vn 0.9424 -0.3335 -0.0246
vn 0.7648 -0.3097 -0.5650
vn 0.3037 -0.3156 -0.8990
vn -0.2646 -0.3491 -0.8990
vn -0.7232 -0.3973 -0.5650
vn -0.8968 -0.4418 -0.0246
vn -0.7191 -0.4656 0.5158
vn -0.2581 -0.4597 0.8497
vn 0.3102 -0.4263 0.8497
vn 0.7688 -0.3781 0.5158
vn 0.8625 0.5053 0.0288
vn 0.6907 0.5283 -0.4937
vn 0.2450 0.5226 -0.8166
vn -0.3046 0.4903 -0.8166
vn -0.7479 0.4437 -0.4937
vn -0.9158 0.4006 0.0288
vn -0.7440 0.3775 0.5512
vn -0.2983 0.3833 0.8741
vn 0.2513 0.4156 0.8741
vn 0.6946 0.4622 0.5512
vn 0.9522 0.3050 0.0158
vn 0.7655 0.3301 -0.5524
vn 0.2807 0.3238 -0.9035
vn -0.3168 0.2887 -0.9035
vn -0.7989 0.2380 -0.5524
vn -0.9814 0.1912 0.0158
vn -0.7947 0.1661 0.5839
vn -0.3099 0.1723 0.9350
vn 0.2876 0.2075 0.9350
vn 0.7697 0.2582 0.5839
vn 0.9607 0.2771 0.0140
vn 0.7727 0.3024 -0.5582
vn 0.2845 0.2961 -0.9118
vn -0.3173 0.2607 -0.9118
vn -0.8028 0.2096 -0.5582
vn -0.9866 0.1625 0.0140
vn -0.7985 0.1372 0.5861
vn -0.3104 0.1435 0.9397
vn 0.2914 0.1789 0.9397
vn 0.7769 0.2299 0.5861
vn 0.9550 0.2963 0.0152
vn 0.7678 0.3215 -0.5542
vn 0.2819 0.3152 -0.9062
vn -0.3170 0.2800 -0.9062
vn -0.8002 0.2292 -0.5542
vn -0.9831 0.1823 0.0152
vn -0.7959 0.1571 0.5846
vn -0.3101 0.1634 0.9366
vn 0.2888 0.1986 0.9366
vn 0.7720 0.2494 0.5846
vn 0.6228 0.7809 0.0471
vn 0.4941 0.7982 -0.3445
vn 0.1599 0.7939 -0.5866
vn -0.2520 0.7697 -0.5866
vn -0.5843 0.7348 -0.3445
vn -0.7101 0.7025 0.0471
vn -0.5814 0.6852 0.4387
vn -0.2472 0.6895 0.6808
vn 0.1647 0.7137 0.6808
vn 0.4970 0.7487 0.4387
vn 0.9342 -0.3567 0.0004
vn 0.7567 -0.3595 -0.5461
vn 0.2918 -0.3655 -0.8839
vn -0.2828 -0.3724 -0.8839
vn -0.7477 -0.3777 -0.5461
vn -0.9253 -0.3793 0.0004
vn -0.7477 -0.3765 0.5469
vn -0.2829 -0.3705 0.8847
vn 0.2918 -0.3635 0.8847
vn 0.7566 -0.3583 0.5469
vn 0.8647 0.5023 -0.0005
vn 0.6984 0.4997 -0.5123
vn 0.2631 0.4941 -0.8286
vn -0.2750 0.4876 -0.8286
vn -0.7103 0.4826 -0.5123
vn -0.8766 0.4812 -0.0005
vn -0.7103 0.4838 0.5113
vn -0.2750 0.4894 0.8276
vn 0.2631 0.4959 0.8276
vn 0.6984 0.5008 0.5113
vn 0.9581 0.2864 -0.0003
vn 0.7745 0.2835 -0.5655
vn 0.2938 0.2773 -0.9148
vn -0.3004 0.2701 -0.9148
vn -0.7811 0.2647 -0.5655
vn -0.9648 0.2631 -0.0003
vn -0.7812 0.2659 0.5649
vn -0.3004 0.2721 0.9142
vn 0.2938 0.2793 0.9142
vn 0.7745 0.2848 0.5649
vn 0.9668 0.2555 -0.0003
vn 0.7816 0.2527 -0.5703
vn 0.2967 0.2464 -0.9226
vn -0.3026 0.2391 -0.9226
vn -0.7875 0.2336 -0.5703
vn -0.9727 0.2320 -0.0003
vn -0.7875 0.2349 0.5698
vn -0.3026 0.2411 0.9221
vn 0.2967 0.2484 0.9221
vn 0.7816 0.2539 0.5698
vn 0.9610 0.2765 -0.0003
vn 0.7769 0.2737 -0.5671
vn 0.2948 0.2674 -0.9174
vn -0.3012 0.2602 -0.9174
vn -0.7833 0.2547 -0.5671
vn -0.9674 0.2531 -0.0003
vn -0.7833 0.2560 0.5665
vn -0.3012 0.2622 0.9168
vn 0.2947 0.2694 0.9168
vn 0.7769 0.2749 0.5665
vn 0.6472 0.7624 -0.0008
vn 0.5218 0.7604 -0.3866
vn 0.1937 0.7562 -0.6251
vn -0.2119 0.7513 -0.6251
vn -0.5401 0.7475 -0.3866
vn -0.6654 0.7464 -0.0008
vn -0.5401 0.7484 0.3850
vn -0.2120 0.7526 0.6234
vn 0.1937 0.7575 0.6234
vn 0.5218 0.7613 0.3850
vt 0.473370 0.480933
vt 0.404984 0.516565
vt 0.385039 0.470523
vt 0.439748 0.442016
vt 0.314872 0.536977
vt 0.312950 0.486852
vt 0.237454 0.534371
vt 0.251016 0.484767
vt 0.852234 0.515960
vt 0.763573 0.537764
vt 0.758763 0.488791
vt 0.829692 0.471348
vt 0.680072 0.540611
vt 0.691962 0.491069
vt 0.678193 0.545428
vt 0.602772 0.538678
vt 0.603865 0.491544
vt 0.664202 0.496943
vt 0.512556 0.518740
vt 0.531692 0.475593
vt 0.235575 0.484896
vt 0.171101 0.517177
vt 0.149854 0.472287
vt 0.201433 0.446462
vt 0.081478 0.538266
vt 0.078156 0.489158
vt 0.000940 0.540107
vt 0.013725 0.490631
vt 0.350099 0.357852
vt 0.391131 0.336473
vt 0.296032 0.370099
vt 0.249582 0.368536
vt 0.740805 0.371487
vt 0.794002 0.358404
vt 0.690705 0.373195
vt 0.620429 0.374009
vt 0.665681 0.378058
vt 0.566299 0.362046
vt 0.475250 0.455184
vt 0.523967 0.346739
vt 0.060697 0.371748
vt 0.114470 0.359094
vt 0.012373 0.372852
vt 0.311946 0.230905
vt 0.339301 0.216652
vt 0.275901 0.239069
vt 0.244934 0.238027
vt 0.720031 0.239539
vt 0.755495 0.230818
vt 0.686630 0.240678
vt 0.640308 0.241388
vt 0.670476 0.244088
vt 0.604221 0.233413
vt 0.576000 0.223208
vt 0.040207 0.239701
vt 0.076056 0.231266
vt 0.007992 0.240438
vt 0.275158 0.104913
vt 0.290476 0.096932
vt 0.254973 0.109486
vt 0.237631 0.108902
vt 0.698932 0.108783
vt 0.718792 0.103899
vt 0.680228 0.109421
vt 0.661116 0.109596
vt 0.678010 0.111108
vt 0.640907 0.105130
vt 0.625104 0.099415
vt 0.019147 0.108864
vt 0.039223 0.104140
vt 0.001107 0.109277
vt 0.242815 0.002080
vt 0.245004 0.000940
vt 0.239932 0.002733
vt 0.237454 0.002650
vt 0.682744 0.001638
vt 0.685582 0.000940
vt 0.680072 0.001729
vt 0.675779 0.002394
vt 0.678193 0.002610
vt 0.672892 0.001756
vt 0.670635 0.000940
vt 0.003517 0.001615
vt 0.006385 0.000940
vt 0.000940 0.001674
vt 0.054977 0.570059
vt 0.142411 0.541987
vt 0.229846 0.570945
vt 0.283883 0.645873
vt 0.283883 0.738151
vt 0.229846 0.812531
vt 0.142411 0.840602
vt 0.054977 0.811644
vt 0.000940 0.736716
vt 0.000940 0.644439
vt 0.335381 0.548395
vt 0.332578 0.547466
vt 0.330846 0.545071
vt 0.330846 0.542123
vt 0.332578 0.539750
vt 0.335381 0.538857
vt 0.338184 0.539785
vt 0.339917 0.542181
vt 0.339917 0.545128
vt 0.338184 0.547502
vt 0.589185 0.840177
vt 0.547042 0.835552
vt 0.547582 0.810281
vt 0.581296 0.813981
vt 0.496410 0.823826
vt 0.507076 0.800900
vt 0.473370 0.797004
vt 0.437524 0.815328
vt 0.425487 0.791292
vt 0.454164 0.776632
vt 0.387267 0.827675
vt 0.385282 0.801169
vt 0.341796 0.829327
vt 0.348905 0.802491
vt 0.812451 0.797536
vt 0.774263 0.818403
vt 0.762998 0.793543
vt 0.793548 0.776850
vt 0.723699 0.830418
vt 0.722547 0.803156
vt 0.680072 0.828993
vt 0.687645 0.802016
vt 0.911015 0.818215
vt 0.861227 0.830948
vt 0.858523 0.804412
vt 0.898354 0.794226
vt 0.814331 0.832799
vt 0.821006 0.805893
vt 0.556844 0.747291
vt 0.582130 0.750066
vt 0.526465 0.740256
vt 0.475250 0.789422
vt 0.502595 0.731648
vt 0.375436 0.738079
vt 0.405590 0.730672
vt 0.348153 0.739070
vt 0.743359 0.733290
vt 0.766272 0.720770
vt 0.713021 0.740499
vt 0.686844 0.739644
vt 0.848438 0.741411
vt 0.878311 0.733771
vt 0.820301 0.742521
vt 0.567976 0.676220
vt 0.584833 0.678070
vt 0.547723 0.671529
vt 0.531810 0.665790
vt 0.363906 0.667150
vt 0.384008 0.662211
vt 0.345717 0.667810
vt 0.721926 0.665452
vt 0.737201 0.657106
vt 0.701700 0.670258
vt 0.684249 0.669688
vt 0.836771 0.670595
vt 0.856686 0.665502
vt 0.818013 0.671335
vt 0.579642 0.605594
vt 0.589082 0.606630
vt 0.568300 0.602967
vt 0.559389 0.599753
vt 0.352075 0.596892
vt 0.363332 0.594126
vt 0.341889 0.597262
vt 0.701270 0.598170
vt 0.709824 0.593496
vt 0.689944 0.600862
vt 0.680171 0.600543
vt 0.824923 0.600463
vt 0.836075 0.597611
vt 0.814418 0.600877
vt 0.587836 0.548142
vt 0.589185 0.548290
vt 0.586216 0.547766
vt 0.584943 0.547307
vt 0.343252 0.539252
vt 0.344860 0.538857
vt 0.341796 0.539305
vt 0.683086 0.543159
vt 0.684308 0.542491
vt 0.681468 0.543543
vt 0.680072 0.543498
vt 0.815832 0.542898
vt 0.817425 0.542491
vt 0.814331 0.542958
vt 0.344298 0.983255
vt 0.313828 0.941429
vt 0.313828 0.889559
vt 0.344298 0.847458
vt 0.393599 0.831206
vt 0.442900 0.847012
vt 0.473370 0.888838
vt 0.473370 0.940707
vt 0.442900 0.982809
vt 0.393599 0.999060
vt 0.326413 0.544228
vt 0.324836 0.543708
vt 0.323861 0.542361
vt 0.323861 0.540701
vt 0.324836 0.539362
vt 0.326413 0.538857
vt 0.327991 0.539377
vt 0.328966 0.540724
vt 0.328966 0.542384
vt 0.327991 0.543722
vt 0.941972 0.155553
vt 0.916040 0.167294
vt 0.908797 0.153014
vt 0.929543 0.143622
vt 0.882481 0.175914
vt 0.881950 0.159910
vt 0.854114 0.178121
vt 0.859256 0.161676
vt 0.655001 0.890965
vt 0.621808 0.900036
vt 0.620213 0.883726
vt 0.646768 0.876470
vt 0.591064 0.901704
vt 0.595618 0.885061
vt 0.941951 0.356276
vt 0.913351 0.355228
vt 0.913977 0.338826
vt 0.936857 0.339665
vt 0.879800 0.346578
vt 0.887137 0.331906
vt 0.854114 0.333631
vt 0.866587 0.321548
vt 0.655072 0.712746
vt 0.621913 0.721779
vt 0.620265 0.705558
vt 0.646793 0.698331
vt 0.591064 0.723686
vt 0.595586 0.707084
vt 0.895868 0.116605
vt 0.911427 0.109561
vt 0.875733 0.121777
vt 0.858712 0.123101
vt 0.613583 0.845658
vt 0.633499 0.840215
vt 0.595137 0.846659
vt 0.920236 0.300686
vt 0.937396 0.301315
vt 0.900105 0.295496
vt 0.884694 0.287728
vt 0.613617 0.667479
vt 0.633513 0.662059
vt 0.595108 0.668624
vt 0.881721 0.075453
vt 0.892094 0.070757
vt 0.868297 0.078901
vt 0.856950 0.079784
vt 0.605874 0.802927
vt 0.619151 0.799299
vt 0.593576 0.803594
vt 0.927702 0.257888
vt 0.939142 0.258307
vt 0.914281 0.254428
vt 0.904007 0.249249
vt 0.605898 0.624717
vt 0.619162 0.621104
vt 0.593559 0.625480
vt 0.868052 0.034498
vt 0.873861 0.031868
vt 0.860535 0.036429
vt 0.854181 0.036923
vt 0.598010 0.760661
vt 0.605446 0.758629
vt 0.591124 0.761035
vt 0.935478 0.215567
vt 0.941885 0.215802
vt 0.927963 0.213629
vt 0.922209 0.210729
vt 0.598033 0.582403
vt 0.605461 0.580379
vt 0.591123 0.582830
vt 0.856095 0.001315
vt 0.856925 0.000940
vt 0.855022 0.001591
vt 0.854114 0.001662
vt 0.592048 0.725856
vt 0.593110 0.725566
vt 0.591064 0.725910
vt 0.941036 0.180691
vt 0.941951 0.180725
vt 0.939962 0.180415
vt 0.939140 0.180000
vt 0.592051 0.547596
vt 0.593113 0.547307
vt 0.591064 0.547657
vt 0.680072 0.905670
vt 0.680072 0.871027
vt 0.700438 0.843001
vt 0.733390 0.832298
vt 0.766342 0.843005
vt 0.786708 0.871033
vt 0.786708 0.905676
vt 0.766342 0.933702
vt 0.733390 0.944405
vt 0.700438 0.933698
vt 0.321981 0.540096
vt 0.321981 0.541205
vt 0.321329 0.542102
vt 0.320275 0.542445
vt 0.319221 0.542102
vt 0.318569 0.541205
vt 0.318569 0.540096
vt 0.319221 0.539199
vt 0.320275 0.538857
vt 0.321329 0.539199
s 1
f 1/1/1 2/2/2 12/3/12 11/4/11
f 2/2/2 3/5/3 13/6/13 12/3/12
f 3/5/3 4/7/4 14/8/14 13/6/13
f 4/9/4 5/10/5 15/11/15 14/12/14
f 5/10/5 6/13/6 16/14/16 15/11/15
f 6/15/6 7/16/7 17/17/17 16/18/16
f 7/16/7 8/19/8 18/20/18 17/17/17
f 8/21/8 9/22/9 19/23/19 18/24/18
f 9/22/9 10/25/10 20/26/20 19/23/19
f 10/25/10 1/27/1 11/28/11 20/26/20
f 11/4/11 12/3/12 22/29/22 21/30/21
f 12/3/12 13/6/13 23/31/23 22/29/22
f 13/6/13 14/8/14 24/32/24 23/31/23
f 14/12/14 15/11/15 25/33/25 24/34/24
f 15/11/15 16/14/16 26/35/26 25/33/25
f 16/18/16 17/17/17 27/36/27 26/37/26
f 17/17/17 18/20/18 28/38/28 27/36/27
f 18/20/18 19/39/19 29/40/29 28/38/28
f 19/23/19 20/26/20 30/41/30 29/42/29
f 20/26/20 11/28/11 21/43/21 30/41/30
f 21/30/21 22/29/22 32/44/32 31/45/31
f 22/29/22 23/31/23 33/46/33 32/44/32
f 23/31/23 24/32/24 34/47/34 33/46/33
f 24/34/24 25/33/25 35/48/35 34/49/34
f 25/33/25 26/35/26 36/50/36 35/48/35
f 26/37/26 27/36/27 37/51/37 36/52/36
f 27/36/27 28/38/28 38/53/38 37/51/37
f 28/38/28 29/40/29 39/54/39 38/53/38
f 29/42/29 30/41/30 40/55/40 39/56/39
f 30/41/30 21/43/21 31/57/31 40/55/40
f 31/45/31 32/44/32 42/58/42 41/59/41
f 32/44/32 33/46/33 43/60/43 42/58/42
f 33/46/33 34/47/34 44/61/44 43/60/43
f 34/49/34 35/48/35 45/62/45 44/63/44
f 35/48/35 36/50/36 46/64/46 45/62/45
f 36/52/36 37/51/37 47/65/47 46/66/46
f 37/51/37 38/53/38 48/67/48 47/65/47
f 38/53/38 39/54/39 49/68/49 48/67/48
f 39/56/39 40/55/40 50/69/50 49/70/49
f 40/55/40 31/57/31 41/71/41 50/69/50
f 41/59/41 42/58/42 52/72/52 51/73/51
f 42/58/42 43/60/43 53/74/53 52/72/52
f 43/60/43 44/61/44 54/75/54 53/74/53
f 44/63/44 45/62/45 55/76/55 54/77/54
f 45/62/45 46/64/46 56/78/56 55/76/55
f 46/66/46 47/65/47 57/79/57 56/80/56
f 47/65/47 48/67/48 58/81/58 57/79/57
f 48/67/48 49/68/49 59/82/59 58/81/58
f 49/70/49 50/69/50 60/83/60 59/84/59
f 50/69/50 41/71/41 51/85/51 60/83/60
f 10/86/10 9/87/9 8/88/8 7/89/7 6/90/6 5/91/5 4/92/4 3/93/3 2/94/2 1/95/1
f 51/96/51 52/97/52 53/98/53 54/99/54 55/100/55 56/101/56 57/102/57 58/103/58 59/104/59 60/105/60
f 61/106/61 62/107/62 72/108/72 71/109/71
f 62/107/62 63/110/63 73/111/73 72/108/72
f 63/112/63 64/113/64 74/114/74 73/115/73
f 64/113/64 65/116/65 75/117/75 74/114/74
f 65/116/65 66/118/66 76/119/76 75/117/75
f 66/120/66 67/121/67 77/122/77 76/123/76
f 67/121/67 68/124/68 78/125/78 77/122/77
f 68/124/68 69/126/69 79/127/79 78/125/78
f 69/128/69 70/129/70 80/130/80 79/131/79
f 70/129/70 61/132/61 71/133/71 80/130/80
f 71/109/71 72/108/72 82/134/82 81/135/81
f 72/108/72 73/111/73 83/136/83 82/134/82
f 73/111/73 74/137/74 84/138/84 83/136/83
f 74/114/74 75/117/75 85/139/85 84/140/84
f 75/117/75 76/119/76 86/141/86 85/139/85
f 76/123/76 77/122/77 87/142/87 86/143/86
f 77/122/77 78/125/78 88/144/88 87/142/87
f 78/125/78 79/127/79 89/145/89 88/144/88
f 79/131/79 80/130/80 90/146/90 89/147/89
f 80/130/80 71/133/71 81/148/81 90/146/90
f 81/135/81 82/134/82 92/149/92 91/150/91
f 82/134/82 83/136/83 93/151/93 92/149/92
f 83/136/83 84/138/84 94/152/94 93/151/93
f 84/140/84 85/139/85 95/153/95 94/154/94
f 85/139/85 86/141/86 96/155/96 95/153/95
f 86/143/86 87/142/87 97/156/97 96/157/96
f 87/142/87 88/144/88 98/158/98 97/156/97
f 88/144/88 89/145/89 99/159/99 98/158/98
f 89/147/89 90/146/90 100/160/100 99/161/99
f 90/146/90 81/148/81 91/162/91 100/160/100
f 91/150/91 92/149/92 102/163/102 101/164/101
f 92/149/92 93/151/93 103/165/103 102/163/102
f 93/151/93 94/152/94 104/166/104 103/165/103
f 94/154/94 95/153/95 105/167/105 104/168/104
f 95/153/95 96/155/96 106/169/106 105/167/105
f 96/157/96 97/156/97 107/170/107 106/171/106
f 97/156/97 98/158/98 108/172/108 107/170/107
f 98/158/98 99/159/99 109/173/109 108/172/108
f 99/161/99 100/160/100 110/174/110 109/175/109
f 100/160/100 91/162/91 101/176/101 110/174/110
f 101/164/101 102/163/102 112/177/112 111/178/111
f 102/163/102 103/165/103 113/179/113 112/177/112
f 103/165/103 104/166/104 114/180/114 113/179/113
f 104/168/104 105/167/105 115/181/115 114/182/114
f 105/167/105 106/169/106 116/183/116 115/181/115
f 106/171/106 107/170/107 117/184/117 116/185/116
f 107/170/107 108/172/108 118/186/118 117/184/117
f 108/172/108 109/173/109 119/187/119 118/186/118
f 109/175/109 110/174/110 120/188/120 119/189/119
f 110/174/110 101/176/101 111/190/111 120/188/120
f 70/191/70 69/192/69 68/193/68 67/194/67 66/195/66 65/196/65 64/197/64 63/198/63 62/199/62 61/200/61
f 111/201/111 112/202/112 113/203/113 114/204/114 115/205/115 116/206/116 117/207/117 118/208/118 119/209/119 120/210/120
f 121/211/121 122/212/122 132/213/132 131/214/131
f 122/212/122 123/215/123 133/216/133 132/213/132
f 123/215/123 124/217/124 134/218/134 133/216/133
f 124/219/124 125/220/125 135/221/135 134/222/134
f 125/220/125 126/223/126 136/224/136 135/221/135
f 126/225/126 127/226/127 137/227/137 136/228/136
f 127/226/127 128/229/128 138/230/138 137/227/137
f 128/229/128 129/231/129 139/232/139 138/230/138
f 129/233/129 130/234/130 140/235/140 139/236/139
f 130/234/130 121/237/121 131/238/131 140/235/140
f 131/214/131 132/213/132 142/239/142 141/240/141
f 132/213/132 133/216/133 143/241/143 142/239/142
f 133/216/133 134/218/134 144/242/144 143/241/143
f 134/222/134 135/221/135 145/243/145 144/244/144
f 135/221/135 136/224/136 146/245/146 145/243/145
f 136/228/136 137/227/137 147/246/147 146/247/146
f 137/227/137 138/230/138 148/248/148 147/246/147
f 138/230/138 139/232/139 149/249/149 148/248/148
f 139/236/139 140/235/140 150/250/150 149/251/149
f 140/235/140 131/238/131 141/252/141 150/250/150
f 141/240/141 142/239/142 152/253/152 151/254/151
f 142/239/142 143/241/143 153/255/153 152/253/152
f 143/241/143 144/242/144 154/256/154 153/255/153
f 144/244/144 145/243/145 155/257/155 154/258/154
f 145/243/145 146/245/146 156/259/156 155/257/155
f 146/247/146 147/246/147 157/260/157 156/261/156
f 147/246/147 148/248/148 158/262/158 157/260/157
f 148/248/148 149/249/149 159/263/159 158/262/158
f 149/251/149 150/250/150 160/264/160 159/265/159
f 150/250/150 141/252/141 151/266/151 160/264/160
f 151/254/151 152/253/152 162/267/162 161/268/161
f 152/253/152 153/255/153 163/269/163 162/267/162
f 153/255/153 154/256/154 164/270/164 163/269/163
f 154/258/154 155/257/155 165/271/165 164/272/164
f 155/257/155 156/259/156 166/273/166 165/271/165
f 156/261/156 157/260/157 167/274/167 166/275/166
f 157/260/157 158/262/158 168/276/168 167/274/167
f 158/262/158 159/263/159 169/277/169 168/276/168
f 159/265/159 160/264/160 170/278/170 169/279/169
f 160/264/160 151/266/151 161/280/161 170/278/170
f 161/268/161 162/267/162 172/281/172 171/282/171
f 162/267/162 163/269/163 173/283/173 172/281/172
f 163/269/163 164/270/164 174/284/174 173/283/173
f 164/272/164 165/271/165 175/285/175 174/286/174
f 165/271/165 166/273/166 176/287/176 175/285/175
f 166/275/166 167/274/167 177/288/177 176/289/176
f 167/274/167 168/276/168 178/290/178 177/288/177
f 168/276/168 169/277/169 179/291/179 178/290/178
f 169/279/169 170/278/170 180/292/180 179/293/179
f 170/278/170 161/280/161 171/294/171 180/292/180
f 130/295/130 129/296/129 128/297/128 127/298/127 126/299/126 125/300/125 124/301/124 123/302/123 122/303/122 121/304/121
f 171/305/171 172/306/172 173/307/173 174/308/174 175/309/175 176/310/176 177/311/177 178/312/178 179/313/179 180/314/180
