# The Giants of Holst prop, from CC0 kits by KayKit (Kay Lousberg) and Kenney
v 0.1525 0.0000 -0.0675
vt 0.5795 0.7863
vn 0.0000 -1.0000 0.0000
v 0.0681 0.0000 -0.1519
vt 0.5929 0.7863
vn 0.0000 -1.0000 0.0000
v 0.1482 0.0000 -0.1519
vt 0.5929 0.7863
vn 0.0000 -1.0000 0.0000
v 0.1525 0.0000 -0.1477
vt 0.5917 0.7863
vn 0.0000 -1.0000 0.0000
f 1/1/1 2/2/2 3/3/3 4/4/4
v 0.0681 0.0000 -0.0675
vt 0.5795 0.8140
vn 0.0000 -0.0933 0.9956
v 0.1525 0.0000 -0.0675
vt 0.5795 0.8140
vn 0.0000 -0.0933 0.9956
v 0.1356 0.1800 -0.0506
vt 0.5751 0.8909
vn 0.0000 -0.0933 0.9956
v 0.0512 0.1800 -0.0506
vt 0.5751 0.8909
vn 0.0000 -0.0933 0.9956
f 5/5/5 6/6/6 7/7/7 8/8/8
v 0.1482 0.0000 -0.1519
vt 0.5929 0.8140
vn 0.0000 0.0933 -0.9956
v 0.0681 0.0000 -0.1519
vt 0.5929 0.8140
vn 0.0000 0.0933 -0.9956
v 0.0512 0.1800 -0.1350
vt 0.5884 0.8909
vn 0.0000 0.0933 -0.9956
v 0.1314 0.1800 -0.1350
vt 0.5884 0.8909
vn 0.0000 0.0933 -0.9956
f 9/9/9 10/10/10 11/11/11 12/12/12
v 0.0681 0.0000 -0.1519
vt 0.5929 0.8140
vn -0.9956 -0.0933 0.0000
v 0.0681 0.0000 -0.0675
vt 0.5795 0.8140
vn -0.9956 -0.0933 0.0000
v 0.0512 0.1800 -0.0506
vt 0.5751 0.8909
vn -0.9956 -0.0933 0.0000
v 0.0512 0.1800 -0.1350
vt 0.5884 0.8909
vn -0.9956 -0.0933 0.0000
f 13/13/13 14/14/14 15/15/15 16/16/16
v 0.1525 0.0000 -0.0675
vt 0.5795 0.8140
vn 0.9956 0.0933 0.0000
v 0.1525 0.0000 -0.1477
vt 0.5917 0.8140
vn 0.9956 0.0933 0.0000
v 0.1356 0.1800 -0.1308
vt 0.5873 0.8909
vn 0.9956 0.0933 0.0000
v 0.1356 0.1800 -0.0506
vt 0.5751 0.8909
vn 0.9956 0.0933 0.0000
f 17/17/17 18/18/18 19/19/19 20/20/20
v 0.0681 0.0000 0.1519
vt 0.5128 0.7863
vn 0.0000 -1.0000 0.0000
v 0.0681 0.0000 0.0675
vt 0.5261 0.7863
vn 0.0000 -1.0000 0.0000
v 0.1525 0.0000 0.0675
vt 0.5261 0.7863
vn 0.0000 -1.0000 0.0000
f 21/21/21 22/22/22 23/23/23
v 0.1525 0.0000 0.1477
vt 0.5139 0.8140
vn 0.9956 0.0933 0.0000
v 0.1525 0.0000 0.0675
vt 0.5261 0.8140
vn 0.9956 0.0933 0.0000
v 0.1356 0.1800 0.0506
vt 0.5306 0.8909
vn 0.9956 0.0933 0.0000
v 0.1356 0.1800 0.1308
vt 0.5183 0.8909
vn 0.9956 0.0933 0.0000
f 24/24/24 25/25/25 26/26/26 27/27/27
v 0.1525 0.0000 0.0675
vt 0.5261 0.8140
vn 0.0000 -0.0933 -0.9956
v 0.0681 0.0000 0.0675
vt 0.5261 0.8140
vn 0.0000 -0.0933 -0.9956
v 0.0512 0.1800 0.0506
vt 0.5306 0.8909
vn 0.0000 -0.0933 -0.9956
v 0.1356 0.1800 0.0506
vt 0.5306 0.8909
vn 0.0000 -0.0933 -0.9956
f 28/28/28 29/29/29 30/30/30 31/31/31
v 0.0681 0.0000 0.0675
vt 0.5261 0.8140
vn -0.9956 -0.0933 0.0000
v 0.0681 0.0000 0.1519
vt 0.5128 0.8140
vn -0.9956 -0.0933 0.0000
v 0.0512 0.1800 0.1350
vt 0.5172 0.8909
vn -0.9956 -0.0933 0.0000
v 0.0512 0.1800 0.0506
vt 0.5306 0.8909
vn -0.9956 -0.0933 0.0000
f 32/32/32 33/33/33 34/34/34 35/35/35
v 0.0681 0.0000 0.1519
vt 0.5128 0.8140
vn 0.0000 0.0933 0.9956
v 0.1482 0.0000 0.1519
vt 0.5128 0.8140
vn 0.0000 0.0933 0.9956
v 0.1314 0.1800 0.1350
vt 0.5172 0.8909
vn 0.0000 0.0933 0.9956
v 0.0512 0.1800 0.1350
vt 0.5172 0.8909
vn 0.0000 0.0933 0.9956
f 36/36/36 37/37/37 38/38/38 39/39/39
v 0.1314 0.1800 -0.1350
vt 0.5884 0.9324
vn 0.7010 0.1314 -0.7010
v 0.1356 0.1800 -0.1308
vt 0.5873 0.9324
vn 0.7010 0.1314 -0.7010
v 0.1525 0.0000 -0.1477
vt 0.5917 0.8555
vn 0.7010 0.1314 -0.7010
v 0.1482 0.0000 -0.1519
vt 0.5929 0.8555
vn 0.7010 0.1314 -0.7010
f 40/40/40 41/41/41 42/42/42 43/43/43
v 0.1356 0.1800 0.1308
vt 0.5183 0.9324
vn 0.7010 0.1314 0.7010
v 0.1314 0.1800 0.1350
vt 0.5172 0.9324
vn 0.7010 0.1314 0.7010
v 0.1482 0.0000 0.1519
vt 0.5128 0.8555
vn 0.7010 0.1314 0.7010
v 0.1525 0.0000 0.1477
vt 0.5139 0.8555
vn 0.7010 0.1314 0.7010
f 44/44/44 45/45/45 46/46/46 47/47/47
v 0.0681 0.0000 -0.0675
vt 0.5795 0.7863
vn 0.0000 -1.0000 0.0000
v 0.0681 0.0000 -0.1519
vt 0.5929 0.7863
vn 0.0000 -1.0000 0.0000
v 0.1525 0.0000 -0.0675
vt 0.5795 0.7863
vn 0.0000 -1.0000 0.0000
f 48/48/48 49/49/49 50/50/50
v 0.1482 0.0000 0.1519
vt 0.5128 0.7863
vn 0.0000 -1.0000 0.0000
v 0.0681 0.0000 0.1519
vt 0.5128 0.7863
vn 0.0000 -1.0000 0.0000
v 0.1525 0.0000 0.0675
vt 0.5261 0.7863
vn 0.0000 -1.0000 0.0000
v 0.1525 0.0000 0.1477
vt 0.5139 0.7863
vn 0.0000 -1.0000 0.0000
f 51/51/51 52/52/52 53/53/53 54/54/54
v -0.1513 0.0000 -0.0675
vt 0.5795 0.8140
vn 0.0000 -0.0933 0.9956
v -0.0669 0.0000 -0.0675
vt 0.5795 0.8140
vn 0.0000 -0.0933 0.9956
v -0.0500 0.1800 -0.0506
vt 0.5751 0.8909
vn 0.0000 -0.0933 0.9956
v -0.1344 0.1800 -0.0506
vt 0.5751 0.8909
vn 0.0000 -0.0933 0.9956
f 55/55/55 56/56/56 57/57/57 58/58/58
v -0.0669 0.0000 -0.0675
vt 0.5795 0.8140
vn 0.9956 -0.0933 0.0000
v -0.0669 0.0000 -0.1519
vt 0.5929 0.8140
vn 0.9956 -0.0933 0.0000
v -0.0500 0.1800 -0.1350
vt 0.5884 0.8909
vn 0.9956 -0.0933 0.0000
v -0.0500 0.1800 -0.0506
vt 0.5751 0.8909
vn 0.9956 -0.0933 0.0000
f 59/59/59 60/60/60 61/61/61 62/62/62
v -0.1513 0.0000 -0.1477
vt 0.5917 0.8140
vn -0.9956 0.0933 0.0000
v -0.1513 0.0000 -0.0675
vt 0.5795 0.8140
vn -0.9956 0.0933 0.0000
v -0.1344 0.1800 -0.0506
vt 0.5751 0.8909
vn -0.9956 0.0933 0.0000
v -0.1344 0.1800 -0.1308
vt 0.5873 0.8909
vn -0.9956 0.0933 0.0000
f 63/63/63 64/64/64 65/65/65 66/66/66
v -0.0669 0.0000 -0.1519
vt 0.5929 0.8140
vn 0.0000 0.0933 -0.9956
v -0.1471 0.0000 -0.1519
vt 0.5929 0.8140
vn 0.0000 0.0933 -0.9956
v -0.1302 0.1800 -0.1350
vt 0.5884 0.8909
vn 0.0000 0.0933 -0.9956
v -0.0500 0.1800 -0.1350
vt 0.5884 0.8909
vn 0.0000 0.0933 -0.9956
f 67/67/67 68/68/68 69/69/69 70/70/70
v -0.0669 0.0000 0.1519
vt 0.5128 0.7863
vn 0.0000 -1.0000 0.0000
v -0.1513 0.0000 0.0675
vt 0.5261 0.7863
vn 0.0000 -1.0000 0.0000
v -0.0669 0.0000 0.0675
vt 0.5261 0.7863
vn 0.0000 -1.0000 0.0000
f 71/71/71 72/72/72 73/73/73
v -0.1513 0.0000 0.0675
vt 0.5261 0.8140
vn -0.9956 0.0933 0.0000
v -0.1513 0.0000 0.1477
vt 0.5139 0.8140
vn -0.9956 0.0933 0.0000
v -0.1344 0.1800 0.1308
vt 0.5183 0.8909
vn -0.9956 0.0933 0.0000
v -0.1344 0.1800 0.0506
vt 0.5306 0.8909
vn -0.9956 0.0933 0.0000
f 74/74/74 75/75/75 76/76/76 77/77/77
v -0.0669 0.0000 0.1519
vt 0.5128 0.8140
vn 0.9956 -0.0933 0.0000
v -0.0669 0.0000 0.0675
vt 0.5261 0.8140
vn 0.9956 -0.0933 0.0000
v -0.0500 0.1800 0.0506
vt 0.5306 0.8909
vn 0.9956 -0.0933 0.0000
v -0.0500 0.1800 0.1350
vt 0.5172 0.8909
vn 0.9956 -0.0933 0.0000
f 78/78/78 79/79/79 80/80/80 81/81/81
v -0.0669 0.0000 0.0675
vt 0.5261 0.8140
vn 0.0000 -0.0933 -0.9956
v -0.1513 0.0000 0.0675
vt 0.5261 0.8140
vn 0.0000 -0.0933 -0.9956
v -0.1344 0.1800 0.0506
vt 0.5306 0.8909
vn 0.0000 -0.0933 -0.9956
v -0.0500 0.1800 0.0506
vt 0.5306 0.8909
vn 0.0000 -0.0933 -0.9956
f 82/82/82 83/83/83 84/84/84 85/85/85
v -0.1471 0.0000 0.1519
vt 0.5128 0.8140
vn 0.0000 0.0933 0.9956
v -0.0669 0.0000 0.1519
vt 0.5128 0.8140
vn 0.0000 0.0933 0.9956
v -0.0500 0.1800 0.1350
vt 0.5172 0.8909
vn 0.0000 0.0933 0.9956
v -0.1302 0.1800 0.1350
vt 0.5172 0.8909
vn 0.0000 0.0933 0.9956
f 86/86/86 87/87/87 88/88/88 89/89/89
v -0.0669 0.0000 -0.1519
vt 0.5929 0.7863
vn 0.0000 -1.0000 0.0000
v -0.1513 0.0000 -0.0675
vt 0.5795 0.7863
vn 0.0000 -1.0000 0.0000
v -0.1513 0.0000 -0.1477
vt 0.5917 0.7863
vn 0.0000 -1.0000 0.0000
v -0.1471 0.0000 -0.1519
vt 0.5929 0.7863
vn 0.0000 -1.0000 0.0000
f 90/90/90 91/91/91 92/92/92 93/93/93
v -0.1344 0.1800 -0.1308
vt 0.5873 0.9324
vn -0.7010 0.1314 -0.7010
v -0.1302 0.1800 -0.1350
vt 0.5884 0.9324
vn -0.7010 0.1314 -0.7010
v -0.1471 0.0000 -0.1519
vt 0.5929 0.8555
vn -0.7010 0.1314 -0.7010
v -0.1513 0.0000 -0.1477
vt 0.5917 0.8555
vn -0.7010 0.1314 -0.7010
f 94/94/94 95/95/95 96/96/96 97/97/97
v -0.1513 0.0000 0.1477
vt 0.5139 0.8555
vn -0.7010 0.1314 0.7010
v -0.1471 0.0000 0.1519
vt 0.5128 0.8555
vn -0.7010 0.1314 0.7010
v -0.1302 0.1800 0.1350
vt 0.5172 0.9324
vn -0.7010 0.1314 0.7010
v -0.1344 0.1800 0.1308
vt 0.5183 0.9324
vn -0.7010 0.1314 0.7010
f 98/98/98 99/99/99 100/100/100 101/101/101
v -0.0669 0.0000 -0.0675
vt 0.5795 0.7863
vn 0.0000 -1.0000 0.0000
v -0.1513 0.0000 -0.0675
vt 0.5795 0.7863
vn 0.0000 -1.0000 0.0000
v -0.0669 0.0000 -0.1519
vt 0.5929 0.7863
vn 0.0000 -1.0000 0.0000
f 102/102/102 103/103/103 104/104/104
v -0.1471 0.0000 0.1519
vt 0.5128 0.7863
vn 0.0000 -1.0000 0.0000
v -0.1513 0.0000 0.1477
vt 0.5139 0.7863
vn 0.0000 -1.0000 0.0000
v -0.1513 0.0000 0.0675
vt 0.5261 0.7863
vn 0.0000 -1.0000 0.0000
v -0.0669 0.0000 0.1519
vt 0.5128 0.7863
vn 0.0000 -1.0000 0.0000
f 105/105/105 106/106/106 107/107/107 108/108/108
v -0.1007 0.0450 0.1181
vt 0.5217 0.8332
vn 1.0000 0.0000 0.0000
v -0.1007 0.0450 -0.1181
vt 0.5840 0.8332
vn 1.0000 0.0000 0.0000
v -0.1007 0.0900 -0.1181
vt 0.5840 0.8524
vn 1.0000 0.0000 0.0000
v -0.1007 0.0900 0.1181
vt 0.5217 0.8524
vn 1.0000 0.0000 0.0000
f 109/109/109 110/110/110 111/111/111 112/112/112
v -0.1007 0.0900 -0.1181
vt 0.5840 0.8801
vn 0.0000 1.0000 0.0000
v -0.1302 0.0900 -0.1181
vt 0.5840 0.8801
vn 0.0000 1.0000 0.0000
v -0.1302 0.0900 0.1181
vt 0.5217 0.8801
vn 0.0000 1.0000 0.0000
v -0.1007 0.0900 0.1181
vt 0.5217 0.8801
vn 0.0000 1.0000 0.0000
f 113/113/113 114/114/114 115/115/115 116/116/116
v -0.1007 0.0450 0.1181
vt 0.5217 0.8055
vn 0.0000 -1.0000 0.0000
v -0.1344 0.0450 0.1181
vt 0.5217 0.8055
vn 0.0000 -1.0000 0.0000
v -0.1344 0.0450 -0.1181
vt 0.5840 0.8055
vn 0.0000 -1.0000 0.0000
v -0.1007 0.0450 -0.1181
vt 0.5840 0.8055
vn 0.0000 -1.0000 0.0000
f 117/117/117 118/118/118 119/119/119 120/120/120
v 0.1314 0.0900 -0.1181
vt 0.5840 0.8801
vn 0.0000 1.0000 0.0000
v 0.1018 0.0900 -0.1181
vt 0.5840 0.8801
vn 0.0000 1.0000 0.0000
v 0.1018 0.0900 0.1181
vt 0.5217 0.8801
vn 0.0000 1.0000 0.0000
v 0.1314 0.0900 0.1181
vt 0.5217 0.8801
vn 0.0000 1.0000 0.0000
f 121/121/121 122/122/122 123/123/123 124/124/124
v 0.1018 0.0450 -0.1181
vt 0.5840 0.8332
vn -1.0000 0.0000 0.0000
v 0.1018 0.0450 0.1181
vt 0.5217 0.8332
vn -1.0000 0.0000 0.0000
v 0.1018 0.0900 0.1181
vt 0.5217 0.8524
vn -1.0000 0.0000 0.0000
v 0.1018 0.0900 -0.1181
vt 0.5840 0.8524
vn -1.0000 0.0000 0.0000
f 125/125/125 126/126/126 127/127/127 128/128/128
v 0.1356 0.0450 0.1181
vt 0.5217 0.8055
vn 0.0000 -1.0000 0.0000
v 0.1018 0.0450 0.1181
vt 0.5217 0.8055
vn 0.0000 -1.0000 0.0000
v 0.1018 0.0450 -0.1181
vt 0.5840 0.8055
vn 0.0000 -1.0000 0.0000
v 0.1356 0.0450 -0.1181
vt 0.5840 0.8055
vn 0.0000 -1.0000 0.0000
f 129/129/129 130/130/130 131/131/131 132/132/132
v 0.1356 0.0450 0.1181
vt 0.5217 0.8332
vn 1.0000 0.0000 0.0000
v 0.1356 0.0450 -0.1181
vt 0.5840 0.8332
vn 1.0000 0.0000 0.0000
v 0.1356 0.0844 -0.1181
vt 0.5840 0.8500
vn 0.9487 0.3162 0.0000
v 0.1356 0.0844 0.1181
vt 0.5217 0.8500
vn 0.9487 0.3162 0.0000
f 133/133/133 134/134/134 135/135/135 136/136/136
v -0.1302 0.0900 -0.1181
vt 0.5840 0.8940
vn -0.8000 0.6000 0.0000
v -0.1344 0.0844 -0.1181
vt 0.5840 0.8916
vn -0.9487 0.3162 0.0000
v -0.1344 0.0844 0.1181
vt 0.5217 0.8916
vn -0.9487 0.3162 0.0000
v -0.1302 0.0900 0.1181
vt 0.5217 0.8940
vn -0.8000 0.6000 0.0000
f 137/137/137 138/138/138 139/139/139 140/140/140
v 0.1314 0.0900 0.1181
vt 0.5217 0.8940
vn 0.8000 0.6000 0.0000
v 0.1356 0.0844 0.1181
vt 0.5217 0.8916
vn 0.9487 0.3162 0.0000
v 0.1356 0.0844 -0.1181
vt 0.5840 0.8916
vn 0.9487 0.3162 0.0000
v 0.1314 0.0900 -0.1181
vt 0.5840 0.8940
vn 0.8000 0.6000 0.0000
f 141/141/141 142/142/142 143/143/143 144/144/144
v -0.1344 0.0450 -0.1181
vt 0.5840 0.8332
vn -1.0000 0.0000 0.0000
v -0.1344 0.0450 0.1181
vt 0.5217 0.8332
vn -1.0000 0.0000 0.0000
v -0.1344 0.0844 0.1181
vt 0.5217 0.8500
vn -0.9487 0.3162 0.0000
v -0.1344 0.0844 -0.1181
vt 0.5840 0.8500
vn -0.9487 0.3162 0.0000
f 145/145/145 146/146/146 147/147/147 148/148/148
v -0.0079 0.2250 -0.1603
vt 0.5317 0.9291
vn 0.5257 0.6689 -0.5257
v -0.0079 0.2250 0.1603
vt 0.5517 0.9291
vn 0.5257 0.6689 0.5257
v 0.0006 0.2137 0.1603
vt 0.5517 0.9180
vn 0.7687 0.5765 0.2769
v 0.0006 0.2137 -0.1603
vt 0.5317 0.9180
vn 0.7687 0.5765 -0.2769
f 149/149/149 150/150/150 151/151/151 152/152/152
v -0.1682 0.2137 0.1603
vt 0.5517 0.8921
vn -0.7069 -0.0253 0.7069
v -0.1597 0.1350 0.1659
vt 0.5517 0.8752
vn -0.7069 -0.0253 0.7069
v -0.1597 0.2137 0.1688
vt 0.5528 0.8921
vn -0.7069 -0.0253 0.7069
f 153/153/153 154/154/154 155/155/155
v 0.0006 0.2137 -0.1603
vt 0.5317 0.8921
vn 0.7059 0.0578 -0.7059
v 0.0000 0.1350 -0.1673
vt 0.5317 0.8752
vn 0.7059 0.0578 -0.7059
v -0.0079 0.2137 -0.1687
vt 0.5306 0.8921
vn 0.7059 0.0578 -0.7059
f 156/156/156 157/157/157 158/158/158
v -0.0079 0.2250 -0.1603
vt 0.5317 0.9760
vn 0.5257 0.6689 -0.5257
v 0.0006 0.2137 -0.1603
vt 0.5317 0.9649
vn 0.7687 0.5765 -0.2769
v -0.0079 0.2137 -0.1687
vt 0.5306 0.9649
vn 0.2769 0.5765 -0.7687
f 159/159/159 160/160/160 161/161/161
v -0.0079 0.2250 0.1603
vt 0.5517 0.9760
vn 0.5257 0.6689 0.5257
v -0.0079 0.2137 0.1688
vt 0.5528 0.9649
vn 0.2769 0.5765 0.7687
v 0.0006 0.2137 0.1603
vt 0.5517 0.9649
vn 0.7687 0.5765 0.2769
f 162/162/162 163/163/163 164/164/164
v -0.1597 0.2137 -0.1687
vt 0.5306 0.8921
vn 0.0000 0.0000 -1.0000
v -0.0754 0.2137 -0.1687
vt 0.5306 0.8921
vn 0.0049 -0.0042 -1.0000
v -0.0754 0.1350 -0.1688
vt 0.5317 0.8752
vn 0.0049 -0.0042 -1.0000
v -0.1597 0.1350 -0.1688
vt 0.5317 0.8752
vn 0.0000 0.0000 -1.0000
f 165/165/165 166/166/166 167/167/167 168/168/168
v 0.0000 0.1350 0.1673
vt 0.5517 0.8752
vn 0.7059 0.0578 0.7059
v 0.0006 0.2137 0.1603
vt 0.5517 0.8921
vn 0.7059 0.0578 0.7059
v -0.0079 0.2137 0.1688
vt 0.5528 0.8921
vn 0.7059 0.0578 0.7059
f 169/169/169 170/170/170 171/171/171
v -0.1597 0.2137 -0.1687
vt 0.5306 0.8921
vn -0.7071 0.0000 -0.7071
v -0.1597 0.1350 -0.1688
vt 0.5317 0.8752
vn -0.7071 0.0000 -0.7071
v -0.1682 0.2137 -0.1603
vt 0.5317 0.8921
vn -0.7071 0.0000 -0.7071
f 172/172/172 173/173/173 174/174/174
v -0.1597 0.2137 0.1688
vt 0.5528 0.9649
vn -0.2769 0.5765 0.7687
v -0.1597 0.2250 0.1603
vt 0.5517 0.9760
vn -0.5257 0.6689 0.5257
v -0.1682 0.2137 0.1603
vt 0.5517 0.9649
vn -0.7687 0.5765 0.2769
f 175/175/175 176/176/176 177/177/177
v -0.1682 0.2137 -0.1603
vt 0.5317 0.9649
vn -0.7687 0.5765 -0.2769
v -0.1597 0.2250 -0.1603
vt 0.5317 0.9760
vn -0.5257 0.6689 -0.5257
v -0.1597 0.2137 -0.1687
vt 0.5306 0.9649
vn -0.2769 0.5765 -0.7687
f 178/178/178 179/179/179 180/180/180
v -0.1597 0.1350 -0.1688
vt 0.5317 0.8752
vn -0.9943 -0.1065 0.0000
v -0.1597 0.1350 0.1659
vt 0.5517 0.8752
vn -0.9943 -0.1065 0.0000
v -0.1682 0.2137 0.1603
vt 0.5517 0.8921
vn -0.9943 -0.1065 0.0000
v -0.1682 0.2137 -0.1603
vt 0.5317 0.8921
vn -0.9943 -0.1065 0.0000
f 181/181/181 182/182/182 183/183/183 184/184/184
v -0.1597 0.2250 0.1603
vt 0.5517 0.9760
vn -0.5257 0.6689 0.5257
v -0.1597 0.2250 -0.1603
vt 0.5317 0.9760
vn -0.5257 0.6689 -0.5257
v -0.1682 0.2137 -0.1603
vt 0.5317 0.9649
vn -0.7687 0.5765 -0.2769
v -0.1682 0.2137 0.1603
vt 0.5517 0.9649
vn -0.7687 0.5765 0.2769
f 185/185/185 186/186/186 187/187/187 188/188/188
v -0.0754 0.2137 -0.1687
vt 0.5306 0.9649
vn 0.0000 0.6000 -0.8000
v -0.1597 0.2137 -0.1687
vt 0.5306 0.9649
vn -0.2769 0.5765 -0.7687
v -0.1597 0.2250 -0.1603
vt 0.5317 0.9760
vn -0.5257 0.6689 -0.5257
v -0.0754 0.2250 -0.1603
vt 0.5317 0.9673
vn 0.0000 0.6000 -0.8000
f 189/189/189 190/190/190 191/191/191 192/192/192
v -0.0754 0.2137 -0.1687
vt 0.5306 0.8921
vn 0.0049 -0.0042 -1.0000
v -0.0079 0.2137 -0.1687
vt 0.5306 0.8921
vn 0.0099 -0.0084 -0.9999
v 0.0000 0.1350 -0.1673
vt 0.5317 0.8752
vn 0.0099 -0.0084 -0.9999
v -0.0754 0.1350 -0.1688
vt 0.5317 0.8752
vn 0.0049 -0.0042 -1.0000
f 193/193/193 194/194/194 195/195/195 196/196/196
v -0.0963 0.2250 0.1603
vt 0.5517 0.9334
vn 0.0000 1.0000 0.0000
v -0.0754 0.2250 0.1461
vt 0.5489 0.9334
vn 0.0000 1.0000 0.0000
v -0.0754 0.2250 -0.1603
vt 0.5317 0.9334
vn 0.0000 1.0000 0.0000
f 197/197/197 198/198/198 199/199/199
v -0.0754 0.1350 -0.1688
vt 0.5317 0.8475
vn 0.0000 -1.0000 0.0000
v -0.0754 0.1350 0.1461
vt 0.5489 0.8475
vn 0.0000 -1.0000 0.0000
v -0.0963 0.1350 0.1659
vt 0.5517 0.8475
vn 0.0000 -1.0000 0.0000
f 200/200/200 201/201/201 202/202/202
v -0.0319 0.2250 0.1603
vt 0.5517 0.9334
vn 0.0000 1.0000 0.0000
v -0.0079 0.2250 0.1603
vt 0.5517 0.9334
vn 0.0000 1.0000 0.0000
v -0.0079 0.2250 -0.1603
vt 0.5317 0.9334
vn 0.0000 1.0000 0.0000
v -0.0754 0.2250 -0.1603
vt 0.5317 0.9334
vn 0.0000 1.0000 0.0000
f 203/203/203 204/204/204 205/205/205 206/206/206
v -0.0319 0.1350 0.1659
vt 0.5517 0.8752
vn -0.1998 -0.0471 0.9787
v 0.0000 0.1350 0.1673
vt 0.5517 0.8752
vn -0.0251 -0.0280 0.9993
v -0.0079 0.2137 0.1688
vt 0.5528 0.8921
vn -0.0251 -0.0280 0.9993
v -0.0319 0.2137 0.1688
vt 0.5528 0.8921
vn -0.1983 -0.0469 0.9790
f 207/207/207 208/208/208 209/209/209 210/210/210
v -0.0754 0.2137 0.1543
vt 0.5500 0.8505
vn -0.3665 -0.0645 0.9282
v -0.0754 0.1350 0.1461
vt 0.5489 0.8337
vn -0.3665 -0.0645 0.9282
v -0.0319 0.1350 0.1659
vt 0.5517 0.8337
vn -0.1998 -0.0471 0.9787
v -0.0319 0.2137 0.1688
vt 0.5528 0.8505
vn -0.1983 -0.0469 0.9790
f 211/211/211 212/212/212 213/213/213 214/214/214
v -0.0079 0.2137 -0.1687
vt 0.5306 0.9649
vn 0.2769 0.5765 -0.7687
v -0.0754 0.2137 -0.1687
vt 0.5306 0.9649
vn 0.0000 0.6000 -0.8000
v -0.0754 0.2250 -0.1603
vt 0.5317 0.9673
vn 0.0000 0.6000 -0.8000
v -0.0079 0.2250 -0.1603
vt 0.5317 0.9760
vn 0.5257 0.6689 -0.5257
f 215/215/215 216/216/216 217/217/217 218/218/218
v -0.1597 0.2250 0.1603
vt 0.5517 0.9334
vn 0.0000 1.0000 0.0000
v -0.0963 0.2250 0.1603
vt 0.5517 0.9334
vn 0.0000 1.0000 0.0000
v -0.0754 0.2250 -0.1603
vt 0.5317 0.9334
vn 0.0000 1.0000 0.0000
v -0.1597 0.2250 -0.1603
vt 0.5317 0.9334
vn 0.0000 1.0000 0.0000
f 219/219/219 220/220/220 221/221/221 222/222/222
v -0.0963 0.2250 0.1603
vt 0.5517 0.9673
vn 0.2738 0.5736 0.7720
v -0.1597 0.2250 0.1603
vt 0.5517 0.9760
vn -0.5257 0.6689 0.5257
v -0.1597 0.2137 0.1688
vt 0.5528 0.9649
vn -0.2769 0.5765 0.7687
v -0.0963 0.2137 0.1688
vt 0.5528 0.9649
vn 0.2181 0.5828 0.7828
f 223/223/223 224/224/224 225/225/225 226/226/226
v -0.0079 0.2250 0.1603
vt 0.5517 0.9760
vn 0.5257 0.6689 0.5257
v -0.0319 0.2250 0.1603
vt 0.5517 0.9673
vn -0.1368 0.5908 0.7952
v -0.0319 0.2137 0.1688
vt 0.5528 0.9649
vn -0.1212 0.5924 0.7965
v -0.0079 0.2137 0.1688
vt 0.5528 0.9649
vn 0.2769 0.5765 0.7687
f 227/227/227 228/228/228 229/229/229 230/230/230
v -0.0963 0.2250 0.1603
vt 0.5517 0.9950
vn 0.2738 0.5736 0.7720
v -0.0963 0.2137 0.1688
vt 0.5528 0.9926
vn 0.2181 0.5828 0.7828
v -0.0754 0.2137 0.1543
vt 0.5500 0.9926
vn 0.1384 0.5873 0.7975
v -0.0754 0.2250 0.1461
vt 0.5489 0.9950
vn 0.0987 0.5901 0.8013
f 231/231/231 232/232/232 233/233/233 234/234/234
v -0.0754 0.2250 0.1461
vt 0.5489 0.9257
vn 0.0987 0.5901 0.8013
v -0.0754 0.2137 0.1543
vt 0.5500 0.9233
vn 0.1384 0.5873 0.7975
v -0.0319 0.2137 0.1688
vt 0.5528 0.9233
vn -0.1212 0.5924 0.7965
v -0.0319 0.2250 0.1603
vt 0.5517 0.9257
vn -0.1368 0.5908 0.7952
f 235/235/235 236/236/236 237/237/237 238/238/238
v -0.0963 0.2137 0.1688
vt 0.5528 0.9198
vn 0.3338 -0.0474 0.9415
v -0.0963 0.1350 0.1659
vt 0.5517 0.9029
vn 0.3386 -0.0475 0.9397
v -0.0754 0.1350 0.1461
vt 0.5489 0.9029
vn 0.6328 -0.0537 0.7725
v -0.0754 0.2137 0.1543
vt 0.5500 0.9198
vn 0.6328 -0.0537 0.7725
f 239/239/239 240/240/240 241/241/241 242/242/242
v -0.1597 0.1350 0.1659
vt 0.5517 0.8752
vn 0.0000 -0.0357 0.9994
v -0.0963 0.1350 0.1659
vt 0.5517 0.8752
vn 0.3386 -0.0475 0.9397
v -0.0963 0.2137 0.1688
vt 0.5528 0.8921
vn 0.3338 -0.0474 0.9415
v -0.1597 0.2137 0.1688
vt 0.5528 0.8921
vn 0.0000 -0.0357 0.9994
f 243/243/243 244/244/244 245/245/245 246/246/246
v -0.0754 0.2250 0.1461
vt 0.5489 0.9334
vn 0.0000 1.0000 0.0000
v -0.0319 0.2250 0.1603
vt 0.5517 0.9334
vn 0.0000 1.0000 0.0000
v -0.0754 0.2250 -0.1603
vt 0.5317 0.9334
vn 0.0000 1.0000 0.0000
f 247/247/247 248/248/248 249/249/249
v -0.0754 0.1350 -0.1688
vt 0.5317 0.8475
vn 0.0000 -1.0000 0.0000
v -0.0319 0.1350 0.1659
vt 0.5517 0.8475
vn 0.0000 -1.0000 0.0000
v -0.0754 0.1350 0.1461
vt 0.5489 0.8475
vn 0.0000 -1.0000 0.0000
f 250/250/250 251/251/251 252/252/252
v 0.0000 0.1350 -0.1673
vt 0.5317 0.8475
vn 0.0000 -1.0000 0.0000
v 0.0000 0.1350 0.1673
vt 0.5517 0.8475
vn 0.0000 -1.0000 0.0000
v -0.0319 0.1350 0.1659
vt 0.5517 0.8475
vn 0.0000 -1.0000 0.0000
v -0.0754 0.1350 -0.1688
vt 0.5317 0.8475
vn 0.0000 -1.0000 0.0000
f 253/253/253 254/254/254 255/255/255 256/256/256
v -0.1597 0.1350 -0.1688
vt 0.5317 0.8475
vn 0.0000 -1.0000 0.0000
v -0.0754 0.1350 -0.1688
vt 0.5317 0.8475
vn 0.0000 -1.0000 0.0000
v -0.0963 0.1350 0.1659
vt 0.5517 0.8475
vn 0.0000 -1.0000 0.0000
v -0.1597 0.1350 0.1659
vt 0.5517 0.8475
vn 0.0000 -1.0000 0.0000
f 257/257/257 258/258/258 259/259/259 260/260/260
v 0.1693 0.2137 0.1603
vt 0.5317 0.8921
vn 0.9943 -0.1065 0.0000
v 0.1609 0.1350 0.1688
vt 0.5317 0.8752
vn 0.9943 -0.1065 0.0000
v 0.1609 0.1350 -0.1659
vt 0.5517 0.8752
vn 0.9943 -0.1065 0.0000
v 0.1693 0.2137 -0.1603
vt 0.5517 0.8921
vn 0.9943 -0.1065 0.0000
f 261/261/261 262/262/262 263/263/263 264/264/264
v 0.1609 0.2250 0.1603
vt 0.5317 0.9760
vn 0.5257 0.6689 0.5257
v 0.1693 0.2137 0.1603
vt 0.5317 0.9649
vn 0.7687 0.5765 0.2769
v 0.1693 0.2137 -0.1603
vt 0.5517 0.9649
vn 0.7687 0.5765 -0.2769
v 0.1609 0.2250 -0.1603
vt 0.5517 0.9760
vn 0.5257 0.6689 -0.5257
f 265/265/265 266/266/266 267/267/267 268/268/268
v 0.0006 0.2137 -0.1603
vt 0.5517 0.8139
vn -0.7055 0.0682 -0.7055
v 0.0090 0.2137 -0.1687
vt 0.5528 0.8921
vn -0.7055 0.0682 -0.7055
v 0.0000 0.1350 -0.1673
vt 0.5517 0.8752
vn -0.7055 0.0682 -0.7055
f 269/269/269 270/270/270 271/271/271
v 0.1693 0.2137 0.1603
vt 0.5317 0.8921
vn 0.7071 0.0000 0.7071
v 0.1609 0.2137 0.1688
vt 0.5306 0.8921
vn 0.7071 0.0000 0.7071
v 0.1609 0.1350 0.1688
vt 0.5317 0.8752
vn 0.7071 0.0000 0.7071
f 272/272/272 273/273/273 274/274/274
v 0.1609 0.2250 0.1603
vt 0.5317 0.9760
vn 0.5257 0.6689 0.5257
v 0.1609 0.2137 0.1688
vt 0.5306 0.9649
vn 0.2769 0.5765 0.7687
v 0.1693 0.2137 0.1603
vt 0.5317 0.9649
vn 0.7687 0.5765 0.2769
f 275/275/275 276/276/276 277/277/277
v 0.1609 0.2250 -0.1603
vt 0.5517 0.9760
vn 0.5257 0.6689 -0.5257
v 0.1693 0.2137 -0.1603
vt 0.5517 0.9649
vn 0.7687 0.5765 -0.2769
v 0.1609 0.2137 -0.1687
vt 0.5528 0.9649
vn 0.2769 0.5765 -0.7687
f 278/278/278 279/279/279 280/280/280
v 0.0090 0.2137 0.1688
vt 0.5306 0.8921
vn -0.0079 -0.0085 0.9999
v 0.0000 0.1350 0.1673
vt 0.5317 0.8752
vn -0.0079 -0.0085 0.9999
v 0.0934 0.1350 0.1688
vt 0.5317 0.8752
vn -0.0040 -0.0042 1.0000
v 0.0934 0.2137 0.1688
vt 0.5306 0.8921
vn -0.0040 -0.0042 1.0000
f 281/281/281 282/282/282 283/283/283 284/284/284
v 0.1609 0.1350 -0.1659
vt 0.5517 0.8752
vn 0.7069 -0.0253 -0.7069
v 0.1609 0.2137 -0.1687
vt 0.5528 0.8921
vn 0.7069 -0.0253 -0.7069
v 0.1693 0.2137 -0.1603
vt 0.5517 0.8921
vn 0.7069 -0.0253 -0.7069
f 285/285/285 286/286/286 287/287/287
v 0.0090 0.2137 0.1688
vt 0.5306 0.8921
vn -0.7055 0.0682 0.7055
v 0.0006 0.2137 0.1603
vt 0.5317 0.8139
vn -0.7055 0.0682 0.7055
v 0.0000 0.1350 0.1673
vt 0.5317 0.8752
vn -0.7055 0.0682 0.7055
f 288/288/288 289/289/289 290/290/290
v 0.0090 0.2137 -0.1687
vt 0.5528 0.9649
vn -0.2769 0.5765 -0.7687
v 0.0006 0.2137 -0.1603
vt 0.5517 0.8867
vn -0.7687 0.5765 -0.2769
v 0.0090 0.2250 -0.1603
vt 0.5517 0.9760
vn -0.5257 0.6689 -0.5257
f 291/291/291 292/292/292 293/293/293
v 0.0006 0.2137 0.1603
vt 0.5317 0.8867
vn -0.7687 0.5765 0.2769
v 0.0090 0.2137 0.1688
vt 0.5306 0.9649
vn -0.2769 0.5765 0.7687
v 0.0090 0.2250 0.1603
vt 0.5317 0.9760
vn -0.5257 0.6689 0.5257
f 294/294/294 295/295/295 296/296/296
v 0.0090 0.2250 -0.1603
vt 0.5517 0.9447
vn -0.5257 0.6689 -0.5257
v 0.0006 0.2137 -0.1603
vt 0.5517 0.8555
vn -0.7687 0.5765 -0.2769
v 0.0006 0.2137 0.1603
vt 0.5317 0.8555
vn -0.7687 0.5765 0.2769
v 0.0090 0.2250 0.1603
vt 0.5317 0.9447
vn -0.5257 0.6689 0.5257
f 297/297/297 298/298/298 299/299/299 300/300/300
v 0.0934 0.2137 0.1688
vt 0.5306 0.9649
vn 0.0000 0.6000 0.8000
v 0.0934 0.2250 0.1603
vt 0.5317 0.9673
vn 0.0000 0.6000 0.8000
v 0.0090 0.2250 0.1603
vt 0.5317 0.9760
vn -0.5257 0.6689 0.5257
v 0.0090 0.2137 0.1688
vt 0.5306 0.9649
vn -0.2769 0.5765 0.7687
f 301/301/301 302/302/302 303/303/303 304/304/304
v 0.0934 0.2137 0.1688
vt 0.5306 0.8921
vn -0.0040 -0.0042 1.0000
v 0.0934 0.1350 0.1688
vt 0.5317 0.8752
vn -0.0040 -0.0042 1.0000
v 0.1609 0.1350 0.1688
vt 0.5317 0.8752
vn 0.0000 0.0000 1.0000
v 0.1609 0.2137 0.1688
vt 0.5306 0.8921
vn 0.0000 0.0000 1.0000
f 305/305/305 306/306/306 307/307/307 308/308/308
v 0.0635 0.2250 -0.1603
vt 0.5517 0.9334
vn 0.0000 1.0000 0.0000
v 0.0934 0.2250 0.1603
vt 0.5317 0.9334
vn 0.0000 1.0000 0.0000
v 0.0934 0.2250 -0.1371
vt 0.5489 0.9334
vn 0.0000 1.0000 0.0000
f 309/309/309 310/310/310 311/311/311
v 0.0934 0.1350 0.1688
vt 0.5317 0.8475
vn 0.0000 -1.0000 0.0000
v 0.0635 0.1350 -0.1659
vt 0.5517 0.8475
vn 0.0000 -1.0000 0.0000
v 0.0934 0.1350 -0.1371
vt 0.5489 0.8475
vn 0.0000 -1.0000 0.0000
f 312/312/312 313/313/313 314/314/314
v 0.1233 0.2250 -0.1603
vt 0.5517 0.9334
vn 0.0000 1.0000 0.0000
v 0.0934 0.2250 0.1603
vt 0.5317 0.9334
vn 0.0000 1.0000 0.0000
v 0.1609 0.2250 0.1603
vt 0.5317 0.9334
vn 0.0000 1.0000 0.0000
v 0.1609 0.2250 -0.1603
vt 0.5517 0.9334
vn 0.0000 1.0000 0.0000
f 315/315/315 316/316/316 317/317/317 318/318/318
v 0.1233 0.1350 -0.1659
vt 0.5517 0.8752
vn -0.3536 -0.0471 -0.9342
v 0.1233 0.2137 -0.1687
vt 0.5528 0.8921
vn -0.3483 -0.0469 -0.9362
v 0.1609 0.2137 -0.1687
vt 0.5528 0.8921
vn 0.0000 -0.0357 -0.9994
v 0.1609 0.1350 -0.1659
vt 0.5517 0.8752
vn 0.0000 -0.0357 -0.9994
f 319/319/319 320/320/320 321/321/321 322/322/322
v 0.0934 0.2137 -0.1453
vt 0.5500 0.8505
vn -0.6570 -0.0523 -0.7521
v 0.1233 0.2137 -0.1687
vt 0.5528 0.8505
vn -0.3483 -0.0469 -0.9362
v 0.1233 0.1350 -0.1659
vt 0.5517 0.8337
vn -0.3536 -0.0471 -0.9342
v 0.0934 0.1350 -0.1371
vt 0.5489 0.8337
vn -0.6570 -0.0523 -0.7521
f 323/323/323 324/324/324 325/325/325 326/326/326
v 0.1609 0.2137 0.1688
vt 0.5306 0.9649
vn 0.2769 0.5765 0.7687
v 0.1609 0.2250 0.1603
vt 0.5317 0.9760
vn 0.5257 0.6689 0.5257
v 0.0934 0.2250 0.1603
vt 0.5317 0.9673
vn 0.0000 0.6000 0.8000
v 0.0934 0.2137 0.1688
vt 0.5306 0.9649
vn 0.0000 0.6000 0.8000
f 327/327/327 328/328/328 329/329/329 330/330/330
v 0.0090 0.2250 -0.1603
vt 0.5517 0.9334
vn 0.0000 1.0000 0.0000
v 0.0090 0.2250 0.1603
vt 0.5317 0.9334
vn 0.0000 1.0000 0.0000
v 0.0934 0.2250 0.1603
vt 0.5317 0.9334
vn 0.0000 1.0000 0.0000
v 0.0635 0.2250 -0.1603
vt 0.5517 0.9334
vn 0.0000 1.0000 0.0000
f 331/331/331 332/332/332 333/333/333 334/334/334
v 0.0635 0.2250 -0.1603
vt 0.5517 0.9673
vn 0.3061 0.5678 -0.7642
v 0.0635 0.2137 -0.1687
vt 0.5528 0.9649
vn 0.2385 0.5800 -0.7789
v 0.0090 0.2137 -0.1687
vt 0.5528 0.9649
vn -0.2769 0.5765 -0.7687
v 0.0090 0.2250 -0.1603
vt 0.5517 0.9760
vn -0.5257 0.6689 -0.5257
f 335/335/335 336/336/336 337/337/337 338/338/338
v 0.1609 0.2250 -0.1603
vt 0.5517 0.9760
vn 0.5257 0.6689 -0.5257
v 0.1609 0.2137 -0.1687
vt 0.5528 0.9649
vn 0.2769 0.5765 -0.7687
v 0.1233 0.2137 -0.1687
vt 0.5528 0.9649
vn -0.2385 0.5800 -0.7789
v 0.1233 0.2250 -0.1603
vt 0.5517 0.9673
vn -0.3061 0.5678 -0.7642
f 339/339/339 340/340/340 341/341/341 342/342/342
v 0.0635 0.2250 -0.1603
vt 0.5517 0.9950
vn 0.3061 0.5678 -0.7642
v 0.0934 0.2250 -0.1371
vt 0.5489 0.9950
vn 0.5317 0.5022 -0.6820
v 0.0934 0.2137 -0.1453
vt 0.5500 0.9926
vn 0.5317 0.5022 -0.6820
v 0.0635 0.2137 -0.1687
vt 0.5528 0.9926
vn 0.2385 0.5800 -0.7789
f 343/343/343 344/344/344 345/345/345 346/346/346
v 0.0934 0.2250 -0.1371
vt 0.5489 0.9257
vn -0.5317 0.5022 -0.6820
v 0.1233 0.2250 -0.1603
vt 0.5517 0.9257
vn -0.3061 0.5678 -0.7642
v 0.1233 0.2137 -0.1687
vt 0.5528 0.9233
vn -0.2385 0.5800 -0.7789
v 0.0934 0.2137 -0.1453
vt 0.5500 0.9233
vn -0.5317 0.5022 -0.6820
f 347/347/347 348/348/348 349/349/349 350/350/350
v 0.0635 0.2137 -0.1687
vt 0.5528 0.9198
vn 0.3540 -0.0424 -0.9343
v 0.0934 0.2137 -0.1453
vt 0.5500 0.9198
vn 0.6570 -0.0523 -0.7521
v 0.0934 0.1350 -0.1371
vt 0.5489 0.9029
vn 0.6570 -0.0523 -0.7521
v 0.0635 0.1350 -0.1659
vt 0.5517 0.9029
vn 0.3592 -0.0426 -0.9323
f 351/351/351 352/352/352 353/353/353 354/354/354
v 0.0000 0.1350 -0.1673
vt 0.5517 0.8752
vn 0.0119 -0.0275 -0.9996
v 0.0090 0.2137 -0.1687
vt 0.5528 0.8921
vn 0.0119 -0.0275 -0.9996
v 0.0635 0.2137 -0.1687
vt 0.5528 0.8921
vn 0.3540 -0.0424 -0.9343
v 0.0635 0.1350 -0.1659
vt 0.5517 0.8752
vn 0.3592 -0.0426 -0.9323
f 355/355/355 356/356/356 357/357/357 358/358/358
v 0.0934 0.2250 -0.1371
vt 0.5489 0.9334
vn 0.0000 1.0000 0.0000
v 0.0934 0.2250 0.1603
vt 0.5317 0.9334
vn 0.0000 1.0000 0.0000
v 0.1233 0.2250 -0.1603
vt 0.5517 0.9334
vn 0.0000 1.0000 0.0000
f 359/359/359 360/360/360 361/361/361
v 0.0934 0.1350 0.1688
vt 0.5317 0.8475
vn 0.0000 -1.0000 0.0000
v 0.0934 0.1350 -0.1371
vt 0.5489 0.8475
vn 0.0000 -1.0000 0.0000
v 0.1233 0.1350 -0.1659
vt 0.5517 0.8475
vn 0.0000 -1.0000 0.0000
f 362/362/362 363/363/363 364/364/364
v 0.1609 0.1350 0.1688
vt 0.5317 0.8475
vn 0.0000 -1.0000 0.0000
v 0.0934 0.1350 0.1688
vt 0.5317 0.8475
vn 0.0000 -1.0000 0.0000
v 0.1233 0.1350 -0.1659
vt 0.5517 0.8475
vn 0.0000 -1.0000 0.0000
v 0.1609 0.1350 -0.1659
vt 0.5517 0.8475
vn 0.0000 -1.0000 0.0000
f 365/365/365 366/366/366 367/367/367 368/368/368
v 0.0000 0.1350 0.1673
vt 0.5317 0.8475
vn 0.0000 -1.0000 0.0000
v 0.0000 0.1350 -0.1673
vt 0.5517 0.8475
vn 0.0000 -1.0000 0.0000
v 0.0635 0.1350 -0.1659
vt 0.5517 0.8475
vn 0.0000 -1.0000 0.0000
v 0.0934 0.1350 0.1688
vt 0.5317 0.8475
vn 0.0000 -1.0000 0.0000
f 369/369/369 370/370/370 371/371/371 372/372/372
