# Blender 4.5.13 LTS
# www.blender.org
o bark
v 0.300000 0.000000 0.000000
v 0.242705 0.000000 -0.176336
v 0.092705 0.000000 -0.285317
v -0.092705 0.000000 -0.285317
v -0.242705 0.000000 -0.176336
v -0.300000 0.000000 -0.000000
v -0.242705 0.000000 0.176336
v -0.092705 0.000000 0.285317
v 0.092705 0.000000 0.285317
v 0.242705 0.000000 0.176336
v 0.210000 0.080000 0.000000
v 0.169894 0.080000 -0.123435
v 0.064894 0.080000 -0.199722
v -0.064894 0.080000 -0.199722
v -0.169894 0.080000 -0.123435
v -0.210000 0.080000 -0.000000
v -0.169894 0.080000 0.123435
v -0.064894 0.080000 0.199722
v 0.064894 0.080000 0.199722
v 0.169894 0.080000 0.123435
v 0.180000 0.300000 0.000000
v 0.145623 0.300000 -0.105801
v 0.055623 0.300000 -0.171190
v -0.055623 0.300000 -0.171190
v -0.145623 0.300000 -0.105801
v -0.180000 0.300000 -0.000000
v -0.145623 0.300000 0.105801
v -0.055623 0.300000 0.171190
v 0.055623 0.300000 0.171190
v 0.145623 0.300000 0.105801
v 0.000000 0.300000 -0.170000
v 0.000000 0.310000 -0.170000
v 0.099923 0.300000 -0.137533
v 0.099923 0.310000 -0.137533
v 0.161680 0.300000 -0.052533
v 0.161680 0.310000 -0.052533
v 0.161680 0.300000 0.052533
v 0.161680 0.310000 0.052533
v 0.099923 0.300000 0.137533
v 0.099923 0.310000 0.137533
v 0.000000 0.300000 0.170000
v 0.000000 0.310000 0.170000
v -0.099923 0.300000 0.137533
v -0.099923 0.310000 0.137533
v -0.161680 0.300000 0.052533
v -0.161680 0.310000 0.052533
v -0.161680 0.300000 -0.052533
v -0.161680 0.310000 -0.052533
v -0.099923 0.300000 -0.137533
v -0.099923 0.310000 -0.137533
vn 0.6644 0.7474 -0.0000
vn 0.5375 0.7474 -0.3905
vn 0.7000 0.5014 -0.5086
vn 0.8652 0.5014 -0.0000
vn 0.2053 0.7474 -0.6318
vn 0.2674 0.5014 -0.8229
vn -0.2053 0.7474 -0.6318
vn -0.2674 0.5014 -0.8229
vn -0.5375 0.7474 -0.3905
vn -0.7000 0.5014 -0.5086
vn -0.6644 0.7474 -0.0000
vn -0.8652 0.5014 -0.0000
vn -0.5375 0.7474 0.3905
vn -0.7000 0.5014 0.5086
vn -0.2053 0.7474 0.6318
vn -0.2674 0.5014 0.8229
vn 0.2053 0.7474 0.6318
vn 0.2674 0.5014 0.8229
vn 0.5375 0.7474 0.3905
vn 0.7000 0.5014 0.5086
vn 0.8016 0.1351 -0.5824
vn 0.9908 0.1351 -0.0000
vn 0.3062 0.1351 -0.9423
vn -0.3062 0.1351 -0.9423
vn -0.8016 0.1351 -0.5824
vn -0.9908 0.1351 -0.0000
vn -0.8016 0.1351 0.5824
vn -0.3062 0.1351 0.9423
vn 0.3062 0.1351 0.9423
vn 0.8016 0.1351 0.5824
vn 0.3090 -0.0000 -0.9511
vn 0.8090 -0.0000 -0.5878
vn 1.0000 -0.0000 -0.0000
vn 0.8090 -0.0000 0.5878
vn 0.3090 -0.0000 0.9511
vn -0.3090 -0.0000 0.9511
vn -0.8090 -0.0000 0.5878
vn -1.0000 -0.0000 -0.0000
vn -0.0000 1.0000 -0.0000
vn -0.8090 -0.0000 -0.5878
vn -0.3090 -0.0000 -0.9511
vn -0.0000 -1.0000 -0.0000
vt 0.557551 0.383928
vt 0.451207 0.530298
vt 0.399587 0.459249
vt 0.474027 0.356790
vt 0.279139 0.586206
vt 0.279139 0.498384
vt 0.107072 0.530298
vt 0.158692 0.459249
vt 0.000728 0.383928
vt 0.084252 0.356790
vt 0.000728 0.203006
vt 0.084252 0.230144
vt 0.107072 0.056636
vt 0.158692 0.127686
vt 0.279139 0.000728
vt 0.279139 0.088550
vt 0.451207 0.056636
vt 0.399587 0.127686
vt 0.557551 0.203006
vt 0.474027 0.230144
vt 0.999272 0.787630
vt 0.995798 0.908077
vt 0.779868 0.890871
vt 0.782845 0.787630
vt 0.445314 0.587662
vt 0.448788 0.708110
vt 0.232362 0.708110
vt 0.229384 0.604869
vt 0.445314 0.828557
vt 0.229384 0.811350
vt 0.215359 0.587662
vt 0.224454 0.662103
vt 0.008524 0.679310
vt 0.000728 0.615504
vt 0.227928 0.782550
vt 0.011502 0.782550
vt 0.224454 0.902998
vt 0.008524 0.885791
vt 0.215359 0.977438
vt 0.000728 0.949597
vt 0.774937 0.667183
vt 0.778411 0.787630
vt 0.561985 0.787630
vt 0.559007 0.684390
vt 0.774937 0.908077
vt 0.559007 0.890871
vt 0.995798 0.667183
vt 0.779868 0.684390
vt 0.465314 0.773128
vt 0.455594 0.773128
vt 0.455594 0.670605
vt 0.465314 0.670605
vt 0.450245 0.587662
vt 0.459964 0.587662
vt 0.509540 0.690185
vt 0.499821 0.690185
vt 0.499821 0.587662
vt 0.509540 0.587662
vt 0.476490 0.856071
vt 0.466770 0.856071
vt 0.472120 0.773128
vt 0.481839 0.773128
vt 0.472120 0.670605
vt 0.481839 0.670605
vt 0.466770 0.587662
vt 0.476490 0.587662
vt 0.493015 0.856071
vt 0.483296 0.856071
vt 0.488645 0.773128
vt 0.498364 0.773128
vt 0.488645 0.670605
vt 0.498364 0.670605
vt 0.619269 0.300818
vt 0.559007 0.217875
vt 0.559007 0.115352
vt 0.619269 0.032410
vt 0.716774 0.000728
vt 0.814278 0.032410
vt 0.874540 0.115352
vt 0.874540 0.217875
vt 0.814278 0.300818
vt 0.716774 0.332499
vt 0.483296 0.587662
vt 0.493015 0.587662
vt 0.459964 0.856071
vt 0.450245 0.856071
vt 0.559007 0.551102
vt 0.559007 0.448580
vt 0.619269 0.365637
vt 0.716774 0.333956
vt 0.814278 0.365637
vt 0.874540 0.448580
vt 0.874540 0.551102
vt 0.814278 0.634045
vt 0.716774 0.665726
vt 0.619269 0.634045
s 1
f 1/1/1 2/2/2 12/3/3 11/4/4
f 2/2/2 3/5/5 13/6/6 12/3/3
f 3/5/5 4/7/7 14/8/8 13/6/6
f 4/7/7 5/9/9 15/10/10 14/8/8
f 5/9/9 6/11/11 16/12/12 15/10/10
f 6/11/11 7/13/13 17/14/14 16/12/12
f 7/13/13 8/15/15 18/16/16 17/14/14
f 8/15/15 9/17/17 19/18/18 18/16/16
f 9/17/17 10/19/19 20/20/20 19/18/18
f 10/19/19 1/1/1 11/4/4 20/20/20
f 11/21/4 12/22/3 22/23/21 21/24/22
f 12/25/3 13/26/6 23/27/23 22/28/21
f 13/26/6 14/29/8 24/30/24 23/27/23
f 14/31/8 15/32/10 25/33/25 24/34/24
f 15/32/10 16/35/12 26/36/26 25/33/25
f 16/35/12 17/37/14 27/38/27 26/36/26
f 17/37/14 18/39/16 28/40/28 27/38/27
f 18/41/16 19/42/18 29/43/29 28/44/28
f 19/42/18 20/45/20 30/46/30 29/43/29
f 20/47/20 11/21/4 21/24/22 30/48/30
s 0
f 31/49/31 32/50/31 34/51/31 33/52/31
f 33/52/32 34/51/32 36/53/32 35/54/32
f 35/55/33 36/56/33 38/57/33 37/58/33
f 37/59/34 38/60/34 40/61/34 39/62/34
f 39/62/35 40/61/35 42/63/35 41/64/35
f 41/64/36 42/63/36 44/65/36 43/66/36
f 43/67/37 44/68/37 46/69/37 45/70/37
f 45/70/38 46/69/38 48/71/38 47/72/38
f 34/73/39 32/74/39 50/75/39 48/76/39 46/77/39 44/78/39 42/79/39 40/80/39 38/81/39 36/82/39
f 47/72/40 48/71/40 50/83/40 49/84/40
f 49/85/41 50/86/41 32/50/41 31/49/41
f 31/87/42 33/88/42 35/89/42 37/90/42 39/91/42 41/92/42 43/93/42 45/94/42 47/95/42 49/96/42
