# Blender 4.5.13 LTS
# www.blender.org
o planks
v 0.000000 0.500000 -0.550000
v 0.000000 0.560000 -0.550000
v 0.210476 0.500000 -0.508134
v 0.210476 0.560000 -0.508134
v 0.388909 0.500000 -0.388909
v 0.388909 0.560000 -0.388909
v 0.508134 0.500000 -0.210476
v 0.508134 0.560000 -0.210476
v 0.550000 0.500000 0.000000
v 0.550000 0.560000 0.000000
v 0.508134 0.500000 0.210476
v 0.508134 0.560000 0.210476
v 0.388909 0.500000 0.388909
v 0.388909 0.560000 0.388909
v 0.210476 0.500000 0.508134
v 0.210476 0.560000 0.508134
v 0.000000 0.500000 0.550000
v 0.000000 0.560000 0.550000
v -0.210476 0.500000 0.508134
v -0.210476 0.560000 0.508134
v -0.388909 0.500000 0.388909
v -0.388909 0.560000 0.388909
v -0.508134 0.500000 0.210476
v -0.508134 0.560000 0.210476
v -0.550000 0.500000 0.000000
v -0.550000 0.560000 0.000000
v -0.508134 0.500000 -0.210476
v -0.508134 0.560000 -0.210476
v -0.388909 0.500000 -0.388909
v -0.388909 0.560000 -0.388909
v -0.210476 0.500000 -0.508134
v -0.210476 0.560000 -0.508134
v 0.000000 0.100000 -0.560000
v 0.000000 0.520000 -0.560000
v 0.214303 0.100000 -0.517373
v 0.214303 0.520000 -0.517373
v 0.395980 0.100000 -0.395980
v 0.395980 0.520000 -0.395980
v 0.517373 0.100000 -0.214303
v 0.517373 0.520000 -0.214303
v 0.560000 0.100000 0.000000
v 0.560000 0.520000 0.000000
v 0.517373 0.100000 0.214303
v 0.517373 0.520000 0.214303
v 0.395980 0.100000 0.395980
v 0.395980 0.520000 0.395980
v 0.214303 0.100000 0.517373
v 0.214303 0.520000 0.517373
v 0.000000 0.100000 0.560000
v 0.000000 0.520000 0.560000
v -0.214303 0.100000 0.517373
v -0.214303 0.520000 0.517373
v -0.395980 0.100000 0.395980
v -0.395980 0.520000 0.395980
v -0.517373 0.100000 0.214303
v -0.517373 0.520000 0.214303
v -0.560000 0.100000 0.000000
v -0.560000 0.520000 0.000000
v -0.517373 0.100000 -0.214303
v -0.517373 0.520000 -0.214303
v -0.395980 0.100000 -0.395980
v -0.395980 0.520000 -0.395980
v -0.214303 0.100000 -0.517373
v -0.214303 0.520000 -0.517373
v 0.000000 0.000000 -0.080000
v 0.000000 0.500000 -0.080000
v 0.056569 0.000000 -0.056569
v 0.056569 0.500000 -0.056569
v 0.080000 0.000000 0.000000
v 0.080000 0.500000 0.000000
v 0.056569 0.000000 0.056569
v 0.056569 0.500000 0.056569
v 0.000000 0.000000 0.080000
v 0.000000 0.500000 0.080000
v -0.056569 0.000000 0.056569
v -0.056569 0.500000 0.056569
v -0.080000 0.000000 0.000000
v -0.080000 0.500000 0.000000
v -0.056569 0.000000 -0.056569
v -0.056569 0.500000 -0.056569
v 0.257897 0.560000 -0.139037
v 0.257897 0.680000 -0.139037
v 0.283878 0.560000 -0.124037
v 0.283878 0.680000 -0.124037
v 0.283878 0.560000 -0.094037
v 0.283878 0.680000 -0.094037
v 0.257897 0.560000 -0.079037
v 0.257897 0.680000 -0.079037
v 0.231916 0.560000 -0.094037
v 0.231916 0.680000 -0.094037
v 0.231916 0.560000 -0.124037
v 0.231916 0.680000 -0.124037
v 0.257897 0.680000 -0.121037
v 0.257897 0.710000 -0.110037
v 0.269310 0.680000 -0.112745
v 0.258848 0.710000 -0.109346
v 0.264951 0.680000 -0.099329
v 0.258485 0.710000 -0.108228
v 0.250844 0.680000 -0.099329
v 0.257309 0.710000 -0.108228
v 0.246484 0.680000 -0.112745
v 0.256946 0.710000 -0.109346
v -0.223377 0.560000 -0.198827
v -0.223377 0.680000 -0.198827
v -0.197397 0.560000 -0.183827
v -0.197397 0.680000 -0.183827
v -0.197397 0.560000 -0.153827
v -0.197397 0.680000 -0.153827
v -0.223377 0.560000 -0.138827
v -0.223377 0.680000 -0.138827
v -0.249358 0.560000 -0.153827
v -0.249358 0.680000 -0.153827
v -0.249358 0.560000 -0.183827
v -0.249358 0.680000 -0.183827
v -0.223377 0.680000 -0.180827
v -0.223377 0.710000 -0.169827
v -0.211965 0.680000 -0.172535
v -0.222426 0.710000 -0.169136
v -0.216324 0.680000 -0.159119
v -0.222790 0.710000 -0.168018
v -0.230431 0.680000 -0.159119
v -0.223965 0.710000 -0.168018
v -0.234790 0.680000 -0.172535
v -0.224329 0.710000 -0.169136
v -0.034520 0.560000 0.247864
v -0.034520 0.680000 0.247864
v -0.008539 0.560000 0.262864
v -0.008539 0.680000 0.262864
v -0.008539 0.560000 0.292864
v -0.008539 0.680000 0.292864
v -0.034520 0.560000 0.307864
v -0.034520 0.680000 0.307864
v -0.060500 0.560000 0.292864
v -0.060500 0.680000 0.292864
v -0.060500 0.560000 0.262864
v -0.060500 0.680000 0.262864
v -0.034520 0.680000 0.265864
v -0.034520 0.710000 0.276864
v -0.023107 0.680000 0.274156
v -0.033569 0.710000 0.277555
v -0.027466 0.680000 0.287572
v -0.033932 0.710000 0.278673
v -0.041573 0.680000 0.287572
v -0.035107 0.710000 0.278673
v -0.045932 0.680000 0.274156
v -0.035471 0.710000 0.277555
vn 0.1951 -0.0000 -0.9808
vn 0.5556 -0.0000 -0.8315
vn 0.8315 -0.0000 -0.5556
vn 0.9808 -0.0000 -0.1951
vn 0.9808 -0.0000 0.1951
vn 0.8315 -0.0000 0.5556
vn 0.5556 -0.0000 0.8315
vn 0.1951 -0.0000 0.9808
vn -0.1951 -0.0000 0.9808
vn -0.5556 -0.0000 0.8315
vn -0.8315 -0.0000 0.5556
vn -0.9808 -0.0000 0.1951
vn -0.9808 -0.0000 -0.1951
vn -0.8315 -0.0000 -0.5556
vn -0.0000 1.0000 -0.0000
vn -0.5556 -0.0000 -0.8315
vn -0.1951 -0.0000 -0.9808
vn -0.0000 -1.0000 -0.0000
vn 0.3827 -0.0000 -0.9239
vn 0.9239 -0.0000 -0.3827
vn 0.9239 -0.0000 0.3827
vn 0.3827 -0.0000 0.9239
vn -0.3827 -0.0000 0.9239
vn -0.9239 -0.0000 0.3827
vn -0.9239 -0.0000 -0.3827
vn -0.3827 -0.0000 -0.9239
vn 0.5000 -0.0000 -0.8660
vn 1.0000 -0.0000 -0.0000
vn 0.5000 -0.0000 0.8660
vn -0.5000 -0.0000 0.8660
vn -1.0000 -0.0000 -0.0000
vn -0.5000 -0.0000 -0.8660
vn 0.5635 0.2844 -0.7756
vn 0.9118 0.2844 0.2963
vn -0.0000 0.2844 0.9587
vn -0.9118 0.2844 0.2963
vn -0.5635 0.2844 -0.7756
vt 0.879190 0.135835
vt 0.906084 0.135474
vt 0.906084 0.230130
vt 0.879190 0.230491
vt 0.908673 0.324604
vt 0.881779 0.324965
vt 0.913457 0.404514
vt 0.886564 0.404875
vt 0.994043 0.273994
vt 0.967158 0.273756
vt 0.969898 0.180932
vt 0.996783 0.181170
vt 0.969898 0.085186
vt 0.996783 0.085424
vt 0.967158 0.001095
vt 0.994043 0.001332
vt 0.993765 0.756159
vt 0.966873 0.755697
vt 0.970677 0.664979
vt 0.997569 0.665442
vt 0.972013 0.568673
vt 0.998905 0.569136
vt 0.970677 0.481442
vt 0.997569 0.481905
vt 0.966873 0.416566
vt 0.993765 0.417028
vt 0.906455 0.765188
vt 0.879569 0.765034
vt 0.883530 0.680992
vt 0.910417 0.681145
vt 0.884921 0.585256
vt 0.911808 0.585409
vt 0.883530 0.492402
vt 0.910417 0.492555
vt 0.879569 0.416565
vt 0.906455 0.416719
vt 0.037996 0.380782
vt 0.001095 0.291695
vt 0.001095 0.195267
vt 0.037996 0.106180
vt 0.106180 0.037996
vt 0.195267 0.001095
vt 0.291695 0.001095
vt 0.380782 0.037996
vt 0.448966 0.106180
vt 0.485867 0.195267
vt 0.485867 0.291695
vt 0.448966 0.380782
vt 0.380782 0.448966
vt 0.291695 0.485867
vt 0.195267 0.485867
vt 0.106180 0.448966
vt 0.886564 0.001456
vt 0.913457 0.001095
vt 0.908673 0.055048
vt 0.881779 0.055409
vt 0.001095 0.778657
vt 0.001095 0.682229
vt 0.037996 0.593142
vt 0.106180 0.524958
vt 0.195267 0.488057
vt 0.291695 0.488057
vt 0.380782 0.524958
vt 0.448966 0.593142
vt 0.485867 0.682229
vt 0.485867 0.778657
vt 0.448966 0.867744
vt 0.380782 0.935928
vt 0.291695 0.972829
vt 0.195267 0.972829
vt 0.106180 0.935928
vt 0.037996 0.867744
vt 0.488057 0.140444
vt 0.676313 0.137918
vt 0.676313 0.234294
vt 0.488057 0.236821
vt 0.678949 0.330486
vt 0.490693 0.333013
vt 0.683820 0.411849
vt 0.495565 0.414376
vt 0.874210 0.280377
vt 0.686010 0.278714
vt 0.688800 0.184202
vt 0.877000 0.185865
vt 0.688800 0.086715
vt 0.877000 0.088378
vt 0.686010 0.001095
vt 0.874210 0.002758
vt 0.872146 0.765103
vt 0.683901 0.761863
vt 0.687774 0.669495
vt 0.876019 0.672736
vt 0.689135 0.571439
vt 0.877379 0.574679
vt 0.687774 0.482622
vt 0.876019 0.485862
vt 0.683901 0.416565
vt 0.872146 0.419806
vt 0.676261 0.772442
vt 0.488057 0.771370
vt 0.492090 0.685800
vt 0.680295 0.686871
vt 0.493507 0.588323
vt 0.681711 0.589395
vt 0.492090 0.493781
vt 0.680295 0.494852
vt 0.488057 0.416566
vt 0.676261 0.417637
vt 0.495565 0.003622
vt 0.683820 0.001095
vt 0.678949 0.056029
vt 0.490693 0.058556
vt 0.703431 0.992762
vt 0.703431 0.768627
vt 0.730943 0.768620
vt 0.730943 0.992754
vt 0.913998 0.640622
vt 0.913998 0.416566
vt 0.938529 0.417484
vt 0.938529 0.641540
vt 0.964683 0.416854
vt 0.964683 0.640911
vt 0.915647 0.226078
vt 0.915647 0.001944
vt 0.942859 0.002223
vt 0.942859 0.226357
vt 0.964968 0.001095
vt 0.964968 0.225229
vt 0.913997 0.868075
vt 0.913997 0.644019
vt 0.940151 0.644648
vt 0.940151 0.868705
vt 0.705465 0.348988
vt 0.686010 0.329533
vt 0.686010 0.302021
vt 0.705465 0.282566
vt 0.732977 0.282566
vt 0.752431 0.302021
vt 0.752431 0.329533
vt 0.732977 0.348988
vt 0.964683 0.643730
vt 0.964683 0.867787
vt 0.683901 0.991427
vt 0.683901 0.767293
vt 0.754621 0.329533
vt 0.754621 0.302021
vt 0.774076 0.282566
vt 0.801588 0.282566
vt 0.821042 0.302021
vt 0.821042 0.329533
vt 0.801588 0.348988
vt 0.774076 0.348988
vt 0.792579 0.405704
vt 0.792579 0.351912
vt 0.805937 0.351787
vt 0.805937 0.405579
vt 0.803818 0.821066
vt 0.803818 0.767293
vt 0.817258 0.767369
vt 0.817258 0.821143
vt 0.686010 0.405359
vt 0.686010 0.351567
vt 0.698970 0.351823
vt 0.698970 0.405615
vt 0.708662 0.351177
vt 0.708662 0.404969
vt 0.527035 0.794852
vt 0.515361 0.801592
vt 0.503687 0.794852
vt 0.503687 0.781372
vt 0.515361 0.774632
vt 0.527035 0.781372
vt 0.756928 0.821143
vt 0.756928 0.767369
vt 0.770368 0.767293
vt 0.770368 0.821066
vt 0.784331 0.404970
vt 0.784331 0.351177
vt 0.540899 0.801592
vt 0.529225 0.794852
vt 0.529225 0.781372
vt 0.540899 0.774632
vt 0.552573 0.781372
vt 0.552573 0.794852
vt 0.671916 0.804352
vt 0.674020 0.790623
vt 0.674534 0.790623
vt 0.678074 0.804352
vt 0.539519 0.817526
vt 0.541649 0.803782
vt 0.542162 0.803782
vt 0.545681 0.817526
vt 0.605839 0.817512
vt 0.607925 0.803782
vt 0.608437 0.803782
vt 0.611989 0.817512
vt 0.686823 0.413948
vt 0.686513 0.414376
vt 0.686010 0.414212
vt 0.686010 0.413684
vt 0.686513 0.413521
vt 0.580301 0.817526
vt 0.583819 0.803782
vt 0.584333 0.803782
vt 0.586463 0.817526
vt 0.668589 0.803925
vt 0.673743 0.790587
vt 0.513441 0.808910
vt 0.509715 0.814038
vt 0.503687 0.812079
vt 0.503687 0.805741
vt 0.509715 0.803782
vt 0.768784 0.405704
vt 0.768784 0.351912
vt 0.782141 0.351787
vt 0.782141 0.405579
vt 0.772558 0.821066
vt 0.772558 0.767293
vt 0.785998 0.767369
vt 0.785998 0.821143
vt 0.710852 0.405359
vt 0.710852 0.351567
vt 0.723812 0.351823
vt 0.723812 0.405615
vt 0.733504 0.351177
vt 0.733504 0.404970
vt 0.603649 0.794852
vt 0.591975 0.801592
vt 0.580301 0.794852
vt 0.580301 0.781372
vt 0.591975 0.774632
vt 0.603649 0.781372
vt 0.788188 0.821143
vt 0.788188 0.767369
vt 0.801628 0.767293
vt 0.801628 0.821066
vt 0.760536 0.404970
vt 0.760536 0.351177
vt 0.617513 0.801592
vt 0.605839 0.794852
vt 0.605839 0.781372
vt 0.617513 0.774632
vt 0.629187 0.781372
vt 0.629187 0.794852
vt 0.671916 0.788397
vt 0.674020 0.774667
vt 0.674534 0.774667
vt 0.678074 0.788397
vt 0.656915 0.804331
vt 0.659045 0.790587
vt 0.659558 0.790587
vt 0.663077 0.804331
vt 0.597498 0.817512
vt 0.599584 0.803782
vt 0.600097 0.803782
vt 0.603649 0.817512
vt 0.686513 0.410477
vt 0.686823 0.410904
vt 0.686513 0.411331
vt 0.686010 0.411168
vt 0.686010 0.410640
vt 0.547871 0.817526
vt 0.551390 0.803782
vt 0.551903 0.803782
vt 0.554033 0.817526
vt 0.668589 0.787970
vt 0.673743 0.774632
vt 0.521659 0.814038
vt 0.515631 0.812079
vt 0.515631 0.805740
vt 0.521659 0.803782
vt 0.525385 0.808910
vt 0.741381 0.821819
vt 0.741381 0.768027
vt 0.754739 0.767902
vt 0.754739 0.821695
vt 0.808127 0.404951
vt 0.808127 0.351177
vt 0.821567 0.351254
vt 0.821567 0.405027
vt 0.735694 0.405359
vt 0.735694 0.351567
vt 0.748654 0.351823
vt 0.748654 0.405615
vt 0.758346 0.351177
vt 0.758346 0.404970
vt 0.643051 0.801592
vt 0.631377 0.794852
vt 0.631377 0.781372
vt 0.643051 0.774632
vt 0.654725 0.781372
vt 0.654725 0.794852
vt 0.488057 0.828482
vt 0.488057 0.774708
vt 0.501497 0.774632
vt 0.501497 0.828405
vt 0.733133 0.821085
vt 0.733133 0.767293
vt 0.578111 0.794852
vt 0.566437 0.801592
vt 0.554763 0.794852
vt 0.554763 0.781372
vt 0.566437 0.774632
vt 0.578111 0.781372
vt 0.660241 0.788397
vt 0.662346 0.774667
vt 0.662859 0.774667
vt 0.666399 0.788397
vt 0.556223 0.817526
vt 0.558353 0.803782
vt 0.558867 0.803782
vt 0.562386 0.817526
vt 0.589158 0.817512
vt 0.591244 0.803782
vt 0.591756 0.803782
vt 0.595308 0.817512
vt 0.689515 0.410476
vt 0.689826 0.410904
vt 0.689515 0.411331
vt 0.689013 0.411168
vt 0.689013 0.410640
vt 0.571948 0.817526
vt 0.575467 0.803782
vt 0.575981 0.803782
vt 0.578111 0.817526
vt 0.656915 0.787970
vt 0.662069 0.774632
vt 0.533603 0.814038
vt 0.527575 0.812079
vt 0.527575 0.805741
vt 0.533603 0.803782
vt 0.537329 0.808910
s 0
f 1/1/1 2/2/1 4/3/1 3/4/1
f 3/4/2 4/3/2 6/5/2 5/6/2
f 5/6/3 6/5/3 8/7/3 7/8/3
f 7/9/4 8/10/4 10/11/4 9/12/4
f 9/12/5 10/11/5 12/13/5 11/14/5
f 11/14/6 12/13/6 14/15/6 13/16/6
f 13/17/7 14/18/7 16/19/7 15/20/7
f 15/20/8 16/19/8 18/21/8 17/22/8
f 17/22/9 18/21/9 20/23/9 19/24/9
f 19/24/10 20/23/10 22/25/10 21/26/10
f 21/27/11 22/28/11 24/29/11 23/30/11
f 23/30/12 24/29/12 26/31/12 25/32/12
f 25/32/13 26/31/13 28/33/13 27/34/13
f 27/34/14 28/33/14 30/35/14 29/36/14
f 4/37/15 2/38/15 32/39/15 30/40/15 28/41/15 26/42/15 24/43/15 22/44/15 20/45/15 18/46/15 16/47/15 14/48/15 12/49/15 10/50/15 8/51/15 6/52/15
f 29/53/16 30/54/16 32/55/16 31/56/16
f 31/56/17 32/55/17 2/2/17 1/1/17
f 1/57/18 3/58/18 5/59/18 7/60/18 9/61/18 11/62/18 13/63/18 15/64/18 17/65/18 19/66/18 21/67/18 23/68/18 25/69/18 27/70/18 29/71/18 31/72/18
f 33/73/1 34/74/1 36/75/1 35/76/1
f 35/76/2 36/75/2 38/77/2 37/78/2
f 37/78/3 38/77/3 40/79/3 39/80/3
f 39/81/4 40/82/4 42/83/4 41/84/4
f 41/84/5 42/83/5 44/85/5 43/86/5
f 43/86/6 44/85/6 46/87/6 45/88/6
f 45/89/7 46/90/7 48/91/7 47/92/7
f 47/92/8 48/91/8 50/93/8 49/94/8
f 49/94/9 50/93/9 52/95/9 51/96/9
f 51/96/10 52/95/10 54/97/10 53/98/10
f 53/99/11 54/100/11 56/101/11 55/102/11
f 55/102/12 56/101/12 58/103/12 57/104/12
f 57/104/13 58/103/13 60/105/13 59/106/13
f 59/106/14 60/105/14 62/107/14 61/108/14
f 61/109/16 62/110/16 64/111/16 63/112/16
f 63/112/17 64/111/17 34/74/17 33/73/17
f 65/113/19 66/114/19 68/115/19 67/116/19
f 67/117/20 68/118/20 70/119/20 69/120/20
f 69/120/21 70/119/21 72/121/21 71/122/21
f 71/123/22 72/124/22 74/125/22 73/126/22
f 73/126/23 74/125/23 76/127/23 75/128/23
f 75/129/24 76/130/24 78/131/24 77/132/24
f 68/133/15 66/134/15 80/135/15 78/136/15 76/137/15 74/138/15 72/139/15 70/140/15
f 77/132/25 78/131/25 80/141/25 79/142/25
f 79/143/26 80/144/26 66/114/26 65/113/26
f 65/145/18 67/146/18 69/147/18 71/148/18 73/149/18 75/150/18 77/151/18 79/152/18
f 81/153/27 82/154/27 84/155/27 83/156/27
f 83/157/28 84/158/28 86/159/28 85/160/28
f 85/161/29 86/162/29 88/163/29 87/164/29
f 87/164/30 88/163/30 90/165/30 89/166/30
f 84/167/15 82/168/15 92/169/15 90/170/15 88/171/15 86/172/15
f 89/173/31 90/174/31 92/175/31 91/176/31
f 91/177/32 92/178/32 82/154/32 81/153/32
f 81/179/18 83/180/18 85/181/18 87/182/18 89/183/18 91/184/18
f 93/185/33 94/186/33 96/187/33 95/188/33
f 95/189/34 96/190/34 98/191/34 97/192/34
f 97/193/35 98/194/35 100/195/35 99/196/35
f 96/197/15 94/198/15 102/199/15 100/200/15 98/201/15
f 99/202/36 100/203/36 102/204/36 101/205/36
f 101/206/37 102/207/37 94/186/37 93/185/37
f 93/208/18 95/209/18 97/210/18 99/211/18 101/212/18
f 103/213/27 104/214/27 106/215/27 105/216/27
f 105/217/28 106/218/28 108/219/28 107/220/28
f 107/221/29 108/222/29 110/223/29 109/224/29
f 109/224/30 110/223/30 112/225/30 111/226/30
f 106/227/15 104/228/15 114/229/15 112/230/15 110/231/15 108/232/15
f 111/233/31 112/234/31 114/235/31 113/236/31
f 113/237/32 114/238/32 104/214/32 103/213/32
f 103/239/18 105/240/18 107/241/18 109/242/18 111/243/18 113/244/18
f 115/245/33 116/246/33 118/247/33 117/248/33
f 117/249/34 118/250/34 120/251/34 119/252/34
f 119/253/35 120/254/35 122/255/35 121/256/35
f 118/257/15 116/258/15 124/259/15 122/260/15 120/261/15
f 121/262/36 122/263/36 124/264/36 123/265/36
f 123/266/37 124/267/37 116/246/37 115/245/37
f 115/268/18 117/269/18 119/270/18 121/271/18 123/272/18
f 125/273/27 126/274/27 128/275/27 127/276/27
f 127/277/28 128/278/28 130/279/28 129/280/28
f 129/281/29 130/282/29 132/283/29 131/284/29
f 131/284/30 132/283/30 134/285/30 133/286/30
f 128/287/15 126/288/15 136/289/15 134/290/15 132/291/15 130/292/15
f 133/293/31 134/294/31 136/295/31 135/296/31
f 135/297/32 136/298/32 126/274/32 125/273/32
f 125/299/18 127/300/18 129/301/18 131/302/18 133/303/18 135/304/18
f 137/305/33 138/306/33 140/307/33 139/308/33
f 139/309/34 140/310/34 142/311/34 141/312/34
f 141/313/35 142/314/35 144/315/35 143/316/35
f 140/317/15 138/318/15 146/319/15 144/320/15 142/321/15
f 143/322/36 144/323/36 146/324/36 145/325/36
f 145/326/37 146/327/37 138/306/37 137/305/37
f 137/328/18 139/329/18 141/330/18 143/331/18 145/332/18
