# Blender 4.5.13 LTS
# www.blender.org
o canvas
v -0.662380 0.008470 0.700000
v -0.012380 0.958470 0.700000
v -0.662380 0.008470 -0.700000
v -0.012380 0.958470 -0.700000
v -0.637620 -0.008470 0.700000
v 0.012380 0.941530 0.700000
v -0.637620 -0.008470 -0.700000
v 0.012380 0.941530 -0.700000
v 0.637620 -0.008470 0.700000
v -0.012380 0.941530 0.700000
v 0.637620 -0.008470 -0.700000
v -0.012380 0.941530 -0.700000
v 0.662380 0.008470 0.700000
v 0.012380 0.958470 0.700000
v 0.662380 0.008470 -0.700000
v 0.012380 0.958470 -0.700000
v 0.000000 0.000000 0.670000
v 0.000000 1.000000 0.670000
v 0.025981 0.000000 0.685000
v 0.025981 1.000000 0.685000
v 0.025981 0.000000 0.715000
v 0.025981 1.000000 0.715000
v 0.000000 0.000000 0.730000
v 0.000000 1.000000 0.730000
v -0.025981 0.000000 0.715000
v -0.025981 1.000000 0.715000
v -0.025981 0.000000 0.685000
v -0.025981 1.000000 0.685000
v 0.000000 0.000000 -0.730000
v 0.000000 1.000000 -0.730000
v 0.025981 0.000000 -0.715000
v 0.025981 1.000000 -0.715000
v 0.025981 0.000000 -0.685000
v 0.025981 1.000000 -0.685000
v 0.000000 0.000000 -0.670000
v 0.000000 1.000000 -0.670000
v -0.025981 0.000000 -0.685000
v -0.025981 1.000000 -0.685000
v -0.025981 0.000000 -0.715000
v -0.025981 1.000000 -0.715000
v -0.020000 0.930000 0.750000
v -0.020000 0.970000 0.750000
v -0.020000 0.930000 -0.750000
v -0.020000 0.970000 -0.750000
v 0.020000 0.930000 0.750000
v 0.020000 0.970000 0.750000
v 0.020000 0.930000 -0.750000
v 0.020000 0.970000 -0.750000
vn -0.8253 0.5647 -0.0000
vn -0.0000 -0.0000 -1.0000
vn 0.8253 -0.5647 -0.0000
vn -0.0000 -0.0000 1.0000
vn -0.5647 -0.8253 -0.0000
vn 0.5647 0.8253 -0.0000
vn -0.8253 -0.5647 -0.0000
vn 0.8253 0.5647 -0.0000
vn 0.5647 -0.8253 -0.0000
vn -0.5647 0.8253 -0.0000
vn 0.5000 -0.0000 -0.8660
vn 1.0000 -0.0000 -0.0000
vn 0.5000 -0.0000 0.8660
vn -0.5000 -0.0000 0.8660
vn -0.0000 1.0000 -0.0000
vn -1.0000 -0.0000 -0.0000
vn -0.5000 -0.0000 -0.8660
vn -0.0000 -1.0000 -0.0000
vt 0.403463 0.999030
vt 0.000970 0.999030
vt 0.000971 0.500970
vt 0.403463 0.500971
vt 0.809837 0.946052
vt 0.809837 0.536546
vt 0.820510 0.536546
vt 0.820510 0.946052
vt 0.403463 0.499030
vt 0.000970 0.499029
vt 0.000970 0.000970
vt 0.403463 0.000970
vt 0.921624 0.910477
vt 0.921624 0.500970
vt 0.932297 0.500970
vt 0.932297 0.910477
vt 0.896763 0.000970
vt 0.907253 0.000970
vt 0.907253 0.499029
vt 0.896763 0.499029
vt 0.932114 0.499029
vt 0.921624 0.499029
vt 0.921624 0.000970
vt 0.932114 0.000970
vt 0.807896 0.499030
vt 0.405404 0.499030
vt 0.405404 0.000970
vt 0.807896 0.000970
vt 0.934238 0.910477
vt 0.934238 0.500970
vt 0.944911 0.500970
vt 0.944911 0.910477
vt 0.807896 0.999030
vt 0.405404 0.999029
vt 0.405404 0.500970
vt 0.807896 0.500970
vt 0.946486 0.410477
vt 0.946486 0.000970
vt 0.957159 0.000970
vt 0.957159 0.410477
vt 0.919683 0.499029
vt 0.909194 0.499029
vt 0.909194 0.000970
vt 0.919683 0.000970
vt 0.934055 0.000970
vt 0.944545 0.000970
vt 0.944545 0.499029
vt 0.934055 0.499029
vt 0.841146 0.356727
vt 0.841146 0.000970
vt 0.850389 0.000970
vt 0.850389 0.356727
vt 0.878092 0.788104
vt 0.878092 0.536546
vt 0.888765 0.536546
vt 0.888765 0.788104
vt 0.831903 0.714424
vt 0.831903 0.358668
vt 0.841146 0.358668
vt 0.841146 0.714424
vt 0.850389 0.358668
vt 0.850389 0.714424
vt 0.848437 0.741931
vt 0.848437 0.750369
vt 0.840170 0.752056
vt 0.831903 0.745306
vt 0.831903 0.736869
vt 0.840170 0.735181
vt 0.946852 0.752528
vt 0.946852 0.500970
vt 0.957524 0.500970
vt 0.957524 0.752528
vt 0.831903 0.356727
vt 0.831903 0.000970
vt 0.872756 0.794639
vt 0.894102 0.794639
vt 0.888765 0.801175
vt 0.878092 0.801175
vt 0.861572 0.356727
vt 0.861572 0.000970
vt 0.870815 0.000970
vt 0.870815 0.356727
vt 0.901379 0.788104
vt 0.901379 0.536546
vt 0.912051 0.536546
vt 0.912051 0.788104
vt 0.852329 0.714424
vt 0.852329 0.358668
vt 0.861572 0.358668
vt 0.861572 0.714424
vt 0.870815 0.358668
vt 0.870815 0.714424
vt 0.848437 0.723115
vt 0.848437 0.731553
vt 0.840170 0.733240
vt 0.831903 0.726490
vt 0.831903 0.718053
vt 0.840170 0.716365
vt 0.852329 0.967923
vt 0.852329 0.716365
vt 0.863002 0.716365
vt 0.863002 0.967923
vt 0.852329 0.356727
vt 0.852329 0.000970
vt 0.896042 0.794639
vt 0.917388 0.794639
vt 0.912051 0.801175
vt 0.901379 0.801175
vt 0.894822 0.534605
vt 0.884759 0.534605
vt 0.884759 0.000970
vt 0.894822 0.000970
vt 0.846133 0.768227
vt 0.831903 0.768227
vt 0.831903 0.753997
vt 0.846133 0.753997
vt 0.819900 0.534605
vt 0.809837 0.534605
vt 0.809837 0.000970
vt 0.819900 0.000970
vt 0.846133 0.784398
vt 0.831903 0.784398
vt 0.831903 0.770168
vt 0.846133 0.770168
vt 0.829962 0.534605
vt 0.829962 0.000970
vt 0.872756 0.000970
vt 0.882818 0.000970
vt 0.882818 0.534605
vt 0.872756 0.534605
s 0
f 1/1/1 2/2/1 4/3/1 3/4/1
f 3/5/2 4/6/2 8/7/2 7/8/2
f 7/9/3 8/10/3 6/11/3 5/12/3
f 5/13/4 6/14/4 2/15/4 1/16/4
f 3/17/5 7/18/5 5/19/5 1/20/5
f 8/21/6 4/22/6 2/23/6 6/24/6
f 9/25/7 10/26/7 12/27/7 11/28/7
f 11/29/2 12/30/2 16/31/2 15/32/2
f 15/33/8 16/34/8 14/35/8 13/36/8
f 13/37/4 14/38/4 10/39/4 9/40/4
f 11/41/9 15/42/9 13/43/9 9/44/9
f 16/45/10 12/46/10 10/47/10 14/48/10
f 17/49/11 18/50/11 20/51/11 19/52/11
f 19/53/12 20/54/12 22/55/12 21/56/12
f 21/57/13 22/58/13 24/59/13 23/60/13
f 23/60/14 24/59/14 26/61/14 25/62/14
f 20/63/15 18/64/15 28/65/15 26/66/15 24/67/15 22/68/15
f 25/69/16 26/70/16 28/71/16 27/72/16
f 27/73/17 28/74/17 18/50/17 17/49/17
f 17/75/18 19/53/18 21/56/18 23/76/18 25/77/18 27/78/18
f 29/79/11 30/80/11 32/81/11 31/82/11
f 31/83/12 32/84/12 34/85/12 33/86/12
f 33/87/13 34/88/13 36/89/13 35/90/13
f 35/90/14 36/89/14 38/91/14 37/92/14
f 32/93/15 30/94/15 40/95/15 38/96/15 36/97/15 34/98/15
f 37/99/16 38/100/16 40/101/16 39/102/16
f 39/103/17 40/104/17 30/80/17 29/79/17
f 29/105/18 31/83/18 33/86/18 35/106/18 37/107/18 39/108/18
f 41/109/16 42/110/16 44/111/16 43/112/16
f 43/113/2 44/114/2 48/115/2 47/116/2
f 47/117/12 48/118/12 46/119/12 45/120/12
f 45/121/4 46/122/4 42/123/4 41/124/4
f 43/125/18 47/117/18 45/120/18 41/126/18
f 48/127/15 44/128/15 42/129/15 46/130/15
