# Blender 4.5.13 LTS
# www.blender.org
o timber
v -0.270000 0.000000 0.270000
v -0.270000 0.420000 0.270000
v -0.270000 0.000000 0.220000
v -0.270000 0.420000 0.220000
v -0.220000 0.000000 0.270000
v -0.220000 0.420000 0.270000
v -0.220000 0.000000 0.220000
v -0.220000 0.420000 0.220000
v -0.270000 0.000000 -0.220000
v -0.270000 0.420000 -0.220000
v -0.270000 0.000000 -0.270000
v -0.270000 0.420000 -0.270000
v -0.220000 0.000000 -0.220000
v -0.220000 0.420000 -0.220000
v -0.220000 0.000000 -0.270000
v -0.220000 0.420000 -0.270000
v 0.220000 0.000000 0.270000
v 0.220000 0.420000 0.270000
v 0.220000 0.000000 0.220000
v 0.220000 0.420000 0.220000
v 0.270000 0.000000 0.270000
v 0.270000 0.420000 0.270000
v 0.270000 0.000000 0.220000
v 0.270000 0.420000 0.220000
v 0.220000 0.000000 -0.220000
v 0.220000 0.420000 -0.220000
v 0.220000 0.000000 -0.270000
v 0.220000 0.420000 -0.270000
v 0.270000 0.000000 -0.220000
v 0.270000 0.420000 -0.220000
v 0.270000 0.000000 -0.270000
v 0.270000 0.420000 -0.270000
v -0.275000 0.415000 0.275000
v -0.275000 0.465000 0.275000
v -0.275000 0.415000 -0.275000
v -0.275000 0.465000 -0.275000
v 0.275000 0.415000 0.275000
v 0.275000 0.465000 0.275000
v 0.275000 0.415000 -0.275000
v 0.275000 0.465000 -0.275000
v -0.275000 0.440000 -0.215000
v -0.275000 1.200000 -0.215000
v -0.275000 0.440000 -0.275000
v -0.275000 1.200000 -0.275000
v 0.275000 0.440000 -0.215000
v 0.275000 1.200000 -0.215000
v 0.275000 0.440000 -0.275000
v 0.275000 1.200000 -0.275000
v -0.235000 0.460000 0.245000
v -0.235000 0.520000 0.245000
v -0.235000 0.460000 -0.205000
v -0.235000 0.520000 -0.205000
v 0.235000 0.460000 0.245000
v 0.235000 0.520000 0.245000
v 0.235000 0.460000 -0.205000
v 0.235000 0.520000 -0.205000
v -0.225000 0.550000 -0.175000
v -0.225000 1.150000 -0.175000
v -0.225000 0.550000 -0.215000
v -0.225000 1.150000 -0.215000
v 0.225000 0.550000 -0.175000
v 0.225000 1.150000 -0.175000
v 0.225000 0.550000 -0.215000
v 0.225000 1.150000 -0.215000
v -0.305000 0.670000 0.275000
v -0.305000 0.730000 0.275000
v -0.305000 0.670000 -0.275000
v -0.305000 0.730000 -0.275000
v -0.245000 0.670000 0.275000
v -0.245000 0.730000 0.275000
v -0.245000 0.670000 -0.275000
v -0.245000 0.730000 -0.275000
v -0.267888 1.141300 -0.286056
v -0.251828 1.166722 -0.230287
v -0.311724 1.163647 -0.247756
v -0.314963 1.175063 -0.307348
v -0.259112 1.185233 -0.329814
v -0.220708 1.181410 -0.282064
v -0.291188 1.215046 -0.219153
v -0.334148 1.220253 -0.267304
v -0.298435 1.233655 -0.320219
v -0.238481 1.236150 -0.302093
v -0.231388 1.227215 -0.239698
v -0.282305 1.260287 -0.263645
v 0.245000 0.670000 0.275000
v 0.245000 0.730000 0.275000
v 0.245000 0.670000 -0.275000
v 0.245000 0.730000 -0.275000
v 0.305000 0.670000 0.275000
v 0.305000 0.730000 0.275000
v 0.305000 0.670000 -0.275000
v 0.305000 0.730000 -0.275000
v 0.269478 1.139070 -0.276478
v 0.312835 1.171328 -0.308316
v 0.319107 1.167232 -0.245327
v 0.259080 1.173904 -0.224995
v 0.216908 1.177149 -0.272676
v 0.253877 1.176684 -0.324742
v 0.333348 1.222952 -0.277334
v 0.296977 1.224259 -0.223246
v 0.235842 1.229675 -0.240518
v 0.232547 1.231539 -0.303561
v 0.291544 1.227120 -0.326967
v 0.280462 1.260263 -0.273538
vn -1.0000 -0.0000 -0.0000
vn -0.0000 -0.0000 -1.0000
vn 1.0000 -0.0000 -0.0000
vn -0.0000 -0.0000 1.0000
vn -0.0000 -1.0000 -0.0000
vn -0.0000 1.0000 -0.0000
vn -0.0800 -0.8981 0.4324
vn 0.6309 -0.7584 0.1640
vn -0.5383 -0.8326 -0.1302
vn -0.1639 -0.6795 -0.7151
vn 0.5796 -0.6303 -0.5166
vn 0.8624 -0.2205 0.4558
vn -0.2380 -0.3980 0.8860
vn -0.9269 -0.3746 -0.0214
vn -0.3548 -0.1040 -0.9291
vn 0.7800 0.0244 -0.6253
vn 0.3173 0.0402 0.9475
vn -0.7481 -0.0684 0.6601
vn -0.8367 0.1186 -0.5347
vn 0.2529 0.3816 -0.8891
vn 0.9560 0.2856 -0.0678
vn 0.1075 0.6863 0.7193
vn -0.5354 0.6433 0.5473
vn -0.5900 0.7823 -0.2000
vn 0.0980 0.8893 -0.4466
vn 0.5229 0.8501 0.0623
vn 0.5411 -0.8340 -0.1081
vn 0.1065 -0.7673 -0.6324
vn 0.1031 -0.8140 0.5716
vn -0.5167 -0.7539 0.4057
vn -0.5585 -0.7321 -0.3900
vn 0.2428 -0.2230 -0.9441
vn 0.9448 -0.3070 -0.1140
vn 0.2861 -0.2474 0.9257
vn -0.7471 -0.1298 0.6519
vn -0.8122 -0.0935 -0.5759
vn 0.7657 0.0788 -0.6383
vn 0.8263 0.1065 0.5531
vn -0.2553 0.1591 0.9537
vn -0.9501 0.3065 0.0587
vn -0.3458 0.2180 -0.9127
vn 0.5174 0.7711 -0.3710
vn 0.5557 0.7515 0.3555
vn -0.0994 0.7933 0.6006
vn -0.5377 0.8415 0.0530
vn -0.1539 0.8250 -0.5437
vt 0.833121 0.386266
vt 0.833121 0.195674
vt 0.855810 0.195675
vt 0.855810 0.386266
vt 0.859199 0.192258
vt 0.859199 0.001701
vt 0.881886 0.001694
vt 0.881886 0.192251
vt 0.885274 0.192264
vt 0.885274 0.001703
vt 0.907959 0.001694
vt 0.907959 0.192255
vt 0.885274 0.773992
vt 0.885274 0.583498
vt 0.907963 0.583504
vt 0.907963 0.773998
vt 0.574152 0.951285
vt 0.574152 0.973974
vt 0.551480 0.973981
vt 0.551480 0.951292
vt 0.499339 0.973974
vt 0.499339 0.951285
vt 0.522021 0.951289
vt 0.522021 0.973978
vt 0.807043 0.743573
vt 0.807043 0.552981
vt 0.829733 0.552982
vt 0.829733 0.743573
vt 0.859199 0.386210
vt 0.859199 0.195653
vt 0.881886 0.195646
vt 0.881886 0.386203
vt 0.859199 0.580167
vt 0.859199 0.389607
vt 0.881883 0.389598
vt 0.881883 0.580158
vt 0.911352 0.386076
vt 0.911352 0.195582
vt 0.934041 0.195588
vt 0.934041 0.386082
vt 0.600212 0.951285
vt 0.600212 0.973974
vt 0.577540 0.973981
vt 0.577540 0.951292
vt 0.447199 0.973974
vt 0.447199 0.951285
vt 0.469881 0.951289
vt 0.469881 0.973978
vt 0.807043 0.937553
vt 0.807043 0.746961
vt 0.829733 0.746962
vt 0.829733 0.937553
vt 0.833121 0.774170
vt 0.833121 0.583613
vt 0.855808 0.583606
vt 0.855808 0.774163
vt 0.859199 0.774125
vt 0.859199 0.583565
vt 0.881883 0.583556
vt 0.881883 0.774116
vt 0.911352 0.192188
vt 0.911352 0.001694
vt 0.934041 0.001700
vt 0.934041 0.192194
vt 0.626272 0.951285
vt 0.626272 0.973974
vt 0.603600 0.973981
vt 0.603600 0.951292
vt 0.525410 0.973974
vt 0.525410 0.951285
vt 0.548092 0.951289
vt 0.548092 0.973978
vt 0.833121 0.192286
vt 0.833121 0.001694
vt 0.855811 0.001695
vt 0.855811 0.192286
vt 0.833121 0.580218
vt 0.833121 0.389661
vt 0.855808 0.389655
vt 0.855808 0.580211
vt 0.885274 0.386222
vt 0.885274 0.195661
vt 0.907959 0.195652
vt 0.907959 0.386212
vt 0.885274 0.580104
vt 0.885274 0.389610
vt 0.907963 0.389616
vt 0.907963 0.580110
vt 0.652332 0.951285
vt 0.652332 0.973974
vt 0.629660 0.973981
vt 0.629660 0.951292
vt 0.473269 0.973975
vt 0.473269 0.951285
vt 0.495951 0.951289
vt 0.495951 0.973978
vt 0.745817 0.435024
vt 0.768506 0.435024
vt 0.768506 0.684611
vt 0.745817 0.684611
vt 0.768502 0.937567
vt 0.745816 0.937560
vt 0.745816 0.688000
vt 0.768502 0.688006
vt 0.799113 0.251234
vt 0.776427 0.251225
vt 0.776427 0.001694
vt 0.799113 0.001703
vt 0.776427 0.254628
vt 0.799105 0.254622
vt 0.799105 0.504203
vt 0.776427 0.504209
vt 0.503976 0.349974
vt 0.503976 0.599556
vt 0.254584 0.599628
vt 0.254584 0.350047
vt 0.001694 0.599557
vt 0.001694 0.349974
vt 0.251196 0.350017
vt 0.251196 0.599600
vt 0.416656 0.947896
vt 0.416656 0.603016
vt 0.443884 0.603017
vt 0.443884 0.947897
vt 0.001694 0.346586
vt 0.001694 0.001769
vt 0.251254 0.001694
vt 0.251254 0.346511
vt 0.447272 0.947851
vt 0.447272 0.603027
vt 0.474494 0.603016
vt 0.474494 0.947840
vt 0.254643 0.346397
vt 0.254643 0.001694
vt 0.504223 0.001759
vt 0.504223 0.346463
vt 0.742408 0.001694
vt 0.742408 0.251276
vt 0.715201 0.251284
vt 0.715201 0.001702
vt 0.539113 0.852599
vt 0.539113 0.603016
vt 0.566332 0.603021
vt 0.566332 0.852604
vt 0.776427 0.507597
vt 0.803655 0.507597
vt 0.803655 0.711804
vt 0.776427 0.711805
vt 0.773039 0.214963
vt 0.745816 0.214955
vt 0.745816 0.001694
vt 0.773039 0.001702
vt 0.803650 0.919366
vt 0.776427 0.919355
vt 0.776427 0.715193
vt 0.803650 0.715204
vt 0.745817 0.218358
vt 0.773030 0.218351
vt 0.773030 0.431629
vt 0.745817 0.431636
vt 0.413268 0.603016
vt 0.413268 0.816295
vt 0.209220 0.816355
vt 0.209220 0.603076
vt 0.001694 0.816296
vt 0.001694 0.603016
vt 0.205832 0.603052
vt 0.205832 0.816332
vt 0.807043 0.273968
vt 0.807043 0.001694
vt 0.825195 0.001694
vt 0.825195 0.273968
vt 0.507611 0.273979
vt 0.507611 0.001755
vt 0.711797 0.001694
vt 0.711797 0.273918
vt 0.807043 0.549593
vt 0.807043 0.277364
vt 0.825191 0.277356
vt 0.825191 0.549586
vt 0.507611 0.549502
vt 0.507611 0.277367
vt 0.711813 0.277421
vt 0.711813 0.549555
vt 0.929489 0.597066
vt 0.929489 0.801269
vt 0.911352 0.801274
vt 0.911352 0.597071
vt 0.911352 0.593674
vt 0.911352 0.389470
vt 0.929497 0.389473
vt 0.929497 0.593678
vt 0.477882 0.603017
vt 0.505109 0.603016
vt 0.505109 0.852603
vt 0.477882 0.852604
vt 0.382607 0.978518
vt 0.355385 0.978510
vt 0.355385 0.951285
vt 0.382607 0.951293
vt 0.658173 0.852558
vt 0.630950 0.852547
vt 0.630950 0.603016
vt 0.658173 0.603027
vt 0.385996 0.951292
vt 0.413209 0.951285
vt 0.413209 0.978512
vt 0.385996 0.978519
vt 0.742428 0.504072
vt 0.715201 0.504064
vt 0.715201 0.254672
vt 0.742428 0.254680
vt 0.596947 0.852518
vt 0.569720 0.852523
vt 0.569720 0.603021
vt 0.596947 0.603016
vt 0.067798 0.972413
vt 0.090470 0.958243
vt 0.090470 0.986562
vt 0.064235 0.951285
vt 0.065167 0.995569
vt 0.236709 0.996238
vt 0.211941 0.988160
vt 0.234946 0.976315
vt 0.048440 0.974104
vt 0.123194 0.997130
vt 0.125684 0.972475
vt 0.149545 0.987724
vt 0.179238 0.996901
vt 0.153808 0.987344
vt 0.177407 0.971504
vt 0.207676 0.961821
vt 0.207871 0.989361
vt 0.184168 0.975935
vt 0.211259 0.960633
vt 0.123194 0.951285
vt 0.148338 0.959231
vt 0.152934 0.958513
vt 0.182626 0.997933
vt 0.182626 0.951285
vt 0.236709 0.951285
vt 0.179238 0.951285
vt 0.918432 0.900383
vt 0.911352 0.872008
vt 0.929795 0.879808
vt 0.947238 0.900383
vt 0.955668 0.873237
vt 0.934150 0.854725
vt 0.508498 0.603017
vt 0.535725 0.603016
vt 0.535725 0.852603
vt 0.508498 0.852604
vt 0.351997 0.978518
vt 0.324775 0.978510
vt 0.324775 0.951285
vt 0.351997 0.951293
vt 0.688784 0.852558
vt 0.661562 0.852547
vt 0.661562 0.603016
vt 0.688784 0.603028
vt 0.416597 0.951292
vt 0.443811 0.951285
vt 0.443811 0.978512
vt 0.416597 0.978519
vt 0.742428 0.756860
vt 0.715201 0.756852
vt 0.715201 0.507460
vt 0.742428 0.507468
vt 0.627562 0.852518
vt 0.600335 0.852523
vt 0.600335 0.603021
vt 0.627562 0.603016
vt 0.025522 0.977121
vt 0.001694 0.974488
vt 0.018470 0.951285
vt 0.016828 0.997766
vt 0.045051 0.962406
vt 0.045051 0.991247
vt 0.297108 0.989861
vt 0.297196 0.963125
vt 0.321386 0.978305
vt 0.093859 0.988749
vt 0.094904 0.960195
vt 0.118863 0.973429
vt 0.292973 0.978445
vt 0.268694 0.991388
vt 0.268694 0.963311
vt 0.264334 0.974842
vt 0.265305 0.996576
vt 0.240146 0.988787
vt 0.265305 0.951285
vt 0.240097 0.960161
vt 0.119806 0.951285
vt 0.119806 0.998306
vt 0.293720 0.951285
vt 0.321386 0.951285
vt 0.955917 0.843284
vt 0.927626 0.851337
vt 0.937117 0.828034
vt 0.955917 0.813701
vt 0.928544 0.804662
vt 0.911352 0.827538
s 0
f 1/1/1 2/2/1 4/3/1 3/4/1
f 3/5/2 4/6/2 8/7/2 7/8/2
f 7/9/3 8/10/3 6/11/3 5/12/3
f 5/13/4 6/14/4 2/15/4 1/16/4
f 3/17/5 7/18/5 5/19/5 1/20/5
f 8/21/6 4/22/6 2/23/6 6/24/6
f 9/25/1 10/26/1 12/27/1 11/28/1
f 11/29/2 12/30/2 16/31/2 15/32/2
f 15/33/3 16/34/3 14/35/3 13/36/3
f 13/37/4 14/38/4 10/39/4 9/40/4
f 11/41/5 15/42/5 13/43/5 9/44/5
f 16/45/6 12/46/6 10/47/6 14/48/6
f 17/49/1 18/50/1 20/51/1 19/52/1
f 19/53/2 20/54/2 24/55/2 23/56/2
f 23/57/3 24/58/3 22/59/3 21/60/3
f 21/61/4 22/62/4 18/63/4 17/64/4
f 19/65/5 23/66/5 21/67/5 17/68/5
f 24/69/6 20/70/6 18/71/6 22/72/6
f 25/73/1 26/74/1 28/75/1 27/76/1
f 27/77/2 28/78/2 32/79/2 31/80/2
f 31/81/3 32/82/3 30/83/3 29/84/3
f 29/85/4 30/86/4 26/87/4 25/88/4
f 27/89/5 31/90/5 29/91/5 25/92/5
f 32/93/6 28/94/6 26/95/6 30/96/6
f 33/97/1 34/98/1 36/99/1 35/100/1
f 35/101/2 36/102/2 40/103/2 39/104/2
f 39/105/3 40/106/3 38/107/3 37/108/3
f 37/109/4 38/110/4 34/111/4 33/112/4
f 35/113/5 39/114/5 37/115/5 33/116/5
f 40/117/6 36/118/6 34/119/6 38/120/6
f 41/121/1 42/122/1 44/123/1 43/124/1
f 43/125/2 44/126/2 48/127/2 47/128/2
f 47/129/3 48/130/3 46/131/3 45/132/3
f 45/133/4 46/134/4 42/135/4 41/136/4
f 43/137/5 47/138/5 45/139/5 41/140/5
f 48/141/6 44/142/6 42/143/6 46/144/6
f 49/145/1 50/146/1 52/147/1 51/148/1
f 51/149/2 52/150/2 56/151/2 55/152/2
f 55/153/3 56/154/3 54/155/3 53/156/3
f 53/157/4 54/158/4 50/159/4 49/160/4
f 51/161/5 55/162/5 53/163/5 49/164/5
f 56/165/6 52/166/6 50/167/6 54/168/6
f 57/169/1 58/170/1 60/171/1 59/172/1
f 59/173/2 60/174/2 64/175/2 63/176/2
f 63/177/3 64/178/3 62/179/3 61/180/3
f 61/181/4 62/182/4 58/183/4 57/184/4
f 59/185/5 63/186/5 61/187/5 57/188/5
f 64/189/6 60/190/6 58/191/6 62/192/6
f 65/193/1 66/194/1 68/195/1 67/196/1
f 67/197/2 68/198/2 72/199/2 71/200/2
f 71/201/3 72/202/3 70/203/3 69/204/3
f 69/205/4 70/206/4 66/207/4 65/208/4
f 67/209/5 71/210/5 69/211/5 65/212/5
f 72/213/6 68/214/6 66/215/6 70/216/6
f 73/217/7 74/218/7 75/219/7
f 74/218/8 73/217/8 78/220/8
f 73/217/9 75/219/9 76/221/9
f 73/222/10 76/223/10 77/224/10
f 73/217/11 77/225/11 78/220/11
f 74/226/12 78/227/12 83/228/12
f 75/229/13 74/230/13 79/231/13
f 76/232/14 75/233/14 80/234/14
f 77/224/15 76/223/15 81/235/15
f 78/227/16 77/236/16 82/237/16
f 74/230/17 83/238/17 79/231/17
f 75/233/18 79/239/18 80/234/18
f 76/232/19 80/234/19 81/240/19
f 77/224/20 81/235/20 82/241/20
f 78/227/21 82/237/21 83/228/21
f 79/231/22 83/238/22 84/242/22
f 80/243/23 79/244/23 84/245/23
f 81/246/24 80/243/24 84/245/24
f 82/247/25 81/246/25 84/245/25
f 83/248/26 82/247/26 84/245/26
f 85/249/1 86/250/1 88/251/1 87/252/1
f 87/253/2 88/254/2 92/255/2 91/256/2
f 91/257/3 92/258/3 90/259/3 89/260/3
f 89/261/4 90/262/4 86/263/4 85/264/4
f 87/265/5 91/266/5 89/267/5 85/268/5
f 92/269/6 88/270/6 86/271/6 90/272/6
f 93/273/27 94/274/27 95/275/27
f 94/274/28 93/273/28 98/276/28
f 93/273/29 95/275/29 96/277/29
f 93/273/30 96/277/30 97/278/30
f 93/273/31 97/278/31 98/276/31
f 94/279/32 98/280/32 103/281/32
f 95/282/33 94/283/33 99/284/33
f 96/285/34 95/286/34 100/287/34
f 97/288/35 96/289/35 101/290/35
f 98/291/36 97/288/36 102/292/36
f 94/283/37 103/293/37 99/284/37
f 95/282/38 99/284/38 100/294/38
f 96/285/39 100/287/39 101/295/39
f 97/288/40 101/290/40 102/292/40
f 98/280/41 102/296/41 103/281/41
f 99/297/42 103/298/42 104/299/42
f 100/300/43 99/297/43 104/299/43
f 101/301/44 100/300/44 104/299/44
f 102/302/45 101/301/45 104/299/45
f 103/298/46 102/302/46 104/299/46
