# Blender 4.5.13 LTS
# www.blender.org
o stone
v 0.000000 0.000000 -1.350000
v 0.000000 0.120000 -1.350000
v 0.349406 0.000000 -1.304000
v 0.349406 0.120000 -1.304000
v 0.675000 0.000000 -1.169134
v 0.675000 0.120000 -1.169134
v 0.954594 0.000000 -0.954594
v 0.954594 0.120000 -0.954594
v 1.169134 0.000000 -0.675000
v 1.169134 0.120000 -0.675000
v 1.304000 0.000000 -0.349406
v 1.304000 0.120000 -0.349406
v 1.350000 0.000000 0.000000
v 1.350000 0.120000 0.000000
v 1.304000 0.000000 0.349406
v 1.304000 0.120000 0.349406
v 1.169134 0.000000 0.675000
v 1.169134 0.120000 0.675000
v 0.954594 0.000000 0.954594
v 0.954594 0.120000 0.954594
v 0.675000 0.000000 1.169134
v 0.675000 0.120000 1.169134
v 0.349406 0.000000 1.304000
v 0.349406 0.120000 1.304000
v 0.000000 0.000000 1.350000
v 0.000000 0.120000 1.350000
v -0.349406 0.000000 1.304000
v -0.349406 0.120000 1.304000
v -0.675000 0.000000 1.169134
v -0.675000 0.120000 1.169134
v -0.954594 0.000000 0.954594
v -0.954594 0.120000 0.954594
v -1.169134 0.000000 0.675000
v -1.169134 0.120000 0.675000
v -1.304000 0.000000 0.349406
v -1.304000 0.120000 0.349406
v -1.350000 0.000000 0.000000
v -1.350000 0.120000 0.000000
v -1.304000 0.000000 -0.349406
v -1.304000 0.120000 -0.349406
v -1.169134 0.000000 -0.675000
v -1.169134 0.120000 -0.675000
v -0.954594 0.000000 -0.954594
v -0.954594 0.120000 -0.954594
v -0.675000 0.000000 -1.169134
v -0.675000 0.120000 -1.169134
v -0.349406 0.000000 -1.304000
v -0.349406 0.120000 -1.304000
v 0.000000 0.090000 -1.360000
v 0.000000 0.120000 -1.360000
v 0.351994 0.090000 -1.313659
v 0.351994 0.120000 -1.313659
v 0.680000 0.090000 -1.177795
v 0.680000 0.120000 -1.177795
v 0.961665 0.090000 -0.961665
v 0.961665 0.120000 -0.961665
v 1.177795 0.090000 -0.680000
v 1.177795 0.120000 -0.680000
v 1.313659 0.090000 -0.351994
v 1.313659 0.120000 -0.351994
v 1.360000 0.090000 0.000000
v 1.360000 0.120000 0.000000
v 1.313659 0.090000 0.351994
v 1.313659 0.120000 0.351994
v 1.177795 0.090000 0.680000
v 1.177795 0.120000 0.680000
v 0.961665 0.090000 0.961665
v 0.961665 0.120000 0.961665
v 0.680000 0.090000 1.177795
v 0.680000 0.120000 1.177795
v 0.351994 0.090000 1.313659
v 0.351994 0.120000 1.313659
v 0.000000 0.090000 1.360000
v 0.000000 0.120000 1.360000
v -0.351994 0.090000 1.313659
v -0.351994 0.120000 1.313659
v -0.680000 0.090000 1.177795
v -0.680000 0.120000 1.177795
v -0.961665 0.090000 0.961665
v -0.961665 0.120000 0.961665
v -1.177795 0.090000 0.680000
v -1.177795 0.120000 0.680000
v -1.313659 0.090000 0.351994
v -1.313659 0.120000 0.351994
v -1.360000 0.090000 0.000000
v -1.360000 0.120000 0.000000
v -1.313659 0.090000 -0.351994
v -1.313659 0.120000 -0.351994
v -1.177795 0.090000 -0.680000
v -1.177795 0.120000 -0.680000
v -0.961665 0.090000 -0.961665
v -0.961665 0.120000 -0.961665
v -0.680000 0.090000 -1.177795
v -0.680000 0.120000 -1.177795
v -0.351994 0.090000 -1.313659
v -0.351994 0.120000 -1.313659
v 0.000000 0.000000 -1.050000
v 0.000000 0.240000 -1.050000
v 0.271760 0.000000 -1.014222
v 0.271760 0.240000 -1.014222
v 0.525000 0.000000 -0.909327
v 0.525000 0.240000 -0.909327
v 0.742462 0.000000 -0.742462
v 0.742462 0.240000 -0.742462
v 0.909327 0.000000 -0.525000
v 0.909327 0.240000 -0.525000
v 1.014222 0.000000 -0.271760
v 1.014222 0.240000 -0.271760
v 1.050000 0.000000 0.000000
v 1.050000 0.240000 0.000000
v 1.014222 0.000000 0.271760
v 1.014222 0.240000 0.271760
v 0.909327 0.000000 0.525000
v 0.909327 0.240000 0.525000
v 0.742462 0.000000 0.742462
v 0.742462 0.240000 0.742462
v 0.525000 0.000000 0.909327
v 0.525000 0.240000 0.909327
v 0.271760 0.000000 1.014222
v 0.271760 0.240000 1.014222
v 0.000000 0.000000 1.050000
v 0.000000 0.240000 1.050000
v -0.271760 0.000000 1.014222
v -0.271760 0.240000 1.014222
v -0.525000 0.000000 0.909327
v -0.525000 0.240000 0.909327
v -0.742462 0.000000 0.742462
v -0.742462 0.240000 0.742462
v -0.909327 0.000000 0.525000
v -0.909327 0.240000 0.525000
v -1.014222 0.000000 0.271760
v -1.014222 0.240000 0.271760
v -1.050000 0.000000 0.000000
v -1.050000 0.240000 0.000000
v -1.014222 0.000000 -0.271760
v -1.014222 0.240000 -0.271760
v -0.909327 0.000000 -0.525000
v -0.909327 0.240000 -0.525000
v -0.742462 0.000000 -0.742462
v -0.742462 0.240000 -0.742462
v -0.525000 0.000000 -0.909327
v -0.525000 0.240000 -0.909327
v -0.271760 0.000000 -1.014222
v -0.271760 0.240000 -1.014222
v 0.000000 0.210000 -1.060000
v 0.000000 0.240000 -1.060000
v 0.274348 0.210000 -1.023881
v 0.274348 0.240000 -1.023881
v 0.530000 0.210000 -0.917987
v 0.530000 0.240000 -0.917987
v 0.749533 0.210000 -0.749533
v 0.749533 0.240000 -0.749533
v 0.917987 0.210000 -0.530000
v 0.917987 0.240000 -0.530000
v 1.023881 0.210000 -0.274348
v 1.023881 0.240000 -0.274348
v 1.060000 0.210000 0.000000
v 1.060000 0.240000 0.000000
v 1.023881 0.210000 0.274348
v 1.023881 0.240000 0.274348
v 0.917987 0.210000 0.530000
v 0.917987 0.240000 0.530000
v 0.749533 0.210000 0.749533
v 0.749533 0.240000 0.749533
v 0.530000 0.210000 0.917987
v 0.530000 0.240000 0.917987
v 0.274348 0.210000 1.023881
v 0.274348 0.240000 1.023881
v 0.000000 0.210000 1.060000
v 0.000000 0.240000 1.060000
v -0.274348 0.210000 1.023881
v -0.274348 0.240000 1.023881
v -0.530000 0.210000 0.917987
v -0.530000 0.240000 0.917987
v -0.749533 0.210000 0.749533
v -0.749533 0.240000 0.749533
v -0.917987 0.210000 0.530000
v -0.917987 0.240000 0.530000
v -1.023881 0.210000 0.274348
v -1.023881 0.240000 0.274348
v -1.060000 0.210000 0.000000
v -1.060000 0.240000 0.000000
v -1.023881 0.210000 -0.274348
v -1.023881 0.240000 -0.274348
v -0.917987 0.210000 -0.530000
v -0.917987 0.240000 -0.530000
v -0.749533 0.210000 -0.749533
v -0.749533 0.240000 -0.749533
v -0.530000 0.210000 -0.917987
v -0.530000 0.240000 -0.917987
v -0.274348 0.210000 -1.023881
v -0.274348 0.240000 -1.023881
v 0.000000 0.000000 -0.750000
v 0.000000 0.360000 -0.750000
v 0.194114 0.000000 -0.724444
v 0.194114 0.360000 -0.724444
v 0.375000 0.000000 -0.649519
v 0.375000 0.360000 -0.649519
v 0.530330 0.000000 -0.530330
v 0.530330 0.360000 -0.530330
v 0.649519 0.000000 -0.375000
v 0.649519 0.360000 -0.375000
v 0.724444 0.000000 -0.194114
v 0.724444 0.360000 -0.194114
v 0.750000 0.000000 0.000000
v 0.750000 0.360000 0.000000
v 0.724444 0.000000 0.194114
v 0.724444 0.360000 0.194114
v 0.649519 0.000000 0.375000
v 0.649519 0.360000 0.375000
v 0.530330 0.000000 0.530330
v 0.530330 0.360000 0.530330
v 0.375000 0.000000 0.649519
v 0.375000 0.360000 0.649519
v 0.194114 0.000000 0.724444
v 0.194114 0.360000 0.724444
v 0.000000 0.000000 0.750000
v 0.000000 0.360000 0.750000
v -0.194114 0.000000 0.724444
v -0.194114 0.360000 0.724444
v -0.375000 0.000000 0.649519
v -0.375000 0.360000 0.649519
v -0.530330 0.000000 0.530330
v -0.530330 0.360000 0.530330
v -0.649519 0.000000 0.375000
v -0.649519 0.360000 0.375000
v -0.724444 0.000000 0.194114
v -0.724444 0.360000 0.194114
v -0.750000 0.000000 0.000000
v -0.750000 0.360000 0.000000
v -0.724444 0.000000 -0.194114
v -0.724444 0.360000 -0.194114
v -0.649519 0.000000 -0.375000
v -0.649519 0.360000 -0.375000
v -0.530330 0.000000 -0.530330
v -0.530330 0.360000 -0.530330
v -0.375000 0.000000 -0.649519
v -0.375000 0.360000 -0.649519
v -0.194114 0.000000 -0.724444
v -0.194114 0.360000 -0.724444
v 0.000000 0.330000 -0.760000
v 0.000000 0.360000 -0.760000
v 0.196702 0.330000 -0.734104
v 0.196702 0.360000 -0.734104
v 0.380000 0.330000 -0.658179
v 0.380000 0.360000 -0.658179
v 0.537401 0.330000 -0.537401
v 0.537401 0.360000 -0.537401
v 0.658179 0.330000 -0.380000
v 0.658179 0.360000 -0.380000
v 0.734104 0.330000 -0.196702
v 0.734104 0.360000 -0.196702
v 0.760000 0.330000 0.000000
v 0.760000 0.360000 0.000000
v 0.734104 0.330000 0.196702
v 0.734104 0.360000 0.196702
v 0.658179 0.330000 0.380000
v 0.658179 0.360000 0.380000
v 0.537401 0.330000 0.537401
v 0.537401 0.360000 0.537401
v 0.380000 0.330000 0.658179
v 0.380000 0.360000 0.658179
v 0.196702 0.330000 0.734104
v 0.196702 0.360000 0.734104
v 0.000000 0.330000 0.760000
v 0.000000 0.360000 0.760000
v -0.196702 0.330000 0.734104
v -0.196702 0.360000 0.734104
v -0.380000 0.330000 0.658179
v -0.380000 0.360000 0.658179
v -0.537401 0.330000 0.537401
v -0.537401 0.360000 0.537401
v -0.658179 0.330000 0.380000
v -0.658179 0.360000 0.380000
v -0.734104 0.330000 0.196702
v -0.734104 0.360000 0.196702
v -0.760000 0.330000 0.000000
v -0.760000 0.360000 0.000000
v -0.734104 0.330000 -0.196702
v -0.734104 0.360000 -0.196702
v -0.658179 0.330000 -0.380000
v -0.658179 0.360000 -0.380000
v -0.537401 0.330000 -0.537401
v -0.537401 0.360000 -0.537401
v -0.380000 0.330000 -0.658179
v -0.380000 0.360000 -0.658179
v -0.196702 0.330000 -0.734104
v -0.196702 0.360000 -0.734104
v -0.400000 0.360000 0.300000
v -0.400000 0.810000 0.300000
v -0.400000 0.360000 -0.400000
v -0.400000 0.810000 -0.400000
v 0.400000 0.360000 0.300000
v 0.400000 0.810000 0.300000
v 0.400000 0.360000 -0.400000
v 0.400000 0.810000 -0.400000
v -0.360000 0.810000 0.300000
v -0.360000 0.890000 0.300000
v -0.360000 0.810000 -0.300000
v -0.360000 0.890000 -0.300000
v 0.360000 0.810000 0.300000
v 0.360000 0.890000 0.300000
v 0.360000 0.810000 -0.300000
v 0.360000 0.890000 -0.300000
v -0.450000 0.360000 -0.310000
v -0.450000 1.860000 -0.310000
v -0.450000 0.360000 -0.450000
v -0.450000 1.860000 -0.450000
v 0.450000 0.360000 -0.310000
v 0.450000 1.860000 -0.310000
v 0.450000 0.360000 -0.450000
v 0.450000 1.860000 -0.450000
v -0.350000 0.735000 -0.280000
v -0.350000 1.885000 -0.280000
v -0.350000 0.735000 -0.320000
v -0.350000 1.885000 -0.320000
v 0.350000 0.735000 -0.280000
v 0.350000 1.885000 -0.280000
v 0.350000 0.735000 -0.320000
v 0.350000 1.885000 -0.320000
v -0.480000 0.800000 0.300000
v -0.480000 1.120000 0.300000
v -0.480000 0.800000 -0.400000
v -0.480000 1.120000 -0.400000
v -0.360000 0.800000 0.300000
v -0.360000 1.120000 0.300000
v -0.360000 0.800000 -0.400000
v -0.360000 1.120000 -0.400000
v -0.441388 1.079190 0.278045
v -0.383886 1.115217 0.225936
v -0.367544 1.109741 0.306231
v -0.436161 1.124325 0.352657
v -0.493783 1.143544 0.294627
v -0.466259 1.135208 0.215155
v -0.343700 1.177017 0.264874
v -0.375409 1.183898 0.342507
v -0.456020 1.204667 0.333924
v -0.474248 1.211976 0.252873
v -0.404827 1.193494 0.211784
v -0.400484 1.233737 0.281784
v -0.400000 1.860000 -0.440000
v -0.400000 2.160000 -0.390000
v -0.357574 1.860000 -0.422426
v -0.392929 2.160000 -0.387071
v -0.340000 1.860000 -0.380000
v -0.390000 2.160000 -0.380000
v -0.357574 1.860000 -0.337574
v -0.392929 2.160000 -0.372929
v -0.400000 1.860000 -0.320000
v -0.400000 2.160000 -0.370000
v -0.442426 1.860000 -0.337574
v -0.407071 2.160000 -0.372929
v -0.460000 1.860000 -0.380000
v -0.410000 2.160000 -0.380000
v -0.442426 1.860000 -0.422426
v -0.407071 2.160000 -0.387071
v 0.360000 0.800000 0.300000
v 0.360000 1.120000 0.300000
v 0.360000 0.800000 -0.400000
v 0.360000 1.120000 -0.400000
v 0.480000 0.800000 0.300000
v 0.480000 1.120000 0.300000
v 0.480000 0.800000 -0.400000
v 0.480000 1.120000 -0.400000
v 0.424830 1.080464 0.286751
v 0.350800 1.120084 0.282679
v 0.400665 1.117137 0.214781
v 0.481853 1.123533 0.240428
v 0.477870 1.132272 0.323946
v 0.399195 1.128441 0.351493
v 0.360139 1.188681 0.234543
v 0.440833 1.191601 0.208410
v 0.487047 1.198674 0.277404
v 0.438603 1.201240 0.342751
v 0.360561 1.195044 0.318027
v 0.414962 1.242966 0.272958
v 0.400000 1.860000 -0.440000
v 0.400000 2.160000 -0.390000
v 0.442426 1.860000 -0.422426
v 0.407071 2.160000 -0.387071
v 0.460000 1.860000 -0.380000
v 0.410000 2.160000 -0.380000
v 0.442426 1.860000 -0.337574
v 0.407071 2.160000 -0.372929
v 0.400000 1.860000 -0.320000
v 0.400000 2.160000 -0.370000
v 0.357574 1.860000 -0.337574
v 0.392929 2.160000 -0.372929
v 0.340000 1.860000 -0.380000
v 0.390000 2.160000 -0.380000
v 0.357574 1.860000 -0.422426
v 0.392929 2.160000 -0.387071
v -0.300000 1.860000 -0.305000
v 0.300000 1.860000 -0.305000
v 0.000000 2.180000 -0.305000
v -0.300000 1.860000 -0.455000
v 0.300000 1.860000 -0.455000
v 0.000000 2.180000 -0.455000
v -0.321238 0.240000 0.738727
v -0.321238 0.255000 0.738727
v -0.285883 0.240000 0.753372
v -0.285883 0.255000 0.753372
v -0.271238 0.240000 0.788727
v -0.271238 0.255000 0.788727
v -0.285883 0.240000 0.824083
v -0.285883 0.255000 0.824083
v -0.321238 0.240000 0.838727
v -0.321238 0.255000 0.838727
v -0.356593 0.240000 0.824083
v -0.356593 0.255000 0.824083
v -0.371238 0.240000 0.788727
v -0.371238 0.255000 0.788727
v -0.356593 0.240000 0.753372
v -0.356593 0.255000 0.753372
v -0.921426 0.120000 0.729395
v -0.921426 0.135000 0.729395
v -0.886070 0.120000 0.744040
v -0.886070 0.135000 0.744040
v -0.871426 0.120000 0.779395
v -0.871426 0.135000 0.779395
v -0.886070 0.120000 0.814750
v -0.886070 0.135000 0.814750
v -0.921426 0.120000 0.829395
v -0.921426 0.135000 0.829395
v -0.956781 0.120000 0.814750
v -0.956781 0.135000 0.814750
v -0.971426 0.120000 0.779395
v -0.971426 0.135000 0.779395
v -0.956781 0.120000 0.744040
v -0.956781 0.135000 0.744040
v 0.519515 0.240000 0.789724
v 0.519515 0.255000 0.789724
v 0.554871 0.240000 0.804369
v 0.554871 0.255000 0.804369
v 0.569515 0.240000 0.839724
v 0.569515 0.255000 0.839724
v 0.554871 0.240000 0.875080
v 0.554871 0.255000 0.875080
v 0.519515 0.240000 0.889724
v 0.519515 0.255000 0.889724
v 0.484160 0.240000 0.875080
v 0.484160 0.255000 0.875080
v 0.469515 0.240000 0.839724
v 0.469515 0.255000 0.839724
v 0.484160 0.240000 0.804369
v 0.484160 0.255000 0.804369
v 0.408001 0.120000 1.012293
v 0.408001 0.135000 1.012293
v 0.443356 0.120000 1.026938
v 0.443356 0.135000 1.026938
v 0.458001 0.120000 1.062293
v 0.458001 0.135000 1.062293
v 0.443356 0.120000 1.097649
v 0.443356 0.135000 1.097649
v 0.408001 0.120000 1.112293
v 0.408001 0.135000 1.112293
v 0.372646 0.120000 1.097649
v 0.372646 0.135000 1.097649
v 0.358001 0.120000 1.062293
v 0.358001 0.135000 1.062293
v 0.372646 0.120000 1.026938
v 0.372646 0.135000 1.026938
v 0.915275 0.120000 0.843572
v 0.915275 0.135000 0.843572
v 0.950630 0.120000 0.858217
v 0.950630 0.135000 0.858217
v 0.965275 0.120000 0.893573
v 0.965275 0.135000 0.893573
v 0.950630 0.120000 0.928928
v 0.950630 0.135000 0.928928
v 0.915275 0.120000 0.943573
v 0.915275 0.135000 0.943573
v 0.879919 0.120000 0.928928
v 0.879919 0.135000 0.928928
v 0.865274 0.120000 0.893573
v 0.865274 0.135000 0.893573
v 0.879919 0.120000 0.858217
v 0.879919 0.135000 0.858217
v -0.239364 0.120000 1.222233
v -0.239364 0.135000 1.222233
v -0.204009 0.120000 1.236878
v -0.204009 0.135000 1.236878
v -0.189364 0.120000 1.272233
v -0.189364 0.135000 1.272233
v -0.204009 0.120000 1.307588
v -0.204009 0.135000 1.307588
v -0.239364 0.120000 1.322233
v -0.239364 0.135000 1.322233
v -0.274719 0.120000 1.307588
v -0.274719 0.135000 1.307588
v -0.289364 0.120000 1.272233
v -0.289364 0.135000 1.272233
v -0.274719 0.120000 1.236878
v -0.274719 0.135000 1.236878
v 0.873284 0.120000 0.611036
v 0.873284 0.135000 0.611036
v 0.908639 0.120000 0.625680
v 0.908639 0.135000 0.625680
v 0.923284 0.120000 0.661036
v 0.923284 0.135000 0.661036
v 0.908639 0.120000 0.696391
v 0.908639 0.135000 0.696391
v 0.873284 0.120000 0.711036
v 0.873284 0.135000 0.711036
v 0.837929 0.120000 0.696391
v 0.837929 0.135000 0.696391
v 0.823284 0.120000 0.661036
v 0.823284 0.135000 0.661036
v 0.837929 0.120000 0.625680
v 0.837929 0.135000 0.625680
v 0.725026 0.240000 0.703203
v 0.725026 0.255000 0.703203
v 0.760382 0.240000 0.717848
v 0.760382 0.255000 0.717848
v 0.775026 0.240000 0.753203
v 0.775026 0.255000 0.753203
v 0.760382 0.240000 0.788558
v 0.760382 0.255000 0.788558
v 0.725026 0.240000 0.803203
v 0.725026 0.255000 0.803203
v 0.689671 0.240000 0.788558
v 0.689671 0.255000 0.788558
v 0.675026 0.240000 0.753203
v 0.675026 0.255000 0.753203
v 0.689671 0.240000 0.717848
v 0.689671 0.255000 0.717848
v -0.227501 0.240000 0.845147
v -0.227501 0.255000 0.845147
v -0.192145 0.240000 0.859791
v -0.192145 0.255000 0.859791
v -0.177501 0.240000 0.895147
v -0.177501 0.255000 0.895147
v -0.192145 0.240000 0.930502
v -0.192145 0.255000 0.930502
v -0.227501 0.240000 0.945147
v -0.227501 0.255000 0.945147
v -0.262856 0.240000 0.930502
v -0.262856 0.255000 0.930502
v -0.277501 0.240000 0.895147
v -0.277501 0.255000 0.895147
v -0.262856 0.240000 0.859791
v -0.262856 0.255000 0.859791
v 0.602098 0.240000 0.593348
v 0.602098 0.255000 0.593348
v 0.637453 0.240000 0.607993
v 0.637453 0.255000 0.607993
v 0.652098 0.240000 0.643348
v 0.652098 0.255000 0.643348
v 0.637453 0.240000 0.678704
v 0.637453 0.255000 0.678704
v 0.602098 0.240000 0.693348
v 0.602098 0.255000 0.693348
v 0.566742 0.240000 0.678704
v 0.566742 0.255000 0.678704
v 0.552098 0.240000 0.643348
v 0.552098 0.255000 0.643348
v 0.566742 0.240000 0.607993
v 0.566742 0.255000 0.607993
v -0.912455 0.120000 0.733435
v -0.912455 0.135000 0.733435
v -0.877100 0.120000 0.748080
v -0.877100 0.135000 0.748080
v -0.862455 0.120000 0.783435
v -0.862455 0.135000 0.783435
v -0.877100 0.120000 0.818791
v -0.877100 0.135000 0.818791
v -0.912455 0.120000 0.833435
v -0.912455 0.135000 0.833435
v -0.947810 0.120000 0.818791
v -0.947810 0.135000 0.818791
v -0.962455 0.120000 0.783435
v -0.962455 0.135000 0.783435
v -0.947810 0.120000 0.748080
v -0.947810 0.135000 0.748080
v 0.542499 0.240000 0.839156
v 0.542499 0.255000 0.839156
v 0.577854 0.240000 0.853800
v 0.577854 0.255000 0.853800
v 0.592499 0.240000 0.889156
v 0.592499 0.255000 0.889156
v 0.577854 0.240000 0.924511
v 0.577854 0.255000 0.924511
v 0.542499 0.240000 0.939156
v 0.542499 0.255000 0.939156
v 0.507143 0.240000 0.924511
v 0.507143 0.255000 0.924511
v 0.492499 0.240000 0.889156
v 0.492499 0.255000 0.889156
v 0.507143 0.240000 0.853800
v 0.507143 0.255000 0.853800
v 0.515573 0.240000 0.595449
v 0.515573 0.255000 0.595449
v 0.550928 0.240000 0.610094
v 0.550928 0.255000 0.610094
v 0.565573 0.240000 0.645449
v 0.565573 0.255000 0.645449
v 0.550928 0.240000 0.680804
v 0.550928 0.255000 0.680804
v 0.515573 0.240000 0.695449
v 0.515573 0.255000 0.695449
v 0.480217 0.240000 0.680804
v 0.480217 0.255000 0.680804
v 0.465573 0.240000 0.645449
v 0.465573 0.255000 0.645449
v 0.480217 0.240000 0.610094
v 0.480217 0.255000 0.610094
v -0.439741 0.240000 0.786382
v -0.439741 0.255000 0.786382
v -0.404385 0.240000 0.801027
v -0.404385 0.255000 0.801027
v -0.389741 0.240000 0.836382
v -0.389741 0.255000 0.836382
v -0.404385 0.240000 0.871737
v -0.404385 0.255000 0.871737
v -0.439741 0.240000 0.886382
v -0.439741 0.255000 0.886382
v -0.475096 0.240000 0.871737
v -0.475096 0.255000 0.871737
v -0.489741 0.240000 0.836382
v -0.489741 0.255000 0.836382
v -0.475096 0.240000 0.801027
v -0.475096 0.255000 0.801027
vn 0.1305 -0.0000 -0.9914
vn 0.3827 -0.0000 -0.9239
vn 0.6088 -0.0000 -0.7934
vn 0.7934 -0.0000 -0.6088
vn 0.9239 -0.0000 -0.3827
vn 0.9914 -0.0000 -0.1305
vn 0.9914 -0.0000 0.1305
vn 0.9239 -0.0000 0.3827
vn 0.7934 -0.0000 0.6088
vn 0.6088 -0.0000 0.7934
vn 0.3827 -0.0000 0.9239
vn 0.1305 -0.0000 0.9914
vn -0.1305 -0.0000 0.9914
vn -0.3827 -0.0000 0.9239
vn -0.6088 -0.0000 0.7934
vn -0.7934 -0.0000 0.6088
vn -0.9239 -0.0000 0.3827
vn -0.9914 -0.0000 0.1305
vn -0.9914 -0.0000 -0.1305
vn -0.9239 -0.0000 -0.3827
vn -0.7934 -0.0000 -0.6088
vn -0.6088 -0.0000 -0.7934
vn -0.0000 1.0000 -0.0000
vn -0.3827 -0.0000 -0.9239
vn -0.1305 -0.0000 -0.9914
vn -0.0000 -1.0000 -0.0000
vn -1.0000 -0.0000 -0.0000
vn -0.0000 -0.0000 -1.0000
vn 1.0000 -0.0000 -0.0000
vn -0.0000 -0.0000 1.0000
vn 0.4257 -0.8928 -0.1475
vn -0.1014 -0.7625 -0.6390
vn 0.1596 -0.8496 0.5028
vn -0.6433 -0.6343 0.4288
vn -0.7840 -0.5841 -0.2103
vn 0.0915 -0.1534 -0.9839
vn 0.8747 -0.4378 -0.2079
vn 0.4743 -0.3458 0.8096
vn -0.7115 -0.0121 0.7025
vn -0.9408 0.0656 -0.3327
vn 0.6615 0.0416 -0.7488
vn 0.9192 -0.0901 0.3834
vn -0.0483 0.2155 0.9753
vn -0.8872 0.3968 0.2353
vn -0.3979 0.3709 -0.8391
vn 0.5674 0.6982 -0.4366
vn 0.7210 0.6512 0.2368
vn 0.1412 0.7930 0.5926
vn -0.3363 0.9282 0.1593
vn -0.0619 0.8669 -0.4946
vn 0.3782 0.1522 -0.9131
vn 0.9131 0.1522 -0.3782
vn 0.9131 0.1522 0.3782
vn 0.3782 0.1522 0.9131
vn -0.3782 0.1522 0.9131
vn -0.9131 0.1522 0.3782
vn -0.9131 0.1522 -0.3782
vn -0.3782 0.1522 -0.9131
vn -0.4399 -0.8513 -0.2861
vn -0.4476 -0.7941 0.4112
vn 0.2242 -0.8358 -0.5012
vn 0.6542 -0.7484 0.1095
vn 0.2591 -0.7241 0.6392
vn -0.7962 -0.1701 0.5806
vn -0.7781 -0.2864 -0.5590
vn 0.3095 -0.2456 -0.9186
vn 0.9936 -0.0970 0.0575
vn 0.3326 -0.0671 0.9407
vn -0.9913 0.1314 -0.0050
vn -0.3098 0.0861 -0.9469
vn 0.8000 0.2195 -0.5584
vn 0.7748 0.2876 0.5631
vn -0.3101 0.2771 0.9094
vn -0.6840 0.7276 -0.0520
vn -0.2399 0.7105 -0.6615
vn 0.4956 0.7654 -0.4104
vn 0.4806 0.8148 0.3243
vn -0.2395 0.7954 0.5567
vn 0.7295 0.6839 -0.0000
vn -0.7295 0.6839 -0.0000
vt 0.932267 0.499920
vt 0.949967 0.457479
vt 0.949644 0.499932
vt 0.932589 0.457467
vt 0.950170 0.409141
vt 0.932792 0.409129
vt 0.950239 0.358211
vt 0.932861 0.358199
vt 0.950170 0.308160
vt 0.932792 0.308149
vt 0.949967 0.262400
vt 0.932589 0.262388
vt 0.949644 0.224047
vt 0.949594 0.888809
vt 0.967210 0.846378
vt 0.966972 0.888818
vt 0.949832 0.846369
vt 0.967360 0.798047
vt 0.949982 0.798038
vt 0.967411 0.747119
vt 0.950033 0.747110
vt 0.967360 0.697064
vt 0.949982 0.697055
vt 0.967210 0.651293
vt 0.949832 0.651284
vt 0.966972 0.612926
vt 0.927594 0.888819
vt 0.945335 0.846406
vt 0.944971 0.888832
vt 0.927958 0.846393
vt 0.945563 0.798084
vt 0.928186 0.798070
vt 0.945641 0.747157
vt 0.928264 0.747144
vt 0.945563 0.697097
vt 0.928186 0.697083
vt 0.945335 0.651314
vt 0.927958 0.651301
vt 0.944971 0.612930
vt 0.954191 0.499815
vt 0.971773 0.457214
vt 0.971569 0.499823
vt 0.954395 0.457206
vt 0.971901 0.408786
vt 0.954523 0.408778
vt 0.971945 0.357839
vt 0.954567 0.357831
vt 0.971901 0.307844
vt 0.432308 0.076793
vt 0.767974 0.120992
vt 0.561875 0.389642
vt 0.954523 0.307836
vt 0.971773 0.262209
vt 0.954395 0.262201
vt 0.971569 0.224044
vt 0.001976 0.221328
vt 0.270622 0.015185
vt 0.314821 0.350914
vt 0.975897 0.501963
vt 0.980566 0.459199
vt 0.980241 0.501966
vt 0.976222 0.459197
vt 0.980771 0.410503
vt 0.976426 0.410500
vt 0.980841 0.359196
vt 0.976496 0.359193
vt 0.980771 0.308775
vt 0.976426 0.308772
vt 0.980566 0.262675
vt 0.976222 0.262672
vt 0.980241 0.224038
vt 0.980335 0.890853
vt 0.984919 0.848101
vt 0.984679 0.890855
vt 0.980575 0.848099
vt 0.985070 0.799412
vt 0.980726 0.799410
vt 0.985122 0.748106
vt 0.980777 0.748104
vt 0.985070 0.697680
vt 0.980726 0.697678
vt 0.984919 0.651571
vt 0.980575 0.651568
vt 0.984679 0.612919
vt 0.971363 0.890862
vt 0.976074 0.848126
vt 0.975707 0.890866
vt 0.971729 0.848122
vt 0.976304 0.799445
vt 0.971960 0.799442
vt 0.976382 0.748141
vt 0.972038 0.748138
vt 0.976304 0.697710
vt 0.971960 0.697707
vt 0.976074 0.651589
vt 0.971729 0.651586
vt 0.975707 0.612920
vt 0.984793 0.501857
vt 0.989342 0.458935
vt 0.989137 0.501859
vt 0.984998 0.458933
vt 0.989472 0.410149
vt 0.985127 0.410147
vt 0.989516 0.358824
vt 0.985171 0.358822
vt 0.989472 0.308459
vt 0.985127 0.308457
vt 0.989342 0.262486
vt 0.984998 0.262484
vt 0.989137 0.224037
vt 0.887130 0.216553
vt 0.922136 0.183558
vt 0.921885 0.216577
vt 0.887381 0.183534
vt 0.922294 0.145962
vt 0.887539 0.145938
vt 0.922348 0.106350
vt 0.887593 0.106326
vt 0.922294 0.067421
vt 0.887539 0.067397
vt 0.922136 0.031829
vt 0.887381 0.031806
vt 0.921885 0.002000
vt 0.888589 0.608178
vt 0.923530 0.575186
vt 0.923345 0.608195
vt 0.888775 0.575169
vt 0.923647 0.537595
vt 0.888891 0.537578
vt 0.923686 0.497984
vt 0.888931 0.497967
vt 0.923647 0.459053
vt 0.888891 0.459035
vt 0.923530 0.423453
vt 0.888775 0.423436
vt 0.923345 0.393612
vt 0.264243 0.913655
vt 0.299280 0.880684
vt 0.298997 0.913682
vt 0.264526 0.880658
vt 0.299458 0.843100
vt 0.264703 0.843073
vt 0.299518 0.803490
vt 0.264764 0.803464
vt 0.299458 0.764554
vt 0.264703 0.764528
vt 0.299280 0.728946
vt 0.264526 0.728920
vt 0.298997 0.699092
vt 0.888594 0.827412
vt 0.923508 0.794288
vt 0.923349 0.827428
vt 0.888752 0.794272
vt 0.923608 0.756622
vt 0.888852 0.756606
vt 0.923642 0.716996
vt 0.888886 0.716980
vt 0.923608 0.678112
vt 0.337558 0.451784
vt 0.598631 0.486166
vt 0.438329 0.695113
vt 0.888852 0.678095
vt 0.923508 0.642618
vt 0.888752 0.642601
vt 0.923349 0.612933
vt 0.001976 0.564202
vt 0.210923 0.403869
vt 0.245300 0.664991
vt 0.973597 0.218596
vt 0.978195 0.185266
vt 0.977942 0.218599
vt 0.973851 0.185263
vt 0.978354 0.147312
vt 0.974010 0.147309
vt 0.978409 0.107323
vt 0.974064 0.107320
vt 0.978354 0.068023
vt 0.974010 0.068020
vt 0.978195 0.032093
vt 0.973851 0.032090
vt 0.977942 0.001979
vt 0.982361 0.218603
vt 0.986892 0.185282
vt 0.986705 0.218605
vt 0.982548 0.185279
vt 0.987010 0.147333
vt 0.982665 0.147331
vt 0.987050 0.107345
vt 0.982706 0.107342
vt 0.987010 0.068042
vt 0.982665 0.068040
vt 0.986892 0.032104
vt 0.982548 0.032101
vt 0.986705 0.001978
vt 0.964774 0.218610
vt 0.969404 0.185301
vt 0.969118 0.218613
vt 0.965060 0.185298
vt 0.969584 0.147359
vt 0.965239 0.147356
vt 0.969645 0.107372
vt 0.965301 0.107369
vt 0.969584 0.068066
vt 0.965239 0.068062
vt 0.969404 0.032118
vt 0.965060 0.032115
vt 0.969118 0.001979
vt 0.989074 0.829455
vt 0.993578 0.796001
vt 0.993418 0.829457
vt 0.989234 0.795999
vt 0.993679 0.757976
vt 0.989334 0.757974
vt 0.993713 0.717973
vt 0.989369 0.717971
vt 0.993679 0.678718
vt 0.989334 0.678716
vt 0.993578 0.642886
vt 0.989234 0.642884
vt 0.993418 0.612919
vt 0.832175 0.546864
vt 0.884486 0.523315
vt 0.884307 0.546899
vt 0.832354 0.523279
vt 0.884599 0.496460
vt 0.832467 0.496424
vt 0.884637 0.468166
vt 0.832505 0.468130
vt 0.884599 0.440360
vt 0.832467 0.440324
vt 0.884486 0.414937
vt 0.832354 0.414901
vt 0.884307 0.393630
vt 0.832138 0.923461
vt 0.884404 0.899910
vt 0.884271 0.923487
vt 0.832270 0.899883
vt 0.884487 0.873059
vt 0.832354 0.873033
vt 0.884515 0.844765
vt 0.832382 0.844739
vt 0.884487 0.816957
vt 0.832354 0.816931
vt 0.884404 0.791529
vt 0.832270 0.791503
vt 0.884271 0.770214
vt 0.832138 0.766196
vt 0.884471 0.742666
vt 0.884269 0.766235
vt 0.832340 0.742626
vt 0.884598 0.715820
vt 0.832467 0.715780
vt 0.884642 0.687527
vt 0.832510 0.687487
vt 0.884598 0.659716
vt 0.832467 0.659676
vt 0.884471 0.634281
vt 0.832340 0.634242
vt 0.884269 0.612957
vt 0.875972 0.377246
vt 0.928219 0.353599
vt 0.928106 0.377271
vt 0.876085 0.353575
vt 0.928290 0.326695
vt 0.876156 0.326670
vt 0.928314 0.298391
vt 0.876181 0.298366
vt 0.928290 0.270616
vt 0.634366 0.654482
vt 0.820848 0.679037
vt 0.706348 0.828287
vt 0.876156 0.270591
vt 0.928219 0.245263
vt 0.876085 0.245238
vt 0.928106 0.224060
vt 0.612856 0.515457
vt 0.762103 0.400933
vt 0.786658 0.587449
vt 0.989074 0.988722
vt 0.993600 0.964826
vt 0.993418 0.988725
vt 0.989255 0.964823
vt 0.993714 0.937613
vt 0.989370 0.937610
vt 0.993753 0.908941
vt 0.989409 0.908938
vt 0.993714 0.880765
vt 0.989370 0.880762
vt 0.993600 0.855003
vt 0.989255 0.855000
vt 0.993418 0.833412
vt 0.991002 0.157293
vt 0.995481 0.133403
vt 0.995347 0.157295
vt 0.991136 0.133401
vt 0.995565 0.106195
vt 0.991221 0.106193
vt 0.995594 0.077524
vt 0.991249 0.077522
vt 0.995565 0.049345
vt 0.991221 0.049343
vt 0.995481 0.023578
vt 0.991136 0.023575
vt 0.995347 0.001978
vt 0.914847 0.986703
vt 0.919396 0.962822
vt 0.919191 0.986706
vt 0.915052 0.962819
vt 0.919525 0.935618
vt 0.915180 0.935615
vt 0.919568 0.906948
vt 0.915224 0.906945
vt 0.919525 0.878766
vt 0.915180 0.878763
vt 0.919396 0.852993
vt 0.915052 0.852989
vt 0.919191 0.831384
vt 0.993468 0.379289
vt 0.997927 0.355304
vt 0.997812 0.379291
vt 0.993583 0.355302
vt 0.997999 0.328041
vt 0.993655 0.328039
vt 0.998024 0.299359
vt 0.993679 0.299357
vt 0.997999 0.271214
vt 0.993655 0.271212
vt 0.997927 0.245523
vt 0.993583 0.245521
vt 0.997812 0.224037
vt 0.467379 0.818879
vt 0.402213 0.895874
vt 0.402213 0.819249
vt 0.572693 0.818873
vt 0.507530 0.906618
vt 0.507530 0.819464
vt 0.678021 0.832239
vt 0.612856 0.908905
vt 0.612856 0.832677
vt 0.376530 0.807287
vt 0.311369 0.895037
vt 0.311369 0.807955
vt 0.507530 0.699066
vt 0.608903 0.814921
vt 0.507530 0.814919
vt 0.503578 0.814908
vt 0.402213 0.699085
vt 0.503578 0.699066
vt 0.939179 0.892784
vt 0.927594 0.958528
vt 0.927594 0.892850
vt 0.165766 0.870243
vt 0.154182 0.948786
vt 0.154182 0.870348
vt 0.954716 0.892784
vt 0.943131 0.958200
vt 0.943131 0.892862
vt 0.245974 0.870329
vt 0.234390 0.948821
vt 0.234390 0.870448
vt 0.311369 0.699066
vt 0.398260 0.803335
vt 0.311369 0.803334
vt 0.872020 0.328294
vt 0.785135 0.224052
vt 0.872020 0.224035
vt 0.926300 0.001976
vt 0.941625 0.219287
vt 0.926300 0.219200
vt 0.785135 0.001976
vt 0.883178 0.220083
vt 0.785135 0.219193
vt 0.945577 0.001976
vt 0.960822 0.219301
vt 0.945577 0.219198
vt 0.001976 0.699065
vt 0.099938 0.917283
vt 0.001976 0.916279
vt 0.576645 0.818873
vt 0.596919 0.949209
vt 0.576645 0.949208
vt 0.491604 0.949202
vt 0.471331 0.818883
vt 0.491604 0.818879
vt 0.600872 0.818873
vt 0.605250 0.985436
vt 0.600872 0.985411
vt 0.103890 0.699065
vt 0.180146 0.866291
vt 0.103890 0.865598
vt 0.495556 0.818879
vt 0.499912 0.985446
vt 0.495556 0.985416
vt 0.184098 0.699065
vt 0.260291 0.866377
vt 0.184098 0.865596
vt 0.169719 0.870243
vt 0.175511 0.971615
vt 0.169719 0.971615
vt 0.255719 0.971691
vt 0.249926 0.870330
vt 0.255719 0.870329
vt 0.728313 0.832239
vt 0.681973 0.909127
vt 0.681973 0.832502
vt 0.842731 0.332262
vt 0.855803 0.378720
vt 0.842731 0.378602
vt 0.150230 0.870243
vt 0.103890 0.946782
vt 0.103890 0.870554
vt 0.866213 0.550852
vt 0.879275 0.597324
vt 0.866213 0.597191
vt 0.808233 0.933613
vt 0.825611 0.832239
vt 0.825611 0.933612
vt 0.948967 0.608192
vt 0.966344 0.506830
vt 0.966344 0.608195
vt 0.711750 0.923819
vt 0.701980 0.929396
vt 0.702154 0.917534
vt 0.713288 0.933458
vt 0.713288 0.913079
vt 0.397860 0.923946
vt 0.389447 0.929425
vt 0.390226 0.917309
vt 0.772921 0.932788
vt 0.762175 0.928680
vt 0.772337 0.923566
vt 0.635241 0.923055
vt 0.637438 0.912857
vt 0.646273 0.918573
vt 0.635241 0.932524
vt 0.644783 0.930445
vt 0.274972 0.937011
vt 0.264243 0.932097
vt 0.274246 0.926019
vt 0.379472 0.922249
vt 0.762181 0.916880
vt 0.264290 0.920219
vt 0.379472 0.932280
vt 0.381220 0.912613
vt 0.772921 0.913079
vt 0.652701 0.925257
vt 0.274972 0.917634
vt 0.732266 0.916797
vt 0.743349 0.913079
vt 0.741814 0.922341
vt 0.732270 0.928810
vt 0.743349 0.932460
vt 0.407014 0.899826
vt 0.408511 0.943349
vt 0.402213 0.943323
vt 0.408064 0.899830
vt 0.414474 0.943323
vt 0.439435 0.899826
vt 0.440938 0.943329
vt 0.434640 0.943310
vt 0.440485 0.899829
vt 0.446902 0.943310
vt 0.864565 0.332262
vt 0.866052 0.375794
vt 0.859756 0.375765
vt 0.865614 0.332267
vt 0.872018 0.375765
vt 0.832175 0.602046
vt 0.834067 0.601262
vt 0.834850 0.603155
vt 0.528501 0.910570
vt 0.530050 0.954065
vt 0.523739 0.954048
vt 0.529553 0.910573
vt 0.535996 0.954048
vt 0.656653 0.917559
vt 0.668006 0.912857
vt 0.672708 0.924210
vt 0.778606 0.832239
vt 0.732266 0.909127
vt 0.732265 0.832502
vt 0.832175 0.550852
vt 0.845247 0.597310
vt 0.832175 0.597191
vt 0.230438 0.870329
vt 0.184098 0.946868
vt 0.184098 0.870640
vt 0.849199 0.550852
vt 0.862261 0.597324
vt 0.849199 0.597191
vt 0.380482 0.908661
vt 0.397860 0.807287
vt 0.397860 0.908660
vt 0.927639 0.608192
vt 0.945015 0.506830
vt 0.945015 0.608195
vt 0.548828 0.919559
vt 0.551500 0.929927
vt 0.539948 0.926006
vt 0.558892 0.920235
vt 0.539948 0.913671
vt 0.551656 0.910570
vt 0.088634 0.937502
vt 0.088770 0.925603
vt 0.099025 0.932134
vt 0.747301 0.928472
vt 0.747419 0.916304
vt 0.757486 0.922200
vt 0.306825 0.922559
vt 0.306825 0.933885
vt 0.296412 0.929299
vt 0.727084 0.923566
vt 0.727961 0.933077
vt 0.717240 0.929170
vt 0.727961 0.913079
vt 0.717286 0.917423
vt 0.758223 0.913079
vt 0.758223 0.932696
vt 0.296256 0.917634
vt 0.099025 0.921236
vt 0.631289 0.928448
vt 0.619752 0.932100
vt 0.623425 0.922525
vt 0.631289 0.916160
vt 0.619708 0.912857
vt 0.612856 0.922440
vt 0.423227 0.899826
vt 0.424725 0.943349
vt 0.418426 0.943323
vt 0.424277 0.899830
vt 0.430688 0.943323
vt 0.455650 0.899826
vt 0.457152 0.943329
vt 0.450854 0.943310
vt 0.456699 0.899829
vt 0.463116 0.943310
vt 0.366467 0.898989
vt 0.367955 0.942522
vt 0.361658 0.942492
vt 0.368511 0.898989
vt 0.373920 0.942492
vt 0.838802 0.602046
vt 0.840694 0.601262
vt 0.841478 0.603154
vt 0.512291 0.910570
vt 0.513841 0.954065
vt 0.507530 0.954048
vt 0.513343 0.910573
vt 0.519787 0.954048
vt 0.681973 0.917782
vt 0.693326 0.913079
vt 0.698028 0.924432
vt 0.311369 0.964301
vt 0.311369 0.898989
vt 0.357706 0.931170
vt 0.785135 0.332262
vt 0.838779 0.351376
vt 0.785135 0.388724
vt 0.804281 0.919130
vt 0.782558 0.832239
vt 0.804281 0.832240
vt 0.889173 0.831385
vt 0.910315 0.874133
vt 0.888594 0.874137
vt 0.910895 0.918262
vt 0.889173 0.918266
vt 0.905925 0.946608
vt 0.908119 0.941361
vt 0.908098 0.946610
vt 0.905947 0.941359
vt 0.908098 0.936392
vt 0.856700 0.954989
vt 0.858889 0.949742
vt 0.858873 0.954990
vt 0.856717 0.949741
vt 0.858873 0.944772
vt 0.305220 0.780146
vt 0.307417 0.774901
vt 0.307392 0.780148
vt 0.305245 0.774899
vt 0.307392 0.769930
vt 0.744846 0.940567
vt 0.754305 0.936649
vt 0.758223 0.946110
vt 0.673993 0.957250
vt 0.676179 0.951992
vt 0.676165 0.957251
vt 0.674007 0.951991
vt 0.676165 0.947037
vt 0.539948 0.937798
vt 0.549409 0.933879
vt 0.553328 0.943340
vt 0.905925 0.932437
vt 0.908119 0.927189
vt 0.908097 0.932438
vt 0.905947 0.927188
vt 0.908097 0.922220
vt 0.862841 0.954989
vt 0.865030 0.949742
vt 0.865013 0.954990
vt 0.862857 0.949741
vt 0.865013 0.944772
vt 0.305220 0.808491
vt 0.307417 0.803246
vt 0.307392 0.808493
vt 0.305245 0.803244
vt 0.307392 0.798274
vt 0.036639 0.942486
vt 0.046098 0.938568
vt 0.050016 0.948029
vt 0.402213 0.957515
vt 0.404399 0.952258
vt 0.404385 0.957516
vt 0.402227 0.952257
vt 0.404385 0.947302
vt 0.782558 0.927001
vt 0.792019 0.923082
vt 0.795937 0.932543
vt 0.305220 0.907697
vt 0.307414 0.902450
vt 0.307392 0.907699
vt 0.305242 0.902448
vt 0.307392 0.897481
vt 0.850560 0.954989
vt 0.852748 0.949742
vt 0.852732 0.954990
vt 0.850576 0.949741
vt 0.852732 0.944772
vt 0.305220 0.836836
vt 0.307417 0.831590
vt 0.307392 0.836838
vt 0.305245 0.831589
vt 0.307392 0.826619
vt 0.557280 0.937797
vt 0.566739 0.933880
vt 0.570657 0.943341
vt 0.440778 0.957495
vt 0.442965 0.952238
vt 0.442951 0.957496
vt 0.440792 0.952237
vt 0.442951 0.947282
vt 0.832138 0.931358
vt 0.841599 0.927439
vt 0.845517 0.936900
vt 0.302402 0.948055
vt 0.304596 0.942807
vt 0.304574 0.948056
vt 0.302424 0.942806
vt 0.304574 0.937838
vt 0.264243 0.951182
vt 0.266431 0.945935
vt 0.266415 0.951183
vt 0.264259 0.945934
vt 0.266415 0.940965
vt 0.305220 0.851008
vt 0.307417 0.845763
vt 0.307392 0.851010
vt 0.305245 0.845761
vt 0.307392 0.840791
vt 0.699911 0.941328
vt 0.709370 0.937411
vt 0.713288 0.946872
vt 0.453055 0.957495
vt 0.455241 0.952238
vt 0.455227 0.957496
vt 0.453069 0.952237
vt 0.455227 0.947282
vt 0.849469 0.931358
vt 0.858930 0.927439
vt 0.862849 0.936900
vt 0.071302 0.948785
vt 0.073496 0.943538
vt 0.073474 0.948787
vt 0.071324 0.943536
vt 0.073474 0.938569
vt 0.894734 0.949768
vt 0.896923 0.944521
vt 0.896907 0.949770
vt 0.894751 0.944520
vt 0.896907 0.939551
vt 0.305220 0.723457
vt 0.307417 0.718211
vt 0.307392 0.723458
vt 0.305245 0.718210
vt 0.307392 0.713240
vt 0.612856 0.939971
vt 0.622314 0.936052
vt 0.626233 0.945513
vt 0.408351 0.957515
vt 0.410537 0.952258
vt 0.410523 0.957516
vt 0.408365 0.952257
vt 0.410523 0.947302
vt 0.278924 0.921553
vt 0.288385 0.917634
vt 0.292304 0.927095
vt 0.799890 0.933300
vt 0.802084 0.928053
vt 0.802062 0.933302
vt 0.799912 0.928051
vt 0.802062 0.923084
vt 0.782558 0.950632
vt 0.784747 0.945385
vt 0.784730 0.950633
vt 0.782574 0.945384
vt 0.784730 0.940415
vt 0.305220 0.865181
vt 0.307417 0.859935
vt 0.307392 0.865182
vt 0.305245 0.859934
vt 0.307392 0.854964
vt 0.808233 0.941483
vt 0.817692 0.937565
vt 0.821610 0.947026
vt 0.414489 0.957515
vt 0.416676 0.952258
vt 0.416662 0.957516
vt 0.414503 0.952257
vt 0.416662 0.947302
vt 0.001976 0.925154
vt 0.011437 0.921235
vt 0.015355 0.930696
vt 0.570498 0.920788
vt 0.572693 0.915540
vt 0.572671 0.920789
vt 0.570521 0.915539
vt 0.572671 0.910571
vt 0.270383 0.951182
vt 0.272572 0.945935
vt 0.272556 0.951183
vt 0.270400 0.945934
vt 0.272556 0.940965
vt 0.305220 0.709284
vt 0.307417 0.704039
vt 0.307392 0.709286
vt 0.305245 0.704037
vt 0.307392 0.699067
vt 0.053971 0.942485
vt 0.063430 0.938568
vt 0.067348 0.948029
vt 0.446917 0.957495
vt 0.449103 0.952238
vt 0.449089 0.957496
vt 0.446931 0.952237
vt 0.449089 0.947282
vt 0.019308 0.925154
vt 0.028768 0.921236
vt 0.032687 0.930696
vt 0.562844 0.920788
vt 0.565039 0.915540
vt 0.565017 0.920789
vt 0.562867 0.915539
vt 0.565017 0.910571
vt 0.088634 0.951672
vt 0.090822 0.946425
vt 0.090806 0.951673
vt 0.088650 0.946424
vt 0.090806 0.941455
vt 0.305220 0.879353
vt 0.307417 0.874108
vt 0.307392 0.879355
vt 0.305245 0.874106
vt 0.307392 0.869136
vt 0.379472 0.940150
vt 0.388931 0.936233
vt 0.392849 0.945694
vt 0.367796 0.956688
vt 0.369982 0.951430
vt 0.369969 0.956689
vt 0.367810 0.951429
vt 0.369969 0.946475
vt 0.656653 0.936783
vt 0.666114 0.932864
vt 0.670033 0.942325
vt 0.799890 0.947472
vt 0.802084 0.942224
vt 0.802062 0.947473
vt 0.799912 0.942223
vt 0.802062 0.937255
vt 0.788699 0.950632
vt 0.790887 0.945385
vt 0.790871 0.950633
vt 0.788715 0.945384
vt 0.790871 0.940415
vt 0.305220 0.822664
vt 0.307417 0.817418
vt 0.307392 0.822665
vt 0.305245 0.817416
vt 0.307392 0.812447
vt 0.762175 0.940658
vt 0.771634 0.936741
vt 0.775552 0.946202
vt 0.459193 0.957495
vt 0.461380 0.952238
vt 0.461366 0.957496
vt 0.459207 0.952237
vt 0.461366 0.947282
vt 0.888594 0.926137
vt 0.898054 0.922219
vt 0.901973 0.931679
vt 0.077449 0.948785
vt 0.079643 0.943538
vt 0.079621 0.948787
vt 0.077471 0.943536
vt 0.079621 0.938569
vt 0.096836 0.951672
vt 0.099025 0.946425
vt 0.099009 0.951673
vt 0.096853 0.946424
vt 0.099009 0.941455
vt 0.305220 0.751802
vt 0.307417 0.746556
vt 0.307392 0.751803
vt 0.305245 0.746554
vt 0.307392 0.741585
vt 0.717240 0.940948
vt 0.726699 0.937030
vt 0.730618 0.946491
vt 0.875120 0.954985
vt 0.877306 0.949727
vt 0.877292 0.954986
vt 0.875134 0.949726
vt 0.877292 0.944772
vt 0.866801 0.931358
vt 0.876261 0.927439
vt 0.880180 0.936900
vt 0.738699 0.946866
vt 0.740893 0.941619
vt 0.740871 0.946868
vt 0.738721 0.941617
vt 0.740871 0.936650
vt 0.832138 0.954989
vt 0.834326 0.949742
vt 0.834310 0.954990
vt 0.832154 0.949741
vt 0.834310 0.944772
vt 0.305220 0.794319
vt 0.307417 0.789073
vt 0.307392 0.794320
vt 0.305245 0.789072
vt 0.307392 0.784102
vt 0.278924 0.938884
vt 0.288383 0.934966
vt 0.292301 0.944427
vt 0.434640 0.957495
vt 0.436826 0.952238
vt 0.436812 0.957496
vt 0.434654 0.952237
vt 0.436812 0.947282
vt 0.036639 0.925154
vt 0.046100 0.921235
vt 0.050018 0.930696
vt 0.825562 0.947783
vt 0.827757 0.942535
vt 0.827735 0.947784
vt 0.825585 0.942534
vt 0.827735 0.937566
vt 0.838279 0.954989
vt 0.840467 0.949742
vt 0.840451 0.954990
vt 0.838295 0.949741
vt 0.840451 0.944772
vt 0.305220 0.893526
vt 0.307417 0.888280
vt 0.307392 0.893527
vt 0.305245 0.888278
vt 0.307392 0.883309
vt 0.001976 0.942486
vt 0.011435 0.938567
vt 0.015354 0.948028
vt 0.881259 0.954985
vt 0.883445 0.949728
vt 0.883431 0.954986
vt 0.881272 0.949726
vt 0.883431 0.944772
vt 0.681973 0.937006
vt 0.691434 0.933087
vt 0.695352 0.942548
vt 0.296256 0.948055
vt 0.298450 0.942807
vt 0.298428 0.948056
vt 0.296278 0.942806
vt 0.298428 0.937838
vt 0.888594 0.949768
vt 0.890782 0.944521
vt 0.890766 0.949770
vt 0.888610 0.944520
vt 0.890766 0.939551
vt 0.305220 0.765974
vt 0.307417 0.760728
vt 0.307392 0.765976
vt 0.305245 0.760727
vt 0.307392 0.755757
vt 0.019308 0.942486
vt 0.028766 0.938567
vt 0.032685 0.948028
vt 0.361658 0.956688
vt 0.363844 0.951430
vt 0.363830 0.956689
vt 0.361672 0.951429
vt 0.363830 0.946475
vt 0.071302 0.925154
vt 0.080763 0.921235
vt 0.084681 0.930696
vt 0.673985 0.943082
vt 0.676179 0.937835
vt 0.676157 0.943084
vt 0.674007 0.937833
vt 0.676157 0.932866
vt 0.844419 0.954989
vt 0.846608 0.949742
vt 0.846591 0.954990
vt 0.844435 0.949741
vt 0.846591 0.944772
vt 0.305220 0.737629
vt 0.307417 0.732384
vt 0.307392 0.737631
vt 0.305245 0.732382
vt 0.307392 0.727412
vt 0.635241 0.940395
vt 0.644700 0.936477
vt 0.648618 0.945938
vt 0.868982 0.954985
vt 0.871168 0.949728
vt 0.871154 0.954986
vt 0.868996 0.949727
vt 0.871154 0.944772
vt 0.053971 0.925154
vt 0.063431 0.921235
vt 0.067350 0.930696
vt 0.932267 0.224035
vt 0.949594 0.612917
vt 0.927594 0.612917
vt 0.512586 0.376433
vt 0.468394 0.350914
vt 0.432312 0.314825
vt 0.406797 0.270626
vt 0.393590 0.221328
vt 0.393589 0.170291
vt 0.406795 0.120992
vt 0.468389 0.040704
vt 0.512580 0.015185
vt 0.561869 0.001976
vt 0.612896 0.001976
vt 0.662185 0.015186
vt 0.706377 0.040704
vt 0.742460 0.076793
vt 0.781182 0.170291
vt 0.781183 0.221328
vt 0.767977 0.270626
vt 0.742464 0.314826
vt 0.706382 0.350914
vt 0.662192 0.376433
vt 0.612903 0.389642
vt 0.954191 0.224035
vt 0.270622 0.376433
vt 0.221324 0.389642
vt 0.170288 0.389642
vt 0.120990 0.376433
vt 0.076792 0.350915
vt 0.040703 0.314826
vt 0.015185 0.270626
vt 0.001976 0.170291
vt 0.015185 0.120993
vt 0.040704 0.076793
vt 0.076792 0.040704
vt 0.120991 0.015186
vt 0.170288 0.001976
vt 0.221325 0.001976
vt 0.314821 0.040704
vt 0.350909 0.076793
vt 0.376427 0.120992
vt 0.389636 0.170291
vt 0.389636 0.221328
vt 0.376427 0.270626
vt 0.350909 0.314826
vt 0.975897 0.224035
vt 0.980335 0.612917
vt 0.971363 0.612917
vt 0.984793 0.224035
vt 0.887130 0.001976
vt 0.888589 0.393595
vt 0.264243 0.699065
vt 0.399993 0.684838
vt 0.365622 0.664990
vt 0.337558 0.636920
vt 0.317714 0.602542
vt 0.307442 0.564199
vt 0.307442 0.524504
vt 0.317714 0.486161
vt 0.365622 0.423715
vt 0.399993 0.403868
vt 0.438329 0.393595
vt 0.478017 0.393595
vt 0.516353 0.403870
vt 0.550723 0.423718
vt 0.578787 0.451788
vt 0.608903 0.524509
vt 0.608903 0.564204
vt 0.598631 0.602547
vt 0.578787 0.636924
vt 0.550723 0.664993
vt 0.516353 0.684840
vt 0.478017 0.695113
vt 0.888594 0.612917
vt 0.210923 0.684839
vt 0.172580 0.695113
vt 0.132885 0.695113
vt 0.094543 0.684839
vt 0.060166 0.664991
vt 0.032097 0.636922
vt 0.012250 0.602545
vt 0.001976 0.524506
vt 0.012250 0.486163
vt 0.032098 0.451785
vt 0.060166 0.423716
vt 0.094543 0.403869
vt 0.132886 0.393595
vt 0.172581 0.393595
vt 0.245300 0.423716
vt 0.273368 0.451785
vt 0.293216 0.486163
vt 0.303490 0.524506
vt 0.303490 0.564202
vt 0.293216 0.602545
vt 0.273368 0.636922
vt 0.973597 0.001976
vt 0.982361 0.001976
vt 0.964774 0.001976
vt 0.989074 0.612917
vt 0.832175 0.393595
vt 0.832138 0.770188
vt 0.832138 0.612917
vt 0.678965 0.820949
vt 0.654414 0.806772
vt 0.634368 0.786722
vt 0.620194 0.762167
vt 0.612856 0.734779
vt 0.612856 0.706425
vt 0.620192 0.679037
vt 0.654411 0.634433
vt 0.678962 0.620256
vt 0.706344 0.612917
vt 0.734693 0.612917
vt 0.762076 0.620256
vt 0.786627 0.634433
vt 0.806673 0.654482
vt 0.828185 0.706425
vt 0.828186 0.734779
vt 0.820849 0.762167
vt 0.806675 0.786722
vt 0.786630 0.806772
vt 0.762079 0.820949
vt 0.734697 0.828287
vt 0.875972 0.224035
vt 0.762103 0.601626
vt 0.734716 0.608965
vt 0.706362 0.608965
vt 0.678975 0.601626
vt 0.654420 0.587449
vt 0.634371 0.567400
vt 0.620194 0.542845
vt 0.612856 0.487103
vt 0.620194 0.459715
vt 0.634371 0.435160
vt 0.654420 0.415110
vt 0.678975 0.400933
vt 0.706362 0.393595
vt 0.734716 0.393595
vt 0.786658 0.415110
vt 0.806707 0.435160
vt 0.820884 0.459715
vt 0.828222 0.487103
vt 0.828222 0.515457
vt 0.820884 0.542845
vt 0.806707 0.567400
vt 0.989074 0.833409
vt 0.991002 0.001976
vt 0.914847 0.831380
vt 0.993468 0.224035
vt 0.467379 0.895504
vt 0.572693 0.906026
vt 0.678021 0.908467
vt 0.376530 0.894369
vt 0.608903 0.699067
vt 0.402213 0.814927
vt 0.939179 0.958463
vt 0.165766 0.948681
vt 0.954716 0.958122
vt 0.245974 0.948703
vt 0.398260 0.699067
vt 0.785135 0.328310
vt 0.941625 0.002063
vt 0.883178 0.002866
vt 0.960822 0.002078
vt 0.099938 0.700069
vt 0.596919 0.818873
vt 0.471331 0.949206
vt 0.605250 0.818898
vt 0.180146 0.699757
vt 0.499912 0.818909
vt 0.260291 0.699846
vt 0.175511 0.870243
vt 0.249926 0.971692
vt 0.728313 0.908864
vt 0.855803 0.332381
vt 0.150230 0.946471
vt 0.879275 0.550986
vt 0.808233 0.832240
vt 0.948967 0.506826
vt 0.409058 0.899826
vt 0.441479 0.899826
vt 0.866609 0.332262
vt 0.834067 0.603938
vt 0.832958 0.603938
vt 0.832175 0.603154
vt 0.832958 0.601262
vt 0.834850 0.602046
vt 0.530544 0.910570
vt 0.668006 0.928912
vt 0.661356 0.928912
vt 0.656653 0.924210
vt 0.661356 0.912857
vt 0.672708 0.917559
vt 0.778606 0.908864
vt 0.845247 0.550970
vt 0.230438 0.946557
vt 0.862261 0.550986
vt 0.380482 0.807287
vt 0.927639 0.506826
vt 0.425270 0.899826
vt 0.457693 0.899826
vt 0.367517 0.898994
vt 0.840694 0.603938
vt 0.839586 0.603938
vt 0.838802 0.603154
vt 0.839586 0.601262
vt 0.841478 0.602046
vt 0.514334 0.910570
vt 0.693326 0.929135
vt 0.686675 0.929135
vt 0.681973 0.924432
vt 0.686675 0.913079
vt 0.698028 0.917782
vt 0.782558 0.919130
vt 0.910895 0.831381
vt 0.905925 0.936390
vt 0.856700 0.944771
vt 0.305220 0.769928
vt 0.754305 0.950028
vt 0.748764 0.950028
vt 0.744846 0.946108
vt 0.748764 0.936648
vt 0.758223 0.940568
vt 0.673993 0.947036
vt 0.549409 0.947259
vt 0.543867 0.947259
vt 0.539948 0.943340
vt 0.543867 0.933879
vt 0.553328 0.937798
vt 0.905925 0.922219
vt 0.862841 0.944771
vt 0.305220 0.798273
vt 0.046098 0.951947
vt 0.040557 0.951947
vt 0.036639 0.948027
vt 0.040557 0.938567
vt 0.050016 0.942487
vt 0.402213 0.947301
vt 0.792019 0.936462
vt 0.786477 0.936462
vt 0.782558 0.932543
vt 0.786477 0.923082
vt 0.795937 0.927001
vt 0.305220 0.897479
vt 0.850560 0.944771
vt 0.305220 0.826617
vt 0.566739 0.947259
vt 0.561198 0.947258
vt 0.557280 0.943339
vt 0.561198 0.933879
vt 0.570657 0.937799
vt 0.440778 0.947281
vt 0.841599 0.940819
vt 0.836057 0.940819
vt 0.832138 0.936900
vt 0.836057 0.927439
vt 0.845517 0.931358
vt 0.302402 0.937837
vt 0.264243 0.940964
vt 0.305220 0.840790
vt 0.709370 0.950790
vt 0.703829 0.950789
vt 0.699911 0.946870
vt 0.703829 0.937410
vt 0.713288 0.941330
vt 0.453055 0.947281
vt 0.858930 0.940819
vt 0.853388 0.940819
vt 0.849469 0.936900
vt 0.853388 0.927439
vt 0.862849 0.931358
vt 0.071302 0.938567
vt 0.894734 0.939550
vt 0.305220 0.713238
vt 0.622316 0.949432
vt 0.616775 0.949432
vt 0.612856 0.945513
vt 0.616773 0.936052
vt 0.626233 0.939971
vt 0.408351 0.947301
vt 0.288385 0.931013
vt 0.282843 0.931013
vt 0.278924 0.927095
vt 0.282843 0.917634
vt 0.292304 0.921553
vt 0.799890 0.923082
vt 0.782558 0.940414
vt 0.305220 0.854962
vt 0.817692 0.950945
vt 0.812151 0.950944
vt 0.808233 0.947025
vt 0.812151 0.937565
vt 0.821610 0.941484
vt 0.414489 0.947301
vt 0.011437 0.934615
vt 0.005895 0.934615
vt 0.001976 0.930696
vt 0.005895 0.921236
vt 0.015355 0.925154
vt 0.570498 0.910570
vt 0.270383 0.940963
vt 0.305220 0.699066
vt 0.063430 0.951947
vt 0.057889 0.951946
vt 0.053971 0.948027
vt 0.057889 0.938567
vt 0.067348 0.942487
vt 0.446917 0.947281
vt 0.028768 0.934615
vt 0.023226 0.934615
vt 0.019308 0.930696
vt 0.023226 0.921236
vt 0.032687 0.925154
vt 0.562844 0.910570
vt 0.088634 0.941454
vt 0.305220 0.869135
vt 0.388931 0.949612
vt 0.383390 0.949612
vt 0.379472 0.945692
vt 0.383390 0.936232
vt 0.392849 0.940152
vt 0.367796 0.946474
vt 0.666114 0.946244
vt 0.660572 0.946244
vt 0.656653 0.942325
vt 0.660572 0.932864
vt 0.670033 0.936783
vt 0.799890 0.937254
vt 0.788699 0.940414
vt 0.305220 0.812445
vt 0.771634 0.950120
vt 0.766093 0.950119
vt 0.762175 0.946200
vt 0.766093 0.936740
vt 0.775552 0.940660
vt 0.459193 0.947281
vt 0.898054 0.935598
vt 0.892513 0.935598
vt 0.888594 0.931679
vt 0.892513 0.922219
vt 0.901973 0.926137
vt 0.077449 0.938567
vt 0.096836 0.941454
vt 0.305220 0.741583
vt 0.726699 0.950409
vt 0.721158 0.950409
vt 0.717240 0.946490
vt 0.721158 0.937029
vt 0.730618 0.940949
vt 0.875120 0.944771
vt 0.876261 0.940819
vt 0.870720 0.940819
vt 0.866801 0.936900
vt 0.870720 0.927439
vt 0.880180 0.931358
vt 0.738699 0.936648
vt 0.832138 0.944771
vt 0.305220 0.784100
vt 0.288383 0.948345
vt 0.282842 0.948345
vt 0.278924 0.944426
vt 0.282842 0.934966
vt 0.292301 0.938885
vt 0.434640 0.947281
vt 0.046100 0.934615
vt 0.040558 0.934615
vt 0.036639 0.930696
vt 0.040558 0.921236
vt 0.050018 0.925154
vt 0.825562 0.937565
vt 0.838279 0.944771
vt 0.305220 0.883307
vt 0.011436 0.951946
vt 0.005895 0.951946
vt 0.001977 0.948028
vt 0.005894 0.938567
vt 0.015353 0.942486
vt 0.881259 0.944771
vt 0.691434 0.946466
vt 0.685892 0.946466
vt 0.681973 0.942548
vt 0.685892 0.933087
vt 0.695352 0.937006
vt 0.296256 0.937837
vt 0.888594 0.939550
vt 0.305220 0.755755
vt 0.028768 0.951946
vt 0.023227 0.951946
vt 0.019308 0.948028
vt 0.023225 0.938567
vt 0.032685 0.942486
vt 0.361658 0.946474
vt 0.080763 0.934615
vt 0.075221 0.934615
vt 0.071302 0.930696
vt 0.075221 0.921236
vt 0.084681 0.925154
vt 0.673985 0.932864
vt 0.844419 0.944771
vt 0.305220 0.727411
vt 0.644700 0.949856
vt 0.639159 0.949856
vt 0.635241 0.945937
vt 0.639159 0.936476
vt 0.648618 0.940396
vt 0.868982 0.944771
vt 0.063431 0.934615
vt 0.057889 0.934615
vt 0.053971 0.930696
vt 0.057889 0.921235
vt 0.067350 0.925154
s 0
f 2/1/1 3/2/1 1/3/1
f 4/4/2 5/5/2 3/2/2
f 6/6/3 7/7/3 5/5/3
f 8/8/4 9/9/4 7/7/4
f 10/10/5 11/11/5 9/9/5
f 12/12/6 13/13/6 11/11/6
f 14/14/7 15/15/7 13/16/7
f 16/17/8 17/18/8 15/15/8
f 18/19/9 19/20/9 17/18/9
f 20/21/10 21/22/10 19/20/10
f 22/23/11 23/24/11 21/22/11
f 24/25/12 25/26/12 23/24/12
f 26/27/13 27/28/13 25/29/13
f 28/30/14 29/31/14 27/28/14
f 30/32/15 31/33/15 29/31/15
f 32/34/16 33/35/16 31/33/16
f 34/36/17 35/37/17 33/35/17
f 36/38/18 37/39/18 35/37/18
f 38/40/19 39/41/19 37/42/19
f 40/43/20 41/44/20 39/41/20
f 42/45/21 43/46/21 41/44/21
f 44/47/22 45/48/22 43/46/22
f 38/49/23 22/50/23 6/51/23
f 46/52/24 47/53/24 45/48/24
f 48/54/25 1/55/25 47/53/25
f 15/56/26 31/57/26 47/58/26
f 50/59/1 51/60/1 49/61/1
f 52/62/2 53/63/2 51/60/2
f 54/64/3 55/65/3 53/63/3
f 56/66/4 57/67/4 55/65/4
f 58/68/5 59/69/5 57/67/5
f 60/70/6 61/71/6 59/69/6
f 62/72/7 63/73/7 61/74/7
f 64/75/8 65/76/8 63/73/8
f 66/77/9 67/78/9 65/76/9
f 68/79/10 69/80/10 67/78/10
f 70/81/11 71/82/11 69/80/11
f 72/83/12 73/84/12 71/82/12
f 74/85/13 75/86/13 73/87/13
f 76/88/14 77/89/14 75/86/14
f 78/90/15 79/91/15 77/89/15
f 80/92/16 81/93/16 79/91/16
f 82/94/17 83/95/17 81/93/17
f 84/96/18 85/97/18 83/95/18
f 86/98/19 87/99/19 85/100/19
f 88/101/20 89/102/20 87/99/20
f 90/103/21 91/104/21 89/102/21
f 92/105/22 93/106/22 91/104/22
f 94/107/24 95/108/24 93/106/24
f 96/109/25 49/110/25 95/108/25
f 98/111/1 99/112/1 97/113/1
f 100/114/2 101/115/2 99/112/2
f 102/116/3 103/117/3 101/115/3
f 104/118/4 105/119/4 103/117/4
f 106/120/5 107/121/5 105/119/5
f 108/122/6 109/123/6 107/121/6
f 110/124/7 111/125/7 109/126/7
f 112/127/8 113/128/8 111/125/8
f 114/129/9 115/130/9 113/128/9
f 116/131/10 117/132/10 115/130/10
f 118/133/11 119/134/11 117/132/11
f 120/135/12 121/136/12 119/134/12
f 122/137/13 123/138/13 121/139/13
f 124/140/14 125/141/14 123/138/14
f 126/142/15 127/143/15 125/141/15
f 128/144/16 129/145/16 127/143/16
f 130/146/17 131/147/17 129/145/17
f 132/148/18 133/149/18 131/147/18
f 134/150/19 135/151/19 133/152/19
f 136/153/20 137/154/20 135/151/20
f 138/155/21 139/156/21 137/154/21
f 140/157/22 141/158/22 139/156/22
f 134/159/23 118/160/23 102/161/23
f 142/162/24 143/163/24 141/158/24
f 144/164/25 97/165/25 143/163/25
f 111/166/26 127/167/26 143/168/26
f 146/169/1 147/170/1 145/171/1
f 148/172/2 149/173/2 147/170/2
f 150/174/3 151/175/3 149/173/3
f 152/176/4 153/177/4 151/175/4
f 154/178/5 155/179/5 153/177/5
f 156/180/6 157/181/6 155/179/6
f 158/182/7 159/183/7 157/184/7
f 160/185/8 161/186/8 159/183/8
f 162/187/9 163/188/9 161/186/9
f 164/189/10 165/190/10 163/188/10
f 166/191/11 167/192/11 165/190/11
f 168/193/12 169/194/12 167/192/12
f 170/195/13 171/196/13 169/197/13
f 172/198/14 173/199/14 171/196/14
f 174/200/15 175/201/15 173/199/15
f 176/202/16 177/203/16 175/201/16
f 178/204/17 179/205/17 177/203/17
f 180/206/18 181/207/18 179/205/18
f 182/208/19 183/209/19 181/210/19
f 184/211/20 185/212/20 183/209/20
f 186/213/21 187/214/21 185/212/21
f 188/215/22 189/216/22 187/214/22
f 190/217/24 191/218/24 189/216/24
f 192/219/25 145/220/25 191/218/25
f 194/221/1 195/222/1 193/223/1
f 196/224/2 197/225/2 195/222/2
f 198/226/3 199/227/3 197/225/3
f 200/228/4 201/229/4 199/227/4
f 202/230/5 203/231/5 201/229/5
f 204/232/6 205/233/6 203/231/6
f 206/234/7 207/235/7 205/236/7
f 208/237/8 209/238/8 207/235/8
f 210/239/9 211/240/9 209/238/9
f 212/241/10 213/242/10 211/240/10
f 214/243/11 215/244/11 213/242/11
f 216/245/12 217/246/12 215/244/12
f 218/247/13 219/248/13 217/249/13
f 220/250/14 221/251/14 219/248/14
f 222/252/15 223/253/15 221/251/15
f 224/254/16 225/255/16 223/253/16
f 226/256/17 227/257/17 225/255/17
f 228/258/18 229/259/18 227/257/18
f 230/260/19 231/261/19 229/262/19
f 232/263/20 233/264/20 231/261/20
f 234/265/21 235/266/21 233/264/21
f 236/267/22 237/268/22 235/266/22
f 230/269/23 214/270/23 198/271/23
f 238/272/24 239/273/24 237/268/24
f 240/274/25 193/275/25 239/273/25
f 207/276/26 223/277/26 239/278/26
f 242/279/1 243/280/1 241/281/1
f 244/282/2 245/283/2 243/280/2
f 246/284/3 247/285/3 245/283/3
f 248/286/4 249/287/4 247/285/4
f 250/288/5 251/289/5 249/287/5
f 252/290/6 253/291/6 251/289/6
f 254/292/7 255/293/7 253/294/7
f 256/295/8 257/296/8 255/293/8
f 258/297/9 259/298/9 257/296/9
f 260/299/10 261/300/10 259/298/10
f 262/301/11 263/302/11 261/300/11
f 264/303/12 265/304/12 263/302/12
f 266/305/13 267/306/13 265/307/13
f 268/308/14 269/309/14 267/306/14
f 270/310/15 271/311/15 269/309/15
f 272/312/16 273/313/16 271/311/16
f 274/314/17 275/315/17 273/313/17
f 276/316/18 277/317/18 275/315/18
f 278/318/19 279/319/19 277/320/19
f 280/321/20 281/322/20 279/319/20
f 282/323/21 283/324/21 281/322/21
f 284/325/22 285/326/22 283/324/22
f 286/327/24 287/328/24 285/326/24
f 288/329/25 241/330/25 287/328/25
f 290/331/27 291/332/27 289/333/27
f 292/334/28 295/335/28 291/336/28
f 296/337/29 293/338/29 295/339/29
f 294/340/30 289/341/30 293/342/30
f 295/343/26 289/344/26 291/345/26
f 292/346/23 294/347/23 296/348/23
f 298/349/27 299/350/27 297/351/27
f 300/352/28 303/353/28 299/354/28
f 304/355/29 301/356/29 303/357/29
f 302/358/30 297/359/30 301/360/30
f 303/361/26 297/362/26 299/363/26
f 300/364/23 302/365/23 304/366/23
f 306/367/27 307/368/27 305/369/27
f 308/370/28 311/371/28 307/372/28
f 312/373/29 309/374/29 311/375/29
f 310/376/30 305/377/30 309/378/30
f 311/379/26 305/380/26 307/381/26
f 308/382/23 310/383/23 312/384/23
f 314/385/27 315/386/27 313/387/27
f 316/388/28 319/389/28 315/390/28
f 320/391/29 317/392/29 319/393/29
f 318/394/30 313/395/30 317/396/30
f 319/397/26 313/398/26 315/399/26
f 316/400/23 318/401/23 320/402/23
f 322/403/27 323/404/27 321/405/27
f 324/406/28 327/407/28 323/408/28
f 328/409/29 325/410/29 327/411/29
f 326/412/30 321/413/30 325/414/30
f 327/415/26 321/416/26 323/417/26
f 324/418/23 326/419/23 328/420/23
f 329/421/31 330/422/31 331/423/31
f 330/422/32 329/421/32 334/424/32
f 329/421/33 331/423/33 332/425/33
f 329/426/34 332/427/34 333/428/34
f 329/429/35 333/430/35 334/431/35
f 330/432/36 334/433/36 339/434/36
f 331/435/37 330/432/37 335/436/37
f 332/437/38 331/438/38 336/439/38
f 333/428/39 332/427/39 337/440/39
f 334/431/40 333/430/40 338/441/40
f 330/432/41 339/434/41 335/436/41
f 331/438/42 335/442/42 336/439/42
f 332/427/43 336/443/43 337/440/43
f 333/428/44 337/440/44 338/444/44
f 334/431/45 338/441/45 339/445/45
f 335/436/46 339/434/46 340/446/46
f 336/439/47 335/442/47 340/447/47
f 337/448/48 336/449/48 340/450/48
f 338/451/49 337/448/49 340/450/49
f 339/452/50 338/451/50 340/450/50
f 342/453/51 343/454/51 341/455/51
f 344/456/52 345/457/52 343/454/52
f 346/458/53 347/459/53 345/460/53
f 348/461/54 349/462/54 347/459/54
f 350/463/55 351/464/55 349/465/55
f 352/466/56 353/467/56 351/464/56
f 354/468/23 350/469/23 346/470/23
f 354/471/57 355/472/57 353/473/57
f 356/474/58 341/475/58 355/472/58
f 347/476/26 351/477/26 355/478/26
f 358/479/27 359/480/27 357/481/27
f 360/482/28 363/483/28 359/484/28
f 364/485/29 361/486/29 363/487/29
f 362/488/30 357/489/30 361/490/30
f 363/491/26 357/492/26 359/493/26
f 360/494/23 362/495/23 364/496/23
f 365/497/59 366/498/59 367/499/59
f 366/498/60 365/497/60 370/500/60
f 365/497/61 367/499/61 368/501/61
f 365/497/62 368/501/62 369/502/62
f 365/497/63 369/502/63 370/500/63
f 366/503/64 370/504/64 375/505/64
f 367/506/65 366/507/65 371/508/65
f 368/509/66 367/510/66 372/511/66
f 369/512/67 368/513/67 373/514/67
f 370/515/68 369/512/68 374/516/68
f 366/507/69 375/517/69 371/508/69
f 367/506/70 371/508/70 372/518/70
f 368/509/71 372/511/71 373/519/71
f 369/512/72 373/514/72 374/516/72
f 370/504/73 374/520/73 375/505/73
f 371/521/74 375/522/74 376/523/74
f 372/524/75 371/521/75 376/523/75
f 373/525/76 372/524/76 376/523/76
f 374/526/77 373/525/77 376/523/77
f 375/522/78 374/526/78 376/523/78
f 378/527/51 379/528/51 377/529/51
f 380/530/52 381/531/52 379/528/52
f 382/532/53 383/533/53 381/534/53
f 384/535/54 385/536/54 383/533/54
f 386/537/55 387/538/55 385/539/55
f 387/538/56 390/540/56 389/541/56
f 390/542/23 386/543/23 382/544/23
f 390/545/57 391/546/57 389/547/57
f 392/548/58 377/549/58 391/546/58
f 383/550/26 387/551/26 391/552/26
f 393/553/30 394/554/30 395/555/30
f 398/556/28 397/557/28 396/558/28
f 393/559/26 397/560/26 394/561/26
f 394/562/79 398/563/79 395/564/79
f 395/564/80 396/565/80 393/566/80
f 400/567/2 401/568/2 399/569/2
f 402/570/5 403/571/5 401/568/5
f 404/572/8 405/573/8 403/574/8
f 406/575/11 407/576/11 405/573/11
f 408/577/14 409/578/14 407/579/14
f 410/580/17 411/581/17 409/578/17
f 412/582/23 408/583/23 404/584/23
f 412/585/20 413/586/20 411/587/20
f 414/588/24 399/589/24 413/586/24
f 405/590/26 409/591/26 413/592/26
f 416/593/2 417/594/2 415/595/2
f 418/596/5 419/597/5 417/594/5
f 420/598/8 421/599/8 419/600/8
f 422/601/11 423/602/11 421/599/11
f 424/603/14 425/604/14 423/605/14
f 426/606/17 427/607/17 425/604/17
f 428/608/23 424/609/23 420/610/23
f 428/611/20 429/612/20 427/613/20
f 430/614/24 415/615/24 429/612/24
f 421/616/26 425/617/26 429/618/26
f 432/619/2 433/620/2 431/621/2
f 434/622/5 435/623/5 433/620/5
f 436/624/8 437/625/8 435/626/8
f 438/627/11 439/628/11 437/625/11
f 440/629/14 441/630/14 439/631/14
f 442/632/17 443/633/17 441/630/17
f 444/634/23 440/635/23 436/636/23
f 444/637/20 445/638/20 443/639/20
f 446/640/24 431/641/24 445/638/24
f 437/642/26 441/643/26 445/644/26
f 448/645/2 449/646/2 447/647/2
f 450/648/5 451/649/5 449/646/5
f 452/650/8 453/651/8 451/652/8
f 454/653/11 455/654/11 453/651/11
f 456/655/14 457/656/14 455/657/14
f 458/658/17 459/659/17 457/656/17
f 460/660/23 456/661/23 452/662/23
f 460/663/20 461/664/20 459/665/20
f 462/666/24 447/667/24 461/664/24
f 453/668/26 457/669/26 461/670/26
f 464/671/2 465/672/2 463/673/2
f 466/674/5 467/675/5 465/672/5
f 468/676/8 469/677/8 467/678/8
f 470/679/11 471/680/11 469/677/11
f 472/681/14 473/682/14 471/683/14
f 474/684/17 475/685/17 473/682/17
f 476/686/23 472/687/23 468/688/23
f 476/689/20 477/690/20 475/691/20
f 478/692/24 463/693/24 477/690/24
f 469/694/26 473/695/26 477/696/26
f 480/697/2 481/698/2 479/699/2
f 482/700/5 483/701/5 481/698/5
f 484/702/8 485/703/8 483/704/8
f 486/705/11 487/706/11 485/703/11
f 488/707/14 489/708/14 487/709/14
f 490/710/17 491/711/17 489/708/17
f 492/712/23 488/713/23 484/714/23
f 492/715/20 493/716/20 491/717/20
f 494/718/24 479/719/24 493/716/24
f 485/720/26 489/721/26 493/722/26
f 496/723/2 497/724/2 495/725/2
f 498/726/5 499/727/5 497/724/5
f 500/728/8 501/729/8 499/730/8
f 502/731/11 503/732/11 501/729/11
f 504/733/14 505/734/14 503/735/14
f 506/736/17 507/737/17 505/734/17
f 508/738/23 504/739/23 500/740/23
f 508/741/20 509/742/20 507/743/20
f 510/744/24 495/745/24 509/742/24
f 501/746/26 505/747/26 509/748/26
f 512/749/2 513/750/2 511/751/2
f 514/752/5 515/753/5 513/750/5
f 516/754/8 517/755/8 515/756/8
f 518/757/11 519/758/11 517/755/11
f 520/759/14 521/760/14 519/761/14
f 522/762/17 523/763/17 521/760/17
f 524/764/23 520/765/23 516/766/23
f 524/767/20 525/768/20 523/769/20
f 526/770/24 511/771/24 525/768/24
f 517/772/26 521/773/26 525/774/26
f 528/775/2 529/776/2 527/777/2
f 530/778/5 531/779/5 529/776/5
f 532/780/8 533/781/8 531/782/8
f 534/783/11 535/784/11 533/781/11
f 536/785/14 537/786/14 535/787/14
f 538/788/17 539/789/17 537/786/17
f 540/790/23 536/791/23 532/792/23
f 540/793/20 541/794/20 539/795/20
f 542/796/24 527/797/24 541/794/24
f 533/798/26 537/799/26 541/800/26
f 544/801/2 545/802/2 543/803/2
f 546/804/5 547/805/5 545/802/5
f 548/806/8 549/807/8 547/808/8
f 550/809/11 551/810/11 549/807/11
f 552/811/14 553/812/14 551/813/14
f 554/814/17 555/815/17 553/812/17
f 556/816/23 552/817/23 548/818/23
f 556/819/20 557/820/20 555/821/20
f 558/822/24 543/823/24 557/820/24
f 549/824/26 553/825/26 557/826/26
f 560/827/2 561/828/2 559/829/2
f 562/830/5 563/831/5 561/828/5
f 564/832/8 565/833/8 563/834/8
f 566/835/11 567/836/11 565/833/11
f 568/837/14 569/838/14 567/839/14
f 570/840/17 571/841/17 569/838/17
f 572/842/23 568/843/23 564/844/23
f 572/845/20 573/846/20 571/847/20
f 574/848/24 559/849/24 573/846/24
f 565/850/26 569/851/26 573/852/26
f 576/853/2 577/854/2 575/855/2
f 578/856/5 579/857/5 577/854/5
f 580/858/8 581/859/8 579/860/8
f 582/861/11 583/862/11 581/859/11
f 584/863/14 585/864/14 583/865/14
f 586/866/17 587/867/17 585/864/17
f 588/868/23 584/869/23 580/870/23
f 588/871/20 589/872/20 587/873/20
f 590/874/24 575/875/24 589/872/24
f 581/876/26 585/877/26 589/878/26
f 592/879/2 593/880/2 591/881/2
f 594/882/5 595/883/5 593/880/5
f 596/884/8 597/885/8 595/886/8
f 598/887/11 599/888/11 597/885/11
f 600/889/14 601/890/14 599/891/14
f 602/892/17 603/893/17 601/890/17
f 604/894/23 600/895/23 596/896/23
f 604/897/20 605/898/20 603/899/20
f 606/900/24 591/901/24 605/898/24
f 597/902/26 601/903/26 605/904/26
f 608/905/2 609/906/2 607/907/2
f 610/908/5 611/909/5 609/906/5
f 612/910/8 613/911/8 611/912/8
f 614/913/11 615/914/11 613/911/11
f 616/915/14 617/916/14 615/917/14
f 618/918/17 619/919/17 617/916/17
f 620/920/23 616/921/23 612/922/23
f 620/923/20 621/924/20 619/925/20
f 622/926/24 607/927/24 621/924/24
f 613/928/26 617/929/26 621/930/26
f 2/1/1 4/4/1 3/2/1
f 4/4/2 6/6/2 5/5/2
f 6/6/3 8/8/3 7/7/3
f 8/8/4 10/10/4 9/9/4
f 10/10/5 12/12/5 11/11/5
f 12/12/6 14/931/6 13/13/6
f 14/14/7 16/17/7 15/15/7
f 16/17/8 18/19/8 17/18/8
f 18/19/9 20/21/9 19/20/9
f 20/21/10 22/23/10 21/22/10
f 22/23/11 24/25/11 23/24/11
f 24/25/12 26/932/12 25/26/12
f 26/27/13 28/30/13 27/28/13
f 28/30/14 30/32/14 29/31/14
f 30/32/15 32/34/15 31/33/15
f 32/34/16 34/36/16 33/35/16
f 34/36/17 36/38/17 35/37/17
f 36/38/18 38/933/18 37/39/18
f 38/40/19 40/43/19 39/41/19
f 40/43/20 42/45/20 41/44/20
f 42/45/21 44/47/21 43/46/21
f 44/47/22 46/52/22 45/48/22
f 6/51/23 4/934/23 2/935/23
f 2/935/23 48/936/23 46/937/23
f 46/937/23 44/938/23 42/939/23
f 42/939/23 40/940/23 38/49/23
f 38/49/23 36/941/23 34/942/23
f 34/942/23 32/943/23 30/944/23
f 30/944/23 28/945/23 26/946/23
f 26/946/23 24/947/23 22/50/23
f 22/50/23 20/948/23 18/949/23
f 18/949/23 16/950/23 14/951/23
f 14/951/23 12/952/23 10/953/23
f 10/953/23 8/954/23 6/51/23
f 6/51/23 2/935/23 46/937/23
f 46/937/23 42/939/23 38/49/23
f 38/49/23 34/942/23 30/944/23
f 30/944/23 26/946/23 22/50/23
f 22/50/23 18/949/23 14/951/23
f 14/951/23 10/953/23 6/51/23
f 6/51/23 46/937/23 38/49/23
f 38/49/23 30/944/23 22/50/23
f 22/50/23 14/951/23 6/51/23
f 46/52/24 48/54/24 47/53/24
f 48/54/25 2/955/25 1/55/25
f 47/58/26 1/956/26 3/957/26
f 3/957/26 5/958/26 7/959/26
f 7/959/26 9/960/26 11/961/26
f 11/961/26 13/962/26 15/56/26
f 15/56/26 17/963/26 19/964/26
f 19/964/26 21/965/26 23/966/26
f 23/966/26 25/967/26 27/968/26
f 27/968/26 29/969/26 31/57/26
f 31/57/26 33/970/26 35/971/26
f 35/971/26 37/972/26 39/973/26
f 39/973/26 41/974/26 43/975/26
f 43/975/26 45/976/26 47/58/26
f 47/58/26 3/957/26 7/959/26
f 7/959/26 11/961/26 15/56/26
f 15/56/26 19/964/26 23/966/26
f 23/966/26 27/968/26 31/57/26
f 31/57/26 35/971/26 39/973/26
f 39/973/26 43/975/26 47/58/26
f 47/58/26 7/959/26 15/56/26
f 15/56/26 23/966/26 31/57/26
f 31/57/26 39/973/26 47/58/26
f 50/59/1 52/62/1 51/60/1
f 52/62/2 54/64/2 53/63/2
f 54/64/3 56/66/3 55/65/3
f 56/66/4 58/68/4 57/67/4
f 58/68/5 60/70/5 59/69/5
f 60/70/6 62/977/6 61/71/6
f 62/72/7 64/75/7 63/73/7
f 64/75/8 66/77/8 65/76/8
f 66/77/9 68/79/9 67/78/9
f 68/79/10 70/81/10 69/80/10
f 70/81/11 72/83/11 71/82/11
f 72/83/12 74/978/12 73/84/12
f 74/85/13 76/88/13 75/86/13
f 76/88/14 78/90/14 77/89/14
f 78/90/15 80/92/15 79/91/15
f 80/92/16 82/94/16 81/93/16
f 82/94/17 84/96/17 83/95/17
f 84/96/18 86/979/18 85/97/18
f 86/98/19 88/101/19 87/99/19
f 88/101/20 90/103/20 89/102/20
f 90/103/21 92/105/21 91/104/21
f 92/105/22 94/107/22 93/106/22
f 94/107/24 96/109/24 95/108/24
f 96/109/25 50/980/25 49/110/25
f 98/111/1 100/114/1 99/112/1
f 100/114/2 102/116/2 101/115/2
f 102/116/3 104/118/3 103/117/3
f 104/118/4 106/120/4 105/119/4
f 106/120/5 108/122/5 107/121/5
f 108/122/6 110/981/6 109/123/6
f 110/124/7 112/127/7 111/125/7
f 112/127/8 114/129/8 113/128/8
f 114/129/9 116/131/9 115/130/9
f 116/131/10 118/133/10 117/132/10
f 118/133/11 120/135/11 119/134/11
f 120/135/12 122/982/12 121/136/12
f 122/137/13 124/140/13 123/138/13
f 124/140/14 126/142/14 125/141/14
f 126/142/15 128/144/15 127/143/15
f 128/144/16 130/146/16 129/145/16
f 130/146/17 132/148/17 131/147/17
f 132/148/18 134/983/18 133/149/18
f 134/150/19 136/153/19 135/151/19
f 136/153/20 138/155/20 137/154/20
f 138/155/21 140/157/21 139/156/21
f 140/157/22 142/162/22 141/158/22
f 102/161/23 100/984/23 98/985/23
f 98/985/23 144/986/23 142/987/23
f 142/987/23 140/988/23 138/989/23
f 138/989/23 136/990/23 134/159/23
f 134/159/23 132/991/23 130/992/23
f 130/992/23 128/993/23 126/994/23
f 126/994/23 124/995/23 122/996/23
f 122/996/23 120/997/23 118/160/23
f 118/160/23 116/998/23 114/999/23
f 114/999/23 112/1000/23 110/1001/23
f 110/1001/23 108/1002/23 106/1003/23
f 106/1003/23 104/1004/23 102/161/23
f 102/161/23 98/985/23 142/987/23
f 142/987/23 138/989/23 134/159/23
f 134/159/23 130/992/23 126/994/23
f 126/994/23 122/996/23 118/160/23
f 118/160/23 114/999/23 110/1001/23
f 110/1001/23 106/1003/23 102/161/23
f 102/161/23 142/987/23 134/159/23
f 134/159/23 126/994/23 118/160/23
f 118/160/23 110/1001/23 102/161/23
f 142/162/24 144/164/24 143/163/24
f 144/164/25 98/1005/25 97/165/25
f 143/168/26 97/1006/26 99/1007/26
f 99/1007/26 101/1008/26 103/1009/26
f 103/1009/26 105/1010/26 107/1011/26
f 107/1011/26 109/1012/26 111/166/26
f 111/166/26 113/1013/26 115/1014/26
f 115/1014/26 117/1015/26 119/1016/26
f 119/1016/26 121/1017/26 123/1018/26
f 123/1018/26 125/1019/26 127/167/26
f 127/167/26 129/1020/26 131/1021/26
f 131/1021/26 133/1022/26 135/1023/26
f 135/1023/26 137/1024/26 139/1025/26
f 139/1025/26 141/1026/26 143/168/26
f 143/168/26 99/1007/26 103/1009/26
f 103/1009/26 107/1011/26 111/166/26
f 111/166/26 115/1014/26 119/1016/26
f 119/1016/26 123/1018/26 127/167/26
f 127/167/26 131/1021/26 135/1023/26
f 135/1023/26 139/1025/26 143/168/26
f 143/168/26 103/1009/26 111/166/26
f 111/166/26 119/1016/26 127/167/26
f 127/167/26 135/1023/26 143/168/26
f 146/169/1 148/172/1 147/170/1
f 148/172/2 150/174/2 149/173/2
f 150/174/3 152/176/3 151/175/3
f 152/176/4 154/178/4 153/177/4
f 154/178/5 156/180/5 155/179/5
f 156/180/6 158/1027/6 157/181/6
f 158/182/7 160/185/7 159/183/7
f 160/185/8 162/187/8 161/186/8
f 162/187/9 164/189/9 163/188/9
f 164/189/10 166/191/10 165/190/10
f 166/191/11 168/193/11 167/192/11
f 168/193/12 170/1028/12 169/194/12
f 170/195/13 172/198/13 171/196/13
f 172/198/14 174/200/14 173/199/14
f 174/200/15 176/202/15 175/201/15
f 176/202/16 178/204/16 177/203/16
f 178/204/17 180/206/17 179/205/17
f 180/206/18 182/1029/18 181/207/18
f 182/208/19 184/211/19 183/209/19
f 184/211/20 186/213/20 185/212/20
f 186/213/21 188/215/21 187/214/21
f 188/215/22 190/217/22 189/216/22
f 190/217/24 192/219/24 191/218/24
f 192/219/25 146/1030/25 145/220/25
f 194/221/1 196/224/1 195/222/1
f 196/224/2 198/226/2 197/225/2
f 198/226/3 200/228/3 199/227/3
f 200/228/4 202/230/4 201/229/4
f 202/230/5 204/232/5 203/231/5
f 204/232/6 206/1031/6 205/233/6
f 206/234/7 208/237/7 207/235/7
f 208/237/8 210/239/8 209/238/8
f 210/239/9 212/241/9 211/240/9
f 212/241/10 214/243/10 213/242/10
f 214/243/11 216/245/11 215/244/11
f 216/245/12 218/1032/12 217/246/12
f 218/247/13 220/250/13 219/248/13
f 220/250/14 222/252/14 221/251/14
f 222/252/15 224/254/15 223/253/15
f 224/254/16 226/256/16 225/255/16
f 226/256/17 228/258/17 227/257/17
f 228/258/18 230/1033/18 229/259/18
f 230/260/19 232/263/19 231/261/19
f 232/263/20 234/265/20 233/264/20
f 234/265/21 236/267/21 235/266/21
f 236/267/22 238/272/22 237/268/22
f 198/271/23 196/1034/23 194/1035/23
f 194/1035/23 240/1036/23 238/1037/23
f 238/1037/23 236/1038/23 234/1039/23
f 234/1039/23 232/1040/23 230/269/23
f 230/269/23 228/1041/23 226/1042/23
f 226/1042/23 224/1043/23 222/1044/23
f 222/1044/23 220/1045/23 218/1046/23
f 218/1046/23 216/1047/23 214/270/23
f 214/270/23 212/1048/23 210/1049/23
f 210/1049/23 208/1050/23 206/1051/23
f 206/1051/23 204/1052/23 202/1053/23
f 202/1053/23 200/1054/23 198/271/23
f 198/271/23 194/1035/23 238/1037/23
f 238/1037/23 234/1039/23 230/269/23
f 230/269/23 226/1042/23 222/1044/23
f 222/1044/23 218/1046/23 214/270/23
f 214/270/23 210/1049/23 206/1051/23
f 206/1051/23 202/1053/23 198/271/23
f 198/271/23 238/1037/23 230/269/23
f 230/269/23 222/1044/23 214/270/23
f 214/270/23 206/1051/23 198/271/23
f 238/272/24 240/274/24 239/273/24
f 240/274/25 194/1055/25 193/275/25
f 239/278/26 193/1056/26 195/1057/26
f 195/1057/26 197/1058/26 199/1059/26
f 199/1059/26 201/1060/26 203/1061/26
f 203/1061/26 205/1062/26 207/276/26
f 207/276/26 209/1063/26 211/1064/26
f 211/1064/26 213/1065/26 215/1066/26
f 215/1066/26 217/1067/26 219/1068/26
f 219/1068/26 221/1069/26 223/277/26
f 223/277/26 225/1070/26 227/1071/26
f 227/1071/26 229/1072/26 231/1073/26
f 231/1073/26 233/1074/26 235/1075/26
f 235/1075/26 237/1076/26 239/278/26
f 239/278/26 195/1057/26 199/1059/26
f 199/1059/26 203/1061/26 207/276/26
f 207/276/26 211/1064/26 215/1066/26
f 215/1066/26 219/1068/26 223/277/26
f 223/277/26 227/1071/26 231/1073/26
f 231/1073/26 235/1075/26 239/278/26
f 239/278/26 199/1059/26 207/276/26
f 207/276/26 215/1066/26 223/277/26
f 223/277/26 231/1073/26 239/278/26
f 242/279/1 244/282/1 243/280/1
f 244/282/2 246/284/2 245/283/2
f 246/284/3 248/286/3 247/285/3
f 248/286/4 250/288/4 249/287/4
f 250/288/5 252/290/5 251/289/5
f 252/290/6 254/1077/6 253/291/6
f 254/292/7 256/295/7 255/293/7
f 256/295/8 258/297/8 257/296/8
f 258/297/9 260/299/9 259/298/9
f 260/299/10 262/301/10 261/300/10
f 262/301/11 264/303/11 263/302/11
f 264/303/12 266/1078/12 265/304/12
f 266/305/13 268/308/13 267/306/13
f 268/308/14 270/310/14 269/309/14
f 270/310/15 272/312/15 271/311/15
f 272/312/16 274/314/16 273/313/16
f 274/314/17 276/316/17 275/315/17
f 276/316/18 278/1079/18 277/317/18
f 278/318/19 280/321/19 279/319/19
f 280/321/20 282/323/20 281/322/20
f 282/323/21 284/325/21 283/324/21
f 284/325/22 286/327/22 285/326/22
f 286/327/24 288/329/24 287/328/24
f 288/329/25 242/1080/25 241/330/25
f 290/331/27 292/1081/27 291/332/27
f 292/334/28 296/1082/28 295/335/28
f 296/337/29 294/1083/29 293/338/29
f 294/340/30 290/1084/30 289/341/30
f 295/343/26 293/1085/26 289/344/26
f 292/346/23 290/1086/23 294/347/23
f 298/349/27 300/1087/27 299/350/27
f 300/352/28 304/1088/28 303/353/28
f 304/355/29 302/1089/29 301/356/29
f 302/358/30 298/1090/30 297/359/30
f 303/361/26 301/1091/26 297/362/26
f 300/364/23 298/1092/23 302/365/23
f 306/367/27 308/1093/27 307/368/27
f 308/370/28 312/1094/28 311/371/28
f 312/373/29 310/1095/29 309/374/29
f 310/376/30 306/1096/30 305/377/30
f 311/379/26 309/1097/26 305/380/26
f 308/382/23 306/1098/23 310/383/23
f 314/385/27 316/1099/27 315/386/27
f 316/388/28 320/1100/28 319/389/28
f 320/391/29 318/1101/29 317/392/29
f 318/394/30 314/1102/30 313/395/30
f 319/397/26 317/1103/26 313/398/26
f 316/400/23 314/1104/23 318/401/23
f 322/403/27 324/1105/27 323/404/27
f 324/406/28 328/1106/28 327/407/28
f 328/409/29 326/1107/29 325/410/29
f 326/412/30 322/1108/30 321/413/30
f 327/415/26 325/1109/26 321/416/26
f 324/418/23 322/1110/23 326/419/23
f 342/453/51 344/456/51 343/454/51
f 344/456/52 346/1111/52 345/457/52
f 346/458/53 348/461/53 347/459/53
f 348/461/54 350/1112/54 349/462/54
f 350/463/55 352/466/55 351/464/55
f 352/466/56 354/1113/56 353/467/56
f 346/470/23 344/1114/23 342/1115/23
f 342/1115/23 356/1116/23 354/468/23
f 354/468/23 352/1117/23 350/469/23
f 350/469/23 348/1118/23 346/470/23
f 346/470/23 342/1115/23 354/468/23
f 354/471/57 356/474/57 355/472/57
f 356/474/58 342/1119/58 341/475/58
f 355/478/26 341/1120/26 343/1121/26
f 343/1121/26 345/1122/26 347/476/26
f 347/476/26 349/1123/26 351/477/26
f 351/477/26 353/1124/26 355/478/26
f 355/478/26 343/1121/26 347/476/26
f 358/479/27 360/1125/27 359/480/27
f 360/482/28 364/1126/28 363/483/28
f 364/485/29 362/1127/29 361/486/29
f 362/488/30 358/1128/30 357/489/30
f 363/491/26 361/1129/26 357/492/26
f 360/494/23 358/1130/23 362/495/23
f 378/527/51 380/530/51 379/528/51
f 380/530/52 382/1131/52 381/531/52
f 382/532/53 384/535/53 383/533/53
f 384/535/54 386/1132/54 385/536/54
f 386/537/55 388/1133/55 387/538/55
f 387/538/56 388/1133/56 390/540/56
f 382/544/23 380/1134/23 378/1135/23
f 378/1135/23 392/1136/23 390/542/23
f 390/542/23 388/1137/23 386/543/23
f 386/543/23 384/1138/23 382/544/23
f 382/544/23 378/1135/23 390/542/23
f 390/545/57 392/548/57 391/546/57
f 392/548/58 378/1139/58 377/549/58
f 391/552/26 377/1140/26 379/1141/26
f 379/1141/26 381/1142/26 383/550/26
f 383/550/26 385/1143/26 387/551/26
f 387/551/26 389/1144/26 391/552/26
f 391/552/26 379/1141/26 383/550/26
f 393/559/26 396/1145/26 397/560/26
f 394/562/79 397/1146/79 398/563/79
f 395/564/80 398/563/80 396/565/80
f 400/567/2 402/570/2 401/568/2
f 402/570/5 404/1147/5 403/571/5
f 404/572/8 406/575/8 405/573/8
f 406/575/11 408/1148/11 407/576/11
f 408/577/14 410/580/14 409/578/14
f 410/580/17 412/1149/17 411/581/17
f 404/584/23 402/1150/23 400/1151/23
f 400/1151/23 414/1152/23 412/582/23
f 412/582/23 410/1153/23 408/583/23
f 408/583/23 406/1154/23 404/584/23
f 404/584/23 400/1151/23 412/582/23
f 412/585/20 414/588/20 413/586/20
f 414/588/24 400/1155/24 399/589/24
f 413/592/26 399/1156/26 401/1157/26
f 401/1157/26 403/1158/26 405/590/26
f 405/590/26 407/1159/26 409/591/26
f 409/591/26 411/1160/26 413/592/26
f 413/592/26 401/1157/26 405/590/26
f 416/593/2 418/596/2 417/594/2
f 418/596/5 420/1161/5 419/597/5
f 420/598/8 422/601/8 421/599/8
f 422/601/11 424/1162/11 423/602/11
f 424/603/14 426/606/14 425/604/14
f 426/606/17 428/1163/17 427/607/17
f 420/610/23 418/1164/23 416/1165/23
f 416/1165/23 430/1166/23 428/608/23
f 428/608/23 426/1167/23 424/609/23
f 424/609/23 422/1168/23 420/610/23
f 420/610/23 416/1165/23 428/608/23
f 428/611/20 430/614/20 429/612/20
f 430/614/24 416/1169/24 415/615/24
f 429/618/26 415/1170/26 417/1171/26
f 417/1171/26 419/1172/26 421/616/26
f 421/616/26 423/1173/26 425/617/26
f 425/617/26 427/1174/26 429/618/26
f 429/618/26 417/1171/26 421/616/26
f 432/619/2 434/622/2 433/620/2
f 434/622/5 436/1175/5 435/623/5
f 436/624/8 438/627/8 437/625/8
f 438/627/11 440/1176/11 439/628/11
f 440/629/14 442/632/14 441/630/14
f 442/632/17 444/1177/17 443/633/17
f 436/636/23 434/1178/23 432/1179/23
f 432/1179/23 446/1180/23 444/634/23
f 444/634/23 442/1181/23 440/635/23
f 440/635/23 438/1182/23 436/636/23
f 436/636/23 432/1179/23 444/634/23
f 444/637/20 446/640/20 445/638/20
f 446/640/24 432/1183/24 431/641/24
f 445/644/26 431/1184/26 433/1185/26
f 433/1185/26 435/1186/26 437/642/26
f 437/642/26 439/1187/26 441/643/26
f 441/643/26 443/1188/26 445/644/26
f 445/644/26 433/1185/26 437/642/26
f 448/645/2 450/648/2 449/646/2
f 450/648/5 452/1189/5 451/649/5
f 452/650/8 454/653/8 453/651/8
f 454/653/11 456/1190/11 455/654/11
f 456/655/14 458/658/14 457/656/14
f 458/658/17 460/1191/17 459/659/17
f 452/662/23 450/1192/23 448/1193/23
f 448/1193/23 462/1194/23 460/660/23
f 460/660/23 458/1195/23 456/661/23
f 456/661/23 454/1196/23 452/662/23
f 452/662/23 448/1193/23 460/660/23
f 460/663/20 462/666/20 461/664/20
f 462/666/24 448/1197/24 447/667/24
f 461/670/26 447/1198/26 449/1199/26
f 449/1199/26 451/1200/26 453/668/26
f 453/668/26 455/1201/26 457/669/26
f 457/669/26 459/1202/26 461/670/26
f 461/670/26 449/1199/26 453/668/26
f 464/671/2 466/674/2 465/672/2
f 466/674/5 468/1203/5 467/675/5
f 468/676/8 470/679/8 469/677/8
f 470/679/11 472/1204/11 471/680/11
f 472/681/14 474/684/14 473/682/14
f 474/684/17 476/1205/17 475/685/17
f 468/688/23 466/1206/23 464/1207/23
f 464/1207/23 478/1208/23 476/686/23
f 476/686/23 474/1209/23 472/687/23
f 472/687/23 470/1210/23 468/688/23
f 468/688/23 464/1207/23 476/686/23
f 476/689/20 478/692/20 477/690/20
f 478/692/24 464/1211/24 463/693/24
f 477/696/26 463/1212/26 465/1213/26
f 465/1213/26 467/1214/26 469/694/26
f 469/694/26 471/1215/26 473/695/26
f 473/695/26 475/1216/26 477/696/26
f 477/696/26 465/1213/26 469/694/26
f 480/697/2 482/700/2 481/698/2
f 482/700/5 484/1217/5 483/701/5
f 484/702/8 486/705/8 485/703/8
f 486/705/11 488/1218/11 487/706/11
f 488/707/14 490/710/14 489/708/14
f 490/710/17 492/1219/17 491/711/17
f 484/714/23 482/1220/23 480/1221/23
f 480/1221/23 494/1222/23 492/712/23
f 492/712/23 490/1223/23 488/713/23
f 488/713/23 486/1224/23 484/714/23
f 484/714/23 480/1221/23 492/712/23
f 492/715/20 494/718/20 493/716/20
f 494/718/24 480/1225/24 479/719/24
f 493/722/26 479/1226/26 481/1227/26
f 481/1227/26 483/1228/26 485/720/26
f 485/720/26 487/1229/26 489/721/26
f 489/721/26 491/1230/26 493/722/26
f 493/722/26 481/1227/26 485/720/26
f 496/723/2 498/726/2 497/724/2
f 498/726/5 500/1231/5 499/727/5
f 500/728/8 502/731/8 501/729/8
f 502/731/11 504/1232/11 503/732/11
f 504/733/14 506/736/14 505/734/14
f 506/736/17 508/1233/17 507/737/17
f 500/740/23 498/1234/23 496/1235/23
f 496/1235/23 510/1236/23 508/738/23
f 508/738/23 506/1237/23 504/739/23
f 504/739/23 502/1238/23 500/740/23
f 500/740/23 496/1235/23 508/738/23
f 508/741/20 510/744/20 509/742/20
f 510/744/24 496/1239/24 495/745/24
f 509/748/26 495/1240/26 497/1241/26
f 497/1241/26 499/1242/26 501/746/26
f 501/746/26 503/1243/26 505/747/26
f 505/747/26 507/1244/26 509/748/26
f 509/748/26 497/1241/26 501/746/26
f 512/749/2 514/752/2 513/750/2
f 514/752/5 516/1245/5 515/753/5
f 516/754/8 518/757/8 517/755/8
f 518/757/11 520/1246/11 519/758/11
f 520/759/14 522/762/14 521/760/14
f 522/762/17 524/1247/17 523/763/17
f 516/766/23 514/1248/23 512/1249/23
f 512/1249/23 526/1250/23 524/764/23
f 524/764/23 522/1251/23 520/765/23
f 520/765/23 518/1252/23 516/766/23
f 516/766/23 512/1249/23 524/764/23
f 524/767/20 526/770/20 525/768/20
f 526/770/24 512/1253/24 511/771/24
f 525/774/26 511/1254/26 513/1255/26
f 513/1255/26 515/1256/26 517/772/26
f 517/772/26 519/1257/26 521/773/26
f 521/773/26 523/1258/26 525/774/26
f 525/774/26 513/1255/26 517/772/26
f 528/775/2 530/778/2 529/776/2
f 530/778/5 532/1259/5 531/779/5
f 532/780/8 534/783/8 533/781/8
f 534/783/11 536/1260/11 535/784/11
f 536/785/14 538/788/14 537/786/14
f 538/788/17 540/1261/17 539/789/17
f 532/792/23 530/1262/23 528/1263/23
f 528/1263/23 542/1264/23 540/790/23
f 540/790/23 538/1265/23 536/791/23
f 536/791/23 534/1266/23 532/792/23
f 532/792/23 528/1263/23 540/790/23
f 540/793/20 542/796/20 541/794/20
f 542/796/24 528/1267/24 527/797/24
f 541/800/26 527/1268/26 529/1269/26
f 529/1269/26 531/1270/26 533/798/26
f 533/798/26 535/1271/26 537/799/26
f 537/799/26 539/1272/26 541/800/26
f 541/800/26 529/1269/26 533/798/26
f 544/801/2 546/804/2 545/802/2
f 546/804/5 548/1273/5 547/805/5
f 548/806/8 550/809/8 549/807/8
f 550/809/11 552/1274/11 551/810/11
f 552/811/14 554/814/14 553/812/14
f 554/814/17 556/1275/17 555/815/17
f 548/818/23 546/1276/23 544/1277/23
f 544/1277/23 558/1278/23 556/816/23
f 556/816/23 554/1279/23 552/817/23
f 552/817/23 550/1280/23 548/818/23
f 548/818/23 544/1277/23 556/816/23
f 556/819/20 558/822/20 557/820/20
f 558/822/24 544/1281/24 543/823/24
f 557/826/26 543/1282/26 545/1283/26
f 545/1283/26 547/1284/26 549/824/26
f 549/824/26 551/1285/26 553/825/26
f 553/825/26 555/1286/26 557/826/26
f 557/826/26 545/1283/26 549/824/26
f 560/827/2 562/830/2 561/828/2
f 562/830/5 564/1287/5 563/831/5
f 564/832/8 566/835/8 565/833/8
f 566/835/11 568/1288/11 567/836/11
f 568/837/14 570/840/14 569/838/14
f 570/840/17 572/1289/17 571/841/17
f 564/844/23 562/1290/23 560/1291/23
f 560/1291/23 574/1292/23 572/842/23
f 572/842/23 570/1293/23 568/843/23
f 568/843/23 566/1294/23 564/844/23
f 564/844/23 560/1291/23 572/842/23
f 572/845/20 574/848/20 573/846/20
f 574/848/24 560/1295/24 559/849/24
f 573/852/26 559/1296/26 561/1297/26
f 561/1297/26 563/1298/26 565/850/26
f 565/850/26 567/1299/26 569/851/26
f 569/851/26 571/1300/26 573/852/26
f 573/852/26 561/1297/26 565/850/26
f 576/853/2 578/856/2 577/854/2
f 578/856/5 580/1301/5 579/857/5
f 580/858/8 582/861/8 581/859/8
f 582/861/11 584/1302/11 583/862/11
f 584/863/14 586/866/14 585/864/14
f 586/866/17 588/1303/17 587/867/17
f 580/870/23 578/1304/23 576/1305/23
f 576/1305/23 590/1306/23 588/868/23
f 588/868/23 586/1307/23 584/869/23
f 584/869/23 582/1308/23 580/870/23
f 580/870/23 576/1305/23 588/868/23
f 588/871/20 590/874/20 589/872/20
f 590/874/24 576/1309/24 575/875/24
f 589/878/26 575/1310/26 577/1311/26
f 577/1311/26 579/1312/26 581/876/26
f 581/876/26 583/1313/26 585/877/26
f 585/877/26 587/1314/26 589/878/26
f 589/878/26 577/1311/26 581/876/26
f 592/879/2 594/882/2 593/880/2
f 594/882/5 596/1315/5 595/883/5
f 596/884/8 598/887/8 597/885/8
f 598/887/11 600/1316/11 599/888/11
f 600/889/14 602/892/14 601/890/14
f 602/892/17 604/1317/17 603/893/17
f 596/896/23 594/1318/23 592/1319/23
f 592/1319/23 606/1320/23 604/894/23
f 604/894/23 602/1321/23 600/895/23
f 600/895/23 598/1322/23 596/896/23
f 596/896/23 592/1319/23 604/894/23
f 604/897/20 606/900/20 605/898/20
f 606/900/24 592/1323/24 591/901/24
f 605/904/26 591/1324/26 593/1325/26
f 593/1325/26 595/1326/26 597/902/26
f 597/902/26 599/1327/26 601/903/26
f 601/903/26 603/1328/26 605/904/26
f 605/904/26 593/1325/26 597/902/26
f 608/905/2 610/908/2 609/906/2
f 610/908/5 612/1329/5 611/909/5
f 612/910/8 614/913/8 613/911/8
f 614/913/11 616/1330/11 615/914/11
f 616/915/14 618/918/14 617/916/14
f 618/918/17 620/1331/17 619/919/17
f 612/922/23 610/1332/23 608/1333/23
f 608/1333/23 622/1334/23 620/920/23
f 620/920/23 618/1335/23 616/921/23
f 616/921/23 614/1336/23 612/922/23
f 612/922/23 608/1333/23 620/920/23
f 620/923/20 622/926/20 621/924/20
f 622/926/24 608/1337/24 607/927/24
f 621/930/26 607/1338/26 609/1339/26
f 609/1339/26 611/1340/26 613/928/26
f 613/928/26 615/1341/26 617/929/26
f 617/929/26 619/1342/26 621/930/26
f 621/930/26 609/1339/26 613/928/26
