# Blender 4.5.13 LTS
# www.blender.org
o iron
v 0.199933 0.003003 0.020000
v 0.060864 0.689050 0.020000
v 0.199933 0.003003 -0.020000
v 0.060864 0.689050 -0.020000
v 0.239136 0.010950 0.020000
v 0.100067 0.696997 0.020000
v 0.239136 0.010950 -0.020000
v 0.100067 0.696997 -0.020000
v -0.129663 0.005526 -0.170522
v -0.060825 0.691608 -0.049884
v -0.128975 0.012386 -0.209924
v -0.060137 0.698467 -0.089285
v -0.089863 0.001533 -0.170522
v -0.021025 0.687614 -0.049884
v -0.089175 0.008392 -0.209924
v -0.020337 0.694474 -0.089285
v -0.128975 0.012386 0.209924
v -0.060137 0.698467 0.089285
v -0.129663 0.005526 0.170522
v -0.060825 0.691608 0.049884
v -0.089175 0.008392 0.209924
v -0.020337 0.694474 0.089285
v -0.089863 0.001533 0.170522
v -0.021025 0.687614 0.049884
v 0.080000 0.620000 0.000000
v 0.069282 0.620000 -0.040000
v 0.040000 0.620000 -0.069282
v 0.000000 0.620000 -0.080000
v -0.040000 0.620000 -0.069282
v -0.069282 0.620000 -0.040000
v -0.080000 0.620000 -0.000000
v -0.069282 0.620000 0.040000
v -0.040000 0.620000 0.069282
v -0.000000 0.620000 0.080000
v 0.040000 0.620000 0.069282
v 0.069282 0.620000 0.040000
v 0.260000 0.720000 0.000000
v 0.225167 0.720000 -0.130000
v 0.130000 0.720000 -0.225167
v 0.000000 0.720000 -0.260000
v -0.130000 0.720000 -0.225167
v -0.225167 0.720000 -0.130000
v -0.260000 0.720000 -0.000000
v -0.225167 0.720000 0.130000
v -0.130000 0.720000 0.225167
v -0.000000 0.720000 0.260000
v 0.130000 0.720000 0.225167
v 0.225167 0.720000 0.130000
v 0.280000 0.800000 0.000000
v 0.242487 0.800000 -0.140000
v 0.140000 0.800000 -0.242487
v 0.000000 0.800000 -0.280000
v -0.140000 0.800000 -0.242487
v -0.242487 0.800000 -0.140000
v -0.280000 0.800000 -0.000000
v -0.242487 0.800000 0.140000
v -0.140000 0.800000 0.242487
v -0.000000 0.800000 0.280000
v 0.140000 0.800000 0.242487
v 0.242487 0.800000 0.140000
v -0.003296 0.767541 -0.000681
v 0.116384 0.814361 -0.107500
v 0.150589 0.808221 0.086366
v -0.038999 0.812952 0.181250
v -0.174981 0.821850 0.018992
v -0.078895 0.816917 -0.171706
v 0.154404 0.874839 -0.016759
v 0.075649 0.881722 0.164641
v -0.115061 0.885233 0.106277
v -0.162595 0.895110 -0.093251
v 0.038999 0.887048 -0.181253
v 0.002412 0.910356 0.000499
v 0.000000 0.840000 -0.180000
v 0.000000 1.240000 -0.010000
v 0.140730 0.840000 -0.112228
v 0.007818 1.240000 -0.006235
v 0.175487 0.840000 0.040054
v 0.009749 1.240000 0.002225
v 0.078099 0.840000 0.162174
v 0.004339 1.240000 0.009010
v -0.078099 0.840000 0.162174
v -0.004339 1.240000 0.009010
v -0.175487 0.840000 0.040054
v -0.009749 1.240000 0.002225
v -0.140730 0.840000 -0.112228
v -0.007818 1.240000 -0.006235
vn -0.9801 -0.1987 -0.0000
vn -0.0000 -0.0000 -1.0000
vn 0.9801 0.1987 -0.0000
vn -0.0000 -0.0000 1.0000
vn 0.1987 -0.9801 -0.0000
vn -0.1987 0.9801 -0.0000
vn -0.9950 0.0998 -0.0000
vn 0.0172 0.1715 -0.9850
vn 0.9950 -0.0998 -0.0000
vn -0.0172 -0.1715 0.9850
vn -0.0983 -0.9801 -0.1723
vn 0.0983 0.9801 0.1723
vn -0.0172 -0.1715 -0.9850
vn 0.0172 0.1715 0.9850
vn -0.0983 -0.9801 0.1723
vn 0.0983 0.9801 -0.1723
vn 0.4816 -0.8668 -0.1290
vn 0.3525 -0.8668 -0.3525
vn 0.1290 -0.8668 -0.4816
vn -0.1290 -0.8668 -0.4816
vn -0.3525 -0.8668 -0.3525
vn -0.4816 -0.8668 -0.1290
vn -0.4816 -0.8668 0.1290
vn -0.3525 -0.8668 0.3525
vn -0.1290 -0.8668 0.4816
vn 0.1290 -0.8668 0.4816
vn 0.3525 -0.8668 0.3525
vn 0.4816 -0.8668 0.1290
vn 0.9389 -0.2347 -0.2516
vn 0.6874 -0.2347 -0.6873
vn 0.2516 -0.2347 -0.9389
vn -0.2516 -0.2347 -0.9389
vn -0.6874 -0.2347 -0.6873
vn -0.9389 -0.2347 -0.2516
vn -0.9389 -0.2347 0.2516
vn -0.6874 -0.2347 0.6873
vn -0.2516 -0.2347 0.9389
vn 0.2516 -0.2347 0.9389
vn 0.6874 -0.2347 0.6873
vn 0.9389 -0.2347 0.2516
vn -0.0000 -1.0000 -0.0000
vn 0.2982 -0.9509 -0.0827
vn 0.0905 -0.9454 -0.3130
vn 0.1064 -0.9596 0.2604
vn -0.2777 -0.9435 0.1810
vn -0.3128 -0.9404 -0.1333
vn 0.2565 -0.5402 -0.8015
vn 0.9301 -0.3232 -0.1743
vn 0.3893 -0.4556 0.8005
vn -0.7620 -0.1479 0.6305
vn -0.7967 -0.4621 -0.3895
vn 0.7909 0.3017 -0.5325
vn 0.8146 0.4730 0.3357
vn -0.2301 0.5734 0.7863
vn -0.8436 0.4875 0.2251
vn -0.3398 0.4596 -0.8206
vn 0.2181 0.9726 -0.0808
vn 0.2340 0.9701 0.0648
vn -0.0397 0.9812 0.1889
vn -0.1376 0.9871 0.0816
vn -0.0174 0.9913 -0.1306
vn 0.4052 0.3576 -0.8414
vn 0.9105 0.3576 -0.2078
vn 0.7301 0.3576 0.5823
vn -0.0000 0.3576 0.9339
vn -0.7301 0.3576 0.5823
vn -0.0000 1.0000 -0.0000
vn -0.9105 0.3576 -0.2078
vn -0.4052 0.3576 -0.8414
vt 0.176116 0.996811
vt 0.176116 0.571234
vt 0.201260 0.571216
vt 0.201260 0.996794
vt 0.781070 0.663917
vt 0.781070 0.224188
vt 0.806214 0.224195
vt 0.806214 0.663924
vt 0.203637 0.995923
vt 0.203637 0.571216
vt 0.228738 0.571604
vt 0.228738 0.996311
vt 0.276681 0.759255
vt 0.276681 0.319307
vt 0.301825 0.319305
vt 0.301825 0.759254
vt 0.131287 0.578595
vt 0.155906 0.578573
vt 0.155906 0.603717
vt 0.131287 0.603740
vt 0.582575 0.179576
vt 0.607064 0.179655
vt 0.607064 0.204797
vt 0.582575 0.204718
vt 0.808591 0.663829
vt 0.808591 0.224188
vt 0.833734 0.224199
vt 0.833734 0.663840
vt 0.891104 0.660166
vt 0.891104 0.224188
vt 0.916248 0.224201
vt 0.916248 0.660179
vt 0.863631 0.664122
vt 0.863631 0.224226
vt 0.888727 0.224188
vt 0.888727 0.664084
vt 0.918625 0.659019
vt 0.918625 0.224196
vt 0.943770 0.224188
vt 0.943770 0.659011
vt 0.255902 0.571619
vt 0.255902 0.596649
vt 0.231115 0.596247
vt 0.231115 0.571216
vt 0.077002 0.603937
vt 0.077002 0.578856
vt 0.101828 0.578573
vt 0.101828 0.603654
vt 0.836111 0.663818
vt 0.836111 0.224194
vt 0.861255 0.224188
vt 0.861255 0.663813
vt 0.973667 0.654512
vt 0.973667 0.224208
vt 0.998812 0.224188
vt 0.998812 0.654492
vt 0.753581 0.906668
vt 0.753581 0.467068
vt 0.778693 0.467013
vt 0.778693 0.906612
vt 0.946146 0.656092
vt 0.946146 0.224188
vt 0.971291 0.224198
vt 0.971291 0.656101
vt 0.074625 0.578573
vt 0.074625 0.603603
vt 0.049876 0.604026
vt 0.049876 0.578996
vt 0.104205 0.603654
vt 0.104205 0.578573
vt 0.128910 0.578906
vt 0.128910 0.603987
vt 0.123096 0.194631
vt 0.145639 0.207646
vt 0.116755 0.316928
vt 0.043489 0.274627
vt 0.171670 0.207647
vt 0.201355 0.316928
vt 0.194213 0.194631
vt 0.274621 0.274627
vt 0.207229 0.172087
vt 0.316922 0.201360
vt 0.207229 0.146056
vt 0.316922 0.116757
vt 0.194213 0.123512
vt 0.274621 0.043490
vt 0.171670 0.110496
vt 0.201355 0.001188
vt 0.145639 0.110496
vt 0.116755 0.001188
vt 0.123096 0.123512
vt 0.043489 0.043489
vt 0.110080 0.146055
vt 0.001188 0.116757
vt 0.110080 0.172087
vt 0.001188 0.201359
vt 0.721960 0.312077
vt 0.721960 0.394920
vt 0.670976 0.399888
vt 0.670976 0.310672
vt 0.724765 0.458101
vt 0.673998 0.467929
vt 0.728789 0.458852
vt 0.727142 0.377145
vt 0.776920 0.376644
vt 0.778693 0.464636
vt 0.727142 0.295422
vt 0.776920 0.288634
vt 0.728789 0.235579
vt 0.778693 0.224188
vt 0.632162 0.007510
vt 0.633409 0.089172
vt 0.583918 0.089132
vt 0.582575 0.001188
vt 0.632162 0.170949
vt 0.582575 0.177199
vt 0.692432 0.767063
vt 0.693590 0.707240
vt 0.744080 0.713526
vt 0.742834 0.777951
vt 0.694013 0.625521
vt 0.744536 0.625521
vt 0.693590 0.543801
vt 0.744080 0.537515
vt 0.692432 0.483978
vt 0.742833 0.473091
vt 0.724765 0.231770
vt 0.673998 0.224188
vt 0.589287 0.586207
vt 0.690056 0.582883
vt 0.628257 0.690116
vt 0.621899 0.473091
vt 0.498604 0.659258
vt 0.498604 0.526146
vt 0.642607 0.179154
vt 0.635786 0.056588
vt 0.683716 0.128114
vt 0.536768 0.173684
vt 0.538184 0.050764
vt 0.578165 0.108594
vt 0.731581 0.050514
vt 0.731581 0.169762
vt 0.686093 0.121051
vt 0.047272 0.698290
vt 0.047499 0.800512
vt 0.005086 0.753049
vt 0.047499 0.578573
vt 0.001188 0.627525
vt 0.580198 0.001188
vt 0.580198 0.219597
vt 0.688746 0.001188
vt 0.683716 0.001188
vt 0.309948 0.605856
vt 0.335268 0.481938
vt 0.402309 0.577121
vt 0.400978 0.690507
vt 0.496227 0.608977
vt 0.473616 0.481938
vt 0.407763 0.479562
vt 0.407763 0.224277
vt 0.412677 0.224188
vt 0.496227 0.477960
vt 0.498604 0.470714
vt 0.555742 0.224348
vt 0.561119 0.224188
vt 0.595383 0.467834
vt 0.565186 0.224348
vt 0.668599 0.470714
vt 0.176116 0.568840
vt 0.222483 0.319305
vt 0.227937 0.319305
vt 0.274304 0.568840
vt 0.001188 0.571709
vt 0.100677 0.319305
vt 0.104948 0.319554
vt 0.078062 0.576196
vt 0.304202 0.325428
vt 0.306568 0.320516
vt 0.311886 0.319305
vt 0.316150 0.322706
vt 0.316150 0.328159
vt 0.311886 0.331557
vt 0.306568 0.330341
vt 0.110263 0.319554
vt 0.173739 0.576196
vt 0.319298 0.477960
vt 0.402848 0.224188
vt 0.457626 0.001188
vt 0.534392 0.062405
vt 0.534392 0.160592
vt 0.457626 0.221811
vt 0.361900 0.199965
vt 0.319298 0.111503
vt 0.361900 0.023039
s 0
f 1/1/1 2/2/1 4/3/1 3/4/1
f 3/5/2 4/6/2 8/7/2 7/8/2
f 7/9/3 8/10/3 6/11/3 5/12/3
f 5/13/4 6/14/4 2/15/4 1/16/4
f 3/17/5 7/18/5 5/19/5 1/20/5
f 8/21/6 4/22/6 2/23/6 6/24/6
f 9/25/7 10/26/7 12/27/7 11/28/7
f 11/29/8 12/30/8 16/31/8 15/32/8
f 15/33/9 16/34/9 14/35/9 13/36/9
f 13/37/10 14/38/10 10/39/10 9/40/10
f 11/41/11 15/42/11 13/43/11 9/44/11
f 16/45/12 12/46/12 10/47/12 14/48/12
f 17/49/7 18/50/7 20/51/7 19/52/7
f 19/53/13 20/54/13 24/55/13 23/56/13
f 23/57/9 24/58/9 22/59/9 21/60/9
f 21/61/14 22/62/14 18/63/14 17/64/14
f 19/65/15 23/66/15 21/67/15 17/68/15
f 24/69/16 20/70/16 18/71/16 22/72/16
f 25/73/17 26/74/17 38/75/17 37/76/17
f 26/74/18 27/77/18 39/78/18 38/75/18
f 27/77/19 28/79/19 40/80/19 39/78/19
f 28/79/20 29/81/20 41/82/20 40/80/20
f 29/81/21 30/83/21 42/84/21 41/82/21
f 30/83/22 31/85/22 43/86/22 42/84/22
f 31/85/23 32/87/23 44/88/23 43/86/23
f 32/87/24 33/89/24 45/90/24 44/88/24
f 33/89/25 34/91/25 46/92/25 45/90/25
f 34/91/26 35/93/26 47/94/26 46/92/26
f 35/93/27 36/95/27 48/96/27 47/94/27
f 36/95/28 25/73/28 37/76/28 48/96/28
f 37/97/29 38/98/29 50/99/29 49/100/29
f 38/98/30 39/101/30 51/102/30 50/99/30
f 39/103/31 40/104/31 52/105/31 51/106/31
f 40/104/32 41/107/32 53/108/32 52/105/32
f 41/107/33 42/109/33 54/110/33 53/108/33
f 42/111/34 43/112/34 55/113/34 54/114/34
f 43/112/35 44/115/35 56/116/35 55/113/35
f 44/117/36 45/118/36 57/119/36 56/120/36
f 45/118/37 46/121/37 58/122/37 57/119/37
f 46/121/38 47/123/38 59/124/38 58/122/38
f 47/123/39 48/125/39 60/126/39 59/124/39
f 48/127/40 37/97/40 49/100/40 60/128/40
f 36/95/41 35/93/41 34/91/41 33/89/41 32/87/41 31/85/41 30/83/41 29/81/41 28/79/41 27/77/41 26/74/41 25/73/41
f 61/129/42 62/130/42 63/131/42
f 62/130/43 61/129/43 66/132/43
f 61/129/44 63/131/44 64/133/44
f 61/129/45 64/133/45 65/134/45
f 61/129/46 65/134/46 66/132/46
f 62/135/47 66/136/47 71/137/47
f 63/138/48 62/139/48 67/140/48
f 64/141/49 63/142/49 68/143/49
f 65/144/50 64/145/50 69/146/50
f 66/147/51 65/144/51 70/148/51
f 62/139/52 71/149/52 67/140/52
f 63/138/53 67/140/53 68/150/53
f 64/141/54 68/143/54 69/151/54
f 65/144/55 69/146/55 70/148/55
f 66/136/56 70/152/56 71/137/56
f 67/153/57 71/154/57 72/155/57
f 68/156/58 67/153/58 72/155/58
f 69/157/59 68/156/59 72/155/59
f 70/158/60 69/157/60 72/155/60
f 71/154/61 70/158/61 72/155/61
f 73/159/62 74/160/62 76/161/62 75/162/62
f 75/163/63 76/164/63 78/165/63 77/166/63
f 77/166/64 78/165/64 80/167/64 79/168/64
f 79/169/65 80/170/65 82/171/65 81/172/65
f 81/173/66 82/174/66 84/175/66 83/176/66
f 76/177/67 74/178/67 86/179/67 84/180/67 82/181/67 80/182/67 78/183/67
f 83/176/68 84/175/68 86/184/68 85/185/68
f 85/186/69 86/187/69 74/160/69 73/159/69
f 73/188/41 75/189/41 77/190/41 79/191/41 81/192/41 83/193/41 85/194/41
