# The Giants of Holst prop, from CC0 kits by KayKit (Kay Lousberg) and Kenney
v 0.4516 1.7543 -0.1502
vt 0.1959 0.3291
vn 0.8729 0.4013 0.2774
v 0.2820 1.7544 0.3831
vt 0.2025 0.3330
vn 0.8729 0.4013 0.2774
v 0.6264 0.6821 0.8506
vt 0.2039 0.3291
vn 0.8729 0.4013 0.2774
v 1.0025 0.6818 -0.3326
vt 0.1959 0.3291
vn 0.8729 0.4013 0.2774
f 1/1/1 2/2/2 3/3/3 4/4/4
v 0.2820 1.7544 0.3831
vt 0.2039 0.3291
vn 0.0057 0.4012 0.9160
v -0.2776 1.7542 0.3867
vt 0.1877 0.3330
vn 0.0057 0.4012 0.9160
v -0.6152 0.6816 0.8585
vt 0.1830 0.3291
vn 0.0057 0.4012 0.9160
v 0.6264 0.6821 0.8506
vt 0.2039 0.3291
vn 0.0057 0.4012 0.9160
f 5/5/5 6/6/6 7/7/7 8/8/8
v -0.2776 1.7542 0.3867
vt 0.1830 0.3291
vn -0.8696 0.4006 0.2885
v -0.4539 1.7539 -0.1445
vt 0.1664 0.3330
vn -0.8696 0.4006 0.2885
v -1.0064 0.6810 -0.3198
vt 0.1621 0.3291
vn -0.8696 0.4006 0.2885
v -0.6152 0.6816 0.8585
vt 0.1830 0.3291
vn -0.8696 0.4006 0.2885
f 9/9/9 10/10/10 11/11/11 12/12/12
v -0.4539 1.7539 -0.1445
vt 0.1621 0.3291
vn -0.5434 0.4004 -0.7379
v -0.0033 1.7540 -0.4763
vt 0.1681 0.3330
vn -0.5434 0.4004 -0.7379
v -0.0066 0.6812 -1.0560
vt 0.1701 0.3291
vn -0.5434 0.4004 -0.7379
v -1.0064 0.6810 -0.3198
vt 0.1621 0.3291
vn -0.5434 0.4004 -0.7379
f 13/13/13 14/14/14 15/15/15 16/16/16
v 0.7890 1.7034 -0.2622
vt 0.1959 0.3291
vn -0.1342 -0.9899 0.0450
v 0.4516 1.7543 -0.1502
vt 0.1904 0.3330
vn -0.1342 -0.9899 0.0450
v -0.0033 1.7540 -0.4763
vt 0.1701 0.3291
vn 0.0013 -0.9898 0.1421
v -0.0055 1.7029 -0.8318
vt 0.1701 0.3291
vn 0.0013 -0.9898 0.1421
f 17/17/17 18/18/18 19/19/19 20/20/20
v -0.0011 3.8284 -0.0009
vt 0.1830 0.4092
vn 0.9084 0.3022 0.2887
v 0.4928 1.7036 0.6694
vt 0.2039 0.3291
vn 0.9084 0.3022 0.2887
v 0.7890 1.7034 -0.2622
vt 0.1959 0.3291
vn 0.9084 0.3022 0.2887
f 21/21/21 22/22/22 23/23/23
v -0.0011 3.8284 -0.0009
vt 0.1830 0.4092
vn 0.0059 0.3021 0.9533
v -0.4847 1.7033 0.6757
vt 0.1830 0.3291
vn 0.0059 0.3021 0.9533
v 0.4928 1.7036 0.6694
vt 0.2039 0.3291
vn 0.0059 0.3021 0.9533
f 24/24/24 25/25/25 26/26/26
v -0.0011 3.8284 -0.0009
vt 0.1830 0.4092
vn -0.9049 0.3015 0.3003
v -0.7927 1.7028 -0.2521
vt 0.1621 0.3291
vn -0.9049 0.3015 0.3003
v -0.4847 1.7033 0.6757
vt 0.1830 0.3291
vn -0.9049 0.3015 0.3003
f 27/27/27 28/28/28 29/29/29
v -0.0011 3.8284 -0.0009
vt 0.1830 0.4092
vn -0.5654 0.3013 -0.7678
v -0.0055 1.7029 -0.8318
vt 0.1701 0.3291
vn -0.5654 0.3013 -0.7678
v -0.7927 1.7028 -0.2521
vt 0.1621 0.3291
vn -0.5654 0.3013 -0.7678
f 30/30/30 31/31/31 32/32/32
v -0.0033 1.7540 -0.4763
vt 0.1701 0.3291
vn 0.5336 0.4008 -0.7447
v 0.4516 1.7543 -0.1502
vt 0.1904 0.3330
vn 0.5336 0.4008 -0.7447
v 1.0025 0.6818 -0.3326
vt 0.1959 0.3291
vn 0.5336 0.4008 -0.7447
v -0.0066 0.6812 -1.0560
vt 0.1701 0.3291
vn 0.5336 0.4008 -0.7447
f 33/33/33 34/34/34 35/35/35 36/36/36
v -0.7927 1.7028 -0.2521
vt 0.1621 0.3291
vn 0.1355 -0.9898 0.0433
v -0.0055 1.7029 -0.8318
vt 0.1701 0.3291
vn 0.0013 -0.9898 0.1421
v -0.0033 1.7540 -0.4763
vt 0.1681 0.3330
vn 0.0013 -0.9898 0.1421
v -0.4539 1.7539 -0.1445
vt 0.1621 0.3291
vn 0.1355 -0.9898 0.0433
f 37/37/37 38/38/38 39/39/39 40/40/40
v 0.7890 1.7034 -0.2622
vt 0.1959 0.3291
vn -0.1342 -0.9899 0.0450
v 0.4928 1.7036 0.6694
vt 0.2039 0.3291
vn -0.0837 -0.9900 -0.1139
v 0.2820 1.7544 0.3831
vt 0.2025 0.3330
vn -0.0837 -0.9900 -0.1139
v 0.4516 1.7543 -0.1502
vt 0.1959 0.3291
vn -0.1342 -0.9899 0.0450
f 41/41/41 42/42/42 43/43/43 44/44/44
v 0.4928 1.7036 0.6694
vt 0.2039 0.3291
vn -0.0837 -0.9900 -0.1139
v -0.4847 1.7033 0.6757
vt 0.1830 0.3291
vn 0.0830 -0.9899 -0.1149
v -0.2776 1.7542 0.3867
vt 0.1877 0.3330
vn 0.0830 -0.9899 -0.1149
v 0.2820 1.7544 0.3831
vt 0.2039 0.3291
vn -0.0837 -0.9900 -0.1139
f 45/45/45 46/46/46 47/47/47 48/48/48
v -0.4847 1.7033 0.6757
vt 0.1830 0.3291
vn 0.0830 -0.9899 -0.1149
v -0.7927 1.7028 -0.2521
vt 0.1621 0.3291
vn 0.1355 -0.9898 0.0433
v -0.4539 1.7539 -0.1445
vt 0.1664 0.3330
vn 0.1355 -0.9898 0.0433
v -0.2776 1.7542 0.3867
vt 0.1830 0.3291
vn 0.0830 -0.9899 -0.1149
f 49/49/49 50/50/50 51/51/51 52/52/52
v -1.0064 0.6810 -0.3198
vt 0.1621 0.3291
vn 0.1316 -0.9904 0.0420
v -0.0066 0.6812 -1.0560
vt 0.1701 0.3291
vn 0.0013 -0.9904 0.1380
v -0.0013 0.7965 -0.2282
vt 0.1664 0.3362
vn 0.0013 -0.9904 0.1380
v -0.2175 0.7965 -0.0691
vt 0.1621 0.3291
vn 0.1316 -0.9904 0.0420
f 53/53/53 54/54/54 55/55/55 56/56/56
v 1.0025 0.6818 -0.3326
vt 0.1959 0.3291
vn -0.1303 -0.9905 0.0437
v 0.6264 0.6821 0.8506
vt 0.2039 0.3291
vn -0.0812 -0.9905 -0.1105
v 0.1355 0.7967 0.1840
vt 0.2014 0.3362
vn -0.0812 -0.9905 -0.1105
v 0.2168 0.7967 -0.0718
vt 0.1959 0.3291
vn -0.1303 -0.9905 0.0437
f 57/57/57 58/58/58 59/59/59 60/60/60
v 0.6264 0.6821 0.8506
vt 0.2039 0.3291
vn -0.0812 -0.9905 -0.1105
v -0.6152 0.6816 0.8585
vt 0.1830 0.3291
vn 0.0806 -0.9905 -0.1116
v -0.1329 0.7966 0.1857
vt 0.1916 0.3362
vn 0.0806 -0.9905 -0.1116
v 0.1355 0.7967 0.1840
vt 0.2039 0.3291
vn -0.0812 -0.9905 -0.1105
f 61/61/61 62/62/62 63/63/63 64/64/64
v -0.6152 0.6816 0.8585
vt 0.1830 0.3291
vn 0.0806 -0.9905 -0.1116
v -1.0064 0.6810 -0.3198
vt 0.1621 0.3291
vn 0.1316 -0.9904 0.0420
v -0.2175 0.7965 -0.0691
vt 0.1699 0.3362
vn 0.1316 -0.9904 0.0420
v -0.1329 0.7966 0.1857
vt 0.1830 0.3291
vn 0.0806 -0.9905 -0.1116
f 65/65/65 66/66/66 67/67/67 68/68/68
v 0.2168 0.7967 -0.0718
vt 0.8209 0.9541
vn 0.9513 0.0590 0.3024
v 0.1355 0.7967 0.1840
vt 0.8264 0.9612
vn 0.9513 0.0590 0.3024
v 0.1855 -0.3588 0.2518
vt 0.8264 0.9612
vn 0.9513 0.0590 0.3024
v 0.2967 -0.3589 -0.0980
vt 0.8209 0.9541
vn 0.9513 0.0590 0.3024
f 69/69/69 70/70/70 71/71/71 72/72/72
v -0.0066 0.6812 -1.0560
vt 0.1701 0.3291
vn 0.0013 -0.9904 0.1380
v 1.0025 0.6818 -0.3326
vt 0.1959 0.3291
vn -0.1303 -0.9905 0.0437
v 0.2168 0.7967 -0.0718
vt 0.1858 0.3362
vn -0.1303 -0.9905 0.0437
v -0.0013 0.7965 -0.2282
vt 0.1701 0.3291
vn 0.0013 -0.9904 0.1380
f 73/73/73 74/74/74 75/75/75 76/76/76
v -0.2175 0.7965 -0.0691
vt 0.7871 0.9541
vn -0.5919 0.0583 -0.8039
v -0.0013 0.7965 -0.2282
vt 0.7914 0.9612
vn -0.5919 0.0583 -0.8039
v -0.0016 -0.3591 -0.3118
vt 0.7914 0.9612
vn -0.5919 0.0583 -0.8039
v -0.2971 -0.3591 -0.0942
vt 0.7871 0.9541
vn -0.5919 0.0583 -0.8039
f 77/77/77 78/78/78 79/79/79 80/80/80
v -0.1329 0.7966 0.1857
vt 0.8080 0.9541
vn -0.9475 0.0584 0.3145
v -0.2175 0.7965 -0.0691
vt 0.7949 0.9612
vn -0.9475 0.0584 0.3145
v -0.2971 -0.3591 -0.0942
vt 0.7949 0.9612
vn -0.9475 0.0584 0.3145
v -0.1815 -0.3590 0.2541
vt 0.8080 0.9541
vn -0.9475 0.0584 0.3145
f 81/81/81 82/82/82 83/83/83 84/84/84
v -0.0013 0.7965 -0.2282
vt 0.7951 0.9541
vn 0.5816 0.0586 -0.8114
v 0.2168 0.7967 -0.0718
vt 0.8108 0.9612
vn 0.5816 0.0586 -0.8114
v 0.2967 -0.3589 -0.0980
vt 0.8108 0.9612
vn 0.5816 0.0586 -0.8114
v -0.0016 -0.3591 -0.3118
vt 0.7951 0.9541
vn 0.5816 0.0586 -0.8114
f 85/85/85 86/86/86 87/87/87 88/88/88
v 0.1355 0.7967 0.1840
vt 0.8289 0.9541
vn 0.0063 0.0589 0.9982
v -0.1329 0.7966 0.1857
vt 0.8166 0.9612
vn 0.0063 0.0589 0.9982
v -0.1815 -0.3590 0.2541
vt 0.8166 0.9612
vn 0.0063 0.0589 0.9982
v 0.1855 -0.3588 0.2518
vt 0.8289 0.9541
vn 0.0063 0.0589 0.9982
f 89/89/89 90/90/90 91/91/91 92/92/92
v -0.0055 1.7029 -0.8318
vt 0.1701 0.3291
vn 0.5553 0.3018 -0.7749
v -0.0011 3.8284 -0.0009
vt 0.1830 0.4092
vn 0.5553 0.3018 -0.7749
v 0.7890 1.7034 -0.2622
vt 0.1959 0.3291
vn 0.5553 0.3018 -0.7749
f 93/93/93 94/94/94 95/95/95
v 0.0004 -0.3590 0.0004
vt 0.8136 0.9587
vn 0.0004 -1.0000 0.0003
v -0.1815 -0.3590 0.2541
vt 0.8166 0.9612
vn 0.0004 -1.0000 0.0003
v -0.2971 -0.3591 -0.0942
vt 0.7871 0.9541
vn 0.0004 -1.0000 0.0003
f 96/96/96 97/97/97 98/98/98
v 0.0004 -0.3590 0.0004
vt 0.8232 0.9551
vn 0.0004 -1.0000 0.0003
v 0.1855 -0.3588 0.2518
vt 0.8289 0.9541
vn 0.0004 -1.0000 0.0003
v -0.1815 -0.3590 0.2541
vt 0.8166 0.9612
vn 0.0004 -1.0000 0.0003
f 99/99/99 100/100/100 101/101/101
v 0.0004 -0.3590 0.0004
vt 0.8170 0.9544
vn 0.0004 -1.0000 0.0003
v 0.2967 -0.3589 -0.0980
vt 0.8209 0.9541
vn 0.0004 -1.0000 0.0003
v 0.1855 -0.3588 0.2518
vt 0.8289 0.9541
vn 0.0004 -1.0000 0.0003
f 102/102/102 103/103/103 104/104/104
v 0.0004 -0.3590 0.0004
vt 0.7996 0.9544
vn 0.0004 -1.0000 0.0003
v -0.0016 -0.3591 -0.3118
vt 0.7951 0.9541
vn 0.0004 -1.0000 0.0003
v 0.2967 -0.3589 -0.0980
vt 0.8209 0.9541
vn 0.0004 -1.0000 0.0003
f 105/105/105 106/106/106 107/107/107
v 0.0004 -0.3590 0.0004
vt 0.7951 0.9551
vn 0.0004 -1.0000 0.0003
v -0.2971 -0.3591 -0.0942
vt 0.7871 0.9541
vn 0.0004 -1.0000 0.0003
v -0.0016 -0.3591 -0.3118
vt 0.7951 0.9541
vn 0.0004 -1.0000 0.0003
f 108/108/108 109/109/109 110/110/110
