# The Giants of Holst prop, from CC0 kits by KayKit (Kay Lousberg) and Kenney
v 1.8449 1.0922 -1.5158
vt 0.1959 0.3291
vn 0.9312 0.3370 0.1386
v 1.7888 1.0961 -1.1488
vt 0.2025 0.3330
vn 0.9312 0.3370 0.1386
v 2.0123 0.3673 -0.8781
vt 0.2039 0.3291
vn 0.9312 0.3370 0.1386
v 2.1366 0.3586 -1.6923
vt 0.1959 0.3291
vn 0.9312 0.3370 0.1386
f 1/1/1 2/2/2 3/3/3 4/4/4
v 1.7888 1.0961 -1.1488
vt 0.2039 0.3291
vn 0.1755 0.3896 0.9041
v 1.4233 1.1216 -1.0888
vt 0.1877 0.3330
vn 0.1755 0.3896 0.9041
v 1.2014 0.4238 -0.7451
vt 0.1830 0.3291
vn 0.1755 0.3896 0.9041
v 2.0123 0.3673 -0.8781
vt 0.2039 0.3291
vn 0.1755 0.3896 0.9041
f 5/5/5 6/6/6 7/7/7 8/8/8
v 1.4233 1.1216 -1.0888
vt 0.1830 0.3291
vn -0.7843 0.4564 0.4201
v 1.2535 1.1334 -1.4188
vt 0.1664 0.3330
vn -0.7843 0.4564 0.4201
v 0.8246 0.4500 -1.4770
vt 0.1621 0.3291
vn -0.7843 0.4564 0.4201
v 1.2014 0.4238 -0.7451
vt 0.1830 0.3291
vn -0.7843 0.4564 0.4201
f 9/9/9 10/10/10 11/11/11 12/12/12
v 1.2535 1.1334 -1.4188
vt 0.1621 0.3291
vn -0.6217 0.4451 -0.6445
v 1.5140 1.1153 -1.6826
vt 0.1681 0.3330
vn -0.6217 0.4451 -0.6445
v 1.4026 0.4098 -2.0624
vt 0.1701 0.3291
vn -0.6217 0.4451 -0.6445
v 0.8246 0.4500 -1.4770
vt 0.1621 0.3291
vn -0.6217 0.4451 -0.6445
f 13/13/13 14/14/14 15/15/15 16/16/16
v 2.0516 1.0440 -1.6240
vt 0.1959 0.3291
vn -0.1945 -0.9787 0.0650
v 1.8449 1.0922 -1.5158
vt 0.1904 0.3330
vn -0.1945 -0.9787 0.0650
v 1.5140 1.1153 -1.6826
vt 0.1701 0.3291
vn -0.0459 -0.9891 0.1399
v 1.4737 1.0842 -1.9154
vt 0.1701 0.3291
vn -0.0459 -0.9891 0.1399
f 17/17/17 18/18/18 19/19/19 20/20/20
v 1.6605 2.4845 -1.3710
vt 0.1830 0.4092
vn 0.9611 0.2356 0.1443
v 1.9537 1.0508 -0.9829
vt 0.2039 0.3291
vn 0.9611 0.2356 0.1443
v 2.0516 1.0440 -1.6240
vt 0.1959 0.3291
vn 0.9611 0.2356 0.1443
f 21/21/21 22/22/22 23/23/23
v 1.6605 2.4845 -1.3710
vt 0.1830 0.4092
vn 0.1746 0.2904 0.9408
v 1.3153 1.0953 -0.8782
vt 0.1830 0.3291
vn 0.1746 0.2904 0.9408
v 1.9537 1.0508 -0.9829
vt 0.2039 0.3291
vn 0.1746 0.2904 0.9408
f 24/24/24 25/25/25 26/26/26
v 1.6605 2.4845 -1.3710
vt 0.1830 0.4092
vn -0.8242 0.3599 0.4372
v 1.0186 1.1159 -1.4545
vt 0.1621 0.3291
vn -0.8242 0.3599 0.4372
v 1.3153 1.0953 -0.8782
vt 0.1830 0.3291
vn -0.8242 0.3599 0.4372
f 27/27/27 28/28/28 29/29/29
v 1.6605 2.4845 -1.3710
vt 0.1830 0.4092
vn -0.6550 0.3481 -0.6706
v 1.4737 1.0842 -1.9154
vt 0.1701 0.3291
vn -0.6550 0.3481 -0.6706
v 1.0186 1.1159 -1.4545
vt 0.1621 0.3291
vn -0.6550 0.3481 -0.6706
f 30/30/30 31/31/31 32/32/32
v 1.5140 1.1153 -1.6826
vt 0.1701 0.3291
vn 0.4385 0.3713 -0.8184
v 1.8449 1.0922 -1.5158
vt 0.1904 0.3330
vn 0.4385 0.3713 -0.8184
v 2.1366 0.3586 -1.6923
vt 0.1959 0.3291
vn 0.4385 0.3713 -0.8184
v 1.4026 0.4098 -2.0624
vt 0.1701 0.3291
vn 0.4385 0.3713 -0.8184
f 33/33/33 34/34/34 35/35/35 36/36/36
v 1.0186 1.1159 -1.4545
vt 0.1621 0.3291
vn 0.0711 -0.9972 0.0215
v 1.4737 1.0842 -1.9154
vt 0.1701 0.3291
vn -0.0459 -0.9891 0.1399
v 1.5140 1.1153 -1.6826
vt 0.1681 0.3330
vn -0.0459 -0.9891 0.1399
v 1.2535 1.1334 -1.4188
vt 0.1621 0.3291
vn 0.0711 -0.9972 0.0215
f 37/37/37 38/38/38 39/39/39 40/40/40
v 2.0516 1.0440 -1.6240
vt 0.1959 0.3291
vn -0.1945 -0.9787 0.0650
v 1.9537 1.0508 -0.9829
vt 0.2039 0.3291
vn -0.1693 -0.9805 -0.0998
v 1.7888 1.0961 -1.1488
vt 0.2025 0.3330
vn -0.1693 -0.9805 -0.0998
v 1.8449 1.0922 -1.5158
vt 0.1959 0.3291
vn -0.1945 -0.9787 0.0650
f 41/41/41 42/42/42 43/43/43 44/44/44
v 1.9537 1.0508 -0.9829
vt 0.2039 0.3291
vn -0.1693 -0.9805 -0.0998
v 1.3153 1.0953 -0.8782
vt 0.1830 0.3291
vn -0.0052 -0.9919 -0.1267
v 1.4233 1.1216 -1.0888
vt 0.1877 0.3330
vn -0.0052 -0.9919 -0.1267
v 1.7888 1.0961 -1.1488
vt 0.2039 0.3291
vn -0.1693 -0.9805 -0.0998
f 45/45/45 46/46/46 47/47/47 48/48/48
v 1.3153 1.0953 -0.8782
vt 0.1830 0.3291
vn -0.0052 -0.9919 -0.1267
v 1.0186 1.1159 -1.4545
vt 0.1621 0.3291
vn 0.0711 -0.9972 0.0215
v 1.2535 1.1334 -1.4188
vt 0.1664 0.3330
vn 0.0711 -0.9972 0.0215
v 1.4233 1.1216 -1.0888
vt 0.1830 0.3291
vn -0.0052 -0.9919 -0.1267
f 49/49/49 50/50/50 51/51/51 52/52/52
v 0.8246 0.4500 -1.4770
vt 0.1621 0.3291
vn 0.0669 -0.9975 0.0208
v 1.4026 0.4098 -2.0624
vt 0.1701 0.3291
vn -0.0466 -0.9896 0.1359
v 1.4964 0.4797 -1.5205
vt 0.1664 0.3362
vn -0.0466 -0.9896 0.1359
v 1.3714 0.4884 -1.3939
vt 0.1621 0.3291
vn 0.0669 -0.9975 0.0208
f 53/53/53 54/54/54 55/55/55 56/56/56
v 2.1366 0.3586 -1.6923
vt 0.1959 0.3291
vn -0.1908 -0.9796 0.0631
v 2.0123 0.3673 -0.8781
vt 0.2039 0.3291
vn -0.1664 -0.9813 -0.0968
v 1.6282 0.4706 -1.2644
vt 0.2014 0.3362
vn -0.1664 -0.9813 -0.0968
v 1.6551 0.4687 -1.4404
vt 0.1959 0.3291
vn -0.1908 -0.9796 0.0631
f 57/57/57 58/58/58 59/59/59 60/60/60
v 2.0123 0.3673 -0.8781
vt 0.2039 0.3291
vn -0.1664 -0.9813 -0.0968
v 1.2014 0.4238 -0.7451
vt 0.1830 0.3291
vn -0.0071 -0.9924 -0.1230
v 1.4529 0.4828 -1.2357
vt 0.1916 0.3362
vn -0.0071 -0.9924 -0.1230
v 1.6282 0.4706 -1.2644
vt 0.2039 0.3291
vn -0.1664 -0.9813 -0.0968
f 61/61/61 62/62/62 63/63/63 64/64/64
v 1.2014 0.4238 -0.7451
vt 0.1830 0.3291
vn -0.0071 -0.9924 -0.1230
v 0.8246 0.4500 -1.4770
vt 0.1621 0.3291
vn 0.0669 -0.9975 0.0208
v 1.3714 0.4884 -1.3939
vt 0.1699 0.3362
vn 0.0669 -0.9975 0.0208
v 1.4529 0.4828 -1.2357
vt 0.1830 0.3291
vn -0.0071 -0.9924 -0.1230
f 65/65/65 66/66/66 67/67/67 68/68/68
v 1.6551 0.4687 -1.4404
vt 0.8209 0.9541
vn 0.9884 0.0152 0.1509
v 1.6282 0.4706 -1.2644
vt 0.8264 0.9612
vn 0.9884 0.0152 0.1509
v 1.6305 -0.0717 -1.2253
vt 0.8264 0.9612
vn 0.9884 0.0152 0.1509
v 1.6673 -0.0717 -1.4660
vt 0.8209 0.9541
vn 0.9884 0.0152 0.1509
f 69/69/69 70/70/70 71/71/71 72/72/72
v 1.4026 0.4098 -2.0624
vt 0.1701 0.3291
vn -0.0466 -0.9896 0.1359
v 2.1366 0.3586 -1.6923
vt 0.1959 0.3291
vn -0.1908 -0.9796 0.0631
v 1.6551 0.4687 -1.4404
vt 0.1858 0.3362
vn -0.1908 -0.9796 0.0631
v 1.4964 0.4797 -1.5205
vt 0.1701 0.3291
vn -0.0466 -0.9896 0.1359
f 73/73/73 74/74/74 75/75/75 76/76/76
v 1.3714 0.4884 -1.3939
vt 0.7871 0.9541
vn -0.7040 0.1273 -0.6987
v 1.4964 0.4797 -1.5205
vt 0.7914 0.9612
vn -0.7040 0.1273 -0.6987
v 1.4503 -0.0717 -1.5754
vt 0.7914 0.9612
vn -0.7040 0.1273 -0.6987
v 1.2794 -0.0717 -1.4023
vt 0.7871 0.9541
vn -0.7040 0.1273 -0.6987
f 77/77/77 78/78/78 79/79/79 80/80/80
v 1.4529 0.4828 -1.2357
vt 0.8080 0.9541
vn -0.8797 0.1385 0.4550
v 1.3714 0.4884 -1.3939
vt 0.7949 0.9612
vn -0.8797 0.1385 0.4550
v 1.2794 -0.0717 -1.4023
vt 0.7949 0.9612
vn -0.8797 0.1385 0.4550
v 1.3908 -0.0717 -1.1859
vt 0.8080 0.9541
vn -0.8797 0.1385 0.4550
f 81/81/81 82/82/82 83/83/83 84/84/84
v 1.4964 0.4797 -1.5205
vt 0.7951 0.9541
vn 0.4509 0.0517 -0.8911
v 1.6551 0.4687 -1.4404
vt 0.8108 0.9612
vn 0.4509 0.0517 -0.8911
v 1.6673 -0.0717 -1.4660
vt 0.8108 0.9612
vn 0.4509 0.0517 -0.8911
v 1.4503 -0.0717 -1.5754
vt 0.7951 0.9541
vn 0.4509 0.0517 -0.8911
f 85/85/85 86/86/86 87/87/87 88/88/88
v 1.6282 0.4706 -1.2644
vt 0.8289 0.9541
vn 0.1635 0.0708 0.9840
v 1.4529 0.4828 -1.2357
vt 0.8166 0.9612
vn 0.1635 0.0708 0.9840
v 1.3908 -0.0717 -1.1859
vt 0.8166 0.9612
vn 0.1635 0.0708 0.9840
v 1.6305 -0.0717 -1.2253
vt 0.8289 0.9541
vn 0.1635 0.0708 0.9840
f 89/89/89 90/90/90 91/91/91 92/92/92
v 1.4737 1.0842 -1.9154
vt 0.1701 0.3291
vn 0.4484 0.2713 -0.8517
v 1.6605 2.4845 -1.3710
vt 0.1830 0.4092
vn 0.4484 0.2713 -0.8517
v 2.0516 1.0440 -1.6240
vt 0.1959 0.3291
vn 0.4484 0.2713 -0.8517
f 93/93/93 94/94/94 95/95/95
v -0.7442 2.0464 -1.5374
vt 0.1959 0.3291
vn 0.8142 0.4335 0.3862
v -1.0242 2.0428 -0.9431
vt 0.2025 0.3330
vn 0.8142 0.4335 0.3862
v -0.6528 0.8020 -0.3331
vt 0.2039 0.3291
vn 0.8142 0.4335 0.3862
v -0.0316 0.8100 -1.6518
vt 0.1959 0.3291
vn 0.8142 0.4335 0.3862
f 96/96/96 97/97/97 98/98/98 99/99/99
v -1.0242 2.0428 -0.9431
vt 0.2039 0.3291
vn -0.1294 0.4060 0.9047
v -1.6756 2.0192 -1.0257
vt 0.1877 0.3330
vn -0.1294 0.4060 0.9047
v -2.0980 0.7496 -0.5164
vt 0.1830 0.3291
vn -0.1294 0.4060 0.9047
v -0.6528 0.8020 -0.3331
vt 0.2039 0.3291
vn -0.1294 0.4060 0.9047
f 100/100/100 101/101/101 102/102/102 103/103/103
v -1.6756 2.0192 -1.0257
vt 0.1830 0.3291
vn -0.9135 0.3710 0.1672
v -1.7982 2.0082 -1.6711
vt 0.1664 0.3330
vn -0.9135 0.3710 0.1672
v -2.3699 0.7253 -1.9483
vt 0.1621 0.3291
vn -0.9135 0.3710 0.1672
v -2.0980 0.7496 -0.5164
vt 0.1830 0.3291
vn -0.9135 0.3710 0.1672
f 104/104/104 105/105/105 106/106/106 107/107/107
v -1.7982 2.0082 -1.6711
vt 0.1621 0.3291
vn -0.4545 0.3769 -0.8071
v -1.2225 2.0250 -1.9874
vt 0.1681 0.3330
vn -0.4545 0.3769 -0.8071
v -1.0928 0.7626 -2.6500
vt 0.1701 0.3291
vn -0.4545 0.3769 -0.8071
v -2.3699 0.7253 -1.9483
vt 0.1621 0.3291
vn -0.4545 0.3769 -0.8071
f 108/108/108 109/109/109 110/110/110 111/111/111
v -0.3323 2.0001 -1.6149
vt 0.1959 0.3291
vn -0.1047 -0.9938 0.0368
v -0.7442 2.0464 -1.5374
vt 0.1904 0.3330
vn -0.1047 -0.9938 0.0368
v -1.2225 2.0250 -1.9874
vt 0.1701 0.3291
vn 0.0167 -0.9884 0.1509
v -1.1678 1.9628 -2.4008
vt 0.1701 0.3291
vn 0.0167 -0.9884 0.1509
f 112/112/112 113/113/113 114/114/114 115/115/115
v -1.3779 4.4620 -1.4582
vt 0.1830 0.4092
vn 0.8513 0.3359 0.4031
v -0.8215 1.9938 -0.5766
vt 0.2039 0.3291
vn 0.8513 0.3359 0.4031
v -0.3323 2.0001 -1.6149
vt 0.1959 0.3291
vn 0.8513 0.3359 0.4031
f 116/116/116 117/117/117 118/118/118
v -1.3779 4.4620 -1.4582
vt 0.1830 0.4092
vn -0.1307 0.3072 0.9426
v -1.9593 1.9526 -0.7209
vt 0.1830 0.3291
vn -0.1307 0.3072 0.9426
v -0.8215 1.9938 -0.5766
vt 0.2039 0.3291
vn -0.1307 0.3072 0.9426
f 119/119/119 120/120/120 121/121/121
v -1.3779 4.4620 -1.4582
vt 0.1830 0.4092
vn -0.9466 0.2708 0.1751
v -2.1734 1.9335 -1.8483
vt 0.1621 0.3291
vn -0.9466 0.2708 0.1751
v -1.9593 1.9526 -0.7209
vt 0.1830 0.3291
vn -0.9466 0.2708 0.1751
f 122/122/122 123/123/123 124/124/124
v -1.3779 4.4620 -1.4582
vt 0.1830 0.4092
vn -0.4689 0.2769 -0.8387
v -1.1678 1.9628 -2.4008
vt 0.1701 0.3291
vn -0.4689 0.2769 -0.8387
v -2.1734 1.9335 -1.8483
vt 0.1621 0.3291
vn -0.4689 0.2769 -0.8387
f 125/125/125 126/126/126 127/127/127
v -1.2225 2.0250 -1.9874
vt 0.1701 0.3291
vn 0.6133 0.4156 -0.6717
v -0.7442 2.0464 -1.5374
vt 0.1904 0.3330
vn 0.6133 0.4156 -0.6717
v -0.0316 0.8100 -1.6518
vt 0.1959 0.3291
vn 0.6133 0.4156 -0.6717
v -1.0928 0.7626 -2.6500
vt 0.1701 0.3291
vn 0.6133 0.4156 -0.6717
f 128/128/128 129/129/129 130/130/130 131/131/131
v -2.1734 1.9335 -1.8483
vt 0.1621 0.3291
vn 0.1627 -0.9841 0.0707
v -1.1678 1.9628 -2.4008
vt 0.1701 0.3291
vn 0.0167 -0.9884 0.1509
v -1.2225 2.0250 -1.9874
vt 0.1681 0.3330
vn 0.0167 -0.9884 0.1509
v -1.7982 2.0082 -1.6711
vt 0.1621 0.3291
vn 0.1627 -0.9841 0.0707
f 132/132/132 133/133/133 134/134/134 135/135/135
v -0.3323 2.0001 -1.6149
vt 0.1959 0.3291
vn -0.1047 -0.9938 0.0368
v -0.8215 1.9938 -0.5766
vt 0.2039 0.3291
vn -0.0336 -0.9929 -0.1140
v -1.0242 2.0428 -0.9431
vt 0.2025 0.3330
vn -0.0336 -0.9929 -0.1140
v -0.7442 2.0464 -1.5374
vt 0.1959 0.3291
vn -0.1047 -0.9938 0.0368
f 136/136/136 137/137/137 138/138/138 139/139/139
v -0.8215 1.9938 -0.5766
vt 0.2039 0.3291
vn -0.0336 -0.9929 -0.1140
v -1.9593 1.9526 -0.7209
vt 0.1830 0.3291
vn 0.1316 -0.9869 -0.0931
v -1.6756 2.0192 -1.0257
vt 0.1877 0.3330
vn 0.1316 -0.9869 -0.0931
v -1.0242 2.0428 -0.9431
vt 0.2039 0.3291
vn -0.0336 -0.9929 -0.1140
f 140/140/140 141/141/141 142/142/142 143/143/143
v -1.9593 1.9526 -0.7209
vt 0.1830 0.3291
vn 0.1316 -0.9869 -0.0931
v -2.1734 1.9335 -1.8483
vt 0.1621 0.3291
vn 0.1627 -0.9841 0.0707
v -1.7982 2.0082 -1.6711
vt 0.1664 0.3330
vn 0.1627 -0.9841 0.0707
v -1.6756 2.0192 -1.0257
vt 0.1830 0.3291
vn 0.1316 -0.9869 -0.0931
f 144/144/144 145/145/145 146/146/146 147/147/147
v -2.3699 0.7253 -1.9483
vt 0.1621 0.3291
vn 0.1590 -0.9849 0.0689
v -1.0928 0.7626 -2.6500
vt 0.1701 0.3291
vn 0.0172 -0.9890 0.1468
v -1.2200 0.9033 -1.6872
vt 0.1664 0.3362
vn 0.0172 -0.9890 0.1468
v -1.4960 0.8953 -1.5355
vt 0.1621 0.3291
vn 0.1590 -0.9849 0.0689
f 148/148/148 149/149/149 150/150/150 151/151/151
v -0.0316 0.8100 -1.6518
vt 0.1959 0.3291
vn -0.1006 -0.9943 0.0360
v -0.6528 0.8020 -0.3331
vt 0.2039 0.3291
vn -0.0316 -0.9934 -0.1104
v -1.1248 0.9118 -1.1864
vt 0.2014 0.3362
vn -0.0316 -0.9934 -0.1104
v -0.9905 0.9136 -1.4714
vt 0.1959 0.3291
vn -0.1006 -0.9943 0.0360
f 152/152/152 153/153/153 154/154/154 155/155/155
v -0.6528 0.8020 -0.3331
vt 0.2039 0.3291
vn -0.0316 -0.9934 -0.1104
v -2.0980 0.7496 -0.5164
vt 0.1830 0.3291
vn 0.1288 -0.9876 -0.0901
v -1.4373 0.9005 -1.2260
vt 0.1916 0.3362
vn 0.1288 -0.9876 -0.0901
v -1.1248 0.9118 -1.1864
vt 0.2039 0.3291
vn -0.0316 -0.9934 -0.1104
f 156/156/156 157/157/157 158/158/158 159/159/159
v -2.0980 0.7496 -0.5164
vt 0.1830 0.3291
vn 0.1288 -0.9876 -0.0901
v -2.3699 0.7253 -1.9483
vt 0.1621 0.3291
vn 0.1590 -0.9849 0.0689
v -1.4960 0.8953 -1.5355
vt 0.1699 0.3362
vn 0.1590 -0.9849 0.0689
v -1.4373 0.9005 -1.2260
vt 0.1830 0.3291
vn 0.1288 -0.9876 -0.0901
f 160/160/160 161/161/161 162/162/162 163/163/163
v -0.9905 0.9136 -1.4714
vt 0.8209 0.9541
vn 0.8985 0.1147 0.4236
v -1.1248 0.9118 -1.1864
vt 0.8264 0.9612
vn 0.8985 0.1147 0.4236
v -1.0445 -0.0717 -1.0902
vt 0.8264 0.9612
vn 0.8985 0.1147 0.4236
v -0.8608 -0.0717 -1.4800
vt 0.8209 0.9541
vn 0.8985 0.1147 0.4236
f 164/164/164 165/165/165 166/166/166 167/167/167
v -1.0928 0.7626 -2.6500
vt 0.1701 0.3291
vn 0.0172 -0.9890 0.1468
v -0.0316 0.8100 -1.6518
vt 0.1959 0.3291
vn -0.1006 -0.9943 0.0360
v -0.9905 0.9136 -1.4714
vt 0.1858 0.3362
vn -0.1006 -0.9943 0.0360
v -1.2200 0.9033 -1.6872
vt 0.1701 0.3291
vn 0.0172 -0.9890 0.1468
f 168/168/168 169/169/169 170/170/170 171/171/171
v -1.4960 0.8953 -1.5355
vt 0.7871 0.9541
vn -0.4813 0.0567 -0.8747
v -1.2200 0.9033 -1.6872
vt 0.7914 0.9612
vn -0.4813 0.0567 -0.8747
v -1.1745 -0.0717 -1.7751
vt 0.7914 0.9612
vn -0.4813 0.0567 -0.8747
v -1.5521 -0.0717 -1.5677
vt 0.7871 0.9541
vn -0.4813 0.0567 -0.8747
f 172/172/172 173/173/173 174/174/174 175/175/175
v -1.4373 0.9005 -1.2260
vt 0.8080 0.9541
vn -0.9813 0.0505 0.1860
v -1.4960 0.8953 -1.5355
vt 0.7949 0.9612
vn -0.9813 0.0505 0.1860
v -1.5521 -0.0717 -1.5677
vt 0.7949 0.9612
vn -0.9813 0.0505 0.1860
v -1.4717 -0.0717 -1.1444
vt 0.8080 0.9541
vn -0.9813 0.0505 0.1860
f 176/176/176 177/177/177 178/178/178 179/179/179
v -1.2200 0.9033 -1.6872
vt 0.7951 0.9541
vn 0.6810 0.0966 -0.7259
v -0.9905 0.9136 -1.4714
vt 0.8108 0.9612
vn 0.6810 0.0966 -0.7259
v -0.8608 -0.0717 -1.4800
vt 0.8108 0.9612
vn 0.6810 0.0966 -0.7259
v -1.1745 -0.0717 -1.7751
vt 0.7951 0.9541
vn 0.6810 0.0966 -0.7259
f 180/180/180 181/181/181 182/182/182 183/183/183
v -1.1248 0.9118 -1.1864
vt 0.8289 0.9541
vn -0.1266 0.0868 0.9881
v -1.4373 0.9005 -1.2260
vt 0.8166 0.9612
vn -0.1266 0.0868 0.9881
v -1.4717 -0.0717 -1.1444
vt 0.8166 0.9612
vn -0.1266 0.0868 0.9881
v -1.0445 -0.0717 -1.0902
vt 0.8289 0.9541
vn -0.1266 0.0868 0.9881
f 184/184/184 185/185/185 186/186/186 187/187/187
v -1.1678 1.9628 -2.4008
vt 0.1701 0.3291
vn 0.6422 0.3172 -0.6978
v -1.3779 4.4620 -1.4582
vt 0.1830 0.4092
vn 0.6422 0.3172 -0.6978
v -0.3323 2.0001 -1.6149
vt 0.1959 0.3291
vn 0.6422 0.3172 -0.6978
f 188/188/188 189/189/189 190/190/190
v 1.9898 1.0164 1.8789
vt 0.1959 0.3291
vn 0.5708 0.3370 0.7487
v 1.7133 1.0201 2.0881
vt 0.2025 0.3330
vn 0.5708 0.3370 0.7487
v 1.6866 0.3394 2.4148
vt 0.2039 0.3291
vn 0.5708 0.3370 0.7487
v 2.3000 0.3313 1.9508
vt 0.1959 0.3291
vn 0.5708 0.3370 0.7487
f 191/191/191 192/192/192 193/193/193 194/194/194
v 1.7133 1.0201 2.0881
vt 0.2039 0.3291
vn -0.5046 0.3896 0.7704
v 1.4296 1.0438 1.8902
vt 0.1877 0.3330
vn -0.5046 0.3896 0.7704
v 1.0571 0.3921 1.9759
vt 0.1830 0.3291
vn -0.5046 0.3896 0.7704
v 1.6866 0.3394 2.4148
vt 0.2039 0.3291
vn -0.5046 0.3896 0.7704
f 195/195/195 196/196/196 197/197/197 198/198/198
v 1.4296 1.0438 1.8902
vt 0.1830 0.3291
vn -0.8551 0.4564 -0.2457
v 1.5307 1.0549 1.5588
vt 0.1664 0.3330
vn -0.8551 0.4564 -0.2457
v 1.2815 0.4166 1.2405
vt 0.1621 0.3291
vn -0.8551 0.4564 -0.2457
v 1.0571 0.3921 1.9759
vt 0.1830 0.3291
vn -0.8551 0.4564 -0.2457
f 199/199/199 200/200/200 201/201/201 202/202/202
v 1.5307 1.0549 1.5588
vt 0.1621 0.3291
vn 0.0037 0.4451 -0.8955
v 1.8770 1.0379 1.5518
vt 0.1681 0.3330
vn 0.0037 0.4451 -0.8955
v 2.0497 0.3790 1.2250
vt 0.1701 0.3291
vn 0.0037 0.4451 -0.8955
v 1.2815 0.4166 1.2405
vt 0.1621 0.3291
vn 0.0037 0.4451 -0.8955
f 203/203/203 204/204/204 205/205/205 206/206/206
v 2.1986 0.9713 1.9412
vt 0.1959 0.3291
vn -0.1847 -0.9787 -0.0890
v 1.9898 1.0164 1.8789
vt 0.1904 0.3330
vn -0.1847 -0.9787 -0.0890
v 1.8770 1.0379 1.5518
vt 0.1701 0.3291
vn -0.1305 -0.9891 0.0683
v 2.0015 1.0089 1.3697
vt 0.1701 0.3291
vn -0.1305 -0.9891 0.0683
f 207/207/207 208/208/208 209/209/209 210/210/210
v 1.7721 2.3167 1.8558
vt 0.1830 0.4092
vn 0.5883 0.2356 0.7736
v 1.7156 0.9777 2.3065
vt 0.2039 0.3291
vn 0.5883 0.2356 0.7736
v 2.1986 0.9713 1.9412
vt 0.1959 0.3291
vn 0.5883 0.2356 0.7736
f 211/211/211 212/212/212 213/213/213
v 1.7721 2.3167 1.8558
vt 0.1830 0.4092
vn -0.5309 0.2904 0.7961
v 1.2200 1.0192 1.9609
vt 0.1830 0.3291
vn -0.5309 0.2904 0.7961
v 1.7156 0.9777 2.3065
vt 0.2039 0.3291
vn -0.5309 0.2904 0.7961
f 214/214/214 215/215/215 216/216/216
v 1.7721 2.3167 1.8558
vt 0.1830 0.4092
vn -0.8956 0.3599 -0.2613
v 1.3967 1.0385 1.3819
vt 0.1621 0.3291
vn -0.8956 0.3599 -0.2613
v 1.2200 1.0192 1.9609
vt 0.1830 0.3291
vn -0.8956 0.3599 -0.2613
f 217/217/217 218/218/218 219/219/219
v 1.7721 2.3167 1.8558
vt 0.1830 0.4092
vn -0.0019 0.3481 -0.9374
v 2.0015 1.0089 1.3697
vt 0.1701 0.3291
vn -0.0019 0.3481 -0.9374
v 1.3967 1.0385 1.3819
vt 0.1621 0.3291
vn -0.0019 0.3481 -0.9374
f 220/220/220 221/221/221 222/222/222
v 1.8770 1.0379 1.5518
vt 0.1701 0.3291
vn 0.8850 0.3713 -0.2809
v 1.9898 1.0164 1.8789
vt 0.1904 0.3330
vn 0.8850 0.3713 -0.2809
v 2.3000 0.3313 1.9508
vt 0.1959 0.3291
vn 0.8850 0.3713 -0.2809
v 2.0497 0.3790 1.2250
vt 0.1701 0.3291
vn 0.8850 0.3713 -0.2809
f 223/223/223 224/224/224 225/225/225 226/226/226
v 1.3967 1.0385 1.3819
vt 0.1621 0.3291
vn 0.0360 -0.9972 0.0649
v 2.0015 1.0089 1.3697
vt 0.1701 0.3291
vn -0.1305 -0.9891 0.0683
v 1.8770 1.0379 1.5518
vt 0.1681 0.3330
vn -0.1305 -0.9891 0.0683
v 1.5307 1.0549 1.5588
vt 0.1621 0.3291
vn 0.0360 -0.9972 0.0649
f 227/227/227 228/228/228 229/229/229 230/230/230
v 2.1986 0.9713 1.9412
vt 0.1959 0.3291
vn -0.1847 -0.9787 -0.0890
v 1.7156 0.9777 2.3065
vt 0.2039 0.3291
vn -0.0518 -0.9805 -0.1896
v 1.7133 1.0201 2.0881
vt 0.2025 0.3330
vn -0.0518 -0.9805 -0.1896
v 1.9898 1.0164 1.8789
vt 0.1959 0.3291
vn -0.1847 -0.9787 -0.0890
f 231/231/231 232/232/232 233/233/233 234/234/234
v 1.7156 0.9777 2.3065
vt 0.2039 0.3291
vn -0.0518 -0.9805 -0.1896
v 1.2200 1.0192 1.9609
vt 0.1830 0.3291
vn 0.0846 -0.9919 -0.0944
v 1.4296 1.0438 1.8902
vt 0.1877 0.3330
vn 0.0846 -0.9919 -0.0944
v 1.7133 1.0201 2.0881
vt 0.2039 0.3291
vn -0.0518 -0.9805 -0.1896
f 235/235/235 236/236/236 237/237/237 238/238/238
v 1.2200 1.0192 1.9609
vt 0.1830 0.3291
vn 0.0846 -0.9919 -0.0944
v 1.3967 1.0385 1.3819
vt 0.1621 0.3291
vn 0.0360 -0.9972 0.0649
v 1.5307 1.0549 1.5588
vt 0.1664 0.3330
vn 0.0360 -0.9972 0.0649
v 1.4296 1.0438 1.8902
vt 0.1830 0.3291
vn 0.0846 -0.9919 -0.0944
f 239/239/239 240/240/240 241/241/241 242/242/242
v 1.2815 0.4166 1.2405
vt 0.1621 0.3291
vn 0.0335 -0.9975 0.0616
v 2.0497 0.3790 1.2250
vt 0.1701 0.3291
vn -0.1281 -0.9896 0.0649
v 1.7595 0.4444 1.6489
vt 0.1664 0.3362
vn -0.1281 -0.9896 0.0649
v 1.5935 0.4525 1.6522
vt 0.1621 0.3291
vn 0.0335 -0.9975 0.0616
f 243/243/243 244/244/244 245/245/245 246/246/246
v 2.3000 0.3313 1.9508
vt 0.1959 0.3291
vn -0.1808 -0.9796 -0.0878
v 1.6866 0.3394 2.4148
vt 0.2039 0.3291
vn -0.0518 -0.9813 -0.1855
v 1.6810 0.4358 1.9061
vt 0.2014 0.3362
vn -0.0518 -0.9813 -0.1855
v 1.8137 0.4341 1.8058
vt 0.1959 0.3291
vn -0.1808 -0.9796 -0.0878
f 247/247/247 248/248/248 249/249/249 250/250/250
v 1.6866 0.3394 2.4148
vt 0.2039 0.3291
vn -0.0518 -0.9813 -0.1855
v 1.0571 0.3921 1.9759
vt 0.1830 0.3291
vn 0.0807 -0.9924 -0.0931
v 1.5450 0.4472 1.8112
vt 0.1916 0.3362
vn 0.0807 -0.9924 -0.0931
v 1.6810 0.4358 1.9061
vt 0.2039 0.3291
vn -0.0518 -0.9813 -0.1855
f 251/251/251 252/252/252 253/253/253 254/254/254
v 1.0571 0.3921 1.9759
vt 0.1830 0.3291
vn 0.0807 -0.9924 -0.0931
v 1.2815 0.4166 1.2405
vt 0.1621 0.3291
vn 0.0335 -0.9975 0.0616
v 1.5935 0.4525 1.6522
vt 0.1699 0.3362
vn 0.0335 -0.9975 0.0616
v 1.5450 0.4472 1.8112
vt 0.1830 0.3291
vn 0.0807 -0.9924 -0.0931
f 255/255/255 256/256/256 257/257/257 258/258/258
v 1.8137 0.4341 1.8058
vt 0.8209 0.9541
vn 0.6033 0.0151 0.7974
v 1.6810 0.4358 1.9061
vt 0.8264 0.9612
vn 0.6033 0.0151 0.7974
v 1.6571 -0.0717 1.9338
vt 0.8264 0.9612
vn 0.6033 0.0151 0.7974
v 1.8385 -0.0717 1.7966
vt 0.8209 0.9541
vn 0.6033 0.0151 0.7974
f 259/259/259 260/260/260 261/261/261 262/262/262
v 2.0497 0.3790 1.2250
vt 0.1701 0.3291
vn -0.1281 -0.9896 0.0649
v 2.3000 0.3313 1.9508
vt 0.1959 0.3291
vn -0.1808 -0.9796 -0.0878
v 1.8137 0.4341 1.8058
vt 0.1858 0.3362
vn -0.1808 -0.9796 -0.0878
v 1.7595 0.4444 1.6489
vt 0.1701 0.3291
vn -0.1281 -0.9896 0.0649
f 263/263/263 264/264/264 265/265/265 266/266/266
v 1.5935 0.4525 1.6522
vt 0.7871 0.9541
vn -0.0174 0.1270 -0.9917
v 1.7595 0.4444 1.6489
vt 0.7914 0.9612
vn -0.0174 0.1270 -0.9917
v 1.7644 -0.0717 1.5821
vt 0.7914 0.9612
vn -0.0174 0.1270 -0.9917
v 1.5374 -0.0717 1.5867
vt 0.7871 0.9541
vn -0.0174 0.1270 -0.9917
f 267/267/267 268/268/268 269/269/269 270/270/270
v 1.5450 0.4472 1.8112
vt 0.8080 0.9541
vn -0.9478 0.1382 -0.2873
v 1.5935 0.4525 1.6522
vt 0.7949 0.9612
vn -0.9478 0.1382 -0.2873
v 1.5374 -0.0717 1.5867
vt 0.7949 0.9612
vn -0.9478 0.1382 -0.2873
v 1.4710 -0.0717 1.8041
vt 0.8080 0.9541
vn -0.9478 0.1382 -0.2873
f 271/271/271 272/272/272 273/273/273 274/274/274
v 1.7595 0.4444 1.6489
vt 0.7951 0.9541
vn 0.9445 0.0516 -0.3244
v 1.8137 0.4341 1.8058
vt 0.8108 0.9612
vn 0.9445 0.0516 -0.3244
v 1.8385 -0.0717 1.7966
vt 0.8108 0.9612
vn 0.9445 0.0516 -0.3244
v 1.7644 -0.0717 1.5821
vt 0.7951 0.9541
vn 0.9445 0.0516 -0.3244
f 275/275/275 276/276/276 277/277/277 278/278/278
v 1.6810 0.4358 1.9061
vt 0.8289 0.9541
vn -0.5689 0.0707 0.8194
v 1.5450 0.4472 1.8112
vt 0.8166 0.9612
vn -0.5689 0.0707 0.8194
v 1.4710 -0.0717 1.8041
vt 0.8166 0.9612
vn -0.5689 0.0707 0.8194
v 1.6571 -0.0717 1.9338
vt 0.8289 0.9541
vn -0.5689 0.0707 0.8194
f 279/279/279 280/280/280 281/281/281 282/282/282
v 2.0015 1.0089 1.3697
vt 0.1701 0.3291
vn 0.9152 0.2713 -0.2979
v 1.7721 2.3167 1.8558
vt 0.1830 0.4092
vn 0.9152 0.2713 -0.2979
v 2.1986 0.9713 1.9412
vt 0.1959 0.3291
vn 0.9152 0.2713 -0.2979
f 283/283/283 284/284/284 285/285/285
v 0.6510 1.5186 0.7859
vt 0.1959 0.3291
vn 0.8423 0.2838 0.4582
v 0.3739 1.5588 1.2705
vt 0.2025 0.3330
vn 0.8423 0.2838 0.4582
v 0.4542 0.4637 1.8010
vt 0.2039 0.3291
vn 0.8423 0.2838 0.4582
v 1.0690 0.3747 0.7259
vt 0.1959 0.3291
vn 0.8423 0.2838 0.4582
f 286/286/286 287/287/287 288/288/288 289/289/289
v 0.3739 1.5588 1.2705
vt 0.2039 0.3291
vn -0.1316 0.4243 0.8959
v -0.1679 1.6368 1.1539
vt 0.1877 0.3330
vn -0.1316 0.4243 0.8959
v -0.7477 0.6369 1.5424
vt 0.1830 0.3291
vn -0.1316 0.4243 0.8959
v 0.4542 0.4637 1.8010
vt 0.2039 0.3291
vn -0.1316 0.4243 0.8959
f 290/290/290 291/291/291 292/292/292 293/293/293
v -0.1679 1.6368 1.1539
vt 0.1830 0.3291
vn -0.8446 0.5268 0.0953
v -0.2256 1.6449 0.5973
vt 0.1664 0.3330
vn -0.8446 0.5268 0.0953
v -0.8758 0.6549 0.3075
vt 0.1621 0.3291
vn -0.8446 0.5268 0.0953
v -0.7477 0.6369 1.5424
vt 0.1830 0.3291
vn -0.8446 0.5268 0.0953
f 294/294/294 295/295/295 296/296/296 297/297/297
v -0.2256 1.6449 0.5973
vt 0.1621 0.3291
vn -0.3114 0.4495 -0.8372
v 0.2805 1.5719 0.3699
vt 0.1681 0.3330
vn -0.3114 0.4495 -0.8372
v 0.2470 0.4928 -0.1971
vt 0.1701 0.3291
vn -0.3114 0.4495 -0.8372
v -0.8758 0.6549 0.3075
vt 0.1621 0.3291
vn -0.3114 0.4495 -0.8372
f 298/298/298 299/299/299 300/300/300 301/301/301
v 0.9937 1.4178 0.7489
vt 0.1959 0.3291
vn -0.2808 -0.9596 0.0152
v 0.6510 1.5186 0.7859
vt 0.1904 0.3330
vn -0.2808 -0.9596 0.0152
v 0.2805 1.5719 0.3699
vt 0.1701 0.3291
vn -0.1705 -0.9755 0.1391
v 0.3465 1.5108 0.0222
vt 0.1701 0.3291
vn -0.1705 -0.9755 0.1391
f 302/302/302 303/303/303 304/304/304 305/305/305
v 0.4784 3.6393 0.8346
vt 0.1830 0.4092
vn 0.8601 0.1811 0.4769
v 0.5097 1.4879 1.5953
vt 0.2039 0.3291
vn 0.8601 0.1811 0.4769
v 0.9937 1.4178 0.7489
vt 0.1959 0.3291
vn 0.8601 0.1811 0.4769
f 306/306/306 307/307/307 308/308/308
v 0.4784 3.6393 0.8346
vt 0.1830 0.4092
vn -0.1534 0.3274 0.9323
v -0.4367 1.6242 1.3917
vt 0.1830 0.3291
vn -0.1534 0.3274 0.9323
v 0.5097 1.4879 1.5953
vt 0.2039 0.3291
vn -0.1534 0.3274 0.9323
f 309/309/309 310/310/310 311/311/311
v 0.4784 3.6393 0.8346
vt 0.1830 0.4092
vn -0.8954 0.4341 0.0992
v -0.5375 1.6384 0.4195
vt 0.1621 0.3291
vn -0.8954 0.4341 0.0992
v -0.4367 1.6242 1.3917
vt 0.1830 0.3291
vn -0.8954 0.4341 0.0992
f 312/312/312 313/313/313 314/314/314
v 0.4784 3.6393 0.8346
vt 0.1830 0.4092
vn -0.3405 0.3536 -0.8712
v 0.3465 1.5108 0.0222
vt 0.1701 0.3291
vn -0.3405 0.3536 -0.8712
v -0.5375 1.6384 0.4195
vt 0.1621 0.3291
vn -0.3405 0.3536 -0.8712
f 315/315/315 316/316/316 317/317/317
v 0.2805 1.5719 0.3699
vt 0.1701 0.3291
vn 0.7313 0.2993 -0.6129
v 0.6510 1.5186 0.7859
vt 0.1904 0.3330
vn 0.7313 0.2993 -0.6129
v 1.0690 0.3747 0.7259
vt 0.1959 0.3291
vn 0.7313 0.2993 -0.6129
v 0.2470 0.4928 -0.1971
vt 0.1701 0.3291
vn 0.7313 0.2993 -0.6129
f 318/318/318 319/319/319 320/320/320 321/321/321
v -0.5375 1.6384 0.4195
vt 0.1621 0.3291
vn -0.0197 -0.9973 0.0714
v 0.3465 1.5108 0.0222
vt 0.1701 0.3291
vn -0.1705 -0.9755 0.1391
v 0.2805 1.5719 0.3699
vt 0.1681 0.3330
vn -0.1705 -0.9755 0.1391
v -0.2256 1.6449 0.5973
vt 0.1621 0.3291
vn -0.0197 -0.9973 0.0714
f 322/322/322 323/323/323 324/324/324 325/325/325
v 0.9937 1.4178 0.7489
vt 0.1959 0.3291
vn -0.2808 -0.9596 0.0152
v 0.5097 1.4879 1.5953
vt 0.2039 0.3291
vn -0.1983 -0.9716 -0.1292
v 0.3739 1.5588 1.2705
vt 0.2025 0.3330
vn -0.1983 -0.9716 -0.1292
v 0.6510 1.5186 0.7859
vt 0.1959 0.3291
vn -0.2808 -0.9596 0.0152
f 326/326/326 327/327/327 328/328/328 329/329/329
v 0.5097 1.4879 1.5953
vt 0.2039 0.3291
vn -0.1983 -0.9716 -0.1292
v -0.4367 1.6242 1.3917
vt 0.1830 0.3291
vn -0.0369 -0.9948 -0.0944
v -0.1679 1.6368 1.1539
vt 0.1877 0.3330
vn -0.0369 -0.9948 -0.0944
v 0.3739 1.5588 1.2705
vt 0.2039 0.3291
vn -0.1983 -0.9716 -0.1292
f 330/330/330 331/331/331 332/332/332 333/333/333
v -0.4367 1.6242 1.3917
vt 0.1830 0.3291
vn -0.0369 -0.9948 -0.0944
v -0.5375 1.6384 0.4195
vt 0.1621 0.3291
vn -0.0197 -0.9973 0.0714
v -0.2256 1.6449 0.5973
vt 0.1664 0.3330
vn -0.0197 -0.9973 0.0714
v -0.1679 1.6368 1.1539
vt 0.1830 0.3291
vn -0.0369 -0.9948 -0.0944
f 334/334/334 335/335/335 336/336/336 337/337/337
v -0.8758 0.6549 0.3075
vt 0.1621 0.3291
vn -0.0234 -0.9973 0.0693
v 0.2470 0.4928 -0.1971
vt 0.1701 0.3291
vn -0.1697 -0.9762 0.1351
v 0.0928 0.6316 0.6126
vt 0.1664 0.3362
vn -0.1697 -0.9762 0.1351
v -0.1499 0.6666 0.7217
vt 0.1621 0.3291
vn -0.0234 -0.9973 0.0693
f 338/338/338 339/339/339 340/340/340 341/341/341
v 1.0690 0.3747 0.7259
vt 0.1959 0.3291
vn -0.2769 -0.9608 0.0147
v 0.4542 0.4637 1.8010
vt 0.2039 0.3291
vn -0.1967 -0.9724 -0.1254
v 0.1376 0.6253 1.0445
vt 0.2014 0.3362
vn -0.1967 -0.9724 -0.1254
v 0.2705 0.6061 0.8121
vt 0.1959 0.3291
vn -0.2769 -0.9608 0.0147
f 342/342/342 343/343/343 344/344/344 345/345/345
v 0.4542 0.4637 1.8010
vt 0.2039 0.3291
vn -0.1967 -0.9724 -0.1254
v -0.7477 0.6369 1.5424
vt 0.1830 0.3291
vn -0.0400 -0.9950 -0.0917
v -0.1222 0.6628 0.9886
vt 0.1916 0.3362
vn -0.0400 -0.9950 -0.0917
v 0.1376 0.6253 1.0445
vt 0.2039 0.3291
vn -0.1967 -0.9724 -0.1254
f 346/346/346 347/347/347 348/348/348 349/349/349
v -0.7477 0.6369 1.5424
vt 0.1830 0.3291
vn -0.0400 -0.9950 -0.0917
v -0.8758 0.6549 0.3075
vt 0.1621 0.3291
vn -0.0234 -0.9973 0.0693
v -0.1499 0.6666 0.7217
vt 0.1699 0.3362
vn -0.0234 -0.9973 0.0693
v -0.1222 0.6628 0.9886
vt 0.1830 0.3291
vn -0.0400 -0.9950 -0.0917
f 350/350/350 351/351/351 352/352/352 353/353/353
v 0.2705 0.6061 0.8121
vt 0.8209 0.9541
vn 0.8664 -0.0468 0.4971
v 0.1376 0.6253 1.0445
vt 0.8264 0.9612
vn 0.8664 -0.0468 0.4971
v 0.0564 -0.0717 1.1215
vt 0.8264 0.9612
vn 0.8664 -0.0468 0.4971
v 0.2382 -0.0717 0.8037
vt 0.8209 0.9541
vn 0.8664 -0.0468 0.4971
f 354/354/354 355/355/355 356/356/356 357/357/357
v 0.2470 0.4928 -0.1971
vt 0.1701 0.3291
vn -0.1697 -0.9762 0.1351
v 1.0690 0.3747 0.7259
vt 0.1959 0.3291
vn -0.2769 -0.9608 0.0147
v 0.2705 0.6061 0.8121
vt 0.1858 0.3362
vn -0.2769 -0.9608 0.0147
v 0.0928 0.6316 0.6126
vt 0.1701 0.3291
vn -0.1697 -0.9762 0.1351
f 358/358/358 359/359/359 360/360/360 361/361/361
v -0.1499 0.6666 0.7217
vt 0.7871 0.9541
vn -0.3970 0.1557 -0.9045
v 0.0928 0.6316 0.6126
vt 0.7914 0.9612
vn -0.3970 0.1557 -0.9045
v -0.0048 -0.0717 0.5309
vt 0.7914 0.9612
vn -0.3970 0.1557 -0.9045
v -0.3368 -0.0717 0.6800
vt 0.7871 0.9541
vn -0.3970 0.1557 -0.9045
f 362/362/362 363/363/363 364/364/364 365/365/365
v -0.1222 0.6628 0.9886
vt 0.8080 0.9541
vn -0.9656 0.2394 0.1016
v -0.1499 0.6666 0.7217
vt 0.7949 0.9612
vn -0.9656 0.2394 0.1016
v -0.3368 -0.0717 0.6800
vt 0.7949 0.9612
vn -0.9656 0.2394 0.1016
v -0.2989 -0.0717 1.0451
vt 0.8080 0.9541
vn -0.9656 0.2394 0.1016
f 366/366/366 367/367/367 368/368/368 369/369/369
v 0.0928 0.6316 0.6126
vt 0.7951 0.9541
vn 0.7458 -0.0268 -0.6656
v 0.2705 0.6061 0.8121
vt 0.8108 0.9612
vn 0.7458 -0.0268 -0.6656
v 0.2382 -0.0717 0.8037
vt 0.8108 0.9612
vn 0.7458 -0.0268 -0.6656
v -0.0048 -0.0717 0.5309
vt 0.7951 0.9541
vn 0.7458 -0.0268 -0.6656
f 370/370/370 371/371/371 372/372/372 373/373/373
v 0.1376 0.6253 1.0445
vt 0.8289 0.9541
vn -0.2013 0.1268 0.9713
v -0.1222 0.6628 0.9886
vt 0.8166 0.9612
vn -0.2013 0.1268 0.9713
v -0.2989 -0.0717 1.0451
vt 0.8166 0.9612
vn -0.2013 0.1268 0.9713
v 0.0564 -0.0717 1.1215
vt 0.8289 0.9541
vn -0.2013 0.1268 0.9713
f 374/374/374 375/375/375 376/376/376 377/377/377
v 0.3465 1.5108 0.0222
vt 0.1701 0.3291
vn 0.7445 0.1973 -0.6378
v 0.4784 3.6393 0.8346
vt 0.1830 0.4092
vn 0.7445 0.1973 -0.6378
v 0.9937 1.4178 0.7489
vt 0.1959 0.3291
vn 0.7445 0.1973 -0.6378
f 378/378/378 379/379/379 380/380/380
v -2.6825 1.0922 -0.6656
vt 0.1959 0.3291
vn -0.3338 0.3370 -0.8804
v -2.3348 1.0961 -0.7959
vt 0.2025 0.3330
vn -0.3338 0.3370 -0.8804
v -2.2077 0.3673 -1.1231
vt 0.2039 0.3291
vn -0.3338 0.3370 -0.8804
v -2.9789 0.3586 -0.8340
vt 0.1959 0.3291
vn -0.3338 0.3370 -0.8804
f 381/381/381 382/382/382 383/383/383 384/384/384
v -2.3348 1.0961 -0.7959
vt 0.2039 0.3291
vn 0.7033 0.3896 -0.5946
v -2.1040 1.1216 -0.5062
vt 0.1877 0.3330
vn 0.7033 0.3896 -0.5946
v -1.6956 0.4238 -0.4804
vt 0.1830 0.3291
vn 0.7033 0.3896 -0.5946
v -2.2077 0.3673 -1.1231
vt 0.2039 0.3291
vn 0.7033 0.3896 -0.5946
f 385/385/385 386/386/386 387/387/387 388/388/388
v -2.1040 1.1216 -0.5062
vt 0.1830 0.3291
vn 0.7496 0.4564 0.4793
v -2.3090 1.1334 -0.1969
vt 0.1664 0.3330
vn 0.7496 0.4564 0.4793
v -2.1504 0.4500 0.2059
vt 0.1621 0.3291
vn 0.7496 0.4564 0.4793
v -1.6956 0.4238 -0.4804
vt 0.1830 0.3291
vn 0.7496 0.4564 0.4793
f 389/389/389 390/390/390 391/391/391 392/392/392
v -2.3090 1.1334 -0.1969
vt 0.1621 0.3291
vn -0.2588 0.4451 0.8573
v -2.6665 1.1153 -0.2954
vt 0.1681 0.3330
vn -0.2588 0.4451 0.8573
v -2.9435 0.4098 -0.0127
vt 0.1701 0.3291
vn -0.2588 0.4451 0.8573
v -2.1504 0.4500 0.2059
vt 0.1621 0.3291
vn -0.2588 0.4451 0.8573
f 393/393/393 394/394/394 395/395/395 396/396/396
v -2.8778 1.0440 -0.7932
vt 0.1959 0.3291
vn 0.1517 -0.9787 0.1380
v -2.6825 1.0922 -0.6656
vt 0.1904 0.3330
vn 0.1517 -0.9787 0.1380
v -2.6665 1.1153 -0.2954
vt 0.1701 0.3291
vn 0.1445 -0.9891 -0.0283
v -2.8499 1.0842 -0.1465
vt 0.1701 0.3291
vn 0.1445 -0.9891 -0.0283
f 397/397/397 398/398/398 399/399/399 400/400/400
v -2.4660 2.4845 -0.5754
vt 0.1830 0.4092
vn -0.3434 0.2356 -0.9092
v -2.2706 1.0508 -1.0208
vt 0.2039 0.3291
vn -0.3434 0.2356 -0.9092
v -2.8778 1.0440 -0.7932
vt 0.1959 0.3291
vn -0.3434 0.2356 -0.9092
f 401/401/401 402/402/402 403/403/403
v -2.4660 2.4845 -0.5754
vt 0.1830 0.4092
vn 0.7358 0.2904 -0.6118
v -1.8674 1.0953 -0.5148
vt 0.1830 0.3291
vn 0.7358 0.2904 -0.6118
v -2.2706 1.0508 -1.0208
vt 0.2039 0.3291
vn 0.7358 0.2904 -0.6118
f 404/404/404 405/405/405 406/406/406
v -2.4660 2.4845 -0.5754
vt 0.1830 0.4092
vn 0.7840 0.3599 0.5058
v -2.2254 1.1159 0.0255
vt 0.1621 0.3291
vn 0.7840 0.3599 0.5058
v -1.8674 1.0953 -0.5148
vt 0.1830 0.3291
vn 0.7840 0.3599 0.5058
f 407/407/407 408/408/408 409/409/409
v -2.4660 2.4845 -0.5754
vt 0.1830 0.4092
vn -0.2654 0.3481 0.8991
v -2.8499 1.0842 -0.1465
vt 0.1701 0.3291
vn -0.2654 0.3481 0.8991
v -2.2254 1.1159 0.0255
vt 0.1621 0.3291
vn -0.2654 0.3481 0.8991
f 410/410/410 411/411/411 412/412/412
v -2.6665 1.1153 -0.2954
vt 0.1701 0.3291
vn -0.9284 0.3713 0.0169
v -2.6825 1.0922 -0.6656
vt 0.1904 0.3330
vn -0.9284 0.3713 0.0169
v -2.9789 0.3586 -0.8340
vt 0.1959 0.3291
vn -0.9284 0.3713 0.0169
v -2.9435 0.4098 -0.0127
vt 0.1701 0.3291
vn -0.9284 0.3713 0.0169
f 413/413/413 414/414/414 415/415/415 416/416/416
v -2.2254 1.1159 0.0255
vt 0.1621 0.3291
vn -0.0160 -0.9972 -0.0725
v -2.8499 1.0842 -0.1465
vt 0.1701 0.3291
vn 0.1445 -0.9891 -0.0283
v -2.6665 1.1153 -0.2954
vt 0.1681 0.3330
vn 0.1445 -0.9891 -0.0283
v -2.3090 1.1334 -0.1969
vt 0.1621 0.3291
vn -0.0160 -0.9972 -0.0725
f 417/417/417 418/418/418 419/419/419 420/420/420
v -2.8778 1.0440 -0.7932
vt 0.1959 0.3291
vn 0.1517 -0.9787 0.1380
v -2.2706 1.0508 -1.0208
vt 0.2039 0.3291
vn -0.0044 -0.9805 0.1965
v -2.3348 1.0961 -0.7959
vt 0.2025 0.3330
vn -0.0044 -0.9805 0.1965
v -2.6825 1.0922 -0.6656
vt 0.1959 0.3291
vn 0.1517 -0.9787 0.1380
f 421/421/421 422/422/422 423/423/423 424/424/424
v -2.2706 1.0508 -1.0208
vt 0.2039 0.3291
vn -0.0044 -0.9805 0.1965
v -1.8674 1.0953 -0.5148
vt 0.1830 0.3291
vn -0.1080 -0.9919 0.0664
v -2.1040 1.1216 -0.5062
vt 0.1877 0.3330
vn -0.1080 -0.9919 0.0664
v -2.3348 1.0961 -0.7959
vt 0.2039 0.3291
vn -0.0044 -0.9805 0.1965
f 425/425/425 426/426/426 427/427/427 428/428/428
v -1.8674 1.0953 -0.5148
vt 0.1830 0.3291
vn -0.1080 -0.9919 0.0664
v -2.2254 1.1159 0.0255
vt 0.1621 0.3291
vn -0.0160 -0.9972 -0.0725
v -2.3090 1.1334 -0.1969
vt 0.1664 0.3330
vn -0.0160 -0.9972 -0.0725
v -2.1040 1.1216 -0.5062
vt 0.1830 0.3291
vn -0.1080 -0.9919 0.0664
f 429/429/429 430/430/430 431/431/431 432/432/432
v -2.1504 0.4500 0.2059
vt 0.1621 0.3291
vn -0.0145 -0.9975 -0.0686
v -2.9435 0.4098 -0.0127
vt 0.1701 0.3291
vn 0.1413 -0.9896 -0.0257
v -2.5163 0.4797 -0.3592
vt 0.1664 0.3362
vn 0.1413 -0.9896 -0.0257
v -2.3449 0.4884 -0.3119
vt 0.1621 0.3291
vn -0.0145 -0.9975 -0.0686
f 433/433/433 434/434/434 435/435/435 436/436/436
v -2.9789 0.3586 -0.8340
vt 0.1959 0.3291
vn 0.1483 -0.9796 0.1357
v -2.2077 0.3673 -1.1231
vt 0.2039 0.3291
vn -0.0032 -0.9813 0.1925
v -2.3573 0.4706 -0.5992
vt 0.2014 0.3362
vn -0.0032 -0.9813 0.1925
v -2.5240 0.4687 -0.5367
vt 0.1959 0.3291
vn 0.1483 -0.9796 0.1357
f 437/437/437 438/438/438 439/439/439 440/440/440
v -2.2077 0.3673 -1.1231
vt 0.2039 0.3291
vn -0.0032 -0.9813 0.1925
v -1.6956 0.4238 -0.4804
vt 0.1830 0.3291
vn -0.1039 -0.9924 0.0662
v -2.2466 0.4828 -0.4603
vt 0.1916 0.3362
vn -0.1039 -0.9924 0.0662
v -2.3573 0.4706 -0.5992
vt 0.2039 0.3291
vn -0.0032 -0.9813 0.1925
f 441/441/441 442/442/442 443/443/443 444/444/444
v -1.6956 0.4238 -0.4804
vt 0.1830 0.3291
vn -0.1039 -0.9924 0.0662
v -2.1504 0.4500 0.2059
vt 0.1621 0.3291
vn -0.0145 -0.9975 -0.0686
v -2.3449 0.4884 -0.3119
vt 0.1699 0.3362
vn -0.0145 -0.9975 -0.0686
v -2.2466 0.4828 -0.4603
vt 0.1830 0.3291
vn -0.1039 -0.9924 0.0662
f 445/445/445 446/446/446 447/447/447 448/448/448
v -2.5240 0.4687 -0.5367
vt 0.8209 0.9541
vn -0.3510 0.0152 -0.9363
v -2.3573 0.4706 -0.5992
vt 0.8264 0.9612
vn -0.3510 0.0152 -0.9363
v -2.3243 -0.0717 -0.6204
vt 0.8264 0.9612
vn -0.3510 0.0152 -0.9363
v -2.5522 -0.0717 -0.5349
vt 0.8209 0.9541
vn -0.3510 0.0152 -0.9363
f 449/449/449 450/450/450 451/451/451 452/452/452
v -2.9435 0.4098 -0.0127
vt 0.1701 0.3291
vn 0.1413 -0.9896 -0.0257
v -2.9789 0.3586 -0.8340
vt 0.1959 0.3291
vn 0.1483 -0.9796 0.1357
v -2.5240 0.4687 -0.5367
vt 0.1858 0.3362
vn 0.1483 -0.9796 0.1357
v -2.5163 0.4797 -0.3592
vt 0.1701 0.3291
vn 0.1413 -0.9896 -0.0257
f 453/453/453 454/454/454 455/455/455 456/456/456
v -2.3449 0.4884 -0.3119
vt 0.7871 0.9541
vn -0.2660 0.1273 0.9555
v -2.5163 0.4797 -0.3592
vt 0.7914 0.9612
vn -0.2660 0.1273 0.9555
v -2.5418 -0.0717 -0.2921
vt 0.7914 0.9612
vn -0.2660 0.1273 0.9555
v -2.3073 -0.0717 -0.2275
vt 0.7871 0.9541
vn -0.2660 0.1273 0.9555
f 457/457/457 458/458/458 459/459/459 460/460/460
v -2.2466 0.4828 -0.4603
vt 0.8080 0.9541
vn 0.8266 0.1385 0.5455
v -2.3449 0.4884 -0.3119
vt 0.7949 0.9612
vn 0.8266 0.1385 0.5455
v -2.3073 -0.0717 -0.2275
vt 0.7949 0.9612
vn 0.8266 0.1385 0.5455
v -2.1729 -0.0717 -0.4304
vt 0.8080 0.9541
vn 0.8266 0.1385 0.5455
f 461/461/461 462/462/462 463/463/463 464/464/464
v -2.5163 0.4797 -0.3592
vt 0.7951 0.9541
vn -0.9978 0.0517 0.0417
v -2.5240 0.4687 -0.5367
vt 0.8108 0.9612
vn -0.9978 0.0517 0.0417
v -2.5522 -0.0717 -0.5349
vt 0.8108 0.9612
vn -0.9978 0.0517 0.0417
v -2.5418 -0.0717 -0.2921
vt 0.7951 0.9541
vn -0.9978 0.0517 0.0417
f 465/465/465 466/466/466 467/467/467 468/468/468
v -2.3573 0.4706 -0.5992
vt 0.8289 0.9541
vn 0.7788 0.0708 -0.6232
v -2.2466 0.4828 -0.4603
vt 0.8166 0.9612
vn 0.7788 0.0708 -0.6232
v -2.1729 -0.0717 -0.4304
vt 0.8166 0.9612
vn 0.7788 0.0708 -0.6232
v -2.3243 -0.0717 -0.6204
vt 0.8289 0.9541
vn 0.7788 0.0708 -0.6232
f 469/469/469 470/470/470 471/471/471 472/472/472
v -2.8499 1.0842 -0.1465
vt 0.1701 0.3291
vn -0.9622 0.2713 0.0246
v -2.4660 2.4845 -0.5754
vt 0.1830 0.4092
vn -0.9622 0.2713 0.0246
v -2.8778 1.0440 -0.7932
vt 0.1959 0.3291
vn -0.9622 0.2713 0.0246
f 473/473/473 474/474/474 475/475/475
v 2.6833 1.4357 0.3051
vt 0.1959 0.3291
vn 0.5708 0.3370 0.7487
v 2.2986 1.4408 0.5961
vt 0.2025 0.3330
vn 0.5708 0.3370 0.7487
v 2.2614 0.4937 1.0507
vt 0.2039 0.3291
vn 0.5708 0.3370 0.7487
v 3.1149 0.4825 0.4050
vt 0.1959 0.3291
vn 0.5708 0.3370 0.7487
f 476/476/476 477/477/477 478/478/478 479/479/479
v 2.2986 1.4408 0.5961
vt 0.2039 0.3291
vn -0.5046 0.3896 0.7704
v 1.9038 1.4738 0.3208
vt 0.1877 0.3330
vn -0.5046 0.3896 0.7704
v 1.3856 0.5671 0.4399
vt 0.1830 0.3291
vn -0.5046 0.3896 0.7704
v 2.2614 0.4937 1.0507
vt 0.2039 0.3291
vn -0.5046 0.3896 0.7704
f 480/480/480 481/481/481 482/482/482 483/483/483
v 1.9038 1.4738 0.3208
vt 0.1830 0.3291
vn -0.8551 0.4564 -0.2457
v 2.0445 1.4892 -0.1404
vt 0.1664 0.3330
vn -0.8551 0.4564 -0.2457
v 1.6978 0.6012 -0.5832
vt 0.1621 0.3291
vn -0.8551 0.4564 -0.2457
v 1.3856 0.5671 0.4399
vt 0.1830 0.3291
vn -0.8551 0.4564 -0.2457
f 484/484/484 485/485/485 486/486/486 487/487/487
v 2.0445 1.4892 -0.1404
vt 0.1621 0.3291
vn 0.0037 0.4451 -0.8955
v 2.5263 1.4656 -0.1501
vt 0.1681 0.3330
vn 0.0037 0.4451 -0.8955
v 2.7666 0.5489 -0.6048
vt 0.1701 0.3291
vn 0.0037 0.4451 -0.8955
v 1.6978 0.6012 -0.5832
vt 0.1621 0.3291
vn 0.0037 0.4451 -0.8955
f 488/488/488 489/489/489 490/490/490 491/491/491
v 2.9738 1.3730 0.3916
vt 0.1959 0.3291
vn -0.1847 -0.9787 -0.0890
v 2.6833 1.4357 0.3051
vt 0.1904 0.3330
vn -0.1847 -0.9787 -0.0890
v 2.5263 1.4656 -0.1501
vt 0.1701 0.3291
vn -0.1305 -0.9891 0.0683
v 2.6996 1.4253 -0.4034
vt 0.1701 0.3291
vn -0.1305 -0.9891 0.0683
f 492/492/492 493/493/493 494/494/494 495/495/495
v 2.3803 3.2447 0.2729
vt 0.1830 0.4092
vn 0.5883 0.2356 0.7736
v 2.3018 1.3819 0.9000
vt 0.2039 0.3291
vn 0.5883 0.2356 0.7736
v 2.9738 1.3730 0.3916
vt 0.1959 0.3291
vn 0.5883 0.2356 0.7736
f 496/496/496 497/497/497 498/498/498
v 2.3803 3.2447 0.2729
vt 0.1830 0.4092
vn -0.5309 0.2904 0.7961
v 1.6123 1.4396 0.4191
vt 0.1830 0.3291
vn -0.5309 0.2904 0.7961
v 2.3018 1.3819 0.9000
vt 0.2039 0.3291
vn -0.5309 0.2904 0.7961
f 499/499/499 500/500/500 501/501/501
v 2.3803 3.2447 0.2729
vt 0.1830 0.4092
vn -0.8956 0.3599 -0.2613
v 1.8581 1.4665 -0.3864
vt 0.1621 0.3291
vn -0.8956 0.3599 -0.2613
v 1.6123 1.4396 0.4191
vt 0.1830 0.3291
vn -0.8956 0.3599 -0.2613
f 502/502/502 503/503/503 504/504/504
v 2.3803 3.2447 0.2729
vt 0.1830 0.4092
vn -0.0019 0.3481 -0.9374
v 2.6996 1.4253 -0.4034
vt 0.1701 0.3291
vn -0.0019 0.3481 -0.9374
v 1.8581 1.4665 -0.3864
vt 0.1621 0.3291
vn -0.0019 0.3481 -0.9374
f 505/505/505 506/506/506 507/507/507
v 2.5263 1.4656 -0.1501
vt 0.1701 0.3291
vn 0.8850 0.3713 -0.2809
v 2.6833 1.4357 0.3051
vt 0.1904 0.3330
vn 0.8850 0.3713 -0.2809
v 3.1149 0.4825 0.4050
vt 0.1959 0.3291
vn 0.8850 0.3713 -0.2809
v 2.7666 0.5489 -0.6048
vt 0.1701 0.3291
vn 0.8850 0.3713 -0.2809
f 508/508/508 509/509/509 510/510/510 511/511/511
v 1.8581 1.4665 -0.3864
vt 0.1621 0.3291
vn 0.0360 -0.9972 0.0649
v 2.6996 1.4253 -0.4034
vt 0.1701 0.3291
vn -0.1305 -0.9891 0.0683
v 2.5263 1.4656 -0.1501
vt 0.1681 0.3330
vn -0.1305 -0.9891 0.0683
v 2.0445 1.4892 -0.1404
vt 0.1621 0.3291
vn 0.0360 -0.9972 0.0649
f 512/512/512 513/513/513 514/514/514 515/515/515
v 2.9738 1.3730 0.3916
vt 0.1959 0.3291
vn -0.1847 -0.9787 -0.0890
v 2.3018 1.3819 0.9000
vt 0.2039 0.3291
vn -0.0518 -0.9805 -0.1896
v 2.2986 1.4408 0.5961
vt 0.2025 0.3330
vn -0.0518 -0.9805 -0.1896
v 2.6833 1.4357 0.3051
vt 0.1959 0.3291
vn -0.1847 -0.9787 -0.0890
f 516/516/516 517/517/517 518/518/518 519/519/519
v 2.3018 1.3819 0.9000
vt 0.2039 0.3291
vn -0.0518 -0.9805 -0.1896
v 1.6123 1.4396 0.4191
vt 0.1830 0.3291
vn 0.0846 -0.9919 -0.0944
v 1.9038 1.4738 0.3208
vt 0.1877 0.3330
vn 0.0846 -0.9919 -0.0944
v 2.2986 1.4408 0.5961
vt 0.2039 0.3291
vn -0.0518 -0.9805 -0.1896
f 520/520/520 521/521/521 522/522/522 523/523/523
v 1.6123 1.4396 0.4191
vt 0.1830 0.3291
vn 0.0846 -0.9919 -0.0944
v 1.8581 1.4665 -0.3864
vt 0.1621 0.3291
vn 0.0360 -0.9972 0.0649
v 2.0445 1.4892 -0.1404
vt 0.1664 0.3330
vn 0.0360 -0.9972 0.0649
v 1.9038 1.4738 0.3208
vt 0.1830 0.3291
vn 0.0846 -0.9919 -0.0944
f 524/524/524 525/525/525 526/526/526 527/527/527
v 1.6978 0.6012 -0.5832
vt 0.1621 0.3291
vn 0.0335 -0.9975 0.0616
v 2.7666 0.5489 -0.6048
vt 0.1701 0.3291
vn -0.1281 -0.9896 0.0649
v 2.3629 0.6399 -0.0150
vt 0.1664 0.3362
vn -0.1281 -0.9896 0.0649
v 2.1318 0.6512 -0.0104
vt 0.1621 0.3291
vn 0.0335 -0.9975 0.0616
f 528/528/528 529/529/529 530/530/530 531/531/531
v 3.1149 0.4825 0.4050
vt 0.1959 0.3291
vn -0.1808 -0.9796 -0.0878
v 2.2614 0.4937 1.0507
vt 0.2039 0.3291
vn -0.0518 -0.9813 -0.1855
v 2.2537 0.6279 0.3429
vt 0.2014 0.3362
vn -0.0518 -0.9813 -0.1855
v 2.4382 0.6255 0.2033
vt 0.1959 0.3291
vn -0.1808 -0.9796 -0.0878
f 532/532/532 533/533/533 534/534/534 535/535/535
v 2.2614 0.4937 1.0507
vt 0.2039 0.3291
vn -0.0518 -0.9813 -0.1855
v 1.3856 0.5671 0.4399
vt 0.1830 0.3291
vn 0.0807 -0.9924 -0.0931
v 2.0644 0.6438 0.2108
vt 0.1916 0.3362
vn 0.0807 -0.9924 -0.0931
v 2.2537 0.6279 0.3429
vt 0.2039 0.3291
vn -0.0518 -0.9813 -0.1855
f 536/536/536 537/537/537 538/538/538 539/539/539
v 1.3856 0.5671 0.4399
vt 0.1830 0.3291
vn 0.0807 -0.9924 -0.0931
v 1.6978 0.6012 -0.5832
vt 0.1621 0.3291
vn 0.0335 -0.9975 0.0616
v 2.1318 0.6512 -0.0104
vt 0.1699 0.3362
vn 0.0335 -0.9975 0.0616
v 2.0644 0.6438 0.2108
vt 0.1830 0.3291
vn 0.0807 -0.9924 -0.0931
f 540/540/540 541/541/541 542/542/542 543/543/543
v 2.4382 0.6255 0.2033
vt 0.8209 0.9541
vn 0.6033 0.0153 0.7974
v 2.2537 0.6279 0.3429
vt 0.8264 0.9612
vn 0.6033 0.0153 0.7974
v 2.2204 -0.0717 0.3814
vt 0.8264 0.9612
vn 0.6033 0.0153 0.7974
v 2.4727 -0.0717 0.1906
vt 0.8209 0.9541
vn 0.6033 0.0153 0.7974
f 544/544/544 545/545/545 546/546/546 547/547/547
v 2.7666 0.5489 -0.6048
vt 0.1701 0.3291
vn -0.1281 -0.9896 0.0649
v 3.1149 0.4825 0.4050
vt 0.1959 0.3291
vn -0.1808 -0.9796 -0.0878
v 2.4382 0.6255 0.2033
vt 0.1858 0.3362
vn -0.1808 -0.9796 -0.0878
v 2.3629 0.6399 -0.0150
vt 0.1701 0.3291
vn -0.1281 -0.9896 0.0649
f 548/548/548 549/549/549 550/550/550 551/551/551
v 2.1318 0.6512 -0.0104
vt 0.7871 0.9541
vn -0.0174 0.1281 -0.9916
v 2.3629 0.6399 -0.0150
vt 0.7914 0.9612
vn -0.0174 0.1281 -0.9916
v 2.3697 -0.0717 -0.1079
vt 0.7914 0.9612
vn -0.0174 0.1281 -0.9916
v 2.0538 -0.0717 -0.1016
vt 0.7871 0.9541
vn -0.0174 0.1281 -0.9916
f 552/552/552 553/553/553 554/554/554 555/555/555
v 2.0644 0.6438 0.2108
vt 0.8080 0.9541
vn -0.9477 0.1394 -0.2872
v 2.1318 0.6512 -0.0104
vt 0.7949 0.9612
vn -0.9477 0.1394 -0.2872
v 2.0538 -0.0717 -0.1016
vt 0.7949 0.9612
vn -0.9477 0.1394 -0.2872
v 1.9615 -0.0717 0.2009
vt 0.8080 0.9541
vn -0.9477 0.1394 -0.2872
f 556/556/556 557/557/557 558/558/558 559/559/559
v 2.3629 0.6399 -0.0150
vt 0.7951 0.9541
vn 0.9445 0.0520 -0.3244
v 2.4382 0.6255 0.2033
vt 0.8108 0.9612
vn 0.9445 0.0520 -0.3244
v 2.4727 -0.0717 0.1906
vt 0.8108 0.9612
vn 0.9445 0.0520 -0.3244
v 2.3697 -0.0717 -0.1079
vt 0.7951 0.9541
vn 0.9445 0.0520 -0.3244
f 560/560/560 561/561/561 562/562/562 563/563/563
v 2.2537 0.6279 0.3429
vt 0.8289 0.9541
vn -0.5689 0.0713 0.8193
v 2.0644 0.6438 0.2108
vt 0.8166 0.9612
vn -0.5689 0.0713 0.8193
v 1.9615 -0.0717 0.2009
vt 0.8166 0.9612
vn -0.5689 0.0713 0.8193
v 2.2204 -0.0717 0.3814
vt 0.8289 0.9541
vn -0.5689 0.0713 0.8193
f 564/564/564 565/565/565 566/566/566 567/567/567
v 2.6996 1.4253 -0.4034
vt 0.1701 0.3291
vn 0.9152 0.2713 -0.2979
v 2.3803 3.2447 0.2729
vt 0.1830 0.4092
vn 0.9152 0.2713 -0.2979
v 2.9738 1.3730 0.3916
vt 0.1959 0.3291
vn 0.9152 0.2713 -0.2979
f 568/568/568 569/569/569 570/570/570
v 0.4529 1.2670 -2.6864
vt 0.1959 0.3291
vn 0.9077 0.3370 -0.2502
v 0.5650 1.2714 -2.2736
vt 0.2025 0.3330
vn 0.9077 0.3370 -0.2502
v 0.9267 0.4316 -2.0926
vt 0.2039 0.3291
vn 0.9077 0.3370 -0.2502
v 0.6780 0.4216 -3.0085
vt 0.1959 0.3291
vn 0.9077 0.3370 -0.2502
f 571/571/571 572/572/572 573/573/573 574/574/574
v 0.5650 1.2714 -2.2736
vt 0.2039 0.3291
vn 0.5264 0.3896 0.7557
v 0.2079 1.3008 -2.0400
vt 0.1877 0.3330
vn 0.5264 0.3896 0.7557
v 0.1344 0.4967 -1.5742
vt 0.1830 0.3291
vn 0.5264 0.3896 0.7557
v 0.9267 0.4316 -2.0926
vt 0.2039 0.3291
vn 0.5264 0.3896 0.7557
f 575/575/575 576/576/576 577/577/577 578/578/578
v 0.2079 1.3008 -2.0400
vt 0.1830 0.3291
vn -0.5471 0.4564 0.7016
v -0.1249 1.3144 -2.3084
vt 0.1664 0.3330
vn -0.5471 0.4564 0.7016
v -0.6040 0.5269 -2.1697
vt 0.1621 0.3291
vn -0.5471 0.4564 0.7016
v 0.1344 0.4967 -1.5742
vt 0.1830 0.3291
vn -0.5471 0.4564 0.7016
f 579/579/579 580/580/580 581/581/581 582/582/582
v -0.1249 1.3144 -2.3084
vt 0.1621 0.3291
vn -0.8294 0.4451 -0.3376
v 0.0265 1.2935 -2.7079
vt 0.1681 0.3330
vn -0.8294 0.4451 -0.3376
v -0.2681 0.4805 -3.0561
vt 0.1701 0.3291
vn -0.8294 0.4451 -0.3376
v -0.6040 0.5269 -2.1697
vt 0.1621 0.3291
vn -0.8294 0.4451 -0.3376
f 583/583/583 584/584/584 585/585/585 586/586/586
v 0.6203 1.2113 -2.8968
vt 0.1959 0.3291
vn -0.1515 -0.9787 0.1382
v 0.4529 1.2670 -2.6864
vt 0.1904 0.3330
vn -0.1515 -0.9787 0.1382
v 0.0265 1.2935 -2.7079
vt 0.1701 0.3291
vn 0.0147 -0.9891 0.1466
v -0.1246 1.2577 -2.9343
vt 0.1701 0.3291
vn 0.0147 -0.9891 0.1466
f 587/587/587 588/588/588 589/589/589 590/590/590
v 0.3262 2.8712 -2.4478
vt 0.1830 0.4092
vn 0.9372 0.2356 -0.2571
v 0.8162 1.2192 -2.1757
vt 0.2039 0.3291
vn 0.9372 0.2356 -0.2571
v 0.6203 1.2113 -2.8968
vt 0.1959 0.3291
vn 0.9372 0.2356 -0.2571
f 591/591/591 592/592/592 593/593/593
v 0.3262 2.8712 -2.4478
vt 0.1830 0.4092
vn 0.5405 0.2904 0.7897
v 0.1923 1.2704 -1.7675
vt 0.1830 0.3291
vn 0.5405 0.2904 0.7897
v 0.8162 1.2192 -2.1757
vt 0.2039 0.3291
vn 0.5405 0.2904 0.7897
f 594/594/594 595/595/595 596/596/596
v 0.3262 2.8712 -2.4478
vt 0.1830 0.4092
vn -0.5767 0.3599 0.7334
v -0.3891 1.2942 -2.2364
vt 0.1621 0.3291
vn -0.5767 0.3599 0.7334
v 0.1923 1.2704 -1.7675
vt 0.1830 0.3291
vn -0.5767 0.3599 0.7334
f 597/597/597 598/598/598 599/599/599
v 0.3262 2.8712 -2.4478
vt 0.1830 0.4092
vn -0.8704 0.3481 -0.3481
v -0.1246 1.2577 -2.9343
vt 0.1701 0.3291
vn -0.8704 0.3481 -0.3481
v -0.3891 1.2942 -2.2364
vt 0.1621 0.3291
vn -0.8704 0.3481 -0.3481
f 600/600/600 601/601/601 602/602/602
v 0.0265 1.2935 -2.7079
vt 0.1701 0.3291
vn 0.0697 0.3713 -0.9259
v 0.4529 1.2670 -2.6864
vt 0.1904 0.3330
vn 0.0697 0.3713 -0.9259
v 0.6780 0.4216 -3.0085
vt 0.1959 0.3291
vn 0.0697 0.3713 -0.9259
v -0.2681 0.4805 -3.0561
vt 0.1701 0.3291
vn 0.0697 0.3713 -0.9259
f 603/603/603 604/604/604 605/605/605 606/606/606
v -0.3891 1.2942 -2.2364
vt 0.1621 0.3291
vn 0.0737 -0.9972 -0.0091
v -0.1246 1.2577 -2.9343
vt 0.1701 0.3291
vn 0.0147 -0.9891 0.1466
v 0.0265 1.2935 -2.7079
vt 0.1681 0.3330
vn 0.0147 -0.9891 0.1466
v -0.1249 1.3144 -2.3084
vt 0.1621 0.3291
vn 0.0737 -0.9972 -0.0091
f 607/607/607 608/608/608 609/609/609 610/610/610
v 0.6203 1.2113 -2.8968
vt 0.1959 0.3291
vn -0.1515 -0.9787 0.1382
v 0.8162 1.2192 -2.1757
vt 0.2039 0.3291
vn -0.1952 -0.9805 -0.0227
v 0.5650 1.2714 -2.2736
vt 0.2025 0.3330
vn -0.1952 -0.9805 -0.0227
v 0.4529 1.2670 -2.6864
vt 0.1959 0.3291
vn -0.1515 -0.9787 0.1382
f 611/611/611 612/612/612 613/613/613 614/614/614
v 0.8162 1.2192 -2.1757
vt 0.2039 0.3291
vn -0.1952 -0.9805 -0.0227
v 0.1923 1.2704 -1.7675
vt 0.1830 0.3291
vn -0.0560 -0.9919 -0.1137
v 0.2079 1.3008 -2.0400
vt 0.1877 0.3330
vn -0.0560 -0.9919 -0.1137
v 0.5650 1.2714 -2.2736
vt 0.2039 0.3291
vn -0.1952 -0.9805 -0.0227
f 615/615/615 616/616/616 617/617/617 618/618/618
v 0.1923 1.2704 -1.7675
vt 0.1830 0.3291
vn -0.0560 -0.9919 -0.1137
v -0.3891 1.2942 -2.2364
vt 0.1621 0.3291
vn 0.0737 -0.9972 -0.0091
v -0.1249 1.3144 -2.3084
vt 0.1664 0.3330
vn 0.0737 -0.9972 -0.0091
v 0.2079 1.3008 -2.0400
vt 0.1830 0.3291
vn -0.0560 -0.9919 -0.1137
f 619/619/619 620/620/620 621/621/621 622/622/622
v -0.6040 0.5269 -2.1697
vt 0.1621 0.3291
vn 0.0696 -0.9975 -0.0080
v -0.2681 0.4805 -3.0561
vt 0.1701 0.3291
vn 0.0124 -0.9896 0.1431
v 0.0836 0.5612 -2.5288
vt 0.1664 0.3362
vn 0.0124 -0.9896 0.1431
v 0.0109 0.5712 -2.3372
vt 0.1621 0.3291
vn 0.0696 -0.9975 -0.0080
f 623/623/623 624/624/624 625/625/625 626/626/626
v 0.6780 0.4216 -3.0085
vt 0.1959 0.3291
vn -0.1490 -0.9796 0.1350
v 0.9267 0.4316 -2.0926
vt 0.2039 0.3291
vn -0.1914 -0.9813 -0.0212
v 0.3419 0.5506 -2.3205
vt 0.2014 0.3362
vn -0.1914 -0.9813 -0.0212
v 0.2881 0.5484 -2.5185
vt 0.1959 0.3291
vn -0.1490 -0.9796 0.1350
f 627/627/627 628/628/628 629/629/629 630/630/630
v 0.9267 0.4316 -2.0926
vt 0.2039 0.3291
vn -0.1914 -0.9813 -0.0212
v 0.1344 0.4967 -1.5742
vt 0.1830 0.3291
vn -0.0563 -0.9924 -0.1096
v 0.1706 0.5647 -2.2084
vt 0.1916 0.3362
vn -0.0563 -0.9924 -0.1096
v 0.3419 0.5506 -2.3205
vt 0.2039 0.3291
vn -0.1914 -0.9813 -0.0212
f 631/631/631 632/632/632 633/633/633 634/634/634
v 0.1344 0.4967 -1.5742
vt 0.1830 0.3291
vn -0.0563 -0.9924 -0.1096
v -0.6040 0.5269 -2.1697
vt 0.1621 0.3291
vn 0.0696 -0.9975 -0.0080
v 0.0109 0.5712 -2.3372
vt 0.1699 0.3362
vn 0.0696 -0.9975 -0.0080
v 0.1706 0.5647 -2.2084
vt 0.1830 0.3291
vn -0.0563 -0.9924 -0.1096
f 635/635/635 636/636/636 637/637/637 638/638/638
v 0.2881 0.5484 -2.5185
vt 0.8209 0.9541
vn 0.9649 0.0152 -0.2621
v 0.3419 0.5506 -2.3205
vt 0.8264 0.9612
vn 0.9649 0.0152 -0.2621
v 0.3626 -0.0717 -2.2803
vt 0.8264 0.9612
vn 0.9649 0.0152 -0.2621
v 0.2890 -0.0717 -2.5511
vt 0.8209 0.9541
vn 0.9649 0.0152 -0.2621
f 639/639/639 640/640/640 641/641/641 642/642/642
v -0.2681 0.4805 -3.0561
vt 0.1701 0.3291
vn 0.0124 -0.9896 0.1431
v 0.6780 0.4216 -3.0085
vt 0.1959 0.3291
vn -0.1490 -0.9796 0.1350
v 0.2881 0.5484 -2.5185
vt 0.1858 0.3362
vn -0.1490 -0.9796 0.1350
v 0.0836 0.5612 -2.5288
vt 0.1701 0.3291
vn 0.0124 -0.9896 0.1431
f 643/643/643 644/644/644 645/645/645 646/646/646
v 0.0109 0.5712 -2.3372
vt 0.7871 0.9541
vn -0.9265 0.1278 -0.3540
v 0.0836 0.5612 -2.5288
vt 0.7914 0.9612
vn -0.9265 0.1278 -0.3540
v 0.0094 -0.0717 -2.5652
vt 0.7914 0.9612
vn -0.9265 0.1278 -0.3540
v -0.0899 -0.0717 -2.3031
vt 0.7871 0.9541
vn -0.9265 0.1278 -0.3540
f 647/647/647 648/648/648 649/649/649 650/650/650
v 0.1706 0.5647 -2.2084
vt 0.8080 0.9541
vn -0.6202 0.1390 0.7720
v 0.0109 0.5712 -2.3372
vt 0.7949 0.9612
vn -0.6202 0.1390 0.7720
v -0.0899 -0.0717 -2.3031
vt 0.7949 0.9612
vn -0.6202 0.1390 0.7720
v 0.1283 -0.0717 -2.1271
vt 0.8080 0.9541
vn -0.6202 0.1390 0.7720
f 651/651/651 652/652/652 653/653/653 654/654/654
v 0.0836 0.5612 -2.5288
vt 0.7951 0.9541
vn 0.0516 0.0519 -0.9973
v 0.2881 0.5484 -2.5185
vt 0.8108 0.9612
vn 0.0516 0.0519 -0.9973
v 0.2890 -0.0717 -2.5511
vt 0.8108 0.9612
vn 0.0516 0.0519 -0.9973
v 0.0094 -0.0717 -2.5652
vt 0.7951 0.9541
vn 0.0516 0.0519 -0.9973
f 655/655/655 656/656/656 657/657/657 658/658/658
v 0.3419 0.5506 -2.3205
vt 0.8289 0.9541
vn 0.5478 0.0711 0.8336
v 0.1706 0.5647 -2.2084
vt 0.8166 0.9612
vn 0.5478 0.0711 0.8336
v 0.1283 -0.0717 -2.1271
vt 0.8166 0.9612
vn 0.5478 0.0711 0.8336
v 0.3626 -0.0717 -2.2803
vt 0.8289 0.9541
vn 0.5478 0.0711 0.8336
f 659/659/659 660/660/660 661/661/661 662/662/662
v -0.1246 1.2577 -2.9343
vt 0.1701 0.3291
vn 0.0653 0.2713 -0.9603
v 0.3262 2.8712 -2.4478
vt 0.1830 0.4092
vn 0.0653 0.2713 -0.9603
v 0.6203 1.2113 -2.8968
vt 0.1959 0.3291
vn 0.0653 0.2713 -0.9603
f 663/663/663 664/664/664 665/665/665
v -2.6555 1.4357 1.3139
vt 0.1959 0.3291
vn -0.9411 0.3370 0.0270
v -2.6675 1.4408 0.8317
vt 0.2025 0.3330
vn -0.9411 0.3370 0.0270
v -3.0151 0.4937 0.5364
vt 0.2039 0.3291
vn -0.9411 0.3370 0.0270
v -2.9884 0.4825 1.6062
vt 0.1959 0.3291
vn -0.9411 0.3370 0.0270
f 666/666/666 667/667/667 668/668/668 669/669/669
v -2.6675 1.4408 0.8317
vt 0.2039 0.3291
vn -0.3315 0.3896 -0.8593
v -2.2137 1.4738 0.6716
vt 0.1877 0.3330
vn -0.3315 0.3896 -0.8593
v -2.0082 0.5671 0.1812
vt 0.1830 0.3291
vn -0.3315 0.3896 -0.8593
v -3.0151 0.4937 0.5364
vt 0.2039 0.3291
vn -0.3315 0.3896 -0.8593
f 670/670/670 671/671/671 672/672/672 673/673/673
v -2.2137 1.4738 0.6716
vt 0.1830 0.3291
vn 0.6984 0.4564 -0.5513
v -1.9211 1.4892 1.0549
vt 0.1664 0.3330
vn 0.6984 0.4564 -0.5513
v -1.3592 0.6012 1.0316
vt 0.1621 0.3291
vn 0.6984 0.4564 -0.5513
v -2.0082 0.5671 0.1812
vt 0.1830 0.3291
vn 0.6984 0.4564 -0.5513
f 674/674/674 675/675/675 676/676/676 677/677/677
v -1.9211 1.4892 1.0549
vt 0.1621 0.3291
vn 0.7252 0.4451 0.5253
v -2.1942 1.4656 1.4519
vt 0.1681 0.3330
vn 0.7252 0.4451 0.5253
v -1.9650 0.5489 1.9123
vt 0.1701 0.3291
vn 0.7252 0.4451 0.5253
v -1.3592 0.6012 1.0316
vt 0.1621 0.3291
vn 0.7252 0.4451 0.5253
f 678/678/678 679/679/679 680/680/680 681/681/681
v -2.8953 1.3730 1.4995
vt 0.1959 0.3291
vn 0.1800 -0.9787 -0.0982
v -2.6555 1.4357 1.3139
vt 0.1904 0.3330
vn 0.1800 -0.9787 -0.0982
v -2.1942 1.4656 1.4519
vt 0.1701 0.3291
vn 0.0206 -0.9891 -0.1458
v -2.0895 1.4253 1.7404
vt 0.1701 0.3291
vn 0.0206 -0.9891 -0.1458
f 682/682/682 683/683/683 684/684/684 685/685/685
v -2.4527 3.2447 1.0866
vt 0.1830 0.4092
vn -0.9715 0.2356 0.0267
v -2.9163 1.3819 0.6571
vt 0.2039 0.3291
vn -0.9715 0.2356 0.0267
v -2.8953 1.3730 1.4995
vt 0.1959 0.3291
vn -0.9715 0.2356 0.0267
f 686/686/686 687/687/687 688/688/688
v -2.4527 3.2447 1.0866
vt 0.1830 0.4092
vn -0.3371 0.2904 -0.8956
v -2.1235 1.4396 0.3774
vt 0.1830 0.3291
vn -0.3371 0.2904 -0.8956
v -2.9163 1.3819 0.6571
vt 0.2039 0.3291
vn -0.3371 0.2904 -0.8956
f 689/689/689 690/690/690 691/691/691
v -2.4527 3.2447 1.0866
vt 0.1830 0.4092
vn 0.7346 0.3599 -0.5751
v -1.6125 1.4665 1.0470
vt 0.1621 0.3291
vn 0.7346 0.3599 -0.5751
v -2.1235 1.4396 0.3774
vt 0.1830 0.3291
vn 0.7346 0.3599 -0.5751
f 692/692/692 693/693/693 694/694/694
v -2.4527 3.2447 1.0866
vt 0.1830 0.4092
vn 0.7626 0.3481 0.5452
v -2.0895 1.4253 1.7404
vt 0.1701 0.3291
vn 0.7626 0.3481 0.5452
v -1.6125 1.4665 1.0470
vt 0.1621 0.3291
vn 0.7626 0.3481 0.5452
f 695/695/695 696/696/696 697/697/697
v -2.1942 1.4656 1.4519
vt 0.1701 0.3291
vn -0.2881 0.3713 0.8827
v -2.6555 1.4357 1.3139
vt 0.1904 0.3330
vn -0.2881 0.3713 0.8827
v -2.9884 0.4825 1.6062
vt 0.1959 0.3291
vn -0.2881 0.3713 0.8827
v -1.9650 0.5489 1.9123
vt 0.1701 0.3291
vn -0.2881 0.3713 0.8827
f 698/698/698 699/699/699 700/700/700 701/701/701
v -1.6125 1.4665 1.0470
vt 0.1621 0.3291
vn -0.0737 -0.9972 -0.0086
v -2.0895 1.4253 1.7404
vt 0.1701 0.3291
vn 0.0206 -0.9891 -0.1458
v -2.1942 1.4656 1.4519
vt 0.1681 0.3330
vn 0.0206 -0.9891 -0.1458
v -1.9211 1.4892 1.0549
vt 0.1621 0.3291
vn -0.0737 -0.9972 -0.0086
f 702/702/702 703/703/703 704/704/704 705/705/705
v -2.8953 1.3730 1.4995
vt 0.1959 0.3291
vn 0.1800 -0.9787 -0.0982
v -2.9163 1.3819 0.6571
vt 0.2039 0.3291
vn 0.1842 -0.9805 0.0685
v -2.6675 1.4408 0.8317
vt 0.2025 0.3330
vn 0.1842 -0.9805 0.0685
v -2.6555 1.4357 1.3139
vt 0.1959 0.3291
vn 0.1800 -0.9787 -0.0982
f 706/706/706 707/707/707 708/708/708 709/709/709
v -2.9163 1.3819 0.6571
vt 0.2039 0.3291
vn 0.1842 -0.9805 0.0685
v -2.1235 1.4396 0.3774
vt 0.1830 0.3291
vn 0.0274 -0.9919 0.1238
v -2.2137 1.4738 0.6716
vt 0.1877 0.3330
vn 0.0274 -0.9919 0.1238
v -2.6675 1.4408 0.8317
vt 0.2039 0.3291
vn 0.1842 -0.9805 0.0685
f 710/710/710 711/711/711 712/712/712 713/713/713
v -2.1235 1.4396 0.3774
vt 0.1830 0.3291
vn 0.0274 -0.9919 0.1238
v -1.6125 1.4665 1.0470
vt 0.1621 0.3291
vn -0.0737 -0.9972 -0.0086
v -1.9211 1.4892 1.0549
vt 0.1664 0.3330
vn -0.0737 -0.9972 -0.0086
v -2.2137 1.4738 0.6716
vt 0.1830 0.3291
vn 0.0274 -0.9919 0.1238
f 714/714/714 715/715/715 716/716/716 717/717/717
v -1.3592 0.6012 1.0316
vt 0.1621 0.3291
vn -0.0696 -0.9975 -0.0088
v -1.9650 0.5489 1.9123
vt 0.1701 0.3291
vn 0.0220 -0.9896 -0.1419
v -2.2086 0.6399 1.2404
vt 0.1664 0.3362
vn 0.0220 -0.9896 -0.1419
v -2.0777 0.6512 1.0500
vt 0.1621 0.3291
vn -0.0696 -0.9975 -0.0088
f 718/718/718 719/719/719 720/720/720 721/721/721
v -2.9884 0.4825 1.6062
vt 0.1959 0.3291
vn 0.1768 -0.9796 -0.0957
v -3.0151 0.4937 0.5364
vt 0.2039 0.3291
vn 0.1808 -0.9813 0.0661
v -2.4357 0.6279 0.9429
vt 0.2014 0.3362
vn 0.1808 -0.9813 0.0661
v -2.4299 0.6255 1.1742
vt 0.1959 0.3291
vn 0.1768 -0.9796 -0.0957
f 722/722/722 723/723/723 724/724/724 725/725/725
v -3.0151 0.4937 0.5364
vt 0.2039 0.3291
vn 0.1808 -0.9813 0.0661
v -2.0082 0.5671 0.1812
vt 0.1830 0.3291
vn 0.0286 -0.9924 0.1198
v -2.2180 0.6438 0.8662
vt 0.1916 0.3362
vn 0.0286 -0.9924 0.1198
v -2.4357 0.6279 0.9429
vt 0.2039 0.3291
vn 0.1808 -0.9813 0.0661
f 726/726/726 727/727/727 728/728/728 729/729/729
v -2.0082 0.5671 0.1812
vt 0.1830 0.3291
vn 0.0286 -0.9924 0.1198
v -1.3592 0.6012 1.0316
vt 0.1621 0.3291
vn -0.0696 -0.9975 -0.0088
v -2.0777 0.6512 1.0500
vt 0.1699 0.3362
vn -0.0696 -0.9975 -0.0088
v -2.2180 0.6438 0.8662
vt 0.1830 0.3291
vn 0.0286 -0.9924 0.1198
f 730/730/730 731/731/731 732/732/732 733/733/733
v -2.4299 0.6255 1.1742
vt 0.8209 0.9541
vn -0.9996 0.0153 0.0250
v -2.4357 0.6279 0.9429
vt 0.8264 0.9612
vn -0.9996 0.0153 0.0250
v -2.4476 -0.0717 0.8934
vt 0.8264 0.9612
vn -0.9996 0.0153 0.0250
v -2.4397 -0.0717 1.2097
vt 0.8209 0.9541
vn -0.9996 0.0153 0.0250
f 734/734/734 735/735/735 736/736/736 737/737/737
v -1.9650 0.5489 1.9123
vt 0.1701 0.3291
vn 0.0220 -0.9896 -0.1419
v -2.9884 0.4825 1.6062
vt 0.1959 0.3291
vn 0.1768 -0.9796 -0.0957
v -2.4299 0.6255 1.1742
vt 0.1858 0.3362
vn 0.1768 -0.9796 -0.0957
v -2.2086 0.6399 1.2404
vt 0.1701 0.3291
vn 0.0220 -0.9896 -0.1419
f 738/738/738 739/739/739 740/740/740 741/741/741
v -2.0777 0.6512 1.0500
vt 0.7871 0.9541
vn 0.8156 0.1281 0.5642
v -2.2086 0.6399 1.2404
vt 0.7914 0.9612
vn 0.8156 0.1281 0.5642
v -2.1372 -0.0717 1.3001
vt 0.7914 0.9612
vn 0.8156 0.1281 0.5642
v -1.9581 -0.0717 1.0398
vt 0.7871 0.9541
vn 0.8156 0.1281 0.5642
f 742/742/742 743/743/743 744/744/744 745/745/745
v -2.2180 0.6438 0.8662
vt 0.8080 0.9541
vn 0.7860 0.1394 -0.6023
v -2.0777 0.6512 1.0500
vt 0.7949 0.9612
vn 0.7860 0.1394 -0.6023
v -1.9581 -0.0717 1.0398
vt 0.7949 0.9612
vn 0.7860 0.1394 -0.6023
v -2.1499 -0.0717 0.7884
vt 0.8080 0.9541
vn 0.7860 0.1394 -0.6023
f 746/746/746 747/747/747 748/748/748 749/749/749
v -2.2086 0.6399 1.2404
vt 0.7951 0.9541
vn -0.2874 0.0520 0.9564
v -2.4299 0.6255 1.1742
vt 0.8108 0.9612
vn -0.2874 0.0520 0.9564
v -2.4397 -0.0717 1.2097
vt 0.8108 0.9612
vn -0.2874 0.0520 0.9564
v -2.1372 -0.0717 1.3001
vt 0.7951 0.9541
vn -0.2874 0.0520 0.9564
f 750/750/750 751/751/751 752/752/752 753/753/753
v -2.4357 0.6279 0.9429
vt 0.8289 0.9541
vn -0.3338 0.0713 -0.9400
v -2.2180 0.6438 0.8662
vt 0.8166 0.9612
vn -0.3338 0.0713 -0.9400
v -2.1499 -0.0717 0.7884
vt 0.8166 0.9612
vn -0.3338 0.0713 -0.9400
v -2.4476 -0.0717 0.8934
vt 0.8289 0.9541
vn -0.3338 0.0713 -0.9400
f 754/754/754 755/755/755 756/756/756 757/757/757
v -2.0895 1.4253 1.7404
vt 0.1701 0.3291
vn -0.2919 0.2713 0.9172
v -2.4527 3.2447 1.0866
vt 0.1830 0.4092
vn -0.2919 0.2713 0.9172
v -2.8953 1.3730 1.4995
vt 0.1959 0.3291
vn -0.2919 0.2713 0.9172
f 758/758/758 759/759/759 760/760/760
v 0.3720 1.3166 2.8924
vt 0.1959 0.3291
vn -0.4660 0.3370 0.8181
v -0.0129 1.3213 2.6712
vt 0.2025 0.3330
vn -0.4660 0.3370 0.8181
v -0.4112 0.4499 2.8032
vt 0.2039 0.3291
vn -0.4660 0.3370 0.8181
v 0.4425 0.4396 3.2939
vt 0.1959 0.3291
vn -0.4660 0.3370 0.8181
f 761/761/761 762/762/762 763/763/763 764/764/764
v -0.0129 1.3213 2.6712
vt 0.2039 0.3291
vn -0.9064 0.3896 -0.1634
v 0.0783 1.3517 2.2379
vt 0.1877 0.3330
vn -0.9064 0.3896 -0.1634
v -0.2089 0.5174 1.8419
vt 0.1830 0.3291
vn -0.9064 0.3896 -0.1634
v -0.4112 0.4499 2.8032
vt 0.2039 0.3291
vn -0.9064 0.3896 -0.1634
f 765/765/765 766/766/766 767/767/767 768/768/768
v 0.0783 1.3517 2.2379
vt 0.1830 0.3291
vn -0.1080 0.4564 -0.8832
v 0.5195 1.3658 2.1913
vt 0.1664 0.3330
vn -0.1080 0.4564 -0.8832
v 0.7699 0.5488 1.7383
vt 0.1621 0.3291
vn -0.1080 0.4564 -0.8832
v -0.2089 0.5174 1.8419
vt 0.1830 0.3291
vn -0.1080 0.4564 -0.8832
f 769/769/769 770/770/770 771/771/771 772/772/772
v 0.5195 1.3658 2.1913
vt 0.1621 0.3291
vn 0.8257 0.4451 -0.3466
v 0.7010 1.3442 2.5957
vt 0.1681 0.3330
vn 0.8257 0.4451 -0.3466
v 1.1725 0.5007 2.6357
vt 0.1701 0.3291
vn 0.8257 0.4451 -0.3466
v 0.7699 0.5488 1.7383
vt 0.1621 0.3291
vn 0.8257 0.4451 -0.3466
f 773/773/773 774/774/774 775/775/775 776/776/776
v 0.4031 1.2589 3.1696
vt 0.1959 0.3291
vn 0.0097 -0.9787 -0.2048
v 0.3720 1.3166 2.8924
vt 0.1904 0.3330
vn 0.0097 -0.9787 -0.2048
v 0.7010 1.3442 2.5957
vt 0.1701 0.3291
vn -0.1139 -0.9891 -0.0934
v 0.9779 1.3070 2.6514
vt 0.1701 0.3291
vn -0.1139 -0.9891 -0.0934
f 777/777/777 778/778/778 779/779/779 780/780/780
v 0.2903 2.9811 2.6243
vt 0.1830 0.4092
vn -0.4821 0.2356 0.8439
v -0.2691 1.2671 2.7833
vt 0.2039 0.3291
vn -0.4821 0.2356 0.8439
v 0.4031 1.2589 3.1696
vt 0.1959 0.3291
vn -0.4821 0.2356 0.8439
f 781/781/781 782/782/782 783/783/783
v 0.2903 2.9811 2.6243
vt 0.1830 0.4092
vn -0.9403 0.2904 -0.1775
v -0.1098 1.3202 2.0264
vt 0.1830 0.3291
vn -0.9403 0.2904 -0.1775
v -0.2691 1.2671 2.7833
vt 0.2039 0.3291
vn -0.9403 0.2904 -0.1775
f 784/784/784 785/785/785 786/786/786
v 0.2903 2.9811 2.6243
vt 0.1830 0.4092
vn -0.1095 0.3599 -0.9265
v 0.6609 1.3449 1.9448
vt 0.1621 0.3291
vn -0.1095 0.3599 -0.9265
v -0.1098 1.3202 2.0264
vt 0.1830 0.3291
vn -0.1095 0.3599 -0.9265
f 787/787/787 788/788/788 789/789/789
v 0.2903 2.9811 2.6243
vt 0.1830 0.4092
vn 0.8621 0.3481 -0.3681
v 0.9779 1.3070 2.6514
vt 0.1701 0.3291
vn 0.8621 0.3481 -0.3681
v 0.6609 1.3449 1.9448
vt 0.1621 0.3291
vn 0.8621 0.3481 -0.3681
f 790/790/790 791/791/791 792/792/792
v 0.7010 1.3442 2.5957
vt 0.1701 0.3291
vn 0.6044 0.3713 0.7048
v 0.3720 1.3166 2.8924
vt 0.1904 0.3330
vn 0.6044 0.3713 0.7048
v 0.4425 0.4396 3.2939
vt 0.1959 0.3291
vn 0.6044 0.3713 0.7048
v 1.1725 0.5007 2.6357
vt 0.1701 0.3291
vn 0.6044 0.3713 0.7048
f 793/793/793 794/794/794 795/795/795 796/796/796
v 0.6609 1.3449 1.9448
vt 0.1621 0.3291
vn -0.0457 -0.9972 0.0585
v 0.9779 1.3070 2.6514
vt 0.1701 0.3291
vn -0.1139 -0.9891 -0.0934
v 0.7010 1.3442 2.5957
vt 0.1681 0.3330
vn -0.1139 -0.9891 -0.0934
v 0.5195 1.3658 2.1913
vt 0.1621 0.3291
vn -0.0457 -0.9972 0.0585
f 797/797/797 798/798/798 799/799/799 800/800/800
v 0.4031 1.2589 3.1696
vt 0.1959 0.3291
vn 0.0097 -0.9787 -0.2048
v -0.2691 1.2671 2.7833
vt 0.2039 0.3291
vn 0.1542 -0.9805 -0.1218
v -0.0129 1.3213 2.6712
vt 0.2025 0.3330
vn 0.1542 -0.9805 -0.1218
v 0.3720 1.3166 2.8924
vt 0.1959 0.3291
vn 0.0097 -0.9787 -0.2048
f 801/801/801 802/802/802 803/803/803 804/804/804
v -0.2691 1.2671 2.7833
vt 0.2039 0.3291
vn 0.1542 -0.9805 -0.1218
v -0.1098 1.3202 2.0264
vt 0.1830 0.3291
vn 0.1200 -0.9919 0.0410
v 0.0783 1.3517 2.2379
vt 0.1877 0.3330
vn 0.1200 -0.9919 0.0410
v -0.0129 1.3213 2.6712
vt 0.2039 0.3291
vn 0.1542 -0.9805 -0.1218
f 805/805/805 806/806/806 807/807/807 808/808/808
v -0.1098 1.3202 2.0264
vt 0.1830 0.3291
vn 0.1200 -0.9919 0.0410
v 0.6609 1.3449 1.9448
vt 0.1621 0.3291
vn -0.0457 -0.9972 0.0585
v 0.5195 1.3658 2.1913
vt 0.1664 0.3330
vn -0.0457 -0.9972 0.0585
v 0.0783 1.3517 2.2379
vt 0.1830 0.3291
vn 0.1200 -0.9919 0.0410
f 809/809/809 810/810/810 811/811/811 812/812/812
v 0.7699 0.5488 1.7383
vt 0.1621 0.3291
vn -0.0436 -0.9975 0.0549
v 1.1725 0.5007 2.6357
vt 0.1701 0.3291
vn -0.1098 -0.9896 -0.0926
v 0.5278 0.5843 2.5060
vt 0.1664 0.3362
vn -0.1098 -0.9896 -0.0926
v 0.4408 0.5947 2.3119
vt 0.1621 0.3291
vn -0.0436 -0.9975 0.0549
f 813/813/813 814/814/814 815/815/815 816/816/816
v 0.4425 0.4396 3.2939
vt 0.1959 0.3291
vn 0.0102 -0.9796 -0.2008
v -0.4112 0.4499 2.8032
vt 0.2039 0.3291
vn 0.1505 -0.9813 -0.1201
v 0.1855 0.5734 2.5422
vt 0.2014 0.3362
vn 0.1505 -0.9813 -0.1201
v 0.3700 0.5711 2.6482
vt 0.1959 0.3291
vn 0.0102 -0.9796 -0.2008
f 817/817/817 818/818/818 819/819/819 820/820/820
v -0.4112 0.4499 2.8032
vt 0.2039 0.3291
vn 0.1505 -0.9813 -0.1201
v -0.2089 0.5174 1.8419
vt 0.1830 0.3291
vn 0.1172 -0.9924 0.0379
v 0.2292 0.5880 2.3343
vt 0.1916 0.3362
vn 0.1172 -0.9924 0.0379
v 0.1855 0.5734 2.5422
vt 0.2039 0.3291
vn 0.1505 -0.9813 -0.1201
f 821/821/821 822/822/822 823/823/823 824/824/824
v -0.2089 0.5174 1.8419
vt 0.1830 0.3291
vn 0.1172 -0.9924 0.0379
v 0.7699 0.5488 1.7383
vt 0.1621 0.3291
vn -0.0436 -0.9975 0.0549
v 0.4408 0.5947 2.3119
vt 0.1699 0.3362
vn -0.0436 -0.9975 0.0549
v 0.2292 0.5880 2.3343
vt 0.1830 0.3291
vn 0.1172 -0.9924 0.0379
f 825/825/825 826/826/826 827/827/827 828/828/828
v 0.3700 0.5711 2.6482
vt 0.8209 0.9541
vn -0.4981 0.0153 0.8670
v 0.1855 0.5734 2.5422
vt 0.8264 0.9612
vn -0.4981 0.0153 0.8670
v 0.1408 -0.0717 2.5278
vt 0.8264 0.9612
vn -0.4981 0.0153 0.8670
v 0.3932 -0.0717 2.6729
vt 0.8209 0.9541
vn -0.4981 0.0153 0.8670
f 829/829/829 830/830/830 831/831/831 832/832/832
v 1.1725 0.5007 2.6357
vt 0.1701 0.3291
vn -0.1098 -0.9896 -0.0926
v 0.4425 0.4396 3.2939
vt 0.1959 0.3291
vn 0.0102 -0.9796 -0.2008
v 0.3700 0.5711 2.6482
vt 0.1858 0.3362
vn 0.0102 -0.9796 -0.2008
v 0.5278 0.5843 2.5060
vt 0.1701 0.3291
vn -0.1098 -0.9896 -0.0926
f 833/833/833 834/834/834 835/835/835 836/836/836
v 0.4408 0.5947 2.3119
vt 0.7871 0.9541
vn 0.9060 0.1279 -0.4036
v 0.5278 0.5843 2.5060
vt 0.7914 0.9612
vn 0.9060 0.1279 -0.4036
v 0.6090 -0.0717 2.4783
vt 0.7914 0.9612
vn 0.9060 0.1279 -0.4036
v 0.4900 -0.0717 2.2130
vt 0.7871 0.9541
vn 0.9060 0.1279 -0.4036
f 837/837/837 838/838/838 839/839/839 840/840/840
v 0.2292 0.5880 2.3343
vt 0.8080 0.9541
vn -0.1060 0.1391 -0.9846
v 0.4408 0.5947 2.3119
vt 0.7949 0.9612
vn -0.1060 0.1391 -0.9846
v 0.4900 -0.0717 2.2130
vt 0.7949 0.9612
vn -0.1060 0.1391 -0.9846
v 0.2006 -0.0717 2.2436
vt 0.8080 0.9541
vn -0.1060 0.1391 -0.9846
f 841/841/841 842/842/842 843/843/843 844/844/844
v 0.5278 0.5843 2.5060
vt 0.7951 0.9541
vn 0.6677 0.0519 0.7426
v 0.3700 0.5711 2.6482
vt 0.8108 0.9612
vn 0.6677 0.0519 0.7426
v 0.3932 -0.0717 2.6729
vt 0.8108 0.9612
vn 0.6677 0.0519 0.7426
v 0.6090 -0.0717 2.4783
vt 0.7951 0.9541
vn 0.6677 0.0519 0.7426
f 845/845/845 846/846/846 847/847/847 848/848/848
v 0.1855 0.5734 2.5422
vt 0.8289 0.9541
vn -0.9765 0.0712 -0.2034
v 0.2292 0.5880 2.3343
vt 0.8166 0.9612
vn -0.9765 0.0712 -0.2034
v 0.2006 -0.0717 2.2436
vt 0.8166 0.9612
vn -0.9765 0.0712 -0.2034
v 0.1408 -0.0717 2.5278
vt 0.8289 0.9541
vn -0.9765 0.0712 -0.2034
f 849/849/849 850/850/850 851/851/851 852/852/852
v 0.9779 1.3070 2.6514
vt 0.1701 0.3291
vn 0.6319 0.2713 0.7260
v 0.2903 2.9811 2.6243
vt 0.1830 0.4092
vn 0.6319 0.2713 0.7260
v 0.4031 1.2589 3.1696
vt 0.1959 0.3291
vn 0.6319 0.2713 0.7260
f 853/853/853 854/854/854 855/855/855
v -0.7446 1.0164 2.0674
vt 0.1959 0.3291
vn 0.6584 0.3370 0.6730
v -0.9934 1.0201 2.3090
vt 0.2025 0.3330
vn 0.6584 0.3370 0.6730
v -0.9798 0.3394 2.6365
vt 0.2039 0.3291
vn 0.6584 0.3370 0.6730
v -0.4279 0.3313 2.1006
vt 0.1959 0.3291
vn 0.6584 0.3370 0.6730
f 856/856/856 857/857/857 858/858/858 859/859/859
v -0.9934 1.0201 2.3090
vt 0.2039 0.3291
vn -0.4062 0.3896 0.8265
v -1.2993 1.0438 2.1474
vt 0.1877 0.3330
vn -0.4062 0.3896 0.8265
v -1.6584 0.3921 2.2781
vt 0.1830 0.3291
vn -0.4062 0.3896 0.8265
v -0.9798 0.3394 2.6365
vt 0.2039 0.3291
vn -0.4062 0.3896 0.8265
f 860/860/860 861/861/861 862/862/862 863/863/863
v -1.2993 1.0438 2.1474
vt 0.1830 0.3291
vn -0.8788 0.4564 -0.1389
v -1.2396 1.0549 1.8061
vt 0.1664 0.3330
vn -0.8788 0.4564 -0.1389
v -1.5260 0.4166 1.5208
vt 0.1621 0.3291
vn -0.8788 0.4564 -0.1389
v -1.6584 0.3921 2.2781
vt 0.1830 0.3291
vn -0.8788 0.4564 -0.1389
f 864/864/864 865/865/865 866/866/866 867/867/867
v -1.2396 1.0549 1.8061
vt 0.1621 0.3291
vn -0.1062 0.4451 -0.8891
v -0.8968 1.0379 1.7566
vt 0.1681 0.3330
vn -0.1062 0.4451 -0.8891
v -0.7655 0.3790 1.4111
vt 0.1701 0.3291
vn -0.1062 0.4451 -0.8891
v -1.5260 0.4166 1.5208
vt 0.1621 0.3291
vn -0.1062 0.4451 -0.8891
f 868/868/868 869/869/869 870/870/870 871/871/871
v -0.5298 0.9713 2.1036
vt 0.1959 0.3291
vn -0.1943 -0.9787 -0.0656
v -0.7446 1.0164 2.0674
vt 0.1904 0.3330
vn -0.1943 -0.9787 -0.0656
v -0.8968 1.0379 1.7566
vt 0.1701 0.3291
vn -0.1211 -0.9891 0.0838
v -0.7955 1.0089 1.5606
vt 0.1701 0.3291
vn -0.1211 -0.9891 0.0838
f 872/872/872 873/873/873 874/874/874 875/875/875
v -0.9636 2.3167 2.0712
vt 0.1830 0.4092
vn 0.6788 0.2356 0.6955
v -0.9642 0.9777 2.5255
vt 0.2039 0.3291
vn 0.6788 0.2356 0.6955
v -0.5298 0.9713 2.1036
vt 0.1959 0.3291
vn 0.6788 0.2356 0.6955
f 876/876/876 877/877/877 878/878/878
v -0.9636 2.3167 2.0712
vt 0.1830 0.4092
vn -0.4291 0.2904 0.8553
v -1.4985 1.0192 2.2433
vt 0.1830 0.3291
vn -0.4291 0.2904 0.8553
v -0.9642 0.9777 2.5255
vt 0.2039 0.3291
vn -0.4291 0.2904 0.8553
f 879/879/879 880/880/880 881/881/881
v -0.9636 2.3167 2.0712
vt 0.1830 0.4092
vn -0.9209 0.3599 -0.1494
v -1.3943 1.0385 1.6470
vt 0.1621 0.3291
vn -0.9209 0.3599 -0.1494
v -1.4985 1.0192 2.2433
vt 0.1830 0.3291
vn -0.9209 0.3599 -0.1494
f 882/882/882 883/883/883 884/884/884
v -0.9636 2.3167 2.0712
vt 0.1830 0.4092
vn -0.1169 0.3481 -0.9301
v -0.7955 1.0089 1.5606
vt 0.1701 0.3291
vn -0.1169 0.3481 -0.9301
v -1.3943 1.0385 1.6470
vt 0.1621 0.3291
vn -0.1169 0.3481 -0.9301
f 885/885/885 886/886/886 887/887/887
v -0.8968 1.0379 1.7566
vt 0.1701 0.3291
vn 0.8439 0.3713 -0.3874
v -0.7446 1.0164 2.0674
vt 0.1904 0.3330
vn 0.8439 0.3713 -0.3874
v -0.4279 0.3313 2.1006
vt 0.1959 0.3291
vn 0.8439 0.3713 -0.3874
v -0.7655 0.3790 1.4111
vt 0.1701 0.3291
vn 0.8439 0.3713 -0.3874
f 888/888/888 889/889/889 890/890/890 891/891/891
v -1.3943 1.0385 1.6470
vt 0.1621 0.3291
vn 0.0437 -0.9972 0.0600
v -0.7955 1.0089 1.5606
vt 0.1701 0.3291
vn -0.1211 -0.9891 0.0838
v -0.8968 1.0379 1.7566
vt 0.1681 0.3330
vn -0.1211 -0.9891 0.0838
v -1.2396 1.0549 1.8061
vt 0.1621 0.3291
vn 0.0437 -0.9972 0.0600
f 892/892/892 893/893/893 894/894/894 895/895/895
v -0.5298 0.9713 2.1036
vt 0.1959 0.3291
vn -0.1943 -0.9787 -0.0656
v -0.9642 0.9777 2.5255
vt 0.2039 0.3291
vn -0.0747 -0.9805 -0.1818
v -0.9934 1.0201 2.3090
vt 0.2025 0.3330
vn -0.0747 -0.9805 -0.1818
v -0.7446 1.0164 2.0674
vt 0.1959 0.3291
vn -0.1943 -0.9787 -0.0656
f 896/896/896 897/897/897 898/898/898 899/899/899
v -0.9642 0.9777 2.5255
vt 0.2039 0.3291
vn -0.0747 -0.9805 -0.1818
v -1.4985 1.0192 2.2433
vt 0.1830 0.3291
vn 0.0724 -0.9919 -0.1041
v -1.2993 1.0438 2.1474
vt 0.1877 0.3330
vn 0.0724 -0.9919 -0.1041
v -0.9934 1.0201 2.3090
vt 0.2039 0.3291
vn -0.0747 -0.9805 -0.1818
f 900/900/900 901/901/901 902/902/902 903/903/903
v -1.4985 1.0192 2.2433
vt 0.1830 0.3291
vn 0.0724 -0.9919 -0.1041
v -1.3943 1.0385 1.6470
vt 0.1621 0.3291
vn 0.0437 -0.9972 0.0600
v -1.2396 1.0549 1.8061
vt 0.1664 0.3330
vn 0.0437 -0.9972 0.0600
v -1.2993 1.0438 2.1474
vt 0.1830 0.3291
vn 0.0724 -0.9919 -0.1041
f 904/904/904 905/905/905 906/906/906 907/907/907
v -1.5260 0.4166 1.5208
vt 0.1621 0.3291
vn 0.0408 -0.9975 0.0570
v -0.7655 0.3790 1.4111
vt 0.1701 0.3291
vn -0.1192 -0.9896 0.0801
v -1.0014 0.4444 1.8674
vt 0.1664 0.3362
vn -0.1192 -0.9896 0.0801
v -1.1658 0.4525 1.8911
vt 0.1621 0.3291
vn 0.0408 -0.9975 0.0570
f 908/908/908 909/909/909 910/910/910 911/911/911
v -0.4279 0.3313 2.1006
vt 0.1959 0.3291
vn -0.1902 -0.9796 -0.0650
v -0.9798 0.3394 2.6365
vt 0.2039 0.3291
vn -0.0741 -0.9813 -0.1777
v -1.0477 0.4358 2.1323
vt 0.2014 0.3362
vn -0.0741 -0.9813 -0.1777
v -0.9284 0.4341 2.0165
vt 0.1959 0.3291
vn -0.1902 -0.9796 -0.0650
f 912/912/912 913/913/913 914/914/914 915/915/915
v -0.9798 0.3394 2.6365
vt 0.2039 0.3291
vn -0.0741 -0.9813 -0.1777
v -1.6584 0.3921 2.2781
vt 0.1830 0.3291
vn 0.0686 -0.9924 -0.1023
v -1.1944 0.4472 2.0548
vt 0.1916 0.3362
vn 0.0686 -0.9924 -0.1023
v -1.0477 0.4358 2.1323
vt 0.2039 0.3291
vn -0.0741 -0.9813 -0.1777
f 916/916/916 917/917/917 918/918/918 919/919/919
v -1.6584 0.3921 2.2781
vt 0.1830 0.3291
vn 0.0686 -0.9924 -0.1023
v -1.5260 0.4166 1.5208
vt 0.1621 0.3291
vn 0.0408 -0.9975 0.0570
v -1.1658 0.4525 1.8911
vt 0.1699 0.3362
vn 0.0408 -0.9975 0.0570
v -1.1944 0.4472 2.0548
vt 0.1830 0.3291
vn 0.0686 -0.9924 -0.1023
f 920/920/920 921/921/921 922/922/922 923/923/923
v -0.9284 0.4341 2.0165
vt 0.8209 0.9541
vn 0.6966 0.0151 0.7173
v -1.0477 0.4358 2.1323
vt 0.8264 0.9612
vn 0.6966 0.0151 0.7173
v -1.0681 -0.0717 2.1628
vt 0.8264 0.9612
vn 0.6966 0.0151 0.7173
v -0.9049 -0.0717 2.0043
vt 0.8209 0.9541
vn 0.6966 0.0151 0.7173
f 924/924/924 925/925/925 926/926/926 927/927/927
v -0.7655 0.3790 1.4111
vt 0.1701 0.3291
vn -0.1192 -0.9896 0.0801
v -0.4279 0.3313 2.1006
vt 0.1959 0.3291
vn -0.1902 -0.9796 -0.0650
v -0.9284 0.4341 2.0165
vt 0.1858 0.3362
vn -0.1902 -0.9796 -0.0650
v -1.0014 0.4444 1.8674
vt 0.1701 0.3291
vn -0.1192 -0.9896 0.0801
f 928/928/928 929/929/929 930/930/930 931/931/931
v -1.1658 0.4525 1.8911
vt 0.7871 0.9541
vn -0.1390 0.1270 -0.9821
v -1.0014 0.4444 1.8674
vt 0.7914 0.9612
vn -0.1390 0.1270 -0.9821
v -1.0047 -0.0717 1.8005
vt 0.7914 0.9612
vn -0.1390 0.1270 -0.9821
v -1.2295 -0.0717 1.8329
vt 0.7871 0.9541
vn -0.1390 0.1270 -0.9821
f 932/932/932 933/933/933 934/934/934 935/935/935
v -1.1944 0.4472 2.0548
vt 0.8080 0.9541
vn -0.9759 0.1382 -0.1688
v -1.1658 0.4525 1.8911
vt 0.7949 0.9612
vn -0.9759 0.1382 -0.1688
v -1.2295 -0.0717 1.8329
vt 0.7949 0.9612
vn -0.9759 0.1382 -0.1688
v -1.2687 -0.0717 2.0568
vt 0.8080 0.9541
vn -0.9759 0.1382 -0.1688
f 936/936/936 937/937/937 938/938/938 939/939/939
v -1.0014 0.4444 1.8674
vt 0.7951 0.9541
vn 0.8976 0.0516 -0.4379
v -0.9284 0.4341 2.0165
vt 0.8108 0.9612
vn 0.8976 0.0516 -0.4379
v -0.9049 -0.0717 2.0043
vt 0.8108 0.9612
vn 0.8976 0.0516 -0.4379
v -1.0047 -0.0717 1.8005
vt 0.7951 0.9541
vn 0.8976 0.0516 -0.4379
f 940/940/940 941/941/941 942/942/942 943/943/943
v -1.0477 0.4358 2.1323
vt 0.8289 0.9541
vn -0.4640 0.0707 0.8830
v -1.1944 0.4472 2.0548
vt 0.8166 0.9612
vn -0.4640 0.0707 0.8830
v -1.2687 -0.0717 2.0568
vt 0.8166 0.9612
vn -0.4640 0.0707 0.8830
v -1.0681 -0.0717 2.1628
vt 0.8289 0.9541
vn -0.4640 0.0707 0.8830
f 944/944/944 945/945/945 946/946/946 947/947/947
v -0.7955 1.0089 1.5606
vt 0.1701 0.3291
vn 0.8718 0.2713 -0.4080
v -0.9636 2.3167 2.0712
vt 0.1830 0.4092
vn 0.8718 0.2713 -0.4080
v -0.5298 0.9713 2.1036
vt 0.1959 0.3291
vn 0.8718 0.2713 -0.4080
f 948/948/948 949/949/949 950/950/950
v 1.3908 -0.0717 -1.1859
vt 0.8166 0.9612
vn 0.0000 -1.0000 -0.0000
v 1.2794 -0.0717 -1.4023
vt 0.7871 0.9541
vn 0.0000 -1.0000 -0.0000
v 1.4503 -0.0717 -1.5754
vt 0.7951 0.9541
vn 0.0000 -1.0000 -0.0000
v 1.6673 -0.0717 -1.4660
vt 0.8209 0.9541
vn 0.0000 -1.0000 -0.0000
v 1.6305 -0.0717 -1.2253
vt 0.8289 0.9541
vn 0.0000 -1.0000 -0.0000
f 951/951/951 952/952/952 953/953/953 954/954/954 955/955/955
v -1.4717 -0.0717 -1.1444
vt 0.8166 0.9612
vn 0.0000 -1.0000 -0.0000
v -1.5521 -0.0717 -1.5677
vt 0.7871 0.9541
vn 0.0000 -1.0000 -0.0000
v -1.1745 -0.0717 -1.7751
vt 0.7951 0.9541
vn 0.0000 -1.0000 -0.0000
v -0.8608 -0.0717 -1.4800
vt 0.8209 0.9541
vn 0.0000 -1.0000 -0.0000
v -1.0445 -0.0717 -1.0902
vt 0.8289 0.9541
vn 0.0000 -1.0000 -0.0000
f 956/956/956 957/957/957 958/958/958 959/959/959 960/960/960
v 1.4710 -0.0717 1.8041
vt 0.8166 0.9612
vn 0.0000 -1.0000 -0.0000
v 1.5374 -0.0717 1.5867
vt 0.7871 0.9541
vn 0.0000 -1.0000 -0.0000
v 1.7644 -0.0717 1.5821
vt 0.7951 0.9541
vn 0.0000 -1.0000 -0.0000
v 1.8385 -0.0717 1.7966
vt 0.8209 0.9541
vn 0.0000 -1.0000 -0.0000
v 1.6571 -0.0717 1.9338
vt 0.8289 0.9541
vn 0.0000 -1.0000 -0.0000
f 961/961/961 962/962/962 963/963/963 964/964/964 965/965/965
v -0.2989 -0.0717 1.0451
vt 0.8166 0.9612
vn 0.0000 -1.0000 -0.0000
v -0.3368 -0.0717 0.6800
vt 0.7871 0.9541
vn 0.0000 -1.0000 -0.0000
v -0.0048 -0.0717 0.5309
vt 0.7951 0.9541
vn 0.0000 -1.0000 -0.0000
v 0.2382 -0.0717 0.8037
vt 0.8209 0.9541
vn 0.0000 -1.0000 -0.0000
v 0.0564 -0.0717 1.1215
vt 0.8289 0.9541
vn 0.0000 -1.0000 -0.0000
f 966/966/966 967/967/967 968/968/968 969/969/969 970/970/970
v -2.1729 -0.0717 -0.4304
vt 0.8166 0.9612
vn 0.0000 -1.0000 -0.0000
v -2.3073 -0.0717 -0.2275
vt 0.7871 0.9541
vn 0.0000 -1.0000 -0.0000
v -2.5418 -0.0717 -0.2921
vt 0.7951 0.9541
vn 0.0000 -1.0000 -0.0000
v -2.5522 -0.0717 -0.5349
vt 0.8209 0.9541
vn 0.0000 -1.0000 -0.0000
v -2.3243 -0.0717 -0.6204
vt 0.8289 0.9541
vn 0.0000 -1.0000 -0.0000
f 971/971/971 972/972/972 973/973/973 974/974/974 975/975/975
v 1.9615 -0.0717 0.2009
vt 0.8166 0.9612
vn 0.0000 -1.0000 -0.0000
v 2.0538 -0.0717 -0.1016
vt 0.7871 0.9541
vn 0.0000 -1.0000 -0.0000
v 2.3697 -0.0717 -0.1079
vt 0.7951 0.9541
vn 0.0000 -1.0000 -0.0000
v 2.4727 -0.0717 0.1906
vt 0.8209 0.9541
vn 0.0000 -1.0000 -0.0000
v 2.2204 -0.0717 0.3814
vt 0.8289 0.9541
vn 0.0000 -1.0000 -0.0000
f 976/976/976 977/977/977 978/978/978 979/979/979 980/980/980
v 0.1283 -0.0717 -2.1271
vt 0.8166 0.9612
vn 0.0000 -1.0000 -0.0000
v -0.0899 -0.0717 -2.3031
vt 0.7871 0.9541
vn 0.0000 -1.0000 -0.0000
v 0.0094 -0.0717 -2.5652
vt 0.7951 0.9541
vn 0.0000 -1.0000 -0.0000
v 0.2890 -0.0717 -2.5511
vt 0.8209 0.9541
vn 0.0000 -1.0000 -0.0000
v 0.3626 -0.0717 -2.2803
vt 0.8289 0.9541
vn 0.0000 -1.0000 -0.0000
f 981/981/981 982/982/982 983/983/983 984/984/984 985/985/985
v -2.1499 -0.0717 0.7884
vt 0.8166 0.9612
vn 0.0000 -1.0000 -0.0000
v -1.9581 -0.0717 1.0398
vt 0.7871 0.9541
vn 0.0000 -1.0000 -0.0000
v -2.1372 -0.0717 1.3001
vt 0.7951 0.9541
vn 0.0000 -1.0000 -0.0000
v -2.4397 -0.0717 1.2097
vt 0.8209 0.9541
vn 0.0000 -1.0000 -0.0000
v -2.4476 -0.0717 0.8934
vt 0.8289 0.9541
vn 0.0000 -1.0000 -0.0000
f 986/986/986 987/987/987 988/988/988 989/989/989 990/990/990
v 0.2006 -0.0717 2.2436
vt 0.8166 0.9612
vn 0.0000 -1.0000 -0.0000
v 0.4900 -0.0717 2.2130
vt 0.7871 0.9541
vn 0.0000 -1.0000 -0.0000
v 0.6090 -0.0717 2.4783
vt 0.7951 0.9541
vn 0.0000 -1.0000 -0.0000
v 0.3932 -0.0717 2.6729
vt 0.8209 0.9541
vn 0.0000 -1.0000 -0.0000
v 0.1408 -0.0717 2.5278
vt 0.8289 0.9541
vn 0.0000 -1.0000 -0.0000
f 991/991/991 992/992/992 993/993/993 994/994/994 995/995/995
v -1.2687 -0.0717 2.0568
vt 0.8166 0.9612
vn 0.0000 -1.0000 -0.0000
v -1.2295 -0.0717 1.8329
vt 0.7871 0.9541
vn 0.0000 -1.0000 -0.0000
v -1.0047 -0.0717 1.8005
vt 0.7951 0.9541
vn 0.0000 -1.0000 -0.0000
v -0.9049 -0.0717 2.0043
vt 0.8209 0.9541
vn 0.0000 -1.0000 -0.0000
v -1.0681 -0.0717 2.1628
vt 0.8289 0.9541
vn 0.0000 -1.0000 -0.0000
f 996/996/996 997/997/997 998/998/998 999/999/999 1000/1000/1000
