# The Giants of Holst prop, from CC0 kits by KayKit (Kay Lousberg) and Kenney
v 0.0000 0.8236 -1.2235
vt 0.1768 0.3324
vn 0.0000 0.3177 -0.9482
v 0.7192 0.8236 -0.9898
vt 0.1954 0.3324
vn 0.5573 0.3177 -0.7671
v 0.7407 0.6510 -1.0195
vt 0.1960 0.3266
vn 0.5749 0.2080 -0.7913
v 0.0000 0.6510 -1.2602
vt 0.1768 0.3266
vn -0.0000 0.2080 -0.9781
f 1/1/1 2/2/2 3/3/3 4/4/4
v 0.0000 0.6510 -1.2602
vt 0.1768 0.3266
vn 0.0000 -0.5442 -0.8390
v 0.7407 0.6510 -1.0195
vt 0.1960 0.3266
vn 0.4931 -0.5442 -0.6787
v 0.6925 0.5245 -0.9532
vt 0.1947 0.3224
vn 0.4931 -0.5442 -0.6787
v 0.0000 0.5245 -1.1782
vt 0.1768 0.3224
vn 0.0000 -0.5442 -0.8390
f 5/5/5 6/6/6 7/7/7 8/8/8
v 0.2893 0.4783 -0.0940
vt 0.1843 0.2740
vn 0.0503 -0.9986 -0.0163
v 0.1788 0.4783 -0.2461
vt 0.1814 0.2740
vn 0.0311 -0.9986 -0.0428
v 0.6925 0.5245 -0.9532
vt 0.1947 0.2755
vn 0.0311 -0.9986 -0.0428
v 1.1206 0.5245 -0.3641
vt 0.2058 0.2755
vn 0.0503 -0.9986 -0.0163
f 9/9/9 10/10/10 11/11/11 12/12/12
v 0.7192 0.8236 -0.9898
vt 0.1954 0.3324
vn 0.5573 0.3177 -0.7671
v 1.1636 0.8236 -0.3781
vt 0.2069 0.3324
vn 0.9018 0.3177 -0.2930
v 1.1985 0.6510 -0.3894
vt 0.2078 0.3266
vn 0.9303 0.2080 -0.3023
v 0.7407 0.6510 -1.0195
vt 0.1960 0.3266
vn 0.5749 0.2080 -0.7913
f 13/13/13 14/14/14 15/15/15 16/16/16
v 0.7407 0.6510 -1.0195
vt 0.1960 0.3266
vn 0.4931 -0.5442 -0.6787
v 1.1985 0.6510 -0.3894
vt 0.2078 0.3266
vn 0.7979 -0.5442 -0.2593
v 1.1206 0.5245 -0.3641
vt 0.2058 0.3224
vn 0.7979 -0.5442 -0.2593
v 0.6925 0.5245 -0.9532
vt 0.1947 0.3224
vn 0.4931 -0.5442 -0.6787
f 17/17/17 18/18/18 19/19/19 20/20/20
v 0.2893 0.4783 0.0940
vt 0.1843 0.2740
vn 0.0503 -0.9986 0.0163
v 0.2893 0.4783 -0.0940
vt 0.1843 0.2740
vn 0.0503 -0.9986 -0.0163
v 1.1206 0.5245 -0.3641
vt 0.2058 0.2755
vn 0.0503 -0.9986 -0.0163
v 1.1206 0.5245 0.3641
vt 0.2058 0.2755
vn 0.0503 -0.9986 0.0163
f 21/21/21 22/22/22 23/23/23 24/24/24
v 1.1636 0.8236 -0.3781
vt 0.2069 0.3324
vn 0.9018 0.3177 -0.2930
v 1.1636 0.8236 0.3781
vt 0.2069 0.3324
vn 0.9018 0.3177 0.2930
v 1.1985 0.6510 0.3894
vt 0.2078 0.3266
vn 0.9303 0.2080 0.3023
v 1.1985 0.6510 -0.3894
vt 0.2078 0.3266
vn 0.9303 0.2080 -0.3023
f 25/25/25 26/26/26 27/27/27 28/28/28
v 1.1985 0.6510 -0.3894
vt 0.2078 0.3266
vn 0.7979 -0.5442 -0.2593
v 1.1985 0.6510 0.3894
vt 0.2078 0.3266
vn 0.7979 -0.5442 0.2593
v 1.1206 0.5245 0.3641
vt 0.2058 0.3224
vn 0.7979 -0.5442 0.2593
v 1.1206 0.5245 -0.3641
vt 0.2058 0.3224
vn 0.7979 -0.5442 -0.2593
f 29/29/29 30/30/30 31/31/31 32/32/32
v 0.1788 0.4783 0.2461
vt 0.1814 0.2740
vn 0.0311 -0.9986 0.0428
v 0.2893 0.4783 0.0940
vt 0.1843 0.2740
vn 0.0503 -0.9986 0.0163
v 1.1206 0.5245 0.3641
vt 0.2058 0.2755
vn 0.0503 -0.9986 0.0163
v 0.6925 0.5245 0.9532
vt 0.1947 0.2755
vn 0.0311 -0.9986 0.0428
f 33/33/33 34/34/34 35/35/35 36/36/36
v 1.1636 0.8236 0.3781
vt 0.2069 0.3324
vn 0.9018 0.3177 0.2930
v 0.7192 0.8236 0.9898
vt 0.1954 0.3324
vn 0.5573 0.3177 0.7671
v 0.7407 0.6510 1.0195
vt 0.1960 0.3266
vn 0.5749 0.2080 0.7913
v 1.1985 0.6510 0.3894
vt 0.2078 0.3266
vn 0.9303 0.2080 0.3023
f 37/37/37 38/38/38 39/39/39 40/40/40
v 1.1985 0.6510 0.3894
vt 0.2078 0.3266
vn 0.7979 -0.5442 0.2593
v 0.7407 0.6510 1.0195
vt 0.1960 0.3266
vn 0.4931 -0.5442 0.6787
v 0.6925 0.5245 0.9532
vt 0.1947 0.3224
vn 0.4931 -0.5442 0.6787
v 1.1206 0.5245 0.3641
vt 0.2058 0.3224
vn 0.7979 -0.5442 0.2593
f 41/41/41 42/42/42 43/43/43 44/44/44
v 0.0000 0.4783 0.3042
vt 0.1768 0.2740
vn 0.0000 -0.9986 0.0529
v 0.1788 0.4783 0.2461
vt 0.1814 0.2740
vn 0.0311 -0.9986 0.0428
v 0.6925 0.5245 0.9532
vt 0.1947 0.2755
vn 0.0311 -0.9986 0.0428
v 0.0000 0.5245 1.1782
vt 0.1768 0.2755
vn 0.0000 -0.9986 0.0529
f 45/45/45 46/46/46 47/47/47 48/48/48
v 0.7192 0.8236 0.9898
vt 0.1954 0.3324
vn 0.5573 0.3177 0.7671
v 0.0000 0.8236 1.2235
vt 0.1768 0.3324
vn 0.0000 0.3177 0.9482
v 0.0000 0.6510 1.2602
vt 0.1768 0.3266
vn 0.0000 0.2080 0.9781
v 0.7407 0.6510 1.0195
vt 0.1960 0.3266
vn 0.5749 0.2080 0.7913
f 49/49/49 50/50/50 51/51/51 52/52/52
v 0.7407 0.6510 1.0195
vt 0.1960 0.3266
vn 0.4931 -0.5442 0.6787
v 0.0000 0.6510 1.2602
vt 0.1768 0.3266
vn 0.0000 -0.5442 0.8390
v 0.0000 0.5245 1.1782
vt 0.1768 0.3224
vn 0.0000 -0.5442 0.8390
v 0.6925 0.5245 0.9532
vt 0.1947 0.3224
vn 0.4931 -0.5442 0.6787
f 53/53/53 54/54/54 55/55/55 56/56/56
v -0.1788 0.4783 0.2461
vt 0.1722 0.2740
vn -0.0311 -0.9986 0.0428
v 0.0000 0.4783 0.3042
vt 0.1768 0.2740
vn 0.0000 -0.9986 0.0529
v 0.0000 0.5245 1.1782
vt 0.1768 0.2755
vn 0.0000 -0.9986 0.0529
v -0.6925 0.5245 0.9532
vt 0.1589 0.2755
vn -0.0311 -0.9986 0.0428
f 57/57/57 58/58/58 59/59/59 60/60/60
v 0.0000 0.8236 1.2235
vt 0.1768 0.3324
vn 0.0000 0.3177 0.9482
v -0.7192 0.8236 0.9898
vt 0.1582 0.3324
vn -0.5573 0.3177 0.7671
v -0.7407 0.6510 1.0195
vt 0.1576 0.3266
vn -0.5749 0.2080 0.7913
v 0.0000 0.6510 1.2602
vt 0.1768 0.3266
vn 0.0000 0.2080 0.9781
f 61/61/61 62/62/62 63/63/63 64/64/64
v 0.0000 0.6510 1.2602
vt 0.1768 0.3266
vn 0.0000 -0.5442 0.8390
v -0.7407 0.6510 1.0195
vt 0.1576 0.3266
vn -0.4931 -0.5442 0.6787
v -0.6925 0.5245 0.9532
vt 0.1589 0.3224
vn -0.4931 -0.5442 0.6787
v 0.0000 0.5245 1.1782
vt 0.1768 0.3224
vn 0.0000 -0.5442 0.8390
f 65/65/65 66/66/66 67/67/67 68/68/68
v -0.2893 0.4783 0.0940
vt 0.1693 0.2740
vn -0.0503 -0.9986 0.0163
v -0.1788 0.4783 0.2461
vt 0.1722 0.2740
vn -0.0311 -0.9986 0.0428
v -0.6925 0.5245 0.9532
vt 0.1589 0.2755
vn -0.0311 -0.9986 0.0428
v -1.1206 0.5245 0.3641
vt 0.1478 0.2755
vn -0.0503 -0.9986 0.0163
f 69/69/69 70/70/70 71/71/71 72/72/72
v -0.7192 0.8236 0.9898
vt 0.1582 0.3324
vn -0.5573 0.3177 0.7671
v -1.1636 0.8236 0.3781
vt 0.1467 0.3324
vn -0.9018 0.3177 0.2930
v -1.1985 0.6510 0.3894
vt 0.1458 0.3266
vn -0.9303 0.2080 0.3023
v -0.7407 0.6510 1.0195
vt 0.1576 0.3266
vn -0.5749 0.2080 0.7913
f 73/73/73 74/74/74 75/75/75 76/76/76
v -0.7407 0.6510 1.0195
vt 0.1576 0.3266
vn -0.4931 -0.5442 0.6787
v -1.1985 0.6510 0.3894
vt 0.1458 0.3266
vn -0.7979 -0.5442 0.2593
v -1.1206 0.5245 0.3641
vt 0.1478 0.3224
vn -0.7979 -0.5442 0.2593
v -0.6925 0.5245 0.9532
vt 0.1589 0.3224
vn -0.4931 -0.5442 0.6787
f 77/77/77 78/78/78 79/79/79 80/80/80
v -0.2893 0.4783 -0.0940
vt 0.1693 0.2740
vn -0.0503 -0.9986 -0.0163
v -0.2893 0.4783 0.0940
vt 0.1693 0.2740
vn -0.0503 -0.9986 0.0163
v -1.1206 0.5245 0.3641
vt 0.1478 0.2755
vn -0.0503 -0.9986 0.0163
v -1.1206 0.5245 -0.3641
vt 0.1478 0.2755
vn -0.0503 -0.9986 -0.0163
f 81/81/81 82/82/82 83/83/83 84/84/84
v -1.1636 0.8236 0.3781
vt 0.1467 0.3324
vn -0.9018 0.3177 0.2930
v -1.1636 0.8236 -0.3781
vt 0.1467 0.3324
vn -0.9018 0.3177 -0.2930
v -1.1985 0.6510 -0.3894
vt 0.1458 0.3266
vn -0.9303 0.2080 -0.3023
v -1.1985 0.6510 0.3894
vt 0.1458 0.3266
vn -0.9303 0.2080 0.3023
f 85/85/85 86/86/86 87/87/87 88/88/88
v -1.1985 0.6510 0.3894
vt 0.1458 0.3266
vn -0.7979 -0.5442 0.2593
v -1.1985 0.6510 -0.3894
vt 0.1458 0.3266
vn -0.7979 -0.5442 -0.2593
v -1.1206 0.5245 -0.3641
vt 0.1478 0.3224
vn -0.7979 -0.5442 -0.2593
v -1.1206 0.5245 0.3641
vt 0.1478 0.3224
vn -0.7979 -0.5442 0.2593
f 89/89/89 90/90/90 91/91/91 92/92/92
v -0.1788 0.4783 -0.2461
vt 0.1722 0.2740
vn -0.0311 -0.9986 -0.0428
v -0.2893 0.4783 -0.0940
vt 0.1693 0.2740
vn -0.0503 -0.9986 -0.0163
v -1.1206 0.5245 -0.3641
vt 0.1478 0.2755
vn -0.0503 -0.9986 -0.0163
v -0.6925 0.5245 -0.9532
vt 0.1589 0.2755
vn -0.0311 -0.9986 -0.0428
f 93/93/93 94/94/94 95/95/95 96/96/96
v -1.1636 0.8236 -0.3781
vt 0.1467 0.3324
vn -0.9018 0.3177 -0.2930
v -0.7192 0.8236 -0.9898
vt 0.1582 0.3324
vn -0.5573 0.3177 -0.7671
v -0.7407 0.6510 -1.0195
vt 0.1576 0.3266
vn -0.5749 0.2080 -0.7913
v -1.1985 0.6510 -0.3894
vt 0.1458 0.3266
vn -0.9303 0.2080 -0.3023
f 97/97/97 98/98/98 99/99/99 100/100/100
v -1.1985 0.6510 -0.3894
vt 0.1458 0.3266
vn -0.7979 -0.5442 -0.2593
v -0.7407 0.6510 -1.0195
vt 0.1576 0.3266
vn -0.4931 -0.5442 -0.6787
v -0.6925 0.5245 -0.9532
vt 0.1589 0.3224
vn -0.4931 -0.5442 -0.6787
v -1.1206 0.5245 -0.3641
vt 0.1478 0.3224
vn -0.7979 -0.5442 -0.2593
f 101/101/101 102/102/102 103/103/103 104/104/104
v 0.0000 0.4783 -0.3042
vt 0.1768 0.2740
vn 0.0000 -0.9986 -0.0529
v -0.1788 0.4783 -0.2461
vt 0.1722 0.2740
vn -0.0311 -0.9986 -0.0428
v -0.6925 0.5245 -0.9532
vt 0.1589 0.2755
vn -0.0311 -0.9986 -0.0428
v 0.0000 0.5245 -1.1782
vt 0.1768 0.2755
vn 0.0000 -0.9986 -0.0529
f 105/105/105 106/106/106 107/107/107 108/108/108
v -0.7192 0.8236 -0.9898
vt 0.1582 0.3324
vn -0.5573 0.3177 -0.7671
v 0.0000 0.8236 -1.2235
vt 0.1768 0.3324
vn 0.0000 0.3177 -0.9482
v 0.0000 0.6510 -1.2602
vt 0.1768 0.3266
vn -0.0000 0.2080 -0.9781
v -0.7407 0.6510 -1.0195
vt 0.1576 0.3266
vn -0.5749 0.2080 -0.7913
f 109/109/109 110/110/110 111/111/111 112/112/112
v -0.7407 0.6510 -1.0195
vt 0.1576 0.3266
vn -0.4931 -0.5442 -0.6787
v 0.0000 0.6510 -1.2602
vt 0.1768 0.3266
vn 0.0000 -0.5442 -0.8390
v 0.0000 0.5245 -1.1782
vt 0.1768 0.3224
vn 0.0000 -0.5442 -0.8390
v -0.6925 0.5245 -0.9532
vt 0.1589 0.3224
vn -0.4931 -0.5442 -0.6787
f 113/113/113 114/114/114 115/115/115 116/116/116
v 0.0000 3.7632 -0.2607
vt 0.1768 0.4769
vn 0.0000 0.5873 -0.8094
v 0.0000 3.8768 -0.1304
vt 0.1768 0.4807
vn 0.0000 0.8890 -0.4580
v 0.0766 3.8768 -0.1055
vt 0.1788 0.4807
vn 0.2692 0.8890 -0.3705
v 0.1533 3.7632 -0.2110
vt 0.1808 0.4769
vn 0.4757 0.5873 -0.6548
f 117/117/117 118/118/118 119/119/119 120/120/120
v 0.0000 0.4783 -0.3042
vt 0.7845 0.8513
vn 0.0000 0.0343 -0.9994
v 0.1788 0.4783 -0.2461
vt 0.7891 0.8513
vn 0.5874 0.0343 -0.8085
v 0.1955 -0.3500 -0.2691
vt 0.7895 0.8354
vn 0.5874 0.0343 -0.8085
v -0.0000 -0.3500 -0.3326
vt 0.7845 0.8354
vn 0.0000 0.0343 -0.9994
f 121/121/121 122/122/122 123/123/123 124/124/124
v 0.0000 0.8236 -1.2235
vt 0.1768 0.3324
vn 0.0000 0.3177 -0.9482
v 0.0000 2.0216 -0.6419
vt 0.1768 0.3722
vn 0.0000 0.4367 -0.8996
v 0.3773 2.0216 -0.5193
vt 0.1866 0.3722
vn 0.5288 0.4367 -0.7278
v 0.7192 0.8236 -0.9898
vt 0.1954 0.3324
vn 0.5573 0.3177 -0.7671
f 125/125/125 126/126/126 127/127/127 128/128/128
v 1.1636 0.8236 -0.3781
vt 0.2069 0.3324
vn 0.9018 0.3177 -0.2930
v 0.6105 2.0216 -0.1984
vt 0.1926 0.3722
vn 0.8556 0.4367 -0.2780
v 0.6105 2.0216 0.1984
vt 0.1926 0.3722
vn 0.8556 0.4367 0.2780
v 1.1636 0.8236 0.3781
vt 0.2069 0.3324
vn 0.9018 0.3177 0.2930
f 129/129/129 130/130/130 131/131/131 132/132/132
v -0.7192 0.8236 -0.9898
vt 0.1582 0.3324
vn -0.5573 0.3177 -0.7671
v -0.3773 2.0216 -0.5193
vt 0.1670 0.3722
vn -0.5288 0.4367 -0.7278
v 0.0000 2.0216 -0.6419
vt 0.1768 0.3722
vn 0.0000 0.4367 -0.8996
v 0.0000 0.8236 -1.2235
vt 0.1768 0.3324
vn 0.0000 0.3177 -0.9482
f 133/133/133 134/134/134 135/135/135 136/136/136
v -1.1636 0.8236 -0.3781
vt 0.1467 0.3324
vn -0.9018 0.3177 -0.2930
v -0.6105 2.0216 -0.1984
vt 0.1610 0.3722
vn -0.8556 0.4368 -0.2780
v -0.3773 2.0216 -0.5193
vt 0.1670 0.3722
vn -0.5288 0.4367 -0.7278
v -0.7192 0.8236 -0.9898
vt 0.1582 0.3324
vn -0.5573 0.3177 -0.7671
f 137/137/137 138/138/138 139/139/139 140/140/140
v -1.1636 0.8236 0.3781
vt 0.1467 0.3324
vn -0.9018 0.3177 0.2930
v -0.6105 2.0216 0.1984
vt 0.1610 0.3722
vn -0.8556 0.4368 0.2780
v -0.6105 2.0216 -0.1984
vt 0.1610 0.3722
vn -0.8556 0.4368 -0.2780
v -1.1636 0.8236 -0.3781
vt 0.1467 0.3324
vn -0.9018 0.3177 -0.2930
f 141/141/141 142/142/142 143/143/143 144/144/144
v -0.7192 0.8236 0.9898
vt 0.1582 0.3324
vn -0.5573 0.3177 0.7671
v -0.3773 2.0216 0.5193
vt 0.1670 0.3722
vn -0.5288 0.4367 0.7278
v -0.6105 2.0216 0.1984
vt 0.1610 0.3722
vn -0.8556 0.4368 0.2780
v -1.1636 0.8236 0.3781
vt 0.1467 0.3324
vn -0.9018 0.3177 0.2930
f 145/145/145 146/146/146 147/147/147 148/148/148
v 0.0000 0.8236 1.2235
vt 0.1768 0.3324
vn 0.0000 0.3177 0.9482
v 0.0000 2.0216 0.6419
vt 0.1768 0.3722
vn 0.0000 0.4367 0.8996
v -0.3773 2.0216 0.5193
vt 0.1670 0.3722
vn -0.5288 0.4367 0.7278
v -0.7192 0.8236 0.9898
vt 0.1582 0.3324
vn -0.5573 0.3177 0.7671
f 149/149/149 150/150/150 151/151/151 152/152/152
v 0.7192 0.8236 0.9898
vt 0.1954 0.3324
vn 0.5573 0.3177 0.7671
v 0.3773 2.0216 0.5193
vt 0.1866 0.3722
vn 0.5288 0.4367 0.7278
v 0.0000 2.0216 0.6419
vt 0.1768 0.3722
vn 0.0000 0.4367 0.8996
v 0.0000 0.8236 1.2235
vt 0.1768 0.3324
vn 0.0000 0.3177 0.9482
f 153/153/153 154/154/154 155/155/155 156/156/156
v 1.1636 0.8236 0.3781
vt 0.2069 0.3324
vn 0.9018 0.3177 0.2930
v 0.6105 2.0216 0.1984
vt 0.1926 0.3722
vn 0.8556 0.4367 0.2780
v 0.3773 2.0216 0.5193
vt 0.1866 0.3722
vn 0.5288 0.4367 0.7278
v 0.7192 0.8236 0.9898
vt 0.1954 0.3324
vn 0.5573 0.3177 0.7671
f 157/157/157 158/158/158 159/159/159 160/160/160
v 0.7192 0.8236 -0.9898
vt 0.1954 0.3324
vn 0.5573 0.3177 -0.7671
v 0.3773 2.0216 -0.5193
vt 0.1866 0.3722
vn 0.5288 0.4367 -0.7278
v 0.6105 2.0216 -0.1984
vt 0.1926 0.3722
vn 0.8556 0.4367 -0.2780
v 1.1636 0.8236 -0.3781
vt 0.2069 0.3324
vn 0.9018 0.3177 -0.2930
f 161/161/161 162/162/162 163/163/163 164/164/164
v 0.5705 2.2849 -0.7852
vt 0.1916 0.3809
vn 0.5577 0.3158 -0.7676
v 0.1533 3.7632 -0.2110
vt 0.1808 0.4769
vn 0.4757 0.5873 -0.6548
v 0.2480 3.7632 -0.0806
vt 0.1832 0.4769
vn 0.7698 0.5873 -0.2501
v 0.9230 2.2849 -0.2999
vt 0.2007 0.3809
vn 0.9024 0.3158 -0.2932
f 165/165/165 166/166/166 167/167/167 168/168/168
v 0.9230 2.2849 0.2999
vt 0.2007 0.3809
vn 0.9024 0.3158 0.2932
v 0.2480 3.7632 0.0806
vt 0.1832 0.4769
vn 0.7698 0.5873 0.2501
v 0.1533 3.7632 0.2110
vt 0.1808 0.4769
vn 0.4757 0.5873 0.6548
v 0.5705 2.2849 0.7852
vt 0.1916 0.3809
vn 0.5577 0.3158 0.7676
f 169/169/169 170/170/170 171/171/171 172/172/172
v 0.5705 2.2849 0.7852
vt 0.1916 0.3809
vn 0.5577 0.3158 0.7676
v 0.1533 3.7632 0.2110
vt 0.1808 0.4769
vn 0.4757 0.5873 0.6548
v 0.0000 3.7632 0.2607
vt 0.1768 0.4769
vn 0.0000 0.5873 0.8094
v -0.0000 2.2849 0.9705
vt 0.1768 0.3809
vn 0.0000 0.3158 0.9488
f 173/173/173 174/174/174 175/175/175 176/176/176
v -0.0000 2.2849 0.9705
vt 0.1768 0.3809
vn 0.0000 0.3158 0.9488
v 0.0000 3.7632 0.2607
vt 0.1768 0.4769
vn 0.0000 0.5873 0.8094
v -0.1533 3.7632 0.2110
vt 0.1728 0.4769
vn -0.4757 0.5873 0.6548
v -0.5705 2.2849 0.7852
vt 0.1620 0.3809
vn -0.5577 0.3158 0.7676
f 177/177/177 178/178/178 179/179/179 180/180/180
v -0.5705 2.2849 0.7852
vt 0.1620 0.3809
vn -0.5577 0.3158 0.7676
v -0.1533 3.7632 0.2110
vt 0.1728 0.4769
vn -0.4757 0.5873 0.6548
v -0.2480 3.7632 0.0806
vt 0.1704 0.4769
vn -0.7698 0.5873 0.2501
v -0.9230 2.2849 0.2999
vt 0.1529 0.3809
vn -0.9024 0.3158 0.2932
f 181/181/181 182/182/182 183/183/183 184/184/184
v -0.9230 2.2849 0.2999
vt 0.1529 0.3809
vn -0.9024 0.3158 0.2932
v -0.2480 3.7632 0.0806
vt 0.1704 0.4769
vn -0.7698 0.5873 0.2501
v -0.2480 3.7632 -0.0806
vt 0.1704 0.4769
vn -0.7698 0.5873 -0.2501
v -0.9230 2.2849 -0.2999
vt 0.1529 0.3809
vn -0.9024 0.3158 -0.2932
f 185/185/185 186/186/186 187/187/187 188/188/188
v -0.9230 2.2849 -0.2999
vt 0.1529 0.3809
vn -0.9024 0.3158 -0.2932
v -0.2480 3.7632 -0.0806
vt 0.1704 0.4769
vn -0.7698 0.5873 -0.2501
v -0.1533 3.7632 -0.2110
vt 0.1728 0.4769
vn -0.4757 0.5873 -0.6548
v -0.5705 2.2849 -0.7852
vt 0.1620 0.3809
vn -0.5577 0.3158 -0.7676
f 189/189/189 190/190/190 191/191/191 192/192/192
v -0.5705 2.2849 -0.7852
vt 0.1620 0.3809
vn -0.5577 0.3158 -0.7676
v -0.1533 3.7632 -0.2110
vt 0.1728 0.4769
vn -0.4757 0.5873 -0.6548
v 0.0000 3.7632 -0.2607
vt 0.1768 0.4769
vn 0.0000 0.5873 -0.8094
v -0.0000 2.2849 -0.9705
vt 0.1768 0.3809
vn 0.0000 0.3158 -0.9488
f 193/193/193 194/194/194 195/195/195 196/196/196
v 0.9230 2.2849 -0.2999
vt 0.2007 0.3809
vn 0.9024 0.3158 -0.2932
v 0.2480 3.7632 -0.0806
vt 0.1832 0.4769
vn 0.7698 0.5873 -0.2501
v 0.2480 3.7632 0.0806
vt 0.1832 0.4769
vn 0.7698 0.5873 0.2501
v 0.9230 2.2849 0.2999
vt 0.2007 0.3809
vn 0.9024 0.3158 0.2932
f 197/197/197 198/198/198 199/199/199 200/200/200
v -0.0000 2.2849 -0.9705
vt 0.1768 0.3809
vn 0.0000 0.3158 -0.9488
v 0.5705 2.2849 -0.7852
vt 0.1916 0.3809
vn 0.5577 0.3158 -0.7676
v 0.5876 2.1480 -0.8088
vt 0.1920 0.3764
vn 0.5749 0.2080 -0.7913
v -0.0000 2.1480 -0.9997
vt 0.1768 0.3764
vn -0.0000 0.2080 -0.9781
f 201/201/201 202/202/202 203/203/203 204/204/204
v -0.0000 2.1480 -0.9997
vt 0.1768 0.3764
vn 0.0000 -0.5442 -0.8390
v 0.5876 2.1480 -0.8088
vt 0.1920 0.3764
vn 0.4931 -0.5442 -0.6787
v 0.5493 2.0477 -0.7561
vt 0.1910 0.3730
vn 0.4931 -0.5442 -0.6787
v -0.0000 2.0477 -0.9346
vt 0.1768 0.3730
vn 0.0000 -0.5442 -0.8390
f 205/205/205 206/206/206 207/207/207 208/208/208
v 0.8889 2.0477 -0.2888
vt 0.1998 0.3262
vn 0.0843 -0.9961 -0.0274
v 0.6105 2.0216 -0.1984
vt 0.1926 0.3253
vn 0.0843 -0.9961 -0.0274
v 0.3773 2.0216 -0.5193
vt 0.1866 0.3253
vn 0.0521 -0.9961 -0.0717
v 0.5493 2.0477 -0.7561
vt 0.1910 0.3262
vn 0.0521 -0.9961 -0.0717
f 209/209/209 210/210/210 211/211/211 212/212/212
v 0.5705 2.2849 -0.7852
vt 0.1916 0.3809
vn 0.5577 0.3158 -0.7676
v 0.9230 2.2849 -0.2999
vt 0.2007 0.3809
vn 0.9024 0.3158 -0.2932
v 0.9507 2.1480 -0.3089
vt 0.2014 0.3764
vn 0.9303 0.2080 -0.3023
v 0.5876 2.1480 -0.8088
vt 0.1920 0.3764
vn 0.5749 0.2080 -0.7913
f 213/213/213 214/214/214 215/215/215 216/216/216
v 0.5876 2.1480 -0.8088
vt 0.1920 0.3764
vn 0.4931 -0.5442 -0.6787
v 0.9507 2.1480 -0.3089
vt 0.2014 0.3764
vn 0.7979 -0.5442 -0.2593
v 0.8889 2.0477 -0.2888
vt 0.1998 0.3730
vn 0.7979 -0.5442 -0.2593
v 0.5493 2.0477 -0.7561
vt 0.1910 0.3730
vn 0.4931 -0.5442 -0.6787
f 217/217/217 218/218/218 219/219/219 220/220/220
v 0.8889 2.0477 0.2888
vt 0.1998 0.3262
vn 0.0843 -0.9961 0.0274
v 0.6105 2.0216 0.1984
vt 0.1926 0.3253
vn 0.0843 -0.9961 0.0274
v 0.6105 2.0216 -0.1984
vt 0.1926 0.3253
vn 0.0843 -0.9961 -0.0274
v 0.8889 2.0477 -0.2888
vt 0.1998 0.3262
vn 0.0843 -0.9961 -0.0274
f 221/221/221 222/222/222 223/223/223 224/224/224
v 0.9230 2.2849 -0.2999
vt 0.2007 0.3809
vn 0.9024 0.3158 -0.2932
v 0.9230 2.2849 0.2999
vt 0.2007 0.3809
vn 0.9024 0.3158 0.2932
v 0.9507 2.1480 0.3089
vt 0.2014 0.3764
vn 0.9303 0.2080 0.3023
v 0.9507 2.1480 -0.3089
vt 0.2014 0.3764
vn 0.9303 0.2080 -0.3023
f 225/225/225 226/226/226 227/227/227 228/228/228
v 0.9507 2.1480 -0.3089
vt 0.2014 0.3764
vn 0.7979 -0.5442 -0.2593
v 0.9507 2.1480 0.3089
vt 0.2014 0.3764
vn 0.7979 -0.5442 0.2593
v 0.8889 2.0477 0.2888
vt 0.1998 0.3730
vn 0.7979 -0.5442 0.2593
v 0.8889 2.0477 -0.2888
vt 0.1998 0.3730
vn 0.7979 -0.5442 -0.2593
f 229/229/229 230/230/230 231/231/231 232/232/232
v 0.5493 2.0477 0.7561
vt 0.1910 0.3262
vn 0.0521 -0.9961 0.0717
v 0.3773 2.0216 0.5193
vt 0.1866 0.3253
vn 0.0521 -0.9961 0.0717
v 0.6105 2.0216 0.1984
vt 0.1926 0.3253
vn 0.0843 -0.9961 0.0274
v 0.8889 2.0477 0.2888
vt 0.1998 0.3262
vn 0.0843 -0.9961 0.0274
f 233/233/233 234/234/234 235/235/235 236/236/236
v 0.9230 2.2849 0.2999
vt 0.2007 0.3809
vn 0.9024 0.3158 0.2932
v 0.5705 2.2849 0.7852
vt 0.1916 0.3809
vn 0.5577 0.3158 0.7676
v 0.5876 2.1480 0.8088
vt 0.1920 0.3764
vn 0.5749 0.2080 0.7913
v 0.9507 2.1480 0.3089
vt 0.2014 0.3764
vn 0.9303 0.2080 0.3023
f 237/237/237 238/238/238 239/239/239 240/240/240
v 0.9507 2.1480 0.3089
vt 0.2014 0.3764
vn 0.7979 -0.5442 0.2593
v 0.5876 2.1480 0.8088
vt 0.1920 0.3764
vn 0.4931 -0.5442 0.6787
v 0.5493 2.0477 0.7561
vt 0.1910 0.3730
vn 0.4931 -0.5442 0.6787
v 0.8889 2.0477 0.2888
vt 0.1998 0.3730
vn 0.7979 -0.5442 0.2593
f 241/241/241 242/242/242 243/243/243 244/244/244
v -0.0000 2.0477 0.9346
vt 0.1768 0.3262
vn 0.0000 -0.9961 0.0887
v 0.0000 2.0216 0.6419
vt 0.1768 0.3253
vn 0.0000 -0.9961 0.0887
v 0.3773 2.0216 0.5193
vt 0.1866 0.3253
vn 0.0521 -0.9961 0.0717
v 0.5493 2.0477 0.7561
vt 0.1910 0.3262
vn 0.0521 -0.9961 0.0717
f 245/245/245 246/246/246 247/247/247 248/248/248
v 0.5705 2.2849 0.7852
vt 0.1916 0.3809
vn 0.5577 0.3158 0.7676
v -0.0000 2.2849 0.9705
vt 0.1768 0.3809
vn 0.0000 0.3158 0.9488
v -0.0000 2.1480 0.9997
vt 0.1768 0.3764
vn 0.0000 0.2080 0.9781
v 0.5876 2.1480 0.8088
vt 0.1920 0.3764
vn 0.5749 0.2080 0.7913
f 249/249/249 250/250/250 251/251/251 252/252/252
v 0.5876 2.1480 0.8088
vt 0.1920 0.3764
vn 0.4931 -0.5442 0.6787
v -0.0000 2.1480 0.9997
vt 0.1768 0.3764
vn 0.0000 -0.5442 0.8390
v -0.0000 2.0477 0.9346
vt 0.1768 0.3730
vn 0.0000 -0.5442 0.8390
v 0.5493 2.0477 0.7561
vt 0.1910 0.3730
vn 0.4931 -0.5442 0.6787
f 253/253/253 254/254/254 255/255/255 256/256/256
v -0.5494 2.0477 0.7561
vt 0.1626 0.3262
vn -0.0521 -0.9961 0.0717
v -0.3773 2.0216 0.5193
vt 0.1670 0.3253
vn -0.0521 -0.9961 0.0717
v 0.0000 2.0216 0.6419
vt 0.1768 0.3253
vn 0.0000 -0.9961 0.0887
v -0.0000 2.0477 0.9346
vt 0.1768 0.3262
vn 0.0000 -0.9961 0.0887
f 257/257/257 258/258/258 259/259/259 260/260/260
v -0.0000 2.2849 0.9705
vt 0.1768 0.3809
vn 0.0000 0.3158 0.9488
v -0.5705 2.2849 0.7852
vt 0.1620 0.3809
vn -0.5577 0.3158 0.7676
v -0.5876 2.1480 0.8088
vt 0.1616 0.3764
vn -0.5749 0.2080 0.7913
v -0.0000 2.1480 0.9997
vt 0.1768 0.3764
vn 0.0000 0.2080 0.9781
f 261/261/261 262/262/262 263/263/263 264/264/264
v -0.0000 2.1480 0.9997
vt 0.1768 0.3764
vn 0.0000 -0.5442 0.8390
v -0.5876 2.1480 0.8088
vt 0.1616 0.3764
vn -0.4931 -0.5442 0.6787
v -0.5494 2.0477 0.7561
vt 0.1626 0.3730
vn -0.4931 -0.5442 0.6787
v -0.0000 2.0477 0.9346
vt 0.1768 0.3730
vn 0.0000 -0.5442 0.8390
f 265/265/265 266/266/266 267/267/267 268/268/268
v -0.8889 2.0477 0.2888
vt 0.1538 0.3262
vn -0.0843 -0.9961 0.0274
v -0.6105 2.0216 0.1984
vt 0.1610 0.3253
vn -0.0843 -0.9961 0.0274
v -0.3773 2.0216 0.5193
vt 0.1670 0.3253
vn -0.0521 -0.9961 0.0717
v -0.5494 2.0477 0.7561
vt 0.1626 0.3262
vn -0.0521 -0.9961 0.0717
f 269/269/269 270/270/270 271/271/271 272/272/272
v -0.5705 2.2849 0.7852
vt 0.1620 0.3809
vn -0.5577 0.3158 0.7676
v -0.9230 2.2849 0.2999
vt 0.1529 0.3809
vn -0.9024 0.3158 0.2932
v -0.9508 2.1480 0.3089
vt 0.1522 0.3764
vn -0.9303 0.2080 0.3023
v -0.5876 2.1480 0.8088
vt 0.1616 0.3764
vn -0.5749 0.2080 0.7913
f 273/273/273 274/274/274 275/275/275 276/276/276
v -0.5876 2.1480 0.8088
vt 0.1616 0.3764
vn -0.4931 -0.5442 0.6787
v -0.9508 2.1480 0.3089
vt 0.1522 0.3764
vn -0.7979 -0.5442 0.2593
v -0.8889 2.0477 0.2888
vt 0.1538 0.3730
vn -0.7979 -0.5442 0.2593
v -0.5494 2.0477 0.7561
vt 0.1626 0.3730
vn -0.4931 -0.5442 0.6787
f 277/277/277 278/278/278 279/279/279 280/280/280
v -0.8889 2.0477 -0.2888
vt 0.1538 0.3262
vn -0.0843 -0.9961 -0.0274
v -0.6105 2.0216 -0.1984
vt 0.1610 0.3253
vn -0.0843 -0.9961 -0.0274
v -0.6105 2.0216 0.1984
vt 0.1610 0.3253
vn -0.0843 -0.9961 0.0274
v -0.8889 2.0477 0.2888
vt 0.1538 0.3262
vn -0.0843 -0.9961 0.0274
f 281/281/281 282/282/282 283/283/283 284/284/284
v -0.9230 2.2849 0.2999
vt 0.1529 0.3809
vn -0.9024 0.3158 0.2932
v -0.9230 2.2849 -0.2999
vt 0.1529 0.3809
vn -0.9024 0.3158 -0.2932
v -0.9508 2.1480 -0.3089
vt 0.1522 0.3764
vn -0.9303 0.2080 -0.3023
v -0.9508 2.1480 0.3089
vt 0.1522 0.3764
vn -0.9303 0.2080 0.3023
f 285/285/285 286/286/286 287/287/287 288/288/288
v -0.9508 2.1480 0.3089
vt 0.1522 0.3764
vn -0.7979 -0.5442 0.2593
v -0.9508 2.1480 -0.3089
vt 0.1522 0.3764
vn -0.7979 -0.5442 -0.2593
v -0.8889 2.0477 -0.2888
vt 0.1538 0.3730
vn -0.7979 -0.5442 -0.2593
v -0.8889 2.0477 0.2888
vt 0.1538 0.3730
vn -0.7979 -0.5442 0.2593
f 289/289/289 290/290/290 291/291/291 292/292/292
v -0.5494 2.0477 -0.7561
vt 0.1626 0.3262
vn -0.0521 -0.9961 -0.0717
v -0.3773 2.0216 -0.5193
vt 0.1670 0.3253
vn -0.0521 -0.9961 -0.0717
v -0.6105 2.0216 -0.1984
vt 0.1610 0.3253
vn -0.0843 -0.9961 -0.0274
v -0.8889 2.0477 -0.2888
vt 0.1538 0.3262
vn -0.0843 -0.9961 -0.0274
f 293/293/293 294/294/294 295/295/295 296/296/296
v -0.9230 2.2849 -0.2999
vt 0.1529 0.3809
vn -0.9024 0.3158 -0.2932
v -0.5705 2.2849 -0.7852
vt 0.1620 0.3809
vn -0.5577 0.3158 -0.7676
v -0.5876 2.1480 -0.8088
vt 0.1616 0.3764
vn -0.5749 0.2080 -0.7913
v -0.9508 2.1480 -0.3089
vt 0.1522 0.3764
vn -0.9303 0.2080 -0.3023
f 297/297/297 298/298/298 299/299/299 300/300/300
v -0.9508 2.1480 -0.3089
vt 0.1522 0.3764
vn -0.7979 -0.5442 -0.2593
v -0.5876 2.1480 -0.8088
vt 0.1616 0.3764
vn -0.4931 -0.5442 -0.6787
v -0.5494 2.0477 -0.7561
vt 0.1626 0.3730
vn -0.4931 -0.5442 -0.6787
v -0.8889 2.0477 -0.2888
vt 0.1538 0.3730
vn -0.7979 -0.5442 -0.2593
f 301/301/301 302/302/302 303/303/303 304/304/304
v -0.0000 2.0477 -0.9346
vt 0.1768 0.3262
vn -0.0000 -0.9961 -0.0887
v 0.0000 2.0216 -0.6419
vt 0.1768 0.3253
vn -0.0000 -0.9961 -0.0887
v -0.3773 2.0216 -0.5193
vt 0.1670 0.3253
vn -0.0521 -0.9961 -0.0717
v -0.5494 2.0477 -0.7561
vt 0.1626 0.3262
vn -0.0521 -0.9961 -0.0717
f 305/305/305 306/306/306 307/307/307 308/308/308
v -0.5705 2.2849 -0.7852
vt 0.1620 0.3809
vn -0.5577 0.3158 -0.7676
v -0.0000 2.2849 -0.9705
vt 0.1768 0.3809
vn 0.0000 0.3158 -0.9488
v -0.0000 2.1480 -0.9997
vt 0.1768 0.3764
vn -0.0000 0.2080 -0.9781
v -0.5876 2.1480 -0.8088
vt 0.1616 0.3764
vn -0.5749 0.2080 -0.7913
f 309/309/309 310/310/310 311/311/311 312/312/312
v -0.5876 2.1480 -0.8088
vt 0.1616 0.3764
vn -0.4931 -0.5442 -0.6787
v -0.0000 2.1480 -0.9997
vt 0.1768 0.3764
vn 0.0000 -0.5442 -0.8390
v -0.0000 2.0477 -0.9346
vt 0.1768 0.3730
vn 0.0000 -0.5442 -0.8390
v -0.5494 2.0477 -0.7561
vt 0.1626 0.3730
vn -0.4931 -0.5442 -0.6787
f 313/313/313 314/314/314 315/315/315 316/316/316
v 0.1533 3.7632 -0.2110
vt 0.1808 0.4769
vn 0.4757 0.5873 -0.6548
v 0.0766 3.8768 -0.1055
vt 0.1788 0.4807
vn 0.2692 0.8890 -0.3705
v 0.1240 3.8768 -0.0403
vt 0.1800 0.4807
vn 0.4356 0.8890 -0.1415
v 0.2480 3.7632 -0.0806
vt 0.1832 0.4769
vn 0.7698 0.5873 -0.2501
f 317/317/317 318/318/318 319/319/319 320/320/320
v 0.0766 3.8768 -0.1055
vt 0.1788 0.4807
vn 0.2692 0.8890 -0.3705
v 0.0000 3.8768 -0.1304
vt 0.1768 0.4807
vn 0.0000 0.8890 -0.4580
v 0.0000 3.8944 0.0000
vt 0.1768 0.4813
vn 0.0000 1.0000 0.0000
f 321/321/321 322/322/322 323/323/323
v 0.2480 3.7632 -0.0806
vt 0.1832 0.4769
vn 0.7698 0.5873 -0.2501
v 0.1240 3.8768 -0.0403
vt 0.1800 0.4807
vn 0.4356 0.8890 -0.1415
v 0.1240 3.8768 0.0403
vt 0.1800 0.4807
vn 0.4356 0.8890 0.1415
v 0.2480 3.7632 0.0806
vt 0.1832 0.4769
vn 0.7698 0.5873 0.2501
f 324/324/324 325/325/325 326/326/326 327/327/327
v 0.1240 3.8768 -0.0403
vt 0.1800 0.4807
vn 0.4356 0.8890 -0.1415
v 0.0766 3.8768 -0.1055
vt 0.1788 0.4807
vn 0.2692 0.8890 -0.3705
v 0.0000 3.8944 0.0000
vt 0.1768 0.4813
vn 0.0000 1.0000 0.0000
f 328/328/328 329/329/329 330/330/330
v 0.2480 3.7632 0.0806
vt 0.1832 0.4769
vn 0.7698 0.5873 0.2501
v 0.1240 3.8768 0.0403
vt 0.1800 0.4807
vn 0.4356 0.8890 0.1415
v 0.0766 3.8768 0.1055
vt 0.1788 0.4807
vn 0.2692 0.8890 0.3705
v 0.1533 3.7632 0.2110
vt 0.1808 0.4769
vn 0.4757 0.5873 0.6548
f 331/331/331 332/332/332 333/333/333 334/334/334
v 0.1240 3.8768 0.0403
vt 0.1800 0.4807
vn 0.4356 0.8890 0.1415
v 0.1240 3.8768 -0.0403
vt 0.1800 0.4807
vn 0.4356 0.8890 -0.1415
v 0.0000 3.8944 0.0000
vt 0.1768 0.4813
vn 0.0000 1.0000 0.0000
f 335/335/335 336/336/336 337/337/337
v 0.1533 3.7632 0.2110
vt 0.1808 0.4769
vn 0.4757 0.5873 0.6548
v 0.0766 3.8768 0.1055
vt 0.1788 0.4807
vn 0.2692 0.8890 0.3705
v 0.0000 3.8768 0.1304
vt 0.1768 0.4807
vn 0.0000 0.8890 0.4580
v 0.0000 3.7632 0.2607
vt 0.1768 0.4769
vn 0.0000 0.5873 0.8094
f 338/338/338 339/339/339 340/340/340 341/341/341
v 0.0766 3.8768 0.1055
vt 0.1788 0.4807
vn 0.2692 0.8890 0.3705
v 0.1240 3.8768 0.0403
vt 0.1800 0.4807
vn 0.4356 0.8890 0.1415
v 0.0000 3.8944 0.0000
vt 0.1768 0.4813
vn 0.0000 1.0000 0.0000
f 342/342/342 343/343/343 344/344/344
v 0.0000 3.7632 0.2607
vt 0.1768 0.4769
vn 0.0000 0.5873 0.8094
v 0.0000 3.8768 0.1304
vt 0.1768 0.4807
vn 0.0000 0.8890 0.4580
v -0.0766 3.8768 0.1055
vt 0.1748 0.4807
vn -0.2692 0.8890 0.3705
v -0.1533 3.7632 0.2110
vt 0.1728 0.4769
vn -0.4757 0.5873 0.6548
f 345/345/345 346/346/346 347/347/347 348/348/348
v 0.0000 3.8768 0.1304
vt 0.1768 0.4807
vn 0.0000 0.8890 0.4580
v 0.0766 3.8768 0.1055
vt 0.1788 0.4807
vn 0.2692 0.8890 0.3705
v 0.0000 3.8944 0.0000
vt 0.1768 0.4813
vn 0.0000 1.0000 0.0000
f 349/349/349 350/350/350 351/351/351
v -0.1533 3.7632 0.2110
vt 0.1728 0.4769
vn -0.4757 0.5873 0.6548
v -0.0766 3.8768 0.1055
vt 0.1748 0.4807
vn -0.2692 0.8890 0.3705
v -0.1240 3.8768 0.0403
vt 0.1736 0.4807
vn -0.4356 0.8890 0.1415
v -0.2480 3.7632 0.0806
vt 0.1704 0.4769
vn -0.7698 0.5873 0.2501
f 352/352/352 353/353/353 354/354/354 355/355/355
v -0.0766 3.8768 0.1055
vt 0.1748 0.4807
vn -0.2692 0.8890 0.3705
v 0.0000 3.8768 0.1304
vt 0.1768 0.4807
vn 0.0000 0.8890 0.4580
v 0.0000 3.8944 0.0000
vt 0.1768 0.4813
vn 0.0000 1.0000 0.0000
f 356/356/356 357/357/357 358/358/358
v -0.2480 3.7632 0.0806
vt 0.1704 0.4769
vn -0.7698 0.5873 0.2501
v -0.1240 3.8768 0.0403
vt 0.1736 0.4807
vn -0.4356 0.8890 0.1415
v -0.1240 3.8768 -0.0403
vt 0.1736 0.4807
vn -0.4356 0.8890 -0.1415
v -0.2480 3.7632 -0.0806
vt 0.1704 0.4769
vn -0.7698 0.5873 -0.2501
f 359/359/359 360/360/360 361/361/361 362/362/362
v -0.1240 3.8768 0.0403
vt 0.1736 0.4807
vn -0.4356 0.8890 0.1415
v -0.0766 3.8768 0.1055
vt 0.1748 0.4807
vn -0.2692 0.8890 0.3705
v 0.0000 3.8944 0.0000
vt 0.1768 0.4813
vn 0.0000 1.0000 0.0000
f 363/363/363 364/364/364 365/365/365
v -0.2480 3.7632 -0.0806
vt 0.1704 0.4769
vn -0.7698 0.5873 -0.2501
v -0.1240 3.8768 -0.0403
vt 0.1736 0.4807
vn -0.4356 0.8890 -0.1415
v -0.0766 3.8768 -0.1055
vt 0.1748 0.4807
vn -0.2692 0.8890 -0.3705
v -0.1533 3.7632 -0.2110
vt 0.1728 0.4769
vn -0.4757 0.5873 -0.6548
f 366/366/366 367/367/367 368/368/368 369/369/369
v -0.1240 3.8768 -0.0403
vt 0.1736 0.4807
vn -0.4356 0.8890 -0.1415
v -0.1240 3.8768 0.0403
vt 0.1736 0.4807
vn -0.4356 0.8890 0.1415
v 0.0000 3.8944 0.0000
vt 0.1768 0.4813
vn 0.0000 1.0000 0.0000
f 370/370/370 371/371/371 372/372/372
v -0.1533 3.7632 -0.2110
vt 0.1728 0.4769
vn -0.4757 0.5873 -0.6548
v -0.0766 3.8768 -0.1055
vt 0.1748 0.4807
vn -0.2692 0.8890 -0.3705
v 0.0000 3.8768 -0.1304
vt 0.1768 0.4807
vn 0.0000 0.8890 -0.4580
v 0.0000 3.7632 -0.2607
vt 0.1768 0.4769
vn 0.0000 0.5873 -0.8094
f 373/373/373 374/374/374 375/375/375 376/376/376
v -0.0766 3.8768 -0.1055
vt 0.1748 0.4807
vn -0.2692 0.8890 -0.3705
v -0.1240 3.8768 -0.0403
vt 0.1736 0.4807
vn -0.4356 0.8890 -0.1415
v 0.0000 3.8944 0.0000
vt 0.1768 0.4813
vn 0.0000 1.0000 0.0000
f 377/377/377 378/378/378 379/379/379
v 0.0000 3.8768 -0.1304
vt 0.1768 0.4807
vn 0.0000 0.8890 -0.4580
v -0.0766 3.8768 -0.1055
vt 0.1748 0.4807
vn -0.2692 0.8890 -0.3705
v 0.0000 3.8944 0.0000
vt 0.1768 0.4813
vn 0.0000 1.0000 0.0000
f 380/380/380 381/381/381 382/382/382
v -0.0000 2.2849 -0.9705
vt 0.1768 0.3809
vn 0.0000 0.3158 -0.9488
v 0.0000 3.7632 -0.2607
vt 0.1768 0.4769
vn 0.0000 0.5873 -0.8094
v 0.1533 3.7632 -0.2110
vt 0.1808 0.4769
vn 0.4757 0.5873 -0.6548
v 0.5705 2.2849 -0.7852
vt 0.1916 0.3809
vn 0.5577 0.3158 -0.7676
f 383/383/383 384/384/384 385/385/385 386/386/386
v -0.2893 0.4783 0.0940
vt 0.7770 0.8513
vn -0.9505 0.0343 0.3088
v -0.2893 0.4783 -0.0940
vt 0.7770 0.8513
vn -0.9505 0.0343 -0.3088
v -0.3163 -0.3500 -0.1028
vt 0.7763 0.8354
vn -0.9505 0.0343 -0.3088
v -0.3163 -0.3500 0.1028
vt 0.7763 0.8354
vn -0.9505 0.0343 0.3088
f 387/387/387 388/388/388 389/389/389 390/390/390
v 0.1788 0.4783 0.2461
vt 0.7891 0.8513
vn 0.5874 0.0343 0.8085
v 0.0000 0.4783 0.3042
vt 0.7845 0.8513
vn 0.0000 0.0343 0.9994
v -0.0000 -0.3500 0.3326
vt 0.7845 0.8354
vn 0.0000 0.0343 0.9994
v 0.1955 -0.3500 0.2691
vt 0.7895 0.8354
vn 0.5874 0.0343 0.8085
f 391/391/391 392/392/392 393/393/393 394/394/394
v 0.1788 0.4783 -0.2461
vt 0.7891 0.8513
vn 0.5874 0.0343 -0.8085
v 0.2893 0.4783 -0.0940
vt 0.7920 0.8513
vn 0.9505 0.0343 -0.3088
v 0.3163 -0.3500 -0.1028
vt 0.7927 0.8354
vn 0.9505 0.0343 -0.3088
v 0.1955 -0.3500 -0.2691
vt 0.7895 0.8354
vn 0.5874 0.0343 -0.8085
f 395/395/395 396/396/396 397/397/397 398/398/398
v -0.2893 0.4783 -0.0940
vt 0.7770 0.8513
vn -0.9505 0.0343 -0.3088
v -0.1788 0.4783 -0.2461
vt 0.7798 0.8513
vn -0.5874 0.0343 -0.8085
v -0.1955 -0.3500 -0.2691
vt 0.7794 0.8354
vn -0.5874 0.0343 -0.8085
v -0.3163 -0.3500 -0.1028
vt 0.7763 0.8354
vn -0.9505 0.0343 -0.3088
f 399/399/399 400/400/400 401/401/401 402/402/402
v 0.0000 0.4783 0.3042
vt 0.7845 0.8513
vn 0.0000 0.0343 0.9994
v -0.1788 0.4783 0.2461
vt 0.7798 0.8513
vn -0.5874 0.0343 0.8085
v -0.1955 -0.3500 0.2691
vt 0.7794 0.8354
vn -0.5874 0.0343 0.8085
v -0.0000 -0.3500 0.3326
vt 0.7845 0.8354
vn 0.0000 0.0343 0.9994
f 403/403/403 404/404/404 405/405/405 406/406/406
v 0.2893 0.4783 -0.0940
vt 0.7920 0.8513
vn 0.9505 0.0343 -0.3088
v 0.2893 0.4783 0.0940
vt 0.7920 0.8513
vn 0.9505 0.0343 0.3088
v 0.3163 -0.3500 0.1028
vt 0.7927 0.8354
vn 0.9505 0.0343 0.3088
v 0.3163 -0.3500 -0.1028
vt 0.7927 0.8354
vn 0.9505 0.0343 -0.3088
f 407/407/407 408/408/408 409/409/409 410/410/410
v -0.1788 0.4783 -0.2461
vt 0.7798 0.8513
vn -0.5874 0.0343 -0.8085
v 0.0000 0.4783 -0.3042
vt 0.7845 0.8513
vn 0.0000 0.0343 -0.9994
v -0.0000 -0.3500 -0.3326
vt 0.7845 0.8354
vn 0.0000 0.0343 -0.9994
v -0.1955 -0.3500 -0.2691
vt 0.7794 0.8354
vn -0.5874 0.0343 -0.8085
f 411/411/411 412/412/412 413/413/413 414/414/414
v -0.1788 0.4783 0.2461
vt 0.7798 0.8513
vn -0.5874 0.0343 0.8085
v -0.2893 0.4783 0.0940
vt 0.7770 0.8513
vn -0.9505 0.0343 0.3088
v -0.3163 -0.3500 0.1028
vt 0.7763 0.8354
vn -0.9505 0.0343 0.3088
v -0.1955 -0.3500 0.2691
vt 0.7794 0.8354
vn -0.5874 0.0343 0.8085
f 415/415/415 416/416/416 417/417/417 418/418/418
v 0.2893 0.4783 0.0940
vt 0.7920 0.8513
vn 0.9505 0.0343 0.3088
v 0.1788 0.4783 0.2461
vt 0.7891 0.8513
vn 0.5874 0.0343 0.8085
v 0.1955 -0.3500 0.2691
vt 0.7895 0.8354
vn 0.5874 0.0343 0.8085
v 0.3163 -0.3500 0.1028
vt 0.7927 0.8354
vn 0.9505 0.0343 0.3088
f 419/419/419 420/420/420 421/421/421 422/422/422
v 0.5493 2.0477 -0.7561
vt 0.1910 0.3262
vn 0.0521 -0.9961 -0.0717
v 0.3773 2.0216 -0.5193
vt 0.1866 0.3253
vn 0.0521 -0.9961 -0.0717
v 0.0000 2.0216 -0.6419
vt 0.1768 0.3253
vn -0.0000 -0.9961 -0.0887
v -0.0000 2.0477 -0.9346
vt 0.1768 0.3262
vn -0.0000 -0.9961 -0.0887
f 423/423/423 424/424/424 425/425/425 426/426/426
v 0.1788 0.4783 -0.2461
vt 0.1814 0.2740
vn 0.0311 -0.9986 -0.0428
v 0.0000 0.4783 -0.3042
vt 0.1768 0.2740
vn 0.0000 -0.9986 -0.0529
v 0.0000 0.5245 -1.1782
vt 0.1768 0.2755
vn 0.0000 -0.9986 -0.0529
v 0.6925 0.5245 -0.9532
vt 0.1947 0.2755
vn 0.0311 -0.9986 -0.0428
f 427/427/427 428/428/428 429/429/429 430/430/430
v 0.0000 -0.3500 0.0000
vt 0.7845 0.8354
vn -0.0000 -1.0000 0.0000
v -0.0000 -0.3500 -0.3326
vt 0.7845 0.8354
vn -0.0000 -1.0000 0.0000
v 0.1955 -0.3500 -0.2691
vt 0.7895 0.8354
vn -0.0000 -1.0000 0.0000
f 431/431/431 432/432/432 433/433/433
v 0.0000 -0.3500 0.0000
vt 0.7888 0.8354
vn -0.0000 -1.0000 0.0000
v 0.1955 -0.3500 -0.2691
vt 0.7895 0.8354
vn -0.0000 -1.0000 0.0000
v 0.3163 -0.3500 -0.1028
vt 0.7927 0.8354
vn -0.0000 -1.0000 0.0000
f 434/434/434 435/435/435 436/436/436
v 0.0000 -0.3500 0.0000
vt 0.7915 0.8354
vn -0.0000 -1.0000 0.0000
v 0.3163 -0.3500 -0.1028
vt 0.7927 0.8354
vn -0.0000 -1.0000 0.0000
v 0.3163 -0.3500 0.1028
vt 0.7927 0.8354
vn -0.0000 -1.0000 0.0000
f 437/437/437 438/438/438 439/439/439
v 0.0000 -0.3500 0.0000
vt 0.7915 0.8354
vn -0.0000 -1.0000 0.0000
v 0.3163 -0.3500 0.1028
vt 0.7927 0.8354
vn -0.0000 -1.0000 0.0000
v 0.1955 -0.3500 0.2691
vt 0.7895 0.8354
vn -0.0000 -1.0000 0.0000
f 440/440/440 441/441/441 442/442/442
v 0.0000 -0.3500 0.0000
vt 0.7888 0.8354
vn -0.0000 -1.0000 0.0000
v 0.1955 -0.3500 0.2691
vt 0.7895 0.8354
vn -0.0000 -1.0000 0.0000
v -0.0000 -0.3500 0.3326
vt 0.7845 0.8354
vn -0.0000 -1.0000 0.0000
f 443/443/443 444/444/444 445/445/445
v 0.0000 -0.3500 0.0000
vt 0.7845 0.8354
vn -0.0000 -1.0000 0.0000
v -0.0000 -0.3500 0.3326
vt 0.7845 0.8354
vn -0.0000 -1.0000 0.0000
v -0.1955 -0.3500 0.2691
vt 0.7794 0.8354
vn -0.0000 -1.0000 0.0000
f 446/446/446 447/447/447 448/448/448
v 0.0000 -0.3500 0.0000
vt 0.7801 0.8354
vn -0.0000 -1.0000 0.0000
v -0.1955 -0.3500 0.2691
vt 0.7794 0.8354
vn -0.0000 -1.0000 0.0000
v -0.3163 -0.3500 0.1028
vt 0.7763 0.8354
vn -0.0000 -1.0000 0.0000
f 449/449/449 450/450/450 451/451/451
v 0.0000 -0.3500 0.0000
vt 0.7774 0.8354
vn -0.0000 -1.0000 0.0000
v -0.3163 -0.3500 0.1028
vt 0.7763 0.8354
vn -0.0000 -1.0000 0.0000
v -0.3163 -0.3500 -0.1028
vt 0.7763 0.8354
vn -0.0000 -1.0000 0.0000
f 452/452/452 453/453/453 454/454/454
v 0.0000 -0.3500 0.0000
vt 0.7774 0.8354
vn -0.0000 -1.0000 0.0000
v -0.3163 -0.3500 -0.1028
vt 0.7763 0.8354
vn -0.0000 -1.0000 0.0000
v -0.1955 -0.3500 -0.2691
vt 0.7794 0.8354
vn -0.0000 -1.0000 0.0000
f 455/455/455 456/456/456 457/457/457
v 0.0000 -0.3500 0.0000
vt 0.7801 0.8354
vn -0.0000 -1.0000 0.0000
v -0.1955 -0.3500 -0.2691
vt 0.7794 0.8354
vn -0.0000 -1.0000 0.0000
v -0.0000 -0.3500 -0.3326
vt 0.7845 0.8354
vn -0.0000 -1.0000 0.0000
f 458/458/458 459/459/459 460/460/460
