# Blender 4.5.13 LTS
# www.blender.org
o bricks
v -0.900000 0.000000 0.175000
v -0.900000 1.600000 0.175000
v -0.900000 0.000000 -0.175000
v -0.900000 1.600000 -0.175000
v 0.900000 0.000000 0.175000
v 0.900000 1.600000 0.175000
v 0.900000 0.000000 -0.175000
v 0.900000 1.600000 -0.175000
v -0.930000 1.580000 0.210000
v -0.930000 1.680000 0.210000
v -0.930000 1.580000 -0.210000
v -0.930000 1.680000 -0.210000
v 0.930000 1.580000 0.210000
v 0.930000 1.680000 0.210000
v 0.930000 1.580000 -0.210000
v 0.930000 1.680000 -0.210000
v -0.350000 0.005000 0.220000
v -0.350000 1.155000 0.220000
v -0.350000 0.005000 0.180000
v -0.350000 1.155000 0.180000
v 0.350000 0.005000 0.220000
v 0.350000 1.155000 0.220000
v 0.350000 0.005000 0.180000
v 0.350000 1.155000 0.180000
vn -1.0000 -0.0000 -0.0000
vn -0.0000 -0.0000 -1.0000
vn 1.0000 -0.0000 -0.0000
vn -0.0000 -0.0000 1.0000
vn -0.0000 -1.0000 -0.0000
vn -0.0000 1.0000 -0.0000
vt 0.696655 0.928256
vt 0.696655 0.492822
vt 0.791906 0.492822
vt 0.791906 0.928256
vt 0.436420 0.490850
vt 0.000986 0.490850
vt 0.000986 0.000986
vt 0.436420 0.000986
vt 0.875799 0.944585
vt 0.875799 0.509150
vt 0.971050 0.509150
vt 0.971050 0.944585
vt 0.873827 0.490850
vt 0.438392 0.490850
vt 0.438392 0.000986
vt 0.873827 0.000986
vt 0.597460 0.492822
vt 0.597460 0.982685
vt 0.502208 0.982685
vt 0.502208 0.492822
vt 0.694683 0.492822
vt 0.694683 0.982685
vt 0.599432 0.982685
vt 0.599432 0.492822
vt 0.028201 0.922063
vt 0.000986 0.922063
vt 0.000986 0.807762
vt 0.028201 0.807762
vt 0.821093 0.999014
vt 0.793878 0.999014
vt 0.793878 0.492822
vt 0.821093 0.492822
vt 0.057387 0.922063
vt 0.030173 0.922063
vt 0.030173 0.807762
vt 0.057387 0.807762
vt 0.850279 0.999014
vt 0.823065 0.999014
vt 0.823065 0.492822
vt 0.850279 0.492822
vt 0.990100 0.000986
vt 0.990100 0.507178
vt 0.875799 0.507178
vt 0.875799 0.000986
vt 0.500236 0.492822
vt 0.500236 0.999014
vt 0.385935 0.999014
vt 0.385935 0.492822
vt 0.852251 0.805790
vt 0.852251 0.492822
vt 0.863137 0.492822
vt 0.863137 0.805790
vt 0.000986 0.805790
vt 0.000986 0.492822
vt 0.191488 0.492822
vt 0.191488 0.805790
vt 0.973022 0.822119
vt 0.973022 0.509150
vt 0.983908 0.509150
vt 0.983908 0.822119
vt 0.193460 0.805790
vt 0.193460 0.492822
vt 0.383963 0.492822
vt 0.383963 0.805790
vt 0.996766 0.509150
vt 0.996766 0.699653
vt 0.985880 0.699653
vt 0.985880 0.509150
vt 0.996766 0.701625
vt 0.996766 0.892127
vt 0.985880 0.892127
vt 0.985880 0.701625
s 0
f 1/1/1 2/2/1 4/3/1 3/4/1
f 3/5/2 4/6/2 8/7/2 7/8/2
f 7/9/3 8/10/3 6/11/3 5/12/3
f 5/13/4 6/14/4 2/15/4 1/16/4
f 3/17/5 7/18/5 5/19/5 1/20/5
f 8/21/6 4/22/6 2/23/6 6/24/6
f 9/25/1 10/26/1 12/27/1 11/28/1
f 11/29/2 12/30/2 16/31/2 15/32/2
f 15/33/3 16/34/3 14/35/3 13/36/3
f 13/37/4 14/38/4 10/39/4 9/40/4
f 11/41/5 15/42/5 13/43/5 9/44/5
f 16/45/6 12/46/6 10/47/6 14/48/6
f 17/49/1 18/50/1 20/51/1 19/52/1
f 19/53/2 20/54/2 24/55/2 23/56/2
f 23/57/3 24/58/3 22/59/3 21/60/3
f 21/61/4 22/62/4 18/63/4 17/64/4
f 19/65/5 23/66/5 21/67/5 17/68/5
f 24/69/6 20/70/6 18/71/6 22/72/6
