# Blender 4.5.13 LTS
# www.blender.org
o bricks
v -0.900000 0.000000 0.175000
v -0.900000 1.600000 0.175000
v -0.900000 0.000000 -0.175000
v -0.900000 1.600000 -0.175000
v 0.900000 0.000000 0.175000
v 0.900000 1.600000 0.175000
v 0.900000 0.000000 -0.175000
v 0.900000 1.600000 -0.175000
v -0.930000 1.580000 0.210000
v -0.930000 1.680000 0.210000
v -0.930000 1.580000 -0.210000
v -0.930000 1.680000 -0.210000
v 0.930000 1.580000 0.210000
v 0.930000 1.680000 0.210000
v 0.930000 1.580000 -0.210000
v 0.930000 1.680000 -0.210000
v -0.225000 0.000000 0.250000
v -0.225000 1.750000 0.250000
v -0.225000 0.000000 -0.250000
v -0.225000 1.750000 -0.250000
v 0.225000 0.000000 0.250000
v 0.225000 1.750000 0.250000
v 0.225000 0.000000 -0.250000
v 0.225000 1.750000 -0.250000
v -0.025000 1.095000 0.390000
v -0.025000 1.145000 0.390000
v -0.025000 1.095000 0.230000
v -0.025000 1.145000 0.230000
v 0.025000 1.095000 0.390000
v 0.025000 1.145000 0.390000
v 0.025000 1.095000 0.230000
v 0.025000 1.145000 0.230000
v 0.000000 1.100000 0.330000
v 0.000000 1.200000 0.300000
v 0.049497 1.100000 0.350503
v 0.070711 1.200000 0.329289
v 0.070000 1.100000 0.400000
v 0.100000 1.200000 0.400000
v 0.049497 1.100000 0.449497
v 0.070711 1.200000 0.470711
v 0.000000 1.100000 0.470000
v 0.000000 1.200000 0.500000
v -0.049497 1.100000 0.449497
v -0.070711 1.200000 0.470711
v -0.070000 1.100000 0.400000
v -0.100000 1.200000 0.400000
v -0.049497 1.100000 0.350503
v -0.070711 1.200000 0.329289
v 0.000000 1.200000 0.330000
v 0.000000 1.420000 0.395000
v 0.060622 1.200000 0.365000
v 0.004330 1.420000 0.397500
v 0.060622 1.200000 0.435000
v 0.004330 1.420000 0.402500
v 0.000000 1.200000 0.470000
v 0.000000 1.420000 0.405000
v -0.060622 1.200000 0.435000
v -0.004330 1.420000 0.402500
v -0.060622 1.200000 0.365000
v -0.004330 1.420000 0.397500
v -0.025000 1.095000 -0.230000
v -0.025000 1.145000 -0.230000
v -0.025000 1.095000 -0.390000
v -0.025000 1.145000 -0.390000
v 0.025000 1.095000 -0.230000
v 0.025000 1.145000 -0.230000
v 0.025000 1.095000 -0.390000
v 0.025000 1.145000 -0.390000
v 0.000000 1.100000 -0.470000
v 0.000000 1.200000 -0.500000
v 0.049497 1.100000 -0.449497
v 0.070711 1.200000 -0.470711
v 0.070000 1.100000 -0.400000
v 0.100000 1.200000 -0.400000
v 0.049497 1.100000 -0.350503
v 0.070711 1.200000 -0.329289
v 0.000000 1.100000 -0.330000
v 0.000000 1.200000 -0.300000
v -0.049497 1.100000 -0.350503
v -0.070711 1.200000 -0.329289
v -0.070000 1.100000 -0.400000
v -0.100000 1.200000 -0.400000
v -0.049497 1.100000 -0.449497
v -0.070711 1.200000 -0.470711
v 0.000000 1.200000 -0.470000
v 0.000000 1.420000 -0.405000
v 0.060622 1.200000 -0.435000
v 0.004330 1.420000 -0.402500
v 0.060622 1.200000 -0.365000
v 0.004330 1.420000 -0.397500
v 0.000000 1.200000 -0.330000
v 0.000000 1.420000 -0.395000
v -0.060622 1.200000 -0.365000
v -0.004330 1.420000 -0.397500
v -0.060622 1.200000 -0.435000
v -0.004330 1.420000 -0.402500
vn -1.0000 -0.0000 -0.0000
vn -0.0000 -0.0000 -1.0000
vn 1.0000 -0.0000 -0.0000
vn -0.0000 -0.0000 1.0000
vn -0.0000 -1.0000 -0.0000
vn -0.0000 1.0000 -0.0000
vn 0.3688 -0.2671 -0.8903
vn 0.8903 -0.2671 -0.3688
vn 0.8903 -0.2671 0.3688
vn 0.3688 -0.2671 0.8903
vn -0.3688 -0.2671 0.8903
vn -0.8903 -0.2671 0.3688
vn -0.8903 -0.2671 -0.3688
vn -0.3688 -0.2671 -0.8903
vn 0.4844 0.2479 -0.8390
vn 0.9688 0.2479 -0.0000
vn 0.4844 0.2479 0.8390
vn -0.4844 0.2479 0.8390
vn -0.9688 0.2479 -0.0000
vn -0.4844 0.2479 -0.8390
vt 0.790954 0.459876
vt 0.876741 0.851463
vt 0.790954 0.851463
vt 0.001326 0.442517
vt 0.393488 0.001326
vt 0.393488 0.442517
vt 0.879394 0.459876
vt 0.965181 0.851463
vt 0.879394 0.851463
vt 0.396140 0.442517
vt 0.788302 0.001326
vt 0.788301 0.442517
vt 0.669022 0.886360
vt 0.583235 0.445169
vt 0.669022 0.445169
vt 0.757461 0.886360
vt 0.671674 0.445169
vt 0.757461 0.445169
vt 0.923714 0.104271
vt 0.948188 0.001326
vt 0.948188 0.104271
vt 0.760114 0.901067
vt 0.784624 0.445169
vt 0.784624 0.901067
vt 0.923714 0.209868
vt 0.948188 0.106923
vt 0.948188 0.209868
vt 0.896551 0.457223
vt 0.921061 0.001326
vt 0.921061 0.457223
vt 0.893898 0.457223
vt 0.790954 0.001326
vt 0.893899 0.001326
vt 0.580582 0.901067
vt 0.477638 0.445169
vt 0.580582 0.445169
vt 0.001326 0.445169
vt 0.123879 0.873468
vt 0.001326 0.873468
vt 0.251737 0.445169
vt 0.362035 0.874096
vt 0.251737 0.874096
vt 0.126532 0.445169
vt 0.249085 0.873468
vt 0.126532 0.873468
vt 0.364687 0.445169
vt 0.474985 0.874096
vt 0.364687 0.874096
vt 0.790954 0.976669
vt 0.901252 0.854116
vt 0.901252 0.976669
vt 0.001326 0.998674
vt 0.111624 0.876121
vt 0.111624 0.998674
vt 0.923714 0.935202
vt 0.935951 0.895985
vt 0.935951 0.935202
vt 0.903904 0.922116
vt 0.916159 0.909860
vt 0.916159 0.922116
vt 0.559365 0.942936
vt 0.571602 0.903719
vt 0.571602 0.942936
vt 0.413587 0.923359
vt 0.425842 0.911104
vt 0.425842 0.923359
vt 0.923714 0.363226
vt 0.935969 0.324009
vt 0.935969 0.363226
vt 0.923714 0.405095
vt 0.935969 0.365878
vt 0.935969 0.405095
vt 0.753383 0.906344
vt 0.728793 0.918476
vt 0.728826 0.906344
vt 0.642347 0.889013
vt 0.617863 0.906344
vt 0.617590 0.894212
vt 0.642738 0.906344
vt 0.617590 0.918476
vt 0.529424 0.903719
vt 0.504912 0.921051
vt 0.504880 0.908918
vt 0.529470 0.921051
vt 0.504880 0.933183
vt 0.645391 0.894212
vt 0.670539 0.906344
vt 0.645664 0.906344
vt 0.127541 0.876121
vt 0.159566 0.889386
vt 0.146301 0.921411
vt 0.645391 0.918476
vt 0.728793 0.894212
vt 0.422873 0.876748
vt 0.445290 0.886034
vt 0.436004 0.908451
vt 0.225019 0.876121
vt 0.239878 0.929996
vt 0.225020 0.929940
vt 0.911870 0.854116
vt 0.921062 0.907208
vt 0.903904 0.907208
vt 0.265535 0.876752
vt 0.266596 0.930568
vt 0.251737 0.930623
vt 0.266596 0.876748
vt 0.281455 0.930623
vt 0.242531 0.877959
vt 0.243592 0.876121
vt 0.244653 0.877959
vt 0.455908 0.876748
vt 0.465100 0.929840
vt 0.447942 0.929840
vt 0.223958 0.876125
vt 0.210161 0.929996
vt 0.348847 0.902485
vt 0.363706 0.876748
vt 0.378565 0.902485
vt 0.760114 0.942936
vt 0.772351 0.903719
vt 0.772351 0.942936
vt 0.428495 0.923359
vt 0.440750 0.911104
vt 0.440750 0.923359
vt 0.775003 0.942936
vt 0.787241 0.903719
vt 0.787241 0.942936
vt 0.348847 0.925971
vt 0.361102 0.913716
vt 0.361102 0.925971
vt 0.923714 0.446965
vt 0.935969 0.407748
vt 0.935969 0.446965
vt 0.923714 0.893333
vt 0.935969 0.854116
vt 0.935969 0.893333
vt 0.556712 0.921051
vt 0.532122 0.933183
vt 0.532155 0.921051
vt 0.673191 0.894212
vt 0.698340 0.906344
vt 0.673465 0.906344
vt 0.673191 0.918476
vt 0.477637 0.908918
vt 0.502227 0.921051
vt 0.477670 0.921051
vt 0.477637 0.933183
vt 0.725750 0.889013
vt 0.701266 0.906344
vt 0.700992 0.894212
vt 0.175484 0.876121
vt 0.207508 0.889386
vt 0.194243 0.921411
vt 0.726141 0.906344
vt 0.700992 0.918476
vt 0.556666 0.903719
vt 0.532122 0.908918
vt 0.592520 0.889013
vt 0.614937 0.898298
vt 0.605652 0.920715
vt 0.298966 0.876748
vt 0.313825 0.930623
vt 0.298966 0.930568
vt 0.931680 0.212520
vt 0.940871 0.265612
vt 0.923714 0.265612
vt 0.330275 0.876752
vt 0.331336 0.930568
vt 0.316477 0.930623
vt 0.331336 0.876748
vt 0.346195 0.930623
vt 0.467752 0.878587
vt 0.468814 0.876748
vt 0.469875 0.878587
vt 0.931680 0.268265
vt 0.940871 0.321356
vt 0.923714 0.321356
vt 0.297905 0.876752
vt 0.284107 0.930623
vt 0.381217 0.902484
vt 0.396076 0.876748
vt 0.410935 0.902484
vt 0.876741 0.459876
vt 0.001326 0.001326
vt 0.965181 0.459876
vt 0.396140 0.001326
vt 0.583235 0.886360
vt 0.671674 0.886360
vt 0.923714 0.001326
vt 0.760114 0.445169
vt 0.923714 0.106923
vt 0.896551 0.001326
vt 0.790954 0.457223
vt 0.477637 0.901066
vt 0.123879 0.445169
vt 0.362035 0.445169
vt 0.249085 0.445169
vt 0.474985 0.445169
vt 0.790954 0.854116
vt 0.001326 0.876121
vt 0.923714 0.895985
vt 0.903904 0.909860
vt 0.559365 0.903719
vt 0.413587 0.911104
vt 0.923714 0.324009
vt 0.923714 0.365878
vt 0.753337 0.923676
vt 0.642347 0.923676
vt 0.529424 0.938382
vt 0.670148 0.889013
vt 0.127541 0.921411
vt 0.114276 0.908145
vt 0.114276 0.889386
vt 0.146301 0.876121
vt 0.159566 0.908145
vt 0.670148 0.923676
vt 0.753337 0.889013
vt 0.422873 0.908451
vt 0.413587 0.899166
vt 0.413587 0.886034
vt 0.436004 0.876748
vt 0.445290 0.899166
vt 0.226081 0.876125
vt 0.913096 0.854116
vt 0.267657 0.876752
vt 0.243592 0.878572
vt 0.242531 0.876734
vt 0.244653 0.876734
vt 0.457134 0.876748
vt 0.363706 0.911063
vt 0.348847 0.885327
vt 0.378565 0.885327
vt 0.760114 0.903719
vt 0.428495 0.911104
vt 0.775003 0.903719
vt 0.348847 0.913716
vt 0.923714 0.407748
vt 0.923714 0.854116
vt 0.556666 0.938382
vt 0.697949 0.889013
vt 0.697949 0.923676
vt 0.502181 0.903719
vt 0.502181 0.938382
vt 0.175484 0.921411
vt 0.162219 0.908145
vt 0.162219 0.889386
vt 0.194243 0.876121
vt 0.207508 0.908145
vt 0.725750 0.923676
vt 0.592520 0.920715
vt 0.583234 0.911430
vt 0.583234 0.898298
vt 0.605652 0.889013
vt 0.614937 0.911430
vt 0.300027 0.876752
vt 0.932905 0.212520
vt 0.332397 0.876752
vt 0.468814 0.879200
vt 0.467752 0.877361
vt 0.469875 0.877361
vt 0.932905 0.268265
vt 0.396076 0.911063
vt 0.381217 0.885327
vt 0.410935 0.885327
s 0
f 2/1/1 3/2/1 1/3/1
f 4/4/2 7/5/2 3/6/2
f 8/7/3 5/8/3 7/9/3
f 6/10/4 1/11/4 5/12/4
f 7/13/5 1/14/5 3/15/5
f 4/16/6 6/17/6 8/18/6
f 10/19/1 11/20/1 9/21/1
f 12/22/2 15/23/2 11/24/2
f 16/25/3 13/26/3 15/27/3
f 14/28/4 9/29/4 13/30/4
f 15/31/5 9/32/5 11/33/5
f 12/34/6 14/35/6 16/36/6
f 18/37/1 19/38/1 17/39/1
f 20/40/2 23/41/2 19/42/2
f 24/43/3 21/44/3 23/45/3
f 22/46/4 17/47/4 21/48/4
f 23/49/5 17/50/5 19/51/5
f 20/52/6 22/53/6 24/54/6
f 26/55/1 27/56/1 25/57/1
f 28/58/2 31/59/2 27/60/2
f 32/61/3 29/62/3 31/63/3
f 30/64/4 25/65/4 29/66/4
f 31/67/5 25/68/5 27/69/5
f 28/70/6 30/71/6 32/72/6
f 34/73/7 35/74/7 33/75/7
f 36/76/8 37/77/8 35/78/8
f 38/79/9 39/80/9 37/77/9
f 40/81/10 41/82/10 39/83/10
f 42/84/11 43/85/11 41/82/11
f 43/86/12 46/87/12 45/88/12
f 46/89/6 42/90/6 38/91/6
f 46/87/13 47/92/13 45/88/13
f 47/93/14 34/73/14 33/75/14
f 39/94/5 43/95/5 47/96/5
f 50/97/15 51/98/15 49/99/15
f 52/100/16 53/101/16 51/102/16
f 54/103/17 55/104/17 53/105/17
f 56/106/18 57/107/18 55/104/18
f 50/108/6 58/109/6 54/110/6
f 58/111/19 59/112/19 57/113/19
f 60/114/20 49/99/20 59/115/20
f 51/116/5 55/117/5 59/118/5
f 62/119/1 63/120/1 61/121/1
f 64/122/2 67/123/2 63/124/2
f 68/125/3 65/126/3 67/127/3
f 66/128/4 61/129/4 65/130/4
f 67/131/5 61/132/5 63/133/5
f 64/134/6 66/135/6 68/136/6
f 70/137/7 71/138/7 69/139/7
f 71/140/8 74/141/8 73/142/8
f 74/141/9 75/143/9 73/142/9
f 75/144/10 78/145/10 77/146/10
f 78/145/11 79/147/11 77/146/11
f 80/148/12 81/149/12 79/150/12
f 82/151/6 78/152/6 74/153/6
f 82/154/13 83/155/13 81/149/13
f 84/156/14 69/139/14 83/157/14
f 75/158/5 79/159/5 83/160/5
f 86/161/15 87/162/15 85/163/15
f 88/164/16 89/165/16 87/166/16
f 90/167/17 91/168/17 89/169/17
f 92/170/18 93/171/18 91/168/18
f 86/172/6 94/173/6 90/174/6
f 94/175/19 95/176/19 93/177/19
f 96/178/20 85/163/20 95/179/20
f 87/180/5 91/181/5 95/182/5
f 2/1/1 4/183/1 3/2/1
f 4/4/2 8/184/2 7/5/2
f 8/7/3 6/185/3 5/8/3
f 6/10/4 2/186/4 1/11/4
f 7/13/5 5/187/5 1/14/5
f 4/16/6 2/188/6 6/17/6
f 10/19/1 12/189/1 11/20/1
f 12/22/2 16/190/2 15/23/2
f 16/25/3 14/191/3 13/26/3
f 14/28/4 10/192/4 9/29/4
f 15/31/5 13/193/5 9/32/5
f 12/34/6 10/194/6 14/35/6
f 18/37/1 20/195/1 19/38/1
f 20/40/2 24/196/2 23/41/2
f 24/43/3 22/197/3 21/44/3
f 22/46/4 18/198/4 17/47/4
f 23/49/5 21/199/5 17/50/5
f 20/52/6 18/200/6 22/53/6
f 26/55/1 28/201/1 27/56/1
f 28/58/2 32/202/2 31/59/2
f 32/61/3 30/203/3 29/62/3
f 30/64/4 26/204/4 25/65/4
f 31/67/5 29/205/5 25/68/5
f 28/70/6 26/206/6 30/71/6
f 34/73/7 36/207/7 35/74/7
f 36/76/8 38/79/8 37/77/8
f 38/79/9 40/208/9 39/80/9
f 40/81/10 42/84/10 41/82/10
f 42/84/11 44/209/11 43/85/11
f 43/86/12 44/210/12 46/87/12
f 38/91/6 36/211/6 34/212/6
f 34/212/6 48/213/6 46/89/6
f 46/89/6 44/214/6 42/90/6
f 42/90/6 40/215/6 38/91/6
f 38/91/6 34/212/6 46/89/6
f 46/87/13 48/216/13 47/92/13
f 47/93/14 48/217/14 34/73/14
f 47/96/5 33/218/5 35/219/5
f 35/219/5 37/220/5 39/94/5
f 39/94/5 41/221/5 43/95/5
f 43/95/5 45/222/5 47/96/5
f 47/96/5 35/219/5 39/94/5
f 50/97/15 52/223/15 51/98/15
f 52/100/16 54/224/16 53/101/16
f 54/103/17 56/106/17 55/104/17
f 56/106/18 58/225/18 57/107/18
f 54/110/6 52/226/6 50/108/6
f 50/108/6 60/227/6 58/109/6
f 58/109/6 56/228/6 54/110/6
f 58/111/19 60/229/19 59/112/19
f 60/114/20 50/97/20 49/99/20
f 59/118/5 49/230/5 51/116/5
f 51/116/5 53/231/5 55/117/5
f 55/117/5 57/232/5 59/118/5
f 62/119/1 64/233/1 63/120/1
f 64/122/2 68/234/2 67/123/2
f 68/125/3 66/235/3 65/126/3
f 66/128/4 62/236/4 61/129/4
f 67/131/5 65/237/5 61/132/5
f 64/134/6 62/238/6 66/135/6
f 70/137/7 72/239/7 71/138/7
f 71/140/8 72/240/8 74/141/8
f 74/141/9 76/241/9 75/143/9
f 75/144/10 76/242/10 78/145/10
f 78/145/11 80/243/11 79/147/11
f 80/148/12 82/154/12 81/149/12
f 74/153/6 72/244/6 70/245/6
f 70/245/6 84/246/6 82/151/6
f 82/151/6 80/247/6 78/152/6
f 78/152/6 76/248/6 74/153/6
f 74/153/6 70/245/6 82/151/6
f 82/154/13 84/249/13 83/155/13
f 84/156/14 70/137/14 69/139/14
f 83/160/5 69/250/5 71/251/5
f 71/251/5 73/252/5 75/158/5
f 75/158/5 77/253/5 79/159/5
f 79/159/5 81/254/5 83/160/5
f 83/160/5 71/251/5 75/158/5
f 86/161/15 88/255/15 87/162/15
f 88/164/16 90/256/16 89/165/16
f 90/167/17 92/170/17 91/168/17
f 92/170/18 94/257/18 93/171/18
f 90/174/6 88/258/6 86/172/6
f 86/172/6 96/259/6 94/173/6
f 94/173/6 92/260/6 90/174/6
f 94/175/19 96/261/19 95/176/19
f 96/178/20 86/161/20 85/163/20
f 95/182/5 85/262/5 87/180/5
f 87/180/5 89/263/5 91/181/5
f 91/181/5 93/264/5 95/182/5
