# Blender 4.5.13 LTS
# www.blender.org
o bricks
v -0.900000 0.000000 0.175000
v -0.900000 1.600000 0.175000
v -0.900000 0.000000 -0.175000
v -0.900000 1.600000 -0.175000
v 0.900000 0.000000 0.175000
v 0.900000 1.600000 0.175000
v 0.900000 0.000000 -0.175000
v 0.900000 1.600000 -0.175000
v -0.930000 1.580000 0.210000
v -0.930000 1.680000 0.210000
v -0.930000 1.580000 -0.210000
v -0.930000 1.680000 -0.210000
v 0.930000 1.580000 0.210000
v 0.930000 1.680000 0.210000
v 0.930000 1.580000 -0.210000
v 0.930000 1.680000 -0.210000
vn -1.0000 -0.0000 -0.0000
vn -0.0000 -0.0000 -1.0000
vn 1.0000 -0.0000 -0.0000
vn -0.0000 -0.0000 1.0000
vn -0.0000 -1.0000 -0.0000
vn -0.0000 1.0000 -0.0000
vt 0.426456 0.928405
vt 0.426456 0.492607
vt 0.521787 0.492607
vt 0.521787 0.928405
vt 0.436576 0.491051
vt 0.000778 0.491051
vt 0.000778 0.000778
vt 0.436576 0.000778
vt 0.523342 0.928405
vt 0.523342 0.492607
vt 0.618673 0.492607
vt 0.618673 0.928405
vt 0.873930 0.491051
vt 0.438132 0.491051
vt 0.438132 0.000778
vt 0.873930 0.000778
vt 0.328014 0.492607
vt 0.328014 0.982880
vt 0.232683 0.982880
vt 0.232683 0.492607
vt 0.424901 0.492607
vt 0.424900 0.982880
vt 0.329570 0.982880
vt 0.329570 0.492607
vt 0.705052 0.607004
vt 0.677815 0.607004
vt 0.677815 0.492607
vt 0.705052 0.492607
vt 0.647466 0.999222
vt 0.620229 0.999222
vt 0.620229 0.492607
vt 0.647466 0.492607
vt 0.733845 0.607004
vt 0.706608 0.607004
vt 0.706608 0.492607
vt 0.733845 0.492607
vt 0.676259 0.999222
vt 0.649022 0.999222
vt 0.649022 0.492607
vt 0.676259 0.492607
vt 0.115175 0.492607
vt 0.115175 0.999222
vt 0.000778 0.999222
vt 0.000778 0.492607
vt 0.231128 0.492607
vt 0.231127 0.999222
vt 0.116730 0.999222
vt 0.116730 0.492607
s 0
f 1/1/1 2/2/1 4/3/1 3/4/1
f 3/5/2 4/6/2 8/7/2 7/8/2
f 7/9/3 8/10/3 6/11/3 5/12/3
f 5/13/4 6/14/4 2/15/4 1/16/4
f 3/17/5 7/18/5 5/19/5 1/20/5
f 8/21/6 4/22/6 2/23/6 6/24/6
f 9/25/1 10/26/1 12/27/1 11/28/1
f 11/29/2 12/30/2 16/31/2 15/32/2
f 15/33/3 16/34/3 14/35/3 13/36/3
f 13/37/4 14/38/4 10/39/4 9/40/4
f 11/41/5 15/42/5 13/43/5 9/44/5
f 16/45/6 12/46/6 10/47/6 14/48/6
