# Blender 4.5.13 LTS
# www.blender.org
o bricks
v -0.900000 0.000000 0.175000
v -0.900000 0.630488 0.175000
v -0.900000 0.000000 -0.175000
v -0.900000 0.630488 -0.175000
v -0.600000 0.000000 0.175000
v -0.600000 0.630488 0.175000
v -0.600000 0.000000 -0.175000
v -0.600000 0.630488 -0.175000
v -0.600000 0.000000 0.175000
v -0.600000 1.429126 0.175000
v -0.600000 0.000000 -0.175000
v -0.600000 1.429126 -0.175000
v -0.300000 0.000000 0.175000
v -0.300000 1.429126 0.175000
v -0.300000 0.000000 -0.175000
v -0.300000 1.429126 -0.175000
v -0.300000 0.000000 0.175000
v -0.300000 1.335428 0.175000
v -0.300000 0.000000 -0.175000
v -0.300000 1.335428 -0.175000
v 0.000000 0.000000 0.175000
v 0.000000 1.335428 0.175000
v 0.000000 0.000000 -0.175000
v 0.000000 1.335428 -0.175000
v 0.000000 0.000000 0.175000
v 0.000000 0.765677 0.175000
v 0.000000 0.000000 -0.175000
v 0.000000 0.765677 -0.175000
v 0.300000 0.000000 0.175000
v 0.300000 0.765677 0.175000
v 0.300000 0.000000 -0.175000
v 0.300000 0.765677 -0.175000
v 0.300000 0.000000 0.175000
v 0.300000 1.034887 0.175000
v 0.300000 0.000000 -0.175000
v 0.300000 1.034887 -0.175000
v 0.600000 0.000000 0.175000
v 0.600000 1.034887 0.175000
v 0.600000 0.000000 -0.175000
v 0.600000 1.034887 -0.175000
v 0.600000 0.000000 0.175000
v 0.600000 0.983430 0.175000
v 0.600000 0.000000 -0.175000
v 0.600000 0.983430 -0.175000
v 0.900000 0.000000 0.175000
v 0.900000 0.983430 0.175000
v 0.900000 0.000000 -0.175000
v 0.900000 0.983430 -0.175000
vn -1.0000 -0.0000 -0.0000
vn -0.0000 -0.0000 -1.0000
vn 1.0000 -0.0000 -0.0000
vn -0.0000 -0.0000 1.0000
vn -0.0000 -1.0000 -0.0000
vn -0.0000 1.0000 -0.0000
vt 0.709026 0.698887
vt 0.813324 0.886769
vt 0.709026 0.886769
vt 0.323925 0.714221
vt 0.413324 0.902104
vt 0.323925 0.902104
vt 0.216476 0.714221
vt 0.320774 0.902104
vt 0.216476 0.902104
vt 0.001576 0.726809
vt 0.090974 0.914691
vt 0.001576 0.914691
vt 0.894126 0.337194
vt 0.983525 0.232895
vt 0.983525 0.337194
vt 0.709026 0.994219
vt 0.798424 0.889921
vt 0.798424 0.994219
vt 0.001576 0.001576
vt 0.105874 0.427448
vt 0.001576 0.427448
vt 0.431375 0.001576
vt 0.520774 0.427448
vt 0.431375 0.427448
vt 0.109026 0.001576
vt 0.213324 0.427448
vt 0.109026 0.427448
vt 0.523925 0.001576
vt 0.613324 0.427448
vt 0.523925 0.427448
vt 0.523925 0.831107
vt 0.613324 0.726809
vt 0.613324 0.831107
vt 0.109026 0.846441
vt 0.198424 0.742143
vt 0.198424 0.846441
vt 0.216476 0.001576
vt 0.320774 0.399527
vt 0.216476 0.399527
vt 0.616476 0.001576
vt 0.705874 0.399527
vt 0.616476 0.399527
vt 0.323925 0.001576
vt 0.428224 0.399527
vt 0.323925 0.399527
vt 0.709026 0.001576
vt 0.798424 0.399527
vt 0.709026 0.399527
vt 0.523925 0.938557
vt 0.613324 0.834259
vt 0.613324 0.938557
vt 0.109026 0.953891
vt 0.198424 0.849593
vt 0.198424 0.953891
vt 0.801576 0.001576
vt 0.905874 0.229744
vt 0.801576 0.229744
vt 0.816476 0.633998
vt 0.905874 0.862166
vt 0.816476 0.862166
vt 0.816476 0.402678
vt 0.920774 0.630846
vt 0.816476 0.630846
vt 0.616476 0.698887
vt 0.705874 0.927055
vt 0.616476 0.927055
vt 0.431375 0.953891
vt 0.520774 0.849593
vt 0.520774 0.953891
vt 0.816476 0.969616
vt 0.905874 0.865318
vt 0.905874 0.969616
vt 0.216476 0.402678
vt 0.320774 0.711070
vt 0.216476 0.711070
vt 0.109026 0.430600
vt 0.198424 0.738991
vt 0.109026 0.738991
vt 0.323925 0.402678
vt 0.428224 0.711070
vt 0.323925 0.711070
vt 0.431375 0.430600
vt 0.520774 0.738991
vt 0.431375 0.738991
vt 0.431375 0.846441
vt 0.520774 0.742143
vt 0.520774 0.846441
vt 0.801576 0.337194
vt 0.890974 0.232895
vt 0.890974 0.337194
vt 0.616476 0.402678
vt 0.720774 0.695736
vt 0.616476 0.695736
vt 0.523925 0.430600
vt 0.613324 0.723657
vt 0.523925 0.723657
vt 0.001576 0.430600
vt 0.105874 0.723657
vt 0.001576 0.723657
vt 0.723925 0.402678
vt 0.813324 0.695736
vt 0.723925 0.695736
vt 0.909026 0.105874
vt 0.998424 0.001576
vt 0.998424 0.105874
vt 0.909026 0.213324
vt 0.998424 0.109026
vt 0.998424 0.213324
vt 0.813324 0.698887
vt 0.413324 0.714221
vt 0.320774 0.714221
vt 0.090974 0.726809
vt 0.894126 0.232895
vt 0.709026 0.889921
vt 0.105874 0.001576
vt 0.520774 0.001576
vt 0.213324 0.001576
vt 0.613324 0.001576
vt 0.523925 0.726809
vt 0.109026 0.742143
vt 0.320774 0.001576
vt 0.705874 0.001576
vt 0.428224 0.001576
vt 0.798424 0.001576
vt 0.523925 0.834259
vt 0.109026 0.849593
vt 0.905874 0.001576
vt 0.905874 0.633998
vt 0.920774 0.402678
vt 0.705874 0.698887
vt 0.431375 0.849593
vt 0.816476 0.865318
vt 0.320774 0.402678
vt 0.198424 0.430600
vt 0.428224 0.402678
vt 0.520774 0.430600
vt 0.431375 0.742143
vt 0.801576 0.232895
vt 0.720774 0.402678
vt 0.613324 0.430600
vt 0.105874 0.430600
vt 0.813324 0.402678
vt 0.909026 0.001576
vt 0.909026 0.109026
s 0
f 2/1/1 3/2/1 1/3/1
f 4/4/2 7/5/2 3/6/2
f 8/7/3 5/8/3 7/9/3
f 6/10/4 1/11/4 5/12/4
f 7/13/5 1/14/5 3/15/5
f 4/16/6 6/17/6 8/18/6
f 10/19/1 11/20/1 9/21/1
f 12/22/2 15/23/2 11/24/2
f 16/25/3 13/26/3 15/27/3
f 14/28/4 9/29/4 13/30/4
f 15/31/5 9/32/5 11/33/5
f 12/34/6 14/35/6 16/36/6
f 18/37/1 19/38/1 17/39/1
f 20/40/2 23/41/2 19/42/2
f 24/43/3 21/44/3 23/45/3
f 22/46/4 17/47/4 21/48/4
f 23/49/5 17/50/5 19/51/5
f 20/52/6 22/53/6 24/54/6
f 26/55/1 27/56/1 25/57/1
f 28/58/2 31/59/2 27/60/2
f 32/61/3 29/62/3 31/63/3
f 30/64/4 25/65/4 29/66/4
f 31/67/5 25/68/5 27/69/5
f 28/70/6 30/71/6 32/72/6
f 34/73/1 35/74/1 33/75/1
f 36/76/2 39/77/2 35/78/2
f 40/79/3 37/80/3 39/81/3
f 38/82/4 33/83/4 37/84/4
f 39/85/5 33/86/5 35/87/5
f 36/88/6 38/89/6 40/90/6
f 42/91/1 43/92/1 41/93/1
f 44/94/2 47/95/2 43/96/2
f 48/97/3 45/98/3 47/99/3
f 46/100/4 41/101/4 45/102/4
f 47/103/5 41/104/5 43/105/5
f 44/106/6 46/107/6 48/108/6
f 2/1/1 4/109/1 3/2/1
f 4/4/2 8/110/2 7/5/2
f 8/7/3 6/111/3 5/8/3
f 6/10/4 2/112/4 1/11/4
f 7/13/5 5/113/5 1/14/5
f 4/16/6 2/114/6 6/17/6
f 10/19/1 12/115/1 11/20/1
f 12/22/2 16/116/2 15/23/2
f 16/25/3 14/117/3 13/26/3
f 14/28/4 10/118/4 9/29/4
f 15/31/5 13/119/5 9/32/5
f 12/34/6 10/120/6 14/35/6
f 18/37/1 20/121/1 19/38/1
f 20/40/2 24/122/2 23/41/2
f 24/43/3 22/123/3 21/44/3
f 22/46/4 18/124/4 17/47/4
f 23/49/5 21/125/5 17/50/5
f 20/52/6 18/126/6 22/53/6
f 26/55/1 28/127/1 27/56/1
f 28/58/2 32/128/2 31/59/2
f 32/61/3 30/129/3 29/62/3
f 30/64/4 26/130/4 25/65/4
f 31/67/5 29/131/5 25/68/5
f 28/70/6 26/132/6 30/71/6
f 34/73/1 36/133/1 35/74/1
f 36/76/2 40/134/2 39/77/2
f 40/79/3 38/135/3 37/80/3
f 38/82/4 34/136/4 33/83/4
f 39/85/5 37/137/5 33/86/5
f 36/88/6 34/138/6 38/89/6
f 42/91/1 44/139/1 43/92/1
f 44/94/2 48/140/2 47/95/2
f 48/97/3 46/141/3 45/98/3
f 46/100/4 42/142/4 41/101/4
f 47/103/5 45/143/5 41/104/5
f 44/106/6 42/144/6 46/107/6
