# The Giants of Holst prop, from CC0 kits by KayKit (Kay Lousberg) and Kenney
v 0.0000 0.2250 -0.1125
vt 0.1720 0.8485
vn -0.0000 0.0000 -1.0000
v 0.0000 1.4400 -0.1125
vt 0.1720 0.8809
vn -0.0000 0.0000 -1.0000
v 0.9000 1.4400 -0.1125
vt 0.1480 0.8809
vn -0.0000 0.0000 -1.0000
v 0.9000 0.2250 -0.1125
vt 0.1480 0.8485
vn -0.0000 0.0000 -1.0000
f 1/1/1 2/2/2 3/3/3 4/4/4
v 0.0000 0.2250 0.1125
vt 0.1720 0.8485
vn 0.0000 0.0000 1.0000
v 0.9000 0.2250 0.1125
vt 0.1480 0.8485
vn 0.0000 0.0000 1.0000
v 0.9000 1.4400 0.1125
vt 0.1480 0.8809
vn 0.0000 0.0000 1.0000
v 0.0000 1.4400 0.1125
vt 0.1720 0.8809
vn 0.0000 0.0000 1.0000
f 5/5/5 6/6/6 7/7/7 8/8/8
v 0.9000 0.2250 0.1125
vt 0.1480 0.8485
vn 1.0000 0.0000 -0.0000
v 0.9000 0.2250 -0.1125
vt 0.1480 0.8485
vn 1.0000 0.0000 -0.0000
v 0.9000 1.4400 -0.1125
vt 0.1480 0.8809
vn 1.0000 0.0000 -0.0000
v 0.9000 1.4400 0.1125
vt 0.1480 0.8809
vn 1.0000 0.0000 -0.0000
f 9/9/9 10/10/10 11/11/11 12/12/12
v 0.0000 0.0000 -0.2250
vt 0.0594 0.8764
vn -0.0000 0.0000 -1.0000
v 0.0000 0.1125 -0.2250
vt 0.0594 0.8844
vn -0.0000 0.0000 -1.0000
v 0.4050 0.1125 -0.2250
vt 0.0575 0.8844
vn -0.0000 0.0000 -1.0000
v 0.4050 0.0000 -0.2250
vt 0.0575 0.8764
vn -0.0000 0.0000 -1.0000
f 13/13/13 14/14/14 15/15/15 16/16/16
v 0.0000 0.2250 -0.1125
vt 0.0594 0.9492
vn -0.0000 0.7071 -0.7071
v 0.4500 0.1443 -0.1932
vt 0.0573 0.9492
vn -0.0000 0.7071 -0.7071
v 0.4050 0.1125 -0.2250
vt 0.0575 0.9469
vn -0.0000 0.7071 -0.7071
v 0.0000 0.1125 -0.2250
vt 0.0594 0.9469
vn -0.0000 0.7071 -0.7071
f 17/17/17 18/18/18 19/19/19 20/20/20
v 0.9000 0.0000 0.2250
vt 0.0551 0.8764
vn 0.0000 0.0000 1.0000
v 0.9000 0.1125 0.2250
vt 0.0551 0.8844
vn 0.0000 0.0000 1.0000
v 0.4950 0.1125 0.2250
vt 0.0571 0.8844
vn 0.0000 0.0000 1.0000
v 0.4950 0.0000 0.2250
vt 0.0571 0.8764
vn 0.0000 0.0000 1.0000
f 21/21/21 22/22/22 23/23/23 24/24/24
v 0.4950 0.0000 -0.2250
vt 0.0571 0.8764
vn -0.0000 0.0000 -1.0000
v 0.4950 0.1125 -0.2250
vt 0.0571 0.8844
vn -0.0000 0.0000 -1.0000
v 0.9000 0.1125 -0.2250
vt 0.0551 0.8844
vn -0.0000 0.0000 -1.0000
v 0.9000 0.0000 -0.2250
vt 0.0551 0.8764
vn -0.0000 0.0000 -1.0000
f 25/25/25 26/26/26 27/27/27 28/28/28
v 0.9000 0.2250 -0.1125
vt 0.0551 0.9550
vn -0.0000 0.7071 -0.7071
v 0.9000 0.1125 -0.2250
vt 0.0551 0.9469
vn -0.0000 0.7071 -0.7071
v 0.4950 0.1125 -0.2250
vt 0.0571 0.9469
vn -0.0000 0.7071 -0.7071
v 0.4500 0.1443 -0.1932
vt 0.0573 0.9492
vn -0.0000 0.7071 -0.7071
f 29/29/29 30/30/30 31/31/31 32/32/32
v 0.4050 0.1125 0.2250
vt 0.0575 0.8844
vn 0.5774 0.0000 0.8165
v 0.4050 0.0000 0.2250
vt 0.0575 0.8764
vn 0.5774 0.0000 0.8165
v 0.4500 0.0000 0.1932
vt 0.0573 0.8764
vn 0.5774 0.0000 0.8165
v 0.4500 0.1443 0.1932
vt 0.0573 0.8867
vn 0.5774 0.0000 0.8165
f 33/33/33 34/34/34 35/35/35 36/36/36
v 0.4500 0.1443 0.1932
vt 0.0573 0.8867
vn -0.5773 0.0000 0.8165
v 0.4500 0.0000 0.1932
vt 0.0573 0.8764
vn -0.5773 0.0000 0.8165
v 0.4950 0.0000 0.2250
vt 0.0571 0.8764
vn -0.5773 0.0000 0.8165
v 0.4950 0.1125 0.2250
vt 0.0571 0.8844
vn -0.5773 0.0000 0.8165
f 37/37/37 38/38/38 39/39/39 40/40/40
v 0.4950 0.1125 -0.2250
vt 0.0571 0.8844
vn -0.5774 0.0000 -0.8165
v 0.4950 0.0000 -0.2250
vt 0.0571 0.8764
vn -0.5774 0.0000 -0.8165
v 0.4500 0.0000 -0.1932
vt 0.0573 0.8764
vn -0.5774 0.0000 -0.8165
v 0.4500 0.1443 -0.1932
vt 0.0573 0.8867
vn -0.5774 0.0000 -0.8165
f 41/41/41 42/42/42 43/43/43 44/44/44
v 0.4500 0.1443 -0.1932
vt 0.0573 0.8867
vn 0.5773 0.0000 -0.8165
v 0.4500 0.0000 -0.1932
vt 0.0573 0.8764
vn 0.5773 0.0000 -0.8165
v 0.4050 0.0000 -0.2250
vt 0.0575 0.8764
vn 0.5773 0.0000 -0.8165
v 0.4050 0.1125 -0.2250
vt 0.0575 0.8844
vn 0.5773 0.0000 -0.8165
f 45/45/45 46/46/46 47/47/47 48/48/48
v 0.0000 0.2250 0.1125
vt 0.0594 0.9492
vn 0.0000 0.7071 0.7071
v 0.4500 0.1443 0.1932
vt 0.0573 0.9492
vn 0.0000 0.7071 0.7071
v 0.9000 0.2250 0.1125
vt 0.0551 0.9550
vn 0.0000 0.7071 0.7071
f 49/49/49 50/50/50 51/51/51
v 0.9000 0.1125 0.2250
vt 0.0551 0.9469
vn 0.0000 0.7071 0.7071
v 0.9000 0.2250 0.1125
vt 0.0551 0.9550
vn 0.0000 0.7071 0.7071
v 0.4500 0.1443 0.1932
vt 0.0573 0.9492
vn 0.0000 0.7071 0.7071
v 0.4950 0.1125 0.2250
vt 0.0571 0.9469
vn 0.0000 0.7071 0.7071
f 52/52/52 53/53/53 54/54/54 55/55/55
v 0.9000 0.1125 -0.2250
vt 0.0551 0.9469
vn 1.0000 0.0000 -0.0000
v 0.9000 0.2250 -0.1125
vt 0.0551 0.9550
vn 1.0000 0.0000 -0.0000
v 0.9000 0.2250 0.1125
vt 0.0551 0.9550
vn 1.0000 0.0000 -0.0000
v 0.9000 0.1125 0.2250
vt 0.0551 0.9469
vn 1.0000 0.0000 -0.0000
f 56/56/56 57/57/57 58/58/58 59/59/59
v 0.9000 0.0000 -0.2250
vt 0.0551 0.8764
vn 1.0000 0.0000 -0.0000
v 0.9000 0.1125 -0.2250
vt 0.0551 0.8844
vn 1.0000 0.0000 -0.0000
v 0.9000 0.1125 0.2250
vt 0.0551 0.8844
vn 1.0000 0.0000 -0.0000
v 0.9000 0.0000 0.2250
vt 0.0551 0.8764
vn 1.0000 0.0000 -0.0000
f 60/60/60 61/61/61 62/62/62 63/63/63
v 0.2279 1.1003 -0.1484
vt 0.2068 0.8404
vn -0.0000 0.0000 -1.0000
v 0.2279 1.1925 -0.1484
vt 0.2068 0.8881
vn -0.0000 0.0000 -1.0000
v 0.4453 1.1925 -0.1484
vt 0.1430 0.8881
vn -0.0000 0.0000 -1.0000
v 0.4453 1.1003 -0.1484
vt 0.1430 0.8404
vn -0.0000 0.0000 -1.0000
f 64/64/64 65/65/65 66/66/66 67/67/67
v 0.4453 1.1003 -0.1484
vt 0.1430 0.8248
vn 0.5959 -0.5959 -0.5383
v 0.4453 1.1925 -0.1484
vt 0.1430 0.8724
vn 0.5959 0.5959 -0.5383
v 0.4677 1.1884 -0.1075
vt 0.1364 0.8704
vn 0.8494 0.2969 -0.4364
v 0.4677 1.1044 -0.1075
vt 0.1364 0.8268
vn 0.8494 -0.2969 -0.4364
f 68/68/68 69/69/69 70/70/70 71/71/71
v 0.2279 1.1003 -0.1484
vt 0.2087 0.8206
vn -0.5959 -0.5959 -0.5383
v 0.4453 1.1003 -0.1484
vt 0.1448 0.8206
vn 0.5959 -0.5959 -0.5383
v 0.4412 1.0779 -0.1075
vt 0.1460 0.8140
vn 0.2969 -0.8494 -0.4364
v 0.2320 1.0779 -0.1075
vt 0.2075 0.8140
vn -0.2969 -0.8494 -0.4364
f 72/72/72 73/73/73 74/74/74 75/75/75
v 0.2279 1.1925 -0.1484
vt 0.2068 0.9037
vn -0.5959 0.5959 -0.5383
v 0.2279 1.1003 -0.1484
vt 0.2068 0.8561
vn -0.5959 -0.5959 -0.5383
v 0.2054 1.1044 -0.1075
vt 0.2134 0.8581
vn -0.8494 -0.2969 -0.4364
v 0.2054 1.1884 -0.1075
vt 0.2134 0.9017
vn -0.8494 0.2969 -0.4364
f 76/76/76 77/77/77 78/78/78 79/79/79
v 0.4453 1.1925 -0.1484
vt 0.1430 0.9079
vn 0.5959 0.5959 -0.5383
v 0.2279 1.1925 -0.1484
vt 0.2068 0.9079
vn -0.5959 0.5959 -0.5383
v 0.2320 1.2149 -0.1075
vt 0.2057 0.9145
vn -0.2969 0.8494 -0.4364
v 0.4412 1.2149 -0.1075
vt 0.1442 0.9145
vn 0.2969 0.8494 -0.4364
f 80/80/80 81/81/81 82/82/82 83/83/83
v 0.4412 1.0779 -0.1075
vt 0.1460 0.7984
vn 0.2969 -0.8494 -0.4364
v 0.4453 1.1003 -0.1484
vt 0.1448 0.8050
vn 0.5959 -0.5959 -0.5383
v 0.4677 1.1044 -0.1075
vt 0.1382 0.8062
vn 0.8494 -0.2969 -0.4364
f 84/84/84 85/85/85 86/86/86
v 0.4453 1.1925 -0.1484
vt 0.1430 0.8922
vn 0.5959 0.5959 -0.5383
v 0.4412 1.2149 -0.1075
vt 0.1442 0.8988
vn 0.2969 0.8494 -0.4364
v 0.4677 1.1884 -0.1075
vt 0.1364 0.8910
vn 0.8494 0.2969 -0.4364
f 87/87/87 88/88/88 89/89/89
v 0.2054 1.1044 -0.1075
vt 0.2153 0.8374
vn -0.8494 -0.2969 -0.4364
v 0.2279 1.1003 -0.1484
vt 0.2087 0.8362
vn -0.5959 -0.5959 -0.5383
v 0.2320 1.0779 -0.1075
vt 0.2075 0.8296
vn -0.2969 -0.8494 -0.4364
f 90/90/90 91/91/91 92/92/92
v 0.2279 1.1925 -0.1484
vt 0.2068 0.9235
vn -0.5959 0.5959 -0.5383
v 0.2054 1.1884 -0.1075
vt 0.2134 0.9223
vn -0.8494 0.2969 -0.4364
v 0.2320 1.2149 -0.1075
vt 0.2057 0.9301
vn -0.2969 0.8494 -0.4364
f 93/93/93 94/94/94 95/95/95
v 0.4510 0.5676 -0.1484
vt 0.1968 0.8328
vn 0.4476 -0.4476 -0.7741
v 0.4840 0.6006 -0.1484
vt 0.1871 0.8320
vn 0.4476 -0.4476 -0.7741
v 0.4851 0.5518 -0.1195
vt 0.1867 0.8058
vn 0.4476 -0.4476 -0.7741
f 96/96/96 97/97/97 98/98/98
v 0.6359 0.5676 -0.1484
vt 0.1443 0.8050
vn 0.5959 -0.5959 -0.5383
v 0.6583 0.5717 -0.1075
vt 0.1377 0.8062
vn 0.8494 -0.2969 -0.4364
v 0.6318 0.5452 -0.1075
vt 0.1455 0.7984
vn 0.2969 -0.8494 -0.4364
f 99/99/99 100/100/100 101/101/101
v 0.6359 0.6598 -0.1484
vt 0.1424 0.8726
vn 0.5959 0.5959 -0.5383
v 0.6583 0.6557 -0.1075
vt 0.1358 0.8706
vn 0.8494 0.2969 -0.4364
v 0.6583 0.5717 -0.1075
vt 0.1358 0.8270
vn 0.8494 -0.2969 -0.4364
v 0.6359 0.5676 -0.1484
vt 0.1424 0.8249
vn 0.5959 -0.5959 -0.5383
f 102/102/102 103/103/103 104/104/104 105/105/105
v 0.4185 0.5676 -0.1484
vt 0.2063 0.8562
vn -0.5959 -0.5959 -0.5383
v 0.3961 0.5717 -0.1075
vt 0.2129 0.8582
vn -0.8494 -0.2969 -0.4364
v 0.3961 0.6557 -0.1075
vt 0.2129 0.9018
vn -0.8494 0.2969 -0.4364
v 0.4185 0.6598 -0.1484
vt 0.2063 0.9038
vn -0.5959 0.5959 -0.5383
f 106/106/106 107/107/107 108/108/108 109/109/109
v 0.4185 0.5676 -0.1484
vt 0.2082 0.8363
vn -0.5959 -0.5959 -0.5383
v 0.4226 0.5452 -0.1075
vt 0.2070 0.8297
vn -0.2969 -0.8494 -0.4364
v 0.3961 0.5717 -0.1075
vt 0.2148 0.8375
vn -0.8494 -0.2969 -0.4364
f 110/110/110 111/111/111 112/112/112
v 0.6318 0.6822 -0.1075
vt 0.1436 0.8989
vn 0.2969 0.8494 -0.4364
v 0.6583 0.6557 -0.1075
vt 0.1358 0.8911
vn 0.8494 0.2969 -0.4364
v 0.6359 0.6598 -0.1484
vt 0.1424 0.8923
vn 0.5959 0.5959 -0.5383
f 113/113/113 114/114/114 115/115/115
v 0.3961 0.6557 -0.1075
vt 0.2129 0.9224
vn -0.8494 0.2969 -0.4364
v 0.4226 0.6822 -0.1075
vt 0.2051 0.9302
vn -0.2969 0.8494 -0.4364
v 0.4185 0.6598 -0.1484
vt 0.2063 0.9236
vn -0.5959 0.5959 -0.5383
f 116/116/116 117/117/117 118/118/118
v 0.6359 0.6598 -0.1484
vt 0.1424 0.8882
vn -0.0000 0.0000 -1.0000
v 0.6359 0.5676 -0.1484
vt 0.1424 0.8406
vn -0.0000 0.0000 -1.0000
v 0.5170 0.5676 -0.1484
vt 0.1774 0.8406
vn -0.0000 0.0000 -1.0000
v 0.4840 0.6006 -0.1484
vt 0.1871 0.8398
vn -0.0000 0.0000 -1.0000
f 119/119/119 120/120/120 121/121/121 122/122/122
v 0.4851 0.5518 -0.1195
vt 0.1886 0.7968
vn -0.0000 -0.8768 -0.4809
v 0.4856 0.5452 -0.1075
vt 0.1884 0.8141
vn -0.0000 -0.8768 -0.4809
v 0.4226 0.5452 -0.1075
vt 0.2070 0.8141
vn -0.2969 -0.8494 -0.4364
f 123/123/123 124/124/124 125/125/125
v 0.6318 0.5452 -0.1075
vt 0.1455 0.8141
vn 0.2969 -0.8494 -0.4364
v 0.4856 0.5452 -0.1075
vt 0.1884 0.8141
vn -0.0000 -0.8768 -0.4809
v 0.4851 0.5518 -0.1195
vt 0.1886 0.7968
vn -0.0000 -0.8768 -0.4809
f 126/126/126 127/127/127 128/128/128
v 0.4840 0.6006 -0.1484
vt 0.1871 0.8126
vn -0.4601 -0.4601 -0.7593
v 0.5170 0.5676 -0.1484
vt 0.1774 0.8134
vn -0.4601 -0.4601 -0.7593
v 0.4851 0.5518 -0.1195
vt 0.1867 0.7864
vn -0.4601 -0.4601 -0.7593
f 129/129/129 130/130/130 131/131/131
v 0.4185 0.6598 -0.1484
vt 0.2063 0.9079
vn -0.5959 0.5959 -0.5383
v 0.4226 0.6822 -0.1075
vt 0.2051 0.9145
vn -0.2969 0.8494 -0.4364
v 0.6318 0.6822 -0.1075
vt 0.1436 0.9145
vn 0.2969 0.8494 -0.4364
v 0.6359 0.6598 -0.1484
vt 0.1424 0.9079
vn 0.5959 0.5959 -0.5383
f 132/132/132 133/133/133 134/134/134 135/135/135
v 0.4185 0.5676 -0.1484
vt 0.2063 0.8406
vn -0.0000 0.0000 -1.0000
v 0.4185 0.6598 -0.1484
vt 0.2063 0.8882
vn -0.0000 0.0000 -1.0000
v 0.4840 0.6006 -0.1484
vt 0.1871 0.8398
vn -0.0000 0.0000 -1.0000
v 0.4510 0.5676 -0.1484
vt 0.1968 0.8406
vn -0.0000 0.0000 -1.0000
f 136/136/136 137/137/137 138/138/138 139/139/139
v 0.6359 0.5676 -0.1484
vt 0.1443 0.8207
vn 0.5959 -0.5959 -0.5383
v 0.6318 0.5452 -0.1075
vt 0.1455 0.8141
vn 0.2969 -0.8494 -0.4364
v 0.4851 0.5518 -0.1195
vt 0.1886 0.7968
vn -0.0000 -0.8768 -0.4809
v 0.5170 0.5676 -0.1484
vt 0.1792 0.8207
vn -0.0000 -0.8768 -0.4809
f 140/140/140 141/141/141 142/142/142 143/143/143
v 0.4510 0.5676 -0.1484
vt 0.1986 0.8207
vn -0.0000 -0.8768 -0.4809
v 0.4851 0.5518 -0.1195
vt 0.1886 0.7968
vn -0.0000 -0.8768 -0.4809
v 0.4226 0.5452 -0.1075
vt 0.2070 0.8141
vn -0.2969 -0.8494 -0.4364
v 0.4185 0.5676 -0.1484
vt 0.2082 0.8207
vn -0.5959 -0.5959 -0.5383
f 144/144/144 145/145/145 146/146/146 147/147/147
v 0.6359 0.6598 -0.1484
vt 0.1424 0.8882
vn -0.0000 0.0000 -1.0000
v 0.4840 0.6006 -0.1484
vt 0.1871 0.8398
vn -0.0000 0.0000 -1.0000
v 0.4185 0.6598 -0.1484
vt 0.2063 0.8882
vn -0.0000 0.0000 -1.0000
f 148/148/148 149/149/149 150/150/150
v 0.3940 1.2432 -0.1484
vt 0.2068 0.8404
vn -0.0000 0.0000 -1.0000
v 0.3940 1.3354 -0.1484
vt 0.2068 0.8881
vn -0.0000 0.0000 -1.0000
v 0.6113 1.3354 -0.1484
vt 0.1430 0.8881
vn -0.0000 0.0000 -1.0000
v 0.6113 1.2432 -0.1484
vt 0.1430 0.8404
vn -0.0000 0.0000 -1.0000
f 151/151/151 152/152/152 153/153/153 154/154/154
v 0.6113 1.2432 -0.1484
vt 0.1430 0.8248
vn 0.5959 -0.5959 -0.5383
v 0.6113 1.3354 -0.1484
vt 0.1430 0.8724
vn 0.5959 0.5959 -0.5383
v 0.6338 1.3313 -0.1075
vt 0.1364 0.8704
vn 0.8494 0.2969 -0.4364
v 0.6338 1.2473 -0.1075
vt 0.1364 0.8268
vn 0.8494 -0.2969 -0.4364
f 155/155/155 156/156/156 157/157/157 158/158/158
v 0.3940 1.2432 -0.1484
vt 0.2087 0.8206
vn -0.5959 -0.5959 -0.5383
v 0.6113 1.2432 -0.1484
vt 0.1448 0.8206
vn 0.5959 -0.5959 -0.5383
v 0.6073 1.2208 -0.1075
vt 0.1460 0.8140
vn 0.2969 -0.8494 -0.4364
v 0.3980 1.2208 -0.1075
vt 0.2075 0.8140
vn -0.2969 -0.8494 -0.4364
f 159/159/159 160/160/160 161/161/161 162/162/162
v 0.3940 1.3354 -0.1484
vt 0.2068 0.9037
vn -0.5959 0.5959 -0.5383
v 0.3940 1.2432 -0.1484
vt 0.2068 0.8561
vn -0.5959 -0.5959 -0.5383
v 0.3715 1.2473 -0.1075
vt 0.2134 0.8581
vn -0.8494 -0.2969 -0.4364
v 0.3715 1.3313 -0.1075
vt 0.2134 0.9017
vn -0.8494 0.2969 -0.4364
f 163/163/163 164/164/164 165/165/165 166/166/166
v 0.6113 1.3354 -0.1484
vt 0.1430 0.9079
vn 0.5959 0.5959 -0.5383
v 0.3940 1.3354 -0.1484
vt 0.2068 0.9079
vn -0.5959 0.5959 -0.5383
v 0.3980 1.3578 -0.1075
vt 0.2057 0.9145
vn -0.2969 0.8494 -0.4364
v 0.6073 1.3578 -0.1075
vt 0.1442 0.9145
vn 0.2969 0.8494 -0.4364
f 167/167/167 168/168/168 169/169/169 170/170/170
v 0.6073 1.2208 -0.1075
vt 0.1460 0.7984
vn 0.2969 -0.8494 -0.4364
v 0.6113 1.2432 -0.1484
vt 0.1448 0.8050
vn 0.5959 -0.5959 -0.5383
v 0.6338 1.2473 -0.1075
vt 0.1382 0.8062
vn 0.8494 -0.2969 -0.4364
f 171/171/171 172/172/172 173/173/173
v 0.6113 1.3354 -0.1484
vt 0.1430 0.8922
vn 0.5959 0.5959 -0.5383
v 0.6073 1.3578 -0.1075
vt 0.1442 0.8988
vn 0.2969 0.8494 -0.4364
v 0.6338 1.3313 -0.1075
vt 0.1364 0.8910
vn 0.8494 0.2969 -0.4364
f 174/174/174 175/175/175 176/176/176
v 0.3715 1.2473 -0.1075
vt 0.2153 0.8374
vn -0.8494 -0.2969 -0.4364
v 0.3940 1.2432 -0.1484
vt 0.2087 0.8362
vn -0.5959 -0.5959 -0.5383
v 0.3980 1.2208 -0.1075
vt 0.2075 0.8296
vn -0.2969 -0.8494 -0.4364
f 177/177/177 178/178/178 179/179/179
v 0.3940 1.3354 -0.1484
vt 0.2068 0.9235
vn -0.5959 0.5959 -0.5383
v 0.3715 1.3313 -0.1075
vt 0.2134 0.9223
vn -0.8494 0.2969 -0.4364
v 0.3980 1.3578 -0.1075
vt 0.2057 0.9301
vn -0.2969 0.8494 -0.4364
f 180/180/180 181/181/181 182/182/182
v 0.1371 0.5674 -0.1484
vt 0.2068 0.8404
vn -0.0000 0.0000 -1.0000
v 0.1371 0.6595 -0.1484
vt 0.2068 0.8881
vn -0.0000 0.0000 -1.0000
v 0.3545 0.6595 -0.1484
vt 0.1430 0.8881
vn -0.0000 0.0000 -1.0000
v 0.3545 0.5674 -0.1484
vt 0.1430 0.8404
vn -0.0000 0.0000 -1.0000
f 183/183/183 184/184/184 185/185/185 186/186/186
v 0.3545 0.5674 -0.1484
vt 0.1430 0.8248
vn 0.5959 -0.5959 -0.5383
v 0.3545 0.6595 -0.1484
vt 0.1430 0.8724
vn 0.5959 0.5959 -0.5383
v 0.3770 0.6554 -0.1075
vt 0.1364 0.8704
vn 0.8494 0.2969 -0.4364
v 0.3770 0.5714 -0.1075
vt 0.1364 0.8268
vn 0.8494 -0.2969 -0.4364
f 187/187/187 188/188/188 189/189/189 190/190/190
v 0.1371 0.5674 -0.1484
vt 0.2087 0.8206
vn -0.5959 -0.5959 -0.5383
v 0.3545 0.5674 -0.1484
vt 0.1448 0.8206
vn 0.5959 -0.5959 -0.5383
v 0.3504 0.5449 -0.1075
vt 0.1460 0.8140
vn 0.2969 -0.8494 -0.4364
v 0.1412 0.5449 -0.1075
vt 0.2075 0.8140
vn -0.2969 -0.8494 -0.4364
f 191/191/191 192/192/192 193/193/193 194/194/194
v 0.1371 0.6595 -0.1484
vt 0.2068 0.9037
vn -0.5959 0.5959 -0.5383
v 0.1371 0.5674 -0.1484
vt 0.2068 0.8561
vn -0.5959 -0.5959 -0.5383
v 0.1147 0.5714 -0.1075
vt 0.2134 0.8581
vn -0.8494 -0.2969 -0.4364
v 0.1147 0.6554 -0.1075
vt 0.2134 0.9017
vn -0.8494 0.2969 -0.4364
f 195/195/195 196/196/196 197/197/197 198/198/198
v 0.3545 0.6595 -0.1484
vt 0.1430 0.9079
vn 0.5959 0.5959 -0.5383
v 0.1371 0.6595 -0.1484
vt 0.2068 0.9079
vn -0.5959 0.5959 -0.5383
v 0.1412 0.6820 -0.1075
vt 0.2057 0.9145
vn -0.2969 0.8494 -0.4364
v 0.3504 0.6820 -0.1075
vt 0.1442 0.9145
vn 0.2969 0.8494 -0.4364
f 199/199/199 200/200/200 201/201/201 202/202/202
v 0.3504 0.5449 -0.1075
vt 0.1460 0.7984
vn 0.2969 -0.8494 -0.4364
v 0.3545 0.5674 -0.1484
vt 0.1448 0.8050
vn 0.5959 -0.5959 -0.5383
v 0.3770 0.5714 -0.1075
vt 0.1382 0.8062
vn 0.8494 -0.2969 -0.4364
f 203/203/203 204/204/204 205/205/205
v 0.3545 0.6595 -0.1484
vt 0.1430 0.8922
vn 0.5959 0.5959 -0.5383
v 0.3504 0.6820 -0.1075
vt 0.1442 0.8988
vn 0.2969 0.8494 -0.4364
v 0.3770 0.6554 -0.1075
vt 0.1364 0.8910
vn 0.8494 0.2969 -0.4364
f 206/206/206 207/207/207 208/208/208
v 0.1147 0.5714 -0.1075
vt 0.2153 0.8374
vn -0.8494 -0.2969 -0.4364
v 0.1371 0.5674 -0.1484
vt 0.2087 0.8362
vn -0.5959 -0.5959 -0.5383
v 0.1412 0.5449 -0.1075
vt 0.2075 0.8296
vn -0.2969 -0.8494 -0.4364
f 209/209/209 210/210/210 211/211/211
v 0.1371 0.6595 -0.1484
vt 0.2068 0.9235
vn -0.5959 0.5959 -0.5383
v 0.1147 0.6554 -0.1075
vt 0.2134 0.9223
vn -0.8494 0.2969 -0.4364
v 0.1412 0.6820 -0.1075
vt 0.2057 0.9301
vn -0.2969 0.8494 -0.4364
f 212/212/212 213/213/213 214/214/214
v 0.3051 0.4225 -0.1484
vt 0.2068 0.8404
vn -0.0000 0.0000 -1.0000
v 0.3051 0.5147 -0.1484
vt 0.2068 0.8881
vn -0.0000 0.0000 -1.0000
v 0.5225 0.5147 -0.1484
vt 0.1430 0.8881
vn -0.0000 0.0000 -1.0000
v 0.5225 0.4225 -0.1484
vt 0.1430 0.8404
vn -0.0000 0.0000 -1.0000
f 215/215/215 216/216/216 217/217/217 218/218/218
v 0.5225 0.4225 -0.1484
vt 0.1430 0.8248
vn 0.5959 -0.5959 -0.5383
v 0.5225 0.5147 -0.1484
vt 0.1430 0.8724
vn 0.5959 0.5959 -0.5383
v 0.5450 0.5106 -0.1075
vt 0.1364 0.8704
vn 0.8494 0.2969 -0.4364
v 0.5450 0.4266 -0.1075
vt 0.1364 0.8268
vn 0.8494 -0.2969 -0.4364
f 219/219/219 220/220/220 221/221/221 222/222/222
v 0.3051 0.4225 -0.1484
vt 0.2087 0.8206
vn -0.5959 -0.5959 -0.5383
v 0.5225 0.4225 -0.1484
vt 0.1448 0.8206
vn 0.5959 -0.5959 -0.5383
v 0.5184 0.4001 -0.1075
vt 0.1460 0.8140
vn 0.2969 -0.8494 -0.4364
v 0.3092 0.4001 -0.1075
vt 0.2075 0.8140
vn -0.2969 -0.8494 -0.4364
f 223/223/223 224/224/224 225/225/225 226/226/226
v 0.3051 0.5147 -0.1484
vt 0.2068 0.9037
vn -0.5959 0.5959 -0.5383
v 0.3051 0.4225 -0.1484
vt 0.2068 0.8561
vn -0.5959 -0.5959 -0.5383
v 0.2827 0.4266 -0.1075
vt 0.2134 0.8581
vn -0.8494 -0.2969 -0.4364
v 0.2827 0.5106 -0.1075
vt 0.2134 0.9017
vn -0.8494 0.2969 -0.4364
f 227/227/227 228/228/228 229/229/229 230/230/230
v 0.5225 0.5147 -0.1484
vt 0.1430 0.9079
vn 0.5959 0.5959 -0.5383
v 0.3051 0.5147 -0.1484
vt 0.2068 0.9079
vn -0.5959 0.5959 -0.5383
v 0.3092 0.5371 -0.1075
vt 0.2057 0.9145
vn -0.2969 0.8494 -0.4364
v 0.5184 0.5371 -0.1075
vt 0.1442 0.9145
vn 0.2969 0.8494 -0.4364
f 231/231/231 232/232/232 233/233/233 234/234/234
v 0.5184 0.4001 -0.1075
vt 0.1460 0.7984
vn 0.2969 -0.8494 -0.4364
v 0.5225 0.4225 -0.1484
vt 0.1448 0.8050
vn 0.5959 -0.5959 -0.5383
v 0.5450 0.4266 -0.1075
vt 0.1382 0.8062
vn 0.8494 -0.2969 -0.4364
f 235/235/235 236/236/236 237/237/237
v 0.5225 0.5147 -0.1484
vt 0.1430 0.8922
vn 0.5959 0.5959 -0.5383
v 0.5184 0.5371 -0.1075
vt 0.1442 0.8988
vn 0.2969 0.8494 -0.4364
v 0.5450 0.5106 -0.1075
vt 0.1364 0.8910
vn 0.8494 0.2969 -0.4364
f 238/238/238 239/239/239 240/240/240
v 0.2827 0.4266 -0.1075
vt 0.2153 0.8374
vn -0.8494 -0.2969 -0.4364
v 0.3051 0.4225 -0.1484
vt 0.2087 0.8362
vn -0.5959 -0.5959 -0.5383
v 0.3092 0.4001 -0.1075
vt 0.2075 0.8296
vn -0.2969 -0.8494 -0.4364
f 241/241/241 242/242/242 243/243/243
v 0.3051 0.5147 -0.1484
vt 0.2068 0.9235
vn -0.5959 0.5959 -0.5383
v 0.2827 0.5106 -0.1075
vt 0.2134 0.9223
vn -0.8494 0.2969 -0.4364
v 0.3092 0.5371 -0.1075
vt 0.2057 0.9301
vn -0.2969 0.8494 -0.4364
f 244/244/244 245/245/245 246/246/246
v 0.3015 1.0861 0.1484
vt 0.1522 0.8609
vn 0.4476 0.4476 0.7741
v 0.3345 1.0531 0.1484
vt 0.1619 0.8254
vn 0.4476 0.4476 0.7741
v 0.3356 1.1020 0.1195
vt 0.1623 0.8495
vn 0.4476 0.4476 0.7741
f 247/247/247 248/248/248 249/249/249
v 0.4864 1.0861 0.1484
vt 0.2065 0.9234
vn 0.5959 0.5959 0.5383
v 0.5088 1.0820 0.1075
vt 0.2131 0.9223
vn 0.8494 0.2969 0.4364
v 0.4823 1.1086 0.1075
vt 0.2054 0.9301
vn 0.2969 0.8494 0.4364
f 250/250/250 251/251/251 252/252/252
v 0.4864 0.9940 0.1484
vt 0.2065 0.8560
vn 0.5959 -0.5959 0.5383
v 0.5088 0.9981 0.1075
vt 0.2131 0.8580
vn 0.8494 -0.2969 0.4364
v 0.5088 1.0820 0.1075
vt 0.2131 0.9016
vn 0.8494 0.2969 0.4364
v 0.4864 1.0861 0.1484
vt 0.2065 0.9036
vn 0.5959 0.5959 0.5383
f 253/253/253 254/254/254 255/255/255 256/256/256
v 0.2690 1.0861 0.1484
vt 0.1427 0.8724
vn -0.5959 0.5959 0.5383
v 0.2466 1.0820 0.1075
vt 0.1361 0.8704
vn -0.8494 0.2969 0.4364
v 0.2466 0.9981 0.1075
vt 0.1361 0.8268
vn -0.8494 -0.2969 0.4364
v 0.2690 0.9940 0.1484
vt 0.1427 0.8247
vn -0.5959 -0.5959 0.5383
f 257/257/257 258/258/258 259/259/259 260/260/260
v 0.2690 1.0861 0.1484
vt 0.1427 0.8922
vn -0.5959 0.5959 0.5383
v 0.2731 1.1086 0.1075
vt 0.1439 0.8988
vn -0.2969 0.8494 0.4364
v 0.2466 1.0820 0.1075
vt 0.1361 0.8910
vn -0.8494 0.2969 0.4364
f 261/261/261 262/262/262 263/263/263
v 0.4823 0.9715 0.1075
vt 0.2072 0.8296
vn 0.2969 -0.8494 0.4364
v 0.5088 0.9981 0.1075
vt 0.2150 0.8374
vn 0.8494 -0.2969 0.4364
v 0.4864 0.9940 0.1484
vt 0.2084 0.8362
vn 0.5959 -0.5959 0.5383
f 264/264/264 265/265/265 266/266/266
v 0.2466 0.9981 0.1075
vt 0.1379 0.8061
vn -0.8494 -0.2969 0.4364
v 0.2731 0.9715 0.1075
vt 0.1457 0.7983
vn -0.2969 -0.8494 0.4364
v 0.2690 0.9940 0.1484
vt 0.1445 0.8049
vn -0.5959 -0.5959 0.5383
f 267/267/267 268/268/268 269/269/269
v 0.4864 0.9940 0.1484
vt 0.2065 0.8404
vn 0.0000 0.0000 1.0000
v 0.3345 1.0531 0.1484
vt 0.1619 0.8525
vn 0.0000 0.0000 1.0000
v 0.2690 0.9940 0.1484
vt 0.1427 0.8404
vn 0.0000 0.0000 1.0000
f 270/270/270 271/271/271 272/272/272
v 0.4864 0.9940 0.1484
vt 0.2065 0.8404
vn 0.0000 0.0000 1.0000
v 0.4864 1.0861 0.1484
vt 0.2065 0.8880
vn 0.0000 0.0000 1.0000
v 0.3675 1.0861 0.1484
vt 0.1716 0.8880
vn 0.0000 0.0000 1.0000
v 0.3345 1.0531 0.1484
vt 0.1619 0.8525
vn 0.0000 0.0000 1.0000
f 273/273/273 274/274/274 275/275/275 276/276/276
v 0.3356 1.1020 0.1195
vt 0.1623 0.8933
vn 0.0000 0.8768 0.4809
v 0.3361 1.1086 0.1075
vt 0.1624 0.9144
vn 0.0000 0.8768 0.4809
v 0.2731 1.1086 0.1075
vt 0.1439 0.9144
vn -0.2969 0.8494 0.4364
f 277/277/277 278/278/278 279/279/279
v 0.4823 1.1086 0.1075
vt 0.2054 0.9144
vn 0.2969 0.8494 0.4364
v 0.3361 1.1086 0.1075
vt 0.1624 0.9144
vn 0.0000 0.8768 0.4809
v 0.3356 1.1020 0.1195
vt 0.1623 0.8933
vn 0.0000 0.8768 0.4809
f 280/280/280 281/281/281 282/282/282
v 0.3345 1.0531 0.1484
vt 0.1619 0.8447
vn -0.4601 0.4601 0.7593
v 0.3675 1.0861 0.1484
vt 0.1716 0.8802
vn -0.4601 0.4601 0.7593
v 0.3356 1.1020 0.1195
vt 0.1623 0.8689
vn -0.4601 0.4601 0.7593
f 283/283/283 284/284/284 285/285/285
v 0.2690 1.0861 0.1484
vt 0.1427 0.8880
vn 0.0000 0.0000 1.0000
v 0.2690 0.9940 0.1484
vt 0.1427 0.8404
vn 0.0000 0.0000 1.0000
v 0.3345 1.0531 0.1484
vt 0.1619 0.8525
vn 0.0000 0.0000 1.0000
v 0.3015 1.0861 0.1484
vt 0.1522 0.8880
vn 0.0000 0.0000 1.0000
f 286/286/286 287/287/287 288/288/288 289/289/289
v 0.4864 1.0861 0.1484
vt 0.2065 0.9078
vn 0.5959 0.5959 0.5383
v 0.4823 1.1086 0.1075
vt 0.2054 0.9144
vn 0.2969 0.8494 0.4364
v 0.3356 1.1020 0.1195
vt 0.1623 0.8933
vn 0.0000 0.8768 0.4809
v 0.3675 1.0861 0.1484
vt 0.1716 0.9078
vn 0.0000 0.8768 0.4809
f 290/290/290 291/291/291 292/292/292 293/293/293
v 0.3015 1.0861 0.1484
vt 0.1522 0.9078
vn 0.0000 0.8768 0.4809
v 0.3356 1.1020 0.1195
vt 0.1623 0.8933
vn 0.0000 0.8768 0.4809
v 0.2731 1.1086 0.1075
vt 0.1439 0.9144
vn -0.2969 0.8494 0.4364
v 0.2690 1.0861 0.1484
vt 0.1427 0.9078
vn -0.5959 0.5959 0.5383
f 294/294/294 295/295/295 296/296/296 297/297/297
v 0.2690 0.9940 0.1484
vt 0.1445 0.8205
vn -0.5959 -0.5959 0.5383
v 0.2731 0.9715 0.1075
vt 0.1457 0.8139
vn -0.2969 -0.8494 0.4364
v 0.4823 0.9715 0.1075
vt 0.2072 0.8139
vn 0.2969 -0.8494 0.4364
v 0.4864 0.9940 0.1484
vt 0.2084 0.8205
vn 0.5959 -0.5959 0.5383
f 298/298/298 299/299/299 300/300/300 301/301/301
v 0.7144 1.2201 0.1484
vt 0.2068 0.8404
vn 0.0000 0.0000 1.0000
v 0.7144 1.3122 0.1484
vt 0.2068 0.8881
vn 0.0000 0.0000 1.0000
v 0.4971 1.3122 0.1484
vt 0.1430 0.8881
vn 0.0000 0.0000 1.0000
v 0.4971 1.2201 0.1484
vt 0.1430 0.8404
vn 0.0000 0.0000 1.0000
f 302/302/302 303/303/303 304/304/304 305/305/305
v 0.4971 1.2201 0.1484
vt 0.1430 0.8248
vn -0.5959 -0.5959 0.5383
v 0.4971 1.3122 0.1484
vt 0.1430 0.8724
vn -0.5959 0.5959 0.5383
v 0.4746 1.3081 0.1075
vt 0.1364 0.8704
vn -0.8494 0.2969 0.4364
v 0.4746 1.2241 0.1075
vt 0.1364 0.8268
vn -0.8494 -0.2969 0.4364
f 306/306/306 307/307/307 308/308/308 309/309/309
v 0.7144 1.2201 0.1484
vt 0.2087 0.8206
vn 0.5959 -0.5959 0.5383
v 0.4971 1.2201 0.1484
vt 0.1448 0.8206
vn -0.5959 -0.5959 0.5383
v 0.5012 1.1976 0.1075
vt 0.1460 0.8140
vn -0.2969 -0.8494 0.4364
v 0.7104 1.1976 0.1075
vt 0.2075 0.8140
vn 0.2969 -0.8494 0.4364
f 310/310/310 311/311/311 312/312/312 313/313/313
v 0.7144 1.3122 0.1484
vt 0.2068 0.9037
vn 0.5959 0.5959 0.5383
v 0.7144 1.2201 0.1484
vt 0.2068 0.8561
vn 0.5959 -0.5959 0.5383
v 0.7369 1.2241 0.1075
vt 0.2134 0.8581
vn 0.8494 -0.2969 0.4364
v 0.7369 1.3081 0.1075
vt 0.2134 0.9017
vn 0.8494 0.2969 0.4364
f 314/314/314 315/315/315 316/316/316 317/317/317
v 0.4971 1.3122 0.1484
vt 0.1430 0.9079
vn -0.5959 0.5959 0.5383
v 0.7144 1.3122 0.1484
vt 0.2068 0.9079
vn 0.5959 0.5959 0.5383
v 0.7104 1.3346 0.1075
vt 0.2057 0.9145
vn 0.2969 0.8494 0.4364
v 0.5012 1.3346 0.1075
vt 0.1442 0.9145
vn -0.2969 0.8494 0.4364
f 318/318/318 319/319/319 320/320/320 321/321/321
v 0.5012 1.1976 0.1075
vt 0.1460 0.7984
vn -0.2969 -0.8494 0.4364
v 0.4971 1.2201 0.1484
vt 0.1448 0.8050
vn -0.5959 -0.5959 0.5383
v 0.4746 1.2241 0.1075
vt 0.1382 0.8062
vn -0.8494 -0.2969 0.4364
f 322/322/322 323/323/323 324/324/324
v 0.4971 1.3122 0.1484
vt 0.1430 0.8922
vn -0.5959 0.5959 0.5383
v 0.5012 1.3346 0.1075
vt 0.1442 0.8988
vn -0.2969 0.8494 0.4364
v 0.4746 1.3081 0.1075
vt 0.1364 0.8910
vn -0.8494 0.2969 0.4364
f 325/325/325 326/326/326 327/327/327
v 0.7369 1.2241 0.1075
vt 0.2153 0.8374
vn 0.8494 -0.2969 0.4364
v 0.7144 1.2201 0.1484
vt 0.2087 0.8362
vn 0.5959 -0.5959 0.5383
v 0.7104 1.1976 0.1075
vt 0.2075 0.8296
vn 0.2969 -0.8494 0.4364
f 328/328/328 329/329/329 330/330/330
v 0.7144 1.3122 0.1484
vt 0.2068 0.9235
vn 0.5959 0.5959 0.5383
v 0.7369 1.3081 0.1075
vt 0.2134 0.9223
vn 0.8494 0.2969 0.4364
v 0.7104 1.3346 0.1075
vt 0.2057 0.9301
vn 0.2969 0.8494 0.4364
f 331/331/331 332/332/332 333/333/333
v 0.5961 0.8493 0.1484
vt 0.2068 0.8404
vn 0.0000 0.0000 1.0000
v 0.5961 0.9414 0.1484
vt 0.2068 0.8881
vn 0.0000 0.0000 1.0000
v 0.3787 0.9414 0.1484
vt 0.1430 0.8881
vn 0.0000 0.0000 1.0000
v 0.3787 0.8493 0.1484
vt 0.1430 0.8404
vn 0.0000 0.0000 1.0000
f 334/334/334 335/335/335 336/336/336 337/337/337
v 0.3787 0.8493 0.1484
vt 0.1430 0.8248
vn -0.5959 -0.5959 0.5383
v 0.3787 0.9414 0.1484
vt 0.1430 0.8724
vn -0.5959 0.5959 0.5383
v 0.3562 0.9374 0.1075
vt 0.1364 0.8704
vn -0.8494 0.2969 0.4364
v 0.3562 0.8534 0.1075
vt 0.1364 0.8268
vn -0.8494 -0.2969 0.4364
f 338/338/338 339/339/339 340/340/340 341/341/341
v 0.5961 0.8493 0.1484
vt 0.2087 0.8206
vn 0.5959 -0.5959 0.5383
v 0.3787 0.8493 0.1484
vt 0.1448 0.8206
vn -0.5959 -0.5959 0.5383
v 0.3828 0.8268 0.1075
vt 0.1460 0.8140
vn -0.2969 -0.8494 0.4364
v 0.5920 0.8268 0.1075
vt 0.2075 0.8140
vn 0.2969 -0.8494 0.4364
f 342/342/342 343/343/343 344/344/344 345/345/345
v 0.5961 0.9414 0.1484
vt 0.2068 0.9037
vn 0.5959 0.5959 0.5383
v 0.5961 0.8493 0.1484
vt 0.2068 0.8561
vn 0.5959 -0.5959 0.5383
v 0.6185 0.8534 0.1075
vt 0.2134 0.8581
vn 0.8494 -0.2969 0.4364
v 0.6185 0.9374 0.1075
vt 0.2134 0.9017
vn 0.8494 0.2969 0.4364
f 346/346/346 347/347/347 348/348/348 349/349/349
v 0.3787 0.9414 0.1484
vt 0.1430 0.9079
vn -0.5959 0.5959 0.5383
v 0.5961 0.9414 0.1484
vt 0.2068 0.9079
vn 0.5959 0.5959 0.5383
v 0.5920 0.9639 0.1075
vt 0.2057 0.9145
vn 0.2969 0.8494 0.4364
v 0.3828 0.9639 0.1075
vt 0.1442 0.9145
vn -0.2969 0.8494 0.4364
f 350/350/350 351/351/351 352/352/352 353/353/353
v 0.3828 0.8268 0.1075
vt 0.1460 0.7984
vn -0.2969 -0.8494 0.4364
v 0.3787 0.8493 0.1484
vt 0.1448 0.8050
vn -0.5959 -0.5959 0.5383
v 0.3562 0.8534 0.1075
vt 0.1382 0.8062
vn -0.8494 -0.2969 0.4364
f 354/354/354 355/355/355 356/356/356
v 0.3787 0.9414 0.1484
vt 0.1430 0.8922
vn -0.5959 0.5959 0.5383
v 0.3828 0.9639 0.1075
vt 0.1442 0.8988
vn -0.2969 0.8494 0.4364
v 0.3562 0.9374 0.1075
vt 0.1364 0.8910
vn -0.8494 0.2969 0.4364
f 357/357/357 358/358/358 359/359/359
v 0.6185 0.8534 0.1075
vt 0.2153 0.8374
vn 0.8494 -0.2969 0.4364
v 0.5961 0.8493 0.1484
vt 0.2087 0.8362
vn 0.5959 -0.5959 0.5383
v 0.5920 0.8268 0.1075
vt 0.2075 0.8296
vn 0.2969 -0.8494 0.4364
f 360/360/360 361/361/361 362/362/362
v 0.5961 0.9414 0.1484
vt 0.2068 0.9235
vn 0.5959 0.5959 0.5383
v 0.6185 0.9374 0.1075
vt 0.2134 0.9223
vn 0.8494 0.2969 0.4364
v 0.5920 0.9639 0.1075
vt 0.2057 0.9301
vn 0.2969 0.8494 0.4364
f 363/363/363 364/364/364 365/365/365
v 0.3167 0.8493 0.1484
vt 0.2068 0.8404
vn 0.0000 0.0000 1.0000
v 0.3167 0.9414 0.1484
vt 0.2068 0.8881
vn 0.0000 0.0000 1.0000
v 0.1607 0.9414 0.1484
vt 0.1430 0.8881
vn 0.0000 0.0000 1.0000
v 0.1607 0.8493 0.1484
vt 0.1430 0.8404
vn 0.0000 0.0000 1.0000
f 366/366/366 367/367/367 368/368/368 369/369/369
v 0.1607 0.8493 0.1484
vt 0.1430 0.8248
vn -0.5959 -0.5959 0.5383
v 0.1607 0.9414 0.1484
vt 0.1430 0.8724
vn -0.5959 0.5959 0.5383
v 0.1383 0.9374 0.1075
vt 0.1364 0.8704
vn -0.8494 0.2969 0.4364
v 0.1383 0.8534 0.1075
vt 0.1364 0.8268
vn -0.8494 -0.2969 0.4364
f 370/370/370 371/371/371 372/372/372 373/373/373
v 0.3167 0.8493 0.1484
vt 0.2087 0.8206
vn 0.5959 -0.5959 0.5383
v 0.1607 0.8493 0.1484
vt 0.1448 0.8206
vn -0.5959 -0.5959 0.5383
v 0.1648 0.8268 0.1075
vt 0.1460 0.8140
vn -0.2969 -0.8494 0.4364
v 0.3126 0.8268 0.1075
vt 0.2075 0.8140
vn 0.2969 -0.8494 0.4364
f 374/374/374 375/375/375 376/376/376 377/377/377
v 0.3167 0.9414 0.1484
vt 0.2068 0.9037
vn 0.5959 0.5959 0.5383
v 0.3167 0.8493 0.1484
vt 0.2068 0.8561
vn 0.5959 -0.5959 0.5383
v 0.3391 0.8534 0.1075
vt 0.2134 0.8581
vn 0.8494 -0.2969 0.4364
v 0.3391 0.9374 0.1075
vt 0.2134 0.9017
vn 0.8494 0.2969 0.4364
f 378/378/378 379/379/379 380/380/380 381/381/381
v 0.1607 0.9414 0.1484
vt 0.1430 0.9079
vn -0.5959 0.5959 0.5383
v 0.3167 0.9414 0.1484
vt 0.2068 0.9079
vn 0.5959 0.5959 0.5383
v 0.3126 0.9639 0.1075
vt 0.2057 0.9145
vn 0.2969 0.8494 0.4364
v 0.1648 0.9639 0.1075
vt 0.1442 0.9145
vn -0.2969 0.8494 0.4364
f 382/382/382 383/383/383 384/384/384 385/385/385
v 0.1648 0.8268 0.1075
vt 0.1460 0.7984
vn -0.2969 -0.8494 0.4364
v 0.1607 0.8493 0.1484
vt 0.1448 0.8050
vn -0.5959 -0.5959 0.5383
v 0.1383 0.8534 0.1075
vt 0.1382 0.8062
vn -0.8494 -0.2969 0.4364
f 386/386/386 387/387/387 388/388/388
v 0.1607 0.9414 0.1484
vt 0.1430 0.8922
vn -0.5959 0.5959 0.5383
v 0.1648 0.9639 0.1075
vt 0.1442 0.8988
vn -0.2969 0.8494 0.4364
v 0.1383 0.9374 0.1075
vt 0.1364 0.8910
vn -0.8494 0.2969 0.4364
f 389/389/389 390/390/390 391/391/391
v 0.3391 0.8534 0.1075
vt 0.2153 0.8374
vn 0.8494 -0.2969 0.4364
v 0.3167 0.8493 0.1484
vt 0.2087 0.8362
vn 0.5959 -0.5959 0.5383
v 0.3126 0.8268 0.1075
vt 0.2075 0.8296
vn 0.2969 -0.8494 0.4364
f 392/392/392 393/393/393 394/394/394
v 0.3167 0.9414 0.1484
vt 0.2068 0.9235
vn 0.5959 0.5959 0.5383
v 0.3391 0.9374 0.1075
vt 0.2134 0.9223
vn 0.8494 0.2969 0.4364
v 0.3126 0.9639 0.1075
vt 0.2057 0.9301
vn 0.2969 0.8494 0.4364
f 395/395/395 396/396/396 397/397/397
v 0.5831 0.5056 0.1484
vt 0.2068 0.8404
vn 0.0000 0.0000 1.0000
v 0.5831 0.5977 0.1484
vt 0.2068 0.8881
vn 0.0000 0.0000 1.0000
v 0.3658 0.5977 0.1484
vt 0.1430 0.8881
vn 0.0000 0.0000 1.0000
v 0.3658 0.5056 0.1484
vt 0.1430 0.8404
vn 0.0000 0.0000 1.0000
f 398/398/398 399/399/399 400/400/400 401/401/401
v 0.3658 0.5056 0.1484
vt 0.1430 0.8248
vn -0.5959 -0.5959 0.5383
v 0.3658 0.5977 0.1484
vt 0.1430 0.8724
vn -0.5959 0.5959 0.5383
v 0.3433 0.5936 0.1075
vt 0.1364 0.8704
vn -0.8494 0.2969 0.4364
v 0.3433 0.5097 0.1075
vt 0.1364 0.8268
vn -0.8494 -0.2969 0.4364
f 402/402/402 403/403/403 404/404/404 405/405/405
v 0.5831 0.5056 0.1484
vt 0.2087 0.8206
vn 0.5959 -0.5959 0.5383
v 0.3658 0.5056 0.1484
vt 0.1448 0.8206
vn -0.5959 -0.5959 0.5383
v 0.3698 0.4831 0.1075
vt 0.1460 0.8140
vn -0.2969 -0.8494 0.4364
v 0.5791 0.4831 0.1075
vt 0.2075 0.8140
vn 0.2969 -0.8494 0.4364
f 406/406/406 407/407/407 408/408/408 409/409/409
v 0.5831 0.5977 0.1484
vt 0.2068 0.9037
vn 0.5959 0.5959 0.5383
v 0.5831 0.5056 0.1484
vt 0.2068 0.8561
vn 0.5959 -0.5959 0.5383
v 0.6056 0.5097 0.1075
vt 0.2134 0.8581
vn 0.8494 -0.2969 0.4364
v 0.6056 0.5936 0.1075
vt 0.2134 0.9017
vn 0.8494 0.2969 0.4364
f 410/410/410 411/411/411 412/412/412 413/413/413
v 0.3658 0.5977 0.1484
vt 0.1430 0.9079
vn -0.5959 0.5959 0.5383
v 0.5831 0.5977 0.1484
vt 0.2068 0.9079
vn 0.5959 0.5959 0.5383
v 0.5791 0.6202 0.1075
vt 0.2057 0.9145
vn 0.2969 0.8494 0.4364
v 0.3698 0.6202 0.1075
vt 0.1442 0.9145
vn -0.2969 0.8494 0.4364
f 414/414/414 415/415/415 416/416/416 417/417/417
v 0.3698 0.4831 0.1075
vt 0.1460 0.7984
vn -0.2969 -0.8494 0.4364
v 0.3658 0.5056 0.1484
vt 0.1448 0.8050
vn -0.5959 -0.5959 0.5383
v 0.3433 0.5097 0.1075
vt 0.1382 0.8062
vn -0.8494 -0.2969 0.4364
f 418/418/418 419/419/419 420/420/420
v 0.3658 0.5977 0.1484
vt 0.1430 0.8922
vn -0.5959 0.5959 0.5383
v 0.3698 0.6202 0.1075
vt 0.1442 0.8988
vn -0.2969 0.8494 0.4364
v 0.3433 0.5936 0.1075
vt 0.1364 0.8910
vn -0.8494 0.2969 0.4364
f 421/421/421 422/422/422 423/423/423
v 0.6056 0.5097 0.1075
vt 0.2153 0.8374
vn 0.8494 -0.2969 0.4364
v 0.5831 0.5056 0.1484
vt 0.2087 0.8362
vn 0.5959 -0.5959 0.5383
v 0.5791 0.4831 0.1075
vt 0.2075 0.8296
vn 0.2969 -0.8494 0.4364
f 424/424/424 425/425/425 426/426/426
v 0.5831 0.5977 0.1484
vt 0.2068 0.9235
vn 0.5959 0.5959 0.5383
v 0.6056 0.5936 0.1075
vt 0.2134 0.9223
vn 0.8494 0.2969 0.4364
v 0.5791 0.6202 0.1075
vt 0.2057 0.9301
vn 0.2969 0.8494 0.4364
f 427/427/427 428/428/428 429/429/429
v 0.4132 0.3511 0.1484
vt 0.2068 0.8404
vn 0.0000 0.0000 1.0000
v 0.4132 0.4432 0.1484
vt 0.2068 0.8881
vn 0.0000 0.0000 1.0000
v 0.1958 0.4432 0.1484
vt 0.1430 0.8881
vn 0.0000 0.0000 1.0000
v 0.1958 0.3511 0.1484
vt 0.1430 0.8404
vn 0.0000 0.0000 1.0000
f 430/430/430 431/431/431 432/432/432 433/433/433
v 0.1958 0.3511 0.1484
vt 0.1430 0.8248
vn -0.5959 -0.5959 0.5383
v 0.1958 0.4432 0.1484
vt 0.1430 0.8724
vn -0.5959 0.5959 0.5383
v 0.1734 0.4391 0.1075
vt 0.1364 0.8704
vn -0.8494 0.2969 0.4364
v 0.1734 0.3552 0.1075
vt 0.1364 0.8268
vn -0.8494 -0.2969 0.4364
f 434/434/434 435/435/435 436/436/436 437/437/437
v 0.4132 0.3511 0.1484
vt 0.2087 0.8206
vn 0.5959 -0.5959 0.5383
v 0.1958 0.3511 0.1484
vt 0.1448 0.8206
vn -0.5959 -0.5959 0.5383
v 0.1999 0.3286 0.1075
vt 0.1460 0.8140
vn -0.2969 -0.8494 0.4364
v 0.4091 0.3286 0.1075
vt 0.2075 0.8140
vn 0.2969 -0.8494 0.4364
f 438/438/438 439/439/439 440/440/440 441/441/441
v 0.4132 0.4432 0.1484
vt 0.2068 0.9037
vn 0.5959 0.5959 0.5383
v 0.4132 0.3511 0.1484
vt 0.2068 0.8561
vn 0.5959 -0.5959 0.5383
v 0.4357 0.3552 0.1075
vt 0.2134 0.8581
vn 0.8494 -0.2969 0.4364
v 0.4357 0.4391 0.1075
vt 0.2134 0.9017
vn 0.8494 0.2969 0.4364
f 442/442/442 443/443/443 444/444/444 445/445/445
v 0.1958 0.4432 0.1484
vt 0.1430 0.9079
vn -0.5959 0.5959 0.5383
v 0.4132 0.4432 0.1484
vt 0.2068 0.9079
vn 0.5959 0.5959 0.5383
v 0.4091 0.4657 0.1075
vt 0.2057 0.9145
vn 0.2969 0.8494 0.4364
v 0.1999 0.4657 0.1075
vt 0.1442 0.9145
vn -0.2969 0.8494 0.4364
f 446/446/446 447/447/447 448/448/448 449/449/449
v 0.1999 0.3286 0.1075
vt 0.1460 0.7984
vn -0.2969 -0.8494 0.4364
v 0.1958 0.3511 0.1484
vt 0.1448 0.8050
vn -0.5959 -0.5959 0.5383
v 0.1734 0.3552 0.1075
vt 0.1382 0.8062
vn -0.8494 -0.2969 0.4364
f 450/450/450 451/451/451 452/452/452
v 0.1958 0.4432 0.1484
vt 0.1430 0.8922
vn -0.5959 0.5959 0.5383
v 0.1999 0.4657 0.1075
vt 0.1442 0.8988
vn -0.2969 0.8494 0.4364
v 0.1734 0.4391 0.1075
vt 0.1364 0.8910
vn -0.8494 0.2969 0.4364
f 453/453/453 454/454/454 455/455/455
v 0.4357 0.3552 0.1075
vt 0.2153 0.8374
vn 0.8494 -0.2969 0.4364
v 0.4132 0.3511 0.1484
vt 0.2087 0.8362
vn 0.5959 -0.5959 0.5383
v 0.4091 0.3286 0.1075
vt 0.2075 0.8296
vn 0.2969 -0.8494 0.4364
f 456/456/456 457/457/457 458/458/458
v 0.4132 0.4432 0.1484
vt 0.2068 0.9235
vn 0.5959 0.5959 0.5383
v 0.4357 0.4391 0.1075
vt 0.2134 0.9223
vn 0.8494 0.2969 0.4364
v 0.4091 0.4657 0.1075
vt 0.2057 0.9301
vn 0.2969 0.8494 0.4364
f 459/459/459 460/460/460 461/461/461
v 0.0000 1.5207 -0.1932
vt 0.0594 0.8019
vn -1.0000 0.0000 0.0000
v 0.0000 1.4400 -0.1125
vt 0.0594 0.7961
vn -1.0000 0.0000 0.0000
v 0.0000 1.4400 0.1125
vt 0.0587 0.7950
vn -1.0000 0.0000 0.0000
v 0.0000 1.5207 0.1932
vt 0.0594 0.8019
vn -1.0000 0.0000 0.0000
f 462/462/462 463/463/463 464/464/464 465/465/465
v 0.0000 1.5207 -0.1932
vt 0.0594 0.8019
vn -0.0000 -0.7071 -0.7071
v 0.0000 1.5525 -0.2250
vt 0.0594 0.8042
vn -0.0000 -0.7071 -0.7071
v 0.4050 1.5525 -0.2250
vt 0.0575 0.8042
vn -0.0000 -0.7071 -0.7071
v 0.4500 1.5207 -0.1932
vt 0.0573 0.8019
vn -0.0000 -0.7071 -0.7071
f 466/466/466 467/467/467 468/468/468 469/469/469
v 0.0000 1.8000 -0.2250
vt 0.0594 0.8844
vn -0.0000 0.0000 -1.0000
v 0.4050 1.8000 -0.2250
vt 0.0575 0.8844
vn -0.0000 0.0000 -1.0000
v 0.4050 1.5525 -0.2250
vt 0.0575 0.8667
vn -0.0000 0.0000 -1.0000
v 0.0000 1.5525 -0.2250
vt 0.0594 0.8667
vn -0.0000 0.0000 -1.0000
f 470/470/470 471/471/471 472/472/472 473/473/473
v 0.4500 1.5207 0.1932
vt 0.0573 0.8019
vn 0.0000 -0.7071 0.7071
v 0.9000 1.4400 0.1125
vt 0.0551 0.7961
vn 0.0000 -0.7071 0.7071
v 0.9000 1.5525 0.2250
vt 0.0551 0.8042
vn 0.0000 -0.7071 0.7071
v 0.4950 1.5525 0.2250
vt 0.0571 0.8042
vn 0.0000 -0.7071 0.7071
f 474/474/474 475/475/475 476/476/476 477/477/477
v 0.9000 1.5525 -0.2250
vt 0.0551 0.8042
vn -0.0000 -0.7071 -0.7071
v 0.9000 1.4400 -0.1125
vt 0.0551 0.7961
vn -0.0000 -0.7071 -0.7071
v 0.4500 1.5207 -0.1932
vt 0.0573 0.8019
vn -0.0000 -0.7071 -0.7071
v 0.4950 1.5525 -0.2250
vt 0.0571 0.8042
vn -0.0000 -0.7071 -0.7071
f 478/478/478 479/479/479 480/480/480 481/481/481
v 0.9000 1.8000 0.2250
vt 0.0551 0.8844
vn 0.0000 0.0000 1.0000
v 0.4950 1.8000 0.2250
vt 0.0571 0.8844
vn 0.0000 0.0000 1.0000
v 0.4950 1.5525 0.2250
vt 0.0571 0.8667
vn 0.0000 0.0000 1.0000
v 0.9000 1.5525 0.2250
vt 0.0551 0.8667
vn 0.0000 0.0000 1.0000
f 482/482/482 483/483/483 484/484/484 485/485/485
v 0.4950 1.8000 -0.2250
vt 0.0571 0.8844
vn -0.0000 0.0000 -1.0000
v 0.9000 1.8000 -0.2250
vt 0.0551 0.8844
vn -0.0000 0.0000 -1.0000
v 0.9000 1.5525 -0.2250
vt 0.0551 0.8667
vn -0.0000 0.0000 -1.0000
v 0.4950 1.5525 -0.2250
vt 0.0571 0.8667
vn -0.0000 0.0000 -1.0000
f 486/486/486 487/487/487 488/488/488 489/489/489
v 0.4950 1.8000 -0.2250
vt 0.0571 0.8844
vn -0.5774 0.0000 -0.8165
v 0.4950 1.5525 -0.2250
vt 0.0571 0.8667
vn -0.5774 0.0000 -0.8165
v 0.4500 1.5207 -0.1932
vt 0.0573 0.8644
vn -0.5774 0.0000 -0.8165
v 0.4500 1.8000 -0.1932
vt 0.0573 0.8812
vn -0.5774 0.0000 -0.8165
f 490/490/490 491/491/491 492/492/492 493/493/493
v 0.4500 1.8000 -0.1932
vt 0.0573 0.8812
vn 0.5773 0.0000 -0.8165
v 0.4500 1.5207 -0.1932
vt 0.0573 0.8644
vn 0.5773 0.0000 -0.8165
v 0.4050 1.5525 -0.2250
vt 0.0575 0.8667
vn 0.5773 0.0000 -0.8165
v 0.4050 1.8000 -0.2250
vt 0.0575 0.8844
vn 0.5773 0.0000 -0.8165
f 494/494/494 495/495/495 496/496/496 497/497/497
v 0.4050 1.8000 0.2250
vt 0.0575 0.8844
vn 0.5774 0.0000 0.8165
v 0.4050 1.5525 0.2250
vt 0.0575 0.8667
vn 0.5774 0.0000 0.8165
v 0.4500 1.5207 0.1932
vt 0.0573 0.8644
vn 0.5774 0.0000 0.8165
v 0.4500 1.8000 0.1932
vt 0.0573 0.8812
vn 0.5774 0.0000 0.8165
f 498/498/498 499/499/499 500/500/500 501/501/501
v 0.4500 1.8000 0.1932
vt 0.0573 0.8812
vn -0.5773 0.0000 0.8165
v 0.4500 1.5207 0.1932
vt 0.0573 0.8644
vn -0.5773 0.0000 0.8165
v 0.4950 1.5525 0.2250
vt 0.0571 0.8667
vn -0.5773 0.0000 0.8165
v 0.4950 1.8000 0.2250
vt 0.0571 0.8844
vn -0.5773 0.0000 0.8165
f 502/502/502 503/503/503 504/504/504 505/505/505
v 0.9000 1.8000 0.2250
vt 0.0551 0.9938
vn 0.0000 1.0000 0.0000
v 0.4950 1.8000 0.1575
vt 0.0571 0.9938
vn 0.0000 1.0000 0.0000
v 0.4950 1.8000 0.2250
vt 0.0571 0.9938
vn 0.0000 1.0000 0.0000
f 506/506/506 507/507/507 508/508/508
v 0.0000 1.4400 0.1125
vt 0.0594 0.7961
vn 0.0000 -0.7071 0.7071
v 0.9000 1.4400 0.1125
vt 0.0551 0.7961
vn 0.0000 -0.7071 0.7071
v 0.4500 1.5207 0.1932
vt 0.0573 0.8019
vn 0.0000 -0.7071 0.7071
v 0.0000 1.5207 0.1932
vt 0.0594 0.8019
vn 0.0000 -0.7071 0.7071
f 509/509/509 510/510/510 511/511/511 512/512/512
v 0.9000 1.5525 -0.2250
vt 0.0551 0.8042
vn 1.0000 0.0000 -0.0000
v 0.9000 1.5525 0.2250
vt 0.0551 0.8042
vn 1.0000 0.0000 -0.0000
v 0.9000 1.4400 0.1125
vt 0.0551 0.7961
vn 1.0000 0.0000 -0.0000
v 0.9000 1.4400 -0.1125
vt 0.0551 0.7961
vn 1.0000 0.0000 -0.0000
f 513/513/513 514/514/514 515/515/515 516/516/516
v 0.9000 1.5525 -0.2250
vt 0.0551 0.8667
vn 1.0000 0.0000 -0.0000
v 0.9000 1.8000 -0.2250
vt 0.0551 0.8844
vn 1.0000 0.0000 -0.0000
v 0.9000 1.8000 0.2250
vt 0.0551 0.8844
vn 1.0000 0.0000 -0.0000
v 0.9000 1.5525 0.2250
vt 0.0551 0.8667
vn 1.0000 0.0000 -0.0000
f 517/517/517 518/518/518 519/519/519 520/520/520
v 0.9000 1.8000 -0.2250
vt 0.0551 0.9938
vn 0.0000 1.0000 0.0000
v 0.4950 1.8000 -0.2250
vt 0.0571 0.9938
vn 0.0000 1.0000 0.0000
v 0.4950 1.8000 -0.1575
vt 0.0571 0.9938
vn 0.0000 1.0000 0.0000
f 521/521/521 522/522/522 523/523/523
v 0.9000 1.8000 -0.2250
vt 0.0551 0.9938
vn 0.0000 1.0000 0.0000
v 0.4950 1.8000 -0.1575
vt 0.0571 0.9938
vn 0.0000 1.0000 0.0000
v 0.4950 1.8000 0.1575
vt 0.0571 0.9938
vn 0.0000 1.0000 0.0000
v 0.9000 1.8000 0.2250
vt 0.0551 0.9938
vn 0.0000 1.0000 0.0000
f 524/524/524 525/525/525 526/526/526 527/527/527
v 0.0000 0.2250 -0.1125
vt 0.0594 0.9550
vn -1.0000 0.0000 0.0000
v 0.0000 0.1125 -0.2250
vt 0.0594 0.9469
vn -1.0000 0.0000 0.0000
v 0.0000 0.1125 0.2250
vt 0.0594 0.9469
vn -1.0000 0.0000 0.0000
v 0.0000 0.2250 0.1125
vt 0.0594 0.9550
vn -1.0000 0.0000 0.0000
f 528/528/528 529/529/529 530/530/530 531/531/531
v 0.4500 1.7550 -0.1575
vt 0.0573 0.8281
vn -0.6802 0.6802 0.2732
v 0.4500 1.7550 0.1575
vt 0.0573 0.8281
vn -0.6802 0.6802 -0.2732
v 0.4950 1.8000 0.1575
vt 0.0571 0.8906
vn -0.6802 0.6802 -0.2732
v 0.4950 1.8000 -0.1575
vt 0.0571 0.8906
vn -0.6802 0.6802 0.2732
f 532/532/532 533/533/533 534/534/534 535/535/535
v 0.4050 1.8000 -0.1575
vt 0.0575 0.8906
vn 0.6802 0.6802 0.2732
v 0.4050 1.8000 0.1575
vt 0.0575 0.8906
vn 0.6802 0.6802 -0.2732
v 0.4500 1.7550 0.1575
vt 0.0573 0.8906
vn 0.6802 0.6802 -0.2732
v 0.4500 1.7550 -0.1575
vt 0.0573 0.8906
vn 0.6802 0.6802 0.2732
f 536/536/536 537/537/537 538/538/538 539/539/539
v 0.0000 0.1125 -0.2250
vt 0.0594 0.8844
vn -1.0000 0.0000 0.0000
v 0.0000 0.0000 -0.2250
vt 0.0594 0.8764
vn -1.0000 0.0000 0.0000
v 0.0000 0.0000 0.2250
vt 0.0594 0.8764
vn -1.0000 0.0000 0.0000
v 0.0000 0.1125 0.2250
vt 0.0594 0.8844
vn -1.0000 0.0000 0.0000
f 540/540/540 541/541/541 542/542/542 543/543/543
v 0.0000 1.8000 0.2250
vt 0.0594 0.8844
vn -1.0000 0.0000 0.0000
v 0.0000 1.8000 -0.2250
vt 0.0594 0.8844
vn -1.0000 0.0000 0.0000
v 0.0000 1.5525 -0.2250
vt 0.0594 0.8667
vn -1.0000 0.0000 0.0000
v 0.0000 1.5525 0.2250
vt 0.0594 0.8667
vn -1.0000 0.0000 0.0000
f 544/544/544 545/545/545 546/546/546 547/547/547
v 0.4500 1.8000 -0.1932
vt 0.0573 0.9937
vn 0.0000 1.0000 0.0000
v 0.4050 1.8000 -0.2250
vt 0.0575 0.9938
vn 0.0000 1.0000 0.0000
v 0.4050 1.8000 -0.1575
vt 0.0575 0.9938
vn 0.0000 1.0000 0.0000
f 548/548/548 549/549/549 550/550/550
v 0.4950 1.8000 -0.2250
vt 0.0571 0.9938
vn 0.0000 1.0000 0.0000
v 0.4500 1.8000 -0.1932
vt 0.0573 0.9937
vn 0.0000 1.0000 0.0000
v 0.4950 1.8000 -0.1575
vt 0.0571 0.9938
vn 0.0000 1.0000 0.0000
f 551/551/551 552/552/552 553/553/553
v 0.4500 1.7550 -0.1575
vt 0.0573 0.8906
vn -0.6802 0.6802 0.2732
v 0.4950 1.8000 -0.1575
vt 0.0571 0.8906
vn -0.6802 0.6802 0.2732
v 0.4500 1.8000 -0.1932
vt 0.0573 0.8906
vn -0.5277 0.5277 0.6656
f 554/554/554 555/555/555 556/556/556
v 0.4500 1.8000 0.1932
vt 0.0573 0.9937
vn 0.0000 1.0000 0.0000
v 0.4950 1.8000 0.2250
vt 0.0571 0.9938
vn 0.0000 1.0000 0.0000
v 0.4950 1.8000 0.1575
vt 0.0571 0.9938
vn 0.0000 1.0000 0.0000
f 557/557/557 558/558/558 559/559/559
v 0.4050 1.8000 0.2250
vt 0.0575 0.9938
vn 0.0000 1.0000 0.0000
v 0.4500 1.8000 0.1932
vt 0.0573 0.9937
vn 0.0000 1.0000 0.0000
v 0.4050 1.8000 0.1575
vt 0.0575 0.9938
vn 0.0000 1.0000 0.0000
f 560/560/560 561/561/561 562/562/562
v 0.4500 1.7550 0.1575
vt 0.0573 0.8906
vn 0.6802 0.6802 -0.2732
v 0.4050 1.8000 0.1575
vt 0.0575 0.8906
vn 0.6802 0.6802 -0.2732
v 0.4500 1.8000 0.1932
vt 0.0573 0.8906
vn 0.5277 0.5277 -0.6656
f 563/563/563 564/564/564 565/565/565
v 0.0000 1.5207 0.1932
vt 0.0594 0.8019
vn -1.0000 0.0000 0.0000
v 0.0000 1.5525 0.2250
vt 0.0594 0.8042
vn -1.0000 0.0000 0.0000
v 0.0000 1.5525 -0.2250
vt 0.0594 0.8042
vn -1.0000 0.0000 0.0000
v 0.0000 1.5207 -0.1932
vt 0.0594 0.8019
vn -1.0000 0.0000 0.0000
f 566/566/566 567/567/567 568/568/568 569/569/569
v 0.4050 1.8000 -0.1575
vt 0.0575 0.8906
vn 0.6802 0.6802 0.2732
v 0.4500 1.7550 -0.1575
vt 0.0573 0.8906
vn 0.6802 0.6802 0.2732
v 0.4500 1.8000 -0.1932
vt 0.0573 0.8906
vn 0.5277 0.5277 0.6656
f 570/570/570 571/571/571 572/572/572
v 0.4950 1.8000 0.1575
vt 0.0571 0.8906
vn -0.6802 0.6802 -0.2732
v 0.4500 1.7550 0.1575
vt 0.0573 0.8906
vn -0.6802 0.6802 -0.2732
v 0.4500 1.8000 0.1932
vt 0.0573 0.8906
vn -0.5277 0.5277 -0.6656
f 573/573/573 574/574/574 575/575/575
v 0.4050 1.8000 -0.1575
vt 0.0575 0.9938
vn 0.0000 1.0000 0.0000
v 0.0000 1.8000 -0.2250
vt 0.0594 0.9938
vn 0.0000 1.0000 0.0000
v 0.0000 1.8000 0.2250
vt 0.0594 0.9938
vn 0.0000 1.0000 0.0000
v 0.4050 1.8000 0.1575
vt 0.0575 0.9938
vn 0.0000 1.0000 0.0000
f 576/576/576 577/577/577 578/578/578 579/579/579
v 0.4050 1.8000 -0.2250
vt 0.0575 0.9938
vn 0.0000 1.0000 0.0000
v 0.0000 1.8000 -0.2250
vt 0.0594 0.9938
vn 0.0000 1.0000 0.0000
v 0.4050 1.8000 -0.1575
vt 0.0575 0.9938
vn 0.0000 1.0000 0.0000
f 580/580/580 581/581/581 582/582/582
v 0.4050 1.8000 0.2250
vt 0.0575 0.8844
vn 0.0000 0.0000 1.0000
v 0.0000 1.8000 0.2250
vt 0.0594 0.8844
vn 0.0000 0.0000 1.0000
v 0.0000 1.5525 0.2250
vt 0.0594 0.8667
vn 0.0000 0.0000 1.0000
v 0.4050 1.5525 0.2250
vt 0.0575 0.8667
vn 0.0000 0.0000 1.0000
f 583/583/583 584/584/584 585/585/585 586/586/586
v 0.4050 1.8000 0.1575
vt 0.0575 0.9938
vn 0.0000 1.0000 0.0000
v 0.0000 1.8000 0.2250
vt 0.0594 0.9938
vn 0.0000 1.0000 0.0000
v 0.4050 1.8000 0.2250
vt 0.0575 0.9938
vn 0.0000 1.0000 0.0000
f 587/587/587 588/588/588 589/589/589
v 0.9000 1.4400 -0.1125
vt 0.0551 0.7961
vn -0.0000 -0.7071 -0.7071
v 0.0000 1.4400 -0.1125
vt 0.0594 0.7961
vn -0.0000 -0.7071 -0.7071
v 0.0000 1.5207 -0.1932
vt 0.0594 0.8019
vn -0.0000 -0.7071 -0.7071
v 0.4500 1.5207 -0.1932
vt 0.0573 0.8019
vn -0.0000 -0.7071 -0.7071
f 590/590/590 591/591/591 592/592/592 593/593/593
v 0.0000 0.2250 -0.1125
vt 0.1720 0.8485
vn -1.0000 0.0000 0.0000
v 0.0000 0.2250 0.1125
vt 0.1720 0.8485
vn -1.0000 0.0000 0.0000
v 0.0000 1.4400 0.1125
vt 0.1720 0.8809
vn -1.0000 0.0000 0.0000
v 0.0000 1.4400 -0.1125
vt 0.1720 0.8809
vn -1.0000 0.0000 0.0000
f 594/594/594 595/595/595 596/596/596 597/597/597
v 0.4500 1.5207 0.1932
vt 0.0573 0.8019
vn 0.0000 -0.7071 0.7071
v 0.4050 1.5525 0.2250
vt 0.0575 0.8042
vn 0.0000 -0.7071 0.7071
v 0.0000 1.5525 0.2250
vt 0.0594 0.8042
vn 0.0000 -0.7071 0.7071
v 0.0000 1.5207 0.1932
vt 0.0594 0.8019
vn 0.0000 -0.7071 0.7071
f 598/598/598 599/599/599 600/600/600 601/601/601
v 0.9000 0.2250 -0.1125
vt 0.0551 0.9550
vn -0.0000 0.7071 -0.7071
v 0.4500 0.1443 -0.1932
vt 0.0573 0.9492
vn -0.0000 0.7071 -0.7071
v 0.0000 0.2250 -0.1125
vt 0.0594 0.9550
vn -0.0000 0.7071 -0.7071
f 602/602/602 603/603/603 604/604/604
v 0.4050 0.0000 0.2250
vt 0.0575 0.8764
vn 0.0000 0.0000 1.0000
v 0.4050 0.1125 0.2250
vt 0.0575 0.8844
vn 0.0000 0.0000 1.0000
v 0.0000 0.1125 0.2250
vt 0.0594 0.8844
vn 0.0000 0.0000 1.0000
v 0.0000 0.0000 0.2250
vt 0.0594 0.8764
vn 0.0000 0.0000 1.0000
f 605/605/605 606/606/606 607/607/607 608/608/608
v 0.4500 0.1443 0.1932
vt 0.0573 0.9492
vn 0.0000 0.7071 0.7071
v 0.0000 0.2250 0.1125
vt 0.0594 0.9492
vn 0.0000 0.7071 0.7071
v 0.0000 0.1125 0.2250
vt 0.0594 0.9469
vn 0.0000 0.7071 0.7071
v 0.4050 0.1125 0.2250
vt 0.0575 0.9469
vn 0.0000 0.7071 0.7071
f 609/609/609 610/610/610 611/611/611 612/612/612
