# Blender 4.5.13 LTS
# www.blender.org
o stone
v 0.340000 0.000000 0.000000
v 0.306329 0.000000 -0.147520
v 0.211987 0.000000 -0.265823
v 0.075657 0.000000 -0.331475
v -0.075657 0.000000 -0.331475
v -0.211987 0.000000 -0.265823
v -0.306329 0.000000 -0.147520
v -0.340000 0.000000 -0.000000
v -0.306329 0.000000 0.147520
v -0.211987 0.000000 0.265823
v -0.075657 0.000000 0.331475
v 0.075657 0.000000 0.331475
v 0.211987 0.000000 0.265823
v 0.306329 0.000000 0.147520
v 0.460000 0.000000 0.000000
v 0.414446 0.000000 -0.199587
v 0.286805 0.000000 -0.359642
v 0.102360 0.000000 -0.448467
v -0.102360 0.000000 -0.448467
v -0.286805 0.000000 -0.359642
v -0.414446 0.000000 -0.199587
v -0.460000 0.000000 -0.000000
v -0.414446 0.000000 0.199587
v -0.286805 0.000000 0.359642
v -0.102360 0.000000 0.448467
v 0.102360 0.000000 0.448467
v 0.286805 0.000000 0.359642
v 0.414446 0.000000 0.199587
v 0.460000 0.500000 0.000000
v 0.414446 0.500000 -0.199587
v 0.286805 0.500000 -0.359642
v 0.102360 0.500000 -0.448467
v -0.102360 0.500000 -0.448467
v -0.286805 0.500000 -0.359642
v -0.414446 0.500000 -0.199587
v -0.460000 0.500000 -0.000000
v -0.414446 0.500000 0.199587
v -0.286805 0.500000 0.359642
v -0.102360 0.500000 0.448467
v 0.102360 0.500000 0.448467
v 0.286805 0.500000 0.359642
v 0.414446 0.500000 0.199587
v 0.340000 0.500000 0.000000
v 0.306329 0.500000 -0.147520
v 0.211987 0.500000 -0.265823
v 0.075657 0.500000 -0.331475
v -0.075657 0.500000 -0.331475
v -0.211987 0.500000 -0.265823
v -0.306329 0.500000 -0.147520
v -0.340000 0.500000 -0.000000
v -0.306329 0.500000 0.147520
v -0.211987 0.500000 0.265823
v -0.075657 0.500000 0.331475
v 0.075657 0.500000 0.331475
v 0.211987 0.500000 0.265823
v 0.306329 0.500000 0.147520
v 0.340000 0.100000 0.000000
v 0.306329 0.100000 -0.147520
v 0.211987 0.100000 -0.265823
v 0.075657 0.100000 -0.331475
v -0.075657 0.100000 -0.331475
v -0.211987 0.100000 -0.265823
v -0.306329 0.100000 -0.147520
v -0.340000 0.100000 -0.000000
v -0.306329 0.100000 0.147520
v -0.211987 0.100000 0.265823
v -0.075657 0.100000 0.331475
v 0.075657 0.100000 0.331475
v 0.211987 0.100000 0.265823
v 0.306329 0.100000 0.147520
v 0.000000 0.300000 -0.360000
v 0.000000 0.350000 -0.360000
v 0.156198 0.300000 -0.324349
v 0.156198 0.350000 -0.324349
v 0.281459 0.300000 -0.224456
v 0.281459 0.350000 -0.224456
v 0.350974 0.300000 -0.080108
v 0.350974 0.350000 -0.080108
v 0.350974 0.300000 0.080108
v 0.350974 0.350000 0.080108
v 0.281459 0.300000 0.224456
v 0.281459 0.350000 0.224456
v 0.156198 0.300000 0.324349
v 0.156198 0.350000 0.324349
v 0.000000 0.300000 0.360000
v 0.000000 0.350000 0.360000
v -0.156198 0.300000 0.324349
v -0.156198 0.350000 0.324349
v -0.281459 0.300000 0.224456
v -0.281459 0.350000 0.224456
v -0.350974 0.300000 0.080108
v -0.350974 0.350000 0.080108
v -0.350974 0.300000 -0.080108
v -0.350974 0.350000 -0.080108
v -0.281459 0.300000 -0.224456
v -0.281459 0.350000 -0.224456
v -0.156198 0.300000 -0.324349
v -0.156198 0.350000 -0.324349
v -0.460000 0.000000 0.040000
v -0.460000 1.100000 0.040000
v -0.460000 0.000000 -0.040000
v -0.460000 1.100000 -0.040000
v -0.380000 0.000000 0.040000
v -0.380000 1.100000 0.040000
v -0.380000 0.000000 -0.040000
v -0.380000 1.100000 -0.040000
v 0.380000 0.000000 0.040000
v 0.380000 1.100000 0.040000
v 0.380000 0.000000 -0.040000
v 0.380000 1.100000 -0.040000
v 0.460000 0.000000 0.040000
v 0.460000 1.100000 0.040000
v 0.460000 0.000000 -0.040000
v 0.460000 1.100000 -0.040000
v -0.475000 0.920000 0.030000
v -0.475000 0.980000 0.030000
v -0.475000 0.920000 -0.030000
v -0.475000 0.980000 -0.030000
v 0.475000 0.920000 0.030000
v 0.475000 0.980000 0.030000
v 0.475000 0.920000 -0.030000
v 0.475000 0.980000 -0.030000
v -0.600000 0.944090 0.412851
v -0.600000 0.985357 0.441083
v -0.600000 1.254643 -0.041083
v -0.600000 1.295910 -0.012851
v 0.600000 0.944090 0.412851
v 0.600000 0.985357 0.441083
v 0.600000 1.254643 -0.041083
v 0.600000 1.295910 -0.012851
v -0.600000 1.254643 0.041083
v -0.600000 1.295910 0.012851
v -0.600000 0.944090 -0.412851
v -0.600000 0.985357 -0.441083
v 0.600000 1.254643 0.041083
v 0.600000 1.295910 0.012851
v 0.600000 0.944090 -0.412851
v 0.600000 0.985357 -0.441083
v 0.070000 0.600000 0.000000
v 0.049497 0.600000 -0.049497
v 0.000000 0.600000 -0.070000
v -0.049497 0.600000 -0.049497
v -0.070000 0.600000 -0.000000
v -0.049497 0.600000 0.049497
v -0.000000 0.600000 0.070000
v 0.049497 0.600000 0.049497
v 0.090000 0.740000 0.000000
v 0.063640 0.740000 -0.063640
v 0.000000 0.740000 -0.090000
v -0.063640 0.740000 -0.063640
v -0.090000 0.740000 -0.000000
v -0.063640 0.740000 0.063640
v -0.000000 0.740000 0.090000
v 0.063640 0.740000 0.063640
vn -0.0000 -1.0000 -0.0000
vn 0.9749 -0.0000 -0.2225
vn 0.7818 -0.0000 -0.6235
vn 0.4339 -0.0000 -0.9010
vn -0.0000 -0.0000 -1.0000
vn -0.4339 -0.0000 -0.9010
vn -0.7818 -0.0000 -0.6235
vn -0.9749 -0.0000 -0.2225
vn -0.9749 -0.0000 0.2225
vn -0.7818 -0.0000 0.6235
vn -0.4339 -0.0000 0.9010
vn -0.0000 -0.0000 1.0000
vn 0.4339 -0.0000 0.9010
vn 0.7818 -0.0000 0.6235
vn 0.9749 -0.0000 0.2225
vn -0.0000 1.0000 -0.0000
vn 0.2225 -0.0000 -0.9749
vn 0.6235 -0.0000 -0.7818
vn 0.9010 -0.0000 -0.4339
vn 1.0000 -0.0000 -0.0000
vn 0.9010 -0.0000 0.4339
vn 0.6235 -0.0000 0.7818
vn 0.2225 -0.0000 0.9749
vn -0.2225 -0.0000 0.9749
vn -0.6235 -0.0000 0.7818
vn -0.9010 -0.0000 0.4339
vn -1.0000 -0.0000 -0.0000
vn -0.9010 -0.0000 -0.4339
vn -0.6235 -0.0000 -0.7818
vn -0.2225 -0.0000 -0.9749
vn -0.0000 0.5646 -0.8253
vn -0.0000 -0.5646 0.8253
vn -0.0000 -0.8253 -0.5646
vn -0.0000 0.8253 0.5646
vn -0.0000 -0.5646 -0.8253
vn -0.0000 0.5646 0.8253
vn -0.0000 -0.8253 0.5646
vn -0.0000 0.8253 -0.5646
vn 0.9159 -0.1308 -0.3794
vn 0.3794 -0.1308 -0.9159
vn -0.3794 -0.1308 -0.9159
vn -0.9159 -0.1308 -0.3794
vn -0.9159 -0.1308 0.3794
vn -0.3794 -0.1308 0.9159
vn 0.3794 -0.1308 0.9159
vn 0.9159 -0.1308 0.3794
vt 0.619679 0.597461
vt 0.604268 0.653547
vt 0.592154 0.617973
vt 0.634954 0.561048
vt 0.641507 0.625796
vt 0.634954 0.515947
vt 0.662174 0.576531
vt 0.619679 0.471089
vt 0.662174 0.515512
vt 0.592154 0.435360
vt 0.641507 0.454822
vt 0.557831 0.415837
vt 0.604268 0.406483
vt 0.523509 0.416385
vt 0.557831 0.380069
vt 0.495984 0.436897
vt 0.511395 0.380811
vt 0.480709 0.473310
vt 0.474155 0.408563
vt 0.480709 0.518412
vt 0.453489 0.457827
vt 0.495984 0.563269
vt 0.453489 0.518847
vt 0.523509 0.598998
vt 0.474155 0.579536
vt 0.557831 0.618522
vt 0.511395 0.627875
vt 0.557831 0.654289
vt 0.665791 0.430193
vt 0.822622 0.492698
vt 0.666066 0.492698
vt 0.665018 0.380069
vt 0.822346 0.430193
vt 0.131814 0.755746
vt 0.001422 0.697983
vt 0.112144 0.697983
vt 0.131814 0.819857
vt 0.021092 0.755746
vt 0.112144 0.877620
vt 0.021092 0.819857
vt 0.665791 0.783304
vt 0.821573 0.833429
vt 0.665018 0.833429
vt 0.666066 0.720800
vt 0.822346 0.783304
vt 0.665791 0.658295
vt 0.822622 0.720800
vt 0.665018 0.608171
vt 0.822346 0.658295
vt 0.228348 0.298924
vt 0.248170 0.157695
vt 0.278510 0.264179
vt 0.166690 0.316492
vt 0.198008 0.192440
vt 0.105748 0.313403
vt 0.136350 0.210008
vt 0.665791 0.555202
vt 0.821573 0.605327
vt 0.665018 0.605327
vt 0.822346 0.555202
vt 0.003031 0.098775
vt 0.037564 0.134892
vt 0.001422 0.145190
vt 0.059989 0.067295
vt 0.038753 0.100585
vt 0.081924 0.018990
vt 0.031762 0.053735
vt 0.143582 0.001422
vt 0.097065 0.041614
vt 0.204523 0.004511
vt 0.142638 0.028629
vt 0.223275 0.048010
vt 0.187682 0.030912
vt 0.278510 0.066240
vt 0.252679 0.027644
vt 0.276900 0.112655
vt 0.242368 0.076538
vt 0.219942 0.144135
vt 0.241178 0.110845
vt 0.182866 0.169816
vt 0.075408 0.206919
vt 0.137293 0.182801
vt 0.056656 0.163420
vt 0.092249 0.180518
vt 0.027253 0.183786
vt 0.135229 0.735032
vt 0.260677 0.781230
vt 0.135433 0.781230
vt 0.134658 0.697983
vt 0.260473 0.735032
vt 0.084261 0.152482
vt 0.121337 0.126801
vt 0.166910 0.113816
vt 0.797373 0.130868
vt 0.922046 0.167917
vt 0.796802 0.167917
vt 0.797577 0.084669
vt 0.922617 0.130868
vt 0.797373 0.038471
vt 0.922821 0.084669
vt 0.796802 0.001422
vt 0.922617 0.038471
vt 0.173557 0.409417
vt 0.276673 0.452111
vt 0.188096 0.452111
vt 0.173557 0.362030
vt 0.262135 0.409417
vt 0.188096 0.319336
vt 0.262135 0.362030
vt 0.135229 0.827429
vt 0.259902 0.864478
vt 0.134658 0.864478
vt 0.260473 0.827429
vt 0.680164 0.275855
vt 0.683342 0.226939
vt 0.691236 0.275855
vt 0.174737 0.658107
vt 0.189634 0.626824
vt 0.190392 0.658107
vt 0.173978 0.626824
vt 0.189213 0.581619
vt 0.173557 0.581619
vt 0.189213 0.531444
vt 0.173557 0.531444
vt 0.189634 0.486239
vt 0.173978 0.486239
vt 0.190392 0.454955
vt 0.636555 0.075911
vt 0.625624 0.127225
vt 0.625624 0.077675
vt 0.636555 0.125460
vt 0.641212 0.174258
vt 0.194416 0.658107
vt 0.209313 0.626824
vt 0.210071 0.658107
vt 0.193657 0.626824
vt 0.208892 0.581619
vt 0.193236 0.581619
vt 0.208892 0.531444
vt 0.193236 0.531444
vt 0.209313 0.486239
vt 0.778370 0.191857
vt 0.652143 0.172494
vt 0.680231 0.007075
vt 0.193657 0.486239
vt 0.210071 0.454955
vt 0.672269 0.324772
vt 0.683342 0.324772
vt 0.550948 0.876962
vt 0.453489 0.767048
vt 0.550948 0.657134
vt 0.825466 0.380069
vt 0.850519 0.724490
vt 0.825466 0.724490
vt 0.937056 0.644217
vt 0.962110 0.887805
vt 0.937056 0.887805
vt 0.853363 0.380069
vt 0.878417 0.724490
vt 0.853363 0.724490
vt 0.615773 0.674849
vt 0.640826 0.918437
vt 0.615773 0.918437
vt 0.193236 0.660951
vt 0.210952 0.686005
vt 0.193236 0.686005
vt 0.640826 0.657134
vt 0.615773 0.657134
vt 0.881261 0.380069
vt 0.906314 0.724490
vt 0.881261 0.724490
vt 0.853363 0.727335
vt 0.878417 0.970923
vt 0.853363 0.970923
vt 0.909158 0.380069
vt 0.934212 0.724490
vt 0.909158 0.724490
vt 0.937056 0.397785
vt 0.962110 0.641373
vt 0.937056 0.641373
vt 0.694080 0.269754
vt 0.711796 0.294808
vt 0.694080 0.294808
vt 0.962110 0.380069
vt 0.937056 0.380069
vt 0.625624 0.371884
vt 0.644411 0.353093
vt 0.644411 0.371884
vt 0.263521 0.995493
vt 0.276808 0.697983
vt 0.276808 0.995493
vt 0.647255 0.371884
vt 0.666042 0.353093
vt 0.666042 0.371884
vt 0.938952 0.298933
vt 0.952239 0.001422
vt 0.952239 0.298933
vt 0.643670 0.657134
vt 0.656957 0.954644
vt 0.643670 0.954644
vt 0.925665 0.001422
vt 0.925665 0.298933
vt 0.265573 0.627188
vt 0.249916 0.454958
vt 0.265573 0.454955
vt 0.955083 0.377225
vt 0.970473 0.001422
vt 0.970473 0.377225
vt 0.212915 0.454955
vt 0.228572 0.627191
vt 0.212915 0.627188
vt 0.964954 0.755872
vt 0.980344 0.380069
vt 0.980344 0.755872
vt 0.001422 0.319336
vt 0.170713 0.695139
vt 0.001422 0.695139
vt 0.281354 0.001422
vt 0.450645 0.377225
vt 0.281354 0.377225
vt 0.231416 0.454955
vt 0.247072 0.627191
vt 0.231416 0.627188
vt 0.973317 0.377225
vt 0.988707 0.001422
vt 0.988707 0.377225
vt 0.812458 0.342994
vt 0.796802 0.170764
vt 0.812458 0.170761
vt 0.983188 0.755872
vt 0.998578 0.380069
vt 0.998578 0.755872
vt 0.450645 0.755872
vt 0.281354 0.380069
vt 0.450645 0.380069
vt 0.622780 0.377225
vt 0.453489 0.001422
vt 0.622780 0.001422
vt 0.235845 0.674116
vt 0.251346 0.630035
vt 0.251346 0.673991
vt 0.663495 0.267555
vt 0.649772 0.226939
vt 0.669425 0.233650
vt 0.632523 0.266187
vt 0.648209 0.262336
vt 0.707700 0.371697
vt 0.692199 0.327616
vt 0.712129 0.327776
vt 0.676698 0.371697
vt 0.692199 0.371573
vt 0.729511 0.266910
vt 0.714010 0.226939
vt 0.733940 0.232776
vt 0.698509 0.266910
vt 0.714010 0.262370
vt 0.266847 0.674116
vt 0.271276 0.630194
vt 0.625624 0.276854
vt 0.669425 0.278789
vt 0.663877 0.338366
vt 0.636828 0.346288
vt 0.625624 0.308035
vt 0.821573 0.380069
vt 0.001422 0.877620
vt 0.821573 0.608171
vt 0.259902 0.697983
vt 0.211954 0.116099
vt 0.922046 0.001422
vt 0.276673 0.319336
vt 0.672269 0.226939
vt 0.174737 0.454955
vt 0.750282 0.017821
vt 0.778370 0.053023
vt 0.793958 0.100057
vt 0.793958 0.149606
vt 0.750282 0.218442
vt 0.715257 0.224095
vt 0.680231 0.207696
vt 0.652143 0.033660
vt 0.715256 0.001422
vt 0.194416 0.454955
vt 0.605034 0.718131
vt 0.612929 0.767048
vt 0.605034 0.815964
vt 0.582913 0.855192
vt 0.515469 0.876962
vt 0.483504 0.855192
vt 0.461384 0.815964
vt 0.461384 0.718131
vt 0.483504 0.678903
vt 0.515469 0.657134
vt 0.582913 0.678903
vt 0.850519 0.380069
vt 0.962110 0.644217
vt 0.878417 0.380069
vt 0.640826 0.674849
vt 0.210952 0.660951
vt 0.906314 0.380069
vt 0.878417 0.727335
vt 0.934212 0.380069
vt 0.962110 0.397785
vt 0.711796 0.269754
vt 0.625624 0.353093
vt 0.263521 0.697983
vt 0.647255 0.353093
vt 0.938952 0.001422
vt 0.656957 0.657134
vt 0.249916 0.627191
vt 0.955083 0.001422
vt 0.228572 0.454958
vt 0.964954 0.380069
vt 0.170713 0.319336
vt 0.450645 0.001422
vt 0.247072 0.454958
vt 0.973317 0.001422
vt 0.796802 0.342996
vt 0.983188 0.380069
vt 0.281354 0.755872
vt 0.453489 0.377225
vt 0.231416 0.630194
vt 0.629604 0.231891
vt 0.672269 0.327776
vt 0.694080 0.232776
vt 0.662527 0.289456
vt 0.646841 0.293308
vt 0.631555 0.288088
vt 0.636828 0.296152
vt 0.652673 0.300113
vt 0.663877 0.317598
vt 0.652673 0.350249
vt 0.625624 0.328802
s 0
f 2/1/1 15/2/1 1/3/1
f 3/4/1 16/5/1 2/1/1
f 4/6/1 17/7/1 3/4/1
f 5/8/1 18/9/1 4/6/1
f 6/10/1 19/11/1 5/8/1
f 7/12/1 20/13/1 6/10/1
f 8/14/1 21/15/1 7/12/1
f 9/16/1 22/17/1 8/14/1
f 10/18/1 23/19/1 9/16/1
f 11/20/1 24/21/1 10/18/1
f 12/22/1 25/23/1 11/20/1
f 13/24/1 26/25/1 12/22/1
f 14/26/1 27/27/1 13/24/1
f 1/3/1 28/28/1 14/26/1
f 16/29/2 29/30/2 15/31/2
f 17/32/3 30/33/3 16/29/3
f 18/34/4 31/35/4 17/36/4
f 19/37/5 32/38/5 18/34/5
f 20/39/6 33/40/6 19/37/6
f 21/41/7 34/42/7 20/43/7
f 22/44/8 35/45/8 21/41/8
f 23/46/9 36/47/9 22/44/9
f 24/48/10 37/49/10 23/46/10
f 25/50/11 38/51/11 24/52/11
f 26/53/12 39/54/12 25/50/12
f 27/55/13 40/56/13 26/53/13
f 28/57/14 41/58/14 27/59/14
f 15/31/15 42/60/15 28/57/15
f 30/61/16 43/62/16 29/63/16
f 30/61/16 45/64/16 44/65/16
f 32/66/16 45/64/16 31/67/16
f 33/68/16 46/69/16 32/66/16
f 34/70/16 47/71/16 33/68/16
f 34/70/16 49/72/16 48/73/16
f 36/74/16 49/72/16 35/75/16
f 37/76/16 50/77/16 36/74/16
f 37/76/16 52/78/16 51/79/16
f 39/54/16 52/78/16 38/51/16
f 40/56/16 53/80/16 39/54/16
f 41/81/16 54/82/16 40/56/16
f 41/81/16 56/83/16 55/84/16
f 29/63/16 56/83/16 42/85/16
f 44/86/9 57/87/9 43/88/9
f 45/89/10 58/90/10 44/86/10
f 46/69/11 59/91/11 45/64/11
f 47/71/12 60/92/12 46/69/12
f 48/73/13 61/93/13 47/71/13
f 49/94/14 62/95/14 48/96/14
f 50/97/15 63/98/15 49/94/15
f 51/99/2 64/100/2 50/97/2
f 52/101/3 65/102/3 51/99/3
f 53/103/4 66/104/4 52/105/4
f 54/106/5 67/107/5 53/103/5
f 55/108/6 68/109/6 54/106/6
f 56/110/7 69/111/7 55/112/7
f 43/88/8 70/113/8 56/110/8
f 72/114/17 73/115/17 71/116/17
f 74/117/18 75/118/18 73/119/18
f 76/120/19 77/121/19 75/118/19
f 78/122/20 79/123/20 77/121/20
f 80/124/21 81/125/21 79/123/21
f 82/126/22 83/127/22 81/125/22
f 84/128/23 85/129/23 83/130/23
f 86/131/24 87/132/24 85/129/24
f 88/133/25 89/134/25 87/135/25
f 90/136/26 91/137/26 89/134/26
f 92/138/27 93/139/27 91/137/27
f 94/140/28 95/141/28 93/139/28
f 96/142/16 88/143/16 80/144/16
f 96/145/29 97/146/29 95/141/29
f 98/147/30 71/116/30 97/148/30
f 77/149/1 85/150/1 93/151/1
f 100/152/27 101/153/27 99/154/27
f 102/155/5 105/156/5 101/157/5
f 106/158/20 103/159/20 105/160/20
f 104/161/12 99/162/12 103/163/12
f 105/164/1 99/165/1 101/166/1
f 102/167/16 104/161/16 106/168/16
f 108/169/27 109/170/27 107/171/27
f 110/172/5 113/173/5 109/174/5
f 114/175/20 111/176/20 113/177/20
f 112/178/12 107/179/12 111/180/12
f 113/181/1 107/182/1 109/183/1
f 110/184/16 112/178/16 114/185/16
f 116/186/27 117/187/27 115/188/27
f 118/189/5 121/190/5 117/191/5
f 122/192/20 119/193/20 121/194/20
f 120/195/12 115/196/12 119/197/12
f 121/198/1 115/199/1 117/200/1
f 118/201/16 120/195/16 122/202/16
f 123/203/27 126/204/27 125/205/27
f 126/206/31 129/207/31 125/208/31
f 129/209/20 128/210/20 127/211/20
f 128/212/32 123/213/32 127/214/32
f 129/215/33 123/216/33 125/217/33
f 126/218/34 128/219/34 130/220/34
f 131/221/27 134/222/27 133/223/27
f 134/224/35 137/225/35 133/226/35
f 137/227/20 136/228/20 135/229/20
f 136/230/36 131/231/36 135/232/36
f 137/233/37 131/234/37 133/235/37
f 134/236/38 136/237/38 138/238/38
f 140/239/39 147/240/39 139/241/39
f 140/242/40 149/243/40 148/244/40
f 142/245/41 149/243/41 141/246/41
f 142/247/42 151/248/42 150/249/42
f 144/250/43 151/248/43 143/251/43
f 144/252/44 153/253/44 152/254/44
f 146/255/45 153/253/45 145/256/45
f 146/257/46 147/240/46 154/258/46
f 143/259/1 141/246/1 139/260/1
f 150/261/16 152/262/16 154/263/16
f 2/1/1 16/5/1 15/2/1
f 3/4/1 17/7/1 16/5/1
f 4/6/1 18/9/1 17/7/1
f 5/8/1 19/11/1 18/9/1
f 6/10/1 20/13/1 19/11/1
f 7/12/1 21/15/1 20/13/1
f 8/14/1 22/17/1 21/15/1
f 9/16/1 23/19/1 22/17/1
f 10/18/1 24/21/1 23/19/1
f 11/20/1 25/23/1 24/21/1
f 12/22/1 26/25/1 25/23/1
f 13/24/1 27/27/1 26/25/1
f 14/26/1 28/28/1 27/27/1
f 1/3/1 15/2/1 28/28/1
f 16/29/2 30/33/2 29/30/2
f 17/32/3 31/264/3 30/33/3
f 18/34/4 32/38/4 31/35/4
f 19/37/5 33/40/5 32/38/5
f 20/39/6 34/265/6 33/40/6
f 21/41/7 35/45/7 34/42/7
f 22/44/8 36/47/8 35/45/8
f 23/46/9 37/49/9 36/47/9
f 24/48/10 38/266/10 37/49/10
f 25/50/11 39/54/11 38/51/11
f 26/53/12 40/56/12 39/54/12
f 27/55/13 41/81/13 40/56/13
f 28/57/14 42/60/14 41/58/14
f 15/31/15 29/30/15 42/60/15
f 30/61/16 44/65/16 43/62/16
f 30/61/16 31/67/16 45/64/16
f 32/66/16 46/69/16 45/64/16
f 33/68/16 47/71/16 46/69/16
f 34/70/16 48/73/16 47/71/16
f 34/70/16 35/75/16 49/72/16
f 36/74/16 50/77/16 49/72/16
f 37/76/16 51/79/16 50/77/16
f 37/76/16 38/51/16 52/78/16
f 39/54/16 53/80/16 52/78/16
f 40/56/16 54/82/16 53/80/16
f 41/81/16 55/84/16 54/82/16
f 41/81/16 42/85/16 56/83/16
f 29/63/16 43/62/16 56/83/16
f 44/86/9 58/90/9 57/87/9
f 45/89/10 59/267/10 58/90/10
f 46/69/11 60/92/11 59/91/11
f 47/71/12 61/93/12 60/92/12
f 48/73/13 62/268/13 61/93/13
f 49/94/14 63/98/14 62/95/14
f 50/97/15 64/100/15 63/98/15
f 51/99/2 65/102/2 64/100/2
f 52/101/3 66/269/3 65/102/3
f 53/103/4 67/107/4 66/104/4
f 54/106/5 68/109/5 67/107/5
f 55/108/6 69/270/6 68/109/6
f 56/110/7 70/113/7 69/111/7
f 43/88/8 57/87/8 70/113/8
f 72/114/17 74/271/17 73/115/17
f 74/117/18 76/120/18 75/118/18
f 76/120/19 78/122/19 77/121/19
f 78/122/20 80/124/20 79/123/20
f 80/124/21 82/126/21 81/125/21
f 82/126/22 84/272/22 83/127/22
f 84/128/23 86/131/23 85/129/23
f 86/131/24 88/143/24 87/132/24
f 88/133/25 90/136/25 89/134/25
f 90/136/26 92/138/26 91/137/26
f 92/138/27 94/140/27 93/139/27
f 94/140/28 96/145/28 95/141/28
f 76/273/16 74/274/16 72/275/16
f 72/275/16 98/276/16 96/142/16
f 96/142/16 94/277/16 92/278/16
f 92/278/16 90/279/16 88/143/16
f 88/143/16 86/131/16 84/128/16
f 84/128/16 82/280/16 80/144/16
f 80/144/16 78/281/16 76/273/16
f 76/273/16 72/275/16 96/142/16
f 96/142/16 92/278/16 88/143/16
f 88/143/16 84/128/16 80/144/16
f 80/144/16 76/273/16 96/142/16
f 96/145/29 98/282/29 97/146/29
f 98/147/30 72/114/30 71/116/30
f 97/283/1 71/284/1 73/285/1
f 73/285/1 75/286/1 77/149/1
f 77/149/1 79/287/1 81/288/1
f 81/288/1 83/289/1 85/150/1
f 85/150/1 87/290/1 89/291/1
f 89/291/1 91/292/1 93/151/1
f 93/151/1 95/293/1 97/283/1
f 97/283/1 73/285/1 77/149/1
f 77/149/1 81/288/1 85/150/1
f 85/150/1 89/291/1 93/151/1
f 93/151/1 97/283/1 77/149/1
f 100/152/27 102/294/27 101/153/27
f 102/155/5 106/295/5 105/156/5
f 106/158/20 104/296/20 103/159/20
f 104/161/12 100/297/12 99/162/12
f 105/164/1 103/298/1 99/165/1
f 102/167/16 100/297/16 104/161/16
f 108/169/27 110/299/27 109/170/27
f 110/172/5 114/300/5 113/173/5
f 114/175/20 112/301/20 111/176/20
f 112/178/12 108/302/12 107/179/12
f 113/181/1 111/303/1 107/182/1
f 110/184/16 108/302/16 112/178/16
f 116/186/27 118/304/27 117/187/27
f 118/189/5 122/305/5 121/190/5
f 122/192/20 120/306/20 119/193/20
f 120/195/12 116/307/12 115/196/12
f 121/198/1 119/308/1 115/199/1
f 118/201/16 116/307/16 120/195/16
f 123/203/27 124/309/27 126/204/27
f 126/206/31 130/310/31 129/207/31
f 129/209/20 130/311/20 128/210/20
f 128/212/32 124/312/32 123/213/32
f 129/215/33 127/313/33 123/216/33
f 126/218/34 124/314/34 128/219/34
f 131/221/27 132/315/27 134/222/27
f 134/224/35 138/316/35 137/225/35
f 137/227/20 138/317/20 136/228/20
f 136/230/36 132/318/36 131/231/36
f 137/233/37 135/319/37 131/234/37
f 134/236/38 132/320/38 136/237/38
f 140/239/39 148/321/39 147/240/39
f 140/242/40 141/246/40 149/243/40
f 142/245/41 150/322/41 149/243/41
f 142/247/42 143/251/42 151/248/42
f 144/250/43 152/323/43 151/248/43
f 144/252/44 145/256/44 153/253/44
f 146/255/45 154/324/45 153/253/45
f 146/257/46 139/241/46 147/240/46
f 139/260/1 146/325/1 145/326/1
f 145/326/1 144/327/1 143/259/1
f 143/259/1 142/245/1 141/246/1
f 141/246/1 140/242/1 139/260/1
f 139/260/1 145/326/1 143/259/1
f 154/263/16 147/328/16 148/329/16
f 148/329/16 149/330/16 150/261/16
f 150/261/16 151/331/16 152/262/16
f 152/262/16 153/332/16 154/263/16
f 154/263/16 148/329/16 150/261/16
