# The Giants of Holst prop, from CC0 kits by KayKit (Kay Lousberg) and Kenney
v 0.3027 0.0000 -0.0368
vt 0.8070 0.8341
vn -1.0000 0.0000 0.0000
v 0.3027 0.0000 0.0368
vt 0.8044 0.8341
vn -1.0000 0.0000 0.0000
v 0.3027 0.5635 0.0613
vt 0.8035 0.8846
vn -1.0000 0.0000 0.0000
v 0.3027 0.5635 -0.0613
vt 0.8079 0.8846
vn -1.0000 0.0000 0.0000
f 1/1/1 2/2/2 3/3/3 4/4/4
v 0.3027 0.5635 -0.0613
vt 0.8079 0.9158
vn 0.0000 1.0000 0.0000
v 0.3027 0.5635 0.0613
vt 0.8035 0.9158
vn 0.0000 1.0000 0.0000
v 0.3798 0.5635 0.0613
vt 0.8035 0.9158
vn 0.0000 1.0000 0.0000
v 0.3798 0.5635 -0.0613
vt 0.8079 0.9158
vn 0.0000 1.0000 0.0000
f 5/5/5 6/6/6 7/7/7 8/8/8
v 0.3798 0.5635 -0.0613
vt 0.8079 0.8846
vn 1.0000 -0.0000 0.0000
v 0.3798 0.5635 0.0613
vt 0.8035 0.8846
vn 1.0000 -0.0000 0.0000
v 0.3798 0.0000 0.0368
vt 0.8044 0.8341
vn 1.0000 -0.0000 0.0000
v 0.3798 0.0000 -0.0368
vt 0.8070 0.8341
vn 1.0000 -0.0000 0.0000
f 9/9/9 10/10/10 11/11/11 12/12/12
v 0.3027 0.0000 -0.0368
vt 0.8070 0.8341
vn 0.0000 -0.0434 -0.9991
v 0.3027 0.5635 -0.0613
vt 0.8079 0.8846
vn 0.0000 -0.0434 -0.9991
v 0.3798 0.5635 -0.0613
vt 0.8079 0.8846
vn 0.0000 -0.0434 -0.9991
v 0.3798 0.0000 -0.0368
vt 0.8070 0.8341
vn 0.0000 -0.0434 -0.9991
f 13/13/13 14/14/14 15/15/15 16/16/16
v 0.3027 0.5635 0.0613
vt 0.8035 0.8846
vn 0.0000 -0.0434 0.9991
v 0.3027 0.0000 0.0368
vt 0.8044 0.8341
vn 0.0000 -0.0434 0.9991
v 0.3798 0.0000 0.0368
vt 0.8044 0.8341
vn 0.0000 -0.0434 0.9991
v 0.3798 0.5635 0.0613
vt 0.8035 0.8846
vn 0.0000 -0.0434 0.9991
f 17/17/17 18/18/18 19/19/19 20/20/20
v 0.3027 0.0000 -0.0368
vt 0.8070 0.8185
vn 0.0000 -1.0000 0.0000
v 0.3798 0.0000 -0.0368
vt 0.8070 0.8185
vn 0.0000 -1.0000 0.0000
v 0.3798 0.0000 0.0368
vt 0.8044 0.8185
vn 0.0000 -1.0000 0.0000
v 0.3027 0.0000 0.0368
vt 0.8044 0.8185
vn 0.0000 -1.0000 0.0000
f 21/21/21 22/22/22 23/23/23 24/24/24
v -0.3027 0.4785 -0.4546
vt 0.8220 0.8770
vn 0.0000 0.1736 -0.9848
v -0.1838 0.5388 -0.4439
vt 0.8216 0.8824
vn 0.0000 0.1736 -0.9848
v -0.1838 0.4182 -0.4652
vt 0.8223 0.8559
vn 0.0000 0.1736 -0.9848
v -0.3027 0.2975 -0.4865
vt 0.8231 0.8451
vn 0.0000 0.1736 -0.9848
f 25/25/25 26/26/26 27/27/27 28/28/28
v -0.3027 0.3296 0.3899
vt 0.7917 0.8792
vn -0.6264 -0.1354 0.7677
v -0.3027 0.1486 0.3580
vt 0.7929 0.8474
vn -0.6264 -0.1354 0.7677
v -0.1689 0.3109 0.4958
vt 0.7879 0.8776
vn -0.2680 -0.3537 0.8961
f 29/29/29 30/30/30 31/31/31
v -0.3027 0.2975 -0.4865
vt 0.8231 0.8451
vn 0.0000 0.1736 -0.9848
v -0.1838 0.4182 -0.4652
vt 0.8223 0.8559
vn 0.0000 0.1736 -0.9848
v 0.1837 0.4182 -0.4652
vt 0.8223 0.8559
vn 0.0000 0.1736 -0.9848
v 0.3027 0.2975 -0.4865
vt 0.8231 0.8451
vn 0.0000 0.1736 -0.9848
f 32/32/32 33/33/33 34/34/34 35/35/35
v 0.3027 0.4785 -0.4546
vt 0.8220 0.8926
vn 1.0000 -0.0000 0.0000
v 0.3027 0.3296 0.3899
vt 0.7917 0.8792
vn 1.0000 -0.0000 0.0000
v 0.3027 0.1486 0.3580
vt 0.7929 0.8474
vn 1.0000 -0.0000 0.0000
v 0.3027 0.2975 -0.4865
vt 0.8231 0.8608
vn 1.0000 -0.0000 0.0000
f 36/36/36 37/37/37 38/38/38 39/39/39
v 0.3027 0.4785 -0.4546
vt 0.8220 0.8613
vn 0.0000 0.1736 -0.9848
v 0.1837 0.5388 -0.4439
vt 0.8216 0.8667
vn 0.0000 0.1736 -0.9848
v 0.1837 0.6595 -0.4227
vt 0.8208 0.8932
vn 0.0000 0.1736 -0.9848
v 0.3027 0.6595 -0.4227
vt 0.8208 0.8932
vn 0.0000 0.1736 -0.9848
f 40/40/40 41/41/41 42/42/42 43/43/43
v -0.1838 0.2905 0.2586
vt 0.7964 0.8914
vn 0.0000 0.9848 0.1736
v 0.1837 0.2905 0.2586
vt 0.7964 0.8914
vn 0.0000 0.9848 0.1736
v 0.1837 0.4182 -0.4652
vt 0.8223 0.9028
vn 0.0000 0.9848 0.1736
v -0.1838 0.4182 -0.4652
vt 0.8223 0.9028
vn 0.0000 0.9848 0.1736
f 44/44/44 45/45/45 46/46/46 47/47/47
v 0.3027 0.1486 0.3580
vt 0.7929 0.8162
vn -0.0000 -0.9848 -0.1736
v -0.3027 0.1486 0.3580
vt 0.7929 0.8162
vn -0.0000 -0.9848 -0.1736
v -0.3027 0.2975 -0.4865
vt 0.8231 0.8295
vn -0.0000 -0.9848 -0.1736
v 0.3027 0.2975 -0.4865
vt 0.8231 0.8295
vn -0.0000 -0.9848 -0.1736
f 48/48/48 49/49/49 50/50/50 51/51/51
v 0.3027 0.6595 -0.4227
vt 0.8208 0.9088
vn 1.0000 -0.0000 0.0000
v 0.3027 0.5105 0.4218
vt 0.7906 0.8955
vn 1.0000 -0.0000 0.0000
v 0.3027 0.3296 0.3899
vt 0.7917 0.8636
vn 1.0000 -0.0000 0.0000
v 0.3027 0.4785 -0.4546
vt 0.8220 0.8770
vn 1.0000 -0.0000 0.0000
f 52/52/52 53/53/53 54/54/54 55/55/55
v 0.1837 0.5318 0.3012
vt 0.7949 0.9130
vn 0.0000 0.9848 0.1736
v 0.3027 0.5105 0.4218
vt 0.7906 0.9111
vn 0.0000 0.9848 0.1736
v 0.3027 0.6595 -0.4227
vt 0.8208 0.9244
vn 0.0000 0.9848 0.1736
v 0.1837 0.6595 -0.4227
vt 0.8208 0.9244
vn 0.0000 0.9848 0.1736
f 56/56/56 57/57/57 58/58/58 59/59/59
v -0.3027 0.5105 0.4218
vt 0.7906 0.9111
vn 0.0000 0.9848 0.1736
v -0.1838 0.5318 0.3012
vt 0.7949 0.9130
vn 0.0000 0.9848 0.1736
v -0.1838 0.6595 -0.4227
vt 0.8208 0.9244
vn 0.0000 0.9848 0.1736
v -0.3027 0.6595 -0.4227
vt 0.8208 0.9244
vn 0.0000 0.9848 0.1736
f 60/60/60 61/61/61 62/62/62 63/63/63
v 0.1837 0.5388 -0.4439
vt 0.8216 0.8824
vn -1.0000 0.0000 0.0000
v 0.1837 0.4112 0.2799
vt 0.7957 0.8709
vn -1.0000 0.0000 0.0000
v 0.1837 0.5318 0.3012
vt 0.7949 0.8974
vn -1.0000 0.0000 0.0000
v 0.1837 0.6595 -0.4227
vt 0.8208 0.9088
vn -1.0000 0.0000 0.0000
f 64/64/64 65/65/65 66/66/66 67/67/67
v 0.1837 0.4112 0.2799
vt 0.7957 0.8709
vn 0.0000 0.1736 -0.9848
v -0.1838 0.4112 0.2799
vt 0.7957 0.8709
vn 0.0000 0.1736 -0.9848
v -0.1838 0.5318 0.3012
vt 0.7949 0.8974
vn 0.0000 0.1736 -0.9848
v 0.1837 0.5318 0.3012
vt 0.7949 0.8974
vn 0.0000 0.1736 -0.9848
f 68/68/68 69/69/69 70/70/70 71/71/71
v -0.0702 0.4901 0.6786
vt 0.4363 0.9147
vn -0.0000 0.7071 -0.7071
v 0.0701 0.4901 0.6786
vt 0.4363 0.9147
vn -0.0000 0.7071 -0.7071
v 0.0701 0.3465 0.5351
vt 0.4540 0.8970
vn -0.0000 0.3827 -0.9239
v -0.0702 0.3465 0.5351
vt 0.4540 0.8970
vn -0.0000 0.3827 -0.9239
f 72/72/72 73/73/73 74/74/74 75/75/75
v -0.0702 0.3465 0.5351
vt 0.4540 0.8970
vn -0.0000 0.3827 -0.9239
v 0.0701 0.3465 0.5351
vt 0.4540 0.8970
vn -0.0000 0.3827 -0.9239
v 0.0701 0.1436 0.5351
vt 0.4540 0.8720
vn -0.0000 -0.3827 -0.9239
v -0.0702 0.1436 0.5351
vt 0.4540 0.8720
vn -0.0000 -0.3827 -0.9239
f 76/76/76 77/77/77 78/78/78 79/79/79
v -0.0702 0.1436 0.5351
vt 0.4540 0.8720
vn -0.0000 -0.3827 -0.9239
v 0.0701 0.1436 0.5351
vt 0.4540 0.8720
vn -0.0000 -0.3827 -0.9239
v 0.0701 0.0001 0.6786
vt 0.4363 0.8543
vn -0.0000 -0.9239 -0.3827
v -0.0702 0.0001 0.6786
vt 0.4363 0.8543
vn -0.0000 -0.9239 -0.3827
f 80/80/80 81/81/81 82/82/82 83/83/83
v -0.0702 0.0001 0.6786
vt 0.4363 0.8543
vn -0.0000 -0.9239 -0.3827
v 0.0701 0.0001 0.6786
vt 0.4363 0.8543
vn -0.0000 -0.9239 -0.3827
v 0.0701 0.0001 0.8816
vt 0.4112 0.8543
vn 0.0000 -1.0000 0.0000
v -0.0702 0.0001 0.8816
vt 0.4112 0.8543
vn 0.0000 -1.0000 0.0000
f 84/84/84 85/85/85 86/86/86 87/87/87
v -0.0702 0.0001 0.8816
vt 0.4112 0.8543
vn 0.0000 -0.7071 0.7071
v 0.0701 0.0001 0.8816
vt 0.4112 0.8543
vn 0.0000 -0.7071 0.7071
v 0.0701 0.1436 1.0251
vt 0.3935 0.8720
vn 0.0000 -0.3827 0.9239
v -0.0702 0.1436 1.0251
vt 0.3935 0.8720
vn 0.0000 -0.3827 0.9239
f 88/88/88 89/89/89 90/90/90 91/91/91
v -0.0702 0.1436 1.0251
vt 0.3935 0.8720
vn 0.0000 -0.3827 0.9239
v 0.0701 0.1436 1.0251
vt 0.3935 0.8720
vn 0.0000 -0.3827 0.9239
v 0.0701 0.3465 1.0251
vt 0.3935 0.8970
vn 0.0000 0.3827 0.9239
v -0.0702 0.3465 1.0251
vt 0.3935 0.8970
vn 0.0000 0.3827 0.9239
f 92/92/92 93/93/93 94/94/94 95/95/95
v 0.0735 0.2892 0.6735
vt 0.4369 0.7962
vn 0.9662 -0.0987 0.2382
v 0.0735 0.2009 0.6735
vt 0.4369 0.7853
vn 0.9662 0.0987 0.2382
v 0.0989 0.1645 0.5855
vt 0.4478 0.7808
vn 0.9662 0.0987 0.2382
v 0.0989 0.3256 0.5855
vt 0.4478 0.8007
vn 0.9662 -0.0987 0.2382
f 96/96/96 97/97/97 98/98/98 99/99/99
v -0.0702 0.3465 1.0251
vt 0.3935 0.8970
vn 0.0000 0.3827 0.9239
v 0.0701 0.3465 1.0251
vt 0.3935 0.8970
vn 0.0000 0.3827 0.9239
v 0.0701 0.4901 0.8816
vt 0.4112 0.9147
vn 0.0000 0.9239 0.3827
v -0.0702 0.4901 0.8816
vt 0.4112 0.9147
vn 0.0000 0.9239 0.3827
f 100/100/100 101/101/101 102/102/102 103/103/103
v -0.0702 0.4901 0.8816
vt 0.4112 0.9147
vn 0.0000 0.9239 0.3827
v 0.0701 0.4901 0.8816
vt 0.4112 0.9147
vn 0.0000 0.9239 0.3827
v 0.0701 0.4901 0.6786
vt 0.4363 0.9147
vn 0.0000 1.0000 0.0000
v -0.0702 0.4901 0.6786
vt 0.4363 0.9147
vn 0.0000 1.0000 0.0000
f 104/104/104 105/105/105 106/106/106 107/107/107
v -0.0735 0.2892 0.8866
vt 0.4106 0.7962
vn -0.9662 -0.0987 -0.2382
v -0.0735 0.2009 0.8866
vt 0.4106 0.7853
vn -0.9662 0.0987 -0.2382
v -0.0989 0.1645 0.9746
vt 0.3997 0.7808
vn -0.9662 0.0987 -0.2382
v -0.0989 0.3256 0.9746
vt 0.3997 0.8007
vn -0.9662 -0.0987 -0.2382
f 108/108/108 109/109/109 110/110/110 111/111/111
v -0.0989 0.3256 0.5855
vt 0.4478 0.8632
vn -0.8845 0.1785 -0.4310
v -0.0989 0.4396 0.6995
vt 0.4337 0.8773
vn -0.8845 0.4310 -0.1785
v -0.0702 0.4901 0.6786
vt 0.4363 0.8835
vn -0.8845 0.4310 -0.1785
v -0.0702 0.3465 0.5351
vt 0.4540 0.8658
vn -0.8845 0.1785 -0.4310
f 112/112/112 113/113/113 114/114/114 115/115/115
v 0.0989 0.4396 0.6995
vt 0.4337 0.8773
vn 0.8845 0.4310 -0.1785
v 0.0989 0.3256 0.5855
vt 0.4478 0.8632
vn 0.8845 0.1785 -0.4310
v 0.0701 0.3465 0.5351
vt 0.4540 0.8658
vn 0.8845 0.1785 -0.4310
v 0.0701 0.4901 0.6786
vt 0.4363 0.8835
vn 0.8845 0.4310 -0.1785
f 116/116/116 117/117/117 118/118/118 119/119/119
v -0.0989 0.1645 0.5855
vt 0.4478 0.8433
vn -0.8845 -0.1785 -0.4310
v -0.0989 0.3256 0.5855
vt 0.4478 0.8632
vn -0.8845 0.1785 -0.4310
v -0.0702 0.3465 0.5351
vt 0.4540 0.8658
vn -0.8845 0.1785 -0.4310
v -0.0702 0.1436 0.5351
vt 0.4540 0.8407
vn -0.8845 -0.1785 -0.4310
f 120/120/120 121/121/121 122/122/122 123/123/123
v 0.0989 0.3256 0.5855
vt 0.4478 0.8632
vn 0.8845 0.1785 -0.4310
v 0.0989 0.1645 0.5855
vt 0.4478 0.8433
vn 0.8845 -0.1785 -0.4310
v 0.0701 0.1436 0.5351
vt 0.4540 0.8407
vn 0.8845 -0.1785 -0.4310
v 0.0701 0.3465 0.5351
vt 0.4540 0.8658
vn 0.8845 0.1785 -0.4310
f 124/124/124 125/125/125 126/126/126 127/127/127
v -0.0989 0.0505 0.6995
vt 0.4337 0.8292
vn -0.8845 -0.4310 -0.1785
v -0.0989 0.1645 0.5855
vt 0.4478 0.8433
vn -0.8845 -0.1785 -0.4310
v -0.0702 0.1436 0.5351
vt 0.4540 0.8407
vn -0.8845 -0.1785 -0.4310
v -0.0702 0.0001 0.6786
vt 0.4363 0.8230
vn -0.8845 -0.4310 -0.1785
f 128/128/128 129/129/129 130/130/130 131/131/131
v 0.0989 0.1645 0.5855
vt 0.4478 0.8433
vn 0.8845 -0.1785 -0.4310
v 0.0989 0.0505 0.6995
vt 0.4337 0.8292
vn 0.8845 -0.4310 -0.1785
v 0.0701 0.0001 0.6786
vt 0.4363 0.8230
vn 0.8845 -0.4310 -0.1785
v 0.0701 0.1436 0.5351
vt 0.4540 0.8407
vn 0.8845 -0.1785 -0.4310
f 132/132/132 133/133/133 134/134/134 135/135/135
v -0.0989 0.0505 0.8607
vt 0.4138 0.8292
vn -0.8845 -0.4310 0.1785
v -0.0989 0.0505 0.6995
vt 0.4337 0.8292
vn -0.8845 -0.4310 -0.1785
v -0.0702 0.0001 0.6786
vt 0.4363 0.8230
vn -0.8845 -0.4310 -0.1785
v -0.0702 0.0001 0.8816
vt 0.4112 0.8230
vn -0.8845 -0.4310 0.1785
f 136/136/136 137/137/137 138/138/138 139/139/139
v 0.0989 0.0505 0.6995
vt 0.4337 0.8292
vn 0.8845 -0.4310 -0.1785
v 0.0989 0.0505 0.8607
vt 0.4138 0.8292
vn 0.8845 -0.4310 0.1785
v 0.0701 0.0001 0.8816
vt 0.4112 0.8230
vn 0.8845 -0.4310 0.1785
v 0.0701 0.0001 0.6786
vt 0.4363 0.8230
vn 0.8845 -0.4310 -0.1785
f 140/140/140 141/141/141 142/142/142 143/143/143
v -0.0989 0.1645 0.9746
vt 0.3997 0.8433
vn -0.8845 -0.1785 0.4310
v -0.0989 0.0505 0.8607
vt 0.4138 0.8292
vn -0.8845 -0.4310 0.1785
v -0.0702 0.0001 0.8816
vt 0.4112 0.8230
vn -0.8845 -0.4310 0.1785
v -0.0702 0.1436 1.0251
vt 0.3935 0.8407
vn -0.8845 -0.1785 0.4310
f 144/144/144 145/145/145 146/146/146 147/147/147
v 0.0989 0.0505 0.8607
vt 0.4138 0.8292
vn 0.8845 -0.4310 0.1785
v 0.0989 0.1645 0.9746
vt 0.3997 0.8433
vn 0.8845 -0.1785 0.4310
v 0.0701 0.1436 1.0251
vt 0.3935 0.8407
vn 0.8845 -0.1785 0.4310
v 0.0701 0.0001 0.8816
vt 0.4112 0.8230
vn 0.8845 -0.4310 0.1785
f 148/148/148 149/149/149 150/150/150 151/151/151
v -0.0989 0.3256 0.9746
vt 0.3997 0.8632
vn -0.8845 0.1785 0.4310
v -0.0989 0.1645 0.9746
vt 0.3997 0.8433
vn -0.8845 -0.1785 0.4310
v -0.0702 0.1436 1.0251
vt 0.3935 0.8407
vn -0.8845 -0.1785 0.4310
v -0.0702 0.3465 1.0251
vt 0.3935 0.8658
vn -0.8845 0.1785 0.4310
f 152/152/152 153/153/153 154/154/154 155/155/155
v 0.0989 0.1645 0.9746
vt 0.3997 0.8433
vn 0.8845 -0.1785 0.4310
v 0.0989 0.3256 0.9746
vt 0.3997 0.8632
vn 0.8845 0.1785 0.4310
v 0.0701 0.3465 1.0251
vt 0.3935 0.8658
vn 0.8845 0.1785 0.4310
v 0.0701 0.1436 1.0251
vt 0.3935 0.8407
vn 0.8845 -0.1785 0.4310
f 156/156/156 157/157/157 158/158/158 159/159/159
v -0.0989 0.4396 0.8607
vt 0.4138 0.8773
vn -0.8845 0.4310 0.1785
v -0.0989 0.3256 0.9746
vt 0.3997 0.8632
vn -0.8845 0.1785 0.4310
v -0.0702 0.3465 1.0251
vt 0.3935 0.8658
vn -0.8845 0.1785 0.4310
v -0.0702 0.4901 0.8816
vt 0.4112 0.8835
vn -0.8845 0.4310 0.1785
f 160/160/160 161/161/161 162/162/162 163/163/163
v 0.0989 0.3256 0.9746
vt 0.3997 0.8632
vn 0.8845 0.1785 0.4310
v 0.0989 0.4396 0.8607
vt 0.4138 0.8773
vn 0.8845 0.4310 0.1785
v 0.0701 0.4901 0.8816
vt 0.4112 0.8835
vn 0.8845 0.4310 0.1785
v 0.0701 0.3465 1.0251
vt 0.3935 0.8658
vn 0.8845 0.1785 0.4310
f 164/164/164 165/165/165 166/166/166 167/167/167
v -0.0989 0.4396 0.6995
vt 0.4337 0.8773
vn -0.8845 0.4310 -0.1785
v -0.0989 0.4396 0.8607
vt 0.4138 0.8773
vn -0.8845 0.4310 0.1785
v -0.0702 0.4901 0.8816
vt 0.4112 0.8835
vn -0.8845 0.4310 0.1785
v -0.0702 0.4901 0.6786
vt 0.4363 0.8835
vn -0.8845 0.4310 -0.1785
f 168/168/168 169/169/169 170/170/170 171/171/171
v 0.0989 0.4396 0.8607
vt 0.4138 0.8773
vn 0.8845 0.4310 0.1785
v 0.0989 0.4396 0.6995
vt 0.4337 0.8773
vn 0.8845 0.4310 -0.1785
v 0.0701 0.4901 0.6786
vt 0.4363 0.8835
vn 0.8845 0.4310 -0.1785
v 0.0701 0.4901 0.8816
vt 0.4112 0.8835
vn 0.8845 0.4310 0.1785
f 172/172/172 173/173/173 174/174/174 175/175/175
v -0.0735 0.2009 0.8866
vt 0.2683 0.8448
vn -0.2586 -0.3697 0.8925
v -0.0735 0.2892 0.8866
vt 0.2683 0.8716
vn -0.2586 0.3697 0.8925
v -0.1225 0.2842 0.8745
vt 0.2720 0.8700
vn -0.2586 0.3697 0.8925
v -0.1225 0.2059 0.8745
vt 0.2720 0.8463
vn -0.2586 -0.3697 0.8925
f 176/176/176 177/177/177 178/178/178 179/179/179
v -0.0735 0.2892 0.6735
vt 0.3331 0.8716
vn -0.2586 0.3697 -0.8925
v -0.0735 0.2009 0.6735
vt 0.3331 0.8448
vn -0.2586 -0.3697 -0.8925
v -0.1225 0.2059 0.6856
vt 0.3294 0.8463
vn -0.2586 -0.3697 -0.8925
v -0.1225 0.2842 0.6856
vt 0.3294 0.8700
vn -0.2586 0.3697 -0.8925
f 180/180/180 181/181/181 182/182/182 183/183/183
v 0.0735 0.2009 0.8866
vt 0.4106 0.7853
vn 0.9662 0.0987 -0.2382
v 0.0735 0.2892 0.8866
vt 0.4106 0.7962
vn 0.9662 -0.0987 -0.2382
v 0.0989 0.3256 0.9746
vt 0.3997 0.8007
vn 0.9662 -0.0987 -0.2382
v 0.0989 0.1645 0.9746
vt 0.3997 0.7808
vn 0.9662 0.0987 -0.2382
f 184/184/184 185/185/185 186/186/186 187/187/187
v -0.0735 0.1385 0.7359
vt 0.4292 0.7776
vn -0.9662 0.2382 0.0987
v -0.0735 0.2009 0.6735
vt 0.4369 0.7853
vn -0.9662 0.0987 0.2382
v -0.0989 0.1645 0.5855
vt 0.4478 0.7808
vn -0.9662 0.0987 0.2382
v -0.0989 0.0505 0.6995
vt 0.4337 0.7667
vn -0.9662 0.2382 0.0987
f 188/188/188 189/189/189 190/190/190 191/191/191
v -0.0735 0.3516 0.8242
vt 0.4183 0.8039
vn -0.9662 -0.2382 -0.0987
v -0.0735 0.2892 0.8866
vt 0.4106 0.7962
vn -0.9662 -0.0987 -0.2382
v -0.0989 0.3256 0.9746
vt 0.3997 0.8007
vn -0.9662 -0.0987 -0.2382
v -0.0989 0.4396 0.8607
vt 0.4138 0.8148
vn -0.9662 -0.2382 -0.0987
f 192/192/192 193/193/193 194/194/194 195/195/195
v 0.0735 0.2009 0.6735
vt 0.4369 0.7853
vn 0.9662 0.0987 0.2382
v 0.0735 0.1385 0.7359
vt 0.4292 0.7776
vn 0.9662 0.2382 0.0987
v 0.0989 0.0505 0.6995
vt 0.4337 0.7667
vn 0.9662 0.2382 0.0987
v 0.0989 0.1645 0.5855
vt 0.4478 0.7808
vn 0.9662 0.0987 0.2382
f 196/196/196 197/197/197 198/198/198 199/199/199
v 0.0735 0.2892 0.8866
vt 0.4106 0.7962
vn 0.9662 -0.0987 -0.2382
v 0.0735 0.3516 0.8242
vt 0.4183 0.8039
vn 0.9662 -0.2382 -0.0987
v 0.0989 0.4396 0.8607
vt 0.4138 0.8148
vn 0.9662 -0.2382 -0.0987
v 0.0989 0.3256 0.9746
vt 0.3997 0.8007
vn 0.9662 -0.0987 -0.2382
f 200/200/200 201/201/201 202/202/202 203/203/203
v -0.0735 0.1385 0.8242
vt 0.4183 0.7776
vn -0.9662 0.2382 -0.0987
v -0.0735 0.1385 0.7359
vt 0.4292 0.7776
vn -0.9662 0.2382 0.0987
v -0.0989 0.0505 0.6995
vt 0.4337 0.7667
vn -0.9662 0.2382 0.0987
v -0.0989 0.0505 0.8607
vt 0.4138 0.7667
vn -0.9662 0.2382 -0.0987
f 204/204/204 205/205/205 206/206/206 207/207/207
v -0.0735 0.3516 0.7359
vt 0.4292 0.8039
vn -0.9662 -0.2382 0.0987
v -0.0735 0.3516 0.8242
vt 0.4183 0.8039
vn -0.9662 -0.2382 -0.0987
v -0.0989 0.4396 0.8607
vt 0.4138 0.8148
vn -0.9662 -0.2382 -0.0987
v -0.0989 0.4396 0.6995
vt 0.4337 0.8148
vn -0.9662 -0.2382 0.0987
f 208/208/208 209/209/209 210/210/210 211/211/211
v 0.0735 0.1385 0.7359
vt 0.4292 0.7776
vn 0.9662 0.2382 0.0987
v 0.0735 0.1385 0.8242
vt 0.4183 0.7776
vn 0.9662 0.2382 -0.0987
v 0.0989 0.0505 0.8607
vt 0.4138 0.7667
vn 0.9662 0.2382 -0.0987
v 0.0989 0.0505 0.6995
vt 0.4337 0.7667
vn 0.9662 0.2382 0.0987
f 212/212/212 213/213/213 214/214/214 215/215/215
v 0.0735 0.3516 0.8242
vt 0.4183 0.8039
vn 0.9662 -0.2382 -0.0987
v 0.0735 0.3516 0.7359
vt 0.4292 0.8039
vn 0.9662 -0.2382 0.0987
v 0.0989 0.4396 0.6995
vt 0.4337 0.8148
vn 0.9662 -0.2382 0.0987
v 0.0989 0.4396 0.8607
vt 0.4138 0.8148
vn 0.9662 -0.2382 -0.0987
f 216/216/216 217/217/217 218/218/218 219/219/219
v -0.0735 0.2009 0.8866
vt 0.4106 0.7853
vn -0.9662 0.0987 -0.2382
v -0.0735 0.1385 0.8242
vt 0.4183 0.7776
vn -0.9662 0.2382 -0.0987
v -0.0989 0.0505 0.8607
vt 0.4138 0.7667
vn -0.9662 0.2382 -0.0987
v -0.0989 0.1645 0.9746
vt 0.3997 0.7808
vn -0.9662 0.0987 -0.2382
f 220/220/220 221/221/221 222/222/222 223/223/223
v 0.0735 0.3516 0.7359
vt 0.4292 0.8039
vn 0.9662 -0.2382 0.0987
v 0.0735 0.2892 0.6735
vt 0.4369 0.7962
vn 0.9662 -0.0987 0.2382
v 0.0989 0.3256 0.5855
vt 0.4478 0.8007
vn 0.9662 -0.0987 0.2382
v 0.0989 0.4396 0.6995
vt 0.4337 0.8148
vn 0.9662 -0.2382 0.0987
f 224/224/224 225/225/225 226/226/226 227/227/227
v 0.0735 0.1385 0.8242
vt 0.4183 0.7776
vn 0.9662 0.2382 -0.0987
v 0.0735 0.2009 0.8866
vt 0.4106 0.7853
vn 0.9662 0.0987 -0.2382
v 0.0989 0.1645 0.9746
vt 0.3997 0.7808
vn 0.9662 0.0987 -0.2382
v 0.0989 0.0505 0.8607
vt 0.4138 0.7667
vn 0.9662 0.2382 -0.0987
f 228/228/228 229/229/229 230/230/230 231/231/231
v -0.0735 0.2009 0.6735
vt 0.4369 0.7853
vn -0.9662 0.0987 0.2382
v -0.0735 0.2892 0.6735
vt 0.4369 0.7962
vn -0.9662 -0.0987 0.2382
v -0.0989 0.3256 0.5855
vt 0.4478 0.8007
vn -0.9662 -0.0987 0.2382
v -0.0989 0.1645 0.5855
vt 0.4478 0.7808
vn -0.9662 0.0987 0.2382
f 232/232/232 233/233/233 234/234/234 235/235/235
v 0.0735 0.2009 0.6735
vt 0.3331 0.8448
vn 0.2586 -0.3697 -0.8925
v 0.0735 0.2892 0.6735
vt 0.3331 0.8716
vn 0.2586 0.3697 -0.8925
v 0.1225 0.2842 0.6856
vt 0.3294 0.8700
vn 0.2586 0.3697 -0.8925
v 0.1225 0.2059 0.6856
vt 0.3294 0.8463
vn 0.2586 -0.3697 -0.8925
f 236/236/236 237/237/237 238/238/238 239/239/239
v 0.0735 0.2892 0.8866
vt 0.2683 0.8716
vn 0.2586 0.3697 0.8925
v 0.0735 0.2009 0.8866
vt 0.2683 0.8448
vn 0.2586 -0.3697 0.8925
v 0.1225 0.2059 0.8745
vt 0.2720 0.8463
vn 0.2586 -0.3697 0.8925
v 0.1225 0.2842 0.8745
vt 0.2720 0.8700
vn 0.2586 0.3697 0.8925
f 240/240/240 241/241/241 242/242/242 243/243/243
v -0.0735 0.2009 0.6735
vt 0.3331 0.8448
vn -0.2586 -0.3697 -0.8925
v -0.0735 0.1385 0.7359
vt 0.3141 0.8258
vn -0.2586 -0.8925 -0.3697
v -0.1225 0.1506 0.7410
vt 0.3126 0.8295
vn -0.2586 -0.8925 -0.3697
v -0.1225 0.2059 0.6856
vt 0.3294 0.8463
vn -0.2586 -0.3697 -0.8925
f 244/244/244 245/245/245 246/246/246 247/247/247
v -0.0735 0.2892 0.8866
vt 0.2683 0.8716
vn -0.2586 0.3697 0.8925
v -0.0735 0.3516 0.8242
vt 0.2873 0.8905
vn -0.2586 0.8925 0.3697
v -0.1225 0.3395 0.8192
vt 0.2888 0.8869
vn -0.2586 0.8925 0.3697
v -0.1225 0.2842 0.8745
vt 0.2720 0.8700
vn -0.2586 0.3697 0.8925
f 248/248/248 249/249/249 250/250/250 251/251/251
v 0.0735 0.1385 0.7359
vt 0.3141 0.8258
vn 0.2586 -0.8925 -0.3697
v 0.0735 0.2009 0.6735
vt 0.3331 0.8448
vn 0.2586 -0.3697 -0.8925
v 0.1225 0.2059 0.6856
vt 0.3294 0.8463
vn 0.2586 -0.3697 -0.8925
v 0.1225 0.1506 0.7410
vt 0.3126 0.8295
vn 0.2586 -0.8925 -0.3697
f 252/252/252 253/253/253 254/254/254 255/255/255
v 0.0735 0.3516 0.8242
vt 0.2873 0.8905
vn 0.2586 0.8925 0.3697
v 0.0735 0.2892 0.8866
vt 0.2683 0.8716
vn 0.2586 0.3697 0.8925
v 0.1225 0.2842 0.8745
vt 0.2720 0.8700
vn 0.2586 0.3697 0.8925
v 0.1225 0.3395 0.8192
vt 0.2888 0.8869
vn 0.2586 0.8925 0.3697
f 256/256/256 257/257/257 258/258/258 259/259/259
v -0.0735 0.1385 0.7359
vt 0.3141 0.8258
vn -0.2586 -0.8925 -0.3697
v -0.0735 0.1385 0.8242
vt 0.2873 0.8258
vn -0.2586 -0.8925 0.3697
v -0.1225 0.1506 0.8192
vt 0.2888 0.8295
vn -0.2586 -0.8925 0.3697
v -0.1225 0.1506 0.7410
vt 0.3126 0.8295
vn -0.2586 -0.8925 -0.3697
f 260/260/260 261/261/261 262/262/262 263/263/263
v -0.0735 0.3516 0.8242
vt 0.2873 0.8905
vn -0.2586 0.8925 0.3697
v -0.0735 0.3516 0.7359
vt 0.3141 0.8905
vn -0.2586 0.8925 -0.3697
v -0.1225 0.3395 0.7410
vt 0.3126 0.8869
vn -0.2586 0.8925 -0.3697
v -0.1225 0.3395 0.8192
vt 0.2888 0.8869
vn -0.2586 0.8925 0.3697
f 264/264/264 265/265/265 266/266/266 267/267/267
v 0.0735 0.1385 0.8242
vt 0.2873 0.8258
vn 0.2586 -0.8925 0.3697
v 0.0735 0.1385 0.7359
vt 0.3141 0.8258
vn 0.2586 -0.8925 -0.3697
v 0.1225 0.1506 0.7410
vt 0.3126 0.8295
vn 0.2586 -0.8925 -0.3697
v 0.1225 0.1506 0.8192
vt 0.2888 0.8295
vn 0.2586 -0.8925 0.3697
f 268/268/268 269/269/269 270/270/270 271/271/271
v -0.0735 0.3516 0.7359
vt 0.3141 0.8905
vn -0.2586 0.8925 -0.3697
v -0.0735 0.2892 0.6735
vt 0.3331 0.8716
vn -0.2586 0.3697 -0.8925
v -0.1225 0.2842 0.6856
vt 0.3294 0.8700
vn -0.2586 0.3697 -0.8925
v -0.1225 0.3395 0.7410
vt 0.3126 0.8869
vn -0.2586 0.8925 -0.3697
f 272/272/272 273/273/273 274/274/274 275/275/275
v 0.0735 0.3516 0.7359
vt 0.3141 0.8905
vn 0.2586 0.8925 -0.3697
v 0.0735 0.3516 0.8242
vt 0.2873 0.8905
vn 0.2586 0.8925 0.3697
v 0.1225 0.3395 0.8192
vt 0.2888 0.8869
vn 0.2586 0.8925 0.3697
v 0.1225 0.3395 0.7410
vt 0.3126 0.8869
vn 0.2586 0.8925 -0.3697
f 276/276/276 277/277/277 278/278/278 279/279/279
v -0.0735 0.1385 0.8242
vt 0.2873 0.8258
vn -0.2586 -0.8925 0.3697
v -0.0735 0.2009 0.8866
vt 0.2683 0.8448
vn -0.2586 -0.3697 0.8925
v -0.1225 0.2059 0.8745
vt 0.2720 0.8463
vn -0.2586 -0.3697 0.8925
v -0.1225 0.1506 0.8192
vt 0.2888 0.8295
vn -0.2586 -0.8925 0.3697
f 280/280/280 281/281/281 282/282/282 283/283/283
v 0.0735 0.2892 0.6735
vt 0.3331 0.8716
vn 0.2586 0.3697 -0.8925
v 0.0735 0.3516 0.7359
vt 0.3141 0.8905
vn 0.2586 0.8925 -0.3697
v 0.1225 0.3395 0.7410
vt 0.3126 0.8869
vn 0.2586 0.8925 -0.3697
v 0.1225 0.2842 0.6856
vt 0.3294 0.8700
vn 0.2586 0.3697 -0.8925
f 284/284/284 285/285/285 286/286/286 287/287/287
v 0.0735 0.2009 0.8866
vt 0.2683 0.8448
vn 0.2586 -0.3697 0.8925
v 0.0735 0.1385 0.8242
vt 0.2873 0.8258
vn 0.2586 -0.8925 0.3697
v 0.1225 0.1506 0.8192
vt 0.2888 0.8295
vn 0.2586 -0.8925 0.3697
v 0.1225 0.2059 0.8745
vt 0.2720 0.8463
vn 0.2586 -0.3697 0.8925
f 288/288/288 289/289/289 290/290/290 291/291/291
v -0.3797 0.0000 -0.0368
vt 0.8070 0.8341
vn -1.0000 0.0000 0.0000
v -0.3797 0.0000 0.0368
vt 0.8044 0.8341
vn -1.0000 0.0000 0.0000
v -0.3797 0.5635 0.0613
vt 0.8035 0.8846
vn -1.0000 0.0000 0.0000
v -0.3797 0.5635 -0.0613
vt 0.8079 0.8846
vn -1.0000 0.0000 0.0000
f 292/292/292 293/293/293 294/294/294 295/295/295
v -0.3797 0.5635 -0.0613
vt 0.8079 0.9158
vn 0.0000 1.0000 0.0000
v -0.3797 0.5635 0.0613
vt 0.8035 0.9158
vn 0.0000 1.0000 0.0000
v -0.3027 0.5635 0.0613
vt 0.8035 0.9158
vn 0.0000 1.0000 0.0000
v -0.3027 0.5635 -0.0613
vt 0.8079 0.9158
vn 0.0000 1.0000 0.0000
f 296/296/296 297/297/297 298/298/298 299/299/299
v -0.3027 0.5635 -0.0613
vt 0.8079 0.8846
vn 1.0000 -0.0000 0.0000
v -0.3027 0.5635 0.0613
vt 0.8035 0.8846
vn 1.0000 -0.0000 0.0000
v -0.3028 0.0000 0.0368
vt 0.8044 0.8341
vn 1.0000 -0.0000 0.0000
v -0.3028 0.0000 -0.0368
vt 0.8070 0.8341
vn 1.0000 -0.0000 0.0000
f 300/300/300 301/301/301 302/302/302 303/303/303
v -0.3797 0.0000 -0.0368
vt 0.8070 0.8341
vn 0.0000 -0.0434 -0.9991
v -0.3797 0.5635 -0.0613
vt 0.8079 0.8846
vn 0.0000 -0.0434 -0.9991
v -0.3027 0.5635 -0.0613
vt 0.8079 0.8846
vn 0.0000 -0.0434 -0.9991
v -0.3028 0.0000 -0.0368
vt 0.8070 0.8341
vn 0.0000 -0.0434 -0.9991
f 304/304/304 305/305/305 306/306/306 307/307/307
v -0.3797 0.5635 0.0613
vt 0.8035 0.8846
vn 0.0000 -0.0434 0.9991
v -0.3797 0.0000 0.0368
vt 0.8044 0.8341
vn 0.0000 -0.0434 0.9991
v -0.3028 0.0000 0.0368
vt 0.8044 0.8341
vn 0.0000 -0.0434 0.9991
v -0.3027 0.5635 0.0613
vt 0.8035 0.8846
vn 0.0000 -0.0434 0.9991
f 308/308/308 309/309/309 310/310/310 311/311/311
v -0.3797 0.0000 -0.0368
vt 0.8070 0.8185
vn 0.0000 -1.0000 0.0000
v -0.3028 0.0000 -0.0368
vt 0.8070 0.8185
vn 0.0000 -1.0000 0.0000
v -0.3028 0.0000 0.0368
vt 0.8044 0.8185
vn 0.0000 -1.0000 0.0000
v -0.3797 0.0000 0.0368
vt 0.8044 0.8185
vn 0.0000 -1.0000 0.0000
f 312/312/312 313/313/313 314/314/314 315/315/315
v -0.1603 0.3051 0.6958
vt 0.7808 0.8927
vn 0.0000 0.9870 -0.1604
v -0.2649 0.3051 0.6958
vt 0.7808 0.8927
vn 0.0000 0.9773 -0.2120
v -0.2649 0.3051 0.8597
vt 0.7749 0.8927
vn 0.0000 1.0000 0.0000
v -0.1603 0.3051 0.8597
vt 0.7749 0.8927
vn 0.0000 1.0000 0.0000
f 316/316/316 317/317/317 318/318/318 319/319/319
v -0.4165 0.3414 -0.2462
vt 0.8145 0.8647
vn -1.0000 0.0000 0.0000
v -0.4165 0.4621 -0.2249
vt 0.8137 0.8755
vn -1.0000 0.0000 0.0000
v -0.4165 0.5500 -0.7235
vt 0.8316 0.8834
vn -1.0000 0.0000 0.0000
v -0.4165 0.4293 -0.7448
vt 0.8323 0.8726
vn -1.0000 0.0000 0.0000
f 320/320/320 321/321/321 322/322/322 323/323/323
v -0.4165 0.4293 -0.7448
vt 0.8323 0.8569
vn 0.0000 0.1736 -0.9848
v -0.4165 0.5500 -0.7235
vt 0.8316 0.8677
vn 0.0000 0.1736 -0.9848
v -0.3027 0.5500 -0.7235
vt 0.8316 0.8677
vn 0.0000 0.1736 -0.9848
v -0.3027 0.4293 -0.7448
vt 0.8323 0.8569
vn 0.0000 0.1736 -0.9848
f 324/324/324 325/325/325 326/326/326 327/327/327
v -0.3027 0.3414 -0.2462
vt 0.8145 0.8647
vn 1.0000 -0.0000 0.0000
v -0.3027 0.4621 -0.2249
vt 0.8137 0.8755
vn 1.0000 -0.0000 0.0000
v -0.3027 0.2682 0.0205
vt 0.8050 0.8581
vn 1.0000 -0.0000 0.0000
v -0.3027 0.1415 0.0155
vt 0.8051 0.8468
vn 1.0000 -0.0000 0.0000
f 328/328/328 329/329/329 330/330/330 331/331/331
v -0.4165 0.3414 -0.2462
vt 0.8145 0.8334
vn -0.0000 -0.9157 -0.4018
v -0.4165 0.4293 -0.7448
vt 0.8323 0.8413
vn -0.0000 -0.9848 -0.1736
v -0.3027 0.4293 -0.7448
vt 0.8323 0.8413
vn -0.0000 -0.9848 -0.1736
v -0.3027 0.3414 -0.2462
vt 0.8145 0.8334
vn -0.0000 -0.9157 -0.4018
f 332/332/332 333/333/333 334/334/334 335/335/335
v -0.4165 0.4621 -0.2249
vt 0.8137 0.9067
vn 0.0000 0.9125 0.4092
v -0.4165 0.2682 0.0205
vt 0.8050 0.8894
vn 0.0000 0.8571 0.5151
v -0.3027 0.2682 0.0205
vt 0.8050 0.8894
vn 0.0000 0.8571 0.5151
v -0.3027 0.4621 -0.2249
vt 0.8137 0.9067
vn 0.0000 0.9125 0.4092
f 336/336/336 337/337/337 338/338/338 339/339/339
v 0.1837 0.4182 -0.4652
vt 0.8223 0.8716
vn -1.0000 0.0000 0.0000
v 0.1837 0.2905 0.2586
vt 0.7964 0.8601
vn -1.0000 0.0000 0.0000
v 0.1837 0.4112 0.2799
vt 0.7957 0.8866
vn -1.0000 0.0000 0.0000
v 0.1837 0.5388 -0.4439
vt 0.8216 0.8980
vn -1.0000 0.0000 0.0000
f 340/340/340 341/341/341 342/342/342 343/343/343
v -0.1838 0.4112 0.2799
vt 0.7957 0.8866
vn 1.0000 -0.0000 0.0000
v -0.1838 0.2905 0.2586
vt 0.7964 0.8601
vn 1.0000 -0.0000 0.0000
v -0.1838 0.4182 -0.4652
vt 0.8223 0.8716
vn 1.0000 -0.0000 0.0000
v -0.1838 0.5388 -0.4439
vt 0.8216 0.8980
vn 1.0000 -0.0000 0.0000
f 344/344/344 345/345/345 346/346/346 347/347/347
v -0.1603 0.1845 0.6958
vt 0.7808 0.8506
vn 0.9708 0.0000 -0.2400
v -0.1603 0.3051 0.6958
vt 0.7808 0.8614
vn 0.9815 0.0000 -0.1912
v -0.1603 0.3051 0.8597
vt 0.7749 0.8614
vn 1.0000 -0.0000 0.0000
v -0.1603 0.1845 0.8597
vt 0.7749 0.8506
vn 1.0000 -0.0000 0.0000
f 348/348/348 349/349/349 350/350/350 351/351/351
v 0.3027 0.3414 -0.2462
vt 0.8145 0.8647
vn -1.0000 0.0000 0.0000
v 0.3027 0.4621 -0.2249
vt 0.8137 0.8755
vn -1.0000 0.0000 0.0000
v 0.3027 0.5500 -0.7235
vt 0.8316 0.8834
vn -1.0000 0.0000 0.0000
v 0.3027 0.4293 -0.7448
vt 0.8323 0.8726
vn -1.0000 0.0000 0.0000
f 352/352/352 353/353/353 354/354/354 355/355/355
v 0.3027 0.4293 -0.7448
vt 0.8323 0.8569
vn 0.0000 0.1736 -0.9848
v 0.3027 0.5500 -0.7235
vt 0.8316 0.8677
vn 0.0000 0.1736 -0.9848
v 0.4165 0.5500 -0.7235
vt 0.8316 0.8677
vn 0.0000 0.1736 -0.9848
v 0.4165 0.4293 -0.7448
vt 0.8323 0.8569
vn 0.0000 0.1736 -0.9848
f 356/356/356 357/357/357 358/358/358 359/359/359
v 0.4165 0.3414 -0.2462
vt 0.8145 0.8647
vn 1.0000 -0.0000 0.0000
v 0.4165 0.4621 -0.2249
vt 0.8137 0.8755
vn 1.0000 -0.0000 0.0000
v 0.4165 0.2682 0.0205
vt 0.8050 0.8581
vn 1.0000 -0.0000 0.0000
v 0.4165 0.1415 0.0155
vt 0.8051 0.8468
vn 1.0000 -0.0000 0.0000
f 360/360/360 361/361/361 362/362/362 363/363/363
v 0.3027 0.3414 -0.2462
vt 0.8145 0.8334
vn -0.0000 -0.9157 -0.4018
v 0.3027 0.4293 -0.7448
vt 0.8323 0.8413
vn -0.0000 -0.9848 -0.1736
v 0.4165 0.4293 -0.7448
vt 0.8323 0.8413
vn -0.0000 -0.9848 -0.1736
v 0.4165 0.3414 -0.2462
vt 0.8145 0.8334
vn -0.0000 -0.9157 -0.4018
f 364/364/364 365/365/365 366/366/366 367/367/367
v 0.3027 0.4621 -0.2249
vt 0.8137 0.9067
vn 0.0000 0.9125 0.4092
v 0.3027 0.2682 0.0205
vt 0.8050 0.8894
vn 0.0000 0.8571 0.5151
v 0.4165 0.2682 0.0205
vt 0.8050 0.8894
vn 0.0000 0.8571 0.5151
v 0.4165 0.4621 -0.2249
vt 0.8137 0.9067
vn 0.0000 0.9125 0.4092
f 368/368/368 369/369/369 370/370/370 371/371/371
v 0.1837 0.2905 0.2586
vt 0.7964 0.8601
vn 0.0000 0.1736 -0.9848
v -0.1838 0.2905 0.2586
vt 0.7964 0.8601
vn 0.0000 0.1736 -0.9848
v -0.1838 0.4112 0.2799
vt 0.7957 0.8866
vn 0.0000 0.1736 -0.9848
v 0.1837 0.4112 0.2799
vt 0.7957 0.8866
vn 0.0000 0.1736 -0.9848
f 372/372/372 373/373/373 374/374/374 375/375/375
v -0.3027 0.1486 0.3580
vt 0.7929 0.8474
vn -1.0000 0.0000 0.0000
v -0.3027 0.3296 0.3899
vt 0.7917 0.8792
vn -1.0000 0.0000 0.0000
v -0.3027 0.4785 -0.4546
vt 0.8220 0.8926
vn -1.0000 0.0000 0.0000
v -0.3027 0.2975 -0.4865
vt 0.8231 0.8608
vn -1.0000 0.0000 0.0000
f 376/376/376 377/377/377 378/378/378 379/379/379
v -0.1838 0.5318 0.3012
vt 0.7949 0.8974
vn 1.0000 -0.0000 0.0000
v -0.1838 0.4112 0.2799
vt 0.7957 0.8709
vn 1.0000 -0.0000 0.0000
v -0.1838 0.5388 -0.4439
vt 0.8216 0.8824
vn 1.0000 -0.0000 0.0000
v -0.1838 0.6595 -0.4227
vt 0.8208 0.9088
vn 1.0000 -0.0000 0.0000
f 380/380/380 381/381/381 382/382/382 383/383/383
v 0.3027 0.2975 -0.4865
vt 0.8231 0.8451
vn 0.0000 0.1736 -0.9848
v 0.1837 0.4182 -0.4652
vt 0.8223 0.8559
vn 0.0000 0.1736 -0.9848
v 0.1837 0.5388 -0.4439
vt 0.8216 0.8824
vn 0.0000 0.1736 -0.9848
v 0.3027 0.4785 -0.4546
vt 0.8220 0.8770
vn 0.0000 0.1736 -0.9848
f 384/384/384 385/385/385 386/386/386 387/387/387
v 0.1225 0.2899 0.7987
vt 0.2951 0.8405
vn 1.0000 -0.0000 0.0000
v 0.1225 0.2899 0.7615
vt 0.3064 0.8405
vn 1.0000 -0.0000 0.0000
v 0.1225 0.3395 0.7410
vt 0.3126 0.8556
vn 1.0000 -0.0000 0.0000
v 0.1225 0.3395 0.8192
vt 0.2888 0.8556
vn 1.0000 -0.0000 0.0000
f 388/388/388 389/389/389 390/390/390 391/391/391
v 0.1225 0.2265 0.7352
vt 0.3143 0.8213
vn 1.0000 -0.0000 0.0000
v 0.1225 0.2002 0.7615
vt 0.3064 0.8133
vn 1.0000 -0.0000 0.0000
v 0.1225 0.1506 0.7410
vt 0.3126 0.7982
vn 1.0000 -0.0000 0.0000
v 0.1225 0.2059 0.6856
vt 0.3294 0.8150
vn 1.0000 -0.0000 0.0000
f 392/392/392 393/393/393 394/394/394 395/395/395
v 0.1225 0.2002 0.7615
vt 0.3064 0.8133
vn 1.0000 -0.0000 0.0000
v 0.1225 0.2002 0.7987
vt 0.2951 0.8133
vn 1.0000 -0.0000 0.0000
v 0.1225 0.1506 0.8192
vt 0.2888 0.7982
vn 1.0000 -0.0000 0.0000
v 0.1225 0.1506 0.7410
vt 0.3126 0.7982
vn 1.0000 -0.0000 0.0000
f 396/396/396 397/397/397 398/398/398 399/399/399
v 0.1225 0.2002 0.7987
vt 0.2951 0.8133
vn 1.0000 -0.0000 0.0000
v 0.1225 0.2265 0.8250
vt 0.2871 0.8213
vn 1.0000 -0.0000 0.0000
v 0.1225 0.2059 0.8745
vt 0.2720 0.8150
vn 1.0000 -0.0000 0.0000
v 0.1225 0.1506 0.8192
vt 0.2888 0.7982
vn 1.0000 -0.0000 0.0000
f 400/400/400 401/401/401 402/402/402 403/403/403
v 0.1225 0.2265 0.8250
vt 0.2871 0.8213
vn 1.0000 -0.0000 0.0000
v 0.1225 0.2636 0.8250
vt 0.2871 0.8326
vn 1.0000 -0.0000 0.0000
v 0.1225 0.2842 0.8745
vt 0.2720 0.8388
vn 1.0000 -0.0000 0.0000
v 0.1225 0.2059 0.8745
vt 0.2720 0.8150
vn 1.0000 -0.0000 0.0000
f 404/404/404 405/405/405 406/406/406 407/407/407
v 0.1225 0.2636 0.8250
vt 0.2871 0.8326
vn 1.0000 -0.0000 0.0000
v 0.1225 0.2899 0.7987
vt 0.2951 0.8405
vn 1.0000 -0.0000 0.0000
v 0.1225 0.3395 0.8192
vt 0.2888 0.8556
vn 1.0000 -0.0000 0.0000
v 0.1225 0.2842 0.8745
vt 0.2720 0.8388
vn 1.0000 -0.0000 0.0000
f 408/408/408 409/409/409 410/410/410 411/411/411
v 0.1225 0.2899 0.7615
vt 0.3064 0.8405
vn 1.0000 -0.0000 0.0000
v 0.1225 0.2636 0.7352
vt 0.3143 0.8326
vn 1.0000 -0.0000 0.0000
v 0.1225 0.2842 0.6856
vt 0.3294 0.8388
vn 1.0000 -0.0000 0.0000
v 0.1225 0.3395 0.7410
vt 0.3126 0.8556
vn 1.0000 -0.0000 0.0000
f 412/412/412 413/413/413 414/414/414 415/415/415
v -0.1225 0.2265 0.7352
vt 0.3143 0.8213
vn -1.0000 0.0000 0.0000
v -0.1225 0.2636 0.7352
vt 0.3143 0.8326
vn -1.0000 0.0000 0.0000
v -0.1225 0.2842 0.6856
vt 0.3294 0.8388
vn -1.0000 0.0000 0.0000
v -0.1225 0.2059 0.6856
vt 0.3294 0.8150
vn -1.0000 0.0000 0.0000
f 416/416/416 417/417/417 418/418/418 419/419/419
v -0.1225 0.2002 0.7615
vt 0.3064 0.8133
vn -1.0000 0.0000 0.0000
v -0.1225 0.2265 0.7352
vt 0.3143 0.8213
vn -1.0000 0.0000 0.0000
v -0.1225 0.2059 0.6856
vt 0.3294 0.8150
vn -1.0000 0.0000 0.0000
v -0.1225 0.1506 0.7410
vt 0.3126 0.7982
vn -1.0000 0.0000 0.0000
f 420/420/420 421/421/421 422/422/422 423/423/423
v -0.1225 0.2002 0.7987
vt 0.2951 0.8133
vn -1.0000 0.0000 0.0000
v -0.1225 0.2002 0.7615
vt 0.3064 0.8133
vn -1.0000 0.0000 0.0000
v -0.1225 0.1506 0.7410
vt 0.3126 0.7982
vn -1.0000 0.0000 0.0000
v -0.1225 0.1506 0.8192
vt 0.2888 0.7982
vn -1.0000 0.0000 0.0000
f 424/424/424 425/425/425 426/426/426 427/427/427
v -0.1225 0.2265 0.8250
vt 0.2871 0.8213
vn -1.0000 0.0000 0.0000
v -0.1225 0.2002 0.7987
vt 0.2951 0.8133
vn -1.0000 0.0000 0.0000
v -0.1225 0.1506 0.8192
vt 0.2888 0.7982
vn -1.0000 0.0000 0.0000
v -0.1225 0.2059 0.8745
vt 0.2720 0.8150
vn -1.0000 0.0000 0.0000
f 428/428/428 429/429/429 430/430/430 431/431/431
v -0.1225 0.2636 0.8250
vt 0.2871 0.8326
vn -1.0000 0.0000 0.0000
v -0.1225 0.2265 0.8250
vt 0.2871 0.8213
vn -1.0000 0.0000 0.0000
v -0.1225 0.2059 0.8745
vt 0.2720 0.8150
vn -1.0000 0.0000 0.0000
v -0.1225 0.2842 0.8745
vt 0.2720 0.8388
vn -1.0000 0.0000 0.0000
f 432/432/432 433/433/433 434/434/434 435/435/435
v -0.1225 0.2899 0.7987
vt 0.2951 0.8405
vn -1.0000 0.0000 0.0000
v -0.1225 0.2636 0.8250
vt 0.2871 0.8326
vn -1.0000 0.0000 0.0000
v -0.1225 0.2842 0.8745
vt 0.2720 0.8388
vn -1.0000 0.0000 0.0000
v -0.1225 0.3395 0.8192
vt 0.2888 0.8556
vn -1.0000 0.0000 0.0000
f 436/436/436 437/437/437 438/438/438 439/439/439
v 0.1225 0.2636 0.7352
vt 0.3143 0.8326
vn 1.0000 -0.0000 0.0000
v 0.1225 0.2265 0.7352
vt 0.3143 0.8213
vn 1.0000 -0.0000 0.0000
v 0.1225 0.2059 0.6856
vt 0.3294 0.8150
vn 1.0000 -0.0000 0.0000
v 0.1225 0.2842 0.6856
vt 0.3294 0.8388
vn 1.0000 -0.0000 0.0000
f 440/440/440 441/441/441 442/442/442 443/443/443
v -0.1225 0.2636 0.7352
vt 0.3143 0.8326
vn -1.0000 0.0000 0.0000
v -0.1225 0.2899 0.7615
vt 0.3064 0.8405
vn -1.0000 0.0000 0.0000
v -0.1225 0.3395 0.7410
vt 0.3126 0.8556
vn -1.0000 0.0000 0.0000
v -0.1225 0.2842 0.6856
vt 0.3294 0.8388
vn -1.0000 0.0000 0.0000
f 444/444/444 445/445/445 446/446/446 447/447/447
v -0.1225 0.2002 0.7615
vt 0.3064 0.8445
vn 0.0000 -1.0000 0.0000
v -0.1225 0.2002 0.7987
vt 0.2951 0.8445
vn 0.0000 -1.0000 0.0000
v -0.3060 0.2002 0.7987
vt 0.2951 0.8445
vn 0.0000 -1.0000 0.0000
v -0.3060 0.2002 0.7615
vt 0.3064 0.8445
vn 0.0000 -1.0000 0.0000
f 448/448/448 449/449/449 450/450/450 451/451/451
v 0.1225 0.2899 0.7987
vt 0.2951 0.8718
vn 0.0000 0.9239 0.3827
v 0.1225 0.2636 0.8250
vt 0.2871 0.8638
vn 0.0000 0.7071 0.7071
v 0.3060 0.2636 0.8250
vt 0.2871 0.8638
vn 0.0000 0.7071 0.7071
v 0.3060 0.2899 0.7987
vt 0.2951 0.8718
vn 0.0000 0.9239 0.3827
f 452/452/452 453/453/453 454/454/454 455/455/455
v -0.1225 0.2899 0.7615
vt 0.3064 0.8405
vn -1.0000 0.0000 0.0000
v -0.1225 0.2899 0.7987
vt 0.2951 0.8405
vn -1.0000 0.0000 0.0000
v -0.1225 0.3395 0.8192
vt 0.2888 0.8556
vn -1.0000 0.0000 0.0000
v -0.1225 0.3395 0.7410
vt 0.3126 0.8556
vn -1.0000 0.0000 0.0000
f 456/456/456 457/457/457 458/458/458 459/459/459
v 0.1225 0.2636 0.8250
vt 0.2871 0.8638
vn 0.0000 0.0000 1.0000
v 0.1225 0.2265 0.8250
vt 0.2871 0.8525
vn 0.0000 0.0000 1.0000
v 0.3060 0.2265 0.8250
vt 0.2871 0.8525
vn 0.0000 0.0000 1.0000
v 0.3060 0.2636 0.8250
vt 0.2871 0.8638
vn 0.0000 0.0000 1.0000
f 460/460/460 461/461/461 462/462/462 463/463/463
v -0.1225 0.2002 0.7987
vt 0.2951 0.8445
vn 0.0000 -0.7071 0.7071
v -0.1225 0.2265 0.8250
vt 0.2871 0.8525
vn 0.0000 -0.3827 0.9239
v -0.3060 0.2265 0.8250
vt 0.2871 0.8525
vn 0.0000 -0.3827 0.9239
v -0.3060 0.2002 0.7987
vt 0.2951 0.8445
vn 0.0000 -0.7071 0.7071
f 464/464/464 465/465/465 466/466/466 467/467/467
v 0.1225 0.2265 0.8250
vt 0.2871 0.8525
vn 0.0000 -0.7071 0.7071
v 0.1225 0.2002 0.7987
vt 0.2951 0.8445
vn 0.0000 -0.9239 0.3827
v 0.3060 0.2002 0.7987
vt 0.2951 0.8445
vn 0.0000 -0.9239 0.3827
v 0.3060 0.2265 0.8250
vt 0.2871 0.8525
vn 0.0000 -0.7071 0.7071
f 468/468/468 469/469/469 470/470/470 471/471/471
v -0.1225 0.2265 0.8250
vt 0.2871 0.8525
vn 0.0000 -0.3827 0.9239
v -0.1225 0.2636 0.8250
vt 0.2871 0.8638
vn 0.0000 0.3827 0.9239
v -0.3060 0.2636 0.8250
vt 0.2871 0.8638
vn 0.0000 0.3827 0.9239
v -0.3060 0.2265 0.8250
vt 0.2871 0.8525
vn 0.0000 -0.3827 0.9239
f 472/472/472 473/473/473 474/474/474 475/475/475
v 0.1225 0.2002 0.7987
vt 0.2951 0.8445
vn 0.0000 -0.9239 0.3827
v 0.1225 0.2002 0.7615
vt 0.3064 0.8445
vn -0.0000 -0.9239 -0.3827
v 0.3060 0.2002 0.7615
vt 0.3064 0.8445
vn -0.0000 -0.9239 -0.3827
v 0.3060 0.2002 0.7987
vt 0.2951 0.8445
vn 0.0000 -0.9239 0.3827
f 476/476/476 477/477/477 478/478/478 479/479/479
v -0.1225 0.2636 0.8250
vt 0.2871 0.8638
vn 0.0000 0.3827 0.9239
v -0.1225 0.2899 0.7987
vt 0.2951 0.8718
vn 0.0000 0.7071 0.7071
v -0.3060 0.2899 0.7987
vt 0.2951 0.8718
vn 0.0000 0.7071 0.7071
v -0.3060 0.2636 0.8250
vt 0.2871 0.8638
vn 0.0000 0.3827 0.9239
f 480/480/480 481/481/481 482/482/482 483/483/483
v -0.1225 0.2899 0.7987
vt 0.2951 0.8718
vn 0.0000 1.0000 0.0000
v -0.1225 0.2899 0.7615
vt 0.3064 0.8718
vn 0.0000 0.9239 -0.3827
v -0.3060 0.2899 0.7615
vt 0.3064 0.8718
vn 0.0000 0.9239 -0.3827
v -0.3060 0.2899 0.7987
vt 0.2951 0.8718
vn 0.0000 1.0000 0.0000
f 484/484/484 485/485/485 486/486/486 487/487/487
v 0.1225 0.2002 0.7615
vt 0.3064 0.8445
vn -0.0000 -0.9239 -0.3827
v 0.1225 0.2265 0.7352
vt 0.3143 0.8525
vn 0.0000 -0.7071 -0.7071
v 0.3060 0.2265 0.7352
vt 0.3143 0.8525
vn 0.0000 -0.7071 -0.7071
v 0.3060 0.2002 0.7615
vt 0.3064 0.8445
vn -0.0000 -0.9239 -0.3827
f 488/488/488 489/489/489 490/490/490 491/491/491
v 0.1225 0.2265 0.7352
vt 0.3143 0.8525
vn 0.0000 0.0000 -1.0000
v 0.1225 0.2636 0.7352
vt 0.3143 0.8638
vn 0.0000 0.0000 -1.0000
v 0.3060 0.2636 0.7352
vt 0.3143 0.8638
vn 0.0000 0.0000 -1.0000
v 0.3060 0.2265 0.7352
vt 0.3143 0.8525
vn 0.0000 0.0000 -1.0000
f 492/492/492 493/493/493 494/494/494 495/495/495
v -0.1225 0.2899 0.7615
vt 0.3064 0.8718
vn 0.0000 0.9239 -0.3827
v -0.1225 0.2636 0.7352
vt 0.3143 0.8638
vn -0.0000 0.3827 -0.9239
v -0.3060 0.2636 0.7352
vt 0.3143 0.8638
vn -0.0000 0.3827 -0.9239
v -0.3060 0.2899 0.7615
vt 0.3064 0.8718
vn 0.0000 0.9239 -0.3827
f 496/496/496 497/497/497 498/498/498 499/499/499
v 0.1225 0.2636 0.7352
vt 0.3143 0.8638
vn -0.0000 0.7071 -0.7071
v 0.1225 0.2899 0.7615
vt 0.3064 0.8718
vn 0.0000 0.9239 -0.3827
v 0.3060 0.2899 0.7615
vt 0.3064 0.8718
vn 0.0000 0.9239 -0.3827
v 0.3060 0.2636 0.7352
vt 0.3143 0.8638
vn -0.0000 0.7071 -0.7071
f 500/500/500 501/501/501 502/502/502 503/503/503
v -0.1225 0.2636 0.7352
vt 0.3143 0.8638
vn -0.0000 0.3827 -0.9239
v -0.1225 0.2265 0.7352
vt 0.3143 0.8525
vn -0.0000 -0.3827 -0.9239
v -0.3060 0.2265 0.7352
vt 0.3143 0.8525
vn -0.0000 -0.3827 -0.9239
v -0.3060 0.2636 0.7352
vt 0.3143 0.8638
vn -0.0000 0.3827 -0.9239
f 504/504/504 505/505/505 506/506/506 507/507/507
v 0.1225 0.2899 0.7615
vt 0.3064 0.8718
vn 0.0000 0.9239 -0.3827
v 0.1225 0.2899 0.7987
vt 0.2951 0.8718
vn 0.0000 0.9239 0.3827
v 0.3060 0.2899 0.7987
vt 0.2951 0.8718
vn 0.0000 0.9239 0.3827
v 0.3060 0.2899 0.7615
vt 0.3064 0.8718
vn 0.0000 0.9239 -0.3827
f 508/508/508 509/509/509 510/510/510 511/511/511
v -0.1225 0.2265 0.7352
vt 0.3143 0.8525
vn -0.0000 -0.3827 -0.9239
v -0.1225 0.2002 0.7615
vt 0.3064 0.8445
vn 0.0000 -0.7071 -0.7071
v -0.3060 0.2002 0.7615
vt 0.3064 0.8445
vn 0.0000 -0.7071 -0.7071
v -0.3060 0.2265 0.7352
vt 0.3143 0.8525
vn -0.0000 -0.3827 -0.9239
f 512/512/512 513/513/513 514/514/514 515/515/515
v 0.3060 0.2451 0.7801
vt 0.3007 0.8269
vn 1.0000 -0.0000 0.0000
v 0.3060 0.2002 0.7615
vt 0.3064 0.8133
vn 1.0000 -0.0000 0.0000
v 0.3060 0.2265 0.7352
vt 0.3143 0.8213
vn 1.0000 -0.0000 0.0000
f 516/516/516 517/517/517 518/518/518
v 0.3060 0.2451 0.7801
vt 0.3007 0.8269
vn 1.0000 -0.0000 0.0000
v 0.3060 0.2002 0.7987
vt 0.2951 0.8133
vn 1.0000 -0.0000 0.0000
v 0.3060 0.2002 0.7615
vt 0.3064 0.8133
vn 1.0000 -0.0000 0.0000
f 519/519/519 520/520/520 521/521/521
v 0.3060 0.2451 0.7801
vt 0.3007 0.8269
vn 1.0000 -0.0000 0.0000
v 0.3060 0.2265 0.8250
vt 0.2871 0.8213
vn 1.0000 -0.0000 0.0000
v 0.3060 0.2002 0.7987
vt 0.2951 0.8133
vn 1.0000 -0.0000 0.0000
f 522/522/522 523/523/523 524/524/524
v 0.3060 0.2451 0.7801
vt 0.3007 0.8269
vn 1.0000 -0.0000 0.0000
v 0.3060 0.2636 0.8250
vt 0.2871 0.8326
vn 1.0000 -0.0000 0.0000
v 0.3060 0.2265 0.8250
vt 0.2871 0.8213
vn 1.0000 -0.0000 0.0000
f 525/525/525 526/526/526 527/527/527
v 0.3060 0.2451 0.7801
vt 0.3007 0.8269
vn 1.0000 -0.0000 0.0000
v 0.3060 0.2899 0.7987
vt 0.2951 0.8405
vn 1.0000 -0.0000 0.0000
v 0.3060 0.2636 0.8250
vt 0.2871 0.8326
vn 1.0000 -0.0000 0.0000
f 528/528/528 529/529/529 530/530/530
v 0.3060 0.2451 0.7801
vt 0.3007 0.8269
vn 1.0000 -0.0000 0.0000
v 0.3060 0.2899 0.7615
vt 0.3064 0.8405
vn 1.0000 -0.0000 0.0000
v 0.3060 0.2899 0.7987
vt 0.2951 0.8405
vn 1.0000 -0.0000 0.0000
f 531/531/531 532/532/532 533/533/533
v 0.3060 0.2451 0.7801
vt 0.3007 0.8269
vn 1.0000 -0.0000 0.0000
v 0.3060 0.2636 0.7352
vt 0.3143 0.8326
vn 1.0000 -0.0000 0.0000
v 0.3060 0.2899 0.7615
vt 0.3064 0.8405
vn 1.0000 -0.0000 0.0000
f 534/534/534 535/535/535 536/536/536
v 0.3060 0.2451 0.7801
vt 0.3007 0.8269
vn 1.0000 -0.0000 0.0000
v 0.3060 0.2265 0.7352
vt 0.3143 0.8213
vn 1.0000 -0.0000 0.0000
v 0.3060 0.2636 0.7352
vt 0.3143 0.8326
vn 1.0000 -0.0000 0.0000
f 537/537/537 538/538/538 539/539/539
v -0.3060 0.2451 0.7801
vt 0.3007 0.8269
vn -1.0000 0.0000 0.0000
v -0.3060 0.2636 0.8250
vt 0.2871 0.8326
vn -1.0000 0.0000 0.0000
v -0.3060 0.2899 0.7987
vt 0.2951 0.8405
vn -1.0000 0.0000 0.0000
f 540/540/540 541/541/541 542/542/542
v -0.3060 0.2451 0.7801
vt 0.3007 0.8269
vn -1.0000 0.0000 0.0000
v -0.3060 0.2265 0.8250
vt 0.2871 0.8213
vn -1.0000 0.0000 0.0000
v -0.3060 0.2636 0.8250
vt 0.2871 0.8326
vn -1.0000 0.0000 0.0000
f 543/543/543 544/544/544 545/545/545
v -0.3060 0.2451 0.7801
vt 0.3007 0.8269
vn -1.0000 0.0000 0.0000
v -0.3060 0.2002 0.7987
vt 0.2951 0.8133
vn -1.0000 0.0000 0.0000
v -0.3060 0.2265 0.8250
vt 0.2871 0.8213
vn -1.0000 0.0000 0.0000
f 546/546/546 547/547/547 548/548/548
v -0.3060 0.2451 0.7801
vt 0.3007 0.8269
vn -1.0000 0.0000 0.0000
v -0.3060 0.2002 0.7615
vt 0.3064 0.8133
vn -1.0000 0.0000 0.0000
v -0.3060 0.2002 0.7987
vt 0.2951 0.8133
vn -1.0000 0.0000 0.0000
f 549/549/549 550/550/550 551/551/551
v -0.3060 0.2451 0.7801
vt 0.3007 0.8269
vn -1.0000 0.0000 0.0000
v -0.3060 0.2265 0.7352
vt 0.3143 0.8213
vn -1.0000 0.0000 0.0000
v -0.3060 0.2002 0.7615
vt 0.3064 0.8133
vn -1.0000 0.0000 0.0000
f 552/552/552 553/553/553 554/554/554
v -0.3060 0.2451 0.7801
vt 0.3007 0.8269
vn -1.0000 0.0000 0.0000
v -0.3060 0.2636 0.7352
vt 0.3143 0.8326
vn -1.0000 0.0000 0.0000
v -0.3060 0.2265 0.7352
vt 0.3143 0.8213
vn -1.0000 0.0000 0.0000
f 555/555/555 556/556/556 557/557/557
v -0.3060 0.2451 0.7801
vt 0.3007 0.8269
vn -1.0000 0.0000 0.0000
v -0.3060 0.2899 0.7615
vt 0.3064 0.8405
vn -1.0000 0.0000 0.0000
v -0.3060 0.2636 0.7352
vt 0.3143 0.8326
vn -1.0000 0.0000 0.0000
f 558/558/558 559/559/559 560/560/560
v -0.3060 0.2451 0.7801
vt 0.3007 0.8269
vn -1.0000 0.0000 0.0000
v -0.3060 0.2899 0.7987
vt 0.2951 0.8405
vn -1.0000 0.0000 0.0000
v -0.3060 0.2899 0.7615
vt 0.3064 0.8405
vn -1.0000 0.0000 0.0000
f 561/561/561 562/562/562 563/563/563
v -0.0735 0.2892 0.6735
vt 0.4369 0.7962
vn -0.9662 -0.0987 0.2382
v -0.0735 0.3516 0.7359
vt 0.4292 0.8039
vn -0.9662 -0.2382 0.0987
v -0.0989 0.4396 0.6995
vt 0.4337 0.8148
vn -0.9662 -0.2382 0.0987
v -0.0989 0.3256 0.5855
vt 0.4478 0.8007
vn -0.9662 -0.0987 0.2382
f 564/564/564 565/565/565 566/566/566 567/567/567
v 0.3027 0.5105 0.4218
vt 0.7906 0.8798
vn 0.7173 0.1210 -0.6862
v 0.1837 0.5318 0.3012
vt 0.7949 0.8817
vn 0.7173 0.1210 -0.6862
v 0.1837 0.6406 0.3203
vt 0.7942 0.8915
vn 0.7173 0.1210 -0.6862
v 0.3027 0.6193 0.4410
vt 0.7899 0.8896
vn 0.7173 0.1210 -0.6862
f 568/568/568 569/569/569 570/570/570 571/571/571
v -0.1838 0.6406 0.3203
vt 0.7942 0.9227
vn 0.0000 0.9848 0.1736
v -0.3027 0.6193 0.4410
vt 0.7899 0.9208
vn 0.0000 0.9848 0.1736
v 0.3027 0.6193 0.4410
vt 0.7899 0.9208
vn 0.0000 0.9848 0.1736
v 0.1837 0.6406 0.3203
vt 0.7942 0.9227
vn 0.0000 0.9848 0.1736
f 572/572/572 573/573/573 574/574/574 575/575/575
v -0.1838 0.5318 0.3012
vt 0.7949 0.8817
vn -0.7173 0.1210 -0.6862
v -0.3027 0.5105 0.4218
vt 0.7906 0.8798
vn -0.7173 0.1210 -0.6862
v -0.3027 0.6193 0.4410
vt 0.7899 0.8896
vn -0.7173 0.1210 -0.6862
v -0.1838 0.6406 0.3203
vt 0.7942 0.8915
vn -0.7173 0.1210 -0.6862
f 576/576/576 577/577/577 578/578/578 579/579/579
v 0.1837 0.5318 0.3012
vt 0.7949 0.8817
vn 0.0000 0.1736 -0.9848
v -0.1838 0.5318 0.3012
vt 0.7949 0.8817
vn 0.0000 0.1736 -0.9848
v -0.1838 0.6406 0.3203
vt 0.7942 0.8915
vn 0.0000 0.1736 -0.9848
v 0.1837 0.6406 0.3203
vt 0.7942 0.8915
vn 0.0000 0.1736 -0.9848
f 580/580/580 581/581/581 582/582/582 583/583/583
v -0.3027 0.3296 0.3899
vt 0.7917 0.8636
vn -1.0000 0.0000 0.0000
v -0.3027 0.5105 0.4218
vt 0.7906 0.8955
vn -1.0000 0.0000 0.0000
v -0.3027 0.6595 -0.4227
vt 0.8208 0.9088
vn -1.0000 0.0000 0.0000
v -0.3027 0.4785 -0.4546
vt 0.8220 0.8770
vn -1.0000 0.0000 0.0000
f 584/584/584 585/585/585 586/586/586 587/587/587
v -0.3027 0.6193 0.4410
vt 0.7899 0.8896
vn -0.6264 -0.1354 0.7677
v -0.3027 0.5105 0.4218
vt 0.7906 0.8798
vn -0.6264 -0.1354 0.7677
v -0.1689 0.4919 0.5277
vt 0.7868 0.8782
vn -0.2529 0.1364 0.9578
f 588/588/588 589/589/589 590/590/590
v -0.3027 0.6595 -0.4227
vt 0.8208 0.8932
vn 0.0000 0.1736 -0.9848
v -0.1838 0.6595 -0.4227
vt 0.8208 0.8932
vn 0.0000 0.1736 -0.9848
v -0.1838 0.5388 -0.4439
vt 0.8216 0.8667
vn 0.0000 0.1736 -0.9848
v -0.3027 0.4785 -0.4546
vt 0.8220 0.8613
vn 0.0000 0.1736 -0.9848
f 591/591/591 592/592/592 593/593/593 594/594/594
v 0.3027 0.5500 -0.7235
vt 0.8316 0.9146
vn 0.0000 0.9848 0.1736
v 0.3027 0.4621 -0.2249
vt 0.8137 0.9067
vn 0.0000 0.9125 0.4092
v 0.4165 0.4621 -0.2249
vt 0.8137 0.9067
vn 0.0000 0.9125 0.4092
v 0.4165 0.5500 -0.7235
vt 0.8316 0.9146
vn 0.0000 0.9848 0.1736
f 595/595/595 596/596/596 597/597/597 598/598/598
v 0.3027 0.1415 0.0155
vt 0.8051 0.8468
vn -1.0000 0.0000 0.0000
v 0.3027 0.0634 0.2070
vt 0.7983 0.8398
vn -0.9975 0.0000 -0.0710
v 0.3027 0.1863 0.2070
vt 0.7983 0.8508
vn -0.9983 0.0000 -0.0588
v 0.3027 0.2682 0.0205
vt 0.8050 0.8581
vn -1.0000 0.0000 0.0000
f 599/599/599 600/600/600 601/601/601 602/602/602
v 0.3027 0.1415 0.0155
vt 0.8051 0.8468
vn -1.0000 0.0000 0.0000
v 0.3027 0.2682 0.0205
vt 0.8050 0.8581
vn -1.0000 0.0000 0.0000
v 0.3027 0.4621 -0.2249
vt 0.8137 0.8755
vn -1.0000 0.0000 0.0000
v 0.3027 0.3414 -0.2462
vt 0.8145 0.8647
vn -1.0000 0.0000 0.0000
f 603/603/603 604/604/604 605/605/605 606/606/606
v 0.4165 0.4293 -0.7448
vt 0.8323 0.8726
vn 1.0000 -0.0000 0.0000
v 0.4165 0.5500 -0.7235
vt 0.8316 0.8834
vn 1.0000 -0.0000 0.0000
v 0.4165 0.4621 -0.2249
vt 0.8137 0.8755
vn 1.0000 -0.0000 0.0000
v 0.4165 0.3414 -0.2462
vt 0.8145 0.8647
vn 1.0000 -0.0000 0.0000
f 607/607/607 608/608/608 609/609/609 610/610/610
v 0.3027 0.1415 0.0155
vt 0.8051 0.8155
vn -0.0000 -0.8679 -0.4967
v 0.4165 0.1415 0.0155
vt 0.8051 0.8155
vn -0.0000 -0.8679 -0.4967
v 0.4165 0.0634 0.2070
vt 0.7983 0.8085
vn -0.0000 -0.9889 -0.1487
v 0.3027 0.0634 0.2070
vt 0.7983 0.8085
vn -0.0000 -0.9918 -0.1275
f 611/611/611 612/612/612 613/613/613 614/614/614
v 0.3027 0.1415 0.0155
vt 0.8051 0.8155
vn -0.0000 -0.8679 -0.4967
v 0.3027 0.3414 -0.2462
vt 0.8145 0.8334
vn -0.0000 -0.9157 -0.4018
v 0.4165 0.3414 -0.2462
vt 0.8145 0.8334
vn -0.0000 -0.9157 -0.4018
v 0.4165 0.1415 0.0155
vt 0.8051 0.8155
vn -0.0000 -0.8679 -0.4967
f 615/615/615 616/616/616 617/617/617 618/618/618
v 0.4165 0.1415 0.0155
vt 0.8051 0.8468
vn 1.0000 -0.0000 0.0000
v 0.4165 0.2682 0.0205
vt 0.8050 0.8581
vn 1.0000 -0.0000 0.0000
v 0.4165 0.1863 0.2070
vt 0.7983 0.8508
vn 0.9980 -0.0000 0.0625
v 0.4165 0.0634 0.2070
vt 0.7983 0.8398
vn 0.9971 -0.0000 0.0755
f 619/619/619 620/620/620 621/621/621 622/622/622
v -0.4165 0.5500 -0.7235
vt 0.8316 0.9146
vn 0.0000 0.9848 0.1736
v -0.4165 0.4621 -0.2249
vt 0.8137 0.9067
vn 0.0000 0.9125 0.4092
v -0.3027 0.4621 -0.2249
vt 0.8137 0.9067
vn 0.0000 0.9125 0.4092
v -0.3027 0.5500 -0.7235
vt 0.8316 0.9146
vn 0.0000 0.9848 0.1736
f 623/623/623 624/624/624 625/625/625 626/626/626
v -0.4165 0.2682 0.0205
vt 0.8050 0.8581
vn -1.0000 0.0000 0.0000
v -0.4165 0.1415 0.0155
vt 0.8051 0.8468
vn -1.0000 0.0000 0.0000
v -0.4165 0.0634 0.2070
vt 0.7983 0.8398
vn -0.9971 -0.0000 0.0755
v -0.4165 0.1863 0.2070
vt 0.7983 0.8508
vn -0.9980 -0.0000 0.0625
f 627/627/627 628/628/628 629/629/629 630/630/630
v -0.4165 0.1415 0.0155
vt 0.8051 0.8468
vn -1.0000 0.0000 0.0000
v -0.4165 0.2682 0.0205
vt 0.8050 0.8581
vn -1.0000 0.0000 0.0000
v -0.4165 0.4621 -0.2249
vt 0.8137 0.8755
vn -1.0000 0.0000 0.0000
v -0.4165 0.3414 -0.2462
vt 0.8145 0.8647
vn -1.0000 0.0000 0.0000
f 631/631/631 632/632/632 633/633/633 634/634/634
v -0.3027 0.4293 -0.7448
vt 0.8323 0.8726
vn 1.0000 -0.0000 0.0000
v -0.3027 0.5500 -0.7235
vt 0.8316 0.8834
vn 1.0000 -0.0000 0.0000
v -0.3027 0.4621 -0.2249
vt 0.8137 0.8755
vn 1.0000 -0.0000 0.0000
v -0.3027 0.3414 -0.2462
vt 0.8145 0.8647
vn 1.0000 -0.0000 0.0000
f 635/635/635 636/636/636 637/637/637 638/638/638
v -0.4165 0.1415 0.0155
vt 0.8051 0.8155
vn -0.0000 -0.8679 -0.4967
v -0.4165 0.3414 -0.2462
vt 0.8145 0.8334
vn -0.0000 -0.9157 -0.4018
v -0.3027 0.3414 -0.2462
vt 0.8145 0.8334
vn -0.0000 -0.9157 -0.4018
v -0.3027 0.1415 0.0155
vt 0.8051 0.8155
vn -0.0000 -0.8679 -0.4967
f 639/639/639 640/640/640 641/641/641 642/642/642
v -0.3027 0.1415 0.0155
vt 0.8051 0.8468
vn 1.0000 -0.0000 0.0000
v -0.3027 0.2682 0.0205
vt 0.8050 0.8581
vn 1.0000 -0.0000 0.0000
v -0.3027 0.1863 0.2070
vt 0.7983 0.8508
vn 0.9983 0.0000 -0.0588
v -0.3027 0.0634 0.2070
vt 0.7983 0.8398
vn 0.9975 0.0000 -0.0710
f 643/643/643 644/644/644 645/645/645 646/646/646
v 0.2225 0.2524 0.5639
vt 0.7855 0.8880
vn 0.0000 0.9442 -0.3293
v 0.1603 0.3051 0.6958
vt 0.7808 0.8927
vn 0.0000 0.9870 -0.1604
v 0.2649 0.3051 0.6958
vt 0.7808 0.8927
vn 0.0000 0.9773 -0.2120
v 0.3311 0.2524 0.5638
vt 0.7855 0.8880
vn 0.0000 0.9528 -0.3035
f 647/647/647 648/648/648 649/649/649 650/650/650
v 0.3311 0.1319 0.5638
vt 0.7855 0.8147
vn 0.0000 -0.9523 0.3050
v 0.2649 0.1845 0.6958
vt 0.7808 0.8194
vn 0.0000 -0.9774 0.2113
v 0.1603 0.1845 0.6958
vt 0.7808 0.8194
vn 0.0000 -0.9871 0.1598
v 0.2225 0.1320 0.5639
vt 0.7855 0.8147
vn 0.0000 -0.9441 0.3297
f 651/651/651 652/652/652 653/653/653 654/654/654
v 0.3311 0.2524 0.5638
vt 0.7855 0.8567
vn 0.9168 -0.0000 0.3993
v 0.2649 0.3051 0.6958
vt 0.7808 0.8614
vn 0.9794 0.0000 0.2020
v 0.2649 0.1845 0.6958
vt 0.7808 0.8506
vn 0.9675 0.0000 0.2529
v 0.3311 0.1319 0.5638
vt 0.7855 0.8459
vn 0.9266 -0.0000 0.3761
f 655/655/655 656/656/656 657/657/657 658/658/658
v -0.4165 0.1863 0.2070
vt 0.7983 0.8820
vn 0.0000 0.9859 0.1673
v -0.3027 0.1863 0.2070
vt 0.7983 0.8820
vn 0.0000 0.9894 0.1453
v -0.3027 0.2682 0.0205
vt 0.8050 0.8894
vn 0.0000 0.8571 0.5151
v -0.4165 0.2682 0.0205
vt 0.8050 0.8894
vn 0.0000 0.8571 0.5151
f 659/659/659 660/660/660 661/661/661 662/662/662
v 0.2225 0.1320 0.5639
vt 0.7855 0.8459
vn -0.9343 0.0000 -0.3565
v 0.1603 0.1845 0.6958
vt 0.7808 0.8506
vn -0.9708 0.0000 -0.2400
v 0.1603 0.3051 0.6958
vt 0.7808 0.8614
vn -0.9815 0.0000 -0.1912
v 0.2225 0.2524 0.5639
vt 0.7855 0.8567
vn -0.9254 0.0000 -0.3791
f 663/663/663 664/664/664 665/665/665 666/666/666
v -0.3311 0.2524 0.5638
vt 0.7855 0.8880
vn 0.0000 0.9528 -0.3035
v -0.2649 0.3051 0.6958
vt 0.7808 0.8927
vn 0.0000 0.9773 -0.2120
v -0.1603 0.3051 0.6958
vt 0.7808 0.8927
vn 0.0000 0.9870 -0.1604
v -0.2225 0.2524 0.5639
vt 0.7855 0.8880
vn 0.0000 0.9442 -0.3293
f 667/667/667 668/668/668 669/669/669 670/670/670
v -0.4165 0.1415 0.0155
vt 0.8051 0.8155
vn -0.0000 -0.8679 -0.4967
v -0.3027 0.1415 0.0155
vt 0.8051 0.8155
vn -0.0000 -0.8679 -0.4967
v -0.3027 0.0634 0.2070
vt 0.7983 0.8085
vn -0.0000 -0.9918 -0.1275
v -0.4165 0.0634 0.2070
vt 0.7983 0.8085
vn -0.0000 -0.9889 -0.1487
f 671/671/671 672/672/672 673/673/673 674/674/674
v -0.2225 0.1320 0.5639
vt 0.7855 0.8147
vn 0.0000 -0.9441 0.3297
v -0.1603 0.1845 0.6958
vt 0.7808 0.8194
vn 0.0000 -0.9871 0.1598
v -0.2649 0.1845 0.6958
vt 0.7808 0.8194
vn 0.0000 -0.9774 0.2113
v -0.3311 0.1319 0.5638
vt 0.7855 0.8147
vn 0.0000 -0.9523 0.3050
f 675/675/675 676/676/676 677/677/677 678/678/678
v -0.2225 0.2524 0.5639
vt 0.7855 0.8567
vn 0.9254 0.0000 -0.3791
v -0.1603 0.3051 0.6958
vt 0.7808 0.8614
vn 0.9815 0.0000 -0.1912
v -0.1603 0.1845 0.6958
vt 0.7808 0.8506
vn 0.9708 0.0000 -0.2400
v -0.2225 0.1320 0.5639
vt 0.7855 0.8459
vn 0.9343 0.0000 -0.3565
f 679/679/679 680/680/680 681/681/681 682/682/682
v -0.3311 0.1319 0.5638
vt 0.7855 0.8459
vn -0.9266 -0.0000 0.3761
v -0.2649 0.1845 0.6958
vt 0.7808 0.8506
vn -0.9675 0.0000 0.2529
v -0.2649 0.3051 0.6958
vt 0.7808 0.8614
vn -0.9794 0.0000 0.2020
v -0.3311 0.2524 0.5638
vt 0.7855 0.8567
vn -0.9168 -0.0000 0.3993
f 683/683/683 684/684/684 685/685/685 686/686/686
v -0.1603 0.1845 0.8597
vt 0.7749 0.8350
vn 0.0000 0.0000 1.0000
v -0.1603 0.3051 0.8597
vt 0.7749 0.8458
vn 0.0000 0.0000 1.0000
v -0.2649 0.3051 0.8597
vt 0.7749 0.8458
vn 0.0000 0.0000 1.0000
v -0.2649 0.1845 0.8597
vt 0.7749 0.8350
vn 0.0000 0.0000 1.0000
f 687/687/687 688/688/688 689/689/689 690/690/690
v -0.2649 0.3051 0.6958
vt 0.7808 0.8614
vn -0.9794 0.0000 0.2020
v -0.2649 0.1845 0.6958
vt 0.7808 0.8506
vn -0.9675 0.0000 0.2529
v -0.2649 0.1845 0.8597
vt 0.7749 0.8506
vn -1.0000 0.0000 0.0000
v -0.2649 0.3051 0.8597
vt 0.7749 0.8614
vn -1.0000 0.0000 0.0000
f 691/691/691 692/692/692 693/693/693 694/694/694
v 0.2649 0.1845 0.6958
vt 0.7808 0.8506
vn 0.9675 0.0000 0.2529
v 0.2649 0.3051 0.6958
vt 0.7808 0.8614
vn 0.9794 0.0000 0.2020
v 0.2649 0.3051 0.8597
vt 0.7749 0.8614
vn 1.0000 -0.0000 0.0000
v 0.2649 0.1845 0.8597
vt 0.7749 0.8506
vn 1.0000 -0.0000 0.0000
f 695/695/695 696/696/696 697/697/697 698/698/698
v 0.1603 0.1845 0.6958
vt 0.7808 0.8194
vn 0.0000 -0.9871 0.1598
v 0.2649 0.1845 0.6958
vt 0.7808 0.8194
vn 0.0000 -0.9774 0.2113
v 0.2649 0.1845 0.8597
vt 0.7749 0.8194
vn 0.0000 -1.0000 0.0000
v 0.1603 0.1845 0.8597
vt 0.7749 0.8194
vn 0.0000 -1.0000 0.0000
f 699/699/699 700/700/700 701/701/701 702/702/702
v 0.1603 0.3051 0.6958
vt 0.7808 0.8614
vn -0.9815 0.0000 -0.1912
v 0.1603 0.1845 0.6958
vt 0.7808 0.8506
vn -0.9708 0.0000 -0.2400
v 0.1603 0.1845 0.8597
vt 0.7749 0.8506
vn -1.0000 0.0000 0.0000
v 0.1603 0.3051 0.8597
vt 0.7749 0.8614
vn -1.0000 0.0000 0.0000
f 703/703/703 704/704/704 705/705/705 706/706/706
v 0.2649 0.1845 0.8597
vt 0.7749 0.8350
vn 0.0000 0.0000 1.0000
v 0.2649 0.3051 0.8597
vt 0.7749 0.8458
vn 0.0000 0.0000 1.0000
v 0.1603 0.3051 0.8597
vt 0.7749 0.8458
vn 0.0000 0.0000 1.0000
v 0.1603 0.1845 0.8597
vt 0.7749 0.8350
vn 0.0000 0.0000 1.0000
f 707/707/707 708/708/708 709/709/709 710/710/710
v 0.2649 0.3051 0.6958
vt 0.7808 0.8927
vn 0.0000 0.9773 -0.2120
v 0.1603 0.3051 0.6958
vt 0.7808 0.8927
vn 0.0000 0.9870 -0.1604
v 0.1603 0.3051 0.8597
vt 0.7749 0.8927
vn 0.0000 1.0000 0.0000
v 0.2649 0.3051 0.8597
vt 0.7749 0.8927
vn 0.0000 1.0000 0.0000
f 711/711/711 712/712/712 713/713/713 714/714/714
v -0.2649 0.1845 0.6958
vt 0.7808 0.8194
vn 0.0000 -0.9774 0.2113
v -0.1603 0.1845 0.6958
vt 0.7808 0.8194
vn 0.0000 -0.9871 0.1598
v -0.1603 0.1845 0.8597
vt 0.7749 0.8194
vn 0.0000 -1.0000 0.0000
v -0.2649 0.1845 0.8597
vt 0.7749 0.8194
vn 0.0000 -1.0000 0.0000
f 715/715/715 716/716/716 717/717/717 718/718/718
v 0.2225 0.2524 0.5639
vt 0.7855 0.8880
vn 0.0000 0.9442 -0.3293
v 0.3311 0.2524 0.5638
vt 0.7855 0.8880
vn 0.0000 0.9528 -0.3035
v 0.3915 0.2048 0.3888
vt 0.7918 0.8837
vn 0.0000 0.9855 -0.1697
v 0.2792 0.2048 0.3888
vt 0.7918 0.8837
vn 0.0000 0.9812 -0.1928
f 719/719/719 720/720/720 721/721/721 722/722/722
v 0.2792 0.2048 0.3888
vt 0.7918 0.8837
vn 0.0000 0.9812 -0.1928
v 0.3915 0.2048 0.3888
vt 0.7918 0.8837
vn 0.0000 0.9855 -0.1697
v 0.4165 0.1863 0.2070
vt 0.7983 0.8820
vn 0.0000 0.9859 0.1673
v 0.3027 0.1863 0.2070
vt 0.7983 0.8820
vn 0.0000 0.9894 0.1453
f 723/723/723 724/724/724 725/725/725 726/726/726
v 0.3311 0.1319 0.5638
vt 0.7855 0.8147
vn 0.0000 -0.9523 0.3050
v 0.2225 0.1320 0.5639
vt 0.7855 0.8147
vn 0.0000 -0.9441 0.3297
v 0.2792 0.0838 0.3888
vt 0.7918 0.8104
vn 0.0000 -0.9800 0.1990
v 0.3915 0.0838 0.3888
vt 0.7918 0.8104
vn 0.0000 -0.9842 0.1770
f 727/727/727 728/728/728 729/729/729 730/730/730
v 0.3915 0.0838 0.3888
vt 0.7918 0.8104
vn 0.0000 -0.9842 0.1770
v 0.2792 0.0838 0.3888
vt 0.7918 0.8104
vn 0.0000 -0.9800 0.1990
v 0.3027 0.0634 0.2070
vt 0.7983 0.8085
vn -0.0000 -0.9918 -0.1275
v 0.4165 0.0634 0.2070
vt 0.7983 0.8085
vn -0.0000 -0.9889 -0.1487
f 731/731/731 732/732/732 733/733/733 734/734/734
v 0.3311 0.2524 0.5638
vt 0.7855 0.8567
vn 0.9168 -0.0000 0.3993
v 0.3311 0.1319 0.5638
vt 0.7855 0.8459
vn 0.9266 -0.0000 0.3761
v 0.3915 0.0838 0.3888
vt 0.7918 0.8416
vn 0.9753 -0.0000 0.2208
v 0.3915 0.2048 0.3888
vt 0.7918 0.8524
vn 0.9701 -0.0000 0.2426
f 735/735/735 736/736/736 737/737/737 738/738/738
v 0.3915 0.2048 0.3888
vt 0.7918 0.8524
vn 0.9701 -0.0000 0.2426
v 0.3915 0.0838 0.3888
vt 0.7918 0.8416
vn 0.9753 -0.0000 0.2208
v 0.4165 0.0634 0.2070
vt 0.7983 0.8398
vn 0.9971 -0.0000 0.0755
v 0.4165 0.1863 0.2070
vt 0.7983 0.8508
vn 0.9980 -0.0000 0.0625
f 739/739/739 740/740/740 741/741/741 742/742/742
v 0.2225 0.1320 0.5639
vt 0.7855 0.8459
vn -0.9343 0.0000 -0.3565
v 0.2225 0.2524 0.5639
vt 0.7855 0.8567
vn -0.9254 0.0000 -0.3791
v 0.2792 0.2048 0.3888
vt 0.7918 0.8525
vn -0.9734 0.0000 -0.2290
v 0.2792 0.0838 0.3888
vt 0.7918 0.8416
vn -0.9781 0.0000 -0.2082
f 743/743/743 744/744/744 745/745/745 746/746/746
v 0.2792 0.0838 0.3888
vt 0.7918 0.8416
vn -0.9781 0.0000 -0.2082
v 0.2792 0.2048 0.3888
vt 0.7918 0.8525
vn -0.9734 0.0000 -0.2290
v 0.3027 0.1863 0.2070
vt 0.7983 0.8508
vn -0.9983 0.0000 -0.0588
v 0.3027 0.0634 0.2070
vt 0.7983 0.8398
vn -0.9975 0.0000 -0.0710
f 747/747/747 748/748/748 749/749/749 750/750/750
v -0.3311 0.2524 0.5638
vt 0.7855 0.8880
vn 0.0000 0.9528 -0.3035
v -0.2225 0.2524 0.5639
vt 0.7855 0.8880
vn 0.0000 0.9442 -0.3293
v -0.2792 0.2048 0.3888
vt 0.7918 0.8837
vn 0.0000 0.9812 -0.1928
v -0.3915 0.2048 0.3888
vt 0.7918 0.8837
vn 0.0000 0.9855 -0.1697
f 751/751/751 752/752/752 753/753/753 754/754/754
v -0.3915 0.2048 0.3888
vt 0.7918 0.8837
vn 0.0000 0.9855 -0.1697
v -0.2792 0.2048 0.3888
vt 0.7918 0.8837
vn 0.0000 0.9812 -0.1928
v -0.3027 0.1863 0.2070
vt 0.7983 0.8820
vn 0.0000 0.9894 0.1453
v -0.4165 0.1863 0.2070
vt 0.7983 0.8820
vn 0.0000 0.9859 0.1673
f 755/755/755 756/756/756 757/757/757 758/758/758
v -0.2225 0.1320 0.5639
vt 0.7855 0.8147
vn 0.0000 -0.9441 0.3297
v -0.3311 0.1319 0.5638
vt 0.7855 0.8147
vn 0.0000 -0.9523 0.3050
v -0.3915 0.0838 0.3888
vt 0.7918 0.8104
vn 0.0000 -0.9842 0.1770
v -0.2792 0.0838 0.3888
vt 0.7918 0.8104
vn 0.0000 -0.9800 0.1990
f 759/759/759 760/760/760 761/761/761 762/762/762
v -0.2792 0.0838 0.3888
vt 0.7918 0.8104
vn 0.0000 -0.9800 0.1990
v -0.3915 0.0838 0.3888
vt 0.7918 0.8104
vn 0.0000 -0.9842 0.1770
v -0.4165 0.0634 0.2070
vt 0.7983 0.8085
vn -0.0000 -0.9889 -0.1487
v -0.3027 0.0634 0.2070
vt 0.7983 0.8085
vn -0.0000 -0.9918 -0.1275
f 763/763/763 764/764/764 765/765/765 766/766/766
v -0.2225 0.2524 0.5639
vt 0.7855 0.8567
vn 0.9254 0.0000 -0.3791
v -0.2225 0.1320 0.5639
vt 0.7855 0.8459
vn 0.9343 0.0000 -0.3565
v -0.2792 0.0838 0.3888
vt 0.7918 0.8416
vn 0.9781 0.0000 -0.2082
v -0.2792 0.2048 0.3888
vt 0.7918 0.8525
vn 0.9734 0.0000 -0.2290
f 767/767/767 768/768/768 769/769/769 770/770/770
v -0.2792 0.2048 0.3888
vt 0.7918 0.8525
vn 0.9734 0.0000 -0.2290
v -0.2792 0.0838 0.3888
vt 0.7918 0.8416
vn 0.9781 0.0000 -0.2082
v -0.3027 0.0634 0.2070
vt 0.7983 0.8398
vn 0.9975 0.0000 -0.0710
v -0.3027 0.1863 0.2070
vt 0.7983 0.8508
vn 0.9983 0.0000 -0.0588
f 771/771/771 772/772/772 773/773/773 774/774/774
v -0.3311 0.1319 0.5638
vt 0.7855 0.8459
vn -0.9266 -0.0000 0.3761
v -0.3311 0.2524 0.5638
vt 0.7855 0.8567
vn -0.9168 -0.0000 0.3993
v -0.3915 0.2048 0.3888
vt 0.7918 0.8524
vn -0.9701 -0.0000 0.2426
v -0.3915 0.0838 0.3888
vt 0.7918 0.8416
vn -0.9753 -0.0000 0.2208
f 775/775/775 776/776/776 777/777/777 778/778/778
v -0.3915 0.0838 0.3888
vt 0.7918 0.8416
vn -0.9753 -0.0000 0.2208
v -0.3915 0.2048 0.3888
vt 0.7918 0.8524
vn -0.9701 -0.0000 0.2426
v -0.4165 0.1863 0.2070
vt 0.7983 0.8508
vn -0.9980 -0.0000 0.0625
v -0.4165 0.0634 0.2070
vt 0.7983 0.8398
vn -0.9971 -0.0000 0.0755
f 779/779/779 780/780/780 781/781/781 782/782/782
v 0.4165 0.2682 0.0205
vt 0.8050 0.8894
vn 0.0000 0.8571 0.5151
v 0.3027 0.2682 0.0205
vt 0.8050 0.8894
vn 0.0000 0.8571 0.5151
v 0.3027 0.1863 0.2070
vt 0.7983 0.8820
vn 0.0000 0.9894 0.1453
v 0.4165 0.1863 0.2070
vt 0.7983 0.8820
vn 0.0000 0.9859 0.1673
f 783/783/783 784/784/784 785/785/785 786/786/786
v 0.1689 0.4919 0.5277
vt 0.7868 0.8938
vn 0.2529 0.1364 0.9578
v -0.1689 0.4919 0.5277
vt 0.7868 0.8938
vn -0.2529 0.1364 0.9578
v -0.1689 0.3109 0.4958
vt 0.7879 0.8619
vn -0.2680 -0.3537 0.8961
v 0.1689 0.3109 0.4958
vt 0.7879 0.8619
vn 0.2680 -0.3537 0.8961
f 787/787/787 788/788/788 789/789/789 790/790/790
v 0.3027 0.1486 0.3580
vt 0.7929 0.8474
vn 0.6264 -0.1354 0.7677
v 0.3027 0.3296 0.3899
vt 0.7917 0.8792
vn 0.6264 -0.1354 0.7677
v 0.1689 0.3109 0.4958
vt 0.7879 0.8776
vn 0.2680 -0.3537 0.8961
f 791/791/791 792/792/792 793/793/793
v 0.3027 0.3296 0.3899
vt 0.7917 0.8636
vn 0.6264 -0.1354 0.7677
v 0.3027 0.5105 0.4218
vt 0.7906 0.8955
vn 0.6264 -0.1354 0.7677
v 0.1689 0.4919 0.5277
vt 0.7868 0.8938
vn 0.2529 0.1364 0.9578
v 0.1689 0.3109 0.4958
vt 0.7879 0.8619
vn 0.2680 -0.3537 0.8961
f 794/794/794 795/795/795 796/796/796 797/797/797
v 0.3027 0.5105 0.4218
vt 0.7906 0.8798
vn 0.6264 -0.1354 0.7677
v 0.3027 0.6193 0.4410
vt 0.7899 0.8896
vn 0.6264 -0.1354 0.7677
v 0.1689 0.4919 0.5277
vt 0.7868 0.8782
vn 0.2529 0.1364 0.9578
f 798/798/798 799/799/799 800/800/800
v -0.3027 0.5105 0.4218
vt 0.7906 0.8955
vn -0.6264 -0.1354 0.7677
v -0.3027 0.3296 0.3899
vt 0.7917 0.8636
vn -0.6264 -0.1354 0.7677
v -0.1689 0.3109 0.4958
vt 0.7879 0.8619
vn -0.2680 -0.3537 0.8961
v -0.1689 0.4919 0.5277
vt 0.7868 0.8938
vn -0.2529 0.1364 0.9578
f 801/801/801 802/802/802 803/803/803 804/804/804
v 0.1689 0.3109 0.4958
vt 0.7879 0.8619
vn 0.2680 -0.3537 0.8961
v -0.1689 0.3109 0.4958
vt 0.7879 0.8619
vn -0.2680 -0.3537 0.8961
v -0.3027 0.1486 0.3580
vt 0.7929 0.8318
vn 0.0000 -0.6473 0.7622
v 0.3027 0.1486 0.3580
vt 0.7929 0.8318
vn 0.0000 -0.6473 0.7622
f 805/805/805 806/806/806 807/807/807 808/808/808
v 0.3027 0.6193 0.4410
vt 0.7899 0.9208
vn 0.0000 0.5627 0.8266
v -0.3027 0.6193 0.4410
vt 0.7899 0.9208
vn 0.0000 0.5627 0.8266
v -0.1689 0.4919 0.5277
vt 0.7868 0.9094
vn -0.2529 0.1364 0.9578
v 0.1689 0.4919 0.5277
vt 0.7868 0.9094
vn 0.2529 0.1364 0.9578
f 809/809/809 810/810/810 811/811/811 812/812/812
