# Blender 4.5.13 LTS
# www.blender.org
o wicker
v 1.000000 0.040000 0.000000
v 0.965926 0.040000 -0.258819
v 0.866025 0.040000 -0.500000
v 0.707107 0.040000 -0.707107
v 0.500000 0.040000 -0.866025
v 0.258819 0.040000 -0.965926
v 0.000000 0.040000 -1.000000
v -0.258819 0.040000 -0.965926
v -0.500000 0.040000 -0.866025
v -0.707107 0.040000 -0.707107
v -0.866025 0.040000 -0.500000
v -0.965926 0.040000 -0.258819
v -1.000000 0.040000 -0.000000
v -0.965926 0.040000 0.258819
v -0.866025 0.040000 0.500000
v -0.707107 0.040000 0.707107
v -0.500000 0.040000 0.866025
v -0.258819 0.040000 0.965926
v -0.000000 0.040000 1.000000
v 0.258819 0.040000 0.965926
v 0.500000 0.040000 0.866025
v 0.707107 0.040000 0.707107
v 0.866025 0.040000 0.500000
v 0.965926 0.040000 0.258819
v 0.750000 0.140000 0.000000
v 0.724444 0.140000 -0.194114
v 0.649519 0.140000 -0.375000
v 0.530330 0.140000 -0.530330
v 0.375000 0.140000 -0.649519
v 0.194114 0.140000 -0.724444
v 0.000000 0.140000 -0.750000
v -0.194114 0.140000 -0.724444
v -0.375000 0.140000 -0.649519
v -0.530330 0.140000 -0.530330
v -0.649519 0.140000 -0.375000
v -0.724444 0.140000 -0.194114
v -0.750000 0.140000 -0.000000
v -0.724444 0.140000 0.194114
v -0.649519 0.140000 0.375000
v -0.530330 0.140000 0.530330
v -0.375000 0.140000 0.649519
v -0.194114 0.140000 0.724444
v -0.000000 0.140000 0.750000
v 0.194114 0.140000 0.724444
v 0.375000 0.140000 0.649519
v 0.530330 0.140000 0.530330
v 0.649519 0.140000 0.375000
v 0.724444 0.140000 0.194114
v 0.400000 0.200000 0.000000
v 0.386370 0.200000 -0.103528
v 0.346410 0.200000 -0.200000
v 0.282843 0.200000 -0.282843
v 0.200000 0.200000 -0.346410
v 0.103528 0.200000 -0.386370
v 0.000000 0.200000 -0.400000
v -0.103528 0.200000 -0.386370
v -0.200000 0.200000 -0.346410
v -0.282843 0.200000 -0.282843
v -0.346410 0.200000 -0.200000
v -0.386370 0.200000 -0.103528
v -0.400000 0.200000 -0.000000
v -0.386370 0.200000 0.103528
v -0.346410 0.200000 0.200000
v -0.282843 0.200000 0.282843
v -0.200000 0.200000 0.346410
v -0.103528 0.200000 0.386370
v -0.000000 0.200000 0.400000
v 0.103528 0.200000 0.386370
v 0.200000 0.200000 0.346410
v 0.282843 0.200000 0.282843
v 0.346410 0.200000 0.200000
v 0.386370 0.200000 0.103528
v 0.010000 0.220000 0.000000
v 0.009659 0.220000 -0.002588
v 0.008660 0.220000 -0.005000
v 0.007071 0.220000 -0.007071
v 0.005000 0.220000 -0.008660
v 0.002588 0.220000 -0.009659
v 0.000000 0.220000 -0.010000
v -0.002588 0.220000 -0.009659
v -0.005000 0.220000 -0.008660
v -0.007071 0.220000 -0.007071
v -0.008660 0.220000 -0.005000
v -0.009659 0.220000 -0.002588
v -0.010000 0.220000 -0.000000
v -0.009659 0.220000 0.002588
v -0.008660 0.220000 0.005000
v -0.007071 0.220000 0.007071
v -0.005000 0.220000 0.008660
v -0.002588 0.220000 0.009659
v -0.000000 0.220000 0.010000
v 0.002588 0.220000 0.009659
v 0.005000 0.220000 0.008660
v 0.007071 0.220000 0.007071
v 0.008660 0.220000 0.005000
v 0.009659 0.220000 0.002588
v 0.960000 0.000000 0.000000
v 0.927289 0.000000 -0.248466
v 0.831384 0.000000 -0.480000
v 0.678823 0.000000 -0.678823
v 0.480000 0.000000 -0.831384
v 0.248466 0.000000 -0.927289
v 0.000000 0.000000 -0.960000
v -0.248466 0.000000 -0.927289
v -0.480000 0.000000 -0.831384
v -0.678823 0.000000 -0.678823
v -0.831384 0.000000 -0.480000
v -0.927289 0.000000 -0.248466
v -0.960000 0.000000 -0.000000
v -0.927289 0.000000 0.248466
v -0.831384 0.000000 0.480000
v -0.678823 0.000000 0.678823
v -0.480000 0.000000 0.831384
v -0.248466 0.000000 0.927289
v -0.000000 0.000000 0.960000
v 0.248466 0.000000 0.927289
v 0.480000 0.000000 0.831384
v 0.678823 0.000000 0.678823
v 0.831384 0.000000 0.480000
v 0.927289 0.000000 0.248466
v 1.030000 0.020000 0.000000
v 0.994904 0.020000 -0.266584
v 0.892006 0.020000 -0.515000
v 0.728320 0.020000 -0.728320
v 0.515000 0.020000 -0.892006
v 0.266584 0.020000 -0.994904
v 0.000000 0.020000 -1.030000
v -0.266584 0.020000 -0.994904
v -0.515000 0.020000 -0.892006
v -0.728320 0.020000 -0.728320
v -0.892006 0.020000 -0.515000
v -0.994904 0.020000 -0.266584
v -1.030000 0.020000 -0.000000
v -0.994904 0.020000 0.266584
v -0.892006 0.020000 0.515000
v -0.728320 0.020000 0.728320
v -0.515000 0.020000 0.892006
v -0.266584 0.020000 0.994904
v -0.000000 0.020000 1.030000
v 0.266584 0.020000 0.994904
v 0.515000 0.020000 0.892006
v 0.728320 0.020000 0.728320
v 0.892006 0.020000 0.515000
v 0.994904 0.020000 0.266584
v 1.030000 0.070000 0.000000
v 0.994904 0.070000 -0.266584
v 0.892006 0.070000 -0.515000
v 0.728320 0.070000 -0.728320
v 0.515000 0.070000 -0.892006
v 0.266584 0.070000 -0.994904
v 0.000000 0.070000 -1.030000
v -0.266584 0.070000 -0.994904
v -0.515000 0.070000 -0.892006
v -0.728320 0.070000 -0.728320
v -0.892006 0.070000 -0.515000
v -0.994904 0.070000 -0.266584
v -1.030000 0.070000 -0.000000
v -0.994904 0.070000 0.266584
v -0.892006 0.070000 0.515000
v -0.728320 0.070000 0.728320
v -0.515000 0.070000 0.892006
v -0.266584 0.070000 0.994904
v -0.000000 0.070000 1.030000
v 0.266584 0.070000 0.994904
v 0.515000 0.070000 0.892006
v 0.728320 0.070000 0.728320
v 0.892006 0.070000 0.515000
v 0.994904 0.070000 0.266584
v 0.960000 0.080000 0.000000
v 0.927289 0.080000 -0.248466
v 0.831384 0.080000 -0.480000
v 0.678823 0.080000 -0.678823
v 0.480000 0.080000 -0.831384
v 0.248466 0.080000 -0.927289
v 0.000000 0.080000 -0.960000
v -0.248466 0.080000 -0.927289
v -0.480000 0.080000 -0.831384
v -0.678823 0.080000 -0.678823
v -0.831384 0.080000 -0.480000
v -0.927289 0.080000 -0.248466
v -0.960000 0.080000 -0.000000
v -0.927289 0.080000 0.248466
v -0.831384 0.080000 0.480000
v -0.678823 0.080000 0.678823
v -0.480000 0.080000 0.831384
v -0.248466 0.080000 0.927289
v -0.000000 0.080000 0.960000
v 0.248466 0.080000 0.927289
v 0.480000 0.080000 0.831384
v 0.678823 0.080000 0.678823
v 0.831384 0.080000 0.480000
v 0.927289 0.080000 0.248466
v -0.897226 0.145000 0.314181
v -0.897226 0.195000 0.314181
v -0.917913 0.145000 0.247307
v -0.917913 0.195000 0.247307
v 0.917913 0.145000 -0.247307
v 0.917913 0.195000 -0.247307
v 0.897226 0.145000 -0.314181
v 0.897226 0.195000 -0.314181
v 0.314181 0.145000 0.897226
v 0.314181 0.195000 0.897226
v 0.247308 0.145000 0.917913
v 0.247308 0.195000 0.917913
v -0.247308 0.145000 -0.917913
v -0.247308 0.195000 -0.917913
v -0.314181 0.145000 -0.897226
v -0.314181 0.195000 -0.897226
v 0.000000 0.190000 -0.180000
v 0.000000 0.270000 -0.120000
v 0.090000 0.190000 -0.155885
v 0.060000 0.270000 -0.103923
v 0.155885 0.190000 -0.090000
v 0.103923 0.270000 -0.060000
v 0.180000 0.190000 0.000000
v 0.120000 0.270000 0.000000
v 0.155885 0.190000 0.090000
v 0.103923 0.270000 0.060000
v 0.090000 0.190000 0.155885
v 0.060000 0.270000 0.103923
v 0.000000 0.190000 0.180000
v 0.000000 0.270000 0.120000
v -0.090000 0.190000 0.155885
v -0.060000 0.270000 0.103923
v -0.155885 0.190000 0.090000
v -0.103923 0.270000 0.060000
v -0.180000 0.190000 0.000000
v -0.120000 0.270000 0.000000
v -0.155885 0.190000 -0.090000
v -0.103923 0.270000 -0.060000
v -0.090000 0.190000 -0.155885
v -0.060000 0.270000 -0.103923
v 0.641189 0.085268 -0.294943
v 0.627877 0.117517 -0.292158
v 0.627708 0.082483 -0.327122
v 0.614395 0.114732 -0.324337
v 1.082537 0.284926 -0.497132
v 1.069224 0.317175 -0.494346
v 1.069055 0.282140 -0.529311
v 1.055743 0.314389 -0.526525
v 0.659712 0.082286 0.233691
v 0.657189 0.117191 0.233168
v 0.673602 0.082809 0.201569
v 0.671078 0.117714 0.201046
v 1.121856 0.118697 0.434112
v 1.119332 0.153602 0.433589
v 1.135745 0.119220 0.401990
v 1.133222 0.154125 0.401468
v 0.657296 0.082780 -0.250971
v 0.655420 0.117726 -0.250465
v 0.639692 0.082274 -0.281218
v 0.637816 0.117220 -0.280711
v 1.137895 0.112643 -0.531185
v 1.136019 0.147589 -0.530678
v 1.120292 0.112137 -0.561431
v 1.118416 0.147083 -0.560925
v 0.702182 0.083206 -0.053437
v 0.693748 0.117172 -0.053059
v 0.699097 0.082828 -0.088299
v 0.690664 0.116794 -0.087921
v 1.428079 0.264168 -0.119631
v 1.419646 0.298135 -0.119253
v 1.424994 0.263790 -0.154492
v 1.416561 0.297757 -0.154115
v 0.693687 0.083409 -0.128508
v 0.686698 0.117686 -0.127413
v 0.683094 0.082314 -0.161849
v 0.676104 0.116591 -0.160754
v 1.148195 0.180798 -0.276117
v 1.141206 0.215075 -0.275022
v 1.137602 0.179703 -0.309457
v 1.130613 0.213980 -0.308362
v 0.686259 0.082384 0.149073
v 0.679868 0.116786 0.148243
v 0.695117 0.083214 0.115223
v 0.688727 0.117616 0.114393
v 1.184239 0.178090 0.281736
v 1.177849 0.212492 0.280906
v 1.193098 0.178920 0.247886
v 1.186707 0.213322 0.247056
v 0.644062 0.083205 -0.281795
v 0.639475 0.117886 -0.280704
v 0.628374 0.082114 -0.313063
v 0.623787 0.116795 -0.311972
v 1.261854 0.174783 -0.594946
v 1.257266 0.209464 -0.593855
v 1.246166 0.173692 -0.626215
v 1.241579 0.208373 -0.625123
vn 0.9845 -0.1755 -0.0000
vn 0.9509 -0.1755 -0.2548
vn 0.2702 0.9601 -0.0724
vn 0.2798 0.9601 -0.0000
vn 0.8526 -0.1755 -0.4922
vn 0.2423 0.9601 -0.1399
vn 0.6961 -0.1755 -0.6961
vn 0.1978 0.9601 -0.1978
vn 0.4922 -0.1755 -0.8526
vn 0.1399 0.9601 -0.2423
vn 0.2548 -0.1755 -0.9509
vn 0.0724 0.9601 -0.2702
vn -0.0000 -0.1755 -0.9845
vn -0.0000 0.9601 -0.2798
vn -0.2548 -0.1755 -0.9509
vn -0.0724 0.9601 -0.2702
vn -0.4922 -0.1755 -0.8526
vn -0.1399 0.9601 -0.2423
vn -0.6961 -0.1755 -0.6961
vn -0.1978 0.9601 -0.1978
vn -0.8526 -0.1755 -0.4922
vn -0.2423 0.9601 -0.1399
vn -0.9509 -0.1755 -0.2548
vn -0.2702 0.9601 -0.0724
vn -0.9845 -0.1755 -0.0000
vn -0.2798 0.9601 -0.0000
vn -0.9509 -0.1755 0.2548
vn -0.2702 0.9601 0.0724
vn -0.8526 -0.1755 0.4922
vn -0.2423 0.9601 0.1399
vn -0.6961 -0.1755 0.6961
vn -0.1978 0.9601 0.1978
vn -0.4922 -0.1755 0.8526
vn -0.1399 0.9601 0.2423
vn -0.2548 -0.1755 0.9509
vn -0.0724 0.9601 0.2702
vn -0.0000 -0.1755 0.9845
vn -0.0000 0.9601 0.2798
vn 0.2548 -0.1755 0.9509
vn 0.0724 0.9601 0.2702
vn 0.4922 -0.1755 0.8526
vn 0.1399 0.9601 0.2423
vn 0.6961 -0.1755 0.6961
vn 0.1978 0.9601 0.1978
vn 0.8526 -0.1755 0.4922
vn 0.2423 0.9601 0.1399
vn 0.9509 -0.1755 0.2548
vn 0.2702 0.9601 0.0724
vn 0.1112 0.9933 -0.0298
vn 0.1152 0.9933 -0.0000
vn 0.0997 0.9933 -0.0576
vn 0.0814 0.9933 -0.0814
vn 0.0576 0.9933 -0.0997
vn 0.0298 0.9933 -0.1112
vn -0.0000 0.9933 -0.1152
vn -0.0298 0.9933 -0.1112
vn -0.0576 0.9933 -0.0997
vn -0.0814 0.9933 -0.0814
vn -0.0997 0.9933 -0.0576
vn -0.1112 0.9933 -0.0298
vn -0.1152 0.9933 -0.0000
vn -0.1112 0.9933 0.0298
vn -0.0997 0.9933 0.0576
vn -0.0814 0.9933 0.0814
vn -0.0576 0.9933 0.0997
vn -0.0298 0.9933 0.1112
vn -0.0000 0.9933 0.1152
vn 0.0298 0.9933 0.1112
vn 0.0576 0.9933 0.0997
vn 0.0814 0.9933 0.0814
vn 0.0997 0.9933 0.0576
vn 0.1112 0.9933 0.0298
vn 0.0268 0.9996 -0.0072
vn 0.0277 0.9996 -0.0000
vn 0.0240 0.9996 -0.0139
vn 0.0196 0.9996 -0.0196
vn 0.0139 0.9996 -0.0240
vn 0.0072 0.9996 -0.0268
vn -0.0000 0.9996 -0.0277
vn -0.0072 0.9996 -0.0268
vn -0.0139 0.9996 -0.0240
vn -0.0196 0.9996 -0.0196
vn -0.0240 0.9996 -0.0139
vn -0.0268 0.9996 -0.0072
vn -0.0277 0.9996 -0.0000
vn -0.0268 0.9996 0.0072
vn -0.0240 0.9996 0.0139
vn -0.0196 0.9996 0.0196
vn -0.0139 0.9996 0.0240
vn -0.0072 0.9996 0.0268
vn -0.0000 0.9996 0.0277
vn 0.0072 0.9996 0.0268
vn 0.0139 0.9996 0.0240
vn 0.0196 0.9996 0.0196
vn 0.0240 0.9996 0.0139
vn 0.0268 0.9996 0.0072
vn 0.2745 -0.9609 -0.0361
vn 0.2558 -0.9609 -0.1060
vn 0.2197 -0.9609 -0.1686
vn 0.1686 -0.9609 -0.2197
vn 0.1060 -0.9609 -0.2558
vn 0.0361 -0.9609 -0.2745
vn -0.0361 -0.9609 -0.2745
vn -0.1060 -0.9609 -0.2558
vn -0.1686 -0.9609 -0.2197
vn -0.2197 -0.9609 -0.1686
vn -0.2558 -0.9609 -0.1060
vn -0.2745 -0.9609 -0.0361
vn -0.2745 -0.9609 0.0361
vn -0.2558 -0.9609 0.1060
vn -0.2197 -0.9609 0.1686
vn -0.1686 -0.9609 0.2197
vn -0.1060 -0.9609 0.2558
vn -0.0361 -0.9609 0.2745
vn 0.0361 -0.9609 0.2745
vn 0.1060 -0.9609 0.2558
vn 0.1686 -0.9609 0.2197
vn 0.2197 -0.9609 0.1686
vn 0.2558 -0.9609 0.1060
vn 0.2745 -0.9609 0.0361
vn 0.9914 -0.0000 -0.1305
vn 0.9239 -0.0000 -0.3827
vn 0.7934 -0.0000 -0.6088
vn 0.6088 -0.0000 -0.7934
vn 0.3827 -0.0000 -0.9239
vn 0.1305 -0.0000 -0.9914
vn -0.1305 -0.0000 -0.9914
vn -0.3827 -0.0000 -0.9239
vn -0.6088 -0.0000 -0.7934
vn -0.7934 -0.0000 -0.6088
vn -0.9239 -0.0000 -0.3827
vn -0.9914 -0.0000 -0.1305
vn -0.9914 -0.0000 0.1305
vn -0.9239 -0.0000 0.3827
vn -0.7934 -0.0000 0.6088
vn -0.6088 -0.0000 0.7934
vn -0.3827 -0.0000 0.9239
vn -0.1305 -0.0000 0.9914
vn 0.1305 -0.0000 0.9914
vn 0.3827 -0.0000 0.9239
vn 0.6088 -0.0000 0.7934
vn 0.7934 -0.0000 0.6088
vn 0.9239 -0.0000 0.3827
vn 0.9914 -0.0000 0.1305
vn 0.1414 0.9898 -0.0186
vn 0.1318 0.9898 -0.0546
vn 0.1131 0.9898 -0.0868
vn 0.0868 0.9898 -0.1131
vn 0.0546 0.9898 -0.1318
vn 0.0186 0.9898 -0.1414
vn -0.0186 0.9898 -0.1414
vn -0.0546 0.9898 -0.1318
vn -0.0868 0.9898 -0.1131
vn -0.1131 0.9898 -0.0868
vn -0.1318 0.9898 -0.0546
vn -0.1414 0.9898 -0.0186
vn -0.1414 0.9898 0.0186
vn -0.1318 0.9898 0.0546
vn -0.1131 0.9898 0.0868
vn -0.0868 0.9898 0.1131
vn -0.0546 0.9898 0.1318
vn -0.0186 0.9898 0.1414
vn 0.0186 0.9898 0.1414
vn 0.0546 0.9898 0.1318
vn 0.0868 0.9898 0.1131
vn 0.1131 0.9898 0.0868
vn 0.1318 0.9898 0.0546
vn 0.1414 0.9898 0.0186
vn -0.9553 -0.0000 0.2955
vn -0.2955 -0.0000 -0.9553
vn 0.9553 -0.0000 -0.2955
vn 0.2955 -0.0000 0.9553
vn -0.0000 -1.0000 -0.0000
vn -0.0000 1.0000 -0.0000
vn 0.2096 0.5867 -0.7822
vn 0.5726 0.5867 -0.5726
vn 0.7822 0.5867 -0.2096
vn 0.7822 0.5867 0.2096
vn 0.5726 0.5867 0.5726
vn 0.2096 0.5867 0.7822
vn -0.2096 0.5867 0.7822
vn -0.5726 0.5867 0.5726
vn -0.7822 0.5867 0.2096
vn -0.7822 0.5867 -0.2096
vn -0.5726 0.5867 -0.5726
vn -0.2096 0.5867 -0.7822
vn -0.8408 -0.3804 0.3852
vn -0.3852 -0.0796 -0.9194
vn 0.8408 0.3804 -0.3852
vn 0.3852 0.0796 0.9194
vn 0.3804 -0.9214 -0.0796
vn -0.3804 0.9214 0.0796
vn -0.9151 -0.0721 -0.3968
vn 0.3968 0.0149 -0.9178
vn 0.9151 0.0721 0.3968
vn -0.3968 -0.0149 0.9178
vn 0.0721 -0.9973 0.0149
vn -0.0721 0.9973 -0.0149
vn -0.8626 -0.0536 0.5030
vn -0.5030 -0.0145 -0.8642
vn 0.8626 0.0536 -0.5030
vn 0.5030 0.0145 0.8642
vn 0.0536 -0.9985 -0.0145
vn -0.0536 0.9985 0.0145
vn -0.9665 -0.2409 0.0881
vn -0.0881 -0.0108 -0.9960
vn 0.9665 0.2409 -0.0881
vn 0.0881 0.0108 0.9960
vn 0.2410 -0.9705 -0.0108
vn -0.2410 0.9705 0.0108
vn -0.9319 -0.1997 0.3027
vn -0.3027 -0.0313 -0.9526
vn 0.9319 0.1997 -0.3027
vn 0.3027 0.0313 0.9526
vn 0.1997 -0.9794 -0.0313
vn -0.1997 0.9794 0.0313
vn -0.9501 -0.1826 -0.2531
vn 0.2531 0.0237 -0.9672
vn 0.9501 0.1826 0.2531
vn -0.2531 -0.0237 0.9672
vn 0.1826 -0.9829 0.0237
vn -0.1826 0.9829 -0.0237
vn -0.8843 -0.1311 0.4482
vn -0.4482 -0.0312 -0.8934
vn 0.8843 0.1311 -0.4482
vn 0.4482 0.0312 0.8934
vn 0.1311 -0.9909 -0.0312
vn -0.1311 0.9909 0.0312
vt 0.435192 0.639019
vt 0.435192 0.696165
vt 0.381203 0.689014
vt 0.381203 0.646154
vt 0.420403 0.751364
vt 0.370111 0.730413
vt 0.391832 0.800854
vt 0.348683 0.767530
vt 0.351426 0.841262
vt 0.318378 0.797837
vt 0.301940 0.869835
vt 0.281263 0.819266
vt 0.246745 0.884626
vt 0.239867 0.830359
vt 0.189602 0.884625
vt 0.197011 0.830359
vt 0.134407 0.869835
vt 0.155614 0.819266
vt 0.084921 0.841261
vt 0.118499 0.797836
vt 0.044515 0.800852
vt 0.088195 0.767529
vt 0.015944 0.751362
vt 0.066767 0.730412
vt 0.001155 0.696163
vt 0.055675 0.689012
vt 0.001155 0.639017
vt 0.055675 0.646152
vt 0.015944 0.583818
vt 0.066767 0.604753
vt 0.044515 0.534328
vt 0.088195 0.567636
vt 0.084921 0.493919
vt 0.118499 0.537329
vt 0.134407 0.465346
vt 0.155614 0.515900
vt 0.189602 0.450556
vt 0.197011 0.504807
vt 0.246745 0.450556
vt 0.239867 0.504807
vt 0.301940 0.465347
vt 0.281263 0.515900
vt 0.351426 0.493920
vt 0.318378 0.537330
vt 0.391832 0.534329
vt 0.348683 0.567637
vt 0.420403 0.583819
vt 0.370111 0.604754
vt 0.305406 0.679008
vt 0.305406 0.656150
vt 0.299490 0.701088
vt 0.288061 0.720884
vt 0.271899 0.737047
vt 0.252104 0.748476
vt 0.230026 0.754392
vt 0.207170 0.754392
vt 0.185092 0.748476
vt 0.165297 0.737047
vt 0.149135 0.720883
vt 0.137706 0.701087
vt 0.131790 0.679007
vt 0.131790 0.656149
vt 0.137706 0.634069
vt 0.149135 0.614273
vt 0.165297 0.598110
vt 0.185092 0.586681
vt 0.207170 0.580764
vt 0.230026 0.580765
vt 0.252104 0.586681
vt 0.271899 0.598110
vt 0.288061 0.614274
vt 0.299490 0.634070
vt 0.220821 0.667863
vt 0.220821 0.667291
vt 0.220673 0.668415
vt 0.220388 0.668909
vt 0.219984 0.669314
vt 0.219489 0.669599
vt 0.218937 0.669747
vt 0.218365 0.669747
vt 0.217813 0.669599
vt 0.217319 0.669314
vt 0.216915 0.668909
vt 0.216629 0.668415
vt 0.216481 0.667863
vt 0.216481 0.667291
vt 0.216629 0.666739
vt 0.216915 0.666244
vt 0.217319 0.665840
vt 0.217813 0.665554
vt 0.218365 0.665406
vt 0.218937 0.665406
vt 0.219489 0.665554
vt 0.219984 0.665840
vt 0.220388 0.666244
vt 0.220673 0.666739
vt 0.465308 0.583818
vt 0.493863 0.534328
vt 0.534245 0.493920
vt 0.583702 0.465346
vt 0.638863 0.450556
vt 0.695970 0.450556
vt 0.751130 0.465346
vt 0.800584 0.493920
vt 0.840963 0.534328
vt 0.869514 0.583818
vt 0.884292 0.639017
vt 0.884290 0.696164
vt 0.869507 0.751363
vt 0.840952 0.800853
vt 0.800570 0.841262
vt 0.751113 0.869835
vt 0.695952 0.884625
vt 0.638845 0.884625
vt 0.583685 0.869835
vt 0.534231 0.841262
vt 0.493852 0.800853
vt 0.465301 0.751363
vt 0.450523 0.696164
vt 0.450525 0.639017
vt 0.465870 0.197275
vt 0.465868 0.252135
vt 0.450523 0.254131
vt 0.450525 0.195270
vt 0.480055 0.305127
vt 0.465744 0.310986
vt 0.507464 0.352637
vt 0.495152 0.361961
vt 0.546228 0.391429
vt 0.536742 0.403582
vt 0.593704 0.418860
vt 0.587680 0.433012
vt 0.646658 0.433058
vt 0.644495 0.448246
vt 0.701480 0.433058
vt 0.703315 0.448246
vt 0.754435 0.418859
vt 0.760131 0.433012
vt 0.801914 0.391429
vt 0.811072 0.403581
vt 0.840680 0.352637
vt 0.852665 0.361961
vt 0.868093 0.305126
vt 0.882077 0.310986
vt 0.882285 0.252135
vt 0.897303 0.254131
vt 0.882287 0.197275
vt 0.897305 0.195270
vt 0.868100 0.144284
vt 0.882084 0.138415
vt 0.840691 0.096773
vt 0.852676 0.087440
vt 0.801927 0.057981
vt 0.811086 0.045819
vt 0.754451 0.030551
vt 0.760148 0.016389
vt 0.701497 0.016352
vt 0.703333 0.001155
vt 0.646675 0.016352
vt 0.644513 0.001155
vt 0.593720 0.030551
vt 0.587697 0.016389
vt 0.546241 0.057981
vt 0.536757 0.045819
vt 0.507475 0.096773
vt 0.495163 0.087440
vt 0.480062 0.144284
vt 0.465751 0.138415
vt 0.940508 0.576216
vt 0.940508 0.633470
vt 0.929607 0.633242
vt 0.929607 0.575987
vt 0.939139 0.692294
vt 0.928238 0.692066
vt 0.936496 0.748679
vt 0.925595 0.748451
vt 0.932757 0.798782
vt 0.921856 0.798554
vt 0.961288 0.316750
vt 0.961852 0.275676
vt 0.972796 0.275651
vt 0.972232 0.316725
vt 0.962207 0.225090
vt 0.973152 0.225065
vt 0.962329 0.168439
vt 0.973273 0.168414
vt 0.962207 0.109583
vt 0.973152 0.109558
vt 0.961852 0.052534
vt 0.972796 0.052509
vt 0.961288 0.001179
vt 0.972232 0.001155
vt 0.956071 0.725078
vt 0.959093 0.674285
vt 0.969981 0.674278
vt 0.966958 0.725071
vt 0.960658 0.617524
vt 0.971546 0.617517
vt 0.960658 0.558665
vt 0.971546 0.558658
vt 0.959093 0.501717
vt 0.969981 0.501710
vt 0.956071 0.450563
vt 0.966958 0.450556
vt 0.986783 0.001168
vt 0.986644 0.056678
vt 0.975699 0.056665
vt 0.975838 0.001155
vt 0.986557 0.115363
vt 0.975612 0.115350
vt 0.986527 0.173224
vt 0.975582 0.173211
vt 0.986557 0.226318
vt 0.975612 0.226305
vt 0.986644 0.271026
vt 0.975699 0.271012
vt 0.986783 0.304301
vt 0.975838 0.304288
vt 0.932757 0.450784
vt 0.936496 0.481650
vt 0.925595 0.481422
vt 0.921856 0.450556
vt 0.939139 0.524433
vt 0.928238 0.524205
vt 0.448213 0.195271
vt 0.448213 0.254132
vt 0.433049 0.252131
vt 0.433049 0.197271
vt 0.432980 0.310987
vt 0.418851 0.305122
vt 0.403552 0.361962
vt 0.391422 0.352633
vt 0.361934 0.403582
vt 0.352633 0.391425
vt 0.310963 0.433013
vt 0.305126 0.418855
vt 0.254112 0.448247
vt 0.252139 0.433053
vt 0.195256 0.448246
vt 0.197282 0.433053
vt 0.138405 0.433012
vt 0.144295 0.418854
vt 0.087434 0.403581
vt 0.096788 0.391423
vt 0.045816 0.361960
vt 0.057999 0.352631
vt 0.016388 0.310985
vt 0.030570 0.305120
vt 0.001155 0.254130
vt 0.016372 0.252129
vt 0.001155 0.195269
vt 0.016373 0.197269
vt 0.016388 0.138414
vt 0.030570 0.144277
vt 0.045816 0.087439
vt 0.057999 0.096767
vt 0.087434 0.045819
vt 0.096788 0.057975
vt 0.138405 0.016389
vt 0.144295 0.030545
vt 0.195256 0.001155
vt 0.197282 0.016346
vt 0.254112 0.001155
vt 0.252139 0.016347
vt 0.310963 0.016389
vt 0.305126 0.030546
vt 0.361934 0.045820
vt 0.352633 0.057976
vt 0.403552 0.087441
vt 0.391423 0.096769
vt 0.432980 0.138416
vt 0.418851 0.144279
vt 0.291161 0.902242
vt 0.280275 0.902058
vt 0.280275 0.886935
vt 0.291161 0.887119
vt 0.942817 0.450574
vt 0.953762 0.450556
vt 0.953762 0.864156
vt 0.942817 0.864174
vt 0.264712 0.902288
vt 0.253809 0.902225
vt 0.253809 0.886935
vt 0.264712 0.886998
vt 0.984800 0.790187
vt 0.973855 0.790159
vt 0.973855 0.450556
vt 0.984800 0.450584
vt 0.917247 0.416800
vt 0.917247 0.001155
vt 0.932570 0.001159
vt 0.932570 0.416804
vt 0.914938 0.001155
vt 0.914938 0.417050
vt 0.899615 0.417050
vt 0.899615 0.001155
vt 0.304415 0.899475
vt 0.293470 0.899447
vt 0.293470 0.886935
vt 0.304415 0.886963
vt 0.958978 0.411814
vt 0.948092 0.411631
vt 0.948092 0.001155
vt 0.958978 0.001338
vt 0.267022 0.886953
vt 0.277966 0.886935
vt 0.277966 0.902173
vt 0.267022 0.902191
vt 0.945783 0.416244
vt 0.934880 0.416181
vt 0.934880 0.001155
vt 0.945783 0.001218
vt 0.919546 0.450556
vt 0.919546 0.866469
vt 0.904233 0.866473
vt 0.904233 0.450560
vt 0.886602 0.866479
vt 0.886602 0.450556
vt 0.901924 0.450556
vt 0.901924 0.866480
vt 0.075837 0.926065
vt 0.093148 0.920841
vt 0.093040 0.931520
vt 0.075676 0.942083
vt 0.072471 0.942360
vt 0.054210 0.933921
vt 0.054808 0.921507
vt 0.073367 0.923738
vt 0.054808 0.907983
vt 0.073367 0.903451
vt 0.054210 0.896972
vt 0.072471 0.886935
vt 0.036558 0.886935
vt 0.033325 0.899487
vt 0.019727 0.899487
vt 0.016163 0.886935
vt 0.939359 0.856736
vt 0.921881 0.846960
vt 0.921856 0.835566
vt 0.939321 0.839644
vt 0.921856 0.821988
vt 0.939321 0.819277
vt 0.921881 0.809864
vt 0.939359 0.801091
vt 0.234896 0.886935
vt 0.251135 0.891656
vt 0.251500 0.905145
vt 0.235443 0.907168
vt 0.251135 0.917682
vt 0.234896 0.925973
vt 0.051901 0.931659
vt 0.045103 0.943435
vt 0.033328 0.950234
vt 0.019731 0.950234
vt 0.007955 0.943435
vt 0.001156 0.931659
vt 0.001155 0.918062
vt 0.007952 0.906286
vt 0.045101 0.906286
vt 0.051900 0.918062
vt 0.075676 0.886935
vt 0.093040 0.894754
vt 0.093148 0.907384
vt 0.075837 0.905879
vt 0.914439 0.944909
vt 0.896789 0.934711
vt 0.886602 0.917047
vt 0.886606 0.896651
vt 0.896801 0.878987
vt 0.914456 0.868789
vt 0.934838 0.868789
vt 0.952488 0.878987
vt 0.962676 0.896651
vt 0.962671 0.917047
vt 0.952476 0.934711
vt 0.934822 0.944909
vt 0.336435 0.887542
vt 0.343740 0.886935
vt 0.343740 0.894328
vt 0.336435 0.894935
vt 0.988876 0.433951
vt 0.981229 0.433959
vt 0.981229 0.319067
vt 0.988876 0.319059
vt 0.467698 0.894678
vt 0.460394 0.894591
vt 0.460394 0.886935
vt 0.467698 0.887021
vt 0.195039 0.888113
vt 0.202468 0.886935
vt 0.202468 0.976315
vt 0.195039 0.977493
vt 0.135307 0.994685
vt 0.135307 0.886935
vt 0.142948 0.887130
vt 0.142948 0.994880
vt 0.152894 0.886935
vt 0.152894 0.993700
vt 0.145258 0.993932
vt 0.145258 0.887167
vt 0.479566 0.894592
vt 0.479566 0.886935
vt 0.486122 0.887067
vt 0.486122 0.894725
vt 0.222361 0.969598
vt 0.214704 0.969772
vt 0.214964 0.892592
vt 0.222622 0.892418
vt 0.214704 0.887109
vt 0.222361 0.886935
vt 0.115399 0.886935
vt 0.123060 0.886938
vt 0.123060 0.997017
vt 0.115399 0.997013
vt 0.095457 0.997407
vt 0.095457 0.886935
vt 0.103119 0.886936
vt 0.103119 0.997408
vt 0.113089 0.886939
vt 0.113089 0.997288
vt 0.105428 0.997284
vt 0.105428 0.886935
vt 0.375004 0.894727
vt 0.375004 0.887074
vt 0.382091 0.886935
vt 0.382091 0.894588
vt 0.978920 0.440133
vt 0.971258 0.440125
vt 0.971258 0.319059
vt 0.978920 0.319066
vt 0.450523 0.894592
vt 0.450523 0.886935
vt 0.458084 0.886974
vt 0.458084 0.894632
vt 0.224931 0.887164
vt 0.232586 0.886935
vt 0.232586 0.968155
vt 0.224931 0.968384
vt 0.956071 0.849323
vt 0.956071 0.727388
vt 0.963732 0.727388
vt 0.963732 0.849323
vt 0.968949 0.319059
vt 0.968949 0.440907
vt 0.961288 0.440910
vt 0.961288 0.319062
vt 0.346050 0.886935
vt 0.353637 0.886986
vt 0.353637 0.894639
vt 0.346050 0.894588
vt 0.445163 0.932960
vt 0.437522 0.932788
vt 0.437522 0.776176
vt 0.445163 0.776348
vt 0.355946 0.894518
vt 0.355946 0.886935
vt 0.363312 0.887237
vt 0.363312 0.894819
vt 0.987110 0.604988
vt 0.994741 0.604728
vt 0.994741 0.756493
vt 0.987110 0.756753
vt 0.437502 0.611488
vt 0.437502 0.450556
vt 0.445163 0.450574
vt 0.445163 0.611506
vt 0.445163 0.613815
vt 0.445163 0.773847
vt 0.437502 0.773867
vt 0.437502 0.613835
vt 0.326580 0.894558
vt 0.326580 0.886935
vt 0.334126 0.887068
vt 0.334126 0.894691
vt 0.162860 0.993259
vt 0.155203 0.993234
vt 0.155203 0.886935
vt 0.162860 0.886960
vt 0.324270 0.894585
vt 0.316656 0.894632
vt 0.316656 0.886982
vt 0.324270 0.886935
vt 0.204777 0.887412
vt 0.212394 0.886935
vt 0.212394 0.974085
vt 0.204777 0.974563
vt 0.165169 0.992254
vt 0.165169 0.886935
vt 0.172829 0.886965
vt 0.172829 0.992285
vt 0.182797 0.886935
vt 0.182797 0.991791
vt 0.175138 0.991834
vt 0.175138 0.886977
vt 0.365622 0.894798
vt 0.365622 0.887158
vt 0.372695 0.886935
vt 0.372695 0.894575
vt 0.192730 0.978290
vt 0.185106 0.977826
vt 0.185106 0.886935
vt 0.192730 0.887398
vt 0.384400 0.894575
vt 0.384400 0.886935
vt 0.390620 0.887273
vt 0.390620 0.894913
vt 0.989092 0.001167
vt 0.996750 0.001155
vt 0.996750 0.115725
vt 0.989092 0.115737
vt 0.989092 0.231536
vt 0.989092 0.118059
vt 0.996754 0.118047
vt 0.996754 0.231524
vt 0.998846 0.319085
vt 0.998846 0.432129
vt 0.991185 0.432103
vt 0.991185 0.319059
vt 0.470007 0.894593
vt 0.470007 0.886935
vt 0.477257 0.887013
vt 0.477257 0.894671
vt 0.981516 0.945155
vt 0.973855 0.945159
vt 0.973855 0.792500
vt 0.981516 0.792497
vt 0.306725 0.894625
vt 0.306725 0.886971
vt 0.314347 0.886935
vt 0.314347 0.894589
vt 0.125370 0.887437
vt 0.132998 0.886935
vt 0.132998 0.996016
vt 0.125370 0.996518
vt 0.983826 0.944724
vt 0.983826 0.792497
vt 0.991486 0.792510
vt 0.991486 0.944738
vt 0.994768 0.450556
vt 0.994768 0.602394
vt 0.987109 0.602419
vt 0.987109 0.450581
s 1
f 1/1/1 2/2/2 26/3/3 25/4/4
f 2/2/2 3/5/5 27/6/6 26/3/3
f 3/5/5 4/7/7 28/8/8 27/6/6
f 4/7/7 5/9/9 29/10/10 28/8/8
f 5/9/9 6/11/11 30/12/12 29/10/10
f 6/11/11 7/13/13 31/14/14 30/12/12
f 7/13/13 8/15/15 32/16/16 31/14/14
f 8/15/15 9/17/17 33/18/18 32/16/16
f 9/17/17 10/19/19 34/20/20 33/18/18
f 10/19/19 11/21/21 35/22/22 34/20/20
f 11/21/21 12/23/23 36/24/24 35/22/22
f 12/23/23 13/25/25 37/26/26 36/24/24
f 13/25/25 14/27/27 38/28/28 37/26/26
f 14/27/27 15/29/29 39/30/30 38/28/28
f 15/29/29 16/31/31 40/32/32 39/30/30
f 16/31/31 17/33/33 41/34/34 40/32/32
f 17/33/33 18/35/35 42/36/36 41/34/34
f 18/35/35 19/37/37 43/38/38 42/36/36
f 19/37/37 20/39/39 44/40/40 43/38/38
f 20/39/39 21/41/41 45/42/42 44/40/40
f 21/41/41 22/43/43 46/44/44 45/42/42
f 22/43/43 23/45/45 47/46/46 46/44/44
f 23/45/45 24/47/47 48/48/48 47/46/46
f 24/47/47 1/1/1 25/4/4 48/48/48
f 25/4/4 26/3/3 50/49/49 49/50/50
f 26/3/3 27/6/6 51/51/51 50/49/49
f 27/6/6 28/8/8 52/52/52 51/51/51
f 28/8/8 29/10/10 53/53/53 52/52/52
f 29/10/10 30/12/12 54/54/54 53/53/53
f 30/12/12 31/14/14 55/55/55 54/54/54
f 31/14/14 32/16/16 56/56/56 55/55/55
f 32/16/16 33/18/18 57/57/57 56/56/56
f 33/18/18 34/20/20 58/58/58 57/57/57
f 34/20/20 35/22/22 59/59/59 58/58/58
f 35/22/22 36/24/24 60/60/60 59/59/59
f 36/24/24 37/26/26 61/61/61 60/60/60
f 37/26/26 38/28/28 62/62/62 61/61/61
f 38/28/28 39/30/30 63/63/63 62/62/62
f 39/30/30 40/32/32 64/64/64 63/63/63
f 40/32/32 41/34/34 65/65/65 64/64/64
f 41/34/34 42/36/36 66/66/66 65/65/65
f 42/36/36 43/38/38 67/67/67 66/66/66
f 43/38/38 44/40/40 68/68/68 67/67/67
f 44/40/40 45/42/42 69/69/69 68/68/68
f 45/42/42 46/44/44 70/70/70 69/69/69
f 46/44/44 47/46/46 71/71/71 70/70/70
f 47/46/46 48/48/48 72/72/72 71/71/71
f 48/48/48 25/4/4 49/50/50 72/72/72
f 49/50/50 50/49/49 74/73/73 73/74/74
f 50/49/49 51/51/51 75/75/75 74/73/73
f 51/51/51 52/52/52 76/76/76 75/75/75
f 52/52/52 53/53/53 77/77/77 76/76/76
f 53/53/53 54/54/54 78/78/78 77/77/77
f 54/54/54 55/55/55 79/79/79 78/78/78
f 55/55/55 56/56/56 80/80/80 79/79/79
f 56/56/56 57/57/57 81/81/81 80/80/80
f 57/57/57 58/58/58 82/82/82 81/81/81
f 58/58/58 59/59/59 83/83/83 82/82/82
f 59/59/59 60/60/60 84/84/84 83/83/83
f 60/60/60 61/61/61 85/85/85 84/84/84
f 61/61/61 62/62/62 86/86/86 85/85/85
f 62/62/62 63/63/63 87/87/87 86/86/86
f 63/63/63 64/64/64 88/88/88 87/87/87
f 64/64/64 65/65/65 89/89/89 88/88/88
f 65/65/65 66/66/66 90/90/90 89/89/89
f 66/66/66 67/67/67 91/91/91 90/90/90
f 67/67/67 68/68/68 92/92/92 91/91/91
f 68/68/68 69/69/69 93/93/93 92/92/92
f 69/69/69 70/70/70 94/94/94 93/93/93
f 70/70/70 71/71/71 95/95/95 94/94/94
f 71/71/71 72/72/72 96/96/96 95/95/95
f 72/72/72 49/50/50 73/74/74 96/96/96
f 24/97/47 23/98/45 22/99/43 21/100/41 20/101/39 19/102/37 18/103/35 17/104/33 16/105/31 15/106/29 14/107/27 13/108/25 12/109/23 11/110/21 10/111/19 9/112/17 8/113/15 7/114/13 6/115/11 5/116/9 4/117/7 3/118/5 2/119/2 1/120/1
f 73/74/74 74/73/73 75/75/75 76/76/76 77/77/77 78/78/78 79/79/79 80/80/80 81/81/81 82/82/82 83/83/83 84/84/84 85/85/85 86/86/86 87/87/87 88/88/88 89/89/89 90/90/90 91/91/91 92/92/92 93/93/93 94/94/94 95/95/95 96/96/96
s 0
f 97/121/97 98/122/97 122/123/97 121/124/97
f 98/122/98 99/125/98 123/126/98 122/123/98
f 99/125/99 100/127/99 124/128/99 123/126/99
f 100/127/100 101/129/100 125/130/100 124/128/100
f 101/129/101 102/131/101 126/132/101 125/130/101
f 102/131/102 103/133/102 127/134/102 126/132/102
f 103/133/103 104/135/103 128/136/103 127/134/103
f 104/135/104 105/137/104 129/138/104 128/136/104
f 105/137/105 106/139/105 130/140/105 129/138/105
f 106/139/106 107/141/106 131/142/106 130/140/106
f 107/141/107 108/143/107 132/144/107 131/142/107
f 108/143/108 109/145/108 133/146/108 132/144/108
f 109/145/109 110/147/109 134/148/109 133/146/109
f 110/147/110 111/149/110 135/150/110 134/148/110
f 111/149/111 112/151/111 136/152/111 135/150/111
f 112/151/112 113/153/112 137/154/112 136/152/112
f 113/153/113 114/155/113 138/156/113 137/154/113
f 114/155/114 115/157/114 139/158/114 138/156/114
f 115/157/115 116/159/115 140/160/115 139/158/115
f 116/159/116 117/161/116 141/162/116 140/160/116
f 117/161/117 118/163/117 142/164/117 141/162/117
f 118/163/118 119/165/118 143/166/118 142/164/118
f 119/165/119 120/167/119 144/168/119 143/166/119
f 120/167/120 97/121/120 121/124/120 144/168/120
f 121/169/121 122/170/121 146/171/121 145/172/121
f 122/170/122 123/173/122 147/174/122 146/171/122
f 123/173/123 124/175/123 148/176/123 147/174/123
f 124/175/124 125/177/124 149/178/124 148/176/124
f 125/179/125 126/180/125 150/181/125 149/182/125
f 126/180/126 127/183/126 151/184/126 150/181/126
f 127/183/127 128/185/127 152/186/127 151/184/127
f 128/185/128 129/187/128 153/188/128 152/186/128
f 129/187/129 130/189/129 154/190/129 153/188/129
f 130/189/130 131/191/130 155/192/130 154/190/130
f 131/193/131 132/194/131 156/195/131 155/196/131
f 132/194/132 133/197/132 157/198/132 156/195/132
f 133/197/133 134/199/133 158/200/133 157/198/133
f 134/199/134 135/201/134 159/202/134 158/200/134
f 135/201/135 136/203/135 160/204/135 159/202/135
f 136/205/136 137/206/136 161/207/136 160/208/136
f 137/206/137 138/209/137 162/210/137 161/207/137
f 138/209/138 139/211/138 163/212/138 162/210/138
f 139/211/139 140/213/139 164/214/139 163/212/139
f 140/213/140 141/215/140 165/216/140 164/214/140
f 141/215/141 142/217/141 166/218/141 165/216/141
f 142/219/142 143/220/142 167/221/142 166/222/142
f 143/220/143 144/223/143 168/224/143 167/221/143
f 144/223/144 121/169/144 145/172/144 168/224/144
f 145/225/145 146/226/145 170/227/145 169/228/145
f 146/226/146 147/229/146 171/230/146 170/227/146
f 147/229/147 148/231/147 172/232/147 171/230/147
f 148/231/148 149/233/148 173/234/148 172/232/148
f 149/233/149 150/235/149 174/236/149 173/234/149
f 150/235/150 151/237/150 175/238/150 174/236/150
f 151/237/151 152/239/151 176/240/151 175/238/151
f 152/239/152 153/241/152 177/242/152 176/240/152
f 153/241/153 154/243/153 178/244/153 177/242/153
f 154/243/154 155/245/154 179/246/154 178/244/154
f 155/245/155 156/247/155 180/248/155 179/246/155
f 156/247/156 157/249/156 181/250/156 180/248/156
f 157/249/157 158/251/157 182/252/157 181/250/157
f 158/251/158 159/253/158 183/254/158 182/252/158
f 159/253/159 160/255/159 184/256/159 183/254/159
f 160/255/160 161/257/160 185/258/160 184/256/160
f 161/257/161 162/259/161 186/260/161 185/258/161
f 162/259/162 163/261/162 187/262/162 186/260/162
f 163/261/163 164/263/163 188/264/163 187/262/163
f 164/263/164 165/265/164 189/266/164 188/264/164
f 165/265/165 166/267/165 190/268/165 189/266/165
f 166/267/166 167/269/166 191/270/166 190/268/166
f 167/269/167 168/271/167 192/272/167 191/270/167
f 168/271/168 145/225/168 169/228/168 192/272/168
f 193/273/169 194/274/169 196/275/169 195/276/169
f 195/277/170 196/278/170 200/279/170 199/280/170
f 199/281/171 200/282/171 198/283/171 197/284/171
f 197/285/172 198/286/172 194/287/172 193/288/172
f 195/289/173 199/290/173 197/291/173 193/292/173
f 200/293/174 196/294/174 194/295/174 198/296/174
f 201/297/172 202/298/172 204/299/172 203/300/172
f 203/301/169 204/302/169 208/303/169 207/304/169
f 207/305/170 208/306/170 206/307/170 205/308/170
f 205/309/171 206/310/171 202/311/171 201/312/171
f 203/313/173 207/314/173 205/315/173 201/316/173
f 208/317/174 204/318/174 202/319/174 206/320/174
f 209/321/175 210/322/175 212/323/175 211/324/175
f 211/325/176 212/326/176 214/327/176 213/328/176
f 213/328/177 214/327/177 216/329/177 215/330/177
f 215/330/178 216/329/178 218/331/178 217/332/178
f 217/333/179 218/334/179 220/335/179 219/336/179
f 219/337/180 220/338/180 222/339/180 221/340/180
f 221/340/181 222/339/181 224/341/181 223/342/181
f 223/342/182 224/341/182 226/343/182 225/344/182
f 225/345/183 226/346/183 228/347/183 227/348/183
f 227/348/184 228/347/184 230/349/184 229/350/184
f 212/351/174 210/352/174 232/353/174 230/354/174 228/355/174 226/356/174 224/357/174 222/358/174 220/335/174 218/334/174 216/359/174 214/360/174
f 229/361/185 230/362/185 232/363/185 231/364/185
f 231/364/186 232/363/186 210/322/186 209/321/186
f 209/365/173 211/366/173 213/367/173 215/368/173 217/369/173 219/370/173 221/371/173 223/372/173 225/373/173 227/374/173 229/375/173 231/376/173
f 233/377/187 234/378/187 236/379/187 235/380/187
f 235/381/188 236/382/188 240/383/188 239/384/188
f 239/385/189 240/386/189 238/387/189 237/388/189
f 237/389/190 238/390/190 234/391/190 233/392/190
f 235/393/191 239/394/191 237/395/191 233/396/191
f 240/397/192 236/398/192 234/399/192 238/400/192
f 241/401/193 242/402/193 244/403/193 243/404/193
f 243/405/194 244/406/194 248/407/194 247/408/194
f 247/408/195 248/407/195 246/409/195 245/410/195
f 245/411/196 246/412/196 242/413/196 241/414/196
f 243/415/197 247/416/197 245/417/197 241/418/197
f 248/419/198 244/420/198 242/421/198 246/422/198
f 249/423/199 250/424/199 252/425/199 251/426/199
f 251/427/200 252/428/200 256/429/200 255/430/200
f 255/431/201 256/432/201 254/433/201 253/434/201
f 253/435/202 254/436/202 250/437/202 249/438/202
f 251/439/203 255/440/203 253/441/203 249/442/203
f 256/443/204 252/444/204 250/445/204 254/446/204
f 257/447/205 258/448/205 260/449/205 259/450/205
f 259/451/206 260/452/206 264/453/206 263/454/206
f 263/455/207 264/456/207 262/457/207 261/458/207
f 261/459/208 262/460/208 258/461/208 257/462/208
f 259/463/209 263/464/209 261/465/209 257/466/209
f 264/467/210 260/468/210 258/469/210 262/470/210
f 265/471/211 266/472/211 268/473/211 267/474/211
f 267/475/212 268/476/212 272/477/212 271/478/212
f 271/479/213 272/480/213 270/481/213 269/482/213
f 269/483/214 270/484/214 266/485/214 265/486/214
f 267/487/215 271/488/215 269/489/215 265/490/215
f 272/491/216 268/492/216 266/493/216 270/494/216
f 273/495/217 274/496/217 276/497/217 275/498/217
f 275/499/218 276/500/218 280/501/218 279/502/218
f 279/503/219 280/504/219 278/505/219 277/506/219
f 277/507/220 278/508/220 274/509/220 273/510/220
f 275/511/221 279/512/221 277/513/221 273/514/221
f 280/515/222 276/516/222 274/517/222 278/518/222
f 281/519/223 282/520/223 284/521/223 283/522/223
f 283/523/224 284/524/224 288/525/224 287/526/224
f 287/527/225 288/528/225 286/529/225 285/530/225
f 285/531/226 286/532/226 282/533/226 281/534/226
f 283/535/227 287/536/227 285/537/227 281/538/227
f 288/539/228 284/540/228 282/541/228 286/542/228
